<?xml version="1.0" encoding="utf-8" standalone="no"?>
<!DOCTYPE svg PUBLIC "-//W3C//DTD SVG 1.1//EN"
  "http://www.w3.org/Graphics/SVG/1.1/DTD/svg11.dtd">
<svg xmlns:xlink="http://www.w3.org/1999/xlink" width="703.87475pt" height="414.254687pt" viewBox="0 0 703.87475 414.254687" xmlns="http://www.w3.org/2000/svg" version="1.1">
 <metadata>
  <rdf:RDF xmlns:dc="http://purl.org/dc/elements/1.1/" xmlns:cc="http://creativecommons.org/ns#" xmlns:rdf="http://www.w3.org/1999/02/22-rdf-syntax-ns#">
   <cc:Work>
    <dc:type rdf:resource="http://purl.org/dc/dcmitype/StillImage"/>
    <dc:date>2026-06-19T07:28:34.362894</dc:date>
    <dc:format>image/svg+xml</dc:format>
    <dc:creator>
     <cc:Agent>
      <dc:title>Matplotlib v3.10.9, https://matplotlib.org/</dc:title>
     </cc:Agent>
    </dc:creator>
   </cc:Work>
  </rdf:RDF>
 </metadata>
 <defs>
  <style type="text/css">*{stroke-linejoin: round; stroke-linecap: butt}</style>
 </defs>
 <g id="figure_1">
  <g id="patch_1">
   <path d="M 0 414.254687 
L 703.87475 414.254687 
L 703.87475 0 
L 0 0 
z
" style="fill: #ffffff"/>
  </g>
  <g id="axes_1">
   <g id="patch_2">
    <path d="M 40.53875 371.26875 
L 696.67475 371.26875 
L 696.67475 22.32 
L 40.53875 22.32 
z
" style="fill: #ffffff"/>
   </g>
   <g id="matplotlib.axis_1">
    <g id="xtick_1">
     <g id="line2d_1">
      <path d="M 115.668826 371.26875 
L 115.668826 22.32 
" clip-path="url(#p67e7d726b8)" style="fill: none; stroke: #cccccc; stroke-linecap: round"/>
     </g>
     <g id="text_1">
      <!-- 2 -->
      <g style="fill: #262626" transform="translate(112.169451 389.127031) scale(0.11 -0.11)">
       <defs>
        <path id="DejaVuSans-32" d="M 1228 531 
L 3431 531 
L 3431 0 
L 469 0 
L 469 531 
Q 828 903 1448 1529 
Q 2069 2156 2228 2338 
Q 2531 2678 2651 2914 
Q 2772 3150 2772 3378 
Q 2772 3750 2511 3984 
Q 2250 4219 1831 4219 
Q 1534 4219 1204 4116 
Q 875 4013 500 3803 
L 500 4441 
Q 881 4594 1212 4672 
Q 1544 4750 1819 4750 
Q 2544 4750 2975 4387 
Q 3406 4025 3406 3419 
Q 3406 3131 3298 2873 
Q 3191 2616 2906 2266 
Q 2828 2175 2409 1742 
Q 1991 1309 1228 531 
z
" transform="scale(0.015625)"/>
       </defs>
       <use xlink:href="#DejaVuSans-32"/>
      </g>
     </g>
    </g>
    <g id="xtick_2">
     <g id="line2d_2">
      <path d="M 215.842261 371.26875 
L 215.842261 22.32 
" clip-path="url(#p67e7d726b8)" style="fill: none; stroke: #cccccc; stroke-linecap: round"/>
     </g>
     <g id="text_2">
      <!-- 4 -->
      <g style="fill: #262626" transform="translate(212.342886 389.127031) scale(0.11 -0.11)">
       <defs>
        <path id="DejaVuSans-34" d="M 2419 4116 
L 825 1625 
L 2419 1625 
L 2419 4116 
z
M 2253 4666 
L 3047 4666 
L 3047 1625 
L 3713 1625 
L 3713 1100 
L 3047 1100 
L 3047 0 
L 2419 0 
L 2419 1100 
L 313 1100 
L 313 1709 
L 2253 4666 
z
" transform="scale(0.015625)"/>
       </defs>
       <use xlink:href="#DejaVuSans-34"/>
      </g>
     </g>
    </g>
    <g id="xtick_3">
     <g id="line2d_3">
      <path d="M 316.015697 371.26875 
L 316.015697 22.32 
" clip-path="url(#p67e7d726b8)" style="fill: none; stroke: #cccccc; stroke-linecap: round"/>
     </g>
     <g id="text_3">
      <!-- 6 -->
      <g style="fill: #262626" transform="translate(312.516322 389.127031) scale(0.11 -0.11)">
       <defs>
        <path id="DejaVuSans-36" d="M 2113 2584 
Q 1688 2584 1439 2293 
Q 1191 2003 1191 1497 
Q 1191 994 1439 701 
Q 1688 409 2113 409 
Q 2538 409 2786 701 
Q 3034 994 3034 1497 
Q 3034 2003 2786 2293 
Q 2538 2584 2113 2584 
z
M 3366 4563 
L 3366 3988 
Q 3128 4100 2886 4159 
Q 2644 4219 2406 4219 
Q 1781 4219 1451 3797 
Q 1122 3375 1075 2522 
Q 1259 2794 1537 2939 
Q 1816 3084 2150 3084 
Q 2853 3084 3261 2657 
Q 3669 2231 3669 1497 
Q 3669 778 3244 343 
Q 2819 -91 2113 -91 
Q 1303 -91 875 529 
Q 447 1150 447 2328 
Q 447 3434 972 4092 
Q 1497 4750 2381 4750 
Q 2619 4750 2861 4703 
Q 3103 4656 3366 4563 
z
" transform="scale(0.015625)"/>
       </defs>
       <use xlink:href="#DejaVuSans-36"/>
      </g>
     </g>
    </g>
    <g id="xtick_4">
     <g id="line2d_4">
      <path d="M 416.189132 371.26875 
L 416.189132 22.32 
" clip-path="url(#p67e7d726b8)" style="fill: none; stroke: #cccccc; stroke-linecap: round"/>
     </g>
     <g id="text_4">
      <!-- 8 -->
      <g style="fill: #262626" transform="translate(412.689757 389.127031) scale(0.11 -0.11)">
       <defs>
        <path id="DejaVuSans-38" d="M 2034 2216 
Q 1584 2216 1326 1975 
Q 1069 1734 1069 1313 
Q 1069 891 1326 650 
Q 1584 409 2034 409 
Q 2484 409 2743 651 
Q 3003 894 3003 1313 
Q 3003 1734 2745 1975 
Q 2488 2216 2034 2216 
z
M 1403 2484 
Q 997 2584 770 2862 
Q 544 3141 544 3541 
Q 544 4100 942 4425 
Q 1341 4750 2034 4750 
Q 2731 4750 3128 4425 
Q 3525 4100 3525 3541 
Q 3525 3141 3298 2862 
Q 3072 2584 2669 2484 
Q 3125 2378 3379 2068 
Q 3634 1759 3634 1313 
Q 3634 634 3220 271 
Q 2806 -91 2034 -91 
Q 1263 -91 848 271 
Q 434 634 434 1313 
Q 434 1759 690 2068 
Q 947 2378 1403 2484 
z
M 1172 3481 
Q 1172 3119 1398 2916 
Q 1625 2713 2034 2713 
Q 2441 2713 2670 2916 
Q 2900 3119 2900 3481 
Q 2900 3844 2670 4047 
Q 2441 4250 2034 4250 
Q 1625 4250 1398 4047 
Q 1172 3844 1172 3481 
z
" transform="scale(0.015625)"/>
       </defs>
       <use xlink:href="#DejaVuSans-38"/>
      </g>
     </g>
    </g>
    <g id="xtick_5">
     <g id="line2d_5">
      <path d="M 516.362567 371.26875 
L 516.362567 22.32 
" clip-path="url(#p67e7d726b8)" style="fill: none; stroke: #cccccc; stroke-linecap: round"/>
     </g>
     <g id="text_5">
      <!-- 10 -->
      <g style="fill: #262626" transform="translate(509.363817 389.127031) scale(0.11 -0.11)">
       <defs>
        <path id="DejaVuSans-31" d="M 794 531 
L 1825 531 
L 1825 4091 
L 703 3866 
L 703 4441 
L 1819 4666 
L 2450 4666 
L 2450 531 
L 3481 531 
L 3481 0 
L 794 0 
L 794 531 
z
" transform="scale(0.015625)"/>
        <path id="DejaVuSans-30" d="M 2034 4250 
Q 1547 4250 1301 3770 
Q 1056 3291 1056 2328 
Q 1056 1369 1301 889 
Q 1547 409 2034 409 
Q 2525 409 2770 889 
Q 3016 1369 3016 2328 
Q 3016 3291 2770 3770 
Q 2525 4250 2034 4250 
z
M 2034 4750 
Q 2819 4750 3233 4129 
Q 3647 3509 3647 2328 
Q 3647 1150 3233 529 
Q 2819 -91 2034 -91 
Q 1250 -91 836 529 
Q 422 1150 422 2328 
Q 422 3509 836 4129 
Q 1250 4750 2034 4750 
z
" transform="scale(0.015625)"/>
       </defs>
       <use xlink:href="#DejaVuSans-31"/>
       <use xlink:href="#DejaVuSans-30" transform="translate(63.623047 0)"/>
      </g>
     </g>
    </g>
    <g id="xtick_6">
     <g id="line2d_6">
      <path d="M 616.536002 371.26875 
L 616.536002 22.32 
" clip-path="url(#p67e7d726b8)" style="fill: none; stroke: #cccccc; stroke-linecap: round"/>
     </g>
     <g id="text_6">
      <!-- 12 -->
      <g style="fill: #262626" transform="translate(609.537252 389.127031) scale(0.11 -0.11)">
       <use xlink:href="#DejaVuSans-31"/>
       <use xlink:href="#DejaVuSans-32" transform="translate(63.623047 0)"/>
      </g>
     </g>
    </g>
    <g id="text_7">
     <!-- $N$ (system particles) -->
     <g style="fill: #262626" transform="translate(308.12675 404.534687) scale(0.12 -0.12)">
      <defs>
       <path id="DejaVuSans-Oblique-4e" d="M 1081 4666 
L 1931 4666 
L 3219 666 
L 4000 4666 
L 4616 4666 
L 3706 0 
L 2853 0 
L 1569 4025 
L 788 0 
L 172 0 
L 1081 4666 
z
" transform="scale(0.015625)"/>
       <path id="DejaVuSans-20" transform="scale(0.015625)"/>
       <path id="DejaVuSans-28" d="M 1984 4856 
Q 1566 4138 1362 3434 
Q 1159 2731 1159 2009 
Q 1159 1288 1364 580 
Q 1569 -128 1984 -844 
L 1484 -844 
Q 1016 -109 783 600 
Q 550 1309 550 2009 
Q 550 2706 781 3412 
Q 1013 4119 1484 4856 
L 1984 4856 
z
" transform="scale(0.015625)"/>
       <path id="DejaVuSans-73" d="M 2834 3397 
L 2834 2853 
Q 2591 2978 2328 3040 
Q 2066 3103 1784 3103 
Q 1356 3103 1142 2972 
Q 928 2841 928 2578 
Q 928 2378 1081 2264 
Q 1234 2150 1697 2047 
L 1894 2003 
Q 2506 1872 2764 1633 
Q 3022 1394 3022 966 
Q 3022 478 2636 193 
Q 2250 -91 1575 -91 
Q 1294 -91 989 -36 
Q 684 19 347 128 
L 347 722 
Q 666 556 975 473 
Q 1284 391 1588 391 
Q 1994 391 2212 530 
Q 2431 669 2431 922 
Q 2431 1156 2273 1281 
Q 2116 1406 1581 1522 
L 1381 1569 
Q 847 1681 609 1914 
Q 372 2147 372 2553 
Q 372 3047 722 3315 
Q 1072 3584 1716 3584 
Q 2034 3584 2315 3537 
Q 2597 3491 2834 3397 
z
" transform="scale(0.015625)"/>
       <path id="DejaVuSans-79" d="M 2059 -325 
Q 1816 -950 1584 -1140 
Q 1353 -1331 966 -1331 
L 506 -1331 
L 506 -850 
L 844 -850 
Q 1081 -850 1212 -737 
Q 1344 -625 1503 -206 
L 1606 56 
L 191 3500 
L 800 3500 
L 1894 763 
L 2988 3500 
L 3597 3500 
L 2059 -325 
z
" transform="scale(0.015625)"/>
       <path id="DejaVuSans-74" d="M 1172 4494 
L 1172 3500 
L 2356 3500 
L 2356 3053 
L 1172 3053 
L 1172 1153 
Q 1172 725 1289 603 
Q 1406 481 1766 481 
L 2356 481 
L 2356 0 
L 1766 0 
Q 1100 0 847 248 
Q 594 497 594 1153 
L 594 3053 
L 172 3053 
L 172 3500 
L 594 3500 
L 594 4494 
L 1172 4494 
z
" transform="scale(0.015625)"/>
       <path id="DejaVuSans-65" d="M 3597 1894 
L 3597 1613 
L 953 1613 
Q 991 1019 1311 708 
Q 1631 397 2203 397 
Q 2534 397 2845 478 
Q 3156 559 3463 722 
L 3463 178 
Q 3153 47 2828 -22 
Q 2503 -91 2169 -91 
Q 1331 -91 842 396 
Q 353 884 353 1716 
Q 353 2575 817 3079 
Q 1281 3584 2069 3584 
Q 2775 3584 3186 3129 
Q 3597 2675 3597 1894 
z
M 3022 2063 
Q 3016 2534 2758 2815 
Q 2500 3097 2075 3097 
Q 1594 3097 1305 2825 
Q 1016 2553 972 2059 
L 3022 2063 
z
" transform="scale(0.015625)"/>
       <path id="DejaVuSans-6d" d="M 3328 2828 
Q 3544 3216 3844 3400 
Q 4144 3584 4550 3584 
Q 5097 3584 5394 3201 
Q 5691 2819 5691 2113 
L 5691 0 
L 5113 0 
L 5113 2094 
Q 5113 2597 4934 2840 
Q 4756 3084 4391 3084 
Q 3944 3084 3684 2787 
Q 3425 2491 3425 1978 
L 3425 0 
L 2847 0 
L 2847 2094 
Q 2847 2600 2669 2842 
Q 2491 3084 2119 3084 
Q 1678 3084 1418 2786 
Q 1159 2488 1159 1978 
L 1159 0 
L 581 0 
L 581 3500 
L 1159 3500 
L 1159 2956 
Q 1356 3278 1631 3431 
Q 1906 3584 2284 3584 
Q 2666 3584 2933 3390 
Q 3200 3197 3328 2828 
z
" transform="scale(0.015625)"/>
       <path id="DejaVuSans-70" d="M 1159 525 
L 1159 -1331 
L 581 -1331 
L 581 3500 
L 1159 3500 
L 1159 2969 
Q 1341 3281 1617 3432 
Q 1894 3584 2278 3584 
Q 2916 3584 3314 3078 
Q 3713 2572 3713 1747 
Q 3713 922 3314 415 
Q 2916 -91 2278 -91 
Q 1894 -91 1617 61 
Q 1341 213 1159 525 
z
M 3116 1747 
Q 3116 2381 2855 2742 
Q 2594 3103 2138 3103 
Q 1681 3103 1420 2742 
Q 1159 2381 1159 1747 
Q 1159 1113 1420 752 
Q 1681 391 2138 391 
Q 2594 391 2855 752 
Q 3116 1113 3116 1747 
z
" transform="scale(0.015625)"/>
       <path id="DejaVuSans-61" d="M 2194 1759 
Q 1497 1759 1228 1600 
Q 959 1441 959 1056 
Q 959 750 1161 570 
Q 1363 391 1709 391 
Q 2188 391 2477 730 
Q 2766 1069 2766 1631 
L 2766 1759 
L 2194 1759 
z
M 3341 1997 
L 3341 0 
L 2766 0 
L 2766 531 
Q 2569 213 2275 61 
Q 1981 -91 1556 -91 
Q 1019 -91 701 211 
Q 384 513 384 1019 
Q 384 1609 779 1909 
Q 1175 2209 1959 2209 
L 2766 2209 
L 2766 2266 
Q 2766 2663 2505 2880 
Q 2244 3097 1772 3097 
Q 1472 3097 1187 3025 
Q 903 2953 641 2809 
L 641 3341 
Q 956 3463 1253 3523 
Q 1550 3584 1831 3584 
Q 2591 3584 2966 3190 
Q 3341 2797 3341 1997 
z
" transform="scale(0.015625)"/>
       <path id="DejaVuSans-72" d="M 2631 2963 
Q 2534 3019 2420 3045 
Q 2306 3072 2169 3072 
Q 1681 3072 1420 2755 
Q 1159 2438 1159 1844 
L 1159 0 
L 581 0 
L 581 3500 
L 1159 3500 
L 1159 2956 
Q 1341 3275 1631 3429 
Q 1922 3584 2338 3584 
Q 2397 3584 2469 3576 
Q 2541 3569 2628 3553 
L 2631 2963 
z
" transform="scale(0.015625)"/>
       <path id="DejaVuSans-69" d="M 603 3500 
L 1178 3500 
L 1178 0 
L 603 0 
L 603 3500 
z
M 603 4863 
L 1178 4863 
L 1178 4134 
L 603 4134 
L 603 4863 
z
" transform="scale(0.015625)"/>
       <path id="DejaVuSans-63" d="M 3122 3366 
L 3122 2828 
Q 2878 2963 2633 3030 
Q 2388 3097 2138 3097 
Q 1578 3097 1268 2742 
Q 959 2388 959 1747 
Q 959 1106 1268 751 
Q 1578 397 2138 397 
Q 2388 397 2633 464 
Q 2878 531 3122 666 
L 3122 134 
Q 2881 22 2623 -34 
Q 2366 -91 2075 -91 
Q 1284 -91 818 406 
Q 353 903 353 1747 
Q 353 2603 823 3093 
Q 1294 3584 2113 3584 
Q 2378 3584 2631 3529 
Q 2884 3475 3122 3366 
z
" transform="scale(0.015625)"/>
       <path id="DejaVuSans-6c" d="M 603 4863 
L 1178 4863 
L 1178 0 
L 603 0 
L 603 4863 
z
" transform="scale(0.015625)"/>
       <path id="DejaVuSans-29" d="M 513 4856 
L 1013 4856 
Q 1481 4119 1714 3412 
Q 1947 2706 1947 2009 
Q 1947 1309 1714 600 
Q 1481 -109 1013 -844 
L 513 -844 
Q 928 -128 1133 580 
Q 1338 1288 1338 2009 
Q 1338 2731 1133 3434 
Q 928 4138 513 4856 
z
" transform="scale(0.015625)"/>
      </defs>
      <use xlink:href="#DejaVuSans-Oblique-4e" transform="translate(0 0.015625)"/>
      <use xlink:href="#DejaVuSans-20" transform="translate(74.804688 0.015625)"/>
      <use xlink:href="#DejaVuSans-28" transform="translate(106.591797 0.015625)"/>
      <use xlink:href="#DejaVuSans-73" transform="translate(145.605469 0.015625)"/>
      <use xlink:href="#DejaVuSans-79" transform="translate(197.705078 0.015625)"/>
      <use xlink:href="#DejaVuSans-73" transform="translate(256.884766 0.015625)"/>
      <use xlink:href="#DejaVuSans-74" transform="translate(308.984375 0.015625)"/>
      <use xlink:href="#DejaVuSans-65" transform="translate(348.193359 0.015625)"/>
      <use xlink:href="#DejaVuSans-6d" transform="translate(409.716797 0.015625)"/>
      <use xlink:href="#DejaVuSans-20" transform="translate(507.128906 0.015625)"/>
      <use xlink:href="#DejaVuSans-70" transform="translate(538.916016 0.015625)"/>
      <use xlink:href="#DejaVuSans-61" transform="translate(602.392578 0.015625)"/>
      <use xlink:href="#DejaVuSans-72" transform="translate(663.671875 0.015625)"/>
      <use xlink:href="#DejaVuSans-74" transform="translate(704.785156 0.015625)"/>
      <use xlink:href="#DejaVuSans-69" transform="translate(743.994141 0.015625)"/>
      <use xlink:href="#DejaVuSans-63" transform="translate(771.777344 0.015625)"/>
      <use xlink:href="#DejaVuSans-6c" transform="translate(826.757812 0.015625)"/>
      <use xlink:href="#DejaVuSans-65" transform="translate(854.541016 0.015625)"/>
      <use xlink:href="#DejaVuSans-73" transform="translate(916.064453 0.015625)"/>
      <use xlink:href="#DejaVuSans-29" transform="translate(968.164062 0.015625)"/>
     </g>
    </g>
   </g>
   <g id="matplotlib.axis_2">
    <g id="ytick_1">
     <g id="line2d_7">
      <path d="M 40.53875 321.023611 
L 696.67475 321.023611 
" clip-path="url(#p67e7d726b8)" style="fill: none; stroke: #cccccc; stroke-linecap: round"/>
     </g>
     <g id="text_8">
      <!-- 1 -->
      <g style="fill: #262626" transform="translate(24.04 325.202752) scale(0.11 -0.11)">
       <use xlink:href="#DejaVuSans-31"/>
      </g>
     </g>
    </g>
    <g id="ytick_2">
     <g id="line2d_8">
      <path d="M 40.53875 253.230824 
L 696.67475 253.230824 
" clip-path="url(#p67e7d726b8)" style="fill: none; stroke: #cccccc; stroke-linecap: round"/>
     </g>
     <g id="text_9">
      <!-- 2 -->
      <g style="fill: #262626" transform="translate(24.04 257.409965) scale(0.11 -0.11)">
       <use xlink:href="#DejaVuSans-32"/>
      </g>
     </g>
    </g>
    <g id="ytick_3">
     <g id="line2d_9">
      <path d="M 40.53875 185.438037 
L 696.67475 185.438037 
" clip-path="url(#p67e7d726b8)" style="fill: none; stroke: #cccccc; stroke-linecap: round"/>
     </g>
     <g id="text_10">
      <!-- 3 -->
      <g style="fill: #262626" transform="translate(24.04 189.617178) scale(0.11 -0.11)">
       <defs>
        <path id="DejaVuSans-33" d="M 2597 2516 
Q 3050 2419 3304 2112 
Q 3559 1806 3559 1356 
Q 3559 666 3084 287 
Q 2609 -91 1734 -91 
Q 1441 -91 1130 -33 
Q 819 25 488 141 
L 488 750 
Q 750 597 1062 519 
Q 1375 441 1716 441 
Q 2309 441 2620 675 
Q 2931 909 2931 1356 
Q 2931 1769 2642 2001 
Q 2353 2234 1838 2234 
L 1294 2234 
L 1294 2753 
L 1863 2753 
Q 2328 2753 2575 2939 
Q 2822 3125 2822 3475 
Q 2822 3834 2567 4026 
Q 2313 4219 1838 4219 
Q 1578 4219 1281 4162 
Q 984 4106 628 3988 
L 628 4550 
Q 988 4650 1302 4700 
Q 1616 4750 1894 4750 
Q 2613 4750 3031 4423 
Q 3450 4097 3450 3541 
Q 3450 3153 3228 2886 
Q 3006 2619 2597 2516 
z
" transform="scale(0.015625)"/>
       </defs>
       <use xlink:href="#DejaVuSans-33"/>
      </g>
     </g>
    </g>
    <g id="ytick_4">
     <g id="line2d_10">
      <path d="M 40.53875 117.64525 
L 696.67475 117.64525 
" clip-path="url(#p67e7d726b8)" style="fill: none; stroke: #cccccc; stroke-linecap: round"/>
     </g>
     <g id="text_11">
      <!-- 4 -->
      <g style="fill: #262626" transform="translate(24.04 121.82439) scale(0.11 -0.11)">
       <use xlink:href="#DejaVuSans-34"/>
      </g>
     </g>
    </g>
    <g id="ytick_5">
     <g id="line2d_11">
      <path d="M 40.53875 49.852463 
L 696.67475 49.852463 
" clip-path="url(#p67e7d726b8)" style="fill: none; stroke: #cccccc; stroke-linecap: round"/>
     </g>
     <g id="text_12">
      <!-- 5 -->
      <g style="fill: #262626" transform="translate(24.04 54.031603) scale(0.11 -0.11)">
       <defs>
        <path id="DejaVuSans-35" d="M 691 4666 
L 3169 4666 
L 3169 4134 
L 1269 4134 
L 1269 2991 
Q 1406 3038 1543 3061 
Q 1681 3084 1819 3084 
Q 2600 3084 3056 2656 
Q 3513 2228 3513 1497 
Q 3513 744 3044 326 
Q 2575 -91 1722 -91 
Q 1428 -91 1123 -41 
Q 819 9 494 109 
L 494 744 
Q 775 591 1075 516 
Q 1375 441 1709 441 
Q 2250 441 2565 725 
Q 2881 1009 2881 1497 
Q 2881 1984 2565 2268 
Q 2250 2553 1709 2553 
Q 1456 2553 1204 2497 
Q 953 2441 691 2322 
L 691 4666 
z
" transform="scale(0.015625)"/>
       </defs>
       <use xlink:href="#DejaVuSans-35"/>
      </g>
     </g>
    </g>
    <g id="text_13">
     <!-- $R(N) = \Delta\omega_{\mathrm{SQL}} / \Delta\omega_{\mathrm{opt}}$ -->
     <g style="fill: #262626" transform="translate(16.32 253.314375) rotate(-90) scale(0.12 -0.12)">
      <defs>
       <path id="DejaVuSans-Oblique-52" d="M 1613 4147 
L 1294 2491 
L 2106 2491 
Q 2584 2491 2879 2755 
Q 3175 3019 3175 3444 
Q 3175 3784 2976 3965 
Q 2778 4147 2406 4147 
L 1613 4147 
z
M 2772 2241 
Q 2972 2194 3105 2009 
Q 3238 1825 3413 1275 
L 3809 0 
L 3144 0 
L 2778 1197 
Q 2638 1659 2453 1815 
Q 2269 1972 1888 1972 
L 1191 1972 
L 806 0 
L 172 0 
L 1081 4666 
L 2503 4666 
Q 3150 4666 3495 4373 
Q 3841 4081 3841 3531 
Q 3841 3044 3547 2687 
Q 3253 2331 2772 2241 
z
" transform="scale(0.015625)"/>
       <path id="DejaVuSans-3d" d="M 678 2906 
L 4684 2906 
L 4684 2381 
L 678 2381 
L 678 2906 
z
M 678 1631 
L 4684 1631 
L 4684 1100 
L 678 1100 
L 678 1631 
z
" transform="scale(0.015625)"/>
       <path id="DejaVuSans-394" d="M 2188 4044 
L 906 525 
L 3472 525 
L 2188 4044 
z
M 50 0 
L 1831 4666 
L 2547 4666 
L 4325 0 
L 50 0 
z
" transform="scale(0.015625)"/>
       <path id="DejaVuSans-Oblique-3c9" d="M 1369 -91 
Q 72 -91 434 1766 
Q 575 2500 1256 3500 
L 1875 3500 
Q 1231 2500 1088 1750 
Q 819 397 1519 397 
Q 2166 397 2478 2078 
L 3009 2078 
Q 2669 388 3316 397 
Q 4013 403 4275 1750 
Q 4419 2500 4169 3500 
L 4788 3500 
Q 5075 2500 4934 1766 
Q 4578 -94 3278 -91 
Q 2428 -88 2503 844 
Q 2194 -91 1369 -91 
z
" transform="scale(0.015625)"/>
       <path id="DejaVuSans-53" d="M 3425 4513 
L 3425 3897 
Q 3066 4069 2747 4153 
Q 2428 4238 2131 4238 
Q 1616 4238 1336 4038 
Q 1056 3838 1056 3469 
Q 1056 3159 1242 3001 
Q 1428 2844 1947 2747 
L 2328 2669 
Q 3034 2534 3370 2195 
Q 3706 1856 3706 1288 
Q 3706 609 3251 259 
Q 2797 -91 1919 -91 
Q 1588 -91 1214 -16 
Q 841 59 441 206 
L 441 856 
Q 825 641 1194 531 
Q 1563 422 1919 422 
Q 2459 422 2753 634 
Q 3047 847 3047 1241 
Q 3047 1584 2836 1778 
Q 2625 1972 2144 2069 
L 1759 2144 
Q 1053 2284 737 2584 
Q 422 2884 422 3419 
Q 422 4038 858 4394 
Q 1294 4750 2059 4750 
Q 2388 4750 2728 4690 
Q 3069 4631 3425 4513 
z
" transform="scale(0.015625)"/>
       <path id="DejaVuSans-51" d="M 2522 4238 
Q 1834 4238 1429 3725 
Q 1025 3213 1025 2328 
Q 1025 1447 1429 934 
Q 1834 422 2522 422 
Q 3209 422 3611 934 
Q 4013 1447 4013 2328 
Q 4013 3213 3611 3725 
Q 3209 4238 2522 4238 
z
M 3406 84 
L 4238 -825 
L 3475 -825 
L 2784 -78 
Q 2681 -84 2626 -87 
Q 2572 -91 2522 -91 
Q 1538 -91 948 567 
Q 359 1225 359 2328 
Q 359 3434 948 4092 
Q 1538 4750 2522 4750 
Q 3503 4750 4090 4092 
Q 4678 3434 4678 2328 
Q 4678 1516 4351 937 
Q 4025 359 3406 84 
z
" transform="scale(0.015625)"/>
       <path id="DejaVuSans-4c" d="M 628 4666 
L 1259 4666 
L 1259 531 
L 3531 531 
L 3531 0 
L 628 0 
L 628 4666 
z
" transform="scale(0.015625)"/>
       <path id="DejaVuSans-2f" d="M 1625 4666 
L 2156 4666 
L 531 -594 
L 0 -594 
L 1625 4666 
z
" transform="scale(0.015625)"/>
       <path id="DejaVuSans-6f" d="M 1959 3097 
Q 1497 3097 1228 2736 
Q 959 2375 959 1747 
Q 959 1119 1226 758 
Q 1494 397 1959 397 
Q 2419 397 2687 759 
Q 2956 1122 2956 1747 
Q 2956 2369 2687 2733 
Q 2419 3097 1959 3097 
z
M 1959 3584 
Q 2709 3584 3137 3096 
Q 3566 2609 3566 1747 
Q 3566 888 3137 398 
Q 2709 -91 1959 -91 
Q 1206 -91 779 398 
Q 353 888 353 1747 
Q 353 2609 779 3096 
Q 1206 3584 1959 3584 
z
" transform="scale(0.015625)"/>
      </defs>
      <use xlink:href="#DejaVuSans-Oblique-52" transform="translate(0 0.125)"/>
      <use xlink:href="#DejaVuSans-28" transform="translate(69.482422 0.125)"/>
      <use xlink:href="#DejaVuSans-Oblique-4e" transform="translate(108.496094 0.125)"/>
      <use xlink:href="#DejaVuSans-29" transform="translate(183.300781 0.125)"/>
      <use xlink:href="#DejaVuSans-3d" transform="translate(241.796875 0.125)"/>
      <use xlink:href="#DejaVuSans-394" transform="translate(345.068359 0.125)"/>
      <use xlink:href="#DejaVuSans-Oblique-3c9" transform="translate(413.476562 0.125)"/>
      <use xlink:href="#DejaVuSans-53" transform="translate(497.216797 -16.28125) scale(0.7)"/>
      <use xlink:href="#DejaVuSans-51" transform="translate(541.650391 -16.28125) scale(0.7)"/>
      <use xlink:href="#DejaVuSans-4c" transform="translate(596.748047 -16.28125) scale(0.7)"/>
      <use xlink:href="#DejaVuSans-2f" transform="translate(638.481445 0.125)"/>
      <use xlink:href="#DejaVuSans-394" transform="translate(672.172852 0.125)"/>
      <use xlink:href="#DejaVuSans-Oblique-3c9" transform="translate(740.581055 0.125)"/>
      <use xlink:href="#DejaVuSans-6f" transform="translate(824.321289 -16.28125) scale(0.7)"/>
      <use xlink:href="#DejaVuSans-70" transform="translate(867.148438 -16.28125) scale(0.7)"/>
      <use xlink:href="#DejaVuSans-74" transform="translate(911.582031 -16.28125) scale(0.7)"/>
     </g>
    </g>
   </g>
   <g id="line2d_12">
    <path d="M 65.582109 130.364886 
L 115.668826 76.370082 
L 165.755544 227.411275 
L 215.842261 73.284617 
L 265.928979 237.497845 
L 316.015697 166.565618 
L 366.102414 303.75249 
L 416.189132 326.42451 
L 466.275849 323.007874 
L 516.362567 336.209772 
L 566.449284 333.638636 
L 616.536002 346.282772 
L 666.622719 337.837172 
" clip-path="url(#p67e7d726b8)" style="fill: none; stroke: #414487; stroke-width: 1.5; stroke-linecap: round"/>
    <defs>
     <path id="mf665830a4a" d="M 0 3 
C 0.795609 3 1.55874 2.683901 2.12132 2.12132 
C 2.683901 1.55874 3 0.795609 3 0 
C 3 -0.795609 2.683901 -1.55874 2.12132 -2.12132 
C 1.55874 -2.683901 0.795609 -3 0 -3 
C -0.795609 -3 -1.55874 -2.683901 -2.12132 -2.12132 
C -2.683901 -1.55874 -3 -0.795609 -3 0 
C -3 0.795609 -2.683901 1.55874 -2.12132 2.12132 
C -1.55874 2.683901 -0.795609 3 0 3 
z
" style="stroke: #414487"/>
    </defs>
    <g clip-path="url(#p67e7d726b8)">
     <use xlink:href="#mf665830a4a" x="65.582109" y="130.364886" style="fill: #414487; stroke: #414487"/>
     <use xlink:href="#mf665830a4a" x="115.668826" y="76.370082" style="fill: #414487; stroke: #414487"/>
     <use xlink:href="#mf665830a4a" x="165.755544" y="227.411275" style="fill: #414487; stroke: #414487"/>
     <use xlink:href="#mf665830a4a" x="215.842261" y="73.284617" style="fill: #414487; stroke: #414487"/>
     <use xlink:href="#mf665830a4a" x="265.928979" y="237.497845" style="fill: #414487; stroke: #414487"/>
     <use xlink:href="#mf665830a4a" x="316.015697" y="166.565618" style="fill: #414487; stroke: #414487"/>
     <use xlink:href="#mf665830a4a" x="366.102414" y="303.75249" style="fill: #414487; stroke: #414487"/>
     <use xlink:href="#mf665830a4a" x="416.189132" y="326.42451" style="fill: #414487; stroke: #414487"/>
     <use xlink:href="#mf665830a4a" x="466.275849" y="323.007874" style="fill: #414487; stroke: #414487"/>
     <use xlink:href="#mf665830a4a" x="516.362567" y="336.209772" style="fill: #414487; stroke: #414487"/>
     <use xlink:href="#mf665830a4a" x="566.449284" y="333.638636" style="fill: #414487; stroke: #414487"/>
     <use xlink:href="#mf665830a4a" x="616.536002" y="346.282772" style="fill: #414487; stroke: #414487"/>
     <use xlink:href="#mf665830a4a" x="666.622719" y="337.837172" style="fill: #414487; stroke: #414487"/>
    </g>
   </g>
   <g id="line2d_13">
    <path d="M 65.582109 121.239035 
L 115.668826 104.43291 
L 165.755544 204.933264 
L 215.842261 176.233571 
L 265.928979 205.059682 
L 316.015697 187.593799 
L 366.102414 261.012339 
L 416.189132 333.231414 
L 466.275849 324.98724 
L 516.362567 271.324542 
L 566.449284 339.15571 
L 616.536002 340.622138 
L 666.622719 303.58288 
" clip-path="url(#p67e7d726b8)" style="fill: none; stroke: #2c728e; stroke-width: 1.5; stroke-linecap: round"/>
    <defs>
     <path id="m905ec85e72" d="M 0 3 
C 0.795609 3 1.55874 2.683901 2.12132 2.12132 
C 2.683901 1.55874 3 0.795609 3 0 
C 3 -0.795609 2.683901 -1.55874 2.12132 -2.12132 
C 1.55874 -2.683901 0.795609 -3 0 -3 
C -0.795609 -3 -1.55874 -2.683901 -2.12132 -2.12132 
C -2.683901 -1.55874 -3 -0.795609 -3 0 
C -3 0.795609 -2.683901 1.55874 -2.12132 2.12132 
C -1.55874 2.683901 -0.795609 3 0 3 
z
" style="stroke: #2c728e"/>
    </defs>
    <g clip-path="url(#p67e7d726b8)">
     <use xlink:href="#m905ec85e72" x="65.582109" y="121.239035" style="fill: #2c728e; stroke: #2c728e"/>
     <use xlink:href="#m905ec85e72" x="115.668826" y="104.43291" style="fill: #2c728e; stroke: #2c728e"/>
     <use xlink:href="#m905ec85e72" x="165.755544" y="204.933264" style="fill: #2c728e; stroke: #2c728e"/>
     <use xlink:href="#m905ec85e72" x="215.842261" y="176.233571" style="fill: #2c728e; stroke: #2c728e"/>
     <use xlink:href="#m905ec85e72" x="265.928979" y="205.059682" style="fill: #2c728e; stroke: #2c728e"/>
     <use xlink:href="#m905ec85e72" x="316.015697" y="187.593799" style="fill: #2c728e; stroke: #2c728e"/>
     <use xlink:href="#m905ec85e72" x="366.102414" y="261.012339" style="fill: #2c728e; stroke: #2c728e"/>
     <use xlink:href="#m905ec85e72" x="416.189132" y="333.231414" style="fill: #2c728e; stroke: #2c728e"/>
     <use xlink:href="#m905ec85e72" x="466.275849" y="324.98724" style="fill: #2c728e; stroke: #2c728e"/>
     <use xlink:href="#m905ec85e72" x="516.362567" y="271.324542" style="fill: #2c728e; stroke: #2c728e"/>
     <use xlink:href="#m905ec85e72" x="566.449284" y="339.15571" style="fill: #2c728e; stroke: #2c728e"/>
     <use xlink:href="#m905ec85e72" x="616.536002" y="340.622138" style="fill: #2c728e; stroke: #2c728e"/>
     <use xlink:href="#m905ec85e72" x="666.622719" y="303.58288" style="fill: #2c728e; stroke: #2c728e"/>
    </g>
   </g>
   <g id="line2d_14">
    <path d="M 65.582109 38.181307 
L 115.668826 81.866257 
L 165.755544 106.172431 
L 215.842261 184.184174 
L 265.928979 163.271455 
L 316.015697 156.760018 
L 366.102414 213.654196 
L 416.189132 314.620338 
L 466.275849 236.754767 
L 516.362567 347.928284 
L 566.449284 336.954559 
L 616.536002 307.700196 
L 666.622719 324.230586 
" clip-path="url(#p67e7d726b8)" style="fill: none; stroke: #1e9c89; stroke-width: 1.5; stroke-linecap: round"/>
    <defs>
     <path id="ma04c576733" d="M 0 3 
C 0.795609 3 1.55874 2.683901 2.12132 2.12132 
C 2.683901 1.55874 3 0.795609 3 0 
C 3 -0.795609 2.683901 -1.55874 2.12132 -2.12132 
C 1.55874 -2.683901 0.795609 -3 0 -3 
C -0.795609 -3 -1.55874 -2.683901 -2.12132 -2.12132 
C -2.683901 -1.55874 -3 -0.795609 -3 0 
C -3 0.795609 -2.683901 1.55874 -2.12132 2.12132 
C -1.55874 2.683901 -0.795609 3 0 3 
z
" style="stroke: #1e9c89"/>
    </defs>
    <g clip-path="url(#p67e7d726b8)">
     <use xlink:href="#ma04c576733" x="65.582109" y="38.181307" style="fill: #1e9c89; stroke: #1e9c89"/>
     <use xlink:href="#ma04c576733" x="115.668826" y="81.866257" style="fill: #1e9c89; stroke: #1e9c89"/>
     <use xlink:href="#ma04c576733" x="165.755544" y="106.172431" style="fill: #1e9c89; stroke: #1e9c89"/>
     <use xlink:href="#ma04c576733" x="215.842261" y="184.184174" style="fill: #1e9c89; stroke: #1e9c89"/>
     <use xlink:href="#ma04c576733" x="265.928979" y="163.271455" style="fill: #1e9c89; stroke: #1e9c89"/>
     <use xlink:href="#ma04c576733" x="316.015697" y="156.760018" style="fill: #1e9c89; stroke: #1e9c89"/>
     <use xlink:href="#ma04c576733" x="366.102414" y="213.654196" style="fill: #1e9c89; stroke: #1e9c89"/>
     <use xlink:href="#ma04c576733" x="416.189132" y="314.620338" style="fill: #1e9c89; stroke: #1e9c89"/>
     <use xlink:href="#ma04c576733" x="466.275849" y="236.754767" style="fill: #1e9c89; stroke: #1e9c89"/>
     <use xlink:href="#ma04c576733" x="516.362567" y="347.928284" style="fill: #1e9c89; stroke: #1e9c89"/>
     <use xlink:href="#ma04c576733" x="566.449284" y="336.954559" style="fill: #1e9c89; stroke: #1e9c89"/>
     <use xlink:href="#ma04c576733" x="616.536002" y="307.700196" style="fill: #1e9c89; stroke: #1e9c89"/>
     <use xlink:href="#ma04c576733" x="666.622719" y="324.230586" style="fill: #1e9c89; stroke: #1e9c89"/>
    </g>
   </g>
   <g id="line2d_15">
    <path d="M 65.582109 44.603865 
L 115.668826 106.91314 
L 165.755544 107.856088 
L 215.842261 152.530343 
L 265.928979 161.825993 
L 316.015697 281.898205 
L 366.102414 212.36009 
L 416.189132 312.919037 
L 466.275849 271.370924 
L 516.362567 339.58295 
L 566.449284 271.301523 
L 616.536002 355.407443 
L 666.622719 252.196086 
" clip-path="url(#p67e7d726b8)" style="fill: none; stroke: #50c46a; stroke-width: 1.5; stroke-linecap: round"/>
    <defs>
     <path id="m84a3bae034" d="M 0 3 
C 0.795609 3 1.55874 2.683901 2.12132 2.12132 
C 2.683901 1.55874 3 0.795609 3 0 
C 3 -0.795609 2.683901 -1.55874 2.12132 -2.12132 
C 1.55874 -2.683901 0.795609 -3 0 -3 
C -0.795609 -3 -1.55874 -2.683901 -2.12132 -2.12132 
C -2.683901 -1.55874 -3 -0.795609 -3 0 
C -3 0.795609 -2.683901 1.55874 -2.12132 2.12132 
C -1.55874 2.683901 -0.795609 3 0 3 
z
" style="stroke: #50c46a"/>
    </defs>
    <g clip-path="url(#p67e7d726b8)">
     <use xlink:href="#m84a3bae034" x="65.582109" y="44.603865" style="fill: #50c46a; stroke: #50c46a"/>
     <use xlink:href="#m84a3bae034" x="115.668826" y="106.91314" style="fill: #50c46a; stroke: #50c46a"/>
     <use xlink:href="#m84a3bae034" x="165.755544" y="107.856088" style="fill: #50c46a; stroke: #50c46a"/>
     <use xlink:href="#m84a3bae034" x="215.842261" y="152.530343" style="fill: #50c46a; stroke: #50c46a"/>
     <use xlink:href="#m84a3bae034" x="265.928979" y="161.825993" style="fill: #50c46a; stroke: #50c46a"/>
     <use xlink:href="#m84a3bae034" x="316.015697" y="281.898205" style="fill: #50c46a; stroke: #50c46a"/>
     <use xlink:href="#m84a3bae034" x="366.102414" y="212.36009" style="fill: #50c46a; stroke: #50c46a"/>
     <use xlink:href="#m84a3bae034" x="416.189132" y="312.919037" style="fill: #50c46a; stroke: #50c46a"/>
     <use xlink:href="#m84a3bae034" x="466.275849" y="271.370924" style="fill: #50c46a; stroke: #50c46a"/>
     <use xlink:href="#m84a3bae034" x="516.362567" y="339.58295" style="fill: #50c46a; stroke: #50c46a"/>
     <use xlink:href="#m84a3bae034" x="566.449284" y="271.301523" style="fill: #50c46a; stroke: #50c46a"/>
     <use xlink:href="#m84a3bae034" x="616.536002" y="355.407443" style="fill: #50c46a; stroke: #50c46a"/>
     <use xlink:href="#m84a3bae034" x="666.622719" y="252.196086" style="fill: #50c46a; stroke: #50c46a"/>
    </g>
   </g>
   <g id="line2d_16">
    <path d="M 65.582109 84.171942 
L 115.668826 53.415317 
L 165.755544 145.252203 
L 215.842261 119.294211 
L 265.928979 83.189871 
L 316.015697 215.135343 
L 366.102414 222.493315 
L 416.189132 297.212331 
L 466.275849 315.904148 
L 516.362567 321.998912 
L 566.449284 301.020591 
L 616.536002 344.851389 
L 666.622719 281.564552 
" clip-path="url(#p67e7d726b8)" style="fill: none; stroke: #bddf26; stroke-width: 1.5; stroke-linecap: round"/>
    <defs>
     <path id="mb58668c4da" d="M 0 3 
C 0.795609 3 1.55874 2.683901 2.12132 2.12132 
C 2.683901 1.55874 3 0.795609 3 0 
C 3 -0.795609 2.683901 -1.55874 2.12132 -2.12132 
C 1.55874 -2.683901 0.795609 -3 0 -3 
C -0.795609 -3 -1.55874 -2.683901 -2.12132 -2.12132 
C -2.683901 -1.55874 -3 -0.795609 -3 0 
C -3 0.795609 -2.683901 1.55874 -2.12132 2.12132 
C -1.55874 2.683901 -0.795609 3 0 3 
z
" style="stroke: #bddf26"/>
    </defs>
    <g clip-path="url(#p67e7d726b8)">
     <use xlink:href="#mb58668c4da" x="65.582109" y="84.171942" style="fill: #bddf26; stroke: #bddf26"/>
     <use xlink:href="#mb58668c4da" x="115.668826" y="53.415317" style="fill: #bddf26; stroke: #bddf26"/>
     <use xlink:href="#mb58668c4da" x="165.755544" y="145.252203" style="fill: #bddf26; stroke: #bddf26"/>
     <use xlink:href="#mb58668c4da" x="215.842261" y="119.294211" style="fill: #bddf26; stroke: #bddf26"/>
     <use xlink:href="#mb58668c4da" x="265.928979" y="83.189871" style="fill: #bddf26; stroke: #bddf26"/>
     <use xlink:href="#mb58668c4da" x="316.015697" y="215.135343" style="fill: #bddf26; stroke: #bddf26"/>
     <use xlink:href="#mb58668c4da" x="366.102414" y="222.493315" style="fill: #bddf26; stroke: #bddf26"/>
     <use xlink:href="#mb58668c4da" x="416.189132" y="297.212331" style="fill: #bddf26; stroke: #bddf26"/>
     <use xlink:href="#mb58668c4da" x="466.275849" y="315.904148" style="fill: #bddf26; stroke: #bddf26"/>
     <use xlink:href="#mb58668c4da" x="516.362567" y="321.998912" style="fill: #bddf26; stroke: #bddf26"/>
     <use xlink:href="#mb58668c4da" x="566.449284" y="301.020591" style="fill: #bddf26; stroke: #bddf26"/>
     <use xlink:href="#mb58668c4da" x="616.536002" y="344.851389" style="fill: #bddf26; stroke: #bddf26"/>
     <use xlink:href="#mb58668c4da" x="666.622719" y="281.564552" style="fill: #bddf26; stroke: #bddf26"/>
    </g>
   </g>
   <g id="line2d_17">
    <path d="M 40.53875 321.023611 
L 696.67475 321.023611 
" clip-path="url(#p67e7d726b8)" style="fill: none; stroke-dasharray: 5.55,2.4; stroke-dashoffset: 0; stroke: #808080; stroke-opacity: 0.7; stroke-width: 1.5"/>
   </g>
   <g id="patch_3">
    <path d="M 40.53875 371.26875 
L 40.53875 22.32 
" style="fill: none; stroke: #cccccc; stroke-width: 1.25; stroke-linejoin: miter; stroke-linecap: square"/>
   </g>
   <g id="patch_4">
    <path d="M 696.67475 371.26875 
L 696.67475 22.32 
" style="fill: none; stroke: #cccccc; stroke-width: 1.25; stroke-linejoin: miter; stroke-linecap: square"/>
   </g>
   <g id="patch_5">
    <path d="M 40.53875 371.26875 
L 696.67475 371.26875 
" style="fill: none; stroke: #cccccc; stroke-width: 1.25; stroke-linejoin: miter; stroke-linecap: square"/>
   </g>
   <g id="patch_6">
    <path d="M 40.53875 22.32 
L 696.67475 22.32 
" style="fill: none; stroke: #cccccc; stroke-width: 1.25; stroke-linejoin: miter; stroke-linecap: square"/>
   </g>
   <g id="text_14">
    <!-- Step 3 (J_A=N/2) protocol: SQL-violation ratio vs $N$ -->
    <g style="fill: #262626" transform="translate(217.64675 16.32) scale(0.12 -0.12)">
     <defs>
      <path id="DejaVuSans-4a" d="M 628 4666 
L 1259 4666 
L 1259 325 
Q 1259 -519 939 -900 
Q 619 -1281 -91 -1281 
L -331 -1281 
L -331 -750 
L -134 -750 
Q 284 -750 456 -515 
Q 628 -281 628 325 
L 628 4666 
z
" transform="scale(0.015625)"/>
      <path id="DejaVuSans-5f" d="M 3263 -1063 
L 3263 -1509 
L -63 -1509 
L -63 -1063 
L 3263 -1063 
z
" transform="scale(0.015625)"/>
      <path id="DejaVuSans-41" d="M 2188 4044 
L 1331 1722 
L 3047 1722 
L 2188 4044 
z
M 1831 4666 
L 2547 4666 
L 4325 0 
L 3669 0 
L 3244 1197 
L 1141 1197 
L 716 0 
L 50 0 
L 1831 4666 
z
" transform="scale(0.015625)"/>
      <path id="DejaVuSans-4e" d="M 628 4666 
L 1478 4666 
L 3547 763 
L 3547 4666 
L 4159 4666 
L 4159 0 
L 3309 0 
L 1241 3903 
L 1241 0 
L 628 0 
L 628 4666 
z
" transform="scale(0.015625)"/>
      <path id="DejaVuSans-3a" d="M 750 794 
L 1409 794 
L 1409 0 
L 750 0 
L 750 794 
z
M 750 3309 
L 1409 3309 
L 1409 2516 
L 750 2516 
L 750 3309 
z
" transform="scale(0.015625)"/>
      <path id="DejaVuSans-2d" d="M 313 2009 
L 1997 2009 
L 1997 1497 
L 313 1497 
L 313 2009 
z
" transform="scale(0.015625)"/>
      <path id="DejaVuSans-76" d="M 191 3500 
L 800 3500 
L 1894 563 
L 2988 3500 
L 3597 3500 
L 2284 0 
L 1503 0 
L 191 3500 
z
" transform="scale(0.015625)"/>
      <path id="DejaVuSans-6e" d="M 3513 2113 
L 3513 0 
L 2938 0 
L 2938 2094 
Q 2938 2591 2744 2837 
Q 2550 3084 2163 3084 
Q 1697 3084 1428 2787 
Q 1159 2491 1159 1978 
L 1159 0 
L 581 0 
L 581 3500 
L 1159 3500 
L 1159 2956 
Q 1366 3272 1645 3428 
Q 1925 3584 2291 3584 
Q 2894 3584 3203 3211 
Q 3513 2838 3513 2113 
z
" transform="scale(0.015625)"/>
     </defs>
     <use xlink:href="#DejaVuSans-53" transform="translate(0 0.015625)"/>
     <use xlink:href="#DejaVuSans-74" transform="translate(63.476562 0.015625)"/>
     <use xlink:href="#DejaVuSans-65" transform="translate(102.685547 0.015625)"/>
     <use xlink:href="#DejaVuSans-70" transform="translate(164.208984 0.015625)"/>
     <use xlink:href="#DejaVuSans-20" transform="translate(227.685547 0.015625)"/>
     <use xlink:href="#DejaVuSans-33" transform="translate(259.472656 0.015625)"/>
     <use xlink:href="#DejaVuSans-20" transform="translate(323.095703 0.015625)"/>
     <use xlink:href="#DejaVuSans-28" transform="translate(354.882812 0.015625)"/>
     <use xlink:href="#DejaVuSans-4a" transform="translate(393.896484 0.015625)"/>
     <use xlink:href="#DejaVuSans-5f" transform="translate(423.388672 0.015625)"/>
     <use xlink:href="#DejaVuSans-41" transform="translate(473.388672 0.015625)"/>
     <use xlink:href="#DejaVuSans-3d" transform="translate(541.796875 0.015625)"/>
     <use xlink:href="#DejaVuSans-4e" transform="translate(625.585938 0.015625)"/>
     <use xlink:href="#DejaVuSans-2f" transform="translate(700.390625 0.015625)"/>
     <use xlink:href="#DejaVuSans-32" transform="translate(730.457031 0.015625)"/>
     <use xlink:href="#DejaVuSans-29" transform="translate(794.080078 0.015625)"/>
     <use xlink:href="#DejaVuSans-20" transform="translate(833.09375 0.015625)"/>
     <use xlink:href="#DejaVuSans-70" transform="translate(864.880859 0.015625)"/>
     <use xlink:href="#DejaVuSans-72" transform="translate(928.357422 0.015625)"/>
     <use xlink:href="#DejaVuSans-6f" transform="translate(969.470703 0.015625)"/>
     <use xlink:href="#DejaVuSans-74" transform="translate(1030.652344 0.015625)"/>
     <use xlink:href="#DejaVuSans-6f" transform="translate(1069.861328 0.015625)"/>
     <use xlink:href="#DejaVuSans-63" transform="translate(1131.042969 0.015625)"/>
     <use xlink:href="#DejaVuSans-6f" transform="translate(1186.023438 0.015625)"/>
     <use xlink:href="#DejaVuSans-6c" transform="translate(1247.205078 0.015625)"/>
     <use xlink:href="#DejaVuSans-3a" transform="translate(1274.988281 0.015625)"/>
     <use xlink:href="#DejaVuSans-20" transform="translate(1308.679688 0.015625)"/>
     <use xlink:href="#DejaVuSans-53" transform="translate(1340.466797 0.015625)"/>
     <use xlink:href="#DejaVuSans-51" transform="translate(1403.943359 0.015625)"/>
     <use xlink:href="#DejaVuSans-4c" transform="translate(1482.654297 0.015625)"/>
     <use xlink:href="#DejaVuSans-2d" transform="translate(1538.367188 0.015625)"/>
     <use xlink:href="#DejaVuSans-76" transform="translate(1574.451172 0.015625)"/>
     <use xlink:href="#DejaVuSans-69" transform="translate(1633.630859 0.015625)"/>
     <use xlink:href="#DejaVuSans-6f" transform="translate(1661.414062 0.015625)"/>
     <use xlink:href="#DejaVuSans-6c" transform="translate(1722.595703 0.015625)"/>
     <use xlink:href="#DejaVuSans-61" transform="translate(1750.378906 0.015625)"/>
     <use xlink:href="#DejaVuSans-74" transform="translate(1811.658203 0.015625)"/>
     <use xlink:href="#DejaVuSans-69" transform="translate(1850.867188 0.015625)"/>
     <use xlink:href="#DejaVuSans-6f" transform="translate(1878.650391 0.015625)"/>
     <use xlink:href="#DejaVuSans-6e" transform="translate(1939.832031 0.015625)"/>
     <use xlink:href="#DejaVuSans-20" transform="translate(2003.210938 0.015625)"/>
     <use xlink:href="#DejaVuSans-72" transform="translate(2034.998047 0.015625)"/>
     <use xlink:href="#DejaVuSans-61" transform="translate(2076.111328 0.015625)"/>
     <use xlink:href="#DejaVuSans-74" transform="translate(2137.390625 0.015625)"/>
     <use xlink:href="#DejaVuSans-69" transform="translate(2176.599609 0.015625)"/>
     <use xlink:href="#DejaVuSans-6f" transform="translate(2204.382812 0.015625)"/>
     <use xlink:href="#DejaVuSans-20" transform="translate(2265.564453 0.015625)"/>
     <use xlink:href="#DejaVuSans-76" transform="translate(2297.351562 0.015625)"/>
     <use xlink:href="#DejaVuSans-73" transform="translate(2356.53125 0.015625)"/>
     <use xlink:href="#DejaVuSans-20" transform="translate(2408.630859 0.015625)"/>
     <use xlink:href="#DejaVuSans-Oblique-4e" transform="translate(2440.417969 0.015625)"/>
    </g>
   </g>
   <g id="legend_1">
    <g id="patch_7">
     <path d="M 614.357094 124.895625 
L 690.37475 124.895625 
Q 692.17475 124.895625 692.17475 123.095625 
L 692.17475 28.62 
Q 692.17475 26.82 690.37475 26.82 
L 614.357094 26.82 
Q 612.557094 26.82 612.557094 28.62 
L 612.557094 123.095625 
Q 612.557094 124.895625 614.357094 124.895625 
z
" style="fill: #ffffff; opacity: 0.8; stroke: #cccccc; stroke-linejoin: miter"/>
    </g>
    <g id="text_15">
     <!-- $\omega$ -->
     <g style="fill: #262626" transform="translate(647.325922 39.538125) scale(0.12 -0.12)">
      <use xlink:href="#DejaVuSans-Oblique-3c9" transform="translate(0 0.3125)"/>
     </g>
    </g>
    <g id="line2d_18">
     <path d="M 616.157094 50.222344 
L 625.157094 50.222344 
L 634.157094 50.222344 
" style="fill: none; stroke: #414487; stroke-width: 1.5; stroke-linecap: round"/>
     <g>
      <use xlink:href="#mf665830a4a" x="625.157094" y="50.222344" style="fill: #414487; stroke: #414487"/>
     </g>
    </g>
    <g id="text_16">
     <!-- $\omega=0.1$ -->
     <g style="fill: #262626" transform="translate(641.357094 53.372344) scale(0.09 -0.09)">
      <defs>
       <path id="DejaVuSans-2e" d="M 684 794 
L 1344 794 
L 1344 0 
L 684 0 
L 684 794 
z
" transform="scale(0.015625)"/>
      </defs>
      <use xlink:href="#DejaVuSans-Oblique-3c9" transform="translate(0 0.78125)"/>
      <use xlink:href="#DejaVuSans-3d" transform="translate(103.222656 0.78125)"/>
      <use xlink:href="#DejaVuSans-30" transform="translate(206.494141 0.78125)"/>
      <use xlink:href="#DejaVuSans-2e" transform="translate(270.117188 0.78125)"/>
      <use xlink:href="#DejaVuSans-31" transform="translate(301.904297 0.78125)"/>
     </g>
    </g>
    <g id="line2d_19">
     <path d="M 616.157094 63.432656 
L 625.157094 63.432656 
L 634.157094 63.432656 
" style="fill: none; stroke: #2c728e; stroke-width: 1.5; stroke-linecap: round"/>
     <g>
      <use xlink:href="#m905ec85e72" x="625.157094" y="63.432656" style="fill: #2c728e; stroke: #2c728e"/>
     </g>
    </g>
    <g id="text_17">
     <!-- $\omega=0.2$ -->
     <g style="fill: #262626" transform="translate(641.357094 66.582656) scale(0.09 -0.09)">
      <use xlink:href="#DejaVuSans-Oblique-3c9" transform="translate(0 0.78125)"/>
      <use xlink:href="#DejaVuSans-3d" transform="translate(103.222656 0.78125)"/>
      <use xlink:href="#DejaVuSans-30" transform="translate(206.494141 0.78125)"/>
      <use xlink:href="#DejaVuSans-2e" transform="translate(270.117188 0.78125)"/>
      <use xlink:href="#DejaVuSans-32" transform="translate(296.404297 0.78125)"/>
     </g>
    </g>
    <g id="line2d_20">
     <path d="M 616.157094 76.642969 
L 625.157094 76.642969 
L 634.157094 76.642969 
" style="fill: none; stroke: #1e9c89; stroke-width: 1.5; stroke-linecap: round"/>
     <g>
      <use xlink:href="#ma04c576733" x="625.157094" y="76.642969" style="fill: #1e9c89; stroke: #1e9c89"/>
     </g>
    </g>
    <g id="text_18">
     <!-- $\omega=0.5$ -->
     <g style="fill: #262626" transform="translate(641.357094 79.792969) scale(0.09 -0.09)">
      <use xlink:href="#DejaVuSans-Oblique-3c9" transform="translate(0 0.78125)"/>
      <use xlink:href="#DejaVuSans-3d" transform="translate(103.222656 0.78125)"/>
      <use xlink:href="#DejaVuSans-30" transform="translate(206.494141 0.78125)"/>
      <use xlink:href="#DejaVuSans-2e" transform="translate(270.117188 0.78125)"/>
      <use xlink:href="#DejaVuSans-35" transform="translate(301.904297 0.78125)"/>
     </g>
    </g>
    <g id="line2d_21">
     <path d="M 616.157094 89.853281 
L 625.157094 89.853281 
L 634.157094 89.853281 
" style="fill: none; stroke: #50c46a; stroke-width: 1.5; stroke-linecap: round"/>
     <g>
      <use xlink:href="#m84a3bae034" x="625.157094" y="89.853281" style="fill: #50c46a; stroke: #50c46a"/>
     </g>
    </g>
    <g id="text_19">
     <!-- $\omega=1.0$ -->
     <g style="fill: #262626" transform="translate(641.357094 93.003281) scale(0.09 -0.09)">
      <use xlink:href="#DejaVuSans-Oblique-3c9" transform="translate(0 0.78125)"/>
      <use xlink:href="#DejaVuSans-3d" transform="translate(103.222656 0.78125)"/>
      <use xlink:href="#DejaVuSans-31" transform="translate(206.494141 0.78125)"/>
      <use xlink:href="#DejaVuSans-2e" transform="translate(270.117188 0.78125)"/>
      <use xlink:href="#DejaVuSans-30" transform="translate(301.904297 0.78125)"/>
     </g>
    </g>
    <g id="line2d_22">
     <path d="M 616.157094 103.063594 
L 625.157094 103.063594 
L 634.157094 103.063594 
" style="fill: none; stroke: #bddf26; stroke-width: 1.5; stroke-linecap: round"/>
     <g>
      <use xlink:href="#mb58668c4da" x="625.157094" y="103.063594" style="fill: #bddf26; stroke: #bddf26"/>
     </g>
    </g>
    <g id="text_20">
     <!-- $\omega=2.0$ -->
     <g style="fill: #262626" transform="translate(641.357094 106.213594) scale(0.09 -0.09)">
      <use xlink:href="#DejaVuSans-Oblique-3c9" transform="translate(0 0.78125)"/>
      <use xlink:href="#DejaVuSans-3d" transform="translate(103.222656 0.78125)"/>
      <use xlink:href="#DejaVuSans-32" transform="translate(206.494141 0.78125)"/>
      <use xlink:href="#DejaVuSans-2e" transform="translate(270.117188 0.78125)"/>
      <use xlink:href="#DejaVuSans-30" transform="translate(301.904297 0.78125)"/>
     </g>
    </g>
    <g id="line2d_23">
     <path d="M 616.157094 116.273906 
L 625.157094 116.273906 
L 634.157094 116.273906 
" style="fill: none; stroke-dasharray: 5.55,2.4; stroke-dashoffset: 0; stroke: #808080; stroke-opacity: 0.7; stroke-width: 1.5"/>
    </g>
    <g id="text_21">
     <!-- SQL (R=1) -->
     <g style="fill: #262626" transform="translate(641.357094 119.423906) scale(0.09 -0.09)">
      <defs>
       <path id="DejaVuSans-52" d="M 2841 2188 
Q 3044 2119 3236 1894 
Q 3428 1669 3622 1275 
L 4263 0 
L 3584 0 
L 2988 1197 
Q 2756 1666 2539 1819 
Q 2322 1972 1947 1972 
L 1259 1972 
L 1259 0 
L 628 0 
L 628 4666 
L 2053 4666 
Q 2853 4666 3247 4331 
Q 3641 3997 3641 3322 
Q 3641 2881 3436 2590 
Q 3231 2300 2841 2188 
z
M 1259 4147 
L 1259 2491 
L 2053 2491 
Q 2509 2491 2742 2702 
Q 2975 2913 2975 3322 
Q 2975 3731 2742 3939 
Q 2509 4147 2053 4147 
L 1259 4147 
z
" transform="scale(0.015625)"/>
      </defs>
      <use xlink:href="#DejaVuSans-53"/>
      <use xlink:href="#DejaVuSans-51" transform="translate(63.476562 0)"/>
      <use xlink:href="#DejaVuSans-4c" transform="translate(142.1875 0)"/>
      <use xlink:href="#DejaVuSans-20" transform="translate(197.900391 0)"/>
      <use xlink:href="#DejaVuSans-28" transform="translate(229.6875 0)"/>
      <use xlink:href="#DejaVuSans-52" transform="translate(268.701172 0)"/>
      <use xlink:href="#DejaVuSans-3d" transform="translate(338.183594 0)"/>
      <use xlink:href="#DejaVuSans-31" transform="translate(421.972656 0)"/>
      <use xlink:href="#DejaVuSans-29" transform="translate(485.595703 0)"/>
     </g>
    </g>
   </g>
  </g>
 </g>
 <defs>
  <clipPath id="p67e7d726b8">
   <rect x="40.53875" y="22.32" width="656.136" height="348.94875"/>
  </clipPath>
 </defs>
</svg>
