<?xml version="1.0" encoding="utf-8" standalone="no"?>
<!DOCTYPE svg PUBLIC "-//W3C//DTD SVG 1.1//EN"
  "http://www.w3.org/Graphics/SVG/1.1/DTD/svg11.dtd">
<svg xmlns:xlink="http://www.w3.org/1999/xlink" width="560.849094pt" height="272.867688pt" viewBox="0 0 560.849094 272.867688" xmlns="http://www.w3.org/2000/svg" version="1.1">
 <metadata>
  <rdf:RDF xmlns:dc="http://purl.org/dc/elements/1.1/" xmlns:cc="http://creativecommons.org/ns#" xmlns:rdf="http://www.w3.org/1999/02/22-rdf-syntax-ns#">
   <cc:Work>
    <dc:type rdf:resource="http://purl.org/dc/dcmitype/StillImage"/>
    <dc:date>2026-05-20T14:59:33.336231</dc:date>
    <dc:format>image/svg+xml</dc:format>
    <dc:creator>
     <cc:Agent>
      <dc:title>Matplotlib v3.10.5, https://matplotlib.org/</dc:title>
     </cc:Agent>
    </dc:creator>
   </cc:Work>
  </rdf:RDF>
 </metadata>
 <defs>
  <style type="text/css">*{stroke-linejoin: round; stroke-linecap: butt}</style>
 </defs>
 <g id="figure_1">
  <g id="patch_1">
   <path d="M 0 272.867688 
L 560.849094 272.867688 
L 560.849094 0 
L 0 0 
z
" style="fill: #ffffff"/>
  </g>
  <g id="axes_1">
   <g id="patch_2">
    <path d="M 61.691094 229.908 
L 273.254094 229.908 
L 273.254094 24.12 
L 61.691094 24.12 
z
" style="fill: #ffffff"/>
   </g>
   <g id="matplotlib.axis_1">
    <g id="xtick_1">
     <g id="line2d_1">
      <path d="M 67.382492 229.908 
L 67.382492 24.12 
" clip-path="url(#p2f0b720274)" style="fill: none; stroke: #cccccc; stroke-linecap: round"/>
     </g>
     <g id="text_1">
      <!-- 0 -->
      <g style="fill: #262626" transform="translate(63.883117 247.766281) scale(0.11 -0.11)">
       <defs>
        <path id="DejaVuSans-30" d="M 2034 4250 
Q 1547 4250 1301 3770 
Q 1056 3291 1056 2328 
Q 1056 1369 1301 889 
Q 1547 409 2034 409 
Q 2525 409 2770 889 
Q 3016 1369 3016 2328 
Q 3016 3291 2770 3770 
Q 2525 4250 2034 4250 
z
M 2034 4750 
Q 2819 4750 3233 4129 
Q 3647 3509 3647 2328 
Q 3647 1150 3233 529 
Q 2819 -91 2034 -91 
Q 1250 -91 836 529 
Q 422 1150 422 2328 
Q 422 3509 836 4129 
Q 1250 4750 2034 4750 
z
" transform="scale(0.015625)"/>
       </defs>
       <use xlink:href="#DejaVuSans-30"/>
      </g>
     </g>
    </g>
    <g id="xtick_2">
     <g id="line2d_2">
      <path d="M 106.633512 229.908 
L 106.633512 24.12 
" clip-path="url(#p2f0b720274)" style="fill: none; stroke: #cccccc; stroke-linecap: round"/>
     </g>
     <g id="text_2">
      <!-- 1 -->
      <g style="fill: #262626" transform="translate(103.134137 247.766281) scale(0.11 -0.11)">
       <defs>
        <path id="DejaVuSans-31" d="M 794 531 
L 1825 531 
L 1825 4091 
L 703 3866 
L 703 4441 
L 1819 4666 
L 2450 4666 
L 2450 531 
L 3481 531 
L 3481 0 
L 794 0 
L 794 531 
z
" transform="scale(0.015625)"/>
       </defs>
       <use xlink:href="#DejaVuSans-31"/>
      </g>
     </g>
    </g>
    <g id="xtick_3">
     <g id="line2d_3">
      <path d="M 145.884533 229.908 
L 145.884533 24.12 
" clip-path="url(#p2f0b720274)" style="fill: none; stroke: #cccccc; stroke-linecap: round"/>
     </g>
     <g id="text_3">
      <!-- 2 -->
      <g style="fill: #262626" transform="translate(142.385158 247.766281) scale(0.11 -0.11)">
       <defs>
        <path id="DejaVuSans-32" d="M 1228 531 
L 3431 531 
L 3431 0 
L 469 0 
L 469 531 
Q 828 903 1448 1529 
Q 2069 2156 2228 2338 
Q 2531 2678 2651 2914 
Q 2772 3150 2772 3378 
Q 2772 3750 2511 3984 
Q 2250 4219 1831 4219 
Q 1534 4219 1204 4116 
Q 875 4013 500 3803 
L 500 4441 
Q 881 4594 1212 4672 
Q 1544 4750 1819 4750 
Q 2544 4750 2975 4387 
Q 3406 4025 3406 3419 
Q 3406 3131 3298 2873 
Q 3191 2616 2906 2266 
Q 2828 2175 2409 1742 
Q 1991 1309 1228 531 
z
" transform="scale(0.015625)"/>
       </defs>
       <use xlink:href="#DejaVuSans-32"/>
      </g>
     </g>
    </g>
    <g id="xtick_4">
     <g id="line2d_4">
      <path d="M 185.135553 229.908 
L 185.135553 24.12 
" clip-path="url(#p2f0b720274)" style="fill: none; stroke: #cccccc; stroke-linecap: round"/>
     </g>
     <g id="text_4">
      <!-- 3 -->
      <g style="fill: #262626" transform="translate(181.636178 247.766281) scale(0.11 -0.11)">
       <defs>
        <path id="DejaVuSans-33" d="M 2597 2516 
Q 3050 2419 3304 2112 
Q 3559 1806 3559 1356 
Q 3559 666 3084 287 
Q 2609 -91 1734 -91 
Q 1441 -91 1130 -33 
Q 819 25 488 141 
L 488 750 
Q 750 597 1062 519 
Q 1375 441 1716 441 
Q 2309 441 2620 675 
Q 2931 909 2931 1356 
Q 2931 1769 2642 2001 
Q 2353 2234 1838 2234 
L 1294 2234 
L 1294 2753 
L 1863 2753 
Q 2328 2753 2575 2939 
Q 2822 3125 2822 3475 
Q 2822 3834 2567 4026 
Q 2313 4219 1838 4219 
Q 1578 4219 1281 4162 
Q 984 4106 628 3988 
L 628 4550 
Q 988 4650 1302 4700 
Q 1616 4750 1894 4750 
Q 2613 4750 3031 4423 
Q 3450 4097 3450 3541 
Q 3450 3153 3228 2886 
Q 3006 2619 2597 2516 
z
" transform="scale(0.015625)"/>
       </defs>
       <use xlink:href="#DejaVuSans-33"/>
      </g>
     </g>
    </g>
    <g id="xtick_5">
     <g id="line2d_5">
      <path d="M 224.386573 229.908 
L 224.386573 24.12 
" clip-path="url(#p2f0b720274)" style="fill: none; stroke: #cccccc; stroke-linecap: round"/>
     </g>
     <g id="text_5">
      <!-- 4 -->
      <g style="fill: #262626" transform="translate(220.887198 247.766281) scale(0.11 -0.11)">
       <defs>
        <path id="DejaVuSans-34" d="M 2419 4116 
L 825 1625 
L 2419 1625 
L 2419 4116 
z
M 2253 4666 
L 3047 4666 
L 3047 1625 
L 3713 1625 
L 3713 1100 
L 3047 1100 
L 3047 0 
L 2419 0 
L 2419 1100 
L 313 1100 
L 313 1709 
L 2253 4666 
z
" transform="scale(0.015625)"/>
       </defs>
       <use xlink:href="#DejaVuSans-34"/>
      </g>
     </g>
    </g>
    <g id="xtick_6">
     <g id="line2d_6">
      <path d="M 263.637594 229.908 
L 263.637594 24.12 
" clip-path="url(#p2f0b720274)" style="fill: none; stroke: #cccccc; stroke-linecap: round"/>
     </g>
     <g id="text_6">
      <!-- 5 -->
      <g style="fill: #262626" transform="translate(260.138219 247.766281) scale(0.11 -0.11)">
       <defs>
        <path id="DejaVuSans-35" d="M 691 4666 
L 3169 4666 
L 3169 4134 
L 1269 4134 
L 1269 2991 
Q 1406 3038 1543 3061 
Q 1681 3084 1819 3084 
Q 2600 3084 3056 2656 
Q 3513 2228 3513 1497 
Q 3513 744 3044 326 
Q 2575 -91 1722 -91 
Q 1428 -91 1123 -41 
Q 819 9 494 109 
L 494 744 
Q 775 591 1075 516 
Q 1375 441 1709 441 
Q 2250 441 2565 725 
Q 2881 1009 2881 1497 
Q 2881 1984 2565 2268 
Q 2250 2553 1709 2553 
Q 1456 2553 1204 2497 
Q 953 2441 691 2322 
L 691 4666 
z
" transform="scale(0.015625)"/>
       </defs>
       <use xlink:href="#DejaVuSans-35"/>
      </g>
     </g>
    </g>
    <g id="text_7">
     <!-- $\theta$ -->
     <g style="fill: #262626" transform="translate(163.752594 263.172063) scale(0.12 -0.12)">
      <defs>
       <path id="DejaVuSans-Oblique-3b8" d="M 2913 2219 
L 925 2219 
Q 791 1284 928 888 
Q 1100 400 1566 400 
Q 2034 400 2391 891 
Q 2703 1322 2913 2219 
z
M 3009 2750 
Q 3094 3638 2984 3950 
Q 2813 4444 2353 4444 
Q 1875 4444 1525 3956 
Q 1250 3563 1034 2750 
L 3009 2750 
z
M 2444 4913 
Q 3194 4913 3494 4250 
Q 3794 3591 3566 2422 
Q 3341 1256 2781 594 
Q 2225 -72 1475 -72 
Q 722 -72 425 594 
Q 128 1256 353 2422 
Q 581 3591 1134 4250 
Q 1691 4913 2444 4913 
z
" transform="scale(0.015625)"/>
      </defs>
      <use xlink:href="#DejaVuSans-Oblique-3b8" transform="translate(0 0.234375)"/>
     </g>
    </g>
   </g>
   <g id="matplotlib.axis_2">
    <g id="ytick_1">
     <g id="line2d_7">
      <path d="M 61.691094 201.775673 
L 273.254094 201.775673 
" clip-path="url(#p2f0b720274)" style="fill: none; stroke: #cccccc; stroke-linecap: round"/>
     </g>
     <g id="text_8">
      <!-- −0.4 -->
      <g style="fill: #262626" transform="translate(25.48 205.954813) scale(0.11 -0.11)">
       <defs>
        <path id="DejaVuSans-2212" d="M 678 2272 
L 4684 2272 
L 4684 1741 
L 678 1741 
L 678 2272 
z
" transform="scale(0.015625)"/>
        <path id="DejaVuSans-2e" d="M 684 794 
L 1344 794 
L 1344 0 
L 684 0 
L 684 794 
z
" transform="scale(0.015625)"/>
       </defs>
       <use xlink:href="#DejaVuSans-2212"/>
       <use xlink:href="#DejaVuSans-30" transform="translate(83.789062 0)"/>
       <use xlink:href="#DejaVuSans-2e" transform="translate(147.412109 0)"/>
       <use xlink:href="#DejaVuSans-34" transform="translate(179.199219 0)"/>
      </g>
     </g>
    </g>
    <g id="ytick_2">
     <g id="line2d_8">
      <path d="M 61.691094 164.214288 
L 273.254094 164.214288 
" clip-path="url(#p2f0b720274)" style="fill: none; stroke: #cccccc; stroke-linecap: round"/>
     </g>
     <g id="text_9">
      <!-- −0.2 -->
      <g style="fill: #262626" transform="translate(25.48 168.393428) scale(0.11 -0.11)">
       <use xlink:href="#DejaVuSans-2212"/>
       <use xlink:href="#DejaVuSans-30" transform="translate(83.789062 0)"/>
       <use xlink:href="#DejaVuSans-2e" transform="translate(147.412109 0)"/>
       <use xlink:href="#DejaVuSans-32" transform="translate(179.199219 0)"/>
      </g>
     </g>
    </g>
    <g id="ytick_3">
     <g id="line2d_9">
      <path d="M 61.691094 126.652903 
L 273.254094 126.652903 
" clip-path="url(#p2f0b720274)" style="fill: none; stroke: #cccccc; stroke-linecap: round"/>
     </g>
     <g id="text_10">
      <!-- 0.0 -->
      <g style="fill: #262626" transform="translate(34.697656 130.832043) scale(0.11 -0.11)">
       <use xlink:href="#DejaVuSans-30"/>
       <use xlink:href="#DejaVuSans-2e" transform="translate(63.623047 0)"/>
       <use xlink:href="#DejaVuSans-30" transform="translate(95.410156 0)"/>
      </g>
     </g>
    </g>
    <g id="ytick_4">
     <g id="line2d_10">
      <path d="M 61.691094 89.091518 
L 273.254094 89.091518 
" clip-path="url(#p2f0b720274)" style="fill: none; stroke: #cccccc; stroke-linecap: round"/>
     </g>
     <g id="text_11">
      <!-- 0.2 -->
      <g style="fill: #262626" transform="translate(34.697656 93.270658) scale(0.11 -0.11)">
       <use xlink:href="#DejaVuSans-30"/>
       <use xlink:href="#DejaVuSans-2e" transform="translate(63.623047 0)"/>
       <use xlink:href="#DejaVuSans-32" transform="translate(95.410156 0)"/>
      </g>
     </g>
    </g>
    <g id="ytick_5">
     <g id="line2d_11">
      <path d="M 61.691094 51.530133 
L 273.254094 51.530133 
" clip-path="url(#p2f0b720274)" style="fill: none; stroke: #cccccc; stroke-linecap: round"/>
     </g>
     <g id="text_12">
      <!-- 0.4 -->
      <g style="fill: #262626" transform="translate(34.697656 55.709273) scale(0.11 -0.11)">
       <use xlink:href="#DejaVuSans-30"/>
       <use xlink:href="#DejaVuSans-2e" transform="translate(63.623047 0)"/>
       <use xlink:href="#DejaVuSans-34" transform="translate(95.410156 0)"/>
      </g>
     </g>
    </g>
    <g id="text_13">
     <!-- $\langle J_z^S \rangle$ -->
     <g style="fill: #262626" transform="translate(18.12 136.734) rotate(-90) scale(0.12 -0.12)">
      <defs>
       <path id="DejaVuSans-27e8" d="M 572 2006 
L 1453 4856 
L 1984 4856 
L 1103 2006 
L 1984 -844 
L 1453 -844 
L 572 2006 
z
" transform="scale(0.015625)"/>
       <path id="DejaVuSans-Oblique-4a" d="M 1069 4666 
L 1703 4666 
L 856 325 
Q 691 -522 298 -901 
Q -94 -1281 -800 -1281 
L -1050 -1281 
L -947 -750 
L -750 -750 
Q -328 -750 -109 -509 
Q 109 -269 225 325 
L 1069 4666 
z
" transform="scale(0.015625)"/>
       <path id="DejaVuSans-Oblique-53" d="M 3859 4513 
L 3738 3897 
Q 3422 4066 3111 4152 
Q 2800 4238 2509 4238 
Q 1944 4238 1609 3991 
Q 1275 3744 1275 3334 
Q 1275 3109 1398 2989 
Q 1522 2869 2034 2731 
L 2413 2638 
Q 3053 2472 3303 2217 
Q 3553 1963 3553 1503 
Q 3553 797 2998 353 
Q 2444 -91 1538 -91 
Q 1166 -91 791 -17 
Q 416 56 38 206 
L 166 856 
Q 513 641 861 531 
Q 1209 422 1556 422 
Q 2147 422 2503 684 
Q 2859 947 2859 1369 
Q 2859 1650 2717 1795 
Q 2575 1941 2106 2059 
L 1728 2156 
Q 1081 2325 845 2545 
Q 609 2766 609 3163 
Q 609 3859 1145 4304 
Q 1681 4750 2541 4750 
Q 2875 4750 3203 4690 
Q 3531 4631 3859 4513 
z
" transform="scale(0.015625)"/>
       <path id="DejaVuSans-Oblique-7a" d="M 744 3500 
L 3475 3500 
L 3372 2975 
L 738 459 
L 2913 459 
L 2822 0 
L -19 0 
L 84 525 
L 2719 3041 
L 653 3041 
L 744 3500 
z
" transform="scale(0.015625)"/>
       <path id="DejaVuSans-27e9" d="M 1925 2006 
L 1044 -844 
L 513 -844 
L 1394 2006 
L 513 4856 
L 1044 4856 
L 1925 2006 
z
" transform="scale(0.015625)"/>
      </defs>
      <use xlink:href="#DejaVuSans-27e8" transform="translate(0 0.765625)"/>
      <use xlink:href="#DejaVuSans-Oblique-4a" transform="translate(39.013672 0.765625)"/>
      <use xlink:href="#DejaVuSans-Oblique-53" transform="translate(75.52263 39.046875) scale(0.7)"/>
      <use xlink:href="#DejaVuSans-Oblique-7a" transform="translate(68.505859 -26.578125) scale(0.7)"/>
      <use xlink:href="#DejaVuSans-27e9" transform="translate(122.690599 0.765625)"/>
     </g>
    </g>
   </g>
   <g id="line2d_12">
    <path d="M 71.307594 101.135472 
L 75.232696 98.157948 
L 79.157798 219.696379 
L 83.0829 61.160326 
L 87.008002 165.716091 
L 90.933104 216.894999 
L 94.858206 52.762453 
L 98.783308 113.454854 
L 102.70841 213.043034 
L 106.633512 205.847048 
L 110.558614 126.733549 
L 114.483716 47.373786 
L 118.408818 211.992818 
L 122.33392 113.109875 
L 126.259022 198.121991 
L 130.184124 36.657022 
L 134.109226 153.166889 
L 138.034328 64.41668 
L 141.95943 219.530636 
L 145.884533 87.703393 
L 149.809635 75.364658 
L 153.734737 220.554 
L 157.659839 177.187838 
L 161.584941 166.366861 
L 165.510043 219.714243 
L 169.435145 187.461552 
L 173.360247 99.286353 
L 177.285349 36.279751 
L 181.210451 56.346745 
L 185.135553 112.143026 
L 189.060655 40.700197 
L 192.985757 205.023078 
L 196.910859 125.480099 
L 200.835961 47.01469 
L 204.761063 41.761359 
L 208.686165 114.594976 
L 212.611267 198.488817 
L 216.536369 216.347169 
L 220.461471 151.787939 
L 224.386573 189.680725 
L 228.311675 33.928762 
L 232.236777 164.532292 
L 236.161879 178.72924 
L 240.086982 220.542412 
L 244.012084 176.021084 
L 247.937186 86.106883 
L 251.862288 33.474 
L 255.78739 66.512889 
L 259.712492 154.850475 
L 263.637594 217.260011 
" clip-path="url(#p2f0b720274)" style="fill: none; stroke: #4c72b0; stroke-width: 1.5; stroke-linecap: round"/>
    <defs>
     <path id="mc0529bbc28" d="M 0 3.5 
C 0.928211 3.5 1.81853 3.131218 2.474874 2.474874 
C 3.131218 1.81853 3.5 0.928211 3.5 0 
C 3.5 -0.928211 3.131218 -1.81853 2.474874 -2.474874 
C 1.81853 -3.131218 0.928211 -3.5 0 -3.5 
C -0.928211 -3.5 -1.81853 -3.131218 -2.474874 -2.474874 
C -3.131218 -1.81853 -3.5 -0.928211 -3.5 0 
C -3.5 0.928211 -3.131218 1.81853 -2.474874 2.474874 
C -1.81853 3.131218 -0.928211 3.5 0 3.5 
z
" style="stroke: #4c72b0"/>
    </defs>
    <g clip-path="url(#p2f0b720274)">
     <use xlink:href="#mc0529bbc28" x="71.307594" y="101.135472" style="fill: #4c72b0; stroke: #4c72b0"/>
     <use xlink:href="#mc0529bbc28" x="75.232696" y="98.157948" style="fill: #4c72b0; stroke: #4c72b0"/>
     <use xlink:href="#mc0529bbc28" x="79.157798" y="219.696379" style="fill: #4c72b0; stroke: #4c72b0"/>
     <use xlink:href="#mc0529bbc28" x="83.0829" y="61.160326" style="fill: #4c72b0; stroke: #4c72b0"/>
     <use xlink:href="#mc0529bbc28" x="87.008002" y="165.716091" style="fill: #4c72b0; stroke: #4c72b0"/>
     <use xlink:href="#mc0529bbc28" x="90.933104" y="216.894999" style="fill: #4c72b0; stroke: #4c72b0"/>
     <use xlink:href="#mc0529bbc28" x="94.858206" y="52.762453" style="fill: #4c72b0; stroke: #4c72b0"/>
     <use xlink:href="#mc0529bbc28" x="98.783308" y="113.454854" style="fill: #4c72b0; stroke: #4c72b0"/>
     <use xlink:href="#mc0529bbc28" x="102.70841" y="213.043034" style="fill: #4c72b0; stroke: #4c72b0"/>
     <use xlink:href="#mc0529bbc28" x="106.633512" y="205.847048" style="fill: #4c72b0; stroke: #4c72b0"/>
     <use xlink:href="#mc0529bbc28" x="110.558614" y="126.733549" style="fill: #4c72b0; stroke: #4c72b0"/>
     <use xlink:href="#mc0529bbc28" x="114.483716" y="47.373786" style="fill: #4c72b0; stroke: #4c72b0"/>
     <use xlink:href="#mc0529bbc28" x="118.408818" y="211.992818" style="fill: #4c72b0; stroke: #4c72b0"/>
     <use xlink:href="#mc0529bbc28" x="122.33392" y="113.109875" style="fill: #4c72b0; stroke: #4c72b0"/>
     <use xlink:href="#mc0529bbc28" x="126.259022" y="198.121991" style="fill: #4c72b0; stroke: #4c72b0"/>
     <use xlink:href="#mc0529bbc28" x="130.184124" y="36.657022" style="fill: #4c72b0; stroke: #4c72b0"/>
     <use xlink:href="#mc0529bbc28" x="134.109226" y="153.166889" style="fill: #4c72b0; stroke: #4c72b0"/>
     <use xlink:href="#mc0529bbc28" x="138.034328" y="64.41668" style="fill: #4c72b0; stroke: #4c72b0"/>
     <use xlink:href="#mc0529bbc28" x="141.95943" y="219.530636" style="fill: #4c72b0; stroke: #4c72b0"/>
     <use xlink:href="#mc0529bbc28" x="145.884533" y="87.703393" style="fill: #4c72b0; stroke: #4c72b0"/>
     <use xlink:href="#mc0529bbc28" x="149.809635" y="75.364658" style="fill: #4c72b0; stroke: #4c72b0"/>
     <use xlink:href="#mc0529bbc28" x="153.734737" y="220.554" style="fill: #4c72b0; stroke: #4c72b0"/>
     <use xlink:href="#mc0529bbc28" x="157.659839" y="177.187838" style="fill: #4c72b0; stroke: #4c72b0"/>
     <use xlink:href="#mc0529bbc28" x="161.584941" y="166.366861" style="fill: #4c72b0; stroke: #4c72b0"/>
     <use xlink:href="#mc0529bbc28" x="165.510043" y="219.714243" style="fill: #4c72b0; stroke: #4c72b0"/>
     <use xlink:href="#mc0529bbc28" x="169.435145" y="187.461552" style="fill: #4c72b0; stroke: #4c72b0"/>
     <use xlink:href="#mc0529bbc28" x="173.360247" y="99.286353" style="fill: #4c72b0; stroke: #4c72b0"/>
     <use xlink:href="#mc0529bbc28" x="177.285349" y="36.279751" style="fill: #4c72b0; stroke: #4c72b0"/>
     <use xlink:href="#mc0529bbc28" x="181.210451" y="56.346745" style="fill: #4c72b0; stroke: #4c72b0"/>
     <use xlink:href="#mc0529bbc28" x="185.135553" y="112.143026" style="fill: #4c72b0; stroke: #4c72b0"/>
     <use xlink:href="#mc0529bbc28" x="189.060655" y="40.700197" style="fill: #4c72b0; stroke: #4c72b0"/>
     <use xlink:href="#mc0529bbc28" x="192.985757" y="205.023078" style="fill: #4c72b0; stroke: #4c72b0"/>
     <use xlink:href="#mc0529bbc28" x="196.910859" y="125.480099" style="fill: #4c72b0; stroke: #4c72b0"/>
     <use xlink:href="#mc0529bbc28" x="200.835961" y="47.01469" style="fill: #4c72b0; stroke: #4c72b0"/>
     <use xlink:href="#mc0529bbc28" x="204.761063" y="41.761359" style="fill: #4c72b0; stroke: #4c72b0"/>
     <use xlink:href="#mc0529bbc28" x="208.686165" y="114.594976" style="fill: #4c72b0; stroke: #4c72b0"/>
     <use xlink:href="#mc0529bbc28" x="212.611267" y="198.488817" style="fill: #4c72b0; stroke: #4c72b0"/>
     <use xlink:href="#mc0529bbc28" x="216.536369" y="216.347169" style="fill: #4c72b0; stroke: #4c72b0"/>
     <use xlink:href="#mc0529bbc28" x="220.461471" y="151.787939" style="fill: #4c72b0; stroke: #4c72b0"/>
     <use xlink:href="#mc0529bbc28" x="224.386573" y="189.680725" style="fill: #4c72b0; stroke: #4c72b0"/>
     <use xlink:href="#mc0529bbc28" x="228.311675" y="33.928762" style="fill: #4c72b0; stroke: #4c72b0"/>
     <use xlink:href="#mc0529bbc28" x="232.236777" y="164.532292" style="fill: #4c72b0; stroke: #4c72b0"/>
     <use xlink:href="#mc0529bbc28" x="236.161879" y="178.72924" style="fill: #4c72b0; stroke: #4c72b0"/>
     <use xlink:href="#mc0529bbc28" x="240.086982" y="220.542412" style="fill: #4c72b0; stroke: #4c72b0"/>
     <use xlink:href="#mc0529bbc28" x="244.012084" y="176.021084" style="fill: #4c72b0; stroke: #4c72b0"/>
     <use xlink:href="#mc0529bbc28" x="247.937186" y="86.106883" style="fill: #4c72b0; stroke: #4c72b0"/>
     <use xlink:href="#mc0529bbc28" x="251.862288" y="33.474" style="fill: #4c72b0; stroke: #4c72b0"/>
     <use xlink:href="#mc0529bbc28" x="255.78739" y="66.512889" style="fill: #4c72b0; stroke: #4c72b0"/>
     <use xlink:href="#mc0529bbc28" x="259.712492" y="154.850475" style="fill: #4c72b0; stroke: #4c72b0"/>
     <use xlink:href="#mc0529bbc28" x="263.637594" y="217.260011" style="fill: #4c72b0; stroke: #4c72b0"/>
    </g>
   </g>
   <g id="line2d_13">
    <path d="M 61.691094 126.652903 
L 273.254094 126.652903 
" clip-path="url(#p2f0b720274)" style="fill: none; stroke-dasharray: 1.5,2.475; stroke-dashoffset: 0; stroke: #808080; stroke-opacity: 0.5; stroke-width: 1.5"/>
   </g>
   <g id="patch_3">
    <path d="M 61.691094 229.908 
L 61.691094 24.12 
" style="fill: none; stroke: #cccccc; stroke-width: 1.25; stroke-linejoin: miter; stroke-linecap: square"/>
   </g>
   <g id="patch_4">
    <path d="M 273.254094 229.908 
L 273.254094 24.12 
" style="fill: none; stroke: #cccccc; stroke-width: 1.25; stroke-linejoin: miter; stroke-linecap: square"/>
   </g>
   <g id="patch_5">
    <path d="M 61.691094 229.908 
L 273.254094 229.908 
" style="fill: none; stroke: #cccccc; stroke-width: 1.25; stroke-linejoin: miter; stroke-linecap: square"/>
   </g>
   <g id="patch_6">
    <path d="M 61.691094 24.12 
L 273.254094 24.12 
" style="fill: none; stroke: #cccccc; stroke-width: 1.25; stroke-linejoin: miter; stroke-linecap: square"/>
   </g>
   <g id="text_14">
    <!-- Expectation $\langle J_z^S\rangle$ at NM optimum -->
    <g style="fill: #262626" transform="translate(71.772594 18.12) scale(0.12 -0.12)">
     <defs>
      <path id="DejaVuSans-45" d="M 628 4666 
L 3578 4666 
L 3578 4134 
L 1259 4134 
L 1259 2753 
L 3481 2753 
L 3481 2222 
L 1259 2222 
L 1259 531 
L 3634 531 
L 3634 0 
L 628 0 
L 628 4666 
z
" transform="scale(0.015625)"/>
      <path id="DejaVuSans-78" d="M 3513 3500 
L 2247 1797 
L 3578 0 
L 2900 0 
L 1881 1375 
L 863 0 
L 184 0 
L 1544 1831 
L 300 3500 
L 978 3500 
L 1906 2253 
L 2834 3500 
L 3513 3500 
z
" transform="scale(0.015625)"/>
      <path id="DejaVuSans-70" d="M 1159 525 
L 1159 -1331 
L 581 -1331 
L 581 3500 
L 1159 3500 
L 1159 2969 
Q 1341 3281 1617 3432 
Q 1894 3584 2278 3584 
Q 2916 3584 3314 3078 
Q 3713 2572 3713 1747 
Q 3713 922 3314 415 
Q 2916 -91 2278 -91 
Q 1894 -91 1617 61 
Q 1341 213 1159 525 
z
M 3116 1747 
Q 3116 2381 2855 2742 
Q 2594 3103 2138 3103 
Q 1681 3103 1420 2742 
Q 1159 2381 1159 1747 
Q 1159 1113 1420 752 
Q 1681 391 2138 391 
Q 2594 391 2855 752 
Q 3116 1113 3116 1747 
z
" transform="scale(0.015625)"/>
      <path id="DejaVuSans-65" d="M 3597 1894 
L 3597 1613 
L 953 1613 
Q 991 1019 1311 708 
Q 1631 397 2203 397 
Q 2534 397 2845 478 
Q 3156 559 3463 722 
L 3463 178 
Q 3153 47 2828 -22 
Q 2503 -91 2169 -91 
Q 1331 -91 842 396 
Q 353 884 353 1716 
Q 353 2575 817 3079 
Q 1281 3584 2069 3584 
Q 2775 3584 3186 3129 
Q 3597 2675 3597 1894 
z
M 3022 2063 
Q 3016 2534 2758 2815 
Q 2500 3097 2075 3097 
Q 1594 3097 1305 2825 
Q 1016 2553 972 2059 
L 3022 2063 
z
" transform="scale(0.015625)"/>
      <path id="DejaVuSans-63" d="M 3122 3366 
L 3122 2828 
Q 2878 2963 2633 3030 
Q 2388 3097 2138 3097 
Q 1578 3097 1268 2742 
Q 959 2388 959 1747 
Q 959 1106 1268 751 
Q 1578 397 2138 397 
Q 2388 397 2633 464 
Q 2878 531 3122 666 
L 3122 134 
Q 2881 22 2623 -34 
Q 2366 -91 2075 -91 
Q 1284 -91 818 406 
Q 353 903 353 1747 
Q 353 2603 823 3093 
Q 1294 3584 2113 3584 
Q 2378 3584 2631 3529 
Q 2884 3475 3122 3366 
z
" transform="scale(0.015625)"/>
      <path id="DejaVuSans-74" d="M 1172 4494 
L 1172 3500 
L 2356 3500 
L 2356 3053 
L 1172 3053 
L 1172 1153 
Q 1172 725 1289 603 
Q 1406 481 1766 481 
L 2356 481 
L 2356 0 
L 1766 0 
Q 1100 0 847 248 
Q 594 497 594 1153 
L 594 3053 
L 172 3053 
L 172 3500 
L 594 3500 
L 594 4494 
L 1172 4494 
z
" transform="scale(0.015625)"/>
      <path id="DejaVuSans-61" d="M 2194 1759 
Q 1497 1759 1228 1600 
Q 959 1441 959 1056 
Q 959 750 1161 570 
Q 1363 391 1709 391 
Q 2188 391 2477 730 
Q 2766 1069 2766 1631 
L 2766 1759 
L 2194 1759 
z
M 3341 1997 
L 3341 0 
L 2766 0 
L 2766 531 
Q 2569 213 2275 61 
Q 1981 -91 1556 -91 
Q 1019 -91 701 211 
Q 384 513 384 1019 
Q 384 1609 779 1909 
Q 1175 2209 1959 2209 
L 2766 2209 
L 2766 2266 
Q 2766 2663 2505 2880 
Q 2244 3097 1772 3097 
Q 1472 3097 1187 3025 
Q 903 2953 641 2809 
L 641 3341 
Q 956 3463 1253 3523 
Q 1550 3584 1831 3584 
Q 2591 3584 2966 3190 
Q 3341 2797 3341 1997 
z
" transform="scale(0.015625)"/>
      <path id="DejaVuSans-69" d="M 603 3500 
L 1178 3500 
L 1178 0 
L 603 0 
L 603 3500 
z
M 603 4863 
L 1178 4863 
L 1178 4134 
L 603 4134 
L 603 4863 
z
" transform="scale(0.015625)"/>
      <path id="DejaVuSans-6f" d="M 1959 3097 
Q 1497 3097 1228 2736 
Q 959 2375 959 1747 
Q 959 1119 1226 758 
Q 1494 397 1959 397 
Q 2419 397 2687 759 
Q 2956 1122 2956 1747 
Q 2956 2369 2687 2733 
Q 2419 3097 1959 3097 
z
M 1959 3584 
Q 2709 3584 3137 3096 
Q 3566 2609 3566 1747 
Q 3566 888 3137 398 
Q 2709 -91 1959 -91 
Q 1206 -91 779 398 
Q 353 888 353 1747 
Q 353 2609 779 3096 
Q 1206 3584 1959 3584 
z
" transform="scale(0.015625)"/>
      <path id="DejaVuSans-6e" d="M 3513 2113 
L 3513 0 
L 2938 0 
L 2938 2094 
Q 2938 2591 2744 2837 
Q 2550 3084 2163 3084 
Q 1697 3084 1428 2787 
Q 1159 2491 1159 1978 
L 1159 0 
L 581 0 
L 581 3500 
L 1159 3500 
L 1159 2956 
Q 1366 3272 1645 3428 
Q 1925 3584 2291 3584 
Q 2894 3584 3203 3211 
Q 3513 2838 3513 2113 
z
" transform="scale(0.015625)"/>
      <path id="DejaVuSans-20" transform="scale(0.015625)"/>
      <path id="DejaVuSans-4e" d="M 628 4666 
L 1478 4666 
L 3547 763 
L 3547 4666 
L 4159 4666 
L 4159 0 
L 3309 0 
L 1241 3903 
L 1241 0 
L 628 0 
L 628 4666 
z
" transform="scale(0.015625)"/>
      <path id="DejaVuSans-4d" d="M 628 4666 
L 1569 4666 
L 2759 1491 
L 3956 4666 
L 4897 4666 
L 4897 0 
L 4281 0 
L 4281 4097 
L 3078 897 
L 2444 897 
L 1241 4097 
L 1241 0 
L 628 0 
L 628 4666 
z
" transform="scale(0.015625)"/>
      <path id="DejaVuSans-6d" d="M 3328 2828 
Q 3544 3216 3844 3400 
Q 4144 3584 4550 3584 
Q 5097 3584 5394 3201 
Q 5691 2819 5691 2113 
L 5691 0 
L 5113 0 
L 5113 2094 
Q 5113 2597 4934 2840 
Q 4756 3084 4391 3084 
Q 3944 3084 3684 2787 
Q 3425 2491 3425 1978 
L 3425 0 
L 2847 0 
L 2847 2094 
Q 2847 2600 2669 2842 
Q 2491 3084 2119 3084 
Q 1678 3084 1418 2786 
Q 1159 2488 1159 1978 
L 1159 0 
L 581 0 
L 581 3500 
L 1159 3500 
L 1159 2956 
Q 1356 3278 1631 3431 
Q 1906 3584 2284 3584 
Q 2666 3584 2933 3390 
Q 3200 3197 3328 2828 
z
" transform="scale(0.015625)"/>
      <path id="DejaVuSans-75" d="M 544 1381 
L 544 3500 
L 1119 3500 
L 1119 1403 
Q 1119 906 1312 657 
Q 1506 409 1894 409 
Q 2359 409 2629 706 
Q 2900 1003 2900 1516 
L 2900 3500 
L 3475 3500 
L 3475 0 
L 2900 0 
L 2900 538 
Q 2691 219 2414 64 
Q 2138 -91 1772 -91 
Q 1169 -91 856 284 
Q 544 659 544 1381 
z
M 1991 3584 
L 1991 3584 
z
" transform="scale(0.015625)"/>
     </defs>
     <use xlink:href="#DejaVuSans-45" transform="translate(0 0.765625)"/>
     <use xlink:href="#DejaVuSans-78" transform="translate(63.183594 0.765625)"/>
     <use xlink:href="#DejaVuSans-70" transform="translate(122.363281 0.765625)"/>
     <use xlink:href="#DejaVuSans-65" transform="translate(185.839844 0.765625)"/>
     <use xlink:href="#DejaVuSans-63" transform="translate(247.363281 0.765625)"/>
     <use xlink:href="#DejaVuSans-74" transform="translate(302.34375 0.765625)"/>
     <use xlink:href="#DejaVuSans-61" transform="translate(341.552734 0.765625)"/>
     <use xlink:href="#DejaVuSans-74" transform="translate(402.832031 0.765625)"/>
     <use xlink:href="#DejaVuSans-69" transform="translate(442.041016 0.765625)"/>
     <use xlink:href="#DejaVuSans-6f" transform="translate(469.824219 0.765625)"/>
     <use xlink:href="#DejaVuSans-6e" transform="translate(531.005859 0.765625)"/>
     <use xlink:href="#DejaVuSans-20" transform="translate(594.384766 0.765625)"/>
     <use xlink:href="#DejaVuSans-27e8" transform="translate(626.171875 0.765625)"/>
     <use xlink:href="#DejaVuSans-Oblique-4a" transform="translate(665.185547 0.765625)"/>
     <use xlink:href="#DejaVuSans-Oblique-53" transform="translate(701.694505 39.046875) scale(0.7)"/>
     <use xlink:href="#DejaVuSans-Oblique-7a" transform="translate(694.677734 -26.578125) scale(0.7)"/>
     <use xlink:href="#DejaVuSans-27e9" transform="translate(748.862474 0.765625)"/>
     <use xlink:href="#DejaVuSans-20" transform="translate(787.876146 0.765625)"/>
     <use xlink:href="#DejaVuSans-61" transform="translate(819.663255 0.765625)"/>
     <use xlink:href="#DejaVuSans-74" transform="translate(880.942552 0.765625)"/>
     <use xlink:href="#DejaVuSans-20" transform="translate(920.151536 0.765625)"/>
     <use xlink:href="#DejaVuSans-4e" transform="translate(951.938646 0.765625)"/>
     <use xlink:href="#DejaVuSans-4d" transform="translate(1026.743333 0.765625)"/>
     <use xlink:href="#DejaVuSans-20" transform="translate(1113.02263 0.765625)"/>
     <use xlink:href="#DejaVuSans-6f" transform="translate(1144.80974 0.765625)"/>
     <use xlink:href="#DejaVuSans-70" transform="translate(1205.99138 0.765625)"/>
     <use xlink:href="#DejaVuSans-74" transform="translate(1269.467943 0.765625)"/>
     <use xlink:href="#DejaVuSans-69" transform="translate(1308.676927 0.765625)"/>
     <use xlink:href="#DejaVuSans-6d" transform="translate(1336.46013 0.765625)"/>
     <use xlink:href="#DejaVuSans-75" transform="translate(1433.87224 0.765625)"/>
     <use xlink:href="#DejaVuSans-6d" transform="translate(1497.251146 0.765625)"/>
    </g>
   </g>
  </g>
  <g id="axes_2">
   <g id="patch_7">
    <path d="M 342.086094 229.908 
L 553.649094 229.908 
L 553.649094 24.12 
L 342.086094 24.12 
z
" style="fill: #ffffff"/>
   </g>
   <g id="matplotlib.axis_3">
    <g id="xtick_7">
     <g id="line2d_14">
      <path d="M 347.777492 229.908 
L 347.777492 24.12 
" clip-path="url(#p78764d46ae)" style="fill: none; stroke: #cccccc; stroke-linecap: round"/>
     </g>
     <g id="text_15">
      <!-- 0 -->
      <g style="fill: #262626" transform="translate(344.278117 247.766281) scale(0.11 -0.11)">
       <use xlink:href="#DejaVuSans-30"/>
      </g>
     </g>
    </g>
    <g id="xtick_8">
     <g id="line2d_15">
      <path d="M 387.028512 229.908 
L 387.028512 24.12 
" clip-path="url(#p78764d46ae)" style="fill: none; stroke: #cccccc; stroke-linecap: round"/>
     </g>
     <g id="text_16">
      <!-- 1 -->
      <g style="fill: #262626" transform="translate(383.529137 247.766281) scale(0.11 -0.11)">
       <use xlink:href="#DejaVuSans-31"/>
      </g>
     </g>
    </g>
    <g id="xtick_9">
     <g id="line2d_16">
      <path d="M 426.279533 229.908 
L 426.279533 24.12 
" clip-path="url(#p78764d46ae)" style="fill: none; stroke: #cccccc; stroke-linecap: round"/>
     </g>
     <g id="text_17">
      <!-- 2 -->
      <g style="fill: #262626" transform="translate(422.780158 247.766281) scale(0.11 -0.11)">
       <use xlink:href="#DejaVuSans-32"/>
      </g>
     </g>
    </g>
    <g id="xtick_10">
     <g id="line2d_17">
      <path d="M 465.530553 229.908 
L 465.530553 24.12 
" clip-path="url(#p78764d46ae)" style="fill: none; stroke: #cccccc; stroke-linecap: round"/>
     </g>
     <g id="text_18">
      <!-- 3 -->
      <g style="fill: #262626" transform="translate(462.031178 247.766281) scale(0.11 -0.11)">
       <use xlink:href="#DejaVuSans-33"/>
      </g>
     </g>
    </g>
    <g id="xtick_11">
     <g id="line2d_18">
      <path d="M 504.781573 229.908 
L 504.781573 24.12 
" clip-path="url(#p78764d46ae)" style="fill: none; stroke: #cccccc; stroke-linecap: round"/>
     </g>
     <g id="text_19">
      <!-- 4 -->
      <g style="fill: #262626" transform="translate(501.282198 247.766281) scale(0.11 -0.11)">
       <use xlink:href="#DejaVuSans-34"/>
      </g>
     </g>
    </g>
    <g id="xtick_12">
     <g id="line2d_19">
      <path d="M 544.032594 229.908 
L 544.032594 24.12 
" clip-path="url(#p78764d46ae)" style="fill: none; stroke: #cccccc; stroke-linecap: round"/>
     </g>
     <g id="text_20">
      <!-- 5 -->
      <g style="fill: #262626" transform="translate(540.533219 247.766281) scale(0.11 -0.11)">
       <use xlink:href="#DejaVuSans-35"/>
      </g>
     </g>
    </g>
    <g id="text_21">
     <!-- $\theta$ -->
     <g style="fill: #262626" transform="translate(444.147594 263.172063) scale(0.12 -0.12)">
      <use xlink:href="#DejaVuSans-Oblique-3b8" transform="translate(0 0.234375)"/>
     </g>
    </g>
   </g>
   <g id="matplotlib.axis_4">
    <g id="ytick_6">
     <g id="line2d_20">
      <path d="M 342.086094 220.563424 
L 553.649094 220.563424 
" clip-path="url(#p78764d46ae)" style="fill: none; stroke: #cccccc; stroke-linecap: round"/>
     </g>
     <g id="text_22">
      <!-- 0.00 -->
      <g style="fill: #262626" transform="translate(308.093906 224.742565) scale(0.11 -0.11)">
       <use xlink:href="#DejaVuSans-30"/>
       <use xlink:href="#DejaVuSans-2e" transform="translate(63.623047 0)"/>
       <use xlink:href="#DejaVuSans-30" transform="translate(95.410156 0)"/>
       <use xlink:href="#DejaVuSans-30" transform="translate(159.033203 0)"/>
      </g>
     </g>
    </g>
    <g id="ytick_7">
     <g id="line2d_21">
      <path d="M 342.086094 183.145512 
L 553.649094 183.145512 
" clip-path="url(#p78764d46ae)" style="fill: none; stroke: #cccccc; stroke-linecap: round"/>
     </g>
     <g id="text_23">
      <!-- 0.05 -->
      <g style="fill: #262626" transform="translate(308.093906 187.324652) scale(0.11 -0.11)">
       <use xlink:href="#DejaVuSans-30"/>
       <use xlink:href="#DejaVuSans-2e" transform="translate(63.623047 0)"/>
       <use xlink:href="#DejaVuSans-30" transform="translate(95.410156 0)"/>
       <use xlink:href="#DejaVuSans-35" transform="translate(159.033203 0)"/>
      </g>
     </g>
    </g>
    <g id="ytick_8">
     <g id="line2d_22">
      <path d="M 342.086094 145.727599 
L 553.649094 145.727599 
" clip-path="url(#p78764d46ae)" style="fill: none; stroke: #cccccc; stroke-linecap: round"/>
     </g>
     <g id="text_24">
      <!-- 0.10 -->
      <g style="fill: #262626" transform="translate(308.093906 149.90674) scale(0.11 -0.11)">
       <use xlink:href="#DejaVuSans-30"/>
       <use xlink:href="#DejaVuSans-2e" transform="translate(63.623047 0)"/>
       <use xlink:href="#DejaVuSans-31" transform="translate(95.410156 0)"/>
       <use xlink:href="#DejaVuSans-30" transform="translate(159.033203 0)"/>
      </g>
     </g>
    </g>
    <g id="ytick_9">
     <g id="line2d_23">
      <path d="M 342.086094 108.309687 
L 553.649094 108.309687 
" clip-path="url(#p78764d46ae)" style="fill: none; stroke: #cccccc; stroke-linecap: round"/>
     </g>
     <g id="text_25">
      <!-- 0.15 -->
      <g style="fill: #262626" transform="translate(308.093906 112.488828) scale(0.11 -0.11)">
       <use xlink:href="#DejaVuSans-30"/>
       <use xlink:href="#DejaVuSans-2e" transform="translate(63.623047 0)"/>
       <use xlink:href="#DejaVuSans-31" transform="translate(95.410156 0)"/>
       <use xlink:href="#DejaVuSans-35" transform="translate(159.033203 0)"/>
      </g>
     </g>
    </g>
    <g id="ytick_10">
     <g id="line2d_24">
      <path d="M 342.086094 70.891774 
L 553.649094 70.891774 
" clip-path="url(#p78764d46ae)" style="fill: none; stroke: #cccccc; stroke-linecap: round"/>
     </g>
     <g id="text_26">
      <!-- 0.20 -->
      <g style="fill: #262626" transform="translate(308.093906 75.070915) scale(0.11 -0.11)">
       <use xlink:href="#DejaVuSans-30"/>
       <use xlink:href="#DejaVuSans-2e" transform="translate(63.623047 0)"/>
       <use xlink:href="#DejaVuSans-32" transform="translate(95.410156 0)"/>
       <use xlink:href="#DejaVuSans-30" transform="translate(159.033203 0)"/>
      </g>
     </g>
    </g>
    <g id="ytick_11">
     <g id="line2d_25">
      <path d="M 342.086094 33.473862 
L 553.649094 33.473862 
" clip-path="url(#p78764d46ae)" style="fill: none; stroke: #cccccc; stroke-linecap: round"/>
     </g>
     <g id="text_27">
      <!-- 0.25 -->
      <g style="fill: #262626" transform="translate(308.093906 37.653003) scale(0.11 -0.11)">
       <use xlink:href="#DejaVuSans-30"/>
       <use xlink:href="#DejaVuSans-2e" transform="translate(63.623047 0)"/>
       <use xlink:href="#DejaVuSans-32" transform="translate(95.410156 0)"/>
       <use xlink:href="#DejaVuSans-35" transform="translate(159.033203 0)"/>
      </g>
     </g>
    </g>
    <g id="text_28">
     <!-- $\mathrm{Var}(J_z^S)$ -->
     <g style="fill: #262626" transform="translate(300.733906 146.994) rotate(-90) scale(0.12 -0.12)">
      <defs>
       <path id="DejaVuSans-56" d="M 1831 0 
L 50 4666 
L 709 4666 
L 2188 738 
L 3669 4666 
L 4325 4666 
L 2547 0 
L 1831 0 
z
" transform="scale(0.015625)"/>
       <path id="DejaVuSans-72" d="M 2631 2963 
Q 2534 3019 2420 3045 
Q 2306 3072 2169 3072 
Q 1681 3072 1420 2755 
Q 1159 2438 1159 1844 
L 1159 0 
L 581 0 
L 581 3500 
L 1159 3500 
L 1159 2956 
Q 1341 3275 1631 3429 
Q 1922 3584 2338 3584 
Q 2397 3584 2469 3576 
Q 2541 3569 2628 3553 
L 2631 2963 
z
" transform="scale(0.015625)"/>
       <path id="DejaVuSans-28" d="M 1984 4856 
Q 1566 4138 1362 3434 
Q 1159 2731 1159 2009 
Q 1159 1288 1364 580 
Q 1569 -128 1984 -844 
L 1484 -844 
Q 1016 -109 783 600 
Q 550 1309 550 2009 
Q 550 2706 781 3412 
Q 1013 4119 1484 4856 
L 1984 4856 
z
" transform="scale(0.015625)"/>
       <path id="DejaVuSans-29" d="M 513 4856 
L 1013 4856 
Q 1481 4119 1714 3412 
Q 1947 2706 1947 2009 
Q 1947 1309 1714 600 
Q 1481 -109 1013 -844 
L 513 -844 
Q 928 -128 1133 580 
Q 1338 1288 1338 2009 
Q 1338 2731 1133 3434 
Q 928 4138 513 4856 
z
" transform="scale(0.015625)"/>
      </defs>
      <use xlink:href="#DejaVuSans-56" transform="translate(0 0.765625)"/>
      <use xlink:href="#DejaVuSans-61" transform="translate(68.408203 0.765625)"/>
      <use xlink:href="#DejaVuSans-72" transform="translate(129.6875 0.765625)"/>
      <use xlink:href="#DejaVuSans-28" transform="translate(170.800781 0.765625)"/>
      <use xlink:href="#DejaVuSans-Oblique-4a" transform="translate(209.814453 0.765625)"/>
      <use xlink:href="#DejaVuSans-Oblique-53" transform="translate(246.323411 39.046875) scale(0.7)"/>
      <use xlink:href="#DejaVuSans-Oblique-7a" transform="translate(239.306641 -26.578125) scale(0.7)"/>
      <use xlink:href="#DejaVuSans-29" transform="translate(293.49138 0.765625)"/>
     </g>
    </g>
   </g>
   <g id="line2d_26">
    <path d="M 351.702594 47.28916 
L 355.627696 50.701363 
L 359.552798 217.15231 
L 363.4779 124.479962 
L 367.403002 65.849753 
L 371.328104 206.25833 
L 375.253206 149.315041 
L 379.178308 37.16964 
L 383.10341 191.822602 
L 387.028512 166.541515 
L 390.953614 33.474 
L 394.878716 166.827218 
L 398.803818 187.996017 
L 402.72892 37.36537 
L 406.654022 141.847295 
L 410.579124 205.316767 
L 414.504226 48.389314 
L 418.429328 115.655124 
L 422.35443 216.498501 
L 426.279533 65.661592 
L 430.204635 89.285146 
L 434.129737 220.554 
L 438.054839 87.657702 
L 441.979941 66.937465 
L 445.905043 217.222848 
L 449.830145 111.928218 
L 453.755247 49.363955 
L 457.680349 206.760549 
L 461.605451 138.349128 
L 465.530553 37.94084 
L 469.455655 190.223105 
L 473.380757 163.786934 
L 477.305859 33.503046 
L 481.230961 168.038007 
L 485.156063 186.376582 
L 489.081165 36.558695 
L 493.006267 142.962638 
L 496.931369 204.166862 
L 500.856471 46.8782 
L 504.781573 117.758991 
L 508.706675 215.893665 
L 512.631777 63.9172 
L 516.556879 91.013511 
L 520.481982 220.507828 
L 524.407084 85.184584 
L 528.332186 68.35437 
L 532.257288 217.687394 
L 536.18239 110.212376 
L 540.107492 50.343656 
L 544.032594 207.658915 
" clip-path="url(#p78764d46ae)" style="fill: none; stroke: #dd8452; stroke-width: 1.5; stroke-linecap: round"/>
    <defs>
     <path id="ma92e540ac6" d="M -3.5 3.5 
L 3.5 3.5 
L 3.5 -3.5 
L -3.5 -3.5 
z
" style="stroke: #dd8452; stroke-linejoin: miter"/>
    </defs>
    <g clip-path="url(#p78764d46ae)">
     <use xlink:href="#ma92e540ac6" x="351.702594" y="47.28916" style="fill: #dd8452; stroke: #dd8452; stroke-linejoin: miter"/>
     <use xlink:href="#ma92e540ac6" x="355.627696" y="50.701363" style="fill: #dd8452; stroke: #dd8452; stroke-linejoin: miter"/>
     <use xlink:href="#ma92e540ac6" x="359.552798" y="217.15231" style="fill: #dd8452; stroke: #dd8452; stroke-linejoin: miter"/>
     <use xlink:href="#ma92e540ac6" x="363.4779" y="124.479962" style="fill: #dd8452; stroke: #dd8452; stroke-linejoin: miter"/>
     <use xlink:href="#ma92e540ac6" x="367.403002" y="65.849753" style="fill: #dd8452; stroke: #dd8452; stroke-linejoin: miter"/>
     <use xlink:href="#ma92e540ac6" x="371.328104" y="206.25833" style="fill: #dd8452; stroke: #dd8452; stroke-linejoin: miter"/>
     <use xlink:href="#ma92e540ac6" x="375.253206" y="149.315041" style="fill: #dd8452; stroke: #dd8452; stroke-linejoin: miter"/>
     <use xlink:href="#ma92e540ac6" x="379.178308" y="37.16964" style="fill: #dd8452; stroke: #dd8452; stroke-linejoin: miter"/>
     <use xlink:href="#ma92e540ac6" x="383.10341" y="191.822602" style="fill: #dd8452; stroke: #dd8452; stroke-linejoin: miter"/>
     <use xlink:href="#ma92e540ac6" x="387.028512" y="166.541515" style="fill: #dd8452; stroke: #dd8452; stroke-linejoin: miter"/>
     <use xlink:href="#ma92e540ac6" x="390.953614" y="33.474" style="fill: #dd8452; stroke: #dd8452; stroke-linejoin: miter"/>
     <use xlink:href="#ma92e540ac6" x="394.878716" y="166.827218" style="fill: #dd8452; stroke: #dd8452; stroke-linejoin: miter"/>
     <use xlink:href="#ma92e540ac6" x="398.803818" y="187.996017" style="fill: #dd8452; stroke: #dd8452; stroke-linejoin: miter"/>
     <use xlink:href="#ma92e540ac6" x="402.72892" y="37.36537" style="fill: #dd8452; stroke: #dd8452; stroke-linejoin: miter"/>
     <use xlink:href="#ma92e540ac6" x="406.654022" y="141.847295" style="fill: #dd8452; stroke: #dd8452; stroke-linejoin: miter"/>
     <use xlink:href="#ma92e540ac6" x="410.579124" y="205.316767" style="fill: #dd8452; stroke: #dd8452; stroke-linejoin: miter"/>
     <use xlink:href="#ma92e540ac6" x="414.504226" y="48.389314" style="fill: #dd8452; stroke: #dd8452; stroke-linejoin: miter"/>
     <use xlink:href="#ma92e540ac6" x="418.429328" y="115.655124" style="fill: #dd8452; stroke: #dd8452; stroke-linejoin: miter"/>
     <use xlink:href="#ma92e540ac6" x="422.35443" y="216.498501" style="fill: #dd8452; stroke: #dd8452; stroke-linejoin: miter"/>
     <use xlink:href="#ma92e540ac6" x="426.279533" y="65.661592" style="fill: #dd8452; stroke: #dd8452; stroke-linejoin: miter"/>
     <use xlink:href="#ma92e540ac6" x="430.204635" y="89.285146" style="fill: #dd8452; stroke: #dd8452; stroke-linejoin: miter"/>
     <use xlink:href="#ma92e540ac6" x="434.129737" y="220.554" style="fill: #dd8452; stroke: #dd8452; stroke-linejoin: miter"/>
     <use xlink:href="#ma92e540ac6" x="438.054839" y="87.657702" style="fill: #dd8452; stroke: #dd8452; stroke-linejoin: miter"/>
     <use xlink:href="#ma92e540ac6" x="441.979941" y="66.937465" style="fill: #dd8452; stroke: #dd8452; stroke-linejoin: miter"/>
     <use xlink:href="#ma92e540ac6" x="445.905043" y="217.222848" style="fill: #dd8452; stroke: #dd8452; stroke-linejoin: miter"/>
     <use xlink:href="#ma92e540ac6" x="449.830145" y="111.928218" style="fill: #dd8452; stroke: #dd8452; stroke-linejoin: miter"/>
     <use xlink:href="#ma92e540ac6" x="453.755247" y="49.363955" style="fill: #dd8452; stroke: #dd8452; stroke-linejoin: miter"/>
     <use xlink:href="#ma92e540ac6" x="457.680349" y="206.760549" style="fill: #dd8452; stroke: #dd8452; stroke-linejoin: miter"/>
     <use xlink:href="#ma92e540ac6" x="461.605451" y="138.349128" style="fill: #dd8452; stroke: #dd8452; stroke-linejoin: miter"/>
     <use xlink:href="#ma92e540ac6" x="465.530553" y="37.94084" style="fill: #dd8452; stroke: #dd8452; stroke-linejoin: miter"/>
     <use xlink:href="#ma92e540ac6" x="469.455655" y="190.223105" style="fill: #dd8452; stroke: #dd8452; stroke-linejoin: miter"/>
     <use xlink:href="#ma92e540ac6" x="473.380757" y="163.786934" style="fill: #dd8452; stroke: #dd8452; stroke-linejoin: miter"/>
     <use xlink:href="#ma92e540ac6" x="477.305859" y="33.503046" style="fill: #dd8452; stroke: #dd8452; stroke-linejoin: miter"/>
     <use xlink:href="#ma92e540ac6" x="481.230961" y="168.038007" style="fill: #dd8452; stroke: #dd8452; stroke-linejoin: miter"/>
     <use xlink:href="#ma92e540ac6" x="485.156063" y="186.376582" style="fill: #dd8452; stroke: #dd8452; stroke-linejoin: miter"/>
     <use xlink:href="#ma92e540ac6" x="489.081165" y="36.558695" style="fill: #dd8452; stroke: #dd8452; stroke-linejoin: miter"/>
     <use xlink:href="#ma92e540ac6" x="493.006267" y="142.962638" style="fill: #dd8452; stroke: #dd8452; stroke-linejoin: miter"/>
     <use xlink:href="#ma92e540ac6" x="496.931369" y="204.166862" style="fill: #dd8452; stroke: #dd8452; stroke-linejoin: miter"/>
     <use xlink:href="#ma92e540ac6" x="500.856471" y="46.8782" style="fill: #dd8452; stroke: #dd8452; stroke-linejoin: miter"/>
     <use xlink:href="#ma92e540ac6" x="504.781573" y="117.758991" style="fill: #dd8452; stroke: #dd8452; stroke-linejoin: miter"/>
     <use xlink:href="#ma92e540ac6" x="508.706675" y="215.893665" style="fill: #dd8452; stroke: #dd8452; stroke-linejoin: miter"/>
     <use xlink:href="#ma92e540ac6" x="512.631777" y="63.9172" style="fill: #dd8452; stroke: #dd8452; stroke-linejoin: miter"/>
     <use xlink:href="#ma92e540ac6" x="516.556879" y="91.013511" style="fill: #dd8452; stroke: #dd8452; stroke-linejoin: miter"/>
     <use xlink:href="#ma92e540ac6" x="520.481982" y="220.507828" style="fill: #dd8452; stroke: #dd8452; stroke-linejoin: miter"/>
     <use xlink:href="#ma92e540ac6" x="524.407084" y="85.184584" style="fill: #dd8452; stroke: #dd8452; stroke-linejoin: miter"/>
     <use xlink:href="#ma92e540ac6" x="528.332186" y="68.35437" style="fill: #dd8452; stroke: #dd8452; stroke-linejoin: miter"/>
     <use xlink:href="#ma92e540ac6" x="532.257288" y="217.687394" style="fill: #dd8452; stroke: #dd8452; stroke-linejoin: miter"/>
     <use xlink:href="#ma92e540ac6" x="536.18239" y="110.212376" style="fill: #dd8452; stroke: #dd8452; stroke-linejoin: miter"/>
     <use xlink:href="#ma92e540ac6" x="540.107492" y="50.343656" style="fill: #dd8452; stroke: #dd8452; stroke-linejoin: miter"/>
     <use xlink:href="#ma92e540ac6" x="544.032594" y="207.658915" style="fill: #dd8452; stroke: #dd8452; stroke-linejoin: miter"/>
    </g>
   </g>
   <g id="patch_8">
    <path d="M 342.086094 229.908 
L 342.086094 24.12 
" style="fill: none; stroke: #cccccc; stroke-width: 1.25; stroke-linejoin: miter; stroke-linecap: square"/>
   </g>
   <g id="patch_9">
    <path d="M 553.649094 229.908 
L 553.649094 24.12 
" style="fill: none; stroke: #cccccc; stroke-width: 1.25; stroke-linejoin: miter; stroke-linecap: square"/>
   </g>
   <g id="patch_10">
    <path d="M 342.086094 229.908 
L 553.649094 229.908 
" style="fill: none; stroke: #cccccc; stroke-width: 1.25; stroke-linejoin: miter; stroke-linecap: square"/>
   </g>
   <g id="patch_11">
    <path d="M 342.086094 24.12 
L 553.649094 24.12 
" style="fill: none; stroke: #cccccc; stroke-width: 1.25; stroke-linejoin: miter; stroke-linecap: square"/>
   </g>
   <g id="text_29">
    <!-- Variance $\mathrm{Var}(J_z^S)$ at NM optimum -->
    <g style="fill: #262626" transform="translate(351.207594 18.12) scale(0.12 -0.12)">
     <use xlink:href="#DejaVuSans-56" transform="translate(0 0.765625)"/>
     <use xlink:href="#DejaVuSans-61" transform="translate(68.408203 0.765625)"/>
     <use xlink:href="#DejaVuSans-72" transform="translate(129.6875 0.765625)"/>
     <use xlink:href="#DejaVuSans-69" transform="translate(170.800781 0.765625)"/>
     <use xlink:href="#DejaVuSans-61" transform="translate(198.583984 0.765625)"/>
     <use xlink:href="#DejaVuSans-6e" transform="translate(259.863281 0.765625)"/>
     <use xlink:href="#DejaVuSans-63" transform="translate(323.242188 0.765625)"/>
     <use xlink:href="#DejaVuSans-65" transform="translate(378.222656 0.765625)"/>
     <use xlink:href="#DejaVuSans-20" transform="translate(439.746094 0.765625)"/>
     <use xlink:href="#DejaVuSans-56" transform="translate(471.533203 0.765625)"/>
     <use xlink:href="#DejaVuSans-61" transform="translate(539.941406 0.765625)"/>
     <use xlink:href="#DejaVuSans-72" transform="translate(601.220703 0.765625)"/>
     <use xlink:href="#DejaVuSans-28" transform="translate(642.333984 0.765625)"/>
     <use xlink:href="#DejaVuSans-Oblique-4a" transform="translate(681.347656 0.765625)"/>
     <use xlink:href="#DejaVuSans-Oblique-53" transform="translate(717.856615 39.046875) scale(0.7)"/>
     <use xlink:href="#DejaVuSans-Oblique-7a" transform="translate(710.839844 -26.578125) scale(0.7)"/>
     <use xlink:href="#DejaVuSans-29" transform="translate(765.024583 0.765625)"/>
     <use xlink:href="#DejaVuSans-20" transform="translate(804.038255 0.765625)"/>
     <use xlink:href="#DejaVuSans-61" transform="translate(835.825365 0.765625)"/>
     <use xlink:href="#DejaVuSans-74" transform="translate(897.104661 0.765625)"/>
     <use xlink:href="#DejaVuSans-20" transform="translate(936.313646 0.765625)"/>
     <use xlink:href="#DejaVuSans-4e" transform="translate(968.100755 0.765625)"/>
     <use xlink:href="#DejaVuSans-4d" transform="translate(1042.905443 0.765625)"/>
     <use xlink:href="#DejaVuSans-20" transform="translate(1129.18474 0.765625)"/>
     <use xlink:href="#DejaVuSans-6f" transform="translate(1160.971849 0.765625)"/>
     <use xlink:href="#DejaVuSans-70" transform="translate(1222.15349 0.765625)"/>
     <use xlink:href="#DejaVuSans-74" transform="translate(1285.630052 0.765625)"/>
     <use xlink:href="#DejaVuSans-69" transform="translate(1324.839036 0.765625)"/>
     <use xlink:href="#DejaVuSans-6d" transform="translate(1352.62224 0.765625)"/>
     <use xlink:href="#DejaVuSans-75" transform="translate(1450.034349 0.765625)"/>
     <use xlink:href="#DejaVuSans-6d" transform="translate(1513.413255 0.765625)"/>
    </g>
   </g>
  </g>
 </g>
 <defs>
  <clipPath id="p2f0b720274">
   <rect x="61.691094" y="24.12" width="211.563" height="205.788"/>
  </clipPath>
  <clipPath id="p78764d46ae">
   <rect x="342.086094" y="24.12" width="211.563" height="205.788"/>
  </clipPath>
 </defs>
</svg>
