<?xml version="1.0" encoding="utf-8" standalone="no"?>
<!DOCTYPE svg PUBLIC "-//W3C//DTD SVG 1.1//EN"
  "http://www.w3.org/Graphics/SVG/1.1/DTD/svg11.dtd">
<svg xmlns:xlink="http://www.w3.org/1999/xlink" width="563.167187pt" height="346.017812pt" viewBox="0 0 563.167187 346.017812" xmlns="http://www.w3.org/2000/svg" version="1.1">
 <metadata>
  <rdf:RDF xmlns:dc="http://purl.org/dc/elements/1.1/" xmlns:cc="http://creativecommons.org/ns#" xmlns:rdf="http://www.w3.org/1999/02/22-rdf-syntax-ns#">
   <cc:Work>
    <dc:type rdf:resource="http://purl.org/dc/dcmitype/StillImage"/>
    <dc:date>2026-05-20T14:59:32.105577</dc:date>
    <dc:format>image/svg+xml</dc:format>
    <dc:creator>
     <cc:Agent>
      <dc:title>Matplotlib v3.10.5, https://matplotlib.org/</dc:title>
     </cc:Agent>
    </dc:creator>
   </cc:Work>
  </rdf:RDF>
 </metadata>
 <defs>
  <style type="text/css">*{stroke-linejoin: round; stroke-linecap: butt}</style>
 </defs>
 <g id="figure_1">
  <g id="patch_1">
   <path d="M 0 346.017812 
L 563.167187 346.017812 
L 563.167187 0 
L 0 0 
z
" style="fill: #ffffff"/>
  </g>
  <g id="axes_1">
   <g id="patch_2">
    <path d="M 49.807188 303.058125 
L 555.967187 303.058125 
L 555.967187 22.318125 
L 49.807188 22.318125 
z
" style="fill: #ffffff"/>
   </g>
   <g id="matplotlib.axis_1">
    <g id="xtick_1">
     <g id="line2d_1">
      <path d="M 63.423737 303.058125 
L 63.423737 22.318125 
" clip-path="url(#pafd7867371)" style="fill: none; stroke: #cccccc; stroke-linecap: round"/>
     </g>
     <g id="text_1">
      <!-- 0 -->
      <g style="fill: #262626" transform="translate(59.924362 320.916406) scale(0.11 -0.11)">
       <defs>
        <path id="DejaVuSans-30" d="M 2034 4250 
Q 1547 4250 1301 3770 
Q 1056 3291 1056 2328 
Q 1056 1369 1301 889 
Q 1547 409 2034 409 
Q 2525 409 2770 889 
Q 3016 1369 3016 2328 
Q 3016 3291 2770 3770 
Q 2525 4250 2034 4250 
z
M 2034 4750 
Q 2819 4750 3233 4129 
Q 3647 3509 3647 2328 
Q 3647 1150 3233 529 
Q 2819 -91 2034 -91 
Q 1250 -91 836 529 
Q 422 1150 422 2328 
Q 422 3509 836 4129 
Q 1250 4750 2034 4750 
z
" transform="scale(0.015625)"/>
       </defs>
       <use xlink:href="#DejaVuSans-30"/>
      </g>
     </g>
    </g>
    <g id="xtick_2">
     <g id="line2d_2">
      <path d="M 157.330972 303.058125 
L 157.330972 22.318125 
" clip-path="url(#pafd7867371)" style="fill: none; stroke: #cccccc; stroke-linecap: round"/>
     </g>
     <g id="text_2">
      <!-- 1 -->
      <g style="fill: #262626" transform="translate(153.831597 320.916406) scale(0.11 -0.11)">
       <defs>
        <path id="DejaVuSans-31" d="M 794 531 
L 1825 531 
L 1825 4091 
L 703 3866 
L 703 4441 
L 1819 4666 
L 2450 4666 
L 2450 531 
L 3481 531 
L 3481 0 
L 794 0 
L 794 531 
z
" transform="scale(0.015625)"/>
       </defs>
       <use xlink:href="#DejaVuSans-31"/>
      </g>
     </g>
    </g>
    <g id="xtick_3">
     <g id="line2d_3">
      <path d="M 251.238208 303.058125 
L 251.238208 22.318125 
" clip-path="url(#pafd7867371)" style="fill: none; stroke: #cccccc; stroke-linecap: round"/>
     </g>
     <g id="text_3">
      <!-- 2 -->
      <g style="fill: #262626" transform="translate(247.738833 320.916406) scale(0.11 -0.11)">
       <defs>
        <path id="DejaVuSans-32" d="M 1228 531 
L 3431 531 
L 3431 0 
L 469 0 
L 469 531 
Q 828 903 1448 1529 
Q 2069 2156 2228 2338 
Q 2531 2678 2651 2914 
Q 2772 3150 2772 3378 
Q 2772 3750 2511 3984 
Q 2250 4219 1831 4219 
Q 1534 4219 1204 4116 
Q 875 4013 500 3803 
L 500 4441 
Q 881 4594 1212 4672 
Q 1544 4750 1819 4750 
Q 2544 4750 2975 4387 
Q 3406 4025 3406 3419 
Q 3406 3131 3298 2873 
Q 3191 2616 2906 2266 
Q 2828 2175 2409 1742 
Q 1991 1309 1228 531 
z
" transform="scale(0.015625)"/>
       </defs>
       <use xlink:href="#DejaVuSans-32"/>
      </g>
     </g>
    </g>
    <g id="xtick_4">
     <g id="line2d_4">
      <path d="M 345.145444 303.058125 
L 345.145444 22.318125 
" clip-path="url(#pafd7867371)" style="fill: none; stroke: #cccccc; stroke-linecap: round"/>
     </g>
     <g id="text_4">
      <!-- 3 -->
      <g style="fill: #262626" transform="translate(341.646069 320.916406) scale(0.11 -0.11)">
       <defs>
        <path id="DejaVuSans-33" d="M 2597 2516 
Q 3050 2419 3304 2112 
Q 3559 1806 3559 1356 
Q 3559 666 3084 287 
Q 2609 -91 1734 -91 
Q 1441 -91 1130 -33 
Q 819 25 488 141 
L 488 750 
Q 750 597 1062 519 
Q 1375 441 1716 441 
Q 2309 441 2620 675 
Q 2931 909 2931 1356 
Q 2931 1769 2642 2001 
Q 2353 2234 1838 2234 
L 1294 2234 
L 1294 2753 
L 1863 2753 
Q 2328 2753 2575 2939 
Q 2822 3125 2822 3475 
Q 2822 3834 2567 4026 
Q 2313 4219 1838 4219 
Q 1578 4219 1281 4162 
Q 984 4106 628 3988 
L 628 4550 
Q 988 4650 1302 4700 
Q 1616 4750 1894 4750 
Q 2613 4750 3031 4423 
Q 3450 4097 3450 3541 
Q 3450 3153 3228 2886 
Q 3006 2619 2597 2516 
z
" transform="scale(0.015625)"/>
       </defs>
       <use xlink:href="#DejaVuSans-33"/>
      </g>
     </g>
    </g>
    <g id="xtick_5">
     <g id="line2d_5">
      <path d="M 439.052679 303.058125 
L 439.052679 22.318125 
" clip-path="url(#pafd7867371)" style="fill: none; stroke: #cccccc; stroke-linecap: round"/>
     </g>
     <g id="text_5">
      <!-- 4 -->
      <g style="fill: #262626" transform="translate(435.553304 320.916406) scale(0.11 -0.11)">
       <defs>
        <path id="DejaVuSans-34" d="M 2419 4116 
L 825 1625 
L 2419 1625 
L 2419 4116 
z
M 2253 4666 
L 3047 4666 
L 3047 1625 
L 3713 1625 
L 3713 1100 
L 3047 1100 
L 3047 0 
L 2419 0 
L 2419 1100 
L 313 1100 
L 313 1709 
L 2253 4666 
z
" transform="scale(0.015625)"/>
       </defs>
       <use xlink:href="#DejaVuSans-34"/>
      </g>
     </g>
    </g>
    <g id="xtick_6">
     <g id="line2d_6">
      <path d="M 532.959915 303.058125 
L 532.959915 22.318125 
" clip-path="url(#pafd7867371)" style="fill: none; stroke: #cccccc; stroke-linecap: round"/>
     </g>
     <g id="text_6">
      <!-- 5 -->
      <g style="fill: #262626" transform="translate(529.46054 320.916406) scale(0.11 -0.11)">
       <defs>
        <path id="DejaVuSans-35" d="M 691 4666 
L 3169 4666 
L 3169 4134 
L 1269 4134 
L 1269 2991 
Q 1406 3038 1543 3061 
Q 1681 3084 1819 3084 
Q 2600 3084 3056 2656 
Q 3513 2228 3513 1497 
Q 3513 744 3044 326 
Q 2575 -91 1722 -91 
Q 1428 -91 1123 -41 
Q 819 9 494 109 
L 494 744 
Q 775 591 1075 516 
Q 1375 441 1709 441 
Q 2250 441 2565 725 
Q 2881 1009 2881 1497 
Q 2881 1984 2565 2268 
Q 2250 2553 1709 2553 
Q 1456 2553 1204 2497 
Q 953 2441 691 2322 
L 691 4666 
z
" transform="scale(0.015625)"/>
       </defs>
       <use xlink:href="#DejaVuSans-35"/>
      </g>
     </g>
    </g>
    <g id="text_7">
     <!-- $\theta$ -->
     <g style="fill: #262626" transform="translate(299.167187 336.322187) scale(0.12 -0.12)">
      <defs>
       <path id="DejaVuSans-Oblique-3b8" d="M 2913 2219 
L 925 2219 
Q 791 1284 928 888 
Q 1100 400 1566 400 
Q 2034 400 2391 891 
Q 2703 1322 2913 2219 
z
M 3009 2750 
Q 3094 3638 2984 3950 
Q 2813 4444 2353 4444 
Q 1875 4444 1525 3956 
Q 1250 3563 1034 2750 
L 3009 2750 
z
M 2444 4913 
Q 3194 4913 3494 4250 
Q 3794 3591 3566 2422 
Q 3341 1256 2781 594 
Q 2225 -72 1475 -72 
Q 722 -72 425 594 
Q 128 1256 353 2422 
Q 581 3591 1134 4250 
Q 1691 4913 2444 4913 
z
" transform="scale(0.015625)"/>
      </defs>
      <use xlink:href="#DejaVuSans-Oblique-3b8" transform="translate(0 0.234375)"/>
     </g>
    </g>
   </g>
   <g id="matplotlib.axis_2">
    <g id="ytick_1">
     <g id="line2d_7">
      <path d="M 49.807188 303.058125 
L 555.967187 303.058125 
" clip-path="url(#pafd7867371)" style="fill: none; stroke: #cccccc; stroke-linecap: round"/>
     </g>
     <g id="text_8">
      <!-- 0.0 -->
      <g style="fill: #262626" transform="translate(22.81375 307.237266) scale(0.11 -0.11)">
       <defs>
        <path id="DejaVuSans-2e" d="M 684 794 
L 1344 794 
L 1344 0 
L 684 0 
L 684 794 
z
" transform="scale(0.015625)"/>
       </defs>
       <use xlink:href="#DejaVuSans-30"/>
       <use xlink:href="#DejaVuSans-2e" transform="translate(63.623047 0)"/>
       <use xlink:href="#DejaVuSans-30" transform="translate(95.410156 0)"/>
      </g>
     </g>
    </g>
    <g id="ytick_2">
     <g id="line2d_8">
      <path d="M 49.807188 246.910125 
L 555.967187 246.910125 
" clip-path="url(#pafd7867371)" style="fill: none; stroke: #cccccc; stroke-linecap: round"/>
     </g>
     <g id="text_9">
      <!-- 0.2 -->
      <g style="fill: #262626" transform="translate(22.81375 251.089266) scale(0.11 -0.11)">
       <use xlink:href="#DejaVuSans-30"/>
       <use xlink:href="#DejaVuSans-2e" transform="translate(63.623047 0)"/>
       <use xlink:href="#DejaVuSans-32" transform="translate(95.410156 0)"/>
      </g>
     </g>
    </g>
    <g id="ytick_3">
     <g id="line2d_9">
      <path d="M 49.807188 190.762125 
L 555.967187 190.762125 
" clip-path="url(#pafd7867371)" style="fill: none; stroke: #cccccc; stroke-linecap: round"/>
     </g>
     <g id="text_10">
      <!-- 0.4 -->
      <g style="fill: #262626" transform="translate(22.81375 194.941266) scale(0.11 -0.11)">
       <use xlink:href="#DejaVuSans-30"/>
       <use xlink:href="#DejaVuSans-2e" transform="translate(63.623047 0)"/>
       <use xlink:href="#DejaVuSans-34" transform="translate(95.410156 0)"/>
      </g>
     </g>
    </g>
    <g id="ytick_4">
     <g id="line2d_10">
      <path d="M 49.807188 134.614125 
L 555.967187 134.614125 
" clip-path="url(#pafd7867371)" style="fill: none; stroke: #cccccc; stroke-linecap: round"/>
     </g>
     <g id="text_11">
      <!-- 0.6 -->
      <g style="fill: #262626" transform="translate(22.81375 138.793266) scale(0.11 -0.11)">
       <defs>
        <path id="DejaVuSans-36" d="M 2113 2584 
Q 1688 2584 1439 2293 
Q 1191 2003 1191 1497 
Q 1191 994 1439 701 
Q 1688 409 2113 409 
Q 2538 409 2786 701 
Q 3034 994 3034 1497 
Q 3034 2003 2786 2293 
Q 2538 2584 2113 2584 
z
M 3366 4563 
L 3366 3988 
Q 3128 4100 2886 4159 
Q 2644 4219 2406 4219 
Q 1781 4219 1451 3797 
Q 1122 3375 1075 2522 
Q 1259 2794 1537 2939 
Q 1816 3084 2150 3084 
Q 2853 3084 3261 2657 
Q 3669 2231 3669 1497 
Q 3669 778 3244 343 
Q 2819 -91 2113 -91 
Q 1303 -91 875 529 
Q 447 1150 447 2328 
Q 447 3434 972 4092 
Q 1497 4750 2381 4750 
Q 2619 4750 2861 4703 
Q 3103 4656 3366 4563 
z
" transform="scale(0.015625)"/>
       </defs>
       <use xlink:href="#DejaVuSans-30"/>
       <use xlink:href="#DejaVuSans-2e" transform="translate(63.623047 0)"/>
       <use xlink:href="#DejaVuSans-36" transform="translate(95.410156 0)"/>
      </g>
     </g>
    </g>
    <g id="ytick_5">
     <g id="line2d_11">
      <path d="M 49.807188 78.466125 
L 555.967187 78.466125 
" clip-path="url(#pafd7867371)" style="fill: none; stroke: #cccccc; stroke-linecap: round"/>
     </g>
     <g id="text_12">
      <!-- 0.8 -->
      <g style="fill: #262626" transform="translate(22.81375 82.645266) scale(0.11 -0.11)">
       <defs>
        <path id="DejaVuSans-38" d="M 2034 2216 
Q 1584 2216 1326 1975 
Q 1069 1734 1069 1313 
Q 1069 891 1326 650 
Q 1584 409 2034 409 
Q 2484 409 2743 651 
Q 3003 894 3003 1313 
Q 3003 1734 2745 1975 
Q 2488 2216 2034 2216 
z
M 1403 2484 
Q 997 2584 770 2862 
Q 544 3141 544 3541 
Q 544 4100 942 4425 
Q 1341 4750 2034 4750 
Q 2731 4750 3128 4425 
Q 3525 4100 3525 3541 
Q 3525 3141 3298 2862 
Q 3072 2584 2669 2484 
Q 3125 2378 3379 2068 
Q 3634 1759 3634 1313 
Q 3634 634 3220 271 
Q 2806 -91 2034 -91 
Q 1263 -91 848 271 
Q 434 634 434 1313 
Q 434 1759 690 2068 
Q 947 2378 1403 2484 
z
M 1172 3481 
Q 1172 3119 1398 2916 
Q 1625 2713 2034 2713 
Q 2441 2713 2670 2916 
Q 2900 3119 2900 3481 
Q 2900 3844 2670 4047 
Q 2441 4250 2034 4250 
Q 1625 4250 1398 4047 
Q 1172 3844 1172 3481 
z
" transform="scale(0.015625)"/>
       </defs>
       <use xlink:href="#DejaVuSans-30"/>
       <use xlink:href="#DejaVuSans-2e" transform="translate(63.623047 0)"/>
       <use xlink:href="#DejaVuSans-38" transform="translate(95.410156 0)"/>
      </g>
     </g>
    </g>
    <g id="ytick_6">
     <g id="line2d_12">
      <path d="M 49.807188 22.318125 
L 555.967187 22.318125 
" clip-path="url(#pafd7867371)" style="fill: none; stroke: #cccccc; stroke-linecap: round"/>
     </g>
     <g id="text_13">
      <!-- 1.0 -->
      <g style="fill: #262626" transform="translate(22.81375 26.497266) scale(0.11 -0.11)">
       <use xlink:href="#DejaVuSans-31"/>
       <use xlink:href="#DejaVuSans-2e" transform="translate(63.623047 0)"/>
       <use xlink:href="#DejaVuSans-30" transform="translate(95.410156 0)"/>
      </g>
     </g>
    </g>
    <g id="text_14">
     <!-- Fraction below SQL -->
     <g style="fill: #262626" transform="translate(16.318125 220.074375) rotate(-90) scale(0.12 -0.12)">
      <defs>
       <path id="DejaVuSans-46" d="M 628 4666 
L 3309 4666 
L 3309 4134 
L 1259 4134 
L 1259 2759 
L 3109 2759 
L 3109 2228 
L 1259 2228 
L 1259 0 
L 628 0 
L 628 4666 
z
" transform="scale(0.015625)"/>
       <path id="DejaVuSans-72" d="M 2631 2963 
Q 2534 3019 2420 3045 
Q 2306 3072 2169 3072 
Q 1681 3072 1420 2755 
Q 1159 2438 1159 1844 
L 1159 0 
L 581 0 
L 581 3500 
L 1159 3500 
L 1159 2956 
Q 1341 3275 1631 3429 
Q 1922 3584 2338 3584 
Q 2397 3584 2469 3576 
Q 2541 3569 2628 3553 
L 2631 2963 
z
" transform="scale(0.015625)"/>
       <path id="DejaVuSans-61" d="M 2194 1759 
Q 1497 1759 1228 1600 
Q 959 1441 959 1056 
Q 959 750 1161 570 
Q 1363 391 1709 391 
Q 2188 391 2477 730 
Q 2766 1069 2766 1631 
L 2766 1759 
L 2194 1759 
z
M 3341 1997 
L 3341 0 
L 2766 0 
L 2766 531 
Q 2569 213 2275 61 
Q 1981 -91 1556 -91 
Q 1019 -91 701 211 
Q 384 513 384 1019 
Q 384 1609 779 1909 
Q 1175 2209 1959 2209 
L 2766 2209 
L 2766 2266 
Q 2766 2663 2505 2880 
Q 2244 3097 1772 3097 
Q 1472 3097 1187 3025 
Q 903 2953 641 2809 
L 641 3341 
Q 956 3463 1253 3523 
Q 1550 3584 1831 3584 
Q 2591 3584 2966 3190 
Q 3341 2797 3341 1997 
z
" transform="scale(0.015625)"/>
       <path id="DejaVuSans-63" d="M 3122 3366 
L 3122 2828 
Q 2878 2963 2633 3030 
Q 2388 3097 2138 3097 
Q 1578 3097 1268 2742 
Q 959 2388 959 1747 
Q 959 1106 1268 751 
Q 1578 397 2138 397 
Q 2388 397 2633 464 
Q 2878 531 3122 666 
L 3122 134 
Q 2881 22 2623 -34 
Q 2366 -91 2075 -91 
Q 1284 -91 818 406 
Q 353 903 353 1747 
Q 353 2603 823 3093 
Q 1294 3584 2113 3584 
Q 2378 3584 2631 3529 
Q 2884 3475 3122 3366 
z
" transform="scale(0.015625)"/>
       <path id="DejaVuSans-74" d="M 1172 4494 
L 1172 3500 
L 2356 3500 
L 2356 3053 
L 1172 3053 
L 1172 1153 
Q 1172 725 1289 603 
Q 1406 481 1766 481 
L 2356 481 
L 2356 0 
L 1766 0 
Q 1100 0 847 248 
Q 594 497 594 1153 
L 594 3053 
L 172 3053 
L 172 3500 
L 594 3500 
L 594 4494 
L 1172 4494 
z
" transform="scale(0.015625)"/>
       <path id="DejaVuSans-69" d="M 603 3500 
L 1178 3500 
L 1178 0 
L 603 0 
L 603 3500 
z
M 603 4863 
L 1178 4863 
L 1178 4134 
L 603 4134 
L 603 4863 
z
" transform="scale(0.015625)"/>
       <path id="DejaVuSans-6f" d="M 1959 3097 
Q 1497 3097 1228 2736 
Q 959 2375 959 1747 
Q 959 1119 1226 758 
Q 1494 397 1959 397 
Q 2419 397 2687 759 
Q 2956 1122 2956 1747 
Q 2956 2369 2687 2733 
Q 2419 3097 1959 3097 
z
M 1959 3584 
Q 2709 3584 3137 3096 
Q 3566 2609 3566 1747 
Q 3566 888 3137 398 
Q 2709 -91 1959 -91 
Q 1206 -91 779 398 
Q 353 888 353 1747 
Q 353 2609 779 3096 
Q 1206 3584 1959 3584 
z
" transform="scale(0.015625)"/>
       <path id="DejaVuSans-6e" d="M 3513 2113 
L 3513 0 
L 2938 0 
L 2938 2094 
Q 2938 2591 2744 2837 
Q 2550 3084 2163 3084 
Q 1697 3084 1428 2787 
Q 1159 2491 1159 1978 
L 1159 0 
L 581 0 
L 581 3500 
L 1159 3500 
L 1159 2956 
Q 1366 3272 1645 3428 
Q 1925 3584 2291 3584 
Q 2894 3584 3203 3211 
Q 3513 2838 3513 2113 
z
" transform="scale(0.015625)"/>
       <path id="DejaVuSans-20" transform="scale(0.015625)"/>
       <path id="DejaVuSans-62" d="M 3116 1747 
Q 3116 2381 2855 2742 
Q 2594 3103 2138 3103 
Q 1681 3103 1420 2742 
Q 1159 2381 1159 1747 
Q 1159 1113 1420 752 
Q 1681 391 2138 391 
Q 2594 391 2855 752 
Q 3116 1113 3116 1747 
z
M 1159 2969 
Q 1341 3281 1617 3432 
Q 1894 3584 2278 3584 
Q 2916 3584 3314 3078 
Q 3713 2572 3713 1747 
Q 3713 922 3314 415 
Q 2916 -91 2278 -91 
Q 1894 -91 1617 61 
Q 1341 213 1159 525 
L 1159 0 
L 581 0 
L 581 4863 
L 1159 4863 
L 1159 2969 
z
" transform="scale(0.015625)"/>
       <path id="DejaVuSans-65" d="M 3597 1894 
L 3597 1613 
L 953 1613 
Q 991 1019 1311 708 
Q 1631 397 2203 397 
Q 2534 397 2845 478 
Q 3156 559 3463 722 
L 3463 178 
Q 3153 47 2828 -22 
Q 2503 -91 2169 -91 
Q 1331 -91 842 396 
Q 353 884 353 1716 
Q 353 2575 817 3079 
Q 1281 3584 2069 3584 
Q 2775 3584 3186 3129 
Q 3597 2675 3597 1894 
z
M 3022 2063 
Q 3016 2534 2758 2815 
Q 2500 3097 2075 3097 
Q 1594 3097 1305 2825 
Q 1016 2553 972 2059 
L 3022 2063 
z
" transform="scale(0.015625)"/>
       <path id="DejaVuSans-6c" d="M 603 4863 
L 1178 4863 
L 1178 0 
L 603 0 
L 603 4863 
z
" transform="scale(0.015625)"/>
       <path id="DejaVuSans-77" d="M 269 3500 
L 844 3500 
L 1563 769 
L 2278 3500 
L 2956 3500 
L 3675 769 
L 4391 3500 
L 4966 3500 
L 4050 0 
L 3372 0 
L 2619 2869 
L 1863 0 
L 1184 0 
L 269 3500 
z
" transform="scale(0.015625)"/>
       <path id="DejaVuSans-53" d="M 3425 4513 
L 3425 3897 
Q 3066 4069 2747 4153 
Q 2428 4238 2131 4238 
Q 1616 4238 1336 4038 
Q 1056 3838 1056 3469 
Q 1056 3159 1242 3001 
Q 1428 2844 1947 2747 
L 2328 2669 
Q 3034 2534 3370 2195 
Q 3706 1856 3706 1288 
Q 3706 609 3251 259 
Q 2797 -91 1919 -91 
Q 1588 -91 1214 -16 
Q 841 59 441 206 
L 441 856 
Q 825 641 1194 531 
Q 1563 422 1919 422 
Q 2459 422 2753 634 
Q 3047 847 3047 1241 
Q 3047 1584 2836 1778 
Q 2625 1972 2144 2069 
L 1759 2144 
Q 1053 2284 737 2584 
Q 422 2884 422 3419 
Q 422 4038 858 4394 
Q 1294 4750 2059 4750 
Q 2388 4750 2728 4690 
Q 3069 4631 3425 4513 
z
" transform="scale(0.015625)"/>
       <path id="DejaVuSans-51" d="M 2522 4238 
Q 1834 4238 1429 3725 
Q 1025 3213 1025 2328 
Q 1025 1447 1429 934 
Q 1834 422 2522 422 
Q 3209 422 3611 934 
Q 4013 1447 4013 2328 
Q 4013 3213 3611 3725 
Q 3209 4238 2522 4238 
z
M 3406 84 
L 4238 -825 
L 3475 -825 
L 2784 -78 
Q 2681 -84 2626 -87 
Q 2572 -91 2522 -91 
Q 1538 -91 948 567 
Q 359 1225 359 2328 
Q 359 3434 948 4092 
Q 1538 4750 2522 4750 
Q 3503 4750 4090 4092 
Q 4678 3434 4678 2328 
Q 4678 1516 4351 937 
Q 4025 359 3406 84 
z
" transform="scale(0.015625)"/>
       <path id="DejaVuSans-4c" d="M 628 4666 
L 1259 4666 
L 1259 531 
L 3531 531 
L 3531 0 
L 628 0 
L 628 4666 
z
" transform="scale(0.015625)"/>
      </defs>
      <use xlink:href="#DejaVuSans-46"/>
      <use xlink:href="#DejaVuSans-72" transform="translate(50.269531 0)"/>
      <use xlink:href="#DejaVuSans-61" transform="translate(91.382812 0)"/>
      <use xlink:href="#DejaVuSans-63" transform="translate(152.662109 0)"/>
      <use xlink:href="#DejaVuSans-74" transform="translate(207.642578 0)"/>
      <use xlink:href="#DejaVuSans-69" transform="translate(246.851562 0)"/>
      <use xlink:href="#DejaVuSans-6f" transform="translate(274.634766 0)"/>
      <use xlink:href="#DejaVuSans-6e" transform="translate(335.816406 0)"/>
      <use xlink:href="#DejaVuSans-20" transform="translate(399.195312 0)"/>
      <use xlink:href="#DejaVuSans-62" transform="translate(430.982422 0)"/>
      <use xlink:href="#DejaVuSans-65" transform="translate(494.458984 0)"/>
      <use xlink:href="#DejaVuSans-6c" transform="translate(555.982422 0)"/>
      <use xlink:href="#DejaVuSans-6f" transform="translate(583.765625 0)"/>
      <use xlink:href="#DejaVuSans-77" transform="translate(644.947266 0)"/>
      <use xlink:href="#DejaVuSans-20" transform="translate(726.734375 0)"/>
      <use xlink:href="#DejaVuSans-53" transform="translate(758.521484 0)"/>
      <use xlink:href="#DejaVuSans-51" transform="translate(821.998047 0)"/>
      <use xlink:href="#DejaVuSans-4c" transform="translate(900.708984 0)"/>
     </g>
    </g>
   </g>
   <g id="line2d_13">
    <path d="M 72.81446 178.701722 
L 82.205184 172.260149 
L 91.595907 185.845127 
L 100.986631 176.56148 
L 110.377354 176.686559 
L 119.768078 190.215946 
L 129.158802 184.63603 
L 138.549525 184.920932 
L 147.940249 191.167937 
L 157.330972 191.473686 
L 166.721696 189.931044 
L 176.112419 192.217212 
L 185.503143 199.478747 
L 194.893867 189.222263 
L 204.28459 192.877351 
L 213.675314 212.188172 
L 223.066037 187.776904 
L 232.456761 190.056123 
L 241.847484 226.690396 
L 251.238208 186.053592 
L 260.628931 185.455992 
L 270.019655 230.331588 
L 279.410379 185.46989 
L 288.801102 182.572225 
L 298.191826 230.241253 
L 307.582549 186.623397 
L 316.973273 181.210252 
L 326.363996 213.557093 
L 335.75472 188.089602 
L 345.145444 179.473043 
L 354.536167 198.526756 
L 363.926891 191.702998 
L 373.317614 178.486308 
L 382.708338 190.771853 
L 392.099061 197.352403 
L 401.489785 178.437666 
L 410.880508 185.629713 
L 420.271232 208.449697 
L 429.661956 178.208354 
L 439.052679 181.842597 
L 448.443403 233.986676 
L 457.834126 179.299322 
L 467.22485 179.994206 
L 476.615573 245.778854 
L 486.006297 179.445248 
L 495.397021 178.187508 
L 504.787744 238.982891 
L 514.178468 180.452829 
L 523.569191 177.242466 
L 532.959915 209.658795 
" clip-path="url(#pafd7867371)" style="fill: none; stroke: #4c72b0; stroke-width: 1.5; stroke-linecap: round"/>
    <defs>
     <path id="mc9fc7b4db7" d="M 0 3 
C 0.795609 3 1.55874 2.683901 2.12132 2.12132 
C 2.683901 1.55874 3 0.795609 3 0 
C 3 -0.795609 2.683901 -1.55874 2.12132 -2.12132 
C 1.55874 -2.683901 0.795609 -3 0 -3 
C -0.795609 -3 -1.55874 -2.683901 -2.12132 -2.12132 
C -2.683901 -1.55874 -3 -0.795609 -3 0 
C -3 0.795609 -2.683901 1.55874 -2.12132 2.12132 
C -1.55874 2.683901 -0.795609 3 0 3 
z
" style="stroke: #4c72b0"/>
    </defs>
    <g clip-path="url(#pafd7867371)">
     <use xlink:href="#mc9fc7b4db7" x="72.81446" y="178.701722" style="fill: #4c72b0; stroke: #4c72b0"/>
     <use xlink:href="#mc9fc7b4db7" x="82.205184" y="172.260149" style="fill: #4c72b0; stroke: #4c72b0"/>
     <use xlink:href="#mc9fc7b4db7" x="91.595907" y="185.845127" style="fill: #4c72b0; stroke: #4c72b0"/>
     <use xlink:href="#mc9fc7b4db7" x="100.986631" y="176.56148" style="fill: #4c72b0; stroke: #4c72b0"/>
     <use xlink:href="#mc9fc7b4db7" x="110.377354" y="176.686559" style="fill: #4c72b0; stroke: #4c72b0"/>
     <use xlink:href="#mc9fc7b4db7" x="119.768078" y="190.215946" style="fill: #4c72b0; stroke: #4c72b0"/>
     <use xlink:href="#mc9fc7b4db7" x="129.158802" y="184.63603" style="fill: #4c72b0; stroke: #4c72b0"/>
     <use xlink:href="#mc9fc7b4db7" x="138.549525" y="184.920932" style="fill: #4c72b0; stroke: #4c72b0"/>
     <use xlink:href="#mc9fc7b4db7" x="147.940249" y="191.167937" style="fill: #4c72b0; stroke: #4c72b0"/>
     <use xlink:href="#mc9fc7b4db7" x="157.330972" y="191.473686" style="fill: #4c72b0; stroke: #4c72b0"/>
     <use xlink:href="#mc9fc7b4db7" x="166.721696" y="189.931044" style="fill: #4c72b0; stroke: #4c72b0"/>
     <use xlink:href="#mc9fc7b4db7" x="176.112419" y="192.217212" style="fill: #4c72b0; stroke: #4c72b0"/>
     <use xlink:href="#mc9fc7b4db7" x="185.503143" y="199.478747" style="fill: #4c72b0; stroke: #4c72b0"/>
     <use xlink:href="#mc9fc7b4db7" x="194.893867" y="189.222263" style="fill: #4c72b0; stroke: #4c72b0"/>
     <use xlink:href="#mc9fc7b4db7" x="204.28459" y="192.877351" style="fill: #4c72b0; stroke: #4c72b0"/>
     <use xlink:href="#mc9fc7b4db7" x="213.675314" y="212.188172" style="fill: #4c72b0; stroke: #4c72b0"/>
     <use xlink:href="#mc9fc7b4db7" x="223.066037" y="187.776904" style="fill: #4c72b0; stroke: #4c72b0"/>
     <use xlink:href="#mc9fc7b4db7" x="232.456761" y="190.056123" style="fill: #4c72b0; stroke: #4c72b0"/>
     <use xlink:href="#mc9fc7b4db7" x="241.847484" y="226.690396" style="fill: #4c72b0; stroke: #4c72b0"/>
     <use xlink:href="#mc9fc7b4db7" x="251.238208" y="186.053592" style="fill: #4c72b0; stroke: #4c72b0"/>
     <use xlink:href="#mc9fc7b4db7" x="260.628931" y="185.455992" style="fill: #4c72b0; stroke: #4c72b0"/>
     <use xlink:href="#mc9fc7b4db7" x="270.019655" y="230.331588" style="fill: #4c72b0; stroke: #4c72b0"/>
     <use xlink:href="#mc9fc7b4db7" x="279.410379" y="185.46989" style="fill: #4c72b0; stroke: #4c72b0"/>
     <use xlink:href="#mc9fc7b4db7" x="288.801102" y="182.572225" style="fill: #4c72b0; stroke: #4c72b0"/>
     <use xlink:href="#mc9fc7b4db7" x="298.191826" y="230.241253" style="fill: #4c72b0; stroke: #4c72b0"/>
     <use xlink:href="#mc9fc7b4db7" x="307.582549" y="186.623397" style="fill: #4c72b0; stroke: #4c72b0"/>
     <use xlink:href="#mc9fc7b4db7" x="316.973273" y="181.210252" style="fill: #4c72b0; stroke: #4c72b0"/>
     <use xlink:href="#mc9fc7b4db7" x="326.363996" y="213.557093" style="fill: #4c72b0; stroke: #4c72b0"/>
     <use xlink:href="#mc9fc7b4db7" x="335.75472" y="188.089602" style="fill: #4c72b0; stroke: #4c72b0"/>
     <use xlink:href="#mc9fc7b4db7" x="345.145444" y="179.473043" style="fill: #4c72b0; stroke: #4c72b0"/>
     <use xlink:href="#mc9fc7b4db7" x="354.536167" y="198.526756" style="fill: #4c72b0; stroke: #4c72b0"/>
     <use xlink:href="#mc9fc7b4db7" x="363.926891" y="191.702998" style="fill: #4c72b0; stroke: #4c72b0"/>
     <use xlink:href="#mc9fc7b4db7" x="373.317614" y="178.486308" style="fill: #4c72b0; stroke: #4c72b0"/>
     <use xlink:href="#mc9fc7b4db7" x="382.708338" y="190.771853" style="fill: #4c72b0; stroke: #4c72b0"/>
     <use xlink:href="#mc9fc7b4db7" x="392.099061" y="197.352403" style="fill: #4c72b0; stroke: #4c72b0"/>
     <use xlink:href="#mc9fc7b4db7" x="401.489785" y="178.437666" style="fill: #4c72b0; stroke: #4c72b0"/>
     <use xlink:href="#mc9fc7b4db7" x="410.880508" y="185.629713" style="fill: #4c72b0; stroke: #4c72b0"/>
     <use xlink:href="#mc9fc7b4db7" x="420.271232" y="208.449697" style="fill: #4c72b0; stroke: #4c72b0"/>
     <use xlink:href="#mc9fc7b4db7" x="429.661956" y="178.208354" style="fill: #4c72b0; stroke: #4c72b0"/>
     <use xlink:href="#mc9fc7b4db7" x="439.052679" y="181.842597" style="fill: #4c72b0; stroke: #4c72b0"/>
     <use xlink:href="#mc9fc7b4db7" x="448.443403" y="233.986676" style="fill: #4c72b0; stroke: #4c72b0"/>
     <use xlink:href="#mc9fc7b4db7" x="457.834126" y="179.299322" style="fill: #4c72b0; stroke: #4c72b0"/>
     <use xlink:href="#mc9fc7b4db7" x="467.22485" y="179.994206" style="fill: #4c72b0; stroke: #4c72b0"/>
     <use xlink:href="#mc9fc7b4db7" x="476.615573" y="245.778854" style="fill: #4c72b0; stroke: #4c72b0"/>
     <use xlink:href="#mc9fc7b4db7" x="486.006297" y="179.445248" style="fill: #4c72b0; stroke: #4c72b0"/>
     <use xlink:href="#mc9fc7b4db7" x="495.397021" y="178.187508" style="fill: #4c72b0; stroke: #4c72b0"/>
     <use xlink:href="#mc9fc7b4db7" x="504.787744" y="238.982891" style="fill: #4c72b0; stroke: #4c72b0"/>
     <use xlink:href="#mc9fc7b4db7" x="514.178468" y="180.452829" style="fill: #4c72b0; stroke: #4c72b0"/>
     <use xlink:href="#mc9fc7b4db7" x="523.569191" y="177.242466" style="fill: #4c72b0; stroke: #4c72b0"/>
     <use xlink:href="#mc9fc7b4db7" x="532.959915" y="209.658795" style="fill: #4c72b0; stroke: #4c72b0"/>
    </g>
   </g>
   <g id="line2d_14">
    <path d="M 72.81446 178.701722 
L 82.205184 172.260149 
L 91.595907 185.852076 
L 100.986631 176.547582 
L 110.377354 176.686559 
L 119.768078 190.229844 
L 129.158802 184.63603 
L 138.549525 184.900085 
L 147.940249 191.188784 
L 157.330972 191.383351 
L 166.721696 189.937993 
L 176.112419 192.182467 
L 185.503143 199.416208 
L 194.893867 189.229211 
L 204.28459 192.828709 
L 213.675314 212.160376 
L 223.066037 187.776904 
L 232.456761 190.070021 
L 241.847484 226.662601 
L 251.238208 186.018848 
L 260.628931 185.455992 
L 270.019655 230.359383 
L 279.410379 185.46989 
L 288.801102 182.627815 
L 298.191826 230.164815 
L 307.582549 186.678988 
L 316.973273 181.314485 
L 326.363996 213.550144 
L 335.75472 188.034011 
L 345.145444 179.521685 
L 354.536167 198.478115 
L 363.926891 191.814179 
L 373.317614 178.576643 
L 382.708338 190.806598 
L 392.099061 197.442738 
L 401.489785 178.444615 
L 410.880508 185.58802 
L 420.271232 208.366311 
L 429.661956 178.187508 
L 439.052679 181.891239 
L 448.443403 233.993625 
L 457.834126 179.424401 
L 467.22485 180.035899 
L 476.615573 245.841394 
L 486.006297 179.473043 
L 495.397021 178.270894 
L 504.787744 239.087123 
L 514.178468 180.557062 
L 523.569191 177.193824 
L 532.959915 209.596255 
" clip-path="url(#pafd7867371)" style="fill: none; stroke: #dd8452; stroke-width: 1.5; stroke-linecap: round"/>
    <defs>
     <path id="m08119b47a1" d="M -3 3 
L 3 3 
L 3 -3 
L -3 -3 
z
" style="stroke: #dd8452; stroke-linejoin: miter"/>
    </defs>
    <g clip-path="url(#pafd7867371)">
     <use xlink:href="#m08119b47a1" x="72.81446" y="178.701722" style="fill: #dd8452; stroke: #dd8452; stroke-linejoin: miter"/>
     <use xlink:href="#m08119b47a1" x="82.205184" y="172.260149" style="fill: #dd8452; stroke: #dd8452; stroke-linejoin: miter"/>
     <use xlink:href="#m08119b47a1" x="91.595907" y="185.852076" style="fill: #dd8452; stroke: #dd8452; stroke-linejoin: miter"/>
     <use xlink:href="#m08119b47a1" x="100.986631" y="176.547582" style="fill: #dd8452; stroke: #dd8452; stroke-linejoin: miter"/>
     <use xlink:href="#m08119b47a1" x="110.377354" y="176.686559" style="fill: #dd8452; stroke: #dd8452; stroke-linejoin: miter"/>
     <use xlink:href="#m08119b47a1" x="119.768078" y="190.229844" style="fill: #dd8452; stroke: #dd8452; stroke-linejoin: miter"/>
     <use xlink:href="#m08119b47a1" x="129.158802" y="184.63603" style="fill: #dd8452; stroke: #dd8452; stroke-linejoin: miter"/>
     <use xlink:href="#m08119b47a1" x="138.549525" y="184.900085" style="fill: #dd8452; stroke: #dd8452; stroke-linejoin: miter"/>
     <use xlink:href="#m08119b47a1" x="147.940249" y="191.188784" style="fill: #dd8452; stroke: #dd8452; stroke-linejoin: miter"/>
     <use xlink:href="#m08119b47a1" x="157.330972" y="191.383351" style="fill: #dd8452; stroke: #dd8452; stroke-linejoin: miter"/>
     <use xlink:href="#m08119b47a1" x="166.721696" y="189.937993" style="fill: #dd8452; stroke: #dd8452; stroke-linejoin: miter"/>
     <use xlink:href="#m08119b47a1" x="176.112419" y="192.182467" style="fill: #dd8452; stroke: #dd8452; stroke-linejoin: miter"/>
     <use xlink:href="#m08119b47a1" x="185.503143" y="199.416208" style="fill: #dd8452; stroke: #dd8452; stroke-linejoin: miter"/>
     <use xlink:href="#m08119b47a1" x="194.893867" y="189.229211" style="fill: #dd8452; stroke: #dd8452; stroke-linejoin: miter"/>
     <use xlink:href="#m08119b47a1" x="204.28459" y="192.828709" style="fill: #dd8452; stroke: #dd8452; stroke-linejoin: miter"/>
     <use xlink:href="#m08119b47a1" x="213.675314" y="212.160376" style="fill: #dd8452; stroke: #dd8452; stroke-linejoin: miter"/>
     <use xlink:href="#m08119b47a1" x="223.066037" y="187.776904" style="fill: #dd8452; stroke: #dd8452; stroke-linejoin: miter"/>
     <use xlink:href="#m08119b47a1" x="232.456761" y="190.070021" style="fill: #dd8452; stroke: #dd8452; stroke-linejoin: miter"/>
     <use xlink:href="#m08119b47a1" x="241.847484" y="226.662601" style="fill: #dd8452; stroke: #dd8452; stroke-linejoin: miter"/>
     <use xlink:href="#m08119b47a1" x="251.238208" y="186.018848" style="fill: #dd8452; stroke: #dd8452; stroke-linejoin: miter"/>
     <use xlink:href="#m08119b47a1" x="260.628931" y="185.455992" style="fill: #dd8452; stroke: #dd8452; stroke-linejoin: miter"/>
     <use xlink:href="#m08119b47a1" x="270.019655" y="230.359383" style="fill: #dd8452; stroke: #dd8452; stroke-linejoin: miter"/>
     <use xlink:href="#m08119b47a1" x="279.410379" y="185.46989" style="fill: #dd8452; stroke: #dd8452; stroke-linejoin: miter"/>
     <use xlink:href="#m08119b47a1" x="288.801102" y="182.627815" style="fill: #dd8452; stroke: #dd8452; stroke-linejoin: miter"/>
     <use xlink:href="#m08119b47a1" x="298.191826" y="230.164815" style="fill: #dd8452; stroke: #dd8452; stroke-linejoin: miter"/>
     <use xlink:href="#m08119b47a1" x="307.582549" y="186.678988" style="fill: #dd8452; stroke: #dd8452; stroke-linejoin: miter"/>
     <use xlink:href="#m08119b47a1" x="316.973273" y="181.314485" style="fill: #dd8452; stroke: #dd8452; stroke-linejoin: miter"/>
     <use xlink:href="#m08119b47a1" x="326.363996" y="213.550144" style="fill: #dd8452; stroke: #dd8452; stroke-linejoin: miter"/>
     <use xlink:href="#m08119b47a1" x="335.75472" y="188.034011" style="fill: #dd8452; stroke: #dd8452; stroke-linejoin: miter"/>
     <use xlink:href="#m08119b47a1" x="345.145444" y="179.521685" style="fill: #dd8452; stroke: #dd8452; stroke-linejoin: miter"/>
     <use xlink:href="#m08119b47a1" x="354.536167" y="198.478115" style="fill: #dd8452; stroke: #dd8452; stroke-linejoin: miter"/>
     <use xlink:href="#m08119b47a1" x="363.926891" y="191.814179" style="fill: #dd8452; stroke: #dd8452; stroke-linejoin: miter"/>
     <use xlink:href="#m08119b47a1" x="373.317614" y="178.576643" style="fill: #dd8452; stroke: #dd8452; stroke-linejoin: miter"/>
     <use xlink:href="#m08119b47a1" x="382.708338" y="190.806598" style="fill: #dd8452; stroke: #dd8452; stroke-linejoin: miter"/>
     <use xlink:href="#m08119b47a1" x="392.099061" y="197.442738" style="fill: #dd8452; stroke: #dd8452; stroke-linejoin: miter"/>
     <use xlink:href="#m08119b47a1" x="401.489785" y="178.444615" style="fill: #dd8452; stroke: #dd8452; stroke-linejoin: miter"/>
     <use xlink:href="#m08119b47a1" x="410.880508" y="185.58802" style="fill: #dd8452; stroke: #dd8452; stroke-linejoin: miter"/>
     <use xlink:href="#m08119b47a1" x="420.271232" y="208.366311" style="fill: #dd8452; stroke: #dd8452; stroke-linejoin: miter"/>
     <use xlink:href="#m08119b47a1" x="429.661956" y="178.187508" style="fill: #dd8452; stroke: #dd8452; stroke-linejoin: miter"/>
     <use xlink:href="#m08119b47a1" x="439.052679" y="181.891239" style="fill: #dd8452; stroke: #dd8452; stroke-linejoin: miter"/>
     <use xlink:href="#m08119b47a1" x="448.443403" y="233.993625" style="fill: #dd8452; stroke: #dd8452; stroke-linejoin: miter"/>
     <use xlink:href="#m08119b47a1" x="457.834126" y="179.424401" style="fill: #dd8452; stroke: #dd8452; stroke-linejoin: miter"/>
     <use xlink:href="#m08119b47a1" x="467.22485" y="180.035899" style="fill: #dd8452; stroke: #dd8452; stroke-linejoin: miter"/>
     <use xlink:href="#m08119b47a1" x="476.615573" y="245.841394" style="fill: #dd8452; stroke: #dd8452; stroke-linejoin: miter"/>
     <use xlink:href="#m08119b47a1" x="486.006297" y="179.473043" style="fill: #dd8452; stroke: #dd8452; stroke-linejoin: miter"/>
     <use xlink:href="#m08119b47a1" x="495.397021" y="178.270894" style="fill: #dd8452; stroke: #dd8452; stroke-linejoin: miter"/>
     <use xlink:href="#m08119b47a1" x="504.787744" y="239.087123" style="fill: #dd8452; stroke: #dd8452; stroke-linejoin: miter"/>
     <use xlink:href="#m08119b47a1" x="514.178468" y="180.557062" style="fill: #dd8452; stroke: #dd8452; stroke-linejoin: miter"/>
     <use xlink:href="#m08119b47a1" x="523.569191" y="177.193824" style="fill: #dd8452; stroke: #dd8452; stroke-linejoin: miter"/>
     <use xlink:href="#m08119b47a1" x="532.959915" y="209.596255" style="fill: #dd8452; stroke: #dd8452; stroke-linejoin: miter"/>
    </g>
   </g>
   <g id="line2d_15">
    <path d="M 72.81446 161.565165 
L 82.205184 143.597805 
L 91.595907 182.339925 
L 100.986631 176.725125 
L 110.377354 171.671805 
L 119.768078 232.311645 
L 129.158802 203.114685 
L 138.549525 192.446565 
L 147.940249 245.225685 
L 157.330972 237.364965 
L 166.721696 206.483565 
L 176.112419 252.524925 
L 185.503143 259.824165 
L 194.893867 226.696845 
L 204.28459 248.033085 
L 213.675314 276.668565 
L 223.066037 242.979765 
L 232.456761 255.332325 
L 241.847484 292.390005 
L 251.238208 242.979765 
L 260.628931 241.856805 
L 270.019655 299.689245 
L 279.410379 246.910125 
L 288.801102 254.209365 
L 298.191826 298.566285 
L 307.582549 253.086405 
L 316.973273 248.594565 
L 326.363996 292.390005 
L 335.75472 271.615245 
L 345.145444 253.647885 
L 354.536167 291.828525 
L 363.926891 281.721885 
L 373.317614 262.631565 
L 382.708338 276.107085 
L 392.099061 283.967805 
L 401.489785 251.401965 
L 410.880508 276.107085 
L 420.271232 287.336685 
L 429.661956 264.877485 
L 439.052679 273.861165 
L 448.443403 297.443325 
L 457.834126 262.070085 
L 467.22485 267.684885 
L 476.615573 301.935165 
L 486.006297 267.123405 
L 495.397021 266.000445 
L 504.787744 301.373685 
L 514.178468 276.107085 
L 523.569191 266.561925 
L 532.959915 292.951485 
" clip-path="url(#pafd7867371)" style="fill: none; stroke: #55a868; stroke-width: 1.5; stroke-linecap: round"/>
    <defs>
     <path id="m2b1270c7c7" d="M 0 -3 
L -3 3 
L 3 3 
z
" style="stroke: #55a868; stroke-linejoin: miter"/>
    </defs>
    <g clip-path="url(#pafd7867371)">
     <use xlink:href="#m2b1270c7c7" x="72.81446" y="161.565165" style="fill: #55a868; stroke: #55a868; stroke-linejoin: miter"/>
     <use xlink:href="#m2b1270c7c7" x="82.205184" y="143.597805" style="fill: #55a868; stroke: #55a868; stroke-linejoin: miter"/>
     <use xlink:href="#m2b1270c7c7" x="91.595907" y="182.339925" style="fill: #55a868; stroke: #55a868; stroke-linejoin: miter"/>
     <use xlink:href="#m2b1270c7c7" x="100.986631" y="176.725125" style="fill: #55a868; stroke: #55a868; stroke-linejoin: miter"/>
     <use xlink:href="#m2b1270c7c7" x="110.377354" y="171.671805" style="fill: #55a868; stroke: #55a868; stroke-linejoin: miter"/>
     <use xlink:href="#m2b1270c7c7" x="119.768078" y="232.311645" style="fill: #55a868; stroke: #55a868; stroke-linejoin: miter"/>
     <use xlink:href="#m2b1270c7c7" x="129.158802" y="203.114685" style="fill: #55a868; stroke: #55a868; stroke-linejoin: miter"/>
     <use xlink:href="#m2b1270c7c7" x="138.549525" y="192.446565" style="fill: #55a868; stroke: #55a868; stroke-linejoin: miter"/>
     <use xlink:href="#m2b1270c7c7" x="147.940249" y="245.225685" style="fill: #55a868; stroke: #55a868; stroke-linejoin: miter"/>
     <use xlink:href="#m2b1270c7c7" x="157.330972" y="237.364965" style="fill: #55a868; stroke: #55a868; stroke-linejoin: miter"/>
     <use xlink:href="#m2b1270c7c7" x="166.721696" y="206.483565" style="fill: #55a868; stroke: #55a868; stroke-linejoin: miter"/>
     <use xlink:href="#m2b1270c7c7" x="176.112419" y="252.524925" style="fill: #55a868; stroke: #55a868; stroke-linejoin: miter"/>
     <use xlink:href="#m2b1270c7c7" x="185.503143" y="259.824165" style="fill: #55a868; stroke: #55a868; stroke-linejoin: miter"/>
     <use xlink:href="#m2b1270c7c7" x="194.893867" y="226.696845" style="fill: #55a868; stroke: #55a868; stroke-linejoin: miter"/>
     <use xlink:href="#m2b1270c7c7" x="204.28459" y="248.033085" style="fill: #55a868; stroke: #55a868; stroke-linejoin: miter"/>
     <use xlink:href="#m2b1270c7c7" x="213.675314" y="276.668565" style="fill: #55a868; stroke: #55a868; stroke-linejoin: miter"/>
     <use xlink:href="#m2b1270c7c7" x="223.066037" y="242.979765" style="fill: #55a868; stroke: #55a868; stroke-linejoin: miter"/>
     <use xlink:href="#m2b1270c7c7" x="232.456761" y="255.332325" style="fill: #55a868; stroke: #55a868; stroke-linejoin: miter"/>
     <use xlink:href="#m2b1270c7c7" x="241.847484" y="292.390005" style="fill: #55a868; stroke: #55a868; stroke-linejoin: miter"/>
     <use xlink:href="#m2b1270c7c7" x="251.238208" y="242.979765" style="fill: #55a868; stroke: #55a868; stroke-linejoin: miter"/>
     <use xlink:href="#m2b1270c7c7" x="260.628931" y="241.856805" style="fill: #55a868; stroke: #55a868; stroke-linejoin: miter"/>
     <use xlink:href="#m2b1270c7c7" x="270.019655" y="299.689245" style="fill: #55a868; stroke: #55a868; stroke-linejoin: miter"/>
     <use xlink:href="#m2b1270c7c7" x="279.410379" y="246.910125" style="fill: #55a868; stroke: #55a868; stroke-linejoin: miter"/>
     <use xlink:href="#m2b1270c7c7" x="288.801102" y="254.209365" style="fill: #55a868; stroke: #55a868; stroke-linejoin: miter"/>
     <use xlink:href="#m2b1270c7c7" x="298.191826" y="298.566285" style="fill: #55a868; stroke: #55a868; stroke-linejoin: miter"/>
     <use xlink:href="#m2b1270c7c7" x="307.582549" y="253.086405" style="fill: #55a868; stroke: #55a868; stroke-linejoin: miter"/>
     <use xlink:href="#m2b1270c7c7" x="316.973273" y="248.594565" style="fill: #55a868; stroke: #55a868; stroke-linejoin: miter"/>
     <use xlink:href="#m2b1270c7c7" x="326.363996" y="292.390005" style="fill: #55a868; stroke: #55a868; stroke-linejoin: miter"/>
     <use xlink:href="#m2b1270c7c7" x="335.75472" y="271.615245" style="fill: #55a868; stroke: #55a868; stroke-linejoin: miter"/>
     <use xlink:href="#m2b1270c7c7" x="345.145444" y="253.647885" style="fill: #55a868; stroke: #55a868; stroke-linejoin: miter"/>
     <use xlink:href="#m2b1270c7c7" x="354.536167" y="291.828525" style="fill: #55a868; stroke: #55a868; stroke-linejoin: miter"/>
     <use xlink:href="#m2b1270c7c7" x="363.926891" y="281.721885" style="fill: #55a868; stroke: #55a868; stroke-linejoin: miter"/>
     <use xlink:href="#m2b1270c7c7" x="373.317614" y="262.631565" style="fill: #55a868; stroke: #55a868; stroke-linejoin: miter"/>
     <use xlink:href="#m2b1270c7c7" x="382.708338" y="276.107085" style="fill: #55a868; stroke: #55a868; stroke-linejoin: miter"/>
     <use xlink:href="#m2b1270c7c7" x="392.099061" y="283.967805" style="fill: #55a868; stroke: #55a868; stroke-linejoin: miter"/>
     <use xlink:href="#m2b1270c7c7" x="401.489785" y="251.401965" style="fill: #55a868; stroke: #55a868; stroke-linejoin: miter"/>
     <use xlink:href="#m2b1270c7c7" x="410.880508" y="276.107085" style="fill: #55a868; stroke: #55a868; stroke-linejoin: miter"/>
     <use xlink:href="#m2b1270c7c7" x="420.271232" y="287.336685" style="fill: #55a868; stroke: #55a868; stroke-linejoin: miter"/>
     <use xlink:href="#m2b1270c7c7" x="429.661956" y="264.877485" style="fill: #55a868; stroke: #55a868; stroke-linejoin: miter"/>
     <use xlink:href="#m2b1270c7c7" x="439.052679" y="273.861165" style="fill: #55a868; stroke: #55a868; stroke-linejoin: miter"/>
     <use xlink:href="#m2b1270c7c7" x="448.443403" y="297.443325" style="fill: #55a868; stroke: #55a868; stroke-linejoin: miter"/>
     <use xlink:href="#m2b1270c7c7" x="457.834126" y="262.070085" style="fill: #55a868; stroke: #55a868; stroke-linejoin: miter"/>
     <use xlink:href="#m2b1270c7c7" x="467.22485" y="267.684885" style="fill: #55a868; stroke: #55a868; stroke-linejoin: miter"/>
     <use xlink:href="#m2b1270c7c7" x="476.615573" y="301.935165" style="fill: #55a868; stroke: #55a868; stroke-linejoin: miter"/>
     <use xlink:href="#m2b1270c7c7" x="486.006297" y="267.123405" style="fill: #55a868; stroke: #55a868; stroke-linejoin: miter"/>
     <use xlink:href="#m2b1270c7c7" x="495.397021" y="266.000445" style="fill: #55a868; stroke: #55a868; stroke-linejoin: miter"/>
     <use xlink:href="#m2b1270c7c7" x="504.787744" y="301.373685" style="fill: #55a868; stroke: #55a868; stroke-linejoin: miter"/>
     <use xlink:href="#m2b1270c7c7" x="514.178468" y="276.107085" style="fill: #55a868; stroke: #55a868; stroke-linejoin: miter"/>
     <use xlink:href="#m2b1270c7c7" x="523.569191" y="266.561925" style="fill: #55a868; stroke: #55a868; stroke-linejoin: miter"/>
     <use xlink:href="#m2b1270c7c7" x="532.959915" y="292.951485" style="fill: #55a868; stroke: #55a868; stroke-linejoin: miter"/>
    </g>
   </g>
   <g id="line2d_16">
    <path d="M 49.807188 303.058125 
L 555.967187 303.058125 
" clip-path="url(#pafd7867371)" style="fill: none; stroke-dasharray: 3.7,1.6; stroke-dashoffset: 0; stroke: #808080; stroke-opacity: 0.5"/>
   </g>
   <g id="line2d_17">
    <path d="M 49.807188 22.318125 
L 555.967187 22.318125 
" clip-path="url(#pafd7867371)" style="fill: none; stroke-dasharray: 3.7,1.6; stroke-dashoffset: 0; stroke: #808080; stroke-opacity: 0.5"/>
   </g>
   <g id="patch_3">
    <path d="M 49.807188 303.058125 
L 49.807188 22.318125 
" style="fill: none; stroke: #cccccc; stroke-width: 1.25; stroke-linejoin: miter; stroke-linecap: square"/>
   </g>
   <g id="patch_4">
    <path d="M 555.967187 303.058125 
L 555.967187 22.318125 
" style="fill: none; stroke: #cccccc; stroke-width: 1.25; stroke-linejoin: miter; stroke-linecap: square"/>
   </g>
   <g id="patch_5">
    <path d="M 49.807188 303.058125 
L 555.967187 303.058125 
" style="fill: none; stroke: #cccccc; stroke-width: 1.25; stroke-linejoin: miter; stroke-linecap: square"/>
   </g>
   <g id="patch_6">
    <path d="M 49.807188 22.318125 
L 555.967187 22.318125 
" style="fill: none; stroke: #cccccc; stroke-width: 1.25; stroke-linejoin: miter; stroke-linecap: square"/>
   </g>
   <g id="text_15">
    <!-- Robustness of SQL violation: fraction of parameter space below SQL -->
    <g style="fill: #262626" transform="translate(98.183125 16.318125) scale(0.12 -0.12)">
     <defs>
      <path id="DejaVuSans-52" d="M 2841 2188 
Q 3044 2119 3236 1894 
Q 3428 1669 3622 1275 
L 4263 0 
L 3584 0 
L 2988 1197 
Q 2756 1666 2539 1819 
Q 2322 1972 1947 1972 
L 1259 1972 
L 1259 0 
L 628 0 
L 628 4666 
L 2053 4666 
Q 2853 4666 3247 4331 
Q 3641 3997 3641 3322 
Q 3641 2881 3436 2590 
Q 3231 2300 2841 2188 
z
M 1259 4147 
L 1259 2491 
L 2053 2491 
Q 2509 2491 2742 2702 
Q 2975 2913 2975 3322 
Q 2975 3731 2742 3939 
Q 2509 4147 2053 4147 
L 1259 4147 
z
" transform="scale(0.015625)"/>
      <path id="DejaVuSans-75" d="M 544 1381 
L 544 3500 
L 1119 3500 
L 1119 1403 
Q 1119 906 1312 657 
Q 1506 409 1894 409 
Q 2359 409 2629 706 
Q 2900 1003 2900 1516 
L 2900 3500 
L 3475 3500 
L 3475 0 
L 2900 0 
L 2900 538 
Q 2691 219 2414 64 
Q 2138 -91 1772 -91 
Q 1169 -91 856 284 
Q 544 659 544 1381 
z
M 1991 3584 
L 1991 3584 
z
" transform="scale(0.015625)"/>
      <path id="DejaVuSans-73" d="M 2834 3397 
L 2834 2853 
Q 2591 2978 2328 3040 
Q 2066 3103 1784 3103 
Q 1356 3103 1142 2972 
Q 928 2841 928 2578 
Q 928 2378 1081 2264 
Q 1234 2150 1697 2047 
L 1894 2003 
Q 2506 1872 2764 1633 
Q 3022 1394 3022 966 
Q 3022 478 2636 193 
Q 2250 -91 1575 -91 
Q 1294 -91 989 -36 
Q 684 19 347 128 
L 347 722 
Q 666 556 975 473 
Q 1284 391 1588 391 
Q 1994 391 2212 530 
Q 2431 669 2431 922 
Q 2431 1156 2273 1281 
Q 2116 1406 1581 1522 
L 1381 1569 
Q 847 1681 609 1914 
Q 372 2147 372 2553 
Q 372 3047 722 3315 
Q 1072 3584 1716 3584 
Q 2034 3584 2315 3537 
Q 2597 3491 2834 3397 
z
" transform="scale(0.015625)"/>
      <path id="DejaVuSans-66" d="M 2375 4863 
L 2375 4384 
L 1825 4384 
Q 1516 4384 1395 4259 
Q 1275 4134 1275 3809 
L 1275 3500 
L 2222 3500 
L 2222 3053 
L 1275 3053 
L 1275 0 
L 697 0 
L 697 3053 
L 147 3053 
L 147 3500 
L 697 3500 
L 697 3744 
Q 697 4328 969 4595 
Q 1241 4863 1831 4863 
L 2375 4863 
z
" transform="scale(0.015625)"/>
      <path id="DejaVuSans-76" d="M 191 3500 
L 800 3500 
L 1894 563 
L 2988 3500 
L 3597 3500 
L 2284 0 
L 1503 0 
L 191 3500 
z
" transform="scale(0.015625)"/>
      <path id="DejaVuSans-3a" d="M 750 794 
L 1409 794 
L 1409 0 
L 750 0 
L 750 794 
z
M 750 3309 
L 1409 3309 
L 1409 2516 
L 750 2516 
L 750 3309 
z
" transform="scale(0.015625)"/>
      <path id="DejaVuSans-70" d="M 1159 525 
L 1159 -1331 
L 581 -1331 
L 581 3500 
L 1159 3500 
L 1159 2969 
Q 1341 3281 1617 3432 
Q 1894 3584 2278 3584 
Q 2916 3584 3314 3078 
Q 3713 2572 3713 1747 
Q 3713 922 3314 415 
Q 2916 -91 2278 -91 
Q 1894 -91 1617 61 
Q 1341 213 1159 525 
z
M 3116 1747 
Q 3116 2381 2855 2742 
Q 2594 3103 2138 3103 
Q 1681 3103 1420 2742 
Q 1159 2381 1159 1747 
Q 1159 1113 1420 752 
Q 1681 391 2138 391 
Q 2594 391 2855 752 
Q 3116 1113 3116 1747 
z
" transform="scale(0.015625)"/>
      <path id="DejaVuSans-6d" d="M 3328 2828 
Q 3544 3216 3844 3400 
Q 4144 3584 4550 3584 
Q 5097 3584 5394 3201 
Q 5691 2819 5691 2113 
L 5691 0 
L 5113 0 
L 5113 2094 
Q 5113 2597 4934 2840 
Q 4756 3084 4391 3084 
Q 3944 3084 3684 2787 
Q 3425 2491 3425 1978 
L 3425 0 
L 2847 0 
L 2847 2094 
Q 2847 2600 2669 2842 
Q 2491 3084 2119 3084 
Q 1678 3084 1418 2786 
Q 1159 2488 1159 1978 
L 1159 0 
L 581 0 
L 581 3500 
L 1159 3500 
L 1159 2956 
Q 1356 3278 1631 3431 
Q 1906 3584 2284 3584 
Q 2666 3584 2933 3390 
Q 3200 3197 3328 2828 
z
" transform="scale(0.015625)"/>
     </defs>
     <use xlink:href="#DejaVuSans-52"/>
     <use xlink:href="#DejaVuSans-6f" transform="translate(64.982422 0)"/>
     <use xlink:href="#DejaVuSans-62" transform="translate(126.164062 0)"/>
     <use xlink:href="#DejaVuSans-75" transform="translate(189.640625 0)"/>
     <use xlink:href="#DejaVuSans-73" transform="translate(253.019531 0)"/>
     <use xlink:href="#DejaVuSans-74" transform="translate(305.119141 0)"/>
     <use xlink:href="#DejaVuSans-6e" transform="translate(344.328125 0)"/>
     <use xlink:href="#DejaVuSans-65" transform="translate(407.707031 0)"/>
     <use xlink:href="#DejaVuSans-73" transform="translate(469.230469 0)"/>
     <use xlink:href="#DejaVuSans-73" transform="translate(521.330078 0)"/>
     <use xlink:href="#DejaVuSans-20" transform="translate(573.429688 0)"/>
     <use xlink:href="#DejaVuSans-6f" transform="translate(605.216797 0)"/>
     <use xlink:href="#DejaVuSans-66" transform="translate(666.398438 0)"/>
     <use xlink:href="#DejaVuSans-20" transform="translate(701.603516 0)"/>
     <use xlink:href="#DejaVuSans-53" transform="translate(733.390625 0)"/>
     <use xlink:href="#DejaVuSans-51" transform="translate(796.867188 0)"/>
     <use xlink:href="#DejaVuSans-4c" transform="translate(875.578125 0)"/>
     <use xlink:href="#DejaVuSans-20" transform="translate(931.291016 0)"/>
     <use xlink:href="#DejaVuSans-76" transform="translate(963.078125 0)"/>
     <use xlink:href="#DejaVuSans-69" transform="translate(1022.257812 0)"/>
     <use xlink:href="#DejaVuSans-6f" transform="translate(1050.041016 0)"/>
     <use xlink:href="#DejaVuSans-6c" transform="translate(1111.222656 0)"/>
     <use xlink:href="#DejaVuSans-61" transform="translate(1139.005859 0)"/>
     <use xlink:href="#DejaVuSans-74" transform="translate(1200.285156 0)"/>
     <use xlink:href="#DejaVuSans-69" transform="translate(1239.494141 0)"/>
     <use xlink:href="#DejaVuSans-6f" transform="translate(1267.277344 0)"/>
     <use xlink:href="#DejaVuSans-6e" transform="translate(1328.458984 0)"/>
     <use xlink:href="#DejaVuSans-3a" transform="translate(1391.837891 0)"/>
     <use xlink:href="#DejaVuSans-20" transform="translate(1425.529297 0)"/>
     <use xlink:href="#DejaVuSans-66" transform="translate(1457.316406 0)"/>
     <use xlink:href="#DejaVuSans-72" transform="translate(1492.521484 0)"/>
     <use xlink:href="#DejaVuSans-61" transform="translate(1533.634766 0)"/>
     <use xlink:href="#DejaVuSans-63" transform="translate(1594.914062 0)"/>
     <use xlink:href="#DejaVuSans-74" transform="translate(1649.894531 0)"/>
     <use xlink:href="#DejaVuSans-69" transform="translate(1689.103516 0)"/>
     <use xlink:href="#DejaVuSans-6f" transform="translate(1716.886719 0)"/>
     <use xlink:href="#DejaVuSans-6e" transform="translate(1778.068359 0)"/>
     <use xlink:href="#DejaVuSans-20" transform="translate(1841.447266 0)"/>
     <use xlink:href="#DejaVuSans-6f" transform="translate(1873.234375 0)"/>
     <use xlink:href="#DejaVuSans-66" transform="translate(1934.416016 0)"/>
     <use xlink:href="#DejaVuSans-20" transform="translate(1969.621094 0)"/>
     <use xlink:href="#DejaVuSans-70" transform="translate(2001.408203 0)"/>
     <use xlink:href="#DejaVuSans-61" transform="translate(2064.884766 0)"/>
     <use xlink:href="#DejaVuSans-72" transform="translate(2126.164062 0)"/>
     <use xlink:href="#DejaVuSans-61" transform="translate(2167.277344 0)"/>
     <use xlink:href="#DejaVuSans-6d" transform="translate(2228.556641 0)"/>
     <use xlink:href="#DejaVuSans-65" transform="translate(2325.96875 0)"/>
     <use xlink:href="#DejaVuSans-74" transform="translate(2387.492188 0)"/>
     <use xlink:href="#DejaVuSans-65" transform="translate(2426.701172 0)"/>
     <use xlink:href="#DejaVuSans-72" transform="translate(2488.224609 0)"/>
     <use xlink:href="#DejaVuSans-20" transform="translate(2529.337891 0)"/>
     <use xlink:href="#DejaVuSans-73" transform="translate(2561.125 0)"/>
     <use xlink:href="#DejaVuSans-70" transform="translate(2613.224609 0)"/>
     <use xlink:href="#DejaVuSans-61" transform="translate(2676.701172 0)"/>
     <use xlink:href="#DejaVuSans-63" transform="translate(2737.980469 0)"/>
     <use xlink:href="#DejaVuSans-65" transform="translate(2792.960938 0)"/>
     <use xlink:href="#DejaVuSans-20" transform="translate(2854.484375 0)"/>
     <use xlink:href="#DejaVuSans-62" transform="translate(2886.271484 0)"/>
     <use xlink:href="#DejaVuSans-65" transform="translate(2949.748047 0)"/>
     <use xlink:href="#DejaVuSans-6c" transform="translate(3011.271484 0)"/>
     <use xlink:href="#DejaVuSans-6f" transform="translate(3039.054688 0)"/>
     <use xlink:href="#DejaVuSans-77" transform="translate(3100.236328 0)"/>
     <use xlink:href="#DejaVuSans-20" transform="translate(3182.023438 0)"/>
     <use xlink:href="#DejaVuSans-53" transform="translate(3213.810547 0)"/>
     <use xlink:href="#DejaVuSans-51" transform="translate(3277.287109 0)"/>
     <use xlink:href="#DejaVuSans-4c" transform="translate(3355.998047 0)"/>
    </g>
   </g>
   <g id="legend_1">
    <g id="patch_7">
     <path d="M 411.41 80.68 
L 548.267187 80.68 
Q 550.467187 80.68 550.467187 78.48 
L 550.467187 30.018125 
Q 550.467187 27.818125 548.267187 27.818125 
L 411.41 27.818125 
Q 409.21 27.818125 409.21 30.018125 
L 409.21 78.48 
Q 409.21 80.68 411.41 80.68 
z
" style="fill: #ffffff; opacity: 0.8; stroke: #cccccc; stroke-linejoin: miter"/>
    </g>
    <g id="line2d_18">
     <path d="M 413.61 36.726406 
L 424.61 36.726406 
L 435.61 36.726406 
" style="fill: none; stroke: #4c72b0; stroke-width: 1.5; stroke-linecap: round"/>
     <g>
      <use xlink:href="#mc9fc7b4db7" x="424.61" y="36.726406" style="fill: #4c72b0; stroke: #4c72b0"/>
     </g>
    </g>
    <g id="text_16">
     <!-- 2D slice $(a_x, a_{zz})$ -->
     <g style="fill: #262626" transform="translate(444.41 40.576406) scale(0.11 -0.11)">
      <defs>
       <path id="DejaVuSans-44" d="M 1259 4147 
L 1259 519 
L 2022 519 
Q 2988 519 3436 956 
Q 3884 1394 3884 2338 
Q 3884 3275 3436 3711 
Q 2988 4147 2022 4147 
L 1259 4147 
z
M 628 4666 
L 1925 4666 
Q 3281 4666 3915 4102 
Q 4550 3538 4550 2338 
Q 4550 1131 3912 565 
Q 3275 0 1925 0 
L 628 0 
L 628 4666 
z
" transform="scale(0.015625)"/>
       <path id="DejaVuSans-28" d="M 1984 4856 
Q 1566 4138 1362 3434 
Q 1159 2731 1159 2009 
Q 1159 1288 1364 580 
Q 1569 -128 1984 -844 
L 1484 -844 
Q 1016 -109 783 600 
Q 550 1309 550 2009 
Q 550 2706 781 3412 
Q 1013 4119 1484 4856 
L 1984 4856 
z
" transform="scale(0.015625)"/>
       <path id="DejaVuSans-Oblique-61" d="M 3438 1997 
L 3047 0 
L 2472 0 
L 2578 531 
Q 2325 219 2001 64 
Q 1678 -91 1281 -91 
Q 834 -91 548 182 
Q 263 456 263 884 
Q 263 1497 752 1853 
Q 1241 2209 2100 2209 
L 2900 2209 
L 2931 2363 
Q 2938 2388 2941 2417 
Q 2944 2447 2944 2509 
Q 2944 2788 2717 2942 
Q 2491 3097 2081 3097 
Q 1800 3097 1504 3025 
Q 1209 2953 897 2809 
L 997 3341 
Q 1322 3463 1633 3523 
Q 1944 3584 2234 3584 
Q 2853 3584 3176 3315 
Q 3500 3047 3500 2534 
Q 3500 2431 3484 2292 
Q 3469 2153 3438 1997 
z
M 2816 1759 
L 2241 1759 
Q 1534 1759 1195 1570 
Q 856 1381 856 984 
Q 856 709 1029 553 
Q 1203 397 1509 397 
Q 1978 397 2328 733 
Q 2678 1069 2791 1631 
L 2816 1759 
z
" transform="scale(0.015625)"/>
       <path id="DejaVuSans-Oblique-78" d="M 3841 3500 
L 2234 1784 
L 3219 0 
L 2559 0 
L 1819 1388 
L 531 0 
L -166 0 
L 1556 1844 
L 641 3500 
L 1300 3500 
L 1972 2234 
L 3144 3500 
L 3841 3500 
z
" transform="scale(0.015625)"/>
       <path id="DejaVuSans-2c" d="M 750 794 
L 1409 794 
L 1409 256 
L 897 -744 
L 494 -744 
L 750 256 
L 750 794 
z
" transform="scale(0.015625)"/>
       <path id="DejaVuSans-Oblique-7a" d="M 744 3500 
L 3475 3500 
L 3372 2975 
L 738 459 
L 2913 459 
L 2822 0 
L -19 0 
L 84 525 
L 2719 3041 
L 653 3041 
L 744 3500 
z
" transform="scale(0.015625)"/>
       <path id="DejaVuSans-29" d="M 513 4856 
L 1013 4856 
Q 1481 4119 1714 3412 
Q 1947 2706 1947 2009 
Q 1947 1309 1714 600 
Q 1481 -109 1013 -844 
L 513 -844 
Q 928 -128 1133 580 
Q 1338 1288 1338 2009 
Q 1338 2731 1133 3434 
Q 928 4138 513 4856 
z
" transform="scale(0.015625)"/>
      </defs>
      <use xlink:href="#DejaVuSans-32" transform="translate(0 0.015625)"/>
      <use xlink:href="#DejaVuSans-44" transform="translate(63.623047 0.015625)"/>
      <use xlink:href="#DejaVuSans-20" transform="translate(140.625 0.015625)"/>
      <use xlink:href="#DejaVuSans-73" transform="translate(172.412109 0.015625)"/>
      <use xlink:href="#DejaVuSans-6c" transform="translate(224.511719 0.015625)"/>
      <use xlink:href="#DejaVuSans-69" transform="translate(252.294922 0.015625)"/>
      <use xlink:href="#DejaVuSans-63" transform="translate(280.078125 0.015625)"/>
      <use xlink:href="#DejaVuSans-65" transform="translate(335.058594 0.015625)"/>
      <use xlink:href="#DejaVuSans-20" transform="translate(396.582031 0.015625)"/>
      <use xlink:href="#DejaVuSans-28" transform="translate(428.369141 0.015625)"/>
      <use xlink:href="#DejaVuSans-Oblique-61" transform="translate(467.382812 0.015625)"/>
      <use xlink:href="#DejaVuSans-Oblique-78" transform="translate(528.662109 -16.390625) scale(0.7)"/>
      <use xlink:href="#DejaVuSans-2c" transform="translate(572.822266 0.015625)"/>
      <use xlink:href="#DejaVuSans-Oblique-61" transform="translate(624.091797 0.015625)"/>
      <use xlink:href="#DejaVuSans-Oblique-7a" transform="translate(685.371094 -16.390625) scale(0.7)"/>
      <use xlink:href="#DejaVuSans-Oblique-7a" transform="translate(722.114258 -16.390625) scale(0.7)"/>
      <use xlink:href="#DejaVuSans-29" transform="translate(761.591797 0.015625)"/>
     </g>
    </g>
    <g id="line2d_19">
     <path d="M 413.61 52.874062 
L 424.61 52.874062 
L 435.61 52.874062 
" style="fill: none; stroke: #dd8452; stroke-width: 1.5; stroke-linecap: round"/>
     <g>
      <use xlink:href="#m08119b47a1" x="424.61" y="52.874062" style="fill: #dd8452; stroke: #dd8452; stroke-linejoin: miter"/>
     </g>
    </g>
    <g id="text_17">
     <!-- 2D slice $(a_y, a_{zz})$ -->
     <g style="fill: #262626" transform="translate(444.41 56.724062) scale(0.11 -0.11)">
      <defs>
       <path id="DejaVuSans-Oblique-79" d="M 1588 -325 
Q 1188 -997 936 -1164 
Q 684 -1331 294 -1331 
L -159 -1331 
L -63 -850 
L 269 -850 
Q 509 -850 678 -719 
Q 847 -588 1056 -206 
L 1234 128 
L 459 3500 
L 1069 3500 
L 1650 819 
L 3256 3500 
L 3859 3500 
L 1588 -325 
z
" transform="scale(0.015625)"/>
      </defs>
      <use xlink:href="#DejaVuSans-32" transform="translate(0 0.015625)"/>
      <use xlink:href="#DejaVuSans-44" transform="translate(63.623047 0.015625)"/>
      <use xlink:href="#DejaVuSans-20" transform="translate(140.625 0.015625)"/>
      <use xlink:href="#DejaVuSans-73" transform="translate(172.412109 0.015625)"/>
      <use xlink:href="#DejaVuSans-6c" transform="translate(224.511719 0.015625)"/>
      <use xlink:href="#DejaVuSans-69" transform="translate(252.294922 0.015625)"/>
      <use xlink:href="#DejaVuSans-63" transform="translate(280.078125 0.015625)"/>
      <use xlink:href="#DejaVuSans-65" transform="translate(335.058594 0.015625)"/>
      <use xlink:href="#DejaVuSans-20" transform="translate(396.582031 0.015625)"/>
      <use xlink:href="#DejaVuSans-28" transform="translate(428.369141 0.015625)"/>
      <use xlink:href="#DejaVuSans-Oblique-61" transform="translate(467.382812 0.015625)"/>
      <use xlink:href="#DejaVuSans-Oblique-79" transform="translate(528.662109 -16.390625) scale(0.7)"/>
      <use xlink:href="#DejaVuSans-2c" transform="translate(572.822266 0.015625)"/>
      <use xlink:href="#DejaVuSans-Oblique-61" transform="translate(624.091797 0.015625)"/>
      <use xlink:href="#DejaVuSans-Oblique-7a" transform="translate(685.371094 -16.390625) scale(0.7)"/>
      <use xlink:href="#DejaVuSans-Oblique-7a" transform="translate(722.114258 -16.390625) scale(0.7)"/>
      <use xlink:href="#DejaVuSans-29" transform="translate(761.591797 0.015625)"/>
     </g>
    </g>
    <g id="line2d_20">
     <path d="M 413.61 70.142344 
L 424.61 70.142344 
L 435.61 70.142344 
" style="fill: none; stroke: #55a868; stroke-width: 1.5; stroke-linecap: round"/>
     <g>
      <use xlink:href="#m2b1270c7c7" x="424.61" y="70.142344" style="fill: #55a868; stroke: #55a868; stroke-linejoin: miter"/>
     </g>
    </g>
    <g id="text_18">
     <!-- 4D random search -->
     <g style="fill: #262626" transform="translate(444.41 73.992344) scale(0.11 -0.11)">
      <defs>
       <path id="DejaVuSans-64" d="M 2906 2969 
L 2906 4863 
L 3481 4863 
L 3481 0 
L 2906 0 
L 2906 525 
Q 2725 213 2448 61 
Q 2172 -91 1784 -91 
Q 1150 -91 751 415 
Q 353 922 353 1747 
Q 353 2572 751 3078 
Q 1150 3584 1784 3584 
Q 2172 3584 2448 3432 
Q 2725 3281 2906 2969 
z
M 947 1747 
Q 947 1113 1208 752 
Q 1469 391 1925 391 
Q 2381 391 2643 752 
Q 2906 1113 2906 1747 
Q 2906 2381 2643 2742 
Q 2381 3103 1925 3103 
Q 1469 3103 1208 2742 
Q 947 2381 947 1747 
z
" transform="scale(0.015625)"/>
       <path id="DejaVuSans-68" d="M 3513 2113 
L 3513 0 
L 2938 0 
L 2938 2094 
Q 2938 2591 2744 2837 
Q 2550 3084 2163 3084 
Q 1697 3084 1428 2787 
Q 1159 2491 1159 1978 
L 1159 0 
L 581 0 
L 581 4863 
L 1159 4863 
L 1159 2956 
Q 1366 3272 1645 3428 
Q 1925 3584 2291 3584 
Q 2894 3584 3203 3211 
Q 3513 2838 3513 2113 
z
" transform="scale(0.015625)"/>
      </defs>
      <use xlink:href="#DejaVuSans-34"/>
      <use xlink:href="#DejaVuSans-44" transform="translate(63.623047 0)"/>
      <use xlink:href="#DejaVuSans-20" transform="translate(140.625 0)"/>
      <use xlink:href="#DejaVuSans-72" transform="translate(172.412109 0)"/>
      <use xlink:href="#DejaVuSans-61" transform="translate(213.525391 0)"/>
      <use xlink:href="#DejaVuSans-6e" transform="translate(274.804688 0)"/>
      <use xlink:href="#DejaVuSans-64" transform="translate(338.183594 0)"/>
      <use xlink:href="#DejaVuSans-6f" transform="translate(401.660156 0)"/>
      <use xlink:href="#DejaVuSans-6d" transform="translate(462.841797 0)"/>
      <use xlink:href="#DejaVuSans-20" transform="translate(560.253906 0)"/>
      <use xlink:href="#DejaVuSans-73" transform="translate(592.041016 0)"/>
      <use xlink:href="#DejaVuSans-65" transform="translate(644.140625 0)"/>
      <use xlink:href="#DejaVuSans-61" transform="translate(705.664062 0)"/>
      <use xlink:href="#DejaVuSans-72" transform="translate(766.943359 0)"/>
      <use xlink:href="#DejaVuSans-63" transform="translate(805.806641 0)"/>
      <use xlink:href="#DejaVuSans-68" transform="translate(860.787109 0)"/>
     </g>
    </g>
   </g>
  </g>
 </g>
 <defs>
  <clipPath id="pafd7867371">
   <rect x="49.807188" y="22.318125" width="506.16" height="280.74"/>
  </clipPath>
 </defs>
</svg>
