<?xml version="1.0" encoding="utf-8" standalone="no"?>
<!DOCTYPE svg PUBLIC "-//W3C//DTD SVG 1.1//EN"
  "http://www.w3.org/Graphics/SVG/1.1/DTD/svg11.dtd">
<svg xmlns:xlink="http://www.w3.org/1999/xlink" width="632.4175pt" height="416.579687pt" viewBox="0 0 632.4175 416.579687" xmlns="http://www.w3.org/2000/svg" version="1.1">
 <metadata>
  <rdf:RDF xmlns:dc="http://purl.org/dc/elements/1.1/" xmlns:cc="http://creativecommons.org/ns#" xmlns:rdf="http://www.w3.org/1999/02/22-rdf-syntax-ns#">
   <cc:Work>
    <dc:type rdf:resource="http://purl.org/dc/dcmitype/StillImage"/>
    <dc:date>2026-06-10T15:07:39.311736</dc:date>
    <dc:format>image/svg+xml</dc:format>
    <dc:creator>
     <cc:Agent>
      <dc:title>Matplotlib v3.10.9, https://matplotlib.org/</dc:title>
     </cc:Agent>
    </dc:creator>
   </cc:Work>
  </rdf:RDF>
 </metadata>
 <defs>
  <style type="text/css">*{stroke-linejoin: round; stroke-linecap: butt}</style>
 </defs>
 <g id="figure_1">
  <g id="patch_1">
   <path d="M 0 416.579687 
L 632.4175 416.579687 
L 632.4175 0 
L 0 0 
z
" style="fill: #ffffff"/>
  </g>
  <g id="axes_1">
   <g id="patch_2">
    <path d="M 46.3375 373.62 
L 625.2175 373.62 
L 625.2175 22.32 
L 46.3375 22.32 
z
" style="fill: #ffffff"/>
   </g>
   <g id="matplotlib.axis_1">
    <g id="xtick_1">
     <g id="line2d_1">
      <path d="M 72.650227 373.62 
L 72.650227 22.32 
" clip-path="url(#p70582b0308)" style="fill: none; stroke: #cccccc; stroke-opacity: 0.3; stroke-linecap: round"/>
     </g>
     <g id="text_1">
      <!-- 0 -->
      <g style="fill: #262626" transform="translate(69.150852 391.478281) scale(0.11 -0.11)">
       <defs>
        <path id="DejaVuSans-30" d="M 2034 4250 
Q 1547 4250 1301 3770 
Q 1056 3291 1056 2328 
Q 1056 1369 1301 889 
Q 1547 409 2034 409 
Q 2525 409 2770 889 
Q 3016 1369 3016 2328 
Q 3016 3291 2770 3770 
Q 2525 4250 2034 4250 
z
M 2034 4750 
Q 2819 4750 3233 4129 
Q 3647 3509 3647 2328 
Q 3647 1150 3233 529 
Q 2819 -91 2034 -91 
Q 1250 -91 836 529 
Q 422 1150 422 2328 
Q 422 3509 836 4129 
Q 1250 4750 2034 4750 
z
" transform="scale(0.015625)"/>
       </defs>
       <use xlink:href="#DejaVuSans-30"/>
      </g>
     </g>
    </g>
    <g id="xtick_2">
     <g id="line2d_2">
      <path d="M 177.901136 373.62 
L 177.901136 22.32 
" clip-path="url(#p70582b0308)" style="fill: none; stroke: #cccccc; stroke-opacity: 0.3; stroke-linecap: round"/>
     </g>
     <g id="text_2">
      <!-- 1 -->
      <g style="fill: #262626" transform="translate(174.401761 391.478281) scale(0.11 -0.11)">
       <defs>
        <path id="DejaVuSans-31" d="M 794 531 
L 1825 531 
L 1825 4091 
L 703 3866 
L 703 4441 
L 1819 4666 
L 2450 4666 
L 2450 531 
L 3481 531 
L 3481 0 
L 794 0 
L 794 531 
z
" transform="scale(0.015625)"/>
       </defs>
       <use xlink:href="#DejaVuSans-31"/>
      </g>
     </g>
    </g>
    <g id="xtick_3">
     <g id="line2d_3">
      <path d="M 283.152045 373.62 
L 283.152045 22.32 
" clip-path="url(#p70582b0308)" style="fill: none; stroke: #cccccc; stroke-opacity: 0.3; stroke-linecap: round"/>
     </g>
     <g id="text_3">
      <!-- 2 -->
      <g style="fill: #262626" transform="translate(279.65267 391.478281) scale(0.11 -0.11)">
       <defs>
        <path id="DejaVuSans-32" d="M 1228 531 
L 3431 531 
L 3431 0 
L 469 0 
L 469 531 
Q 828 903 1448 1529 
Q 2069 2156 2228 2338 
Q 2531 2678 2651 2914 
Q 2772 3150 2772 3378 
Q 2772 3750 2511 3984 
Q 2250 4219 1831 4219 
Q 1534 4219 1204 4116 
Q 875 4013 500 3803 
L 500 4441 
Q 881 4594 1212 4672 
Q 1544 4750 1819 4750 
Q 2544 4750 2975 4387 
Q 3406 4025 3406 3419 
Q 3406 3131 3298 2873 
Q 3191 2616 2906 2266 
Q 2828 2175 2409 1742 
Q 1991 1309 1228 531 
z
" transform="scale(0.015625)"/>
       </defs>
       <use xlink:href="#DejaVuSans-32"/>
      </g>
     </g>
    </g>
    <g id="xtick_4">
     <g id="line2d_4">
      <path d="M 388.402955 373.62 
L 388.402955 22.32 
" clip-path="url(#p70582b0308)" style="fill: none; stroke: #cccccc; stroke-opacity: 0.3; stroke-linecap: round"/>
     </g>
     <g id="text_4">
      <!-- 3 -->
      <g style="fill: #262626" transform="translate(384.90358 391.478281) scale(0.11 -0.11)">
       <defs>
        <path id="DejaVuSans-33" d="M 2597 2516 
Q 3050 2419 3304 2112 
Q 3559 1806 3559 1356 
Q 3559 666 3084 287 
Q 2609 -91 1734 -91 
Q 1441 -91 1130 -33 
Q 819 25 488 141 
L 488 750 
Q 750 597 1062 519 
Q 1375 441 1716 441 
Q 2309 441 2620 675 
Q 2931 909 2931 1356 
Q 2931 1769 2642 2001 
Q 2353 2234 1838 2234 
L 1294 2234 
L 1294 2753 
L 1863 2753 
Q 2328 2753 2575 2939 
Q 2822 3125 2822 3475 
Q 2822 3834 2567 4026 
Q 2313 4219 1838 4219 
Q 1578 4219 1281 4162 
Q 984 4106 628 3988 
L 628 4550 
Q 988 4650 1302 4700 
Q 1616 4750 1894 4750 
Q 2613 4750 3031 4423 
Q 3450 4097 3450 3541 
Q 3450 3153 3228 2886 
Q 3006 2619 2597 2516 
z
" transform="scale(0.015625)"/>
       </defs>
       <use xlink:href="#DejaVuSans-33"/>
      </g>
     </g>
    </g>
    <g id="xtick_5">
     <g id="line2d_5">
      <path d="M 493.653864 373.62 
L 493.653864 22.32 
" clip-path="url(#p70582b0308)" style="fill: none; stroke: #cccccc; stroke-opacity: 0.3; stroke-linecap: round"/>
     </g>
     <g id="text_5">
      <!-- 4 -->
      <g style="fill: #262626" transform="translate(490.154489 391.478281) scale(0.11 -0.11)">
       <defs>
        <path id="DejaVuSans-34" d="M 2419 4116 
L 825 1625 
L 2419 1625 
L 2419 4116 
z
M 2253 4666 
L 3047 4666 
L 3047 1625 
L 3713 1625 
L 3713 1100 
L 3047 1100 
L 3047 0 
L 2419 0 
L 2419 1100 
L 313 1100 
L 313 1709 
L 2253 4666 
z
" transform="scale(0.015625)"/>
       </defs>
       <use xlink:href="#DejaVuSans-34"/>
      </g>
     </g>
    </g>
    <g id="xtick_6">
     <g id="line2d_6">
      <path d="M 598.904773 373.62 
L 598.904773 22.32 
" clip-path="url(#p70582b0308)" style="fill: none; stroke: #cccccc; stroke-opacity: 0.3; stroke-linecap: round"/>
     </g>
     <g id="text_6">
      <!-- 5 -->
      <g style="fill: #262626" transform="translate(595.405398 391.478281) scale(0.11 -0.11)">
       <defs>
        <path id="DejaVuSans-35" d="M 691 4666 
L 3169 4666 
L 3169 4134 
L 1269 4134 
L 1269 2991 
Q 1406 3038 1543 3061 
Q 1681 3084 1819 3084 
Q 2600 3084 3056 2656 
Q 3513 2228 3513 1497 
Q 3513 744 3044 326 
Q 2575 -91 1722 -91 
Q 1428 -91 1123 -41 
Q 819 9 494 109 
L 494 744 
Q 775 591 1075 516 
Q 1375 441 1709 441 
Q 2250 441 2565 725 
Q 2881 1009 2881 1497 
Q 2881 1984 2565 2268 
Q 2250 2553 1709 2553 
Q 1456 2553 1204 2497 
Q 953 2441 691 2322 
L 691 4666 
z
" transform="scale(0.015625)"/>
       </defs>
       <use xlink:href="#DejaVuSans-35"/>
      </g>
     </g>
    </g>
    <g id="text_7">
     <!-- Evolution time $T$ -->
     <g style="fill: #262626" transform="translate(286.7575 406.884062) scale(0.12 -0.12)">
      <defs>
       <path id="DejaVuSans-45" d="M 628 4666 
L 3578 4666 
L 3578 4134 
L 1259 4134 
L 1259 2753 
L 3481 2753 
L 3481 2222 
L 1259 2222 
L 1259 531 
L 3634 531 
L 3634 0 
L 628 0 
L 628 4666 
z
" transform="scale(0.015625)"/>
       <path id="DejaVuSans-76" d="M 191 3500 
L 800 3500 
L 1894 563 
L 2988 3500 
L 3597 3500 
L 2284 0 
L 1503 0 
L 191 3500 
z
" transform="scale(0.015625)"/>
       <path id="DejaVuSans-6f" d="M 1959 3097 
Q 1497 3097 1228 2736 
Q 959 2375 959 1747 
Q 959 1119 1226 758 
Q 1494 397 1959 397 
Q 2419 397 2687 759 
Q 2956 1122 2956 1747 
Q 2956 2369 2687 2733 
Q 2419 3097 1959 3097 
z
M 1959 3584 
Q 2709 3584 3137 3096 
Q 3566 2609 3566 1747 
Q 3566 888 3137 398 
Q 2709 -91 1959 -91 
Q 1206 -91 779 398 
Q 353 888 353 1747 
Q 353 2609 779 3096 
Q 1206 3584 1959 3584 
z
" transform="scale(0.015625)"/>
       <path id="DejaVuSans-6c" d="M 603 4863 
L 1178 4863 
L 1178 0 
L 603 0 
L 603 4863 
z
" transform="scale(0.015625)"/>
       <path id="DejaVuSans-75" d="M 544 1381 
L 544 3500 
L 1119 3500 
L 1119 1403 
Q 1119 906 1312 657 
Q 1506 409 1894 409 
Q 2359 409 2629 706 
Q 2900 1003 2900 1516 
L 2900 3500 
L 3475 3500 
L 3475 0 
L 2900 0 
L 2900 538 
Q 2691 219 2414 64 
Q 2138 -91 1772 -91 
Q 1169 -91 856 284 
Q 544 659 544 1381 
z
M 1991 3584 
L 1991 3584 
z
" transform="scale(0.015625)"/>
       <path id="DejaVuSans-74" d="M 1172 4494 
L 1172 3500 
L 2356 3500 
L 2356 3053 
L 1172 3053 
L 1172 1153 
Q 1172 725 1289 603 
Q 1406 481 1766 481 
L 2356 481 
L 2356 0 
L 1766 0 
Q 1100 0 847 248 
Q 594 497 594 1153 
L 594 3053 
L 172 3053 
L 172 3500 
L 594 3500 
L 594 4494 
L 1172 4494 
z
" transform="scale(0.015625)"/>
       <path id="DejaVuSans-69" d="M 603 3500 
L 1178 3500 
L 1178 0 
L 603 0 
L 603 3500 
z
M 603 4863 
L 1178 4863 
L 1178 4134 
L 603 4134 
L 603 4863 
z
" transform="scale(0.015625)"/>
       <path id="DejaVuSans-6e" d="M 3513 2113 
L 3513 0 
L 2938 0 
L 2938 2094 
Q 2938 2591 2744 2837 
Q 2550 3084 2163 3084 
Q 1697 3084 1428 2787 
Q 1159 2491 1159 1978 
L 1159 0 
L 581 0 
L 581 3500 
L 1159 3500 
L 1159 2956 
Q 1366 3272 1645 3428 
Q 1925 3584 2291 3584 
Q 2894 3584 3203 3211 
Q 3513 2838 3513 2113 
z
" transform="scale(0.015625)"/>
       <path id="DejaVuSans-20" transform="scale(0.015625)"/>
       <path id="DejaVuSans-6d" d="M 3328 2828 
Q 3544 3216 3844 3400 
Q 4144 3584 4550 3584 
Q 5097 3584 5394 3201 
Q 5691 2819 5691 2113 
L 5691 0 
L 5113 0 
L 5113 2094 
Q 5113 2597 4934 2840 
Q 4756 3084 4391 3084 
Q 3944 3084 3684 2787 
Q 3425 2491 3425 1978 
L 3425 0 
L 2847 0 
L 2847 2094 
Q 2847 2600 2669 2842 
Q 2491 3084 2119 3084 
Q 1678 3084 1418 2786 
Q 1159 2488 1159 1978 
L 1159 0 
L 581 0 
L 581 3500 
L 1159 3500 
L 1159 2956 
Q 1356 3278 1631 3431 
Q 1906 3584 2284 3584 
Q 2666 3584 2933 3390 
Q 3200 3197 3328 2828 
z
" transform="scale(0.015625)"/>
       <path id="DejaVuSans-65" d="M 3597 1894 
L 3597 1613 
L 953 1613 
Q 991 1019 1311 708 
Q 1631 397 2203 397 
Q 2534 397 2845 478 
Q 3156 559 3463 722 
L 3463 178 
Q 3153 47 2828 -22 
Q 2503 -91 2169 -91 
Q 1331 -91 842 396 
Q 353 884 353 1716 
Q 353 2575 817 3079 
Q 1281 3584 2069 3584 
Q 2775 3584 3186 3129 
Q 3597 2675 3597 1894 
z
M 3022 2063 
Q 3016 2534 2758 2815 
Q 2500 3097 2075 3097 
Q 1594 3097 1305 2825 
Q 1016 2553 972 2059 
L 3022 2063 
z
" transform="scale(0.015625)"/>
       <path id="DejaVuSans-Oblique-54" d="M 378 4666 
L 4325 4666 
L 4225 4134 
L 2559 4134 
L 1759 0 
L 1125 0 
L 1925 4134 
L 275 4134 
L 378 4666 
z
" transform="scale(0.015625)"/>
      </defs>
      <use xlink:href="#DejaVuSans-45" transform="translate(0 0.015625)"/>
      <use xlink:href="#DejaVuSans-76" transform="translate(63.183594 0.015625)"/>
      <use xlink:href="#DejaVuSans-6f" transform="translate(122.363281 0.015625)"/>
      <use xlink:href="#DejaVuSans-6c" transform="translate(183.544922 0.015625)"/>
      <use xlink:href="#DejaVuSans-75" transform="translate(211.328125 0.015625)"/>
      <use xlink:href="#DejaVuSans-74" transform="translate(274.707031 0.015625)"/>
      <use xlink:href="#DejaVuSans-69" transform="translate(313.916016 0.015625)"/>
      <use xlink:href="#DejaVuSans-6f" transform="translate(341.699219 0.015625)"/>
      <use xlink:href="#DejaVuSans-6e" transform="translate(402.880859 0.015625)"/>
      <use xlink:href="#DejaVuSans-20" transform="translate(466.259766 0.015625)"/>
      <use xlink:href="#DejaVuSans-74" transform="translate(498.046875 0.015625)"/>
      <use xlink:href="#DejaVuSans-69" transform="translate(537.255859 0.015625)"/>
      <use xlink:href="#DejaVuSans-6d" transform="translate(565.039062 0.015625)"/>
      <use xlink:href="#DejaVuSans-65" transform="translate(662.451172 0.015625)"/>
      <use xlink:href="#DejaVuSans-20" transform="translate(723.974609 0.015625)"/>
      <use xlink:href="#DejaVuSans-Oblique-54" transform="translate(755.761719 0.015625)"/>
     </g>
    </g>
   </g>
   <g id="matplotlib.axis_2">
    <g id="ytick_1">
     <g id="line2d_7">
      <path d="M 46.3375 373.62 
L 625.2175 373.62 
" clip-path="url(#p70582b0308)" style="fill: none; stroke: #cccccc; stroke-opacity: 0.3; stroke-linecap: round"/>
     </g>
     <g id="text_8">
      <!-- 0 -->
      <g style="fill: #262626" transform="translate(29.83875 377.799141) scale(0.11 -0.11)">
       <use xlink:href="#DejaVuSans-30"/>
      </g>
     </g>
    </g>
    <g id="ytick_2">
     <g id="line2d_8">
      <path d="M 46.3375 320.451385 
L 625.2175 320.451385 
" clip-path="url(#p70582b0308)" style="fill: none; stroke: #cccccc; stroke-opacity: 0.3; stroke-linecap: round"/>
     </g>
     <g id="text_9">
      <!-- 2 -->
      <g style="fill: #262626" transform="translate(29.83875 324.630526) scale(0.11 -0.11)">
       <use xlink:href="#DejaVuSans-32"/>
      </g>
     </g>
    </g>
    <g id="ytick_3">
     <g id="line2d_9">
      <path d="M 46.3375 267.28277 
L 625.2175 267.28277 
" clip-path="url(#p70582b0308)" style="fill: none; stroke: #cccccc; stroke-opacity: 0.3; stroke-linecap: round"/>
     </g>
     <g id="text_10">
      <!-- 4 -->
      <g style="fill: #262626" transform="translate(29.83875 271.461911) scale(0.11 -0.11)">
       <use xlink:href="#DejaVuSans-34"/>
      </g>
     </g>
    </g>
    <g id="ytick_4">
     <g id="line2d_10">
      <path d="M 46.3375 214.114155 
L 625.2175 214.114155 
" clip-path="url(#p70582b0308)" style="fill: none; stroke: #cccccc; stroke-opacity: 0.3; stroke-linecap: round"/>
     </g>
     <g id="text_11">
      <!-- 6 -->
      <g style="fill: #262626" transform="translate(29.83875 218.293296) scale(0.11 -0.11)">
       <defs>
        <path id="DejaVuSans-36" d="M 2113 2584 
Q 1688 2584 1439 2293 
Q 1191 2003 1191 1497 
Q 1191 994 1439 701 
Q 1688 409 2113 409 
Q 2538 409 2786 701 
Q 3034 994 3034 1497 
Q 3034 2003 2786 2293 
Q 2538 2584 2113 2584 
z
M 3366 4563 
L 3366 3988 
Q 3128 4100 2886 4159 
Q 2644 4219 2406 4219 
Q 1781 4219 1451 3797 
Q 1122 3375 1075 2522 
Q 1259 2794 1537 2939 
Q 1816 3084 2150 3084 
Q 2853 3084 3261 2657 
Q 3669 2231 3669 1497 
Q 3669 778 3244 343 
Q 2819 -91 2113 -91 
Q 1303 -91 875 529 
Q 447 1150 447 2328 
Q 447 3434 972 4092 
Q 1497 4750 2381 4750 
Q 2619 4750 2861 4703 
Q 3103 4656 3366 4563 
z
" transform="scale(0.015625)"/>
       </defs>
       <use xlink:href="#DejaVuSans-36"/>
      </g>
     </g>
    </g>
    <g id="ytick_5">
     <g id="line2d_11">
      <path d="M 46.3375 160.945541 
L 625.2175 160.945541 
" clip-path="url(#p70582b0308)" style="fill: none; stroke: #cccccc; stroke-opacity: 0.3; stroke-linecap: round"/>
     </g>
     <g id="text_12">
      <!-- 8 -->
      <g style="fill: #262626" transform="translate(29.83875 165.124681) scale(0.11 -0.11)">
       <defs>
        <path id="DejaVuSans-38" d="M 2034 2216 
Q 1584 2216 1326 1975 
Q 1069 1734 1069 1313 
Q 1069 891 1326 650 
Q 1584 409 2034 409 
Q 2484 409 2743 651 
Q 3003 894 3003 1313 
Q 3003 1734 2745 1975 
Q 2488 2216 2034 2216 
z
M 1403 2484 
Q 997 2584 770 2862 
Q 544 3141 544 3541 
Q 544 4100 942 4425 
Q 1341 4750 2034 4750 
Q 2731 4750 3128 4425 
Q 3525 4100 3525 3541 
Q 3525 3141 3298 2862 
Q 3072 2584 2669 2484 
Q 3125 2378 3379 2068 
Q 3634 1759 3634 1313 
Q 3634 634 3220 271 
Q 2806 -91 2034 -91 
Q 1263 -91 848 271 
Q 434 634 434 1313 
Q 434 1759 690 2068 
Q 947 2378 1403 2484 
z
M 1172 3481 
Q 1172 3119 1398 2916 
Q 1625 2713 2034 2713 
Q 2441 2713 2670 2916 
Q 2900 3119 2900 3481 
Q 2900 3844 2670 4047 
Q 2441 4250 2034 4250 
Q 1625 4250 1398 4047 
Q 1172 3844 1172 3481 
z
" transform="scale(0.015625)"/>
       </defs>
       <use xlink:href="#DejaVuSans-38"/>
      </g>
     </g>
    </g>
    <g id="ytick_6">
     <g id="line2d_12">
      <path d="M 46.3375 107.776926 
L 625.2175 107.776926 
" clip-path="url(#p70582b0308)" style="fill: none; stroke: #cccccc; stroke-opacity: 0.3; stroke-linecap: round"/>
     </g>
     <g id="text_13">
      <!-- 10 -->
      <g style="fill: #262626" transform="translate(22.84 111.956066) scale(0.11 -0.11)">
       <use xlink:href="#DejaVuSans-31"/>
       <use xlink:href="#DejaVuSans-30" transform="translate(63.623047 0)"/>
      </g>
     </g>
    </g>
    <g id="ytick_7">
     <g id="line2d_13">
      <path d="M 46.3375 54.608311 
L 625.2175 54.608311 
" clip-path="url(#p70582b0308)" style="fill: none; stroke: #cccccc; stroke-opacity: 0.3; stroke-linecap: round"/>
     </g>
     <g id="text_14">
      <!-- 12 -->
      <g style="fill: #262626" transform="translate(22.84 58.787452) scale(0.11 -0.11)">
       <use xlink:href="#DejaVuSans-31"/>
       <use xlink:href="#DejaVuSans-32" transform="translate(63.623047 0)"/>
      </g>
     </g>
    </g>
    <g id="text_15">
     <!-- QFI preservation ratio $\mathcal{R}(T)$ -->
     <g style="fill: #262626" transform="translate(16.32 278.97) rotate(-90) scale(0.12 -0.12)">
      <defs>
       <path id="DejaVuSans-51" d="M 2522 4238 
Q 1834 4238 1429 3725 
Q 1025 3213 1025 2328 
Q 1025 1447 1429 934 
Q 1834 422 2522 422 
Q 3209 422 3611 934 
Q 4013 1447 4013 2328 
Q 4013 3213 3611 3725 
Q 3209 4238 2522 4238 
z
M 3406 84 
L 4238 -825 
L 3475 -825 
L 2784 -78 
Q 2681 -84 2626 -87 
Q 2572 -91 2522 -91 
Q 1538 -91 948 567 
Q 359 1225 359 2328 
Q 359 3434 948 4092 
Q 1538 4750 2522 4750 
Q 3503 4750 4090 4092 
Q 4678 3434 4678 2328 
Q 4678 1516 4351 937 
Q 4025 359 3406 84 
z
" transform="scale(0.015625)"/>
       <path id="DejaVuSans-46" d="M 628 4666 
L 3309 4666 
L 3309 4134 
L 1259 4134 
L 1259 2759 
L 3109 2759 
L 3109 2228 
L 1259 2228 
L 1259 0 
L 628 0 
L 628 4666 
z
" transform="scale(0.015625)"/>
       <path id="DejaVuSans-49" d="M 628 4666 
L 1259 4666 
L 1259 0 
L 628 0 
L 628 4666 
z
" transform="scale(0.015625)"/>
       <path id="DejaVuSans-70" d="M 1159 525 
L 1159 -1331 
L 581 -1331 
L 581 3500 
L 1159 3500 
L 1159 2969 
Q 1341 3281 1617 3432 
Q 1894 3584 2278 3584 
Q 2916 3584 3314 3078 
Q 3713 2572 3713 1747 
Q 3713 922 3314 415 
Q 2916 -91 2278 -91 
Q 1894 -91 1617 61 
Q 1341 213 1159 525 
z
M 3116 1747 
Q 3116 2381 2855 2742 
Q 2594 3103 2138 3103 
Q 1681 3103 1420 2742 
Q 1159 2381 1159 1747 
Q 1159 1113 1420 752 
Q 1681 391 2138 391 
Q 2594 391 2855 752 
Q 3116 1113 3116 1747 
z
" transform="scale(0.015625)"/>
       <path id="DejaVuSans-72" d="M 2631 2963 
Q 2534 3019 2420 3045 
Q 2306 3072 2169 3072 
Q 1681 3072 1420 2755 
Q 1159 2438 1159 1844 
L 1159 0 
L 581 0 
L 581 3500 
L 1159 3500 
L 1159 2956 
Q 1341 3275 1631 3429 
Q 1922 3584 2338 3584 
Q 2397 3584 2469 3576 
Q 2541 3569 2628 3553 
L 2631 2963 
z
" transform="scale(0.015625)"/>
       <path id="DejaVuSans-73" d="M 2834 3397 
L 2834 2853 
Q 2591 2978 2328 3040 
Q 2066 3103 1784 3103 
Q 1356 3103 1142 2972 
Q 928 2841 928 2578 
Q 928 2378 1081 2264 
Q 1234 2150 1697 2047 
L 1894 2003 
Q 2506 1872 2764 1633 
Q 3022 1394 3022 966 
Q 3022 478 2636 193 
Q 2250 -91 1575 -91 
Q 1294 -91 989 -36 
Q 684 19 347 128 
L 347 722 
Q 666 556 975 473 
Q 1284 391 1588 391 
Q 1994 391 2212 530 
Q 2431 669 2431 922 
Q 2431 1156 2273 1281 
Q 2116 1406 1581 1522 
L 1381 1569 
Q 847 1681 609 1914 
Q 372 2147 372 2553 
Q 372 3047 722 3315 
Q 1072 3584 1716 3584 
Q 2034 3584 2315 3537 
Q 2597 3491 2834 3397 
z
" transform="scale(0.015625)"/>
       <path id="DejaVuSans-61" d="M 2194 1759 
Q 1497 1759 1228 1600 
Q 959 1441 959 1056 
Q 959 750 1161 570 
Q 1363 391 1709 391 
Q 2188 391 2477 730 
Q 2766 1069 2766 1631 
L 2766 1759 
L 2194 1759 
z
M 3341 1997 
L 3341 0 
L 2766 0 
L 2766 531 
Q 2569 213 2275 61 
Q 1981 -91 1556 -91 
Q 1019 -91 701 211 
Q 384 513 384 1019 
Q 384 1609 779 1909 
Q 1175 2209 1959 2209 
L 2766 2209 
L 2766 2266 
Q 2766 2663 2505 2880 
Q 2244 3097 1772 3097 
Q 1472 3097 1187 3025 
Q 903 2953 641 2809 
L 641 3341 
Q 956 3463 1253 3523 
Q 1550 3584 1831 3584 
Q 2591 3584 2966 3190 
Q 3341 2797 3341 1997 
z
" transform="scale(0.015625)"/>
       <path id="STIXNonUnicode-Italic-e23e" d="M 5120 826 
L 5222 710 
Q 4531 -19 3994 -19 
Q 3674 -19 3466 147 
Q 3258 314 3171 528 
Q 3085 742 2944 1046 
Q 2803 1350 2643 1536 
Q 2586 1606 2368 1734 
Q 2150 1862 2118 1862 
L 2176 2010 
Q 2963 2086 3436 2464 
Q 3910 2842 3910 3219 
Q 3910 3654 3657 3811 
Q 3405 3968 2765 3968 
Q 2605 3968 2544 3917 
Q 2483 3866 2451 3750 
L 1709 1216 
Q 1645 998 1593 857 
Q 1542 717 1433 537 
Q 1325 358 1193 252 
Q 1062 147 848 73 
Q 634 0 358 0 
L 416 154 
Q 608 154 707 314 
Q 806 474 934 902 
L 1517 2918 
Q 1709 3565 1709 3661 
Q 1709 3891 1414 3891 
Q 1254 3891 1113 3859 
Q 973 3827 845 3760 
Q 717 3693 646 3648 
Q 576 3603 467 3520 
Q 358 3437 346 3424 
L 243 3546 
Q 486 3795 723 3942 
Q 960 4090 1270 4150 
Q 1581 4211 1801 4224 
Q 2022 4237 2483 4237 
Q 3341 4237 3814 4118 
Q 4288 4000 4432 3811 
Q 4576 3622 4576 3302 
Q 4576 3110 4509 2934 
Q 4442 2758 4275 2560 
Q 4109 2362 3773 2189 
Q 3437 2016 2957 1888 
L 2957 1862 
Q 3219 1760 3382 1568 
Q 3546 1376 3610 1177 
Q 3674 979 3731 796 
Q 3789 614 3897 496 
Q 4006 378 4205 378 
Q 4659 378 5120 826 
z
" transform="scale(0.015625)"/>
       <path id="DejaVuSans-28" d="M 1984 4856 
Q 1566 4138 1362 3434 
Q 1159 2731 1159 2009 
Q 1159 1288 1364 580 
Q 1569 -128 1984 -844 
L 1484 -844 
Q 1016 -109 783 600 
Q 550 1309 550 2009 
Q 550 2706 781 3412 
Q 1013 4119 1484 4856 
L 1984 4856 
z
" transform="scale(0.015625)"/>
       <path id="DejaVuSans-29" d="M 513 4856 
L 1013 4856 
Q 1481 4119 1714 3412 
Q 1947 2706 1947 2009 
Q 1947 1309 1714 600 
Q 1481 -109 1013 -844 
L 513 -844 
Q 928 -128 1133 580 
Q 1338 1288 1338 2009 
Q 1338 2731 1133 3434 
Q 928 4138 513 4856 
z
" transform="scale(0.015625)"/>
      </defs>
      <use xlink:href="#DejaVuSans-51" transform="translate(0 0.015625)"/>
      <use xlink:href="#DejaVuSans-46" transform="translate(78.710938 0.015625)"/>
      <use xlink:href="#DejaVuSans-49" transform="translate(136.230469 0.015625)"/>
      <use xlink:href="#DejaVuSans-20" transform="translate(165.722656 0.015625)"/>
      <use xlink:href="#DejaVuSans-70" transform="translate(197.509766 0.015625)"/>
      <use xlink:href="#DejaVuSans-72" transform="translate(260.986328 0.015625)"/>
      <use xlink:href="#DejaVuSans-65" transform="translate(302.099609 0.015625)"/>
      <use xlink:href="#DejaVuSans-73" transform="translate(363.623047 0.015625)"/>
      <use xlink:href="#DejaVuSans-65" transform="translate(415.722656 0.015625)"/>
      <use xlink:href="#DejaVuSans-72" transform="translate(477.246094 0.015625)"/>
      <use xlink:href="#DejaVuSans-76" transform="translate(518.359375 0.015625)"/>
      <use xlink:href="#DejaVuSans-61" transform="translate(577.539062 0.015625)"/>
      <use xlink:href="#DejaVuSans-74" transform="translate(638.818359 0.015625)"/>
      <use xlink:href="#DejaVuSans-69" transform="translate(678.027344 0.015625)"/>
      <use xlink:href="#DejaVuSans-6f" transform="translate(705.810547 0.015625)"/>
      <use xlink:href="#DejaVuSans-6e" transform="translate(766.992188 0.015625)"/>
      <use xlink:href="#DejaVuSans-20" transform="translate(830.371094 0.015625)"/>
      <use xlink:href="#DejaVuSans-72" transform="translate(862.158203 0.015625)"/>
      <use xlink:href="#DejaVuSans-61" transform="translate(903.271484 0.015625)"/>
      <use xlink:href="#DejaVuSans-74" transform="translate(964.550781 0.015625)"/>
      <use xlink:href="#DejaVuSans-69" transform="translate(1003.759766 0.015625)"/>
      <use xlink:href="#DejaVuSans-6f" transform="translate(1031.542969 0.015625)"/>
      <use xlink:href="#DejaVuSans-20" transform="translate(1092.724609 0.015625)"/>
      <use xlink:href="#STIXNonUnicode-Italic-e23e" transform="translate(1124.511719 0.015625)"/>
      <use xlink:href="#DejaVuSans-28" transform="translate(1209.911713 0.015625)"/>
      <use xlink:href="#DejaVuSans-Oblique-54" transform="translate(1248.925385 0.015625)"/>
      <use xlink:href="#DejaVuSans-29" transform="translate(1310.009369 0.015625)"/>
     </g>
    </g>
   </g>
   <g id="line2d_14">
    <path d="M 72.650227 347.035693 
L 90.192045 347.732758 
L 107.733864 349.530947 
L 125.275682 351.855692 
L 142.8175 354.175635 
L 160.359318 356.139841 
L 177.901136 357.575091 
L 195.442955 358.429477 
L 212.984773 358.717827 
L 230.526591 358.485076 
L 248.068409 357.785857 
L 265.610227 356.674604 
L 283.152045 355.201158 
L 300.693864 353.409119 
L 318.235682 351.335997 
L 335.7775 349.014153 
L 353.319318 346.471816 
L 370.861136 343.735077 
L 388.402955 340.830825 
L 405.944773 337.788396 
L 423.486591 334.638886 
L 441.028409 331.413642 
L 458.570227 328.143365 
L 476.112045 324.857667 
L 493.653864 321.58444 
L 511.195682 318.348942 
L 528.7375 315.172979 
L 546.279318 312.074468 
L 563.821136 309.06747 
L 581.362955 306.162547 
L 598.904773 303.36734 
" clip-path="url(#p70582b0308)" style="fill: none; stroke-dasharray: 1.5,2.475; stroke-dashoffset: 0; stroke: #463480; stroke-opacity: 0.5; stroke-width: 1.5"/>
   </g>
   <g id="line2d_15">
    <path d="M 72.650227 347.035693 
L 90.192045 347.023848 
L 107.733864 346.867691 
L 125.275682 346.304003 
L 142.8175 345.082758 
L 160.359318 343.045994 
L 177.901136 340.131008 
L 195.442955 336.342371 
L 212.984773 331.722911 
L 230.526591 326.333675 
L 248.068409 320.243239 
L 265.610227 313.523909 
L 283.152045 306.251787 
L 300.693864 298.507825 
L 318.235682 290.3777 
L 335.7775 281.949826 
L 353.319318 273.312313 
L 370.861136 264.550002 
L 388.402955 255.742066 
L 405.944773 246.960125 
L 423.486591 238.266905 
L 441.028409 229.715501 
L 458.570227 221.349306 
L 476.112045 213.202459 
L 493.653864 205.30067 
L 511.195682 197.66227 
L 528.7375 190.299355 
L 546.279318 183.21892 
L 563.821136 176.423877 
L 581.362955 169.913941 
L 598.904773 163.686341 
" clip-path="url(#p70582b0308)" style="fill: none; stroke: #2b748e; stroke-opacity: 0.8; stroke-width: 2; stroke-linecap: round"/>
   </g>
   <g id="line2d_16">
    <path d="M 72.650227 347.035693 
L 90.192045 346.314938 
L 107.733864 344.204435 
L 125.275682 340.752315 
L 142.8175 335.989881 
L 160.359318 329.952149 
L 177.901136 322.686949 
L 195.442955 314.255488 
L 212.984773 304.729411 
L 230.526591 294.188692 
L 248.068409 282.722638 
L 265.610227 270.433544 
L 283.152045 257.440362 
L 300.693864 243.879423 
L 318.235682 229.900871 
L 335.7775 215.661705 
L 353.319318 201.317496 
L 370.861136 187.014578 
L 388.402955 172.883838 
L 405.944773 159.036567 
L 423.486591 145.562459 
L 441.028409 132.529529 
L 458.570227 119.985515 
L 476.112045 107.960237 
L 493.653864 96.468433 
L 511.195682 85.512702 
L 528.7375 75.086287 
L 546.279318 65.175547 
L 563.821136 55.762054 
L 581.362955 46.824283 
L 598.904773 38.338944 
" clip-path="url(#p70582b0308)" style="fill: none; stroke: #25ac82; stroke-opacity: 0.8; stroke-width: 2; stroke-linecap: round"/>
   </g>
   <g id="line2d_17">
    <path d="M 72.650227 347.035693 
L 90.192045 347.023848 
L 107.733864 346.867691 
L 125.275682 346.304003 
L 142.8175 345.082758 
L 160.359318 343.045994 
L 177.901136 340.131008 
L 195.442955 336.342371 
L 212.984773 331.722911 
L 230.526591 326.333675 
L 248.068409 320.243239 
L 265.610227 313.523909 
L 283.152045 306.251787 
L 300.693864 298.507825 
L 318.235682 290.3777 
L 335.7775 281.949826 
L 353.319318 273.312313 
L 370.861136 264.550002 
L 388.402955 255.742066 
L 405.944773 246.960125 
L 423.486591 238.266905 
L 441.028409 229.715501 
L 458.570227 221.349306 
L 476.112045 213.202459 
L 493.653864 205.30067 
L 511.195682 197.66227 
L 528.7375 190.299355 
L 546.279318 183.21892 
L 563.821136 176.423877 
L 581.362955 169.913941 
L 598.904773 163.686341 
" clip-path="url(#p70582b0308)" style="fill: none; stroke: #9bd93c; stroke-opacity: 0.8; stroke-width: 2; stroke-linecap: round"/>
   </g>
   <g id="patch_3">
    <path d="M 46.3375 373.62 
L 46.3375 22.32 
" style="fill: none; stroke: #cccccc; stroke-width: 1.25; stroke-linejoin: miter; stroke-linecap: square"/>
   </g>
   <g id="patch_4">
    <path d="M 625.2175 373.62 
L 625.2175 22.32 
" style="fill: none; stroke: #cccccc; stroke-width: 1.25; stroke-linejoin: miter; stroke-linecap: square"/>
   </g>
   <g id="patch_5">
    <path d="M 46.3375 373.62 
L 625.2175 373.62 
" style="fill: none; stroke: #cccccc; stroke-width: 1.25; stroke-linejoin: miter; stroke-linecap: square"/>
   </g>
   <g id="patch_6">
    <path d="M 46.3375 22.32 
L 625.2175 22.32 
" style="fill: none; stroke: #cccccc; stroke-width: 1.25; stroke-linejoin: miter; stroke-linecap: square"/>
   </g>
   <g id="text_16">
    <!-- QFI Trajectories at $\lambda = 1.000$ -->
    <g style="fill: #262626" transform="translate(250.5175 16.32) scale(0.12 -0.12)">
     <defs>
      <path id="DejaVuSans-54" d="M -19 4666 
L 3928 4666 
L 3928 4134 
L 2272 4134 
L 2272 0 
L 1638 0 
L 1638 4134 
L -19 4134 
L -19 4666 
z
" transform="scale(0.015625)"/>
      <path id="DejaVuSans-6a" d="M 603 3500 
L 1178 3500 
L 1178 -63 
Q 1178 -731 923 -1031 
Q 669 -1331 103 -1331 
L -116 -1331 
L -116 -844 
L 38 -844 
Q 366 -844 484 -692 
Q 603 -541 603 -63 
L 603 3500 
z
M 603 4863 
L 1178 4863 
L 1178 4134 
L 603 4134 
L 603 4863 
z
" transform="scale(0.015625)"/>
      <path id="DejaVuSans-63" d="M 3122 3366 
L 3122 2828 
Q 2878 2963 2633 3030 
Q 2388 3097 2138 3097 
Q 1578 3097 1268 2742 
Q 959 2388 959 1747 
Q 959 1106 1268 751 
Q 1578 397 2138 397 
Q 2388 397 2633 464 
Q 2878 531 3122 666 
L 3122 134 
Q 2881 22 2623 -34 
Q 2366 -91 2075 -91 
Q 1284 -91 818 406 
Q 353 903 353 1747 
Q 353 2603 823 3093 
Q 1294 3584 2113 3584 
Q 2378 3584 2631 3529 
Q 2884 3475 3122 3366 
z
" transform="scale(0.015625)"/>
      <path id="DejaVuSans-Oblique-3bb" d="M 2350 4316 
L 3125 0 
L 2516 0 
L 2038 2588 
L 328 0 
L -281 0 
L 1903 3356 
L 1794 3975 
Q 1725 4369 1391 4369 
L 1091 4369 
L 1184 4863 
L 1550 4856 
Q 2253 4847 2350 4316 
z
" transform="scale(0.015625)"/>
      <path id="DejaVuSans-3d" d="M 678 2906 
L 4684 2906 
L 4684 2381 
L 678 2381 
L 678 2906 
z
M 678 1631 
L 4684 1631 
L 4684 1100 
L 678 1100 
L 678 1631 
z
" transform="scale(0.015625)"/>
      <path id="DejaVuSans-2e" d="M 684 794 
L 1344 794 
L 1344 0 
L 684 0 
L 684 794 
z
" transform="scale(0.015625)"/>
     </defs>
     <use xlink:href="#DejaVuSans-51" transform="translate(0 0.015625)"/>
     <use xlink:href="#DejaVuSans-46" transform="translate(78.710938 0.015625)"/>
     <use xlink:href="#DejaVuSans-49" transform="translate(136.230469 0.015625)"/>
     <use xlink:href="#DejaVuSans-20" transform="translate(165.722656 0.015625)"/>
     <use xlink:href="#DejaVuSans-54" transform="translate(197.509766 0.015625)"/>
     <use xlink:href="#DejaVuSans-72" transform="translate(258.59375 0.015625)"/>
     <use xlink:href="#DejaVuSans-61" transform="translate(299.707031 0.015625)"/>
     <use xlink:href="#DejaVuSans-6a" transform="translate(360.986328 0.015625)"/>
     <use xlink:href="#DejaVuSans-65" transform="translate(388.769531 0.015625)"/>
     <use xlink:href="#DejaVuSans-63" transform="translate(450.292969 0.015625)"/>
     <use xlink:href="#DejaVuSans-74" transform="translate(505.273438 0.015625)"/>
     <use xlink:href="#DejaVuSans-6f" transform="translate(544.482422 0.015625)"/>
     <use xlink:href="#DejaVuSans-72" transform="translate(605.664062 0.015625)"/>
     <use xlink:href="#DejaVuSans-69" transform="translate(646.777344 0.015625)"/>
     <use xlink:href="#DejaVuSans-65" transform="translate(674.560547 0.015625)"/>
     <use xlink:href="#DejaVuSans-73" transform="translate(736.083984 0.015625)"/>
     <use xlink:href="#DejaVuSans-20" transform="translate(788.183594 0.015625)"/>
     <use xlink:href="#DejaVuSans-61" transform="translate(819.970703 0.015625)"/>
     <use xlink:href="#DejaVuSans-74" transform="translate(881.25 0.015625)"/>
     <use xlink:href="#DejaVuSans-20" transform="translate(920.458984 0.015625)"/>
     <use xlink:href="#DejaVuSans-Oblique-3bb" transform="translate(952.246094 0.015625)"/>
     <use xlink:href="#DejaVuSans-3d" transform="translate(1030.908203 0.015625)"/>
     <use xlink:href="#DejaVuSans-31" transform="translate(1134.179688 0.015625)"/>
     <use xlink:href="#DejaVuSans-2e" transform="translate(1197.802734 0.015625)"/>
     <use xlink:href="#DejaVuSans-30" transform="translate(1229.589844 0.015625)"/>
     <use xlink:href="#DejaVuSans-30" transform="translate(1293.212891 0.015625)"/>
     <use xlink:href="#DejaVuSans-30" transform="translate(1356.835938 0.015625)"/>
    </g>
   </g>
   <g id="legend_1">
    <g id="patch_7">
     <path d="M 52.6375 82.36125 
L 156.8575 82.36125 
Q 158.6575 82.36125 158.6575 80.56125 
L 158.6575 28.62 
Q 158.6575 26.82 156.8575 26.82 
L 52.6375 26.82 
Q 50.8375 26.82 50.8375 28.62 
L 50.8375 80.56125 
Q 50.8375 82.36125 52.6375 82.36125 
z
" style="fill: #ffffff; opacity: 0.8; stroke: #cccccc; stroke-linejoin: miter"/>
    </g>
    <g id="line2d_18">
     <path d="M 54.4375 34.108594 
L 63.4375 34.108594 
L 72.4375 34.108594 
" style="fill: none; stroke-dasharray: 1.5,2.475; stroke-dashoffset: 0; stroke: #463480; stroke-opacity: 0.5; stroke-width: 1.5"/>
    </g>
    <g id="text_17">
     <!-- $\theta = 0$ (no ancilla) -->
     <g style="fill: #262626" transform="translate(79.6375 37.258594) scale(0.09 -0.09)">
      <defs>
       <path id="DejaVuSans-Oblique-3b8" d="M 2913 2219 
L 925 2219 
Q 791 1284 928 888 
Q 1100 400 1566 400 
Q 2034 400 2391 891 
Q 2703 1322 2913 2219 
z
M 3009 2750 
Q 3094 3638 2984 3950 
Q 2813 4444 2353 4444 
Q 1875 4444 1525 3956 
Q 1250 3563 1034 2750 
L 3009 2750 
z
M 2444 4913 
Q 3194 4913 3494 4250 
Q 3794 3591 3566 2422 
Q 3341 1256 2781 594 
Q 2225 -72 1475 -72 
Q 722 -72 425 594 
Q 128 1256 353 2422 
Q 581 3591 1134 4250 
Q 1691 4913 2444 4913 
z
" transform="scale(0.015625)"/>
      </defs>
      <use xlink:href="#DejaVuSans-Oblique-3b8" transform="translate(0 0.234375)"/>
      <use xlink:href="#DejaVuSans-3d" transform="translate(80.664062 0.234375)"/>
      <use xlink:href="#DejaVuSans-30" transform="translate(183.935547 0.234375)"/>
      <use xlink:href="#DejaVuSans-20" transform="translate(247.558594 0.234375)"/>
      <use xlink:href="#DejaVuSans-28" transform="translate(279.345703 0.234375)"/>
      <use xlink:href="#DejaVuSans-6e" transform="translate(318.359375 0.234375)"/>
      <use xlink:href="#DejaVuSans-6f" transform="translate(381.738281 0.234375)"/>
      <use xlink:href="#DejaVuSans-20" transform="translate(442.919922 0.234375)"/>
      <use xlink:href="#DejaVuSans-61" transform="translate(474.707031 0.234375)"/>
      <use xlink:href="#DejaVuSans-6e" transform="translate(535.986328 0.234375)"/>
      <use xlink:href="#DejaVuSans-63" transform="translate(599.365234 0.234375)"/>
      <use xlink:href="#DejaVuSans-69" transform="translate(654.345703 0.234375)"/>
      <use xlink:href="#DejaVuSans-6c" transform="translate(682.128906 0.234375)"/>
      <use xlink:href="#DejaVuSans-6c" transform="translate(709.912109 0.234375)"/>
      <use xlink:href="#DejaVuSans-61" transform="translate(737.695312 0.234375)"/>
      <use xlink:href="#DejaVuSans-29" transform="translate(798.974609 0.234375)"/>
     </g>
    </g>
    <g id="line2d_19">
     <path d="M 54.4375 47.318906 
L 63.4375 47.318906 
L 72.4375 47.318906 
" style="fill: none; stroke: #2b748e; stroke-opacity: 0.8; stroke-width: 2; stroke-linecap: round"/>
    </g>
    <g id="text_18">
     <!-- $\theta = 0.785$ -->
     <g style="fill: #262626" transform="translate(79.6375 50.468906) scale(0.09 -0.09)">
      <defs>
       <path id="DejaVuSans-37" d="M 525 4666 
L 3525 4666 
L 3525 4397 
L 1831 0 
L 1172 0 
L 2766 4134 
L 525 4134 
L 525 4666 
z
" transform="scale(0.015625)"/>
      </defs>
      <use xlink:href="#DejaVuSans-Oblique-3b8" transform="translate(0 0.234375)"/>
      <use xlink:href="#DejaVuSans-3d" transform="translate(80.664062 0.234375)"/>
      <use xlink:href="#DejaVuSans-30" transform="translate(183.935547 0.234375)"/>
      <use xlink:href="#DejaVuSans-2e" transform="translate(247.558594 0.234375)"/>
      <use xlink:href="#DejaVuSans-37" transform="translate(271.595703 0.234375)"/>
      <use xlink:href="#DejaVuSans-38" transform="translate(335.21875 0.234375)"/>
      <use xlink:href="#DejaVuSans-35" transform="translate(398.841797 0.234375)"/>
     </g>
    </g>
    <g id="line2d_20">
     <path d="M 54.4375 60.529219 
L 63.4375 60.529219 
L 72.4375 60.529219 
" style="fill: none; stroke: #25ac82; stroke-opacity: 0.8; stroke-width: 2; stroke-linecap: round"/>
    </g>
    <g id="text_19">
     <!-- $\theta = 1.571$ -->
     <g style="fill: #262626" transform="translate(79.6375 63.679219) scale(0.09 -0.09)">
      <use xlink:href="#DejaVuSans-Oblique-3b8" transform="translate(0 0.234375)"/>
      <use xlink:href="#DejaVuSans-3d" transform="translate(80.664062 0.234375)"/>
      <use xlink:href="#DejaVuSans-31" transform="translate(183.935547 0.234375)"/>
      <use xlink:href="#DejaVuSans-2e" transform="translate(247.558594 0.234375)"/>
      <use xlink:href="#DejaVuSans-35" transform="translate(279.345703 0.234375)"/>
      <use xlink:href="#DejaVuSans-37" transform="translate(335.71875 0.234375)"/>
      <use xlink:href="#DejaVuSans-31" transform="translate(399.341797 0.234375)"/>
     </g>
    </g>
    <g id="line2d_21">
     <path d="M 54.4375 73.739531 
L 63.4375 73.739531 
L 72.4375 73.739531 
" style="fill: none; stroke: #9bd93c; stroke-opacity: 0.8; stroke-width: 2; stroke-linecap: round"/>
    </g>
    <g id="text_20">
     <!-- $\theta = 2.356$ -->
     <g style="fill: #262626" transform="translate(79.6375 76.889531) scale(0.09 -0.09)">
      <use xlink:href="#DejaVuSans-Oblique-3b8" transform="translate(0 0.234375)"/>
      <use xlink:href="#DejaVuSans-3d" transform="translate(80.664062 0.234375)"/>
      <use xlink:href="#DejaVuSans-32" transform="translate(183.935547 0.234375)"/>
      <use xlink:href="#DejaVuSans-2e" transform="translate(247.558594 0.234375)"/>
      <use xlink:href="#DejaVuSans-33" transform="translate(279.345703 0.234375)"/>
      <use xlink:href="#DejaVuSans-35" transform="translate(342.96875 0.234375)"/>
      <use xlink:href="#DejaVuSans-36" transform="translate(406.591797 0.234375)"/>
     </g>
    </g>
   </g>
  </g>
 </g>
 <defs>
  <clipPath id="p70582b0308">
   <rect x="46.3375" y="22.32" width="578.88" height="351.3"/>
  </clipPath>
 </defs>
</svg>
