<?xml version="1.0" encoding="utf-8" standalone="no"?>
<!DOCTYPE svg PUBLIC "-//W3C//DTD SVG 1.1//EN"
  "http://www.w3.org/Graphics/SVG/1.1/DTD/svg11.dtd">
<svg xmlns:xlink="http://www.w3.org/1999/xlink" width="992.25875pt" height="348.635687pt" viewBox="0 0 992.25875 348.635687" xmlns="http://www.w3.org/2000/svg" version="1.1">
 <metadata>
  <rdf:RDF xmlns:dc="http://purl.org/dc/elements/1.1/" xmlns:cc="http://creativecommons.org/ns#" xmlns:rdf="http://www.w3.org/1999/02/22-rdf-syntax-ns#">
   <cc:Work>
    <dc:type rdf:resource="http://purl.org/dc/dcmitype/StillImage"/>
    <dc:date>2026-06-10T15:07:39.061769</dc:date>
    <dc:format>image/svg+xml</dc:format>
    <dc:creator>
     <cc:Agent>
      <dc:title>Matplotlib v3.10.9, https://matplotlib.org/</dc:title>
     </cc:Agent>
    </dc:creator>
   </cc:Work>
  </rdf:RDF>
 </metadata>
 <defs>
  <style type="text/css">*{stroke-linejoin: round; stroke-linecap: butt}</style>
 </defs>
 <g id="figure_1">
  <g id="patch_1">
   <path d="M 0 348.635687 
L 992.25875 348.635687 
L 992.25875 0 
L 0 0 
z
" style="fill: #ffffff"/>
  </g>
  <g id="axes_1">
   <g id="patch_2">
    <path d="M 39.33875 305.676 
L 483.03875 305.676 
L 483.03875 59.28 
L 39.33875 59.28 
z
" style="fill: #ffffff"/>
   </g>
   <g id="matplotlib.axis_1">
    <g id="xtick_1">
     <g id="line2d_1">
      <path d="M 112.276585 305.676 
L 112.276585 59.28 
" clip-path="url(#p860c722c7e)" style="fill: none; stroke: #cccccc; stroke-opacity: 0.3; stroke-linecap: round"/>
     </g>
     <g id="text_1">
      <!-- $\mathdefault{10^{-1}}$ -->
      <g style="fill: #262626" transform="translate(99.351585 323.534281) scale(0.11 -0.11)">
       <defs>
        <path id="DejaVuSans-31" d="M 794 531 
L 1825 531 
L 1825 4091 
L 703 3866 
L 703 4441 
L 1819 4666 
L 2450 4666 
L 2450 531 
L 3481 531 
L 3481 0 
L 794 0 
L 794 531 
z
" transform="scale(0.015625)"/>
        <path id="DejaVuSans-30" d="M 2034 4250 
Q 1547 4250 1301 3770 
Q 1056 3291 1056 2328 
Q 1056 1369 1301 889 
Q 1547 409 2034 409 
Q 2525 409 2770 889 
Q 3016 1369 3016 2328 
Q 3016 3291 2770 3770 
Q 2525 4250 2034 4250 
z
M 2034 4750 
Q 2819 4750 3233 4129 
Q 3647 3509 3647 2328 
Q 3647 1150 3233 529 
Q 2819 -91 2034 -91 
Q 1250 -91 836 529 
Q 422 1150 422 2328 
Q 422 3509 836 4129 
Q 1250 4750 2034 4750 
z
" transform="scale(0.015625)"/>
        <path id="DejaVuSans-2212" d="M 678 2272 
L 4684 2272 
L 4684 1741 
L 678 1741 
L 678 2272 
z
" transform="scale(0.015625)"/>
       </defs>
       <use xlink:href="#DejaVuSans-31" transform="translate(0 0.684375)"/>
       <use xlink:href="#DejaVuSans-30" transform="translate(63.623047 0.684375)"/>
       <use xlink:href="#DejaVuSans-2212" transform="translate(128.203125 38.965625) scale(0.7)"/>
       <use xlink:href="#DejaVuSans-31" transform="translate(186.855469 38.965625) scale(0.7)"/>
      </g>
     </g>
    </g>
    <g id="xtick_2">
     <g id="line2d_2">
      <path d="M 287.573576 305.676 
L 287.573576 59.28 
" clip-path="url(#p860c722c7e)" style="fill: none; stroke: #cccccc; stroke-opacity: 0.3; stroke-linecap: round"/>
     </g>
     <g id="text_2">
      <!-- $\mathdefault{10^{0}}$ -->
      <g style="fill: #262626" transform="translate(277.893576 323.534281) scale(0.11 -0.11)">
       <use xlink:href="#DejaVuSans-31" transform="translate(0 0.765625)"/>
       <use xlink:href="#DejaVuSans-30" transform="translate(63.623047 0.765625)"/>
       <use xlink:href="#DejaVuSans-30" transform="translate(128.203125 39.046875) scale(0.7)"/>
      </g>
     </g>
    </g>
    <g id="xtick_3">
     <g id="line2d_3">
      <path d="M 462.870568 305.676 
L 462.870568 59.28 
" clip-path="url(#p860c722c7e)" style="fill: none; stroke: #cccccc; stroke-opacity: 0.3; stroke-linecap: round"/>
     </g>
     <g id="text_3">
      <!-- $\mathdefault{10^{1}}$ -->
      <g style="fill: #262626" transform="translate(453.190568 323.534281) scale(0.11 -0.11)">
       <use xlink:href="#DejaVuSans-31" transform="translate(0 0.684375)"/>
       <use xlink:href="#DejaVuSans-30" transform="translate(63.623047 0.684375)"/>
       <use xlink:href="#DejaVuSans-31" transform="translate(128.203125 38.965625) scale(0.7)"/>
      </g>
     </g>
    </g>
    <g id="xtick_4"/>
    <g id="xtick_5"/>
    <g id="xtick_6"/>
    <g id="xtick_7"/>
    <g id="xtick_8"/>
    <g id="xtick_9"/>
    <g id="xtick_10"/>
    <g id="xtick_11"/>
    <g id="xtick_12"/>
    <g id="xtick_13"/>
    <g id="xtick_14"/>
    <g id="xtick_15"/>
    <g id="xtick_16"/>
    <g id="xtick_17"/>
    <g id="xtick_18"/>
    <g id="xtick_19"/>
    <g id="xtick_20"/>
    <g id="xtick_21"/>
    <g id="xtick_22"/>
    <g id="xtick_23"/>
    <g id="xtick_24"/>
    <g id="xtick_25"/>
    <g id="text_4">
     <!-- $\lambda$ (bath correlation rate) -->
     <g style="fill: #262626" transform="translate(188.94875 338.940062) scale(0.12 -0.12)">
      <defs>
       <path id="DejaVuSans-Oblique-3bb" d="M 2350 4316 
L 3125 0 
L 2516 0 
L 2038 2588 
L 328 0 
L -281 0 
L 1903 3356 
L 1794 3975 
Q 1725 4369 1391 4369 
L 1091 4369 
L 1184 4863 
L 1550 4856 
Q 2253 4847 2350 4316 
z
" transform="scale(0.015625)"/>
       <path id="DejaVuSans-20" transform="scale(0.015625)"/>
       <path id="DejaVuSans-28" d="M 1984 4856 
Q 1566 4138 1362 3434 
Q 1159 2731 1159 2009 
Q 1159 1288 1364 580 
Q 1569 -128 1984 -844 
L 1484 -844 
Q 1016 -109 783 600 
Q 550 1309 550 2009 
Q 550 2706 781 3412 
Q 1013 4119 1484 4856 
L 1984 4856 
z
" transform="scale(0.015625)"/>
       <path id="DejaVuSans-62" d="M 3116 1747 
Q 3116 2381 2855 2742 
Q 2594 3103 2138 3103 
Q 1681 3103 1420 2742 
Q 1159 2381 1159 1747 
Q 1159 1113 1420 752 
Q 1681 391 2138 391 
Q 2594 391 2855 752 
Q 3116 1113 3116 1747 
z
M 1159 2969 
Q 1341 3281 1617 3432 
Q 1894 3584 2278 3584 
Q 2916 3584 3314 3078 
Q 3713 2572 3713 1747 
Q 3713 922 3314 415 
Q 2916 -91 2278 -91 
Q 1894 -91 1617 61 
Q 1341 213 1159 525 
L 1159 0 
L 581 0 
L 581 4863 
L 1159 4863 
L 1159 2969 
z
" transform="scale(0.015625)"/>
       <path id="DejaVuSans-61" d="M 2194 1759 
Q 1497 1759 1228 1600 
Q 959 1441 959 1056 
Q 959 750 1161 570 
Q 1363 391 1709 391 
Q 2188 391 2477 730 
Q 2766 1069 2766 1631 
L 2766 1759 
L 2194 1759 
z
M 3341 1997 
L 3341 0 
L 2766 0 
L 2766 531 
Q 2569 213 2275 61 
Q 1981 -91 1556 -91 
Q 1019 -91 701 211 
Q 384 513 384 1019 
Q 384 1609 779 1909 
Q 1175 2209 1959 2209 
L 2766 2209 
L 2766 2266 
Q 2766 2663 2505 2880 
Q 2244 3097 1772 3097 
Q 1472 3097 1187 3025 
Q 903 2953 641 2809 
L 641 3341 
Q 956 3463 1253 3523 
Q 1550 3584 1831 3584 
Q 2591 3584 2966 3190 
Q 3341 2797 3341 1997 
z
" transform="scale(0.015625)"/>
       <path id="DejaVuSans-74" d="M 1172 4494 
L 1172 3500 
L 2356 3500 
L 2356 3053 
L 1172 3053 
L 1172 1153 
Q 1172 725 1289 603 
Q 1406 481 1766 481 
L 2356 481 
L 2356 0 
L 1766 0 
Q 1100 0 847 248 
Q 594 497 594 1153 
L 594 3053 
L 172 3053 
L 172 3500 
L 594 3500 
L 594 4494 
L 1172 4494 
z
" transform="scale(0.015625)"/>
       <path id="DejaVuSans-68" d="M 3513 2113 
L 3513 0 
L 2938 0 
L 2938 2094 
Q 2938 2591 2744 2837 
Q 2550 3084 2163 3084 
Q 1697 3084 1428 2787 
Q 1159 2491 1159 1978 
L 1159 0 
L 581 0 
L 581 4863 
L 1159 4863 
L 1159 2956 
Q 1366 3272 1645 3428 
Q 1925 3584 2291 3584 
Q 2894 3584 3203 3211 
Q 3513 2838 3513 2113 
z
" transform="scale(0.015625)"/>
       <path id="DejaVuSans-63" d="M 3122 3366 
L 3122 2828 
Q 2878 2963 2633 3030 
Q 2388 3097 2138 3097 
Q 1578 3097 1268 2742 
Q 959 2388 959 1747 
Q 959 1106 1268 751 
Q 1578 397 2138 397 
Q 2388 397 2633 464 
Q 2878 531 3122 666 
L 3122 134 
Q 2881 22 2623 -34 
Q 2366 -91 2075 -91 
Q 1284 -91 818 406 
Q 353 903 353 1747 
Q 353 2603 823 3093 
Q 1294 3584 2113 3584 
Q 2378 3584 2631 3529 
Q 2884 3475 3122 3366 
z
" transform="scale(0.015625)"/>
       <path id="DejaVuSans-6f" d="M 1959 3097 
Q 1497 3097 1228 2736 
Q 959 2375 959 1747 
Q 959 1119 1226 758 
Q 1494 397 1959 397 
Q 2419 397 2687 759 
Q 2956 1122 2956 1747 
Q 2956 2369 2687 2733 
Q 2419 3097 1959 3097 
z
M 1959 3584 
Q 2709 3584 3137 3096 
Q 3566 2609 3566 1747 
Q 3566 888 3137 398 
Q 2709 -91 1959 -91 
Q 1206 -91 779 398 
Q 353 888 353 1747 
Q 353 2609 779 3096 
Q 1206 3584 1959 3584 
z
" transform="scale(0.015625)"/>
       <path id="DejaVuSans-72" d="M 2631 2963 
Q 2534 3019 2420 3045 
Q 2306 3072 2169 3072 
Q 1681 3072 1420 2755 
Q 1159 2438 1159 1844 
L 1159 0 
L 581 0 
L 581 3500 
L 1159 3500 
L 1159 2956 
Q 1341 3275 1631 3429 
Q 1922 3584 2338 3584 
Q 2397 3584 2469 3576 
Q 2541 3569 2628 3553 
L 2631 2963 
z
" transform="scale(0.015625)"/>
       <path id="DejaVuSans-65" d="M 3597 1894 
L 3597 1613 
L 953 1613 
Q 991 1019 1311 708 
Q 1631 397 2203 397 
Q 2534 397 2845 478 
Q 3156 559 3463 722 
L 3463 178 
Q 3153 47 2828 -22 
Q 2503 -91 2169 -91 
Q 1331 -91 842 396 
Q 353 884 353 1716 
Q 353 2575 817 3079 
Q 1281 3584 2069 3584 
Q 2775 3584 3186 3129 
Q 3597 2675 3597 1894 
z
M 3022 2063 
Q 3016 2534 2758 2815 
Q 2500 3097 2075 3097 
Q 1594 3097 1305 2825 
Q 1016 2553 972 2059 
L 3022 2063 
z
" transform="scale(0.015625)"/>
       <path id="DejaVuSans-6c" d="M 603 4863 
L 1178 4863 
L 1178 0 
L 603 0 
L 603 4863 
z
" transform="scale(0.015625)"/>
       <path id="DejaVuSans-69" d="M 603 3500 
L 1178 3500 
L 1178 0 
L 603 0 
L 603 3500 
z
M 603 4863 
L 1178 4863 
L 1178 4134 
L 603 4134 
L 603 4863 
z
" transform="scale(0.015625)"/>
       <path id="DejaVuSans-6e" d="M 3513 2113 
L 3513 0 
L 2938 0 
L 2938 2094 
Q 2938 2591 2744 2837 
Q 2550 3084 2163 3084 
Q 1697 3084 1428 2787 
Q 1159 2491 1159 1978 
L 1159 0 
L 581 0 
L 581 3500 
L 1159 3500 
L 1159 2956 
Q 1366 3272 1645 3428 
Q 1925 3584 2291 3584 
Q 2894 3584 3203 3211 
Q 3513 2838 3513 2113 
z
" transform="scale(0.015625)"/>
       <path id="DejaVuSans-29" d="M 513 4856 
L 1013 4856 
Q 1481 4119 1714 3412 
Q 1947 2706 1947 2009 
Q 1947 1309 1714 600 
Q 1481 -109 1013 -844 
L 513 -844 
Q 928 -128 1133 580 
Q 1338 1288 1338 2009 
Q 1338 2731 1133 3434 
Q 928 4138 513 4856 
z
" transform="scale(0.015625)"/>
      </defs>
      <use xlink:href="#DejaVuSans-Oblique-3bb" transform="translate(0 0.015625)"/>
      <use xlink:href="#DejaVuSans-20" transform="translate(59.179688 0.015625)"/>
      <use xlink:href="#DejaVuSans-28" transform="translate(90.966797 0.015625)"/>
      <use xlink:href="#DejaVuSans-62" transform="translate(129.980469 0.015625)"/>
      <use xlink:href="#DejaVuSans-61" transform="translate(193.457031 0.015625)"/>
      <use xlink:href="#DejaVuSans-74" transform="translate(254.736328 0.015625)"/>
      <use xlink:href="#DejaVuSans-68" transform="translate(293.945312 0.015625)"/>
      <use xlink:href="#DejaVuSans-20" transform="translate(357.324219 0.015625)"/>
      <use xlink:href="#DejaVuSans-63" transform="translate(389.111328 0.015625)"/>
      <use xlink:href="#DejaVuSans-6f" transform="translate(444.091797 0.015625)"/>
      <use xlink:href="#DejaVuSans-72" transform="translate(505.273438 0.015625)"/>
      <use xlink:href="#DejaVuSans-72" transform="translate(546.386719 0.015625)"/>
      <use xlink:href="#DejaVuSans-65" transform="translate(587.5 0.015625)"/>
      <use xlink:href="#DejaVuSans-6c" transform="translate(649.023438 0.015625)"/>
      <use xlink:href="#DejaVuSans-61" transform="translate(676.806641 0.015625)"/>
      <use xlink:href="#DejaVuSans-74" transform="translate(738.085938 0.015625)"/>
      <use xlink:href="#DejaVuSans-69" transform="translate(777.294922 0.015625)"/>
      <use xlink:href="#DejaVuSans-6f" transform="translate(805.078125 0.015625)"/>
      <use xlink:href="#DejaVuSans-6e" transform="translate(866.259766 0.015625)"/>
      <use xlink:href="#DejaVuSans-20" transform="translate(929.638672 0.015625)"/>
      <use xlink:href="#DejaVuSans-72" transform="translate(961.425781 0.015625)"/>
      <use xlink:href="#DejaVuSans-61" transform="translate(1002.539062 0.015625)"/>
      <use xlink:href="#DejaVuSans-74" transform="translate(1063.818359 0.015625)"/>
      <use xlink:href="#DejaVuSans-65" transform="translate(1103.027344 0.015625)"/>
      <use xlink:href="#DejaVuSans-29" transform="translate(1164.550781 0.015625)"/>
     </g>
    </g>
   </g>
   <g id="matplotlib.axis_2">
    <g id="ytick_1">
     <g id="line2d_4">
      <path d="M 39.33875 290.11012 
L 483.03875 290.11012 
" clip-path="url(#p860c722c7e)" style="fill: none; stroke: #cccccc; stroke-opacity: 0.3; stroke-linecap: round"/>
     </g>
     <g id="text_5">
      <!-- 1 -->
      <g style="fill: #262626" transform="translate(22.84 294.289261) scale(0.11 -0.11)">
       <use xlink:href="#DejaVuSans-31"/>
      </g>
     </g>
    </g>
    <g id="ytick_2">
     <g id="line2d_5">
      <path d="M 39.33875 241.684886 
L 483.03875 241.684886 
" clip-path="url(#p860c722c7e)" style="fill: none; stroke: #cccccc; stroke-opacity: 0.3; stroke-linecap: round"/>
     </g>
     <g id="text_6">
      <!-- 2 -->
      <g style="fill: #262626" transform="translate(22.84 245.864027) scale(0.11 -0.11)">
       <defs>
        <path id="DejaVuSans-32" d="M 1228 531 
L 3431 531 
L 3431 0 
L 469 0 
L 469 531 
Q 828 903 1448 1529 
Q 2069 2156 2228 2338 
Q 2531 2678 2651 2914 
Q 2772 3150 2772 3378 
Q 2772 3750 2511 3984 
Q 2250 4219 1831 4219 
Q 1534 4219 1204 4116 
Q 875 4013 500 3803 
L 500 4441 
Q 881 4594 1212 4672 
Q 1544 4750 1819 4750 
Q 2544 4750 2975 4387 
Q 3406 4025 3406 3419 
Q 3406 3131 3298 2873 
Q 3191 2616 2906 2266 
Q 2828 2175 2409 1742 
Q 1991 1309 1228 531 
z
" transform="scale(0.015625)"/>
       </defs>
       <use xlink:href="#DejaVuSans-32"/>
      </g>
     </g>
    </g>
    <g id="ytick_3">
     <g id="line2d_6">
      <path d="M 39.33875 193.259652 
L 483.03875 193.259652 
" clip-path="url(#p860c722c7e)" style="fill: none; stroke: #cccccc; stroke-opacity: 0.3; stroke-linecap: round"/>
     </g>
     <g id="text_7">
      <!-- 3 -->
      <g style="fill: #262626" transform="translate(22.84 197.438792) scale(0.11 -0.11)">
       <defs>
        <path id="DejaVuSans-33" d="M 2597 2516 
Q 3050 2419 3304 2112 
Q 3559 1806 3559 1356 
Q 3559 666 3084 287 
Q 2609 -91 1734 -91 
Q 1441 -91 1130 -33 
Q 819 25 488 141 
L 488 750 
Q 750 597 1062 519 
Q 1375 441 1716 441 
Q 2309 441 2620 675 
Q 2931 909 2931 1356 
Q 2931 1769 2642 2001 
Q 2353 2234 1838 2234 
L 1294 2234 
L 1294 2753 
L 1863 2753 
Q 2328 2753 2575 2939 
Q 2822 3125 2822 3475 
Q 2822 3834 2567 4026 
Q 2313 4219 1838 4219 
Q 1578 4219 1281 4162 
Q 984 4106 628 3988 
L 628 4550 
Q 988 4650 1302 4700 
Q 1616 4750 1894 4750 
Q 2613 4750 3031 4423 
Q 3450 4097 3450 3541 
Q 3450 3153 3228 2886 
Q 3006 2619 2597 2516 
z
" transform="scale(0.015625)"/>
       </defs>
       <use xlink:href="#DejaVuSans-33"/>
      </g>
     </g>
    </g>
    <g id="ytick_4">
     <g id="line2d_7">
      <path d="M 39.33875 144.834417 
L 483.03875 144.834417 
" clip-path="url(#p860c722c7e)" style="fill: none; stroke: #cccccc; stroke-opacity: 0.3; stroke-linecap: round"/>
     </g>
     <g id="text_8">
      <!-- 4 -->
      <g style="fill: #262626" transform="translate(22.84 149.013558) scale(0.11 -0.11)">
       <defs>
        <path id="DejaVuSans-34" d="M 2419 4116 
L 825 1625 
L 2419 1625 
L 2419 4116 
z
M 2253 4666 
L 3047 4666 
L 3047 1625 
L 3713 1625 
L 3713 1100 
L 3047 1100 
L 3047 0 
L 2419 0 
L 2419 1100 
L 313 1100 
L 313 1709 
L 2253 4666 
z
" transform="scale(0.015625)"/>
       </defs>
       <use xlink:href="#DejaVuSans-34"/>
      </g>
     </g>
    </g>
    <g id="ytick_5">
     <g id="line2d_8">
      <path d="M 39.33875 96.409183 
L 483.03875 96.409183 
" clip-path="url(#p860c722c7e)" style="fill: none; stroke: #cccccc; stroke-opacity: 0.3; stroke-linecap: round"/>
     </g>
     <g id="text_9">
      <!-- 5 -->
      <g style="fill: #262626" transform="translate(22.84 100.588324) scale(0.11 -0.11)">
       <defs>
        <path id="DejaVuSans-35" d="M 691 4666 
L 3169 4666 
L 3169 4134 
L 1269 4134 
L 1269 2991 
Q 1406 3038 1543 3061 
Q 1681 3084 1819 3084 
Q 2600 3084 3056 2656 
Q 3513 2228 3513 1497 
Q 3513 744 3044 326 
Q 2575 -91 1722 -91 
Q 1428 -91 1123 -41 
Q 819 9 494 109 
L 494 744 
Q 775 591 1075 516 
Q 1375 441 1709 441 
Q 2250 441 2565 725 
Q 2881 1009 2881 1497 
Q 2881 1984 2565 2268 
Q 2250 2553 1709 2553 
Q 1456 2553 1204 2497 
Q 953 2441 691 2322 
L 691 4666 
z
" transform="scale(0.015625)"/>
       </defs>
       <use xlink:href="#DejaVuSans-35"/>
      </g>
     </g>
    </g>
    <g id="text_10">
     <!-- QFI preservation ratio $\mathcal{R}$ -->
     <g style="fill: #262626" transform="translate(16.32 255.078) rotate(-90) scale(0.12 -0.12)">
      <defs>
       <path id="DejaVuSans-51" d="M 2522 4238 
Q 1834 4238 1429 3725 
Q 1025 3213 1025 2328 
Q 1025 1447 1429 934 
Q 1834 422 2522 422 
Q 3209 422 3611 934 
Q 4013 1447 4013 2328 
Q 4013 3213 3611 3725 
Q 3209 4238 2522 4238 
z
M 3406 84 
L 4238 -825 
L 3475 -825 
L 2784 -78 
Q 2681 -84 2626 -87 
Q 2572 -91 2522 -91 
Q 1538 -91 948 567 
Q 359 1225 359 2328 
Q 359 3434 948 4092 
Q 1538 4750 2522 4750 
Q 3503 4750 4090 4092 
Q 4678 3434 4678 2328 
Q 4678 1516 4351 937 
Q 4025 359 3406 84 
z
" transform="scale(0.015625)"/>
       <path id="DejaVuSans-46" d="M 628 4666 
L 3309 4666 
L 3309 4134 
L 1259 4134 
L 1259 2759 
L 3109 2759 
L 3109 2228 
L 1259 2228 
L 1259 0 
L 628 0 
L 628 4666 
z
" transform="scale(0.015625)"/>
       <path id="DejaVuSans-49" d="M 628 4666 
L 1259 4666 
L 1259 0 
L 628 0 
L 628 4666 
z
" transform="scale(0.015625)"/>
       <path id="DejaVuSans-70" d="M 1159 525 
L 1159 -1331 
L 581 -1331 
L 581 3500 
L 1159 3500 
L 1159 2969 
Q 1341 3281 1617 3432 
Q 1894 3584 2278 3584 
Q 2916 3584 3314 3078 
Q 3713 2572 3713 1747 
Q 3713 922 3314 415 
Q 2916 -91 2278 -91 
Q 1894 -91 1617 61 
Q 1341 213 1159 525 
z
M 3116 1747 
Q 3116 2381 2855 2742 
Q 2594 3103 2138 3103 
Q 1681 3103 1420 2742 
Q 1159 2381 1159 1747 
Q 1159 1113 1420 752 
Q 1681 391 2138 391 
Q 2594 391 2855 752 
Q 3116 1113 3116 1747 
z
" transform="scale(0.015625)"/>
       <path id="DejaVuSans-73" d="M 2834 3397 
L 2834 2853 
Q 2591 2978 2328 3040 
Q 2066 3103 1784 3103 
Q 1356 3103 1142 2972 
Q 928 2841 928 2578 
Q 928 2378 1081 2264 
Q 1234 2150 1697 2047 
L 1894 2003 
Q 2506 1872 2764 1633 
Q 3022 1394 3022 966 
Q 3022 478 2636 193 
Q 2250 -91 1575 -91 
Q 1294 -91 989 -36 
Q 684 19 347 128 
L 347 722 
Q 666 556 975 473 
Q 1284 391 1588 391 
Q 1994 391 2212 530 
Q 2431 669 2431 922 
Q 2431 1156 2273 1281 
Q 2116 1406 1581 1522 
L 1381 1569 
Q 847 1681 609 1914 
Q 372 2147 372 2553 
Q 372 3047 722 3315 
Q 1072 3584 1716 3584 
Q 2034 3584 2315 3537 
Q 2597 3491 2834 3397 
z
" transform="scale(0.015625)"/>
       <path id="DejaVuSans-76" d="M 191 3500 
L 800 3500 
L 1894 563 
L 2988 3500 
L 3597 3500 
L 2284 0 
L 1503 0 
L 191 3500 
z
" transform="scale(0.015625)"/>
       <path id="STIXNonUnicode-Italic-e23e" d="M 5120 826 
L 5222 710 
Q 4531 -19 3994 -19 
Q 3674 -19 3466 147 
Q 3258 314 3171 528 
Q 3085 742 2944 1046 
Q 2803 1350 2643 1536 
Q 2586 1606 2368 1734 
Q 2150 1862 2118 1862 
L 2176 2010 
Q 2963 2086 3436 2464 
Q 3910 2842 3910 3219 
Q 3910 3654 3657 3811 
Q 3405 3968 2765 3968 
Q 2605 3968 2544 3917 
Q 2483 3866 2451 3750 
L 1709 1216 
Q 1645 998 1593 857 
Q 1542 717 1433 537 
Q 1325 358 1193 252 
Q 1062 147 848 73 
Q 634 0 358 0 
L 416 154 
Q 608 154 707 314 
Q 806 474 934 902 
L 1517 2918 
Q 1709 3565 1709 3661 
Q 1709 3891 1414 3891 
Q 1254 3891 1113 3859 
Q 973 3827 845 3760 
Q 717 3693 646 3648 
Q 576 3603 467 3520 
Q 358 3437 346 3424 
L 243 3546 
Q 486 3795 723 3942 
Q 960 4090 1270 4150 
Q 1581 4211 1801 4224 
Q 2022 4237 2483 4237 
Q 3341 4237 3814 4118 
Q 4288 4000 4432 3811 
Q 4576 3622 4576 3302 
Q 4576 3110 4509 2934 
Q 4442 2758 4275 2560 
Q 4109 2362 3773 2189 
Q 3437 2016 2957 1888 
L 2957 1862 
Q 3219 1760 3382 1568 
Q 3546 1376 3610 1177 
Q 3674 979 3731 796 
Q 3789 614 3897 496 
Q 4006 378 4205 378 
Q 4659 378 5120 826 
z
" transform="scale(0.015625)"/>
      </defs>
      <use xlink:href="#DejaVuSans-51" transform="translate(0 0.015625)"/>
      <use xlink:href="#DejaVuSans-46" transform="translate(78.710938 0.015625)"/>
      <use xlink:href="#DejaVuSans-49" transform="translate(136.230469 0.015625)"/>
      <use xlink:href="#DejaVuSans-20" transform="translate(165.722656 0.015625)"/>
      <use xlink:href="#DejaVuSans-70" transform="translate(197.509766 0.015625)"/>
      <use xlink:href="#DejaVuSans-72" transform="translate(260.986328 0.015625)"/>
      <use xlink:href="#DejaVuSans-65" transform="translate(302.099609 0.015625)"/>
      <use xlink:href="#DejaVuSans-73" transform="translate(363.623047 0.015625)"/>
      <use xlink:href="#DejaVuSans-65" transform="translate(415.722656 0.015625)"/>
      <use xlink:href="#DejaVuSans-72" transform="translate(477.246094 0.015625)"/>
      <use xlink:href="#DejaVuSans-76" transform="translate(518.359375 0.015625)"/>
      <use xlink:href="#DejaVuSans-61" transform="translate(577.539062 0.015625)"/>
      <use xlink:href="#DejaVuSans-74" transform="translate(638.818359 0.015625)"/>
      <use xlink:href="#DejaVuSans-69" transform="translate(678.027344 0.015625)"/>
      <use xlink:href="#DejaVuSans-6f" transform="translate(705.810547 0.015625)"/>
      <use xlink:href="#DejaVuSans-6e" transform="translate(766.992188 0.015625)"/>
      <use xlink:href="#DejaVuSans-20" transform="translate(830.371094 0.015625)"/>
      <use xlink:href="#DejaVuSans-72" transform="translate(862.158203 0.015625)"/>
      <use xlink:href="#DejaVuSans-61" transform="translate(903.271484 0.015625)"/>
      <use xlink:href="#DejaVuSans-74" transform="translate(964.550781 0.015625)"/>
      <use xlink:href="#DejaVuSans-69" transform="translate(1003.759766 0.015625)"/>
      <use xlink:href="#DejaVuSans-6f" transform="translate(1031.542969 0.015625)"/>
      <use xlink:href="#DejaVuSans-20" transform="translate(1092.724609 0.015625)"/>
      <use xlink:href="#STIXNonUnicode-Italic-e23e" transform="translate(1124.511719 0.015625)"/>
     </g>
    </g>
   </g>
   <g id="line2d_9">
    <path d="M 59.506932 70.479818 
L 69.849589 71.020895 
L 80.192247 71.636423 
L 90.534904 72.336391 
L 100.877561 73.132082 
L 111.220219 74.036224 
L 121.562876 75.063137 
L 131.905533 76.22888 
L 142.248191 77.551384 
L 152.590848 79.050558 
L 162.933505 80.748364 
L 173.276163 82.668823 
L 183.61882 84.837962 
L 193.961477 87.283655 
L 204.304135 90.035354 
L 214.646792 93.123658 
L 224.989449 96.5797 
L 235.332107 100.434303 
L 245.674764 104.716859 
L 256.017421 109.453909 
L 266.360079 114.667389 
L 276.702736 120.372558 
L 287.045393 126.575654 
L 297.388051 133.271398 
L 307.730708 140.440519 
L 318.073365 148.047605 
L 328.416023 156.039606 
L 338.75868 164.345413 
L 349.101337 172.876865 
L 359.443995 181.531433 
L 369.786652 190.196638 
L 380.129309 198.75593 
L 390.471967 207.095506 
L 400.814624 215.11124 
L 411.157281 222.71481 
L 421.499939 229.838156 
L 431.842596 236.435688 
L 442.185253 242.484086 
L 452.527911 247.980015 
L 462.870568 252.936446 
" clip-path="url(#p860c722c7e)" style="fill: none; stroke: #4c72b0; stroke-width: 1.5; stroke-linecap: round"/>
   </g>
   <g id="line2d_10">
    <path d="M 59.506932 262.690538 
L 69.849589 262.79795 
L 80.192247 262.918692 
L 90.534904 263.054423 
L 100.877561 263.207049 
L 111.220219 263.378772 
L 121.562876 263.572131 
L 131.905533 263.790046 
L 142.248191 264.035848 
L 152.590848 264.313303 
L 162.933505 264.626612 
L 173.276163 264.980406 
L 183.61882 265.379711 
L 193.961477 265.829911 
L 204.304135 266.336685 
L 214.646792 266.905936 
L 224.989449 267.543681 
L 235.332107 268.255905 
L 245.674764 269.048345 
L 256.017421 269.926215 
L 266.360079 270.893833 
L 276.702736 271.954181 
L 287.045393 273.108381 
L 297.388051 274.35513 
L 307.730708 275.690119 
L 318.073365 277.105509 
L 328.416023 278.589515 
L 338.75868 280.126213 
L 349.101337 281.695654 
L 359.443995 283.27437 
L 369.786652 284.836316 
L 380.129309 286.354221 
L 390.471967 287.801236 
L 400.814624 289.152691 
L 411.157281 290.387754 
L 421.499939 291.490736 
L 431.842596 292.45189 
L 442.185253 293.267606 
L 452.527911 293.940023 
L 462.870568 294.476182 
" clip-path="url(#p860c722c7e)" style="fill: none; stroke-dasharray: 5.55,2.4; stroke-dashoffset: 0; stroke: #dd8452; stroke-width: 1.5"/>
   </g>
   <g id="patch_3">
    <path d="M 39.33875 305.676 
L 39.33875 59.28 
" style="fill: none; stroke: #cccccc; stroke-width: 1.25; stroke-linejoin: miter; stroke-linecap: square"/>
   </g>
   <g id="patch_4">
    <path d="M 483.03875 305.676 
L 483.03875 59.28 
" style="fill: none; stroke: #cccccc; stroke-width: 1.25; stroke-linejoin: miter; stroke-linecap: square"/>
   </g>
   <g id="patch_5">
    <path d="M 39.33875 305.676 
L 483.03875 305.676 
" style="fill: none; stroke: #cccccc; stroke-width: 1.25; stroke-linejoin: miter; stroke-linecap: square"/>
   </g>
   <g id="patch_6">
    <path d="M 39.33875 59.28 
L 483.03875 59.28 
" style="fill: none; stroke: #cccccc; stroke-width: 1.25; stroke-linejoin: miter; stroke-linecap: square"/>
   </g>
   <g id="text_11">
    <!-- QFI Preservation vs $\lambda$ -->
    <g style="fill: #262626" transform="translate(197.46875 53.28) scale(0.12 -0.12)">
     <defs>
      <path id="DejaVuSans-50" d="M 1259 4147 
L 1259 2394 
L 2053 2394 
Q 2494 2394 2734 2622 
Q 2975 2850 2975 3272 
Q 2975 3691 2734 3919 
Q 2494 4147 2053 4147 
L 1259 4147 
z
M 628 4666 
L 2053 4666 
Q 2838 4666 3239 4311 
Q 3641 3956 3641 3272 
Q 3641 2581 3239 2228 
Q 2838 1875 2053 1875 
L 1259 1875 
L 1259 0 
L 628 0 
L 628 4666 
z
" transform="scale(0.015625)"/>
     </defs>
     <use xlink:href="#DejaVuSans-51" transform="translate(0 0.015625)"/>
     <use xlink:href="#DejaVuSans-46" transform="translate(78.710938 0.015625)"/>
     <use xlink:href="#DejaVuSans-49" transform="translate(136.230469 0.015625)"/>
     <use xlink:href="#DejaVuSans-20" transform="translate(165.722656 0.015625)"/>
     <use xlink:href="#DejaVuSans-50" transform="translate(197.509766 0.015625)"/>
     <use xlink:href="#DejaVuSans-72" transform="translate(257.8125 0.015625)"/>
     <use xlink:href="#DejaVuSans-65" transform="translate(298.925781 0.015625)"/>
     <use xlink:href="#DejaVuSans-73" transform="translate(360.449219 0.015625)"/>
     <use xlink:href="#DejaVuSans-65" transform="translate(412.548828 0.015625)"/>
     <use xlink:href="#DejaVuSans-72" transform="translate(474.072266 0.015625)"/>
     <use xlink:href="#DejaVuSans-76" transform="translate(515.185547 0.015625)"/>
     <use xlink:href="#DejaVuSans-61" transform="translate(574.365234 0.015625)"/>
     <use xlink:href="#DejaVuSans-74" transform="translate(635.644531 0.015625)"/>
     <use xlink:href="#DejaVuSans-69" transform="translate(674.853516 0.015625)"/>
     <use xlink:href="#DejaVuSans-6f" transform="translate(702.636719 0.015625)"/>
     <use xlink:href="#DejaVuSans-6e" transform="translate(763.818359 0.015625)"/>
     <use xlink:href="#DejaVuSans-20" transform="translate(827.197266 0.015625)"/>
     <use xlink:href="#DejaVuSans-76" transform="translate(858.984375 0.015625)"/>
     <use xlink:href="#DejaVuSans-73" transform="translate(918.164062 0.015625)"/>
     <use xlink:href="#DejaVuSans-20" transform="translate(970.263672 0.015625)"/>
     <use xlink:href="#DejaVuSans-Oblique-3bb" transform="translate(1002.050781 0.015625)"/>
    </g>
   </g>
   <g id="legend_1">
    <g id="patch_7">
     <path d="M 345.87875 92.900625 
L 476.73875 92.900625 
Q 478.53875 92.900625 478.53875 91.100625 
L 478.53875 65.58 
Q 478.53875 63.78 476.73875 63.78 
L 345.87875 63.78 
Q 344.07875 63.78 344.07875 65.58 
L 344.07875 91.100625 
Q 344.07875 92.900625 345.87875 92.900625 
z
" style="fill: #ffffff; opacity: 0.8; stroke: #cccccc; stroke-linejoin: miter"/>
    </g>
    <g id="line2d_11">
     <path d="M 347.67875 71.068594 
L 356.67875 71.068594 
L 365.67875 71.068594 
" style="fill: none; stroke: #4c72b0; stroke-width: 1.5; stroke-linecap: round"/>
    </g>
    <g id="text_12">
     <!-- With ancilla $\mathcal{R}_{\text{with}}$ -->
     <g style="fill: #262626" transform="translate(372.87875 74.218594) scale(0.09 -0.09)">
      <defs>
       <path id="DejaVuSans-57" d="M 213 4666 
L 850 4666 
L 1831 722 
L 2809 4666 
L 3519 4666 
L 4500 722 
L 5478 4666 
L 6119 4666 
L 4947 0 
L 4153 0 
L 3169 4050 
L 2175 0 
L 1381 0 
L 213 4666 
z
" transform="scale(0.015625)"/>
       <path id="DejaVuSans-77" d="M 269 3500 
L 844 3500 
L 1563 769 
L 2278 3500 
L 2956 3500 
L 3675 769 
L 4391 3500 
L 4966 3500 
L 4050 0 
L 3372 0 
L 2619 2869 
L 1863 0 
L 1184 0 
L 269 3500 
z
" transform="scale(0.015625)"/>
      </defs>
      <use xlink:href="#DejaVuSans-57" transform="translate(0 0.015625)"/>
      <use xlink:href="#DejaVuSans-69" transform="translate(98.876953 0.015625)"/>
      <use xlink:href="#DejaVuSans-74" transform="translate(126.660156 0.015625)"/>
      <use xlink:href="#DejaVuSans-68" transform="translate(165.869141 0.015625)"/>
      <use xlink:href="#DejaVuSans-20" transform="translate(229.248047 0.015625)"/>
      <use xlink:href="#DejaVuSans-61" transform="translate(261.035156 0.015625)"/>
      <use xlink:href="#DejaVuSans-6e" transform="translate(322.314453 0.015625)"/>
      <use xlink:href="#DejaVuSans-63" transform="translate(385.693359 0.015625)"/>
      <use xlink:href="#DejaVuSans-69" transform="translate(440.673828 0.015625)"/>
      <use xlink:href="#DejaVuSans-6c" transform="translate(468.457031 0.015625)"/>
      <use xlink:href="#DejaVuSans-6c" transform="translate(496.240234 0.015625)"/>
      <use xlink:href="#DejaVuSans-61" transform="translate(524.023438 0.015625)"/>
      <use xlink:href="#DejaVuSans-20" transform="translate(585.302734 0.015625)"/>
      <use xlink:href="#STIXNonUnicode-Italic-e23e" transform="translate(617.089844 0.015625)"/>
      <use xlink:href="#DejaVuSans-77" transform="translate(703.446869 -16.390625) scale(0.7)"/>
      <use xlink:href="#DejaVuSans-69" transform="translate(760.697845 -16.390625) scale(0.7)"/>
      <use xlink:href="#DejaVuSans-74" transform="translate(780.146088 -16.390625) scale(0.7)"/>
      <use xlink:href="#DejaVuSans-68" transform="translate(807.592377 -16.390625) scale(0.7)"/>
     </g>
    </g>
    <g id="line2d_12">
     <path d="M 347.67875 84.278906 
L 356.67875 84.278906 
L 365.67875 84.278906 
" style="fill: none; stroke-dasharray: 5.55,2.4; stroke-dashoffset: 0; stroke: #dd8452; stroke-width: 1.5"/>
    </g>
    <g id="text_13">
     <!-- Without ancilla $\mathcal{R}_{\text{without}}$ -->
     <g style="fill: #262626" transform="translate(372.87875 87.428906) scale(0.09 -0.09)">
      <defs>
       <path id="DejaVuSans-75" d="M 544 1381 
L 544 3500 
L 1119 3500 
L 1119 1403 
Q 1119 906 1312 657 
Q 1506 409 1894 409 
Q 2359 409 2629 706 
Q 2900 1003 2900 1516 
L 2900 3500 
L 3475 3500 
L 3475 0 
L 2900 0 
L 2900 538 
Q 2691 219 2414 64 
Q 2138 -91 1772 -91 
Q 1169 -91 856 284 
Q 544 659 544 1381 
z
M 1991 3584 
L 1991 3584 
z
" transform="scale(0.015625)"/>
      </defs>
      <use xlink:href="#DejaVuSans-57" transform="translate(0 0.015625)"/>
      <use xlink:href="#DejaVuSans-69" transform="translate(98.876953 0.015625)"/>
      <use xlink:href="#DejaVuSans-74" transform="translate(126.660156 0.015625)"/>
      <use xlink:href="#DejaVuSans-68" transform="translate(165.869141 0.015625)"/>
      <use xlink:href="#DejaVuSans-6f" transform="translate(229.248047 0.015625)"/>
      <use xlink:href="#DejaVuSans-75" transform="translate(290.429688 0.015625)"/>
      <use xlink:href="#DejaVuSans-74" transform="translate(353.808594 0.015625)"/>
      <use xlink:href="#DejaVuSans-20" transform="translate(393.017578 0.015625)"/>
      <use xlink:href="#DejaVuSans-61" transform="translate(424.804688 0.015625)"/>
      <use xlink:href="#DejaVuSans-6e" transform="translate(486.083984 0.015625)"/>
      <use xlink:href="#DejaVuSans-63" transform="translate(549.462891 0.015625)"/>
      <use xlink:href="#DejaVuSans-69" transform="translate(604.443359 0.015625)"/>
      <use xlink:href="#DejaVuSans-6c" transform="translate(632.226562 0.015625)"/>
      <use xlink:href="#DejaVuSans-6c" transform="translate(660.009766 0.015625)"/>
      <use xlink:href="#DejaVuSans-61" transform="translate(687.792969 0.015625)"/>
      <use xlink:href="#DejaVuSans-20" transform="translate(749.072266 0.015625)"/>
      <use xlink:href="#STIXNonUnicode-Italic-e23e" transform="translate(780.859375 0.015625)"/>
      <use xlink:href="#DejaVuSans-77" transform="translate(867.2164 -16.390625) scale(0.7)"/>
      <use xlink:href="#DejaVuSans-69" transform="translate(924.467377 -16.390625) scale(0.7)"/>
      <use xlink:href="#DejaVuSans-74" transform="translate(943.915619 -16.390625) scale(0.7)"/>
      <use xlink:href="#DejaVuSans-68" transform="translate(971.361908 -16.390625) scale(0.7)"/>
      <use xlink:href="#DejaVuSans-6f" transform="translate(1015.727142 -16.390625) scale(0.7)"/>
      <use xlink:href="#DejaVuSans-75" transform="translate(1058.554291 -16.390625) scale(0.7)"/>
      <use xlink:href="#DejaVuSans-74" transform="translate(1102.919525 -16.390625) scale(0.7)"/>
     </g>
    </g>
   </g>
  </g>
  <g id="axes_2">
   <g id="patch_8">
    <path d="M 541.35875 305.676 
L 985.05875 305.676 
L 985.05875 59.28 
L 541.35875 59.28 
z
" style="fill: #ffffff"/>
   </g>
   <g id="matplotlib.axis_3">
    <g id="xtick_26">
     <g id="line2d_13">
      <path d="M 614.296585 305.676 
L 614.296585 59.28 
" clip-path="url(#pf45ec9812e)" style="fill: none; stroke: #cccccc; stroke-opacity: 0.3; stroke-linecap: round"/>
     </g>
     <g id="text_14">
      <!-- $\mathdefault{10^{-1}}$ -->
      <g style="fill: #262626" transform="translate(601.371585 323.534281) scale(0.11 -0.11)">
       <use xlink:href="#DejaVuSans-31" transform="translate(0 0.684375)"/>
       <use xlink:href="#DejaVuSans-30" transform="translate(63.623047 0.684375)"/>
       <use xlink:href="#DejaVuSans-2212" transform="translate(128.203125 38.965625) scale(0.7)"/>
       <use xlink:href="#DejaVuSans-31" transform="translate(186.855469 38.965625) scale(0.7)"/>
      </g>
     </g>
    </g>
    <g id="xtick_27">
     <g id="line2d_14">
      <path d="M 789.593576 305.676 
L 789.593576 59.28 
" clip-path="url(#pf45ec9812e)" style="fill: none; stroke: #cccccc; stroke-opacity: 0.3; stroke-linecap: round"/>
     </g>
     <g id="text_15">
      <!-- $\mathdefault{10^{0}}$ -->
      <g style="fill: #262626" transform="translate(779.913576 323.534281) scale(0.11 -0.11)">
       <use xlink:href="#DejaVuSans-31" transform="translate(0 0.765625)"/>
       <use xlink:href="#DejaVuSans-30" transform="translate(63.623047 0.765625)"/>
       <use xlink:href="#DejaVuSans-30" transform="translate(128.203125 39.046875) scale(0.7)"/>
      </g>
     </g>
    </g>
    <g id="xtick_28">
     <g id="line2d_15">
      <path d="M 964.890568 305.676 
L 964.890568 59.28 
" clip-path="url(#pf45ec9812e)" style="fill: none; stroke: #cccccc; stroke-opacity: 0.3; stroke-linecap: round"/>
     </g>
     <g id="text_16">
      <!-- $\mathdefault{10^{1}}$ -->
      <g style="fill: #262626" transform="translate(955.210568 323.534281) scale(0.11 -0.11)">
       <use xlink:href="#DejaVuSans-31" transform="translate(0 0.684375)"/>
       <use xlink:href="#DejaVuSans-30" transform="translate(63.623047 0.684375)"/>
       <use xlink:href="#DejaVuSans-31" transform="translate(128.203125 38.965625) scale(0.7)"/>
      </g>
     </g>
    </g>
    <g id="xtick_29"/>
    <g id="xtick_30"/>
    <g id="xtick_31"/>
    <g id="xtick_32"/>
    <g id="xtick_33"/>
    <g id="xtick_34"/>
    <g id="xtick_35"/>
    <g id="xtick_36"/>
    <g id="xtick_37"/>
    <g id="xtick_38"/>
    <g id="xtick_39"/>
    <g id="xtick_40"/>
    <g id="xtick_41"/>
    <g id="xtick_42"/>
    <g id="xtick_43"/>
    <g id="xtick_44"/>
    <g id="xtick_45"/>
    <g id="xtick_46"/>
    <g id="xtick_47"/>
    <g id="xtick_48"/>
    <g id="xtick_49"/>
    <g id="xtick_50"/>
    <g id="text_17">
     <!-- $\lambda$ (bath correlation rate) -->
     <g style="fill: #262626" transform="translate(690.96875 338.940062) scale(0.12 -0.12)">
      <use xlink:href="#DejaVuSans-Oblique-3bb" transform="translate(0 0.015625)"/>
      <use xlink:href="#DejaVuSans-20" transform="translate(59.179688 0.015625)"/>
      <use xlink:href="#DejaVuSans-28" transform="translate(90.966797 0.015625)"/>
      <use xlink:href="#DejaVuSans-62" transform="translate(129.980469 0.015625)"/>
      <use xlink:href="#DejaVuSans-61" transform="translate(193.457031 0.015625)"/>
      <use xlink:href="#DejaVuSans-74" transform="translate(254.736328 0.015625)"/>
      <use xlink:href="#DejaVuSans-68" transform="translate(293.945312 0.015625)"/>
      <use xlink:href="#DejaVuSans-20" transform="translate(357.324219 0.015625)"/>
      <use xlink:href="#DejaVuSans-63" transform="translate(389.111328 0.015625)"/>
      <use xlink:href="#DejaVuSans-6f" transform="translate(444.091797 0.015625)"/>
      <use xlink:href="#DejaVuSans-72" transform="translate(505.273438 0.015625)"/>
      <use xlink:href="#DejaVuSans-72" transform="translate(546.386719 0.015625)"/>
      <use xlink:href="#DejaVuSans-65" transform="translate(587.5 0.015625)"/>
      <use xlink:href="#DejaVuSans-6c" transform="translate(649.023438 0.015625)"/>
      <use xlink:href="#DejaVuSans-61" transform="translate(676.806641 0.015625)"/>
      <use xlink:href="#DejaVuSans-74" transform="translate(738.085938 0.015625)"/>
      <use xlink:href="#DejaVuSans-69" transform="translate(777.294922 0.015625)"/>
      <use xlink:href="#DejaVuSans-6f" transform="translate(805.078125 0.015625)"/>
      <use xlink:href="#DejaVuSans-6e" transform="translate(866.259766 0.015625)"/>
      <use xlink:href="#DejaVuSans-20" transform="translate(929.638672 0.015625)"/>
      <use xlink:href="#DejaVuSans-72" transform="translate(961.425781 0.015625)"/>
      <use xlink:href="#DejaVuSans-61" transform="translate(1002.539062 0.015625)"/>
      <use xlink:href="#DejaVuSans-74" transform="translate(1063.818359 0.015625)"/>
      <use xlink:href="#DejaVuSans-65" transform="translate(1103.027344 0.015625)"/>
      <use xlink:href="#DejaVuSans-29" transform="translate(1164.550781 0.015625)"/>
     </g>
    </g>
   </g>
   <g id="matplotlib.axis_4">
    <g id="ytick_6">
     <g id="line2d_16">
      <path d="M 541.35875 294.476182 
L 985.05875 294.476182 
" clip-path="url(#pf45ec9812e)" style="fill: none; stroke: #cccccc; stroke-opacity: 0.3; stroke-linecap: round"/>
     </g>
     <g id="text_18">
      <!-- 0.0 -->
      <g style="fill: #262626" transform="translate(514.365312 298.655322) scale(0.11 -0.11)">
       <defs>
        <path id="DejaVuSans-2e" d="M 684 794 
L 1344 794 
L 1344 0 
L 684 0 
L 684 794 
z
" transform="scale(0.015625)"/>
       </defs>
       <use xlink:href="#DejaVuSans-30"/>
       <use xlink:href="#DejaVuSans-2e" transform="translate(63.623047 0)"/>
       <use xlink:href="#DejaVuSans-30" transform="translate(95.410156 0)"/>
      </g>
     </g>
    </g>
    <g id="ytick_7">
     <g id="line2d_17">
      <path d="M 541.35875 266.259555 
L 985.05875 266.259555 
" clip-path="url(#pf45ec9812e)" style="fill: none; stroke: #cccccc; stroke-opacity: 0.3; stroke-linecap: round"/>
     </g>
     <g id="text_19">
      <!-- 0.5 -->
      <g style="fill: #262626" transform="translate(514.365312 270.438695) scale(0.11 -0.11)">
       <use xlink:href="#DejaVuSans-30"/>
       <use xlink:href="#DejaVuSans-2e" transform="translate(63.623047 0)"/>
       <use xlink:href="#DejaVuSans-35" transform="translate(95.410156 0)"/>
      </g>
     </g>
    </g>
    <g id="ytick_8">
     <g id="line2d_18">
      <path d="M 541.35875 238.042928 
L 985.05875 238.042928 
" clip-path="url(#pf45ec9812e)" style="fill: none; stroke: #cccccc; stroke-opacity: 0.3; stroke-linecap: round"/>
     </g>
     <g id="text_20">
      <!-- 1.0 -->
      <g style="fill: #262626" transform="translate(514.365312 242.222068) scale(0.11 -0.11)">
       <use xlink:href="#DejaVuSans-31"/>
       <use xlink:href="#DejaVuSans-2e" transform="translate(63.623047 0)"/>
       <use xlink:href="#DejaVuSans-30" transform="translate(95.410156 0)"/>
      </g>
     </g>
    </g>
    <g id="ytick_9">
     <g id="line2d_19">
      <path d="M 541.35875 209.826301 
L 985.05875 209.826301 
" clip-path="url(#pf45ec9812e)" style="fill: none; stroke: #cccccc; stroke-opacity: 0.3; stroke-linecap: round"/>
     </g>
     <g id="text_21">
      <!-- 1.5 -->
      <g style="fill: #262626" transform="translate(514.365312 214.005441) scale(0.11 -0.11)">
       <use xlink:href="#DejaVuSans-31"/>
       <use xlink:href="#DejaVuSans-2e" transform="translate(63.623047 0)"/>
       <use xlink:href="#DejaVuSans-35" transform="translate(95.410156 0)"/>
      </g>
     </g>
    </g>
    <g id="ytick_10">
     <g id="line2d_20">
      <path d="M 541.35875 181.609674 
L 985.05875 181.609674 
" clip-path="url(#pf45ec9812e)" style="fill: none; stroke: #cccccc; stroke-opacity: 0.3; stroke-linecap: round"/>
     </g>
     <g id="text_22">
      <!-- 2.0 -->
      <g style="fill: #262626" transform="translate(514.365312 185.788814) scale(0.11 -0.11)">
       <use xlink:href="#DejaVuSans-32"/>
       <use xlink:href="#DejaVuSans-2e" transform="translate(63.623047 0)"/>
       <use xlink:href="#DejaVuSans-30" transform="translate(95.410156 0)"/>
      </g>
     </g>
    </g>
    <g id="ytick_11">
     <g id="line2d_21">
      <path d="M 541.35875 153.393047 
L 985.05875 153.393047 
" clip-path="url(#pf45ec9812e)" style="fill: none; stroke: #cccccc; stroke-opacity: 0.3; stroke-linecap: round"/>
     </g>
     <g id="text_23">
      <!-- 2.5 -->
      <g style="fill: #262626" transform="translate(514.365312 157.572187) scale(0.11 -0.11)">
       <use xlink:href="#DejaVuSans-32"/>
       <use xlink:href="#DejaVuSans-2e" transform="translate(63.623047 0)"/>
       <use xlink:href="#DejaVuSans-35" transform="translate(95.410156 0)"/>
      </g>
     </g>
    </g>
    <g id="ytick_12">
     <g id="line2d_22">
      <path d="M 541.35875 125.176419 
L 985.05875 125.176419 
" clip-path="url(#pf45ec9812e)" style="fill: none; stroke: #cccccc; stroke-opacity: 0.3; stroke-linecap: round"/>
     </g>
     <g id="text_24">
      <!-- 3.0 -->
      <g style="fill: #262626" transform="translate(514.365312 129.35556) scale(0.11 -0.11)">
       <use xlink:href="#DejaVuSans-33"/>
       <use xlink:href="#DejaVuSans-2e" transform="translate(63.623047 0)"/>
       <use xlink:href="#DejaVuSans-30" transform="translate(95.410156 0)"/>
      </g>
     </g>
    </g>
    <g id="ytick_13">
     <g id="line2d_23">
      <path d="M 541.35875 96.959792 
L 985.05875 96.959792 
" clip-path="url(#pf45ec9812e)" style="fill: none; stroke: #cccccc; stroke-opacity: 0.3; stroke-linecap: round"/>
     </g>
     <g id="text_25">
      <!-- 3.5 -->
      <g style="fill: #262626" transform="translate(514.365312 101.138933) scale(0.11 -0.11)">
       <use xlink:href="#DejaVuSans-33"/>
       <use xlink:href="#DejaVuSans-2e" transform="translate(63.623047 0)"/>
       <use xlink:href="#DejaVuSans-35" transform="translate(95.410156 0)"/>
      </g>
     </g>
    </g>
    <g id="ytick_14">
     <g id="line2d_24">
      <path d="M 541.35875 68.743165 
L 985.05875 68.743165 
" clip-path="url(#pf45ec9812e)" style="fill: none; stroke: #cccccc; stroke-opacity: 0.3; stroke-linecap: round"/>
     </g>
     <g id="text_26">
      <!-- 4.0 -->
      <g style="fill: #262626" transform="translate(514.365312 72.922306) scale(0.11 -0.11)">
       <use xlink:href="#DejaVuSans-34"/>
       <use xlink:href="#DejaVuSans-2e" transform="translate(63.623047 0)"/>
       <use xlink:href="#DejaVuSans-30" transform="translate(95.410156 0)"/>
      </g>
     </g>
    </g>
    <g id="text_27">
     <!-- $\Delta\mathcal{R} = \mathcal{R}_{\text{with}} - \mathcal{R}_{\text{without}}$ -->
     <g style="fill: #262626" transform="translate(507.869687 241.878) rotate(-90) scale(0.12 -0.12)">
      <defs>
       <path id="DejaVuSans-394" d="M 2188 4044 
L 906 525 
L 3472 525 
L 2188 4044 
z
M 50 0 
L 1831 4666 
L 2547 4666 
L 4325 0 
L 50 0 
z
" transform="scale(0.015625)"/>
       <path id="DejaVuSans-3d" d="M 678 2906 
L 4684 2906 
L 4684 2381 
L 678 2381 
L 678 2906 
z
M 678 1631 
L 4684 1631 
L 4684 1100 
L 678 1100 
L 678 1631 
z
" transform="scale(0.015625)"/>
      </defs>
      <use xlink:href="#DejaVuSans-394" transform="translate(0 0.09375)"/>
      <use xlink:href="#STIXNonUnicode-Italic-e23e" transform="translate(68.408203 0.09375)"/>
      <use xlink:href="#DejaVuSans-3d" transform="translate(173.290619 0.09375)"/>
      <use xlink:href="#STIXNonUnicode-Italic-e23e" transform="translate(276.562103 0.09375)"/>
      <use xlink:href="#DejaVuSans-77" transform="translate(362.919128 -16.3125) scale(0.7)"/>
      <use xlink:href="#DejaVuSans-69" transform="translate(420.170105 -16.3125) scale(0.7)"/>
      <use xlink:href="#DejaVuSans-74" transform="translate(439.618347 -16.3125) scale(0.7)"/>
      <use xlink:href="#DejaVuSans-68" transform="translate(467.064636 -16.3125) scale(0.7)"/>
      <use xlink:href="#DejaVuSans-2212" transform="translate(533.646667 0.09375)"/>
      <use xlink:href="#STIXNonUnicode-Italic-e23e" transform="translate(636.918152 0.09375)"/>
      <use xlink:href="#DejaVuSans-77" transform="translate(723.275177 -16.3125) scale(0.7)"/>
      <use xlink:href="#DejaVuSans-69" transform="translate(780.526154 -16.3125) scale(0.7)"/>
      <use xlink:href="#DejaVuSans-74" transform="translate(799.974396 -16.3125) scale(0.7)"/>
      <use xlink:href="#DejaVuSans-68" transform="translate(827.420685 -16.3125) scale(0.7)"/>
      <use xlink:href="#DejaVuSans-6f" transform="translate(871.785919 -16.3125) scale(0.7)"/>
      <use xlink:href="#DejaVuSans-75" transform="translate(914.613068 -16.3125) scale(0.7)"/>
      <use xlink:href="#DejaVuSans-74" transform="translate(958.978302 -16.3125) scale(0.7)"/>
     </g>
    </g>
   </g>
   <g id="line2d_25">
    <path d="M 561.526932 70.479818 
L 571.869589 70.985198 
L 582.212247 71.561806 
L 592.554904 72.21935 
L 602.897561 72.968758 
L 613.240219 73.822297 
L 623.582876 74.793694 
L 633.925533 75.898263 
L 644.268191 77.153017 
L 654.610848 78.576772 
L 664.953505 80.19022 
L 675.296163 82.015963 
L 685.63882 84.078471 
L 695.981477 86.403958 
L 706.324135 89.020123 
L 716.666792 91.955749 
L 727.009449 95.240103 
L 737.352107 98.902134 
L 747.694764 102.969406 
L 758.037421 107.466774 
L 768.380079 112.414768 
L 778.722736 117.827697 
L 789.065393 123.711523 
L 799.408051 130.061611 
L 809.750708 136.860526 
L 820.093365 144.076135 
L 830.436023 151.66035 
L 840.77868 159.548858 
L 851.121337 167.662168 
L 861.463995 175.908145 
L 871.806652 184.18606 
L 882.149309 192.391872 
L 892.491967 200.424248 
L 902.834624 208.19059 
L 913.177281 215.612248 
L 923.519939 222.628192 
L 933.862596 229.196651 
L 944.205253 235.294655 
L 954.547911 240.915825 
L 964.890568 246.067072 
" clip-path="url(#pf45ec9812e)" style="fill: none; stroke: #55a868; stroke-width: 1.5; stroke-linecap: round"/>
   </g>
   <g id="line2d_26">
    <path d="M 541.35875 294.476182 
L 985.05875 294.476182 
" clip-path="url(#pf45ec9812e)" style="fill: none; stroke-dasharray: 1.5,2.475; stroke-dashoffset: 0; stroke: #808080; stroke-opacity: 0.5; stroke-width: 1.5"/>
   </g>
   <g id="patch_9">
    <path d="M 541.35875 305.676 
L 541.35875 59.28 
" style="fill: none; stroke: #cccccc; stroke-width: 1.25; stroke-linejoin: miter; stroke-linecap: square"/>
   </g>
   <g id="patch_10">
    <path d="M 985.05875 305.676 
L 985.05875 59.28 
" style="fill: none; stroke: #cccccc; stroke-width: 1.25; stroke-linejoin: miter; stroke-linecap: square"/>
   </g>
   <g id="patch_11">
    <path d="M 541.35875 305.676 
L 985.05875 305.676 
" style="fill: none; stroke: #cccccc; stroke-width: 1.25; stroke-linejoin: miter; stroke-linecap: square"/>
   </g>
   <g id="patch_12">
    <path d="M 541.35875 59.28 
L 985.05875 59.28 
" style="fill: none; stroke: #cccccc; stroke-width: 1.25; stroke-linejoin: miter; stroke-linecap: square"/>
   </g>
   <g id="text_28">
    <!-- Ancilla Improvement vs $\lambda$ -->
    <g style="fill: #262626" transform="translate(687.06875 53.28) scale(0.12 -0.12)">
     <defs>
      <path id="DejaVuSans-41" d="M 2188 4044 
L 1331 1722 
L 3047 1722 
L 2188 4044 
z
M 1831 4666 
L 2547 4666 
L 4325 0 
L 3669 0 
L 3244 1197 
L 1141 1197 
L 716 0 
L 50 0 
L 1831 4666 
z
" transform="scale(0.015625)"/>
      <path id="DejaVuSans-6d" d="M 3328 2828 
Q 3544 3216 3844 3400 
Q 4144 3584 4550 3584 
Q 5097 3584 5394 3201 
Q 5691 2819 5691 2113 
L 5691 0 
L 5113 0 
L 5113 2094 
Q 5113 2597 4934 2840 
Q 4756 3084 4391 3084 
Q 3944 3084 3684 2787 
Q 3425 2491 3425 1978 
L 3425 0 
L 2847 0 
L 2847 2094 
Q 2847 2600 2669 2842 
Q 2491 3084 2119 3084 
Q 1678 3084 1418 2786 
Q 1159 2488 1159 1978 
L 1159 0 
L 581 0 
L 581 3500 
L 1159 3500 
L 1159 2956 
Q 1356 3278 1631 3431 
Q 1906 3584 2284 3584 
Q 2666 3584 2933 3390 
Q 3200 3197 3328 2828 
z
" transform="scale(0.015625)"/>
     </defs>
     <use xlink:href="#DejaVuSans-41" transform="translate(0 0.015625)"/>
     <use xlink:href="#DejaVuSans-6e" transform="translate(68.408203 0.015625)"/>
     <use xlink:href="#DejaVuSans-63" transform="translate(131.787109 0.015625)"/>
     <use xlink:href="#DejaVuSans-69" transform="translate(186.767578 0.015625)"/>
     <use xlink:href="#DejaVuSans-6c" transform="translate(214.550781 0.015625)"/>
     <use xlink:href="#DejaVuSans-6c" transform="translate(242.333984 0.015625)"/>
     <use xlink:href="#DejaVuSans-61" transform="translate(270.117188 0.015625)"/>
     <use xlink:href="#DejaVuSans-20" transform="translate(331.396484 0.015625)"/>
     <use xlink:href="#DejaVuSans-49" transform="translate(363.183594 0.015625)"/>
     <use xlink:href="#DejaVuSans-6d" transform="translate(389.050781 0.015625)"/>
     <use xlink:href="#DejaVuSans-70" transform="translate(486.462891 0.015625)"/>
     <use xlink:href="#DejaVuSans-72" transform="translate(549.939453 0.015625)"/>
     <use xlink:href="#DejaVuSans-6f" transform="translate(591.052734 0.015625)"/>
     <use xlink:href="#DejaVuSans-76" transform="translate(652.234375 0.015625)"/>
     <use xlink:href="#DejaVuSans-65" transform="translate(711.414062 0.015625)"/>
     <use xlink:href="#DejaVuSans-6d" transform="translate(772.9375 0.015625)"/>
     <use xlink:href="#DejaVuSans-65" transform="translate(870.349609 0.015625)"/>
     <use xlink:href="#DejaVuSans-6e" transform="translate(931.873047 0.015625)"/>
     <use xlink:href="#DejaVuSans-74" transform="translate(995.251953 0.015625)"/>
     <use xlink:href="#DejaVuSans-20" transform="translate(1034.460938 0.015625)"/>
     <use xlink:href="#DejaVuSans-76" transform="translate(1066.248047 0.015625)"/>
     <use xlink:href="#DejaVuSans-73" transform="translate(1125.427734 0.015625)"/>
     <use xlink:href="#DejaVuSans-20" transform="translate(1177.527344 0.015625)"/>
     <use xlink:href="#DejaVuSans-Oblique-3bb" transform="translate(1209.314453 0.015625)"/>
    </g>
   </g>
  </g>
  <g id="text_29">
   <!-- Memory sweep at $\theta = 1.571$, $T = 2.0$ -->
   <g style="fill: #262626" transform="translate(386.43875 16.44) scale(0.12 -0.12)">
    <defs>
     <path id="DejaVuSans-4d" d="M 628 4666 
L 1569 4666 
L 2759 1491 
L 3956 4666 
L 4897 4666 
L 4897 0 
L 4281 0 
L 4281 4097 
L 3078 897 
L 2444 897 
L 1241 4097 
L 1241 0 
L 628 0 
L 628 4666 
z
" transform="scale(0.015625)"/>
     <path id="DejaVuSans-79" d="M 2059 -325 
Q 1816 -950 1584 -1140 
Q 1353 -1331 966 -1331 
L 506 -1331 
L 506 -850 
L 844 -850 
Q 1081 -850 1212 -737 
Q 1344 -625 1503 -206 
L 1606 56 
L 191 3500 
L 800 3500 
L 1894 763 
L 2988 3500 
L 3597 3500 
L 2059 -325 
z
" transform="scale(0.015625)"/>
     <path id="DejaVuSans-Oblique-3b8" d="M 2913 2219 
L 925 2219 
Q 791 1284 928 888 
Q 1100 400 1566 400 
Q 2034 400 2391 891 
Q 2703 1322 2913 2219 
z
M 3009 2750 
Q 3094 3638 2984 3950 
Q 2813 4444 2353 4444 
Q 1875 4444 1525 3956 
Q 1250 3563 1034 2750 
L 3009 2750 
z
M 2444 4913 
Q 3194 4913 3494 4250 
Q 3794 3591 3566 2422 
Q 3341 1256 2781 594 
Q 2225 -72 1475 -72 
Q 722 -72 425 594 
Q 128 1256 353 2422 
Q 581 3591 1134 4250 
Q 1691 4913 2444 4913 
z
" transform="scale(0.015625)"/>
     <path id="DejaVuSans-37" d="M 525 4666 
L 3525 4666 
L 3525 4397 
L 1831 0 
L 1172 0 
L 2766 4134 
L 525 4134 
L 525 4666 
z
" transform="scale(0.015625)"/>
     <path id="DejaVuSans-2c" d="M 750 794 
L 1409 794 
L 1409 256 
L 897 -744 
L 494 -744 
L 750 256 
L 750 794 
z
" transform="scale(0.015625)"/>
     <path id="DejaVuSans-Oblique-54" d="M 378 4666 
L 4325 4666 
L 4225 4134 
L 2559 4134 
L 1759 0 
L 1125 0 
L 1925 4134 
L 275 4134 
L 378 4666 
z
" transform="scale(0.015625)"/>
    </defs>
    <use xlink:href="#DejaVuSans-4d" transform="translate(0 0.234375)"/>
    <use xlink:href="#DejaVuSans-65" transform="translate(86.279297 0.234375)"/>
    <use xlink:href="#DejaVuSans-6d" transform="translate(147.802734 0.234375)"/>
    <use xlink:href="#DejaVuSans-6f" transform="translate(245.214844 0.234375)"/>
    <use xlink:href="#DejaVuSans-72" transform="translate(306.396484 0.234375)"/>
    <use xlink:href="#DejaVuSans-79" transform="translate(347.509766 0.234375)"/>
    <use xlink:href="#DejaVuSans-20" transform="translate(406.689453 0.234375)"/>
    <use xlink:href="#DejaVuSans-73" transform="translate(438.476562 0.234375)"/>
    <use xlink:href="#DejaVuSans-77" transform="translate(490.576172 0.234375)"/>
    <use xlink:href="#DejaVuSans-65" transform="translate(572.363281 0.234375)"/>
    <use xlink:href="#DejaVuSans-65" transform="translate(633.886719 0.234375)"/>
    <use xlink:href="#DejaVuSans-70" transform="translate(695.410156 0.234375)"/>
    <use xlink:href="#DejaVuSans-20" transform="translate(758.886719 0.234375)"/>
    <use xlink:href="#DejaVuSans-61" transform="translate(790.673828 0.234375)"/>
    <use xlink:href="#DejaVuSans-74" transform="translate(851.953125 0.234375)"/>
    <use xlink:href="#DejaVuSans-20" transform="translate(891.162109 0.234375)"/>
    <use xlink:href="#DejaVuSans-Oblique-3b8" transform="translate(922.949219 0.234375)"/>
    <use xlink:href="#DejaVuSans-3d" transform="translate(1003.613281 0.234375)"/>
    <use xlink:href="#DejaVuSans-31" transform="translate(1106.884766 0.234375)"/>
    <use xlink:href="#DejaVuSans-2e" transform="translate(1170.507812 0.234375)"/>
    <use xlink:href="#DejaVuSans-35" transform="translate(1202.294922 0.234375)"/>
    <use xlink:href="#DejaVuSans-37" transform="translate(1258.667969 0.234375)"/>
    <use xlink:href="#DejaVuSans-31" transform="translate(1322.291016 0.234375)"/>
    <use xlink:href="#DejaVuSans-2c" transform="translate(1385.914062 0.234375)"/>
    <use xlink:href="#DejaVuSans-20" transform="translate(1417.701172 0.234375)"/>
    <use xlink:href="#DejaVuSans-Oblique-54" transform="translate(1449.488281 0.234375)"/>
    <use xlink:href="#DejaVuSans-3d" transform="translate(1530.054688 0.234375)"/>
    <use xlink:href="#DejaVuSans-32" transform="translate(1633.326172 0.234375)"/>
    <use xlink:href="#DejaVuSans-2e" transform="translate(1696.949219 0.234375)"/>
    <use xlink:href="#DejaVuSans-30" transform="translate(1728.736328 0.234375)"/>
   </g>
  </g>
 </g>
 <defs>
  <clipPath id="p860c722c7e">
   <rect x="39.33875" y="59.28" width="443.7" height="246.396"/>
  </clipPath>
  <clipPath id="pf45ec9812e">
   <rect x="541.35875" y="59.28" width="443.7" height="246.396"/>
  </clipPath>
 </defs>
</svg>
