<?xml version="1.0" encoding="utf-8" standalone="no"?>
<!DOCTYPE svg PUBLIC "-//W3C//DTD SVG 1.1//EN"
  "http://www.w3.org/Graphics/SVG/1.1/DTD/svg11.dtd">
<svg xmlns:xlink="http://www.w3.org/1999/xlink" width="883.586557pt" height="129085275432.728226pt" viewBox="0 0 883.586557 129085275432.728226" xmlns="http://www.w3.org/2000/svg" version="1.1">
 <metadata>
  <rdf:RDF xmlns:dc="http://purl.org/dc/elements/1.1/" xmlns:cc="http://creativecommons.org/ns#" xmlns:rdf="http://www.w3.org/1999/02/22-rdf-syntax-ns#">
   <cc:Work>
    <dc:type rdf:resource="http://purl.org/dc/dcmitype/StillImage"/>
    <dc:date>2026-05-21T09:30:25.260442</dc:date>
    <dc:format>image/svg+xml</dc:format>
    <dc:creator>
     <cc:Agent>
      <dc:title>Matplotlib v3.10.5, https://matplotlib.org/</dc:title>
     </cc:Agent>
    </dc:creator>
   </cc:Work>
  </rdf:RDF>
 </metadata>
 <defs>
  <style type="text/css">*{stroke-linejoin: round; stroke-linecap: butt}</style>
 </defs>
 <g id="figure_1">
  <g id="patch_1">
   <path d="M 0 129085275432.728226 
L 883.586557 129085275432.728226 
L 883.586557 0 
L 0 0 
z
" style="fill: #ffffff"/>
  </g>
  <g id="axes_1">
   <g id="patch_2">
    <path d="M 48.530156 129085275389.768539 
L 606.530156 129085275389.768539 
L 606.530156 129085275057.12854 
L 48.530156 129085275057.12854 
z
" style="fill: #ffffff"/>
   </g>
   <g id="matplotlib.axis_1">
    <g id="xtick_1">
     <g id="line2d_1">
      <path d="M 63.541288 129085275389.768539 
L 63.541288 129085275057.12854 
" clip-path="url(#pcb2f8284c3)" style="fill: none; stroke: #cccccc; stroke-linecap: round"/>
     </g>
     <g id="text_1">
      <!-- 0 -->
      <g style="fill: #262626" transform="translate(60.041913 129085275407.626816) scale(0.11 -0.11)">
       <defs>
        <path id="DejaVuSans-30" d="M 2034 4250 
Q 1547 4250 1301 3770 
Q 1056 3291 1056 2328 
Q 1056 1369 1301 889 
Q 1547 409 2034 409 
Q 2525 409 2770 889 
Q 3016 1369 3016 2328 
Q 3016 3291 2770 3770 
Q 2525 4250 2034 4250 
z
M 2034 4750 
Q 2819 4750 3233 4129 
Q 3647 3509 3647 2328 
Q 3647 1150 3233 529 
Q 2819 -91 2034 -91 
Q 1250 -91 836 529 
Q 422 1150 422 2328 
Q 422 3509 836 4129 
Q 1250 4750 2034 4750 
z
" transform="scale(0.015625)"/>
       </defs>
       <use xlink:href="#DejaVuSans-30"/>
      </g>
     </g>
    </g>
    <g id="xtick_2">
     <g id="line2d_2">
      <path d="M 167.066334 129085275389.768539 
L 167.066334 129085275057.12854 
" clip-path="url(#pcb2f8284c3)" style="fill: none; stroke: #cccccc; stroke-linecap: round"/>
     </g>
     <g id="text_2">
      <!-- 1 -->
      <g style="fill: #262626" transform="translate(163.566959 129085275407.626816) scale(0.11 -0.11)">
       <defs>
        <path id="DejaVuSans-31" d="M 794 531 
L 1825 531 
L 1825 4091 
L 703 3866 
L 703 4441 
L 1819 4666 
L 2450 4666 
L 2450 531 
L 3481 531 
L 3481 0 
L 794 0 
L 794 531 
z
" transform="scale(0.015625)"/>
       </defs>
       <use xlink:href="#DejaVuSans-31"/>
      </g>
     </g>
    </g>
    <g id="xtick_3">
     <g id="line2d_3">
      <path d="M 270.591381 129085275389.768539 
L 270.591381 129085275057.12854 
" clip-path="url(#pcb2f8284c3)" style="fill: none; stroke: #cccccc; stroke-linecap: round"/>
     </g>
     <g id="text_3">
      <!-- 2 -->
      <g style="fill: #262626" transform="translate(267.092006 129085275407.626816) scale(0.11 -0.11)">
       <defs>
        <path id="DejaVuSans-32" d="M 1228 531 
L 3431 531 
L 3431 0 
L 469 0 
L 469 531 
Q 828 903 1448 1529 
Q 2069 2156 2228 2338 
Q 2531 2678 2651 2914 
Q 2772 3150 2772 3378 
Q 2772 3750 2511 3984 
Q 2250 4219 1831 4219 
Q 1534 4219 1204 4116 
Q 875 4013 500 3803 
L 500 4441 
Q 881 4594 1212 4672 
Q 1544 4750 1819 4750 
Q 2544 4750 2975 4387 
Q 3406 4025 3406 3419 
Q 3406 3131 3298 2873 
Q 3191 2616 2906 2266 
Q 2828 2175 2409 1742 
Q 1991 1309 1228 531 
z
" transform="scale(0.015625)"/>
       </defs>
       <use xlink:href="#DejaVuSans-32"/>
      </g>
     </g>
    </g>
    <g id="xtick_4">
     <g id="line2d_4">
      <path d="M 374.116427 129085275389.768539 
L 374.116427 129085275057.12854 
" clip-path="url(#pcb2f8284c3)" style="fill: none; stroke: #cccccc; stroke-linecap: round"/>
     </g>
     <g id="text_4">
      <!-- 3 -->
      <g style="fill: #262626" transform="translate(370.617052 129085275407.626816) scale(0.11 -0.11)">
       <defs>
        <path id="DejaVuSans-33" d="M 2597 2516 
Q 3050 2419 3304 2112 
Q 3559 1806 3559 1356 
Q 3559 666 3084 287 
Q 2609 -91 1734 -91 
Q 1441 -91 1130 -33 
Q 819 25 488 141 
L 488 750 
Q 750 597 1062 519 
Q 1375 441 1716 441 
Q 2309 441 2620 675 
Q 2931 909 2931 1356 
Q 2931 1769 2642 2001 
Q 2353 2234 1838 2234 
L 1294 2234 
L 1294 2753 
L 1863 2753 
Q 2328 2753 2575 2939 
Q 2822 3125 2822 3475 
Q 2822 3834 2567 4026 
Q 2313 4219 1838 4219 
Q 1578 4219 1281 4162 
Q 984 4106 628 3988 
L 628 4550 
Q 988 4650 1302 4700 
Q 1616 4750 1894 4750 
Q 2613 4750 3031 4423 
Q 3450 4097 3450 3541 
Q 3450 3153 3228 2886 
Q 3006 2619 2597 2516 
z
" transform="scale(0.015625)"/>
       </defs>
       <use xlink:href="#DejaVuSans-33"/>
      </g>
     </g>
    </g>
    <g id="xtick_5">
     <g id="line2d_5">
      <path d="M 477.641474 129085275389.768539 
L 477.641474 129085275057.12854 
" clip-path="url(#pcb2f8284c3)" style="fill: none; stroke: #cccccc; stroke-linecap: round"/>
     </g>
     <g id="text_5">
      <!-- 4 -->
      <g style="fill: #262626" transform="translate(474.142099 129085275407.626816) scale(0.11 -0.11)">
       <defs>
        <path id="DejaVuSans-34" d="M 2419 4116 
L 825 1625 
L 2419 1625 
L 2419 4116 
z
M 2253 4666 
L 3047 4666 
L 3047 1625 
L 3713 1625 
L 3713 1100 
L 3047 1100 
L 3047 0 
L 2419 0 
L 2419 1100 
L 313 1100 
L 313 1709 
L 2253 4666 
z
" transform="scale(0.015625)"/>
       </defs>
       <use xlink:href="#DejaVuSans-34"/>
      </g>
     </g>
    </g>
    <g id="xtick_6">
     <g id="line2d_6">
      <path d="M 581.16652 129085275389.768539 
L 581.16652 129085275057.12854 
" clip-path="url(#pcb2f8284c3)" style="fill: none; stroke: #cccccc; stroke-linecap: round"/>
     </g>
     <g id="text_6">
      <!-- 5 -->
      <g style="fill: #262626" transform="translate(577.667145 129085275407.626816) scale(0.11 -0.11)">
       <defs>
        <path id="DejaVuSans-35" d="M 691 4666 
L 3169 4666 
L 3169 4134 
L 1269 4134 
L 1269 2991 
Q 1406 3038 1543 3061 
Q 1681 3084 1819 3084 
Q 2600 3084 3056 2656 
Q 3513 2228 3513 1497 
Q 3513 744 3044 326 
Q 2575 -91 1722 -91 
Q 1428 -91 1123 -41 
Q 819 9 494 109 
L 494 744 
Q 775 591 1075 516 
Q 1375 441 1709 441 
Q 2250 441 2565 725 
Q 2881 1009 2881 1497 
Q 2881 1984 2565 2268 
Q 2250 2553 1709 2553 
Q 1456 2553 1204 2497 
Q 953 2441 691 2322 
L 691 4666 
z
" transform="scale(0.015625)"/>
       </defs>
       <use xlink:href="#DejaVuSans-35"/>
      </g>
     </g>
    </g>
    <g id="text_7">
     <!-- $\theta$ -->
     <g style="fill: #262626" transform="translate(323.810156 129085275423.032608) scale(0.12 -0.12)">
      <defs>
       <path id="DejaVuSans-Oblique-3b8" d="M 2913 2219 
L 925 2219 
Q 791 1284 928 888 
Q 1100 400 1566 400 
Q 2034 400 2391 891 
Q 2703 1322 2913 2219 
z
M 3009 2750 
Q 3094 3638 2984 3950 
Q 2813 4444 2353 4444 
Q 1875 4444 1525 3956 
Q 1250 3563 1034 2750 
L 3009 2750 
z
M 2444 4913 
Q 3194 4913 3494 4250 
Q 3794 3591 3566 2422 
Q 3341 1256 2781 594 
Q 2225 -72 1475 -72 
Q 722 -72 425 594 
Q 128 1256 353 2422 
Q 581 3591 1134 4250 
Q 1691 4913 2444 4913 
z
" transform="scale(0.015625)"/>
      </defs>
      <use xlink:href="#DejaVuSans-Oblique-3b8" transform="translate(0 0.234375)"/>
     </g>
    </g>
   </g>
   <g id="matplotlib.axis_2">
    <g id="ytick_1">
     <g id="line2d_7">
      <path d="M 48.530156 129085275362.025513 
L 606.530156 129085275362.025513 
" clip-path="url(#pcb2f8284c3)" style="fill: none; stroke: #cccccc; stroke-linecap: round"/>
     </g>
     <g id="line2d_8">
      <defs>
       <path id="m727c8e75f5" d="M 0 0 
L -6 0 
" style="stroke: #262626; stroke-width: 1.25"/>
      </defs>
      <g>
       <use xlink:href="#m727c8e75f5" x="48.530156" y="129085275362.025513" style="fill: #262626; stroke: #262626; stroke-width: 1.25"/>
      </g>
     </g>
     <g id="text_8">
      <!-- −3 -->
      <g style="fill: #262626" transform="translate(22.81375 129085275366.204605) scale(0.11 -0.11)">
       <defs>
        <path id="DejaVuSans-2212" d="M 678 2272 
L 4684 2272 
L 4684 1741 
L 678 1741 
L 678 2272 
z
" transform="scale(0.015625)"/>
       </defs>
       <use xlink:href="#DejaVuSans-2212"/>
       <use xlink:href="#DejaVuSans-33" transform="translate(83.789062 0)"/>
      </g>
     </g>
    </g>
    <g id="ytick_2">
     <g id="line2d_9">
      <path d="M 48.530156 129085275297.48291 
L 606.530156 129085275297.48291 
" clip-path="url(#pcb2f8284c3)" style="fill: none; stroke: #cccccc; stroke-linecap: round"/>
     </g>
     <g id="line2d_10">
      <g>
       <use xlink:href="#m727c8e75f5" x="48.530156" y="129085275297.48291" style="fill: #262626; stroke: #262626; stroke-width: 1.25"/>
      </g>
     </g>
     <g id="text_9">
      <!-- −2 -->
      <g style="fill: #262626" transform="translate(22.81375 129085275301.662003) scale(0.11 -0.11)">
       <use xlink:href="#DejaVuSans-2212"/>
       <use xlink:href="#DejaVuSans-32" transform="translate(83.789062 0)"/>
      </g>
     </g>
    </g>
    <g id="ytick_3">
     <g id="line2d_11">
      <path d="M 48.530156 129085275232.940186 
L 606.530156 129085275232.940186 
" clip-path="url(#pcb2f8284c3)" style="fill: none; stroke: #cccccc; stroke-linecap: round"/>
     </g>
     <g id="line2d_12">
      <g>
       <use xlink:href="#m727c8e75f5" x="48.530156" y="129085275232.940186" style="fill: #262626; stroke: #262626; stroke-width: 1.25"/>
      </g>
     </g>
     <g id="text_10">
      <!-- −1 -->
      <g style="fill: #262626" transform="translate(22.81375 129085275237.119278) scale(0.11 -0.11)">
       <use xlink:href="#DejaVuSans-2212"/>
       <use xlink:href="#DejaVuSans-31" transform="translate(83.789062 0)"/>
      </g>
     </g>
    </g>
    <g id="ytick_4">
     <g id="line2d_13">
      <path d="M 48.530156 129085275168.397583 
L 606.530156 129085275168.397583 
" clip-path="url(#pcb2f8284c3)" style="fill: none; stroke: #cccccc; stroke-linecap: round"/>
     </g>
     <g id="line2d_14">
      <g>
       <use xlink:href="#m727c8e75f5" x="48.530156" y="129085275168.397583" style="fill: #262626; stroke: #262626; stroke-width: 1.25"/>
      </g>
     </g>
     <g id="text_11">
      <!-- −0 -->
      <g style="fill: #262626" transform="translate(22.81375 129085275172.576675) scale(0.11 -0.11)">
       <use xlink:href="#DejaVuSans-2212"/>
       <use xlink:href="#DejaVuSans-30" transform="translate(83.789062 0)"/>
      </g>
     </g>
    </g>
    <g id="ytick_5">
     <g id="line2d_15">
      <path d="M 48.530156 129085275103.85498 
L 606.530156 129085275103.85498 
" clip-path="url(#pcb2f8284c3)" style="fill: none; stroke: #cccccc; stroke-linecap: round"/>
     </g>
     <g id="line2d_16">
      <g>
       <use xlink:href="#m727c8e75f5" x="48.530156" y="129085275103.85498" style="fill: #262626; stroke: #262626; stroke-width: 1.25"/>
      </g>
     </g>
     <g id="text_12">
      <!-- 1 -->
      <g style="fill: #262626" transform="translate(32.031406 129085275108.034073) scale(0.11 -0.11)">
       <use xlink:href="#DejaVuSans-31"/>
      </g>
     </g>
    </g>
    <g id="text_13">
     <!-- $\Delta\theta$ -->
     <g style="fill: #262626" transform="translate(16.318125 129085275231.248535) rotate(-90) scale(0.12 -0.12)">
      <defs>
       <path id="DejaVuSans-394" d="M 2188 4044 
L 906 525 
L 3472 525 
L 2188 4044 
z
M 50 0 
L 1831 4666 
L 2547 4666 
L 4325 0 
L 50 0 
z
" transform="scale(0.015625)"/>
      </defs>
      <use xlink:href="#DejaVuSans-394" transform="translate(0 0.234375)"/>
      <use xlink:href="#DejaVuSans-Oblique-3b8" transform="translate(68.408203 0.234375)"/>
     </g>
    </g>
    <g id="text_14">
     <!-- 1e−11+1e−1 -->
     <g style="fill: #262626" transform="translate(48.530156 129085275054.12854) scale(0.11 -0.11)">
      <defs>
       <path id="DejaVuSans-65" d="M 3597 1894 
L 3597 1613 
L 953 1613 
Q 991 1019 1311 708 
Q 1631 397 2203 397 
Q 2534 397 2845 478 
Q 3156 559 3463 722 
L 3463 178 
Q 3153 47 2828 -22 
Q 2503 -91 2169 -91 
Q 1331 -91 842 396 
Q 353 884 353 1716 
Q 353 2575 817 3079 
Q 1281 3584 2069 3584 
Q 2775 3584 3186 3129 
Q 3597 2675 3597 1894 
z
M 3022 2063 
Q 3016 2534 2758 2815 
Q 2500 3097 2075 3097 
Q 1594 3097 1305 2825 
Q 1016 2553 972 2059 
L 3022 2063 
z
" transform="scale(0.015625)"/>
       <path id="DejaVuSans-2b" d="M 2944 4013 
L 2944 2272 
L 4684 2272 
L 4684 1741 
L 2944 1741 
L 2944 0 
L 2419 0 
L 2419 1741 
L 678 1741 
L 678 2272 
L 2419 2272 
L 2419 4013 
L 2944 4013 
z
" transform="scale(0.015625)"/>
      </defs>
      <use xlink:href="#DejaVuSans-31"/>
      <use xlink:href="#DejaVuSans-65" transform="translate(63.623047 0)"/>
      <use xlink:href="#DejaVuSans-2212" transform="translate(125.146484 0)"/>
      <use xlink:href="#DejaVuSans-31" transform="translate(208.935547 0)"/>
      <use xlink:href="#DejaVuSans-31" transform="translate(272.558594 0)"/>
      <use xlink:href="#DejaVuSans-2b" transform="translate(336.181641 0)"/>
      <use xlink:href="#DejaVuSans-31" transform="translate(419.970703 0)"/>
      <use xlink:href="#DejaVuSans-65" transform="translate(483.59375 0)"/>
      <use xlink:href="#DejaVuSans-2212" transform="translate(545.117188 0)"/>
      <use xlink:href="#DejaVuSans-31" transform="translate(628.90625 0)"/>
     </g>
    </g>
   </g>
   <g id="line2d_17">
    <path d="M 48.530156 129085275168.397461 
L 606.530156 129085275168.397461 
" clip-path="url(#pcb2f8284c3)" style="fill: none; stroke-dasharray: 5.55,2.4; stroke-dashoffset: 0; stroke: #808080; stroke-opacity: 0.7; stroke-width: 1.5"/>
   </g>
   <g id="line2d_18">
    <path d="M 73.893793 129085275164.32251 
L 84.246297 129085275151.282593 
L 94.598802 129085275079.088135 
L 104.951307 129085275128.280518 
L 115.303811 129085275161.009644 
L 125.656316 129085275145.201904 
L 136.00882 129085275167.885376 
L 146.361325 129085275187.737183 
L 156.71383 129085275145.005005 
L 167.066334 129085275120.17627 
L 177.418839 129085275072.248535 
L 187.771344 129085275131.309814 
L 198.123848 129085275122.06958 
L 208.476353 129085275073.942383 
L 218.828858 129085275120.980347 
L 229.181362 129085275080.529907 
L 239.533867 129085275135.423462 
L 249.886371 129085275135.78125 
L 260.238876 129085275130.719971 
L 270.591381 129085275248.989502 
L 280.943885 129085275258.599487 
L 291.29639 129085275216.908203 
L 301.648895 129085275250.263184 
L 312.001399 129085275249.454102 
L 322.353904 129085275360.967285 
L 332.706409 129085275257.07373 
L 343.058913 129085275241.280029 
L 353.411418 129085275234.085571 
L 363.763922 129085275232.761108 
L 374.116427 129085275361.330933 
L 384.468932 129085275249.76355 
L 394.821436 129085275262.680786 
L 405.173941 129085275364.40625 
L 415.526446 129085275369.297363 
L 425.87895 129085275364.408813 
L 436.231455 129085275367.035889 
L 446.58396 129085275349.830933 
L 456.936464 129085275354.612915 
L 467.288969 129085275368.332397 
L 477.641474 129085275354.26355 
L 487.993978 129085275171.649048 
L 498.346483 129085275362.702026 
L 508.698987 129085275360.79541 
L 519.051492 129085275099.69104 
L 529.403997 129085275362.912109 
L 539.756501 129085275134.510376 
L 550.109006 129085275315.219238 
L 560.461511 129085275366.523682 
L 570.814015 129085275138.919189 
L 581.16652 129085275374.648438 
" clip-path="url(#pcb2f8284c3)" style="fill: none; stroke: #4c72b0; stroke-width: 1.8; stroke-linecap: round"/>
    <defs>
     <path id="macada2bea5" d="M 0 3.5 
C 0.928211 3.5 1.81853 3.131218 2.474874 2.474874 
C 3.131218 1.81853 3.5 0.928211 3.5 0 
C 3.5 -0.928211 3.131218 -1.81853 2.474874 -2.474874 
C 1.81853 -3.131218 0.928211 -3.5 0 -3.5 
C -0.928211 -3.5 -1.81853 -3.131218 -2.474874 -2.474874 
C -3.131218 -1.81853 -3.5 -0.928211 -3.5 0 
C -3.5 0.928211 -3.131218 1.81853 -2.474874 2.474874 
C -1.81853 3.131218 -0.928211 3.5 0 3.5 
z
" style="stroke: #4c72b0"/>
    </defs>
    <g clip-path="url(#pcb2f8284c3)">
     <use xlink:href="#macada2bea5" x="73.893793" y="129085275164.32251" style="fill: #4c72b0; stroke: #4c72b0"/>
     <use xlink:href="#macada2bea5" x="84.246297" y="129085275151.282593" style="fill: #4c72b0; stroke: #4c72b0"/>
     <use xlink:href="#macada2bea5" x="94.598802" y="129085275079.088135" style="fill: #4c72b0; stroke: #4c72b0"/>
     <use xlink:href="#macada2bea5" x="104.951307" y="129085275128.280518" style="fill: #4c72b0; stroke: #4c72b0"/>
     <use xlink:href="#macada2bea5" x="115.303811" y="129085275161.009644" style="fill: #4c72b0; stroke: #4c72b0"/>
     <use xlink:href="#macada2bea5" x="125.656316" y="129085275145.201904" style="fill: #4c72b0; stroke: #4c72b0"/>
     <use xlink:href="#macada2bea5" x="136.00882" y="129085275167.885376" style="fill: #4c72b0; stroke: #4c72b0"/>
     <use xlink:href="#macada2bea5" x="146.361325" y="129085275187.737183" style="fill: #4c72b0; stroke: #4c72b0"/>
     <use xlink:href="#macada2bea5" x="156.71383" y="129085275145.005005" style="fill: #4c72b0; stroke: #4c72b0"/>
     <use xlink:href="#macada2bea5" x="167.066334" y="129085275120.17627" style="fill: #4c72b0; stroke: #4c72b0"/>
     <use xlink:href="#macada2bea5" x="177.418839" y="129085275072.248535" style="fill: #4c72b0; stroke: #4c72b0"/>
     <use xlink:href="#macada2bea5" x="187.771344" y="129085275131.309814" style="fill: #4c72b0; stroke: #4c72b0"/>
     <use xlink:href="#macada2bea5" x="198.123848" y="129085275122.06958" style="fill: #4c72b0; stroke: #4c72b0"/>
     <use xlink:href="#macada2bea5" x="208.476353" y="129085275073.942383" style="fill: #4c72b0; stroke: #4c72b0"/>
     <use xlink:href="#macada2bea5" x="218.828858" y="129085275120.980347" style="fill: #4c72b0; stroke: #4c72b0"/>
     <use xlink:href="#macada2bea5" x="229.181362" y="129085275080.529907" style="fill: #4c72b0; stroke: #4c72b0"/>
     <use xlink:href="#macada2bea5" x="239.533867" y="129085275135.423462" style="fill: #4c72b0; stroke: #4c72b0"/>
     <use xlink:href="#macada2bea5" x="249.886371" y="129085275135.78125" style="fill: #4c72b0; stroke: #4c72b0"/>
     <use xlink:href="#macada2bea5" x="260.238876" y="129085275130.719971" style="fill: #4c72b0; stroke: #4c72b0"/>
     <use xlink:href="#macada2bea5" x="270.591381" y="129085275248.989502" style="fill: #4c72b0; stroke: #4c72b0"/>
     <use xlink:href="#macada2bea5" x="280.943885" y="129085275258.599487" style="fill: #4c72b0; stroke: #4c72b0"/>
     <use xlink:href="#macada2bea5" x="291.29639" y="129085275216.908203" style="fill: #4c72b0; stroke: #4c72b0"/>
     <use xlink:href="#macada2bea5" x="301.648895" y="129085275250.263184" style="fill: #4c72b0; stroke: #4c72b0"/>
     <use xlink:href="#macada2bea5" x="312.001399" y="129085275249.454102" style="fill: #4c72b0; stroke: #4c72b0"/>
     <use xlink:href="#macada2bea5" x="322.353904" y="129085275360.967285" style="fill: #4c72b0; stroke: #4c72b0"/>
     <use xlink:href="#macada2bea5" x="332.706409" y="129085275257.07373" style="fill: #4c72b0; stroke: #4c72b0"/>
     <use xlink:href="#macada2bea5" x="343.058913" y="129085275241.280029" style="fill: #4c72b0; stroke: #4c72b0"/>
     <use xlink:href="#macada2bea5" x="353.411418" y="129085275234.085571" style="fill: #4c72b0; stroke: #4c72b0"/>
     <use xlink:href="#macada2bea5" x="363.763922" y="129085275232.761108" style="fill: #4c72b0; stroke: #4c72b0"/>
     <use xlink:href="#macada2bea5" x="374.116427" y="129085275361.330933" style="fill: #4c72b0; stroke: #4c72b0"/>
     <use xlink:href="#macada2bea5" x="384.468932" y="129085275249.76355" style="fill: #4c72b0; stroke: #4c72b0"/>
     <use xlink:href="#macada2bea5" x="394.821436" y="129085275262.680786" style="fill: #4c72b0; stroke: #4c72b0"/>
     <use xlink:href="#macada2bea5" x="405.173941" y="129085275364.40625" style="fill: #4c72b0; stroke: #4c72b0"/>
     <use xlink:href="#macada2bea5" x="415.526446" y="129085275369.297363" style="fill: #4c72b0; stroke: #4c72b0"/>
     <use xlink:href="#macada2bea5" x="425.87895" y="129085275364.408813" style="fill: #4c72b0; stroke: #4c72b0"/>
     <use xlink:href="#macada2bea5" x="436.231455" y="129085275367.035889" style="fill: #4c72b0; stroke: #4c72b0"/>
     <use xlink:href="#macada2bea5" x="446.58396" y="129085275349.830933" style="fill: #4c72b0; stroke: #4c72b0"/>
     <use xlink:href="#macada2bea5" x="456.936464" y="129085275354.612915" style="fill: #4c72b0; stroke: #4c72b0"/>
     <use xlink:href="#macada2bea5" x="467.288969" y="129085275368.332397" style="fill: #4c72b0; stroke: #4c72b0"/>
     <use xlink:href="#macada2bea5" x="477.641474" y="129085275354.26355" style="fill: #4c72b0; stroke: #4c72b0"/>
     <use xlink:href="#macada2bea5" x="487.993978" y="129085275171.649048" style="fill: #4c72b0; stroke: #4c72b0"/>
     <use xlink:href="#macada2bea5" x="498.346483" y="129085275362.702026" style="fill: #4c72b0; stroke: #4c72b0"/>
     <use xlink:href="#macada2bea5" x="508.698987" y="129085275360.79541" style="fill: #4c72b0; stroke: #4c72b0"/>
     <use xlink:href="#macada2bea5" x="519.051492" y="129085275099.69104" style="fill: #4c72b0; stroke: #4c72b0"/>
     <use xlink:href="#macada2bea5" x="529.403997" y="129085275362.912109" style="fill: #4c72b0; stroke: #4c72b0"/>
     <use xlink:href="#macada2bea5" x="539.756501" y="129085275134.510376" style="fill: #4c72b0; stroke: #4c72b0"/>
     <use xlink:href="#macada2bea5" x="550.109006" y="129085275315.219238" style="fill: #4c72b0; stroke: #4c72b0"/>
     <use xlink:href="#macada2bea5" x="560.461511" y="129085275366.523682" style="fill: #4c72b0; stroke: #4c72b0"/>
     <use xlink:href="#macada2bea5" x="570.814015" y="129085275138.919189" style="fill: #4c72b0; stroke: #4c72b0"/>
     <use xlink:href="#macada2bea5" x="581.16652" y="129085275374.648438" style="fill: #4c72b0; stroke: #4c72b0"/>
    </g>
   </g>
   <g id="patch_3">
    <path d="M 48.530156 129085275389.768433 
L 48.530156 129085275057.12854 
" style="fill: none; stroke: #cccccc; stroke-width: 1.25; stroke-linejoin: miter; stroke-linecap: square"/>
   </g>
   <g id="patch_4">
    <path d="M 606.530156 129085275389.768433 
L 606.530156 129085275057.12854 
" style="fill: none; stroke: #cccccc; stroke-width: 1.25; stroke-linejoin: miter; stroke-linecap: square"/>
   </g>
   <g id="patch_5">
    <path d="M 48.530156 129085275389.768539 
L 606.530156 129085275389.768539 
" style="fill: none; stroke: #cccccc; stroke-width: 1.25; stroke-linejoin: miter; stroke-linecap: square"/>
   </g>
   <g id="patch_6">
    <path d="M 48.530156 129085275057.12854 
L 606.530156 129085275057.12854 
" style="fill: none; stroke: #cccccc; stroke-width: 1.25; stroke-linejoin: miter; stroke-linecap: square"/>
   </g>
   <g id="patch_7">
    <path d="M 770.186557 22.377792 
Q 675.676538 64542637697.513336 581.16652 129085275371.307236 
" style="fill: none; stroke: #000000; stroke-width: 1.2; stroke-linecap: round"/>
    <path d="M 583.16652 129085275367.307236 
L 581.16652 129085275371.307236 
L 579.16652 129085275367.307236 
" style="fill: none; stroke: #000000; stroke-width: 1.2; stroke-linecap: round"/>
   </g>
   <g id="text_15">
    <g id="patch_8">
     <path d="M 663.986557 19.878098 
L 876.386557 19.878098 
Q 879.386557 19.878098 879.386557 16.878098 
L 879.386557 7.199973 
Q 879.386557 4.199973 876.386557 4.199973 
L 663.986557 4.199973 
Q 660.986557 4.199973 660.986557 7.199973 
L 660.986557 16.878098 
Q 660.986557 19.878098 663.986557 19.878098 
z
" style="fill: #ffffff; stroke: #808080; stroke-linejoin: miter"/>
    </g>
    <!-- Best: $\Delta\theta$=0.10000 (1.000$\times$SQL) at $\theta$=5.00 -->
    <g style="fill: #262626" transform="translate(663.986557 14.798416) scale(0.1 -0.1)">
     <defs>
      <path id="DejaVuSans-42" d="M 1259 2228 
L 1259 519 
L 2272 519 
Q 2781 519 3026 730 
Q 3272 941 3272 1375 
Q 3272 1813 3026 2020 
Q 2781 2228 2272 2228 
L 1259 2228 
z
M 1259 4147 
L 1259 2741 
L 2194 2741 
Q 2656 2741 2882 2914 
Q 3109 3088 3109 3444 
Q 3109 3797 2882 3972 
Q 2656 4147 2194 4147 
L 1259 4147 
z
M 628 4666 
L 2241 4666 
Q 2963 4666 3353 4366 
Q 3744 4066 3744 3513 
Q 3744 3084 3544 2831 
Q 3344 2578 2956 2516 
Q 3422 2416 3680 2098 
Q 3938 1781 3938 1306 
Q 3938 681 3513 340 
Q 3088 0 2303 0 
L 628 0 
L 628 4666 
z
" transform="scale(0.015625)"/>
      <path id="DejaVuSans-73" d="M 2834 3397 
L 2834 2853 
Q 2591 2978 2328 3040 
Q 2066 3103 1784 3103 
Q 1356 3103 1142 2972 
Q 928 2841 928 2578 
Q 928 2378 1081 2264 
Q 1234 2150 1697 2047 
L 1894 2003 
Q 2506 1872 2764 1633 
Q 3022 1394 3022 966 
Q 3022 478 2636 193 
Q 2250 -91 1575 -91 
Q 1294 -91 989 -36 
Q 684 19 347 128 
L 347 722 
Q 666 556 975 473 
Q 1284 391 1588 391 
Q 1994 391 2212 530 
Q 2431 669 2431 922 
Q 2431 1156 2273 1281 
Q 2116 1406 1581 1522 
L 1381 1569 
Q 847 1681 609 1914 
Q 372 2147 372 2553 
Q 372 3047 722 3315 
Q 1072 3584 1716 3584 
Q 2034 3584 2315 3537 
Q 2597 3491 2834 3397 
z
" transform="scale(0.015625)"/>
      <path id="DejaVuSans-74" d="M 1172 4494 
L 1172 3500 
L 2356 3500 
L 2356 3053 
L 1172 3053 
L 1172 1153 
Q 1172 725 1289 603 
Q 1406 481 1766 481 
L 2356 481 
L 2356 0 
L 1766 0 
Q 1100 0 847 248 
Q 594 497 594 1153 
L 594 3053 
L 172 3053 
L 172 3500 
L 594 3500 
L 594 4494 
L 1172 4494 
z
" transform="scale(0.015625)"/>
      <path id="DejaVuSans-3a" d="M 750 794 
L 1409 794 
L 1409 0 
L 750 0 
L 750 794 
z
M 750 3309 
L 1409 3309 
L 1409 2516 
L 750 2516 
L 750 3309 
z
" transform="scale(0.015625)"/>
      <path id="DejaVuSans-20" transform="scale(0.015625)"/>
      <path id="DejaVuSans-3d" d="M 678 2906 
L 4684 2906 
L 4684 2381 
L 678 2381 
L 678 2906 
z
M 678 1631 
L 4684 1631 
L 4684 1100 
L 678 1100 
L 678 1631 
z
" transform="scale(0.015625)"/>
      <path id="DejaVuSans-2e" d="M 684 794 
L 1344 794 
L 1344 0 
L 684 0 
L 684 794 
z
" transform="scale(0.015625)"/>
      <path id="DejaVuSans-28" d="M 1984 4856 
Q 1566 4138 1362 3434 
Q 1159 2731 1159 2009 
Q 1159 1288 1364 580 
Q 1569 -128 1984 -844 
L 1484 -844 
Q 1016 -109 783 600 
Q 550 1309 550 2009 
Q 550 2706 781 3412 
Q 1013 4119 1484 4856 
L 1984 4856 
z
" transform="scale(0.015625)"/>
      <path id="DejaVuSans-d7" d="M 4488 3438 
L 3059 2003 
L 4488 575 
L 4116 197 
L 2681 1631 
L 1247 197 
L 878 575 
L 2303 2003 
L 878 3438 
L 1247 3816 
L 2681 2381 
L 4116 3816 
L 4488 3438 
z
" transform="scale(0.015625)"/>
      <path id="DejaVuSans-53" d="M 3425 4513 
L 3425 3897 
Q 3066 4069 2747 4153 
Q 2428 4238 2131 4238 
Q 1616 4238 1336 4038 
Q 1056 3838 1056 3469 
Q 1056 3159 1242 3001 
Q 1428 2844 1947 2747 
L 2328 2669 
Q 3034 2534 3370 2195 
Q 3706 1856 3706 1288 
Q 3706 609 3251 259 
Q 2797 -91 1919 -91 
Q 1588 -91 1214 -16 
Q 841 59 441 206 
L 441 856 
Q 825 641 1194 531 
Q 1563 422 1919 422 
Q 2459 422 2753 634 
Q 3047 847 3047 1241 
Q 3047 1584 2836 1778 
Q 2625 1972 2144 2069 
L 1759 2144 
Q 1053 2284 737 2584 
Q 422 2884 422 3419 
Q 422 4038 858 4394 
Q 1294 4750 2059 4750 
Q 2388 4750 2728 4690 
Q 3069 4631 3425 4513 
z
" transform="scale(0.015625)"/>
      <path id="DejaVuSans-51" d="M 2522 4238 
Q 1834 4238 1429 3725 
Q 1025 3213 1025 2328 
Q 1025 1447 1429 934 
Q 1834 422 2522 422 
Q 3209 422 3611 934 
Q 4013 1447 4013 2328 
Q 4013 3213 3611 3725 
Q 3209 4238 2522 4238 
z
M 3406 84 
L 4238 -825 
L 3475 -825 
L 2784 -78 
Q 2681 -84 2626 -87 
Q 2572 -91 2522 -91 
Q 1538 -91 948 567 
Q 359 1225 359 2328 
Q 359 3434 948 4092 
Q 1538 4750 2522 4750 
Q 3503 4750 4090 4092 
Q 4678 3434 4678 2328 
Q 4678 1516 4351 937 
Q 4025 359 3406 84 
z
" transform="scale(0.015625)"/>
      <path id="DejaVuSans-4c" d="M 628 4666 
L 1259 4666 
L 1259 531 
L 3531 531 
L 3531 0 
L 628 0 
L 628 4666 
z
" transform="scale(0.015625)"/>
      <path id="DejaVuSans-29" d="M 513 4856 
L 1013 4856 
Q 1481 4119 1714 3412 
Q 1947 2706 1947 2009 
Q 1947 1309 1714 600 
Q 1481 -109 1013 -844 
L 513 -844 
Q 928 -128 1133 580 
Q 1338 1288 1338 2009 
Q 1338 2731 1133 3434 
Q 928 4138 513 4856 
z
" transform="scale(0.015625)"/>
      <path id="DejaVuSans-61" d="M 2194 1759 
Q 1497 1759 1228 1600 
Q 959 1441 959 1056 
Q 959 750 1161 570 
Q 1363 391 1709 391 
Q 2188 391 2477 730 
Q 2766 1069 2766 1631 
L 2766 1759 
L 2194 1759 
z
M 3341 1997 
L 3341 0 
L 2766 0 
L 2766 531 
Q 2569 213 2275 61 
Q 1981 -91 1556 -91 
Q 1019 -91 701 211 
Q 384 513 384 1019 
Q 384 1609 779 1909 
Q 1175 2209 1959 2209 
L 2766 2209 
L 2766 2266 
Q 2766 2663 2505 2880 
Q 2244 3097 1772 3097 
Q 1472 3097 1187 3025 
Q 903 2953 641 2809 
L 641 3341 
Q 956 3463 1253 3523 
Q 1550 3584 1831 3584 
Q 2591 3584 2966 3190 
Q 3341 2797 3341 1997 
z
" transform="scale(0.015625)"/>
     </defs>
     <use xlink:href="#DejaVuSans-42" transform="translate(0 0.234375)"/>
     <use xlink:href="#DejaVuSans-65" transform="translate(68.603516 0.234375)"/>
     <use xlink:href="#DejaVuSans-73" transform="translate(130.126953 0.234375)"/>
     <use xlink:href="#DejaVuSans-74" transform="translate(182.226562 0.234375)"/>
     <use xlink:href="#DejaVuSans-3a" transform="translate(221.435547 0.234375)"/>
     <use xlink:href="#DejaVuSans-20" transform="translate(255.126953 0.234375)"/>
     <use xlink:href="#DejaVuSans-394" transform="translate(286.914062 0.234375)"/>
     <use xlink:href="#DejaVuSans-Oblique-3b8" transform="translate(355.322266 0.234375)"/>
     <use xlink:href="#DejaVuSans-3d" transform="translate(416.503906 0.234375)"/>
     <use xlink:href="#DejaVuSans-30" transform="translate(500.292969 0.234375)"/>
     <use xlink:href="#DejaVuSans-2e" transform="translate(563.916016 0.234375)"/>
     <use xlink:href="#DejaVuSans-31" transform="translate(595.703125 0.234375)"/>
     <use xlink:href="#DejaVuSans-30" transform="translate(659.326172 0.234375)"/>
     <use xlink:href="#DejaVuSans-30" transform="translate(722.949219 0.234375)"/>
     <use xlink:href="#DejaVuSans-30" transform="translate(786.572266 0.234375)"/>
     <use xlink:href="#DejaVuSans-30" transform="translate(850.195312 0.234375)"/>
     <use xlink:href="#DejaVuSans-20" transform="translate(913.818359 0.234375)"/>
     <use xlink:href="#DejaVuSans-28" transform="translate(945.605469 0.234375)"/>
     <use xlink:href="#DejaVuSans-31" transform="translate(984.619141 0.234375)"/>
     <use xlink:href="#DejaVuSans-2e" transform="translate(1048.242188 0.234375)"/>
     <use xlink:href="#DejaVuSans-30" transform="translate(1080.029297 0.234375)"/>
     <use xlink:href="#DejaVuSans-30" transform="translate(1143.652344 0.234375)"/>
     <use xlink:href="#DejaVuSans-30" transform="translate(1207.275391 0.234375)"/>
     <use xlink:href="#DejaVuSans-d7" transform="translate(1270.898438 0.234375)"/>
     <use xlink:href="#DejaVuSans-53" transform="translate(1354.6875 0.234375)"/>
     <use xlink:href="#DejaVuSans-51" transform="translate(1418.164062 0.234375)"/>
     <use xlink:href="#DejaVuSans-4c" transform="translate(1496.875 0.234375)"/>
     <use xlink:href="#DejaVuSans-29" transform="translate(1552.587891 0.234375)"/>
     <use xlink:href="#DejaVuSans-20" transform="translate(1591.601562 0.234375)"/>
     <use xlink:href="#DejaVuSans-61" transform="translate(1623.388672 0.234375)"/>
     <use xlink:href="#DejaVuSans-74" transform="translate(1684.667969 0.234375)"/>
     <use xlink:href="#DejaVuSans-20" transform="translate(1723.876953 0.234375)"/>
     <use xlink:href="#DejaVuSans-Oblique-3b8" transform="translate(1755.664062 0.234375)"/>
     <use xlink:href="#DejaVuSans-3d" transform="translate(1816.845703 0.234375)"/>
     <use xlink:href="#DejaVuSans-35" transform="translate(1900.634766 0.234375)"/>
     <use xlink:href="#DejaVuSans-2e" transform="translate(1964.257812 0.234375)"/>
     <use xlink:href="#DejaVuSans-30" transform="translate(1996.044922 0.234375)"/>
     <use xlink:href="#DejaVuSans-30" transform="translate(2059.667969 0.234375)"/>
    </g>
   </g>
   <g id="text_16">
    <!-- XX-Coupling Sensitivity vs $\theta$: -->
    <g style="fill: #262626" transform="translate(241.370156 129085275037.520538) scale(0.12 -0.12)">
     <defs>
      <path id="DejaVuSans-58" d="M 403 4666 
L 1081 4666 
L 2241 2931 
L 3406 4666 
L 4084 4666 
L 2584 2425 
L 4184 0 
L 3506 0 
L 2194 1984 
L 872 0 
L 191 0 
L 1856 2491 
L 403 4666 
z
" transform="scale(0.015625)"/>
      <path id="DejaVuSans-2d" d="M 313 2009 
L 1997 2009 
L 1997 1497 
L 313 1497 
L 313 2009 
z
" transform="scale(0.015625)"/>
      <path id="DejaVuSans-43" d="M 4122 4306 
L 4122 3641 
Q 3803 3938 3442 4084 
Q 3081 4231 2675 4231 
Q 1875 4231 1450 3742 
Q 1025 3253 1025 2328 
Q 1025 1406 1450 917 
Q 1875 428 2675 428 
Q 3081 428 3442 575 
Q 3803 722 4122 1019 
L 4122 359 
Q 3791 134 3420 21 
Q 3050 -91 2638 -91 
Q 1578 -91 968 557 
Q 359 1206 359 2328 
Q 359 3453 968 4101 
Q 1578 4750 2638 4750 
Q 3056 4750 3426 4639 
Q 3797 4528 4122 4306 
z
" transform="scale(0.015625)"/>
      <path id="DejaVuSans-6f" d="M 1959 3097 
Q 1497 3097 1228 2736 
Q 959 2375 959 1747 
Q 959 1119 1226 758 
Q 1494 397 1959 397 
Q 2419 397 2687 759 
Q 2956 1122 2956 1747 
Q 2956 2369 2687 2733 
Q 2419 3097 1959 3097 
z
M 1959 3584 
Q 2709 3584 3137 3096 
Q 3566 2609 3566 1747 
Q 3566 888 3137 398 
Q 2709 -91 1959 -91 
Q 1206 -91 779 398 
Q 353 888 353 1747 
Q 353 2609 779 3096 
Q 1206 3584 1959 3584 
z
" transform="scale(0.015625)"/>
      <path id="DejaVuSans-75" d="M 544 1381 
L 544 3500 
L 1119 3500 
L 1119 1403 
Q 1119 906 1312 657 
Q 1506 409 1894 409 
Q 2359 409 2629 706 
Q 2900 1003 2900 1516 
L 2900 3500 
L 3475 3500 
L 3475 0 
L 2900 0 
L 2900 538 
Q 2691 219 2414 64 
Q 2138 -91 1772 -91 
Q 1169 -91 856 284 
Q 544 659 544 1381 
z
M 1991 3584 
L 1991 3584 
z
" transform="scale(0.015625)"/>
      <path id="DejaVuSans-70" d="M 1159 525 
L 1159 -1331 
L 581 -1331 
L 581 3500 
L 1159 3500 
L 1159 2969 
Q 1341 3281 1617 3432 
Q 1894 3584 2278 3584 
Q 2916 3584 3314 3078 
Q 3713 2572 3713 1747 
Q 3713 922 3314 415 
Q 2916 -91 2278 -91 
Q 1894 -91 1617 61 
Q 1341 213 1159 525 
z
M 3116 1747 
Q 3116 2381 2855 2742 
Q 2594 3103 2138 3103 
Q 1681 3103 1420 2742 
Q 1159 2381 1159 1747 
Q 1159 1113 1420 752 
Q 1681 391 2138 391 
Q 2594 391 2855 752 
Q 3116 1113 3116 1747 
z
" transform="scale(0.015625)"/>
      <path id="DejaVuSans-6c" d="M 603 4863 
L 1178 4863 
L 1178 0 
L 603 0 
L 603 4863 
z
" transform="scale(0.015625)"/>
      <path id="DejaVuSans-69" d="M 603 3500 
L 1178 3500 
L 1178 0 
L 603 0 
L 603 3500 
z
M 603 4863 
L 1178 4863 
L 1178 4134 
L 603 4134 
L 603 4863 
z
" transform="scale(0.015625)"/>
      <path id="DejaVuSans-6e" d="M 3513 2113 
L 3513 0 
L 2938 0 
L 2938 2094 
Q 2938 2591 2744 2837 
Q 2550 3084 2163 3084 
Q 1697 3084 1428 2787 
Q 1159 2491 1159 1978 
L 1159 0 
L 581 0 
L 581 3500 
L 1159 3500 
L 1159 2956 
Q 1366 3272 1645 3428 
Q 1925 3584 2291 3584 
Q 2894 3584 3203 3211 
Q 3513 2838 3513 2113 
z
" transform="scale(0.015625)"/>
      <path id="DejaVuSans-67" d="M 2906 1791 
Q 2906 2416 2648 2759 
Q 2391 3103 1925 3103 
Q 1463 3103 1205 2759 
Q 947 2416 947 1791 
Q 947 1169 1205 825 
Q 1463 481 1925 481 
Q 2391 481 2648 825 
Q 2906 1169 2906 1791 
z
M 3481 434 
Q 3481 -459 3084 -895 
Q 2688 -1331 1869 -1331 
Q 1566 -1331 1297 -1286 
Q 1028 -1241 775 -1147 
L 775 -588 
Q 1028 -725 1275 -790 
Q 1522 -856 1778 -856 
Q 2344 -856 2625 -561 
Q 2906 -266 2906 331 
L 2906 616 
Q 2728 306 2450 153 
Q 2172 0 1784 0 
Q 1141 0 747 490 
Q 353 981 353 1791 
Q 353 2603 747 3093 
Q 1141 3584 1784 3584 
Q 2172 3584 2450 3431 
Q 2728 3278 2906 2969 
L 2906 3500 
L 3481 3500 
L 3481 434 
z
" transform="scale(0.015625)"/>
      <path id="DejaVuSans-76" d="M 191 3500 
L 800 3500 
L 1894 563 
L 2988 3500 
L 3597 3500 
L 2284 0 
L 1503 0 
L 191 3500 
z
" transform="scale(0.015625)"/>
      <path id="DejaVuSans-79" d="M 2059 -325 
Q 1816 -950 1584 -1140 
Q 1353 -1331 966 -1331 
L 506 -1331 
L 506 -850 
L 844 -850 
Q 1081 -850 1212 -737 
Q 1344 -625 1503 -206 
L 1606 56 
L 191 3500 
L 800 3500 
L 1894 763 
L 2988 3500 
L 3597 3500 
L 2059 -325 
z
" transform="scale(0.015625)"/>
     </defs>
     <use xlink:href="#DejaVuSans-58" transform="translate(0 0.234375)"/>
     <use xlink:href="#DejaVuSans-58" transform="translate(68.505859 0.234375)"/>
     <use xlink:href="#DejaVuSans-2d" transform="translate(137.011719 0.234375)"/>
     <use xlink:href="#DejaVuSans-43" transform="translate(173.095703 0.234375)"/>
     <use xlink:href="#DejaVuSans-6f" transform="translate(242.919922 0.234375)"/>
     <use xlink:href="#DejaVuSans-75" transform="translate(304.101562 0.234375)"/>
     <use xlink:href="#DejaVuSans-70" transform="translate(367.480469 0.234375)"/>
     <use xlink:href="#DejaVuSans-6c" transform="translate(430.957031 0.234375)"/>
     <use xlink:href="#DejaVuSans-69" transform="translate(458.740234 0.234375)"/>
     <use xlink:href="#DejaVuSans-6e" transform="translate(486.523438 0.234375)"/>
     <use xlink:href="#DejaVuSans-67" transform="translate(549.902344 0.234375)"/>
     <use xlink:href="#DejaVuSans-20" transform="translate(613.378906 0.234375)"/>
     <use xlink:href="#DejaVuSans-53" transform="translate(645.166016 0.234375)"/>
     <use xlink:href="#DejaVuSans-65" transform="translate(708.642578 0.234375)"/>
     <use xlink:href="#DejaVuSans-6e" transform="translate(770.166016 0.234375)"/>
     <use xlink:href="#DejaVuSans-73" transform="translate(833.544922 0.234375)"/>
     <use xlink:href="#DejaVuSans-69" transform="translate(885.644531 0.234375)"/>
     <use xlink:href="#DejaVuSans-74" transform="translate(913.427734 0.234375)"/>
     <use xlink:href="#DejaVuSans-69" transform="translate(952.636719 0.234375)"/>
     <use xlink:href="#DejaVuSans-76" transform="translate(980.419922 0.234375)"/>
     <use xlink:href="#DejaVuSans-69" transform="translate(1039.599609 0.234375)"/>
     <use xlink:href="#DejaVuSans-74" transform="translate(1067.382812 0.234375)"/>
     <use xlink:href="#DejaVuSans-79" transform="translate(1106.591797 0.234375)"/>
     <use xlink:href="#DejaVuSans-20" transform="translate(1165.771484 0.234375)"/>
     <use xlink:href="#DejaVuSans-76" transform="translate(1197.558594 0.234375)"/>
     <use xlink:href="#DejaVuSans-73" transform="translate(1256.738281 0.234375)"/>
     <use xlink:href="#DejaVuSans-20" transform="translate(1308.837891 0.234375)"/>
     <use xlink:href="#DejaVuSans-Oblique-3b8" transform="translate(1340.625 0.234375)"/>
     <use xlink:href="#DejaVuSans-3a" transform="translate(1401.806641 0.234375)"/>
    </g>
    <!-- Optimal $\Delta\theta$ over $\alpha_{xx} \in [0, 20]$ -->
    <g style="fill: #262626" transform="translate(241.010156 129085275051.12854) scale(0.12 -0.12)">
     <defs>
      <path id="DejaVuSans-4f" d="M 2522 4238 
Q 1834 4238 1429 3725 
Q 1025 3213 1025 2328 
Q 1025 1447 1429 934 
Q 1834 422 2522 422 
Q 3209 422 3611 934 
Q 4013 1447 4013 2328 
Q 4013 3213 3611 3725 
Q 3209 4238 2522 4238 
z
M 2522 4750 
Q 3503 4750 4090 4092 
Q 4678 3434 4678 2328 
Q 4678 1225 4090 567 
Q 3503 -91 2522 -91 
Q 1538 -91 948 565 
Q 359 1222 359 2328 
Q 359 3434 948 4092 
Q 1538 4750 2522 4750 
z
" transform="scale(0.015625)"/>
      <path id="DejaVuSans-6d" d="M 3328 2828 
Q 3544 3216 3844 3400 
Q 4144 3584 4550 3584 
Q 5097 3584 5394 3201 
Q 5691 2819 5691 2113 
L 5691 0 
L 5113 0 
L 5113 2094 
Q 5113 2597 4934 2840 
Q 4756 3084 4391 3084 
Q 3944 3084 3684 2787 
Q 3425 2491 3425 1978 
L 3425 0 
L 2847 0 
L 2847 2094 
Q 2847 2600 2669 2842 
Q 2491 3084 2119 3084 
Q 1678 3084 1418 2786 
Q 1159 2488 1159 1978 
L 1159 0 
L 581 0 
L 581 3500 
L 1159 3500 
L 1159 2956 
Q 1356 3278 1631 3431 
Q 1906 3584 2284 3584 
Q 2666 3584 2933 3390 
Q 3200 3197 3328 2828 
z
" transform="scale(0.015625)"/>
      <path id="DejaVuSans-72" d="M 2631 2963 
Q 2534 3019 2420 3045 
Q 2306 3072 2169 3072 
Q 1681 3072 1420 2755 
Q 1159 2438 1159 1844 
L 1159 0 
L 581 0 
L 581 3500 
L 1159 3500 
L 1159 2956 
Q 1341 3275 1631 3429 
Q 1922 3584 2338 3584 
Q 2397 3584 2469 3576 
Q 2541 3569 2628 3553 
L 2631 2963 
z
" transform="scale(0.015625)"/>
      <path id="DejaVuSans-Oblique-3b1" d="M 2619 1628 
L 2622 2350 
Q 2625 3088 2069 3091 
Q 1653 3094 1394 2747 
Q 1069 2319 959 1747 
Q 825 1059 994 731 
Q 1169 397 1547 397 
Q 1966 397 2319 1063 
L 2619 1628 
z
M 2166 3578 
Q 3141 3594 3128 2584 
Q 3128 2584 3616 3500 
L 4128 3500 
L 3119 1603 
L 3109 919 
Q 3109 766 3194 638 
Q 3291 488 3391 488 
L 3669 488 
L 3575 0 
L 3228 0 
Q 2934 0 2722 263 
Q 2622 394 2619 669 
Q 2416 334 2066 50 
Q 1900 -81 1453 -78 
Q 722 -72 456 397 
Q 184 884 353 1747 
Q 534 2675 1009 3097 
Q 1544 3569 2166 3578 
z
" transform="scale(0.015625)"/>
      <path id="DejaVuSans-Oblique-78" d="M 3841 3500 
L 2234 1784 
L 3219 0 
L 2559 0 
L 1819 1388 
L 531 0 
L -166 0 
L 1556 1844 
L 641 3500 
L 1300 3500 
L 1972 2234 
L 3144 3500 
L 3841 3500 
z
" transform="scale(0.015625)"/>
      <path id="DejaVuSans-2208" d="M 1072 1959 
Q 1094 1728 1291 1353 
Q 1522 919 1959 675 
Q 2388 438 2850 434 
L 5028 434 
L 5028 -63 
L 2850 -63 
Q 2250 -63 1695 246 
Q 1141 556 844 1106 
Q 547 1656 547 2241 
Q 547 2819 844 3369 
Q 1141 3919 1695 4231 
Q 2250 4544 2850 4544 
L 5028 4544 
L 5028 4047 
L 2850 4047 
Q 2388 4044 1959 3803 
Q 1525 3556 1291 3125 
Q 1091 2750 1063 2459 
L 5028 2459 
L 5028 1959 
L 1072 1959 
z
" transform="scale(0.015625)"/>
      <path id="DejaVuSans-5b" d="M 550 4863 
L 1875 4863 
L 1875 4416 
L 1125 4416 
L 1125 -397 
L 1875 -397 
L 1875 -844 
L 550 -844 
L 550 4863 
z
" transform="scale(0.015625)"/>
      <path id="DejaVuSans-2c" d="M 750 794 
L 1409 794 
L 1409 256 
L 897 -744 
L 494 -744 
L 750 256 
L 750 794 
z
" transform="scale(0.015625)"/>
      <path id="DejaVuSans-5d" d="M 1947 4863 
L 1947 -844 
L 622 -844 
L 622 -397 
L 1369 -397 
L 1369 4416 
L 622 4416 
L 622 4863 
L 1947 4863 
z
" transform="scale(0.015625)"/>
     </defs>
     <use xlink:href="#DejaVuSans-4f" transform="translate(0 0.234375)"/>
     <use xlink:href="#DejaVuSans-70" transform="translate(78.710938 0.234375)"/>
     <use xlink:href="#DejaVuSans-74" transform="translate(142.1875 0.234375)"/>
     <use xlink:href="#DejaVuSans-69" transform="translate(181.396484 0.234375)"/>
     <use xlink:href="#DejaVuSans-6d" transform="translate(209.179688 0.234375)"/>
     <use xlink:href="#DejaVuSans-61" transform="translate(306.591797 0.234375)"/>
     <use xlink:href="#DejaVuSans-6c" transform="translate(367.871094 0.234375)"/>
     <use xlink:href="#DejaVuSans-20" transform="translate(395.654297 0.234375)"/>
     <use xlink:href="#DejaVuSans-394" transform="translate(427.441406 0.234375)"/>
     <use xlink:href="#DejaVuSans-Oblique-3b8" transform="translate(495.849609 0.234375)"/>
     <use xlink:href="#DejaVuSans-20" transform="translate(557.03125 0.234375)"/>
     <use xlink:href="#DejaVuSans-6f" transform="translate(588.818359 0.234375)"/>
     <use xlink:href="#DejaVuSans-76" transform="translate(650 0.234375)"/>
     <use xlink:href="#DejaVuSans-65" transform="translate(709.179688 0.234375)"/>
     <use xlink:href="#DejaVuSans-72" transform="translate(770.703125 0.234375)"/>
     <use xlink:href="#DejaVuSans-20" transform="translate(811.816406 0.234375)"/>
     <use xlink:href="#DejaVuSans-Oblique-3b1" transform="translate(843.603516 0.234375)"/>
     <use xlink:href="#DejaVuSans-Oblique-78" transform="translate(909.521484 -16.171875) scale(0.7)"/>
     <use xlink:href="#DejaVuSans-Oblique-78" transform="translate(950.947266 -16.171875) scale(0.7)"/>
     <use xlink:href="#DejaVuSans-2208" transform="translate(1014.589844 0.234375)"/>
     <use xlink:href="#DejaVuSans-5b" transform="translate(1121.181641 0.234375)"/>
     <use xlink:href="#DejaVuSans-30" transform="translate(1160.195312 0.234375)"/>
     <use xlink:href="#DejaVuSans-2c" transform="translate(1223.818359 0.234375)"/>
     <use xlink:href="#DejaVuSans-32" transform="translate(1275.087891 0.234375)"/>
     <use xlink:href="#DejaVuSans-30" transform="translate(1338.710938 0.234375)"/>
     <use xlink:href="#DejaVuSans-5d" transform="translate(1402.333984 0.234375)"/>
    </g>
   </g>
   <g id="legend_1">
    <g id="patch_9">
     <path d="M 54.830156 129085275106.968857 
L 146.197031 129085275106.968857 
Q 147.997031 129085275106.968857 147.997031 129085275105.168854 
L 147.997031 129085275063.428543 
Q 147.997031 129085275061.62854 146.197031 129085275061.62854 
L 54.830156 129085275061.62854 
Q 53.030156 129085275061.62854 53.030156 129085275063.428543 
L 53.030156 129085275105.168854 
Q 53.030156 129085275106.968857 54.830156 129085275106.968857 
z
" style="fill: #ffffff; opacity: 0.8; stroke: #cccccc; stroke-linejoin: miter"/>
    </g>
    <g id="line2d_19">
     <path d="M 56.630156 129085275068.917145 
L 65.630156 129085275068.917145 
L 74.630156 129085275068.917145 
" style="fill: none; stroke-dasharray: 5.55,2.4; stroke-dashoffset: 0; stroke: #808080; stroke-opacity: 0.7; stroke-width: 1.5"/>
    </g>
    <g id="text_17">
     <!-- SQL = 0.1000 -->
     <g style="fill: #262626" transform="translate(81.830156 129085275072.067139) scale(0.09 -0.09)">
      <use xlink:href="#DejaVuSans-53"/>
      <use xlink:href="#DejaVuSans-51" transform="translate(63.476562 0)"/>
      <use xlink:href="#DejaVuSans-4c" transform="translate(142.1875 0)"/>
      <use xlink:href="#DejaVuSans-20" transform="translate(197.900391 0)"/>
      <use xlink:href="#DejaVuSans-3d" transform="translate(229.6875 0)"/>
      <use xlink:href="#DejaVuSans-20" transform="translate(313.476562 0)"/>
      <use xlink:href="#DejaVuSans-30" transform="translate(345.263672 0)"/>
      <use xlink:href="#DejaVuSans-2e" transform="translate(408.886719 0)"/>
      <use xlink:href="#DejaVuSans-31" transform="translate(440.673828 0)"/>
      <use xlink:href="#DejaVuSans-30" transform="translate(504.296875 0)"/>
      <use xlink:href="#DejaVuSans-30" transform="translate(567.919922 0)"/>
      <use xlink:href="#DejaVuSans-30" transform="translate(631.542969 0)"/>
     </g>
    </g>
    <g id="line2d_20">
     <path d="M 56.630156 129085275082.218857 
L 65.630156 129085275082.218857 
L 74.630156 129085275082.218857 
" style="fill: none; stroke: #4c72b0; stroke-width: 1.8; stroke-linecap: round"/>
     <g>
      <use xlink:href="#macada2bea5" x="65.630156" y="129085275082.218857" style="fill: #4c72b0; stroke: #4c72b0"/>
     </g>
    </g>
    <g id="text_18">
     <!-- $\Delta\theta_{\mathrm{opt}}$ -->
     <g style="fill: #262626" transform="translate(81.830156 129085275085.368851) scale(0.09 -0.09)">
      <use xlink:href="#DejaVuSans-394" transform="translate(0 0.234375)"/>
      <use xlink:href="#DejaVuSans-Oblique-3b8" transform="translate(68.408203 0.234375)"/>
      <use xlink:href="#DejaVuSans-6f" transform="translate(129.589844 -16.171875) scale(0.7)"/>
      <use xlink:href="#DejaVuSans-70" transform="translate(172.416992 -16.171875) scale(0.7)"/>
      <use xlink:href="#DejaVuSans-74" transform="translate(216.850586 -16.171875) scale(0.7)"/>
     </g>
    </g>
    <g id="line2d_21">
     <path d="M 56.630156 129085275097.698853 
L 65.630156 129085275097.698853 
L 74.630156 129085275097.698853 
" style="fill: none; stroke-dasharray: 4.44,1.92; stroke-dashoffset: 0; stroke: #dd8452; stroke-opacity: 0.7; stroke-width: 1.2"/>
     <defs>
      <path id="m5e241fcf95" d="M -2.5 2.5 
L 2.5 2.5 
L 2.5 -2.5 
L -2.5 -2.5 
z
" style="stroke: #dd8452; stroke-opacity: 0.7; stroke-linejoin: miter"/>
     </defs>
     <g>
      <use xlink:href="#m5e241fcf95" x="65.630156" y="129085275097.698853" style="fill: #dd8452; fill-opacity: 0.7; stroke: #dd8452; stroke-opacity: 0.7; stroke-linejoin: miter"/>
     </g>
    </g>
    <g id="text_19">
     <!-- $\alpha_{xx}^*$ -->
     <g style="fill: #262626" transform="translate(81.830156 129085275100.848846) scale(0.09 -0.09)">
      <defs>
       <path id="DejaVuSans-2a" d="M 3009 3897 
L 1888 3291 
L 3009 2681 
L 2828 2375 
L 1778 3009 
L 1778 1831 
L 1422 1831 
L 1422 3009 
L 372 2375 
L 191 2681 
L 1313 3291 
L 191 3897 
L 372 4206 
L 1422 3572 
L 1422 4750 
L 1778 4750 
L 1778 3572 
L 2828 4206 
L 3009 3897 
z
" transform="scale(0.015625)"/>
      </defs>
      <use xlink:href="#DejaVuSans-Oblique-3b1" transform="translate(0 0.765625)"/>
      <use xlink:href="#DejaVuSans-2a" transform="translate(84.227435 39.046875) scale(0.7)"/>
      <use xlink:href="#DejaVuSans-Oblique-78" transform="translate(65.917969 -26.578125) scale(0.7)"/>
      <use xlink:href="#DejaVuSans-Oblique-78" transform="translate(107.34375 -26.578125) scale(0.7)"/>
     </g>
    </g>
   </g>
  </g>
  <g id="axes_2">
   <g id="matplotlib.axis_3">
    <g id="ytick_6">
     <g id="line2d_22">
      <path d="M 48.530156 129085275344.408539 
L 606.530156 129085275344.408539 
" clip-path="url(#pcb2f8284c3)" style="fill: none; stroke: #cccccc; stroke-linecap: round"/>
     </g>
     <g id="line2d_23">
      <defs>
       <path id="m742d5da3f8" d="M 0 0 
L 6 0 
" style="stroke: #262626; stroke-width: 1.25"/>
      </defs>
      <g>
       <use xlink:href="#m742d5da3f8" x="606.530156" y="129085275344.408539" style="fill: #262626; stroke: #262626; stroke-width: 1.25"/>
      </g>
     </g>
     <g id="text_20">
      <!-- −0.04 -->
      <g style="fill: #dd8452" transform="translate(616.030156 129085275348.587677) scale(0.11 -0.11)">
       <use xlink:href="#DejaVuSans-2212"/>
       <use xlink:href="#DejaVuSans-30" transform="translate(83.789062 0)"/>
       <use xlink:href="#DejaVuSans-2e" transform="translate(147.412109 0)"/>
       <use xlink:href="#DejaVuSans-30" transform="translate(179.199219 0)"/>
       <use xlink:href="#DejaVuSans-34" transform="translate(242.822266 0)"/>
      </g>
     </g>
    </g>
    <g id="ytick_7">
     <g id="line2d_24">
      <path d="M 48.530156 129085275283.928528 
L 606.530156 129085275283.928528 
" clip-path="url(#pcb2f8284c3)" style="fill: none; stroke: #cccccc; stroke-linecap: round"/>
     </g>
     <g id="line2d_25">
      <g>
       <use xlink:href="#m742d5da3f8" x="606.530156" y="129085275283.928528" style="fill: #262626; stroke: #262626; stroke-width: 1.25"/>
      </g>
     </g>
     <g id="text_21">
      <!-- −0.02 -->
      <g style="fill: #dd8452" transform="translate(616.030156 129085275288.107681) scale(0.11 -0.11)">
       <use xlink:href="#DejaVuSans-2212"/>
       <use xlink:href="#DejaVuSans-30" transform="translate(83.789062 0)"/>
       <use xlink:href="#DejaVuSans-2e" transform="translate(147.412109 0)"/>
       <use xlink:href="#DejaVuSans-30" transform="translate(179.199219 0)"/>
       <use xlink:href="#DejaVuSans-32" transform="translate(242.822266 0)"/>
      </g>
     </g>
    </g>
    <g id="ytick_8">
     <g id="line2d_26">
      <path d="M 48.530156 129085275223.448532 
L 606.530156 129085275223.448532 
" clip-path="url(#pcb2f8284c3)" style="fill: none; stroke: #cccccc; stroke-linecap: round"/>
     </g>
     <g id="line2d_27">
      <g>
       <use xlink:href="#m742d5da3f8" x="606.530156" y="129085275223.448532" style="fill: #262626; stroke: #262626; stroke-width: 1.25"/>
      </g>
     </g>
     <g id="text_22">
      <!-- 0.00 -->
      <g style="fill: #dd8452" transform="translate(616.030156 129085275227.627686) scale(0.11 -0.11)">
       <use xlink:href="#DejaVuSans-30"/>
       <use xlink:href="#DejaVuSans-2e" transform="translate(63.623047 0)"/>
       <use xlink:href="#DejaVuSans-30" transform="translate(95.410156 0)"/>
       <use xlink:href="#DejaVuSans-30" transform="translate(159.033203 0)"/>
      </g>
     </g>
    </g>
    <g id="ytick_9">
     <g id="line2d_28">
      <path d="M 48.530156 129085275162.968536 
L 606.530156 129085275162.968536 
" clip-path="url(#pcb2f8284c3)" style="fill: none; stroke: #cccccc; stroke-linecap: round"/>
     </g>
     <g id="line2d_29">
      <g>
       <use xlink:href="#m742d5da3f8" x="606.530156" y="129085275162.968536" style="fill: #262626; stroke: #262626; stroke-width: 1.25"/>
      </g>
     </g>
     <g id="text_23">
      <!-- 0.02 -->
      <g style="fill: #dd8452" transform="translate(616.030156 129085275167.147675) scale(0.11 -0.11)">
       <use xlink:href="#DejaVuSans-30"/>
       <use xlink:href="#DejaVuSans-2e" transform="translate(63.623047 0)"/>
       <use xlink:href="#DejaVuSans-30" transform="translate(95.410156 0)"/>
       <use xlink:href="#DejaVuSans-32" transform="translate(159.033203 0)"/>
      </g>
     </g>
    </g>
    <g id="ytick_10">
     <g id="line2d_30">
      <path d="M 48.530156 129085275102.488525 
L 606.530156 129085275102.488525 
" clip-path="url(#pcb2f8284c3)" style="fill: none; stroke: #cccccc; stroke-linecap: round"/>
     </g>
     <g id="line2d_31">
      <g>
       <use xlink:href="#m742d5da3f8" x="606.530156" y="129085275102.488525" style="fill: #262626; stroke: #262626; stroke-width: 1.25"/>
      </g>
     </g>
     <g id="text_24">
      <!-- 0.04 -->
      <g style="fill: #dd8452" transform="translate(616.030156 129085275106.667679) scale(0.11 -0.11)">
       <use xlink:href="#DejaVuSans-30"/>
       <use xlink:href="#DejaVuSans-2e" transform="translate(63.623047 0)"/>
       <use xlink:href="#DejaVuSans-30" transform="translate(95.410156 0)"/>
       <use xlink:href="#DejaVuSans-34" transform="translate(159.033203 0)"/>
      </g>
     </g>
    </g>
    <g id="text_25">
     <!-- $\alpha_{xx}^*$ -->
     <g style="fill: #dd8452" transform="translate(664.66 129085275232.568542) rotate(-90) scale(0.12 -0.12)">
      <use xlink:href="#DejaVuSans-Oblique-3b1" transform="translate(0 0.765625)"/>
      <use xlink:href="#DejaVuSans-2a" transform="translate(84.227435 39.046875) scale(0.7)"/>
      <use xlink:href="#DejaVuSans-Oblique-78" transform="translate(65.917969 -26.578125) scale(0.7)"/>
      <use xlink:href="#DejaVuSans-Oblique-78" transform="translate(107.34375 -26.578125) scale(0.7)"/>
     </g>
    </g>
   </g>
   <g id="line2d_32">
    <path d="M 73.893793 129085275223.448532 
L 84.246297 129085275223.448532 
L 94.598802 129085275223.448532 
L 104.951307 129085275223.448532 
L 115.303811 129085275223.448532 
L 125.656316 129085275223.448532 
L 136.00882 129085275223.448532 
L 146.361325 129085275223.448532 
L 156.71383 129085275223.448532 
L 167.066334 129085275223.448532 
L 177.418839 129085275223.448532 
L 187.771344 129085275223.448532 
L 198.123848 129085275223.448532 
L 208.476353 129085275223.448532 
L 218.828858 129085275223.448532 
L 229.181362 129085275223.448532 
L 239.533867 129085275223.448532 
L 249.886371 129085275223.448532 
L 260.238876 129085275223.448532 
L 270.591381 129085275223.448532 
L 280.943885 129085275223.448532 
L 291.29639 129085275223.448532 
L 301.648895 129085275223.448532 
L 312.001399 129085275223.448532 
L 322.353904 129085275223.448532 
L 332.706409 129085275223.448532 
L 343.058913 129085275223.448532 
L 353.411418 129085275223.448532 
L 363.763922 129085275223.448532 
L 374.116427 129085275223.448532 
L 384.468932 129085275223.448532 
L 394.821436 129085275223.448532 
L 405.173941 129085275223.448532 
L 415.526446 129085275223.448532 
L 425.87895 129085275223.448532 
L 436.231455 129085275223.448532 
L 446.58396 129085275223.448532 
L 456.936464 129085275223.448532 
L 467.288969 129085275223.448532 
L 477.641474 129085275223.448532 
L 487.993978 129085275223.448532 
L 498.346483 129085275223.448532 
L 508.698987 129085275223.448532 
L 519.051492 129085275223.448532 
L 529.403997 129085275223.448532 
L 539.756501 129085275223.448532 
L 550.109006 129085275223.448532 
L 560.461511 129085275223.448532 
L 570.814015 129085275223.448532 
L 581.16652 129085275223.448532 
" clip-path="url(#pcb2f8284c3)" style="fill: none; stroke-dasharray: 4.44,1.92; stroke-dashoffset: 0; stroke: #dd8452; stroke-opacity: 0.7; stroke-width: 1.2"/>
    <g clip-path="url(#pcb2f8284c3)">
     <use xlink:href="#m5e241fcf95" x="73.893793" y="129085275223.448532" style="fill: #dd8452; fill-opacity: 0.7; stroke: #dd8452; stroke-opacity: 0.7; stroke-linejoin: miter"/>
     <use xlink:href="#m5e241fcf95" x="84.246297" y="129085275223.448532" style="fill: #dd8452; fill-opacity: 0.7; stroke: #dd8452; stroke-opacity: 0.7; stroke-linejoin: miter"/>
     <use xlink:href="#m5e241fcf95" x="94.598802" y="129085275223.448532" style="fill: #dd8452; fill-opacity: 0.7; stroke: #dd8452; stroke-opacity: 0.7; stroke-linejoin: miter"/>
     <use xlink:href="#m5e241fcf95" x="104.951307" y="129085275223.448532" style="fill: #dd8452; fill-opacity: 0.7; stroke: #dd8452; stroke-opacity: 0.7; stroke-linejoin: miter"/>
     <use xlink:href="#m5e241fcf95" x="115.303811" y="129085275223.448532" style="fill: #dd8452; fill-opacity: 0.7; stroke: #dd8452; stroke-opacity: 0.7; stroke-linejoin: miter"/>
     <use xlink:href="#m5e241fcf95" x="125.656316" y="129085275223.448532" style="fill: #dd8452; fill-opacity: 0.7; stroke: #dd8452; stroke-opacity: 0.7; stroke-linejoin: miter"/>
     <use xlink:href="#m5e241fcf95" x="136.00882" y="129085275223.448532" style="fill: #dd8452; fill-opacity: 0.7; stroke: #dd8452; stroke-opacity: 0.7; stroke-linejoin: miter"/>
     <use xlink:href="#m5e241fcf95" x="146.361325" y="129085275223.448532" style="fill: #dd8452; fill-opacity: 0.7; stroke: #dd8452; stroke-opacity: 0.7; stroke-linejoin: miter"/>
     <use xlink:href="#m5e241fcf95" x="156.71383" y="129085275223.448532" style="fill: #dd8452; fill-opacity: 0.7; stroke: #dd8452; stroke-opacity: 0.7; stroke-linejoin: miter"/>
     <use xlink:href="#m5e241fcf95" x="167.066334" y="129085275223.448532" style="fill: #dd8452; fill-opacity: 0.7; stroke: #dd8452; stroke-opacity: 0.7; stroke-linejoin: miter"/>
     <use xlink:href="#m5e241fcf95" x="177.418839" y="129085275223.448532" style="fill: #dd8452; fill-opacity: 0.7; stroke: #dd8452; stroke-opacity: 0.7; stroke-linejoin: miter"/>
     <use xlink:href="#m5e241fcf95" x="187.771344" y="129085275223.448532" style="fill: #dd8452; fill-opacity: 0.7; stroke: #dd8452; stroke-opacity: 0.7; stroke-linejoin: miter"/>
     <use xlink:href="#m5e241fcf95" x="198.123848" y="129085275223.448532" style="fill: #dd8452; fill-opacity: 0.7; stroke: #dd8452; stroke-opacity: 0.7; stroke-linejoin: miter"/>
     <use xlink:href="#m5e241fcf95" x="208.476353" y="129085275223.448532" style="fill: #dd8452; fill-opacity: 0.7; stroke: #dd8452; stroke-opacity: 0.7; stroke-linejoin: miter"/>
     <use xlink:href="#m5e241fcf95" x="218.828858" y="129085275223.448532" style="fill: #dd8452; fill-opacity: 0.7; stroke: #dd8452; stroke-opacity: 0.7; stroke-linejoin: miter"/>
     <use xlink:href="#m5e241fcf95" x="229.181362" y="129085275223.448532" style="fill: #dd8452; fill-opacity: 0.7; stroke: #dd8452; stroke-opacity: 0.7; stroke-linejoin: miter"/>
     <use xlink:href="#m5e241fcf95" x="239.533867" y="129085275223.448532" style="fill: #dd8452; fill-opacity: 0.7; stroke: #dd8452; stroke-opacity: 0.7; stroke-linejoin: miter"/>
     <use xlink:href="#m5e241fcf95" x="249.886371" y="129085275223.448532" style="fill: #dd8452; fill-opacity: 0.7; stroke: #dd8452; stroke-opacity: 0.7; stroke-linejoin: miter"/>
     <use xlink:href="#m5e241fcf95" x="260.238876" y="129085275223.448532" style="fill: #dd8452; fill-opacity: 0.7; stroke: #dd8452; stroke-opacity: 0.7; stroke-linejoin: miter"/>
     <use xlink:href="#m5e241fcf95" x="270.591381" y="129085275223.448532" style="fill: #dd8452; fill-opacity: 0.7; stroke: #dd8452; stroke-opacity: 0.7; stroke-linejoin: miter"/>
     <use xlink:href="#m5e241fcf95" x="280.943885" y="129085275223.448532" style="fill: #dd8452; fill-opacity: 0.7; stroke: #dd8452; stroke-opacity: 0.7; stroke-linejoin: miter"/>
     <use xlink:href="#m5e241fcf95" x="291.29639" y="129085275223.448532" style="fill: #dd8452; fill-opacity: 0.7; stroke: #dd8452; stroke-opacity: 0.7; stroke-linejoin: miter"/>
     <use xlink:href="#m5e241fcf95" x="301.648895" y="129085275223.448532" style="fill: #dd8452; fill-opacity: 0.7; stroke: #dd8452; stroke-opacity: 0.7; stroke-linejoin: miter"/>
     <use xlink:href="#m5e241fcf95" x="312.001399" y="129085275223.448532" style="fill: #dd8452; fill-opacity: 0.7; stroke: #dd8452; stroke-opacity: 0.7; stroke-linejoin: miter"/>
     <use xlink:href="#m5e241fcf95" x="322.353904" y="129085275223.448532" style="fill: #dd8452; fill-opacity: 0.7; stroke: #dd8452; stroke-opacity: 0.7; stroke-linejoin: miter"/>
     <use xlink:href="#m5e241fcf95" x="332.706409" y="129085275223.448532" style="fill: #dd8452; fill-opacity: 0.7; stroke: #dd8452; stroke-opacity: 0.7; stroke-linejoin: miter"/>
     <use xlink:href="#m5e241fcf95" x="343.058913" y="129085275223.448532" style="fill: #dd8452; fill-opacity: 0.7; stroke: #dd8452; stroke-opacity: 0.7; stroke-linejoin: miter"/>
     <use xlink:href="#m5e241fcf95" x="353.411418" y="129085275223.448532" style="fill: #dd8452; fill-opacity: 0.7; stroke: #dd8452; stroke-opacity: 0.7; stroke-linejoin: miter"/>
     <use xlink:href="#m5e241fcf95" x="363.763922" y="129085275223.448532" style="fill: #dd8452; fill-opacity: 0.7; stroke: #dd8452; stroke-opacity: 0.7; stroke-linejoin: miter"/>
     <use xlink:href="#m5e241fcf95" x="374.116427" y="129085275223.448532" style="fill: #dd8452; fill-opacity: 0.7; stroke: #dd8452; stroke-opacity: 0.7; stroke-linejoin: miter"/>
     <use xlink:href="#m5e241fcf95" x="384.468932" y="129085275223.448532" style="fill: #dd8452; fill-opacity: 0.7; stroke: #dd8452; stroke-opacity: 0.7; stroke-linejoin: miter"/>
     <use xlink:href="#m5e241fcf95" x="394.821436" y="129085275223.448532" style="fill: #dd8452; fill-opacity: 0.7; stroke: #dd8452; stroke-opacity: 0.7; stroke-linejoin: miter"/>
     <use xlink:href="#m5e241fcf95" x="405.173941" y="129085275223.448532" style="fill: #dd8452; fill-opacity: 0.7; stroke: #dd8452; stroke-opacity: 0.7; stroke-linejoin: miter"/>
     <use xlink:href="#m5e241fcf95" x="415.526446" y="129085275223.448532" style="fill: #dd8452; fill-opacity: 0.7; stroke: #dd8452; stroke-opacity: 0.7; stroke-linejoin: miter"/>
     <use xlink:href="#m5e241fcf95" x="425.87895" y="129085275223.448532" style="fill: #dd8452; fill-opacity: 0.7; stroke: #dd8452; stroke-opacity: 0.7; stroke-linejoin: miter"/>
     <use xlink:href="#m5e241fcf95" x="436.231455" y="129085275223.448532" style="fill: #dd8452; fill-opacity: 0.7; stroke: #dd8452; stroke-opacity: 0.7; stroke-linejoin: miter"/>
     <use xlink:href="#m5e241fcf95" x="446.58396" y="129085275223.448532" style="fill: #dd8452; fill-opacity: 0.7; stroke: #dd8452; stroke-opacity: 0.7; stroke-linejoin: miter"/>
     <use xlink:href="#m5e241fcf95" x="456.936464" y="129085275223.448532" style="fill: #dd8452; fill-opacity: 0.7; stroke: #dd8452; stroke-opacity: 0.7; stroke-linejoin: miter"/>
     <use xlink:href="#m5e241fcf95" x="467.288969" y="129085275223.448532" style="fill: #dd8452; fill-opacity: 0.7; stroke: #dd8452; stroke-opacity: 0.7; stroke-linejoin: miter"/>
     <use xlink:href="#m5e241fcf95" x="477.641474" y="129085275223.448532" style="fill: #dd8452; fill-opacity: 0.7; stroke: #dd8452; stroke-opacity: 0.7; stroke-linejoin: miter"/>
     <use xlink:href="#m5e241fcf95" x="487.993978" y="129085275223.448532" style="fill: #dd8452; fill-opacity: 0.7; stroke: #dd8452; stroke-opacity: 0.7; stroke-linejoin: miter"/>
     <use xlink:href="#m5e241fcf95" x="498.346483" y="129085275223.448532" style="fill: #dd8452; fill-opacity: 0.7; stroke: #dd8452; stroke-opacity: 0.7; stroke-linejoin: miter"/>
     <use xlink:href="#m5e241fcf95" x="508.698987" y="129085275223.448532" style="fill: #dd8452; fill-opacity: 0.7; stroke: #dd8452; stroke-opacity: 0.7; stroke-linejoin: miter"/>
     <use xlink:href="#m5e241fcf95" x="519.051492" y="129085275223.448532" style="fill: #dd8452; fill-opacity: 0.7; stroke: #dd8452; stroke-opacity: 0.7; stroke-linejoin: miter"/>
     <use xlink:href="#m5e241fcf95" x="529.403997" y="129085275223.448532" style="fill: #dd8452; fill-opacity: 0.7; stroke: #dd8452; stroke-opacity: 0.7; stroke-linejoin: miter"/>
     <use xlink:href="#m5e241fcf95" x="539.756501" y="129085275223.448532" style="fill: #dd8452; fill-opacity: 0.7; stroke: #dd8452; stroke-opacity: 0.7; stroke-linejoin: miter"/>
     <use xlink:href="#m5e241fcf95" x="550.109006" y="129085275223.448532" style="fill: #dd8452; fill-opacity: 0.7; stroke: #dd8452; stroke-opacity: 0.7; stroke-linejoin: miter"/>
     <use xlink:href="#m5e241fcf95" x="560.461511" y="129085275223.448532" style="fill: #dd8452; fill-opacity: 0.7; stroke: #dd8452; stroke-opacity: 0.7; stroke-linejoin: miter"/>
     <use xlink:href="#m5e241fcf95" x="570.814015" y="129085275223.448532" style="fill: #dd8452; fill-opacity: 0.7; stroke: #dd8452; stroke-opacity: 0.7; stroke-linejoin: miter"/>
     <use xlink:href="#m5e241fcf95" x="581.16652" y="129085275223.448532" style="fill: #dd8452; fill-opacity: 0.7; stroke: #dd8452; stroke-opacity: 0.7; stroke-linejoin: miter"/>
    </g>
   </g>
   <g id="patch_10">
    <path d="M 48.530156 129085275389.768539 
L 48.530156 129085275057.128525 
" style="fill: none; stroke: #cccccc; stroke-width: 1.25; stroke-linejoin: miter; stroke-linecap: square"/>
   </g>
   <g id="patch_11">
    <path d="M 606.530156 129085275389.768539 
L 606.530156 129085275057.128525 
" style="fill: none; stroke: #cccccc; stroke-width: 1.25; stroke-linejoin: miter; stroke-linecap: square"/>
   </g>
   <g id="patch_12">
    <path d="M 48.530156 129085275389.768539 
L 606.530156 129085275389.768539 
" style="fill: none; stroke: #cccccc; stroke-width: 1.25; stroke-linejoin: miter; stroke-linecap: square"/>
   </g>
   <g id="patch_13">
    <path d="M 48.530156 129085275057.12854 
L 606.530156 129085275057.12854 
" style="fill: none; stroke: #cccccc; stroke-width: 1.25; stroke-linejoin: miter; stroke-linecap: square"/>
   </g>
  </g>
 </g>
 <defs>
  <clipPath id="pcb2f8284c3">
   <rect x="48.530156" y="129085275057.12854" width="558" height="332.64"/>
  </clipPath>
 </defs>
</svg>
