<?xml version="1.0" encoding="utf-8" standalone="no"?>
<!DOCTYPE svg PUBLIC "-//W3C//DTD SVG 1.1//EN"
  "http://www.w3.org/Graphics/SVG/1.1/DTD/svg11.dtd">
<svg xmlns:xlink="http://www.w3.org/1999/xlink" width="563.325937pt" height="344.417969pt" viewBox="0 0 563.325937 344.417969" xmlns="http://www.w3.org/2000/svg" version="1.1">
 <metadata>
  <rdf:RDF xmlns:dc="http://purl.org/dc/elements/1.1/" xmlns:cc="http://creativecommons.org/ns#" xmlns:rdf="http://www.w3.org/1999/02/22-rdf-syntax-ns#">
   <cc:Work>
    <dc:type rdf:resource="http://purl.org/dc/dcmitype/StillImage"/>
    <dc:date>2026-05-19T10:24:58.389260</dc:date>
    <dc:format>image/svg+xml</dc:format>
    <dc:creator>
     <cc:Agent>
      <dc:title>Matplotlib v3.10.5, https://matplotlib.org/</dc:title>
     </cc:Agent>
    </dc:creator>
   </cc:Work>
  </rdf:RDF>
 </metadata>
 <defs>
  <style type="text/css">*{stroke-linejoin: round; stroke-linecap: butt}</style>
 </defs>
 <g id="figure_1">
  <g id="patch_1">
   <path d="M 0 344.417969 
L 563.325937 344.417969 
L 563.325937 0 
L 0 0 
z
" style="fill: #ffffff"/>
  </g>
  <g id="axes_1">
   <g id="patch_2">
    <path d="M 56.805937 301.458281 
L 381.045938 301.458281 
L 381.045938 33.798281 
L 56.805937 33.798281 
z
" style="fill: #ffffff"/>
   </g>
   <g id="matplotlib.axis_1">
    <g id="xtick_1">
     <g id="line2d_1">
      <path d="M 65.528535 301.458281 
L 65.528535 33.798281 
" clip-path="url(#pe1286f7694)" style="fill: none; stroke: #cccccc; stroke-linecap: round"/>
     </g>
     <g id="text_1">
      <!-- 0 -->
      <g style="fill: #262626" transform="translate(62.02916 319.316562) scale(0.11 -0.11)">
       <defs>
        <path id="DejaVuSans-30" d="M 2034 4250 
Q 1547 4250 1301 3770 
Q 1056 3291 1056 2328 
Q 1056 1369 1301 889 
Q 1547 409 2034 409 
Q 2525 409 2770 889 
Q 3016 1369 3016 2328 
Q 3016 3291 2770 3770 
Q 2525 4250 2034 4250 
z
M 2034 4750 
Q 2819 4750 3233 4129 
Q 3647 3509 3647 2328 
Q 3647 1150 3233 529 
Q 2819 -91 2034 -91 
Q 1250 -91 836 529 
Q 422 1150 422 2328 
Q 422 3509 836 4129 
Q 1250 4750 2034 4750 
z
" transform="scale(0.015625)"/>
       </defs>
       <use xlink:href="#DejaVuSans-30"/>
      </g>
     </g>
    </g>
    <g id="xtick_2">
     <g id="line2d_2">
      <path d="M 125.684379 301.458281 
L 125.684379 33.798281 
" clip-path="url(#pe1286f7694)" style="fill: none; stroke: #cccccc; stroke-linecap: round"/>
     </g>
     <g id="text_2">
      <!-- 1 -->
      <g style="fill: #262626" transform="translate(122.185004 319.316562) scale(0.11 -0.11)">
       <defs>
        <path id="DejaVuSans-31" d="M 794 531 
L 1825 531 
L 1825 4091 
L 703 3866 
L 703 4441 
L 1819 4666 
L 2450 4666 
L 2450 531 
L 3481 531 
L 3481 0 
L 794 0 
L 794 531 
z
" transform="scale(0.015625)"/>
       </defs>
       <use xlink:href="#DejaVuSans-31"/>
      </g>
     </g>
    </g>
    <g id="xtick_3">
     <g id="line2d_3">
      <path d="M 185.840223 301.458281 
L 185.840223 33.798281 
" clip-path="url(#pe1286f7694)" style="fill: none; stroke: #cccccc; stroke-linecap: round"/>
     </g>
     <g id="text_3">
      <!-- 2 -->
      <g style="fill: #262626" transform="translate(182.340848 319.316562) scale(0.11 -0.11)">
       <defs>
        <path id="DejaVuSans-32" d="M 1228 531 
L 3431 531 
L 3431 0 
L 469 0 
L 469 531 
Q 828 903 1448 1529 
Q 2069 2156 2228 2338 
Q 2531 2678 2651 2914 
Q 2772 3150 2772 3378 
Q 2772 3750 2511 3984 
Q 2250 4219 1831 4219 
Q 1534 4219 1204 4116 
Q 875 4013 500 3803 
L 500 4441 
Q 881 4594 1212 4672 
Q 1544 4750 1819 4750 
Q 2544 4750 2975 4387 
Q 3406 4025 3406 3419 
Q 3406 3131 3298 2873 
Q 3191 2616 2906 2266 
Q 2828 2175 2409 1742 
Q 1991 1309 1228 531 
z
" transform="scale(0.015625)"/>
       </defs>
       <use xlink:href="#DejaVuSans-32"/>
      </g>
     </g>
    </g>
    <g id="xtick_4">
     <g id="line2d_4">
      <path d="M 245.996067 301.458281 
L 245.996067 33.798281 
" clip-path="url(#pe1286f7694)" style="fill: none; stroke: #cccccc; stroke-linecap: round"/>
     </g>
     <g id="text_4">
      <!-- 3 -->
      <g style="fill: #262626" transform="translate(242.496692 319.316562) scale(0.11 -0.11)">
       <defs>
        <path id="DejaVuSans-33" d="M 2597 2516 
Q 3050 2419 3304 2112 
Q 3559 1806 3559 1356 
Q 3559 666 3084 287 
Q 2609 -91 1734 -91 
Q 1441 -91 1130 -33 
Q 819 25 488 141 
L 488 750 
Q 750 597 1062 519 
Q 1375 441 1716 441 
Q 2309 441 2620 675 
Q 2931 909 2931 1356 
Q 2931 1769 2642 2001 
Q 2353 2234 1838 2234 
L 1294 2234 
L 1294 2753 
L 1863 2753 
Q 2328 2753 2575 2939 
Q 2822 3125 2822 3475 
Q 2822 3834 2567 4026 
Q 2313 4219 1838 4219 
Q 1578 4219 1281 4162 
Q 984 4106 628 3988 
L 628 4550 
Q 988 4650 1302 4700 
Q 1616 4750 1894 4750 
Q 2613 4750 3031 4423 
Q 3450 4097 3450 3541 
Q 3450 3153 3228 2886 
Q 3006 2619 2597 2516 
z
" transform="scale(0.015625)"/>
       </defs>
       <use xlink:href="#DejaVuSans-33"/>
      </g>
     </g>
    </g>
    <g id="xtick_5">
     <g id="line2d_5">
      <path d="M 306.151912 301.458281 
L 306.151912 33.798281 
" clip-path="url(#pe1286f7694)" style="fill: none; stroke: #cccccc; stroke-linecap: round"/>
     </g>
     <g id="text_5">
      <!-- 4 -->
      <g style="fill: #262626" transform="translate(302.652537 319.316562) scale(0.11 -0.11)">
       <defs>
        <path id="DejaVuSans-34" d="M 2419 4116 
L 825 1625 
L 2419 1625 
L 2419 4116 
z
M 2253 4666 
L 3047 4666 
L 3047 1625 
L 3713 1625 
L 3713 1100 
L 3047 1100 
L 3047 0 
L 2419 0 
L 2419 1100 
L 313 1100 
L 313 1709 
L 2253 4666 
z
" transform="scale(0.015625)"/>
       </defs>
       <use xlink:href="#DejaVuSans-34"/>
      </g>
     </g>
    </g>
    <g id="xtick_6">
     <g id="line2d_6">
      <path d="M 366.307756 301.458281 
L 366.307756 33.798281 
" clip-path="url(#pe1286f7694)" style="fill: none; stroke: #cccccc; stroke-linecap: round"/>
     </g>
     <g id="text_6">
      <!-- 5 -->
      <g style="fill: #262626" transform="translate(362.808381 319.316562) scale(0.11 -0.11)">
       <defs>
        <path id="DejaVuSans-35" d="M 691 4666 
L 3169 4666 
L 3169 4134 
L 1269 4134 
L 1269 2991 
Q 1406 3038 1543 3061 
Q 1681 3084 1819 3084 
Q 2600 3084 3056 2656 
Q 3513 2228 3513 1497 
Q 3513 744 3044 326 
Q 2575 -91 1722 -91 
Q 1428 -91 1123 -41 
Q 819 9 494 109 
L 494 744 
Q 775 591 1075 516 
Q 1375 441 1709 441 
Q 2250 441 2565 725 
Q 2881 1009 2881 1497 
Q 2881 1984 2565 2268 
Q 2250 2553 1709 2553 
Q 1456 2553 1204 2497 
Q 953 2441 691 2322 
L 691 4666 
z
" transform="scale(0.015625)"/>
       </defs>
       <use xlink:href="#DejaVuSans-35"/>
      </g>
     </g>
    </g>
    <g id="text_7">
     <!-- $\theta$ -->
     <g style="fill: #262626" transform="translate(215.205938 334.722344) scale(0.12 -0.12)">
      <defs>
       <path id="DejaVuSans-Oblique-3b8" d="M 2913 2219 
L 925 2219 
Q 791 1284 928 888 
Q 1100 400 1566 400 
Q 2034 400 2391 891 
Q 2703 1322 2913 2219 
z
M 3009 2750 
Q 3094 3638 2984 3950 
Q 2813 4444 2353 4444 
Q 1875 4444 1525 3956 
Q 1250 3563 1034 2750 
L 3009 2750 
z
M 2444 4913 
Q 3194 4913 3494 4250 
Q 3794 3591 3566 2422 
Q 3341 1256 2781 594 
Q 2225 -72 1475 -72 
Q 722 -72 425 594 
Q 128 1256 353 2422 
Q 581 3591 1134 4250 
Q 1691 4913 2444 4913 
z
" transform="scale(0.015625)"/>
      </defs>
      <use xlink:href="#DejaVuSans-Oblique-3b8" transform="translate(0 0.234375)"/>
     </g>
    </g>
   </g>
   <g id="matplotlib.axis_2">
    <g id="ytick_1">
     <g id="line2d_7">
      <path d="M 56.805937 267.575027 
L 381.045938 267.575027 
" clip-path="url(#pe1286f7694)" style="fill: none; stroke: #cccccc; stroke-linecap: round"/>
     </g>
     <g id="text_8">
      <!-- 7.0 -->
      <g style="fill: #262626" transform="translate(29.8125 271.754168) scale(0.11 -0.11)">
       <defs>
        <path id="DejaVuSans-37" d="M 525 4666 
L 3525 4666 
L 3525 4397 
L 1831 0 
L 1172 0 
L 2766 4134 
L 525 4134 
L 525 4666 
z
" transform="scale(0.015625)"/>
        <path id="DejaVuSans-2e" d="M 684 794 
L 1344 794 
L 1344 0 
L 684 0 
L 684 794 
z
" transform="scale(0.015625)"/>
       </defs>
       <use xlink:href="#DejaVuSans-37"/>
       <use xlink:href="#DejaVuSans-2e" transform="translate(63.623047 0)"/>
       <use xlink:href="#DejaVuSans-30" transform="translate(95.410156 0)"/>
      </g>
     </g>
    </g>
    <g id="ytick_2">
     <g id="line2d_8">
      <path d="M 56.805937 230.639969 
L 381.045938 230.639969 
" clip-path="url(#pe1286f7694)" style="fill: none; stroke: #cccccc; stroke-linecap: round"/>
     </g>
     <g id="text_9">
      <!-- 7.5 -->
      <g style="fill: #262626" transform="translate(29.8125 234.819109) scale(0.11 -0.11)">
       <use xlink:href="#DejaVuSans-37"/>
       <use xlink:href="#DejaVuSans-2e" transform="translate(63.623047 0)"/>
       <use xlink:href="#DejaVuSans-35" transform="translate(95.410156 0)"/>
      </g>
     </g>
    </g>
    <g id="ytick_3">
     <g id="line2d_9">
      <path d="M 56.805937 193.70491 
L 381.045938 193.70491 
" clip-path="url(#pe1286f7694)" style="fill: none; stroke: #cccccc; stroke-linecap: round"/>
     </g>
     <g id="text_10">
      <!-- 8.0 -->
      <g style="fill: #262626" transform="translate(29.8125 197.884051) scale(0.11 -0.11)">
       <defs>
        <path id="DejaVuSans-38" d="M 2034 2216 
Q 1584 2216 1326 1975 
Q 1069 1734 1069 1313 
Q 1069 891 1326 650 
Q 1584 409 2034 409 
Q 2484 409 2743 651 
Q 3003 894 3003 1313 
Q 3003 1734 2745 1975 
Q 2488 2216 2034 2216 
z
M 1403 2484 
Q 997 2584 770 2862 
Q 544 3141 544 3541 
Q 544 4100 942 4425 
Q 1341 4750 2034 4750 
Q 2731 4750 3128 4425 
Q 3525 4100 3525 3541 
Q 3525 3141 3298 2862 
Q 3072 2584 2669 2484 
Q 3125 2378 3379 2068 
Q 3634 1759 3634 1313 
Q 3634 634 3220 271 
Q 2806 -91 2034 -91 
Q 1263 -91 848 271 
Q 434 634 434 1313 
Q 434 1759 690 2068 
Q 947 2378 1403 2484 
z
M 1172 3481 
Q 1172 3119 1398 2916 
Q 1625 2713 2034 2713 
Q 2441 2713 2670 2916 
Q 2900 3119 2900 3481 
Q 2900 3844 2670 4047 
Q 2441 4250 2034 4250 
Q 1625 4250 1398 4047 
Q 1172 3844 1172 3481 
z
" transform="scale(0.015625)"/>
       </defs>
       <use xlink:href="#DejaVuSans-38"/>
       <use xlink:href="#DejaVuSans-2e" transform="translate(63.623047 0)"/>
       <use xlink:href="#DejaVuSans-30" transform="translate(95.410156 0)"/>
      </g>
     </g>
    </g>
    <g id="ytick_4">
     <g id="line2d_10">
      <path d="M 56.805937 156.769852 
L 381.045938 156.769852 
" clip-path="url(#pe1286f7694)" style="fill: none; stroke: #cccccc; stroke-linecap: round"/>
     </g>
     <g id="text_11">
      <!-- 8.5 -->
      <g style="fill: #262626" transform="translate(29.8125 160.948992) scale(0.11 -0.11)">
       <use xlink:href="#DejaVuSans-38"/>
       <use xlink:href="#DejaVuSans-2e" transform="translate(63.623047 0)"/>
       <use xlink:href="#DejaVuSans-35" transform="translate(95.410156 0)"/>
      </g>
     </g>
    </g>
    <g id="ytick_5">
     <g id="line2d_11">
      <path d="M 56.805937 119.834778 
L 381.045938 119.834778 
" clip-path="url(#pe1286f7694)" style="fill: none; stroke: #cccccc; stroke-linecap: round"/>
     </g>
     <g id="text_12">
      <!-- 9.0 -->
      <g style="fill: #262626" transform="translate(29.8125 124.013918) scale(0.11 -0.11)">
       <defs>
        <path id="DejaVuSans-39" d="M 703 97 
L 703 672 
Q 941 559 1184 500 
Q 1428 441 1663 441 
Q 2288 441 2617 861 
Q 2947 1281 2994 2138 
Q 2813 1869 2534 1725 
Q 2256 1581 1919 1581 
Q 1219 1581 811 2004 
Q 403 2428 403 3163 
Q 403 3881 828 4315 
Q 1253 4750 1959 4750 
Q 2769 4750 3195 4129 
Q 3622 3509 3622 2328 
Q 3622 1225 3098 567 
Q 2575 -91 1691 -91 
Q 1453 -91 1209 -44 
Q 966 3 703 97 
z
M 1959 2075 
Q 2384 2075 2632 2365 
Q 2881 2656 2881 3163 
Q 2881 3666 2632 3958 
Q 2384 4250 1959 4250 
Q 1534 4250 1286 3958 
Q 1038 3666 1038 3163 
Q 1038 2656 1286 2365 
Q 1534 2075 1959 2075 
z
" transform="scale(0.015625)"/>
       </defs>
       <use xlink:href="#DejaVuSans-39"/>
       <use xlink:href="#DejaVuSans-2e" transform="translate(63.623047 0)"/>
       <use xlink:href="#DejaVuSans-30" transform="translate(95.410156 0)"/>
      </g>
     </g>
    </g>
    <g id="ytick_6">
     <g id="line2d_12">
      <path d="M 56.805937 82.899734 
L 381.045938 82.899734 
" clip-path="url(#pe1286f7694)" style="fill: none; stroke: #cccccc; stroke-linecap: round"/>
     </g>
     <g id="text_13">
      <!-- 9.5 -->
      <g style="fill: #262626" transform="translate(29.8125 87.078875) scale(0.11 -0.11)">
       <use xlink:href="#DejaVuSans-39"/>
       <use xlink:href="#DejaVuSans-2e" transform="translate(63.623047 0)"/>
       <use xlink:href="#DejaVuSans-35" transform="translate(95.410156 0)"/>
      </g>
     </g>
    </g>
    <g id="ytick_7">
     <g id="line2d_13">
      <path d="M 56.805937 45.964676 
L 381.045938 45.964676 
" clip-path="url(#pe1286f7694)" style="fill: none; stroke: #cccccc; stroke-linecap: round"/>
     </g>
     <g id="text_14">
      <!-- 10.0 -->
      <g style="fill: #262626" transform="translate(22.81375 50.143817) scale(0.11 -0.11)">
       <use xlink:href="#DejaVuSans-31"/>
       <use xlink:href="#DejaVuSans-30" transform="translate(63.623047 0)"/>
       <use xlink:href="#DejaVuSans-2e" transform="translate(127.246094 0)"/>
       <use xlink:href="#DejaVuSans-30" transform="translate(159.033203 0)"/>
      </g>
     </g>
    </g>
    <g id="text_15">
     <!-- $\Delta\theta$ -->
     <g style="fill: #262626" transform="translate(16.318125 175.428281) rotate(-90) scale(0.12 -0.12)">
      <defs>
       <path id="DejaVuSans-394" d="M 2188 4044 
L 906 525 
L 3472 525 
L 2188 4044 
z
M 50 0 
L 1831 4666 
L 2547 4666 
L 4325 0 
L 50 0 
z
" transform="scale(0.015625)"/>
      </defs>
      <use xlink:href="#DejaVuSans-394" transform="translate(0 0.234375)"/>
      <use xlink:href="#DejaVuSans-Oblique-3b8" transform="translate(68.408203 0.234375)"/>
     </g>
    </g>
    <g id="text_16">
     <!-- 1e−10+9.9999999e−2 -->
     <g style="fill: #262626" transform="translate(56.805937 30.798281) scale(0.11 -0.11)">
      <defs>
       <path id="DejaVuSans-65" d="M 3597 1894 
L 3597 1613 
L 953 1613 
Q 991 1019 1311 708 
Q 1631 397 2203 397 
Q 2534 397 2845 478 
Q 3156 559 3463 722 
L 3463 178 
Q 3153 47 2828 -22 
Q 2503 -91 2169 -91 
Q 1331 -91 842 396 
Q 353 884 353 1716 
Q 353 2575 817 3079 
Q 1281 3584 2069 3584 
Q 2775 3584 3186 3129 
Q 3597 2675 3597 1894 
z
M 3022 2063 
Q 3016 2534 2758 2815 
Q 2500 3097 2075 3097 
Q 1594 3097 1305 2825 
Q 1016 2553 972 2059 
L 3022 2063 
z
" transform="scale(0.015625)"/>
       <path id="DejaVuSans-2212" d="M 678 2272 
L 4684 2272 
L 4684 1741 
L 678 1741 
L 678 2272 
z
" transform="scale(0.015625)"/>
       <path id="DejaVuSans-2b" d="M 2944 4013 
L 2944 2272 
L 4684 2272 
L 4684 1741 
L 2944 1741 
L 2944 0 
L 2419 0 
L 2419 1741 
L 678 1741 
L 678 2272 
L 2419 2272 
L 2419 4013 
L 2944 4013 
z
" transform="scale(0.015625)"/>
      </defs>
      <use xlink:href="#DejaVuSans-31"/>
      <use xlink:href="#DejaVuSans-65" transform="translate(63.623047 0)"/>
      <use xlink:href="#DejaVuSans-2212" transform="translate(125.146484 0)"/>
      <use xlink:href="#DejaVuSans-31" transform="translate(208.935547 0)"/>
      <use xlink:href="#DejaVuSans-30" transform="translate(272.558594 0)"/>
      <use xlink:href="#DejaVuSans-2b" transform="translate(336.181641 0)"/>
      <use xlink:href="#DejaVuSans-39" transform="translate(419.970703 0)"/>
      <use xlink:href="#DejaVuSans-2e" transform="translate(483.59375 0)"/>
      <use xlink:href="#DejaVuSans-39" transform="translate(515.380859 0)"/>
      <use xlink:href="#DejaVuSans-39" transform="translate(579.003906 0)"/>
      <use xlink:href="#DejaVuSans-39" transform="translate(642.626953 0)"/>
      <use xlink:href="#DejaVuSans-39" transform="translate(706.25 0)"/>
      <use xlink:href="#DejaVuSans-39" transform="translate(769.873047 0)"/>
      <use xlink:href="#DejaVuSans-39" transform="translate(833.496094 0)"/>
      <use xlink:href="#DejaVuSans-39" transform="translate(897.119141 0)"/>
      <use xlink:href="#DejaVuSans-65" transform="translate(960.742188 0)"/>
      <use xlink:href="#DejaVuSans-2212" transform="translate(1022.265625 0)"/>
      <use xlink:href="#DejaVuSans-32" transform="translate(1106.054688 0)"/>
     </g>
    </g>
   </g>
   <g id="line2d_14">
    <path d="M 56.805937 45.964661 
L 381.045938 45.964661 
" clip-path="url(#pe1286f7694)" style="fill: none; stroke-dasharray: 5.55,2.4; stroke-dashoffset: 0; stroke: #dd8452; stroke-opacity: 0.6; stroke-width: 1.5"/>
   </g>
   <g id="line2d_15">
    <path d="M 71.544119 97.692932 
L 95.606457 114.15657 
L 125.684379 139.029999 
L 185.840223 119.776855 
L 366.307756 289.291931 
" clip-path="url(#pe1286f7694)" style="fill: none; stroke: #4c72b0; stroke-width: 2; stroke-linecap: round"/>
    <defs>
     <path id="mb6c7e59c2e" d="M 0 4 
C 1.060812 4 2.078319 3.578535 2.828427 2.828427 
C 3.578535 2.078319 4 1.060812 4 0 
C 4 -1.060812 3.578535 -2.078319 2.828427 -2.828427 
C 2.078319 -3.578535 1.060812 -4 0 -4 
C -1.060812 -4 -2.078319 -3.578535 -2.828427 -2.828427 
C -3.578535 -2.078319 -4 -1.060812 -4 0 
C -4 1.060812 -3.578535 2.078319 -2.828427 2.828427 
C -2.078319 3.578535 -1.060812 4 0 4 
z
" style="stroke: #4c72b0"/>
    </defs>
    <g clip-path="url(#pe1286f7694)">
     <use xlink:href="#mb6c7e59c2e" x="71.544119" y="97.692932" style="fill: #4c72b0; stroke: #4c72b0"/>
     <use xlink:href="#mb6c7e59c2e" x="95.606457" y="114.15657" style="fill: #4c72b0; stroke: #4c72b0"/>
     <use xlink:href="#mb6c7e59c2e" x="125.684379" y="139.029999" style="fill: #4c72b0; stroke: #4c72b0"/>
     <use xlink:href="#mb6c7e59c2e" x="185.840223" y="119.776855" style="fill: #4c72b0; stroke: #4c72b0"/>
     <use xlink:href="#mb6c7e59c2e" x="366.307756" y="289.291931" style="fill: #4c72b0; stroke: #4c72b0"/>
    </g>
   </g>
   <g id="patch_3">
    <path d="M 56.805937 301.458298 
L 56.805937 33.798294 
" style="fill: none; stroke: #cccccc; stroke-width: 1.25; stroke-linejoin: miter; stroke-linecap: square"/>
   </g>
   <g id="patch_4">
    <path d="M 381.045938 301.458298 
L 381.045938 33.798294 
" style="fill: none; stroke: #cccccc; stroke-width: 1.25; stroke-linejoin: miter; stroke-linecap: square"/>
   </g>
   <g id="patch_5">
    <path d="M 56.805937 301.458281 
L 381.045937 301.458281 
" style="fill: none; stroke: #cccccc; stroke-width: 1.25; stroke-linejoin: miter; stroke-linecap: square"/>
   </g>
   <g id="patch_6">
    <path d="M 56.805937 33.798281 
L 381.045937 33.798281 
" style="fill: none; stroke: #cccccc; stroke-width: 1.25; stroke-linejoin: miter; stroke-linecap: square"/>
   </g>
   <g id="text_17">
    <!-- $\theta$-scan: driven-ancilla sensitivity -->
    <g style="fill: #262626" transform="translate(122.145938 16.44) scale(0.12 -0.12)">
     <defs>
      <path id="DejaVuSans-2d" d="M 313 2009 
L 1997 2009 
L 1997 1497 
L 313 1497 
L 313 2009 
z
" transform="scale(0.015625)"/>
      <path id="DejaVuSans-73" d="M 2834 3397 
L 2834 2853 
Q 2591 2978 2328 3040 
Q 2066 3103 1784 3103 
Q 1356 3103 1142 2972 
Q 928 2841 928 2578 
Q 928 2378 1081 2264 
Q 1234 2150 1697 2047 
L 1894 2003 
Q 2506 1872 2764 1633 
Q 3022 1394 3022 966 
Q 3022 478 2636 193 
Q 2250 -91 1575 -91 
Q 1294 -91 989 -36 
Q 684 19 347 128 
L 347 722 
Q 666 556 975 473 
Q 1284 391 1588 391 
Q 1994 391 2212 530 
Q 2431 669 2431 922 
Q 2431 1156 2273 1281 
Q 2116 1406 1581 1522 
L 1381 1569 
Q 847 1681 609 1914 
Q 372 2147 372 2553 
Q 372 3047 722 3315 
Q 1072 3584 1716 3584 
Q 2034 3584 2315 3537 
Q 2597 3491 2834 3397 
z
" transform="scale(0.015625)"/>
      <path id="DejaVuSans-63" d="M 3122 3366 
L 3122 2828 
Q 2878 2963 2633 3030 
Q 2388 3097 2138 3097 
Q 1578 3097 1268 2742 
Q 959 2388 959 1747 
Q 959 1106 1268 751 
Q 1578 397 2138 397 
Q 2388 397 2633 464 
Q 2878 531 3122 666 
L 3122 134 
Q 2881 22 2623 -34 
Q 2366 -91 2075 -91 
Q 1284 -91 818 406 
Q 353 903 353 1747 
Q 353 2603 823 3093 
Q 1294 3584 2113 3584 
Q 2378 3584 2631 3529 
Q 2884 3475 3122 3366 
z
" transform="scale(0.015625)"/>
      <path id="DejaVuSans-61" d="M 2194 1759 
Q 1497 1759 1228 1600 
Q 959 1441 959 1056 
Q 959 750 1161 570 
Q 1363 391 1709 391 
Q 2188 391 2477 730 
Q 2766 1069 2766 1631 
L 2766 1759 
L 2194 1759 
z
M 3341 1997 
L 3341 0 
L 2766 0 
L 2766 531 
Q 2569 213 2275 61 
Q 1981 -91 1556 -91 
Q 1019 -91 701 211 
Q 384 513 384 1019 
Q 384 1609 779 1909 
Q 1175 2209 1959 2209 
L 2766 2209 
L 2766 2266 
Q 2766 2663 2505 2880 
Q 2244 3097 1772 3097 
Q 1472 3097 1187 3025 
Q 903 2953 641 2809 
L 641 3341 
Q 956 3463 1253 3523 
Q 1550 3584 1831 3584 
Q 2591 3584 2966 3190 
Q 3341 2797 3341 1997 
z
" transform="scale(0.015625)"/>
      <path id="DejaVuSans-6e" d="M 3513 2113 
L 3513 0 
L 2938 0 
L 2938 2094 
Q 2938 2591 2744 2837 
Q 2550 3084 2163 3084 
Q 1697 3084 1428 2787 
Q 1159 2491 1159 1978 
L 1159 0 
L 581 0 
L 581 3500 
L 1159 3500 
L 1159 2956 
Q 1366 3272 1645 3428 
Q 1925 3584 2291 3584 
Q 2894 3584 3203 3211 
Q 3513 2838 3513 2113 
z
" transform="scale(0.015625)"/>
      <path id="DejaVuSans-3a" d="M 750 794 
L 1409 794 
L 1409 0 
L 750 0 
L 750 794 
z
M 750 3309 
L 1409 3309 
L 1409 2516 
L 750 2516 
L 750 3309 
z
" transform="scale(0.015625)"/>
      <path id="DejaVuSans-20" transform="scale(0.015625)"/>
      <path id="DejaVuSans-64" d="M 2906 2969 
L 2906 4863 
L 3481 4863 
L 3481 0 
L 2906 0 
L 2906 525 
Q 2725 213 2448 61 
Q 2172 -91 1784 -91 
Q 1150 -91 751 415 
Q 353 922 353 1747 
Q 353 2572 751 3078 
Q 1150 3584 1784 3584 
Q 2172 3584 2448 3432 
Q 2725 3281 2906 2969 
z
M 947 1747 
Q 947 1113 1208 752 
Q 1469 391 1925 391 
Q 2381 391 2643 752 
Q 2906 1113 2906 1747 
Q 2906 2381 2643 2742 
Q 2381 3103 1925 3103 
Q 1469 3103 1208 2742 
Q 947 2381 947 1747 
z
" transform="scale(0.015625)"/>
      <path id="DejaVuSans-72" d="M 2631 2963 
Q 2534 3019 2420 3045 
Q 2306 3072 2169 3072 
Q 1681 3072 1420 2755 
Q 1159 2438 1159 1844 
L 1159 0 
L 581 0 
L 581 3500 
L 1159 3500 
L 1159 2956 
Q 1341 3275 1631 3429 
Q 1922 3584 2338 3584 
Q 2397 3584 2469 3576 
Q 2541 3569 2628 3553 
L 2631 2963 
z
" transform="scale(0.015625)"/>
      <path id="DejaVuSans-69" d="M 603 3500 
L 1178 3500 
L 1178 0 
L 603 0 
L 603 3500 
z
M 603 4863 
L 1178 4863 
L 1178 4134 
L 603 4134 
L 603 4863 
z
" transform="scale(0.015625)"/>
      <path id="DejaVuSans-76" d="M 191 3500 
L 800 3500 
L 1894 563 
L 2988 3500 
L 3597 3500 
L 2284 0 
L 1503 0 
L 191 3500 
z
" transform="scale(0.015625)"/>
      <path id="DejaVuSans-6c" d="M 603 4863 
L 1178 4863 
L 1178 0 
L 603 0 
L 603 4863 
z
" transform="scale(0.015625)"/>
      <path id="DejaVuSans-74" d="M 1172 4494 
L 1172 3500 
L 2356 3500 
L 2356 3053 
L 1172 3053 
L 1172 1153 
Q 1172 725 1289 603 
Q 1406 481 1766 481 
L 2356 481 
L 2356 0 
L 1766 0 
Q 1100 0 847 248 
Q 594 497 594 1153 
L 594 3053 
L 172 3053 
L 172 3500 
L 594 3500 
L 594 4494 
L 1172 4494 
z
" transform="scale(0.015625)"/>
      <path id="DejaVuSans-79" d="M 2059 -325 
Q 1816 -950 1584 -1140 
Q 1353 -1331 966 -1331 
L 506 -1331 
L 506 -850 
L 844 -850 
Q 1081 -850 1212 -737 
Q 1344 -625 1503 -206 
L 1606 56 
L 191 3500 
L 800 3500 
L 1894 763 
L 2988 3500 
L 3597 3500 
L 2059 -325 
z
" transform="scale(0.015625)"/>
     </defs>
     <use xlink:href="#DejaVuSans-Oblique-3b8" transform="translate(0 0.234375)"/>
     <use xlink:href="#DejaVuSans-2d" transform="translate(61.181641 0.234375)"/>
     <use xlink:href="#DejaVuSans-73" transform="translate(97.265625 0.234375)"/>
     <use xlink:href="#DejaVuSans-63" transform="translate(149.365234 0.234375)"/>
     <use xlink:href="#DejaVuSans-61" transform="translate(204.345703 0.234375)"/>
     <use xlink:href="#DejaVuSans-6e" transform="translate(265.625 0.234375)"/>
     <use xlink:href="#DejaVuSans-3a" transform="translate(329.003906 0.234375)"/>
     <use xlink:href="#DejaVuSans-20" transform="translate(362.695312 0.234375)"/>
     <use xlink:href="#DejaVuSans-64" transform="translate(394.482422 0.234375)"/>
     <use xlink:href="#DejaVuSans-72" transform="translate(457.958984 0.234375)"/>
     <use xlink:href="#DejaVuSans-69" transform="translate(499.072266 0.234375)"/>
     <use xlink:href="#DejaVuSans-76" transform="translate(526.855469 0.234375)"/>
     <use xlink:href="#DejaVuSans-65" transform="translate(586.035156 0.234375)"/>
     <use xlink:href="#DejaVuSans-6e" transform="translate(647.558594 0.234375)"/>
     <use xlink:href="#DejaVuSans-2d" transform="translate(710.9375 0.234375)"/>
     <use xlink:href="#DejaVuSans-61" transform="translate(747.021484 0.234375)"/>
     <use xlink:href="#DejaVuSans-6e" transform="translate(808.300781 0.234375)"/>
     <use xlink:href="#DejaVuSans-63" transform="translate(871.679688 0.234375)"/>
     <use xlink:href="#DejaVuSans-69" transform="translate(926.660156 0.234375)"/>
     <use xlink:href="#DejaVuSans-6c" transform="translate(954.443359 0.234375)"/>
     <use xlink:href="#DejaVuSans-6c" transform="translate(982.226562 0.234375)"/>
     <use xlink:href="#DejaVuSans-61" transform="translate(1010.009766 0.234375)"/>
     <use xlink:href="#DejaVuSans-20" transform="translate(1071.289062 0.234375)"/>
     <use xlink:href="#DejaVuSans-73" transform="translate(1103.076172 0.234375)"/>
     <use xlink:href="#DejaVuSans-65" transform="translate(1155.175781 0.234375)"/>
     <use xlink:href="#DejaVuSans-6e" transform="translate(1216.699219 0.234375)"/>
     <use xlink:href="#DejaVuSans-73" transform="translate(1280.078125 0.234375)"/>
     <use xlink:href="#DejaVuSans-69" transform="translate(1332.177734 0.234375)"/>
     <use xlink:href="#DejaVuSans-74" transform="translate(1359.960938 0.234375)"/>
     <use xlink:href="#DejaVuSans-69" transform="translate(1399.169922 0.234375)"/>
     <use xlink:href="#DejaVuSans-76" transform="translate(1426.953125 0.234375)"/>
     <use xlink:href="#DejaVuSans-69" transform="translate(1486.132812 0.234375)"/>
     <use xlink:href="#DejaVuSans-74" transform="translate(1513.916016 0.234375)"/>
     <use xlink:href="#DejaVuSans-79" transform="translate(1553.125 0.234375)"/>
    </g>
   </g>
   <g id="PathCollection_1">
    <defs>
     <path id="macc710bda4" d="M 0 -6.123724 
L -1.374862 -1.892335 
L -5.824008 -1.892335 
L -2.224573 0.722808 
L -3.599435 4.954197 
L -0 2.339054 
L 3.599435 4.954197 
L 2.224573 0.722808 
L 5.824008 -1.892335 
L 1.374862 -1.892335 
z
" style="stroke: #ff0000"/>
    </defs>
    <g clip-path="url(#pe1286f7694)">
     <use xlink:href="#macc710bda4" x="71.544119" y="97.692932" style="fill: #ff0000; stroke: #ff0000"/>
     <use xlink:href="#macc710bda4" x="95.606457" y="114.15657" style="fill: #ff0000; stroke: #ff0000"/>
     <use xlink:href="#macc710bda4" x="125.684379" y="139.029999" style="fill: #ff0000; stroke: #ff0000"/>
     <use xlink:href="#macc710bda4" x="185.840223" y="119.776855" style="fill: #ff0000; stroke: #ff0000"/>
     <use xlink:href="#macc710bda4" x="366.307756" y="289.291931" style="fill: #ff0000; stroke: #ff0000"/>
    </g>
   </g>
   <g id="legend_1">
    <g id="patch_7">
     <path d="M 64.505938 295.958281 
L 162.075938 295.958281 
Q 164.275937 295.958281 164.275937 293.758281 
L 164.275937 246.420469 
Q 164.275937 244.220469 162.075938 244.220469 
L 64.505938 244.220469 
Q 62.305938 244.220469 62.305938 246.420469 
L 62.305938 293.758281 
Q 62.305938 295.958281 64.505938 295.958281 
z
" style="fill: #ffffff; opacity: 0.8; stroke: #cccccc; stroke-linejoin: miter"/>
    </g>
    <g id="line2d_16">
     <path d="M 66.705938 253.12875 
L 77.705938 253.12875 
L 88.705938 253.12875 
" style="fill: none; stroke-dasharray: 5.55,2.4; stroke-dashoffset: 0; stroke: #dd8452; stroke-opacity: 0.6; stroke-width: 1.5"/>
    </g>
    <g id="text_18">
     <!-- SQL $= 1/T_H$ -->
     <g style="fill: #262626" transform="translate(97.505938 256.97875) scale(0.11 -0.11)">
      <defs>
       <path id="DejaVuSans-53" d="M 3425 4513 
L 3425 3897 
Q 3066 4069 2747 4153 
Q 2428 4238 2131 4238 
Q 1616 4238 1336 4038 
Q 1056 3838 1056 3469 
Q 1056 3159 1242 3001 
Q 1428 2844 1947 2747 
L 2328 2669 
Q 3034 2534 3370 2195 
Q 3706 1856 3706 1288 
Q 3706 609 3251 259 
Q 2797 -91 1919 -91 
Q 1588 -91 1214 -16 
Q 841 59 441 206 
L 441 856 
Q 825 641 1194 531 
Q 1563 422 1919 422 
Q 2459 422 2753 634 
Q 3047 847 3047 1241 
Q 3047 1584 2836 1778 
Q 2625 1972 2144 2069 
L 1759 2144 
Q 1053 2284 737 2584 
Q 422 2884 422 3419 
Q 422 4038 858 4394 
Q 1294 4750 2059 4750 
Q 2388 4750 2728 4690 
Q 3069 4631 3425 4513 
z
" transform="scale(0.015625)"/>
       <path id="DejaVuSans-51" d="M 2522 4238 
Q 1834 4238 1429 3725 
Q 1025 3213 1025 2328 
Q 1025 1447 1429 934 
Q 1834 422 2522 422 
Q 3209 422 3611 934 
Q 4013 1447 4013 2328 
Q 4013 3213 3611 3725 
Q 3209 4238 2522 4238 
z
M 3406 84 
L 4238 -825 
L 3475 -825 
L 2784 -78 
Q 2681 -84 2626 -87 
Q 2572 -91 2522 -91 
Q 1538 -91 948 567 
Q 359 1225 359 2328 
Q 359 3434 948 4092 
Q 1538 4750 2522 4750 
Q 3503 4750 4090 4092 
Q 4678 3434 4678 2328 
Q 4678 1516 4351 937 
Q 4025 359 3406 84 
z
" transform="scale(0.015625)"/>
       <path id="DejaVuSans-4c" d="M 628 4666 
L 1259 4666 
L 1259 531 
L 3531 531 
L 3531 0 
L 628 0 
L 628 4666 
z
" transform="scale(0.015625)"/>
       <path id="DejaVuSans-3d" d="M 678 2906 
L 4684 2906 
L 4684 2381 
L 678 2381 
L 678 2906 
z
M 678 1631 
L 4684 1631 
L 4684 1100 
L 678 1100 
L 678 1631 
z
" transform="scale(0.015625)"/>
       <path id="DejaVuSans-2f" d="M 1625 4666 
L 2156 4666 
L 531 -594 
L 0 -594 
L 1625 4666 
z
" transform="scale(0.015625)"/>
       <path id="DejaVuSans-Oblique-54" d="M 378 4666 
L 4325 4666 
L 4225 4134 
L 2559 4134 
L 1759 0 
L 1125 0 
L 1925 4134 
L 275 4134 
L 378 4666 
z
" transform="scale(0.015625)"/>
       <path id="DejaVuSans-Oblique-48" d="M 1081 4666 
L 1716 4666 
L 1344 2753 
L 3634 2753 
L 4006 4666 
L 4641 4666 
L 3731 0 
L 3097 0 
L 3531 2222 
L 1241 2222 
L 806 0 
L 172 0 
L 1081 4666 
z
" transform="scale(0.015625)"/>
      </defs>
      <use xlink:href="#DejaVuSans-53" transform="translate(0 0.78125)"/>
      <use xlink:href="#DejaVuSans-51" transform="translate(63.476562 0.78125)"/>
      <use xlink:href="#DejaVuSans-4c" transform="translate(142.1875 0.78125)"/>
      <use xlink:href="#DejaVuSans-20" transform="translate(197.900391 0.78125)"/>
      <use xlink:href="#DejaVuSans-3d" transform="translate(249.169922 0.78125)"/>
      <use xlink:href="#DejaVuSans-31" transform="translate(352.441406 0.78125)"/>
      <use xlink:href="#DejaVuSans-2f" transform="translate(416.064453 0.78125)"/>
      <use xlink:href="#DejaVuSans-Oblique-54" transform="translate(449.755859 0.78125)"/>
      <use xlink:href="#DejaVuSans-Oblique-48" transform="translate(510.839844 -15.625) scale(0.7)"/>
     </g>
    </g>
    <g id="line2d_17">
     <path d="M 66.705938 269.274687 
L 77.705938 269.274687 
L 88.705938 269.274687 
" style="fill: none; stroke: #4c72b0; stroke-width: 2; stroke-linecap: round"/>
     <g>
      <use xlink:href="#mb6c7e59c2e" x="77.705938" y="269.274687" style="fill: #4c72b0; stroke: #4c72b0"/>
     </g>
    </g>
    <g id="text_19">
     <!-- $\Delta\theta$ (best) -->
     <g style="fill: #262626" transform="translate(97.505938 273.124687) scale(0.11 -0.11)">
      <defs>
       <path id="DejaVuSans-28" d="M 1984 4856 
Q 1566 4138 1362 3434 
Q 1159 2731 1159 2009 
Q 1159 1288 1364 580 
Q 1569 -128 1984 -844 
L 1484 -844 
Q 1016 -109 783 600 
Q 550 1309 550 2009 
Q 550 2706 781 3412 
Q 1013 4119 1484 4856 
L 1984 4856 
z
" transform="scale(0.015625)"/>
       <path id="DejaVuSans-62" d="M 3116 1747 
Q 3116 2381 2855 2742 
Q 2594 3103 2138 3103 
Q 1681 3103 1420 2742 
Q 1159 2381 1159 1747 
Q 1159 1113 1420 752 
Q 1681 391 2138 391 
Q 2594 391 2855 752 
Q 3116 1113 3116 1747 
z
M 1159 2969 
Q 1341 3281 1617 3432 
Q 1894 3584 2278 3584 
Q 2916 3584 3314 3078 
Q 3713 2572 3713 1747 
Q 3713 922 3314 415 
Q 2916 -91 2278 -91 
Q 1894 -91 1617 61 
Q 1341 213 1159 525 
L 1159 0 
L 581 0 
L 581 4863 
L 1159 4863 
L 1159 2969 
z
" transform="scale(0.015625)"/>
       <path id="DejaVuSans-29" d="M 513 4856 
L 1013 4856 
Q 1481 4119 1714 3412 
Q 1947 2706 1947 2009 
Q 1947 1309 1714 600 
Q 1481 -109 1013 -844 
L 513 -844 
Q 928 -128 1133 580 
Q 1338 1288 1338 2009 
Q 1338 2731 1133 3434 
Q 928 4138 513 4856 
z
" transform="scale(0.015625)"/>
      </defs>
      <use xlink:href="#DejaVuSans-394" transform="translate(0 0.234375)"/>
      <use xlink:href="#DejaVuSans-Oblique-3b8" transform="translate(68.408203 0.234375)"/>
      <use xlink:href="#DejaVuSans-20" transform="translate(129.589844 0.234375)"/>
      <use xlink:href="#DejaVuSans-28" transform="translate(161.376953 0.234375)"/>
      <use xlink:href="#DejaVuSans-62" transform="translate(200.390625 0.234375)"/>
      <use xlink:href="#DejaVuSans-65" transform="translate(263.867188 0.234375)"/>
      <use xlink:href="#DejaVuSans-73" transform="translate(325.390625 0.234375)"/>
      <use xlink:href="#DejaVuSans-74" transform="translate(377.490234 0.234375)"/>
      <use xlink:href="#DejaVuSans-29" transform="translate(416.699219 0.234375)"/>
     </g>
    </g>
    <g id="PathCollection_2">
     <g>
      <use xlink:href="#macc710bda4" x="77.705938" y="286.383125" style="fill: #ff0000; stroke: #ff0000"/>
     </g>
    </g>
    <g id="text_20">
     <!-- Below SQL -->
     <g style="fill: #262626" transform="translate(97.505938 289.270625) scale(0.11 -0.11)">
      <defs>
       <path id="DejaVuSans-42" d="M 1259 2228 
L 1259 519 
L 2272 519 
Q 2781 519 3026 730 
Q 3272 941 3272 1375 
Q 3272 1813 3026 2020 
Q 2781 2228 2272 2228 
L 1259 2228 
z
M 1259 4147 
L 1259 2741 
L 2194 2741 
Q 2656 2741 2882 2914 
Q 3109 3088 3109 3444 
Q 3109 3797 2882 3972 
Q 2656 4147 2194 4147 
L 1259 4147 
z
M 628 4666 
L 2241 4666 
Q 2963 4666 3353 4366 
Q 3744 4066 3744 3513 
Q 3744 3084 3544 2831 
Q 3344 2578 2956 2516 
Q 3422 2416 3680 2098 
Q 3938 1781 3938 1306 
Q 3938 681 3513 340 
Q 3088 0 2303 0 
L 628 0 
L 628 4666 
z
" transform="scale(0.015625)"/>
       <path id="DejaVuSans-6f" d="M 1959 3097 
Q 1497 3097 1228 2736 
Q 959 2375 959 1747 
Q 959 1119 1226 758 
Q 1494 397 1959 397 
Q 2419 397 2687 759 
Q 2956 1122 2956 1747 
Q 2956 2369 2687 2733 
Q 2419 3097 1959 3097 
z
M 1959 3584 
Q 2709 3584 3137 3096 
Q 3566 2609 3566 1747 
Q 3566 888 3137 398 
Q 2709 -91 1959 -91 
Q 1206 -91 779 398 
Q 353 888 353 1747 
Q 353 2609 779 3096 
Q 1206 3584 1959 3584 
z
" transform="scale(0.015625)"/>
       <path id="DejaVuSans-77" d="M 269 3500 
L 844 3500 
L 1563 769 
L 2278 3500 
L 2956 3500 
L 3675 769 
L 4391 3500 
L 4966 3500 
L 4050 0 
L 3372 0 
L 2619 2869 
L 1863 0 
L 1184 0 
L 269 3500 
z
" transform="scale(0.015625)"/>
      </defs>
      <use xlink:href="#DejaVuSans-42"/>
      <use xlink:href="#DejaVuSans-65" transform="translate(68.603516 0)"/>
      <use xlink:href="#DejaVuSans-6c" transform="translate(130.126953 0)"/>
      <use xlink:href="#DejaVuSans-6f" transform="translate(157.910156 0)"/>
      <use xlink:href="#DejaVuSans-77" transform="translate(219.091797 0)"/>
      <use xlink:href="#DejaVuSans-20" transform="translate(300.878906 0)"/>
      <use xlink:href="#DejaVuSans-53" transform="translate(332.666016 0)"/>
      <use xlink:href="#DejaVuSans-51" transform="translate(396.142578 0)"/>
      <use xlink:href="#DejaVuSans-4c" transform="translate(474.853516 0)"/>
     </g>
    </g>
   </g>
  </g>
  <g id="axes_2">
   <g id="table_1">
    <g id="patch_8">
     <path d="M 394.005937 132.867242 
L 421.025937 132.867242 
L 421.025937 115.486723 
L 394.005937 115.486723 
z
" style="fill: #ffffff; stroke: #1a1a1a; stroke-linejoin: miter"/>
    </g>
    <g id="text_21">
     <!-- $\theta$ -->
     <g style="fill: #262626" transform="translate(404.725937 126.66042) scale(0.09 -0.09)">
      <use xlink:href="#DejaVuSans-Oblique-3b8" transform="translate(0 0.234375)"/>
     </g>
    </g>
    <g id="patch_9">
     <path d="M 421.025937 132.867242 
L 448.045937 132.867242 
L 448.045937 115.486723 
L 421.025937 115.486723 
z
" style="fill: #ffffff; stroke: #1a1a1a; stroke-linejoin: miter"/>
    </g>
    <g id="text_22">
     <!-- $a_x^*$ -->
     <g style="fill: #262626" transform="translate(428.640937 127.011983) scale(0.09 -0.09)">
      <defs>
       <path id="DejaVuSans-Oblique-61" d="M 3438 1997 
L 3047 0 
L 2472 0 
L 2578 531 
Q 2325 219 2001 64 
Q 1678 -91 1281 -91 
Q 834 -91 548 182 
Q 263 456 263 884 
Q 263 1497 752 1853 
Q 1241 2209 2100 2209 
L 2900 2209 
L 2931 2363 
Q 2938 2388 2941 2417 
Q 2944 2447 2944 2509 
Q 2944 2788 2717 2942 
Q 2491 3097 2081 3097 
Q 1800 3097 1504 3025 
Q 1209 2953 897 2809 
L 997 3341 
Q 1322 3463 1633 3523 
Q 1944 3584 2234 3584 
Q 2853 3584 3176 3315 
Q 3500 3047 3500 2534 
Q 3500 2431 3484 2292 
Q 3469 2153 3438 1997 
z
M 2816 1759 
L 2241 1759 
Q 1534 1759 1195 1570 
Q 856 1381 856 984 
Q 856 709 1029 553 
Q 1203 397 1509 397 
Q 1978 397 2328 733 
Q 2678 1069 2791 1631 
L 2816 1759 
z
" transform="scale(0.015625)"/>
       <path id="DejaVuSans-2a" d="M 3009 3897 
L 1888 3291 
L 3009 2681 
L 2828 2375 
L 1778 3009 
L 1778 1831 
L 1422 1831 
L 1422 3009 
L 372 2375 
L 191 2681 
L 1313 3291 
L 191 3897 
L 372 4206 
L 1422 3572 
L 1422 4750 
L 1778 4750 
L 1778 3572 
L 2828 4206 
L 3009 3897 
z
" transform="scale(0.015625)"/>
       <path id="DejaVuSans-Oblique-78" d="M 3841 3500 
L 2234 1784 
L 3219 0 
L 2559 0 
L 1819 1388 
L 531 0 
L -166 0 
L 1556 1844 
L 641 3500 
L 1300 3500 
L 1972 2234 
L 3144 3500 
L 3841 3500 
z
" transform="scale(0.015625)"/>
      </defs>
      <use xlink:href="#DejaVuSans-Oblique-61" transform="translate(0 0.765625)"/>
      <use xlink:href="#DejaVuSans-2a" transform="translate(79.566888 39.046875) scale(0.7)"/>
      <use xlink:href="#DejaVuSans-Oblique-78" transform="translate(61.279297 -26.578125) scale(0.7)"/>
     </g>
    </g>
    <g id="patch_10">
     <path d="M 448.045937 132.867242 
L 475.065937 132.867242 
L 475.065937 115.486723 
L 448.045937 115.486723 
z
" style="fill: #ffffff; stroke: #1a1a1a; stroke-linejoin: miter"/>
    </g>
    <g id="text_23">
     <!-- $a_y^*$ -->
     <g style="fill: #262626" transform="translate(455.660937 126.381983) scale(0.09 -0.09)">
      <defs>
       <path id="DejaVuSans-Oblique-79" d="M 1588 -325 
Q 1188 -997 936 -1164 
Q 684 -1331 294 -1331 
L -159 -1331 
L -63 -850 
L 269 -850 
Q 509 -850 678 -719 
Q 847 -588 1056 -206 
L 1234 128 
L 459 3500 
L 1069 3500 
L 1650 819 
L 3256 3500 
L 3859 3500 
L 1588 -325 
z
" transform="scale(0.015625)"/>
      </defs>
      <use xlink:href="#DejaVuSans-Oblique-61" transform="translate(0 0.765625)"/>
      <use xlink:href="#DejaVuSans-2a" transform="translate(79.566888 39.046875) scale(0.7)"/>
      <use xlink:href="#DejaVuSans-Oblique-79" transform="translate(61.279297 -26.578125) scale(0.7)"/>
     </g>
    </g>
    <g id="patch_11">
     <path d="M 475.065937 132.867242 
L 502.085937 132.867242 
L 502.085937 115.486723 
L 475.065937 115.486723 
z
" style="fill: #ffffff; stroke: #1a1a1a; stroke-linejoin: miter"/>
    </g>
    <g id="text_24">
     <!-- $a_z^*$ -->
     <g style="fill: #262626" transform="translate(482.680937 127.011983) scale(0.09 -0.09)">
      <defs>
       <path id="DejaVuSans-Oblique-7a" d="M 744 3500 
L 3475 3500 
L 3372 2975 
L 738 459 
L 2913 459 
L 2822 0 
L -19 0 
L 84 525 
L 2719 3041 
L 653 3041 
L 744 3500 
z
" transform="scale(0.015625)"/>
      </defs>
      <use xlink:href="#DejaVuSans-Oblique-61" transform="translate(0 0.765625)"/>
      <use xlink:href="#DejaVuSans-2a" transform="translate(79.566888 39.046875) scale(0.7)"/>
      <use xlink:href="#DejaVuSans-Oblique-7a" transform="translate(61.279297 -26.578125) scale(0.7)"/>
     </g>
    </g>
    <g id="patch_12">
     <path d="M 502.085937 132.867242 
L 529.105937 132.867242 
L 529.105937 115.486723 
L 502.085937 115.486723 
z
" style="fill: #ffffff; stroke: #1a1a1a; stroke-linejoin: miter"/>
    </g>
    <g id="text_25">
     <!-- $a_{xx}^*$ -->
     <g style="fill: #262626" transform="translate(508.980937 127.011983) scale(0.09 -0.09)">
      <use xlink:href="#DejaVuSans-Oblique-61" transform="translate(0 0.765625)"/>
      <use xlink:href="#DejaVuSans-2a" transform="translate(79.566888 39.046875) scale(0.7)"/>
      <use xlink:href="#DejaVuSans-Oblique-78" transform="translate(61.279297 -26.578125) scale(0.7)"/>
      <use xlink:href="#DejaVuSans-Oblique-78" transform="translate(102.705078 -26.578125) scale(0.7)"/>
     </g>
    </g>
    <g id="patch_13">
     <path d="M 529.105937 132.867242 
L 556.125937 132.867242 
L 556.125937 115.486723 
L 529.105937 115.486723 
z
" style="fill: #ffffff; stroke: #1a1a1a; stroke-linejoin: miter"/>
    </g>
    <g id="text_26">
     <!-- $\Delta\theta$ -->
     <g style="fill: #262626" transform="translate(536.765937 126.66042) scale(0.09 -0.09)">
      <use xlink:href="#DejaVuSans-394" transform="translate(0 0.234375)"/>
      <use xlink:href="#DejaVuSans-Oblique-3b8" transform="translate(68.408203 0.234375)"/>
     </g>
    </g>
    <g id="patch_14">
     <path d="M 394.005937 150.247762 
L 421.025937 150.247762 
L 421.025937 132.867242 
L 394.005937 132.867242 
z
" style="fill: #ffffff; stroke: #1a1a1a; stroke-linejoin: miter"/>
    </g>
    <g id="text_27">
     <!-- 0.1 -->
     <g style="fill: #262626" transform="translate(400.359531 144.04094) scale(0.09 -0.09)">
      <use xlink:href="#DejaVuSans-30"/>
      <use xlink:href="#DejaVuSans-2e" transform="translate(63.623047 0)"/>
      <use xlink:href="#DejaVuSans-31" transform="translate(95.410156 0)"/>
     </g>
    </g>
    <g id="patch_15">
     <path d="M 421.025937 150.247762 
L 448.045937 150.247762 
L 448.045937 132.867242 
L 421.025937 132.867242 
z
" style="fill: #ffffff; stroke: #1a1a1a; stroke-linejoin: miter"/>
    </g>
    <g id="text_28">
     <!-- 0.687 -->
     <g style="fill: #262626" transform="translate(421.653281 144.04094) scale(0.09 -0.09)">
      <defs>
       <path id="DejaVuSans-36" d="M 2113 2584 
Q 1688 2584 1439 2293 
Q 1191 2003 1191 1497 
Q 1191 994 1439 701 
Q 1688 409 2113 409 
Q 2538 409 2786 701 
Q 3034 994 3034 1497 
Q 3034 2003 2786 2293 
Q 2538 2584 2113 2584 
z
M 3366 4563 
L 3366 3988 
Q 3128 4100 2886 4159 
Q 2644 4219 2406 4219 
Q 1781 4219 1451 3797 
Q 1122 3375 1075 2522 
Q 1259 2794 1537 2939 
Q 1816 3084 2150 3084 
Q 2853 3084 3261 2657 
Q 3669 2231 3669 1497 
Q 3669 778 3244 343 
Q 2819 -91 2113 -91 
Q 1303 -91 875 529 
Q 447 1150 447 2328 
Q 447 3434 972 4092 
Q 1497 4750 2381 4750 
Q 2619 4750 2861 4703 
Q 3103 4656 3366 4563 
z
" transform="scale(0.015625)"/>
      </defs>
      <use xlink:href="#DejaVuSans-30"/>
      <use xlink:href="#DejaVuSans-2e" transform="translate(63.623047 0)"/>
      <use xlink:href="#DejaVuSans-36" transform="translate(95.410156 0)"/>
      <use xlink:href="#DejaVuSans-38" transform="translate(159.033203 0)"/>
      <use xlink:href="#DejaVuSans-37" transform="translate(222.65625 0)"/>
     </g>
    </g>
    <g id="patch_16">
     <path d="M 448.045937 150.247762 
L 475.065937 150.247762 
L 475.065937 132.867242 
L 448.045937 132.867242 
z
" style="fill: #ffffff; stroke: #1a1a1a; stroke-linejoin: miter"/>
    </g>
    <g id="text_29">
     <!-- -3.686 -->
     <g style="fill: #262626" transform="translate(447.049766 144.04094) scale(0.09 -0.09)">
      <use xlink:href="#DejaVuSans-2d"/>
      <use xlink:href="#DejaVuSans-33" transform="translate(36.083984 0)"/>
      <use xlink:href="#DejaVuSans-2e" transform="translate(99.707031 0)"/>
      <use xlink:href="#DejaVuSans-36" transform="translate(131.494141 0)"/>
      <use xlink:href="#DejaVuSans-38" transform="translate(195.117188 0)"/>
      <use xlink:href="#DejaVuSans-36" transform="translate(258.740234 0)"/>
     </g>
    </g>
    <g id="patch_17">
     <path d="M 475.065937 150.247762 
L 502.085937 150.247762 
L 502.085937 132.867242 
L 475.065937 132.867242 
z
" style="fill: #ffffff; stroke: #1a1a1a; stroke-linejoin: miter"/>
    </g>
    <g id="text_30">
     <!-- 2.722 -->
     <g style="fill: #262626" transform="translate(475.693281 144.04094) scale(0.09 -0.09)">
      <use xlink:href="#DejaVuSans-32"/>
      <use xlink:href="#DejaVuSans-2e" transform="translate(63.623047 0)"/>
      <use xlink:href="#DejaVuSans-37" transform="translate(95.410156 0)"/>
      <use xlink:href="#DejaVuSans-32" transform="translate(159.033203 0)"/>
      <use xlink:href="#DejaVuSans-32" transform="translate(222.65625 0)"/>
     </g>
    </g>
    <g id="patch_18">
     <path d="M 502.085937 150.247762 
L 529.105937 150.247762 
L 529.105937 132.867242 
L 502.085937 132.867242 
z
" style="fill: #ffffff; stroke: #1a1a1a; stroke-linejoin: miter"/>
    </g>
    <g id="text_31">
     <!-- -4.642 -->
     <g style="fill: #262626" transform="translate(501.089766 144.04094) scale(0.09 -0.09)">
      <use xlink:href="#DejaVuSans-2d"/>
      <use xlink:href="#DejaVuSans-34" transform="translate(36.083984 0)"/>
      <use xlink:href="#DejaVuSans-2e" transform="translate(99.707031 0)"/>
      <use xlink:href="#DejaVuSans-36" transform="translate(131.494141 0)"/>
      <use xlink:href="#DejaVuSans-34" transform="translate(195.117188 0)"/>
      <use xlink:href="#DejaVuSans-32" transform="translate(258.740234 0)"/>
     </g>
    </g>
    <g id="patch_19">
     <path d="M 529.105937 150.247762 
L 556.125937 150.247762 
L 556.125937 132.867242 
L 529.105937 132.867242 
z
" style="fill: #ffffff; stroke: #1a1a1a; stroke-linejoin: miter"/>
    </g>
    <g id="text_32">
     <!-- 0.1000 -->
     <g style="fill: #262626" transform="translate(526.870156 144.04094) scale(0.09 -0.09)">
      <use xlink:href="#DejaVuSans-30"/>
      <use xlink:href="#DejaVuSans-2e" transform="translate(63.623047 0)"/>
      <use xlink:href="#DejaVuSans-31" transform="translate(95.410156 0)"/>
      <use xlink:href="#DejaVuSans-30" transform="translate(159.033203 0)"/>
      <use xlink:href="#DejaVuSans-30" transform="translate(222.65625 0)"/>
      <use xlink:href="#DejaVuSans-30" transform="translate(286.279297 0)"/>
     </g>
    </g>
    <g id="patch_20">
     <path d="M 394.005937 167.628281 
L 421.025937 167.628281 
L 421.025937 150.247762 
L 394.005937 150.247762 
z
" style="fill: #ffffff; stroke: #1a1a1a; stroke-linejoin: miter"/>
    </g>
    <g id="text_33">
     <!-- 0.5 -->
     <g style="fill: #262626" transform="translate(400.359531 161.421459) scale(0.09 -0.09)">
      <use xlink:href="#DejaVuSans-30"/>
      <use xlink:href="#DejaVuSans-2e" transform="translate(63.623047 0)"/>
      <use xlink:href="#DejaVuSans-35" transform="translate(95.410156 0)"/>
     </g>
    </g>
    <g id="patch_21">
     <path d="M 421.025937 167.628281 
L 448.045937 167.628281 
L 448.045937 150.247762 
L 421.025937 150.247762 
z
" style="fill: #ffffff; stroke: #1a1a1a; stroke-linejoin: miter"/>
    </g>
    <g id="text_34">
     <!-- -4.812 -->
     <g style="fill: #262626" transform="translate(420.029766 161.421459) scale(0.09 -0.09)">
      <use xlink:href="#DejaVuSans-2d"/>
      <use xlink:href="#DejaVuSans-34" transform="translate(36.083984 0)"/>
      <use xlink:href="#DejaVuSans-2e" transform="translate(99.707031 0)"/>
      <use xlink:href="#DejaVuSans-38" transform="translate(131.494141 0)"/>
      <use xlink:href="#DejaVuSans-31" transform="translate(195.117188 0)"/>
      <use xlink:href="#DejaVuSans-32" transform="translate(258.740234 0)"/>
     </g>
    </g>
    <g id="patch_22">
     <path d="M 448.045937 167.628281 
L 475.065937 167.628281 
L 475.065937 150.247762 
L 448.045937 150.247762 
z
" style="fill: #ffffff; stroke: #1a1a1a; stroke-linejoin: miter"/>
    </g>
    <g id="text_35">
     <!-- -4.908 -->
     <g style="fill: #262626" transform="translate(447.049766 161.421459) scale(0.09 -0.09)">
      <use xlink:href="#DejaVuSans-2d"/>
      <use xlink:href="#DejaVuSans-34" transform="translate(36.083984 0)"/>
      <use xlink:href="#DejaVuSans-2e" transform="translate(99.707031 0)"/>
      <use xlink:href="#DejaVuSans-39" transform="translate(131.494141 0)"/>
      <use xlink:href="#DejaVuSans-30" transform="translate(195.117188 0)"/>
      <use xlink:href="#DejaVuSans-38" transform="translate(258.740234 0)"/>
     </g>
    </g>
    <g id="patch_23">
     <path d="M 475.065937 167.628281 
L 502.085937 167.628281 
L 502.085937 150.247762 
L 475.065937 150.247762 
z
" style="fill: #ffffff; stroke: #1a1a1a; stroke-linejoin: miter"/>
    </g>
    <g id="text_36">
     <!-- 4.775 -->
     <g style="fill: #262626" transform="translate(475.693281 161.421459) scale(0.09 -0.09)">
      <use xlink:href="#DejaVuSans-34"/>
      <use xlink:href="#DejaVuSans-2e" transform="translate(63.623047 0)"/>
      <use xlink:href="#DejaVuSans-37" transform="translate(95.410156 0)"/>
      <use xlink:href="#DejaVuSans-37" transform="translate(159.033203 0)"/>
      <use xlink:href="#DejaVuSans-35" transform="translate(222.65625 0)"/>
     </g>
    </g>
    <g id="patch_24">
     <path d="M 502.085937 167.628281 
L 529.105937 167.628281 
L 529.105937 150.247762 
L 502.085937 150.247762 
z
" style="fill: #ffffff; stroke: #1a1a1a; stroke-linejoin: miter"/>
    </g>
    <g id="text_37">
     <!-- 3.349 -->
     <g style="fill: #262626" transform="translate(502.713281 161.421459) scale(0.09 -0.09)">
      <use xlink:href="#DejaVuSans-33"/>
      <use xlink:href="#DejaVuSans-2e" transform="translate(63.623047 0)"/>
      <use xlink:href="#DejaVuSans-33" transform="translate(95.410156 0)"/>
      <use xlink:href="#DejaVuSans-34" transform="translate(159.033203 0)"/>
      <use xlink:href="#DejaVuSans-39" transform="translate(222.65625 0)"/>
     </g>
    </g>
    <g id="patch_25">
     <path d="M 529.105937 167.628281 
L 556.125937 167.628281 
L 556.125937 150.247762 
L 529.105937 150.247762 
z
" style="fill: #ffffff; stroke: #1a1a1a; stroke-linejoin: miter"/>
    </g>
    <g id="text_38">
     <!-- 0.1000 -->
     <g style="fill: #262626" transform="translate(526.870156 161.421459) scale(0.09 -0.09)">
      <use xlink:href="#DejaVuSans-30"/>
      <use xlink:href="#DejaVuSans-2e" transform="translate(63.623047 0)"/>
      <use xlink:href="#DejaVuSans-31" transform="translate(95.410156 0)"/>
      <use xlink:href="#DejaVuSans-30" transform="translate(159.033203 0)"/>
      <use xlink:href="#DejaVuSans-30" transform="translate(222.65625 0)"/>
      <use xlink:href="#DejaVuSans-30" transform="translate(286.279297 0)"/>
     </g>
    </g>
    <g id="patch_26">
     <path d="M 394.005937 185.008801 
L 421.025937 185.008801 
L 421.025937 167.628281 
L 394.005937 167.628281 
z
" style="fill: #ffffff; stroke: #1a1a1a; stroke-linejoin: miter"/>
    </g>
    <g id="text_39">
     <!-- 1.0 -->
     <g style="fill: #262626" transform="translate(400.359531 178.801978) scale(0.09 -0.09)">
      <use xlink:href="#DejaVuSans-31"/>
      <use xlink:href="#DejaVuSans-2e" transform="translate(63.623047 0)"/>
      <use xlink:href="#DejaVuSans-30" transform="translate(95.410156 0)"/>
     </g>
    </g>
    <g id="patch_27">
     <path d="M 421.025937 185.008801 
L 448.045937 185.008801 
L 448.045937 167.628281 
L 421.025937 167.628281 
z
" style="fill: #ffffff; stroke: #1a1a1a; stroke-linejoin: miter"/>
    </g>
    <g id="text_40">
     <!-- 1.041 -->
     <g style="fill: #262626" transform="translate(421.653281 178.801978) scale(0.09 -0.09)">
      <use xlink:href="#DejaVuSans-31"/>
      <use xlink:href="#DejaVuSans-2e" transform="translate(63.623047 0)"/>
      <use xlink:href="#DejaVuSans-30" transform="translate(95.410156 0)"/>
      <use xlink:href="#DejaVuSans-34" transform="translate(159.033203 0)"/>
      <use xlink:href="#DejaVuSans-31" transform="translate(222.65625 0)"/>
     </g>
    </g>
    <g id="patch_28">
     <path d="M 448.045937 185.008801 
L 475.065937 185.008801 
L 475.065937 167.628281 
L 448.045937 167.628281 
z
" style="fill: #ffffff; stroke: #1a1a1a; stroke-linejoin: miter"/>
    </g>
    <g id="text_41">
     <!-- 0.061 -->
     <g style="fill: #262626" transform="translate(448.673281 178.801978) scale(0.09 -0.09)">
      <use xlink:href="#DejaVuSans-30"/>
      <use xlink:href="#DejaVuSans-2e" transform="translate(63.623047 0)"/>
      <use xlink:href="#DejaVuSans-30" transform="translate(95.410156 0)"/>
      <use xlink:href="#DejaVuSans-36" transform="translate(159.033203 0)"/>
      <use xlink:href="#DejaVuSans-31" transform="translate(222.65625 0)"/>
     </g>
    </g>
    <g id="patch_29">
     <path d="M 475.065937 185.008801 
L 502.085937 185.008801 
L 502.085937 167.628281 
L 475.065937 167.628281 
z
" style="fill: #ffffff; stroke: #1a1a1a; stroke-linejoin: miter"/>
    </g>
    <g id="text_42">
     <!-- 4.559 -->
     <g style="fill: #262626" transform="translate(475.693281 178.801978) scale(0.09 -0.09)">
      <use xlink:href="#DejaVuSans-34"/>
      <use xlink:href="#DejaVuSans-2e" transform="translate(63.623047 0)"/>
      <use xlink:href="#DejaVuSans-35" transform="translate(95.410156 0)"/>
      <use xlink:href="#DejaVuSans-35" transform="translate(159.033203 0)"/>
      <use xlink:href="#DejaVuSans-39" transform="translate(222.65625 0)"/>
     </g>
    </g>
    <g id="patch_30">
     <path d="M 502.085937 185.008801 
L 529.105937 185.008801 
L 529.105937 167.628281 
L 502.085937 167.628281 
z
" style="fill: #ffffff; stroke: #1a1a1a; stroke-linejoin: miter"/>
    </g>
    <g id="text_43">
     <!-- -4.545 -->
     <g style="fill: #262626" transform="translate(501.089766 178.801978) scale(0.09 -0.09)">
      <use xlink:href="#DejaVuSans-2d"/>
      <use xlink:href="#DejaVuSans-34" transform="translate(36.083984 0)"/>
      <use xlink:href="#DejaVuSans-2e" transform="translate(99.707031 0)"/>
      <use xlink:href="#DejaVuSans-35" transform="translate(131.494141 0)"/>
      <use xlink:href="#DejaVuSans-34" transform="translate(195.117188 0)"/>
      <use xlink:href="#DejaVuSans-35" transform="translate(258.740234 0)"/>
     </g>
    </g>
    <g id="patch_31">
     <path d="M 529.105937 185.008801 
L 556.125937 185.008801 
L 556.125937 167.628281 
L 529.105937 167.628281 
z
" style="fill: #ffffff; stroke: #1a1a1a; stroke-linejoin: miter"/>
    </g>
    <g id="text_44">
     <!-- 0.1000 -->
     <g style="fill: #262626" transform="translate(526.870156 178.801978) scale(0.09 -0.09)">
      <use xlink:href="#DejaVuSans-30"/>
      <use xlink:href="#DejaVuSans-2e" transform="translate(63.623047 0)"/>
      <use xlink:href="#DejaVuSans-31" transform="translate(95.410156 0)"/>
      <use xlink:href="#DejaVuSans-30" transform="translate(159.033203 0)"/>
      <use xlink:href="#DejaVuSans-30" transform="translate(222.65625 0)"/>
      <use xlink:href="#DejaVuSans-30" transform="translate(286.279297 0)"/>
     </g>
    </g>
    <g id="patch_32">
     <path d="M 394.005937 202.38932 
L 421.025937 202.38932 
L 421.025937 185.008801 
L 394.005937 185.008801 
z
" style="fill: #ffffff; stroke: #1a1a1a; stroke-linejoin: miter"/>
    </g>
    <g id="text_45">
     <!-- 2.0 -->
     <g style="fill: #262626" transform="translate(400.359531 196.182498) scale(0.09 -0.09)">
      <use xlink:href="#DejaVuSans-32"/>
      <use xlink:href="#DejaVuSans-2e" transform="translate(63.623047 0)"/>
      <use xlink:href="#DejaVuSans-30" transform="translate(95.410156 0)"/>
     </g>
    </g>
    <g id="patch_33">
     <path d="M 421.025937 202.38932 
L 448.045937 202.38932 
L 448.045937 185.008801 
L 421.025937 185.008801 
z
" style="fill: #ffffff; stroke: #1a1a1a; stroke-linejoin: miter"/>
    </g>
    <g id="text_46">
     <!-- 0.196 -->
     <g style="fill: #262626" transform="translate(421.653281 196.182498) scale(0.09 -0.09)">
      <use xlink:href="#DejaVuSans-30"/>
      <use xlink:href="#DejaVuSans-2e" transform="translate(63.623047 0)"/>
      <use xlink:href="#DejaVuSans-31" transform="translate(95.410156 0)"/>
      <use xlink:href="#DejaVuSans-39" transform="translate(159.033203 0)"/>
      <use xlink:href="#DejaVuSans-36" transform="translate(222.65625 0)"/>
     </g>
    </g>
    <g id="patch_34">
     <path d="M 448.045937 202.38932 
L 475.065937 202.38932 
L 475.065937 185.008801 
L 448.045937 185.008801 
z
" style="fill: #ffffff; stroke: #1a1a1a; stroke-linejoin: miter"/>
    </g>
    <g id="text_47">
     <!-- -0.655 -->
     <g style="fill: #262626" transform="translate(447.049766 196.182498) scale(0.09 -0.09)">
      <use xlink:href="#DejaVuSans-2d"/>
      <use xlink:href="#DejaVuSans-30" transform="translate(36.083984 0)"/>
      <use xlink:href="#DejaVuSans-2e" transform="translate(99.707031 0)"/>
      <use xlink:href="#DejaVuSans-36" transform="translate(131.494141 0)"/>
      <use xlink:href="#DejaVuSans-35" transform="translate(195.117188 0)"/>
      <use xlink:href="#DejaVuSans-35" transform="translate(258.740234 0)"/>
     </g>
    </g>
    <g id="patch_35">
     <path d="M 475.065937 202.38932 
L 502.085937 202.38932 
L 502.085937 185.008801 
L 475.065937 185.008801 
z
" style="fill: #ffffff; stroke: #1a1a1a; stroke-linejoin: miter"/>
    </g>
    <g id="text_48">
     <!-- 4.658 -->
     <g style="fill: #262626" transform="translate(475.693281 196.182498) scale(0.09 -0.09)">
      <use xlink:href="#DejaVuSans-34"/>
      <use xlink:href="#DejaVuSans-2e" transform="translate(63.623047 0)"/>
      <use xlink:href="#DejaVuSans-36" transform="translate(95.410156 0)"/>
      <use xlink:href="#DejaVuSans-35" transform="translate(159.033203 0)"/>
      <use xlink:href="#DejaVuSans-38" transform="translate(222.65625 0)"/>
     </g>
    </g>
    <g id="patch_36">
     <path d="M 502.085937 202.38932 
L 529.105937 202.38932 
L 529.105937 185.008801 
L 502.085937 185.008801 
z
" style="fill: #ffffff; stroke: #1a1a1a; stroke-linejoin: miter"/>
    </g>
    <g id="text_49">
     <!-- -1.905 -->
     <g style="fill: #262626" transform="translate(501.089766 196.182498) scale(0.09 -0.09)">
      <use xlink:href="#DejaVuSans-2d"/>
      <use xlink:href="#DejaVuSans-31" transform="translate(36.083984 0)"/>
      <use xlink:href="#DejaVuSans-2e" transform="translate(99.707031 0)"/>
      <use xlink:href="#DejaVuSans-39" transform="translate(131.494141 0)"/>
      <use xlink:href="#DejaVuSans-30" transform="translate(195.117188 0)"/>
      <use xlink:href="#DejaVuSans-35" transform="translate(258.740234 0)"/>
     </g>
    </g>
    <g id="patch_37">
     <path d="M 529.105937 202.38932 
L 556.125937 202.38932 
L 556.125937 185.008801 
L 529.105937 185.008801 
z
" style="fill: #ffffff; stroke: #1a1a1a; stroke-linejoin: miter"/>
    </g>
    <g id="text_50">
     <!-- 0.1000 -->
     <g style="fill: #262626" transform="translate(526.870156 196.182498) scale(0.09 -0.09)">
      <use xlink:href="#DejaVuSans-30"/>
      <use xlink:href="#DejaVuSans-2e" transform="translate(63.623047 0)"/>
      <use xlink:href="#DejaVuSans-31" transform="translate(95.410156 0)"/>
      <use xlink:href="#DejaVuSans-30" transform="translate(159.033203 0)"/>
      <use xlink:href="#DejaVuSans-30" transform="translate(222.65625 0)"/>
      <use xlink:href="#DejaVuSans-30" transform="translate(286.279297 0)"/>
     </g>
    </g>
    <g id="patch_38">
     <path d="M 394.005937 219.76984 
L 421.025937 219.76984 
L 421.025937 202.38932 
L 394.005937 202.38932 
z
" style="fill: #ffffff; stroke: #1a1a1a; stroke-linejoin: miter"/>
    </g>
    <g id="text_51">
     <!-- 5.0 -->
     <g style="fill: #262626" transform="translate(400.359531 213.563017) scale(0.09 -0.09)">
      <use xlink:href="#DejaVuSans-35"/>
      <use xlink:href="#DejaVuSans-2e" transform="translate(63.623047 0)"/>
      <use xlink:href="#DejaVuSans-30" transform="translate(95.410156 0)"/>
     </g>
    </g>
    <g id="patch_39">
     <path d="M 421.025937 219.76984 
L 448.045937 219.76984 
L 448.045937 202.38932 
L 421.025937 202.38932 
z
" style="fill: #ffffff; stroke: #1a1a1a; stroke-linejoin: miter"/>
    </g>
    <g id="text_52">
     <!-- -0.901 -->
     <g style="fill: #262626" transform="translate(420.029766 213.563017) scale(0.09 -0.09)">
      <use xlink:href="#DejaVuSans-2d"/>
      <use xlink:href="#DejaVuSans-30" transform="translate(36.083984 0)"/>
      <use xlink:href="#DejaVuSans-2e" transform="translate(99.707031 0)"/>
      <use xlink:href="#DejaVuSans-39" transform="translate(131.494141 0)"/>
      <use xlink:href="#DejaVuSans-30" transform="translate(195.117188 0)"/>
      <use xlink:href="#DejaVuSans-31" transform="translate(258.740234 0)"/>
     </g>
    </g>
    <g id="patch_40">
     <path d="M 448.045937 219.76984 
L 475.065937 219.76984 
L 475.065937 202.38932 
L 448.045937 202.38932 
z
" style="fill: #ffffff; stroke: #1a1a1a; stroke-linejoin: miter"/>
    </g>
    <g id="text_53">
     <!-- 1.314 -->
     <g style="fill: #262626" transform="translate(448.673281 213.563017) scale(0.09 -0.09)">
      <use xlink:href="#DejaVuSans-31"/>
      <use xlink:href="#DejaVuSans-2e" transform="translate(63.623047 0)"/>
      <use xlink:href="#DejaVuSans-33" transform="translate(95.410156 0)"/>
      <use xlink:href="#DejaVuSans-31" transform="translate(159.033203 0)"/>
      <use xlink:href="#DejaVuSans-34" transform="translate(222.65625 0)"/>
     </g>
    </g>
    <g id="patch_41">
     <path d="M 475.065937 219.76984 
L 502.085937 219.76984 
L 502.085937 202.38932 
L 475.065937 202.38932 
z
" style="fill: #ffffff; stroke: #1a1a1a; stroke-linejoin: miter"/>
    </g>
    <g id="text_54">
     <!-- -4.434 -->
     <g style="fill: #262626" transform="translate(474.069766 213.563017) scale(0.09 -0.09)">
      <use xlink:href="#DejaVuSans-2d"/>
      <use xlink:href="#DejaVuSans-34" transform="translate(36.083984 0)"/>
      <use xlink:href="#DejaVuSans-2e" transform="translate(99.707031 0)"/>
      <use xlink:href="#DejaVuSans-34" transform="translate(131.494141 0)"/>
      <use xlink:href="#DejaVuSans-33" transform="translate(195.117188 0)"/>
      <use xlink:href="#DejaVuSans-34" transform="translate(258.740234 0)"/>
     </g>
    </g>
    <g id="patch_42">
     <path d="M 502.085937 219.76984 
L 529.105937 219.76984 
L 529.105937 202.38932 
L 502.085937 202.38932 
z
" style="fill: #ffffff; stroke: #1a1a1a; stroke-linejoin: miter"/>
    </g>
    <g id="text_55">
     <!-- -0.668 -->
     <g style="fill: #262626" transform="translate(501.089766 213.563017) scale(0.09 -0.09)">
      <use xlink:href="#DejaVuSans-2d"/>
      <use xlink:href="#DejaVuSans-30" transform="translate(36.083984 0)"/>
      <use xlink:href="#DejaVuSans-2e" transform="translate(99.707031 0)"/>
      <use xlink:href="#DejaVuSans-36" transform="translate(131.494141 0)"/>
      <use xlink:href="#DejaVuSans-36" transform="translate(195.117188 0)"/>
      <use xlink:href="#DejaVuSans-38" transform="translate(258.740234 0)"/>
     </g>
    </g>
    <g id="patch_43">
     <path d="M 529.105937 219.76984 
L 556.125937 219.76984 
L 556.125937 202.38932 
L 529.105937 202.38932 
z
" style="fill: #ffffff; stroke: #1a1a1a; stroke-linejoin: miter"/>
    </g>
    <g id="text_56">
     <!-- 0.1000 -->
     <g style="fill: #262626" transform="translate(526.870156 213.563017) scale(0.09 -0.09)">
      <use xlink:href="#DejaVuSans-30"/>
      <use xlink:href="#DejaVuSans-2e" transform="translate(63.623047 0)"/>
      <use xlink:href="#DejaVuSans-31" transform="translate(95.410156 0)"/>
      <use xlink:href="#DejaVuSans-30" transform="translate(159.033203 0)"/>
      <use xlink:href="#DejaVuSans-30" transform="translate(222.65625 0)"/>
      <use xlink:href="#DejaVuSans-30" transform="translate(286.279297 0)"/>
     </g>
    </g>
   </g>
  </g>
 </g>
 <defs>
  <clipPath id="pe1286f7694">
   <rect x="56.805937" y="33.798281" width="324.24" height="267.66"/>
  </clipPath>
 </defs>
</svg>
