<?xml version="1.0" encoding="utf-8" standalone="no"?>
<!DOCTYPE svg PUBLIC "-//W3C//DTD SVG 1.1//EN"
  "http://www.w3.org/Graphics/SVG/1.1/DTD/svg11.dtd">
<svg xmlns:xlink="http://www.w3.org/1999/xlink" width="455.96375pt" height="342.625938pt" viewBox="0 0 455.96375 342.625938" xmlns="http://www.w3.org/2000/svg" version="1.1">
 <metadata>
  <rdf:RDF xmlns:dc="http://purl.org/dc/elements/1.1/" xmlns:cc="http://creativecommons.org/ns#" xmlns:rdf="http://www.w3.org/1999/02/22-rdf-syntax-ns#">
   <cc:Work>
    <dc:type rdf:resource="http://purl.org/dc/dcmitype/StillImage"/>
    <dc:date>2026-05-18T20:50:11.482529</dc:date>
    <dc:format>image/svg+xml</dc:format>
    <dc:creator>
     <cc:Agent>
      <dc:title>Matplotlib v3.10.5, https://matplotlib.org/</dc:title>
     </cc:Agent>
    </dc:creator>
   </cc:Work>
  </rdf:RDF>
 </metadata>
 <defs>
  <style type="text/css">*{stroke-linejoin: round; stroke-linecap: butt}</style>
 </defs>
 <g id="figure_1">
  <g id="patch_1">
   <path d="M 0 342.625938 
L 455.96375 342.625938 
L 455.96375 0 
L 0 0 
z
" style="fill: #ffffff"/>
  </g>
  <g id="axes_1">
   <g id="patch_2">
    <path d="M 58.16375 299.64 
L 448.76375 299.64 
L 448.76375 22.44 
L 58.16375 22.44 
z
" style="fill: #ffffff"/>
   </g>
   <g id="matplotlib.axis_1">
    <g id="xtick_1">
     <g id="line2d_1">
      <path d="M 75.918295 299.64 
L 75.918295 22.44 
" clip-path="url(#p13a3b4631c)" style="fill: none; stroke: #cccccc; stroke-linecap: round"/>
     </g>
     <g id="text_1">
      <!-- $\mathdefault{10^{0}}$ -->
      <g style="fill: #262626" transform="translate(66.238295 317.498281) scale(0.11 -0.11)">
       <defs>
        <path id="DejaVuSans-31" d="M 794 531 
L 1825 531 
L 1825 4091 
L 703 3866 
L 703 4441 
L 1819 4666 
L 2450 4666 
L 2450 531 
L 3481 531 
L 3481 0 
L 794 0 
L 794 531 
z
" transform="scale(0.015625)"/>
        <path id="DejaVuSans-30" d="M 2034 4250 
Q 1547 4250 1301 3770 
Q 1056 3291 1056 2328 
Q 1056 1369 1301 889 
Q 1547 409 2034 409 
Q 2525 409 2770 889 
Q 3016 1369 3016 2328 
Q 3016 3291 2770 3770 
Q 2525 4250 2034 4250 
z
M 2034 4750 
Q 2819 4750 3233 4129 
Q 3647 3509 3647 2328 
Q 3647 1150 3233 529 
Q 2819 -91 2034 -91 
Q 1250 -91 836 529 
Q 422 1150 422 2328 
Q 422 3509 836 4129 
Q 1250 4750 2034 4750 
z
" transform="scale(0.015625)"/>
       </defs>
       <use xlink:href="#DejaVuSans-31" transform="translate(0 0.765625)"/>
       <use xlink:href="#DejaVuSans-30" transform="translate(63.623047 0.765625)"/>
       <use xlink:href="#DejaVuSans-30" transform="translate(128.203125 39.046875) scale(0.7)"/>
      </g>
     </g>
    </g>
    <g id="xtick_2">
     <g id="line2d_2">
      <path d="M 370.814912 299.64 
L 370.814912 22.44 
" clip-path="url(#p13a3b4631c)" style="fill: none; stroke: #cccccc; stroke-linecap: round"/>
     </g>
     <g id="text_2">
      <!-- $\mathdefault{10^{1}}$ -->
      <g style="fill: #262626" transform="translate(361.134912 317.498281) scale(0.11 -0.11)">
       <use xlink:href="#DejaVuSans-31" transform="translate(0 0.684375)"/>
       <use xlink:href="#DejaVuSans-30" transform="translate(63.623047 0.684375)"/>
       <use xlink:href="#DejaVuSans-31" transform="translate(128.203125 38.965625) scale(0.7)"/>
      </g>
     </g>
    </g>
    <g id="xtick_3"/>
    <g id="xtick_4"/>
    <g id="xtick_5"/>
    <g id="xtick_6"/>
    <g id="xtick_7"/>
    <g id="xtick_8"/>
    <g id="xtick_9"/>
    <g id="xtick_10"/>
    <g id="xtick_11"/>
    <g id="text_3">
     <!-- $N$ (system particles) -->
     <g style="fill: #262626" transform="translate(192.98375 332.905938) scale(0.12 -0.12)">
      <defs>
       <path id="DejaVuSans-Oblique-4e" d="M 1081 4666 
L 1931 4666 
L 3219 666 
L 4000 4666 
L 4616 4666 
L 3706 0 
L 2853 0 
L 1569 4025 
L 788 0 
L 172 0 
L 1081 4666 
z
" transform="scale(0.015625)"/>
       <path id="DejaVuSans-20" transform="scale(0.015625)"/>
       <path id="DejaVuSans-28" d="M 1984 4856 
Q 1566 4138 1362 3434 
Q 1159 2731 1159 2009 
Q 1159 1288 1364 580 
Q 1569 -128 1984 -844 
L 1484 -844 
Q 1016 -109 783 600 
Q 550 1309 550 2009 
Q 550 2706 781 3412 
Q 1013 4119 1484 4856 
L 1984 4856 
z
" transform="scale(0.015625)"/>
       <path id="DejaVuSans-73" d="M 2834 3397 
L 2834 2853 
Q 2591 2978 2328 3040 
Q 2066 3103 1784 3103 
Q 1356 3103 1142 2972 
Q 928 2841 928 2578 
Q 928 2378 1081 2264 
Q 1234 2150 1697 2047 
L 1894 2003 
Q 2506 1872 2764 1633 
Q 3022 1394 3022 966 
Q 3022 478 2636 193 
Q 2250 -91 1575 -91 
Q 1294 -91 989 -36 
Q 684 19 347 128 
L 347 722 
Q 666 556 975 473 
Q 1284 391 1588 391 
Q 1994 391 2212 530 
Q 2431 669 2431 922 
Q 2431 1156 2273 1281 
Q 2116 1406 1581 1522 
L 1381 1569 
Q 847 1681 609 1914 
Q 372 2147 372 2553 
Q 372 3047 722 3315 
Q 1072 3584 1716 3584 
Q 2034 3584 2315 3537 
Q 2597 3491 2834 3397 
z
" transform="scale(0.015625)"/>
       <path id="DejaVuSans-79" d="M 2059 -325 
Q 1816 -950 1584 -1140 
Q 1353 -1331 966 -1331 
L 506 -1331 
L 506 -850 
L 844 -850 
Q 1081 -850 1212 -737 
Q 1344 -625 1503 -206 
L 1606 56 
L 191 3500 
L 800 3500 
L 1894 763 
L 2988 3500 
L 3597 3500 
L 2059 -325 
z
" transform="scale(0.015625)"/>
       <path id="DejaVuSans-74" d="M 1172 4494 
L 1172 3500 
L 2356 3500 
L 2356 3053 
L 1172 3053 
L 1172 1153 
Q 1172 725 1289 603 
Q 1406 481 1766 481 
L 2356 481 
L 2356 0 
L 1766 0 
Q 1100 0 847 248 
Q 594 497 594 1153 
L 594 3053 
L 172 3053 
L 172 3500 
L 594 3500 
L 594 4494 
L 1172 4494 
z
" transform="scale(0.015625)"/>
       <path id="DejaVuSans-65" d="M 3597 1894 
L 3597 1613 
L 953 1613 
Q 991 1019 1311 708 
Q 1631 397 2203 397 
Q 2534 397 2845 478 
Q 3156 559 3463 722 
L 3463 178 
Q 3153 47 2828 -22 
Q 2503 -91 2169 -91 
Q 1331 -91 842 396 
Q 353 884 353 1716 
Q 353 2575 817 3079 
Q 1281 3584 2069 3584 
Q 2775 3584 3186 3129 
Q 3597 2675 3597 1894 
z
M 3022 2063 
Q 3016 2534 2758 2815 
Q 2500 3097 2075 3097 
Q 1594 3097 1305 2825 
Q 1016 2553 972 2059 
L 3022 2063 
z
" transform="scale(0.015625)"/>
       <path id="DejaVuSans-6d" d="M 3328 2828 
Q 3544 3216 3844 3400 
Q 4144 3584 4550 3584 
Q 5097 3584 5394 3201 
Q 5691 2819 5691 2113 
L 5691 0 
L 5113 0 
L 5113 2094 
Q 5113 2597 4934 2840 
Q 4756 3084 4391 3084 
Q 3944 3084 3684 2787 
Q 3425 2491 3425 1978 
L 3425 0 
L 2847 0 
L 2847 2094 
Q 2847 2600 2669 2842 
Q 2491 3084 2119 3084 
Q 1678 3084 1418 2786 
Q 1159 2488 1159 1978 
L 1159 0 
L 581 0 
L 581 3500 
L 1159 3500 
L 1159 2956 
Q 1356 3278 1631 3431 
Q 1906 3584 2284 3584 
Q 2666 3584 2933 3390 
Q 3200 3197 3328 2828 
z
" transform="scale(0.015625)"/>
       <path id="DejaVuSans-70" d="M 1159 525 
L 1159 -1331 
L 581 -1331 
L 581 3500 
L 1159 3500 
L 1159 2969 
Q 1341 3281 1617 3432 
Q 1894 3584 2278 3584 
Q 2916 3584 3314 3078 
Q 3713 2572 3713 1747 
Q 3713 922 3314 415 
Q 2916 -91 2278 -91 
Q 1894 -91 1617 61 
Q 1341 213 1159 525 
z
M 3116 1747 
Q 3116 2381 2855 2742 
Q 2594 3103 2138 3103 
Q 1681 3103 1420 2742 
Q 1159 2381 1159 1747 
Q 1159 1113 1420 752 
Q 1681 391 2138 391 
Q 2594 391 2855 752 
Q 3116 1113 3116 1747 
z
" transform="scale(0.015625)"/>
       <path id="DejaVuSans-61" d="M 2194 1759 
Q 1497 1759 1228 1600 
Q 959 1441 959 1056 
Q 959 750 1161 570 
Q 1363 391 1709 391 
Q 2188 391 2477 730 
Q 2766 1069 2766 1631 
L 2766 1759 
L 2194 1759 
z
M 3341 1997 
L 3341 0 
L 2766 0 
L 2766 531 
Q 2569 213 2275 61 
Q 1981 -91 1556 -91 
Q 1019 -91 701 211 
Q 384 513 384 1019 
Q 384 1609 779 1909 
Q 1175 2209 1959 2209 
L 2766 2209 
L 2766 2266 
Q 2766 2663 2505 2880 
Q 2244 3097 1772 3097 
Q 1472 3097 1187 3025 
Q 903 2953 641 2809 
L 641 3341 
Q 956 3463 1253 3523 
Q 1550 3584 1831 3584 
Q 2591 3584 2966 3190 
Q 3341 2797 3341 1997 
z
" transform="scale(0.015625)"/>
       <path id="DejaVuSans-72" d="M 2631 2963 
Q 2534 3019 2420 3045 
Q 2306 3072 2169 3072 
Q 1681 3072 1420 2755 
Q 1159 2438 1159 1844 
L 1159 0 
L 581 0 
L 581 3500 
L 1159 3500 
L 1159 2956 
Q 1341 3275 1631 3429 
Q 1922 3584 2338 3584 
Q 2397 3584 2469 3576 
Q 2541 3569 2628 3553 
L 2631 2963 
z
" transform="scale(0.015625)"/>
       <path id="DejaVuSans-69" d="M 603 3500 
L 1178 3500 
L 1178 0 
L 603 0 
L 603 3500 
z
M 603 4863 
L 1178 4863 
L 1178 4134 
L 603 4134 
L 603 4863 
z
" transform="scale(0.015625)"/>
       <path id="DejaVuSans-63" d="M 3122 3366 
L 3122 2828 
Q 2878 2963 2633 3030 
Q 2388 3097 2138 3097 
Q 1578 3097 1268 2742 
Q 959 2388 959 1747 
Q 959 1106 1268 751 
Q 1578 397 2138 397 
Q 2388 397 2633 464 
Q 2878 531 3122 666 
L 3122 134 
Q 2881 22 2623 -34 
Q 2366 -91 2075 -91 
Q 1284 -91 818 406 
Q 353 903 353 1747 
Q 353 2603 823 3093 
Q 1294 3584 2113 3584 
Q 2378 3584 2631 3529 
Q 2884 3475 3122 3366 
z
" transform="scale(0.015625)"/>
       <path id="DejaVuSans-6c" d="M 603 4863 
L 1178 4863 
L 1178 0 
L 603 0 
L 603 4863 
z
" transform="scale(0.015625)"/>
       <path id="DejaVuSans-29" d="M 513 4856 
L 1013 4856 
Q 1481 4119 1714 3412 
Q 1947 2706 1947 2009 
Q 1947 1309 1714 600 
Q 1481 -109 1013 -844 
L 513 -844 
Q 928 -128 1133 580 
Q 1338 1288 1338 2009 
Q 1338 2731 1133 3434 
Q 928 4138 513 4856 
z
" transform="scale(0.015625)"/>
      </defs>
      <use xlink:href="#DejaVuSans-Oblique-4e" transform="translate(0 0.015625)"/>
      <use xlink:href="#DejaVuSans-20" transform="translate(74.804688 0.015625)"/>
      <use xlink:href="#DejaVuSans-28" transform="translate(106.591797 0.015625)"/>
      <use xlink:href="#DejaVuSans-73" transform="translate(145.605469 0.015625)"/>
      <use xlink:href="#DejaVuSans-79" transform="translate(197.705078 0.015625)"/>
      <use xlink:href="#DejaVuSans-73" transform="translate(256.884766 0.015625)"/>
      <use xlink:href="#DejaVuSans-74" transform="translate(308.984375 0.015625)"/>
      <use xlink:href="#DejaVuSans-65" transform="translate(348.193359 0.015625)"/>
      <use xlink:href="#DejaVuSans-6d" transform="translate(409.716797 0.015625)"/>
      <use xlink:href="#DejaVuSans-20" transform="translate(507.128906 0.015625)"/>
      <use xlink:href="#DejaVuSans-70" transform="translate(538.916016 0.015625)"/>
      <use xlink:href="#DejaVuSans-61" transform="translate(602.392578 0.015625)"/>
      <use xlink:href="#DejaVuSans-72" transform="translate(663.671875 0.015625)"/>
      <use xlink:href="#DejaVuSans-74" transform="translate(704.785156 0.015625)"/>
      <use xlink:href="#DejaVuSans-69" transform="translate(743.994141 0.015625)"/>
      <use xlink:href="#DejaVuSans-63" transform="translate(771.777344 0.015625)"/>
      <use xlink:href="#DejaVuSans-6c" transform="translate(826.757812 0.015625)"/>
      <use xlink:href="#DejaVuSans-65" transform="translate(854.541016 0.015625)"/>
      <use xlink:href="#DejaVuSans-73" transform="translate(916.064453 0.015625)"/>
      <use xlink:href="#DejaVuSans-29" transform="translate(968.164062 0.015625)"/>
     </g>
    </g>
   </g>
   <g id="matplotlib.axis_2">
    <g id="ytick_1">
     <g id="line2d_3">
      <path d="M 58.16375 214.511145 
L 448.76375 214.511145 
" clip-path="url(#p13a3b4631c)" style="fill: none; stroke: #cccccc; stroke-linecap: round"/>
     </g>
     <g id="text_4">
      <!-- $\mathdefault{10^{-2}}$ -->
      <g style="fill: #262626" transform="translate(22.81375 218.690286) scale(0.11 -0.11)">
       <defs>
        <path id="DejaVuSans-2212" d="M 678 2272 
L 4684 2272 
L 4684 1741 
L 678 1741 
L 678 2272 
z
" transform="scale(0.015625)"/>
        <path id="DejaVuSans-32" d="M 1228 531 
L 3431 531 
L 3431 0 
L 469 0 
L 469 531 
Q 828 903 1448 1529 
Q 2069 2156 2228 2338 
Q 2531 2678 2651 2914 
Q 2772 3150 2772 3378 
Q 2772 3750 2511 3984 
Q 2250 4219 1831 4219 
Q 1534 4219 1204 4116 
Q 875 4013 500 3803 
L 500 4441 
Q 881 4594 1212 4672 
Q 1544 4750 1819 4750 
Q 2544 4750 2975 4387 
Q 3406 4025 3406 3419 
Q 3406 3131 3298 2873 
Q 3191 2616 2906 2266 
Q 2828 2175 2409 1742 
Q 1991 1309 1228 531 
z
" transform="scale(0.015625)"/>
       </defs>
       <use xlink:href="#DejaVuSans-31" transform="translate(0 0.765625)"/>
       <use xlink:href="#DejaVuSans-30" transform="translate(63.623047 0.765625)"/>
       <use xlink:href="#DejaVuSans-2212" transform="translate(128.203125 39.046875) scale(0.7)"/>
       <use xlink:href="#DejaVuSans-32" transform="translate(186.855469 39.046875) scale(0.7)"/>
      </g>
     </g>
    </g>
    <g id="ytick_2">
     <g id="line2d_4">
      <path d="M 58.16375 70.932291 
L 448.76375 70.932291 
" clip-path="url(#p13a3b4631c)" style="fill: none; stroke: #cccccc; stroke-linecap: round"/>
     </g>
     <g id="text_5">
      <!-- $\mathdefault{10^{-1}}$ -->
      <g style="fill: #262626" transform="translate(22.81375 75.111432) scale(0.11 -0.11)">
       <use xlink:href="#DejaVuSans-31" transform="translate(0 0.684375)"/>
       <use xlink:href="#DejaVuSans-30" transform="translate(63.623047 0.684375)"/>
       <use xlink:href="#DejaVuSans-2212" transform="translate(128.203125 38.965625) scale(0.7)"/>
       <use xlink:href="#DejaVuSans-31" transform="translate(186.855469 38.965625) scale(0.7)"/>
      </g>
     </g>
    </g>
    <g id="ytick_3"/>
    <g id="ytick_4"/>
    <g id="ytick_5"/>
    <g id="ytick_6"/>
    <g id="ytick_7"/>
    <g id="ytick_8"/>
    <g id="ytick_9"/>
    <g id="ytick_10"/>
    <g id="ytick_11"/>
    <g id="ytick_12"/>
    <g id="ytick_13"/>
    <g id="ytick_14"/>
    <g id="ytick_15"/>
    <g id="ytick_16"/>
    <g id="ytick_17"/>
    <g id="ytick_18"/>
    <g id="text_6">
     <!-- $\Delta\theta$ -->
     <g style="fill: #262626" transform="translate(16.318125 168.84) rotate(-90) scale(0.12 -0.12)">
      <defs>
       <path id="DejaVuSans-394" d="M 2188 4044 
L 906 525 
L 3472 525 
L 2188 4044 
z
M 50 0 
L 1831 4666 
L 2547 4666 
L 4325 0 
L 50 0 
z
" transform="scale(0.015625)"/>
       <path id="DejaVuSans-Oblique-3b8" d="M 2913 2219 
L 925 2219 
Q 791 1284 928 888 
Q 1100 400 1566 400 
Q 2034 400 2391 891 
Q 2703 1322 2913 2219 
z
M 3009 2750 
Q 3094 3638 2984 3950 
Q 2813 4444 2353 4444 
Q 1875 4444 1525 3956 
Q 1250 3563 1034 2750 
L 3009 2750 
z
M 2444 4913 
Q 3194 4913 3494 4250 
Q 3794 3591 3566 2422 
Q 3341 1256 2781 594 
Q 2225 -72 1475 -72 
Q 722 -72 425 594 
Q 128 1256 353 2422 
Q 581 3591 1134 4250 
Q 1691 4913 2444 4913 
z
" transform="scale(0.015625)"/>
      </defs>
      <use xlink:href="#DejaVuSans-394" transform="translate(0 0.234375)"/>
      <use xlink:href="#DejaVuSans-Oblique-3b8" transform="translate(68.408203 0.234375)"/>
     </g>
    </g>
   </g>
   <g id="FillBetweenPolyCollection_1">
    <defs>
     <path id="m8a67911aa3" d="M 75.918295 -241.704388 
L 75.918295 -241.704388 
L 79.505072 -242.176452 
L 83.091849 -242.648516 
L 86.678626 -243.12058 
L 90.265403 -243.592644 
L 93.85218 -244.064708 
L 97.438957 -244.536772 
L 101.025733 -245.008836 
L 104.61251 -245.4809 
L 108.199287 -245.952964 
L 111.786064 -246.425028 
L 115.372841 -246.897092 
L 118.959618 -247.369156 
L 122.546395 -247.84122 
L 126.133171 -248.313284 
L 129.719948 -248.785348 
L 133.306725 -249.257412 
L 136.893502 -249.729476 
L 140.480279 -250.20154 
L 144.067056 -250.673604 
L 147.653833 -251.145668 
L 151.24061 -251.617732 
L 154.827386 -252.089796 
L 158.414163 -252.56186 
L 162.00094 -253.033924 
L 165.587717 -253.505988 
L 169.174494 -253.978052 
L 172.761271 -254.450116 
L 176.348048 -254.92218 
L 179.934824 -255.394244 
L 183.521601 -255.866308 
L 187.108378 -256.338372 
L 190.695155 -256.810435 
L 194.281932 -257.282499 
L 197.868709 -257.754563 
L 201.455486 -258.226627 
L 205.042262 -258.698691 
L 208.629039 -259.170755 
L 212.215816 -259.642819 
L 215.802593 -260.114883 
L 219.38937 -260.586947 
L 222.976147 -261.059011 
L 226.562924 -261.531075 
L 230.1497 -262.003139 
L 233.736477 -262.475203 
L 237.323254 -262.947267 
L 240.910031 -263.419331 
L 244.496808 -263.891395 
L 248.083585 -264.363459 
L 251.670362 -264.835523 
L 255.257138 -265.307587 
L 258.843915 -265.779651 
L 262.430692 -266.251715 
L 266.017469 -266.723779 
L 269.604246 -267.195843 
L 273.191023 -267.667907 
L 276.7778 -268.139971 
L 280.364576 -268.612035 
L 283.951353 -269.084099 
L 287.53813 -269.556163 
L 291.124907 -270.028227 
L 294.711684 -270.500291 
L 298.298461 -270.972355 
L 301.885238 -271.444419 
L 305.472014 -271.916483 
L 309.058791 -272.388547 
L 312.645568 -272.860611 
L 316.232345 -273.332675 
L 319.819122 -273.804739 
L 323.405899 -274.276803 
L 326.992676 -274.748867 
L 330.579452 -275.220931 
L 334.166229 -275.692995 
L 337.753006 -276.165059 
L 341.339783 -276.637123 
L 344.92656 -277.109187 
L 348.513337 -277.581251 
L 352.100114 -278.053315 
L 355.68689 -278.525379 
L 359.273667 -278.997443 
L 362.860444 -279.469507 
L 366.447221 -279.941571 
L 370.033998 -280.413635 
L 373.620775 -280.885699 
L 377.207552 -281.357763 
L 380.794329 -281.829827 
L 384.381105 -282.301891 
L 387.967882 -282.773955 
L 391.554659 -283.246019 
L 395.141436 -283.718083 
L 398.728213 -284.190147 
L 402.31499 -284.66221 
L 405.901767 -285.134274 
L 409.488543 -285.606338 
L 413.07532 -286.078402 
L 416.662097 -286.550466 
L 420.248874 -287.02253 
L 423.835651 -287.494594 
L 427.422428 -287.966658 
L 431.009205 -288.438722 
L 431.009205 -200.655387 
L 431.009205 -200.655387 
L 427.422428 -201.070023 
L 423.835651 -201.484659 
L 420.248874 -201.899296 
L 416.662097 -202.313932 
L 413.07532 -202.728569 
L 409.488543 -203.143205 
L 405.901767 -203.557841 
L 402.31499 -203.972478 
L 398.728213 -204.387114 
L 395.141436 -204.80175 
L 391.554659 -205.216387 
L 387.967882 -205.631023 
L 384.381105 -206.04566 
L 380.794329 -206.460296 
L 377.207552 -206.874932 
L 373.620775 -207.289569 
L 370.033998 -207.704205 
L 366.447221 -208.118841 
L 362.860444 -208.533478 
L 359.273667 -208.948114 
L 355.68689 -209.362751 
L 352.100114 -209.777387 
L 348.513337 -210.192023 
L 344.92656 -210.60666 
L 341.339783 -211.021296 
L 337.753006 -211.435932 
L 334.166229 -211.850569 
L 330.579452 -212.265205 
L 326.992676 -212.679842 
L 323.405899 -213.094478 
L 319.819122 -213.509114 
L 316.232345 -213.923751 
L 312.645568 -214.338387 
L 309.058791 -214.753023 
L 305.472014 -215.16766 
L 301.885238 -215.582296 
L 298.298461 -215.996933 
L 294.711684 -216.411569 
L 291.124907 -216.826205 
L 287.53813 -217.240842 
L 283.951353 -217.655478 
L 280.364576 -218.070115 
L 276.7778 -218.484751 
L 273.191023 -218.899387 
L 269.604246 -219.314024 
L 266.017469 -219.72866 
L 262.430692 -220.143296 
L 258.843915 -220.557933 
L 255.257138 -220.972569 
L 251.670362 -221.387206 
L 248.083585 -221.801842 
L 244.496808 -222.216478 
L 240.910031 -222.631115 
L 237.323254 -223.045751 
L 233.736477 -223.460387 
L 230.1497 -223.875024 
L 226.562924 -224.28966 
L 222.976147 -224.704297 
L 219.38937 -225.118933 
L 215.802593 -225.533569 
L 212.215816 -225.948206 
L 208.629039 -226.362842 
L 205.042262 -226.777478 
L 201.455486 -227.192115 
L 197.868709 -227.606751 
L 194.281932 -228.021388 
L 190.695155 -228.436024 
L 187.108378 -228.85066 
L 183.521601 -229.265297 
L 179.934824 -229.679933 
L 176.348048 -230.094569 
L 172.761271 -230.509206 
L 169.174494 -230.923842 
L 165.587717 -231.338479 
L 162.00094 -231.753115 
L 158.414163 -232.167751 
L 154.827386 -232.582388 
L 151.24061 -232.997024 
L 147.653833 -233.41166 
L 144.067056 -233.826297 
L 140.480279 -234.240933 
L 136.893502 -234.65557 
L 133.306725 -235.070206 
L 129.719948 -235.484842 
L 126.133171 -235.899479 
L 122.546395 -236.314115 
L 118.959618 -236.728752 
L 115.372841 -237.143388 
L 111.786064 -237.558024 
L 108.199287 -237.972661 
L 104.61251 -238.387297 
L 101.025733 -238.801933 
L 97.438957 -239.21657 
L 93.85218 -239.631206 
L 90.265403 -240.045843 
L 86.678626 -240.460479 
L 83.091849 -240.875115 
L 79.505072 -241.289752 
L 75.918295 -241.704388 
z
" style="stroke: #4c72b0; stroke-opacity: 0.15"/>
    </defs>
    <g clip-path="url(#p13a3b4631c)">
     <use xlink:href="#m8a67911aa3" x="0" y="342.625938" style="fill: #4c72b0; fill-opacity: 0.15; stroke: #4c72b0; stroke-opacity: 0.15"/>
    </g>
   </g>
   <g id="LineCollection_1">
    <path d="M 75.918295 118.812866 
L 75.918295 101.960064 
" clip-path="url(#p13a3b4631c)" style="fill: none; stroke: #4c72b0; stroke-width: 1.5"/>
    <path d="M 164.691023 144.802401 
L 164.691023 110.788693 
" clip-path="url(#p13a3b4631c)" style="fill: none; stroke: #4c72b0; stroke-width: 1.5"/>
    <path d="M 216.619739 138.088583 
L 216.619739 67.674769 
" clip-path="url(#p13a3b4631c)" style="fill: none; stroke: #4c72b0; stroke-width: 1.5"/>
    <path d="M 253.46375 159.383858 
L 253.46375 115.146097 
" clip-path="url(#p13a3b4631c)" style="fill: none; stroke: #4c72b0; stroke-width: 1.5"/>
    <path d="M 305.392467 187.390188 
L 305.392467 35.04 
" clip-path="url(#p13a3b4631c)" style="fill: none; stroke: #4c72b0; stroke-width: 1.5"/>
    <path d="M 342.236477 181.419994 
L 342.236477 104.229095 
" clip-path="url(#p13a3b4631c)" style="fill: none; stroke: #4c72b0; stroke-width: 1.5"/>
    <path d="M 394.165194 147.094011 
L 394.165194 83.973008 
" clip-path="url(#p13a3b4631c)" style="fill: none; stroke: #4c72b0; stroke-width: 1.5"/>
    <path d="M 431.009205 343.625938 
L 431.009205 54.085077 
" clip-path="url(#p13a3b4631c)" style="fill: none; stroke: #4c72b0; stroke-width: 1.5"/>
   </g>
   <g id="line2d_5">
    <defs>
     <path id="m52c0536e3a" d="M 4 0 
L -4 -0 
" style="stroke: #4c72b0"/>
    </defs>
    <g clip-path="url(#p13a3b4631c)">
     <use xlink:href="#m52c0536e3a" x="75.918295" y="118.812866" style="fill: #4c72b0; stroke: #4c72b0"/>
     <use xlink:href="#m52c0536e3a" x="164.691023" y="144.802401" style="fill: #4c72b0; stroke: #4c72b0"/>
     <use xlink:href="#m52c0536e3a" x="216.619739" y="138.088583" style="fill: #4c72b0; stroke: #4c72b0"/>
     <use xlink:href="#m52c0536e3a" x="253.46375" y="159.383858" style="fill: #4c72b0; stroke: #4c72b0"/>
     <use xlink:href="#m52c0536e3a" x="305.392467" y="187.390188" style="fill: #4c72b0; stroke: #4c72b0"/>
     <use xlink:href="#m52c0536e3a" x="342.236477" y="181.419994" style="fill: #4c72b0; stroke: #4c72b0"/>
     <use xlink:href="#m52c0536e3a" x="394.165194" y="147.094011" style="fill: #4c72b0; stroke: #4c72b0"/>
     <use xlink:href="#m52c0536e3a" x="400.467721" y="24670.0675" style="fill: #4c72b0; stroke: #4c72b0"/>
    </g>
   </g>
   <g id="line2d_6">
    <g clip-path="url(#p13a3b4631c)">
     <use xlink:href="#m52c0536e3a" x="75.918295" y="101.960064" style="fill: #4c72b0; stroke: #4c72b0"/>
     <use xlink:href="#m52c0536e3a" x="164.691023" y="110.788693" style="fill: #4c72b0; stroke: #4c72b0"/>
     <use xlink:href="#m52c0536e3a" x="216.619739" y="67.674769" style="fill: #4c72b0; stroke: #4c72b0"/>
     <use xlink:href="#m52c0536e3a" x="253.46375" y="115.146097" style="fill: #4c72b0; stroke: #4c72b0"/>
     <use xlink:href="#m52c0536e3a" x="305.392467" y="35.04" style="fill: #4c72b0; stroke: #4c72b0"/>
     <use xlink:href="#m52c0536e3a" x="342.236477" y="104.229095" style="fill: #4c72b0; stroke: #4c72b0"/>
     <use xlink:href="#m52c0536e3a" x="394.165194" y="83.973008" style="fill: #4c72b0; stroke: #4c72b0"/>
     <use xlink:href="#m52c0536e3a" x="431.009205" y="54.085077" style="fill: #4c72b0; stroke: #4c72b0"/>
    </g>
   </g>
   <g id="line2d_7">
    <path d="M 75.918295 100.921549 
L 79.505072 101.070575 
L 83.091849 101.219601 
L 86.678626 101.368627 
L 90.265403 101.517653 
L 93.85218 101.666679 
L 97.438957 101.815705 
L 101.025733 101.96473 
L 104.61251 102.113756 
L 108.199287 102.262782 
L 111.786064 102.411808 
L 115.372841 102.560834 
L 118.959618 102.70986 
L 122.546395 102.858886 
L 126.133171 103.007911 
L 129.719948 103.156937 
L 133.306725 103.305963 
L 136.893502 103.454989 
L 140.480279 103.604015 
L 144.067056 103.753041 
L 147.653833 103.902066 
L 151.24061 104.051092 
L 154.827386 104.200118 
L 158.414163 104.349144 
L 162.00094 104.49817 
L 165.587717 104.647196 
L 169.174494 104.796222 
L 172.761271 104.945247 
L 176.348048 105.094273 
L 179.934824 105.243299 
L 183.521601 105.392325 
L 187.108378 105.541351 
L 190.695155 105.690377 
L 194.281932 105.839403 
L 197.868709 105.988428 
L 201.455486 106.137454 
L 205.042262 106.28648 
L 208.629039 106.435506 
L 212.215816 106.584532 
L 215.802593 106.733558 
L 219.38937 106.882583 
L 222.976147 107.031609 
L 226.562924 107.180635 
L 230.1497 107.329661 
L 233.736477 107.478687 
L 237.323254 107.627713 
L 240.910031 107.776739 
L 244.496808 107.925764 
L 248.083585 108.07479 
L 251.670362 108.223816 
L 255.257138 108.372842 
L 258.843915 108.521868 
L 262.430692 108.670894 
L 266.017469 108.819919 
L 269.604246 108.968945 
L 273.191023 109.117971 
L 276.7778 109.266997 
L 280.364576 109.416023 
L 283.951353 109.565049 
L 287.53813 109.714075 
L 291.124907 109.8631 
L 294.711684 110.012126 
L 298.298461 110.161152 
L 301.885238 110.310178 
L 305.472014 110.459204 
L 309.058791 110.60823 
L 312.645568 110.757256 
L 316.232345 110.906281 
L 319.819122 111.055307 
L 323.405899 111.204333 
L 326.992676 111.353359 
L 330.579452 111.502385 
L 334.166229 111.651411 
L 337.753006 111.800436 
L 341.339783 111.949462 
L 344.92656 112.098488 
L 348.513337 112.247514 
L 352.100114 112.39654 
L 355.68689 112.545566 
L 359.273667 112.694592 
L 362.860444 112.843617 
L 366.447221 112.992643 
L 370.033998 113.141669 
L 373.620775 113.290695 
L 377.207552 113.439721 
L 380.794329 113.588747 
L 384.381105 113.737773 
L 387.967882 113.886798 
L 391.554659 114.035824 
L 395.141436 114.18485 
L 398.728213 114.333876 
L 402.31499 114.482902 
L 405.901767 114.631928 
L 409.488543 114.780953 
L 413.07532 114.929979 
L 416.662097 115.079005 
L 420.248874 115.228031 
L 423.835651 115.377057 
L 427.422428 115.526083 
L 431.009205 115.675109 
" clip-path="url(#p13a3b4631c)" style="fill: none; stroke-dasharray: 5.55,2.4; stroke-dashoffset: 0; stroke: #4c72b0; stroke-opacity: 0.7; stroke-width: 1.5"/>
   </g>
   <g id="line2d_8">
    <path d="M 75.918295 114.153833 
L 79.505072 115.026995 
L 83.091849 115.900158 
L 86.678626 116.77332 
L 90.265403 117.646483 
L 93.85218 118.519645 
L 97.438957 119.392808 
L 101.025733 120.26597 
L 104.61251 121.139132 
L 108.199287 122.012295 
L 111.786064 122.885457 
L 115.372841 123.75862 
L 118.959618 124.631782 
L 122.546395 125.504945 
L 126.133171 126.378107 
L 129.719948 127.25127 
L 133.306725 128.124432 
L 136.893502 128.997595 
L 140.480279 129.870757 
L 144.067056 130.74392 
L 147.653833 131.617082 
L 151.24061 132.490244 
L 154.827386 133.363407 
L 158.414163 134.236569 
L 162.00094 135.109732 
L 165.587717 135.982894 
L 169.174494 136.856057 
L 172.761271 137.729219 
L 176.348048 138.602382 
L 179.934824 139.475544 
L 183.521601 140.348707 
L 187.108378 141.221869 
L 190.695155 142.095032 
L 194.281932 142.968194 
L 197.868709 143.841356 
L 201.455486 144.714519 
L 205.042262 145.587681 
L 208.629039 146.460844 
L 212.215816 147.334006 
L 215.802593 148.207169 
L 219.38937 149.080331 
L 222.976147 149.953494 
L 226.562924 150.826656 
L 230.1497 151.699819 
L 233.736477 152.572981 
L 237.323254 153.446144 
L 240.910031 154.319306 
L 244.496808 155.192468 
L 248.083585 156.065631 
L 251.670362 156.938793 
L 255.257138 157.811956 
L 258.843915 158.685118 
L 262.430692 159.558281 
L 266.017469 160.431443 
L 269.604246 161.304606 
L 273.191023 162.177768 
L 276.7778 163.050931 
L 280.364576 163.924093 
L 283.951353 164.797256 
L 287.53813 165.670418 
L 291.124907 166.54358 
L 294.711684 167.416743 
L 298.298461 168.289905 
L 301.885238 169.163068 
L 305.472014 170.03623 
L 309.058791 170.909393 
L 312.645568 171.782555 
L 316.232345 172.655718 
L 319.819122 173.52888 
L 323.405899 174.402043 
L 326.992676 175.275205 
L 330.579452 176.148368 
L 334.166229 177.02153 
L 337.753006 177.894692 
L 341.339783 178.767855 
L 344.92656 179.641017 
L 348.513337 180.51418 
L 352.100114 181.387342 
L 355.68689 182.260505 
L 359.273667 183.133667 
L 362.860444 184.00683 
L 366.447221 184.879992 
L 370.033998 185.753155 
L 373.620775 186.626317 
L 377.207552 187.499479 
L 380.794329 188.372642 
L 384.381105 189.245804 
L 387.967882 190.118967 
L 391.554659 190.992129 
L 395.141436 191.865292 
L 398.728213 192.738454 
L 402.31499 193.611617 
L 405.901767 194.484779 
L 409.488543 195.357942 
L 413.07532 196.231104 
L 416.662097 197.104267 
L 420.248874 197.977429 
L 423.835651 198.850591 
L 427.422428 199.723754 
L 431.009205 200.596916 
" clip-path="url(#p13a3b4631c)" style="fill: none; stroke-dasharray: 1.5,2.475; stroke-dashoffset: 0; stroke: #55a868; stroke-opacity: 0.6; stroke-width: 1.5"/>
   </g>
   <g id="line2d_9">
    <path d="M 75.918295 114.153833 
L 79.505072 115.900158 
L 83.091849 117.646483 
L 86.678626 119.392808 
L 90.265403 121.139132 
L 93.85218 122.885457 
L 97.438957 124.631782 
L 101.025733 126.378107 
L 104.61251 128.124432 
L 108.199287 129.870757 
L 111.786064 131.617082 
L 115.372841 133.363407 
L 118.959618 135.109732 
L 122.546395 136.856057 
L 126.133171 138.602382 
L 129.719948 140.348707 
L 133.306725 142.095032 
L 136.893502 143.841356 
L 140.480279 145.587681 
L 144.067056 147.334006 
L 147.653833 149.080331 
L 151.24061 150.826656 
L 154.827386 152.572981 
L 158.414163 154.319306 
L 162.00094 156.065631 
L 165.587717 157.811956 
L 169.174494 159.558281 
L 172.761271 161.304606 
L 176.348048 163.050931 
L 179.934824 164.797256 
L 183.521601 166.54358 
L 187.108378 168.289905 
L 190.695155 170.03623 
L 194.281932 171.782555 
L 197.868709 173.52888 
L 201.455486 175.275205 
L 205.042262 177.02153 
L 208.629039 178.767855 
L 212.215816 180.51418 
L 215.802593 182.260505 
L 219.38937 184.00683 
L 222.976147 185.753155 
L 226.562924 187.499479 
L 230.1497 189.245804 
L 233.736477 190.992129 
L 237.323254 192.738454 
L 240.910031 194.484779 
L 244.496808 196.231104 
L 248.083585 197.977429 
L 251.670362 199.723754 
L 255.257138 201.470079 
L 258.843915 203.216404 
L 262.430692 204.962729 
L 266.017469 206.709054 
L 269.604246 208.455379 
L 273.191023 210.201703 
L 276.7778 211.948028 
L 280.364576 213.694353 
L 283.951353 215.440678 
L 287.53813 217.187003 
L 291.124907 218.933328 
L 294.711684 220.679653 
L 298.298461 222.425978 
L 301.885238 224.172303 
L 305.472014 225.918628 
L 309.058791 227.664953 
L 312.645568 229.411278 
L 316.232345 231.157603 
L 319.819122 232.903927 
L 323.405899 234.650252 
L 326.992676 236.396577 
L 330.579452 238.142902 
L 334.166229 239.889227 
L 337.753006 241.635552 
L 341.339783 243.381877 
L 344.92656 245.128202 
L 348.513337 246.874527 
L 352.100114 248.620852 
L 355.68689 250.367177 
L 359.273667 252.113502 
L 362.860444 253.859826 
L 366.447221 255.606151 
L 370.033998 257.352476 
L 373.620775 259.098801 
L 377.207552 260.845126 
L 380.794329 262.591451 
L 384.381105 264.337776 
L 387.967882 266.084101 
L 391.554659 267.830426 
L 395.141436 269.576751 
L 398.728213 271.323076 
L 402.31499 273.069401 
L 405.901767 274.815726 
L 409.488543 276.56205 
L 413.07532 278.308375 
L 416.662097 280.0547 
L 420.248874 281.801025 
L 423.835651 283.54735 
L 427.422428 285.293675 
L 431.009205 287.04 
" clip-path="url(#p13a3b4631c)" style="fill: none; stroke-dasharray: 1.5,2.475; stroke-dashoffset: 0; stroke: #8172b3; stroke-opacity: 0.6; stroke-width: 1.5"/>
   </g>
   <g id="line2d_10">
    <defs>
     <path id="ma22e9fd000" d="M 0 3 
C 0.795609 3 1.55874 2.683901 2.12132 2.12132 
C 2.683901 1.55874 3 0.795609 3 0 
C 3 -0.795609 2.683901 -1.55874 2.12132 -2.12132 
C 1.55874 -2.683901 0.795609 -3 0 -3 
C -0.795609 -3 -1.55874 -2.683901 -2.12132 -2.12132 
C -2.683901 -1.55874 -3 -0.795609 -3 0 
C -3 0.795609 -2.683901 1.55874 -2.12132 2.12132 
C -1.55874 2.683901 -0.795609 3 0 3 
z
" style="stroke: #4c72b0"/>
    </defs>
    <g clip-path="url(#p13a3b4631c)">
     <use xlink:href="#ma22e9fd000" x="75.918295" y="109.818839" style="fill: #4c72b0; stroke: #4c72b0"/>
     <use xlink:href="#ma22e9fd000" x="164.691023" y="125.504516" style="fill: #4c72b0; stroke: #4c72b0"/>
     <use xlink:href="#ma22e9fd000" x="216.619739" y="93.42962" style="fill: #4c72b0; stroke: #4c72b0"/>
     <use xlink:href="#ma22e9fd000" x="253.46375" y="133.42156" style="fill: #4c72b0; stroke: #4c72b0"/>
     <use xlink:href="#ma22e9fd000" x="305.392467" y="73.06675" style="fill: #4c72b0; stroke: #4c72b0"/>
     <use xlink:href="#ma22e9fd000" x="342.236477" y="131.572882" style="fill: #4c72b0; stroke: #4c72b0"/>
     <use xlink:href="#ma22e9fd000" x="394.165194" y="107.865911" style="fill: #4c72b0; stroke: #4c72b0"/>
     <use xlink:href="#ma22e9fd000" x="431.009205" y="98.179262" style="fill: #4c72b0; stroke: #4c72b0"/>
    </g>
   </g>
   <g id="patch_3">
    <path d="M 58.16375 299.64 
L 58.16375 22.44 
" style="fill: none; stroke: #cccccc; stroke-width: 1.25; stroke-linejoin: miter; stroke-linecap: square"/>
   </g>
   <g id="patch_4">
    <path d="M 448.76375 299.64 
L 448.76375 22.44 
" style="fill: none; stroke: #cccccc; stroke-width: 1.25; stroke-linejoin: miter; stroke-linecap: square"/>
   </g>
   <g id="patch_5">
    <path d="M 58.16375 299.64 
L 448.76375 299.64 
" style="fill: none; stroke: #cccccc; stroke-width: 1.25; stroke-linejoin: miter; stroke-linecap: square"/>
   </g>
   <g id="patch_6">
    <path d="M 58.16375 22.44 
L 448.76375 22.44 
" style="fill: none; stroke: #cccccc; stroke-width: 1.25; stroke-linejoin: miter; stroke-linecap: square"/>
   </g>
   <g id="text_7">
    <!-- N-scaling: $\Delta\theta$ vs $N$ (M=-1) -->
    <g style="fill: #262626" transform="translate(176.30375 16.44) scale(0.12 -0.12)">
     <defs>
      <path id="DejaVuSans-4e" d="M 628 4666 
L 1478 4666 
L 3547 763 
L 3547 4666 
L 4159 4666 
L 4159 0 
L 3309 0 
L 1241 3903 
L 1241 0 
L 628 0 
L 628 4666 
z
" transform="scale(0.015625)"/>
      <path id="DejaVuSans-2d" d="M 313 2009 
L 1997 2009 
L 1997 1497 
L 313 1497 
L 313 2009 
z
" transform="scale(0.015625)"/>
      <path id="DejaVuSans-6e" d="M 3513 2113 
L 3513 0 
L 2938 0 
L 2938 2094 
Q 2938 2591 2744 2837 
Q 2550 3084 2163 3084 
Q 1697 3084 1428 2787 
Q 1159 2491 1159 1978 
L 1159 0 
L 581 0 
L 581 3500 
L 1159 3500 
L 1159 2956 
Q 1366 3272 1645 3428 
Q 1925 3584 2291 3584 
Q 2894 3584 3203 3211 
Q 3513 2838 3513 2113 
z
" transform="scale(0.015625)"/>
      <path id="DejaVuSans-67" d="M 2906 1791 
Q 2906 2416 2648 2759 
Q 2391 3103 1925 3103 
Q 1463 3103 1205 2759 
Q 947 2416 947 1791 
Q 947 1169 1205 825 
Q 1463 481 1925 481 
Q 2391 481 2648 825 
Q 2906 1169 2906 1791 
z
M 3481 434 
Q 3481 -459 3084 -895 
Q 2688 -1331 1869 -1331 
Q 1566 -1331 1297 -1286 
Q 1028 -1241 775 -1147 
L 775 -588 
Q 1028 -725 1275 -790 
Q 1522 -856 1778 -856 
Q 2344 -856 2625 -561 
Q 2906 -266 2906 331 
L 2906 616 
Q 2728 306 2450 153 
Q 2172 0 1784 0 
Q 1141 0 747 490 
Q 353 981 353 1791 
Q 353 2603 747 3093 
Q 1141 3584 1784 3584 
Q 2172 3584 2450 3431 
Q 2728 3278 2906 2969 
L 2906 3500 
L 3481 3500 
L 3481 434 
z
" transform="scale(0.015625)"/>
      <path id="DejaVuSans-3a" d="M 750 794 
L 1409 794 
L 1409 0 
L 750 0 
L 750 794 
z
M 750 3309 
L 1409 3309 
L 1409 2516 
L 750 2516 
L 750 3309 
z
" transform="scale(0.015625)"/>
      <path id="DejaVuSans-76" d="M 191 3500 
L 800 3500 
L 1894 563 
L 2988 3500 
L 3597 3500 
L 2284 0 
L 1503 0 
L 191 3500 
z
" transform="scale(0.015625)"/>
      <path id="DejaVuSans-4d" d="M 628 4666 
L 1569 4666 
L 2759 1491 
L 3956 4666 
L 4897 4666 
L 4897 0 
L 4281 0 
L 4281 4097 
L 3078 897 
L 2444 897 
L 1241 4097 
L 1241 0 
L 628 0 
L 628 4666 
z
" transform="scale(0.015625)"/>
      <path id="DejaVuSans-3d" d="M 678 2906 
L 4684 2906 
L 4684 2381 
L 678 2381 
L 678 2906 
z
M 678 1631 
L 4684 1631 
L 4684 1100 
L 678 1100 
L 678 1631 
z
" transform="scale(0.015625)"/>
     </defs>
     <use xlink:href="#DejaVuSans-4e" transform="translate(0 0.234375)"/>
     <use xlink:href="#DejaVuSans-2d" transform="translate(74.804688 0.234375)"/>
     <use xlink:href="#DejaVuSans-73" transform="translate(110.888672 0.234375)"/>
     <use xlink:href="#DejaVuSans-63" transform="translate(162.988281 0.234375)"/>
     <use xlink:href="#DejaVuSans-61" transform="translate(217.96875 0.234375)"/>
     <use xlink:href="#DejaVuSans-6c" transform="translate(279.248047 0.234375)"/>
     <use xlink:href="#DejaVuSans-69" transform="translate(307.03125 0.234375)"/>
     <use xlink:href="#DejaVuSans-6e" transform="translate(334.814453 0.234375)"/>
     <use xlink:href="#DejaVuSans-67" transform="translate(398.193359 0.234375)"/>
     <use xlink:href="#DejaVuSans-3a" transform="translate(461.669922 0.234375)"/>
     <use xlink:href="#DejaVuSans-20" transform="translate(495.361328 0.234375)"/>
     <use xlink:href="#DejaVuSans-394" transform="translate(527.148438 0.234375)"/>
     <use xlink:href="#DejaVuSans-Oblique-3b8" transform="translate(595.556641 0.234375)"/>
     <use xlink:href="#DejaVuSans-20" transform="translate(656.738281 0.234375)"/>
     <use xlink:href="#DejaVuSans-76" transform="translate(688.525391 0.234375)"/>
     <use xlink:href="#DejaVuSans-73" transform="translate(747.705078 0.234375)"/>
     <use xlink:href="#DejaVuSans-20" transform="translate(799.804688 0.234375)"/>
     <use xlink:href="#DejaVuSans-Oblique-4e" transform="translate(831.591797 0.234375)"/>
     <use xlink:href="#DejaVuSans-20" transform="translate(906.396484 0.234375)"/>
     <use xlink:href="#DejaVuSans-28" transform="translate(938.183594 0.234375)"/>
     <use xlink:href="#DejaVuSans-4d" transform="translate(977.197266 0.234375)"/>
     <use xlink:href="#DejaVuSans-3d" transform="translate(1063.476562 0.234375)"/>
     <use xlink:href="#DejaVuSans-2d" transform="translate(1147.265625 0.234375)"/>
     <use xlink:href="#DejaVuSans-31" transform="translate(1183.349609 0.234375)"/>
     <use xlink:href="#DejaVuSans-29" transform="translate(1246.972656 0.234375)"/>
    </g>
   </g>
   <g id="PathCollection_1">
    <defs>
     <path id="mb3555da24e" d="M 0 -4.472136 
L -1.004057 -1.381966 
L -4.253254 -1.381966 
L -1.624598 0.527864 
L -2.628656 3.618034 
L -0 1.708204 
L 2.628656 3.618034 
L 1.624598 0.527864 
L 4.253254 -1.381966 
L 1.004057 -1.381966 
z
" style="stroke: #c44e52"/>
    </defs>
    <g clip-path="url(#p13a3b4631c)">
     <use xlink:href="#mb3555da24e" x="75.918295" y="114.153833" style="fill: #c44e52; stroke: #c44e52"/>
     <use xlink:href="#mb3555da24e" x="164.691023" y="137.361061" style="fill: #c44e52; stroke: #c44e52"/>
     <use xlink:href="#mb3555da24e" x="216.619739" y="148.406094" style="fill: #c44e52; stroke: #c44e52"/>
     <use xlink:href="#mb3555da24e" x="253.46375" y="157.375375" style="fill: #c44e52; stroke: #c44e52"/>
     <use xlink:href="#mb3555da24e" x="305.392467" y="136.067851" style="fill: #c44e52; stroke: #c44e52"/>
     <use xlink:href="#mb3555da24e" x="342.236477" y="178.986145" style="fill: #c44e52; stroke: #c44e52"/>
     <use xlink:href="#mb3555da24e" x="394.165194" y="191.627636" style="fill: #c44e52; stroke: #c44e52"/>
     <use xlink:href="#mb3555da24e" x="431.009205" y="200.596916" style="fill: #c44e52; stroke: #c44e52"/>
    </g>
   </g>
   <g id="legend_1">
    <g id="patch_7">
     <path d="M 65.16095 294.642 
L 216.50039 294.642 
Q 218.49959 294.642 218.49959 292.6428 
L 218.49959 202.588211 
Q 218.49959 200.589011 216.50039 200.589011 
L 65.16095 200.589011 
Q 63.16175 200.589011 63.16175 202.588211 
L 63.16175 292.6428 
Q 63.16175 294.642 65.16095 294.642 
z
" style="fill: #ffffff; opacity: 0.8; stroke: #cccccc; stroke-linejoin: miter"/>
    </g>
    <g id="PathCollection_2">
     <g>
      <use xlink:href="#mb3555da24e" x="77.15615" y="209.558859" style="fill: #c44e52; stroke: #c44e52"/>
     </g>
    </g>
    <g id="text_8">
     <!-- Best per N -->
     <g style="fill: #262626" transform="translate(95.14895 212.182809) scale(0.09996 -0.09996)">
      <defs>
       <path id="DejaVuSans-42" d="M 1259 2228 
L 1259 519 
L 2272 519 
Q 2781 519 3026 730 
Q 3272 941 3272 1375 
Q 3272 1813 3026 2020 
Q 2781 2228 2272 2228 
L 1259 2228 
z
M 1259 4147 
L 1259 2741 
L 2194 2741 
Q 2656 2741 2882 2914 
Q 3109 3088 3109 3444 
Q 3109 3797 2882 3972 
Q 2656 4147 2194 4147 
L 1259 4147 
z
M 628 4666 
L 2241 4666 
Q 2963 4666 3353 4366 
Q 3744 4066 3744 3513 
Q 3744 3084 3544 2831 
Q 3344 2578 2956 2516 
Q 3422 2416 3680 2098 
Q 3938 1781 3938 1306 
Q 3938 681 3513 340 
Q 3088 0 2303 0 
L 628 0 
L 628 4666 
z
" transform="scale(0.015625)"/>
      </defs>
      <use xlink:href="#DejaVuSans-42"/>
      <use xlink:href="#DejaVuSans-65" transform="translate(68.603516 0)"/>
      <use xlink:href="#DejaVuSans-73" transform="translate(130.126953 0)"/>
      <use xlink:href="#DejaVuSans-74" transform="translate(182.226562 0)"/>
      <use xlink:href="#DejaVuSans-20" transform="translate(221.435547 0)"/>
      <use xlink:href="#DejaVuSans-70" transform="translate(253.222656 0)"/>
      <use xlink:href="#DejaVuSans-65" transform="translate(316.699219 0)"/>
      <use xlink:href="#DejaVuSans-72" transform="translate(378.222656 0)"/>
      <use xlink:href="#DejaVuSans-20" transform="translate(419.335938 0)"/>
      <use xlink:href="#DejaVuSans-4e" transform="translate(451.123047 0)"/>
     </g>
    </g>
    <g id="line2d_11">
     <path d="M 67.16015 223.356463 
L 77.15615 223.356463 
L 87.15215 223.356463 
" style="fill: none; stroke-dasharray: 5.55,2.4; stroke-dashoffset: 0; stroke: #4c72b0; stroke-opacity: 0.7; stroke-width: 1.5"/>
    </g>
    <g id="text_9">
     <!-- Fit: $\nu = 0.085$ -->
     <g style="fill: #262626" transform="translate(95.14895 226.855063) scale(0.09996 -0.09996)">
      <defs>
       <path id="DejaVuSans-46" d="M 628 4666 
L 3309 4666 
L 3309 4134 
L 1259 4134 
L 1259 2759 
L 3109 2759 
L 3109 2228 
L 1259 2228 
L 1259 0 
L 628 0 
L 628 4666 
z
" transform="scale(0.015625)"/>
       <path id="DejaVuSans-Oblique-3bd" d="M 959 0 
L 572 3500 
L 1191 3500 
L 1522 563 
Q 1972 950 2391 1488 
Q 2706 1891 2788 2241 
Q 2825 2406 2809 2719 
Q 2794 3091 2544 3500 
L 3125 3500 
L 3125 3500 
Q 3288 3222 3353 2834 
Q 3416 2478 3369 2234 
Q 3250 1622 2719 1075 
Q 2025 363 1572 0 
L 959 0 
z
" transform="scale(0.015625)"/>
       <path id="DejaVuSans-2e" d="M 684 794 
L 1344 794 
L 1344 0 
L 684 0 
L 684 794 
z
" transform="scale(0.015625)"/>
       <path id="DejaVuSans-38" d="M 2034 2216 
Q 1584 2216 1326 1975 
Q 1069 1734 1069 1313 
Q 1069 891 1326 650 
Q 1584 409 2034 409 
Q 2484 409 2743 651 
Q 3003 894 3003 1313 
Q 3003 1734 2745 1975 
Q 2488 2216 2034 2216 
z
M 1403 2484 
Q 997 2584 770 2862 
Q 544 3141 544 3541 
Q 544 4100 942 4425 
Q 1341 4750 2034 4750 
Q 2731 4750 3128 4425 
Q 3525 4100 3525 3541 
Q 3525 3141 3298 2862 
Q 3072 2584 2669 2484 
Q 3125 2378 3379 2068 
Q 3634 1759 3634 1313 
Q 3634 634 3220 271 
Q 2806 -91 2034 -91 
Q 1263 -91 848 271 
Q 434 634 434 1313 
Q 434 1759 690 2068 
Q 947 2378 1403 2484 
z
M 1172 3481 
Q 1172 3119 1398 2916 
Q 1625 2713 2034 2713 
Q 2441 2713 2670 2916 
Q 2900 3119 2900 3481 
Q 2900 3844 2670 4047 
Q 2441 4250 2034 4250 
Q 1625 4250 1398 4047 
Q 1172 3844 1172 3481 
z
" transform="scale(0.015625)"/>
       <path id="DejaVuSans-35" d="M 691 4666 
L 3169 4666 
L 3169 4134 
L 1269 4134 
L 1269 2991 
Q 1406 3038 1543 3061 
Q 1681 3084 1819 3084 
Q 2600 3084 3056 2656 
Q 3513 2228 3513 1497 
Q 3513 744 3044 326 
Q 2575 -91 1722 -91 
Q 1428 -91 1123 -41 
Q 819 9 494 109 
L 494 744 
Q 775 591 1075 516 
Q 1375 441 1709 441 
Q 2250 441 2565 725 
Q 2881 1009 2881 1497 
Q 2881 1984 2565 2268 
Q 2250 2553 1709 2553 
Q 1456 2553 1204 2497 
Q 953 2441 691 2322 
L 691 4666 
z
" transform="scale(0.015625)"/>
      </defs>
      <use xlink:href="#DejaVuSans-46" transform="translate(0 0.015625)"/>
      <use xlink:href="#DejaVuSans-69" transform="translate(57.519531 0.015625)"/>
      <use xlink:href="#DejaVuSans-74" transform="translate(85.302734 0.015625)"/>
      <use xlink:href="#DejaVuSans-3a" transform="translate(124.511719 0.015625)"/>
      <use xlink:href="#DejaVuSans-20" transform="translate(158.203125 0.015625)"/>
      <use xlink:href="#DejaVuSans-Oblique-3bd" transform="translate(189.990234 0.015625)"/>
      <use xlink:href="#DejaVuSans-3d" transform="translate(265.332031 0.015625)"/>
      <use xlink:href="#DejaVuSans-30" transform="translate(368.603516 0.015625)"/>
      <use xlink:href="#DejaVuSans-2e" transform="translate(432.226562 0.015625)"/>
      <use xlink:href="#DejaVuSans-30" transform="translate(464.013672 0.015625)"/>
      <use xlink:href="#DejaVuSans-38" transform="translate(527.636719 0.015625)"/>
      <use xlink:href="#DejaVuSans-35" transform="translate(591.259766 0.015625)"/>
     </g>
    </g>
    <g id="patch_8">
     <path d="M 67.16015 241.527317 
L 87.15215 241.527317 
L 87.15215 234.530117 
L 67.16015 234.530117 
z
" style="fill: #4c72b0; fill-opacity: 0.15; stroke: #4c72b0; stroke-opacity: 0.15; stroke-linejoin: miter"/>
    </g>
    <g id="text_10">
     <!-- 95% CI: $[-0.270, 0.237]$ -->
     <g style="fill: #262626" transform="translate(95.14895 241.527317) scale(0.09996 -0.09996)">
      <defs>
       <path id="DejaVuSans-39" d="M 703 97 
L 703 672 
Q 941 559 1184 500 
Q 1428 441 1663 441 
Q 2288 441 2617 861 
Q 2947 1281 2994 2138 
Q 2813 1869 2534 1725 
Q 2256 1581 1919 1581 
Q 1219 1581 811 2004 
Q 403 2428 403 3163 
Q 403 3881 828 4315 
Q 1253 4750 1959 4750 
Q 2769 4750 3195 4129 
Q 3622 3509 3622 2328 
Q 3622 1225 3098 567 
Q 2575 -91 1691 -91 
Q 1453 -91 1209 -44 
Q 966 3 703 97 
z
M 1959 2075 
Q 2384 2075 2632 2365 
Q 2881 2656 2881 3163 
Q 2881 3666 2632 3958 
Q 2384 4250 1959 4250 
Q 1534 4250 1286 3958 
Q 1038 3666 1038 3163 
Q 1038 2656 1286 2365 
Q 1534 2075 1959 2075 
z
" transform="scale(0.015625)"/>
       <path id="DejaVuSans-25" d="M 4653 2053 
Q 4381 2053 4226 1822 
Q 4072 1591 4072 1178 
Q 4072 772 4226 539 
Q 4381 306 4653 306 
Q 4919 306 5073 539 
Q 5228 772 5228 1178 
Q 5228 1588 5073 1820 
Q 4919 2053 4653 2053 
z
M 4653 2450 
Q 5147 2450 5437 2106 
Q 5728 1763 5728 1178 
Q 5728 594 5436 251 
Q 5144 -91 4653 -91 
Q 4153 -91 3862 251 
Q 3572 594 3572 1178 
Q 3572 1766 3864 2108 
Q 4156 2450 4653 2450 
z
M 1428 4353 
Q 1159 4353 1004 4120 
Q 850 3888 850 3481 
Q 850 3069 1003 2837 
Q 1156 2606 1428 2606 
Q 1700 2606 1854 2837 
Q 2009 3069 2009 3481 
Q 2009 3884 1853 4118 
Q 1697 4353 1428 4353 
z
M 4250 4750 
L 4750 4750 
L 1831 -91 
L 1331 -91 
L 4250 4750 
z
M 1428 4750 
Q 1922 4750 2215 4408 
Q 2509 4066 2509 3481 
Q 2509 2891 2217 2550 
Q 1925 2209 1428 2209 
Q 931 2209 642 2551 
Q 353 2894 353 3481 
Q 353 4063 643 4406 
Q 934 4750 1428 4750 
z
" transform="scale(0.015625)"/>
       <path id="DejaVuSans-43" d="M 4122 4306 
L 4122 3641 
Q 3803 3938 3442 4084 
Q 3081 4231 2675 4231 
Q 1875 4231 1450 3742 
Q 1025 3253 1025 2328 
Q 1025 1406 1450 917 
Q 1875 428 2675 428 
Q 3081 428 3442 575 
Q 3803 722 4122 1019 
L 4122 359 
Q 3791 134 3420 21 
Q 3050 -91 2638 -91 
Q 1578 -91 968 557 
Q 359 1206 359 2328 
Q 359 3453 968 4101 
Q 1578 4750 2638 4750 
Q 3056 4750 3426 4639 
Q 3797 4528 4122 4306 
z
" transform="scale(0.015625)"/>
       <path id="DejaVuSans-49" d="M 628 4666 
L 1259 4666 
L 1259 0 
L 628 0 
L 628 4666 
z
" transform="scale(0.015625)"/>
       <path id="DejaVuSans-5b" d="M 550 4863 
L 1875 4863 
L 1875 4416 
L 1125 4416 
L 1125 -397 
L 1875 -397 
L 1875 -844 
L 550 -844 
L 550 4863 
z
" transform="scale(0.015625)"/>
       <path id="DejaVuSans-37" d="M 525 4666 
L 3525 4666 
L 3525 4397 
L 1831 0 
L 1172 0 
L 2766 4134 
L 525 4134 
L 525 4666 
z
" transform="scale(0.015625)"/>
       <path id="DejaVuSans-2c" d="M 750 794 
L 1409 794 
L 1409 256 
L 897 -744 
L 494 -744 
L 750 256 
L 750 794 
z
" transform="scale(0.015625)"/>
       <path id="DejaVuSans-33" d="M 2597 2516 
Q 3050 2419 3304 2112 
Q 3559 1806 3559 1356 
Q 3559 666 3084 287 
Q 2609 -91 1734 -91 
Q 1441 -91 1130 -33 
Q 819 25 488 141 
L 488 750 
Q 750 597 1062 519 
Q 1375 441 1716 441 
Q 2309 441 2620 675 
Q 2931 909 2931 1356 
Q 2931 1769 2642 2001 
Q 2353 2234 1838 2234 
L 1294 2234 
L 1294 2753 
L 1863 2753 
Q 2328 2753 2575 2939 
Q 2822 3125 2822 3475 
Q 2822 3834 2567 4026 
Q 2313 4219 1838 4219 
Q 1578 4219 1281 4162 
Q 984 4106 628 3988 
L 628 4550 
Q 988 4650 1302 4700 
Q 1616 4750 1894 4750 
Q 2613 4750 3031 4423 
Q 3450 4097 3450 3541 
Q 3450 3153 3228 2886 
Q 3006 2619 2597 2516 
z
" transform="scale(0.015625)"/>
       <path id="DejaVuSans-5d" d="M 1947 4863 
L 1947 -844 
L 622 -844 
L 622 -397 
L 1369 -397 
L 1369 4416 
L 622 4416 
L 622 4863 
L 1947 4863 
z
" transform="scale(0.015625)"/>
      </defs>
      <use xlink:href="#DejaVuSans-39" transform="translate(0 0.015625)"/>
      <use xlink:href="#DejaVuSans-35" transform="translate(63.623047 0.015625)"/>
      <use xlink:href="#DejaVuSans-25" transform="translate(127.246094 0.015625)"/>
      <use xlink:href="#DejaVuSans-20" transform="translate(222.265625 0.015625)"/>
      <use xlink:href="#DejaVuSans-43" transform="translate(254.052734 0.015625)"/>
      <use xlink:href="#DejaVuSans-49" transform="translate(323.876953 0.015625)"/>
      <use xlink:href="#DejaVuSans-3a" transform="translate(353.369141 0.015625)"/>
      <use xlink:href="#DejaVuSans-20" transform="translate(387.060547 0.015625)"/>
      <use xlink:href="#DejaVuSans-5b" transform="translate(418.847656 0.015625)"/>
      <use xlink:href="#DejaVuSans-2212" transform="translate(457.861328 0.015625)"/>
      <use xlink:href="#DejaVuSans-30" transform="translate(541.650391 0.015625)"/>
      <use xlink:href="#DejaVuSans-2e" transform="translate(605.273438 0.015625)"/>
      <use xlink:href="#DejaVuSans-32" transform="translate(631.560547 0.015625)"/>
      <use xlink:href="#DejaVuSans-37" transform="translate(695.183594 0.015625)"/>
      <use xlink:href="#DejaVuSans-30" transform="translate(758.806641 0.015625)"/>
      <use xlink:href="#DejaVuSans-2c" transform="translate(822.429688 0.015625)"/>
      <use xlink:href="#DejaVuSans-30" transform="translate(873.699219 0.015625)"/>
      <use xlink:href="#DejaVuSans-2e" transform="translate(937.322266 0.015625)"/>
      <use xlink:href="#DejaVuSans-32" transform="translate(963.609375 0.015625)"/>
      <use xlink:href="#DejaVuSans-33" transform="translate(1027.232422 0.015625)"/>
      <use xlink:href="#DejaVuSans-37" transform="translate(1090.855469 0.015625)"/>
      <use xlink:href="#DejaVuSans-5d" transform="translate(1154.478516 0.015625)"/>
     </g>
    </g>
    <g id="line2d_12">
     <path d="M 67.16015 255.721637 
L 77.15615 255.721637 
L 87.15215 255.721637 
" style="fill: none; stroke-dasharray: 1.5,2.475; stroke-dashoffset: 0; stroke: #55a868; stroke-opacity: 0.6; stroke-width: 1.5"/>
    </g>
    <g id="text_11">
     <!-- SQL: $1/(\sqrt{N}\,T_H)$ -->
     <g style="fill: #262626" transform="translate(95.14895 259.220237) scale(0.09996 -0.09996)">
      <defs>
       <path id="DejaVuSans-53" d="M 3425 4513 
L 3425 3897 
Q 3066 4069 2747 4153 
Q 2428 4238 2131 4238 
Q 1616 4238 1336 4038 
Q 1056 3838 1056 3469 
Q 1056 3159 1242 3001 
Q 1428 2844 1947 2747 
L 2328 2669 
Q 3034 2534 3370 2195 
Q 3706 1856 3706 1288 
Q 3706 609 3251 259 
Q 2797 -91 1919 -91 
Q 1588 -91 1214 -16 
Q 841 59 441 206 
L 441 856 
Q 825 641 1194 531 
Q 1563 422 1919 422 
Q 2459 422 2753 634 
Q 3047 847 3047 1241 
Q 3047 1584 2836 1778 
Q 2625 1972 2144 2069 
L 1759 2144 
Q 1053 2284 737 2584 
Q 422 2884 422 3419 
Q 422 4038 858 4394 
Q 1294 4750 2059 4750 
Q 2388 4750 2728 4690 
Q 3069 4631 3425 4513 
z
" transform="scale(0.015625)"/>
       <path id="DejaVuSans-51" d="M 2522 4238 
Q 1834 4238 1429 3725 
Q 1025 3213 1025 2328 
Q 1025 1447 1429 934 
Q 1834 422 2522 422 
Q 3209 422 3611 934 
Q 4013 1447 4013 2328 
Q 4013 3213 3611 3725 
Q 3209 4238 2522 4238 
z
M 3406 84 
L 4238 -825 
L 3475 -825 
L 2784 -78 
Q 2681 -84 2626 -87 
Q 2572 -91 2522 -91 
Q 1538 -91 948 567 
Q 359 1225 359 2328 
Q 359 3434 948 4092 
Q 1538 4750 2522 4750 
Q 3503 4750 4090 4092 
Q 4678 3434 4678 2328 
Q 4678 1516 4351 937 
Q 4025 359 3406 84 
z
" transform="scale(0.015625)"/>
       <path id="DejaVuSans-4c" d="M 628 4666 
L 1259 4666 
L 1259 531 
L 3531 531 
L 3531 0 
L 628 0 
L 628 4666 
z
" transform="scale(0.015625)"/>
       <path id="DejaVuSans-2f" d="M 1625 4666 
L 2156 4666 
L 531 -594 
L 0 -594 
L 1625 4666 
z
" transform="scale(0.015625)"/>
       <path id="STIXSizeOneSym-Regular-221a" d="M 6970 9933 
L 3373 -1888 
L 3104 -1888 
L 1626 2918 
Q 1555 3149 1465 3251 
Q 1376 3354 1229 3354 
Q 1011 3354 794 3181 
L 717 3309 
L 1766 4115 
L 1926 4115 
L 3379 -602 
L 3405 -602 
L 6605 9933 
L 6970 9933 
z
" transform="scale(0.015625)"/>
       <path id="DejaVuSans-Oblique-54" d="M 378 4666 
L 4325 4666 
L 4225 4134 
L 2559 4134 
L 1759 0 
L 1125 0 
L 1925 4134 
L 275 4134 
L 378 4666 
z
" transform="scale(0.015625)"/>
       <path id="DejaVuSans-Oblique-48" d="M 1081 4666 
L 1716 4666 
L 1344 2753 
L 3634 2753 
L 4006 4666 
L 4641 4666 
L 3731 0 
L 3097 0 
L 3531 2222 
L 1241 2222 
L 806 0 
L 172 0 
L 1081 4666 
z
" transform="scale(0.015625)"/>
      </defs>
      <use xlink:href="#DejaVuSans-53" transform="translate(0 0.578125)"/>
      <use xlink:href="#DejaVuSans-51" transform="translate(63.476562 0.578125)"/>
      <use xlink:href="#DejaVuSans-4c" transform="translate(142.1875 0.578125)"/>
      <use xlink:href="#DejaVuSans-3a" transform="translate(197.900391 0.578125)"/>
      <use xlink:href="#DejaVuSans-20" transform="translate(231.591797 0.578125)"/>
      <use xlink:href="#DejaVuSans-31" transform="translate(263.378906 0.578125)"/>
      <use xlink:href="#DejaVuSans-2f" transform="translate(327.001953 0.578125)"/>
      <use xlink:href="#DejaVuSans-28" transform="translate(360.693359 0.578125)"/>
      <use xlink:href="#STIXSizeOneSym-Regular-221a" transform="translate(399.707031 17.09375) scale(0.563912)"/>
      <use xlink:href="#DejaVuSans-Oblique-4e" transform="translate(471.795395 0.84375)"/>
      <use xlink:href="#DejaVuSans-Oblique-54" transform="translate(575.335759 0.578125)"/>
      <use xlink:href="#DejaVuSans-Oblique-48" transform="translate(636.419743 -15.828125) scale(0.7)"/>
      <use xlink:href="#DejaVuSans-29" transform="translate(691.790837 0.578125)"/>
      <path d="M 459.295395 97.5 
L 459.295395 103.75 
L 559.100082 103.75 
L 559.100082 97.5 
L 459.295395 97.5 
z
"/>
     </g>
    </g>
    <g id="line2d_13">
     <path d="M 67.16015 270.393891 
L 77.15615 270.393891 
L 87.15215 270.393891 
" style="fill: none; stroke-dasharray: 1.5,2.475; stroke-dashoffset: 0; stroke: #8172b3; stroke-opacity: 0.6; stroke-width: 1.5"/>
    </g>
    <g id="text_12">
     <!-- HL: $1/(N\,T_H)$ -->
     <g style="fill: #262626" transform="translate(95.14895 273.892491) scale(0.09996 -0.09996)">
      <defs>
       <path id="DejaVuSans-48" d="M 628 4666 
L 1259 4666 
L 1259 2753 
L 3553 2753 
L 3553 4666 
L 4184 4666 
L 4184 0 
L 3553 0 
L 3553 2222 
L 1259 2222 
L 1259 0 
L 628 0 
L 628 4666 
z
" transform="scale(0.015625)"/>
      </defs>
      <use xlink:href="#DejaVuSans-48" transform="translate(0 0.125)"/>
      <use xlink:href="#DejaVuSans-4c" transform="translate(75.195312 0.125)"/>
      <use xlink:href="#DejaVuSans-3a" transform="translate(130.908203 0.125)"/>
      <use xlink:href="#DejaVuSans-20" transform="translate(164.599609 0.125)"/>
      <use xlink:href="#DejaVuSans-31" transform="translate(196.386719 0.125)"/>
      <use xlink:href="#DejaVuSans-2f" transform="translate(260.009766 0.125)"/>
      <use xlink:href="#DejaVuSans-28" transform="translate(293.701172 0.125)"/>
      <use xlink:href="#DejaVuSans-Oblique-4e" transform="translate(332.714844 0.125)"/>
      <use xlink:href="#DejaVuSans-Oblique-54" transform="translate(423.755208 0.125)"/>
      <use xlink:href="#DejaVuSans-Oblique-48" transform="translate(484.839192 -16.28125) scale(0.7)"/>
      <use xlink:href="#DejaVuSans-29" transform="translate(540.210286 0.125)"/>
     </g>
    </g>
    <g id="LineCollection_2">
     <path d="M 77.15615 290.064144 
L 77.15615 280.068144 
" style="fill: none; stroke: #4c72b0; stroke-width: 1.5"/>
    </g>
    <g id="line2d_14">
     <g>
      <use xlink:href="#m52c0536e3a" x="77.15615" y="290.064144" style="fill: #4c72b0; stroke: #4c72b0"/>
     </g>
    </g>
    <g id="line2d_15">
     <g>
      <use xlink:href="#m52c0536e3a" x="77.15615" y="280.068144" style="fill: #4c72b0; stroke: #4c72b0"/>
     </g>
    </g>
    <g id="line2d_16"/>
    <g id="line2d_17">
     <g>
      <use xlink:href="#ma22e9fd000" x="77.15615" y="285.066144" style="fill: #4c72b0; stroke: #4c72b0"/>
     </g>
    </g>
    <g id="text_13">
     <!-- $\Delta\theta$ (mean $\pm$ std) -->
     <g style="fill: #262626" transform="translate(95.14895 288.564744) scale(0.09996 -0.09996)">
      <defs>
       <path id="DejaVuSans-b1" d="M 2944 4013 
L 2944 2803 
L 4684 2803 
L 4684 2272 
L 2944 2272 
L 2944 1063 
L 2419 1063 
L 2419 2272 
L 678 2272 
L 678 2803 
L 2419 2803 
L 2419 4013 
L 2944 4013 
z
M 678 531 
L 4684 531 
L 4684 0 
L 678 0 
L 678 531 
z
" transform="scale(0.015625)"/>
       <path id="DejaVuSans-64" d="M 2906 2969 
L 2906 4863 
L 3481 4863 
L 3481 0 
L 2906 0 
L 2906 525 
Q 2725 213 2448 61 
Q 2172 -91 1784 -91 
Q 1150 -91 751 415 
Q 353 922 353 1747 
Q 353 2572 751 3078 
Q 1150 3584 1784 3584 
Q 2172 3584 2448 3432 
Q 2725 3281 2906 2969 
z
M 947 1747 
Q 947 1113 1208 752 
Q 1469 391 1925 391 
Q 2381 391 2643 752 
Q 2906 1113 2906 1747 
Q 2906 2381 2643 2742 
Q 2381 3103 1925 3103 
Q 1469 3103 1208 2742 
Q 947 2381 947 1747 
z
" transform="scale(0.015625)"/>
      </defs>
      <use xlink:href="#DejaVuSans-394" transform="translate(0 0.234375)"/>
      <use xlink:href="#DejaVuSans-Oblique-3b8" transform="translate(68.408203 0.234375)"/>
      <use xlink:href="#DejaVuSans-20" transform="translate(129.589844 0.234375)"/>
      <use xlink:href="#DejaVuSans-28" transform="translate(161.376953 0.234375)"/>
      <use xlink:href="#DejaVuSans-6d" transform="translate(200.390625 0.234375)"/>
      <use xlink:href="#DejaVuSans-65" transform="translate(297.802734 0.234375)"/>
      <use xlink:href="#DejaVuSans-61" transform="translate(359.326172 0.234375)"/>
      <use xlink:href="#DejaVuSans-6e" transform="translate(420.605469 0.234375)"/>
      <use xlink:href="#DejaVuSans-20" transform="translate(483.984375 0.234375)"/>
      <use xlink:href="#DejaVuSans-b1" transform="translate(515.771484 0.234375)"/>
      <use xlink:href="#DejaVuSans-20" transform="translate(599.560547 0.234375)"/>
      <use xlink:href="#DejaVuSans-73" transform="translate(631.347656 0.234375)"/>
      <use xlink:href="#DejaVuSans-74" transform="translate(683.447266 0.234375)"/>
      <use xlink:href="#DejaVuSans-64" transform="translate(722.65625 0.234375)"/>
      <use xlink:href="#DejaVuSans-29" transform="translate(786.132812 0.234375)"/>
     </g>
    </g>
   </g>
  </g>
 </g>
 <defs>
  <clipPath id="p13a3b4631c">
   <rect x="58.16375" y="22.44" width="390.6" height="277.2"/>
  </clipPath>
 </defs>
</svg>
