<?xml version="1.0" encoding="utf-8" standalone="no"?>
<!DOCTYPE svg PUBLIC "-//W3C//DTD SVG 1.1//EN"
  "http://www.w3.org/Graphics/SVG/1.1/DTD/svg11.dtd">
<svg xmlns:xlink="http://www.w3.org/1999/xlink" width="854.278071pt" height="562.58425pt" viewBox="0 0 854.278071 562.58425" xmlns="http://www.w3.org/2000/svg" version="1.1">
 <metadata>
  <rdf:RDF xmlns:dc="http://purl.org/dc/elements/1.1/" xmlns:cc="http://creativecommons.org/ns#" xmlns:rdf="http://www.w3.org/1999/02/22-rdf-syntax-ns#">
   <cc:Work>
    <dc:type rdf:resource="http://purl.org/dc/dcmitype/StillImage"/>
    <dc:date>2026-06-15T12:07:01.360164</dc:date>
    <dc:format>image/svg+xml</dc:format>
    <dc:creator>
     <cc:Agent>
      <dc:title>Matplotlib v3.10.9, https://matplotlib.org/</dc:title>
     </cc:Agent>
    </dc:creator>
   </cc:Work>
  </rdf:RDF>
 </metadata>
 <defs>
  <style type="text/css">*{stroke-linejoin: round; stroke-linecap: butt}</style>
 </defs>
 <g id="figure_1">
  <g id="patch_1">
   <path d="M 0 562.58425 
L 854.278071 562.58425 
L 854.278071 0 
L 0 0 
z
" style="fill: #ffffff"/>
  </g>
  <g id="axes_1">
   <g id="patch_2">
    <path d="M 51.378125 525.028 
L 296.53944 525.028 
L 296.53944 25.2 
L 51.378125 25.2 
z
" style="fill: #ffffff"/>
   </g>
   <g id="matplotlib.axis_1">
    <g id="xtick_1">
     <g id="line2d_1">
      <defs>
       <path id="m3c7d74077b" d="M 0 0 
L 0 3.5 
" style="stroke: #000000; stroke-width: 0.8"/>
      </defs>
      <g>
       <use xlink:href="#m3c7d74077b" x="95.646856" y="525.028" style="stroke: #000000; stroke-width: 0.8"/>
      </g>
     </g>
     <g id="text_1">
      <!-- $\mathdefault{10^{0}}$ -->
      <g transform="translate(86.846856 539.626437) scale(0.1 -0.1)">
       <defs>
        <path id="DejaVuSans-31" d="M 794 531 
L 1825 531 
L 1825 4091 
L 703 3866 
L 703 4441 
L 1819 4666 
L 2450 4666 
L 2450 531 
L 3481 531 
L 3481 0 
L 794 0 
L 794 531 
z
" transform="scale(0.015625)"/>
        <path id="DejaVuSans-30" d="M 2034 4250 
Q 1547 4250 1301 3770 
Q 1056 3291 1056 2328 
Q 1056 1369 1301 889 
Q 1547 409 2034 409 
Q 2525 409 2770 889 
Q 3016 1369 3016 2328 
Q 3016 3291 2770 3770 
Q 2525 4250 2034 4250 
z
M 2034 4750 
Q 2819 4750 3233 4129 
Q 3647 3509 3647 2328 
Q 3647 1150 3233 529 
Q 2819 -91 2034 -91 
Q 1250 -91 836 529 
Q 422 1150 422 2328 
Q 422 3509 836 4129 
Q 1250 4750 2034 4750 
z
" transform="scale(0.015625)"/>
       </defs>
       <use xlink:href="#DejaVuSans-31" transform="translate(0 0.765625)"/>
       <use xlink:href="#DejaVuSans-30" transform="translate(63.623047 0.765625)"/>
       <use xlink:href="#DejaVuSans-30" transform="translate(128.203125 39.046875) scale(0.7)"/>
      </g>
     </g>
    </g>
    <g id="xtick_2">
     <g id="line2d_2">
      <g>
       <use xlink:href="#m3c7d74077b" x="242.704396" y="525.028" style="stroke: #000000; stroke-width: 0.8"/>
      </g>
     </g>
     <g id="text_2">
      <!-- $\mathdefault{10^{1}}$ -->
      <g transform="translate(233.904396 539.626437) scale(0.1 -0.1)">
       <use xlink:href="#DejaVuSans-31" transform="translate(0 0.684375)"/>
       <use xlink:href="#DejaVuSans-30" transform="translate(63.623047 0.684375)"/>
       <use xlink:href="#DejaVuSans-31" transform="translate(128.203125 38.965625) scale(0.7)"/>
      </g>
     </g>
    </g>
    <g id="xtick_3">
     <g id="line2d_3">
      <defs>
       <path id="m94f2bdf10f" d="M 0 0 
L 0 2 
" style="stroke: #000000; stroke-width: 0.6"/>
      </defs>
      <g>
       <use xlink:href="#m94f2bdf10f" x="51.378125" y="525.028" style="stroke: #000000; stroke-width: 0.6"/>
      </g>
     </g>
    </g>
    <g id="xtick_4">
     <g id="line2d_4">
      <g>
       <use xlink:href="#m94f2bdf10f" x="63.022324" y="525.028" style="stroke: #000000; stroke-width: 0.6"/>
      </g>
     </g>
    </g>
    <g id="xtick_5">
     <g id="line2d_5">
      <g>
       <use xlink:href="#m94f2bdf10f" x="72.867355" y="525.028" style="stroke: #000000; stroke-width: 0.6"/>
      </g>
     </g>
    </g>
    <g id="xtick_6">
     <g id="line2d_6">
      <g>
       <use xlink:href="#m94f2bdf10f" x="81.395508" y="525.028" style="stroke: #000000; stroke-width: 0.6"/>
      </g>
     </g>
    </g>
    <g id="xtick_7">
     <g id="line2d_7">
      <g>
       <use xlink:href="#m94f2bdf10f" x="88.917872" y="525.028" style="stroke: #000000; stroke-width: 0.6"/>
      </g>
     </g>
    </g>
    <g id="xtick_8">
     <g id="line2d_8">
      <g>
       <use xlink:href="#m94f2bdf10f" x="139.915586" y="525.028" style="stroke: #000000; stroke-width: 0.6"/>
      </g>
     </g>
    </g>
    <g id="xtick_9">
     <g id="line2d_9">
      <g>
       <use xlink:href="#m94f2bdf10f" x="165.811134" y="525.028" style="stroke: #000000; stroke-width: 0.6"/>
      </g>
     </g>
    </g>
    <g id="xtick_10">
     <g id="line2d_10">
      <g>
       <use xlink:href="#m94f2bdf10f" x="184.184317" y="525.028" style="stroke: #000000; stroke-width: 0.6"/>
      </g>
     </g>
    </g>
    <g id="xtick_11">
     <g id="line2d_11">
      <g>
       <use xlink:href="#m94f2bdf10f" x="198.435665" y="525.028" style="stroke: #000000; stroke-width: 0.6"/>
      </g>
     </g>
    </g>
    <g id="xtick_12">
     <g id="line2d_12">
      <g>
       <use xlink:href="#m94f2bdf10f" x="210.079865" y="525.028" style="stroke: #000000; stroke-width: 0.6"/>
      </g>
     </g>
    </g>
    <g id="xtick_13">
     <g id="line2d_13">
      <g>
       <use xlink:href="#m94f2bdf10f" x="219.924895" y="525.028" style="stroke: #000000; stroke-width: 0.6"/>
      </g>
     </g>
    </g>
    <g id="xtick_14">
     <g id="line2d_14">
      <g>
       <use xlink:href="#m94f2bdf10f" x="228.453048" y="525.028" style="stroke: #000000; stroke-width: 0.6"/>
      </g>
     </g>
    </g>
    <g id="xtick_15">
     <g id="line2d_15">
      <g>
       <use xlink:href="#m94f2bdf10f" x="235.975412" y="525.028" style="stroke: #000000; stroke-width: 0.6"/>
      </g>
     </g>
    </g>
    <g id="xtick_16">
     <g id="line2d_16">
      <g>
       <use xlink:href="#m94f2bdf10f" x="286.973127" y="525.028" style="stroke: #000000; stroke-width: 0.6"/>
      </g>
     </g>
    </g>
    <g id="text_3">
     <!-- $N$ -->
     <g transform="translate(170.208783 553.304562) scale(0.1 -0.1)">
      <defs>
       <path id="DejaVuSans-Oblique-4e" d="M 1081 4666 
L 1931 4666 
L 3219 666 
L 4000 4666 
L 4616 4666 
L 3706 0 
L 2853 0 
L 1569 4025 
L 788 0 
L 172 0 
L 1081 4666 
z
" transform="scale(0.015625)"/>
      </defs>
      <use xlink:href="#DejaVuSans-Oblique-4e" transform="translate(0 0.09375)"/>
     </g>
    </g>
   </g>
   <g id="matplotlib.axis_2">
    <g id="ytick_1">
     <g id="line2d_17">
      <defs>
       <path id="mbfdc482ba6" d="M 0 0 
L -3.5 0 
" style="stroke: #000000; stroke-width: 0.8"/>
      </defs>
      <g>
       <use xlink:href="#mbfdc482ba6" x="51.378125" y="445.679256" style="stroke: #000000; stroke-width: 0.8"/>
      </g>
     </g>
     <g id="text_4">
      <!-- $\mathdefault{10^{-2}}$ -->
      <g transform="translate(20.878125 449.478475) scale(0.1 -0.1)">
       <defs>
        <path id="DejaVuSans-2212" d="M 678 2272 
L 4684 2272 
L 4684 1741 
L 678 1741 
L 678 2272 
z
" transform="scale(0.015625)"/>
        <path id="DejaVuSans-32" d="M 1228 531 
L 3431 531 
L 3431 0 
L 469 0 
L 469 531 
Q 828 903 1448 1529 
Q 2069 2156 2228 2338 
Q 2531 2678 2651 2914 
Q 2772 3150 2772 3378 
Q 2772 3750 2511 3984 
Q 2250 4219 1831 4219 
Q 1534 4219 1204 4116 
Q 875 4013 500 3803 
L 500 4441 
Q 881 4594 1212 4672 
Q 1544 4750 1819 4750 
Q 2544 4750 2975 4387 
Q 3406 4025 3406 3419 
Q 3406 3131 3298 2873 
Q 3191 2616 2906 2266 
Q 2828 2175 2409 1742 
Q 1991 1309 1228 531 
z
" transform="scale(0.015625)"/>
       </defs>
       <use xlink:href="#DejaVuSans-31" transform="translate(0 0.765625)"/>
       <use xlink:href="#DejaVuSans-30" transform="translate(63.623047 0.765625)"/>
       <use xlink:href="#DejaVuSans-2212" transform="translate(128.203125 39.046875) scale(0.7)"/>
       <use xlink:href="#DejaVuSans-32" transform="translate(186.855469 39.046875) scale(0.7)"/>
      </g>
     </g>
    </g>
    <g id="ytick_2">
     <g id="line2d_18">
      <g>
       <use xlink:href="#mbfdc482ba6" x="51.378125" y="257.56083" style="stroke: #000000; stroke-width: 0.8"/>
      </g>
     </g>
     <g id="text_5">
      <!-- $\mathdefault{10^{-1}}$ -->
      <g transform="translate(20.878125 261.360049) scale(0.1 -0.1)">
       <use xlink:href="#DejaVuSans-31" transform="translate(0 0.684375)"/>
       <use xlink:href="#DejaVuSans-30" transform="translate(63.623047 0.684375)"/>
       <use xlink:href="#DejaVuSans-2212" transform="translate(128.203125 38.965625) scale(0.7)"/>
       <use xlink:href="#DejaVuSans-31" transform="translate(186.855469 38.965625) scale(0.7)"/>
      </g>
     </g>
    </g>
    <g id="ytick_3">
     <g id="line2d_19">
      <g>
       <use xlink:href="#mbfdc482ba6" x="51.378125" y="69.442404" style="stroke: #000000; stroke-width: 0.8"/>
      </g>
     </g>
     <g id="text_6">
      <!-- $\mathdefault{10^{0}}$ -->
      <g transform="translate(26.778125 73.241622) scale(0.1 -0.1)">
       <use xlink:href="#DejaVuSans-31" transform="translate(0 0.765625)"/>
       <use xlink:href="#DejaVuSans-30" transform="translate(63.623047 0.765625)"/>
       <use xlink:href="#DejaVuSans-30" transform="translate(128.203125 39.046875) scale(0.7)"/>
      </g>
     </g>
    </g>
    <g id="ytick_4">
     <g id="line2d_20">
      <defs>
       <path id="mdf67a6f95a" d="M 0 0 
L -2 0 
" style="stroke: #000000; stroke-width: 0.6"/>
      </defs>
      <g>
       <use xlink:href="#mdf67a6f95a" x="51.378125" y="520.539105" style="stroke: #000000; stroke-width: 0.6"/>
      </g>
     </g>
    </g>
    <g id="ytick_5">
     <g id="line2d_21">
      <g>
       <use xlink:href="#mdf67a6f95a" x="51.378125" y="502.308545" style="stroke: #000000; stroke-width: 0.6"/>
      </g>
     </g>
    </g>
    <g id="ytick_6">
     <g id="line2d_22">
      <g>
       <use xlink:href="#mdf67a6f95a" x="51.378125" y="487.413094" style="stroke: #000000; stroke-width: 0.6"/>
      </g>
     </g>
    </g>
    <g id="ytick_7">
     <g id="line2d_23">
      <g>
       <use xlink:href="#mdf67a6f95a" x="51.378125" y="474.819169" style="stroke: #000000; stroke-width: 0.6"/>
      </g>
     </g>
    </g>
    <g id="ytick_8">
     <g id="line2d_24">
      <g>
       <use xlink:href="#mdf67a6f95a" x="51.378125" y="463.909816" style="stroke: #000000; stroke-width: 0.6"/>
      </g>
     </g>
    </g>
    <g id="ytick_9">
     <g id="line2d_25">
      <g>
       <use xlink:href="#mdf67a6f95a" x="51.378125" y="454.287083" style="stroke: #000000; stroke-width: 0.6"/>
      </g>
     </g>
    </g>
    <g id="ytick_10">
     <g id="line2d_26">
      <g>
       <use xlink:href="#mdf67a6f95a" x="51.378125" y="389.049967" style="stroke: #000000; stroke-width: 0.6"/>
      </g>
     </g>
    </g>
    <g id="ytick_11">
     <g id="line2d_27">
      <g>
       <use xlink:href="#mdf67a6f95a" x="51.378125" y="355.923957" style="stroke: #000000; stroke-width: 0.6"/>
      </g>
     </g>
    </g>
    <g id="ytick_12">
     <g id="line2d_28">
      <g>
       <use xlink:href="#mdf67a6f95a" x="51.378125" y="332.420678" style="stroke: #000000; stroke-width: 0.6"/>
      </g>
     </g>
    </g>
    <g id="ytick_13">
     <g id="line2d_29">
      <g>
       <use xlink:href="#mdf67a6f95a" x="51.378125" y="314.190119" style="stroke: #000000; stroke-width: 0.6"/>
      </g>
     </g>
    </g>
    <g id="ytick_14">
     <g id="line2d_30">
      <g>
       <use xlink:href="#mdf67a6f95a" x="51.378125" y="299.294668" style="stroke: #000000; stroke-width: 0.6"/>
      </g>
     </g>
    </g>
    <g id="ytick_15">
     <g id="line2d_31">
      <g>
       <use xlink:href="#mdf67a6f95a" x="51.378125" y="286.700743" style="stroke: #000000; stroke-width: 0.6"/>
      </g>
     </g>
    </g>
    <g id="ytick_16">
     <g id="line2d_32">
      <g>
       <use xlink:href="#mdf67a6f95a" x="51.378125" y="275.791389" style="stroke: #000000; stroke-width: 0.6"/>
      </g>
     </g>
    </g>
    <g id="ytick_17">
     <g id="line2d_33">
      <g>
       <use xlink:href="#mdf67a6f95a" x="51.378125" y="266.168657" style="stroke: #000000; stroke-width: 0.6"/>
      </g>
     </g>
    </g>
    <g id="ytick_18">
     <g id="line2d_34">
      <g>
       <use xlink:href="#mdf67a6f95a" x="51.378125" y="200.931541" style="stroke: #000000; stroke-width: 0.6"/>
      </g>
     </g>
    </g>
    <g id="ytick_19">
     <g id="line2d_35">
      <g>
       <use xlink:href="#mdf67a6f95a" x="51.378125" y="167.80553" style="stroke: #000000; stroke-width: 0.6"/>
      </g>
     </g>
    </g>
    <g id="ytick_20">
     <g id="line2d_36">
      <g>
       <use xlink:href="#mdf67a6f95a" x="51.378125" y="144.302252" style="stroke: #000000; stroke-width: 0.6"/>
      </g>
     </g>
    </g>
    <g id="ytick_21">
     <g id="line2d_37">
      <g>
       <use xlink:href="#mdf67a6f95a" x="51.378125" y="126.071693" style="stroke: #000000; stroke-width: 0.6"/>
      </g>
     </g>
    </g>
    <g id="ytick_22">
     <g id="line2d_38">
      <g>
       <use xlink:href="#mdf67a6f95a" x="51.378125" y="111.176241" style="stroke: #000000; stroke-width: 0.6"/>
      </g>
     </g>
    </g>
    <g id="ytick_23">
     <g id="line2d_39">
      <g>
       <use xlink:href="#mdf67a6f95a" x="51.378125" y="98.582317" style="stroke: #000000; stroke-width: 0.6"/>
      </g>
     </g>
    </g>
    <g id="ytick_24">
     <g id="line2d_40">
      <g>
       <use xlink:href="#mdf67a6f95a" x="51.378125" y="87.672963" style="stroke: #000000; stroke-width: 0.6"/>
      </g>
     </g>
    </g>
    <g id="ytick_25">
     <g id="line2d_41">
      <g>
       <use xlink:href="#mdf67a6f95a" x="51.378125" y="78.050231" style="stroke: #000000; stroke-width: 0.6"/>
      </g>
     </g>
    </g>
    <g id="text_7">
     <!-- $\Delta\omega_{\mathrm{lin}}$ -->
     <g transform="translate(14.798438 287.064) rotate(-90) scale(0.1 -0.1)">
      <defs>
       <path id="DejaVuSans-394" d="M 2188 4044 
L 906 525 
L 3472 525 
L 2188 4044 
z
M 50 0 
L 1831 4666 
L 2547 4666 
L 4325 0 
L 50 0 
z
" transform="scale(0.015625)"/>
       <path id="DejaVuSans-Oblique-3c9" d="M 1369 -91 
Q 72 -91 434 1766 
Q 575 2500 1256 3500 
L 1875 3500 
Q 1231 2500 1088 1750 
Q 819 397 1519 397 
Q 2166 397 2478 2078 
L 3009 2078 
Q 2669 388 3316 397 
Q 4013 403 4275 1750 
Q 4419 2500 4169 3500 
L 4788 3500 
Q 5075 2500 4934 1766 
Q 4578 -94 3278 -91 
Q 2428 -88 2503 844 
Q 2194 -91 1369 -91 
z
" transform="scale(0.015625)"/>
       <path id="DejaVuSans-6c" d="M 603 4863 
L 1178 4863 
L 1178 0 
L 603 0 
L 603 4863 
z
" transform="scale(0.015625)"/>
       <path id="DejaVuSans-69" d="M 603 3500 
L 1178 3500 
L 1178 0 
L 603 0 
L 603 3500 
z
M 603 4863 
L 1178 4863 
L 1178 4134 
L 603 4134 
L 603 4863 
z
" transform="scale(0.015625)"/>
       <path id="DejaVuSans-6e" d="M 3513 2113 
L 3513 0 
L 2938 0 
L 2938 2094 
Q 2938 2591 2744 2837 
Q 2550 3084 2163 3084 
Q 1697 3084 1428 2787 
Q 1159 2491 1159 1978 
L 1159 0 
L 581 0 
L 581 3500 
L 1159 3500 
L 1159 2956 
Q 1366 3272 1645 3428 
Q 1925 3584 2291 3584 
Q 2894 3584 3203 3211 
Q 3513 2838 3513 2113 
z
" transform="scale(0.015625)"/>
      </defs>
      <use xlink:href="#DejaVuSans-394" transform="translate(0 0.09375)"/>
      <use xlink:href="#DejaVuSans-Oblique-3c9" transform="translate(68.408203 0.09375)"/>
      <use xlink:href="#DejaVuSans-6c" transform="translate(152.148438 -16.3125) scale(0.7)"/>
      <use xlink:href="#DejaVuSans-69" transform="translate(171.59668 -16.3125) scale(0.7)"/>
      <use xlink:href="#DejaVuSans-6e" transform="translate(191.044922 -16.3125) scale(0.7)"/>
     </g>
    </g>
   </g>
   <g id="line2d_42">
    <path d="M 139.915586 313.694007 
L 184.184317 65.087176 
L 210.079865 47.919455 
L 228.453048 103.948178 
L 242.704396 136.718449 
" clip-path="url(#pca96677850)" style="fill: none; stroke: #414487; stroke-width: 1.2; stroke-linecap: square"/>
    <defs>
     <path id="m6a7e6a9944" d="M 0 2.5 
C 0.663008 2.5 1.29895 2.236584 1.767767 1.767767 
C 2.236584 1.29895 2.5 0.663008 2.5 0 
C 2.5 -0.663008 2.236584 -1.29895 1.767767 -1.767767 
C 1.29895 -2.236584 0.663008 -2.5 0 -2.5 
C -0.663008 -2.5 -1.29895 -2.236584 -1.767767 -1.767767 
C -2.236584 -1.29895 -2.5 -0.663008 -2.5 0 
C -2.5 0.663008 -2.236584 1.29895 -1.767767 1.767767 
C -1.29895 2.236584 -0.663008 2.5 0 2.5 
z
" style="stroke: #414487"/>
    </defs>
    <g clip-path="url(#pca96677850)">
     <use xlink:href="#m6a7e6a9944" x="139.915586" y="313.694007" style="fill: #414487; stroke: #414487"/>
     <use xlink:href="#m6a7e6a9944" x="184.184317" y="65.087176" style="fill: #414487; stroke: #414487"/>
     <use xlink:href="#m6a7e6a9944" x="210.079865" y="47.919455" style="fill: #414487; stroke: #414487"/>
     <use xlink:href="#m6a7e6a9944" x="228.453048" y="103.948178" style="fill: #414487; stroke: #414487"/>
     <use xlink:href="#m6a7e6a9944" x="242.704396" y="136.718449" style="fill: #414487; stroke: #414487"/>
    </g>
   </g>
   <g id="line2d_43">
    <path d="M 139.915586 341.734179 
L 184.184317 267.244896 
L 210.079865 254.877257 
L 228.453048 241.047433 
L 242.704396 164.18174 
" clip-path="url(#pca96677850)" style="fill: none; stroke: #bddf26; stroke-width: 1.2; stroke-linecap: square"/>
    <defs>
     <path id="mc600b7a9d7" d="M 0 2.5 
C 0.663008 2.5 1.29895 2.236584 1.767767 1.767767 
C 2.236584 1.29895 2.5 0.663008 2.5 0 
C 2.5 -0.663008 2.236584 -1.29895 1.767767 -1.767767 
C 1.29895 -2.236584 0.663008 -2.5 0 -2.5 
C -0.663008 -2.5 -1.29895 -2.236584 -1.767767 -1.767767 
C -2.236584 -1.29895 -2.5 -0.663008 -2.5 0 
C -2.5 0.663008 -2.236584 1.29895 -1.767767 1.767767 
C -1.29895 2.236584 -0.663008 2.5 0 2.5 
z
" style="stroke: #bddf26"/>
    </defs>
    <g clip-path="url(#pca96677850)">
     <use xlink:href="#mc600b7a9d7" x="139.915586" y="341.734179" style="fill: #bddf26; stroke: #bddf26"/>
     <use xlink:href="#mc600b7a9d7" x="184.184317" y="267.244896" style="fill: #bddf26; stroke: #bddf26"/>
     <use xlink:href="#mc600b7a9d7" x="210.079865" y="254.877257" style="fill: #bddf26; stroke: #bddf26"/>
     <use xlink:href="#mc600b7a9d7" x="228.453048" y="241.047433" style="fill: #bddf26; stroke: #bddf26"/>
     <use xlink:href="#mc600b7a9d7" x="242.704396" y="164.18174" style="fill: #bddf26; stroke: #bddf26"/>
    </g>
   </g>
   <g id="line2d_44">
    <path d="M 95.646856 257.56083 
L 106.859524 264.732545 
L 116.394524 270.831209 
L 124.689162 276.136528 
L 132.029311 280.831348 
L 138.612148 285.041784 
L 144.57943 288.858507 
L 150.036497 292.348892 
L 155.063768 295.564376 
L 159.724027 298.545116 
L 164.067236 301.323069 
L 168.1338 303.924076 
L 171.95686 306.369337 
L 175.563938 308.676454 
L 178.978139 310.860205 
L 182.219046 312.933115 
L 185.303405 314.905897 
L 188.245644 316.787777 
L 191.058287 318.586767 
L 193.75227 320.30986 
L 196.3372 321.963203 
L 198.821565 323.552224 
L 201.212898 325.081739 
L 203.517914 326.556047 
L 205.742629 327.978993 
L 207.89245 329.354036 
L 209.972255 330.684296 
L 211.986462 331.9726 
L 213.939083 333.221512 
L 215.833772 334.433371 
L 217.673868 335.610311 
L 219.462429 336.75429 
L 221.202263 337.867102 
L 222.895955 338.950401 
L 224.54589 340.005713 
L 226.15427 341.034447 
L 227.72314 342.037908 
L 229.254392 343.01731 
L 230.749789 343.973778 
L 232.210972 344.908363 
L 233.639471 345.822042 
L 235.036716 346.715732 
L 236.404046 347.590288 
L 237.742716 348.446512 
L 239.053901 349.285156 
L 240.338708 350.10693 
L 241.598177 350.912496 
L 242.833289 351.702484 
L 244.044967 352.477483 
L 245.234084 353.238053 
L 246.401466 353.984719 
L 247.547892 354.717983 
L 248.674101 355.438316 
L 249.780795 356.146166 
L 250.868638 356.841959 
L 251.938261 357.526099 
L 252.990265 358.19897 
L 254.025221 358.860936 
L 255.043673 359.512346 
L 256.046138 360.153531 
L 257.033111 360.784807 
L 258.005064 361.406476 
L 258.962446 362.018826 
L 259.905688 362.622131 
L 260.835202 363.216656 
L 261.751382 363.802652 
L 262.654605 364.380361 
L 263.545231 364.950013 
L 264.423609 365.51183 
L 265.290069 366.066026 
L 266.144932 366.612803 
L 266.988503 367.152358 
L 267.821077 367.684879 
L 268.642937 368.210547 
L 269.454355 368.729537 
L 270.255593 369.242015 
L 271.046903 369.748144 
L 271.828529 370.248079 
L 272.600705 370.741969 
L 273.363656 371.229958 
L 274.117601 371.712187 
L 274.862748 372.18879 
L 275.599302 372.659896 
L 276.327459 373.125631 
L 277.047406 373.586115 
L 277.759329 374.041467 
L 278.463403 374.491798 
L 279.1598 374.937219 
L 279.848685 375.377836 
L 280.530218 375.81375 
L 281.204556 376.245062 
L 281.871848 376.671868 
L 282.53224 377.09426 
L 283.185873 377.512329 
L 283.832884 377.926163 
L 284.473407 378.335846 
L 285.107569 378.741461 
L 285.735496 379.143089 
L 286.357309 379.540806 
L 286.973127 379.934688 
" clip-path="url(#pca96677850)" style="fill: none; stroke-dasharray: 4.44,1.92; stroke-dashoffset: 0; stroke: #000000; stroke-opacity: 0.7; stroke-width: 1.2"/>
   </g>
   <g id="line2d_45">
    <path d="M 95.646856 257.56083 
L 106.859524 271.90426 
L 116.394524 284.101588 
L 124.689162 294.712226 
L 132.029311 304.101866 
L 138.612148 312.522739 
L 144.57943 320.156185 
L 150.036497 327.136955 
L 155.063768 333.567922 
L 159.724027 339.529403 
L 164.067236 345.085307 
L 168.1338 350.287322 
L 171.95686 355.177844 
L 175.563938 359.792078 
L 178.978139 364.159579 
L 182.219046 368.305401 
L 185.303405 372.250963 
L 188.245644 376.014725 
L 191.058287 379.612704 
L 193.75227 383.058891 
L 196.3372 386.365577 
L 198.821565 389.543617 
L 201.212898 392.602649 
L 203.517914 395.551263 
L 205.742629 398.397155 
L 207.89245 401.147241 
L 209.972255 403.807763 
L 211.986462 406.38437 
L 213.939083 408.882194 
L 215.833772 411.305912 
L 217.673868 413.659793 
L 219.462429 415.947749 
L 221.202263 418.173374 
L 222.895955 420.339973 
L 224.54589 422.450596 
L 226.15427 424.508063 
L 227.72314 426.514987 
L 229.254392 428.47379 
L 230.749789 430.386726 
L 232.210972 432.255895 
L 233.639471 434.083255 
L 235.036716 435.870634 
L 236.404046 437.619745 
L 237.742716 439.332193 
L 239.053901 441.009483 
L 240.338708 442.653029 
L 241.598177 444.264163 
L 242.833289 445.844138 
L 244.044967 447.394137 
L 245.234084 448.915275 
L 246.401466 450.408609 
L 247.547892 451.875136 
L 248.674101 453.315802 
L 249.780795 454.731502 
L 250.868638 456.123089 
L 251.938261 457.491368 
L 252.990265 458.837109 
L 254.025221 460.161042 
L 255.043673 461.463862 
L 256.046138 462.746232 
L 257.033111 464.008784 
L 258.005064 465.252122 
L 258.962446 466.476821 
L 259.905688 467.683432 
L 260.835202 468.872482 
L 261.751382 470.044474 
L 262.654605 471.199892 
L 263.545231 472.339196 
L 264.423609 473.462831 
L 265.290069 474.571221 
L 266.144932 475.664776 
L 266.988503 476.743886 
L 267.821077 477.808928 
L 268.642937 478.860264 
L 269.454355 479.898244 
L 270.255593 480.923201 
L 271.046903 481.935458 
L 271.828529 482.935327 
L 272.600705 483.923107 
L 273.363656 484.899087 
L 274.117601 485.863545 
L 274.862748 486.81675 
L 275.599302 487.758962 
L 276.327459 488.690431 
L 277.047406 489.611401 
L 277.759329 490.522103 
L 278.463403 491.422767 
L 279.1598 492.313609 
L 279.848685 493.194842 
L 280.530218 494.066671 
L 281.204556 494.929295 
L 281.871848 495.782906 
L 282.53224 496.62769 
L 283.185873 497.463828 
L 283.832884 498.291495 
L 284.473407 499.110862 
L 285.107569 499.922093 
L 285.735496 500.725347 
L 286.357309 501.520781 
L 286.973127 502.308545 
" clip-path="url(#pca96677850)" style="fill: none; stroke-dasharray: 1,1.65; stroke-dashoffset: 0; stroke: #000000; stroke-opacity: 0.5"/>
   </g>
   <g id="patch_3">
    <path d="M 51.378125 525.028 
L 51.378125 25.2 
" style="fill: none; stroke: #000000; stroke-width: 0.8; stroke-linejoin: miter; stroke-linecap: square"/>
   </g>
   <g id="patch_4">
    <path d="M 296.53944 525.028 
L 296.53944 25.2 
" style="fill: none; stroke: #000000; stroke-width: 0.8; stroke-linejoin: miter; stroke-linecap: square"/>
   </g>
   <g id="patch_5">
    <path d="M 51.378125 525.028 
L 296.53944 525.028 
" style="fill: none; stroke: #000000; stroke-width: 0.8; stroke-linejoin: miter; stroke-linecap: square"/>
   </g>
   <g id="patch_6">
    <path d="M 51.378125 25.2 
L 296.53944 25.2 
" style="fill: none; stroke: #000000; stroke-width: 0.8; stroke-linejoin: miter; stroke-linecap: square"/>
   </g>
   <g id="text_8">
    <!-- Linear $J_z^S$ -->
    <g transform="translate(148.338783 19.2) scale(0.12 -0.12)">
     <defs>
      <path id="DejaVuSans-4c" d="M 628 4666 
L 1259 4666 
L 1259 531 
L 3531 531 
L 3531 0 
L 628 0 
L 628 4666 
z
" transform="scale(0.015625)"/>
      <path id="DejaVuSans-65" d="M 3597 1894 
L 3597 1613 
L 953 1613 
Q 991 1019 1311 708 
Q 1631 397 2203 397 
Q 2534 397 2845 478 
Q 3156 559 3463 722 
L 3463 178 
Q 3153 47 2828 -22 
Q 2503 -91 2169 -91 
Q 1331 -91 842 396 
Q 353 884 353 1716 
Q 353 2575 817 3079 
Q 1281 3584 2069 3584 
Q 2775 3584 3186 3129 
Q 3597 2675 3597 1894 
z
M 3022 2063 
Q 3016 2534 2758 2815 
Q 2500 3097 2075 3097 
Q 1594 3097 1305 2825 
Q 1016 2553 972 2059 
L 3022 2063 
z
" transform="scale(0.015625)"/>
      <path id="DejaVuSans-61" d="M 2194 1759 
Q 1497 1759 1228 1600 
Q 959 1441 959 1056 
Q 959 750 1161 570 
Q 1363 391 1709 391 
Q 2188 391 2477 730 
Q 2766 1069 2766 1631 
L 2766 1759 
L 2194 1759 
z
M 3341 1997 
L 3341 0 
L 2766 0 
L 2766 531 
Q 2569 213 2275 61 
Q 1981 -91 1556 -91 
Q 1019 -91 701 211 
Q 384 513 384 1019 
Q 384 1609 779 1909 
Q 1175 2209 1959 2209 
L 2766 2209 
L 2766 2266 
Q 2766 2663 2505 2880 
Q 2244 3097 1772 3097 
Q 1472 3097 1187 3025 
Q 903 2953 641 2809 
L 641 3341 
Q 956 3463 1253 3523 
Q 1550 3584 1831 3584 
Q 2591 3584 2966 3190 
Q 3341 2797 3341 1997 
z
" transform="scale(0.015625)"/>
      <path id="DejaVuSans-72" d="M 2631 2963 
Q 2534 3019 2420 3045 
Q 2306 3072 2169 3072 
Q 1681 3072 1420 2755 
Q 1159 2438 1159 1844 
L 1159 0 
L 581 0 
L 581 3500 
L 1159 3500 
L 1159 2956 
Q 1341 3275 1631 3429 
Q 1922 3584 2338 3584 
Q 2397 3584 2469 3576 
Q 2541 3569 2628 3553 
L 2631 2963 
z
" transform="scale(0.015625)"/>
      <path id="DejaVuSans-20" transform="scale(0.015625)"/>
      <path id="DejaVuSans-Oblique-4a" d="M 1069 4666 
L 1703 4666 
L 856 325 
Q 691 -522 298 -901 
Q -94 -1281 -800 -1281 
L -1050 -1281 
L -947 -750 
L -750 -750 
Q -328 -750 -109 -509 
Q 109 -269 225 325 
L 1069 4666 
z
" transform="scale(0.015625)"/>
      <path id="DejaVuSans-Oblique-53" d="M 3859 4513 
L 3738 3897 
Q 3422 4066 3111 4152 
Q 2800 4238 2509 4238 
Q 1944 4238 1609 3991 
Q 1275 3744 1275 3334 
Q 1275 3109 1398 2989 
Q 1522 2869 2034 2731 
L 2413 2638 
Q 3053 2472 3303 2217 
Q 3553 1963 3553 1503 
Q 3553 797 2998 353 
Q 2444 -91 1538 -91 
Q 1166 -91 791 -17 
Q 416 56 38 206 
L 166 856 
Q 513 641 861 531 
Q 1209 422 1556 422 
Q 2147 422 2503 684 
Q 2859 947 2859 1369 
Q 2859 1650 2717 1795 
Q 2575 1941 2106 2059 
L 1728 2156 
Q 1081 2325 845 2545 
Q 609 2766 609 3163 
Q 609 3859 1145 4304 
Q 1681 4750 2541 4750 
Q 2875 4750 3203 4690 
Q 3531 4631 3859 4513 
z
" transform="scale(0.015625)"/>
      <path id="DejaVuSans-Oblique-7a" d="M 744 3500 
L 3475 3500 
L 3372 2975 
L 738 459 
L 2913 459 
L 2822 0 
L -19 0 
L 84 525 
L 2719 3041 
L 653 3041 
L 744 3500 
z
" transform="scale(0.015625)"/>
     </defs>
     <use xlink:href="#DejaVuSans-4c" transform="translate(0 0.765625)"/>
     <use xlink:href="#DejaVuSans-69" transform="translate(55.712891 0.765625)"/>
     <use xlink:href="#DejaVuSans-6e" transform="translate(83.496094 0.765625)"/>
     <use xlink:href="#DejaVuSans-65" transform="translate(146.875 0.765625)"/>
     <use xlink:href="#DejaVuSans-61" transform="translate(208.398438 0.765625)"/>
     <use xlink:href="#DejaVuSans-72" transform="translate(269.677734 0.765625)"/>
     <use xlink:href="#DejaVuSans-20" transform="translate(310.791016 0.765625)"/>
     <use xlink:href="#DejaVuSans-Oblique-4a" transform="translate(342.578125 0.765625)"/>
     <use xlink:href="#DejaVuSans-Oblique-53" transform="translate(379.087083 39.046875) scale(0.7)"/>
     <use xlink:href="#DejaVuSans-Oblique-7a" transform="translate(372.070312 -26.578125) scale(0.7)"/>
    </g>
   </g>
   <g id="legend_1">
    <g id="patch_7">
     <path d="M 243.61944 85.076875 
L 291.63944 85.076875 
Q 293.03944 85.076875 293.03944 83.676875 
L 293.03944 30.1 
Q 293.03944 28.7 291.63944 28.7 
L 243.61944 28.7 
Q 242.21944 28.7 242.21944 30.1 
L 242.21944 83.676875 
Q 242.21944 85.076875 243.61944 85.076875 
z
" style="fill: #ffffff; opacity: 0.8; stroke: #cccccc; stroke-linejoin: miter"/>
    </g>
    <g id="text_9">
     <!-- $\omega$ -->
     <g transform="translate(263.42944 39.098437) scale(0.1 -0.1)">
      <use xlink:href="#DejaVuSans-Oblique-3c9" transform="translate(0 0.3125)"/>
     </g>
    </g>
    <g id="line2d_46">
     <path d="M 245.01944 47.547031 
L 252.01944 47.547031 
L 259.01944 47.547031 
" style="fill: none; stroke: #414487; stroke-width: 1.2; stroke-linecap: square"/>
     <g>
      <use xlink:href="#m6a7e6a9944" x="252.01944" y="47.547031" style="fill: #414487; stroke: #414487"/>
     </g>
    </g>
    <g id="text_10">
     <!-- $\omega=0.2$ -->
     <g transform="translate(264.61944 49.997031) scale(0.07 -0.07)">
      <defs>
       <path id="DejaVuSans-3d" d="M 678 2906 
L 4684 2906 
L 4684 2381 
L 678 2381 
L 678 2906 
z
M 678 1631 
L 4684 1631 
L 4684 1100 
L 678 1100 
L 678 1631 
z
" transform="scale(0.015625)"/>
       <path id="DejaVuSans-2e" d="M 684 794 
L 1344 794 
L 1344 0 
L 684 0 
L 684 794 
z
" transform="scale(0.015625)"/>
      </defs>
      <use xlink:href="#DejaVuSans-Oblique-3c9" transform="translate(0 0.78125)"/>
      <use xlink:href="#DejaVuSans-3d" transform="translate(103.222656 0.78125)"/>
      <use xlink:href="#DejaVuSans-30" transform="translate(206.494141 0.78125)"/>
      <use xlink:href="#DejaVuSans-2e" transform="translate(270.117188 0.78125)"/>
      <use xlink:href="#DejaVuSans-32" transform="translate(296.404297 0.78125)"/>
     </g>
    </g>
    <g id="line2d_47">
     <path d="M 245.01944 57.821719 
L 252.01944 57.821719 
L 259.01944 57.821719 
" style="fill: none; stroke: #bddf26; stroke-width: 1.2; stroke-linecap: square"/>
     <g>
      <use xlink:href="#mc600b7a9d7" x="252.01944" y="57.821719" style="fill: #bddf26; stroke: #bddf26"/>
     </g>
    </g>
    <g id="text_11">
     <!-- $\omega=1.0$ -->
     <g transform="translate(264.61944 60.271719) scale(0.07 -0.07)">
      <use xlink:href="#DejaVuSans-Oblique-3c9" transform="translate(0 0.78125)"/>
      <use xlink:href="#DejaVuSans-3d" transform="translate(103.222656 0.78125)"/>
      <use xlink:href="#DejaVuSans-31" transform="translate(206.494141 0.78125)"/>
      <use xlink:href="#DejaVuSans-2e" transform="translate(270.117188 0.78125)"/>
      <use xlink:href="#DejaVuSans-30" transform="translate(301.904297 0.78125)"/>
     </g>
    </g>
    <g id="line2d_48">
     <path d="M 245.01944 68.096406 
L 252.01944 68.096406 
L 259.01944 68.096406 
" style="fill: none; stroke-dasharray: 4.44,1.92; stroke-dashoffset: 0; stroke: #000000; stroke-opacity: 0.7; stroke-width: 1.2"/>
    </g>
    <g id="text_12">
     <!-- SQL -->
     <g transform="translate(264.61944 70.546406) scale(0.07 -0.07)">
      <defs>
       <path id="DejaVuSans-53" d="M 3425 4513 
L 3425 3897 
Q 3066 4069 2747 4153 
Q 2428 4238 2131 4238 
Q 1616 4238 1336 4038 
Q 1056 3838 1056 3469 
Q 1056 3159 1242 3001 
Q 1428 2844 1947 2747 
L 2328 2669 
Q 3034 2534 3370 2195 
Q 3706 1856 3706 1288 
Q 3706 609 3251 259 
Q 2797 -91 1919 -91 
Q 1588 -91 1214 -16 
Q 841 59 441 206 
L 441 856 
Q 825 641 1194 531 
Q 1563 422 1919 422 
Q 2459 422 2753 634 
Q 3047 847 3047 1241 
Q 3047 1584 2836 1778 
Q 2625 1972 2144 2069 
L 1759 2144 
Q 1053 2284 737 2584 
Q 422 2884 422 3419 
Q 422 4038 858 4394 
Q 1294 4750 2059 4750 
Q 2388 4750 2728 4690 
Q 3069 4631 3425 4513 
z
" transform="scale(0.015625)"/>
       <path id="DejaVuSans-51" d="M 2522 4238 
Q 1834 4238 1429 3725 
Q 1025 3213 1025 2328 
Q 1025 1447 1429 934 
Q 1834 422 2522 422 
Q 3209 422 3611 934 
Q 4013 1447 4013 2328 
Q 4013 3213 3611 3725 
Q 3209 4238 2522 4238 
z
M 3406 84 
L 4238 -825 
L 3475 -825 
L 2784 -78 
Q 2681 -84 2626 -87 
Q 2572 -91 2522 -91 
Q 1538 -91 948 567 
Q 359 1225 359 2328 
Q 359 3434 948 4092 
Q 1538 4750 2522 4750 
Q 3503 4750 4090 4092 
Q 4678 3434 4678 2328 
Q 4678 1516 4351 937 
Q 4025 359 3406 84 
z
" transform="scale(0.015625)"/>
      </defs>
      <use xlink:href="#DejaVuSans-53"/>
      <use xlink:href="#DejaVuSans-51" transform="translate(63.476562 0)"/>
      <use xlink:href="#DejaVuSans-4c" transform="translate(142.1875 0)"/>
     </g>
    </g>
    <g id="line2d_49">
     <path d="M 245.01944 78.371094 
L 252.01944 78.371094 
L 259.01944 78.371094 
" style="fill: none; stroke-dasharray: 1,1.65; stroke-dashoffset: 0; stroke: #000000; stroke-opacity: 0.5"/>
    </g>
    <g id="text_13">
     <!-- HL -->
     <g transform="translate(264.61944 80.821094) scale(0.07 -0.07)">
      <defs>
       <path id="DejaVuSans-48" d="M 628 4666 
L 1259 4666 
L 1259 2753 
L 3553 2753 
L 3553 4666 
L 4184 4666 
L 4184 0 
L 3553 0 
L 3553 2222 
L 1259 2222 
L 1259 0 
L 628 0 
L 628 4666 
z
" transform="scale(0.015625)"/>
      </defs>
      <use xlink:href="#DejaVuSans-48"/>
      <use xlink:href="#DejaVuSans-4c" transform="translate(75.195312 0)"/>
     </g>
    </g>
   </g>
  </g>
  <g id="axes_2">
   <g id="patch_8">
    <path d="M 326.64744 525.028 
L 571.808756 525.028 
L 571.808756 25.2 
L 326.64744 25.2 
z
" style="fill: #ffffff"/>
   </g>
   <g id="matplotlib.axis_3">
    <g id="xtick_17">
     <g id="line2d_50">
      <g>
       <use xlink:href="#m3c7d74077b" x="370.916171" y="525.028" style="stroke: #000000; stroke-width: 0.8"/>
      </g>
     </g>
     <g id="text_14">
      <!-- $\mathdefault{10^{0}}$ -->
      <g transform="translate(362.116171 539.626437) scale(0.1 -0.1)">
       <use xlink:href="#DejaVuSans-31" transform="translate(0 0.765625)"/>
       <use xlink:href="#DejaVuSans-30" transform="translate(63.623047 0.765625)"/>
       <use xlink:href="#DejaVuSans-30" transform="translate(128.203125 39.046875) scale(0.7)"/>
      </g>
     </g>
    </g>
    <g id="xtick_18">
     <g id="line2d_51">
      <g>
       <use xlink:href="#m3c7d74077b" x="517.973711" y="525.028" style="stroke: #000000; stroke-width: 0.8"/>
      </g>
     </g>
     <g id="text_15">
      <!-- $\mathdefault{10^{1}}$ -->
      <g transform="translate(509.173711 539.626437) scale(0.1 -0.1)">
       <use xlink:href="#DejaVuSans-31" transform="translate(0 0.684375)"/>
       <use xlink:href="#DejaVuSans-30" transform="translate(63.623047 0.684375)"/>
       <use xlink:href="#DejaVuSans-31" transform="translate(128.203125 38.965625) scale(0.7)"/>
      </g>
     </g>
    </g>
    <g id="xtick_19">
     <g id="line2d_52">
      <g>
       <use xlink:href="#m94f2bdf10f" x="326.64744" y="525.028" style="stroke: #000000; stroke-width: 0.6"/>
      </g>
     </g>
    </g>
    <g id="xtick_20">
     <g id="line2d_53">
      <g>
       <use xlink:href="#m94f2bdf10f" x="338.29164" y="525.028" style="stroke: #000000; stroke-width: 0.6"/>
      </g>
     </g>
    </g>
    <g id="xtick_21">
     <g id="line2d_54">
      <g>
       <use xlink:href="#m94f2bdf10f" x="348.13667" y="525.028" style="stroke: #000000; stroke-width: 0.6"/>
      </g>
     </g>
    </g>
    <g id="xtick_22">
     <g id="line2d_55">
      <g>
       <use xlink:href="#m94f2bdf10f" x="356.664823" y="525.028" style="stroke: #000000; stroke-width: 0.6"/>
      </g>
     </g>
    </g>
    <g id="xtick_23">
     <g id="line2d_56">
      <g>
       <use xlink:href="#m94f2bdf10f" x="364.187187" y="525.028" style="stroke: #000000; stroke-width: 0.6"/>
      </g>
     </g>
    </g>
    <g id="xtick_24">
     <g id="line2d_57">
      <g>
       <use xlink:href="#m94f2bdf10f" x="415.184902" y="525.028" style="stroke: #000000; stroke-width: 0.6"/>
      </g>
     </g>
    </g>
    <g id="xtick_25">
     <g id="line2d_58">
      <g>
       <use xlink:href="#m94f2bdf10f" x="441.080449" y="525.028" style="stroke: #000000; stroke-width: 0.6"/>
      </g>
     </g>
    </g>
    <g id="xtick_26">
     <g id="line2d_59">
      <g>
       <use xlink:href="#m94f2bdf10f" x="459.453633" y="525.028" style="stroke: #000000; stroke-width: 0.6"/>
      </g>
     </g>
    </g>
    <g id="xtick_27">
     <g id="line2d_60">
      <g>
       <use xlink:href="#m94f2bdf10f" x="473.704981" y="525.028" style="stroke: #000000; stroke-width: 0.6"/>
      </g>
     </g>
    </g>
    <g id="xtick_28">
     <g id="line2d_61">
      <g>
       <use xlink:href="#m94f2bdf10f" x="485.34918" y="525.028" style="stroke: #000000; stroke-width: 0.6"/>
      </g>
     </g>
    </g>
    <g id="xtick_29">
     <g id="line2d_62">
      <g>
       <use xlink:href="#m94f2bdf10f" x="495.19421" y="525.028" style="stroke: #000000; stroke-width: 0.6"/>
      </g>
     </g>
    </g>
    <g id="xtick_30">
     <g id="line2d_63">
      <g>
       <use xlink:href="#m94f2bdf10f" x="503.722363" y="525.028" style="stroke: #000000; stroke-width: 0.6"/>
      </g>
     </g>
    </g>
    <g id="xtick_31">
     <g id="line2d_64">
      <g>
       <use xlink:href="#m94f2bdf10f" x="511.244727" y="525.028" style="stroke: #000000; stroke-width: 0.6"/>
      </g>
     </g>
    </g>
    <g id="xtick_32">
     <g id="line2d_65">
      <g>
       <use xlink:href="#m94f2bdf10f" x="562.242442" y="525.028" style="stroke: #000000; stroke-width: 0.6"/>
      </g>
     </g>
    </g>
    <g id="text_16">
     <!-- $N$ -->
     <g transform="translate(445.478098 553.304562) scale(0.1 -0.1)">
      <use xlink:href="#DejaVuSans-Oblique-4e" transform="translate(0 0.09375)"/>
     </g>
    </g>
   </g>
   <g id="matplotlib.axis_4">
    <g id="ytick_26">
     <g id="line2d_66">
      <g>
       <use xlink:href="#mbfdc482ba6" x="326.64744" y="445.679256" style="stroke: #000000; stroke-width: 0.8"/>
      </g>
     </g>
    </g>
    <g id="ytick_27">
     <g id="line2d_67">
      <g>
       <use xlink:href="#mbfdc482ba6" x="326.64744" y="257.56083" style="stroke: #000000; stroke-width: 0.8"/>
      </g>
     </g>
    </g>
    <g id="ytick_28">
     <g id="line2d_68">
      <g>
       <use xlink:href="#mbfdc482ba6" x="326.64744" y="69.442404" style="stroke: #000000; stroke-width: 0.8"/>
      </g>
     </g>
    </g>
    <g id="ytick_29">
     <g id="line2d_69">
      <g>
       <use xlink:href="#mdf67a6f95a" x="326.64744" y="520.539105" style="stroke: #000000; stroke-width: 0.6"/>
      </g>
     </g>
    </g>
    <g id="ytick_30">
     <g id="line2d_70">
      <g>
       <use xlink:href="#mdf67a6f95a" x="326.64744" y="502.308545" style="stroke: #000000; stroke-width: 0.6"/>
      </g>
     </g>
    </g>
    <g id="ytick_31">
     <g id="line2d_71">
      <g>
       <use xlink:href="#mdf67a6f95a" x="326.64744" y="487.413094" style="stroke: #000000; stroke-width: 0.6"/>
      </g>
     </g>
    </g>
    <g id="ytick_32">
     <g id="line2d_72">
      <g>
       <use xlink:href="#mdf67a6f95a" x="326.64744" y="474.819169" style="stroke: #000000; stroke-width: 0.6"/>
      </g>
     </g>
    </g>
    <g id="ytick_33">
     <g id="line2d_73">
      <g>
       <use xlink:href="#mdf67a6f95a" x="326.64744" y="463.909816" style="stroke: #000000; stroke-width: 0.6"/>
      </g>
     </g>
    </g>
    <g id="ytick_34">
     <g id="line2d_74">
      <g>
       <use xlink:href="#mdf67a6f95a" x="326.64744" y="454.287083" style="stroke: #000000; stroke-width: 0.6"/>
      </g>
     </g>
    </g>
    <g id="ytick_35">
     <g id="line2d_75">
      <g>
       <use xlink:href="#mdf67a6f95a" x="326.64744" y="389.049967" style="stroke: #000000; stroke-width: 0.6"/>
      </g>
     </g>
    </g>
    <g id="ytick_36">
     <g id="line2d_76">
      <g>
       <use xlink:href="#mdf67a6f95a" x="326.64744" y="355.923957" style="stroke: #000000; stroke-width: 0.6"/>
      </g>
     </g>
    </g>
    <g id="ytick_37">
     <g id="line2d_77">
      <g>
       <use xlink:href="#mdf67a6f95a" x="326.64744" y="332.420678" style="stroke: #000000; stroke-width: 0.6"/>
      </g>
     </g>
    </g>
    <g id="ytick_38">
     <g id="line2d_78">
      <g>
       <use xlink:href="#mdf67a6f95a" x="326.64744" y="314.190119" style="stroke: #000000; stroke-width: 0.6"/>
      </g>
     </g>
    </g>
    <g id="ytick_39">
     <g id="line2d_79">
      <g>
       <use xlink:href="#mdf67a6f95a" x="326.64744" y="299.294668" style="stroke: #000000; stroke-width: 0.6"/>
      </g>
     </g>
    </g>
    <g id="ytick_40">
     <g id="line2d_80">
      <g>
       <use xlink:href="#mdf67a6f95a" x="326.64744" y="286.700743" style="stroke: #000000; stroke-width: 0.6"/>
      </g>
     </g>
    </g>
    <g id="ytick_41">
     <g id="line2d_81">
      <g>
       <use xlink:href="#mdf67a6f95a" x="326.64744" y="275.791389" style="stroke: #000000; stroke-width: 0.6"/>
      </g>
     </g>
    </g>
    <g id="ytick_42">
     <g id="line2d_82">
      <g>
       <use xlink:href="#mdf67a6f95a" x="326.64744" y="266.168657" style="stroke: #000000; stroke-width: 0.6"/>
      </g>
     </g>
    </g>
    <g id="ytick_43">
     <g id="line2d_83">
      <g>
       <use xlink:href="#mdf67a6f95a" x="326.64744" y="200.931541" style="stroke: #000000; stroke-width: 0.6"/>
      </g>
     </g>
    </g>
    <g id="ytick_44">
     <g id="line2d_84">
      <g>
       <use xlink:href="#mdf67a6f95a" x="326.64744" y="167.80553" style="stroke: #000000; stroke-width: 0.6"/>
      </g>
     </g>
    </g>
    <g id="ytick_45">
     <g id="line2d_85">
      <g>
       <use xlink:href="#mdf67a6f95a" x="326.64744" y="144.302252" style="stroke: #000000; stroke-width: 0.6"/>
      </g>
     </g>
    </g>
    <g id="ytick_46">
     <g id="line2d_86">
      <g>
       <use xlink:href="#mdf67a6f95a" x="326.64744" y="126.071693" style="stroke: #000000; stroke-width: 0.6"/>
      </g>
     </g>
    </g>
    <g id="ytick_47">
     <g id="line2d_87">
      <g>
       <use xlink:href="#mdf67a6f95a" x="326.64744" y="111.176241" style="stroke: #000000; stroke-width: 0.6"/>
      </g>
     </g>
    </g>
    <g id="ytick_48">
     <g id="line2d_88">
      <g>
       <use xlink:href="#mdf67a6f95a" x="326.64744" y="98.582317" style="stroke: #000000; stroke-width: 0.6"/>
      </g>
     </g>
    </g>
    <g id="ytick_49">
     <g id="line2d_89">
      <g>
       <use xlink:href="#mdf67a6f95a" x="326.64744" y="87.672963" style="stroke: #000000; stroke-width: 0.6"/>
      </g>
     </g>
    </g>
    <g id="ytick_50">
     <g id="line2d_90">
      <g>
       <use xlink:href="#mdf67a6f95a" x="326.64744" y="78.050231" style="stroke: #000000; stroke-width: 0.6"/>
      </g>
     </g>
    </g>
    <g id="text_17">
     <!-- $\Delta\omega_{\Pi}$ -->
     <g transform="translate(317.067753 285.514) rotate(-90) scale(0.1 -0.1)">
      <defs>
       <path id="DejaVuSans-3a0" d="M 4184 4666 
L 4184 0 
L 3553 0 
L 3553 4134 
L 1259 4134 
L 1259 0 
L 628 0 
L 628 4666 
L 4184 4666 
z
" transform="scale(0.015625)"/>
      </defs>
      <use xlink:href="#DejaVuSans-394" transform="translate(0 0.09375)"/>
      <use xlink:href="#DejaVuSans-Oblique-3c9" transform="translate(68.408203 0.09375)"/>
      <use xlink:href="#DejaVuSans-3a0" transform="translate(152.148438 -16.3125) scale(0.7)"/>
     </g>
    </g>
   </g>
   <g id="line2d_91">
    <path d="M 415.184902 368.341116 
L 459.453633 373.667425 
L 485.34918 376.676173 
L 503.722363 377.040401 
L 517.973711 375.825772 
" clip-path="url(#p0e7046bcce)" style="fill: none; stroke: #414487; stroke-width: 1.2; stroke-linecap: square"/>
    <g clip-path="url(#p0e7046bcce)">
     <use xlink:href="#m6a7e6a9944" x="415.184902" y="368.341116" style="fill: #414487; stroke: #414487"/>
     <use xlink:href="#m6a7e6a9944" x="459.453633" y="373.667425" style="fill: #414487; stroke: #414487"/>
     <use xlink:href="#m6a7e6a9944" x="485.34918" y="376.676173" style="fill: #414487; stroke: #414487"/>
     <use xlink:href="#m6a7e6a9944" x="503.722363" y="377.040401" style="fill: #414487; stroke: #414487"/>
     <use xlink:href="#m6a7e6a9944" x="517.973711" y="375.825772" style="fill: #414487; stroke: #414487"/>
    </g>
   </g>
   <g id="line2d_92">
    <path d="M 415.184902 359.65992 
L 459.453633 374.24593 
L 485.34918 369.910213 
L 503.722363 371.755979 
L 517.973711 372.507651 
" clip-path="url(#p0e7046bcce)" style="fill: none; stroke: #bddf26; stroke-width: 1.2; stroke-linecap: square"/>
    <g clip-path="url(#p0e7046bcce)">
     <use xlink:href="#mc600b7a9d7" x="415.184902" y="359.65992" style="fill: #bddf26; stroke: #bddf26"/>
     <use xlink:href="#mc600b7a9d7" x="459.453633" y="374.24593" style="fill: #bddf26; stroke: #bddf26"/>
     <use xlink:href="#mc600b7a9d7" x="485.34918" y="369.910213" style="fill: #bddf26; stroke: #bddf26"/>
     <use xlink:href="#mc600b7a9d7" x="503.722363" y="371.755979" style="fill: #bddf26; stroke: #bddf26"/>
     <use xlink:href="#mc600b7a9d7" x="517.973711" y="372.507651" style="fill: #bddf26; stroke: #bddf26"/>
    </g>
   </g>
   <g id="line2d_93">
    <path d="M 370.916171 257.56083 
L 382.12884 264.732545 
L 391.663839 270.831209 
L 399.958477 276.136528 
L 407.298626 280.831348 
L 413.881463 285.041784 
L 419.848745 288.858507 
L 425.305813 292.348892 
L 430.333083 295.564376 
L 434.993343 298.545116 
L 439.336552 301.323069 
L 443.403115 303.924076 
L 447.226176 306.369337 
L 450.833254 308.676454 
L 454.247454 310.860205 
L 457.488361 312.933115 
L 460.57272 314.905897 
L 463.51496 316.787777 
L 466.327603 318.586767 
L 469.021585 320.30986 
L 471.606516 321.963203 
L 474.090881 323.552224 
L 476.482213 325.081739 
L 478.787229 326.556047 
L 481.011944 327.978993 
L 483.161765 329.354036 
L 485.24157 330.684296 
L 487.255778 331.9726 
L 489.208398 333.221512 
L 491.103087 334.433371 
L 492.943183 335.610311 
L 494.731744 336.75429 
L 496.471578 337.867102 
L 498.16527 338.950401 
L 499.815205 340.005713 
L 501.423586 341.034447 
L 502.992455 342.037908 
L 504.523707 343.01731 
L 506.019104 343.973778 
L 507.480287 344.908363 
L 508.908786 345.822042 
L 510.306031 346.715732 
L 511.673362 347.590288 
L 513.012031 348.446512 
L 514.323216 349.285156 
L 515.608023 350.10693 
L 516.867493 350.912496 
L 518.102604 351.702484 
L 519.314282 352.477483 
L 520.5034 353.238053 
L 521.670781 353.984719 
L 522.817207 354.717983 
L 523.943417 355.438316 
L 525.05011 356.146166 
L 526.137953 356.841959 
L 527.207576 357.526099 
L 528.259581 358.19897 
L 529.294536 358.860936 
L 530.312988 359.512346 
L 531.315453 360.153531 
L 532.302426 360.784807 
L 533.274379 361.406476 
L 534.231761 362.018826 
L 535.175004 362.622131 
L 536.104518 363.216656 
L 537.020697 363.802652 
L 537.92392 364.380361 
L 538.814547 364.950013 
L 539.692924 365.51183 
L 540.559385 366.066026 
L 541.414247 366.612803 
L 542.257818 367.152358 
L 543.090392 367.684879 
L 543.912252 368.210547 
L 544.72367 368.729537 
L 545.524908 369.242015 
L 546.316219 369.748144 
L 547.097845 370.248079 
L 547.87002 370.741969 
L 548.632972 371.229958 
L 549.386916 371.712187 
L 550.132064 372.18879 
L 550.868618 372.659896 
L 551.596774 373.125631 
L 552.316722 373.586115 
L 553.028644 374.041467 
L 553.732718 374.491798 
L 554.429115 374.937219 
L 555.118 375.377836 
L 555.799534 375.81375 
L 556.473871 376.245062 
L 557.141163 376.671868 
L 557.801555 377.09426 
L 558.455188 377.512329 
L 559.1022 377.926163 
L 559.742722 378.335846 
L 560.376884 378.741461 
L 561.004811 379.143089 
L 561.626625 379.540806 
L 562.242442 379.934688 
" clip-path="url(#p0e7046bcce)" style="fill: none; stroke-dasharray: 4.44,1.92; stroke-dashoffset: 0; stroke: #000000; stroke-opacity: 0.7; stroke-width: 1.2"/>
   </g>
   <g id="line2d_94">
    <path d="M 370.916171 257.56083 
L 382.12884 271.90426 
L 391.663839 284.101588 
L 399.958477 294.712226 
L 407.298626 304.101866 
L 413.881463 312.522739 
L 419.848745 320.156185 
L 425.305813 327.136955 
L 430.333083 333.567922 
L 434.993343 339.529403 
L 439.336552 345.085307 
L 443.403115 350.287322 
L 447.226176 355.177844 
L 450.833254 359.792078 
L 454.247454 364.159579 
L 457.488361 368.305401 
L 460.57272 372.250963 
L 463.51496 376.014725 
L 466.327603 379.612704 
L 469.021585 383.058891 
L 471.606516 386.365577 
L 474.090881 389.543617 
L 476.482213 392.602649 
L 478.787229 395.551263 
L 481.011944 398.397155 
L 483.161765 401.147241 
L 485.24157 403.807763 
L 487.255778 406.38437 
L 489.208398 408.882194 
L 491.103087 411.305912 
L 492.943183 413.659793 
L 494.731744 415.947749 
L 496.471578 418.173374 
L 498.16527 420.339973 
L 499.815205 422.450596 
L 501.423586 424.508063 
L 502.992455 426.514987 
L 504.523707 428.47379 
L 506.019104 430.386726 
L 507.480287 432.255895 
L 508.908786 434.083255 
L 510.306031 435.870634 
L 511.673362 437.619745 
L 513.012031 439.332193 
L 514.323216 441.009483 
L 515.608023 442.653029 
L 516.867493 444.264163 
L 518.102604 445.844138 
L 519.314282 447.394137 
L 520.5034 448.915275 
L 521.670781 450.408609 
L 522.817207 451.875136 
L 523.943417 453.315802 
L 525.05011 454.731502 
L 526.137953 456.123089 
L 527.207576 457.491368 
L 528.259581 458.837109 
L 529.294536 460.161042 
L 530.312988 461.463862 
L 531.315453 462.746232 
L 532.302426 464.008784 
L 533.274379 465.252122 
L 534.231761 466.476821 
L 535.175004 467.683432 
L 536.104518 468.872482 
L 537.020697 470.044474 
L 537.92392 471.199892 
L 538.814547 472.339196 
L 539.692924 473.462831 
L 540.559385 474.571221 
L 541.414247 475.664776 
L 542.257818 476.743886 
L 543.090392 477.808928 
L 543.912252 478.860264 
L 544.72367 479.898244 
L 545.524908 480.923201 
L 546.316219 481.935458 
L 547.097845 482.935327 
L 547.87002 483.923107 
L 548.632972 484.899087 
L 549.386916 485.863545 
L 550.132064 486.81675 
L 550.868618 487.758962 
L 551.596774 488.690431 
L 552.316722 489.611401 
L 553.028644 490.522103 
L 553.732718 491.422767 
L 554.429115 492.313609 
L 555.118 493.194842 
L 555.799534 494.066671 
L 556.473871 494.929295 
L 557.141163 495.782906 
L 557.801555 496.62769 
L 558.455188 497.463828 
L 559.1022 498.291495 
L 559.742722 499.110862 
L 560.376884 499.922093 
L 561.004811 500.725347 
L 561.626625 501.520781 
L 562.242442 502.308545 
" clip-path="url(#p0e7046bcce)" style="fill: none; stroke-dasharray: 1,1.65; stroke-dashoffset: 0; stroke: #000000; stroke-opacity: 0.5"/>
   </g>
   <g id="patch_9">
    <path d="M 326.64744 525.028 
L 326.64744 25.2 
" style="fill: none; stroke: #000000; stroke-width: 0.8; stroke-linejoin: miter; stroke-linecap: square"/>
   </g>
   <g id="patch_10">
    <path d="M 571.808756 525.028 
L 571.808756 25.2 
" style="fill: none; stroke: #000000; stroke-width: 0.8; stroke-linejoin: miter; stroke-linecap: square"/>
   </g>
   <g id="patch_11">
    <path d="M 326.64744 525.028 
L 571.808756 525.028 
" style="fill: none; stroke: #000000; stroke-width: 0.8; stroke-linejoin: miter; stroke-linecap: square"/>
   </g>
   <g id="patch_12">
    <path d="M 326.64744 25.2 
L 571.808756 25.2 
" style="fill: none; stroke: #000000; stroke-width: 0.8; stroke-linejoin: miter; stroke-linecap: square"/>
   </g>
   <g id="text_18">
    <!-- Parity $\Pi_S$ -->
    <g transform="translate(422.588098 19.2) scale(0.12 -0.12)">
     <defs>
      <path id="DejaVuSans-50" d="M 1259 4147 
L 1259 2394 
L 2053 2394 
Q 2494 2394 2734 2622 
Q 2975 2850 2975 3272 
Q 2975 3691 2734 3919 
Q 2494 4147 2053 4147 
L 1259 4147 
z
M 628 4666 
L 2053 4666 
Q 2838 4666 3239 4311 
Q 3641 3956 3641 3272 
Q 3641 2581 3239 2228 
Q 2838 1875 2053 1875 
L 1259 1875 
L 1259 0 
L 628 0 
L 628 4666 
z
" transform="scale(0.015625)"/>
      <path id="DejaVuSans-74" d="M 1172 4494 
L 1172 3500 
L 2356 3500 
L 2356 3053 
L 1172 3053 
L 1172 1153 
Q 1172 725 1289 603 
Q 1406 481 1766 481 
L 2356 481 
L 2356 0 
L 1766 0 
Q 1100 0 847 248 
Q 594 497 594 1153 
L 594 3053 
L 172 3053 
L 172 3500 
L 594 3500 
L 594 4494 
L 1172 4494 
z
" transform="scale(0.015625)"/>
      <path id="DejaVuSans-79" d="M 2059 -325 
Q 1816 -950 1584 -1140 
Q 1353 -1331 966 -1331 
L 506 -1331 
L 506 -850 
L 844 -850 
Q 1081 -850 1212 -737 
Q 1344 -625 1503 -206 
L 1606 56 
L 191 3500 
L 800 3500 
L 1894 763 
L 2988 3500 
L 3597 3500 
L 2059 -325 
z
" transform="scale(0.015625)"/>
     </defs>
     <use xlink:href="#DejaVuSans-50" transform="translate(0 0.015625)"/>
     <use xlink:href="#DejaVuSans-61" transform="translate(60.302734 0.015625)"/>
     <use xlink:href="#DejaVuSans-72" transform="translate(121.582031 0.015625)"/>
     <use xlink:href="#DejaVuSans-69" transform="translate(162.695312 0.015625)"/>
     <use xlink:href="#DejaVuSans-74" transform="translate(190.478516 0.015625)"/>
     <use xlink:href="#DejaVuSans-79" transform="translate(229.6875 0.015625)"/>
     <use xlink:href="#DejaVuSans-20" transform="translate(288.867188 0.015625)"/>
     <use xlink:href="#DejaVuSans-3a0" transform="translate(320.654297 0.015625)"/>
     <use xlink:href="#DejaVuSans-Oblique-53" transform="translate(396.806641 -16.390625) scale(0.7)"/>
    </g>
   </g>
   <g id="legend_2">
    <g id="patch_13">
     <path d="M 518.888756 85.076875 
L 566.908756 85.076875 
Q 568.308756 85.076875 568.308756 83.676875 
L 568.308756 30.1 
Q 568.308756 28.7 566.908756 28.7 
L 518.888756 28.7 
Q 517.488756 28.7 517.488756 30.1 
L 517.488756 83.676875 
Q 517.488756 85.076875 518.888756 85.076875 
z
" style="fill: #ffffff; opacity: 0.8; stroke: #cccccc; stroke-linejoin: miter"/>
    </g>
    <g id="text_19">
     <!-- $\omega$ -->
     <g transform="translate(538.698756 39.098437) scale(0.1 -0.1)">
      <use xlink:href="#DejaVuSans-Oblique-3c9" transform="translate(0 0.3125)"/>
     </g>
    </g>
    <g id="line2d_95">
     <path d="M 520.288756 47.547031 
L 527.288756 47.547031 
L 534.288756 47.547031 
" style="fill: none; stroke: #414487; stroke-width: 1.2; stroke-linecap: square"/>
     <g>
      <use xlink:href="#m6a7e6a9944" x="527.288756" y="47.547031" style="fill: #414487; stroke: #414487"/>
     </g>
    </g>
    <g id="text_20">
     <!-- $\omega=0.2$ -->
     <g transform="translate(539.888756 49.997031) scale(0.07 -0.07)">
      <use xlink:href="#DejaVuSans-Oblique-3c9" transform="translate(0 0.78125)"/>
      <use xlink:href="#DejaVuSans-3d" transform="translate(103.222656 0.78125)"/>
      <use xlink:href="#DejaVuSans-30" transform="translate(206.494141 0.78125)"/>
      <use xlink:href="#DejaVuSans-2e" transform="translate(270.117188 0.78125)"/>
      <use xlink:href="#DejaVuSans-32" transform="translate(296.404297 0.78125)"/>
     </g>
    </g>
    <g id="line2d_96">
     <path d="M 520.288756 57.821719 
L 527.288756 57.821719 
L 534.288756 57.821719 
" style="fill: none; stroke: #bddf26; stroke-width: 1.2; stroke-linecap: square"/>
     <g>
      <use xlink:href="#mc600b7a9d7" x="527.288756" y="57.821719" style="fill: #bddf26; stroke: #bddf26"/>
     </g>
    </g>
    <g id="text_21">
     <!-- $\omega=1.0$ -->
     <g transform="translate(539.888756 60.271719) scale(0.07 -0.07)">
      <use xlink:href="#DejaVuSans-Oblique-3c9" transform="translate(0 0.78125)"/>
      <use xlink:href="#DejaVuSans-3d" transform="translate(103.222656 0.78125)"/>
      <use xlink:href="#DejaVuSans-31" transform="translate(206.494141 0.78125)"/>
      <use xlink:href="#DejaVuSans-2e" transform="translate(270.117188 0.78125)"/>
      <use xlink:href="#DejaVuSans-30" transform="translate(301.904297 0.78125)"/>
     </g>
    </g>
    <g id="line2d_97">
     <path d="M 520.288756 68.096406 
L 527.288756 68.096406 
L 534.288756 68.096406 
" style="fill: none; stroke-dasharray: 4.44,1.92; stroke-dashoffset: 0; stroke: #000000; stroke-opacity: 0.7; stroke-width: 1.2"/>
    </g>
    <g id="text_22">
     <!-- SQL -->
     <g transform="translate(539.888756 70.546406) scale(0.07 -0.07)">
      <use xlink:href="#DejaVuSans-53"/>
      <use xlink:href="#DejaVuSans-51" transform="translate(63.476562 0)"/>
      <use xlink:href="#DejaVuSans-4c" transform="translate(142.1875 0)"/>
     </g>
    </g>
    <g id="line2d_98">
     <path d="M 520.288756 78.371094 
L 527.288756 78.371094 
L 534.288756 78.371094 
" style="fill: none; stroke-dasharray: 1,1.65; stroke-dashoffset: 0; stroke: #000000; stroke-opacity: 0.5"/>
    </g>
    <g id="text_23">
     <!-- HL -->
     <g transform="translate(539.888756 80.821094) scale(0.07 -0.07)">
      <use xlink:href="#DejaVuSans-48"/>
      <use xlink:href="#DejaVuSans-4c" transform="translate(75.195312 0)"/>
     </g>
    </g>
   </g>
  </g>
  <g id="axes_3">
   <g id="patch_14">
    <path d="M 601.916756 525.028 
L 847.078071 525.028 
L 847.078071 25.2 
L 601.916756 25.2 
z
" style="fill: #ffffff"/>
   </g>
   <g id="matplotlib.axis_5">
    <g id="xtick_33">
     <g id="line2d_99">
      <g>
       <use xlink:href="#m3c7d74077b" x="646.185486" y="525.028" style="stroke: #000000; stroke-width: 0.8"/>
      </g>
     </g>
     <g id="text_24">
      <!-- $\mathdefault{10^{0}}$ -->
      <g transform="translate(637.385486 539.626437) scale(0.1 -0.1)">
       <use xlink:href="#DejaVuSans-31" transform="translate(0 0.765625)"/>
       <use xlink:href="#DejaVuSans-30" transform="translate(63.623047 0.765625)"/>
       <use xlink:href="#DejaVuSans-30" transform="translate(128.203125 39.046875) scale(0.7)"/>
      </g>
     </g>
    </g>
    <g id="xtick_34">
     <g id="line2d_100">
      <g>
       <use xlink:href="#m3c7d74077b" x="793.243027" y="525.028" style="stroke: #000000; stroke-width: 0.8"/>
      </g>
     </g>
     <g id="text_25">
      <!-- $\mathdefault{10^{1}}$ -->
      <g transform="translate(784.443027 539.626437) scale(0.1 -0.1)">
       <use xlink:href="#DejaVuSans-31" transform="translate(0 0.684375)"/>
       <use xlink:href="#DejaVuSans-30" transform="translate(63.623047 0.684375)"/>
       <use xlink:href="#DejaVuSans-31" transform="translate(128.203125 38.965625) scale(0.7)"/>
      </g>
     </g>
    </g>
    <g id="xtick_35">
     <g id="line2d_101">
      <g>
       <use xlink:href="#m94f2bdf10f" x="601.916756" y="525.028" style="stroke: #000000; stroke-width: 0.6"/>
      </g>
     </g>
    </g>
    <g id="xtick_36">
     <g id="line2d_102">
      <g>
       <use xlink:href="#m94f2bdf10f" x="613.560955" y="525.028" style="stroke: #000000; stroke-width: 0.6"/>
      </g>
     </g>
    </g>
    <g id="xtick_37">
     <g id="line2d_103">
      <g>
       <use xlink:href="#m94f2bdf10f" x="623.405985" y="525.028" style="stroke: #000000; stroke-width: 0.6"/>
      </g>
     </g>
    </g>
    <g id="xtick_38">
     <g id="line2d_104">
      <g>
       <use xlink:href="#m94f2bdf10f" x="631.934138" y="525.028" style="stroke: #000000; stroke-width: 0.6"/>
      </g>
     </g>
    </g>
    <g id="xtick_39">
     <g id="line2d_105">
      <g>
       <use xlink:href="#m94f2bdf10f" x="639.456502" y="525.028" style="stroke: #000000; stroke-width: 0.6"/>
      </g>
     </g>
    </g>
    <g id="xtick_40">
     <g id="line2d_106">
      <g>
       <use xlink:href="#m94f2bdf10f" x="690.454217" y="525.028" style="stroke: #000000; stroke-width: 0.6"/>
      </g>
     </g>
    </g>
    <g id="xtick_41">
     <g id="line2d_107">
      <g>
       <use xlink:href="#m94f2bdf10f" x="716.349765" y="525.028" style="stroke: #000000; stroke-width: 0.6"/>
      </g>
     </g>
    </g>
    <g id="xtick_42">
     <g id="line2d_108">
      <g>
       <use xlink:href="#m94f2bdf10f" x="734.722948" y="525.028" style="stroke: #000000; stroke-width: 0.6"/>
      </g>
     </g>
    </g>
    <g id="xtick_43">
     <g id="line2d_109">
      <g>
       <use xlink:href="#m94f2bdf10f" x="748.974296" y="525.028" style="stroke: #000000; stroke-width: 0.6"/>
      </g>
     </g>
    </g>
    <g id="xtick_44">
     <g id="line2d_110">
      <g>
       <use xlink:href="#m94f2bdf10f" x="760.618495" y="525.028" style="stroke: #000000; stroke-width: 0.6"/>
      </g>
     </g>
    </g>
    <g id="xtick_45">
     <g id="line2d_111">
      <g>
       <use xlink:href="#m94f2bdf10f" x="770.463526" y="525.028" style="stroke: #000000; stroke-width: 0.6"/>
      </g>
     </g>
    </g>
    <g id="xtick_46">
     <g id="line2d_112">
      <g>
       <use xlink:href="#m94f2bdf10f" x="778.991679" y="525.028" style="stroke: #000000; stroke-width: 0.6"/>
      </g>
     </g>
    </g>
    <g id="xtick_47">
     <g id="line2d_113">
      <g>
       <use xlink:href="#m94f2bdf10f" x="786.514043" y="525.028" style="stroke: #000000; stroke-width: 0.6"/>
      </g>
     </g>
    </g>
    <g id="xtick_48">
     <g id="line2d_114">
      <g>
       <use xlink:href="#m94f2bdf10f" x="837.511758" y="525.028" style="stroke: #000000; stroke-width: 0.6"/>
      </g>
     </g>
    </g>
    <g id="text_26">
     <!-- $N$ -->
     <g transform="translate(720.747413 553.304562) scale(0.1 -0.1)">
      <use xlink:href="#DejaVuSans-Oblique-4e" transform="translate(0 0.09375)"/>
     </g>
    </g>
   </g>
   <g id="matplotlib.axis_6">
    <g id="ytick_51">
     <g id="line2d_115">
      <g>
       <use xlink:href="#mbfdc482ba6" x="601.916756" y="445.679256" style="stroke: #000000; stroke-width: 0.8"/>
      </g>
     </g>
    </g>
    <g id="ytick_52">
     <g id="line2d_116">
      <g>
       <use xlink:href="#mbfdc482ba6" x="601.916756" y="257.56083" style="stroke: #000000; stroke-width: 0.8"/>
      </g>
     </g>
    </g>
    <g id="ytick_53">
     <g id="line2d_117">
      <g>
       <use xlink:href="#mbfdc482ba6" x="601.916756" y="69.442404" style="stroke: #000000; stroke-width: 0.8"/>
      </g>
     </g>
    </g>
    <g id="ytick_54">
     <g id="line2d_118">
      <g>
       <use xlink:href="#mdf67a6f95a" x="601.916756" y="520.539105" style="stroke: #000000; stroke-width: 0.6"/>
      </g>
     </g>
    </g>
    <g id="ytick_55">
     <g id="line2d_119">
      <g>
       <use xlink:href="#mdf67a6f95a" x="601.916756" y="502.308545" style="stroke: #000000; stroke-width: 0.6"/>
      </g>
     </g>
    </g>
    <g id="ytick_56">
     <g id="line2d_120">
      <g>
       <use xlink:href="#mdf67a6f95a" x="601.916756" y="487.413094" style="stroke: #000000; stroke-width: 0.6"/>
      </g>
     </g>
    </g>
    <g id="ytick_57">
     <g id="line2d_121">
      <g>
       <use xlink:href="#mdf67a6f95a" x="601.916756" y="474.819169" style="stroke: #000000; stroke-width: 0.6"/>
      </g>
     </g>
    </g>
    <g id="ytick_58">
     <g id="line2d_122">
      <g>
       <use xlink:href="#mdf67a6f95a" x="601.916756" y="463.909816" style="stroke: #000000; stroke-width: 0.6"/>
      </g>
     </g>
    </g>
    <g id="ytick_59">
     <g id="line2d_123">
      <g>
       <use xlink:href="#mdf67a6f95a" x="601.916756" y="454.287083" style="stroke: #000000; stroke-width: 0.6"/>
      </g>
     </g>
    </g>
    <g id="ytick_60">
     <g id="line2d_124">
      <g>
       <use xlink:href="#mdf67a6f95a" x="601.916756" y="389.049967" style="stroke: #000000; stroke-width: 0.6"/>
      </g>
     </g>
    </g>
    <g id="ytick_61">
     <g id="line2d_125">
      <g>
       <use xlink:href="#mdf67a6f95a" x="601.916756" y="355.923957" style="stroke: #000000; stroke-width: 0.6"/>
      </g>
     </g>
    </g>
    <g id="ytick_62">
     <g id="line2d_126">
      <g>
       <use xlink:href="#mdf67a6f95a" x="601.916756" y="332.420678" style="stroke: #000000; stroke-width: 0.6"/>
      </g>
     </g>
    </g>
    <g id="ytick_63">
     <g id="line2d_127">
      <g>
       <use xlink:href="#mdf67a6f95a" x="601.916756" y="314.190119" style="stroke: #000000; stroke-width: 0.6"/>
      </g>
     </g>
    </g>
    <g id="ytick_64">
     <g id="line2d_128">
      <g>
       <use xlink:href="#mdf67a6f95a" x="601.916756" y="299.294668" style="stroke: #000000; stroke-width: 0.6"/>
      </g>
     </g>
    </g>
    <g id="ytick_65">
     <g id="line2d_129">
      <g>
       <use xlink:href="#mdf67a6f95a" x="601.916756" y="286.700743" style="stroke: #000000; stroke-width: 0.6"/>
      </g>
     </g>
    </g>
    <g id="ytick_66">
     <g id="line2d_130">
      <g>
       <use xlink:href="#mdf67a6f95a" x="601.916756" y="275.791389" style="stroke: #000000; stroke-width: 0.6"/>
      </g>
     </g>
    </g>
    <g id="ytick_67">
     <g id="line2d_131">
      <g>
       <use xlink:href="#mdf67a6f95a" x="601.916756" y="266.168657" style="stroke: #000000; stroke-width: 0.6"/>
      </g>
     </g>
    </g>
    <g id="ytick_68">
     <g id="line2d_132">
      <g>
       <use xlink:href="#mdf67a6f95a" x="601.916756" y="200.931541" style="stroke: #000000; stroke-width: 0.6"/>
      </g>
     </g>
    </g>
    <g id="ytick_69">
     <g id="line2d_133">
      <g>
       <use xlink:href="#mdf67a6f95a" x="601.916756" y="167.80553" style="stroke: #000000; stroke-width: 0.6"/>
      </g>
     </g>
    </g>
    <g id="ytick_70">
     <g id="line2d_134">
      <g>
       <use xlink:href="#mdf67a6f95a" x="601.916756" y="144.302252" style="stroke: #000000; stroke-width: 0.6"/>
      </g>
     </g>
    </g>
    <g id="ytick_71">
     <g id="line2d_135">
      <g>
       <use xlink:href="#mdf67a6f95a" x="601.916756" y="126.071693" style="stroke: #000000; stroke-width: 0.6"/>
      </g>
     </g>
    </g>
    <g id="ytick_72">
     <g id="line2d_136">
      <g>
       <use xlink:href="#mdf67a6f95a" x="601.916756" y="111.176241" style="stroke: #000000; stroke-width: 0.6"/>
      </g>
     </g>
    </g>
    <g id="ytick_73">
     <g id="line2d_137">
      <g>
       <use xlink:href="#mdf67a6f95a" x="601.916756" y="98.582317" style="stroke: #000000; stroke-width: 0.6"/>
      </g>
     </g>
    </g>
    <g id="ytick_74">
     <g id="line2d_138">
      <g>
       <use xlink:href="#mdf67a6f95a" x="601.916756" y="87.672963" style="stroke: #000000; stroke-width: 0.6"/>
      </g>
     </g>
    </g>
    <g id="ytick_75">
     <g id="line2d_139">
      <g>
       <use xlink:href="#mdf67a6f95a" x="601.916756" y="78.050231" style="stroke: #000000; stroke-width: 0.6"/>
      </g>
     </g>
    </g>
    <g id="text_27">
     <!-- $\Delta\omega_{\mathrm{CFI}}$ -->
     <g transform="translate(592.337068 288.364) rotate(-90) scale(0.1 -0.1)">
      <defs>
       <path id="DejaVuSans-43" d="M 4122 4306 
L 4122 3641 
Q 3803 3938 3442 4084 
Q 3081 4231 2675 4231 
Q 1875 4231 1450 3742 
Q 1025 3253 1025 2328 
Q 1025 1406 1450 917 
Q 1875 428 2675 428 
Q 3081 428 3442 575 
Q 3803 722 4122 1019 
L 4122 359 
Q 3791 134 3420 21 
Q 3050 -91 2638 -91 
Q 1578 -91 968 557 
Q 359 1206 359 2328 
Q 359 3453 968 4101 
Q 1578 4750 2638 4750 
Q 3056 4750 3426 4639 
Q 3797 4528 4122 4306 
z
" transform="scale(0.015625)"/>
       <path id="DejaVuSans-46" d="M 628 4666 
L 3309 4666 
L 3309 4134 
L 1259 4134 
L 1259 2759 
L 3109 2759 
L 3109 2228 
L 1259 2228 
L 1259 0 
L 628 0 
L 628 4666 
z
" transform="scale(0.015625)"/>
       <path id="DejaVuSans-49" d="M 628 4666 
L 1259 4666 
L 1259 0 
L 628 0 
L 628 4666 
z
" transform="scale(0.015625)"/>
      </defs>
      <use xlink:href="#DejaVuSans-394" transform="translate(0 0.09375)"/>
      <use xlink:href="#DejaVuSans-Oblique-3c9" transform="translate(68.408203 0.09375)"/>
      <use xlink:href="#DejaVuSans-43" transform="translate(152.148438 -16.3125) scale(0.7)"/>
      <use xlink:href="#DejaVuSans-46" transform="translate(201.025391 -16.3125) scale(0.7)"/>
      <use xlink:href="#DejaVuSans-49" transform="translate(241.289062 -16.3125) scale(0.7)"/>
     </g>
    </g>
   </g>
   <g id="line2d_140">
    <path d="M 690.454217 376.798865 
L 734.722948 376.30737 
L 760.618495 384.431425 
L 778.991679 387.512954 
L 793.243027 388.417373 
" clip-path="url(#p1d2fbaa5d4)" style="fill: none; stroke: #414487; stroke-width: 1.2; stroke-linecap: square"/>
    <g clip-path="url(#p1d2fbaa5d4)">
     <use xlink:href="#m6a7e6a9944" x="690.454217" y="376.798865" style="fill: #414487; stroke: #414487"/>
     <use xlink:href="#m6a7e6a9944" x="734.722948" y="376.30737" style="fill: #414487; stroke: #414487"/>
     <use xlink:href="#m6a7e6a9944" x="760.618495" y="384.431425" style="fill: #414487; stroke: #414487"/>
     <use xlink:href="#m6a7e6a9944" x="778.991679" y="387.512954" style="fill: #414487; stroke: #414487"/>
     <use xlink:href="#m6a7e6a9944" x="793.243027" y="388.417373" style="fill: #414487; stroke: #414487"/>
    </g>
   </g>
   <g id="line2d_141">
    <path d="M 690.454217 365.317284 
L 734.722948 377.408422 
L 760.618495 372.994777 
L 778.991679 376.46277 
L 793.243027 386.525105 
" clip-path="url(#p1d2fbaa5d4)" style="fill: none; stroke: #bddf26; stroke-width: 1.2; stroke-linecap: square"/>
    <g clip-path="url(#p1d2fbaa5d4)">
     <use xlink:href="#mc600b7a9d7" x="690.454217" y="365.317284" style="fill: #bddf26; stroke: #bddf26"/>
     <use xlink:href="#mc600b7a9d7" x="734.722948" y="377.408422" style="fill: #bddf26; stroke: #bddf26"/>
     <use xlink:href="#mc600b7a9d7" x="760.618495" y="372.994777" style="fill: #bddf26; stroke: #bddf26"/>
     <use xlink:href="#mc600b7a9d7" x="778.991679" y="376.46277" style="fill: #bddf26; stroke: #bddf26"/>
     <use xlink:href="#mc600b7a9d7" x="793.243027" y="386.525105" style="fill: #bddf26; stroke: #bddf26"/>
    </g>
   </g>
   <g id="line2d_142">
    <path d="M 646.185486 257.56083 
L 657.398155 264.732545 
L 666.933154 270.831209 
L 675.227792 276.136528 
L 682.567942 280.831348 
L 689.150779 285.041784 
L 695.118061 288.858507 
L 700.575128 292.348892 
L 705.602398 295.564376 
L 710.262658 298.545116 
L 714.605867 301.323069 
L 718.672431 303.924076 
L 722.495491 306.369337 
L 726.102569 308.676454 
L 729.51677 310.860205 
L 732.757677 312.933115 
L 735.842035 314.905897 
L 738.784275 316.787777 
L 741.596918 318.586767 
L 744.290901 320.30986 
L 746.875831 321.963203 
L 749.360196 323.552224 
L 751.751528 325.081739 
L 754.056544 326.556047 
L 756.281259 327.978993 
L 758.43108 329.354036 
L 760.510886 330.684296 
L 762.525093 331.9726 
L 764.477714 333.221512 
L 766.372403 334.433371 
L 768.212499 335.610311 
L 770.00106 336.75429 
L 771.740894 337.867102 
L 773.434586 338.950401 
L 775.08452 340.005713 
L 776.692901 341.034447 
L 778.26177 342.037908 
L 779.793023 343.01731 
L 781.28842 343.973778 
L 782.749602 344.908363 
L 784.178101 345.822042 
L 785.575347 346.715732 
L 786.942677 347.590288 
L 788.281346 348.446512 
L 789.592532 349.285156 
L 790.877339 350.10693 
L 792.136808 350.912496 
L 793.371919 351.702484 
L 794.583598 352.477483 
L 795.772715 353.238053 
L 796.940097 353.984719 
L 798.086522 354.717983 
L 799.212732 355.438316 
L 800.319426 356.146166 
L 801.407268 356.841959 
L 802.476892 357.526099 
L 803.528896 358.19897 
L 804.563852 358.860936 
L 805.582303 359.512346 
L 806.584769 360.153531 
L 807.571742 360.784807 
L 808.543694 361.406476 
L 809.501077 362.018826 
L 810.444319 362.622131 
L 811.373833 363.216656 
L 812.290013 363.802652 
L 813.193235 364.380361 
L 814.083862 364.950013 
L 814.96224 365.51183 
L 815.8287 366.066026 
L 816.683563 366.612803 
L 817.527134 367.152358 
L 818.359708 367.684879 
L 819.181567 368.210547 
L 819.992985 368.729537 
L 820.794224 369.242015 
L 821.585534 369.748144 
L 822.36716 370.248079 
L 823.139336 370.741969 
L 823.902287 371.229958 
L 824.656231 371.712187 
L 825.401379 372.18879 
L 826.137933 372.659896 
L 826.866089 373.125631 
L 827.586037 373.586115 
L 828.29796 374.041467 
L 829.002034 374.491798 
L 829.69843 374.937219 
L 830.387315 375.377836 
L 831.068849 375.81375 
L 831.743187 376.245062 
L 832.410479 376.671868 
L 833.070871 377.09426 
L 833.724504 377.512329 
L 834.371515 377.926163 
L 835.012037 378.335846 
L 835.646199 378.741461 
L 836.274126 379.143089 
L 836.89594 379.540806 
L 837.511758 379.934688 
" clip-path="url(#p1d2fbaa5d4)" style="fill: none; stroke-dasharray: 4.44,1.92; stroke-dashoffset: 0; stroke: #000000; stroke-opacity: 0.7; stroke-width: 1.2"/>
   </g>
   <g id="line2d_143">
    <path d="M 646.185486 257.56083 
L 657.398155 271.90426 
L 666.933154 284.101588 
L 675.227792 294.712226 
L 682.567942 304.101866 
L 689.150779 312.522739 
L 695.118061 320.156185 
L 700.575128 327.136955 
L 705.602398 333.567922 
L 710.262658 339.529403 
L 714.605867 345.085307 
L 718.672431 350.287322 
L 722.495491 355.177844 
L 726.102569 359.792078 
L 729.51677 364.159579 
L 732.757677 368.305401 
L 735.842035 372.250963 
L 738.784275 376.014725 
L 741.596918 379.612704 
L 744.290901 383.058891 
L 746.875831 386.365577 
L 749.360196 389.543617 
L 751.751528 392.602649 
L 754.056544 395.551263 
L 756.281259 398.397155 
L 758.43108 401.147241 
L 760.510886 403.807763 
L 762.525093 406.38437 
L 764.477714 408.882194 
L 766.372403 411.305912 
L 768.212499 413.659793 
L 770.00106 415.947749 
L 771.740894 418.173374 
L 773.434586 420.339973 
L 775.08452 422.450596 
L 776.692901 424.508063 
L 778.26177 426.514987 
L 779.793023 428.47379 
L 781.28842 430.386726 
L 782.749602 432.255895 
L 784.178101 434.083255 
L 785.575347 435.870634 
L 786.942677 437.619745 
L 788.281346 439.332193 
L 789.592532 441.009483 
L 790.877339 442.653029 
L 792.136808 444.264163 
L 793.371919 445.844138 
L 794.583598 447.394137 
L 795.772715 448.915275 
L 796.940097 450.408609 
L 798.086522 451.875136 
L 799.212732 453.315802 
L 800.319426 454.731502 
L 801.407268 456.123089 
L 802.476892 457.491368 
L 803.528896 458.837109 
L 804.563852 460.161042 
L 805.582303 461.463862 
L 806.584769 462.746232 
L 807.571742 464.008784 
L 808.543694 465.252122 
L 809.501077 466.476821 
L 810.444319 467.683432 
L 811.373833 468.872482 
L 812.290013 470.044474 
L 813.193235 471.199892 
L 814.083862 472.339196 
L 814.96224 473.462831 
L 815.8287 474.571221 
L 816.683563 475.664776 
L 817.527134 476.743886 
L 818.359708 477.808928 
L 819.181567 478.860264 
L 819.992985 479.898244 
L 820.794224 480.923201 
L 821.585534 481.935458 
L 822.36716 482.935327 
L 823.139336 483.923107 
L 823.902287 484.899087 
L 824.656231 485.863545 
L 825.401379 486.81675 
L 826.137933 487.758962 
L 826.866089 488.690431 
L 827.586037 489.611401 
L 828.29796 490.522103 
L 829.002034 491.422767 
L 829.69843 492.313609 
L 830.387315 493.194842 
L 831.068849 494.066671 
L 831.743187 494.929295 
L 832.410479 495.782906 
L 833.070871 496.62769 
L 833.724504 497.463828 
L 834.371515 498.291495 
L 835.012037 499.110862 
L 835.646199 499.922093 
L 836.274126 500.725347 
L 836.89594 501.520781 
L 837.511758 502.308545 
" clip-path="url(#p1d2fbaa5d4)" style="fill: none; stroke-dasharray: 1,1.65; stroke-dashoffset: 0; stroke: #000000; stroke-opacity: 0.5"/>
   </g>
   <g id="patch_15">
    <path d="M 601.916756 525.028 
L 601.916756 25.2 
" style="fill: none; stroke: #000000; stroke-width: 0.8; stroke-linejoin: miter; stroke-linecap: square"/>
   </g>
   <g id="patch_16">
    <path d="M 847.078071 525.028 
L 847.078071 25.2 
" style="fill: none; stroke: #000000; stroke-width: 0.8; stroke-linejoin: miter; stroke-linecap: square"/>
   </g>
   <g id="patch_17">
    <path d="M 601.916756 525.028 
L 847.078071 525.028 
" style="fill: none; stroke: #000000; stroke-width: 0.8; stroke-linejoin: miter; stroke-linecap: square"/>
   </g>
   <g id="patch_18">
    <path d="M 601.916756 25.2 
L 847.078071 25.2 
" style="fill: none; stroke: #000000; stroke-width: 0.8; stroke-linejoin: miter; stroke-linecap: square"/>
   </g>
   <g id="text_28">
    <!-- CFI $F_C^{(S)}$ -->
    <g transform="translate(703.197413 19.2) scale(0.12 -0.12)">
     <defs>
      <path id="DejaVuSans-Oblique-46" d="M 1081 4666 
L 3756 4666 
L 3653 4134 
L 1606 4134 
L 1338 2759 
L 3188 2759 
L 3084 2228 
L 1234 2228 
L 800 0 
L 172 0 
L 1081 4666 
z
" transform="scale(0.015625)"/>
      <path id="DejaVuSans-28" d="M 1984 4856 
Q 1566 4138 1362 3434 
Q 1159 2731 1159 2009 
Q 1159 1288 1364 580 
Q 1569 -128 1984 -844 
L 1484 -844 
Q 1016 -109 783 600 
Q 550 1309 550 2009 
Q 550 2706 781 3412 
Q 1013 4119 1484 4856 
L 1984 4856 
z
" transform="scale(0.015625)"/>
      <path id="DejaVuSans-29" d="M 513 4856 
L 1013 4856 
Q 1481 4119 1714 3412 
Q 1947 2706 1947 2009 
Q 1947 1309 1714 600 
Q 1481 -109 1013 -844 
L 513 -844 
Q 928 -128 1133 580 
Q 1338 1288 1338 2009 
Q 1338 2731 1133 3434 
Q 928 4138 513 4856 
z
" transform="scale(0.015625)"/>
      <path id="DejaVuSans-Oblique-43" d="M 4447 4306 
L 4319 3641 
Q 4019 3944 3683 4091 
Q 3347 4238 2956 4238 
Q 2422 4238 2017 3981 
Q 1613 3725 1319 3200 
Q 1131 2863 1032 2486 
Q 934 2109 934 1728 
Q 934 1091 1264 756 
Q 1594 422 2222 422 
Q 2656 422 3056 561 
Q 3456 700 3834 978 
L 3688 231 
Q 3316 72 2936 -9 
Q 2556 -91 2175 -91 
Q 1278 -91 773 396 
Q 269 884 269 1753 
Q 269 2309 461 2846 
Q 653 3384 1013 3828 
Q 1394 4300 1883 4525 
Q 2372 4750 3022 4750 
Q 3422 4750 3780 4639 
Q 4138 4528 4447 4306 
z
" transform="scale(0.015625)"/>
     </defs>
     <use xlink:href="#DejaVuSans-43" transform="translate(0 0.546875)"/>
     <use xlink:href="#DejaVuSans-46" transform="translate(69.824219 0.546875)"/>
     <use xlink:href="#DejaVuSans-49" transform="translate(127.34375 0.546875)"/>
     <use xlink:href="#DejaVuSans-20" transform="translate(156.835938 0.546875)"/>
     <use xlink:href="#DejaVuSans-Oblique-46" transform="translate(188.623047 0.546875)"/>
     <use xlink:href="#DejaVuSans-28" transform="translate(253.159349 46.8875) scale(0.7)"/>
     <use xlink:href="#DejaVuSans-Oblique-53" transform="translate(280.468919 46.8875) scale(0.7)"/>
     <use xlink:href="#DejaVuSans-29" transform="translate(324.902513 46.8875) scale(0.7)"/>
     <use xlink:href="#DejaVuSans-Oblique-43" transform="translate(246.142578 -26.796875) scale(0.7)"/>
    </g>
   </g>
   <g id="legend_3">
    <g id="patch_19">
     <path d="M 794.158071 85.076875 
L 842.178071 85.076875 
Q 843.578071 85.076875 843.578071 83.676875 
L 843.578071 30.1 
Q 843.578071 28.7 842.178071 28.7 
L 794.158071 28.7 
Q 792.758071 28.7 792.758071 30.1 
L 792.758071 83.676875 
Q 792.758071 85.076875 794.158071 85.076875 
z
" style="fill: #ffffff; opacity: 0.8; stroke: #cccccc; stroke-linejoin: miter"/>
    </g>
    <g id="text_29">
     <!-- $\omega$ -->
     <g transform="translate(813.968071 39.098437) scale(0.1 -0.1)">
      <use xlink:href="#DejaVuSans-Oblique-3c9" transform="translate(0 0.3125)"/>
     </g>
    </g>
    <g id="line2d_144">
     <path d="M 795.558071 47.547031 
L 802.558071 47.547031 
L 809.558071 47.547031 
" style="fill: none; stroke: #414487; stroke-width: 1.2; stroke-linecap: square"/>
     <g>
      <use xlink:href="#m6a7e6a9944" x="802.558071" y="47.547031" style="fill: #414487; stroke: #414487"/>
     </g>
    </g>
    <g id="text_30">
     <!-- $\omega=0.2$ -->
     <g transform="translate(815.158071 49.997031) scale(0.07 -0.07)">
      <use xlink:href="#DejaVuSans-Oblique-3c9" transform="translate(0 0.78125)"/>
      <use xlink:href="#DejaVuSans-3d" transform="translate(103.222656 0.78125)"/>
      <use xlink:href="#DejaVuSans-30" transform="translate(206.494141 0.78125)"/>
      <use xlink:href="#DejaVuSans-2e" transform="translate(270.117188 0.78125)"/>
      <use xlink:href="#DejaVuSans-32" transform="translate(296.404297 0.78125)"/>
     </g>
    </g>
    <g id="line2d_145">
     <path d="M 795.558071 57.821719 
L 802.558071 57.821719 
L 809.558071 57.821719 
" style="fill: none; stroke: #bddf26; stroke-width: 1.2; stroke-linecap: square"/>
     <g>
      <use xlink:href="#mc600b7a9d7" x="802.558071" y="57.821719" style="fill: #bddf26; stroke: #bddf26"/>
     </g>
    </g>
    <g id="text_31">
     <!-- $\omega=1.0$ -->
     <g transform="translate(815.158071 60.271719) scale(0.07 -0.07)">
      <use xlink:href="#DejaVuSans-Oblique-3c9" transform="translate(0 0.78125)"/>
      <use xlink:href="#DejaVuSans-3d" transform="translate(103.222656 0.78125)"/>
      <use xlink:href="#DejaVuSans-31" transform="translate(206.494141 0.78125)"/>
      <use xlink:href="#DejaVuSans-2e" transform="translate(270.117188 0.78125)"/>
      <use xlink:href="#DejaVuSans-30" transform="translate(301.904297 0.78125)"/>
     </g>
    </g>
    <g id="line2d_146">
     <path d="M 795.558071 68.096406 
L 802.558071 68.096406 
L 809.558071 68.096406 
" style="fill: none; stroke-dasharray: 4.44,1.92; stroke-dashoffset: 0; stroke: #000000; stroke-opacity: 0.7; stroke-width: 1.2"/>
    </g>
    <g id="text_32">
     <!-- SQL -->
     <g transform="translate(815.158071 70.546406) scale(0.07 -0.07)">
      <use xlink:href="#DejaVuSans-53"/>
      <use xlink:href="#DejaVuSans-51" transform="translate(63.476562 0)"/>
      <use xlink:href="#DejaVuSans-4c" transform="translate(142.1875 0)"/>
     </g>
    </g>
    <g id="line2d_147">
     <path d="M 795.558071 78.371094 
L 802.558071 78.371094 
L 809.558071 78.371094 
" style="fill: none; stroke-dasharray: 1,1.65; stroke-dashoffset: 0; stroke: #000000; stroke-opacity: 0.5"/>
    </g>
    <g id="text_33">
     <!-- HL -->
     <g transform="translate(815.158071 80.821094) scale(0.07 -0.07)">
      <use xlink:href="#DejaVuSans-48"/>
      <use xlink:href="#DejaVuSans-4c" transform="translate(75.195312 0)"/>
     </g>
    </g>
   </g>
  </g>
 </g>
 <defs>
  <clipPath id="pca96677850">
   <rect x="51.378125" y="25.2" width="245.161315" height="499.828"/>
  </clipPath>
  <clipPath id="p0e7046bcce">
   <rect x="326.64744" y="25.2" width="245.161315" height="499.828"/>
  </clipPath>
  <clipPath id="p1d2fbaa5d4">
   <rect x="601.916756" y="25.2" width="245.161315" height="499.828"/>
  </clipPath>
 </defs>
</svg>
