<?xml version="1.0" encoding="utf-8" standalone="no"?>
<!DOCTYPE svg PUBLIC "-//W3C//DTD SVG 1.1//EN"
  "http://www.w3.org/Graphics/SVG/1.1/DTD/svg11.dtd">
<svg xmlns:xlink="http://www.w3.org/1999/xlink" width="999.061696pt" height="439.179875pt" viewBox="0 0 999.061696 439.179875" xmlns="http://www.w3.org/2000/svg" version="1.1">
 <metadata>
  <rdf:RDF xmlns:dc="http://purl.org/dc/elements/1.1/" xmlns:cc="http://creativecommons.org/ns#" xmlns:rdf="http://www.w3.org/1999/02/22-rdf-syntax-ns#">
   <cc:Work>
    <dc:type rdf:resource="http://purl.org/dc/dcmitype/StillImage"/>
    <dc:date>2026-06-15T12:16:27.354497</dc:date>
    <dc:format>image/svg+xml</dc:format>
    <dc:creator>
     <cc:Agent>
      <dc:title>Matplotlib v3.10.9, https://matplotlib.org/</dc:title>
     </cc:Agent>
    </dc:creator>
   </cc:Work>
  </rdf:RDF>
 </metadata>
 <defs>
  <style type="text/css">*{stroke-linejoin: round; stroke-linecap: butt}</style>
 </defs>
 <g id="figure_1">
  <g id="patch_1">
   <path d="M 0 439.179875 
L 999.061696 439.179875 
L 999.061696 -0 
L 0 -0 
z
" style="fill: #ffffff"/>
  </g>
  <g id="axes_1">
   <g id="patch_2">
    <path d="M 53.31375 399.688 
L 515.437723 399.688 
L 515.437723 67.2 
L 53.31375 67.2 
z
" style="fill: #ffffff"/>
   </g>
   <g id="matplotlib.axis_1">
    <g id="xtick_1">
     <g id="line2d_1">
      <path d="M 136.759385 399.688 
L 136.759385 67.2 
" clip-path="url(#p028b583fa9)" style="fill: none; stroke: #b0b0b0; stroke-opacity: 0.3; stroke-width: 0.8; stroke-linecap: square"/>
     </g>
     <g id="line2d_2">
      <defs>
       <path id="m67b81b6fe8" d="M 0 0 
L 0 3.5 
" style="stroke: #000000; stroke-width: 0.8"/>
      </defs>
      <g>
       <use xlink:href="#m67b81b6fe8" x="136.759385" y="399.688" style="stroke: #000000; stroke-width: 0.8"/>
      </g>
     </g>
     <g id="text_1">
      <!-- $\mathdefault{10^{0}}$ -->
      <g transform="translate(127.959385 414.286437) scale(0.1 -0.1)">
       <defs>
        <path id="DejaVuSans-31" d="M 794 531 
L 1825 531 
L 1825 4091 
L 703 3866 
L 703 4441 
L 1819 4666 
L 2450 4666 
L 2450 531 
L 3481 531 
L 3481 0 
L 794 0 
L 794 531 
z
" transform="scale(0.015625)"/>
        <path id="DejaVuSans-30" d="M 2034 4250 
Q 1547 4250 1301 3770 
Q 1056 3291 1056 2328 
Q 1056 1369 1301 889 
Q 1547 409 2034 409 
Q 2525 409 2770 889 
Q 3016 1369 3016 2328 
Q 3016 3291 2770 3770 
Q 2525 4250 2034 4250 
z
M 2034 4750 
Q 2819 4750 3233 4129 
Q 3647 3509 3647 2328 
Q 3647 1150 3233 529 
Q 2819 -91 2034 -91 
Q 1250 -91 836 529 
Q 422 1150 422 2328 
Q 422 3509 836 4129 
Q 1250 4750 2034 4750 
z
" transform="scale(0.015625)"/>
       </defs>
       <use xlink:href="#DejaVuSans-31" transform="translate(0 0.765625)"/>
       <use xlink:href="#DejaVuSans-30" transform="translate(63.623047 0.765625)"/>
       <use xlink:href="#DejaVuSans-30" transform="translate(128.203125 39.046875) scale(0.7)"/>
      </g>
     </g>
    </g>
    <g id="xtick_2">
     <g id="line2d_3">
      <path d="M 413.959786 399.688 
L 413.959786 67.2 
" clip-path="url(#p028b583fa9)" style="fill: none; stroke: #b0b0b0; stroke-opacity: 0.3; stroke-width: 0.8; stroke-linecap: square"/>
     </g>
     <g id="line2d_4">
      <g>
       <use xlink:href="#m67b81b6fe8" x="413.959786" y="399.688" style="stroke: #000000; stroke-width: 0.8"/>
      </g>
     </g>
     <g id="text_2">
      <!-- $\mathdefault{10^{1}}$ -->
      <g transform="translate(405.159786 414.286437) scale(0.1 -0.1)">
       <use xlink:href="#DejaVuSans-31" transform="translate(0 0.684375)"/>
       <use xlink:href="#DejaVuSans-30" transform="translate(63.623047 0.684375)"/>
       <use xlink:href="#DejaVuSans-31" transform="translate(128.203125 38.965625) scale(0.7)"/>
      </g>
     </g>
    </g>
    <g id="xtick_3">
     <g id="line2d_5">
      <path d="M 53.31375 399.688 
L 53.31375 67.2 
" clip-path="url(#p028b583fa9)" style="fill: none; stroke: #b0b0b0; stroke-opacity: 0.3; stroke-width: 0.8; stroke-linecap: square"/>
     </g>
     <g id="line2d_6">
      <defs>
       <path id="m8b651c8e53" d="M 0 0 
L 0 2 
" style="stroke: #000000; stroke-width: 0.6"/>
      </defs>
      <g>
       <use xlink:href="#m8b651c8e53" x="53.31375" y="399.688" style="stroke: #000000; stroke-width: 0.6"/>
      </g>
     </g>
    </g>
    <g id="xtick_4">
     <g id="line2d_7">
      <path d="M 75.262823 399.688 
L 75.262823 67.2 
" clip-path="url(#p028b583fa9)" style="fill: none; stroke: #b0b0b0; stroke-opacity: 0.3; stroke-width: 0.8; stroke-linecap: square"/>
     </g>
     <g id="line2d_8">
      <g>
       <use xlink:href="#m8b651c8e53" x="75.262823" y="399.688" style="stroke: #000000; stroke-width: 0.6"/>
      </g>
     </g>
    </g>
    <g id="xtick_5">
     <g id="line2d_9">
      <path d="M 93.8205 399.688 
L 93.8205 67.2 
" clip-path="url(#p028b583fa9)" style="fill: none; stroke: #b0b0b0; stroke-opacity: 0.3; stroke-width: 0.8; stroke-linecap: square"/>
     </g>
     <g id="line2d_10">
      <g>
       <use xlink:href="#m8b651c8e53" x="93.8205" y="399.688" style="stroke: #000000; stroke-width: 0.6"/>
      </g>
     </g>
    </g>
    <g id="xtick_6">
     <g id="line2d_11">
      <path d="M 109.895891 399.688 
L 109.895891 67.2 
" clip-path="url(#p028b583fa9)" style="fill: none; stroke: #b0b0b0; stroke-opacity: 0.3; stroke-width: 0.8; stroke-linecap: square"/>
     </g>
     <g id="line2d_12">
      <g>
       <use xlink:href="#m8b651c8e53" x="109.895891" y="399.688" style="stroke: #000000; stroke-width: 0.6"/>
      </g>
     </g>
    </g>
    <g id="xtick_7">
     <g id="line2d_13">
      <path d="M 124.075391 399.688 
L 124.075391 67.2 
" clip-path="url(#p028b583fa9)" style="fill: none; stroke: #b0b0b0; stroke-opacity: 0.3; stroke-width: 0.8; stroke-linecap: square"/>
     </g>
     <g id="line2d_14">
      <g>
       <use xlink:href="#m8b651c8e53" x="124.075391" y="399.688" style="stroke: #000000; stroke-width: 0.6"/>
      </g>
     </g>
    </g>
    <g id="xtick_8">
     <g id="line2d_15">
      <path d="M 220.205021 399.688 
L 220.205021 67.2 
" clip-path="url(#p028b583fa9)" style="fill: none; stroke: #b0b0b0; stroke-opacity: 0.3; stroke-width: 0.8; stroke-linecap: square"/>
     </g>
     <g id="line2d_16">
      <g>
       <use xlink:href="#m8b651c8e53" x="220.205021" y="399.688" style="stroke: #000000; stroke-width: 0.6"/>
      </g>
     </g>
    </g>
    <g id="xtick_9">
     <g id="line2d_17">
      <path d="M 269.017588 399.688 
L 269.017588 67.2 
" clip-path="url(#p028b583fa9)" style="fill: none; stroke: #b0b0b0; stroke-opacity: 0.3; stroke-width: 0.8; stroke-linecap: square"/>
     </g>
     <g id="line2d_18">
      <g>
       <use xlink:href="#m8b651c8e53" x="269.017588" y="399.688" style="stroke: #000000; stroke-width: 0.6"/>
      </g>
     </g>
    </g>
    <g id="xtick_10">
     <g id="line2d_19">
      <path d="M 303.650656 399.688 
L 303.650656 67.2 
" clip-path="url(#p028b583fa9)" style="fill: none; stroke: #b0b0b0; stroke-opacity: 0.3; stroke-width: 0.8; stroke-linecap: square"/>
     </g>
     <g id="line2d_20">
      <g>
       <use xlink:href="#m8b651c8e53" x="303.650656" y="399.688" style="stroke: #000000; stroke-width: 0.6"/>
      </g>
     </g>
    </g>
    <g id="xtick_11">
     <g id="line2d_21">
      <path d="M 330.514151 399.688 
L 330.514151 67.2 
" clip-path="url(#p028b583fa9)" style="fill: none; stroke: #b0b0b0; stroke-opacity: 0.3; stroke-width: 0.8; stroke-linecap: square"/>
     </g>
     <g id="line2d_22">
      <g>
       <use xlink:href="#m8b651c8e53" x="330.514151" y="399.688" style="stroke: #000000; stroke-width: 0.6"/>
      </g>
     </g>
    </g>
    <g id="xtick_12">
     <g id="line2d_23">
      <path d="M 352.463224 399.688 
L 352.463224 67.2 
" clip-path="url(#p028b583fa9)" style="fill: none; stroke: #b0b0b0; stroke-opacity: 0.3; stroke-width: 0.8; stroke-linecap: square"/>
     </g>
     <g id="line2d_24">
      <g>
       <use xlink:href="#m8b651c8e53" x="352.463224" y="399.688" style="stroke: #000000; stroke-width: 0.6"/>
      </g>
     </g>
    </g>
    <g id="xtick_13">
     <g id="line2d_25">
      <path d="M 371.020901 399.688 
L 371.020901 67.2 
" clip-path="url(#p028b583fa9)" style="fill: none; stroke: #b0b0b0; stroke-opacity: 0.3; stroke-width: 0.8; stroke-linecap: square"/>
     </g>
     <g id="line2d_26">
      <g>
       <use xlink:href="#m8b651c8e53" x="371.020901" y="399.688" style="stroke: #000000; stroke-width: 0.6"/>
      </g>
     </g>
    </g>
    <g id="xtick_14">
     <g id="line2d_27">
      <path d="M 387.096291 399.688 
L 387.096291 67.2 
" clip-path="url(#p028b583fa9)" style="fill: none; stroke: #b0b0b0; stroke-opacity: 0.3; stroke-width: 0.8; stroke-linecap: square"/>
     </g>
     <g id="line2d_28">
      <g>
       <use xlink:href="#m8b651c8e53" x="387.096291" y="399.688" style="stroke: #000000; stroke-width: 0.6"/>
      </g>
     </g>
    </g>
    <g id="xtick_15">
     <g id="line2d_29">
      <path d="M 401.275791 399.688 
L 401.275791 67.2 
" clip-path="url(#p028b583fa9)" style="fill: none; stroke: #b0b0b0; stroke-opacity: 0.3; stroke-width: 0.8; stroke-linecap: square"/>
     </g>
     <g id="line2d_30">
      <g>
       <use xlink:href="#m8b651c8e53" x="401.275791" y="399.688" style="stroke: #000000; stroke-width: 0.6"/>
      </g>
     </g>
    </g>
    <g id="xtick_16">
     <g id="line2d_31">
      <path d="M 497.405421 399.688 
L 497.405421 67.2 
" clip-path="url(#p028b583fa9)" style="fill: none; stroke: #b0b0b0; stroke-opacity: 0.3; stroke-width: 0.8; stroke-linecap: square"/>
     </g>
     <g id="line2d_32">
      <g>
       <use xlink:href="#m8b651c8e53" x="497.405421" y="399.688" style="stroke: #000000; stroke-width: 0.6"/>
      </g>
     </g>
    </g>
    <g id="text_3">
     <!-- $ -->
     <g transform="translate(280.558237 429.48425) scale(0.12 -0.12)">
      <defs>
       <path id="DejaVuSans-24" d="M 2163 -941 
L 1850 -941 
L 1847 0 
Q 1519 6 1191 76 
Q 863 147 531 288 
L 531 850 
Q 850 650 1176 548 
Q 1503 447 1850 444 
L 1850 1869 
Q 1159 1981 845 2250 
Q 531 2519 531 2988 
Q 531 3497 872 3790 
Q 1213 4084 1850 4128 
L 1850 4863 
L 2163 4863 
L 2163 4138 
Q 2453 4125 2725 4076 
Q 2997 4028 3256 3944 
L 3256 3397 
Q 2997 3528 2723 3600 
Q 2450 3672 2163 3684 
L 2163 2350 
Q 2872 2241 3206 1959 
Q 3541 1678 3541 1191 
Q 3541 663 3186 358 
Q 2831 53 2163 6 
L 2163 -941 
z
M 1850 2406 
L 1850 3688 
Q 1488 3647 1297 3481 
Q 1106 3316 1106 3041 
Q 1106 2772 1282 2622 
Q 1459 2472 1850 2406 
z
M 2163 1806 
L 2163 453 
Q 2559 506 2761 678 
Q 2963 850 2963 1131 
Q 2963 1406 2770 1568 
Q 2578 1731 2163 1806 
z
" transform="scale(0.015625)"/>
      </defs>
      <use xlink:href="#DejaVuSans-24"/>
     </g>
    </g>
   </g>
   <g id="matplotlib.axis_2">
    <g id="ytick_1">
     <g id="line2d_33">
      <path d="M 53.31375 315.949065 
L 515.437723 315.949065 
" clip-path="url(#p028b583fa9)" style="fill: none; stroke: #b0b0b0; stroke-opacity: 0.3; stroke-width: 0.8; stroke-linecap: square"/>
     </g>
     <g id="line2d_34">
      <defs>
       <path id="mea7f9f4ffd" d="M 0 0 
L -3.5 0 
" style="stroke: #000000; stroke-width: 0.8"/>
      </defs>
      <g>
       <use xlink:href="#mea7f9f4ffd" x="53.31375" y="315.949065" style="stroke: #000000; stroke-width: 0.8"/>
      </g>
     </g>
     <g id="text_4">
      <!-- $\mathdefault{10^{-2}}$ -->
      <g transform="translate(22.81375 319.748284) scale(0.1 -0.1)">
       <defs>
        <path id="DejaVuSans-2212" d="M 678 2272 
L 4684 2272 
L 4684 1741 
L 678 1741 
L 678 2272 
z
" transform="scale(0.015625)"/>
        <path id="DejaVuSans-32" d="M 1228 531 
L 3431 531 
L 3431 0 
L 469 0 
L 469 531 
Q 828 903 1448 1529 
Q 2069 2156 2228 2338 
Q 2531 2678 2651 2914 
Q 2772 3150 2772 3378 
Q 2772 3750 2511 3984 
Q 2250 4219 1831 4219 
Q 1534 4219 1204 4116 
Q 875 4013 500 3803 
L 500 4441 
Q 881 4594 1212 4672 
Q 1544 4750 1819 4750 
Q 2544 4750 2975 4387 
Q 3406 4025 3406 3419 
Q 3406 3131 3298 2873 
Q 3191 2616 2906 2266 
Q 2828 2175 2409 1742 
Q 1991 1309 1228 531 
z
" transform="scale(0.015625)"/>
       </defs>
       <use xlink:href="#DejaVuSans-31" transform="translate(0 0.765625)"/>
       <use xlink:href="#DejaVuSans-30" transform="translate(63.623047 0.765625)"/>
       <use xlink:href="#DejaVuSans-2212" transform="translate(128.203125 39.046875) scale(0.7)"/>
       <use xlink:href="#DejaVuSans-32" transform="translate(186.855469 39.046875) scale(0.7)"/>
      </g>
     </g>
    </g>
    <g id="ytick_2">
     <g id="line2d_35">
      <path d="M 53.31375 87.978947 
L 515.437723 87.978947 
" clip-path="url(#p028b583fa9)" style="fill: none; stroke: #b0b0b0; stroke-opacity: 0.3; stroke-width: 0.8; stroke-linecap: square"/>
     </g>
     <g id="line2d_36">
      <g>
       <use xlink:href="#mea7f9f4ffd" x="53.31375" y="87.978947" style="stroke: #000000; stroke-width: 0.8"/>
      </g>
     </g>
     <g id="text_5">
      <!-- $\mathdefault{10^{-1}}$ -->
      <g transform="translate(22.81375 91.778166) scale(0.1 -0.1)">
       <use xlink:href="#DejaVuSans-31" transform="translate(0 0.684375)"/>
       <use xlink:href="#DejaVuSans-30" transform="translate(63.623047 0.684375)"/>
       <use xlink:href="#DejaVuSans-2212" transform="translate(128.203125 38.965625) scale(0.7)"/>
       <use xlink:href="#DejaVuSans-31" transform="translate(186.855469 38.965625) scale(0.7)"/>
      </g>
     </g>
    </g>
    <g id="ytick_3">
     <g id="line2d_37">
      <path d="M 53.31375 384.574909 
L 515.437723 384.574909 
" clip-path="url(#p028b583fa9)" style="fill: none; stroke: #b0b0b0; stroke-opacity: 0.3; stroke-width: 0.8; stroke-linecap: square"/>
     </g>
     <g id="line2d_38">
      <defs>
       <path id="m05056d6f63" d="M 0 0 
L -2 0 
" style="stroke: #000000; stroke-width: 0.6"/>
      </defs>
      <g>
       <use xlink:href="#m05056d6f63" x="53.31375" y="384.574909" style="stroke: #000000; stroke-width: 0.6"/>
      </g>
     </g>
    </g>
    <g id="ytick_4">
     <g id="line2d_39">
      <path d="M 53.31375 366.523951 
L 515.437723 366.523951 
" clip-path="url(#p028b583fa9)" style="fill: none; stroke: #b0b0b0; stroke-opacity: 0.3; stroke-width: 0.8; stroke-linecap: square"/>
     </g>
     <g id="line2d_40">
      <g>
       <use xlink:href="#m05056d6f63" x="53.31375" y="366.523951" style="stroke: #000000; stroke-width: 0.6"/>
      </g>
     </g>
    </g>
    <g id="ytick_5">
     <g id="line2d_41">
      <path d="M 53.31375 351.262084 
L 515.437723 351.262084 
" clip-path="url(#p028b583fa9)" style="fill: none; stroke: #b0b0b0; stroke-opacity: 0.3; stroke-width: 0.8; stroke-linecap: square"/>
     </g>
     <g id="line2d_42">
      <g>
       <use xlink:href="#m05056d6f63" x="53.31375" y="351.262084" style="stroke: #000000; stroke-width: 0.6"/>
      </g>
     </g>
    </g>
    <g id="ytick_6">
     <g id="line2d_43">
      <path d="M 53.31375 338.041653 
L 515.437723 338.041653 
" clip-path="url(#p028b583fa9)" style="fill: none; stroke: #b0b0b0; stroke-opacity: 0.3; stroke-width: 0.8; stroke-linecap: square"/>
     </g>
     <g id="line2d_44">
      <g>
       <use xlink:href="#m05056d6f63" x="53.31375" y="338.041653" style="stroke: #000000; stroke-width: 0.6"/>
      </g>
     </g>
    </g>
    <g id="ytick_7">
     <g id="line2d_45">
      <path d="M 53.31375 326.380406 
L 515.437723 326.380406 
" clip-path="url(#p028b583fa9)" style="fill: none; stroke: #b0b0b0; stroke-opacity: 0.3; stroke-width: 0.8; stroke-linecap: square"/>
     </g>
     <g id="line2d_46">
      <g>
       <use xlink:href="#m05056d6f63" x="53.31375" y="326.380406" style="stroke: #000000; stroke-width: 0.6"/>
      </g>
     </g>
    </g>
    <g id="ytick_8">
     <g id="line2d_47">
      <path d="M 53.31375 247.323222 
L 515.437723 247.323222 
" clip-path="url(#p028b583fa9)" style="fill: none; stroke: #b0b0b0; stroke-opacity: 0.3; stroke-width: 0.8; stroke-linecap: square"/>
     </g>
     <g id="line2d_48">
      <g>
       <use xlink:href="#m05056d6f63" x="53.31375" y="247.323222" style="stroke: #000000; stroke-width: 0.6"/>
      </g>
     </g>
    </g>
    <g id="ytick_9">
     <g id="line2d_49">
      <path d="M 53.31375 207.179677 
L 515.437723 207.179677 
" clip-path="url(#p028b583fa9)" style="fill: none; stroke: #b0b0b0; stroke-opacity: 0.3; stroke-width: 0.8; stroke-linecap: square"/>
     </g>
     <g id="line2d_50">
      <g>
       <use xlink:href="#m05056d6f63" x="53.31375" y="207.179677" style="stroke: #000000; stroke-width: 0.6"/>
      </g>
     </g>
    </g>
    <g id="ytick_10">
     <g id="line2d_51">
      <path d="M 53.31375 178.697378 
L 515.437723 178.697378 
" clip-path="url(#p028b583fa9)" style="fill: none; stroke: #b0b0b0; stroke-opacity: 0.3; stroke-width: 0.8; stroke-linecap: square"/>
     </g>
     <g id="line2d_52">
      <g>
       <use xlink:href="#m05056d6f63" x="53.31375" y="178.697378" style="stroke: #000000; stroke-width: 0.6"/>
      </g>
     </g>
    </g>
    <g id="ytick_11">
     <g id="line2d_53">
      <path d="M 53.31375 156.604791 
L 515.437723 156.604791 
" clip-path="url(#p028b583fa9)" style="fill: none; stroke: #b0b0b0; stroke-opacity: 0.3; stroke-width: 0.8; stroke-linecap: square"/>
     </g>
     <g id="line2d_54">
      <g>
       <use xlink:href="#m05056d6f63" x="53.31375" y="156.604791" style="stroke: #000000; stroke-width: 0.6"/>
      </g>
     </g>
    </g>
    <g id="ytick_12">
     <g id="line2d_55">
      <path d="M 53.31375 138.553833 
L 515.437723 138.553833 
" clip-path="url(#p028b583fa9)" style="fill: none; stroke: #b0b0b0; stroke-opacity: 0.3; stroke-width: 0.8; stroke-linecap: square"/>
     </g>
     <g id="line2d_56">
      <g>
       <use xlink:href="#m05056d6f63" x="53.31375" y="138.553833" style="stroke: #000000; stroke-width: 0.6"/>
      </g>
     </g>
    </g>
    <g id="ytick_13">
     <g id="line2d_57">
      <path d="M 53.31375 123.291965 
L 515.437723 123.291965 
" clip-path="url(#p028b583fa9)" style="fill: none; stroke: #b0b0b0; stroke-opacity: 0.3; stroke-width: 0.8; stroke-linecap: square"/>
     </g>
     <g id="line2d_58">
      <g>
       <use xlink:href="#m05056d6f63" x="53.31375" y="123.291965" style="stroke: #000000; stroke-width: 0.6"/>
      </g>
     </g>
    </g>
    <g id="ytick_14">
     <g id="line2d_59">
      <path d="M 53.31375 110.071534 
L 515.437723 110.071534 
" clip-path="url(#p028b583fa9)" style="fill: none; stroke: #b0b0b0; stroke-opacity: 0.3; stroke-width: 0.8; stroke-linecap: square"/>
     </g>
     <g id="line2d_60">
      <g>
       <use xlink:href="#m05056d6f63" x="53.31375" y="110.071534" style="stroke: #000000; stroke-width: 0.6"/>
      </g>
     </g>
    </g>
    <g id="ytick_15">
     <g id="line2d_61">
      <path d="M 53.31375 98.410288 
L 515.437723 98.410288 
" clip-path="url(#p028b583fa9)" style="fill: none; stroke: #b0b0b0; stroke-opacity: 0.3; stroke-width: 0.8; stroke-linecap: square"/>
     </g>
     <g id="line2d_62">
      <g>
       <use xlink:href="#m05056d6f63" x="53.31375" y="98.410288" style="stroke: #000000; stroke-width: 0.6"/>
      </g>
     </g>
    </g>
    <g id="text_6">
     <!-- $\Delta\omega$ -->
     <g transform="translate(16.318125 242.624) rotate(-90) scale(0.12 -0.12)">
      <defs>
       <path id="DejaVuSans-394" d="M 2188 4044 
L 906 525 
L 3472 525 
L 2188 4044 
z
M 50 0 
L 1831 4666 
L 2547 4666 
L 4325 0 
L 50 0 
z
" transform="scale(0.015625)"/>
       <path id="DejaVuSans-Oblique-3c9" d="M 1369 -91 
Q 72 -91 434 1766 
Q 575 2500 1256 3500 
L 1875 3500 
Q 1231 2500 1088 1750 
Q 819 397 1519 397 
Q 2166 397 2478 2078 
L 3009 2078 
Q 2669 388 3316 397 
Q 4013 403 4275 1750 
Q 4419 2500 4169 3500 
L 4788 3500 
Q 5075 2500 4934 1766 
Q 4578 -94 3278 -91 
Q 2428 -88 2503 844 
Q 2194 -91 1369 -91 
z
" transform="scale(0.015625)"/>
      </defs>
      <use xlink:href="#DejaVuSans-394" transform="translate(0 0.09375)"/>
      <use xlink:href="#DejaVuSans-Oblique-3c9" transform="translate(68.408203 0.09375)"/>
     </g>
    </g>
   </g>
   <g id="line2d_63">
    <path d="M 136.759385 82.313091 
L 220.205021 116.327524 
L 269.017588 136.159402 
L 303.650656 159.39503 
L 330.514151 170.839946 
L 387.096291 190.917708 
L 413.959786 200.217081 
L 462.772353 221.238007 
L 497.405421 237.18812 
" clip-path="url(#p028b583fa9)" style="fill: none; stroke-dasharray: 3.7,1.6; stroke-dashoffset: 0; stroke: #808080; stroke-opacity: 0.5"/>
    <defs>
     <path id="mb24e65698b" d="M -2.5 2.5 
L 2.5 2.5 
L 2.5 -2.5 
L -2.5 -2.5 
z
" style="stroke: #808080; stroke-opacity: 0.5; stroke-linejoin: miter"/>
    </defs>
    <g clip-path="url(#p028b583fa9)">
     <use xlink:href="#mb24e65698b" x="136.759385" y="82.313091" style="fill: #808080; fill-opacity: 0.5; stroke: #808080; stroke-opacity: 0.5; stroke-linejoin: miter"/>
     <use xlink:href="#mb24e65698b" x="220.205021" y="116.327524" style="fill: #808080; fill-opacity: 0.5; stroke: #808080; stroke-opacity: 0.5; stroke-linejoin: miter"/>
     <use xlink:href="#mb24e65698b" x="269.017588" y="136.159402" style="fill: #808080; fill-opacity: 0.5; stroke: #808080; stroke-opacity: 0.5; stroke-linejoin: miter"/>
     <use xlink:href="#mb24e65698b" x="303.650656" y="159.39503" style="fill: #808080; fill-opacity: 0.5; stroke: #808080; stroke-opacity: 0.5; stroke-linejoin: miter"/>
     <use xlink:href="#mb24e65698b" x="330.514151" y="170.839946" style="fill: #808080; fill-opacity: 0.5; stroke: #808080; stroke-opacity: 0.5; stroke-linejoin: miter"/>
     <use xlink:href="#mb24e65698b" x="387.096291" y="190.917708" style="fill: #808080; fill-opacity: 0.5; stroke: #808080; stroke-opacity: 0.5; stroke-linejoin: miter"/>
     <use xlink:href="#mb24e65698b" x="413.959786" y="200.217081" style="fill: #808080; fill-opacity: 0.5; stroke: #808080; stroke-opacity: 0.5; stroke-linejoin: miter"/>
     <use xlink:href="#mb24e65698b" x="462.772353" y="221.238007" style="fill: #808080; fill-opacity: 0.5; stroke: #808080; stroke-opacity: 0.5; stroke-linejoin: miter"/>
     <use xlink:href="#mb24e65698b" x="497.405421" y="237.18812" style="fill: #808080; fill-opacity: 0.5; stroke: #808080; stroke-opacity: 0.5; stroke-linejoin: miter"/>
    </g>
   </g>
   <g id="line2d_64">
    <path d="M 136.759385 245.559219 
L 220.205021 218.952099 
L 269.017588 229.694858 
L 303.650656 213.959502 
L 330.514151 213.945895 
L 352.463224 209.929488 
L 371.020901 210.965027 
L 387.096291 215.490774 
L 401.275791 219.627831 
L 413.959786 223.432732 
" clip-path="url(#p028b583fa9)" style="fill: none; stroke: #1f77b4; stroke-width: 1.5; stroke-linecap: square"/>
    <defs>
     <path id="ma3eeb2bf81" d="M 0 3 
C 0.795609 3 1.55874 2.683901 2.12132 2.12132 
C 2.683901 1.55874 3 0.795609 3 0 
C 3 -0.795609 2.683901 -1.55874 2.12132 -2.12132 
C 1.55874 -2.683901 0.795609 -3 0 -3 
C -0.795609 -3 -1.55874 -2.683901 -2.12132 -2.12132 
C -2.683901 -1.55874 -3 -0.795609 -3 0 
C -3 0.795609 -2.683901 1.55874 -2.12132 2.12132 
C -1.55874 2.683901 -0.795609 3 0 3 
z
" style="stroke: #1f77b4"/>
    </defs>
    <g clip-path="url(#p028b583fa9)">
     <use xlink:href="#ma3eeb2bf81" x="136.759385" y="245.559219" style="fill: #1f77b4; stroke: #1f77b4"/>
     <use xlink:href="#ma3eeb2bf81" x="220.205021" y="218.952099" style="fill: #1f77b4; stroke: #1f77b4"/>
     <use xlink:href="#ma3eeb2bf81" x="269.017588" y="229.694858" style="fill: #1f77b4; stroke: #1f77b4"/>
     <use xlink:href="#ma3eeb2bf81" x="303.650656" y="213.959502" style="fill: #1f77b4; stroke: #1f77b4"/>
     <use xlink:href="#ma3eeb2bf81" x="330.514151" y="213.945895" style="fill: #1f77b4; stroke: #1f77b4"/>
     <use xlink:href="#ma3eeb2bf81" x="352.463224" y="209.929488" style="fill: #1f77b4; stroke: #1f77b4"/>
     <use xlink:href="#ma3eeb2bf81" x="371.020901" y="210.965027" style="fill: #1f77b4; stroke: #1f77b4"/>
     <use xlink:href="#ma3eeb2bf81" x="387.096291" y="215.490774" style="fill: #1f77b4; stroke: #1f77b4"/>
     <use xlink:href="#ma3eeb2bf81" x="401.275791" y="219.627831" style="fill: #1f77b4; stroke: #1f77b4"/>
     <use xlink:href="#ma3eeb2bf81" x="413.959786" y="223.432732" style="fill: #1f77b4; stroke: #1f77b4"/>
    </g>
   </g>
   <g id="line2d_65">
    <path d="M 136.759385 245.559219 
L 220.205021 232.527166 
L 269.017588 244.462972 
L 303.650656 236.663017 
L 330.514151 238.459957 
L 352.463224 243.43654 
L 371.020901 243.087165 
L 387.096291 247.791633 
L 401.275791 248.603284 
L 413.959786 252.45863 
" clip-path="url(#p028b583fa9)" style="fill: none; stroke: #2ca02c; stroke-width: 1.5; stroke-linecap: square"/>
    <defs>
     <path id="m77e610cd40" d="M 0 -3 
L -3 3 
L 3 3 
z
" style="stroke: #2ca02c; stroke-linejoin: miter"/>
    </defs>
    <g clip-path="url(#p028b583fa9)">
     <use xlink:href="#m77e610cd40" x="136.759385" y="245.559219" style="fill: #2ca02c; stroke: #2ca02c; stroke-linejoin: miter"/>
     <use xlink:href="#m77e610cd40" x="220.205021" y="232.527166" style="fill: #2ca02c; stroke: #2ca02c; stroke-linejoin: miter"/>
     <use xlink:href="#m77e610cd40" x="269.017588" y="244.462972" style="fill: #2ca02c; stroke: #2ca02c; stroke-linejoin: miter"/>
     <use xlink:href="#m77e610cd40" x="303.650656" y="236.663017" style="fill: #2ca02c; stroke: #2ca02c; stroke-linejoin: miter"/>
     <use xlink:href="#m77e610cd40" x="330.514151" y="238.459957" style="fill: #2ca02c; stroke: #2ca02c; stroke-linejoin: miter"/>
     <use xlink:href="#m77e610cd40" x="352.463224" y="243.43654" style="fill: #2ca02c; stroke: #2ca02c; stroke-linejoin: miter"/>
     <use xlink:href="#m77e610cd40" x="371.020901" y="243.087165" style="fill: #2ca02c; stroke: #2ca02c; stroke-linejoin: miter"/>
     <use xlink:href="#m77e610cd40" x="387.096291" y="247.791633" style="fill: #2ca02c; stroke: #2ca02c; stroke-linejoin: miter"/>
     <use xlink:href="#m77e610cd40" x="401.275791" y="248.603284" style="fill: #2ca02c; stroke: #2ca02c; stroke-linejoin: miter"/>
     <use xlink:href="#m77e610cd40" x="413.959786" y="252.45863" style="fill: #2ca02c; stroke: #2ca02c; stroke-linejoin: miter"/>
    </g>
   </g>
   <g id="line2d_66">
    <path d="M 220.205021 222.227333 
L 303.650656 228.681985 
L 352.463224 232.328118 
L 387.096291 232.769506 
L 413.959786 231.297565 
" clip-path="url(#p028b583fa9)" style="fill: none; stroke: #d62728; stroke-width: 1.5; stroke-linecap: square"/>
    <defs>
     <path id="m1c729b3372" d="M -3 3 
L 3 3 
L 3 -3 
L -3 -3 
z
" style="stroke: #d62728; stroke-linejoin: miter"/>
    </defs>
    <g clip-path="url(#p028b583fa9)">
     <use xlink:href="#m1c729b3372" x="220.205021" y="222.227333" style="fill: #d62728; stroke: #d62728; stroke-linejoin: miter"/>
     <use xlink:href="#m1c729b3372" x="303.650656" y="228.681985" style="fill: #d62728; stroke: #d62728; stroke-linejoin: miter"/>
     <use xlink:href="#m1c729b3372" x="352.463224" y="232.328118" style="fill: #d62728; stroke: #d62728; stroke-linejoin: miter"/>
     <use xlink:href="#m1c729b3372" x="387.096291" y="232.769506" style="fill: #d62728; stroke: #d62728; stroke-linejoin: miter"/>
     <use xlink:href="#m1c729b3372" x="413.959786" y="231.297565" style="fill: #d62728; stroke: #d62728; stroke-linejoin: miter"/>
    </g>
   </g>
   <g id="line2d_67">
    <path d="M 136.759385 87.978947 
L 157.895032 96.669945 
L 175.868307 104.060572 
L 191.503527 110.489789 
L 205.339556 116.179176 
L 217.748066 121.281567 
L 228.996269 125.906838 
L 239.282727 130.136639 
L 248.759027 134.033303 
L 257.543519 137.645494 
L 265.730378 141.011938 
L 273.395765 144.163952 
L 280.602154 147.127226 
L 287.401422 149.923091 
L 293.837118 152.569455 
L 299.946161 155.081499 
L 305.760112 157.472201 
L 311.306173 159.752747 
L 316.607946 161.932841 
L 321.686048 164.02096 
L 326.558588 166.024554 
L 331.241564 167.950198 
L 335.749175 169.803732 
L 340.094083 171.590362 
L 344.287624 173.31475 
L 348.339992 174.981087 
L 352.260382 176.593155 
L 356.057121 178.154377 
L 359.73777 179.667864 
L 363.309219 181.136447 
L 366.777762 182.562715 
L 370.149162 183.949037 
L 373.428713 185.297592 
L 376.621287 186.610381 
L 379.731379 187.889254 
L 382.763144 189.135919 
L 385.72043 190.351957 
L 388.606808 191.538839 
L 391.425601 192.697929 
L 394.179899 193.830499 
L 396.87259 194.937736 
L 399.506369 196.020748 
L 402.083758 197.080573 
L 404.607122 198.118182 
L 407.078679 199.134489 
L 409.500513 200.130349 
L 411.874586 201.10657 
L 414.202746 202.063912 
L 416.486734 203.00309 
L 418.728196 203.924781 
L 420.928685 204.829624 
L 423.089674 205.718225 
L 425.212556 206.591156 
L 427.29865 207.44896 
L 429.349211 208.292152 
L 431.365429 209.121223 
L 433.348435 209.936637 
L 435.299305 210.738836 
L 437.219065 211.528243 
L 439.108691 212.305259 
L 440.969115 213.070267 
L 442.801225 213.823633 
L 444.605871 214.565705 
L 446.383863 215.296817 
L 448.135978 216.017288 
L 449.862958 216.727424 
L 451.565513 217.427516 
L 453.244326 218.117845 
L 454.90005 218.79868 
L 456.533309 219.470278 
L 458.144708 220.132887 
L 459.734821 220.786743 
L 461.304206 221.432075 
L 462.853395 222.069103 
L 464.382901 222.698037 
L 465.893218 223.319081 
L 467.384822 223.93243 
L 468.858171 224.538273 
L 470.313706 225.13679 
L 471.751853 225.728157 
L 473.173022 226.312543 
L 474.57761 226.890111 
L 475.965999 227.461018 
L 477.338558 228.025416 
L 478.695645 228.583451 
L 480.037604 229.135266 
L 481.364769 229.680997 
L 482.677462 230.220778 
L 483.975996 230.754736 
L 485.260673 231.282997 
L 486.531786 231.805679 
L 487.789617 232.322901 
L 489.034442 232.834774 
L 490.266527 233.341408 
L 491.486129 233.84291 
L 492.693501 234.339382 
L 493.888883 234.830924 
L 495.072512 235.317634 
L 496.244618 235.799605 
L 497.405421 236.276928 
" clip-path="url(#p028b583fa9)" style="fill: none; stroke-dasharray: 4.44,1.92; stroke-dashoffset: 0; stroke: #000000; stroke-opacity: 0.7; stroke-width: 1.2"/>
   </g>
   <g id="line2d_68">
    <path d="M 136.759385 87.978947 
L 157.895032 105.360942 
L 175.868307 120.142196 
L 191.503527 133.00063 
L 205.339556 144.379405 
L 217.748066 154.584187 
L 228.996269 163.834729 
L 239.282727 172.294332 
L 248.759027 180.087658 
L 257.543519 187.312041 
L 265.730378 194.044928 
L 273.395765 200.348957 
L 280.602154 206.275504 
L 287.401422 211.867234 
L 293.837118 217.159963 
L 299.946161 222.184051 
L 305.760112 226.965455 
L 311.306173 231.526546 
L 316.607946 235.886734 
L 321.686048 240.062974 
L 326.558588 244.07016 
L 331.241564 247.921448 
L 335.749175 251.628516 
L 340.094083 255.201776 
L 344.287624 258.650552 
L 348.339992 261.983226 
L 352.260382 265.207362 
L 356.057121 268.329807 
L 359.73777 271.35678 
L 363.309219 274.293946 
L 366.777762 277.146482 
L 370.149162 279.919128 
L 373.428713 282.616237 
L 376.621287 285.241816 
L 379.731379 287.799561 
L 382.763144 290.29289 
L 385.72043 292.724967 
L 388.606808 295.09873 
L 391.425601 297.41691 
L 394.179899 299.682051 
L 396.87259 301.896524 
L 399.506369 304.062549 
L 402.083758 306.182198 
L 404.607122 308.257417 
L 407.078679 310.29003 
L 409.500513 312.281751 
L 411.874586 314.234193 
L 414.202746 316.148876 
L 416.486734 318.027232 
L 418.728196 319.870614 
L 420.928685 321.680301 
L 423.089674 323.457502 
L 425.212556 325.203364 
L 427.29865 326.918972 
L 429.349211 328.605357 
L 431.365429 330.263498 
L 433.348435 331.894326 
L 435.299305 333.498725 
L 437.219065 335.077539 
L 439.108691 336.631571 
L 440.969115 338.161587 
L 442.801225 339.668318 
L 444.605871 341.152462 
L 446.383863 342.614686 
L 448.135978 344.055629 
L 449.862958 345.4759 
L 451.565513 346.876085 
L 453.244326 348.256744 
L 454.90005 349.618413 
L 456.533309 350.961609 
L 458.144708 352.286826 
L 459.734821 353.594539 
L 461.304206 354.885203 
L 462.853395 356.159259 
L 464.382901 357.417127 
L 465.893218 358.659215 
L 467.384822 359.885913 
L 468.858171 361.097598 
L 470.313706 362.294633 
L 471.751853 363.477367 
L 473.173022 364.646139 
L 474.57761 365.801275 
L 475.965999 366.943089 
L 477.338558 368.071884 
L 478.695645 369.187955 
L 480.037604 370.291584 
L 481.364769 371.383047 
L 482.677462 372.462609 
L 483.975996 373.530525 
L 485.260673 374.587046 
L 486.531786 375.632411 
L 487.789617 376.666854 
L 489.034442 377.6906 
L 490.266527 378.703869 
L 491.486129 379.706873 
L 492.693501 380.699817 
L 493.888883 381.682902 
L 495.072512 382.656321 
L 496.244618 383.620262 
L 497.405421 384.574909 
" clip-path="url(#p028b583fa9)" style="fill: none; stroke-dasharray: 1,1.65; stroke-dashoffset: 0; stroke: #000000; stroke-opacity: 0.5"/>
   </g>
   <g id="patch_3">
    <path d="M 53.31375 399.688 
L 53.31375 67.2 
" style="fill: none; stroke: #000000; stroke-width: 0.8; stroke-linejoin: miter; stroke-linecap: square"/>
   </g>
   <g id="patch_4">
    <path d="M 515.437723 399.688 
L 515.437723 67.2 
" style="fill: none; stroke: #000000; stroke-width: 0.8; stroke-linejoin: miter; stroke-linecap: square"/>
   </g>
   <g id="patch_5">
    <path d="M 53.31375 399.688 
L 515.437723 399.688 
" style="fill: none; stroke: #000000; stroke-width: 0.8; stroke-linejoin: miter; stroke-linecap: square"/>
   </g>
   <g id="patch_6">
    <path d="M 53.31375 67.2 
L 515.437723 67.2 
" style="fill: none; stroke: #000000; stroke-width: 0.8; stroke-linejoin: miter; stroke-linecap: square"/>
   </g>
   <g id="text_7">
    <!-- $\omega = 0.2$ -->
    <g transform="translate(260.910737 61.2) scale(0.13 -0.13)">
     <defs>
      <path id="DejaVuSans-3d" d="M 678 2906 
L 4684 2906 
L 4684 2381 
L 678 2381 
L 678 2906 
z
M 678 1631 
L 4684 1631 
L 4684 1100 
L 678 1100 
L 678 1631 
z
" transform="scale(0.015625)"/>
      <path id="DejaVuSans-2e" d="M 684 794 
L 1344 794 
L 1344 0 
L 684 0 
L 684 794 
z
" transform="scale(0.015625)"/>
     </defs>
     <use xlink:href="#DejaVuSans-Oblique-3c9" transform="translate(0 0.78125)"/>
     <use xlink:href="#DejaVuSans-3d" transform="translate(103.222656 0.78125)"/>
     <use xlink:href="#DejaVuSans-30" transform="translate(206.494141 0.78125)"/>
     <use xlink:href="#DejaVuSans-2e" transform="translate(270.117188 0.78125)"/>
     <use xlink:href="#DejaVuSans-32" transform="translate(296.404297 0.78125)"/>
    </g>
   </g>
   <g id="legend_1">
    <g id="patch_7">
     <path d="M 370.876786 134.494062 
L 510.537723 134.494062 
Q 511.937723 134.494062 511.937723 133.094062 
L 511.937723 72.1 
Q 511.937723 70.7 510.537723 70.7 
L 370.876786 70.7 
Q 369.476786 70.7 369.476786 72.1 
L 369.476786 133.094062 
Q 369.476786 134.494062 370.876786 134.494062 
z
" style="fill: #ffffff; opacity: 0.8; stroke: #cccccc; stroke-linejoin: miter"/>
    </g>
    <g id="line2d_69">
     <path d="M 372.276786 76.368906 
L 379.276786 76.368906 
L 386.276786 76.368906 
" style="fill: none; stroke-dasharray: 3.7,1.6; stroke-dashoffset: 0; stroke: #808080; stroke-opacity: 0.5"/>
     <g>
      <use xlink:href="#mb24e65698b" x="379.276786" y="76.368906" style="fill: #808080; fill-opacity: 0.5; stroke: #808080; stroke-opacity: 0.5; stroke-linejoin: miter"/>
     </g>
    </g>
    <g id="text_8">
     <!-- Stage A: linear (joint-opt params) -->
     <g transform="translate(391.876786 78.818906) scale(0.07 -0.07)">
      <defs>
       <path id="DejaVuSans-53" d="M 3425 4513 
L 3425 3897 
Q 3066 4069 2747 4153 
Q 2428 4238 2131 4238 
Q 1616 4238 1336 4038 
Q 1056 3838 1056 3469 
Q 1056 3159 1242 3001 
Q 1428 2844 1947 2747 
L 2328 2669 
Q 3034 2534 3370 2195 
Q 3706 1856 3706 1288 
Q 3706 609 3251 259 
Q 2797 -91 1919 -91 
Q 1588 -91 1214 -16 
Q 841 59 441 206 
L 441 856 
Q 825 641 1194 531 
Q 1563 422 1919 422 
Q 2459 422 2753 634 
Q 3047 847 3047 1241 
Q 3047 1584 2836 1778 
Q 2625 1972 2144 2069 
L 1759 2144 
Q 1053 2284 737 2584 
Q 422 2884 422 3419 
Q 422 4038 858 4394 
Q 1294 4750 2059 4750 
Q 2388 4750 2728 4690 
Q 3069 4631 3425 4513 
z
" transform="scale(0.015625)"/>
       <path id="DejaVuSans-74" d="M 1172 4494 
L 1172 3500 
L 2356 3500 
L 2356 3053 
L 1172 3053 
L 1172 1153 
Q 1172 725 1289 603 
Q 1406 481 1766 481 
L 2356 481 
L 2356 0 
L 1766 0 
Q 1100 0 847 248 
Q 594 497 594 1153 
L 594 3053 
L 172 3053 
L 172 3500 
L 594 3500 
L 594 4494 
L 1172 4494 
z
" transform="scale(0.015625)"/>
       <path id="DejaVuSans-61" d="M 2194 1759 
Q 1497 1759 1228 1600 
Q 959 1441 959 1056 
Q 959 750 1161 570 
Q 1363 391 1709 391 
Q 2188 391 2477 730 
Q 2766 1069 2766 1631 
L 2766 1759 
L 2194 1759 
z
M 3341 1997 
L 3341 0 
L 2766 0 
L 2766 531 
Q 2569 213 2275 61 
Q 1981 -91 1556 -91 
Q 1019 -91 701 211 
Q 384 513 384 1019 
Q 384 1609 779 1909 
Q 1175 2209 1959 2209 
L 2766 2209 
L 2766 2266 
Q 2766 2663 2505 2880 
Q 2244 3097 1772 3097 
Q 1472 3097 1187 3025 
Q 903 2953 641 2809 
L 641 3341 
Q 956 3463 1253 3523 
Q 1550 3584 1831 3584 
Q 2591 3584 2966 3190 
Q 3341 2797 3341 1997 
z
" transform="scale(0.015625)"/>
       <path id="DejaVuSans-67" d="M 2906 1791 
Q 2906 2416 2648 2759 
Q 2391 3103 1925 3103 
Q 1463 3103 1205 2759 
Q 947 2416 947 1791 
Q 947 1169 1205 825 
Q 1463 481 1925 481 
Q 2391 481 2648 825 
Q 2906 1169 2906 1791 
z
M 3481 434 
Q 3481 -459 3084 -895 
Q 2688 -1331 1869 -1331 
Q 1566 -1331 1297 -1286 
Q 1028 -1241 775 -1147 
L 775 -588 
Q 1028 -725 1275 -790 
Q 1522 -856 1778 -856 
Q 2344 -856 2625 -561 
Q 2906 -266 2906 331 
L 2906 616 
Q 2728 306 2450 153 
Q 2172 0 1784 0 
Q 1141 0 747 490 
Q 353 981 353 1791 
Q 353 2603 747 3093 
Q 1141 3584 1784 3584 
Q 2172 3584 2450 3431 
Q 2728 3278 2906 2969 
L 2906 3500 
L 3481 3500 
L 3481 434 
z
" transform="scale(0.015625)"/>
       <path id="DejaVuSans-65" d="M 3597 1894 
L 3597 1613 
L 953 1613 
Q 991 1019 1311 708 
Q 1631 397 2203 397 
Q 2534 397 2845 478 
Q 3156 559 3463 722 
L 3463 178 
Q 3153 47 2828 -22 
Q 2503 -91 2169 -91 
Q 1331 -91 842 396 
Q 353 884 353 1716 
Q 353 2575 817 3079 
Q 1281 3584 2069 3584 
Q 2775 3584 3186 3129 
Q 3597 2675 3597 1894 
z
M 3022 2063 
Q 3016 2534 2758 2815 
Q 2500 3097 2075 3097 
Q 1594 3097 1305 2825 
Q 1016 2553 972 2059 
L 3022 2063 
z
" transform="scale(0.015625)"/>
       <path id="DejaVuSans-20" transform="scale(0.015625)"/>
       <path id="DejaVuSans-41" d="M 2188 4044 
L 1331 1722 
L 3047 1722 
L 2188 4044 
z
M 1831 4666 
L 2547 4666 
L 4325 0 
L 3669 0 
L 3244 1197 
L 1141 1197 
L 716 0 
L 50 0 
L 1831 4666 
z
" transform="scale(0.015625)"/>
       <path id="DejaVuSans-3a" d="M 750 794 
L 1409 794 
L 1409 0 
L 750 0 
L 750 794 
z
M 750 3309 
L 1409 3309 
L 1409 2516 
L 750 2516 
L 750 3309 
z
" transform="scale(0.015625)"/>
       <path id="DejaVuSans-6c" d="M 603 4863 
L 1178 4863 
L 1178 0 
L 603 0 
L 603 4863 
z
" transform="scale(0.015625)"/>
       <path id="DejaVuSans-69" d="M 603 3500 
L 1178 3500 
L 1178 0 
L 603 0 
L 603 3500 
z
M 603 4863 
L 1178 4863 
L 1178 4134 
L 603 4134 
L 603 4863 
z
" transform="scale(0.015625)"/>
       <path id="DejaVuSans-6e" d="M 3513 2113 
L 3513 0 
L 2938 0 
L 2938 2094 
Q 2938 2591 2744 2837 
Q 2550 3084 2163 3084 
Q 1697 3084 1428 2787 
Q 1159 2491 1159 1978 
L 1159 0 
L 581 0 
L 581 3500 
L 1159 3500 
L 1159 2956 
Q 1366 3272 1645 3428 
Q 1925 3584 2291 3584 
Q 2894 3584 3203 3211 
Q 3513 2838 3513 2113 
z
" transform="scale(0.015625)"/>
       <path id="DejaVuSans-72" d="M 2631 2963 
Q 2534 3019 2420 3045 
Q 2306 3072 2169 3072 
Q 1681 3072 1420 2755 
Q 1159 2438 1159 1844 
L 1159 0 
L 581 0 
L 581 3500 
L 1159 3500 
L 1159 2956 
Q 1341 3275 1631 3429 
Q 1922 3584 2338 3584 
Q 2397 3584 2469 3576 
Q 2541 3569 2628 3553 
L 2631 2963 
z
" transform="scale(0.015625)"/>
       <path id="DejaVuSans-28" d="M 1984 4856 
Q 1566 4138 1362 3434 
Q 1159 2731 1159 2009 
Q 1159 1288 1364 580 
Q 1569 -128 1984 -844 
L 1484 -844 
Q 1016 -109 783 600 
Q 550 1309 550 2009 
Q 550 2706 781 3412 
Q 1013 4119 1484 4856 
L 1984 4856 
z
" transform="scale(0.015625)"/>
       <path id="DejaVuSans-6a" d="M 603 3500 
L 1178 3500 
L 1178 -63 
Q 1178 -731 923 -1031 
Q 669 -1331 103 -1331 
L -116 -1331 
L -116 -844 
L 38 -844 
Q 366 -844 484 -692 
Q 603 -541 603 -63 
L 603 3500 
z
M 603 4863 
L 1178 4863 
L 1178 4134 
L 603 4134 
L 603 4863 
z
" transform="scale(0.015625)"/>
       <path id="DejaVuSans-6f" d="M 1959 3097 
Q 1497 3097 1228 2736 
Q 959 2375 959 1747 
Q 959 1119 1226 758 
Q 1494 397 1959 397 
Q 2419 397 2687 759 
Q 2956 1122 2956 1747 
Q 2956 2369 2687 2733 
Q 2419 3097 1959 3097 
z
M 1959 3584 
Q 2709 3584 3137 3096 
Q 3566 2609 3566 1747 
Q 3566 888 3137 398 
Q 2709 -91 1959 -91 
Q 1206 -91 779 398 
Q 353 888 353 1747 
Q 353 2609 779 3096 
Q 1206 3584 1959 3584 
z
" transform="scale(0.015625)"/>
       <path id="DejaVuSans-2d" d="M 313 2009 
L 1997 2009 
L 1997 1497 
L 313 1497 
L 313 2009 
z
" transform="scale(0.015625)"/>
       <path id="DejaVuSans-70" d="M 1159 525 
L 1159 -1331 
L 581 -1331 
L 581 3500 
L 1159 3500 
L 1159 2969 
Q 1341 3281 1617 3432 
Q 1894 3584 2278 3584 
Q 2916 3584 3314 3078 
Q 3713 2572 3713 1747 
Q 3713 922 3314 415 
Q 2916 -91 2278 -91 
Q 1894 -91 1617 61 
Q 1341 213 1159 525 
z
M 3116 1747 
Q 3116 2381 2855 2742 
Q 2594 3103 2138 3103 
Q 1681 3103 1420 2742 
Q 1159 2381 1159 1747 
Q 1159 1113 1420 752 
Q 1681 391 2138 391 
Q 2594 391 2855 752 
Q 3116 1113 3116 1747 
z
" transform="scale(0.015625)"/>
       <path id="DejaVuSans-6d" d="M 3328 2828 
Q 3544 3216 3844 3400 
Q 4144 3584 4550 3584 
Q 5097 3584 5394 3201 
Q 5691 2819 5691 2113 
L 5691 0 
L 5113 0 
L 5113 2094 
Q 5113 2597 4934 2840 
Q 4756 3084 4391 3084 
Q 3944 3084 3684 2787 
Q 3425 2491 3425 1978 
L 3425 0 
L 2847 0 
L 2847 2094 
Q 2847 2600 2669 2842 
Q 2491 3084 2119 3084 
Q 1678 3084 1418 2786 
Q 1159 2488 1159 1978 
L 1159 0 
L 581 0 
L 581 3500 
L 1159 3500 
L 1159 2956 
Q 1356 3278 1631 3431 
Q 1906 3584 2284 3584 
Q 2666 3584 2933 3390 
Q 3200 3197 3328 2828 
z
" transform="scale(0.015625)"/>
       <path id="DejaVuSans-73" d="M 2834 3397 
L 2834 2853 
Q 2591 2978 2328 3040 
Q 2066 3103 1784 3103 
Q 1356 3103 1142 2972 
Q 928 2841 928 2578 
Q 928 2378 1081 2264 
Q 1234 2150 1697 2047 
L 1894 2003 
Q 2506 1872 2764 1633 
Q 3022 1394 3022 966 
Q 3022 478 2636 193 
Q 2250 -91 1575 -91 
Q 1294 -91 989 -36 
Q 684 19 347 128 
L 347 722 
Q 666 556 975 473 
Q 1284 391 1588 391 
Q 1994 391 2212 530 
Q 2431 669 2431 922 
Q 2431 1156 2273 1281 
Q 2116 1406 1581 1522 
L 1381 1569 
Q 847 1681 609 1914 
Q 372 2147 372 2553 
Q 372 3047 722 3315 
Q 1072 3584 1716 3584 
Q 2034 3584 2315 3537 
Q 2597 3491 2834 3397 
z
" transform="scale(0.015625)"/>
       <path id="DejaVuSans-29" d="M 513 4856 
L 1013 4856 
Q 1481 4119 1714 3412 
Q 1947 2706 1947 2009 
Q 1947 1309 1714 600 
Q 1481 -109 1013 -844 
L 513 -844 
Q 928 -128 1133 580 
Q 1338 1288 1338 2009 
Q 1338 2731 1133 3434 
Q 928 4138 513 4856 
z
" transform="scale(0.015625)"/>
      </defs>
      <use xlink:href="#DejaVuSans-53"/>
      <use xlink:href="#DejaVuSans-74" transform="translate(63.476562 0)"/>
      <use xlink:href="#DejaVuSans-61" transform="translate(102.685547 0)"/>
      <use xlink:href="#DejaVuSans-67" transform="translate(163.964844 0)"/>
      <use xlink:href="#DejaVuSans-65" transform="translate(227.441406 0)"/>
      <use xlink:href="#DejaVuSans-20" transform="translate(288.964844 0)"/>
      <use xlink:href="#DejaVuSans-41" transform="translate(320.751953 0)"/>
      <use xlink:href="#DejaVuSans-3a" transform="translate(387.410156 0)"/>
      <use xlink:href="#DejaVuSans-20" transform="translate(421.101562 0)"/>
      <use xlink:href="#DejaVuSans-6c" transform="translate(452.888672 0)"/>
      <use xlink:href="#DejaVuSans-69" transform="translate(480.671875 0)"/>
      <use xlink:href="#DejaVuSans-6e" transform="translate(508.455078 0)"/>
      <use xlink:href="#DejaVuSans-65" transform="translate(571.833984 0)"/>
      <use xlink:href="#DejaVuSans-61" transform="translate(633.357422 0)"/>
      <use xlink:href="#DejaVuSans-72" transform="translate(694.636719 0)"/>
      <use xlink:href="#DejaVuSans-20" transform="translate(735.75 0)"/>
      <use xlink:href="#DejaVuSans-28" transform="translate(767.537109 0)"/>
      <use xlink:href="#DejaVuSans-6a" transform="translate(806.550781 0)"/>
      <use xlink:href="#DejaVuSans-6f" transform="translate(834.333984 0)"/>
      <use xlink:href="#DejaVuSans-69" transform="translate(895.515625 0)"/>
      <use xlink:href="#DejaVuSans-6e" transform="translate(923.298828 0)"/>
      <use xlink:href="#DejaVuSans-74" transform="translate(986.677734 0)"/>
      <use xlink:href="#DejaVuSans-2d" transform="translate(1025.886719 0)"/>
      <use xlink:href="#DejaVuSans-6f" transform="translate(1063.845703 0)"/>
      <use xlink:href="#DejaVuSans-70" transform="translate(1125.027344 0)"/>
      <use xlink:href="#DejaVuSans-74" transform="translate(1188.503906 0)"/>
      <use xlink:href="#DejaVuSans-20" transform="translate(1227.712891 0)"/>
      <use xlink:href="#DejaVuSans-70" transform="translate(1259.5 0)"/>
      <use xlink:href="#DejaVuSans-61" transform="translate(1322.976562 0)"/>
      <use xlink:href="#DejaVuSans-72" transform="translate(1384.255859 0)"/>
      <use xlink:href="#DejaVuSans-61" transform="translate(1425.369141 0)"/>
      <use xlink:href="#DejaVuSans-6d" transform="translate(1486.648438 0)"/>
      <use xlink:href="#DejaVuSans-73" transform="translate(1584.060547 0)"/>
      <use xlink:href="#DejaVuSans-29" transform="translate(1636.160156 0)"/>
     </g>
    </g>
    <g id="line2d_70">
     <path d="M 372.276786 86.644687 
L 379.276786 86.644687 
L 386.276786 86.644687 
" style="fill: none; stroke: #1f77b4; stroke-width: 1.5; stroke-linecap: square"/>
     <g>
      <use xlink:href="#ma3eeb2bf81" x="379.276786" y="86.644687" style="fill: #1f77b4; stroke: #1f77b4"/>
     </g>
    </g>
    <g id="text_9">
     <!-- Best $\Delta\omega_{\mathrm{lin}}$ (Stage B) -->
     <g transform="translate(391.876786 89.094687) scale(0.07 -0.07)">
      <defs>
       <path id="DejaVuSans-42" d="M 1259 2228 
L 1259 519 
L 2272 519 
Q 2781 519 3026 730 
Q 3272 941 3272 1375 
Q 3272 1813 3026 2020 
Q 2781 2228 2272 2228 
L 1259 2228 
z
M 1259 4147 
L 1259 2741 
L 2194 2741 
Q 2656 2741 2882 2914 
Q 3109 3088 3109 3444 
Q 3109 3797 2882 3972 
Q 2656 4147 2194 4147 
L 1259 4147 
z
M 628 4666 
L 2241 4666 
Q 2963 4666 3353 4366 
Q 3744 4066 3744 3513 
Q 3744 3084 3544 2831 
Q 3344 2578 2956 2516 
Q 3422 2416 3680 2098 
Q 3938 1781 3938 1306 
Q 3938 681 3513 340 
Q 3088 0 2303 0 
L 628 0 
L 628 4666 
z
" transform="scale(0.015625)"/>
      </defs>
      <use xlink:href="#DejaVuSans-42" transform="translate(0 0.125)"/>
      <use xlink:href="#DejaVuSans-65" transform="translate(68.603516 0.125)"/>
      <use xlink:href="#DejaVuSans-73" transform="translate(130.126953 0.125)"/>
      <use xlink:href="#DejaVuSans-74" transform="translate(182.226562 0.125)"/>
      <use xlink:href="#DejaVuSans-20" transform="translate(221.435547 0.125)"/>
      <use xlink:href="#DejaVuSans-394" transform="translate(253.222656 0.125)"/>
      <use xlink:href="#DejaVuSans-Oblique-3c9" transform="translate(321.630859 0.125)"/>
      <use xlink:href="#DejaVuSans-6c" transform="translate(405.371094 -16.28125) scale(0.7)"/>
      <use xlink:href="#DejaVuSans-69" transform="translate(424.819336 -16.28125) scale(0.7)"/>
      <use xlink:href="#DejaVuSans-6e" transform="translate(444.267578 -16.28125) scale(0.7)"/>
      <use xlink:href="#DejaVuSans-20" transform="translate(491.367188 0.125)"/>
      <use xlink:href="#DejaVuSans-28" transform="translate(523.154297 0.125)"/>
      <use xlink:href="#DejaVuSans-53" transform="translate(562.167969 0.125)"/>
      <use xlink:href="#DejaVuSans-74" transform="translate(625.644531 0.125)"/>
      <use xlink:href="#DejaVuSans-61" transform="translate(664.853516 0.125)"/>
      <use xlink:href="#DejaVuSans-67" transform="translate(726.132812 0.125)"/>
      <use xlink:href="#DejaVuSans-65" transform="translate(789.609375 0.125)"/>
      <use xlink:href="#DejaVuSans-20" transform="translate(851.132812 0.125)"/>
      <use xlink:href="#DejaVuSans-42" transform="translate(882.919922 0.125)"/>
      <use xlink:href="#DejaVuSans-29" transform="translate(951.523438 0.125)"/>
     </g>
    </g>
    <g id="line2d_71">
     <path d="M 372.276786 96.934687 
L 379.276786 96.934687 
L 386.276786 96.934687 
" style="fill: none; stroke: #2ca02c; stroke-width: 1.5; stroke-linecap: square"/>
     <g>
      <use xlink:href="#m77e610cd40" x="379.276786" y="96.934687" style="fill: #2ca02c; stroke: #2ca02c; stroke-linejoin: miter"/>
     </g>
    </g>
    <g id="text_10">
     <!-- Best $\Delta\omega_{\mathrm{CFI}}$ (Stage B) -->
     <g transform="translate(391.876786 99.384687) scale(0.07 -0.07)">
      <defs>
       <path id="DejaVuSans-43" d="M 4122 4306 
L 4122 3641 
Q 3803 3938 3442 4084 
Q 3081 4231 2675 4231 
Q 1875 4231 1450 3742 
Q 1025 3253 1025 2328 
Q 1025 1406 1450 917 
Q 1875 428 2675 428 
Q 3081 428 3442 575 
Q 3803 722 4122 1019 
L 4122 359 
Q 3791 134 3420 21 
Q 3050 -91 2638 -91 
Q 1578 -91 968 557 
Q 359 1206 359 2328 
Q 359 3453 968 4101 
Q 1578 4750 2638 4750 
Q 3056 4750 3426 4639 
Q 3797 4528 4122 4306 
z
" transform="scale(0.015625)"/>
       <path id="DejaVuSans-46" d="M 628 4666 
L 3309 4666 
L 3309 4134 
L 1259 4134 
L 1259 2759 
L 3109 2759 
L 3109 2228 
L 1259 2228 
L 1259 0 
L 628 0 
L 628 4666 
z
" transform="scale(0.015625)"/>
       <path id="DejaVuSans-49" d="M 628 4666 
L 1259 4666 
L 1259 0 
L 628 0 
L 628 4666 
z
" transform="scale(0.015625)"/>
      </defs>
      <use xlink:href="#DejaVuSans-42" transform="translate(0 0.125)"/>
      <use xlink:href="#DejaVuSans-65" transform="translate(68.603516 0.125)"/>
      <use xlink:href="#DejaVuSans-73" transform="translate(130.126953 0.125)"/>
      <use xlink:href="#DejaVuSans-74" transform="translate(182.226562 0.125)"/>
      <use xlink:href="#DejaVuSans-20" transform="translate(221.435547 0.125)"/>
      <use xlink:href="#DejaVuSans-394" transform="translate(253.222656 0.125)"/>
      <use xlink:href="#DejaVuSans-Oblique-3c9" transform="translate(321.630859 0.125)"/>
      <use xlink:href="#DejaVuSans-43" transform="translate(405.371094 -16.28125) scale(0.7)"/>
      <use xlink:href="#DejaVuSans-46" transform="translate(454.248047 -16.28125) scale(0.7)"/>
      <use xlink:href="#DejaVuSans-49" transform="translate(494.511719 -16.28125) scale(0.7)"/>
      <use xlink:href="#DejaVuSans-20" transform="translate(517.890625 0.125)"/>
      <use xlink:href="#DejaVuSans-28" transform="translate(549.677734 0.125)"/>
      <use xlink:href="#DejaVuSans-53" transform="translate(588.691406 0.125)"/>
      <use xlink:href="#DejaVuSans-74" transform="translate(652.167969 0.125)"/>
      <use xlink:href="#DejaVuSans-61" transform="translate(691.376953 0.125)"/>
      <use xlink:href="#DejaVuSans-67" transform="translate(752.65625 0.125)"/>
      <use xlink:href="#DejaVuSans-65" transform="translate(816.132812 0.125)"/>
      <use xlink:href="#DejaVuSans-20" transform="translate(877.65625 0.125)"/>
      <use xlink:href="#DejaVuSans-42" transform="translate(909.443359 0.125)"/>
      <use xlink:href="#DejaVuSans-29" transform="translate(978.046875 0.125)"/>
     </g>
    </g>
    <g id="line2d_72">
     <path d="M 372.276786 107.224687 
L 379.276786 107.224687 
L 386.276786 107.224687 
" style="fill: none; stroke: #d62728; stroke-width: 1.5; stroke-linecap: square"/>
     <g>
      <use xlink:href="#m1c729b3372" x="379.276786" y="107.224687" style="fill: #d62728; stroke: #d62728; stroke-linejoin: miter"/>
     </g>
    </g>
    <g id="text_11">
     <!-- Best $\Delta\omega_{\Pi}$ (Stage B) -->
     <g transform="translate(391.876786 109.674687) scale(0.07 -0.07)">
      <defs>
       <path id="DejaVuSans-3a0" d="M 4184 4666 
L 4184 0 
L 3553 0 
L 3553 4134 
L 1259 4134 
L 1259 0 
L 628 0 
L 628 4666 
L 4184 4666 
z
" transform="scale(0.015625)"/>
      </defs>
      <use xlink:href="#DejaVuSans-42" transform="translate(0 0.125)"/>
      <use xlink:href="#DejaVuSans-65" transform="translate(68.603516 0.125)"/>
      <use xlink:href="#DejaVuSans-73" transform="translate(130.126953 0.125)"/>
      <use xlink:href="#DejaVuSans-74" transform="translate(182.226562 0.125)"/>
      <use xlink:href="#DejaVuSans-20" transform="translate(221.435547 0.125)"/>
      <use xlink:href="#DejaVuSans-394" transform="translate(253.222656 0.125)"/>
      <use xlink:href="#DejaVuSans-Oblique-3c9" transform="translate(321.630859 0.125)"/>
      <use xlink:href="#DejaVuSans-3a0" transform="translate(405.371094 -16.28125) scale(0.7)"/>
      <use xlink:href="#DejaVuSans-20" transform="translate(460.742188 0.125)"/>
      <use xlink:href="#DejaVuSans-28" transform="translate(492.529297 0.125)"/>
      <use xlink:href="#DejaVuSans-53" transform="translate(531.542969 0.125)"/>
      <use xlink:href="#DejaVuSans-74" transform="translate(595.019531 0.125)"/>
      <use xlink:href="#DejaVuSans-61" transform="translate(634.228516 0.125)"/>
      <use xlink:href="#DejaVuSans-67" transform="translate(695.507812 0.125)"/>
      <use xlink:href="#DejaVuSans-65" transform="translate(758.984375 0.125)"/>
      <use xlink:href="#DejaVuSans-20" transform="translate(820.507812 0.125)"/>
      <use xlink:href="#DejaVuSans-42" transform="translate(852.294922 0.125)"/>
      <use xlink:href="#DejaVuSans-29" transform="translate(920.898438 0.125)"/>
     </g>
    </g>
    <g id="line2d_73">
     <path d="M 372.276786 117.513594 
L 379.276786 117.513594 
L 386.276786 117.513594 
" style="fill: none; stroke-dasharray: 4.44,1.92; stroke-dashoffset: 0; stroke: #000000; stroke-opacity: 0.7; stroke-width: 1.2"/>
    </g>
    <g id="text_12">
     <!-- SQL -->
     <g transform="translate(391.876786 119.963594) scale(0.07 -0.07)">
      <defs>
       <path id="DejaVuSans-51" d="M 2522 4238 
Q 1834 4238 1429 3725 
Q 1025 3213 1025 2328 
Q 1025 1447 1429 934 
Q 1834 422 2522 422 
Q 3209 422 3611 934 
Q 4013 1447 4013 2328 
Q 4013 3213 3611 3725 
Q 3209 4238 2522 4238 
z
M 3406 84 
L 4238 -825 
L 3475 -825 
L 2784 -78 
Q 2681 -84 2626 -87 
Q 2572 -91 2522 -91 
Q 1538 -91 948 567 
Q 359 1225 359 2328 
Q 359 3434 948 4092 
Q 1538 4750 2522 4750 
Q 3503 4750 4090 4092 
Q 4678 3434 4678 2328 
Q 4678 1516 4351 937 
Q 4025 359 3406 84 
z
" transform="scale(0.015625)"/>
       <path id="DejaVuSans-4c" d="M 628 4666 
L 1259 4666 
L 1259 531 
L 3531 531 
L 3531 0 
L 628 0 
L 628 4666 
z
" transform="scale(0.015625)"/>
      </defs>
      <use xlink:href="#DejaVuSans-53"/>
      <use xlink:href="#DejaVuSans-51" transform="translate(63.476562 0)"/>
      <use xlink:href="#DejaVuSans-4c" transform="translate(142.1875 0)"/>
     </g>
    </g>
    <g id="line2d_74">
     <path d="M 372.276786 127.788281 
L 379.276786 127.788281 
L 386.276786 127.788281 
" style="fill: none; stroke-dasharray: 1,1.65; stroke-dashoffset: 0; stroke: #000000; stroke-opacity: 0.5"/>
    </g>
    <g id="text_13">
     <!-- HL -->
     <g transform="translate(391.876786 130.238281) scale(0.07 -0.07)">
      <defs>
       <path id="DejaVuSans-48" d="M 628 4666 
L 1259 4666 
L 1259 2753 
L 3553 2753 
L 3553 4666 
L 4184 4666 
L 4184 0 
L 3553 0 
L 3553 2222 
L 1259 2222 
L 1259 0 
L 628 0 
L 628 4666 
z
" transform="scale(0.015625)"/>
      </defs>
      <use xlink:href="#DejaVuSans-48"/>
      <use xlink:href="#DejaVuSans-4c" transform="translate(75.195312 0)"/>
     </g>
    </g>
   </g>
  </g>
  <g id="axes_2">
   <g id="patch_8">
    <path d="M 529.737723 399.688 
L 991.861696 399.688 
L 991.861696 67.2 
L 529.737723 67.2 
z
" style="fill: #ffffff"/>
   </g>
   <g id="matplotlib.axis_3">
    <g id="xtick_17">
     <g id="line2d_75">
      <path d="M 613.183358 399.688 
L 613.183358 67.2 
" clip-path="url(#pe2aa4c6d38)" style="fill: none; stroke: #b0b0b0; stroke-opacity: 0.3; stroke-width: 0.8; stroke-linecap: square"/>
     </g>
     <g id="line2d_76">
      <g>
       <use xlink:href="#m67b81b6fe8" x="613.183358" y="399.688" style="stroke: #000000; stroke-width: 0.8"/>
      </g>
     </g>
     <g id="text_14">
      <!-- $\mathdefault{10^{0}}$ -->
      <g transform="translate(604.383358 414.286437) scale(0.1 -0.1)">
       <use xlink:href="#DejaVuSans-31" transform="translate(0 0.765625)"/>
       <use xlink:href="#DejaVuSans-30" transform="translate(63.623047 0.765625)"/>
       <use xlink:href="#DejaVuSans-30" transform="translate(128.203125 39.046875) scale(0.7)"/>
      </g>
     </g>
    </g>
    <g id="xtick_18">
     <g id="line2d_77">
      <path d="M 890.383759 399.688 
L 890.383759 67.2 
" clip-path="url(#pe2aa4c6d38)" style="fill: none; stroke: #b0b0b0; stroke-opacity: 0.3; stroke-width: 0.8; stroke-linecap: square"/>
     </g>
     <g id="line2d_78">
      <g>
       <use xlink:href="#m67b81b6fe8" x="890.383759" y="399.688" style="stroke: #000000; stroke-width: 0.8"/>
      </g>
     </g>
     <g id="text_15">
      <!-- $\mathdefault{10^{1}}$ -->
      <g transform="translate(881.583759 414.286437) scale(0.1 -0.1)">
       <use xlink:href="#DejaVuSans-31" transform="translate(0 0.684375)"/>
       <use xlink:href="#DejaVuSans-30" transform="translate(63.623047 0.684375)"/>
       <use xlink:href="#DejaVuSans-31" transform="translate(128.203125 38.965625) scale(0.7)"/>
      </g>
     </g>
    </g>
    <g id="xtick_19">
     <g id="line2d_79">
      <path d="M 529.737723 399.688 
L 529.737723 67.2 
" clip-path="url(#pe2aa4c6d38)" style="fill: none; stroke: #b0b0b0; stroke-opacity: 0.3; stroke-width: 0.8; stroke-linecap: square"/>
     </g>
     <g id="line2d_80">
      <g>
       <use xlink:href="#m8b651c8e53" x="529.737723" y="399.688" style="stroke: #000000; stroke-width: 0.6"/>
      </g>
     </g>
    </g>
    <g id="xtick_20">
     <g id="line2d_81">
      <path d="M 551.686796 399.688 
L 551.686796 67.2 
" clip-path="url(#pe2aa4c6d38)" style="fill: none; stroke: #b0b0b0; stroke-opacity: 0.3; stroke-width: 0.8; stroke-linecap: square"/>
     </g>
     <g id="line2d_82">
      <g>
       <use xlink:href="#m8b651c8e53" x="551.686796" y="399.688" style="stroke: #000000; stroke-width: 0.6"/>
      </g>
     </g>
    </g>
    <g id="xtick_21">
     <g id="line2d_83">
      <path d="M 570.244473 399.688 
L 570.244473 67.2 
" clip-path="url(#pe2aa4c6d38)" style="fill: none; stroke: #b0b0b0; stroke-opacity: 0.3; stroke-width: 0.8; stroke-linecap: square"/>
     </g>
     <g id="line2d_84">
      <g>
       <use xlink:href="#m8b651c8e53" x="570.244473" y="399.688" style="stroke: #000000; stroke-width: 0.6"/>
      </g>
     </g>
    </g>
    <g id="xtick_22">
     <g id="line2d_85">
      <path d="M 586.319864 399.688 
L 586.319864 67.2 
" clip-path="url(#pe2aa4c6d38)" style="fill: none; stroke: #b0b0b0; stroke-opacity: 0.3; stroke-width: 0.8; stroke-linecap: square"/>
     </g>
     <g id="line2d_86">
      <g>
       <use xlink:href="#m8b651c8e53" x="586.319864" y="399.688" style="stroke: #000000; stroke-width: 0.6"/>
      </g>
     </g>
    </g>
    <g id="xtick_23">
     <g id="line2d_87">
      <path d="M 600.499364 399.688 
L 600.499364 67.2 
" clip-path="url(#pe2aa4c6d38)" style="fill: none; stroke: #b0b0b0; stroke-opacity: 0.3; stroke-width: 0.8; stroke-linecap: square"/>
     </g>
     <g id="line2d_88">
      <g>
       <use xlink:href="#m8b651c8e53" x="600.499364" y="399.688" style="stroke: #000000; stroke-width: 0.6"/>
      </g>
     </g>
    </g>
    <g id="xtick_24">
     <g id="line2d_89">
      <path d="M 696.628994 399.688 
L 696.628994 67.2 
" clip-path="url(#pe2aa4c6d38)" style="fill: none; stroke: #b0b0b0; stroke-opacity: 0.3; stroke-width: 0.8; stroke-linecap: square"/>
     </g>
     <g id="line2d_90">
      <g>
       <use xlink:href="#m8b651c8e53" x="696.628994" y="399.688" style="stroke: #000000; stroke-width: 0.6"/>
      </g>
     </g>
    </g>
    <g id="xtick_25">
     <g id="line2d_91">
      <path d="M 745.441561 399.688 
L 745.441561 67.2 
" clip-path="url(#pe2aa4c6d38)" style="fill: none; stroke: #b0b0b0; stroke-opacity: 0.3; stroke-width: 0.8; stroke-linecap: square"/>
     </g>
     <g id="line2d_92">
      <g>
       <use xlink:href="#m8b651c8e53" x="745.441561" y="399.688" style="stroke: #000000; stroke-width: 0.6"/>
      </g>
     </g>
    </g>
    <g id="xtick_26">
     <g id="line2d_93">
      <path d="M 780.074629 399.688 
L 780.074629 67.2 
" clip-path="url(#pe2aa4c6d38)" style="fill: none; stroke: #b0b0b0; stroke-opacity: 0.3; stroke-width: 0.8; stroke-linecap: square"/>
     </g>
     <g id="line2d_94">
      <g>
       <use xlink:href="#m8b651c8e53" x="780.074629" y="399.688" style="stroke: #000000; stroke-width: 0.6"/>
      </g>
     </g>
    </g>
    <g id="xtick_27">
     <g id="line2d_95">
      <path d="M 806.938124 399.688 
L 806.938124 67.2 
" clip-path="url(#pe2aa4c6d38)" style="fill: none; stroke: #b0b0b0; stroke-opacity: 0.3; stroke-width: 0.8; stroke-linecap: square"/>
     </g>
     <g id="line2d_96">
      <g>
       <use xlink:href="#m8b651c8e53" x="806.938124" y="399.688" style="stroke: #000000; stroke-width: 0.6"/>
      </g>
     </g>
    </g>
    <g id="xtick_28">
     <g id="line2d_97">
      <path d="M 828.887197 399.688 
L 828.887197 67.2 
" clip-path="url(#pe2aa4c6d38)" style="fill: none; stroke: #b0b0b0; stroke-opacity: 0.3; stroke-width: 0.8; stroke-linecap: square"/>
     </g>
     <g id="line2d_98">
      <g>
       <use xlink:href="#m8b651c8e53" x="828.887197" y="399.688" style="stroke: #000000; stroke-width: 0.6"/>
      </g>
     </g>
    </g>
    <g id="xtick_29">
     <g id="line2d_99">
      <path d="M 847.444874 399.688 
L 847.444874 67.2 
" clip-path="url(#pe2aa4c6d38)" style="fill: none; stroke: #b0b0b0; stroke-opacity: 0.3; stroke-width: 0.8; stroke-linecap: square"/>
     </g>
     <g id="line2d_100">
      <g>
       <use xlink:href="#m8b651c8e53" x="847.444874" y="399.688" style="stroke: #000000; stroke-width: 0.6"/>
      </g>
     </g>
    </g>
    <g id="xtick_30">
     <g id="line2d_101">
      <path d="M 863.520265 399.688 
L 863.520265 67.2 
" clip-path="url(#pe2aa4c6d38)" style="fill: none; stroke: #b0b0b0; stroke-opacity: 0.3; stroke-width: 0.8; stroke-linecap: square"/>
     </g>
     <g id="line2d_102">
      <g>
       <use xlink:href="#m8b651c8e53" x="863.520265" y="399.688" style="stroke: #000000; stroke-width: 0.6"/>
      </g>
     </g>
    </g>
    <g id="xtick_31">
     <g id="line2d_103">
      <path d="M 877.699764 399.688 
L 877.699764 67.2 
" clip-path="url(#pe2aa4c6d38)" style="fill: none; stroke: #b0b0b0; stroke-opacity: 0.3; stroke-width: 0.8; stroke-linecap: square"/>
     </g>
     <g id="line2d_104">
      <g>
       <use xlink:href="#m8b651c8e53" x="877.699764" y="399.688" style="stroke: #000000; stroke-width: 0.6"/>
      </g>
     </g>
    </g>
    <g id="xtick_32">
     <g id="line2d_105">
      <path d="M 973.829394 399.688 
L 973.829394 67.2 
" clip-path="url(#pe2aa4c6d38)" style="fill: none; stroke: #b0b0b0; stroke-opacity: 0.3; stroke-width: 0.8; stroke-linecap: square"/>
     </g>
     <g id="line2d_106">
      <g>
       <use xlink:href="#m8b651c8e53" x="973.829394" y="399.688" style="stroke: #000000; stroke-width: 0.6"/>
      </g>
     </g>
    </g>
    <g id="text_16">
     <!-- $ -->
     <g transform="translate(756.98221 429.48425) scale(0.12 -0.12)">
      <use xlink:href="#DejaVuSans-24"/>
     </g>
    </g>
   </g>
   <g id="matplotlib.axis_4">
    <g id="ytick_16">
     <g id="line2d_107">
      <path d="M 529.737723 315.949065 
L 991.861696 315.949065 
" clip-path="url(#pe2aa4c6d38)" style="fill: none; stroke: #b0b0b0; stroke-opacity: 0.3; stroke-width: 0.8; stroke-linecap: square"/>
     </g>
     <g id="line2d_108">
      <g>
       <use xlink:href="#mea7f9f4ffd" x="529.737723" y="315.949065" style="stroke: #000000; stroke-width: 0.8"/>
      </g>
     </g>
    </g>
    <g id="ytick_17">
     <g id="line2d_109">
      <path d="M 529.737723 87.978947 
L 991.861696 87.978947 
" clip-path="url(#pe2aa4c6d38)" style="fill: none; stroke: #b0b0b0; stroke-opacity: 0.3; stroke-width: 0.8; stroke-linecap: square"/>
     </g>
     <g id="line2d_110">
      <g>
       <use xlink:href="#mea7f9f4ffd" x="529.737723" y="87.978947" style="stroke: #000000; stroke-width: 0.8"/>
      </g>
     </g>
    </g>
    <g id="ytick_18">
     <g id="line2d_111">
      <path d="M 529.737723 384.574909 
L 991.861696 384.574909 
" clip-path="url(#pe2aa4c6d38)" style="fill: none; stroke: #b0b0b0; stroke-opacity: 0.3; stroke-width: 0.8; stroke-linecap: square"/>
     </g>
     <g id="line2d_112">
      <g>
       <use xlink:href="#m05056d6f63" x="529.737723" y="384.574909" style="stroke: #000000; stroke-width: 0.6"/>
      </g>
     </g>
    </g>
    <g id="ytick_19">
     <g id="line2d_113">
      <path d="M 529.737723 366.523951 
L 991.861696 366.523951 
" clip-path="url(#pe2aa4c6d38)" style="fill: none; stroke: #b0b0b0; stroke-opacity: 0.3; stroke-width: 0.8; stroke-linecap: square"/>
     </g>
     <g id="line2d_114">
      <g>
       <use xlink:href="#m05056d6f63" x="529.737723" y="366.523951" style="stroke: #000000; stroke-width: 0.6"/>
      </g>
     </g>
    </g>
    <g id="ytick_20">
     <g id="line2d_115">
      <path d="M 529.737723 351.262084 
L 991.861696 351.262084 
" clip-path="url(#pe2aa4c6d38)" style="fill: none; stroke: #b0b0b0; stroke-opacity: 0.3; stroke-width: 0.8; stroke-linecap: square"/>
     </g>
     <g id="line2d_116">
      <g>
       <use xlink:href="#m05056d6f63" x="529.737723" y="351.262084" style="stroke: #000000; stroke-width: 0.6"/>
      </g>
     </g>
    </g>
    <g id="ytick_21">
     <g id="line2d_117">
      <path d="M 529.737723 338.041653 
L 991.861696 338.041653 
" clip-path="url(#pe2aa4c6d38)" style="fill: none; stroke: #b0b0b0; stroke-opacity: 0.3; stroke-width: 0.8; stroke-linecap: square"/>
     </g>
     <g id="line2d_118">
      <g>
       <use xlink:href="#m05056d6f63" x="529.737723" y="338.041653" style="stroke: #000000; stroke-width: 0.6"/>
      </g>
     </g>
    </g>
    <g id="ytick_22">
     <g id="line2d_119">
      <path d="M 529.737723 326.380406 
L 991.861696 326.380406 
" clip-path="url(#pe2aa4c6d38)" style="fill: none; stroke: #b0b0b0; stroke-opacity: 0.3; stroke-width: 0.8; stroke-linecap: square"/>
     </g>
     <g id="line2d_120">
      <g>
       <use xlink:href="#m05056d6f63" x="529.737723" y="326.380406" style="stroke: #000000; stroke-width: 0.6"/>
      </g>
     </g>
    </g>
    <g id="ytick_23">
     <g id="line2d_121">
      <path d="M 529.737723 247.323222 
L 991.861696 247.323222 
" clip-path="url(#pe2aa4c6d38)" style="fill: none; stroke: #b0b0b0; stroke-opacity: 0.3; stroke-width: 0.8; stroke-linecap: square"/>
     </g>
     <g id="line2d_122">
      <g>
       <use xlink:href="#m05056d6f63" x="529.737723" y="247.323222" style="stroke: #000000; stroke-width: 0.6"/>
      </g>
     </g>
    </g>
    <g id="ytick_24">
     <g id="line2d_123">
      <path d="M 529.737723 207.179677 
L 991.861696 207.179677 
" clip-path="url(#pe2aa4c6d38)" style="fill: none; stroke: #b0b0b0; stroke-opacity: 0.3; stroke-width: 0.8; stroke-linecap: square"/>
     </g>
     <g id="line2d_124">
      <g>
       <use xlink:href="#m05056d6f63" x="529.737723" y="207.179677" style="stroke: #000000; stroke-width: 0.6"/>
      </g>
     </g>
    </g>
    <g id="ytick_25">
     <g id="line2d_125">
      <path d="M 529.737723 178.697378 
L 991.861696 178.697378 
" clip-path="url(#pe2aa4c6d38)" style="fill: none; stroke: #b0b0b0; stroke-opacity: 0.3; stroke-width: 0.8; stroke-linecap: square"/>
     </g>
     <g id="line2d_126">
      <g>
       <use xlink:href="#m05056d6f63" x="529.737723" y="178.697378" style="stroke: #000000; stroke-width: 0.6"/>
      </g>
     </g>
    </g>
    <g id="ytick_26">
     <g id="line2d_127">
      <path d="M 529.737723 156.604791 
L 991.861696 156.604791 
" clip-path="url(#pe2aa4c6d38)" style="fill: none; stroke: #b0b0b0; stroke-opacity: 0.3; stroke-width: 0.8; stroke-linecap: square"/>
     </g>
     <g id="line2d_128">
      <g>
       <use xlink:href="#m05056d6f63" x="529.737723" y="156.604791" style="stroke: #000000; stroke-width: 0.6"/>
      </g>
     </g>
    </g>
    <g id="ytick_27">
     <g id="line2d_129">
      <path d="M 529.737723 138.553833 
L 991.861696 138.553833 
" clip-path="url(#pe2aa4c6d38)" style="fill: none; stroke: #b0b0b0; stroke-opacity: 0.3; stroke-width: 0.8; stroke-linecap: square"/>
     </g>
     <g id="line2d_130">
      <g>
       <use xlink:href="#m05056d6f63" x="529.737723" y="138.553833" style="stroke: #000000; stroke-width: 0.6"/>
      </g>
     </g>
    </g>
    <g id="ytick_28">
     <g id="line2d_131">
      <path d="M 529.737723 123.291965 
L 991.861696 123.291965 
" clip-path="url(#pe2aa4c6d38)" style="fill: none; stroke: #b0b0b0; stroke-opacity: 0.3; stroke-width: 0.8; stroke-linecap: square"/>
     </g>
     <g id="line2d_132">
      <g>
       <use xlink:href="#m05056d6f63" x="529.737723" y="123.291965" style="stroke: #000000; stroke-width: 0.6"/>
      </g>
     </g>
    </g>
    <g id="ytick_29">
     <g id="line2d_133">
      <path d="M 529.737723 110.071534 
L 991.861696 110.071534 
" clip-path="url(#pe2aa4c6d38)" style="fill: none; stroke: #b0b0b0; stroke-opacity: 0.3; stroke-width: 0.8; stroke-linecap: square"/>
     </g>
     <g id="line2d_134">
      <g>
       <use xlink:href="#m05056d6f63" x="529.737723" y="110.071534" style="stroke: #000000; stroke-width: 0.6"/>
      </g>
     </g>
    </g>
    <g id="ytick_30">
     <g id="line2d_135">
      <path d="M 529.737723 98.410288 
L 991.861696 98.410288 
" clip-path="url(#pe2aa4c6d38)" style="fill: none; stroke: #b0b0b0; stroke-opacity: 0.3; stroke-width: 0.8; stroke-linecap: square"/>
     </g>
     <g id="line2d_136">
      <g>
       <use xlink:href="#m05056d6f63" x="529.737723" y="98.410288" style="stroke: #000000; stroke-width: 0.6"/>
      </g>
     </g>
    </g>
   </g>
   <g id="line2d_137">
    <path d="M 613.183358 157.955305 
L 696.628994 122.291861 
L 745.441561 142.356569 
L 780.074629 158.020959 
L 806.938124 167.671846 
L 863.520265 195.952817 
L 890.383759 199.866677 
L 939.196326 221.948688 
L 973.829394 236.276928 
" clip-path="url(#pe2aa4c6d38)" style="fill: none; stroke-dasharray: 3.7,1.6; stroke-dashoffset: 0; stroke: #808080; stroke-opacity: 0.5"/>
    <g clip-path="url(#pe2aa4c6d38)">
     <use xlink:href="#mb24e65698b" x="613.183358" y="157.955305" style="fill: #808080; fill-opacity: 0.5; stroke: #808080; stroke-opacity: 0.5; stroke-linejoin: miter"/>
     <use xlink:href="#mb24e65698b" x="696.628994" y="122.291861" style="fill: #808080; fill-opacity: 0.5; stroke: #808080; stroke-opacity: 0.5; stroke-linejoin: miter"/>
     <use xlink:href="#mb24e65698b" x="745.441561" y="142.356569" style="fill: #808080; fill-opacity: 0.5; stroke: #808080; stroke-opacity: 0.5; stroke-linejoin: miter"/>
     <use xlink:href="#mb24e65698b" x="780.074629" y="158.020959" style="fill: #808080; fill-opacity: 0.5; stroke: #808080; stroke-opacity: 0.5; stroke-linejoin: miter"/>
     <use xlink:href="#mb24e65698b" x="806.938124" y="167.671846" style="fill: #808080; fill-opacity: 0.5; stroke: #808080; stroke-opacity: 0.5; stroke-linejoin: miter"/>
     <use xlink:href="#mb24e65698b" x="863.520265" y="195.952817" style="fill: #808080; fill-opacity: 0.5; stroke: #808080; stroke-opacity: 0.5; stroke-linejoin: miter"/>
     <use xlink:href="#mb24e65698b" x="890.383759" y="199.866677" style="fill: #808080; fill-opacity: 0.5; stroke: #808080; stroke-opacity: 0.5; stroke-linejoin: miter"/>
     <use xlink:href="#mb24e65698b" x="939.196326" y="221.948688" style="fill: #808080; fill-opacity: 0.5; stroke: #808080; stroke-opacity: 0.5; stroke-linejoin: miter"/>
     <use xlink:href="#mb24e65698b" x="973.829394" y="236.276928" style="fill: #808080; fill-opacity: 0.5; stroke: #808080; stroke-opacity: 0.5; stroke-linejoin: miter"/>
    </g>
   </g>
   <g id="line2d_138">
    <path d="M 613.183358 200.885277 
L 696.628994 218.669104 
L 745.441561 218.016378 
L 780.074629 222.391446 
L 806.938124 193.582511 
L 828.887197 188.270232 
L 847.444874 194.921083 
L 863.520265 200.7361 
L 877.699764 205.904743 
L 890.383759 210.558438 
" clip-path="url(#pe2aa4c6d38)" style="fill: none; stroke: #1f77b4; stroke-width: 1.5; stroke-linecap: square"/>
    <g clip-path="url(#pe2aa4c6d38)">
     <use xlink:href="#ma3eeb2bf81" x="613.183358" y="200.885277" style="fill: #1f77b4; stroke: #1f77b4"/>
     <use xlink:href="#ma3eeb2bf81" x="696.628994" y="218.669104" style="fill: #1f77b4; stroke: #1f77b4"/>
     <use xlink:href="#ma3eeb2bf81" x="745.441561" y="218.016378" style="fill: #1f77b4; stroke: #1f77b4"/>
     <use xlink:href="#ma3eeb2bf81" x="780.074629" y="222.391446" style="fill: #1f77b4; stroke: #1f77b4"/>
     <use xlink:href="#ma3eeb2bf81" x="806.938124" y="193.582511" style="fill: #1f77b4; stroke: #1f77b4"/>
     <use xlink:href="#ma3eeb2bf81" x="828.887197" y="188.270232" style="fill: #1f77b4; stroke: #1f77b4"/>
     <use xlink:href="#ma3eeb2bf81" x="847.444874" y="194.921083" style="fill: #1f77b4; stroke: #1f77b4"/>
     <use xlink:href="#ma3eeb2bf81" x="863.520265" y="200.7361" style="fill: #1f77b4; stroke: #1f77b4"/>
     <use xlink:href="#ma3eeb2bf81" x="877.699764" y="205.904743" style="fill: #1f77b4; stroke: #1f77b4"/>
     <use xlink:href="#ma3eeb2bf81" x="890.383759" y="210.558438" style="fill: #1f77b4; stroke: #1f77b4"/>
    </g>
   </g>
   <g id="line2d_139">
    <path d="M 613.183358 200.885277 
L 696.628994 218.672874 
L 745.441561 222.224932 
L 780.074629 234.923383 
L 806.938124 231.406834 
L 828.887197 238.722024 
L 847.444874 236.181875 
L 863.520265 242.167631 
L 877.699764 241.921475 
L 890.383759 247.41014 
" clip-path="url(#pe2aa4c6d38)" style="fill: none; stroke: #2ca02c; stroke-width: 1.5; stroke-linecap: square"/>
    <g clip-path="url(#pe2aa4c6d38)">
     <use xlink:href="#m77e610cd40" x="613.183358" y="200.885277" style="fill: #2ca02c; stroke: #2ca02c; stroke-linejoin: miter"/>
     <use xlink:href="#m77e610cd40" x="696.628994" y="218.672874" style="fill: #2ca02c; stroke: #2ca02c; stroke-linejoin: miter"/>
     <use xlink:href="#m77e610cd40" x="745.441561" y="222.224932" style="fill: #2ca02c; stroke: #2ca02c; stroke-linejoin: miter"/>
     <use xlink:href="#m77e610cd40" x="780.074629" y="234.923383" style="fill: #2ca02c; stroke: #2ca02c; stroke-linejoin: miter"/>
     <use xlink:href="#m77e610cd40" x="806.938124" y="231.406834" style="fill: #2ca02c; stroke: #2ca02c; stroke-linejoin: miter"/>
     <use xlink:href="#m77e610cd40" x="828.887197" y="238.722024" style="fill: #2ca02c; stroke: #2ca02c; stroke-linejoin: miter"/>
     <use xlink:href="#m77e610cd40" x="847.444874" y="236.181875" style="fill: #2ca02c; stroke: #2ca02c; stroke-linejoin: miter"/>
     <use xlink:href="#m77e610cd40" x="863.520265" y="242.167631" style="fill: #2ca02c; stroke: #2ca02c; stroke-linejoin: miter"/>
     <use xlink:href="#m77e610cd40" x="877.699764" y="241.921475" style="fill: #2ca02c; stroke: #2ca02c; stroke-linejoin: miter"/>
     <use xlink:href="#m77e610cd40" x="890.383759" y="247.41014" style="fill: #2ca02c; stroke: #2ca02c; stroke-linejoin: miter"/>
    </g>
   </g>
   <g id="line2d_140">
    <path d="M 696.628994 211.70708 
L 780.074629 229.383043 
L 828.887197 224.128833 
L 863.520265 226.365613 
L 890.383759 227.276521 
" clip-path="url(#pe2aa4c6d38)" style="fill: none; stroke: #d62728; stroke-width: 1.5; stroke-linecap: square"/>
    <g clip-path="url(#pe2aa4c6d38)">
     <use xlink:href="#m1c729b3372" x="696.628994" y="211.70708" style="fill: #d62728; stroke: #d62728; stroke-linejoin: miter"/>
     <use xlink:href="#m1c729b3372" x="780.074629" y="229.383043" style="fill: #d62728; stroke: #d62728; stroke-linejoin: miter"/>
     <use xlink:href="#m1c729b3372" x="828.887197" y="224.128833" style="fill: #d62728; stroke: #d62728; stroke-linejoin: miter"/>
     <use xlink:href="#m1c729b3372" x="863.520265" y="226.365613" style="fill: #d62728; stroke: #d62728; stroke-linejoin: miter"/>
     <use xlink:href="#m1c729b3372" x="890.383759" y="227.276521" style="fill: #d62728; stroke: #d62728; stroke-linejoin: miter"/>
    </g>
   </g>
   <g id="line2d_141">
    <path d="M 613.183358 87.978947 
L 634.319005 96.669945 
L 652.29228 104.060572 
L 667.9275 110.489789 
L 681.763529 116.179176 
L 694.172039 121.281567 
L 705.420242 125.906838 
L 715.7067 130.136639 
L 725.183 134.033303 
L 733.967492 137.645494 
L 742.154351 141.011938 
L 749.819739 144.163952 
L 757.026127 147.127226 
L 763.825395 149.923091 
L 770.261091 152.569455 
L 776.370134 155.081499 
L 782.184085 157.472201 
L 787.730146 159.752747 
L 793.031919 161.932841 
L 798.110021 164.02096 
L 802.982561 166.024554 
L 807.665537 167.950198 
L 812.173149 169.803732 
L 816.518056 171.590362 
L 820.711597 173.31475 
L 824.763965 174.981087 
L 828.684355 176.593155 
L 832.481094 178.154377 
L 836.161743 179.667864 
L 839.733192 181.136447 
L 843.201735 182.562715 
L 846.573135 183.949037 
L 849.852686 185.297592 
L 853.04526 186.610381 
L 856.155352 187.889254 
L 859.187117 189.135919 
L 862.144403 190.351957 
L 865.030781 191.538839 
L 867.849574 192.697929 
L 870.603873 193.830499 
L 873.296563 194.937736 
L 875.930342 196.020748 
L 878.507731 197.080573 
L 881.031095 198.118182 
L 883.502652 199.134489 
L 885.924486 200.130349 
L 888.298559 201.10657 
L 890.626719 202.063912 
L 892.910707 203.00309 
L 895.152169 203.924781 
L 897.352658 204.829624 
L 899.513647 205.718225 
L 901.636529 206.591156 
L 903.722623 207.44896 
L 905.773184 208.292152 
L 907.789402 209.121223 
L 909.772408 209.936637 
L 911.723278 210.738836 
L 913.643038 211.528243 
L 915.532664 212.305259 
L 917.393088 213.070267 
L 919.225198 213.823633 
L 921.029844 214.565705 
L 922.807836 215.296817 
L 924.559951 216.017288 
L 926.286931 216.727424 
L 927.989487 217.427516 
L 929.668299 218.117845 
L 931.324023 218.79868 
L 932.957283 219.470278 
L 934.568681 220.132887 
L 936.158794 220.786743 
L 937.728179 221.432075 
L 939.277368 222.069103 
L 940.806874 222.698037 
L 942.317191 223.319081 
L 943.808795 223.93243 
L 945.282144 224.538273 
L 946.737679 225.13679 
L 948.175826 225.728157 
L 949.596995 226.312543 
L 951.001583 226.890111 
L 952.389972 227.461018 
L 953.762531 228.025416 
L 955.119618 228.583451 
L 956.461577 229.135266 
L 957.788742 229.680997 
L 959.101435 230.220778 
L 960.399969 230.754736 
L 961.684646 231.282997 
L 962.955759 231.805679 
L 964.21359 232.322901 
L 965.458415 232.834774 
L 966.6905 233.341408 
L 967.910102 233.84291 
L 969.117474 234.339382 
L 970.312856 234.830924 
L 971.496486 235.317634 
L 972.668591 235.799605 
L 973.829394 236.276928 
" clip-path="url(#pe2aa4c6d38)" style="fill: none; stroke-dasharray: 4.44,1.92; stroke-dashoffset: 0; stroke: #000000; stroke-opacity: 0.7; stroke-width: 1.2"/>
   </g>
   <g id="line2d_142">
    <path d="M 613.183358 87.978947 
L 634.319005 105.360942 
L 652.29228 120.142196 
L 667.9275 133.00063 
L 681.763529 144.379405 
L 694.172039 154.584187 
L 705.420242 163.834729 
L 715.7067 172.294332 
L 725.183 180.087658 
L 733.967492 187.312041 
L 742.154351 194.044928 
L 749.819739 200.348957 
L 757.026127 206.275504 
L 763.825395 211.867234 
L 770.261091 217.159963 
L 776.370134 222.184051 
L 782.184085 226.965455 
L 787.730146 231.526546 
L 793.031919 235.886734 
L 798.110021 240.062974 
L 802.982561 244.07016 
L 807.665537 247.921448 
L 812.173149 251.628516 
L 816.518056 255.201776 
L 820.711597 258.650552 
L 824.763965 261.983226 
L 828.684355 265.207362 
L 832.481094 268.329807 
L 836.161743 271.35678 
L 839.733192 274.293946 
L 843.201735 277.146482 
L 846.573135 279.919128 
L 849.852686 282.616237 
L 853.04526 285.241816 
L 856.155352 287.799561 
L 859.187117 290.29289 
L 862.144403 292.724967 
L 865.030781 295.09873 
L 867.849574 297.41691 
L 870.603873 299.682051 
L 873.296563 301.896524 
L 875.930342 304.062549 
L 878.507731 306.182198 
L 881.031095 308.257417 
L 883.502652 310.29003 
L 885.924486 312.281751 
L 888.298559 314.234193 
L 890.626719 316.148876 
L 892.910707 318.027232 
L 895.152169 319.870614 
L 897.352658 321.680301 
L 899.513647 323.457502 
L 901.636529 325.203364 
L 903.722623 326.918972 
L 905.773184 328.605357 
L 907.789402 330.263498 
L 909.772408 331.894326 
L 911.723278 333.498725 
L 913.643038 335.077539 
L 915.532664 336.631571 
L 917.393088 338.161587 
L 919.225198 339.668318 
L 921.029844 341.152462 
L 922.807836 342.614686 
L 924.559951 344.055629 
L 926.286931 345.4759 
L 927.989487 346.876085 
L 929.668299 348.256744 
L 931.324023 349.618413 
L 932.957283 350.961609 
L 934.568681 352.286826 
L 936.158794 353.594539 
L 937.728179 354.885203 
L 939.277368 356.159259 
L 940.806874 357.417127 
L 942.317191 358.659215 
L 943.808795 359.885913 
L 945.282144 361.097598 
L 946.737679 362.294633 
L 948.175826 363.477367 
L 949.596995 364.646139 
L 951.001583 365.801275 
L 952.389972 366.943089 
L 953.762531 368.071884 
L 955.119618 369.187955 
L 956.461577 370.291584 
L 957.788742 371.383047 
L 959.101435 372.462609 
L 960.399969 373.530525 
L 961.684646 374.587046 
L 962.955759 375.632411 
L 964.21359 376.666854 
L 965.458415 377.6906 
L 966.6905 378.703869 
L 967.910102 379.706873 
L 969.117474 380.699817 
L 970.312856 381.682902 
L 971.496486 382.656321 
L 972.668591 383.620262 
L 973.829394 384.574909 
" clip-path="url(#pe2aa4c6d38)" style="fill: none; stroke-dasharray: 1,1.65; stroke-dashoffset: 0; stroke: #000000; stroke-opacity: 0.5"/>
   </g>
   <g id="patch_9">
    <path d="M 529.737723 399.688 
L 529.737723 67.2 
" style="fill: none; stroke: #000000; stroke-width: 0.8; stroke-linejoin: miter; stroke-linecap: square"/>
   </g>
   <g id="patch_10">
    <path d="M 991.861696 399.688 
L 991.861696 67.2 
" style="fill: none; stroke: #000000; stroke-width: 0.8; stroke-linejoin: miter; stroke-linecap: square"/>
   </g>
   <g id="patch_11">
    <path d="M 529.737723 399.688 
L 991.861696 399.688 
" style="fill: none; stroke: #000000; stroke-width: 0.8; stroke-linejoin: miter; stroke-linecap: square"/>
   </g>
   <g id="patch_12">
    <path d="M 529.737723 67.2 
L 991.861696 67.2 
" style="fill: none; stroke: #000000; stroke-width: 0.8; stroke-linejoin: miter; stroke-linecap: square"/>
   </g>
   <g id="text_17">
    <!-- $\omega = 1.0$ -->
    <g transform="translate(737.00971 61.2) scale(0.13 -0.13)">
     <use xlink:href="#DejaVuSans-Oblique-3c9" transform="translate(0 0.78125)"/>
     <use xlink:href="#DejaVuSans-3d" transform="translate(103.222656 0.78125)"/>
     <use xlink:href="#DejaVuSans-31" transform="translate(206.494141 0.78125)"/>
     <use xlink:href="#DejaVuSans-2e" transform="translate(270.117188 0.78125)"/>
     <use xlink:href="#DejaVuSans-30" transform="translate(301.904297 0.78125)"/>
    </g>
   </g>
   <g id="legend_2">
    <g id="patch_13">
     <path d="M 847.300759 134.494062 
L 986.961696 134.494062 
Q 988.361696 134.494062 988.361696 133.094062 
L 988.361696 72.1 
Q 988.361696 70.7 986.961696 70.7 
L 847.300759 70.7 
Q 845.900759 70.7 845.900759 72.1 
L 845.900759 133.094062 
Q 845.900759 134.494062 847.300759 134.494062 
z
" style="fill: #ffffff; opacity: 0.8; stroke: #cccccc; stroke-linejoin: miter"/>
    </g>
    <g id="line2d_143">
     <path d="M 848.700759 76.368906 
L 855.700759 76.368906 
L 862.700759 76.368906 
" style="fill: none; stroke-dasharray: 3.7,1.6; stroke-dashoffset: 0; stroke: #808080; stroke-opacity: 0.5"/>
     <g>
      <use xlink:href="#mb24e65698b" x="855.700759" y="76.368906" style="fill: #808080; fill-opacity: 0.5; stroke: #808080; stroke-opacity: 0.5; stroke-linejoin: miter"/>
     </g>
    </g>
    <g id="text_18">
     <!-- Stage A: linear (joint-opt params) -->
     <g transform="translate(868.300759 78.818906) scale(0.07 -0.07)">
      <use xlink:href="#DejaVuSans-53"/>
      <use xlink:href="#DejaVuSans-74" transform="translate(63.476562 0)"/>
      <use xlink:href="#DejaVuSans-61" transform="translate(102.685547 0)"/>
      <use xlink:href="#DejaVuSans-67" transform="translate(163.964844 0)"/>
      <use xlink:href="#DejaVuSans-65" transform="translate(227.441406 0)"/>
      <use xlink:href="#DejaVuSans-20" transform="translate(288.964844 0)"/>
      <use xlink:href="#DejaVuSans-41" transform="translate(320.751953 0)"/>
      <use xlink:href="#DejaVuSans-3a" transform="translate(387.410156 0)"/>
      <use xlink:href="#DejaVuSans-20" transform="translate(421.101562 0)"/>
      <use xlink:href="#DejaVuSans-6c" transform="translate(452.888672 0)"/>
      <use xlink:href="#DejaVuSans-69" transform="translate(480.671875 0)"/>
      <use xlink:href="#DejaVuSans-6e" transform="translate(508.455078 0)"/>
      <use xlink:href="#DejaVuSans-65" transform="translate(571.833984 0)"/>
      <use xlink:href="#DejaVuSans-61" transform="translate(633.357422 0)"/>
      <use xlink:href="#DejaVuSans-72" transform="translate(694.636719 0)"/>
      <use xlink:href="#DejaVuSans-20" transform="translate(735.75 0)"/>
      <use xlink:href="#DejaVuSans-28" transform="translate(767.537109 0)"/>
      <use xlink:href="#DejaVuSans-6a" transform="translate(806.550781 0)"/>
      <use xlink:href="#DejaVuSans-6f" transform="translate(834.333984 0)"/>
      <use xlink:href="#DejaVuSans-69" transform="translate(895.515625 0)"/>
      <use xlink:href="#DejaVuSans-6e" transform="translate(923.298828 0)"/>
      <use xlink:href="#DejaVuSans-74" transform="translate(986.677734 0)"/>
      <use xlink:href="#DejaVuSans-2d" transform="translate(1025.886719 0)"/>
      <use xlink:href="#DejaVuSans-6f" transform="translate(1063.845703 0)"/>
      <use xlink:href="#DejaVuSans-70" transform="translate(1125.027344 0)"/>
      <use xlink:href="#DejaVuSans-74" transform="translate(1188.503906 0)"/>
      <use xlink:href="#DejaVuSans-20" transform="translate(1227.712891 0)"/>
      <use xlink:href="#DejaVuSans-70" transform="translate(1259.5 0)"/>
      <use xlink:href="#DejaVuSans-61" transform="translate(1322.976562 0)"/>
      <use xlink:href="#DejaVuSans-72" transform="translate(1384.255859 0)"/>
      <use xlink:href="#DejaVuSans-61" transform="translate(1425.369141 0)"/>
      <use xlink:href="#DejaVuSans-6d" transform="translate(1486.648438 0)"/>
      <use xlink:href="#DejaVuSans-73" transform="translate(1584.060547 0)"/>
      <use xlink:href="#DejaVuSans-29" transform="translate(1636.160156 0)"/>
     </g>
    </g>
    <g id="line2d_144">
     <path d="M 848.700759 86.644687 
L 855.700759 86.644687 
L 862.700759 86.644687 
" style="fill: none; stroke: #1f77b4; stroke-width: 1.5; stroke-linecap: square"/>
     <g>
      <use xlink:href="#ma3eeb2bf81" x="855.700759" y="86.644687" style="fill: #1f77b4; stroke: #1f77b4"/>
     </g>
    </g>
    <g id="text_19">
     <!-- Best $\Delta\omega_{\mathrm{lin}}$ (Stage B) -->
     <g transform="translate(868.300759 89.094687) scale(0.07 -0.07)">
      <use xlink:href="#DejaVuSans-42" transform="translate(0 0.125)"/>
      <use xlink:href="#DejaVuSans-65" transform="translate(68.603516 0.125)"/>
      <use xlink:href="#DejaVuSans-73" transform="translate(130.126953 0.125)"/>
      <use xlink:href="#DejaVuSans-74" transform="translate(182.226562 0.125)"/>
      <use xlink:href="#DejaVuSans-20" transform="translate(221.435547 0.125)"/>
      <use xlink:href="#DejaVuSans-394" transform="translate(253.222656 0.125)"/>
      <use xlink:href="#DejaVuSans-Oblique-3c9" transform="translate(321.630859 0.125)"/>
      <use xlink:href="#DejaVuSans-6c" transform="translate(405.371094 -16.28125) scale(0.7)"/>
      <use xlink:href="#DejaVuSans-69" transform="translate(424.819336 -16.28125) scale(0.7)"/>
      <use xlink:href="#DejaVuSans-6e" transform="translate(444.267578 -16.28125) scale(0.7)"/>
      <use xlink:href="#DejaVuSans-20" transform="translate(491.367188 0.125)"/>
      <use xlink:href="#DejaVuSans-28" transform="translate(523.154297 0.125)"/>
      <use xlink:href="#DejaVuSans-53" transform="translate(562.167969 0.125)"/>
      <use xlink:href="#DejaVuSans-74" transform="translate(625.644531 0.125)"/>
      <use xlink:href="#DejaVuSans-61" transform="translate(664.853516 0.125)"/>
      <use xlink:href="#DejaVuSans-67" transform="translate(726.132812 0.125)"/>
      <use xlink:href="#DejaVuSans-65" transform="translate(789.609375 0.125)"/>
      <use xlink:href="#DejaVuSans-20" transform="translate(851.132812 0.125)"/>
      <use xlink:href="#DejaVuSans-42" transform="translate(882.919922 0.125)"/>
      <use xlink:href="#DejaVuSans-29" transform="translate(951.523438 0.125)"/>
     </g>
    </g>
    <g id="line2d_145">
     <path d="M 848.700759 96.934687 
L 855.700759 96.934687 
L 862.700759 96.934687 
" style="fill: none; stroke: #2ca02c; stroke-width: 1.5; stroke-linecap: square"/>
     <g>
      <use xlink:href="#m77e610cd40" x="855.700759" y="96.934687" style="fill: #2ca02c; stroke: #2ca02c; stroke-linejoin: miter"/>
     </g>
    </g>
    <g id="text_20">
     <!-- Best $\Delta\omega_{\mathrm{CFI}}$ (Stage B) -->
     <g transform="translate(868.300759 99.384687) scale(0.07 -0.07)">
      <use xlink:href="#DejaVuSans-42" transform="translate(0 0.125)"/>
      <use xlink:href="#DejaVuSans-65" transform="translate(68.603516 0.125)"/>
      <use xlink:href="#DejaVuSans-73" transform="translate(130.126953 0.125)"/>
      <use xlink:href="#DejaVuSans-74" transform="translate(182.226562 0.125)"/>
      <use xlink:href="#DejaVuSans-20" transform="translate(221.435547 0.125)"/>
      <use xlink:href="#DejaVuSans-394" transform="translate(253.222656 0.125)"/>
      <use xlink:href="#DejaVuSans-Oblique-3c9" transform="translate(321.630859 0.125)"/>
      <use xlink:href="#DejaVuSans-43" transform="translate(405.371094 -16.28125) scale(0.7)"/>
      <use xlink:href="#DejaVuSans-46" transform="translate(454.248047 -16.28125) scale(0.7)"/>
      <use xlink:href="#DejaVuSans-49" transform="translate(494.511719 -16.28125) scale(0.7)"/>
      <use xlink:href="#DejaVuSans-20" transform="translate(517.890625 0.125)"/>
      <use xlink:href="#DejaVuSans-28" transform="translate(549.677734 0.125)"/>
      <use xlink:href="#DejaVuSans-53" transform="translate(588.691406 0.125)"/>
      <use xlink:href="#DejaVuSans-74" transform="translate(652.167969 0.125)"/>
      <use xlink:href="#DejaVuSans-61" transform="translate(691.376953 0.125)"/>
      <use xlink:href="#DejaVuSans-67" transform="translate(752.65625 0.125)"/>
      <use xlink:href="#DejaVuSans-65" transform="translate(816.132812 0.125)"/>
      <use xlink:href="#DejaVuSans-20" transform="translate(877.65625 0.125)"/>
      <use xlink:href="#DejaVuSans-42" transform="translate(909.443359 0.125)"/>
      <use xlink:href="#DejaVuSans-29" transform="translate(978.046875 0.125)"/>
     </g>
    </g>
    <g id="line2d_146">
     <path d="M 848.700759 107.224687 
L 855.700759 107.224687 
L 862.700759 107.224687 
" style="fill: none; stroke: #d62728; stroke-width: 1.5; stroke-linecap: square"/>
     <g>
      <use xlink:href="#m1c729b3372" x="855.700759" y="107.224687" style="fill: #d62728; stroke: #d62728; stroke-linejoin: miter"/>
     </g>
    </g>
    <g id="text_21">
     <!-- Best $\Delta\omega_{\Pi}$ (Stage B) -->
     <g transform="translate(868.300759 109.674687) scale(0.07 -0.07)">
      <use xlink:href="#DejaVuSans-42" transform="translate(0 0.125)"/>
      <use xlink:href="#DejaVuSans-65" transform="translate(68.603516 0.125)"/>
      <use xlink:href="#DejaVuSans-73" transform="translate(130.126953 0.125)"/>
      <use xlink:href="#DejaVuSans-74" transform="translate(182.226562 0.125)"/>
      <use xlink:href="#DejaVuSans-20" transform="translate(221.435547 0.125)"/>
      <use xlink:href="#DejaVuSans-394" transform="translate(253.222656 0.125)"/>
      <use xlink:href="#DejaVuSans-Oblique-3c9" transform="translate(321.630859 0.125)"/>
      <use xlink:href="#DejaVuSans-3a0" transform="translate(405.371094 -16.28125) scale(0.7)"/>
      <use xlink:href="#DejaVuSans-20" transform="translate(460.742188 0.125)"/>
      <use xlink:href="#DejaVuSans-28" transform="translate(492.529297 0.125)"/>
      <use xlink:href="#DejaVuSans-53" transform="translate(531.542969 0.125)"/>
      <use xlink:href="#DejaVuSans-74" transform="translate(595.019531 0.125)"/>
      <use xlink:href="#DejaVuSans-61" transform="translate(634.228516 0.125)"/>
      <use xlink:href="#DejaVuSans-67" transform="translate(695.507812 0.125)"/>
      <use xlink:href="#DejaVuSans-65" transform="translate(758.984375 0.125)"/>
      <use xlink:href="#DejaVuSans-20" transform="translate(820.507812 0.125)"/>
      <use xlink:href="#DejaVuSans-42" transform="translate(852.294922 0.125)"/>
      <use xlink:href="#DejaVuSans-29" transform="translate(920.898438 0.125)"/>
     </g>
    </g>
    <g id="line2d_147">
     <path d="M 848.700759 117.513594 
L 855.700759 117.513594 
L 862.700759 117.513594 
" style="fill: none; stroke-dasharray: 4.44,1.92; stroke-dashoffset: 0; stroke: #000000; stroke-opacity: 0.7; stroke-width: 1.2"/>
    </g>
    <g id="text_22">
     <!-- SQL -->
     <g transform="translate(868.300759 119.963594) scale(0.07 -0.07)">
      <use xlink:href="#DejaVuSans-53"/>
      <use xlink:href="#DejaVuSans-51" transform="translate(63.476562 0)"/>
      <use xlink:href="#DejaVuSans-4c" transform="translate(142.1875 0)"/>
     </g>
    </g>
    <g id="line2d_148">
     <path d="M 848.700759 127.788281 
L 855.700759 127.788281 
L 862.700759 127.788281 
" style="fill: none; stroke-dasharray: 1,1.65; stroke-dashoffset: 0; stroke: #000000; stroke-opacity: 0.5"/>
    </g>
    <g id="text_23">
     <!-- HL -->
     <g transform="translate(868.300759 130.238281) scale(0.07 -0.07)">
      <use xlink:href="#DejaVuSans-48"/>
      <use xlink:href="#DejaVuSans-4c" transform="translate(75.195312 0)"/>
     </g>
    </g>
   </g>
  </g>
  <g id="text_24">
   <!-- Best sensitivity vs N across measurement protocols -->
   <g transform="translate(317.676696 17.837812) scale(0.14 -0.14)">
    <defs>
     <path id="DejaVuSans-76" d="M 191 3500 
L 800 3500 
L 1894 563 
L 2988 3500 
L 3597 3500 
L 2284 0 
L 1503 0 
L 191 3500 
z
" transform="scale(0.015625)"/>
     <path id="DejaVuSans-79" d="M 2059 -325 
Q 1816 -950 1584 -1140 
Q 1353 -1331 966 -1331 
L 506 -1331 
L 506 -850 
L 844 -850 
Q 1081 -850 1212 -737 
Q 1344 -625 1503 -206 
L 1606 56 
L 191 3500 
L 800 3500 
L 1894 763 
L 2988 3500 
L 3597 3500 
L 2059 -325 
z
" transform="scale(0.015625)"/>
     <path id="DejaVuSans-4e" d="M 628 4666 
L 1478 4666 
L 3547 763 
L 3547 4666 
L 4159 4666 
L 4159 0 
L 3309 0 
L 1241 3903 
L 1241 0 
L 628 0 
L 628 4666 
z
" transform="scale(0.015625)"/>
     <path id="DejaVuSans-63" d="M 3122 3366 
L 3122 2828 
Q 2878 2963 2633 3030 
Q 2388 3097 2138 3097 
Q 1578 3097 1268 2742 
Q 959 2388 959 1747 
Q 959 1106 1268 751 
Q 1578 397 2138 397 
Q 2388 397 2633 464 
Q 2878 531 3122 666 
L 3122 134 
Q 2881 22 2623 -34 
Q 2366 -91 2075 -91 
Q 1284 -91 818 406 
Q 353 903 353 1747 
Q 353 2603 823 3093 
Q 1294 3584 2113 3584 
Q 2378 3584 2631 3529 
Q 2884 3475 3122 3366 
z
" transform="scale(0.015625)"/>
     <path id="DejaVuSans-75" d="M 544 1381 
L 544 3500 
L 1119 3500 
L 1119 1403 
Q 1119 906 1312 657 
Q 1506 409 1894 409 
Q 2359 409 2629 706 
Q 2900 1003 2900 1516 
L 2900 3500 
L 3475 3500 
L 3475 0 
L 2900 0 
L 2900 538 
Q 2691 219 2414 64 
Q 2138 -91 1772 -91 
Q 1169 -91 856 284 
Q 544 659 544 1381 
z
M 1991 3584 
L 1991 3584 
z
" transform="scale(0.015625)"/>
    </defs>
    <use xlink:href="#DejaVuSans-42"/>
    <use xlink:href="#DejaVuSans-65" transform="translate(68.603516 0)"/>
    <use xlink:href="#DejaVuSans-73" transform="translate(130.126953 0)"/>
    <use xlink:href="#DejaVuSans-74" transform="translate(182.226562 0)"/>
    <use xlink:href="#DejaVuSans-20" transform="translate(221.435547 0)"/>
    <use xlink:href="#DejaVuSans-73" transform="translate(253.222656 0)"/>
    <use xlink:href="#DejaVuSans-65" transform="translate(305.322266 0)"/>
    <use xlink:href="#DejaVuSans-6e" transform="translate(366.845703 0)"/>
    <use xlink:href="#DejaVuSans-73" transform="translate(430.224609 0)"/>
    <use xlink:href="#DejaVuSans-69" transform="translate(482.324219 0)"/>
    <use xlink:href="#DejaVuSans-74" transform="translate(510.107422 0)"/>
    <use xlink:href="#DejaVuSans-69" transform="translate(549.316406 0)"/>
    <use xlink:href="#DejaVuSans-76" transform="translate(577.099609 0)"/>
    <use xlink:href="#DejaVuSans-69" transform="translate(636.279297 0)"/>
    <use xlink:href="#DejaVuSans-74" transform="translate(664.0625 0)"/>
    <use xlink:href="#DejaVuSans-79" transform="translate(703.271484 0)"/>
    <use xlink:href="#DejaVuSans-20" transform="translate(762.451172 0)"/>
    <use xlink:href="#DejaVuSans-76" transform="translate(794.238281 0)"/>
    <use xlink:href="#DejaVuSans-73" transform="translate(853.417969 0)"/>
    <use xlink:href="#DejaVuSans-20" transform="translate(905.517578 0)"/>
    <use xlink:href="#DejaVuSans-4e" transform="translate(937.304688 0)"/>
    <use xlink:href="#DejaVuSans-20" transform="translate(1012.109375 0)"/>
    <use xlink:href="#DejaVuSans-61" transform="translate(1043.896484 0)"/>
    <use xlink:href="#DejaVuSans-63" transform="translate(1105.175781 0)"/>
    <use xlink:href="#DejaVuSans-72" transform="translate(1160.15625 0)"/>
    <use xlink:href="#DejaVuSans-6f" transform="translate(1199.019531 0)"/>
    <use xlink:href="#DejaVuSans-73" transform="translate(1260.201172 0)"/>
    <use xlink:href="#DejaVuSans-73" transform="translate(1312.300781 0)"/>
    <use xlink:href="#DejaVuSans-20" transform="translate(1364.400391 0)"/>
    <use xlink:href="#DejaVuSans-6d" transform="translate(1396.1875 0)"/>
    <use xlink:href="#DejaVuSans-65" transform="translate(1493.599609 0)"/>
    <use xlink:href="#DejaVuSans-61" transform="translate(1555.123047 0)"/>
    <use xlink:href="#DejaVuSans-73" transform="translate(1616.402344 0)"/>
    <use xlink:href="#DejaVuSans-75" transform="translate(1668.501953 0)"/>
    <use xlink:href="#DejaVuSans-72" transform="translate(1731.880859 0)"/>
    <use xlink:href="#DejaVuSans-65" transform="translate(1770.744141 0)"/>
    <use xlink:href="#DejaVuSans-6d" transform="translate(1832.267578 0)"/>
    <use xlink:href="#DejaVuSans-65" transform="translate(1929.679688 0)"/>
    <use xlink:href="#DejaVuSans-6e" transform="translate(1991.203125 0)"/>
    <use xlink:href="#DejaVuSans-74" transform="translate(2054.582031 0)"/>
    <use xlink:href="#DejaVuSans-20" transform="translate(2093.791016 0)"/>
    <use xlink:href="#DejaVuSans-70" transform="translate(2125.578125 0)"/>
    <use xlink:href="#DejaVuSans-72" transform="translate(2189.054688 0)"/>
    <use xlink:href="#DejaVuSans-6f" transform="translate(2227.917969 0)"/>
    <use xlink:href="#DejaVuSans-74" transform="translate(2289.099609 0)"/>
    <use xlink:href="#DejaVuSans-6f" transform="translate(2328.308594 0)"/>
    <use xlink:href="#DejaVuSans-63" transform="translate(2389.490234 0)"/>
    <use xlink:href="#DejaVuSans-6f" transform="translate(2444.470703 0)"/>
    <use xlink:href="#DejaVuSans-6c" transform="translate(2505.652344 0)"/>
    <use xlink:href="#DejaVuSans-73" transform="translate(2533.435547 0)"/>
   </g>
  </g>
 </g>
 <defs>
  <clipPath id="p028b583fa9">
   <rect x="53.31375" y="67.2" width="462.123973" height="332.488"/>
  </clipPath>
  <clipPath id="pe2aa4c6d38">
   <rect x="529.737723" y="67.2" width="462.123973" height="332.488"/>
  </clipPath>
 </defs>
</svg>
