<?xml version="1.0" encoding="utf-8" standalone="no"?>
<!DOCTYPE svg PUBLIC "-//W3C//DTD SVG 1.1//EN"
  "http://www.w3.org/Graphics/SVG/1.1/DTD/svg11.dtd">
<svg xmlns:xlink="http://www.w3.org/1999/xlink" width="487.840625pt" height="337.074375pt" viewBox="0 0 487.840625 337.074375" xmlns="http://www.w3.org/2000/svg" version="1.1">
 <metadata>
  <rdf:RDF xmlns:dc="http://purl.org/dc/elements/1.1/" xmlns:cc="http://creativecommons.org/ns#" xmlns:rdf="http://www.w3.org/1999/02/22-rdf-syntax-ns#">
   <cc:Work>
    <dc:type rdf:resource="http://purl.org/dc/dcmitype/StillImage"/>
    <dc:date>2026-06-21T20:48:53.047356</dc:date>
    <dc:format>image/svg+xml</dc:format>
    <dc:creator>
     <cc:Agent>
      <dc:title>Matplotlib v3.10.9, https://matplotlib.org/</dc:title>
     </cc:Agent>
    </dc:creator>
   </cc:Work>
  </rdf:RDF>
 </metadata>
 <defs>
  <style type="text/css">*{stroke-linejoin: round; stroke-linecap: butt}</style>
 </defs>
 <g id="figure_1">
  <g id="patch_1">
   <path d="M 0 337.074375 
L 487.840625 337.074375 
L 487.840625 0 
L 0 0 
z
" style="fill: #ffffff"/>
  </g>
  <g id="axes_1">
   <g id="patch_2">
    <path d="M 34.240625 299.518125 
L 480.640625 299.518125 
L 480.640625 22.318125 
L 34.240625 22.318125 
z
" style="fill: #ffffff"/>
   </g>
   <g id="matplotlib.axis_1">
    <g id="xtick_1">
     <g id="line2d_1">
      <path d="M 46.24953 299.518125 
L 46.24953 22.318125 
" clip-path="url(#pc5cf3c2b5b)" style="fill: none; stroke: #b0b0b0; stroke-opacity: 0.3; stroke-width: 0.8; stroke-linecap: square"/>
     </g>
     <g id="line2d_2">
      <defs>
       <path id="m26ff6bcd7e" d="M 0 0 
L 0 3.5 
" style="stroke: #000000; stroke-width: 0.8"/>
      </defs>
      <g>
       <use xlink:href="#m26ff6bcd7e" x="46.24953" y="299.518125" style="stroke: #000000; stroke-width: 0.8"/>
      </g>
     </g>
     <g id="text_1">
      <!-- 0 -->
      <g transform="translate(43.06828 314.116563) scale(0.1 -0.1)">
       <defs>
        <path id="DejaVuSans-30" d="M 2034 4250 
Q 1547 4250 1301 3770 
Q 1056 3291 1056 2328 
Q 1056 1369 1301 889 
Q 1547 409 2034 409 
Q 2525 409 2770 889 
Q 3016 1369 3016 2328 
Q 3016 3291 2770 3770 
Q 2525 4250 2034 4250 
z
M 2034 4750 
Q 2819 4750 3233 4129 
Q 3647 3509 3647 2328 
Q 3647 1150 3233 529 
Q 2819 -91 2034 -91 
Q 1250 -91 836 529 
Q 422 1150 422 2328 
Q 422 3509 836 4129 
Q 1250 4750 2034 4750 
z
" transform="scale(0.015625)"/>
       </defs>
       <use xlink:href="#DejaVuSans-30"/>
      </g>
     </g>
    </g>
    <g id="xtick_2">
     <g id="line2d_3">
      <path d="M 129.069567 299.518125 
L 129.069567 22.318125 
" clip-path="url(#pc5cf3c2b5b)" style="fill: none; stroke: #b0b0b0; stroke-opacity: 0.3; stroke-width: 0.8; stroke-linecap: square"/>
     </g>
     <g id="line2d_4">
      <g>
       <use xlink:href="#m26ff6bcd7e" x="129.069567" y="299.518125" style="stroke: #000000; stroke-width: 0.8"/>
      </g>
     </g>
     <g id="text_2">
      <!-- 1 -->
      <g transform="translate(125.888317 314.116563) scale(0.1 -0.1)">
       <defs>
        <path id="DejaVuSans-31" d="M 794 531 
L 1825 531 
L 1825 4091 
L 703 3866 
L 703 4441 
L 1819 4666 
L 2450 4666 
L 2450 531 
L 3481 531 
L 3481 0 
L 794 0 
L 794 531 
z
" transform="scale(0.015625)"/>
       </defs>
       <use xlink:href="#DejaVuSans-31"/>
      </g>
     </g>
    </g>
    <g id="xtick_3">
     <g id="line2d_5">
      <path d="M 211.889605 299.518125 
L 211.889605 22.318125 
" clip-path="url(#pc5cf3c2b5b)" style="fill: none; stroke: #b0b0b0; stroke-opacity: 0.3; stroke-width: 0.8; stroke-linecap: square"/>
     </g>
     <g id="line2d_6">
      <g>
       <use xlink:href="#m26ff6bcd7e" x="211.889605" y="299.518125" style="stroke: #000000; stroke-width: 0.8"/>
      </g>
     </g>
     <g id="text_3">
      <!-- 2 -->
      <g transform="translate(208.708355 314.116563) scale(0.1 -0.1)">
       <defs>
        <path id="DejaVuSans-32" d="M 1228 531 
L 3431 531 
L 3431 0 
L 469 0 
L 469 531 
Q 828 903 1448 1529 
Q 2069 2156 2228 2338 
Q 2531 2678 2651 2914 
Q 2772 3150 2772 3378 
Q 2772 3750 2511 3984 
Q 2250 4219 1831 4219 
Q 1534 4219 1204 4116 
Q 875 4013 500 3803 
L 500 4441 
Q 881 4594 1212 4672 
Q 1544 4750 1819 4750 
Q 2544 4750 2975 4387 
Q 3406 4025 3406 3419 
Q 3406 3131 3298 2873 
Q 3191 2616 2906 2266 
Q 2828 2175 2409 1742 
Q 1991 1309 1228 531 
z
" transform="scale(0.015625)"/>
       </defs>
       <use xlink:href="#DejaVuSans-32"/>
      </g>
     </g>
    </g>
    <g id="xtick_4">
     <g id="line2d_7">
      <path d="M 294.709642 299.518125 
L 294.709642 22.318125 
" clip-path="url(#pc5cf3c2b5b)" style="fill: none; stroke: #b0b0b0; stroke-opacity: 0.3; stroke-width: 0.8; stroke-linecap: square"/>
     </g>
     <g id="line2d_8">
      <g>
       <use xlink:href="#m26ff6bcd7e" x="294.709642" y="299.518125" style="stroke: #000000; stroke-width: 0.8"/>
      </g>
     </g>
     <g id="text_4">
      <!-- 3 -->
      <g transform="translate(291.528392 314.116563) scale(0.1 -0.1)">
       <defs>
        <path id="DejaVuSans-33" d="M 2597 2516 
Q 3050 2419 3304 2112 
Q 3559 1806 3559 1356 
Q 3559 666 3084 287 
Q 2609 -91 1734 -91 
Q 1441 -91 1130 -33 
Q 819 25 488 141 
L 488 750 
Q 750 597 1062 519 
Q 1375 441 1716 441 
Q 2309 441 2620 675 
Q 2931 909 2931 1356 
Q 2931 1769 2642 2001 
Q 2353 2234 1838 2234 
L 1294 2234 
L 1294 2753 
L 1863 2753 
Q 2328 2753 2575 2939 
Q 2822 3125 2822 3475 
Q 2822 3834 2567 4026 
Q 2313 4219 1838 4219 
Q 1578 4219 1281 4162 
Q 984 4106 628 3988 
L 628 4550 
Q 988 4650 1302 4700 
Q 1616 4750 1894 4750 
Q 2613 4750 3031 4423 
Q 3450 4097 3450 3541 
Q 3450 3153 3228 2886 
Q 3006 2619 2597 2516 
z
" transform="scale(0.015625)"/>
       </defs>
       <use xlink:href="#DejaVuSans-33"/>
      </g>
     </g>
    </g>
    <g id="xtick_5">
     <g id="line2d_9">
      <path d="M 377.529679 299.518125 
L 377.529679 22.318125 
" clip-path="url(#pc5cf3c2b5b)" style="fill: none; stroke: #b0b0b0; stroke-opacity: 0.3; stroke-width: 0.8; stroke-linecap: square"/>
     </g>
     <g id="line2d_10">
      <g>
       <use xlink:href="#m26ff6bcd7e" x="377.529679" y="299.518125" style="stroke: #000000; stroke-width: 0.8"/>
      </g>
     </g>
     <g id="text_5">
      <!-- 4 -->
      <g transform="translate(374.348429 314.116563) scale(0.1 -0.1)">
       <defs>
        <path id="DejaVuSans-34" d="M 2419 4116 
L 825 1625 
L 2419 1625 
L 2419 4116 
z
M 2253 4666 
L 3047 4666 
L 3047 1625 
L 3713 1625 
L 3713 1100 
L 3047 1100 
L 3047 0 
L 2419 0 
L 2419 1100 
L 313 1100 
L 313 1709 
L 2253 4666 
z
" transform="scale(0.015625)"/>
       </defs>
       <use xlink:href="#DejaVuSans-34"/>
      </g>
     </g>
    </g>
    <g id="xtick_6">
     <g id="line2d_11">
      <path d="M 460.349716 299.518125 
L 460.349716 22.318125 
" clip-path="url(#pc5cf3c2b5b)" style="fill: none; stroke: #b0b0b0; stroke-opacity: 0.3; stroke-width: 0.8; stroke-linecap: square"/>
     </g>
     <g id="line2d_12">
      <g>
       <use xlink:href="#m26ff6bcd7e" x="460.349716" y="299.518125" style="stroke: #000000; stroke-width: 0.8"/>
      </g>
     </g>
     <g id="text_6">
      <!-- 5 -->
      <g transform="translate(457.168466 314.116563) scale(0.1 -0.1)">
       <defs>
        <path id="DejaVuSans-35" d="M 691 4666 
L 3169 4666 
L 3169 4134 
L 1269 4134 
L 1269 2991 
Q 1406 3038 1543 3061 
Q 1681 3084 1819 3084 
Q 2600 3084 3056 2656 
Q 3513 2228 3513 1497 
Q 3513 744 3044 326 
Q 2575 -91 1722 -91 
Q 1428 -91 1123 -41 
Q 819 9 494 109 
L 494 744 
Q 775 591 1075 516 
Q 1375 441 1709 441 
Q 2250 441 2565 725 
Q 2881 1009 2881 1497 
Q 2881 1984 2565 2268 
Q 2250 2553 1709 2553 
Q 1456 2553 1204 2497 
Q 953 2441 691 2322 
L 691 4666 
z
" transform="scale(0.015625)"/>
       </defs>
       <use xlink:href="#DejaVuSans-35"/>
      </g>
     </g>
    </g>
    <g id="text_7">
     <!-- $\omega$ -->
     <g transform="translate(253.240625 327.794688) scale(0.1 -0.1)">
      <defs>
       <path id="DejaVuSans-Oblique-3c9" d="M 1369 -91 
Q 72 -91 434 1766 
Q 575 2500 1256 3500 
L 1875 3500 
Q 1231 2500 1088 1750 
Q 819 397 1519 397 
Q 2166 397 2478 2078 
L 3009 2078 
Q 2669 388 3316 397 
Q 4013 403 4275 1750 
Q 4419 2500 4169 3500 
L 4788 3500 
Q 5075 2500 4934 1766 
Q 4578 -94 3278 -91 
Q 2428 -88 2503 844 
Q 2194 -91 1369 -91 
z
" transform="scale(0.015625)"/>
      </defs>
      <use xlink:href="#DejaVuSans-Oblique-3c9" transform="translate(0 0.3125)"/>
     </g>
    </g>
   </g>
   <g id="matplotlib.axis_2">
    <g id="ytick_1">
     <g id="line2d_13">
      <path d="M 34.240625 286.918125 
L 480.640625 286.918125 
" clip-path="url(#pc5cf3c2b5b)" style="fill: none; stroke: #b0b0b0; stroke-opacity: 0.3; stroke-width: 0.8; stroke-linecap: square"/>
     </g>
     <g id="line2d_14">
      <defs>
       <path id="m81ce03a736" d="M 0 0 
L -3.5 0 
" style="stroke: #000000; stroke-width: 0.8"/>
      </defs>
      <g>
       <use xlink:href="#m81ce03a736" x="34.240625" y="286.918125" style="stroke: #000000; stroke-width: 0.8"/>
      </g>
     </g>
     <g id="text_8">
      <!-- 0 -->
      <g transform="translate(20.878125 290.717344) scale(0.1 -0.1)">
       <use xlink:href="#DejaVuSans-30"/>
      </g>
     </g>
    </g>
    <g id="ytick_2">
     <g id="line2d_15">
      <path d="M 34.240625 233.442067 
L 480.640625 233.442067 
" clip-path="url(#pc5cf3c2b5b)" style="fill: none; stroke: #b0b0b0; stroke-opacity: 0.3; stroke-width: 0.8; stroke-linecap: square"/>
     </g>
     <g id="line2d_16">
      <g>
       <use xlink:href="#m81ce03a736" x="34.240625" y="233.442067" style="stroke: #000000; stroke-width: 0.8"/>
      </g>
     </g>
     <g id="text_9">
      <!-- 1 -->
      <g transform="translate(20.878125 237.241286) scale(0.1 -0.1)">
       <use xlink:href="#DejaVuSans-31"/>
      </g>
     </g>
    </g>
    <g id="ytick_3">
     <g id="line2d_17">
      <path d="M 34.240625 179.966009 
L 480.640625 179.966009 
" clip-path="url(#pc5cf3c2b5b)" style="fill: none; stroke: #b0b0b0; stroke-opacity: 0.3; stroke-width: 0.8; stroke-linecap: square"/>
     </g>
     <g id="line2d_18">
      <g>
       <use xlink:href="#m81ce03a736" x="34.240625" y="179.966009" style="stroke: #000000; stroke-width: 0.8"/>
      </g>
     </g>
     <g id="text_10">
      <!-- 2 -->
      <g transform="translate(20.878125 183.765227) scale(0.1 -0.1)">
       <use xlink:href="#DejaVuSans-32"/>
      </g>
     </g>
    </g>
    <g id="ytick_4">
     <g id="line2d_19">
      <path d="M 34.240625 126.489951 
L 480.640625 126.489951 
" clip-path="url(#pc5cf3c2b5b)" style="fill: none; stroke: #b0b0b0; stroke-opacity: 0.3; stroke-width: 0.8; stroke-linecap: square"/>
     </g>
     <g id="line2d_20">
      <g>
       <use xlink:href="#m81ce03a736" x="34.240625" y="126.489951" style="stroke: #000000; stroke-width: 0.8"/>
      </g>
     </g>
     <g id="text_11">
      <!-- 3 -->
      <g transform="translate(20.878125 130.289169) scale(0.1 -0.1)">
       <use xlink:href="#DejaVuSans-33"/>
      </g>
     </g>
    </g>
    <g id="ytick_5">
     <g id="line2d_21">
      <path d="M 34.240625 73.013892 
L 480.640625 73.013892 
" clip-path="url(#pc5cf3c2b5b)" style="fill: none; stroke: #b0b0b0; stroke-opacity: 0.3; stroke-width: 0.8; stroke-linecap: square"/>
     </g>
     <g id="line2d_22">
      <g>
       <use xlink:href="#m81ce03a736" x="34.240625" y="73.013892" style="stroke: #000000; stroke-width: 0.8"/>
      </g>
     </g>
     <g id="text_12">
      <!-- 4 -->
      <g transform="translate(20.878125 76.813111) scale(0.1 -0.1)">
       <use xlink:href="#DejaVuSans-34"/>
      </g>
     </g>
    </g>
    <g id="text_13">
     <!-- Optimal parameter value -->
     <g transform="translate(14.798438 223.93375) rotate(-90) scale(0.1 -0.1)">
      <defs>
       <path id="DejaVuSans-4f" d="M 2522 4238 
Q 1834 4238 1429 3725 
Q 1025 3213 1025 2328 
Q 1025 1447 1429 934 
Q 1834 422 2522 422 
Q 3209 422 3611 934 
Q 4013 1447 4013 2328 
Q 4013 3213 3611 3725 
Q 3209 4238 2522 4238 
z
M 2522 4750 
Q 3503 4750 4090 4092 
Q 4678 3434 4678 2328 
Q 4678 1225 4090 567 
Q 3503 -91 2522 -91 
Q 1538 -91 948 565 
Q 359 1222 359 2328 
Q 359 3434 948 4092 
Q 1538 4750 2522 4750 
z
" transform="scale(0.015625)"/>
       <path id="DejaVuSans-70" d="M 1159 525 
L 1159 -1331 
L 581 -1331 
L 581 3500 
L 1159 3500 
L 1159 2969 
Q 1341 3281 1617 3432 
Q 1894 3584 2278 3584 
Q 2916 3584 3314 3078 
Q 3713 2572 3713 1747 
Q 3713 922 3314 415 
Q 2916 -91 2278 -91 
Q 1894 -91 1617 61 
Q 1341 213 1159 525 
z
M 3116 1747 
Q 3116 2381 2855 2742 
Q 2594 3103 2138 3103 
Q 1681 3103 1420 2742 
Q 1159 2381 1159 1747 
Q 1159 1113 1420 752 
Q 1681 391 2138 391 
Q 2594 391 2855 752 
Q 3116 1113 3116 1747 
z
" transform="scale(0.015625)"/>
       <path id="DejaVuSans-74" d="M 1172 4494 
L 1172 3500 
L 2356 3500 
L 2356 3053 
L 1172 3053 
L 1172 1153 
Q 1172 725 1289 603 
Q 1406 481 1766 481 
L 2356 481 
L 2356 0 
L 1766 0 
Q 1100 0 847 248 
Q 594 497 594 1153 
L 594 3053 
L 172 3053 
L 172 3500 
L 594 3500 
L 594 4494 
L 1172 4494 
z
" transform="scale(0.015625)"/>
       <path id="DejaVuSans-69" d="M 603 3500 
L 1178 3500 
L 1178 0 
L 603 0 
L 603 3500 
z
M 603 4863 
L 1178 4863 
L 1178 4134 
L 603 4134 
L 603 4863 
z
" transform="scale(0.015625)"/>
       <path id="DejaVuSans-6d" d="M 3328 2828 
Q 3544 3216 3844 3400 
Q 4144 3584 4550 3584 
Q 5097 3584 5394 3201 
Q 5691 2819 5691 2113 
L 5691 0 
L 5113 0 
L 5113 2094 
Q 5113 2597 4934 2840 
Q 4756 3084 4391 3084 
Q 3944 3084 3684 2787 
Q 3425 2491 3425 1978 
L 3425 0 
L 2847 0 
L 2847 2094 
Q 2847 2600 2669 2842 
Q 2491 3084 2119 3084 
Q 1678 3084 1418 2786 
Q 1159 2488 1159 1978 
L 1159 0 
L 581 0 
L 581 3500 
L 1159 3500 
L 1159 2956 
Q 1356 3278 1631 3431 
Q 1906 3584 2284 3584 
Q 2666 3584 2933 3390 
Q 3200 3197 3328 2828 
z
" transform="scale(0.015625)"/>
       <path id="DejaVuSans-61" d="M 2194 1759 
Q 1497 1759 1228 1600 
Q 959 1441 959 1056 
Q 959 750 1161 570 
Q 1363 391 1709 391 
Q 2188 391 2477 730 
Q 2766 1069 2766 1631 
L 2766 1759 
L 2194 1759 
z
M 3341 1997 
L 3341 0 
L 2766 0 
L 2766 531 
Q 2569 213 2275 61 
Q 1981 -91 1556 -91 
Q 1019 -91 701 211 
Q 384 513 384 1019 
Q 384 1609 779 1909 
Q 1175 2209 1959 2209 
L 2766 2209 
L 2766 2266 
Q 2766 2663 2505 2880 
Q 2244 3097 1772 3097 
Q 1472 3097 1187 3025 
Q 903 2953 641 2809 
L 641 3341 
Q 956 3463 1253 3523 
Q 1550 3584 1831 3584 
Q 2591 3584 2966 3190 
Q 3341 2797 3341 1997 
z
" transform="scale(0.015625)"/>
       <path id="DejaVuSans-6c" d="M 603 4863 
L 1178 4863 
L 1178 0 
L 603 0 
L 603 4863 
z
" transform="scale(0.015625)"/>
       <path id="DejaVuSans-20" transform="scale(0.015625)"/>
       <path id="DejaVuSans-72" d="M 2631 2963 
Q 2534 3019 2420 3045 
Q 2306 3072 2169 3072 
Q 1681 3072 1420 2755 
Q 1159 2438 1159 1844 
L 1159 0 
L 581 0 
L 581 3500 
L 1159 3500 
L 1159 2956 
Q 1341 3275 1631 3429 
Q 1922 3584 2338 3584 
Q 2397 3584 2469 3576 
Q 2541 3569 2628 3553 
L 2631 2963 
z
" transform="scale(0.015625)"/>
       <path id="DejaVuSans-65" d="M 3597 1894 
L 3597 1613 
L 953 1613 
Q 991 1019 1311 708 
Q 1631 397 2203 397 
Q 2534 397 2845 478 
Q 3156 559 3463 722 
L 3463 178 
Q 3153 47 2828 -22 
Q 2503 -91 2169 -91 
Q 1331 -91 842 396 
Q 353 884 353 1716 
Q 353 2575 817 3079 
Q 1281 3584 2069 3584 
Q 2775 3584 3186 3129 
Q 3597 2675 3597 1894 
z
M 3022 2063 
Q 3016 2534 2758 2815 
Q 2500 3097 2075 3097 
Q 1594 3097 1305 2825 
Q 1016 2553 972 2059 
L 3022 2063 
z
" transform="scale(0.015625)"/>
       <path id="DejaVuSans-76" d="M 191 3500 
L 800 3500 
L 1894 563 
L 2988 3500 
L 3597 3500 
L 2284 0 
L 1503 0 
L 191 3500 
z
" transform="scale(0.015625)"/>
       <path id="DejaVuSans-75" d="M 544 1381 
L 544 3500 
L 1119 3500 
L 1119 1403 
Q 1119 906 1312 657 
Q 1506 409 1894 409 
Q 2359 409 2629 706 
Q 2900 1003 2900 1516 
L 2900 3500 
L 3475 3500 
L 3475 0 
L 2900 0 
L 2900 538 
Q 2691 219 2414 64 
Q 2138 -91 1772 -91 
Q 1169 -91 856 284 
Q 544 659 544 1381 
z
M 1991 3584 
L 1991 3584 
z
" transform="scale(0.015625)"/>
      </defs>
      <use xlink:href="#DejaVuSans-4f"/>
      <use xlink:href="#DejaVuSans-70" transform="translate(78.710938 0)"/>
      <use xlink:href="#DejaVuSans-74" transform="translate(142.1875 0)"/>
      <use xlink:href="#DejaVuSans-69" transform="translate(181.396484 0)"/>
      <use xlink:href="#DejaVuSans-6d" transform="translate(209.179688 0)"/>
      <use xlink:href="#DejaVuSans-61" transform="translate(306.591797 0)"/>
      <use xlink:href="#DejaVuSans-6c" transform="translate(367.871094 0)"/>
      <use xlink:href="#DejaVuSans-20" transform="translate(395.654297 0)"/>
      <use xlink:href="#DejaVuSans-70" transform="translate(427.441406 0)"/>
      <use xlink:href="#DejaVuSans-61" transform="translate(490.917969 0)"/>
      <use xlink:href="#DejaVuSans-72" transform="translate(552.197266 0)"/>
      <use xlink:href="#DejaVuSans-61" transform="translate(593.310547 0)"/>
      <use xlink:href="#DejaVuSans-6d" transform="translate(654.589844 0)"/>
      <use xlink:href="#DejaVuSans-65" transform="translate(752.001953 0)"/>
      <use xlink:href="#DejaVuSans-74" transform="translate(813.525391 0)"/>
      <use xlink:href="#DejaVuSans-65" transform="translate(852.734375 0)"/>
      <use xlink:href="#DejaVuSans-72" transform="translate(914.257812 0)"/>
      <use xlink:href="#DejaVuSans-20" transform="translate(955.371094 0)"/>
      <use xlink:href="#DejaVuSans-76" transform="translate(987.158203 0)"/>
      <use xlink:href="#DejaVuSans-61" transform="translate(1046.337891 0)"/>
      <use xlink:href="#DejaVuSans-6c" transform="translate(1107.617188 0)"/>
      <use xlink:href="#DejaVuSans-75" transform="translate(1135.400391 0)"/>
      <use xlink:href="#DejaVuSans-65" transform="translate(1198.779297 0)"/>
     </g>
    </g>
   </g>
   <g id="line2d_23">
    <path d="M 54.531534 286.918125 
L 62.813538 286.918125 
L 71.095542 286.918125 
L 79.377545 286.918125 
L 87.659549 286.918125 
L 95.941553 286.918125 
L 104.223556 286.918125 
L 112.50556 286.918125 
L 120.787564 286.918125 
L 129.069567 286.918125 
L 137.351571 286.918125 
L 145.633575 286.918125 
L 153.915579 286.918125 
L 162.197582 286.918125 
L 170.479586 286.918125 
L 178.76159 286.918125 
L 187.043593 286.918125 
L 195.325597 286.918125 
L 203.607601 286.918125 
L 211.889605 286.918125 
L 220.171608 286.918125 
L 228.453612 286.918125 
L 236.735616 286.918125 
L 245.017619 286.918125 
L 253.299623 286.918125 
L 261.581627 286.918125 
L 269.863631 286.918125 
L 278.145634 286.918125 
L 286.427638 286.918125 
L 294.709642 286.918125 
L 302.991645 286.918125 
L 311.273649 286.918125 
L 319.555653 286.918125 
L 327.837657 286.918125 
L 336.11966 286.918125 
L 344.401664 286.918125 
L 352.683668 286.918125 
L 360.965671 286.918125 
L 369.247675 286.918125 
L 377.529679 286.918125 
L 385.811683 286.918125 
L 394.093686 286.918125 
L 402.37569 286.918125 
L 410.657694 286.918125 
L 418.939697 286.918125 
L 427.221701 286.918125 
L 435.503705 286.918125 
L 443.785708 286.918125 
L 452.067712 286.918125 
L 460.349716 286.918125 
" clip-path="url(#pc5cf3c2b5b)" style="fill: none; stroke: #1f77b4; stroke-width: 1.5; stroke-linecap: square"/>
    <defs>
     <path id="m7bdaff53ec" d="M 0 3 
C 0.795609 3 1.55874 2.683901 2.12132 2.12132 
C 2.683901 1.55874 3 0.795609 3 0 
C 3 -0.795609 2.683901 -1.55874 2.12132 -2.12132 
C 1.55874 -2.683901 0.795609 -3 0 -3 
C -0.795609 -3 -1.55874 -2.683901 -2.12132 -2.12132 
C -2.683901 -1.55874 -3 -0.795609 -3 0 
C -3 0.795609 -2.683901 1.55874 -2.12132 2.12132 
C -1.55874 2.683901 -0.795609 3 0 3 
z
" style="stroke: #1f77b4"/>
    </defs>
    <g clip-path="url(#pc5cf3c2b5b)">
     <use xlink:href="#m7bdaff53ec" x="54.531534" y="286.918125" style="fill: #1f77b4; stroke: #1f77b4"/>
     <use xlink:href="#m7bdaff53ec" x="62.813538" y="286.918125" style="fill: #1f77b4; stroke: #1f77b4"/>
     <use xlink:href="#m7bdaff53ec" x="71.095542" y="286.918125" style="fill: #1f77b4; stroke: #1f77b4"/>
     <use xlink:href="#m7bdaff53ec" x="79.377545" y="286.918125" style="fill: #1f77b4; stroke: #1f77b4"/>
     <use xlink:href="#m7bdaff53ec" x="87.659549" y="286.918125" style="fill: #1f77b4; stroke: #1f77b4"/>
     <use xlink:href="#m7bdaff53ec" x="95.941553" y="286.918125" style="fill: #1f77b4; stroke: #1f77b4"/>
     <use xlink:href="#m7bdaff53ec" x="104.223556" y="286.918125" style="fill: #1f77b4; stroke: #1f77b4"/>
     <use xlink:href="#m7bdaff53ec" x="112.50556" y="286.918125" style="fill: #1f77b4; stroke: #1f77b4"/>
     <use xlink:href="#m7bdaff53ec" x="120.787564" y="286.918125" style="fill: #1f77b4; stroke: #1f77b4"/>
     <use xlink:href="#m7bdaff53ec" x="129.069567" y="286.918125" style="fill: #1f77b4; stroke: #1f77b4"/>
     <use xlink:href="#m7bdaff53ec" x="137.351571" y="286.918125" style="fill: #1f77b4; stroke: #1f77b4"/>
     <use xlink:href="#m7bdaff53ec" x="145.633575" y="286.918125" style="fill: #1f77b4; stroke: #1f77b4"/>
     <use xlink:href="#m7bdaff53ec" x="153.915579" y="286.918125" style="fill: #1f77b4; stroke: #1f77b4"/>
     <use xlink:href="#m7bdaff53ec" x="162.197582" y="286.918125" style="fill: #1f77b4; stroke: #1f77b4"/>
     <use xlink:href="#m7bdaff53ec" x="170.479586" y="286.918125" style="fill: #1f77b4; stroke: #1f77b4"/>
     <use xlink:href="#m7bdaff53ec" x="178.76159" y="286.918125" style="fill: #1f77b4; stroke: #1f77b4"/>
     <use xlink:href="#m7bdaff53ec" x="187.043593" y="286.918125" style="fill: #1f77b4; stroke: #1f77b4"/>
     <use xlink:href="#m7bdaff53ec" x="195.325597" y="286.918125" style="fill: #1f77b4; stroke: #1f77b4"/>
     <use xlink:href="#m7bdaff53ec" x="203.607601" y="286.918125" style="fill: #1f77b4; stroke: #1f77b4"/>
     <use xlink:href="#m7bdaff53ec" x="211.889605" y="286.918125" style="fill: #1f77b4; stroke: #1f77b4"/>
     <use xlink:href="#m7bdaff53ec" x="220.171608" y="286.918125" style="fill: #1f77b4; stroke: #1f77b4"/>
     <use xlink:href="#m7bdaff53ec" x="228.453612" y="286.918125" style="fill: #1f77b4; stroke: #1f77b4"/>
     <use xlink:href="#m7bdaff53ec" x="236.735616" y="286.918125" style="fill: #1f77b4; stroke: #1f77b4"/>
     <use xlink:href="#m7bdaff53ec" x="245.017619" y="286.918125" style="fill: #1f77b4; stroke: #1f77b4"/>
     <use xlink:href="#m7bdaff53ec" x="253.299623" y="286.918125" style="fill: #1f77b4; stroke: #1f77b4"/>
     <use xlink:href="#m7bdaff53ec" x="261.581627" y="286.918125" style="fill: #1f77b4; stroke: #1f77b4"/>
     <use xlink:href="#m7bdaff53ec" x="269.863631" y="286.918125" style="fill: #1f77b4; stroke: #1f77b4"/>
     <use xlink:href="#m7bdaff53ec" x="278.145634" y="286.918125" style="fill: #1f77b4; stroke: #1f77b4"/>
     <use xlink:href="#m7bdaff53ec" x="286.427638" y="286.918125" style="fill: #1f77b4; stroke: #1f77b4"/>
     <use xlink:href="#m7bdaff53ec" x="294.709642" y="286.918125" style="fill: #1f77b4; stroke: #1f77b4"/>
     <use xlink:href="#m7bdaff53ec" x="302.991645" y="286.918125" style="fill: #1f77b4; stroke: #1f77b4"/>
     <use xlink:href="#m7bdaff53ec" x="311.273649" y="286.918125" style="fill: #1f77b4; stroke: #1f77b4"/>
     <use xlink:href="#m7bdaff53ec" x="319.555653" y="286.918125" style="fill: #1f77b4; stroke: #1f77b4"/>
     <use xlink:href="#m7bdaff53ec" x="327.837657" y="286.918125" style="fill: #1f77b4; stroke: #1f77b4"/>
     <use xlink:href="#m7bdaff53ec" x="336.11966" y="286.918125" style="fill: #1f77b4; stroke: #1f77b4"/>
     <use xlink:href="#m7bdaff53ec" x="344.401664" y="286.918125" style="fill: #1f77b4; stroke: #1f77b4"/>
     <use xlink:href="#m7bdaff53ec" x="352.683668" y="286.918125" style="fill: #1f77b4; stroke: #1f77b4"/>
     <use xlink:href="#m7bdaff53ec" x="360.965671" y="286.918125" style="fill: #1f77b4; stroke: #1f77b4"/>
     <use xlink:href="#m7bdaff53ec" x="369.247675" y="286.918125" style="fill: #1f77b4; stroke: #1f77b4"/>
     <use xlink:href="#m7bdaff53ec" x="377.529679" y="286.918125" style="fill: #1f77b4; stroke: #1f77b4"/>
     <use xlink:href="#m7bdaff53ec" x="385.811683" y="286.918125" style="fill: #1f77b4; stroke: #1f77b4"/>
     <use xlink:href="#m7bdaff53ec" x="394.093686" y="286.918125" style="fill: #1f77b4; stroke: #1f77b4"/>
     <use xlink:href="#m7bdaff53ec" x="402.37569" y="286.918125" style="fill: #1f77b4; stroke: #1f77b4"/>
     <use xlink:href="#m7bdaff53ec" x="410.657694" y="286.918125" style="fill: #1f77b4; stroke: #1f77b4"/>
     <use xlink:href="#m7bdaff53ec" x="418.939697" y="286.918125" style="fill: #1f77b4; stroke: #1f77b4"/>
     <use xlink:href="#m7bdaff53ec" x="427.221701" y="286.918125" style="fill: #1f77b4; stroke: #1f77b4"/>
     <use xlink:href="#m7bdaff53ec" x="435.503705" y="286.918125" style="fill: #1f77b4; stroke: #1f77b4"/>
     <use xlink:href="#m7bdaff53ec" x="443.785708" y="286.918125" style="fill: #1f77b4; stroke: #1f77b4"/>
     <use xlink:href="#m7bdaff53ec" x="452.067712" y="286.918125" style="fill: #1f77b4; stroke: #1f77b4"/>
     <use xlink:href="#m7bdaff53ec" x="460.349716" y="286.918125" style="fill: #1f77b4; stroke: #1f77b4"/>
    </g>
   </g>
   <g id="line2d_24">
    <path d="M 54.531534 68.518127 
L 62.813538 135.718129 
L 71.095542 102.1182 
L 79.377545 135.718129 
L 87.659549 34.918125 
L 95.941553 68.518138 
L 104.223556 102.11813 
L 112.50556 135.718135 
L 120.787564 135.718202 
L 129.069567 68.51812 
L 137.351571 270.118126 
L 145.633575 135.718137 
L 153.915579 135.718223 
L 162.197582 68.518127 
L 170.479586 68.518135 
L 178.76159 68.518151 
L 187.043593 135.718137 
L 195.325597 34.918173 
L 203.607601 68.518107 
L 211.889605 68.51814 
L 220.171608 270.11812 
L 228.453612 135.718137 
L 236.735616 68.518127 
L 245.017619 135.718137 
L 253.299623 202.918081 
L 261.581627 135.718123 
L 269.863631 102.118131 
L 278.145634 236.518132 
L 286.427638 236.518126 
L 294.709642 270.118127 
L 302.991645 135.718114 
L 311.273649 135.718137 
L 319.555653 34.918141 
L 327.837657 270.118161 
L 336.11966 102.118165 
L 344.401664 135.718123 
L 352.683668 236.518165 
L 360.965671 236.518132 
L 369.247675 68.518127 
L 377.529679 202.918133 
L 385.811683 102.118078 
L 394.093686 270.118132 
L 402.37569 270.118132 
L 410.657694 68.518151 
L 418.939697 236.518132 
L 427.221701 270.118114 
L 435.503705 236.518132 
L 443.785708 236.518132 
L 452.067712 68.518151 
L 460.349716 202.918125 
" clip-path="url(#pc5cf3c2b5b)" style="fill: none; stroke: #ff7f0e; stroke-width: 1.5; stroke-linecap: square"/>
    <defs>
     <path id="mbc5fd93ddc" d="M -3 3 
L 3 3 
L 3 -3 
L -3 -3 
z
" style="stroke: #ff7f0e; stroke-linejoin: miter"/>
    </defs>
    <g clip-path="url(#pc5cf3c2b5b)">
     <use xlink:href="#mbc5fd93ddc" x="54.531534" y="68.518127" style="fill: #ff7f0e; stroke: #ff7f0e; stroke-linejoin: miter"/>
     <use xlink:href="#mbc5fd93ddc" x="62.813538" y="135.718129" style="fill: #ff7f0e; stroke: #ff7f0e; stroke-linejoin: miter"/>
     <use xlink:href="#mbc5fd93ddc" x="71.095542" y="102.1182" style="fill: #ff7f0e; stroke: #ff7f0e; stroke-linejoin: miter"/>
     <use xlink:href="#mbc5fd93ddc" x="79.377545" y="135.718129" style="fill: #ff7f0e; stroke: #ff7f0e; stroke-linejoin: miter"/>
     <use xlink:href="#mbc5fd93ddc" x="87.659549" y="34.918125" style="fill: #ff7f0e; stroke: #ff7f0e; stroke-linejoin: miter"/>
     <use xlink:href="#mbc5fd93ddc" x="95.941553" y="68.518138" style="fill: #ff7f0e; stroke: #ff7f0e; stroke-linejoin: miter"/>
     <use xlink:href="#mbc5fd93ddc" x="104.223556" y="102.11813" style="fill: #ff7f0e; stroke: #ff7f0e; stroke-linejoin: miter"/>
     <use xlink:href="#mbc5fd93ddc" x="112.50556" y="135.718135" style="fill: #ff7f0e; stroke: #ff7f0e; stroke-linejoin: miter"/>
     <use xlink:href="#mbc5fd93ddc" x="120.787564" y="135.718202" style="fill: #ff7f0e; stroke: #ff7f0e; stroke-linejoin: miter"/>
     <use xlink:href="#mbc5fd93ddc" x="129.069567" y="68.51812" style="fill: #ff7f0e; stroke: #ff7f0e; stroke-linejoin: miter"/>
     <use xlink:href="#mbc5fd93ddc" x="137.351571" y="270.118126" style="fill: #ff7f0e; stroke: #ff7f0e; stroke-linejoin: miter"/>
     <use xlink:href="#mbc5fd93ddc" x="145.633575" y="135.718137" style="fill: #ff7f0e; stroke: #ff7f0e; stroke-linejoin: miter"/>
     <use xlink:href="#mbc5fd93ddc" x="153.915579" y="135.718223" style="fill: #ff7f0e; stroke: #ff7f0e; stroke-linejoin: miter"/>
     <use xlink:href="#mbc5fd93ddc" x="162.197582" y="68.518127" style="fill: #ff7f0e; stroke: #ff7f0e; stroke-linejoin: miter"/>
     <use xlink:href="#mbc5fd93ddc" x="170.479586" y="68.518135" style="fill: #ff7f0e; stroke: #ff7f0e; stroke-linejoin: miter"/>
     <use xlink:href="#mbc5fd93ddc" x="178.76159" y="68.518151" style="fill: #ff7f0e; stroke: #ff7f0e; stroke-linejoin: miter"/>
     <use xlink:href="#mbc5fd93ddc" x="187.043593" y="135.718137" style="fill: #ff7f0e; stroke: #ff7f0e; stroke-linejoin: miter"/>
     <use xlink:href="#mbc5fd93ddc" x="195.325597" y="34.918173" style="fill: #ff7f0e; stroke: #ff7f0e; stroke-linejoin: miter"/>
     <use xlink:href="#mbc5fd93ddc" x="203.607601" y="68.518107" style="fill: #ff7f0e; stroke: #ff7f0e; stroke-linejoin: miter"/>
     <use xlink:href="#mbc5fd93ddc" x="211.889605" y="68.51814" style="fill: #ff7f0e; stroke: #ff7f0e; stroke-linejoin: miter"/>
     <use xlink:href="#mbc5fd93ddc" x="220.171608" y="270.11812" style="fill: #ff7f0e; stroke: #ff7f0e; stroke-linejoin: miter"/>
     <use xlink:href="#mbc5fd93ddc" x="228.453612" y="135.718137" style="fill: #ff7f0e; stroke: #ff7f0e; stroke-linejoin: miter"/>
     <use xlink:href="#mbc5fd93ddc" x="236.735616" y="68.518127" style="fill: #ff7f0e; stroke: #ff7f0e; stroke-linejoin: miter"/>
     <use xlink:href="#mbc5fd93ddc" x="245.017619" y="135.718137" style="fill: #ff7f0e; stroke: #ff7f0e; stroke-linejoin: miter"/>
     <use xlink:href="#mbc5fd93ddc" x="253.299623" y="202.918081" style="fill: #ff7f0e; stroke: #ff7f0e; stroke-linejoin: miter"/>
     <use xlink:href="#mbc5fd93ddc" x="261.581627" y="135.718123" style="fill: #ff7f0e; stroke: #ff7f0e; stroke-linejoin: miter"/>
     <use xlink:href="#mbc5fd93ddc" x="269.863631" y="102.118131" style="fill: #ff7f0e; stroke: #ff7f0e; stroke-linejoin: miter"/>
     <use xlink:href="#mbc5fd93ddc" x="278.145634" y="236.518132" style="fill: #ff7f0e; stroke: #ff7f0e; stroke-linejoin: miter"/>
     <use xlink:href="#mbc5fd93ddc" x="286.427638" y="236.518126" style="fill: #ff7f0e; stroke: #ff7f0e; stroke-linejoin: miter"/>
     <use xlink:href="#mbc5fd93ddc" x="294.709642" y="270.118127" style="fill: #ff7f0e; stroke: #ff7f0e; stroke-linejoin: miter"/>
     <use xlink:href="#mbc5fd93ddc" x="302.991645" y="135.718114" style="fill: #ff7f0e; stroke: #ff7f0e; stroke-linejoin: miter"/>
     <use xlink:href="#mbc5fd93ddc" x="311.273649" y="135.718137" style="fill: #ff7f0e; stroke: #ff7f0e; stroke-linejoin: miter"/>
     <use xlink:href="#mbc5fd93ddc" x="319.555653" y="34.918141" style="fill: #ff7f0e; stroke: #ff7f0e; stroke-linejoin: miter"/>
     <use xlink:href="#mbc5fd93ddc" x="327.837657" y="270.118161" style="fill: #ff7f0e; stroke: #ff7f0e; stroke-linejoin: miter"/>
     <use xlink:href="#mbc5fd93ddc" x="336.11966" y="102.118165" style="fill: #ff7f0e; stroke: #ff7f0e; stroke-linejoin: miter"/>
     <use xlink:href="#mbc5fd93ddc" x="344.401664" y="135.718123" style="fill: #ff7f0e; stroke: #ff7f0e; stroke-linejoin: miter"/>
     <use xlink:href="#mbc5fd93ddc" x="352.683668" y="236.518165" style="fill: #ff7f0e; stroke: #ff7f0e; stroke-linejoin: miter"/>
     <use xlink:href="#mbc5fd93ddc" x="360.965671" y="236.518132" style="fill: #ff7f0e; stroke: #ff7f0e; stroke-linejoin: miter"/>
     <use xlink:href="#mbc5fd93ddc" x="369.247675" y="68.518127" style="fill: #ff7f0e; stroke: #ff7f0e; stroke-linejoin: miter"/>
     <use xlink:href="#mbc5fd93ddc" x="377.529679" y="202.918133" style="fill: #ff7f0e; stroke: #ff7f0e; stroke-linejoin: miter"/>
     <use xlink:href="#mbc5fd93ddc" x="385.811683" y="102.118078" style="fill: #ff7f0e; stroke: #ff7f0e; stroke-linejoin: miter"/>
     <use xlink:href="#mbc5fd93ddc" x="394.093686" y="270.118132" style="fill: #ff7f0e; stroke: #ff7f0e; stroke-linejoin: miter"/>
     <use xlink:href="#mbc5fd93ddc" x="402.37569" y="270.118132" style="fill: #ff7f0e; stroke: #ff7f0e; stroke-linejoin: miter"/>
     <use xlink:href="#mbc5fd93ddc" x="410.657694" y="68.518151" style="fill: #ff7f0e; stroke: #ff7f0e; stroke-linejoin: miter"/>
     <use xlink:href="#mbc5fd93ddc" x="418.939697" y="236.518132" style="fill: #ff7f0e; stroke: #ff7f0e; stroke-linejoin: miter"/>
     <use xlink:href="#mbc5fd93ddc" x="427.221701" y="270.118114" style="fill: #ff7f0e; stroke: #ff7f0e; stroke-linejoin: miter"/>
     <use xlink:href="#mbc5fd93ddc" x="435.503705" y="236.518132" style="fill: #ff7f0e; stroke: #ff7f0e; stroke-linejoin: miter"/>
     <use xlink:href="#mbc5fd93ddc" x="443.785708" y="236.518132" style="fill: #ff7f0e; stroke: #ff7f0e; stroke-linejoin: miter"/>
     <use xlink:href="#mbc5fd93ddc" x="452.067712" y="68.518151" style="fill: #ff7f0e; stroke: #ff7f0e; stroke-linejoin: miter"/>
     <use xlink:href="#mbc5fd93ddc" x="460.349716" y="202.918125" style="fill: #ff7f0e; stroke: #ff7f0e; stroke-linejoin: miter"/>
    </g>
   </g>
   <g id="patch_3">
    <path d="M 34.240625 299.518125 
L 34.240625 22.318125 
" style="fill: none; stroke: #000000; stroke-width: 0.8; stroke-linejoin: miter; stroke-linecap: square"/>
   </g>
   <g id="patch_4">
    <path d="M 480.640625 299.518125 
L 480.640625 22.318125 
" style="fill: none; stroke: #000000; stroke-width: 0.8; stroke-linejoin: miter; stroke-linecap: square"/>
   </g>
   <g id="patch_5">
    <path d="M 34.240625 299.518125 
L 480.640625 299.518125 
" style="fill: none; stroke: #000000; stroke-width: 0.8; stroke-linejoin: miter; stroke-linecap: square"/>
   </g>
   <g id="patch_6">
    <path d="M 34.240625 22.318125 
L 480.640625 22.318125 
" style="fill: none; stroke: #000000; stroke-width: 0.8; stroke-linejoin: miter; stroke-linecap: square"/>
   </g>
   <g id="text_14">
    <!-- Optimal Parameters vs ω — Scenario B -->
    <g transform="translate(140.017813 16.318125) scale(0.12 -0.12)">
     <defs>
      <path id="DejaVuSans-50" d="M 1259 4147 
L 1259 2394 
L 2053 2394 
Q 2494 2394 2734 2622 
Q 2975 2850 2975 3272 
Q 2975 3691 2734 3919 
Q 2494 4147 2053 4147 
L 1259 4147 
z
M 628 4666 
L 2053 4666 
Q 2838 4666 3239 4311 
Q 3641 3956 3641 3272 
Q 3641 2581 3239 2228 
Q 2838 1875 2053 1875 
L 1259 1875 
L 1259 0 
L 628 0 
L 628 4666 
z
" transform="scale(0.015625)"/>
      <path id="DejaVuSans-73" d="M 2834 3397 
L 2834 2853 
Q 2591 2978 2328 3040 
Q 2066 3103 1784 3103 
Q 1356 3103 1142 2972 
Q 928 2841 928 2578 
Q 928 2378 1081 2264 
Q 1234 2150 1697 2047 
L 1894 2003 
Q 2506 1872 2764 1633 
Q 3022 1394 3022 966 
Q 3022 478 2636 193 
Q 2250 -91 1575 -91 
Q 1294 -91 989 -36 
Q 684 19 347 128 
L 347 722 
Q 666 556 975 473 
Q 1284 391 1588 391 
Q 1994 391 2212 530 
Q 2431 669 2431 922 
Q 2431 1156 2273 1281 
Q 2116 1406 1581 1522 
L 1381 1569 
Q 847 1681 609 1914 
Q 372 2147 372 2553 
Q 372 3047 722 3315 
Q 1072 3584 1716 3584 
Q 2034 3584 2315 3537 
Q 2597 3491 2834 3397 
z
" transform="scale(0.015625)"/>
      <path id="DejaVuSans-3c9" d="M 1719 -91 
Q 422 -91 422 1766 
Q 422 2500 906 3500 
L 1525 3500 
Q 1078 2500 1078 1750 
Q 1078 397 1772 397 
Q 2406 397 2406 2078 
L 2938 2078 
Q 2938 397 3572 397 
Q 4266 397 4266 1750 
Q 4266 2500 3819 3500 
L 4438 3500 
Q 4922 2500 4922 1766 
Q 4922 -91 3625 -91 
Q 2775 -91 2672 844 
Q 2544 -91 1719 -91 
z
" transform="scale(0.015625)"/>
      <path id="DejaVuSans-2014" d="M 313 1978 
L 6088 1978 
L 6088 1528 
L 313 1528 
L 313 1978 
z
" transform="scale(0.015625)"/>
      <path id="DejaVuSans-53" d="M 3425 4513 
L 3425 3897 
Q 3066 4069 2747 4153 
Q 2428 4238 2131 4238 
Q 1616 4238 1336 4038 
Q 1056 3838 1056 3469 
Q 1056 3159 1242 3001 
Q 1428 2844 1947 2747 
L 2328 2669 
Q 3034 2534 3370 2195 
Q 3706 1856 3706 1288 
Q 3706 609 3251 259 
Q 2797 -91 1919 -91 
Q 1588 -91 1214 -16 
Q 841 59 441 206 
L 441 856 
Q 825 641 1194 531 
Q 1563 422 1919 422 
Q 2459 422 2753 634 
Q 3047 847 3047 1241 
Q 3047 1584 2836 1778 
Q 2625 1972 2144 2069 
L 1759 2144 
Q 1053 2284 737 2584 
Q 422 2884 422 3419 
Q 422 4038 858 4394 
Q 1294 4750 2059 4750 
Q 2388 4750 2728 4690 
Q 3069 4631 3425 4513 
z
" transform="scale(0.015625)"/>
      <path id="DejaVuSans-63" d="M 3122 3366 
L 3122 2828 
Q 2878 2963 2633 3030 
Q 2388 3097 2138 3097 
Q 1578 3097 1268 2742 
Q 959 2388 959 1747 
Q 959 1106 1268 751 
Q 1578 397 2138 397 
Q 2388 397 2633 464 
Q 2878 531 3122 666 
L 3122 134 
Q 2881 22 2623 -34 
Q 2366 -91 2075 -91 
Q 1284 -91 818 406 
Q 353 903 353 1747 
Q 353 2603 823 3093 
Q 1294 3584 2113 3584 
Q 2378 3584 2631 3529 
Q 2884 3475 3122 3366 
z
" transform="scale(0.015625)"/>
      <path id="DejaVuSans-6e" d="M 3513 2113 
L 3513 0 
L 2938 0 
L 2938 2094 
Q 2938 2591 2744 2837 
Q 2550 3084 2163 3084 
Q 1697 3084 1428 2787 
Q 1159 2491 1159 1978 
L 1159 0 
L 581 0 
L 581 3500 
L 1159 3500 
L 1159 2956 
Q 1366 3272 1645 3428 
Q 1925 3584 2291 3584 
Q 2894 3584 3203 3211 
Q 3513 2838 3513 2113 
z
" transform="scale(0.015625)"/>
      <path id="DejaVuSans-6f" d="M 1959 3097 
Q 1497 3097 1228 2736 
Q 959 2375 959 1747 
Q 959 1119 1226 758 
Q 1494 397 1959 397 
Q 2419 397 2687 759 
Q 2956 1122 2956 1747 
Q 2956 2369 2687 2733 
Q 2419 3097 1959 3097 
z
M 1959 3584 
Q 2709 3584 3137 3096 
Q 3566 2609 3566 1747 
Q 3566 888 3137 398 
Q 2709 -91 1959 -91 
Q 1206 -91 779 398 
Q 353 888 353 1747 
Q 353 2609 779 3096 
Q 1206 3584 1959 3584 
z
" transform="scale(0.015625)"/>
      <path id="DejaVuSans-42" d="M 1259 2228 
L 1259 519 
L 2272 519 
Q 2781 519 3026 730 
Q 3272 941 3272 1375 
Q 3272 1813 3026 2020 
Q 2781 2228 2272 2228 
L 1259 2228 
z
M 1259 4147 
L 1259 2741 
L 2194 2741 
Q 2656 2741 2882 2914 
Q 3109 3088 3109 3444 
Q 3109 3797 2882 3972 
Q 2656 4147 2194 4147 
L 1259 4147 
z
M 628 4666 
L 2241 4666 
Q 2963 4666 3353 4366 
Q 3744 4066 3744 3513 
Q 3744 3084 3544 2831 
Q 3344 2578 2956 2516 
Q 3422 2416 3680 2098 
Q 3938 1781 3938 1306 
Q 3938 681 3513 340 
Q 3088 0 2303 0 
L 628 0 
L 628 4666 
z
" transform="scale(0.015625)"/>
     </defs>
     <use xlink:href="#DejaVuSans-4f"/>
     <use xlink:href="#DejaVuSans-70" transform="translate(78.710938 0)"/>
     <use xlink:href="#DejaVuSans-74" transform="translate(142.1875 0)"/>
     <use xlink:href="#DejaVuSans-69" transform="translate(181.396484 0)"/>
     <use xlink:href="#DejaVuSans-6d" transform="translate(209.179688 0)"/>
     <use xlink:href="#DejaVuSans-61" transform="translate(306.591797 0)"/>
     <use xlink:href="#DejaVuSans-6c" transform="translate(367.871094 0)"/>
     <use xlink:href="#DejaVuSans-20" transform="translate(395.654297 0)"/>
     <use xlink:href="#DejaVuSans-50" transform="translate(427.441406 0)"/>
     <use xlink:href="#DejaVuSans-61" transform="translate(483.244141 0)"/>
     <use xlink:href="#DejaVuSans-72" transform="translate(544.523438 0)"/>
     <use xlink:href="#DejaVuSans-61" transform="translate(585.636719 0)"/>
     <use xlink:href="#DejaVuSans-6d" transform="translate(646.916016 0)"/>
     <use xlink:href="#DejaVuSans-65" transform="translate(744.328125 0)"/>
     <use xlink:href="#DejaVuSans-74" transform="translate(805.851562 0)"/>
     <use xlink:href="#DejaVuSans-65" transform="translate(845.060547 0)"/>
     <use xlink:href="#DejaVuSans-72" transform="translate(906.583984 0)"/>
     <use xlink:href="#DejaVuSans-73" transform="translate(947.697266 0)"/>
     <use xlink:href="#DejaVuSans-20" transform="translate(999.796875 0)"/>
     <use xlink:href="#DejaVuSans-76" transform="translate(1031.583984 0)"/>
     <use xlink:href="#DejaVuSans-73" transform="translate(1090.763672 0)"/>
     <use xlink:href="#DejaVuSans-20" transform="translate(1142.863281 0)"/>
     <use xlink:href="#DejaVuSans-3c9" transform="translate(1174.650391 0)"/>
     <use xlink:href="#DejaVuSans-20" transform="translate(1258.390625 0)"/>
     <use xlink:href="#DejaVuSans-2014" transform="translate(1290.177734 0)"/>
     <use xlink:href="#DejaVuSans-20" transform="translate(1390.177734 0)"/>
     <use xlink:href="#DejaVuSans-53" transform="translate(1421.964844 0)"/>
     <use xlink:href="#DejaVuSans-63" transform="translate(1485.441406 0)"/>
     <use xlink:href="#DejaVuSans-65" transform="translate(1540.421875 0)"/>
     <use xlink:href="#DejaVuSans-6e" transform="translate(1601.945312 0)"/>
     <use xlink:href="#DejaVuSans-61" transform="translate(1665.324219 0)"/>
     <use xlink:href="#DejaVuSans-72" transform="translate(1726.603516 0)"/>
     <use xlink:href="#DejaVuSans-69" transform="translate(1767.716797 0)"/>
     <use xlink:href="#DejaVuSans-6f" transform="translate(1795.5 0)"/>
     <use xlink:href="#DejaVuSans-20" transform="translate(1856.681641 0)"/>
     <use xlink:href="#DejaVuSans-42" transform="translate(1888.46875 0)"/>
    </g>
   </g>
   <g id="legend_1">
    <g id="patch_7">
     <path d="M 407.340625 61.718125 
L 473.640625 61.718125 
Q 475.640625 61.718125 475.640625 59.718125 
L 475.640625 29.318125 
Q 475.640625 27.318125 473.640625 27.318125 
L 407.340625 27.318125 
Q 405.340625 27.318125 405.340625 29.318125 
L 405.340625 59.718125 
Q 405.340625 61.718125 407.340625 61.718125 
z
" style="fill: #ffffff; opacity: 0.8; stroke: #cccccc; stroke-linejoin: miter"/>
    </g>
    <g id="line2d_25">
     <path d="M 409.340625 36.718125 
L 419.340625 36.718125 
L 429.340625 36.718125 
" style="fill: none; stroke: #1f77b4; stroke-width: 1.5; stroke-linecap: square"/>
     <g>
      <use xlink:href="#m7bdaff53ec" x="419.340625" y="36.718125" style="fill: #1f77b4; stroke: #1f77b4"/>
     </g>
    </g>
    <g id="text_15">
     <!-- $\| \vec{a}_{\mathrm{drive}} \|$ -->
     <g transform="translate(437.340625 40.218125) scale(0.1 -0.1)">
      <defs>
       <path id="DejaVuSans-2016" d="M 1344 4891 
L 1344 -1509 
L 813 -1509 
L 813 4891 
L 1344 4891 
z
M 2376 4891 
L 2376 -1509 
L 1845 -1509 
L 1845 4891 
L 2376 4891 
z
" transform="scale(0.015625)"/>
       <path id="DejaVuSans-20d7" d="M -3009 4066 
L -3009 4378 
L -694 4378 
L -1106 4863 
L -713 4863 
L -166 4222 
L -713 3581 
L -1106 3581 
L -694 4066 
L -3009 4066 
z
" transform="scale(0.015625)"/>
       <path id="DejaVuSans-Oblique-61" d="M 3438 1997 
L 3047 0 
L 2472 0 
L 2578 531 
Q 2325 219 2001 64 
Q 1678 -91 1281 -91 
Q 834 -91 548 182 
Q 263 456 263 884 
Q 263 1497 752 1853 
Q 1241 2209 2100 2209 
L 2900 2209 
L 2931 2363 
Q 2938 2388 2941 2417 
Q 2944 2447 2944 2509 
Q 2944 2788 2717 2942 
Q 2491 3097 2081 3097 
Q 1800 3097 1504 3025 
Q 1209 2953 897 2809 
L 997 3341 
Q 1322 3463 1633 3523 
Q 1944 3584 2234 3584 
Q 2853 3584 3176 3315 
Q 3500 3047 3500 2534 
Q 3500 2431 3484 2292 
Q 3469 2153 3438 1997 
z
M 2816 1759 
L 2241 1759 
Q 1534 1759 1195 1570 
Q 856 1381 856 984 
Q 856 709 1029 553 
Q 1203 397 1509 397 
Q 1978 397 2328 733 
Q 2678 1069 2791 1631 
L 2816 1759 
z
" transform="scale(0.015625)"/>
       <path id="DejaVuSans-64" d="M 2906 2969 
L 2906 4863 
L 3481 4863 
L 3481 0 
L 2906 0 
L 2906 525 
Q 2725 213 2448 61 
Q 2172 -91 1784 -91 
Q 1150 -91 751 415 
Q 353 922 353 1747 
Q 353 2572 751 3078 
Q 1150 3584 1784 3584 
Q 2172 3584 2448 3432 
Q 2725 3281 2906 2969 
z
M 947 1747 
Q 947 1113 1208 752 
Q 1469 391 1925 391 
Q 2381 391 2643 752 
Q 2906 1113 2906 1747 
Q 2906 2381 2643 2742 
Q 2381 3103 1925 3103 
Q 1469 3103 1208 2742 
Q 947 2381 947 1747 
z
" transform="scale(0.015625)"/>
      </defs>
      <use xlink:href="#DejaVuSans-2016" transform="translate(0 0.46875)"/>
      <use xlink:href="#DejaVuSans-20d7" transform="translate(113.335449 13.015625)"/>
      <use xlink:href="#DejaVuSans-Oblique-61" transform="translate(50 0.46875)"/>
      <use xlink:href="#DejaVuSans-64" transform="translate(112.236328 -15.9375) scale(0.7)"/>
      <use xlink:href="#DejaVuSans-72" transform="translate(156.669922 -15.9375) scale(0.7)"/>
      <use xlink:href="#DejaVuSans-69" transform="translate(185.449219 -15.9375) scale(0.7)"/>
      <use xlink:href="#DejaVuSans-76" transform="translate(204.897461 -15.9375) scale(0.7)"/>
      <use xlink:href="#DejaVuSans-65" transform="translate(246.323242 -15.9375) scale(0.7)"/>
      <use xlink:href="#DejaVuSans-2016" transform="translate(292.124023 0.46875)"/>
     </g>
    </g>
    <g id="line2d_26">
     <path d="M 409.340625 51.818125 
L 419.340625 51.818125 
L 429.340625 51.818125 
" style="fill: none; stroke: #ff7f0e; stroke-width: 1.5; stroke-linecap: square"/>
     <g>
      <use xlink:href="#mbc5fd93ddc" x="419.340625" y="51.818125" style="fill: #ff7f0e; stroke: #ff7f0e; stroke-linejoin: miter"/>
     </g>
    </g>
    <g id="text_16">
     <!-- $|a_{zz}|$ -->
     <g transform="translate(437.340625 55.318125) scale(0.1 -0.1)">
      <defs>
       <path id="DejaVuSans-7c" d="M 1344 4891 
L 1344 -1509 
L 813 -1509 
L 813 4891 
L 1344 4891 
z
" transform="scale(0.015625)"/>
       <path id="DejaVuSans-Oblique-7a" d="M 744 3500 
L 3475 3500 
L 3372 2975 
L 738 459 
L 2913 459 
L 2822 0 
L -19 0 
L 84 525 
L 2719 3041 
L 653 3041 
L 744 3500 
z
" transform="scale(0.015625)"/>
      </defs>
      <use xlink:href="#DejaVuSans-7c" transform="translate(0 0.578125)"/>
      <use xlink:href="#DejaVuSans-Oblique-61" transform="translate(33.691406 0.578125)"/>
      <use xlink:href="#DejaVuSans-Oblique-7a" transform="translate(94.970703 -15.828125) scale(0.7)"/>
      <use xlink:href="#DejaVuSans-Oblique-7a" transform="translate(131.713867 -15.828125) scale(0.7)"/>
      <use xlink:href="#DejaVuSans-7c" transform="translate(171.191406 0.578125)"/>
     </g>
    </g>
   </g>
  </g>
 </g>
 <defs>
  <clipPath id="pc5cf3c2b5b">
   <rect x="34.240625" y="22.318125" width="446.4" height="277.2"/>
  </clipPath>
 </defs>
</svg>
