<?xml version="1.0" encoding="utf-8" standalone="no"?>
<!DOCTYPE svg PUBLIC "-//W3C//DTD SVG 1.1//EN"
  "http://www.w3.org/Graphics/SVG/1.1/DTD/svg11.dtd">
<svg xmlns:xlink="http://www.w3.org/1999/xlink" width="563.167187pt" height="346.017812pt" viewBox="0 0 563.167187 346.017812" xmlns="http://www.w3.org/2000/svg" version="1.1">
 <metadata>
  <rdf:RDF xmlns:dc="http://purl.org/dc/elements/1.1/" xmlns:cc="http://creativecommons.org/ns#" xmlns:rdf="http://www.w3.org/1999/02/22-rdf-syntax-ns#">
   <cc:Work>
    <dc:type rdf:resource="http://purl.org/dc/dcmitype/StillImage"/>
    <dc:date>2026-07-11T15:17:17.069830</dc:date>
    <dc:format>image/svg+xml</dc:format>
    <dc:creator>
     <cc:Agent>
      <dc:title>Matplotlib v3.10.9, https://matplotlib.org/</dc:title>
     </cc:Agent>
    </dc:creator>
   </cc:Work>
  </rdf:RDF>
 </metadata>
 <defs>
  <style type="text/css">*{stroke-linejoin: round; stroke-linecap: butt}</style>
 </defs>
 <g id="figure_1">
  <g id="patch_1">
   <path d="M 0 346.017812 
L 563.167187 346.017812 
L 563.167187 0 
L 0 0 
z
" style="fill: #ffffff"/>
  </g>
  <g id="axes_1">
   <g id="patch_2">
    <path d="M 49.807188 303.058125 
L 555.967187 303.058125 
L 555.967187 22.318125 
L 49.807188 22.318125 
z
" style="fill: #ffffff"/>
   </g>
   <g id="matplotlib.axis_1">
    <g id="xtick_1">
     <g id="line2d_1">
      <path d="M 71.892325 303.058125 
L 71.892325 22.318125 
" clip-path="url(#p52ff11664d)" style="fill: none; stroke: #cccccc; stroke-linecap: round"/>
     </g>
     <g id="text_1">
      <!-- 0 -->
      <g style="fill: #262626" transform="translate(68.39295 320.916406) scale(0.11 -0.11)">
       <defs>
        <path id="DejaVuSans-30" d="M 2034 4250 
Q 1547 4250 1301 3770 
Q 1056 3291 1056 2328 
Q 1056 1369 1301 889 
Q 1547 409 2034 409 
Q 2525 409 2770 889 
Q 3016 1369 3016 2328 
Q 3016 3291 2770 3770 
Q 2525 4250 2034 4250 
z
M 2034 4750 
Q 2819 4750 3233 4129 
Q 3647 3509 3647 2328 
Q 3647 1150 3233 529 
Q 2819 -91 2034 -91 
Q 1250 -91 836 529 
Q 422 1150 422 2328 
Q 422 3509 836 4129 
Q 1250 4750 2034 4750 
z
" transform="scale(0.015625)"/>
       </defs>
       <use xlink:href="#DejaVuSans-30"/>
      </g>
     </g>
    </g>
    <g id="xtick_2">
     <g id="line2d_2">
      <path d="M 164.105843 303.058125 
L 164.105843 22.318125 
" clip-path="url(#p52ff11664d)" style="fill: none; stroke: #cccccc; stroke-linecap: round"/>
     </g>
     <g id="text_2">
      <!-- 1 -->
      <g style="fill: #262626" transform="translate(160.606468 320.916406) scale(0.11 -0.11)">
       <defs>
        <path id="DejaVuSans-31" d="M 794 531 
L 1825 531 
L 1825 4091 
L 703 3866 
L 703 4441 
L 1819 4666 
L 2450 4666 
L 2450 531 
L 3481 531 
L 3481 0 
L 794 0 
L 794 531 
z
" transform="scale(0.015625)"/>
       </defs>
       <use xlink:href="#DejaVuSans-31"/>
      </g>
     </g>
    </g>
    <g id="xtick_3">
     <g id="line2d_3">
      <path d="M 256.319361 303.058125 
L 256.319361 22.318125 
" clip-path="url(#p52ff11664d)" style="fill: none; stroke: #cccccc; stroke-linecap: round"/>
     </g>
     <g id="text_3">
      <!-- 2 -->
      <g style="fill: #262626" transform="translate(252.819986 320.916406) scale(0.11 -0.11)">
       <defs>
        <path id="DejaVuSans-32" d="M 1228 531 
L 3431 531 
L 3431 0 
L 469 0 
L 469 531 
Q 828 903 1448 1529 
Q 2069 2156 2228 2338 
Q 2531 2678 2651 2914 
Q 2772 3150 2772 3378 
Q 2772 3750 2511 3984 
Q 2250 4219 1831 4219 
Q 1534 4219 1204 4116 
Q 875 4013 500 3803 
L 500 4441 
Q 881 4594 1212 4672 
Q 1544 4750 1819 4750 
Q 2544 4750 2975 4387 
Q 3406 4025 3406 3419 
Q 3406 3131 3298 2873 
Q 3191 2616 2906 2266 
Q 2828 2175 2409 1742 
Q 1991 1309 1228 531 
z
" transform="scale(0.015625)"/>
       </defs>
       <use xlink:href="#DejaVuSans-32"/>
      </g>
     </g>
    </g>
    <g id="xtick_4">
     <g id="line2d_4">
      <path d="M 348.532879 303.058125 
L 348.532879 22.318125 
" clip-path="url(#p52ff11664d)" style="fill: none; stroke: #cccccc; stroke-linecap: round"/>
     </g>
     <g id="text_4">
      <!-- 3 -->
      <g style="fill: #262626" transform="translate(345.033504 320.916406) scale(0.11 -0.11)">
       <defs>
        <path id="DejaVuSans-33" d="M 2597 2516 
Q 3050 2419 3304 2112 
Q 3559 1806 3559 1356 
Q 3559 666 3084 287 
Q 2609 -91 1734 -91 
Q 1441 -91 1130 -33 
Q 819 25 488 141 
L 488 750 
Q 750 597 1062 519 
Q 1375 441 1716 441 
Q 2309 441 2620 675 
Q 2931 909 2931 1356 
Q 2931 1769 2642 2001 
Q 2353 2234 1838 2234 
L 1294 2234 
L 1294 2753 
L 1863 2753 
Q 2328 2753 2575 2939 
Q 2822 3125 2822 3475 
Q 2822 3834 2567 4026 
Q 2313 4219 1838 4219 
Q 1578 4219 1281 4162 
Q 984 4106 628 3988 
L 628 4550 
Q 988 4650 1302 4700 
Q 1616 4750 1894 4750 
Q 2613 4750 3031 4423 
Q 3450 4097 3450 3541 
Q 3450 3153 3228 2886 
Q 3006 2619 2597 2516 
z
" transform="scale(0.015625)"/>
       </defs>
       <use xlink:href="#DejaVuSans-33"/>
      </g>
     </g>
    </g>
    <g id="xtick_5">
     <g id="line2d_5">
      <path d="M 440.746397 303.058125 
L 440.746397 22.318125 
" clip-path="url(#p52ff11664d)" style="fill: none; stroke: #cccccc; stroke-linecap: round"/>
     </g>
     <g id="text_5">
      <!-- 4 -->
      <g style="fill: #262626" transform="translate(437.247022 320.916406) scale(0.11 -0.11)">
       <defs>
        <path id="DejaVuSans-34" d="M 2419 4116 
L 825 1625 
L 2419 1625 
L 2419 4116 
z
M 2253 4666 
L 3047 4666 
L 3047 1625 
L 3713 1625 
L 3713 1100 
L 3047 1100 
L 3047 0 
L 2419 0 
L 2419 1100 
L 313 1100 
L 313 1709 
L 2253 4666 
z
" transform="scale(0.015625)"/>
       </defs>
       <use xlink:href="#DejaVuSans-34"/>
      </g>
     </g>
    </g>
    <g id="xtick_6">
     <g id="line2d_6">
      <path d="M 532.959915 303.058125 
L 532.959915 22.318125 
" clip-path="url(#p52ff11664d)" style="fill: none; stroke: #cccccc; stroke-linecap: round"/>
     </g>
     <g id="text_6">
      <!-- 5 -->
      <g style="fill: #262626" transform="translate(529.46054 320.916406) scale(0.11 -0.11)">
       <defs>
        <path id="DejaVuSans-35" d="M 691 4666 
L 3169 4666 
L 3169 4134 
L 1269 4134 
L 1269 2991 
Q 1406 3038 1543 3061 
Q 1681 3084 1819 3084 
Q 2600 3084 3056 2656 
Q 3513 2228 3513 1497 
Q 3513 744 3044 326 
Q 2575 -91 1722 -91 
Q 1428 -91 1123 -41 
Q 819 9 494 109 
L 494 744 
Q 775 591 1075 516 
Q 1375 441 1709 441 
Q 2250 441 2565 725 
Q 2881 1009 2881 1497 
Q 2881 1984 2565 2268 
Q 2250 2553 1709 2553 
Q 1456 2553 1204 2497 
Q 953 2441 691 2322 
L 691 4666 
z
" transform="scale(0.015625)"/>
       </defs>
       <use xlink:href="#DejaVuSans-35"/>
      </g>
     </g>
    </g>
    <g id="text_7">
     <!-- $\omega$ -->
     <g style="fill: #262626" transform="translate(297.847187 336.322187) scale(0.12 -0.12)">
      <defs>
       <path id="DejaVuSans-Oblique-3c9" d="M 1369 -91 
Q 72 -91 434 1766 
Q 575 2500 1256 3500 
L 1875 3500 
Q 1231 2500 1088 1750 
Q 819 397 1519 397 
Q 2166 397 2478 2078 
L 3009 2078 
Q 2669 388 3316 397 
Q 4013 403 4275 1750 
Q 4419 2500 4169 3500 
L 4788 3500 
Q 5075 2500 4934 1766 
Q 4578 -94 3278 -91 
Q 2428 -88 2503 844 
Q 2194 -91 1369 -91 
z
" transform="scale(0.015625)"/>
      </defs>
      <use xlink:href="#DejaVuSans-Oblique-3c9" transform="translate(0 0.3125)"/>
     </g>
    </g>
   </g>
   <g id="matplotlib.axis_2">
    <g id="ytick_1">
     <g id="line2d_7">
      <path d="M 49.807188 303.058125 
L 555.967187 303.058125 
" clip-path="url(#p52ff11664d)" style="fill: none; stroke: #cccccc; stroke-linecap: round"/>
     </g>
     <g id="text_8">
      <!-- 0.0 -->
      <g style="fill: #262626" transform="translate(22.81375 307.237266) scale(0.11 -0.11)">
       <defs>
        <path id="DejaVuSans-2e" d="M 684 794 
L 1344 794 
L 1344 0 
L 684 0 
L 684 794 
z
" transform="scale(0.015625)"/>
       </defs>
       <use xlink:href="#DejaVuSans-30"/>
       <use xlink:href="#DejaVuSans-2e" transform="translate(63.623047 0)"/>
       <use xlink:href="#DejaVuSans-30" transform="translate(95.410156 0)"/>
      </g>
     </g>
    </g>
    <g id="ytick_2">
     <g id="line2d_8">
      <path d="M 49.807188 246.910125 
L 555.967187 246.910125 
" clip-path="url(#p52ff11664d)" style="fill: none; stroke: #cccccc; stroke-linecap: round"/>
     </g>
     <g id="text_9">
      <!-- 0.2 -->
      <g style="fill: #262626" transform="translate(22.81375 251.089266) scale(0.11 -0.11)">
       <use xlink:href="#DejaVuSans-30"/>
       <use xlink:href="#DejaVuSans-2e" transform="translate(63.623047 0)"/>
       <use xlink:href="#DejaVuSans-32" transform="translate(95.410156 0)"/>
      </g>
     </g>
    </g>
    <g id="ytick_3">
     <g id="line2d_9">
      <path d="M 49.807188 190.762125 
L 555.967187 190.762125 
" clip-path="url(#p52ff11664d)" style="fill: none; stroke: #cccccc; stroke-linecap: round"/>
     </g>
     <g id="text_10">
      <!-- 0.4 -->
      <g style="fill: #262626" transform="translate(22.81375 194.941266) scale(0.11 -0.11)">
       <use xlink:href="#DejaVuSans-30"/>
       <use xlink:href="#DejaVuSans-2e" transform="translate(63.623047 0)"/>
       <use xlink:href="#DejaVuSans-34" transform="translate(95.410156 0)"/>
      </g>
     </g>
    </g>
    <g id="ytick_4">
     <g id="line2d_10">
      <path d="M 49.807188 134.614125 
L 555.967187 134.614125 
" clip-path="url(#p52ff11664d)" style="fill: none; stroke: #cccccc; stroke-linecap: round"/>
     </g>
     <g id="text_11">
      <!-- 0.6 -->
      <g style="fill: #262626" transform="translate(22.81375 138.793266) scale(0.11 -0.11)">
       <defs>
        <path id="DejaVuSans-36" d="M 2113 2584 
Q 1688 2584 1439 2293 
Q 1191 2003 1191 1497 
Q 1191 994 1439 701 
Q 1688 409 2113 409 
Q 2538 409 2786 701 
Q 3034 994 3034 1497 
Q 3034 2003 2786 2293 
Q 2538 2584 2113 2584 
z
M 3366 4563 
L 3366 3988 
Q 3128 4100 2886 4159 
Q 2644 4219 2406 4219 
Q 1781 4219 1451 3797 
Q 1122 3375 1075 2522 
Q 1259 2794 1537 2939 
Q 1816 3084 2150 3084 
Q 2853 3084 3261 2657 
Q 3669 2231 3669 1497 
Q 3669 778 3244 343 
Q 2819 -91 2113 -91 
Q 1303 -91 875 529 
Q 447 1150 447 2328 
Q 447 3434 972 4092 
Q 1497 4750 2381 4750 
Q 2619 4750 2861 4703 
Q 3103 4656 3366 4563 
z
" transform="scale(0.015625)"/>
       </defs>
       <use xlink:href="#DejaVuSans-30"/>
       <use xlink:href="#DejaVuSans-2e" transform="translate(63.623047 0)"/>
       <use xlink:href="#DejaVuSans-36" transform="translate(95.410156 0)"/>
      </g>
     </g>
    </g>
    <g id="ytick_5">
     <g id="line2d_11">
      <path d="M 49.807188 78.466125 
L 555.967187 78.466125 
" clip-path="url(#p52ff11664d)" style="fill: none; stroke: #cccccc; stroke-linecap: round"/>
     </g>
     <g id="text_12">
      <!-- 0.8 -->
      <g style="fill: #262626" transform="translate(22.81375 82.645266) scale(0.11 -0.11)">
       <defs>
        <path id="DejaVuSans-38" d="M 2034 2216 
Q 1584 2216 1326 1975 
Q 1069 1734 1069 1313 
Q 1069 891 1326 650 
Q 1584 409 2034 409 
Q 2484 409 2743 651 
Q 3003 894 3003 1313 
Q 3003 1734 2745 1975 
Q 2488 2216 2034 2216 
z
M 1403 2484 
Q 997 2584 770 2862 
Q 544 3141 544 3541 
Q 544 4100 942 4425 
Q 1341 4750 2034 4750 
Q 2731 4750 3128 4425 
Q 3525 4100 3525 3541 
Q 3525 3141 3298 2862 
Q 3072 2584 2669 2484 
Q 3125 2378 3379 2068 
Q 3634 1759 3634 1313 
Q 3634 634 3220 271 
Q 2806 -91 2034 -91 
Q 1263 -91 848 271 
Q 434 634 434 1313 
Q 434 1759 690 2068 
Q 947 2378 1403 2484 
z
M 1172 3481 
Q 1172 3119 1398 2916 
Q 1625 2713 2034 2713 
Q 2441 2713 2670 2916 
Q 2900 3119 2900 3481 
Q 2900 3844 2670 4047 
Q 2441 4250 2034 4250 
Q 1625 4250 1398 4047 
Q 1172 3844 1172 3481 
z
" transform="scale(0.015625)"/>
       </defs>
       <use xlink:href="#DejaVuSans-30"/>
       <use xlink:href="#DejaVuSans-2e" transform="translate(63.623047 0)"/>
       <use xlink:href="#DejaVuSans-38" transform="translate(95.410156 0)"/>
      </g>
     </g>
    </g>
    <g id="ytick_6">
     <g id="line2d_12">
      <path d="M 49.807188 22.318125 
L 555.967187 22.318125 
" clip-path="url(#p52ff11664d)" style="fill: none; stroke: #cccccc; stroke-linecap: round"/>
     </g>
     <g id="text_13">
      <!-- 1.0 -->
      <g style="fill: #262626" transform="translate(22.81375 26.497266) scale(0.11 -0.11)">
       <use xlink:href="#DejaVuSans-31"/>
       <use xlink:href="#DejaVuSans-2e" transform="translate(63.623047 0)"/>
       <use xlink:href="#DejaVuSans-30" transform="translate(95.410156 0)"/>
      </g>
     </g>
    </g>
    <g id="text_14">
     <!-- Fraction below SQL -->
     <g style="fill: #262626" transform="translate(16.318125 220.074375) rotate(-90) scale(0.12 -0.12)">
      <defs>
       <path id="DejaVuSans-46" d="M 628 4666 
L 3309 4666 
L 3309 4134 
L 1259 4134 
L 1259 2759 
L 3109 2759 
L 3109 2228 
L 1259 2228 
L 1259 0 
L 628 0 
L 628 4666 
z
" transform="scale(0.015625)"/>
       <path id="DejaVuSans-72" d="M 2631 2963 
Q 2534 3019 2420 3045 
Q 2306 3072 2169 3072 
Q 1681 3072 1420 2755 
Q 1159 2438 1159 1844 
L 1159 0 
L 581 0 
L 581 3500 
L 1159 3500 
L 1159 2956 
Q 1341 3275 1631 3429 
Q 1922 3584 2338 3584 
Q 2397 3584 2469 3576 
Q 2541 3569 2628 3553 
L 2631 2963 
z
" transform="scale(0.015625)"/>
       <path id="DejaVuSans-61" d="M 2194 1759 
Q 1497 1759 1228 1600 
Q 959 1441 959 1056 
Q 959 750 1161 570 
Q 1363 391 1709 391 
Q 2188 391 2477 730 
Q 2766 1069 2766 1631 
L 2766 1759 
L 2194 1759 
z
M 3341 1997 
L 3341 0 
L 2766 0 
L 2766 531 
Q 2569 213 2275 61 
Q 1981 -91 1556 -91 
Q 1019 -91 701 211 
Q 384 513 384 1019 
Q 384 1609 779 1909 
Q 1175 2209 1959 2209 
L 2766 2209 
L 2766 2266 
Q 2766 2663 2505 2880 
Q 2244 3097 1772 3097 
Q 1472 3097 1187 3025 
Q 903 2953 641 2809 
L 641 3341 
Q 956 3463 1253 3523 
Q 1550 3584 1831 3584 
Q 2591 3584 2966 3190 
Q 3341 2797 3341 1997 
z
" transform="scale(0.015625)"/>
       <path id="DejaVuSans-63" d="M 3122 3366 
L 3122 2828 
Q 2878 2963 2633 3030 
Q 2388 3097 2138 3097 
Q 1578 3097 1268 2742 
Q 959 2388 959 1747 
Q 959 1106 1268 751 
Q 1578 397 2138 397 
Q 2388 397 2633 464 
Q 2878 531 3122 666 
L 3122 134 
Q 2881 22 2623 -34 
Q 2366 -91 2075 -91 
Q 1284 -91 818 406 
Q 353 903 353 1747 
Q 353 2603 823 3093 
Q 1294 3584 2113 3584 
Q 2378 3584 2631 3529 
Q 2884 3475 3122 3366 
z
" transform="scale(0.015625)"/>
       <path id="DejaVuSans-74" d="M 1172 4494 
L 1172 3500 
L 2356 3500 
L 2356 3053 
L 1172 3053 
L 1172 1153 
Q 1172 725 1289 603 
Q 1406 481 1766 481 
L 2356 481 
L 2356 0 
L 1766 0 
Q 1100 0 847 248 
Q 594 497 594 1153 
L 594 3053 
L 172 3053 
L 172 3500 
L 594 3500 
L 594 4494 
L 1172 4494 
z
" transform="scale(0.015625)"/>
       <path id="DejaVuSans-69" d="M 603 3500 
L 1178 3500 
L 1178 0 
L 603 0 
L 603 3500 
z
M 603 4863 
L 1178 4863 
L 1178 4134 
L 603 4134 
L 603 4863 
z
" transform="scale(0.015625)"/>
       <path id="DejaVuSans-6f" d="M 1959 3097 
Q 1497 3097 1228 2736 
Q 959 2375 959 1747 
Q 959 1119 1226 758 
Q 1494 397 1959 397 
Q 2419 397 2687 759 
Q 2956 1122 2956 1747 
Q 2956 2369 2687 2733 
Q 2419 3097 1959 3097 
z
M 1959 3584 
Q 2709 3584 3137 3096 
Q 3566 2609 3566 1747 
Q 3566 888 3137 398 
Q 2709 -91 1959 -91 
Q 1206 -91 779 398 
Q 353 888 353 1747 
Q 353 2609 779 3096 
Q 1206 3584 1959 3584 
z
" transform="scale(0.015625)"/>
       <path id="DejaVuSans-6e" d="M 3513 2113 
L 3513 0 
L 2938 0 
L 2938 2094 
Q 2938 2591 2744 2837 
Q 2550 3084 2163 3084 
Q 1697 3084 1428 2787 
Q 1159 2491 1159 1978 
L 1159 0 
L 581 0 
L 581 3500 
L 1159 3500 
L 1159 2956 
Q 1366 3272 1645 3428 
Q 1925 3584 2291 3584 
Q 2894 3584 3203 3211 
Q 3513 2838 3513 2113 
z
" transform="scale(0.015625)"/>
       <path id="DejaVuSans-20" transform="scale(0.015625)"/>
       <path id="DejaVuSans-62" d="M 3116 1747 
Q 3116 2381 2855 2742 
Q 2594 3103 2138 3103 
Q 1681 3103 1420 2742 
Q 1159 2381 1159 1747 
Q 1159 1113 1420 752 
Q 1681 391 2138 391 
Q 2594 391 2855 752 
Q 3116 1113 3116 1747 
z
M 1159 2969 
Q 1341 3281 1617 3432 
Q 1894 3584 2278 3584 
Q 2916 3584 3314 3078 
Q 3713 2572 3713 1747 
Q 3713 922 3314 415 
Q 2916 -91 2278 -91 
Q 1894 -91 1617 61 
Q 1341 213 1159 525 
L 1159 0 
L 581 0 
L 581 4863 
L 1159 4863 
L 1159 2969 
z
" transform="scale(0.015625)"/>
       <path id="DejaVuSans-65" d="M 3597 1894 
L 3597 1613 
L 953 1613 
Q 991 1019 1311 708 
Q 1631 397 2203 397 
Q 2534 397 2845 478 
Q 3156 559 3463 722 
L 3463 178 
Q 3153 47 2828 -22 
Q 2503 -91 2169 -91 
Q 1331 -91 842 396 
Q 353 884 353 1716 
Q 353 2575 817 3079 
Q 1281 3584 2069 3584 
Q 2775 3584 3186 3129 
Q 3597 2675 3597 1894 
z
M 3022 2063 
Q 3016 2534 2758 2815 
Q 2500 3097 2075 3097 
Q 1594 3097 1305 2825 
Q 1016 2553 972 2059 
L 3022 2063 
z
" transform="scale(0.015625)"/>
       <path id="DejaVuSans-6c" d="M 603 4863 
L 1178 4863 
L 1178 0 
L 603 0 
L 603 4863 
z
" transform="scale(0.015625)"/>
       <path id="DejaVuSans-77" d="M 269 3500 
L 844 3500 
L 1563 769 
L 2278 3500 
L 2956 3500 
L 3675 769 
L 4391 3500 
L 4966 3500 
L 4050 0 
L 3372 0 
L 2619 2869 
L 1863 0 
L 1184 0 
L 269 3500 
z
" transform="scale(0.015625)"/>
       <path id="DejaVuSans-53" d="M 3425 4513 
L 3425 3897 
Q 3066 4069 2747 4153 
Q 2428 4238 2131 4238 
Q 1616 4238 1336 4038 
Q 1056 3838 1056 3469 
Q 1056 3159 1242 3001 
Q 1428 2844 1947 2747 
L 2328 2669 
Q 3034 2534 3370 2195 
Q 3706 1856 3706 1288 
Q 3706 609 3251 259 
Q 2797 -91 1919 -91 
Q 1588 -91 1214 -16 
Q 841 59 441 206 
L 441 856 
Q 825 641 1194 531 
Q 1563 422 1919 422 
Q 2459 422 2753 634 
Q 3047 847 3047 1241 
Q 3047 1584 2836 1778 
Q 2625 1972 2144 2069 
L 1759 2144 
Q 1053 2284 737 2584 
Q 422 2884 422 3419 
Q 422 4038 858 4394 
Q 1294 4750 2059 4750 
Q 2388 4750 2728 4690 
Q 3069 4631 3425 4513 
z
" transform="scale(0.015625)"/>
       <path id="DejaVuSans-51" d="M 2522 4238 
Q 1834 4238 1429 3725 
Q 1025 3213 1025 2328 
Q 1025 1447 1429 934 
Q 1834 422 2522 422 
Q 3209 422 3611 934 
Q 4013 1447 4013 2328 
Q 4013 3213 3611 3725 
Q 3209 4238 2522 4238 
z
M 3406 84 
L 4238 -825 
L 3475 -825 
L 2784 -78 
Q 2681 -84 2626 -87 
Q 2572 -91 2522 -91 
Q 1538 -91 948 567 
Q 359 1225 359 2328 
Q 359 3434 948 4092 
Q 1538 4750 2522 4750 
Q 3503 4750 4090 4092 
Q 4678 3434 4678 2328 
Q 4678 1516 4351 937 
Q 4025 359 3406 84 
z
" transform="scale(0.015625)"/>
       <path id="DejaVuSans-4c" d="M 628 4666 
L 1259 4666 
L 1259 531 
L 3531 531 
L 3531 0 
L 628 0 
L 628 4666 
z
" transform="scale(0.015625)"/>
      </defs>
      <use xlink:href="#DejaVuSans-46"/>
      <use xlink:href="#DejaVuSans-72" transform="translate(50.269531 0)"/>
      <use xlink:href="#DejaVuSans-61" transform="translate(91.382812 0)"/>
      <use xlink:href="#DejaVuSans-63" transform="translate(152.662109 0)"/>
      <use xlink:href="#DejaVuSans-74" transform="translate(207.642578 0)"/>
      <use xlink:href="#DejaVuSans-69" transform="translate(246.851562 0)"/>
      <use xlink:href="#DejaVuSans-6f" transform="translate(274.634766 0)"/>
      <use xlink:href="#DejaVuSans-6e" transform="translate(335.816406 0)"/>
      <use xlink:href="#DejaVuSans-20" transform="translate(399.195312 0)"/>
      <use xlink:href="#DejaVuSans-62" transform="translate(430.982422 0)"/>
      <use xlink:href="#DejaVuSans-65" transform="translate(494.458984 0)"/>
      <use xlink:href="#DejaVuSans-6c" transform="translate(555.982422 0)"/>
      <use xlink:href="#DejaVuSans-6f" transform="translate(583.765625 0)"/>
      <use xlink:href="#DejaVuSans-77" transform="translate(644.947266 0)"/>
      <use xlink:href="#DejaVuSans-20" transform="translate(726.734375 0)"/>
      <use xlink:href="#DejaVuSans-53" transform="translate(758.521484 0)"/>
      <use xlink:href="#DejaVuSans-51" transform="translate(821.998047 0)"/>
      <use xlink:href="#DejaVuSans-4c" transform="translate(900.708984 0)"/>
     </g>
    </g>
   </g>
   <g id="line2d_13">
    <path d="M 72.81446 293.802273 
L 74.658731 276.124429 
L 76.503001 261.226121 
L 77.425136 256.222958 
L 78.347271 252.401097 
L 79.269406 250.900148 
L 80.191542 250.274752 
L 81.113677 249.204631 
L 82.957947 246.022064 
L 83.880082 243.312017 
L 84.802218 241.282956 
L 86.646488 238.503421 
L 87.568623 237.627867 
L 89.412893 236.905188 
L 90.335029 236.363179 
L 91.257164 236.029635 
L 92.179299 235.334751 
L 94.023569 233.625337 
L 94.945705 233.291792 
L 95.86784 233.528053 
L 96.789975 235.515421 
L 97.71211 236.404872 
L 98.634245 237.044165 
L 99.55638 238.086491 
L 101.400651 238.614602 
L 102.322786 239.573542 
L 103.244921 240.977207 
L 104.167056 241.477524 
L 105.089192 241.310751 
L 106.011327 239.559644 
L 106.933462 238.433933 
L 107.855597 237.836332 
L 108.777732 237.752946 
L 109.699867 237.544481 
L 110.622003 237.808537 
L 111.544138 237.947514 
L 112.466273 238.642398 
L 114.310543 238.308853 
L 115.232678 238.308853 
L 116.154814 238.044798 
L 117.999084 237.808537 
L 118.921219 238.114286 
L 121.687625 239.545747 
L 123.531895 240.879923 
L 124.45403 241.672091 
L 125.376165 243.159142 
L 126.298301 245.424463 
L 127.220436 248.023329 
L 128.142571 246.855924 
L 129.986841 245.021431 
L 132.753247 251.164204 
L 133.675382 250.372036 
L 134.597517 249.09345 
L 137.363923 247.828761 
L 138.286058 247.675887 
L 140.130328 246.258324 
L 141.052464 246.508482 
L 141.974599 246.911515 
L 144.741004 246.981003 
L 145.663139 246.772538 
L 146.585275 246.772538 
L 147.50741 247.008798 
L 148.429545 247.689785 
L 150.273815 249.301915 
L 151.19595 250.719478 
L 152.118086 251.122511 
L 153.040221 252.512278 
L 153.962356 254.457953 
L 154.884491 256.98733 
L 155.806626 258.807925 
L 156.728762 258.516074 
L 158.573032 254.221692 
L 159.495167 255.486381 
L 161.339437 261.337302 
L 162.261573 262.588093 
L 163.183708 260.183795 
L 165.027978 257.668316 
L 165.950113 257.348669 
L 167.794384 255.708744 
L 169.638654 253.735274 
L 172.40506 253.054287 
L 173.327195 253.165469 
L 174.24933 253.012594 
L 175.171465 253.373934 
L 176.0936 253.512911 
L 177.015736 254.221692 
L 179.782141 257.362567 
L 180.704276 258.752335 
L 181.626411 260.93427 
L 182.548547 262.72707 
L 183.470682 265.506605 
L 184.392817 267.86921 
L 185.314952 267.563461 
L 187.159222 261.837619 
L 188.081358 260.836986 
L 189.003493 265.006289 
L 189.925628 268.605787 
L 190.847763 271.162959 
L 192.692034 268.355629 
L 194.536304 264.241916 
L 195.458439 262.226753 
L 196.380574 260.850884 
L 197.302709 259.683479 
L 198.224845 258.9608 
L 199.14698 258.41879 
L 200.99125 257.987962 
L 202.835521 258.265916 
L 203.757656 258.099144 
L 204.679791 258.265916 
L 205.601926 259.141469 
L 206.524061 259.808558 
L 207.446196 260.920372 
L 208.368332 261.795926 
L 210.212602 265.214754 
L 211.134737 267.730233 
L 212.979008 274.20655 
L 213.901143 276.096634 
L 214.823278 273.581155 
L 215.745413 270.62095 
L 216.667548 267.229917 
L 218.511819 273.692336 
L 219.433954 276.986085 
L 220.356089 276.861006 
L 221.278224 273.775722 
L 223.122494 268.577991 
L 224.04463 267.063145 
L 224.966765 265.881842 
L 227.73317 263.977861 
L 228.655306 263.616521 
L 230.499576 263.366363 
L 231.421711 263.338568 
L 233.265981 263.672112 
L 234.188117 264.172428 
L 235.110252 265.200856 
L 236.032387 265.881842 
L 237.876657 267.674642 
L 238.798793 269.286773 
L 240.643063 273.650643 
L 242.487333 280.196448 
L 243.409468 279.737825 
L 244.331604 277.236243 
L 245.253739 273.442178 
L 246.175874 273.873006 
L 247.098009 278.33416 
L 248.020144 281.308262 
L 248.94228 281.836374 
L 250.78655 276.249508 
L 251.708685 274.262141 
L 252.63082 272.566624 
L 253.552955 271.190754 
L 254.475091 270.02335 
L 256.319361 268.925433 
L 257.241496 268.564094 
L 259.085766 268.341731 
L 260.007902 268.300038 
L 260.930037 268.64748 
L 261.852172 268.536298 
L 262.774307 269.258977 
L 263.696442 269.495238 
L 264.618578 270.190122 
L 265.540713 271.093471 
L 266.462848 271.232447 
L 267.384983 274.38722 
L 268.307118 274.20655 
L 270.151389 279.626644 
L 271.073524 282.795314 
L 271.995659 284.157286 
L 272.917794 283.782049 
L 273.839929 280.974718 
L 274.762065 277.611481 
L 275.6842 282.239407 
L 276.606335 284.796579 
L 277.52847 285.032839 
L 278.450605 283.309528 
L 279.37274 280.627276 
L 280.294876 278.737192 
L 282.139146 275.76309 
L 283.983416 274.373322 
L 284.905552 274.56789 
L 285.827687 273.511666 
L 286.749822 273.650643 
L 289.516227 273.414383 
L 291.360498 274.053676 
L 292.282633 274.651276 
L 293.204768 274.98482 
L 294.126903 275.554625 
L 295.971174 277.166755 
L 296.893309 278.487034 
L 297.815444 280.210346 
L 300.58185 286.478198 
L 301.503985 286.631072 
L 302.42612 286.172449 
L 303.348255 282.93429 
L 304.27039 284.282365 
L 305.192525 286.978514 
L 306.114661 288.951984 
L 307.036796 287.395444 
L 307.958931 284.532523 
L 308.881066 283.573584 
L 310.725337 280.279834 
L 311.647472 279.890699 
L 313.491742 278.292467 
L 314.413877 278.320262 
L 318.102418 277.764355 
L 319.946688 278.417546 
L 320.868823 278.959555 
L 321.790959 279.265304 
L 323.635229 280.529993 
L 324.557364 280.794048 
L 326.401635 283.156653 
L 328.245905 286.589379 
L 329.16804 288.757417 
L 330.090175 289.438403 
L 331.01231 289.702459 
L 331.934446 288.79911 
L 332.856581 286.130756 
L 333.778716 290.341752 
L 334.700851 290.564114 
L 335.622986 289.549584 
L 336.545122 288.701826 
L 337.467257 287.0619 
L 339.311527 284.629807 
L 340.233662 284.004411 
L 341.155797 283.212244 
L 342.077933 282.739723 
L 343.000068 282.795314 
L 343.922203 282.684132 
L 344.844338 282.239407 
L 346.688609 282.2811 
L 347.610744 281.864169 
L 348.532879 282.364486 
L 349.455014 283.212244 
L 350.377149 283.142756 
L 351.299284 283.65697 
L 352.22142 284.379649 
L 353.143555 284.379649 
L 354.06569 285.08843 
L 354.987825 286.547686 
L 356.832095 288.8547 
L 357.754231 291.036635 
L 359.598501 291.18951 
L 360.520636 292.217938 
L 361.442771 289.410607 
L 362.364907 291.759315 
L 363.287042 291.203408 
L 364.209177 293.260264 
L 365.131312 292.773845 
L 366.053447 289.702459 
L 366.975582 288.562849 
L 367.897718 288.590644 
L 368.819853 287.145286 
L 369.741988 286.950719 
L 370.664123 287.325956 
L 371.586258 286.533788 
L 372.508394 285.894495 
L 373.430529 286.200244 
L 375.274799 285.519258 
L 376.196934 286.116858 
L 377.119069 286.450402 
L 378.041205 286.28363 
L 378.96334 287.006309 
L 379.885475 287.228672 
L 380.80761 287.173082 
L 381.729745 287.742886 
L 382.651881 288.687928 
L 383.574016 289.007575 
L 385.418286 291.397975 
L 387.262556 293.524319 
L 388.184692 293.802273 
L 389.106827 294.219203 
L 390.028962 293.552115 
L 390.951097 293.704989 
L 391.873232 294.747315 
L 392.795367 294.121919 
L 393.717503 293.816171 
L 394.639638 293.371445 
L 397.406043 291.258998 
L 398.328179 290.216673 
L 399.250314 290.286161 
L 400.172449 289.758049 
L 401.094584 289.674663 
L 402.016719 289.785845 
L 405.70526 289.605175 
L 406.627395 290.077696 
L 407.54953 290.036003 
L 408.471666 290.855966 
L 409.393801 290.703091 
L 410.315936 290.689194 
L 411.238071 291.578645 
L 412.160206 292.009473 
L 413.082341 292.732152 
L 414.926612 294.385975 
L 415.848747 295.039166 
L 417.693017 295.511687 
L 418.615153 296.192673 
L 419.537288 294.052431 
L 420.459423 296.387241 
L 421.381558 296.262162 
L 422.303693 295.817436 
L 423.225828 295.720152 
L 424.147964 295.205938 
L 425.070099 294.441566 
L 425.992234 294.163612 
L 427.836504 293.107389 
L 428.758639 292.62097 
L 429.680775 292.662664 
L 431.525045 293.274161 
L 432.44718 292.662664 
L 433.369315 292.481994 
L 434.291451 292.857231 
L 435.213586 292.815538 
L 436.135721 293.218571 
L 437.979991 293.774478 
L 438.902126 293.649398 
L 439.824262 294.010738 
L 442.590667 295.483892 
L 443.512802 296.359445 
L 445.357073 297.373976 
L 446.279208 297.262794 
L 447.201343 297.318385 
L 449.045613 298.388506 
L 449.967749 298.138348 
L 450.889884 297.234999 
L 451.812019 297.012636 
L 452.734154 297.234999 
L 453.656289 297.763111 
L 454.578425 296.818069 
L 455.50056 295.567278 
L 456.422695 295.205938 
L 457.34483 296.595706 
L 458.266965 295.761845 
L 459.1891 295.91472 
L 460.111236 293.955147 
L 461.033371 294.663929 
L 461.955506 296.276059 
L 462.877641 294.941882 
L 463.799776 296.790273 
L 464.721911 294.927985 
L 466.566182 295.678459 
L 467.488317 296.470627 
L 468.410452 296.845864 
L 469.332587 297.957678 
L 470.254723 297.276692 
L 471.176858 297.207203 
L 472.098993 297.485157 
L 473.943263 298.555278 
L 474.865398 298.763743 
L 475.787534 298.763743 
L 476.709669 299.291855 
L 477.631804 298.72205 
L 478.553939 299.889455 
L 479.476074 299.528115 
L 480.39821 298.819334 
L 481.320345 299.069492 
L 483.164615 298.555278 
L 484.08675 297.985473 
L 485.008885 297.777008 
L 486.853156 297.721417 
L 487.775291 297.568543 
L 489.619561 297.902087 
L 490.541697 298.068859 
L 491.463832 297.88819 
L 492.385967 298.12445 
L 494.230237 298.138348 
L 495.152372 298.235631 
L 496.074508 298.207836 
L 496.996643 298.569176 
L 497.918778 298.444097 
L 498.840913 298.652562 
L 499.763048 299.291855 
L 501.607319 299.806069 
L 504.373724 300.139613 
L 505.295859 300.473157 
L 507.14013 300.667725 
L 508.062265 300.181306 
L 508.9844 300.209101 
L 509.906535 300.487055 
L 510.82867 299.958943 
L 511.750806 300.375874 
L 512.672941 300.000636 
L 513.595076 299.792171 
L 514.517211 299.972841 
L 515.439346 299.569808 
L 516.361482 299.542013 
L 517.283617 299.889455 
L 518.205752 299.945046 
L 521.894293 299.653194 
L 522.816428 300.014534 
L 525.582833 300.27859 
L 526.504969 300.222999 
L 529.271374 301.015167 
L 530.193509 300.931781 
L 532.03778 301.154143 
L 532.959915 300.959576 
L 532.959915 300.959576 
" clip-path="url(#p52ff11664d)" style="fill: none; stroke: #4c72b0; stroke-width: 1.5; stroke-linecap: round"/>
    <defs>
     <path id="md8d2ef156f" d="M 0 3 
C 0.795609 3 1.55874 2.683901 2.12132 2.12132 
C 2.683901 1.55874 3 0.795609 3 0 
C 3 -0.795609 2.683901 -1.55874 2.12132 -2.12132 
C 1.55874 -2.683901 0.795609 -3 0 -3 
C -0.795609 -3 -1.55874 -2.683901 -2.12132 -2.12132 
C -2.683901 -1.55874 -3 -0.795609 -3 0 
C -3 0.795609 -2.683901 1.55874 -2.12132 2.12132 
C -1.55874 2.683901 -0.795609 3 0 3 
z
" style="stroke: #4c72b0"/>
    </defs>
    <g clip-path="url(#p52ff11664d)">
     <use xlink:href="#md8d2ef156f" x="72.81446" y="293.802273" style="fill: #4c72b0; stroke: #4c72b0"/>
     <use xlink:href="#md8d2ef156f" x="87.568623" y="237.627867" style="fill: #4c72b0; stroke: #4c72b0"/>
     <use xlink:href="#md8d2ef156f" x="102.322786" y="239.573542" style="fill: #4c72b0; stroke: #4c72b0"/>
     <use xlink:href="#md8d2ef156f" x="117.076949" y="237.905821" style="fill: #4c72b0; stroke: #4c72b0"/>
     <use xlink:href="#md8d2ef156f" x="131.831112" y="249.357506" style="fill: #4c72b0; stroke: #4c72b0"/>
     <use xlink:href="#md8d2ef156f" x="146.585275" y="246.772538" style="fill: #4c72b0; stroke: #4c72b0"/>
     <use xlink:href="#md8d2ef156f" x="161.339437" y="261.337302" style="fill: #4c72b0; stroke: #4c72b0"/>
     <use xlink:href="#md8d2ef156f" x="176.0936" y="253.512911" style="fill: #4c72b0; stroke: #4c72b0"/>
     <use xlink:href="#md8d2ef156f" x="190.847763" y="271.162959" style="fill: #4c72b0; stroke: #4c72b0"/>
     <use xlink:href="#md8d2ef156f" x="205.601926" y="259.141469" style="fill: #4c72b0; stroke: #4c72b0"/>
     <use xlink:href="#md8d2ef156f" x="220.356089" y="276.861006" style="fill: #4c72b0; stroke: #4c72b0"/>
     <use xlink:href="#md8d2ef156f" x="235.110252" y="265.200856" style="fill: #4c72b0; stroke: #4c72b0"/>
     <use xlink:href="#md8d2ef156f" x="249.864415" y="279.195816" style="fill: #4c72b0; stroke: #4c72b0"/>
     <use xlink:href="#md8d2ef156f" x="264.618578" y="270.190122" style="fill: #4c72b0; stroke: #4c72b0"/>
     <use xlink:href="#md8d2ef156f" x="279.37274" y="280.627276" style="fill: #4c72b0; stroke: #4c72b0"/>
     <use xlink:href="#md8d2ef156f" x="294.126903" y="275.554625" style="fill: #4c72b0; stroke: #4c72b0"/>
     <use xlink:href="#md8d2ef156f" x="308.881066" y="283.573584" style="fill: #4c72b0; stroke: #4c72b0"/>
     <use xlink:href="#md8d2ef156f" x="323.635229" y="280.529993" style="fill: #4c72b0; stroke: #4c72b0"/>
     <use xlink:href="#md8d2ef156f" x="338.389392" y="285.852802" style="fill: #4c72b0; stroke: #4c72b0"/>
     <use xlink:href="#md8d2ef156f" x="353.143555" y="284.379649" style="fill: #4c72b0; stroke: #4c72b0"/>
     <use xlink:href="#md8d2ef156f" x="367.897718" y="288.590644" style="fill: #4c72b0; stroke: #4c72b0"/>
     <use xlink:href="#md8d2ef156f" x="382.651881" y="288.687928" style="fill: #4c72b0; stroke: #4c72b0"/>
     <use xlink:href="#md8d2ef156f" x="397.406043" y="291.258998" style="fill: #4c72b0; stroke: #4c72b0"/>
     <use xlink:href="#md8d2ef156f" x="412.160206" y="292.009473" style="fill: #4c72b0; stroke: #4c72b0"/>
     <use xlink:href="#md8d2ef156f" x="426.914369" y="293.691092" style="fill: #4c72b0; stroke: #4c72b0"/>
     <use xlink:href="#md8d2ef156f" x="441.668532" y="295.011371" style="fill: #4c72b0; stroke: #4c72b0"/>
     <use xlink:href="#md8d2ef156f" x="456.422695" y="295.205938" style="fill: #4c72b0; stroke: #4c72b0"/>
     <use xlink:href="#md8d2ef156f" x="471.176858" y="297.207203" style="fill: #4c72b0; stroke: #4c72b0"/>
     <use xlink:href="#md8d2ef156f" x="485.931021" y="297.749213" style="fill: #4c72b0; stroke: #4c72b0"/>
     <use xlink:href="#md8d2ef156f" x="500.685183" y="299.583706" style="fill: #4c72b0; stroke: #4c72b0"/>
     <use xlink:href="#md8d2ef156f" x="515.439346" y="299.569808" style="fill: #4c72b0; stroke: #4c72b0"/>
     <use xlink:href="#md8d2ef156f" x="530.193509" y="300.931781" style="fill: #4c72b0; stroke: #4c72b0"/>
    </g>
   </g>
   <g id="line2d_14">
    <path d="M 72.81446 293.802273 
L 74.658731 276.124429 
L 76.503001 261.226121 
L 77.425136 256.222958 
L 78.347271 252.401097 
L 79.269406 250.900148 
L 80.191542 250.274752 
L 81.113677 249.204631 
L 82.957947 246.022064 
L 83.880082 243.312017 
L 84.802218 241.282956 
L 86.646488 238.503421 
L 87.568623 237.627867 
L 89.412893 236.905188 
L 90.335029 236.363179 
L 91.257164 236.029635 
L 92.179299 235.334751 
L 94.023569 233.625337 
L 94.945705 233.291792 
L 95.86784 233.528053 
L 96.789975 235.515421 
L 97.71211 236.404872 
L 98.634245 237.044165 
L 99.55638 238.086491 
L 101.400651 238.614602 
L 102.322786 239.573542 
L 103.244921 240.977207 
L 104.167056 241.477524 
L 105.089192 241.310751 
L 106.011327 239.559644 
L 106.933462 238.433933 
L 107.855597 237.836332 
L 108.777732 237.752946 
L 109.699867 237.544481 
L 110.622003 237.808537 
L 111.544138 237.947514 
L 112.466273 238.642398 
L 114.310543 238.308853 
L 115.232678 238.308853 
L 116.154814 238.044798 
L 117.999084 237.808537 
L 118.921219 238.114286 
L 121.687625 239.545747 
L 123.531895 240.879923 
L 124.45403 241.672091 
L 125.376165 243.159142 
L 126.298301 245.424463 
L 127.220436 248.023329 
L 128.142571 246.855924 
L 129.986841 245.021431 
L 132.753247 251.164204 
L 133.675382 250.372036 
L 134.597517 249.09345 
L 137.363923 247.828761 
L 138.286058 247.675887 
L 140.130328 246.258324 
L 141.052464 246.508482 
L 141.974599 246.911515 
L 144.741004 246.981003 
L 145.663139 246.772538 
L 146.585275 246.772538 
L 147.50741 247.008798 
L 148.429545 247.689785 
L 150.273815 249.301915 
L 151.19595 250.719478 
L 152.118086 251.122511 
L 153.040221 252.512278 
L 153.962356 254.457953 
L 154.884491 256.98733 
L 155.806626 258.807925 
L 156.728762 258.516074 
L 158.573032 254.221692 
L 159.495167 255.486381 
L 161.339437 261.337302 
L 162.261573 262.588093 
L 163.183708 260.183795 
L 165.027978 257.668316 
L 165.950113 257.348669 
L 167.794384 255.708744 
L 169.638654 253.735274 
L 172.40506 253.054287 
L 173.327195 253.165469 
L 174.24933 253.012594 
L 175.171465 253.373934 
L 176.0936 253.512911 
L 177.015736 254.221692 
L 179.782141 257.362567 
L 180.704276 258.752335 
L 181.626411 260.93427 
L 182.548547 262.72707 
L 183.470682 265.506605 
L 184.392817 267.86921 
L 185.314952 267.563461 
L 187.159222 261.837619 
L 188.081358 260.836986 
L 189.003493 265.006289 
L 189.925628 268.605787 
L 190.847763 271.162959 
L 192.692034 268.355629 
L 194.536304 264.241916 
L 195.458439 262.226753 
L 196.380574 260.850884 
L 197.302709 259.683479 
L 198.224845 258.9608 
L 199.14698 258.41879 
L 200.99125 257.987962 
L 202.835521 258.265916 
L 203.757656 258.099144 
L 204.679791 258.265916 
L 205.601926 259.141469 
L 206.524061 259.808558 
L 207.446196 260.920372 
L 208.368332 261.795926 
L 210.212602 265.214754 
L 211.134737 267.730233 
L 212.979008 274.20655 
L 213.901143 276.096634 
L 214.823278 273.581155 
L 215.745413 270.62095 
L 216.667548 267.229917 
L 218.511819 273.692336 
L 219.433954 276.986085 
L 220.356089 276.861006 
L 221.278224 273.775722 
L 223.122494 268.577991 
L 224.04463 267.063145 
L 224.966765 265.881842 
L 227.73317 263.977861 
L 228.655306 263.616521 
L 230.499576 263.366363 
L 231.421711 263.338568 
L 233.265981 263.672112 
L 234.188117 264.172428 
L 235.110252 265.200856 
L 236.032387 265.881842 
L 237.876657 267.674642 
L 238.798793 269.286773 
L 240.643063 273.650643 
L 242.487333 280.196448 
L 243.409468 279.737825 
L 244.331604 277.236243 
L 245.253739 273.442178 
L 246.175874 273.873006 
L 247.098009 278.33416 
L 248.020144 281.308262 
L 248.94228 281.836374 
L 250.78655 276.249508 
L 251.708685 274.262141 
L 252.63082 272.566624 
L 253.552955 271.190754 
L 254.475091 270.02335 
L 256.319361 268.925433 
L 257.241496 268.564094 
L 259.085766 268.341731 
L 260.007902 268.300038 
L 260.930037 268.64748 
L 261.852172 268.536298 
L 262.774307 269.258977 
L 263.696442 269.495238 
L 264.618578 270.190122 
L 265.540713 271.093471 
L 266.462848 271.232447 
L 267.384983 274.38722 
L 268.307118 274.20655 
L 270.151389 279.626644 
L 271.073524 282.795314 
L 271.995659 284.157286 
L 272.917794 283.782049 
L 273.839929 280.974718 
L 274.762065 277.611481 
L 275.6842 282.239407 
L 276.606335 284.796579 
L 277.52847 285.032839 
L 278.450605 283.309528 
L 279.37274 280.627276 
L 280.294876 278.737192 
L 282.139146 275.76309 
L 283.983416 274.373322 
L 284.905552 274.56789 
L 285.827687 273.511666 
L 286.749822 273.650643 
L 289.516227 273.414383 
L 291.360498 274.053676 
L 292.282633 274.651276 
L 293.204768 274.98482 
L 294.126903 275.554625 
L 295.971174 277.166755 
L 296.893309 278.487034 
L 297.815444 280.210346 
L 300.58185 286.478198 
L 301.503985 286.631072 
L 302.42612 286.172449 
L 303.348255 282.93429 
L 304.27039 284.282365 
L 305.192525 286.978514 
L 306.114661 288.951984 
L 307.036796 287.395444 
L 307.958931 284.532523 
L 308.881066 283.573584 
L 310.725337 280.279834 
L 311.647472 279.890699 
L 313.491742 278.292467 
L 314.413877 278.320262 
L 318.102418 277.764355 
L 319.946688 278.417546 
L 320.868823 278.959555 
L 321.790959 279.265304 
L 323.635229 280.529993 
L 324.557364 280.794048 
L 326.401635 283.156653 
L 328.245905 286.589379 
L 329.16804 288.757417 
L 330.090175 289.438403 
L 331.01231 289.702459 
L 331.934446 288.79911 
L 332.856581 286.130756 
L 333.778716 290.341752 
L 334.700851 290.564114 
L 335.622986 289.549584 
L 336.545122 288.701826 
L 337.467257 287.0619 
L 339.311527 284.629807 
L 340.233662 284.004411 
L 341.155797 283.212244 
L 342.077933 282.739723 
L 343.000068 282.795314 
L 343.922203 282.684132 
L 344.844338 282.239407 
L 346.688609 282.2811 
L 347.610744 281.864169 
L 348.532879 282.364486 
L 349.455014 283.212244 
L 350.377149 283.142756 
L 351.299284 283.65697 
L 352.22142 284.379649 
L 353.143555 284.379649 
L 354.06569 285.08843 
L 354.987825 286.547686 
L 356.832095 288.8547 
L 357.754231 291.036635 
L 359.598501 291.18951 
L 360.520636 292.217938 
L 361.442771 289.410607 
L 362.364907 291.759315 
L 363.287042 291.203408 
L 364.209177 293.260264 
L 365.131312 292.773845 
L 366.053447 289.702459 
L 366.975582 288.562849 
L 367.897718 288.590644 
L 368.819853 287.145286 
L 369.741988 286.950719 
L 370.664123 287.325956 
L 371.586258 286.533788 
L 372.508394 285.894495 
L 373.430529 286.200244 
L 375.274799 285.519258 
L 376.196934 286.116858 
L 377.119069 286.450402 
L 378.041205 286.28363 
L 378.96334 287.006309 
L 379.885475 287.228672 
L 380.80761 287.173082 
L 381.729745 287.742886 
L 382.651881 288.687928 
L 383.574016 289.007575 
L 385.418286 291.397975 
L 387.262556 293.524319 
L 388.184692 293.802273 
L 389.106827 294.219203 
L 390.028962 293.552115 
L 390.951097 293.704989 
L 391.873232 294.747315 
L 392.795367 294.121919 
L 393.717503 293.816171 
L 394.639638 293.371445 
L 397.406043 291.258998 
L 398.328179 290.216673 
L 399.250314 290.286161 
L 400.172449 289.758049 
L 401.094584 289.674663 
L 402.016719 289.785845 
L 405.70526 289.605175 
L 406.627395 290.077696 
L 407.54953 290.036003 
L 408.471666 290.855966 
L 409.393801 290.703091 
L 410.315936 290.689194 
L 411.238071 291.578645 
L 412.160206 292.009473 
L 413.082341 292.732152 
L 414.926612 294.385975 
L 415.848747 295.039166 
L 417.693017 295.511687 
L 418.615153 296.192673 
L 419.537288 294.052431 
L 420.459423 296.387241 
L 421.381558 296.262162 
L 422.303693 295.817436 
L 423.225828 295.720152 
L 424.147964 295.205938 
L 425.070099 294.441566 
L 425.992234 294.163612 
L 427.836504 293.107389 
L 428.758639 292.62097 
L 429.680775 292.662664 
L 431.525045 293.274161 
L 432.44718 292.662664 
L 433.369315 292.481994 
L 434.291451 292.857231 
L 435.213586 292.815538 
L 436.135721 293.218571 
L 437.979991 293.774478 
L 438.902126 293.649398 
L 439.824262 294.010738 
L 442.590667 295.483892 
L 443.512802 296.359445 
L 445.357073 297.373976 
L 446.279208 297.262794 
L 447.201343 297.318385 
L 449.045613 298.388506 
L 449.967749 298.138348 
L 450.889884 297.234999 
L 451.812019 297.012636 
L 452.734154 297.234999 
L 453.656289 297.763111 
L 454.578425 296.818069 
L 455.50056 295.567278 
L 456.422695 295.205938 
L 457.34483 296.595706 
L 458.266965 295.761845 
L 459.1891 295.91472 
L 460.111236 293.955147 
L 461.033371 294.663929 
L 461.955506 296.276059 
L 462.877641 294.941882 
L 463.799776 296.790273 
L 464.721911 294.927985 
L 466.566182 295.678459 
L 467.488317 296.470627 
L 468.410452 296.845864 
L 469.332587 297.957678 
L 470.254723 297.276692 
L 471.176858 297.207203 
L 472.098993 297.485157 
L 473.943263 298.555278 
L 474.865398 298.763743 
L 475.787534 298.763743 
L 476.709669 299.291855 
L 477.631804 298.72205 
L 478.553939 299.889455 
L 479.476074 299.528115 
L 480.39821 298.819334 
L 481.320345 299.069492 
L 483.164615 298.555278 
L 484.08675 297.985473 
L 485.008885 297.777008 
L 486.853156 297.721417 
L 487.775291 297.568543 
L 489.619561 297.902087 
L 490.541697 298.068859 
L 491.463832 297.88819 
L 492.385967 298.12445 
L 494.230237 298.138348 
L 495.152372 298.235631 
L 496.074508 298.207836 
L 496.996643 298.569176 
L 497.918778 298.444097 
L 498.840913 298.652562 
L 499.763048 299.291855 
L 501.607319 299.806069 
L 504.373724 300.139613 
L 505.295859 300.473157 
L 507.14013 300.667725 
L 508.062265 300.181306 
L 508.9844 300.209101 
L 509.906535 300.487055 
L 510.82867 299.958943 
L 511.750806 300.375874 
L 512.672941 300.000636 
L 513.595076 299.792171 
L 514.517211 299.972841 
L 515.439346 299.569808 
L 516.361482 299.542013 
L 517.283617 299.889455 
L 518.205752 299.945046 
L 521.894293 299.653194 
L 522.816428 300.014534 
L 525.582833 300.27859 
L 526.504969 300.222999 
L 529.271374 301.015167 
L 530.193509 300.931781 
L 532.03778 301.154143 
L 532.959915 300.959576 
L 532.959915 300.959576 
" clip-path="url(#p52ff11664d)" style="fill: none; stroke: #dd8452; stroke-width: 1.5; stroke-linecap: round"/>
    <defs>
     <path id="m92acce32c0" d="M -3 3 
L 3 3 
L 3 -3 
L -3 -3 
z
" style="stroke: #dd8452; stroke-linejoin: miter"/>
    </defs>
    <g clip-path="url(#p52ff11664d)">
     <use xlink:href="#m92acce32c0" x="72.81446" y="293.802273" style="fill: #dd8452; stroke: #dd8452; stroke-linejoin: miter"/>
     <use xlink:href="#m92acce32c0" x="87.568623" y="237.627867" style="fill: #dd8452; stroke: #dd8452; stroke-linejoin: miter"/>
     <use xlink:href="#m92acce32c0" x="102.322786" y="239.573542" style="fill: #dd8452; stroke: #dd8452; stroke-linejoin: miter"/>
     <use xlink:href="#m92acce32c0" x="117.076949" y="237.905821" style="fill: #dd8452; stroke: #dd8452; stroke-linejoin: miter"/>
     <use xlink:href="#m92acce32c0" x="131.831112" y="249.357506" style="fill: #dd8452; stroke: #dd8452; stroke-linejoin: miter"/>
     <use xlink:href="#m92acce32c0" x="146.585275" y="246.772538" style="fill: #dd8452; stroke: #dd8452; stroke-linejoin: miter"/>
     <use xlink:href="#m92acce32c0" x="161.339437" y="261.337302" style="fill: #dd8452; stroke: #dd8452; stroke-linejoin: miter"/>
     <use xlink:href="#m92acce32c0" x="176.0936" y="253.512911" style="fill: #dd8452; stroke: #dd8452; stroke-linejoin: miter"/>
     <use xlink:href="#m92acce32c0" x="190.847763" y="271.162959" style="fill: #dd8452; stroke: #dd8452; stroke-linejoin: miter"/>
     <use xlink:href="#m92acce32c0" x="205.601926" y="259.141469" style="fill: #dd8452; stroke: #dd8452; stroke-linejoin: miter"/>
     <use xlink:href="#m92acce32c0" x="220.356089" y="276.861006" style="fill: #dd8452; stroke: #dd8452; stroke-linejoin: miter"/>
     <use xlink:href="#m92acce32c0" x="235.110252" y="265.200856" style="fill: #dd8452; stroke: #dd8452; stroke-linejoin: miter"/>
     <use xlink:href="#m92acce32c0" x="249.864415" y="279.195816" style="fill: #dd8452; stroke: #dd8452; stroke-linejoin: miter"/>
     <use xlink:href="#m92acce32c0" x="264.618578" y="270.190122" style="fill: #dd8452; stroke: #dd8452; stroke-linejoin: miter"/>
     <use xlink:href="#m92acce32c0" x="279.37274" y="280.627276" style="fill: #dd8452; stroke: #dd8452; stroke-linejoin: miter"/>
     <use xlink:href="#m92acce32c0" x="294.126903" y="275.554625" style="fill: #dd8452; stroke: #dd8452; stroke-linejoin: miter"/>
     <use xlink:href="#m92acce32c0" x="308.881066" y="283.573584" style="fill: #dd8452; stroke: #dd8452; stroke-linejoin: miter"/>
     <use xlink:href="#m92acce32c0" x="323.635229" y="280.529993" style="fill: #dd8452; stroke: #dd8452; stroke-linejoin: miter"/>
     <use xlink:href="#m92acce32c0" x="338.389392" y="285.852802" style="fill: #dd8452; stroke: #dd8452; stroke-linejoin: miter"/>
     <use xlink:href="#m92acce32c0" x="353.143555" y="284.379649" style="fill: #dd8452; stroke: #dd8452; stroke-linejoin: miter"/>
     <use xlink:href="#m92acce32c0" x="367.897718" y="288.590644" style="fill: #dd8452; stroke: #dd8452; stroke-linejoin: miter"/>
     <use xlink:href="#m92acce32c0" x="382.651881" y="288.687928" style="fill: #dd8452; stroke: #dd8452; stroke-linejoin: miter"/>
     <use xlink:href="#m92acce32c0" x="397.406043" y="291.258998" style="fill: #dd8452; stroke: #dd8452; stroke-linejoin: miter"/>
     <use xlink:href="#m92acce32c0" x="412.160206" y="292.009473" style="fill: #dd8452; stroke: #dd8452; stroke-linejoin: miter"/>
     <use xlink:href="#m92acce32c0" x="426.914369" y="293.691092" style="fill: #dd8452; stroke: #dd8452; stroke-linejoin: miter"/>
     <use xlink:href="#m92acce32c0" x="441.668532" y="295.011371" style="fill: #dd8452; stroke: #dd8452; stroke-linejoin: miter"/>
     <use xlink:href="#m92acce32c0" x="456.422695" y="295.205938" style="fill: #dd8452; stroke: #dd8452; stroke-linejoin: miter"/>
     <use xlink:href="#m92acce32c0" x="471.176858" y="297.207203" style="fill: #dd8452; stroke: #dd8452; stroke-linejoin: miter"/>
     <use xlink:href="#m92acce32c0" x="485.931021" y="297.749213" style="fill: #dd8452; stroke: #dd8452; stroke-linejoin: miter"/>
     <use xlink:href="#m92acce32c0" x="500.685183" y="299.583706" style="fill: #dd8452; stroke: #dd8452; stroke-linejoin: miter"/>
     <use xlink:href="#m92acce32c0" x="515.439346" y="299.569808" style="fill: #dd8452; stroke: #dd8452; stroke-linejoin: miter"/>
     <use xlink:href="#m92acce32c0" x="530.193509" y="300.931781" style="fill: #dd8452; stroke: #dd8452; stroke-linejoin: miter"/>
    </g>
   </g>
   <g id="line2d_15">
    <path d="M 72.81446 303.058125 
L 532.959915 303.058125 
L 532.959915 303.058125 
" clip-path="url(#p52ff11664d)" style="fill: none; stroke: #8172b3; stroke-width: 1.5; stroke-linecap: round"/>
    <defs>
     <path id="m17f4adea70" d="M -0 3 
L 3 -3 
L -3 -3 
z
" style="stroke: #8172b3; stroke-linejoin: miter"/>
    </defs>
    <g clip-path="url(#p52ff11664d)">
     <use xlink:href="#m17f4adea70" x="72.81446" y="303.058125" style="fill: #8172b3; stroke: #8172b3; stroke-linejoin: miter"/>
     <use xlink:href="#m17f4adea70" x="87.568623" y="303.058125" style="fill: #8172b3; stroke: #8172b3; stroke-linejoin: miter"/>
     <use xlink:href="#m17f4adea70" x="102.322786" y="303.058125" style="fill: #8172b3; stroke: #8172b3; stroke-linejoin: miter"/>
     <use xlink:href="#m17f4adea70" x="117.076949" y="303.058125" style="fill: #8172b3; stroke: #8172b3; stroke-linejoin: miter"/>
     <use xlink:href="#m17f4adea70" x="131.831112" y="303.058125" style="fill: #8172b3; stroke: #8172b3; stroke-linejoin: miter"/>
     <use xlink:href="#m17f4adea70" x="146.585275" y="303.058125" style="fill: #8172b3; stroke: #8172b3; stroke-linejoin: miter"/>
     <use xlink:href="#m17f4adea70" x="161.339437" y="303.058125" style="fill: #8172b3; stroke: #8172b3; stroke-linejoin: miter"/>
     <use xlink:href="#m17f4adea70" x="176.0936" y="303.058125" style="fill: #8172b3; stroke: #8172b3; stroke-linejoin: miter"/>
     <use xlink:href="#m17f4adea70" x="190.847763" y="303.058125" style="fill: #8172b3; stroke: #8172b3; stroke-linejoin: miter"/>
     <use xlink:href="#m17f4adea70" x="205.601926" y="303.058125" style="fill: #8172b3; stroke: #8172b3; stroke-linejoin: miter"/>
     <use xlink:href="#m17f4adea70" x="220.356089" y="303.058125" style="fill: #8172b3; stroke: #8172b3; stroke-linejoin: miter"/>
     <use xlink:href="#m17f4adea70" x="235.110252" y="303.058125" style="fill: #8172b3; stroke: #8172b3; stroke-linejoin: miter"/>
     <use xlink:href="#m17f4adea70" x="249.864415" y="303.058125" style="fill: #8172b3; stroke: #8172b3; stroke-linejoin: miter"/>
     <use xlink:href="#m17f4adea70" x="264.618578" y="303.058125" style="fill: #8172b3; stroke: #8172b3; stroke-linejoin: miter"/>
     <use xlink:href="#m17f4adea70" x="279.37274" y="303.058125" style="fill: #8172b3; stroke: #8172b3; stroke-linejoin: miter"/>
     <use xlink:href="#m17f4adea70" x="294.126903" y="303.058125" style="fill: #8172b3; stroke: #8172b3; stroke-linejoin: miter"/>
     <use xlink:href="#m17f4adea70" x="308.881066" y="303.058125" style="fill: #8172b3; stroke: #8172b3; stroke-linejoin: miter"/>
     <use xlink:href="#m17f4adea70" x="323.635229" y="303.058125" style="fill: #8172b3; stroke: #8172b3; stroke-linejoin: miter"/>
     <use xlink:href="#m17f4adea70" x="338.389392" y="303.058125" style="fill: #8172b3; stroke: #8172b3; stroke-linejoin: miter"/>
     <use xlink:href="#m17f4adea70" x="353.143555" y="303.058125" style="fill: #8172b3; stroke: #8172b3; stroke-linejoin: miter"/>
     <use xlink:href="#m17f4adea70" x="367.897718" y="303.058125" style="fill: #8172b3; stroke: #8172b3; stroke-linejoin: miter"/>
     <use xlink:href="#m17f4adea70" x="382.651881" y="303.058125" style="fill: #8172b3; stroke: #8172b3; stroke-linejoin: miter"/>
     <use xlink:href="#m17f4adea70" x="397.406043" y="303.058125" style="fill: #8172b3; stroke: #8172b3; stroke-linejoin: miter"/>
     <use xlink:href="#m17f4adea70" x="412.160206" y="303.058125" style="fill: #8172b3; stroke: #8172b3; stroke-linejoin: miter"/>
     <use xlink:href="#m17f4adea70" x="426.914369" y="303.058125" style="fill: #8172b3; stroke: #8172b3; stroke-linejoin: miter"/>
     <use xlink:href="#m17f4adea70" x="441.668532" y="303.058125" style="fill: #8172b3; stroke: #8172b3; stroke-linejoin: miter"/>
     <use xlink:href="#m17f4adea70" x="456.422695" y="303.058125" style="fill: #8172b3; stroke: #8172b3; stroke-linejoin: miter"/>
     <use xlink:href="#m17f4adea70" x="471.176858" y="303.058125" style="fill: #8172b3; stroke: #8172b3; stroke-linejoin: miter"/>
     <use xlink:href="#m17f4adea70" x="485.931021" y="303.058125" style="fill: #8172b3; stroke: #8172b3; stroke-linejoin: miter"/>
     <use xlink:href="#m17f4adea70" x="500.685183" y="303.058125" style="fill: #8172b3; stroke: #8172b3; stroke-linejoin: miter"/>
     <use xlink:href="#m17f4adea70" x="515.439346" y="303.058125" style="fill: #8172b3; stroke: #8172b3; stroke-linejoin: miter"/>
     <use xlink:href="#m17f4adea70" x="530.193509" y="303.058125" style="fill: #8172b3; stroke: #8172b3; stroke-linejoin: miter"/>
    </g>
   </g>
   <g id="line2d_16">
    <path d="M 72.81446 283.967805 
L 73.736595 266.000445 
L 74.658731 243.541245 
L 75.580866 235.680525 
L 76.503001 226.135365 
L 77.425136 221.082045 
L 78.347271 211.536885 
L 79.269406 209.290965 
L 80.191542 208.168005 
L 81.113677 209.852445 
L 82.035812 200.307285 
L 82.957947 198.061365 
L 83.880082 204.237645 
L 84.802218 196.938405 
L 85.724353 191.885085 
L 86.646488 185.147325 
L 87.568623 188.516205 
L 88.490758 185.147325 
L 89.412893 191.323605 
L 90.335029 189.639165 
L 91.257164 190.762125 
L 92.179299 190.762125 
L 93.101434 192.446565 
L 94.023569 199.184325 
L 94.945705 201.430245 
L 95.86784 206.483565 
L 96.789975 206.483565 
L 97.71211 210.975405 
L 98.634245 217.151685 
L 99.55638 227.819805 
L 100.478516 228.381285 
L 101.400651 231.188685 
L 102.322786 235.119045 
L 103.244921 227.819805 
L 104.167056 229.504245 
L 105.089192 228.381285 
L 106.011327 225.573885 
L 106.933462 223.327965 
L 107.855597 214.905765 
L 108.777732 214.344285 
L 109.699867 218.836125 
L 110.622003 213.782805 
L 111.544138 203.676165 
L 112.466273 204.799125 
L 113.388408 209.852445 
L 114.310543 211.536885 
L 115.232678 215.467245 
L 116.154814 211.536885 
L 117.076949 210.413925 
L 117.999084 210.413925 
L 118.921219 225.012405 
L 119.843354 232.873125 
L 120.76549 227.258325 
L 121.687625 229.504245 
L 122.60976 239.049405 
L 123.531895 241.856805 
L 124.45403 246.910125 
L 125.376165 250.840485 
L 126.298301 258.701205 
L 128.142571 264.316005 
L 129.064706 269.369325 
L 129.986841 270.492285 
L 130.908977 273.299685 
L 132.753247 271.053765 
L 133.675382 263.193045 
L 134.597517 259.824165 
L 135.519652 260.385645 
L 136.441788 258.139725 
L 137.363923 253.647885 
L 138.286058 245.225685 
L 139.208193 243.541245 
L 140.130328 248.594565 
L 141.974599 245.225685 
L 142.896734 246.910125 
L 143.818869 241.856805 
L 144.741004 242.979765 
L 145.663139 241.295325 
L 146.585275 242.979765 
L 147.50741 244.102725 
L 148.429545 250.279005 
L 149.35168 255.332325 
L 150.273815 257.016765 
L 151.19595 258.139725 
L 152.118086 268.807845 
L 153.040221 276.668565 
L 153.962356 282.844845 
L 154.884491 282.844845 
L 155.806626 281.160405 
L 156.728762 280.598925 
L 157.650897 283.967805 
L 158.573032 286.775205 
L 159.495167 282.844845 
L 160.417302 283.967805 
L 161.339437 286.213725 
L 162.261573 287.336685 
L 163.183708 283.967805 
L 164.105843 276.107085 
L 165.027978 276.107085 
L 165.950113 275.545605 
L 166.872249 270.492285 
L 167.794384 267.123405 
L 168.716519 266.561925 
L 170.560789 264.316005 
L 171.482924 260.385645 
L 172.40506 262.070085 
L 173.327195 261.508605 
L 174.24933 266.000445 
L 175.171465 269.369325 
L 176.0936 268.807845 
L 177.015736 273.299685 
L 177.937871 276.107085 
L 178.860006 281.160405 
L 179.782141 281.721885 
L 180.704276 278.914485 
L 181.626411 278.353005 
L 182.548547 282.844845 
L 183.470682 285.652245 
L 184.392817 293.512965 
L 185.314952 294.074445 
L 186.237087 294.074445 
L 187.159222 296.881845 
L 188.081358 296.881845 
L 189.003493 295.197405 
L 189.925628 292.390005 
L 191.769898 290.144085 
L 192.692034 288.459645 
L 193.614169 286.213725 
L 194.536304 287.336685 
L 195.458439 283.967805 
L 196.380574 284.529285 
L 197.302709 284.529285 
L 198.224845 282.283365 
L 199.14698 274.422645 
L 200.069115 277.791525 
L 200.99125 282.283365 
L 201.913385 278.914485 
L 202.835521 280.037445 
L 203.757656 273.299685 
L 204.679791 276.107085 
L 205.601926 274.984125 
L 206.524061 279.475965 
L 207.446196 276.107085 
L 208.368332 283.967805 
L 209.290467 289.582605 
L 210.212602 289.582605 
L 211.134737 292.390005 
L 212.056872 292.390005 
L 212.979008 296.320365 
L 213.901143 299.127765 
L 214.823278 299.127765 
L 215.745413 300.812205 
L 216.667548 300.812205 
L 217.589683 298.566285 
L 218.511819 300.250725 
L 219.433954 300.250725 
L 221.278224 294.635925 
L 222.200359 295.758885 
L 223.122494 294.074445 
L 224.04463 290.144085 
L 224.966765 289.021125 
L 225.8889 286.775205 
L 226.811035 283.406325 
L 227.73317 285.652245 
L 228.655306 282.283365 
L 229.577441 281.160405 
L 230.499576 277.791525 
L 231.421711 278.914485 
L 232.343846 281.721885 
L 233.265981 285.652245 
L 235.110252 287.898165 
L 236.032387 290.705565 
L 236.954522 292.951485 
L 237.876657 296.320365 
L 238.798793 296.320365 
L 239.720928 297.443325 
L 240.643063 298.004805 
L 241.565198 294.074445 
L 242.487333 296.881845 
L 244.331604 301.373685 
L 245.253739 300.812205 
L 246.175874 300.812205 
L 247.098009 301.373685 
L 248.020144 300.250725 
L 248.94228 300.250725 
L 249.864415 299.689245 
L 250.78655 300.250725 
L 251.708685 297.443325 
L 252.63082 294.074445 
L 253.552955 293.512965 
L 256.319361 286.775205 
L 257.241496 289.021125 
L 258.163631 289.021125 
L 259.085766 290.705565 
L 260.007902 290.705565 
L 261.852172 294.074445 
L 263.696442 295.197405 
L 264.618578 295.197405 
L 265.540713 291.828525 
L 266.462848 291.267045 
L 267.384983 291.828525 
L 268.307118 295.758885 
L 269.229253 296.881845 
L 271.073524 301.373685 
L 271.995659 302.496645 
L 272.917794 301.935165 
L 274.762065 303.058125 
L 275.6842 302.496645 
L 276.606335 300.812205 
L 277.52847 300.250725 
L 278.450605 301.935165 
L 279.37274 301.373685 
L 280.294876 296.881845 
L 281.217011 295.758885 
L 283.061281 296.881845 
L 283.983416 294.635925 
L 284.905552 296.320365 
L 286.749822 292.951485 
L 287.671957 295.758885 
L 289.516227 295.758885 
L 290.438363 294.074445 
L 291.360498 295.758885 
L 292.282633 295.197405 
L 293.204768 295.758885 
L 294.126903 294.074445 
L 295.049038 294.635925 
L 295.971174 296.881845 
L 296.893309 298.566285 
L 297.815444 299.127765 
L 298.737579 300.250725 
L 299.659714 302.496645 
L 300.58185 302.496645 
L 301.503985 301.935165 
L 303.348255 303.058125 
L 304.27039 302.496645 
L 305.192525 303.058125 
L 306.114661 301.373685 
L 307.036796 300.812205 
L 307.958931 302.496645 
L 308.881066 302.496645 
L 309.803201 300.812205 
L 310.725337 300.812205 
L 311.647472 301.373685 
L 312.569607 297.443325 
L 313.491742 294.635925 
L 314.413877 295.197405 
L 315.336012 296.881845 
L 316.258148 295.197405 
L 317.180283 295.197405 
L 318.102418 297.443325 
L 319.024553 295.758885 
L 319.946688 296.320365 
L 320.868823 300.250725 
L 321.790959 300.812205 
L 322.713094 300.250725 
L 324.557364 300.250725 
L 326.401635 299.127765 
L 327.32377 299.127765 
L 328.245905 300.812205 
L 329.16804 300.812205 
L 330.090175 302.496645 
L 331.01231 303.058125 
L 333.778716 303.058125 
L 334.700851 302.496645 
L 336.545122 302.496645 
L 337.467257 301.935165 
L 338.389392 301.935165 
L 339.311527 299.689245 
L 340.233662 300.250725 
L 341.155797 299.127765 
L 342.077933 300.250725 
L 343.000068 298.004805 
L 343.922203 298.566285 
L 344.844338 298.566285 
L 345.766473 300.250725 
L 346.688609 300.250725 
L 347.610744 296.881845 
L 348.532879 299.689245 
L 349.455014 300.812205 
L 351.299284 298.566285 
L 352.22142 299.127765 
L 353.143555 301.373685 
L 354.06569 301.373685 
L 354.987825 300.812205 
L 355.90996 301.935165 
L 357.754231 303.058125 
L 363.287042 303.058125 
L 364.209177 301.935165 
L 365.131312 302.496645 
L 366.053447 301.935165 
L 366.975582 302.496645 
L 367.897718 301.935165 
L 368.819853 300.250725 
L 370.664123 301.373685 
L 371.586258 300.812205 
L 373.430529 300.812205 
L 376.196934 299.127765 
L 377.119069 300.812205 
L 378.96334 301.935165 
L 379.885475 301.373685 
L 380.80761 299.689245 
L 381.729745 299.689245 
L 382.651881 301.373685 
L 383.574016 302.496645 
L 384.496151 303.058125 
L 385.418286 302.496645 
L 386.340421 302.496645 
L 387.262556 303.058125 
L 392.795367 303.058125 
L 394.639638 301.935165 
L 396.483908 303.058125 
L 397.406043 302.496645 
L 398.328179 302.496645 
L 399.250314 301.935165 
L 401.094584 301.935165 
L 402.016719 301.373685 
L 402.938854 301.373685 
L 403.86099 300.812205 
L 405.70526 300.812205 
L 406.627395 301.373685 
L 407.54953 300.250725 
L 408.471666 301.373685 
L 411.238071 301.373685 
L 412.160206 303.058125 
L 424.147964 303.058125 
L 425.070099 302.496645 
L 425.992234 303.058125 
L 426.914369 303.058125 
L 428.758639 301.935165 
L 429.680775 300.812205 
L 430.60291 300.250725 
L 431.525045 301.373685 
L 433.369315 301.373685 
L 435.213586 302.496645 
L 436.135721 302.496645 
L 437.057856 303.058125 
L 437.979991 303.058125 
L 438.902126 302.496645 
L 439.824262 302.496645 
L 440.746397 303.058125 
L 442.590667 303.058125 
L 443.512802 302.496645 
L 446.279208 302.496645 
L 447.201343 303.058125 
L 456.422695 303.058125 
L 458.266965 300.812205 
L 459.1891 301.373685 
L 460.111236 303.058125 
L 461.955506 303.058125 
L 462.877641 302.496645 
L 463.799776 303.058125 
L 464.721911 303.058125 
L 467.488317 301.373685 
L 468.410452 301.935165 
L 469.332587 303.058125 
L 470.254723 301.935165 
L 472.098993 301.935165 
L 473.943263 303.058125 
L 483.164615 303.058125 
L 484.08675 302.496645 
L 485.008885 302.496645 
L 485.931021 303.058125 
L 486.853156 301.935165 
L 487.775291 302.496645 
L 488.697426 302.496645 
L 489.619561 303.058125 
L 490.541697 302.496645 
L 491.463832 302.496645 
L 492.385967 303.058125 
L 494.230237 303.058125 
L 496.074508 301.935165 
L 496.996643 302.496645 
L 497.918778 302.496645 
L 498.840913 303.058125 
L 514.517211 303.058125 
L 515.439346 302.496645 
L 516.361482 303.058125 
L 520.050022 303.058125 
L 520.972157 302.496645 
L 521.894293 303.058125 
L 522.816428 303.058125 
L 524.660698 301.935165 
L 525.582833 303.058125 
L 532.959915 303.058125 
L 532.959915 303.058125 
" clip-path="url(#p52ff11664d)" style="fill: none; stroke: #55a868; stroke-width: 1.5; stroke-linecap: round"/>
    <defs>
     <path id="me78b15212f" d="M 0 -3 
L -3 3 
L 3 3 
z
" style="stroke: #55a868; stroke-linejoin: miter"/>
    </defs>
    <g clip-path="url(#p52ff11664d)">
     <use xlink:href="#me78b15212f" x="72.81446" y="283.967805" style="fill: #55a868; stroke: #55a868; stroke-linejoin: miter"/>
     <use xlink:href="#me78b15212f" x="87.568623" y="188.516205" style="fill: #55a868; stroke: #55a868; stroke-linejoin: miter"/>
     <use xlink:href="#me78b15212f" x="102.322786" y="235.119045" style="fill: #55a868; stroke: #55a868; stroke-linejoin: miter"/>
     <use xlink:href="#me78b15212f" x="117.076949" y="210.413925" style="fill: #55a868; stroke: #55a868; stroke-linejoin: miter"/>
     <use xlink:href="#me78b15212f" x="131.831112" y="272.176725" style="fill: #55a868; stroke: #55a868; stroke-linejoin: miter"/>
     <use xlink:href="#me78b15212f" x="146.585275" y="242.979765" style="fill: #55a868; stroke: #55a868; stroke-linejoin: miter"/>
     <use xlink:href="#me78b15212f" x="161.339437" y="286.213725" style="fill: #55a868; stroke: #55a868; stroke-linejoin: miter"/>
     <use xlink:href="#me78b15212f" x="176.0936" y="268.807845" style="fill: #55a868; stroke: #55a868; stroke-linejoin: miter"/>
     <use xlink:href="#me78b15212f" x="190.847763" y="291.267045" style="fill: #55a868; stroke: #55a868; stroke-linejoin: miter"/>
     <use xlink:href="#me78b15212f" x="205.601926" y="274.984125" style="fill: #55a868; stroke: #55a868; stroke-linejoin: miter"/>
     <use xlink:href="#me78b15212f" x="220.356089" y="297.443325" style="fill: #55a868; stroke: #55a868; stroke-linejoin: miter"/>
     <use xlink:href="#me78b15212f" x="235.110252" y="287.898165" style="fill: #55a868; stroke: #55a868; stroke-linejoin: miter"/>
     <use xlink:href="#me78b15212f" x="249.864415" y="299.689245" style="fill: #55a868; stroke: #55a868; stroke-linejoin: miter"/>
     <use xlink:href="#me78b15212f" x="264.618578" y="295.197405" style="fill: #55a868; stroke: #55a868; stroke-linejoin: miter"/>
     <use xlink:href="#me78b15212f" x="279.37274" y="301.373685" style="fill: #55a868; stroke: #55a868; stroke-linejoin: miter"/>
     <use xlink:href="#me78b15212f" x="294.126903" y="294.074445" style="fill: #55a868; stroke: #55a868; stroke-linejoin: miter"/>
     <use xlink:href="#me78b15212f" x="308.881066" y="302.496645" style="fill: #55a868; stroke: #55a868; stroke-linejoin: miter"/>
     <use xlink:href="#me78b15212f" x="323.635229" y="300.250725" style="fill: #55a868; stroke: #55a868; stroke-linejoin: miter"/>
     <use xlink:href="#me78b15212f" x="338.389392" y="301.935165" style="fill: #55a868; stroke: #55a868; stroke-linejoin: miter"/>
     <use xlink:href="#me78b15212f" x="353.143555" y="301.373685" style="fill: #55a868; stroke: #55a868; stroke-linejoin: miter"/>
     <use xlink:href="#me78b15212f" x="367.897718" y="301.935165" style="fill: #55a868; stroke: #55a868; stroke-linejoin: miter"/>
     <use xlink:href="#me78b15212f" x="382.651881" y="301.373685" style="fill: #55a868; stroke: #55a868; stroke-linejoin: miter"/>
     <use xlink:href="#me78b15212f" x="397.406043" y="302.496645" style="fill: #55a868; stroke: #55a868; stroke-linejoin: miter"/>
     <use xlink:href="#me78b15212f" x="412.160206" y="303.058125" style="fill: #55a868; stroke: #55a868; stroke-linejoin: miter"/>
     <use xlink:href="#me78b15212f" x="426.914369" y="303.058125" style="fill: #55a868; stroke: #55a868; stroke-linejoin: miter"/>
     <use xlink:href="#me78b15212f" x="441.668532" y="303.058125" style="fill: #55a868; stroke: #55a868; stroke-linejoin: miter"/>
     <use xlink:href="#me78b15212f" x="456.422695" y="303.058125" style="fill: #55a868; stroke: #55a868; stroke-linejoin: miter"/>
     <use xlink:href="#me78b15212f" x="471.176858" y="301.935165" style="fill: #55a868; stroke: #55a868; stroke-linejoin: miter"/>
     <use xlink:href="#me78b15212f" x="485.931021" y="303.058125" style="fill: #55a868; stroke: #55a868; stroke-linejoin: miter"/>
     <use xlink:href="#me78b15212f" x="500.685183" y="303.058125" style="fill: #55a868; stroke: #55a868; stroke-linejoin: miter"/>
     <use xlink:href="#me78b15212f" x="515.439346" y="302.496645" style="fill: #55a868; stroke: #55a868; stroke-linejoin: miter"/>
     <use xlink:href="#me78b15212f" x="530.193509" y="303.058125" style="fill: #55a868; stroke: #55a868; stroke-linejoin: miter"/>
    </g>
   </g>
   <g id="line2d_17">
    <path d="M 49.807188 303.058125 
L 555.967187 303.058125 
" clip-path="url(#p52ff11664d)" style="fill: none; stroke-dasharray: 3.7,1.6; stroke-dashoffset: 0; stroke: #808080; stroke-opacity: 0.5"/>
   </g>
   <g id="line2d_18">
    <path d="M 49.807188 22.318125 
L 555.967187 22.318125 
" clip-path="url(#p52ff11664d)" style="fill: none; stroke-dasharray: 3.7,1.6; stroke-dashoffset: 0; stroke: #808080; stroke-opacity: 0.5"/>
   </g>
   <g id="patch_3">
    <path d="M 49.807188 303.058125 
L 49.807188 22.318125 
" style="fill: none; stroke: #cccccc; stroke-width: 1.25; stroke-linejoin: miter; stroke-linecap: square"/>
   </g>
   <g id="patch_4">
    <path d="M 555.967187 303.058125 
L 555.967187 22.318125 
" style="fill: none; stroke: #cccccc; stroke-width: 1.25; stroke-linejoin: miter; stroke-linecap: square"/>
   </g>
   <g id="patch_5">
    <path d="M 49.807188 303.058125 
L 555.967187 303.058125 
" style="fill: none; stroke: #cccccc; stroke-width: 1.25; stroke-linejoin: miter; stroke-linecap: square"/>
   </g>
   <g id="patch_6">
    <path d="M 49.807188 22.318125 
L 555.967187 22.318125 
" style="fill: none; stroke: #cccccc; stroke-width: 1.25; stroke-linejoin: miter; stroke-linecap: square"/>
   </g>
   <g id="text_15">
    <!-- Robustness of SQL violation: fraction of parameter space below SQL -->
    <g style="fill: #262626" transform="translate(98.183125 16.318125) scale(0.12 -0.12)">
     <defs>
      <path id="DejaVuSans-52" d="M 2841 2188 
Q 3044 2119 3236 1894 
Q 3428 1669 3622 1275 
L 4263 0 
L 3584 0 
L 2988 1197 
Q 2756 1666 2539 1819 
Q 2322 1972 1947 1972 
L 1259 1972 
L 1259 0 
L 628 0 
L 628 4666 
L 2053 4666 
Q 2853 4666 3247 4331 
Q 3641 3997 3641 3322 
Q 3641 2881 3436 2590 
Q 3231 2300 2841 2188 
z
M 1259 4147 
L 1259 2491 
L 2053 2491 
Q 2509 2491 2742 2702 
Q 2975 2913 2975 3322 
Q 2975 3731 2742 3939 
Q 2509 4147 2053 4147 
L 1259 4147 
z
" transform="scale(0.015625)"/>
      <path id="DejaVuSans-75" d="M 544 1381 
L 544 3500 
L 1119 3500 
L 1119 1403 
Q 1119 906 1312 657 
Q 1506 409 1894 409 
Q 2359 409 2629 706 
Q 2900 1003 2900 1516 
L 2900 3500 
L 3475 3500 
L 3475 0 
L 2900 0 
L 2900 538 
Q 2691 219 2414 64 
Q 2138 -91 1772 -91 
Q 1169 -91 856 284 
Q 544 659 544 1381 
z
M 1991 3584 
L 1991 3584 
z
" transform="scale(0.015625)"/>
      <path id="DejaVuSans-73" d="M 2834 3397 
L 2834 2853 
Q 2591 2978 2328 3040 
Q 2066 3103 1784 3103 
Q 1356 3103 1142 2972 
Q 928 2841 928 2578 
Q 928 2378 1081 2264 
Q 1234 2150 1697 2047 
L 1894 2003 
Q 2506 1872 2764 1633 
Q 3022 1394 3022 966 
Q 3022 478 2636 193 
Q 2250 -91 1575 -91 
Q 1294 -91 989 -36 
Q 684 19 347 128 
L 347 722 
Q 666 556 975 473 
Q 1284 391 1588 391 
Q 1994 391 2212 530 
Q 2431 669 2431 922 
Q 2431 1156 2273 1281 
Q 2116 1406 1581 1522 
L 1381 1569 
Q 847 1681 609 1914 
Q 372 2147 372 2553 
Q 372 3047 722 3315 
Q 1072 3584 1716 3584 
Q 2034 3584 2315 3537 
Q 2597 3491 2834 3397 
z
" transform="scale(0.015625)"/>
      <path id="DejaVuSans-66" d="M 2375 4863 
L 2375 4384 
L 1825 4384 
Q 1516 4384 1395 4259 
Q 1275 4134 1275 3809 
L 1275 3500 
L 2222 3500 
L 2222 3053 
L 1275 3053 
L 1275 0 
L 697 0 
L 697 3053 
L 147 3053 
L 147 3500 
L 697 3500 
L 697 3744 
Q 697 4328 969 4595 
Q 1241 4863 1831 4863 
L 2375 4863 
z
" transform="scale(0.015625)"/>
      <path id="DejaVuSans-76" d="M 191 3500 
L 800 3500 
L 1894 563 
L 2988 3500 
L 3597 3500 
L 2284 0 
L 1503 0 
L 191 3500 
z
" transform="scale(0.015625)"/>
      <path id="DejaVuSans-3a" d="M 750 794 
L 1409 794 
L 1409 0 
L 750 0 
L 750 794 
z
M 750 3309 
L 1409 3309 
L 1409 2516 
L 750 2516 
L 750 3309 
z
" transform="scale(0.015625)"/>
      <path id="DejaVuSans-70" d="M 1159 525 
L 1159 -1331 
L 581 -1331 
L 581 3500 
L 1159 3500 
L 1159 2969 
Q 1341 3281 1617 3432 
Q 1894 3584 2278 3584 
Q 2916 3584 3314 3078 
Q 3713 2572 3713 1747 
Q 3713 922 3314 415 
Q 2916 -91 2278 -91 
Q 1894 -91 1617 61 
Q 1341 213 1159 525 
z
M 3116 1747 
Q 3116 2381 2855 2742 
Q 2594 3103 2138 3103 
Q 1681 3103 1420 2742 
Q 1159 2381 1159 1747 
Q 1159 1113 1420 752 
Q 1681 391 2138 391 
Q 2594 391 2855 752 
Q 3116 1113 3116 1747 
z
" transform="scale(0.015625)"/>
      <path id="DejaVuSans-6d" d="M 3328 2828 
Q 3544 3216 3844 3400 
Q 4144 3584 4550 3584 
Q 5097 3584 5394 3201 
Q 5691 2819 5691 2113 
L 5691 0 
L 5113 0 
L 5113 2094 
Q 5113 2597 4934 2840 
Q 4756 3084 4391 3084 
Q 3944 3084 3684 2787 
Q 3425 2491 3425 1978 
L 3425 0 
L 2847 0 
L 2847 2094 
Q 2847 2600 2669 2842 
Q 2491 3084 2119 3084 
Q 1678 3084 1418 2786 
Q 1159 2488 1159 1978 
L 1159 0 
L 581 0 
L 581 3500 
L 1159 3500 
L 1159 2956 
Q 1356 3278 1631 3431 
Q 1906 3584 2284 3584 
Q 2666 3584 2933 3390 
Q 3200 3197 3328 2828 
z
" transform="scale(0.015625)"/>
     </defs>
     <use xlink:href="#DejaVuSans-52"/>
     <use xlink:href="#DejaVuSans-6f" transform="translate(64.982422 0)"/>
     <use xlink:href="#DejaVuSans-62" transform="translate(126.164062 0)"/>
     <use xlink:href="#DejaVuSans-75" transform="translate(189.640625 0)"/>
     <use xlink:href="#DejaVuSans-73" transform="translate(253.019531 0)"/>
     <use xlink:href="#DejaVuSans-74" transform="translate(305.119141 0)"/>
     <use xlink:href="#DejaVuSans-6e" transform="translate(344.328125 0)"/>
     <use xlink:href="#DejaVuSans-65" transform="translate(407.707031 0)"/>
     <use xlink:href="#DejaVuSans-73" transform="translate(469.230469 0)"/>
     <use xlink:href="#DejaVuSans-73" transform="translate(521.330078 0)"/>
     <use xlink:href="#DejaVuSans-20" transform="translate(573.429688 0)"/>
     <use xlink:href="#DejaVuSans-6f" transform="translate(605.216797 0)"/>
     <use xlink:href="#DejaVuSans-66" transform="translate(666.398438 0)"/>
     <use xlink:href="#DejaVuSans-20" transform="translate(701.603516 0)"/>
     <use xlink:href="#DejaVuSans-53" transform="translate(733.390625 0)"/>
     <use xlink:href="#DejaVuSans-51" transform="translate(796.867188 0)"/>
     <use xlink:href="#DejaVuSans-4c" transform="translate(875.578125 0)"/>
     <use xlink:href="#DejaVuSans-20" transform="translate(931.291016 0)"/>
     <use xlink:href="#DejaVuSans-76" transform="translate(963.078125 0)"/>
     <use xlink:href="#DejaVuSans-69" transform="translate(1022.257812 0)"/>
     <use xlink:href="#DejaVuSans-6f" transform="translate(1050.041016 0)"/>
     <use xlink:href="#DejaVuSans-6c" transform="translate(1111.222656 0)"/>
     <use xlink:href="#DejaVuSans-61" transform="translate(1139.005859 0)"/>
     <use xlink:href="#DejaVuSans-74" transform="translate(1200.285156 0)"/>
     <use xlink:href="#DejaVuSans-69" transform="translate(1239.494141 0)"/>
     <use xlink:href="#DejaVuSans-6f" transform="translate(1267.277344 0)"/>
     <use xlink:href="#DejaVuSans-6e" transform="translate(1328.458984 0)"/>
     <use xlink:href="#DejaVuSans-3a" transform="translate(1391.837891 0)"/>
     <use xlink:href="#DejaVuSans-20" transform="translate(1425.529297 0)"/>
     <use xlink:href="#DejaVuSans-66" transform="translate(1457.316406 0)"/>
     <use xlink:href="#DejaVuSans-72" transform="translate(1492.521484 0)"/>
     <use xlink:href="#DejaVuSans-61" transform="translate(1533.634766 0)"/>
     <use xlink:href="#DejaVuSans-63" transform="translate(1594.914062 0)"/>
     <use xlink:href="#DejaVuSans-74" transform="translate(1649.894531 0)"/>
     <use xlink:href="#DejaVuSans-69" transform="translate(1689.103516 0)"/>
     <use xlink:href="#DejaVuSans-6f" transform="translate(1716.886719 0)"/>
     <use xlink:href="#DejaVuSans-6e" transform="translate(1778.068359 0)"/>
     <use xlink:href="#DejaVuSans-20" transform="translate(1841.447266 0)"/>
     <use xlink:href="#DejaVuSans-6f" transform="translate(1873.234375 0)"/>
     <use xlink:href="#DejaVuSans-66" transform="translate(1934.416016 0)"/>
     <use xlink:href="#DejaVuSans-20" transform="translate(1969.621094 0)"/>
     <use xlink:href="#DejaVuSans-70" transform="translate(2001.408203 0)"/>
     <use xlink:href="#DejaVuSans-61" transform="translate(2064.884766 0)"/>
     <use xlink:href="#DejaVuSans-72" transform="translate(2126.164062 0)"/>
     <use xlink:href="#DejaVuSans-61" transform="translate(2167.277344 0)"/>
     <use xlink:href="#DejaVuSans-6d" transform="translate(2228.556641 0)"/>
     <use xlink:href="#DejaVuSans-65" transform="translate(2325.96875 0)"/>
     <use xlink:href="#DejaVuSans-74" transform="translate(2387.492188 0)"/>
     <use xlink:href="#DejaVuSans-65" transform="translate(2426.701172 0)"/>
     <use xlink:href="#DejaVuSans-72" transform="translate(2488.224609 0)"/>
     <use xlink:href="#DejaVuSans-20" transform="translate(2529.337891 0)"/>
     <use xlink:href="#DejaVuSans-73" transform="translate(2561.125 0)"/>
     <use xlink:href="#DejaVuSans-70" transform="translate(2613.224609 0)"/>
     <use xlink:href="#DejaVuSans-61" transform="translate(2676.701172 0)"/>
     <use xlink:href="#DejaVuSans-63" transform="translate(2737.980469 0)"/>
     <use xlink:href="#DejaVuSans-65" transform="translate(2792.960938 0)"/>
     <use xlink:href="#DejaVuSans-20" transform="translate(2854.484375 0)"/>
     <use xlink:href="#DejaVuSans-62" transform="translate(2886.271484 0)"/>
     <use xlink:href="#DejaVuSans-65" transform="translate(2949.748047 0)"/>
     <use xlink:href="#DejaVuSans-6c" transform="translate(3011.271484 0)"/>
     <use xlink:href="#DejaVuSans-6f" transform="translate(3039.054688 0)"/>
     <use xlink:href="#DejaVuSans-77" transform="translate(3100.236328 0)"/>
     <use xlink:href="#DejaVuSans-20" transform="translate(3182.023438 0)"/>
     <use xlink:href="#DejaVuSans-53" transform="translate(3213.810547 0)"/>
     <use xlink:href="#DejaVuSans-51" transform="translate(3277.287109 0)"/>
     <use xlink:href="#DejaVuSans-4c" transform="translate(3355.998047 0)"/>
    </g>
   </g>
   <g id="legend_1">
    <g id="patch_7">
     <path d="M 411.41 96.825937 
L 548.267187 96.825937 
Q 550.467187 96.825937 550.467187 94.625937 
L 550.467187 30.018125 
Q 550.467187 27.818125 548.267187 27.818125 
L 411.41 27.818125 
Q 409.21 27.818125 409.21 30.018125 
L 409.21 94.625937 
Q 409.21 96.825937 411.41 96.825937 
z
" style="fill: #ffffff; opacity: 0.8; stroke: #cccccc; stroke-linejoin: miter"/>
    </g>
    <g id="line2d_19">
     <path d="M 413.61 36.726406 
L 424.61 36.726406 
L 435.61 36.726406 
" style="fill: none; stroke: #4c72b0; stroke-width: 1.5; stroke-linecap: round"/>
     <g>
      <use xlink:href="#md8d2ef156f" x="424.61" y="36.726406" style="fill: #4c72b0; stroke: #4c72b0"/>
     </g>
    </g>
    <g id="text_16">
     <!-- 2D slice $(a_x, a_{zz})$ -->
     <g style="fill: #262626" transform="translate(444.41 40.576406) scale(0.11 -0.11)">
      <defs>
       <path id="DejaVuSans-44" d="M 1259 4147 
L 1259 519 
L 2022 519 
Q 2988 519 3436 956 
Q 3884 1394 3884 2338 
Q 3884 3275 3436 3711 
Q 2988 4147 2022 4147 
L 1259 4147 
z
M 628 4666 
L 1925 4666 
Q 3281 4666 3915 4102 
Q 4550 3538 4550 2338 
Q 4550 1131 3912 565 
Q 3275 0 1925 0 
L 628 0 
L 628 4666 
z
" transform="scale(0.015625)"/>
       <path id="DejaVuSans-28" d="M 1984 4856 
Q 1566 4138 1362 3434 
Q 1159 2731 1159 2009 
Q 1159 1288 1364 580 
Q 1569 -128 1984 -844 
L 1484 -844 
Q 1016 -109 783 600 
Q 550 1309 550 2009 
Q 550 2706 781 3412 
Q 1013 4119 1484 4856 
L 1984 4856 
z
" transform="scale(0.015625)"/>
       <path id="DejaVuSans-Oblique-61" d="M 3438 1997 
L 3047 0 
L 2472 0 
L 2578 531 
Q 2325 219 2001 64 
Q 1678 -91 1281 -91 
Q 834 -91 548 182 
Q 263 456 263 884 
Q 263 1497 752 1853 
Q 1241 2209 2100 2209 
L 2900 2209 
L 2931 2363 
Q 2938 2388 2941 2417 
Q 2944 2447 2944 2509 
Q 2944 2788 2717 2942 
Q 2491 3097 2081 3097 
Q 1800 3097 1504 3025 
Q 1209 2953 897 2809 
L 997 3341 
Q 1322 3463 1633 3523 
Q 1944 3584 2234 3584 
Q 2853 3584 3176 3315 
Q 3500 3047 3500 2534 
Q 3500 2431 3484 2292 
Q 3469 2153 3438 1997 
z
M 2816 1759 
L 2241 1759 
Q 1534 1759 1195 1570 
Q 856 1381 856 984 
Q 856 709 1029 553 
Q 1203 397 1509 397 
Q 1978 397 2328 733 
Q 2678 1069 2791 1631 
L 2816 1759 
z
" transform="scale(0.015625)"/>
       <path id="DejaVuSans-Oblique-78" d="M 3841 3500 
L 2234 1784 
L 3219 0 
L 2559 0 
L 1819 1388 
L 531 0 
L -166 0 
L 1556 1844 
L 641 3500 
L 1300 3500 
L 1972 2234 
L 3144 3500 
L 3841 3500 
z
" transform="scale(0.015625)"/>
       <path id="DejaVuSans-2c" d="M 750 794 
L 1409 794 
L 1409 256 
L 897 -744 
L 494 -744 
L 750 256 
L 750 794 
z
" transform="scale(0.015625)"/>
       <path id="DejaVuSans-Oblique-7a" d="M 744 3500 
L 3475 3500 
L 3372 2975 
L 738 459 
L 2913 459 
L 2822 0 
L -19 0 
L 84 525 
L 2719 3041 
L 653 3041 
L 744 3500 
z
" transform="scale(0.015625)"/>
       <path id="DejaVuSans-29" d="M 513 4856 
L 1013 4856 
Q 1481 4119 1714 3412 
Q 1947 2706 1947 2009 
Q 1947 1309 1714 600 
Q 1481 -109 1013 -844 
L 513 -844 
Q 928 -128 1133 580 
Q 1338 1288 1338 2009 
Q 1338 2731 1133 3434 
Q 928 4138 513 4856 
z
" transform="scale(0.015625)"/>
      </defs>
      <use xlink:href="#DejaVuSans-32" transform="translate(0 0.015625)"/>
      <use xlink:href="#DejaVuSans-44" transform="translate(63.623047 0.015625)"/>
      <use xlink:href="#DejaVuSans-20" transform="translate(140.625 0.015625)"/>
      <use xlink:href="#DejaVuSans-73" transform="translate(172.412109 0.015625)"/>
      <use xlink:href="#DejaVuSans-6c" transform="translate(224.511719 0.015625)"/>
      <use xlink:href="#DejaVuSans-69" transform="translate(252.294922 0.015625)"/>
      <use xlink:href="#DejaVuSans-63" transform="translate(280.078125 0.015625)"/>
      <use xlink:href="#DejaVuSans-65" transform="translate(335.058594 0.015625)"/>
      <use xlink:href="#DejaVuSans-20" transform="translate(396.582031 0.015625)"/>
      <use xlink:href="#DejaVuSans-28" transform="translate(428.369141 0.015625)"/>
      <use xlink:href="#DejaVuSans-Oblique-61" transform="translate(467.382812 0.015625)"/>
      <use xlink:href="#DejaVuSans-Oblique-78" transform="translate(528.662109 -16.390625) scale(0.7)"/>
      <use xlink:href="#DejaVuSans-2c" transform="translate(572.822266 0.015625)"/>
      <use xlink:href="#DejaVuSans-Oblique-61" transform="translate(624.091797 0.015625)"/>
      <use xlink:href="#DejaVuSans-Oblique-7a" transform="translate(685.371094 -16.390625) scale(0.7)"/>
      <use xlink:href="#DejaVuSans-Oblique-7a" transform="translate(722.114258 -16.390625) scale(0.7)"/>
      <use xlink:href="#DejaVuSans-29" transform="translate(761.591797 0.015625)"/>
     </g>
    </g>
    <g id="line2d_20">
     <path d="M 413.61 52.874063 
L 424.61 52.874063 
L 435.61 52.874063 
" style="fill: none; stroke: #dd8452; stroke-width: 1.5; stroke-linecap: round"/>
     <g>
      <use xlink:href="#m92acce32c0" x="424.61" y="52.874063" style="fill: #dd8452; stroke: #dd8452; stroke-linejoin: miter"/>
     </g>
    </g>
    <g id="text_17">
     <!-- 2D slice $(a_y, a_{zz})$ -->
     <g style="fill: #262626" transform="translate(444.41 56.724063) scale(0.11 -0.11)">
      <defs>
       <path id="DejaVuSans-Oblique-79" d="M 1588 -325 
Q 1188 -997 936 -1164 
Q 684 -1331 294 -1331 
L -159 -1331 
L -63 -850 
L 269 -850 
Q 509 -850 678 -719 
Q 847 -588 1056 -206 
L 1234 128 
L 459 3500 
L 1069 3500 
L 1650 819 
L 3256 3500 
L 3859 3500 
L 1588 -325 
z
" transform="scale(0.015625)"/>
      </defs>
      <use xlink:href="#DejaVuSans-32" transform="translate(0 0.015625)"/>
      <use xlink:href="#DejaVuSans-44" transform="translate(63.623047 0.015625)"/>
      <use xlink:href="#DejaVuSans-20" transform="translate(140.625 0.015625)"/>
      <use xlink:href="#DejaVuSans-73" transform="translate(172.412109 0.015625)"/>
      <use xlink:href="#DejaVuSans-6c" transform="translate(224.511719 0.015625)"/>
      <use xlink:href="#DejaVuSans-69" transform="translate(252.294922 0.015625)"/>
      <use xlink:href="#DejaVuSans-63" transform="translate(280.078125 0.015625)"/>
      <use xlink:href="#DejaVuSans-65" transform="translate(335.058594 0.015625)"/>
      <use xlink:href="#DejaVuSans-20" transform="translate(396.582031 0.015625)"/>
      <use xlink:href="#DejaVuSans-28" transform="translate(428.369141 0.015625)"/>
      <use xlink:href="#DejaVuSans-Oblique-61" transform="translate(467.382812 0.015625)"/>
      <use xlink:href="#DejaVuSans-Oblique-79" transform="translate(528.662109 -16.390625) scale(0.7)"/>
      <use xlink:href="#DejaVuSans-2c" transform="translate(572.822266 0.015625)"/>
      <use xlink:href="#DejaVuSans-Oblique-61" transform="translate(624.091797 0.015625)"/>
      <use xlink:href="#DejaVuSans-Oblique-7a" transform="translate(685.371094 -16.390625) scale(0.7)"/>
      <use xlink:href="#DejaVuSans-Oblique-7a" transform="translate(722.114258 -16.390625) scale(0.7)"/>
      <use xlink:href="#DejaVuSans-29" transform="translate(761.591797 0.015625)"/>
     </g>
    </g>
    <g id="line2d_21">
     <path d="M 413.61 70.142344 
L 424.61 70.142344 
L 435.61 70.142344 
" style="fill: none; stroke: #8172b3; stroke-width: 1.5; stroke-linecap: round"/>
     <g>
      <use xlink:href="#m17f4adea70" x="424.61" y="70.142344" style="fill: #8172b3; stroke: #8172b3; stroke-linejoin: miter"/>
     </g>
    </g>
    <g id="text_18">
     <!-- 2D slice $(a_z, a_{zz})$ -->
     <g style="fill: #262626" transform="translate(444.41 73.992344) scale(0.11 -0.11)">
      <use xlink:href="#DejaVuSans-32" transform="translate(0 0.015625)"/>
      <use xlink:href="#DejaVuSans-44" transform="translate(63.623047 0.015625)"/>
      <use xlink:href="#DejaVuSans-20" transform="translate(140.625 0.015625)"/>
      <use xlink:href="#DejaVuSans-73" transform="translate(172.412109 0.015625)"/>
      <use xlink:href="#DejaVuSans-6c" transform="translate(224.511719 0.015625)"/>
      <use xlink:href="#DejaVuSans-69" transform="translate(252.294922 0.015625)"/>
      <use xlink:href="#DejaVuSans-63" transform="translate(280.078125 0.015625)"/>
      <use xlink:href="#DejaVuSans-65" transform="translate(335.058594 0.015625)"/>
      <use xlink:href="#DejaVuSans-20" transform="translate(396.582031 0.015625)"/>
      <use xlink:href="#DejaVuSans-28" transform="translate(428.369141 0.015625)"/>
      <use xlink:href="#DejaVuSans-Oblique-61" transform="translate(467.382812 0.015625)"/>
      <use xlink:href="#DejaVuSans-Oblique-7a" transform="translate(528.662109 -16.390625) scale(0.7)"/>
      <use xlink:href="#DejaVuSans-2c" transform="translate(568.139648 0.015625)"/>
      <use xlink:href="#DejaVuSans-Oblique-61" transform="translate(619.40918 0.015625)"/>
      <use xlink:href="#DejaVuSans-Oblique-7a" transform="translate(680.688477 -16.390625) scale(0.7)"/>
      <use xlink:href="#DejaVuSans-Oblique-7a" transform="translate(717.431641 -16.390625) scale(0.7)"/>
      <use xlink:href="#DejaVuSans-29" transform="translate(756.90918 0.015625)"/>
     </g>
    </g>
    <g id="line2d_22">
     <path d="M 413.61 86.288281 
L 424.61 86.288281 
L 435.61 86.288281 
" style="fill: none; stroke: #55a868; stroke-width: 1.5; stroke-linecap: round"/>
     <g>
      <use xlink:href="#me78b15212f" x="424.61" y="86.288281" style="fill: #55a868; stroke: #55a868; stroke-linejoin: miter"/>
     </g>
    </g>
    <g id="text_19">
     <!-- 4D random search -->
     <g style="fill: #262626" transform="translate(444.41 90.138281) scale(0.11 -0.11)">
      <defs>
       <path id="DejaVuSans-64" d="M 2906 2969 
L 2906 4863 
L 3481 4863 
L 3481 0 
L 2906 0 
L 2906 525 
Q 2725 213 2448 61 
Q 2172 -91 1784 -91 
Q 1150 -91 751 415 
Q 353 922 353 1747 
Q 353 2572 751 3078 
Q 1150 3584 1784 3584 
Q 2172 3584 2448 3432 
Q 2725 3281 2906 2969 
z
M 947 1747 
Q 947 1113 1208 752 
Q 1469 391 1925 391 
Q 2381 391 2643 752 
Q 2906 1113 2906 1747 
Q 2906 2381 2643 2742 
Q 2381 3103 1925 3103 
Q 1469 3103 1208 2742 
Q 947 2381 947 1747 
z
" transform="scale(0.015625)"/>
       <path id="DejaVuSans-68" d="M 3513 2113 
L 3513 0 
L 2938 0 
L 2938 2094 
Q 2938 2591 2744 2837 
Q 2550 3084 2163 3084 
Q 1697 3084 1428 2787 
Q 1159 2491 1159 1978 
L 1159 0 
L 581 0 
L 581 4863 
L 1159 4863 
L 1159 2956 
Q 1366 3272 1645 3428 
Q 1925 3584 2291 3584 
Q 2894 3584 3203 3211 
Q 3513 2838 3513 2113 
z
" transform="scale(0.015625)"/>
      </defs>
      <use xlink:href="#DejaVuSans-34"/>
      <use xlink:href="#DejaVuSans-44" transform="translate(63.623047 0)"/>
      <use xlink:href="#DejaVuSans-20" transform="translate(140.625 0)"/>
      <use xlink:href="#DejaVuSans-72" transform="translate(172.412109 0)"/>
      <use xlink:href="#DejaVuSans-61" transform="translate(213.525391 0)"/>
      <use xlink:href="#DejaVuSans-6e" transform="translate(274.804688 0)"/>
      <use xlink:href="#DejaVuSans-64" transform="translate(338.183594 0)"/>
      <use xlink:href="#DejaVuSans-6f" transform="translate(401.660156 0)"/>
      <use xlink:href="#DejaVuSans-6d" transform="translate(462.841797 0)"/>
      <use xlink:href="#DejaVuSans-20" transform="translate(560.253906 0)"/>
      <use xlink:href="#DejaVuSans-73" transform="translate(592.041016 0)"/>
      <use xlink:href="#DejaVuSans-65" transform="translate(644.140625 0)"/>
      <use xlink:href="#DejaVuSans-61" transform="translate(705.664062 0)"/>
      <use xlink:href="#DejaVuSans-72" transform="translate(766.943359 0)"/>
      <use xlink:href="#DejaVuSans-63" transform="translate(805.806641 0)"/>
      <use xlink:href="#DejaVuSans-68" transform="translate(860.787109 0)"/>
     </g>
    </g>
   </g>
  </g>
 </g>
 <defs>
  <clipPath id="p52ff11664d">
   <rect x="49.807188" y="22.318125" width="506.16" height="280.74"/>
  </clipPath>
 </defs>
</svg>
