<?xml version="1.0" encoding="utf-8" standalone="no"?>
<!DOCTYPE svg PUBLIC "-//W3C//DTD SVG 1.1//EN"
  "http://www.w3.org/Graphics/SVG/1.1/DTD/svg11.dtd">
<svg xmlns:xlink="http://www.w3.org/1999/xlink" width="565.828258pt" height="349.594375pt" viewBox="0 0 565.828258 349.594375" xmlns="http://www.w3.org/2000/svg" version="1.1">
 <metadata>
  <rdf:RDF xmlns:dc="http://purl.org/dc/elements/1.1/" xmlns:cc="http://creativecommons.org/ns#" xmlns:rdf="http://www.w3.org/1999/02/22-rdf-syntax-ns#">
   <cc:Work>
    <dc:type rdf:resource="http://purl.org/dc/dcmitype/StillImage"/>
    <dc:date>2026-07-09T10:47:30.564403</dc:date>
    <dc:format>image/svg+xml</dc:format>
    <dc:creator>
     <cc:Agent>
      <dc:title>Matplotlib v3.10.9, https://matplotlib.org/</dc:title>
     </cc:Agent>
    </dc:creator>
   </cc:Work>
  </rdf:RDF>
 </metadata>
 <defs>
  <style type="text/css">*{stroke-linejoin: round; stroke-linecap: butt}</style>
 </defs>
 <g id="figure_1">
  <g id="patch_1">
   <path d="M 0 349.594375 
L 565.828258 349.594375 
L 565.828258 0 
L 0 0 
z
" style="fill: #ffffff"/>
  </g>
  <g id="axes_1">
   <g id="patch_2">
    <path d="M 62.7 312.038125 
L 558.628258 312.038125 
L 558.628258 22.318125 
L 62.7 22.318125 
z
" style="fill: #ffffff"/>
   </g>
   <g id="matplotlib.axis_1">
    <g id="xtick_1">
     <g id="line2d_1">
      <defs>
       <path id="mb7b0f26561" d="M 0 0 
L 0 3.5 
" style="stroke: #000000; stroke-width: 0.8"/>
      </defs>
      <g>
       <use xlink:href="#mb7b0f26561" x="76.041298" y="312.038125" style="stroke: #000000; stroke-width: 0.8"/>
      </g>
     </g>
     <g id="text_1">
      <!-- 0 -->
      <g transform="translate(72.860048 326.636562) scale(0.1 -0.1)">
       <defs>
        <path id="DejaVuSans-30" d="M 2034 4250 
Q 1547 4250 1301 3770 
Q 1056 3291 1056 2328 
Q 1056 1369 1301 889 
Q 1547 409 2034 409 
Q 2525 409 2770 889 
Q 3016 1369 3016 2328 
Q 3016 3291 2770 3770 
Q 2525 4250 2034 4250 
z
M 2034 4750 
Q 2819 4750 3233 4129 
Q 3647 3509 3647 2328 
Q 3647 1150 3233 529 
Q 2819 -91 2034 -91 
Q 1250 -91 836 529 
Q 422 1150 422 2328 
Q 422 3509 836 4129 
Q 1250 4750 2034 4750 
z
" transform="scale(0.015625)"/>
       </defs>
       <use xlink:href="#DejaVuSans-30"/>
      </g>
     </g>
    </g>
    <g id="xtick_2">
     <g id="line2d_2">
      <g>
       <use xlink:href="#mb7b0f26561" x="168.050251" y="312.038125" style="stroke: #000000; stroke-width: 0.8"/>
      </g>
     </g>
     <g id="text_2">
      <!-- 1 -->
      <g transform="translate(164.869001 326.636562) scale(0.1 -0.1)">
       <defs>
        <path id="DejaVuSans-31" d="M 794 531 
L 1825 531 
L 1825 4091 
L 703 3866 
L 703 4441 
L 1819 4666 
L 2450 4666 
L 2450 531 
L 3481 531 
L 3481 0 
L 794 0 
L 794 531 
z
" transform="scale(0.015625)"/>
       </defs>
       <use xlink:href="#DejaVuSans-31"/>
      </g>
     </g>
    </g>
    <g id="xtick_3">
     <g id="line2d_3">
      <g>
       <use xlink:href="#mb7b0f26561" x="260.059205" y="312.038125" style="stroke: #000000; stroke-width: 0.8"/>
      </g>
     </g>
     <g id="text_3">
      <!-- 2 -->
      <g transform="translate(256.877955 326.636562) scale(0.1 -0.1)">
       <defs>
        <path id="DejaVuSans-32" d="M 1228 531 
L 3431 531 
L 3431 0 
L 469 0 
L 469 531 
Q 828 903 1448 1529 
Q 2069 2156 2228 2338 
Q 2531 2678 2651 2914 
Q 2772 3150 2772 3378 
Q 2772 3750 2511 3984 
Q 2250 4219 1831 4219 
Q 1534 4219 1204 4116 
Q 875 4013 500 3803 
L 500 4441 
Q 881 4594 1212 4672 
Q 1544 4750 1819 4750 
Q 2544 4750 2975 4387 
Q 3406 4025 3406 3419 
Q 3406 3131 3298 2873 
Q 3191 2616 2906 2266 
Q 2828 2175 2409 1742 
Q 1991 1309 1228 531 
z
" transform="scale(0.015625)"/>
       </defs>
       <use xlink:href="#DejaVuSans-32"/>
      </g>
     </g>
    </g>
    <g id="xtick_4">
     <g id="line2d_4">
      <g>
       <use xlink:href="#mb7b0f26561" x="352.068158" y="312.038125" style="stroke: #000000; stroke-width: 0.8"/>
      </g>
     </g>
     <g id="text_4">
      <!-- 3 -->
      <g transform="translate(348.886908 326.636562) scale(0.1 -0.1)">
       <defs>
        <path id="DejaVuSans-33" d="M 2597 2516 
Q 3050 2419 3304 2112 
Q 3559 1806 3559 1356 
Q 3559 666 3084 287 
Q 2609 -91 1734 -91 
Q 1441 -91 1130 -33 
Q 819 25 488 141 
L 488 750 
Q 750 597 1062 519 
Q 1375 441 1716 441 
Q 2309 441 2620 675 
Q 2931 909 2931 1356 
Q 2931 1769 2642 2001 
Q 2353 2234 1838 2234 
L 1294 2234 
L 1294 2753 
L 1863 2753 
Q 2328 2753 2575 2939 
Q 2822 3125 2822 3475 
Q 2822 3834 2567 4026 
Q 2313 4219 1838 4219 
Q 1578 4219 1281 4162 
Q 984 4106 628 3988 
L 628 4550 
Q 988 4650 1302 4700 
Q 1616 4750 1894 4750 
Q 2613 4750 3031 4423 
Q 3450 4097 3450 3541 
Q 3450 3153 3228 2886 
Q 3006 2619 2597 2516 
z
" transform="scale(0.015625)"/>
       </defs>
       <use xlink:href="#DejaVuSans-33"/>
      </g>
     </g>
    </g>
    <g id="xtick_5">
     <g id="line2d_5">
      <g>
       <use xlink:href="#mb7b0f26561" x="444.077111" y="312.038125" style="stroke: #000000; stroke-width: 0.8"/>
      </g>
     </g>
     <g id="text_5">
      <!-- 4 -->
      <g transform="translate(440.895861 326.636562) scale(0.1 -0.1)">
       <defs>
        <path id="DejaVuSans-34" d="M 2419 4116 
L 825 1625 
L 2419 1625 
L 2419 4116 
z
M 2253 4666 
L 3047 4666 
L 3047 1625 
L 3713 1625 
L 3713 1100 
L 3047 1100 
L 3047 0 
L 2419 0 
L 2419 1100 
L 313 1100 
L 313 1709 
L 2253 4666 
z
" transform="scale(0.015625)"/>
       </defs>
       <use xlink:href="#DejaVuSans-34"/>
      </g>
     </g>
    </g>
    <g id="xtick_6">
     <g id="line2d_6">
      <g>
       <use xlink:href="#mb7b0f26561" x="536.086064" y="312.038125" style="stroke: #000000; stroke-width: 0.8"/>
      </g>
     </g>
     <g id="text_6">
      <!-- 5 -->
      <g transform="translate(532.904814 326.636562) scale(0.1 -0.1)">
       <defs>
        <path id="DejaVuSans-35" d="M 691 4666 
L 3169 4666 
L 3169 4134 
L 1269 4134 
L 1269 2991 
Q 1406 3038 1543 3061 
Q 1681 3084 1819 3084 
Q 2600 3084 3056 2656 
Q 3513 2228 3513 1497 
Q 3513 744 3044 326 
Q 2575 -91 1722 -91 
Q 1428 -91 1123 -41 
Q 819 9 494 109 
L 494 744 
Q 775 591 1075 516 
Q 1375 441 1709 441 
Q 2250 441 2565 725 
Q 2881 1009 2881 1497 
Q 2881 1984 2565 2268 
Q 2250 2553 1709 2553 
Q 1456 2553 1204 2497 
Q 953 2441 691 2322 
L 691 4666 
z
" transform="scale(0.015625)"/>
       </defs>
       <use xlink:href="#DejaVuSans-35"/>
      </g>
     </g>
    </g>
    <g id="text_7">
     <!-- $\omega$ -->
     <g transform="translate(306.464129 340.314687) scale(0.1 -0.1)">
      <defs>
       <path id="DejaVuSans-Oblique-3c9" d="M 1369 -91 
Q 72 -91 434 1766 
Q 575 2500 1256 3500 
L 1875 3500 
Q 1231 2500 1088 1750 
Q 819 397 1519 397 
Q 2166 397 2478 2078 
L 3009 2078 
Q 2669 388 3316 397 
Q 4013 403 4275 1750 
Q 4419 2500 4169 3500 
L 4788 3500 
Q 5075 2500 4934 1766 
Q 4578 -94 3278 -91 
Q 2428 -88 2503 844 
Q 2194 -91 1369 -91 
z
" transform="scale(0.015625)"/>
      </defs>
      <use xlink:href="#DejaVuSans-Oblique-3c9" transform="translate(0 0.3125)"/>
     </g>
    </g>
   </g>
   <g id="matplotlib.axis_2">
    <g id="ytick_1">
     <g id="line2d_7">
      <defs>
       <path id="m36fd6e8a48" d="M 0 0 
L -3.5 0 
" style="stroke: #000000; stroke-width: 0.8"/>
      </defs>
      <g>
       <use xlink:href="#m36fd6e8a48" x="62.7" y="241.226693" style="stroke: #000000; stroke-width: 0.8"/>
      </g>
     </g>
     <g id="text_8">
      <!-- $\mathdefault{10^{0}}$ -->
      <g transform="translate(38.1 245.025912) scale(0.1 -0.1)">
       <use xlink:href="#DejaVuSans-31" transform="translate(0 0.765625)"/>
       <use xlink:href="#DejaVuSans-30" transform="translate(63.623047 0.765625)"/>
       <use xlink:href="#DejaVuSans-30" transform="translate(128.203125 39.046875) scale(0.7)"/>
      </g>
     </g>
    </g>
    <g id="ytick_2">
     <g id="line2d_8">
      <defs>
       <path id="m49b2a9ce95" d="M 0 0 
L -2 0 
" style="stroke: #000000; stroke-width: 0.6"/>
      </defs>
      <g>
       <use xlink:href="#m49b2a9ce95" x="62.7" y="300.165929" style="stroke: #000000; stroke-width: 0.6"/>
      </g>
     </g>
    </g>
    <g id="ytick_3">
     <g id="line2d_9">
      <g>
       <use xlink:href="#m49b2a9ce95" x="62.7" y="278.100353" style="stroke: #000000; stroke-width: 0.6"/>
      </g>
     </g>
    </g>
    <g id="ytick_4">
     <g id="line2d_10">
      <g>
       <use xlink:href="#m49b2a9ce95" x="62.7" y="258.637135" style="stroke: #000000; stroke-width: 0.6"/>
      </g>
     </g>
    </g>
    <g id="ytick_5">
     <g id="line2d_11">
      <g>
       <use xlink:href="#m49b2a9ce95" x="62.7" y="126.686645" style="stroke: #000000; stroke-width: 0.6"/>
      </g>
     </g>
     <g id="text_9">
      <!-- $\mathdefault{2\times10^{0}}$ -->
      <g transform="translate(21.1 130.485864) scale(0.1 -0.1)">
       <defs>
        <path id="DejaVuSans-d7" d="M 4488 3438 
L 3059 2003 
L 4488 575 
L 4116 197 
L 2681 1631 
L 1247 197 
L 878 575 
L 2303 2003 
L 878 3438 
L 1247 3816 
L 2681 2381 
L 4116 3816 
L 4488 3438 
z
" transform="scale(0.015625)"/>
       </defs>
       <use xlink:href="#DejaVuSans-32" transform="translate(0 0.765625)"/>
       <use xlink:href="#DejaVuSans-d7" transform="translate(83.105469 0.765625)"/>
       <use xlink:href="#DejaVuSans-31" transform="translate(186.376953 0.765625)"/>
       <use xlink:href="#DejaVuSans-30" transform="translate(250 0.765625)"/>
       <use xlink:href="#DejaVuSans-30" transform="translate(314.580078 39.046875) scale(0.7)"/>
      </g>
     </g>
    </g>
    <g id="ytick_6">
     <g id="line2d_12">
      <g>
       <use xlink:href="#m49b2a9ce95" x="62.7" y="59.685012" style="stroke: #000000; stroke-width: 0.6"/>
      </g>
     </g>
     <g id="text_10">
      <!-- $\mathdefault{3\times10^{0}}$ -->
      <g transform="translate(21.1 63.484231) scale(0.1 -0.1)">
       <use xlink:href="#DejaVuSans-33" transform="translate(0 0.765625)"/>
       <use xlink:href="#DejaVuSans-d7" transform="translate(83.105469 0.765625)"/>
       <use xlink:href="#DejaVuSans-31" transform="translate(186.376953 0.765625)"/>
       <use xlink:href="#DejaVuSans-30" transform="translate(250 0.765625)"/>
       <use xlink:href="#DejaVuSans-30" transform="translate(314.580078 39.046875) scale(0.7)"/>
      </g>
     </g>
    </g>
    <g id="text_11">
     <!-- $\Delta\omega_{\mathrm{SQL}} / \Delta\omega$ -->
     <g transform="translate(14.5 191.178125) rotate(-90) scale(0.1 -0.1)">
      <defs>
       <path id="DejaVuSans-394" d="M 2188 4044 
L 906 525 
L 3472 525 
L 2188 4044 
z
M 50 0 
L 1831 4666 
L 2547 4666 
L 4325 0 
L 50 0 
z
" transform="scale(0.015625)"/>
       <path id="DejaVuSans-53" d="M 3425 4513 
L 3425 3897 
Q 3066 4069 2747 4153 
Q 2428 4238 2131 4238 
Q 1616 4238 1336 4038 
Q 1056 3838 1056 3469 
Q 1056 3159 1242 3001 
Q 1428 2844 1947 2747 
L 2328 2669 
Q 3034 2534 3370 2195 
Q 3706 1856 3706 1288 
Q 3706 609 3251 259 
Q 2797 -91 1919 -91 
Q 1588 -91 1214 -16 
Q 841 59 441 206 
L 441 856 
Q 825 641 1194 531 
Q 1563 422 1919 422 
Q 2459 422 2753 634 
Q 3047 847 3047 1241 
Q 3047 1584 2836 1778 
Q 2625 1972 2144 2069 
L 1759 2144 
Q 1053 2284 737 2584 
Q 422 2884 422 3419 
Q 422 4038 858 4394 
Q 1294 4750 2059 4750 
Q 2388 4750 2728 4690 
Q 3069 4631 3425 4513 
z
" transform="scale(0.015625)"/>
       <path id="DejaVuSans-51" d="M 2522 4238 
Q 1834 4238 1429 3725 
Q 1025 3213 1025 2328 
Q 1025 1447 1429 934 
Q 1834 422 2522 422 
Q 3209 422 3611 934 
Q 4013 1447 4013 2328 
Q 4013 3213 3611 3725 
Q 3209 4238 2522 4238 
z
M 3406 84 
L 4238 -825 
L 3475 -825 
L 2784 -78 
Q 2681 -84 2626 -87 
Q 2572 -91 2522 -91 
Q 1538 -91 948 567 
Q 359 1225 359 2328 
Q 359 3434 948 4092 
Q 1538 4750 2522 4750 
Q 3503 4750 4090 4092 
Q 4678 3434 4678 2328 
Q 4678 1516 4351 937 
Q 4025 359 3406 84 
z
" transform="scale(0.015625)"/>
       <path id="DejaVuSans-4c" d="M 628 4666 
L 1259 4666 
L 1259 531 
L 3531 531 
L 3531 0 
L 628 0 
L 628 4666 
z
" transform="scale(0.015625)"/>
       <path id="DejaVuSans-2f" d="M 1625 4666 
L 2156 4666 
L 531 -594 
L 0 -594 
L 1625 4666 
z
" transform="scale(0.015625)"/>
      </defs>
      <use xlink:href="#DejaVuSans-394" transform="translate(0 0.09375)"/>
      <use xlink:href="#DejaVuSans-Oblique-3c9" transform="translate(68.408203 0.09375)"/>
      <use xlink:href="#DejaVuSans-53" transform="translate(152.148438 -16.3125) scale(0.7)"/>
      <use xlink:href="#DejaVuSans-51" transform="translate(196.582031 -16.3125) scale(0.7)"/>
      <use xlink:href="#DejaVuSans-4c" transform="translate(251.679688 -16.3125) scale(0.7)"/>
      <use xlink:href="#DejaVuSans-2f" transform="translate(293.413086 0.09375)"/>
      <use xlink:href="#DejaVuSans-394" transform="translate(327.104492 0.09375)"/>
      <use xlink:href="#DejaVuSans-Oblique-3c9" transform="translate(395.512695 0.09375)"/>
     </g>
    </g>
   </g>
   <g id="line2d_13">
    <path d="M 85.242194 95.695591 
L 94.443089 95.815192 
L 103.643984 95.496212 
L 112.844879 93.617992 
L 122.045775 95.800692 
L 131.24667 95.846927 
L 140.447565 112.988461 
L 149.648461 110.841605 
L 158.849356 112.123506 
L 168.050251 123.922764 
L 177.251147 127.091654 
L 186.452042 131.150878 
L 195.652937 136.340584 
L 204.853833 143.689982 
L 214.054728 148.852628 
L 223.255623 153.825698 
L 232.456519 158.452708 
L 241.657414 164.729429 
L 250.858309 168.964443 
L 260.059205 171.80687 
L 269.2601 174.409802 
L 278.460995 178.912782 
L 287.661891 181.627018 
L 296.862786 185.164109 
L 306.063681 188.777935 
L 315.264576 192.558426 
L 324.465472 193.160737 
L 333.666367 196.280189 
L 342.867262 199.199719 
L 352.068158 201.635495 
L 361.269053 202.823301 
L 370.469948 205.410776 
L 379.670844 207.148969 
L 388.871739 209.215395 
L 398.072634 211.401076 
L 407.27353 213.879441 
L 416.474425 215.67006 
L 425.67532 216.202978 
L 434.876216 218.106487 
L 444.077111 220.120736 
L 453.278006 221.236754 
L 462.478902 222.243757 
L 471.679797 223.997496 
L 480.880692 225.799922 
L 490.081588 226.686041 
L 499.282483 227.536356 
L 508.483378 228.896798 
L 517.684273 230.130648 
L 526.885169 231.208242 
L 536.086064 232.183647 
" clip-path="url(#p2faa0b11bf)" style="fill: none; stroke: #1f77b4; stroke-width: 1.5; stroke-linecap: square"/>
    <defs>
     <path id="m3eb418bfa4" d="M 0 3 
C 0.795609 3 1.55874 2.683901 2.12132 2.12132 
C 2.683901 1.55874 3 0.795609 3 0 
C 3 -0.795609 2.683901 -1.55874 2.12132 -2.12132 
C 1.55874 -2.683901 0.795609 -3 0 -3 
C -0.795609 -3 -1.55874 -2.683901 -2.12132 -2.12132 
C -2.683901 -1.55874 -3 -0.795609 -3 0 
C -3 0.795609 -2.683901 1.55874 -2.12132 2.12132 
C -1.55874 2.683901 -0.795609 3 0 3 
z
" style="stroke: #1f77b4"/>
    </defs>
    <g clip-path="url(#p2faa0b11bf)">
     <use xlink:href="#m3eb418bfa4" x="85.242194" y="95.695591" style="fill: #1f77b4; stroke: #1f77b4"/>
     <use xlink:href="#m3eb418bfa4" x="94.443089" y="95.815192" style="fill: #1f77b4; stroke: #1f77b4"/>
     <use xlink:href="#m3eb418bfa4" x="103.643984" y="95.496212" style="fill: #1f77b4; stroke: #1f77b4"/>
     <use xlink:href="#m3eb418bfa4" x="112.844879" y="93.617992" style="fill: #1f77b4; stroke: #1f77b4"/>
     <use xlink:href="#m3eb418bfa4" x="122.045775" y="95.800692" style="fill: #1f77b4; stroke: #1f77b4"/>
     <use xlink:href="#m3eb418bfa4" x="131.24667" y="95.846927" style="fill: #1f77b4; stroke: #1f77b4"/>
     <use xlink:href="#m3eb418bfa4" x="140.447565" y="112.988461" style="fill: #1f77b4; stroke: #1f77b4"/>
     <use xlink:href="#m3eb418bfa4" x="149.648461" y="110.841605" style="fill: #1f77b4; stroke: #1f77b4"/>
     <use xlink:href="#m3eb418bfa4" x="158.849356" y="112.123506" style="fill: #1f77b4; stroke: #1f77b4"/>
     <use xlink:href="#m3eb418bfa4" x="168.050251" y="123.922764" style="fill: #1f77b4; stroke: #1f77b4"/>
     <use xlink:href="#m3eb418bfa4" x="177.251147" y="127.091654" style="fill: #1f77b4; stroke: #1f77b4"/>
     <use xlink:href="#m3eb418bfa4" x="186.452042" y="131.150878" style="fill: #1f77b4; stroke: #1f77b4"/>
     <use xlink:href="#m3eb418bfa4" x="195.652937" y="136.340584" style="fill: #1f77b4; stroke: #1f77b4"/>
     <use xlink:href="#m3eb418bfa4" x="204.853833" y="143.689982" style="fill: #1f77b4; stroke: #1f77b4"/>
     <use xlink:href="#m3eb418bfa4" x="214.054728" y="148.852628" style="fill: #1f77b4; stroke: #1f77b4"/>
     <use xlink:href="#m3eb418bfa4" x="223.255623" y="153.825698" style="fill: #1f77b4; stroke: #1f77b4"/>
     <use xlink:href="#m3eb418bfa4" x="232.456519" y="158.452708" style="fill: #1f77b4; stroke: #1f77b4"/>
     <use xlink:href="#m3eb418bfa4" x="241.657414" y="164.729429" style="fill: #1f77b4; stroke: #1f77b4"/>
     <use xlink:href="#m3eb418bfa4" x="250.858309" y="168.964443" style="fill: #1f77b4; stroke: #1f77b4"/>
     <use xlink:href="#m3eb418bfa4" x="260.059205" y="171.80687" style="fill: #1f77b4; stroke: #1f77b4"/>
     <use xlink:href="#m3eb418bfa4" x="269.2601" y="174.409802" style="fill: #1f77b4; stroke: #1f77b4"/>
     <use xlink:href="#m3eb418bfa4" x="278.460995" y="178.912782" style="fill: #1f77b4; stroke: #1f77b4"/>
     <use xlink:href="#m3eb418bfa4" x="287.661891" y="181.627018" style="fill: #1f77b4; stroke: #1f77b4"/>
     <use xlink:href="#m3eb418bfa4" x="296.862786" y="185.164109" style="fill: #1f77b4; stroke: #1f77b4"/>
     <use xlink:href="#m3eb418bfa4" x="306.063681" y="188.777935" style="fill: #1f77b4; stroke: #1f77b4"/>
     <use xlink:href="#m3eb418bfa4" x="315.264576" y="192.558426" style="fill: #1f77b4; stroke: #1f77b4"/>
     <use xlink:href="#m3eb418bfa4" x="324.465472" y="193.160737" style="fill: #1f77b4; stroke: #1f77b4"/>
     <use xlink:href="#m3eb418bfa4" x="333.666367" y="196.280189" style="fill: #1f77b4; stroke: #1f77b4"/>
     <use xlink:href="#m3eb418bfa4" x="342.867262" y="199.199719" style="fill: #1f77b4; stroke: #1f77b4"/>
     <use xlink:href="#m3eb418bfa4" x="352.068158" y="201.635495" style="fill: #1f77b4; stroke: #1f77b4"/>
     <use xlink:href="#m3eb418bfa4" x="361.269053" y="202.823301" style="fill: #1f77b4; stroke: #1f77b4"/>
     <use xlink:href="#m3eb418bfa4" x="370.469948" y="205.410776" style="fill: #1f77b4; stroke: #1f77b4"/>
     <use xlink:href="#m3eb418bfa4" x="379.670844" y="207.148969" style="fill: #1f77b4; stroke: #1f77b4"/>
     <use xlink:href="#m3eb418bfa4" x="388.871739" y="209.215395" style="fill: #1f77b4; stroke: #1f77b4"/>
     <use xlink:href="#m3eb418bfa4" x="398.072634" y="211.401076" style="fill: #1f77b4; stroke: #1f77b4"/>
     <use xlink:href="#m3eb418bfa4" x="407.27353" y="213.879441" style="fill: #1f77b4; stroke: #1f77b4"/>
     <use xlink:href="#m3eb418bfa4" x="416.474425" y="215.67006" style="fill: #1f77b4; stroke: #1f77b4"/>
     <use xlink:href="#m3eb418bfa4" x="425.67532" y="216.202978" style="fill: #1f77b4; stroke: #1f77b4"/>
     <use xlink:href="#m3eb418bfa4" x="434.876216" y="218.106487" style="fill: #1f77b4; stroke: #1f77b4"/>
     <use xlink:href="#m3eb418bfa4" x="444.077111" y="220.120736" style="fill: #1f77b4; stroke: #1f77b4"/>
     <use xlink:href="#m3eb418bfa4" x="453.278006" y="221.236754" style="fill: #1f77b4; stroke: #1f77b4"/>
     <use xlink:href="#m3eb418bfa4" x="462.478902" y="222.243757" style="fill: #1f77b4; stroke: #1f77b4"/>
     <use xlink:href="#m3eb418bfa4" x="471.679797" y="223.997496" style="fill: #1f77b4; stroke: #1f77b4"/>
     <use xlink:href="#m3eb418bfa4" x="480.880692" y="225.799922" style="fill: #1f77b4; stroke: #1f77b4"/>
     <use xlink:href="#m3eb418bfa4" x="490.081588" y="226.686041" style="fill: #1f77b4; stroke: #1f77b4"/>
     <use xlink:href="#m3eb418bfa4" x="499.282483" y="227.536356" style="fill: #1f77b4; stroke: #1f77b4"/>
     <use xlink:href="#m3eb418bfa4" x="508.483378" y="228.896798" style="fill: #1f77b4; stroke: #1f77b4"/>
     <use xlink:href="#m3eb418bfa4" x="517.684273" y="230.130648" style="fill: #1f77b4; stroke: #1f77b4"/>
     <use xlink:href="#m3eb418bfa4" x="526.885169" y="231.208242" style="fill: #1f77b4; stroke: #1f77b4"/>
     <use xlink:href="#m3eb418bfa4" x="536.086064" y="232.183647" style="fill: #1f77b4; stroke: #1f77b4"/>
    </g>
   </g>
   <g id="line2d_14">
    <path d="M 85.242194 95.695591 
L 94.443089 95.815192 
L 103.643984 95.496212 
L 112.844879 93.617992 
L 122.045775 95.800692 
L 131.24667 95.846927 
L 140.447565 112.988461 
L 149.648461 110.841605 
L 158.849356 112.123506 
L 168.050251 123.922764 
L 177.251147 127.091654 
L 186.452042 131.150878 
L 195.652937 136.340584 
L 204.853833 143.689982 
L 214.054728 148.852628 
L 223.255623 153.825698 
L 232.456519 158.452708 
L 241.657414 164.729429 
L 250.858309 168.964443 
L 260.059205 171.80687 
L 269.2601 174.409802 
L 278.460995 178.912782 
L 287.661891 181.627018 
L 296.862786 185.164109 
L 306.063681 188.777935 
L 315.264576 192.558426 
L 324.465472 193.160737 
L 333.666367 196.280189 
L 342.867262 199.199719 
L 352.068158 201.635495 
L 361.269053 202.823301 
L 370.469948 205.410776 
L 379.670844 207.148969 
L 388.871739 209.215395 
L 398.072634 211.401076 
L 407.27353 213.879441 
L 416.474425 215.67006 
L 425.67532 216.202978 
L 434.876216 218.106487 
L 444.077111 220.120736 
L 453.278006 221.236754 
L 462.478902 222.243757 
L 471.679797 223.997496 
L 480.880692 225.799922 
L 490.081588 226.686041 
L 499.282483 227.536356 
L 508.483378 228.896798 
L 517.684273 230.130648 
L 526.885169 231.208242 
L 536.086064 232.183647 
" clip-path="url(#p2faa0b11bf)" style="fill: none; stroke: #ff7f0e; stroke-width: 1.5; stroke-linecap: square"/>
    <defs>
     <path id="m842068fd62" d="M -3 3 
L 3 3 
L 3 -3 
L -3 -3 
z
" style="stroke: #ff7f0e; stroke-linejoin: miter"/>
    </defs>
    <g clip-path="url(#p2faa0b11bf)">
     <use xlink:href="#m842068fd62" x="85.242194" y="95.695591" style="fill: #ff7f0e; stroke: #ff7f0e; stroke-linejoin: miter"/>
     <use xlink:href="#m842068fd62" x="94.443089" y="95.815192" style="fill: #ff7f0e; stroke: #ff7f0e; stroke-linejoin: miter"/>
     <use xlink:href="#m842068fd62" x="103.643984" y="95.496212" style="fill: #ff7f0e; stroke: #ff7f0e; stroke-linejoin: miter"/>
     <use xlink:href="#m842068fd62" x="112.844879" y="93.617992" style="fill: #ff7f0e; stroke: #ff7f0e; stroke-linejoin: miter"/>
     <use xlink:href="#m842068fd62" x="122.045775" y="95.800692" style="fill: #ff7f0e; stroke: #ff7f0e; stroke-linejoin: miter"/>
     <use xlink:href="#m842068fd62" x="131.24667" y="95.846927" style="fill: #ff7f0e; stroke: #ff7f0e; stroke-linejoin: miter"/>
     <use xlink:href="#m842068fd62" x="140.447565" y="112.988461" style="fill: #ff7f0e; stroke: #ff7f0e; stroke-linejoin: miter"/>
     <use xlink:href="#m842068fd62" x="149.648461" y="110.841605" style="fill: #ff7f0e; stroke: #ff7f0e; stroke-linejoin: miter"/>
     <use xlink:href="#m842068fd62" x="158.849356" y="112.123506" style="fill: #ff7f0e; stroke: #ff7f0e; stroke-linejoin: miter"/>
     <use xlink:href="#m842068fd62" x="168.050251" y="123.922764" style="fill: #ff7f0e; stroke: #ff7f0e; stroke-linejoin: miter"/>
     <use xlink:href="#m842068fd62" x="177.251147" y="127.091654" style="fill: #ff7f0e; stroke: #ff7f0e; stroke-linejoin: miter"/>
     <use xlink:href="#m842068fd62" x="186.452042" y="131.150878" style="fill: #ff7f0e; stroke: #ff7f0e; stroke-linejoin: miter"/>
     <use xlink:href="#m842068fd62" x="195.652937" y="136.340584" style="fill: #ff7f0e; stroke: #ff7f0e; stroke-linejoin: miter"/>
     <use xlink:href="#m842068fd62" x="204.853833" y="143.689982" style="fill: #ff7f0e; stroke: #ff7f0e; stroke-linejoin: miter"/>
     <use xlink:href="#m842068fd62" x="214.054728" y="148.852628" style="fill: #ff7f0e; stroke: #ff7f0e; stroke-linejoin: miter"/>
     <use xlink:href="#m842068fd62" x="223.255623" y="153.825698" style="fill: #ff7f0e; stroke: #ff7f0e; stroke-linejoin: miter"/>
     <use xlink:href="#m842068fd62" x="232.456519" y="158.452708" style="fill: #ff7f0e; stroke: #ff7f0e; stroke-linejoin: miter"/>
     <use xlink:href="#m842068fd62" x="241.657414" y="164.729429" style="fill: #ff7f0e; stroke: #ff7f0e; stroke-linejoin: miter"/>
     <use xlink:href="#m842068fd62" x="250.858309" y="168.964443" style="fill: #ff7f0e; stroke: #ff7f0e; stroke-linejoin: miter"/>
     <use xlink:href="#m842068fd62" x="260.059205" y="171.80687" style="fill: #ff7f0e; stroke: #ff7f0e; stroke-linejoin: miter"/>
     <use xlink:href="#m842068fd62" x="269.2601" y="174.409802" style="fill: #ff7f0e; stroke: #ff7f0e; stroke-linejoin: miter"/>
     <use xlink:href="#m842068fd62" x="278.460995" y="178.912782" style="fill: #ff7f0e; stroke: #ff7f0e; stroke-linejoin: miter"/>
     <use xlink:href="#m842068fd62" x="287.661891" y="181.627018" style="fill: #ff7f0e; stroke: #ff7f0e; stroke-linejoin: miter"/>
     <use xlink:href="#m842068fd62" x="296.862786" y="185.164109" style="fill: #ff7f0e; stroke: #ff7f0e; stroke-linejoin: miter"/>
     <use xlink:href="#m842068fd62" x="306.063681" y="188.777935" style="fill: #ff7f0e; stroke: #ff7f0e; stroke-linejoin: miter"/>
     <use xlink:href="#m842068fd62" x="315.264576" y="192.558426" style="fill: #ff7f0e; stroke: #ff7f0e; stroke-linejoin: miter"/>
     <use xlink:href="#m842068fd62" x="324.465472" y="193.160737" style="fill: #ff7f0e; stroke: #ff7f0e; stroke-linejoin: miter"/>
     <use xlink:href="#m842068fd62" x="333.666367" y="196.280189" style="fill: #ff7f0e; stroke: #ff7f0e; stroke-linejoin: miter"/>
     <use xlink:href="#m842068fd62" x="342.867262" y="199.199719" style="fill: #ff7f0e; stroke: #ff7f0e; stroke-linejoin: miter"/>
     <use xlink:href="#m842068fd62" x="352.068158" y="201.635495" style="fill: #ff7f0e; stroke: #ff7f0e; stroke-linejoin: miter"/>
     <use xlink:href="#m842068fd62" x="361.269053" y="202.823301" style="fill: #ff7f0e; stroke: #ff7f0e; stroke-linejoin: miter"/>
     <use xlink:href="#m842068fd62" x="370.469948" y="205.410776" style="fill: #ff7f0e; stroke: #ff7f0e; stroke-linejoin: miter"/>
     <use xlink:href="#m842068fd62" x="379.670844" y="207.148969" style="fill: #ff7f0e; stroke: #ff7f0e; stroke-linejoin: miter"/>
     <use xlink:href="#m842068fd62" x="388.871739" y="209.215395" style="fill: #ff7f0e; stroke: #ff7f0e; stroke-linejoin: miter"/>
     <use xlink:href="#m842068fd62" x="398.072634" y="211.401076" style="fill: #ff7f0e; stroke: #ff7f0e; stroke-linejoin: miter"/>
     <use xlink:href="#m842068fd62" x="407.27353" y="213.879441" style="fill: #ff7f0e; stroke: #ff7f0e; stroke-linejoin: miter"/>
     <use xlink:href="#m842068fd62" x="416.474425" y="215.67006" style="fill: #ff7f0e; stroke: #ff7f0e; stroke-linejoin: miter"/>
     <use xlink:href="#m842068fd62" x="425.67532" y="216.202978" style="fill: #ff7f0e; stroke: #ff7f0e; stroke-linejoin: miter"/>
     <use xlink:href="#m842068fd62" x="434.876216" y="218.106487" style="fill: #ff7f0e; stroke: #ff7f0e; stroke-linejoin: miter"/>
     <use xlink:href="#m842068fd62" x="444.077111" y="220.120736" style="fill: #ff7f0e; stroke: #ff7f0e; stroke-linejoin: miter"/>
     <use xlink:href="#m842068fd62" x="453.278006" y="221.236754" style="fill: #ff7f0e; stroke: #ff7f0e; stroke-linejoin: miter"/>
     <use xlink:href="#m842068fd62" x="462.478902" y="222.243757" style="fill: #ff7f0e; stroke: #ff7f0e; stroke-linejoin: miter"/>
     <use xlink:href="#m842068fd62" x="471.679797" y="223.997496" style="fill: #ff7f0e; stroke: #ff7f0e; stroke-linejoin: miter"/>
     <use xlink:href="#m842068fd62" x="480.880692" y="225.799922" style="fill: #ff7f0e; stroke: #ff7f0e; stroke-linejoin: miter"/>
     <use xlink:href="#m842068fd62" x="490.081588" y="226.686041" style="fill: #ff7f0e; stroke: #ff7f0e; stroke-linejoin: miter"/>
     <use xlink:href="#m842068fd62" x="499.282483" y="227.536356" style="fill: #ff7f0e; stroke: #ff7f0e; stroke-linejoin: miter"/>
     <use xlink:href="#m842068fd62" x="508.483378" y="228.896798" style="fill: #ff7f0e; stroke: #ff7f0e; stroke-linejoin: miter"/>
     <use xlink:href="#m842068fd62" x="517.684273" y="230.130648" style="fill: #ff7f0e; stroke: #ff7f0e; stroke-linejoin: miter"/>
     <use xlink:href="#m842068fd62" x="526.885169" y="231.208242" style="fill: #ff7f0e; stroke: #ff7f0e; stroke-linejoin: miter"/>
     <use xlink:href="#m842068fd62" x="536.086064" y="232.183647" style="fill: #ff7f0e; stroke: #ff7f0e; stroke-linejoin: miter"/>
    </g>
   </g>
   <g id="line2d_15">
    <path d="M 85.242194 298.496717 
L 94.443089 298.496717 
L 103.643984 298.496717 
L 112.844879 298.496717 
L 122.045775 298.496717 
L 131.24667 298.496717 
L 140.447565 298.496717 
L 149.648461 298.496717 
L 158.849356 298.496717 
L 168.050251 298.496717 
L 177.251147 298.496717 
L 186.452042 298.496717 
L 195.652937 298.496717 
L 204.853833 298.496717 
L 214.054728 298.496717 
L 223.255623 298.496717 
L 232.456519 298.496717 
L 241.657414 298.496717 
L 250.858309 298.496717 
L 260.059205 298.496717 
L 269.2601 298.496717 
L 278.460995 298.496717 
L 287.661891 298.496717 
L 296.862786 298.496717 
L 306.063681 298.496717 
L 315.264576 298.496717 
L 324.465472 298.496717 
L 333.666367 298.496717 
L 342.867262 298.496717 
L 352.068158 298.496717 
L 361.269053 298.496717 
L 370.469948 298.496717 
L 379.670844 298.496717 
L 388.871739 298.496717 
L 398.072634 298.496717 
L 407.27353 298.496717 
L 416.474425 298.496717 
L 425.67532 298.496717 
L 434.876216 298.496717 
L 444.077111 298.496717 
L 453.278006 298.496717 
L 462.478902 298.496717 
L 471.679797 298.496717 
L 480.880692 298.496717 
L 490.081588 298.496717 
L 499.282483 298.496717 
L 508.483378 298.496717 
L 517.684273 298.496717 
L 526.885169 298.496717 
L 536.086064 298.496717 
" clip-path="url(#p2faa0b11bf)" style="fill: none; stroke: #9467bd; stroke-width: 1.5; stroke-linecap: square"/>
    <defs>
     <path id="m2b197d12d4" d="M -0 3 
L 3 -3 
L -3 -3 
z
" style="stroke: #9467bd; stroke-linejoin: miter"/>
    </defs>
    <g clip-path="url(#p2faa0b11bf)">
     <use xlink:href="#m2b197d12d4" x="85.242194" y="298.496717" style="fill: #9467bd; stroke: #9467bd; stroke-linejoin: miter"/>
     <use xlink:href="#m2b197d12d4" x="94.443089" y="298.496717" style="fill: #9467bd; stroke: #9467bd; stroke-linejoin: miter"/>
     <use xlink:href="#m2b197d12d4" x="103.643984" y="298.496717" style="fill: #9467bd; stroke: #9467bd; stroke-linejoin: miter"/>
     <use xlink:href="#m2b197d12d4" x="112.844879" y="298.496717" style="fill: #9467bd; stroke: #9467bd; stroke-linejoin: miter"/>
     <use xlink:href="#m2b197d12d4" x="122.045775" y="298.496717" style="fill: #9467bd; stroke: #9467bd; stroke-linejoin: miter"/>
     <use xlink:href="#m2b197d12d4" x="131.24667" y="298.496717" style="fill: #9467bd; stroke: #9467bd; stroke-linejoin: miter"/>
     <use xlink:href="#m2b197d12d4" x="140.447565" y="298.496717" style="fill: #9467bd; stroke: #9467bd; stroke-linejoin: miter"/>
     <use xlink:href="#m2b197d12d4" x="149.648461" y="298.496717" style="fill: #9467bd; stroke: #9467bd; stroke-linejoin: miter"/>
     <use xlink:href="#m2b197d12d4" x="158.849356" y="298.496717" style="fill: #9467bd; stroke: #9467bd; stroke-linejoin: miter"/>
     <use xlink:href="#m2b197d12d4" x="168.050251" y="298.496717" style="fill: #9467bd; stroke: #9467bd; stroke-linejoin: miter"/>
     <use xlink:href="#m2b197d12d4" x="177.251147" y="298.496717" style="fill: #9467bd; stroke: #9467bd; stroke-linejoin: miter"/>
     <use xlink:href="#m2b197d12d4" x="186.452042" y="298.496717" style="fill: #9467bd; stroke: #9467bd; stroke-linejoin: miter"/>
     <use xlink:href="#m2b197d12d4" x="195.652937" y="298.496717" style="fill: #9467bd; stroke: #9467bd; stroke-linejoin: miter"/>
     <use xlink:href="#m2b197d12d4" x="204.853833" y="298.496717" style="fill: #9467bd; stroke: #9467bd; stroke-linejoin: miter"/>
     <use xlink:href="#m2b197d12d4" x="214.054728" y="298.496717" style="fill: #9467bd; stroke: #9467bd; stroke-linejoin: miter"/>
     <use xlink:href="#m2b197d12d4" x="223.255623" y="298.496717" style="fill: #9467bd; stroke: #9467bd; stroke-linejoin: miter"/>
     <use xlink:href="#m2b197d12d4" x="232.456519" y="298.496717" style="fill: #9467bd; stroke: #9467bd; stroke-linejoin: miter"/>
     <use xlink:href="#m2b197d12d4" x="241.657414" y="298.496717" style="fill: #9467bd; stroke: #9467bd; stroke-linejoin: miter"/>
     <use xlink:href="#m2b197d12d4" x="250.858309" y="298.496717" style="fill: #9467bd; stroke: #9467bd; stroke-linejoin: miter"/>
     <use xlink:href="#m2b197d12d4" x="260.059205" y="298.496717" style="fill: #9467bd; stroke: #9467bd; stroke-linejoin: miter"/>
     <use xlink:href="#m2b197d12d4" x="269.2601" y="298.496717" style="fill: #9467bd; stroke: #9467bd; stroke-linejoin: miter"/>
     <use xlink:href="#m2b197d12d4" x="278.460995" y="298.496717" style="fill: #9467bd; stroke: #9467bd; stroke-linejoin: miter"/>
     <use xlink:href="#m2b197d12d4" x="287.661891" y="298.496717" style="fill: #9467bd; stroke: #9467bd; stroke-linejoin: miter"/>
     <use xlink:href="#m2b197d12d4" x="296.862786" y="298.496717" style="fill: #9467bd; stroke: #9467bd; stroke-linejoin: miter"/>
     <use xlink:href="#m2b197d12d4" x="306.063681" y="298.496717" style="fill: #9467bd; stroke: #9467bd; stroke-linejoin: miter"/>
     <use xlink:href="#m2b197d12d4" x="315.264576" y="298.496717" style="fill: #9467bd; stroke: #9467bd; stroke-linejoin: miter"/>
     <use xlink:href="#m2b197d12d4" x="324.465472" y="298.496717" style="fill: #9467bd; stroke: #9467bd; stroke-linejoin: miter"/>
     <use xlink:href="#m2b197d12d4" x="333.666367" y="298.496717" style="fill: #9467bd; stroke: #9467bd; stroke-linejoin: miter"/>
     <use xlink:href="#m2b197d12d4" x="342.867262" y="298.496717" style="fill: #9467bd; stroke: #9467bd; stroke-linejoin: miter"/>
     <use xlink:href="#m2b197d12d4" x="352.068158" y="298.496717" style="fill: #9467bd; stroke: #9467bd; stroke-linejoin: miter"/>
     <use xlink:href="#m2b197d12d4" x="361.269053" y="298.496717" style="fill: #9467bd; stroke: #9467bd; stroke-linejoin: miter"/>
     <use xlink:href="#m2b197d12d4" x="370.469948" y="298.496717" style="fill: #9467bd; stroke: #9467bd; stroke-linejoin: miter"/>
     <use xlink:href="#m2b197d12d4" x="379.670844" y="298.496717" style="fill: #9467bd; stroke: #9467bd; stroke-linejoin: miter"/>
     <use xlink:href="#m2b197d12d4" x="388.871739" y="298.496717" style="fill: #9467bd; stroke: #9467bd; stroke-linejoin: miter"/>
     <use xlink:href="#m2b197d12d4" x="398.072634" y="298.496717" style="fill: #9467bd; stroke: #9467bd; stroke-linejoin: miter"/>
     <use xlink:href="#m2b197d12d4" x="407.27353" y="298.496717" style="fill: #9467bd; stroke: #9467bd; stroke-linejoin: miter"/>
     <use xlink:href="#m2b197d12d4" x="416.474425" y="298.496717" style="fill: #9467bd; stroke: #9467bd; stroke-linejoin: miter"/>
     <use xlink:href="#m2b197d12d4" x="425.67532" y="298.496717" style="fill: #9467bd; stroke: #9467bd; stroke-linejoin: miter"/>
     <use xlink:href="#m2b197d12d4" x="434.876216" y="298.496717" style="fill: #9467bd; stroke: #9467bd; stroke-linejoin: miter"/>
     <use xlink:href="#m2b197d12d4" x="444.077111" y="298.496717" style="fill: #9467bd; stroke: #9467bd; stroke-linejoin: miter"/>
     <use xlink:href="#m2b197d12d4" x="453.278006" y="298.496717" style="fill: #9467bd; stroke: #9467bd; stroke-linejoin: miter"/>
     <use xlink:href="#m2b197d12d4" x="462.478902" y="298.496717" style="fill: #9467bd; stroke: #9467bd; stroke-linejoin: miter"/>
     <use xlink:href="#m2b197d12d4" x="471.679797" y="298.496717" style="fill: #9467bd; stroke: #9467bd; stroke-linejoin: miter"/>
     <use xlink:href="#m2b197d12d4" x="480.880692" y="298.496717" style="fill: #9467bd; stroke: #9467bd; stroke-linejoin: miter"/>
     <use xlink:href="#m2b197d12d4" x="490.081588" y="298.496717" style="fill: #9467bd; stroke: #9467bd; stroke-linejoin: miter"/>
     <use xlink:href="#m2b197d12d4" x="499.282483" y="298.496717" style="fill: #9467bd; stroke: #9467bd; stroke-linejoin: miter"/>
     <use xlink:href="#m2b197d12d4" x="508.483378" y="298.496717" style="fill: #9467bd; stroke: #9467bd; stroke-linejoin: miter"/>
     <use xlink:href="#m2b197d12d4" x="517.684273" y="298.496717" style="fill: #9467bd; stroke: #9467bd; stroke-linejoin: miter"/>
     <use xlink:href="#m2b197d12d4" x="526.885169" y="298.496717" style="fill: #9467bd; stroke: #9467bd; stroke-linejoin: miter"/>
     <use xlink:href="#m2b197d12d4" x="536.086064" y="298.496717" style="fill: #9467bd; stroke: #9467bd; stroke-linejoin: miter"/>
    </g>
   </g>
   <g id="line2d_16">
    <path d="M 85.242194 52.469266 
L 94.443089 58.351033 
L 103.643984 81.859743 
L 112.844879 78.71396 
L 122.045775 75.386093 
L 131.24667 134.070065 
L 140.447565 122.919108 
L 149.648461 116.279258 
L 158.849356 140.355989 
L 168.050251 157.108949 
L 177.251147 137.569461 
L 186.452042 159.521869 
L 195.652937 171.464024 
L 204.853833 148.961744 
L 214.054728 159.950427 
L 223.255623 181.035707 
L 232.456519 165.024802 
L 241.657414 187.067743 
L 250.858309 218.207044 
L 260.059205 177.095316 
L 269.2601 197.09245 
L 278.460995 247.378628 
L 287.661891 188.172104 
L 296.862786 193.038585 
L 306.063681 236.151472 
L 315.264576 202.887239 
L 324.465472 232.051132 
L 333.666367 227.745392 
L 342.867262 223.937974 
L 352.068158 223.971301 
L 361.269053 245.471907 
L 370.469948 228.465066 
L 379.670844 223.766054 
L 388.871739 236.543257 
L 398.072634 232.952338 
L 407.27353 222.053027 
L 416.474425 253.977171 
L 425.67532 256.099965 
L 434.876216 224.08841 
L 444.077111 251.807069 
L 453.278006 262.198396 
L 462.478902 235.421769 
L 471.679797 235.510908 
L 480.880692 298.869034 
L 490.081588 236.081288 
L 499.282483 235.617374 
L 508.483378 253.568347 
L 517.684273 244.732948 
L 526.885169 237.837601 
L 536.086064 264.895132 
" clip-path="url(#p2faa0b11bf)" style="fill: none; stroke: #2ca02c; stroke-width: 1.5; stroke-linecap: square"/>
    <defs>
     <path id="medcff9d9c6" d="M 0 -3 
L -3 3 
L 3 3 
z
" style="stroke: #2ca02c; stroke-linejoin: miter"/>
    </defs>
    <g clip-path="url(#p2faa0b11bf)">
     <use xlink:href="#medcff9d9c6" x="85.242194" y="52.469266" style="fill: #2ca02c; stroke: #2ca02c; stroke-linejoin: miter"/>
     <use xlink:href="#medcff9d9c6" x="94.443089" y="58.351033" style="fill: #2ca02c; stroke: #2ca02c; stroke-linejoin: miter"/>
     <use xlink:href="#medcff9d9c6" x="103.643984" y="81.859743" style="fill: #2ca02c; stroke: #2ca02c; stroke-linejoin: miter"/>
     <use xlink:href="#medcff9d9c6" x="112.844879" y="78.71396" style="fill: #2ca02c; stroke: #2ca02c; stroke-linejoin: miter"/>
     <use xlink:href="#medcff9d9c6" x="122.045775" y="75.386093" style="fill: #2ca02c; stroke: #2ca02c; stroke-linejoin: miter"/>
     <use xlink:href="#medcff9d9c6" x="131.24667" y="134.070065" style="fill: #2ca02c; stroke: #2ca02c; stroke-linejoin: miter"/>
     <use xlink:href="#medcff9d9c6" x="140.447565" y="122.919108" style="fill: #2ca02c; stroke: #2ca02c; stroke-linejoin: miter"/>
     <use xlink:href="#medcff9d9c6" x="149.648461" y="116.279258" style="fill: #2ca02c; stroke: #2ca02c; stroke-linejoin: miter"/>
     <use xlink:href="#medcff9d9c6" x="158.849356" y="140.355989" style="fill: #2ca02c; stroke: #2ca02c; stroke-linejoin: miter"/>
     <use xlink:href="#medcff9d9c6" x="168.050251" y="157.108949" style="fill: #2ca02c; stroke: #2ca02c; stroke-linejoin: miter"/>
     <use xlink:href="#medcff9d9c6" x="177.251147" y="137.569461" style="fill: #2ca02c; stroke: #2ca02c; stroke-linejoin: miter"/>
     <use xlink:href="#medcff9d9c6" x="186.452042" y="159.521869" style="fill: #2ca02c; stroke: #2ca02c; stroke-linejoin: miter"/>
     <use xlink:href="#medcff9d9c6" x="195.652937" y="171.464024" style="fill: #2ca02c; stroke: #2ca02c; stroke-linejoin: miter"/>
     <use xlink:href="#medcff9d9c6" x="204.853833" y="148.961744" style="fill: #2ca02c; stroke: #2ca02c; stroke-linejoin: miter"/>
     <use xlink:href="#medcff9d9c6" x="214.054728" y="159.950427" style="fill: #2ca02c; stroke: #2ca02c; stroke-linejoin: miter"/>
     <use xlink:href="#medcff9d9c6" x="223.255623" y="181.035707" style="fill: #2ca02c; stroke: #2ca02c; stroke-linejoin: miter"/>
     <use xlink:href="#medcff9d9c6" x="232.456519" y="165.024802" style="fill: #2ca02c; stroke: #2ca02c; stroke-linejoin: miter"/>
     <use xlink:href="#medcff9d9c6" x="241.657414" y="187.067743" style="fill: #2ca02c; stroke: #2ca02c; stroke-linejoin: miter"/>
     <use xlink:href="#medcff9d9c6" x="250.858309" y="218.207044" style="fill: #2ca02c; stroke: #2ca02c; stroke-linejoin: miter"/>
     <use xlink:href="#medcff9d9c6" x="260.059205" y="177.095316" style="fill: #2ca02c; stroke: #2ca02c; stroke-linejoin: miter"/>
     <use xlink:href="#medcff9d9c6" x="269.2601" y="197.09245" style="fill: #2ca02c; stroke: #2ca02c; stroke-linejoin: miter"/>
     <use xlink:href="#medcff9d9c6" x="278.460995" y="247.378628" style="fill: #2ca02c; stroke: #2ca02c; stroke-linejoin: miter"/>
     <use xlink:href="#medcff9d9c6" x="287.661891" y="188.172104" style="fill: #2ca02c; stroke: #2ca02c; stroke-linejoin: miter"/>
     <use xlink:href="#medcff9d9c6" x="296.862786" y="193.038585" style="fill: #2ca02c; stroke: #2ca02c; stroke-linejoin: miter"/>
     <use xlink:href="#medcff9d9c6" x="306.063681" y="236.151472" style="fill: #2ca02c; stroke: #2ca02c; stroke-linejoin: miter"/>
     <use xlink:href="#medcff9d9c6" x="315.264576" y="202.887239" style="fill: #2ca02c; stroke: #2ca02c; stroke-linejoin: miter"/>
     <use xlink:href="#medcff9d9c6" x="324.465472" y="232.051132" style="fill: #2ca02c; stroke: #2ca02c; stroke-linejoin: miter"/>
     <use xlink:href="#medcff9d9c6" x="333.666367" y="227.745392" style="fill: #2ca02c; stroke: #2ca02c; stroke-linejoin: miter"/>
     <use xlink:href="#medcff9d9c6" x="342.867262" y="223.937974" style="fill: #2ca02c; stroke: #2ca02c; stroke-linejoin: miter"/>
     <use xlink:href="#medcff9d9c6" x="352.068158" y="223.971301" style="fill: #2ca02c; stroke: #2ca02c; stroke-linejoin: miter"/>
     <use xlink:href="#medcff9d9c6" x="361.269053" y="245.471907" style="fill: #2ca02c; stroke: #2ca02c; stroke-linejoin: miter"/>
     <use xlink:href="#medcff9d9c6" x="370.469948" y="228.465066" style="fill: #2ca02c; stroke: #2ca02c; stroke-linejoin: miter"/>
     <use xlink:href="#medcff9d9c6" x="379.670844" y="223.766054" style="fill: #2ca02c; stroke: #2ca02c; stroke-linejoin: miter"/>
     <use xlink:href="#medcff9d9c6" x="388.871739" y="236.543257" style="fill: #2ca02c; stroke: #2ca02c; stroke-linejoin: miter"/>
     <use xlink:href="#medcff9d9c6" x="398.072634" y="232.952338" style="fill: #2ca02c; stroke: #2ca02c; stroke-linejoin: miter"/>
     <use xlink:href="#medcff9d9c6" x="407.27353" y="222.053027" style="fill: #2ca02c; stroke: #2ca02c; stroke-linejoin: miter"/>
     <use xlink:href="#medcff9d9c6" x="416.474425" y="253.977171" style="fill: #2ca02c; stroke: #2ca02c; stroke-linejoin: miter"/>
     <use xlink:href="#medcff9d9c6" x="425.67532" y="256.099965" style="fill: #2ca02c; stroke: #2ca02c; stroke-linejoin: miter"/>
     <use xlink:href="#medcff9d9c6" x="434.876216" y="224.08841" style="fill: #2ca02c; stroke: #2ca02c; stroke-linejoin: miter"/>
     <use xlink:href="#medcff9d9c6" x="444.077111" y="251.807069" style="fill: #2ca02c; stroke: #2ca02c; stroke-linejoin: miter"/>
     <use xlink:href="#medcff9d9c6" x="453.278006" y="262.198396" style="fill: #2ca02c; stroke: #2ca02c; stroke-linejoin: miter"/>
     <use xlink:href="#medcff9d9c6" x="462.478902" y="235.421769" style="fill: #2ca02c; stroke: #2ca02c; stroke-linejoin: miter"/>
     <use xlink:href="#medcff9d9c6" x="471.679797" y="235.510908" style="fill: #2ca02c; stroke: #2ca02c; stroke-linejoin: miter"/>
     <use xlink:href="#medcff9d9c6" x="480.880692" y="298.869034" style="fill: #2ca02c; stroke: #2ca02c; stroke-linejoin: miter"/>
     <use xlink:href="#medcff9d9c6" x="490.081588" y="236.081288" style="fill: #2ca02c; stroke: #2ca02c; stroke-linejoin: miter"/>
     <use xlink:href="#medcff9d9c6" x="499.282483" y="235.617374" style="fill: #2ca02c; stroke: #2ca02c; stroke-linejoin: miter"/>
     <use xlink:href="#medcff9d9c6" x="508.483378" y="253.568347" style="fill: #2ca02c; stroke: #2ca02c; stroke-linejoin: miter"/>
     <use xlink:href="#medcff9d9c6" x="517.684273" y="244.732948" style="fill: #2ca02c; stroke: #2ca02c; stroke-linejoin: miter"/>
     <use xlink:href="#medcff9d9c6" x="526.885169" y="237.837601" style="fill: #2ca02c; stroke: #2ca02c; stroke-linejoin: miter"/>
     <use xlink:href="#medcff9d9c6" x="536.086064" y="264.895132" style="fill: #2ca02c; stroke: #2ca02c; stroke-linejoin: miter"/>
    </g>
   </g>
   <g id="line2d_17">
    <path d="M 85.242194 39.955984 
L 94.443089 35.487216 
L 103.643984 41.987953 
L 112.844879 55.10374 
L 122.045775 62.57437 
L 131.24667 69.781179 
L 140.447565 88.546691 
L 149.648461 94.051035 
L 158.849356 97.995696 
L 168.050251 110.050303 
L 177.251147 118.311169 
L 186.452042 127.149712 
L 195.652937 131.821795 
L 204.853833 137.6023 
L 214.054728 146.556784 
L 223.255623 150.244661 
L 232.456519 154.779012 
L 241.657414 164.228135 
L 250.858309 164.952744 
L 260.059205 168.164946 
L 269.2601 173.155303 
L 278.460995 177.299163 
L 287.661891 181.943091 
L 296.862786 183.624814 
L 306.063681 186.61784 
L 315.264576 190.292081 
L 324.465472 194.022796 
L 333.666367 195.03995 
L 342.867262 197.879674 
L 352.068158 199.857608 
L 361.269053 202.511372 
L 370.469948 204.294863 
L 379.670844 206.412486 
L 388.871739 209.063536 
L 398.072634 210.824713 
L 407.27353 212.6321 
L 416.474425 214.10818 
L 425.67532 216.285157 
L 434.876216 217.865349 
L 444.077111 220.148387 
L 453.278006 220.859404 
L 462.478902 222.265514 
L 471.679797 223.647948 
L 480.880692 225.20538 
L 490.081588 226.527099 
L 499.282483 227.526547 
L 508.483378 228.61392 
L 517.684273 229.87102 
L 526.885169 230.927648 
L 536.086064 231.967015 
" clip-path="url(#p2faa0b11bf)" style="fill: none; stroke: #d62728; stroke-width: 1.5; stroke-linecap: square"/>
    <defs>
     <path id="m9b8d78c766" d="M -0 4.242641 
L 4.242641 0 
L 0 -4.242641 
L -4.242641 -0 
z
" style="stroke: #d62728; stroke-linejoin: miter"/>
    </defs>
    <g clip-path="url(#p2faa0b11bf)">
     <use xlink:href="#m9b8d78c766" x="85.242194" y="39.955984" style="fill: #d62728; stroke: #d62728; stroke-linejoin: miter"/>
     <use xlink:href="#m9b8d78c766" x="94.443089" y="35.487216" style="fill: #d62728; stroke: #d62728; stroke-linejoin: miter"/>
     <use xlink:href="#m9b8d78c766" x="103.643984" y="41.987953" style="fill: #d62728; stroke: #d62728; stroke-linejoin: miter"/>
     <use xlink:href="#m9b8d78c766" x="112.844879" y="55.10374" style="fill: #d62728; stroke: #d62728; stroke-linejoin: miter"/>
     <use xlink:href="#m9b8d78c766" x="122.045775" y="62.57437" style="fill: #d62728; stroke: #d62728; stroke-linejoin: miter"/>
     <use xlink:href="#m9b8d78c766" x="131.24667" y="69.781179" style="fill: #d62728; stroke: #d62728; stroke-linejoin: miter"/>
     <use xlink:href="#m9b8d78c766" x="140.447565" y="88.546691" style="fill: #d62728; stroke: #d62728; stroke-linejoin: miter"/>
     <use xlink:href="#m9b8d78c766" x="149.648461" y="94.051035" style="fill: #d62728; stroke: #d62728; stroke-linejoin: miter"/>
     <use xlink:href="#m9b8d78c766" x="158.849356" y="97.995696" style="fill: #d62728; stroke: #d62728; stroke-linejoin: miter"/>
     <use xlink:href="#m9b8d78c766" x="168.050251" y="110.050303" style="fill: #d62728; stroke: #d62728; stroke-linejoin: miter"/>
     <use xlink:href="#m9b8d78c766" x="177.251147" y="118.311169" style="fill: #d62728; stroke: #d62728; stroke-linejoin: miter"/>
     <use xlink:href="#m9b8d78c766" x="186.452042" y="127.149712" style="fill: #d62728; stroke: #d62728; stroke-linejoin: miter"/>
     <use xlink:href="#m9b8d78c766" x="195.652937" y="131.821795" style="fill: #d62728; stroke: #d62728; stroke-linejoin: miter"/>
     <use xlink:href="#m9b8d78c766" x="204.853833" y="137.6023" style="fill: #d62728; stroke: #d62728; stroke-linejoin: miter"/>
     <use xlink:href="#m9b8d78c766" x="214.054728" y="146.556784" style="fill: #d62728; stroke: #d62728; stroke-linejoin: miter"/>
     <use xlink:href="#m9b8d78c766" x="223.255623" y="150.244661" style="fill: #d62728; stroke: #d62728; stroke-linejoin: miter"/>
     <use xlink:href="#m9b8d78c766" x="232.456519" y="154.779012" style="fill: #d62728; stroke: #d62728; stroke-linejoin: miter"/>
     <use xlink:href="#m9b8d78c766" x="241.657414" y="164.228135" style="fill: #d62728; stroke: #d62728; stroke-linejoin: miter"/>
     <use xlink:href="#m9b8d78c766" x="250.858309" y="164.952744" style="fill: #d62728; stroke: #d62728; stroke-linejoin: miter"/>
     <use xlink:href="#m9b8d78c766" x="260.059205" y="168.164946" style="fill: #d62728; stroke: #d62728; stroke-linejoin: miter"/>
     <use xlink:href="#m9b8d78c766" x="269.2601" y="173.155303" style="fill: #d62728; stroke: #d62728; stroke-linejoin: miter"/>
     <use xlink:href="#m9b8d78c766" x="278.460995" y="177.299163" style="fill: #d62728; stroke: #d62728; stroke-linejoin: miter"/>
     <use xlink:href="#m9b8d78c766" x="287.661891" y="181.943091" style="fill: #d62728; stroke: #d62728; stroke-linejoin: miter"/>
     <use xlink:href="#m9b8d78c766" x="296.862786" y="183.624814" style="fill: #d62728; stroke: #d62728; stroke-linejoin: miter"/>
     <use xlink:href="#m9b8d78c766" x="306.063681" y="186.61784" style="fill: #d62728; stroke: #d62728; stroke-linejoin: miter"/>
     <use xlink:href="#m9b8d78c766" x="315.264576" y="190.292081" style="fill: #d62728; stroke: #d62728; stroke-linejoin: miter"/>
     <use xlink:href="#m9b8d78c766" x="324.465472" y="194.022796" style="fill: #d62728; stroke: #d62728; stroke-linejoin: miter"/>
     <use xlink:href="#m9b8d78c766" x="333.666367" y="195.03995" style="fill: #d62728; stroke: #d62728; stroke-linejoin: miter"/>
     <use xlink:href="#m9b8d78c766" x="342.867262" y="197.879674" style="fill: #d62728; stroke: #d62728; stroke-linejoin: miter"/>
     <use xlink:href="#m9b8d78c766" x="352.068158" y="199.857608" style="fill: #d62728; stroke: #d62728; stroke-linejoin: miter"/>
     <use xlink:href="#m9b8d78c766" x="361.269053" y="202.511372" style="fill: #d62728; stroke: #d62728; stroke-linejoin: miter"/>
     <use xlink:href="#m9b8d78c766" x="370.469948" y="204.294863" style="fill: #d62728; stroke: #d62728; stroke-linejoin: miter"/>
     <use xlink:href="#m9b8d78c766" x="379.670844" y="206.412486" style="fill: #d62728; stroke: #d62728; stroke-linejoin: miter"/>
     <use xlink:href="#m9b8d78c766" x="388.871739" y="209.063536" style="fill: #d62728; stroke: #d62728; stroke-linejoin: miter"/>
     <use xlink:href="#m9b8d78c766" x="398.072634" y="210.824713" style="fill: #d62728; stroke: #d62728; stroke-linejoin: miter"/>
     <use xlink:href="#m9b8d78c766" x="407.27353" y="212.6321" style="fill: #d62728; stroke: #d62728; stroke-linejoin: miter"/>
     <use xlink:href="#m9b8d78c766" x="416.474425" y="214.10818" style="fill: #d62728; stroke: #d62728; stroke-linejoin: miter"/>
     <use xlink:href="#m9b8d78c766" x="425.67532" y="216.285157" style="fill: #d62728; stroke: #d62728; stroke-linejoin: miter"/>
     <use xlink:href="#m9b8d78c766" x="434.876216" y="217.865349" style="fill: #d62728; stroke: #d62728; stroke-linejoin: miter"/>
     <use xlink:href="#m9b8d78c766" x="444.077111" y="220.148387" style="fill: #d62728; stroke: #d62728; stroke-linejoin: miter"/>
     <use xlink:href="#m9b8d78c766" x="453.278006" y="220.859404" style="fill: #d62728; stroke: #d62728; stroke-linejoin: miter"/>
     <use xlink:href="#m9b8d78c766" x="462.478902" y="222.265514" style="fill: #d62728; stroke: #d62728; stroke-linejoin: miter"/>
     <use xlink:href="#m9b8d78c766" x="471.679797" y="223.647948" style="fill: #d62728; stroke: #d62728; stroke-linejoin: miter"/>
     <use xlink:href="#m9b8d78c766" x="480.880692" y="225.20538" style="fill: #d62728; stroke: #d62728; stroke-linejoin: miter"/>
     <use xlink:href="#m9b8d78c766" x="490.081588" y="226.527099" style="fill: #d62728; stroke: #d62728; stroke-linejoin: miter"/>
     <use xlink:href="#m9b8d78c766" x="499.282483" y="227.526547" style="fill: #d62728; stroke: #d62728; stroke-linejoin: miter"/>
     <use xlink:href="#m9b8d78c766" x="508.483378" y="228.61392" style="fill: #d62728; stroke: #d62728; stroke-linejoin: miter"/>
     <use xlink:href="#m9b8d78c766" x="517.684273" y="229.87102" style="fill: #d62728; stroke: #d62728; stroke-linejoin: miter"/>
     <use xlink:href="#m9b8d78c766" x="526.885169" y="230.927648" style="fill: #d62728; stroke: #d62728; stroke-linejoin: miter"/>
     <use xlink:href="#m9b8d78c766" x="536.086064" y="231.967015" style="fill: #d62728; stroke: #d62728; stroke-linejoin: miter"/>
    </g>
   </g>
   <g id="line2d_18">
    <path d="M 62.7 241.226693 
L 558.628258 241.226693 
" clip-path="url(#p2faa0b11bf)" style="fill: none; stroke-dasharray: 5.55,2.4; stroke-dashoffset: 0; stroke: #808080; stroke-opacity: 0.7; stroke-width: 1.5"/>
   </g>
   <g id="patch_3">
    <path d="M 62.7 312.038125 
L 62.7 22.318125 
" style="fill: none; stroke: #000000; stroke-width: 0.8; stroke-linejoin: miter; stroke-linecap: square"/>
   </g>
   <g id="patch_4">
    <path d="M 558.628258 312.038125 
L 558.628258 22.318125 
" style="fill: none; stroke: #000000; stroke-width: 0.8; stroke-linejoin: miter; stroke-linecap: square"/>
   </g>
   <g id="patch_5">
    <path d="M 62.7 312.038125 
L 558.628258 312.038125 
" style="fill: none; stroke: #000000; stroke-width: 0.8; stroke-linejoin: miter; stroke-linecap: square"/>
   </g>
   <g id="patch_6">
    <path d="M 62.7 22.318125 
L 558.628258 22.318125 
" style="fill: none; stroke: #000000; stroke-width: 0.8; stroke-linejoin: miter; stroke-linecap: square"/>
   </g>
   <g id="text_12">
    <!-- Fraction below SQL vs $\omega$ -->
    <g transform="translate(237.284129 16.318125) scale(0.12 -0.12)">
     <defs>
      <path id="DejaVuSans-46" d="M 628 4666 
L 3309 4666 
L 3309 4134 
L 1259 4134 
L 1259 2759 
L 3109 2759 
L 3109 2228 
L 1259 2228 
L 1259 0 
L 628 0 
L 628 4666 
z
" transform="scale(0.015625)"/>
      <path id="DejaVuSans-72" d="M 2631 2963 
Q 2534 3019 2420 3045 
Q 2306 3072 2169 3072 
Q 1681 3072 1420 2755 
Q 1159 2438 1159 1844 
L 1159 0 
L 581 0 
L 581 3500 
L 1159 3500 
L 1159 2956 
Q 1341 3275 1631 3429 
Q 1922 3584 2338 3584 
Q 2397 3584 2469 3576 
Q 2541 3569 2628 3553 
L 2631 2963 
z
" transform="scale(0.015625)"/>
      <path id="DejaVuSans-61" d="M 2194 1759 
Q 1497 1759 1228 1600 
Q 959 1441 959 1056 
Q 959 750 1161 570 
Q 1363 391 1709 391 
Q 2188 391 2477 730 
Q 2766 1069 2766 1631 
L 2766 1759 
L 2194 1759 
z
M 3341 1997 
L 3341 0 
L 2766 0 
L 2766 531 
Q 2569 213 2275 61 
Q 1981 -91 1556 -91 
Q 1019 -91 701 211 
Q 384 513 384 1019 
Q 384 1609 779 1909 
Q 1175 2209 1959 2209 
L 2766 2209 
L 2766 2266 
Q 2766 2663 2505 2880 
Q 2244 3097 1772 3097 
Q 1472 3097 1187 3025 
Q 903 2953 641 2809 
L 641 3341 
Q 956 3463 1253 3523 
Q 1550 3584 1831 3584 
Q 2591 3584 2966 3190 
Q 3341 2797 3341 1997 
z
" transform="scale(0.015625)"/>
      <path id="DejaVuSans-63" d="M 3122 3366 
L 3122 2828 
Q 2878 2963 2633 3030 
Q 2388 3097 2138 3097 
Q 1578 3097 1268 2742 
Q 959 2388 959 1747 
Q 959 1106 1268 751 
Q 1578 397 2138 397 
Q 2388 397 2633 464 
Q 2878 531 3122 666 
L 3122 134 
Q 2881 22 2623 -34 
Q 2366 -91 2075 -91 
Q 1284 -91 818 406 
Q 353 903 353 1747 
Q 353 2603 823 3093 
Q 1294 3584 2113 3584 
Q 2378 3584 2631 3529 
Q 2884 3475 3122 3366 
z
" transform="scale(0.015625)"/>
      <path id="DejaVuSans-74" d="M 1172 4494 
L 1172 3500 
L 2356 3500 
L 2356 3053 
L 1172 3053 
L 1172 1153 
Q 1172 725 1289 603 
Q 1406 481 1766 481 
L 2356 481 
L 2356 0 
L 1766 0 
Q 1100 0 847 248 
Q 594 497 594 1153 
L 594 3053 
L 172 3053 
L 172 3500 
L 594 3500 
L 594 4494 
L 1172 4494 
z
" transform="scale(0.015625)"/>
      <path id="DejaVuSans-69" d="M 603 3500 
L 1178 3500 
L 1178 0 
L 603 0 
L 603 3500 
z
M 603 4863 
L 1178 4863 
L 1178 4134 
L 603 4134 
L 603 4863 
z
" transform="scale(0.015625)"/>
      <path id="DejaVuSans-6f" d="M 1959 3097 
Q 1497 3097 1228 2736 
Q 959 2375 959 1747 
Q 959 1119 1226 758 
Q 1494 397 1959 397 
Q 2419 397 2687 759 
Q 2956 1122 2956 1747 
Q 2956 2369 2687 2733 
Q 2419 3097 1959 3097 
z
M 1959 3584 
Q 2709 3584 3137 3096 
Q 3566 2609 3566 1747 
Q 3566 888 3137 398 
Q 2709 -91 1959 -91 
Q 1206 -91 779 398 
Q 353 888 353 1747 
Q 353 2609 779 3096 
Q 1206 3584 1959 3584 
z
" transform="scale(0.015625)"/>
      <path id="DejaVuSans-6e" d="M 3513 2113 
L 3513 0 
L 2938 0 
L 2938 2094 
Q 2938 2591 2744 2837 
Q 2550 3084 2163 3084 
Q 1697 3084 1428 2787 
Q 1159 2491 1159 1978 
L 1159 0 
L 581 0 
L 581 3500 
L 1159 3500 
L 1159 2956 
Q 1366 3272 1645 3428 
Q 1925 3584 2291 3584 
Q 2894 3584 3203 3211 
Q 3513 2838 3513 2113 
z
" transform="scale(0.015625)"/>
      <path id="DejaVuSans-20" transform="scale(0.015625)"/>
      <path id="DejaVuSans-62" d="M 3116 1747 
Q 3116 2381 2855 2742 
Q 2594 3103 2138 3103 
Q 1681 3103 1420 2742 
Q 1159 2381 1159 1747 
Q 1159 1113 1420 752 
Q 1681 391 2138 391 
Q 2594 391 2855 752 
Q 3116 1113 3116 1747 
z
M 1159 2969 
Q 1341 3281 1617 3432 
Q 1894 3584 2278 3584 
Q 2916 3584 3314 3078 
Q 3713 2572 3713 1747 
Q 3713 922 3314 415 
Q 2916 -91 2278 -91 
Q 1894 -91 1617 61 
Q 1341 213 1159 525 
L 1159 0 
L 581 0 
L 581 4863 
L 1159 4863 
L 1159 2969 
z
" transform="scale(0.015625)"/>
      <path id="DejaVuSans-65" d="M 3597 1894 
L 3597 1613 
L 953 1613 
Q 991 1019 1311 708 
Q 1631 397 2203 397 
Q 2534 397 2845 478 
Q 3156 559 3463 722 
L 3463 178 
Q 3153 47 2828 -22 
Q 2503 -91 2169 -91 
Q 1331 -91 842 396 
Q 353 884 353 1716 
Q 353 2575 817 3079 
Q 1281 3584 2069 3584 
Q 2775 3584 3186 3129 
Q 3597 2675 3597 1894 
z
M 3022 2063 
Q 3016 2534 2758 2815 
Q 2500 3097 2075 3097 
Q 1594 3097 1305 2825 
Q 1016 2553 972 2059 
L 3022 2063 
z
" transform="scale(0.015625)"/>
      <path id="DejaVuSans-6c" d="M 603 4863 
L 1178 4863 
L 1178 0 
L 603 0 
L 603 4863 
z
" transform="scale(0.015625)"/>
      <path id="DejaVuSans-77" d="M 269 3500 
L 844 3500 
L 1563 769 
L 2278 3500 
L 2956 3500 
L 3675 769 
L 4391 3500 
L 4966 3500 
L 4050 0 
L 3372 0 
L 2619 2869 
L 1863 0 
L 1184 0 
L 269 3500 
z
" transform="scale(0.015625)"/>
      <path id="DejaVuSans-76" d="M 191 3500 
L 800 3500 
L 1894 563 
L 2988 3500 
L 3597 3500 
L 2284 0 
L 1503 0 
L 191 3500 
z
" transform="scale(0.015625)"/>
      <path id="DejaVuSans-73" d="M 2834 3397 
L 2834 2853 
Q 2591 2978 2328 3040 
Q 2066 3103 1784 3103 
Q 1356 3103 1142 2972 
Q 928 2841 928 2578 
Q 928 2378 1081 2264 
Q 1234 2150 1697 2047 
L 1894 2003 
Q 2506 1872 2764 1633 
Q 3022 1394 3022 966 
Q 3022 478 2636 193 
Q 2250 -91 1575 -91 
Q 1294 -91 989 -36 
Q 684 19 347 128 
L 347 722 
Q 666 556 975 473 
Q 1284 391 1588 391 
Q 1994 391 2212 530 
Q 2431 669 2431 922 
Q 2431 1156 2273 1281 
Q 2116 1406 1581 1522 
L 1381 1569 
Q 847 1681 609 1914 
Q 372 2147 372 2553 
Q 372 3047 722 3315 
Q 1072 3584 1716 3584 
Q 2034 3584 2315 3537 
Q 2597 3491 2834 3397 
z
" transform="scale(0.015625)"/>
     </defs>
     <use xlink:href="#DejaVuSans-46" transform="translate(0 0.015625)"/>
     <use xlink:href="#DejaVuSans-72" transform="translate(57.519531 0.015625)"/>
     <use xlink:href="#DejaVuSans-61" transform="translate(98.632812 0.015625)"/>
     <use xlink:href="#DejaVuSans-63" transform="translate(159.912109 0.015625)"/>
     <use xlink:href="#DejaVuSans-74" transform="translate(214.892578 0.015625)"/>
     <use xlink:href="#DejaVuSans-69" transform="translate(254.101562 0.015625)"/>
     <use xlink:href="#DejaVuSans-6f" transform="translate(281.884766 0.015625)"/>
     <use xlink:href="#DejaVuSans-6e" transform="translate(343.066406 0.015625)"/>
     <use xlink:href="#DejaVuSans-20" transform="translate(406.445312 0.015625)"/>
     <use xlink:href="#DejaVuSans-62" transform="translate(438.232422 0.015625)"/>
     <use xlink:href="#DejaVuSans-65" transform="translate(501.708984 0.015625)"/>
     <use xlink:href="#DejaVuSans-6c" transform="translate(563.232422 0.015625)"/>
     <use xlink:href="#DejaVuSans-6f" transform="translate(591.015625 0.015625)"/>
     <use xlink:href="#DejaVuSans-77" transform="translate(652.197266 0.015625)"/>
     <use xlink:href="#DejaVuSans-20" transform="translate(733.984375 0.015625)"/>
     <use xlink:href="#DejaVuSans-53" transform="translate(765.771484 0.015625)"/>
     <use xlink:href="#DejaVuSans-51" transform="translate(829.248047 0.015625)"/>
     <use xlink:href="#DejaVuSans-4c" transform="translate(907.958984 0.015625)"/>
     <use xlink:href="#DejaVuSans-20" transform="translate(963.671875 0.015625)"/>
     <use xlink:href="#DejaVuSans-76" transform="translate(995.458984 0.015625)"/>
     <use xlink:href="#DejaVuSans-73" transform="translate(1054.638672 0.015625)"/>
     <use xlink:href="#DejaVuSans-20" transform="translate(1106.738281 0.015625)"/>
     <use xlink:href="#DejaVuSans-Oblique-3c9" transform="translate(1138.525391 0.015625)"/>
    </g>
   </g>
   <g id="legend_1">
    <g id="patch_7">
     <path d="M 440.354195 96.489375 
L 552.328258 96.489375 
Q 554.128258 96.489375 554.128258 94.689375 
L 554.128258 28.618125 
Q 554.128258 26.818125 552.328258 26.818125 
L 440.354195 26.818125 
Q 438.554195 26.818125 438.554195 28.618125 
L 438.554195 94.689375 
Q 438.554195 96.489375 440.354195 96.489375 
z
" style="fill: #ffffff; opacity: 0.8; stroke: #cccccc; stroke-linejoin: miter"/>
    </g>
    <g id="line2d_19">
     <path d="M 442.154195 34.106719 
L 451.154195 34.106719 
L 460.154195 34.106719 
" style="fill: none; stroke: #1f77b4; stroke-width: 1.5; stroke-linecap: square"/>
     <g>
      <use xlink:href="#m3eb418bfa4" x="451.154195" y="34.106719" style="fill: #1f77b4; stroke: #1f77b4"/>
     </g>
    </g>
    <g id="text_13">
     <!-- 2D slice $(a_x, a_{zz})$ -->
     <g transform="translate(467.354195 37.256719) scale(0.09 -0.09)">
      <defs>
       <path id="DejaVuSans-44" d="M 1259 4147 
L 1259 519 
L 2022 519 
Q 2988 519 3436 956 
Q 3884 1394 3884 2338 
Q 3884 3275 3436 3711 
Q 2988 4147 2022 4147 
L 1259 4147 
z
M 628 4666 
L 1925 4666 
Q 3281 4666 3915 4102 
Q 4550 3538 4550 2338 
Q 4550 1131 3912 565 
Q 3275 0 1925 0 
L 628 0 
L 628 4666 
z
" transform="scale(0.015625)"/>
       <path id="DejaVuSans-28" d="M 1984 4856 
Q 1566 4138 1362 3434 
Q 1159 2731 1159 2009 
Q 1159 1288 1364 580 
Q 1569 -128 1984 -844 
L 1484 -844 
Q 1016 -109 783 600 
Q 550 1309 550 2009 
Q 550 2706 781 3412 
Q 1013 4119 1484 4856 
L 1984 4856 
z
" transform="scale(0.015625)"/>
       <path id="DejaVuSans-Oblique-61" d="M 3438 1997 
L 3047 0 
L 2472 0 
L 2578 531 
Q 2325 219 2001 64 
Q 1678 -91 1281 -91 
Q 834 -91 548 182 
Q 263 456 263 884 
Q 263 1497 752 1853 
Q 1241 2209 2100 2209 
L 2900 2209 
L 2931 2363 
Q 2938 2388 2941 2417 
Q 2944 2447 2944 2509 
Q 2944 2788 2717 2942 
Q 2491 3097 2081 3097 
Q 1800 3097 1504 3025 
Q 1209 2953 897 2809 
L 997 3341 
Q 1322 3463 1633 3523 
Q 1944 3584 2234 3584 
Q 2853 3584 3176 3315 
Q 3500 3047 3500 2534 
Q 3500 2431 3484 2292 
Q 3469 2153 3438 1997 
z
M 2816 1759 
L 2241 1759 
Q 1534 1759 1195 1570 
Q 856 1381 856 984 
Q 856 709 1029 553 
Q 1203 397 1509 397 
Q 1978 397 2328 733 
Q 2678 1069 2791 1631 
L 2816 1759 
z
" transform="scale(0.015625)"/>
       <path id="DejaVuSans-Oblique-78" d="M 3841 3500 
L 2234 1784 
L 3219 0 
L 2559 0 
L 1819 1388 
L 531 0 
L -166 0 
L 1556 1844 
L 641 3500 
L 1300 3500 
L 1972 2234 
L 3144 3500 
L 3841 3500 
z
" transform="scale(0.015625)"/>
       <path id="DejaVuSans-2c" d="M 750 794 
L 1409 794 
L 1409 256 
L 897 -744 
L 494 -744 
L 750 256 
L 750 794 
z
" transform="scale(0.015625)"/>
       <path id="DejaVuSans-Oblique-7a" d="M 744 3500 
L 3475 3500 
L 3372 2975 
L 738 459 
L 2913 459 
L 2822 0 
L -19 0 
L 84 525 
L 2719 3041 
L 653 3041 
L 744 3500 
z
" transform="scale(0.015625)"/>
       <path id="DejaVuSans-29" d="M 513 4856 
L 1013 4856 
Q 1481 4119 1714 3412 
Q 1947 2706 1947 2009 
Q 1947 1309 1714 600 
Q 1481 -109 1013 -844 
L 513 -844 
Q 928 -128 1133 580 
Q 1338 1288 1338 2009 
Q 1338 2731 1133 3434 
Q 928 4138 513 4856 
z
" transform="scale(0.015625)"/>
      </defs>
      <use xlink:href="#DejaVuSans-32" transform="translate(0 0.015625)"/>
      <use xlink:href="#DejaVuSans-44" transform="translate(63.623047 0.015625)"/>
      <use xlink:href="#DejaVuSans-20" transform="translate(140.625 0.015625)"/>
      <use xlink:href="#DejaVuSans-73" transform="translate(172.412109 0.015625)"/>
      <use xlink:href="#DejaVuSans-6c" transform="translate(224.511719 0.015625)"/>
      <use xlink:href="#DejaVuSans-69" transform="translate(252.294922 0.015625)"/>
      <use xlink:href="#DejaVuSans-63" transform="translate(280.078125 0.015625)"/>
      <use xlink:href="#DejaVuSans-65" transform="translate(335.058594 0.015625)"/>
      <use xlink:href="#DejaVuSans-20" transform="translate(396.582031 0.015625)"/>
      <use xlink:href="#DejaVuSans-28" transform="translate(428.369141 0.015625)"/>
      <use xlink:href="#DejaVuSans-Oblique-61" transform="translate(467.382812 0.015625)"/>
      <use xlink:href="#DejaVuSans-Oblique-78" transform="translate(528.662109 -16.390625) scale(0.7)"/>
      <use xlink:href="#DejaVuSans-2c" transform="translate(572.822266 0.015625)"/>
      <use xlink:href="#DejaVuSans-Oblique-61" transform="translate(624.091797 0.015625)"/>
      <use xlink:href="#DejaVuSans-Oblique-7a" transform="translate(685.371094 -16.390625) scale(0.7)"/>
      <use xlink:href="#DejaVuSans-Oblique-7a" transform="translate(722.114258 -16.390625) scale(0.7)"/>
      <use xlink:href="#DejaVuSans-29" transform="translate(761.591797 0.015625)"/>
     </g>
    </g>
    <g id="line2d_20">
     <path d="M 442.154195 47.318437 
L 451.154195 47.318437 
L 460.154195 47.318437 
" style="fill: none; stroke: #ff7f0e; stroke-width: 1.5; stroke-linecap: square"/>
     <g>
      <use xlink:href="#m842068fd62" x="451.154195" y="47.318437" style="fill: #ff7f0e; stroke: #ff7f0e; stroke-linejoin: miter"/>
     </g>
    </g>
    <g id="text_14">
     <!-- 2D slice $(a_y, a_{zz})$ -->
     <g transform="translate(467.354195 50.468437) scale(0.09 -0.09)">
      <defs>
       <path id="DejaVuSans-Oblique-79" d="M 1588 -325 
Q 1188 -997 936 -1164 
Q 684 -1331 294 -1331 
L -159 -1331 
L -63 -850 
L 269 -850 
Q 509 -850 678 -719 
Q 847 -588 1056 -206 
L 1234 128 
L 459 3500 
L 1069 3500 
L 1650 819 
L 3256 3500 
L 3859 3500 
L 1588 -325 
z
" transform="scale(0.015625)"/>
      </defs>
      <use xlink:href="#DejaVuSans-32" transform="translate(0 0.015625)"/>
      <use xlink:href="#DejaVuSans-44" transform="translate(63.623047 0.015625)"/>
      <use xlink:href="#DejaVuSans-20" transform="translate(140.625 0.015625)"/>
      <use xlink:href="#DejaVuSans-73" transform="translate(172.412109 0.015625)"/>
      <use xlink:href="#DejaVuSans-6c" transform="translate(224.511719 0.015625)"/>
      <use xlink:href="#DejaVuSans-69" transform="translate(252.294922 0.015625)"/>
      <use xlink:href="#DejaVuSans-63" transform="translate(280.078125 0.015625)"/>
      <use xlink:href="#DejaVuSans-65" transform="translate(335.058594 0.015625)"/>
      <use xlink:href="#DejaVuSans-20" transform="translate(396.582031 0.015625)"/>
      <use xlink:href="#DejaVuSans-28" transform="translate(428.369141 0.015625)"/>
      <use xlink:href="#DejaVuSans-Oblique-61" transform="translate(467.382812 0.015625)"/>
      <use xlink:href="#DejaVuSans-Oblique-79" transform="translate(528.662109 -16.390625) scale(0.7)"/>
      <use xlink:href="#DejaVuSans-2c" transform="translate(572.822266 0.015625)"/>
      <use xlink:href="#DejaVuSans-Oblique-61" transform="translate(624.091797 0.015625)"/>
      <use xlink:href="#DejaVuSans-Oblique-7a" transform="translate(685.371094 -16.390625) scale(0.7)"/>
      <use xlink:href="#DejaVuSans-Oblique-7a" transform="translate(722.114258 -16.390625) scale(0.7)"/>
      <use xlink:href="#DejaVuSans-29" transform="translate(761.591797 0.015625)"/>
     </g>
    </g>
    <g id="line2d_21">
     <path d="M 442.154195 61.447031 
L 451.154195 61.447031 
L 460.154195 61.447031 
" style="fill: none; stroke: #9467bd; stroke-width: 1.5; stroke-linecap: square"/>
     <g>
      <use xlink:href="#m2b197d12d4" x="451.154195" y="61.447031" style="fill: #9467bd; stroke: #9467bd; stroke-linejoin: miter"/>
     </g>
    </g>
    <g id="text_15">
     <!-- 2D slice $(a_z, a_{zz})$ -->
     <g transform="translate(467.354195 64.597031) scale(0.09 -0.09)">
      <use xlink:href="#DejaVuSans-32" transform="translate(0 0.015625)"/>
      <use xlink:href="#DejaVuSans-44" transform="translate(63.623047 0.015625)"/>
      <use xlink:href="#DejaVuSans-20" transform="translate(140.625 0.015625)"/>
      <use xlink:href="#DejaVuSans-73" transform="translate(172.412109 0.015625)"/>
      <use xlink:href="#DejaVuSans-6c" transform="translate(224.511719 0.015625)"/>
      <use xlink:href="#DejaVuSans-69" transform="translate(252.294922 0.015625)"/>
      <use xlink:href="#DejaVuSans-63" transform="translate(280.078125 0.015625)"/>
      <use xlink:href="#DejaVuSans-65" transform="translate(335.058594 0.015625)"/>
      <use xlink:href="#DejaVuSans-20" transform="translate(396.582031 0.015625)"/>
      <use xlink:href="#DejaVuSans-28" transform="translate(428.369141 0.015625)"/>
      <use xlink:href="#DejaVuSans-Oblique-61" transform="translate(467.382812 0.015625)"/>
      <use xlink:href="#DejaVuSans-Oblique-7a" transform="translate(528.662109 -16.390625) scale(0.7)"/>
      <use xlink:href="#DejaVuSans-2c" transform="translate(568.139648 0.015625)"/>
      <use xlink:href="#DejaVuSans-Oblique-61" transform="translate(619.40918 0.015625)"/>
      <use xlink:href="#DejaVuSans-Oblique-7a" transform="translate(680.688477 -16.390625) scale(0.7)"/>
      <use xlink:href="#DejaVuSans-Oblique-7a" transform="translate(717.431641 -16.390625) scale(0.7)"/>
      <use xlink:href="#DejaVuSans-29" transform="translate(756.90918 0.015625)"/>
     </g>
    </g>
    <g id="line2d_22">
     <path d="M 442.154195 74.657344 
L 451.154195 74.657344 
L 460.154195 74.657344 
" style="fill: none; stroke: #2ca02c; stroke-width: 1.5; stroke-linecap: square"/>
     <g>
      <use xlink:href="#medcff9d9c6" x="451.154195" y="74.657344" style="fill: #2ca02c; stroke: #2ca02c; stroke-linejoin: miter"/>
     </g>
    </g>
    <g id="text_16">
     <!-- 4D random search -->
     <g transform="translate(467.354195 77.807344) scale(0.09 -0.09)">
      <defs>
       <path id="DejaVuSans-64" d="M 2906 2969 
L 2906 4863 
L 3481 4863 
L 3481 0 
L 2906 0 
L 2906 525 
Q 2725 213 2448 61 
Q 2172 -91 1784 -91 
Q 1150 -91 751 415 
Q 353 922 353 1747 
Q 353 2572 751 3078 
Q 1150 3584 1784 3584 
Q 2172 3584 2448 3432 
Q 2725 3281 2906 2969 
z
M 947 1747 
Q 947 1113 1208 752 
Q 1469 391 1925 391 
Q 2381 391 2643 752 
Q 2906 1113 2906 1747 
Q 2906 2381 2643 2742 
Q 2381 3103 1925 3103 
Q 1469 3103 1208 2742 
Q 947 2381 947 1747 
z
" transform="scale(0.015625)"/>
       <path id="DejaVuSans-6d" d="M 3328 2828 
Q 3544 3216 3844 3400 
Q 4144 3584 4550 3584 
Q 5097 3584 5394 3201 
Q 5691 2819 5691 2113 
L 5691 0 
L 5113 0 
L 5113 2094 
Q 5113 2597 4934 2840 
Q 4756 3084 4391 3084 
Q 3944 3084 3684 2787 
Q 3425 2491 3425 1978 
L 3425 0 
L 2847 0 
L 2847 2094 
Q 2847 2600 2669 2842 
Q 2491 3084 2119 3084 
Q 1678 3084 1418 2786 
Q 1159 2488 1159 1978 
L 1159 0 
L 581 0 
L 581 3500 
L 1159 3500 
L 1159 2956 
Q 1356 3278 1631 3431 
Q 1906 3584 2284 3584 
Q 2666 3584 2933 3390 
Q 3200 3197 3328 2828 
z
" transform="scale(0.015625)"/>
       <path id="DejaVuSans-68" d="M 3513 2113 
L 3513 0 
L 2938 0 
L 2938 2094 
Q 2938 2591 2744 2837 
Q 2550 3084 2163 3084 
Q 1697 3084 1428 2787 
Q 1159 2491 1159 1978 
L 1159 0 
L 581 0 
L 581 4863 
L 1159 4863 
L 1159 2956 
Q 1366 3272 1645 3428 
Q 1925 3584 2291 3584 
Q 2894 3584 3203 3211 
Q 3513 2838 3513 2113 
z
" transform="scale(0.015625)"/>
      </defs>
      <use xlink:href="#DejaVuSans-34"/>
      <use xlink:href="#DejaVuSans-44" transform="translate(63.623047 0)"/>
      <use xlink:href="#DejaVuSans-20" transform="translate(140.625 0)"/>
      <use xlink:href="#DejaVuSans-72" transform="translate(172.412109 0)"/>
      <use xlink:href="#DejaVuSans-61" transform="translate(213.525391 0)"/>
      <use xlink:href="#DejaVuSans-6e" transform="translate(274.804688 0)"/>
      <use xlink:href="#DejaVuSans-64" transform="translate(338.183594 0)"/>
      <use xlink:href="#DejaVuSans-6f" transform="translate(401.660156 0)"/>
      <use xlink:href="#DejaVuSans-6d" transform="translate(462.841797 0)"/>
      <use xlink:href="#DejaVuSans-20" transform="translate(560.253906 0)"/>
      <use xlink:href="#DejaVuSans-73" transform="translate(592.041016 0)"/>
      <use xlink:href="#DejaVuSans-65" transform="translate(644.140625 0)"/>
      <use xlink:href="#DejaVuSans-61" transform="translate(705.664062 0)"/>
      <use xlink:href="#DejaVuSans-72" transform="translate(766.943359 0)"/>
      <use xlink:href="#DejaVuSans-63" transform="translate(805.806641 0)"/>
      <use xlink:href="#DejaVuSans-68" transform="translate(860.787109 0)"/>
     </g>
    </g>
    <g id="line2d_23">
     <path d="M 442.154195 87.867656 
L 451.154195 87.867656 
L 460.154195 87.867656 
" style="fill: none; stroke: #d62728; stroke-width: 1.5; stroke-linecap: square"/>
     <g>
      <use xlink:href="#m9b8d78c766" x="451.154195" y="87.867656" style="fill: #d62728; stroke: #d62728; stroke-linejoin: miter"/>
     </g>
    </g>
    <g id="text_17">
     <!-- 4D Nelder-Mead -->
     <g transform="translate(467.354195 91.017656) scale(0.09 -0.09)">
      <defs>
       <path id="DejaVuSans-4e" d="M 628 4666 
L 1478 4666 
L 3547 763 
L 3547 4666 
L 4159 4666 
L 4159 0 
L 3309 0 
L 1241 3903 
L 1241 0 
L 628 0 
L 628 4666 
z
" transform="scale(0.015625)"/>
       <path id="DejaVuSans-2d" d="M 313 2009 
L 1997 2009 
L 1997 1497 
L 313 1497 
L 313 2009 
z
" transform="scale(0.015625)"/>
       <path id="DejaVuSans-4d" d="M 628 4666 
L 1569 4666 
L 2759 1491 
L 3956 4666 
L 4897 4666 
L 4897 0 
L 4281 0 
L 4281 4097 
L 3078 897 
L 2444 897 
L 1241 4097 
L 1241 0 
L 628 0 
L 628 4666 
z
" transform="scale(0.015625)"/>
      </defs>
      <use xlink:href="#DejaVuSans-34"/>
      <use xlink:href="#DejaVuSans-44" transform="translate(63.623047 0)"/>
      <use xlink:href="#DejaVuSans-20" transform="translate(140.625 0)"/>
      <use xlink:href="#DejaVuSans-4e" transform="translate(172.412109 0)"/>
      <use xlink:href="#DejaVuSans-65" transform="translate(247.216797 0)"/>
      <use xlink:href="#DejaVuSans-6c" transform="translate(308.740234 0)"/>
      <use xlink:href="#DejaVuSans-64" transform="translate(336.523438 0)"/>
      <use xlink:href="#DejaVuSans-65" transform="translate(400 0)"/>
      <use xlink:href="#DejaVuSans-72" transform="translate(461.523438 0)"/>
      <use xlink:href="#DejaVuSans-2d" transform="translate(496.261719 0)"/>
      <use xlink:href="#DejaVuSans-4d" transform="translate(532.345703 0)"/>
      <use xlink:href="#DejaVuSans-65" transform="translate(618.625 0)"/>
      <use xlink:href="#DejaVuSans-61" transform="translate(680.148438 0)"/>
      <use xlink:href="#DejaVuSans-64" transform="translate(741.427734 0)"/>
     </g>
    </g>
   </g>
  </g>
 </g>
 <defs>
  <clipPath id="p2faa0b11bf">
   <rect x="62.7" y="22.318125" width="495.928258" height="289.72"/>
  </clipPath>
 </defs>
</svg>
