<?xml version="1.0" encoding="utf-8" standalone="no"?>
<!DOCTYPE svg PUBLIC "-//W3C//DTD SVG 1.1//EN"
  "http://www.w3.org/Graphics/SVG/1.1/DTD/svg11.dtd">
<svg xmlns:xlink="http://www.w3.org/1999/xlink" width="568.52375pt" height="349.59625pt" viewBox="0 0 568.52375 349.59625" xmlns="http://www.w3.org/2000/svg" version="1.1">
 <metadata>
  <rdf:RDF xmlns:dc="http://purl.org/dc/elements/1.1/" xmlns:cc="http://creativecommons.org/ns#" xmlns:rdf="http://www.w3.org/1999/02/22-rdf-syntax-ns#">
   <cc:Work>
    <dc:type rdf:resource="http://purl.org/dc/dcmitype/StillImage"/>
    <dc:date>2026-07-09T10:47:30.341389</dc:date>
    <dc:format>image/svg+xml</dc:format>
    <dc:creator>
     <cc:Agent>
      <dc:title>Matplotlib v3.10.9, https://matplotlib.org/</dc:title>
     </cc:Agent>
    </dc:creator>
   </cc:Work>
  </rdf:RDF>
 </metadata>
 <defs>
  <style type="text/css">*{stroke-linejoin: round; stroke-linecap: butt}</style>
 </defs>
 <g id="figure_1">
  <g id="patch_1">
   <path d="M 0 349.59625 
L 568.52375 349.59625 
L 568.52375 0 
L 0 0 
z
" style="fill: #ffffff"/>
  </g>
  <g id="axes_1">
   <g id="patch_2">
    <path d="M 50.14375 312.04 
L 561.32375 312.04 
L 561.32375 22.32 
L 50.14375 22.32 
z
" style="fill: #ffffff"/>
   </g>
   <g id="matplotlib.axis_1">
    <g id="xtick_1">
     <g id="line2d_1">
      <defs>
       <path id="m67ea457a5e" d="M 0 0 
L 0 3.5 
" style="stroke: #000000; stroke-width: 0.8"/>
      </defs>
      <g>
       <use xlink:href="#m67ea457a5e" x="63.895346" y="312.04" style="stroke: #000000; stroke-width: 0.8"/>
      </g>
     </g>
     <g id="text_1">
      <!-- 0 -->
      <g transform="translate(60.714096 326.638438) scale(0.1 -0.1)">
       <defs>
        <path id="DejaVuSans-30" d="M 2034 4250 
Q 1547 4250 1301 3770 
Q 1056 3291 1056 2328 
Q 1056 1369 1301 889 
Q 1547 409 2034 409 
Q 2525 409 2770 889 
Q 3016 1369 3016 2328 
Q 3016 3291 2770 3770 
Q 2525 4250 2034 4250 
z
M 2034 4750 
Q 2819 4750 3233 4129 
Q 3647 3509 3647 2328 
Q 3647 1150 3233 529 
Q 2819 -91 2034 -91 
Q 1250 -91 836 529 
Q 422 1150 422 2328 
Q 422 3509 836 4129 
Q 1250 4750 2034 4750 
z
" transform="scale(0.015625)"/>
       </defs>
       <use xlink:href="#DejaVuSans-30"/>
      </g>
     </g>
    </g>
    <g id="xtick_2">
     <g id="line2d_2">
      <g>
       <use xlink:href="#m67ea457a5e" x="158.733936" y="312.04" style="stroke: #000000; stroke-width: 0.8"/>
      </g>
     </g>
     <g id="text_2">
      <!-- 1 -->
      <g transform="translate(155.552686 326.638438) scale(0.1 -0.1)">
       <defs>
        <path id="DejaVuSans-31" d="M 794 531 
L 1825 531 
L 1825 4091 
L 703 3866 
L 703 4441 
L 1819 4666 
L 2450 4666 
L 2450 531 
L 3481 531 
L 3481 0 
L 794 0 
L 794 531 
z
" transform="scale(0.015625)"/>
       </defs>
       <use xlink:href="#DejaVuSans-31"/>
      </g>
     </g>
    </g>
    <g id="xtick_3">
     <g id="line2d_3">
      <g>
       <use xlink:href="#m67ea457a5e" x="253.572526" y="312.04" style="stroke: #000000; stroke-width: 0.8"/>
      </g>
     </g>
     <g id="text_3">
      <!-- 2 -->
      <g transform="translate(250.391276 326.638438) scale(0.1 -0.1)">
       <defs>
        <path id="DejaVuSans-32" d="M 1228 531 
L 3431 531 
L 3431 0 
L 469 0 
L 469 531 
Q 828 903 1448 1529 
Q 2069 2156 2228 2338 
Q 2531 2678 2651 2914 
Q 2772 3150 2772 3378 
Q 2772 3750 2511 3984 
Q 2250 4219 1831 4219 
Q 1534 4219 1204 4116 
Q 875 4013 500 3803 
L 500 4441 
Q 881 4594 1212 4672 
Q 1544 4750 1819 4750 
Q 2544 4750 2975 4387 
Q 3406 4025 3406 3419 
Q 3406 3131 3298 2873 
Q 3191 2616 2906 2266 
Q 2828 2175 2409 1742 
Q 1991 1309 1228 531 
z
" transform="scale(0.015625)"/>
       </defs>
       <use xlink:href="#DejaVuSans-32"/>
      </g>
     </g>
    </g>
    <g id="xtick_4">
     <g id="line2d_4">
      <g>
       <use xlink:href="#m67ea457a5e" x="348.411115" y="312.04" style="stroke: #000000; stroke-width: 0.8"/>
      </g>
     </g>
     <g id="text_4">
      <!-- 3 -->
      <g transform="translate(345.229865 326.638438) scale(0.1 -0.1)">
       <defs>
        <path id="DejaVuSans-33" d="M 2597 2516 
Q 3050 2419 3304 2112 
Q 3559 1806 3559 1356 
Q 3559 666 3084 287 
Q 2609 -91 1734 -91 
Q 1441 -91 1130 -33 
Q 819 25 488 141 
L 488 750 
Q 750 597 1062 519 
Q 1375 441 1716 441 
Q 2309 441 2620 675 
Q 2931 909 2931 1356 
Q 2931 1769 2642 2001 
Q 2353 2234 1838 2234 
L 1294 2234 
L 1294 2753 
L 1863 2753 
Q 2328 2753 2575 2939 
Q 2822 3125 2822 3475 
Q 2822 3834 2567 4026 
Q 2313 4219 1838 4219 
Q 1578 4219 1281 4162 
Q 984 4106 628 3988 
L 628 4550 
Q 988 4650 1302 4700 
Q 1616 4750 1894 4750 
Q 2613 4750 3031 4423 
Q 3450 4097 3450 3541 
Q 3450 3153 3228 2886 
Q 3006 2619 2597 2516 
z
" transform="scale(0.015625)"/>
       </defs>
       <use xlink:href="#DejaVuSans-33"/>
      </g>
     </g>
    </g>
    <g id="xtick_5">
     <g id="line2d_5">
      <g>
       <use xlink:href="#m67ea457a5e" x="443.249705" y="312.04" style="stroke: #000000; stroke-width: 0.8"/>
      </g>
     </g>
     <g id="text_5">
      <!-- 4 -->
      <g transform="translate(440.068455 326.638438) scale(0.1 -0.1)">
       <defs>
        <path id="DejaVuSans-34" d="M 2419 4116 
L 825 1625 
L 2419 1625 
L 2419 4116 
z
M 2253 4666 
L 3047 4666 
L 3047 1625 
L 3713 1625 
L 3713 1100 
L 3047 1100 
L 3047 0 
L 2419 0 
L 2419 1100 
L 313 1100 
L 313 1709 
L 2253 4666 
z
" transform="scale(0.015625)"/>
       </defs>
       <use xlink:href="#DejaVuSans-34"/>
      </g>
     </g>
    </g>
    <g id="xtick_6">
     <g id="line2d_6">
      <g>
       <use xlink:href="#m67ea457a5e" x="538.088295" y="312.04" style="stroke: #000000; stroke-width: 0.8"/>
      </g>
     </g>
     <g id="text_6">
      <!-- 5 -->
      <g transform="translate(534.907045 326.638438) scale(0.1 -0.1)">
       <defs>
        <path id="DejaVuSans-35" d="M 691 4666 
L 3169 4666 
L 3169 4134 
L 1269 4134 
L 1269 2991 
Q 1406 3038 1543 3061 
Q 1681 3084 1819 3084 
Q 2600 3084 3056 2656 
Q 3513 2228 3513 1497 
Q 3513 744 3044 326 
Q 2575 -91 1722 -91 
Q 1428 -91 1123 -41 
Q 819 9 494 109 
L 494 744 
Q 775 591 1075 516 
Q 1375 441 1709 441 
Q 2250 441 2565 725 
Q 2881 1009 2881 1497 
Q 2881 1984 2565 2268 
Q 2250 2553 1709 2553 
Q 1456 2553 1204 2497 
Q 953 2441 691 2322 
L 691 4666 
z
" transform="scale(0.015625)"/>
       </defs>
       <use xlink:href="#DejaVuSans-35"/>
      </g>
     </g>
    </g>
    <g id="text_7">
     <!-- $\omega$ -->
     <g transform="translate(301.53375 340.316562) scale(0.1 -0.1)">
      <defs>
       <path id="DejaVuSans-Oblique-3c9" d="M 1369 -91 
Q 72 -91 434 1766 
Q 575 2500 1256 3500 
L 1875 3500 
Q 1231 2500 1088 1750 
Q 819 397 1519 397 
Q 2166 397 2478 2078 
L 3009 2078 
Q 2669 388 3316 397 
Q 4013 403 4275 1750 
Q 4419 2500 4169 3500 
L 4788 3500 
Q 5075 2500 4934 1766 
Q 4578 -94 3278 -91 
Q 2428 -88 2503 844 
Q 2194 -91 1369 -91 
z
" transform="scale(0.015625)"/>
      </defs>
      <use xlink:href="#DejaVuSans-Oblique-3c9" transform="translate(0 0.3125)"/>
     </g>
    </g>
   </g>
   <g id="matplotlib.axis_2">
    <g id="ytick_1">
     <g id="line2d_7">
      <defs>
       <path id="m78afed7640" d="M 0 0 
L -3.5 0 
" style="stroke: #000000; stroke-width: 0.8"/>
      </defs>
      <g>
       <use xlink:href="#m78afed7640" x="50.14375" y="300.056601" style="stroke: #000000; stroke-width: 0.8"/>
      </g>
     </g>
     <g id="text_8">
      <!-- 0.02 -->
      <g transform="translate(20.878125 303.85582) scale(0.1 -0.1)">
       <defs>
        <path id="DejaVuSans-2e" d="M 684 794 
L 1344 794 
L 1344 0 
L 684 0 
L 684 794 
z
" transform="scale(0.015625)"/>
       </defs>
       <use xlink:href="#DejaVuSans-30"/>
       <use xlink:href="#DejaVuSans-2e" transform="translate(63.623047 0)"/>
       <use xlink:href="#DejaVuSans-30" transform="translate(95.410156 0)"/>
       <use xlink:href="#DejaVuSans-32" transform="translate(159.033203 0)"/>
      </g>
     </g>
    </g>
    <g id="ytick_2">
     <g id="line2d_8">
      <g>
       <use xlink:href="#m78afed7640" x="50.14375" y="267.078645" style="stroke: #000000; stroke-width: 0.8"/>
      </g>
     </g>
     <g id="text_9">
      <!-- 0.03 -->
      <g transform="translate(20.878125 270.877864) scale(0.1 -0.1)">
       <use xlink:href="#DejaVuSans-30"/>
       <use xlink:href="#DejaVuSans-2e" transform="translate(63.623047 0)"/>
       <use xlink:href="#DejaVuSans-30" transform="translate(95.410156 0)"/>
       <use xlink:href="#DejaVuSans-33" transform="translate(159.033203 0)"/>
      </g>
     </g>
    </g>
    <g id="ytick_3">
     <g id="line2d_9">
      <g>
       <use xlink:href="#m78afed7640" x="50.14375" y="234.10069" style="stroke: #000000; stroke-width: 0.8"/>
      </g>
     </g>
     <g id="text_10">
      <!-- 0.04 -->
      <g transform="translate(20.878125 237.899908) scale(0.1 -0.1)">
       <use xlink:href="#DejaVuSans-30"/>
       <use xlink:href="#DejaVuSans-2e" transform="translate(63.623047 0)"/>
       <use xlink:href="#DejaVuSans-30" transform="translate(95.410156 0)"/>
       <use xlink:href="#DejaVuSans-34" transform="translate(159.033203 0)"/>
      </g>
     </g>
    </g>
    <g id="ytick_4">
     <g id="line2d_10">
      <g>
       <use xlink:href="#m78afed7640" x="50.14375" y="201.122734" style="stroke: #000000; stroke-width: 0.8"/>
      </g>
     </g>
     <g id="text_11">
      <!-- 0.05 -->
      <g transform="translate(20.878125 204.921953) scale(0.1 -0.1)">
       <use xlink:href="#DejaVuSans-30"/>
       <use xlink:href="#DejaVuSans-2e" transform="translate(63.623047 0)"/>
       <use xlink:href="#DejaVuSans-30" transform="translate(95.410156 0)"/>
       <use xlink:href="#DejaVuSans-35" transform="translate(159.033203 0)"/>
      </g>
     </g>
    </g>
    <g id="ytick_5">
     <g id="line2d_11">
      <g>
       <use xlink:href="#m78afed7640" x="50.14375" y="168.144778" style="stroke: #000000; stroke-width: 0.8"/>
      </g>
     </g>
     <g id="text_12">
      <!-- 0.06 -->
      <g transform="translate(20.878125 171.943997) scale(0.1 -0.1)">
       <defs>
        <path id="DejaVuSans-36" d="M 2113 2584 
Q 1688 2584 1439 2293 
Q 1191 2003 1191 1497 
Q 1191 994 1439 701 
Q 1688 409 2113 409 
Q 2538 409 2786 701 
Q 3034 994 3034 1497 
Q 3034 2003 2786 2293 
Q 2538 2584 2113 2584 
z
M 3366 4563 
L 3366 3988 
Q 3128 4100 2886 4159 
Q 2644 4219 2406 4219 
Q 1781 4219 1451 3797 
Q 1122 3375 1075 2522 
Q 1259 2794 1537 2939 
Q 1816 3084 2150 3084 
Q 2853 3084 3261 2657 
Q 3669 2231 3669 1497 
Q 3669 778 3244 343 
Q 2819 -91 2113 -91 
Q 1303 -91 875 529 
Q 447 1150 447 2328 
Q 447 3434 972 4092 
Q 1497 4750 2381 4750 
Q 2619 4750 2861 4703 
Q 3103 4656 3366 4563 
z
" transform="scale(0.015625)"/>
       </defs>
       <use xlink:href="#DejaVuSans-30"/>
       <use xlink:href="#DejaVuSans-2e" transform="translate(63.623047 0)"/>
       <use xlink:href="#DejaVuSans-30" transform="translate(95.410156 0)"/>
       <use xlink:href="#DejaVuSans-36" transform="translate(159.033203 0)"/>
      </g>
     </g>
    </g>
    <g id="ytick_6">
     <g id="line2d_12">
      <g>
       <use xlink:href="#m78afed7640" x="50.14375" y="135.166822" style="stroke: #000000; stroke-width: 0.8"/>
      </g>
     </g>
     <g id="text_13">
      <!-- 0.07 -->
      <g transform="translate(20.878125 138.966041) scale(0.1 -0.1)">
       <defs>
        <path id="DejaVuSans-37" d="M 525 4666 
L 3525 4666 
L 3525 4397 
L 1831 0 
L 1172 0 
L 2766 4134 
L 525 4134 
L 525 4666 
z
" transform="scale(0.015625)"/>
       </defs>
       <use xlink:href="#DejaVuSans-30"/>
       <use xlink:href="#DejaVuSans-2e" transform="translate(63.623047 0)"/>
       <use xlink:href="#DejaVuSans-30" transform="translate(95.410156 0)"/>
       <use xlink:href="#DejaVuSans-37" transform="translate(159.033203 0)"/>
      </g>
     </g>
    </g>
    <g id="ytick_7">
     <g id="line2d_13">
      <g>
       <use xlink:href="#m78afed7640" x="50.14375" y="102.188866" style="stroke: #000000; stroke-width: 0.8"/>
      </g>
     </g>
     <g id="text_14">
      <!-- 0.08 -->
      <g transform="translate(20.878125 105.988085) scale(0.1 -0.1)">
       <defs>
        <path id="DejaVuSans-38" d="M 2034 2216 
Q 1584 2216 1326 1975 
Q 1069 1734 1069 1313 
Q 1069 891 1326 650 
Q 1584 409 2034 409 
Q 2484 409 2743 651 
Q 3003 894 3003 1313 
Q 3003 1734 2745 1975 
Q 2488 2216 2034 2216 
z
M 1403 2484 
Q 997 2584 770 2862 
Q 544 3141 544 3541 
Q 544 4100 942 4425 
Q 1341 4750 2034 4750 
Q 2731 4750 3128 4425 
Q 3525 4100 3525 3541 
Q 3525 3141 3298 2862 
Q 3072 2584 2669 2484 
Q 3125 2378 3379 2068 
Q 3634 1759 3634 1313 
Q 3634 634 3220 271 
Q 2806 -91 2034 -91 
Q 1263 -91 848 271 
Q 434 634 434 1313 
Q 434 1759 690 2068 
Q 947 2378 1403 2484 
z
M 1172 3481 
Q 1172 3119 1398 2916 
Q 1625 2713 2034 2713 
Q 2441 2713 2670 2916 
Q 2900 3119 2900 3481 
Q 2900 3844 2670 4047 
Q 2441 4250 2034 4250 
Q 1625 4250 1398 4047 
Q 1172 3844 1172 3481 
z
" transform="scale(0.015625)"/>
       </defs>
       <use xlink:href="#DejaVuSans-30"/>
       <use xlink:href="#DejaVuSans-2e" transform="translate(63.623047 0)"/>
       <use xlink:href="#DejaVuSans-30" transform="translate(95.410156 0)"/>
       <use xlink:href="#DejaVuSans-38" transform="translate(159.033203 0)"/>
      </g>
     </g>
    </g>
    <g id="ytick_8">
     <g id="line2d_14">
      <g>
       <use xlink:href="#m78afed7640" x="50.14375" y="69.210911" style="stroke: #000000; stroke-width: 0.8"/>
      </g>
     </g>
     <g id="text_15">
      <!-- 0.09 -->
      <g transform="translate(20.878125 73.010129) scale(0.1 -0.1)">
       <defs>
        <path id="DejaVuSans-39" d="M 703 97 
L 703 672 
Q 941 559 1184 500 
Q 1428 441 1663 441 
Q 2288 441 2617 861 
Q 2947 1281 2994 2138 
Q 2813 1869 2534 1725 
Q 2256 1581 1919 1581 
Q 1219 1581 811 2004 
Q 403 2428 403 3163 
Q 403 3881 828 4315 
Q 1253 4750 1959 4750 
Q 2769 4750 3195 4129 
Q 3622 3509 3622 2328 
Q 3622 1225 3098 567 
Q 2575 -91 1691 -91 
Q 1453 -91 1209 -44 
Q 966 3 703 97 
z
M 1959 2075 
Q 2384 2075 2632 2365 
Q 2881 2656 2881 3163 
Q 2881 3666 2632 3958 
Q 2384 4250 1959 4250 
Q 1534 4250 1286 3958 
Q 1038 3666 1038 3163 
Q 1038 2656 1286 2365 
Q 1534 2075 1959 2075 
z
" transform="scale(0.015625)"/>
       </defs>
       <use xlink:href="#DejaVuSans-30"/>
       <use xlink:href="#DejaVuSans-2e" transform="translate(63.623047 0)"/>
       <use xlink:href="#DejaVuSans-30" transform="translate(95.410156 0)"/>
       <use xlink:href="#DejaVuSans-39" transform="translate(159.033203 0)"/>
      </g>
     </g>
    </g>
    <g id="ytick_9">
     <g id="line2d_15">
      <g>
       <use xlink:href="#m78afed7640" x="50.14375" y="36.232955" style="stroke: #000000; stroke-width: 0.8"/>
      </g>
     </g>
     <g id="text_16">
      <!-- 0.10 -->
      <g transform="translate(20.878125 40.032174) scale(0.1 -0.1)">
       <use xlink:href="#DejaVuSans-30"/>
       <use xlink:href="#DejaVuSans-2e" transform="translate(63.623047 0)"/>
       <use xlink:href="#DejaVuSans-31" transform="translate(95.410156 0)"/>
       <use xlink:href="#DejaVuSans-30" transform="translate(159.033203 0)"/>
      </g>
     </g>
    </g>
    <g id="text_17">
     <!-- $\Delta\omega$ -->
     <g transform="translate(14.798438 174.83) rotate(-90) scale(0.1 -0.1)">
      <defs>
       <path id="DejaVuSans-394" d="M 2188 4044 
L 906 525 
L 3472 525 
L 2188 4044 
z
M 50 0 
L 1831 4666 
L 2547 4666 
L 4325 0 
L 50 0 
z
" transform="scale(0.015625)"/>
      </defs>
      <use xlink:href="#DejaVuSans-394" transform="translate(0 0.09375)"/>
      <use xlink:href="#DejaVuSans-Oblique-3c9" transform="translate(68.408203 0.09375)"/>
     </g>
    </g>
   </g>
   <g id="line2d_16">
    <path d="M 50.14375 132.823151 
L 561.32375 132.823151 
" clip-path="url(#p04995a653f)" style="fill: none; stroke-dasharray: 5.55,2.4; stroke-dashoffset: 0; stroke: #808080; stroke-opacity: 0.7; stroke-width: 1.5"/>
   </g>
   <g id="line2d_17">
    <path d="M 73.379205 269.356433 
L 82.863064 269.286451 
L 92.346923 269.472984 
L 101.830782 270.564058 
L 111.314641 269.294938 
L 120.7985 269.267873 
L 130.282359 258.693253 
L 139.766218 260.078511 
L 149.250077 259.25353 
L 158.733936 251.351755 
L 168.217795 249.131715 
L 177.701654 246.225021 
L 187.185513 242.403292 
L 196.669372 236.781636 
L 206.153231 232.680459 
L 215.63709 228.606856 
L 225.120949 224.705032 
L 234.604808 219.234365 
L 244.088667 215.424046 
L 253.572526 212.811345 
L 263.056385 210.379041 
L 272.540244 206.0797 
L 282.024103 203.431049 
L 291.507962 199.913487 
L 300.991821 196.241002 
L 310.475679 192.312216 
L 319.959538 191.677936 
L 329.443397 188.35566 
L 338.927256 185.188974 
L 348.411115 182.503844 
L 357.894974 181.180015 
L 367.378833 178.263077 
L 376.862692 176.277755 
L 386.346551 173.890201 
L 395.83041 171.332158 
L 405.314269 168.390336 
L 414.798128 166.237247 
L 424.281987 165.591933 
L 433.765846 163.269896 
L 443.249705 160.783468 
L 452.733564 159.39273 
L 462.217423 158.129755 
L 471.701282 155.911773 
L 481.185141 153.607553 
L 490.669 152.465491 
L 500.152859 151.363801 
L 509.636718 149.589344 
L 519.120577 147.967322 
L 528.604436 146.540774 
L 538.088295 145.241461 
" clip-path="url(#p04995a653f)" style="fill: none; stroke: #1f77b4; stroke-width: 1.5; stroke-linecap: square"/>
    <defs>
     <path id="m16b1bd9e4c" d="M 0 3 
C 0.795609 3 1.55874 2.683901 2.12132 2.12132 
C 2.683901 1.55874 3 0.795609 3 0 
C 3 -0.795609 2.683901 -1.55874 2.12132 -2.12132 
C 1.55874 -2.683901 0.795609 -3 0 -3 
C -0.795609 -3 -1.55874 -2.683901 -2.12132 -2.12132 
C -2.683901 -1.55874 -3 -0.795609 -3 0 
C -3 0.795609 -2.683901 1.55874 -2.12132 2.12132 
C -1.55874 2.683901 -0.795609 3 0 3 
z
" style="stroke: #1f77b4"/>
    </defs>
    <g clip-path="url(#p04995a653f)">
     <use xlink:href="#m16b1bd9e4c" x="73.379205" y="269.356433" style="fill: #1f77b4; stroke: #1f77b4"/>
     <use xlink:href="#m16b1bd9e4c" x="82.863064" y="269.286451" style="fill: #1f77b4; stroke: #1f77b4"/>
     <use xlink:href="#m16b1bd9e4c" x="92.346923" y="269.472984" style="fill: #1f77b4; stroke: #1f77b4"/>
     <use xlink:href="#m16b1bd9e4c" x="101.830782" y="270.564058" style="fill: #1f77b4; stroke: #1f77b4"/>
     <use xlink:href="#m16b1bd9e4c" x="111.314641" y="269.294938" style="fill: #1f77b4; stroke: #1f77b4"/>
     <use xlink:href="#m16b1bd9e4c" x="120.7985" y="269.267873" style="fill: #1f77b4; stroke: #1f77b4"/>
     <use xlink:href="#m16b1bd9e4c" x="130.282359" y="258.693253" style="fill: #1f77b4; stroke: #1f77b4"/>
     <use xlink:href="#m16b1bd9e4c" x="139.766218" y="260.078511" style="fill: #1f77b4; stroke: #1f77b4"/>
     <use xlink:href="#m16b1bd9e4c" x="149.250077" y="259.25353" style="fill: #1f77b4; stroke: #1f77b4"/>
     <use xlink:href="#m16b1bd9e4c" x="158.733936" y="251.351755" style="fill: #1f77b4; stroke: #1f77b4"/>
     <use xlink:href="#m16b1bd9e4c" x="168.217795" y="249.131715" style="fill: #1f77b4; stroke: #1f77b4"/>
     <use xlink:href="#m16b1bd9e4c" x="177.701654" y="246.225021" style="fill: #1f77b4; stroke: #1f77b4"/>
     <use xlink:href="#m16b1bd9e4c" x="187.185513" y="242.403292" style="fill: #1f77b4; stroke: #1f77b4"/>
     <use xlink:href="#m16b1bd9e4c" x="196.669372" y="236.781636" style="fill: #1f77b4; stroke: #1f77b4"/>
     <use xlink:href="#m16b1bd9e4c" x="206.153231" y="232.680459" style="fill: #1f77b4; stroke: #1f77b4"/>
     <use xlink:href="#m16b1bd9e4c" x="215.63709" y="228.606856" style="fill: #1f77b4; stroke: #1f77b4"/>
     <use xlink:href="#m16b1bd9e4c" x="225.120949" y="224.705032" style="fill: #1f77b4; stroke: #1f77b4"/>
     <use xlink:href="#m16b1bd9e4c" x="234.604808" y="219.234365" style="fill: #1f77b4; stroke: #1f77b4"/>
     <use xlink:href="#m16b1bd9e4c" x="244.088667" y="215.424046" style="fill: #1f77b4; stroke: #1f77b4"/>
     <use xlink:href="#m16b1bd9e4c" x="253.572526" y="212.811345" style="fill: #1f77b4; stroke: #1f77b4"/>
     <use xlink:href="#m16b1bd9e4c" x="263.056385" y="210.379041" style="fill: #1f77b4; stroke: #1f77b4"/>
     <use xlink:href="#m16b1bd9e4c" x="272.540244" y="206.0797" style="fill: #1f77b4; stroke: #1f77b4"/>
     <use xlink:href="#m16b1bd9e4c" x="282.024103" y="203.431049" style="fill: #1f77b4; stroke: #1f77b4"/>
     <use xlink:href="#m16b1bd9e4c" x="291.507962" y="199.913487" style="fill: #1f77b4; stroke: #1f77b4"/>
     <use xlink:href="#m16b1bd9e4c" x="300.991821" y="196.241002" style="fill: #1f77b4; stroke: #1f77b4"/>
     <use xlink:href="#m16b1bd9e4c" x="310.475679" y="192.312216" style="fill: #1f77b4; stroke: #1f77b4"/>
     <use xlink:href="#m16b1bd9e4c" x="319.959538" y="191.677936" style="fill: #1f77b4; stroke: #1f77b4"/>
     <use xlink:href="#m16b1bd9e4c" x="329.443397" y="188.35566" style="fill: #1f77b4; stroke: #1f77b4"/>
     <use xlink:href="#m16b1bd9e4c" x="338.927256" y="185.188974" style="fill: #1f77b4; stroke: #1f77b4"/>
     <use xlink:href="#m16b1bd9e4c" x="348.411115" y="182.503844" style="fill: #1f77b4; stroke: #1f77b4"/>
     <use xlink:href="#m16b1bd9e4c" x="357.894974" y="181.180015" style="fill: #1f77b4; stroke: #1f77b4"/>
     <use xlink:href="#m16b1bd9e4c" x="367.378833" y="178.263077" style="fill: #1f77b4; stroke: #1f77b4"/>
     <use xlink:href="#m16b1bd9e4c" x="376.862692" y="176.277755" style="fill: #1f77b4; stroke: #1f77b4"/>
     <use xlink:href="#m16b1bd9e4c" x="386.346551" y="173.890201" style="fill: #1f77b4; stroke: #1f77b4"/>
     <use xlink:href="#m16b1bd9e4c" x="395.83041" y="171.332158" style="fill: #1f77b4; stroke: #1f77b4"/>
     <use xlink:href="#m16b1bd9e4c" x="405.314269" y="168.390336" style="fill: #1f77b4; stroke: #1f77b4"/>
     <use xlink:href="#m16b1bd9e4c" x="414.798128" y="166.237247" style="fill: #1f77b4; stroke: #1f77b4"/>
     <use xlink:href="#m16b1bd9e4c" x="424.281987" y="165.591933" style="fill: #1f77b4; stroke: #1f77b4"/>
     <use xlink:href="#m16b1bd9e4c" x="433.765846" y="163.269896" style="fill: #1f77b4; stroke: #1f77b4"/>
     <use xlink:href="#m16b1bd9e4c" x="443.249705" y="160.783468" style="fill: #1f77b4; stroke: #1f77b4"/>
     <use xlink:href="#m16b1bd9e4c" x="452.733564" y="159.39273" style="fill: #1f77b4; stroke: #1f77b4"/>
     <use xlink:href="#m16b1bd9e4c" x="462.217423" y="158.129755" style="fill: #1f77b4; stroke: #1f77b4"/>
     <use xlink:href="#m16b1bd9e4c" x="471.701282" y="155.911773" style="fill: #1f77b4; stroke: #1f77b4"/>
     <use xlink:href="#m16b1bd9e4c" x="481.185141" y="153.607553" style="fill: #1f77b4; stroke: #1f77b4"/>
     <use xlink:href="#m16b1bd9e4c" x="490.669" y="152.465491" style="fill: #1f77b4; stroke: #1f77b4"/>
     <use xlink:href="#m16b1bd9e4c" x="500.152859" y="151.363801" style="fill: #1f77b4; stroke: #1f77b4"/>
     <use xlink:href="#m16b1bd9e4c" x="509.636718" y="149.589344" style="fill: #1f77b4; stroke: #1f77b4"/>
     <use xlink:href="#m16b1bd9e4c" x="519.120577" y="147.967322" style="fill: #1f77b4; stroke: #1f77b4"/>
     <use xlink:href="#m16b1bd9e4c" x="528.604436" y="146.540774" style="fill: #1f77b4; stroke: #1f77b4"/>
     <use xlink:href="#m16b1bd9e4c" x="538.088295" y="145.241461" style="fill: #1f77b4; stroke: #1f77b4"/>
    </g>
   </g>
   <g id="line2d_18">
    <path d="M 73.379205 269.356433 
L 82.863064 269.286451 
L 92.346923 269.472984 
L 101.830782 270.564058 
L 111.314641 269.294938 
L 120.7985 269.267873 
L 130.282359 258.693253 
L 139.766218 260.078511 
L 149.250077 259.25353 
L 158.733936 251.351755 
L 168.217795 249.131715 
L 177.701654 246.225021 
L 187.185513 242.403292 
L 196.669372 236.781636 
L 206.153231 232.680459 
L 215.63709 228.606856 
L 225.120949 224.705032 
L 234.604808 219.234365 
L 244.088667 215.424046 
L 253.572526 212.811345 
L 263.056385 210.379041 
L 272.540244 206.0797 
L 282.024103 203.431049 
L 291.507962 199.913487 
L 300.991821 196.241002 
L 310.475679 192.312216 
L 319.959538 191.677936 
L 329.443397 188.35566 
L 338.927256 185.188974 
L 348.411115 182.503844 
L 357.894974 181.180015 
L 367.378833 178.263077 
L 376.862692 176.277755 
L 386.346551 173.890201 
L 395.83041 171.332158 
L 405.314269 168.390336 
L 414.798128 166.237247 
L 424.281987 165.591933 
L 433.765846 163.269896 
L 443.249705 160.783468 
L 452.733564 159.39273 
L 462.217423 158.129755 
L 471.701282 155.911773 
L 481.185141 153.607553 
L 490.669 152.465491 
L 500.152859 151.363801 
L 509.636718 149.589344 
L 519.120577 147.967322 
L 528.604436 146.540774 
L 538.088295 145.241461 
" clip-path="url(#p04995a653f)" style="fill: none; stroke: #ff7f0e; stroke-width: 1.5; stroke-linecap: square"/>
    <defs>
     <path id="m55493fb664" d="M -3 3 
L 3 3 
L 3 -3 
L -3 -3 
z
" style="stroke: #ff7f0e; stroke-linejoin: miter"/>
    </defs>
    <g clip-path="url(#p04995a653f)">
     <use xlink:href="#m55493fb664" x="73.379205" y="269.356433" style="fill: #ff7f0e; stroke: #ff7f0e; stroke-linejoin: miter"/>
     <use xlink:href="#m55493fb664" x="82.863064" y="269.286451" style="fill: #ff7f0e; stroke: #ff7f0e; stroke-linejoin: miter"/>
     <use xlink:href="#m55493fb664" x="92.346923" y="269.472984" style="fill: #ff7f0e; stroke: #ff7f0e; stroke-linejoin: miter"/>
     <use xlink:href="#m55493fb664" x="101.830782" y="270.564058" style="fill: #ff7f0e; stroke: #ff7f0e; stroke-linejoin: miter"/>
     <use xlink:href="#m55493fb664" x="111.314641" y="269.294938" style="fill: #ff7f0e; stroke: #ff7f0e; stroke-linejoin: miter"/>
     <use xlink:href="#m55493fb664" x="120.7985" y="269.267873" style="fill: #ff7f0e; stroke: #ff7f0e; stroke-linejoin: miter"/>
     <use xlink:href="#m55493fb664" x="130.282359" y="258.693253" style="fill: #ff7f0e; stroke: #ff7f0e; stroke-linejoin: miter"/>
     <use xlink:href="#m55493fb664" x="139.766218" y="260.078511" style="fill: #ff7f0e; stroke: #ff7f0e; stroke-linejoin: miter"/>
     <use xlink:href="#m55493fb664" x="149.250077" y="259.25353" style="fill: #ff7f0e; stroke: #ff7f0e; stroke-linejoin: miter"/>
     <use xlink:href="#m55493fb664" x="158.733936" y="251.351755" style="fill: #ff7f0e; stroke: #ff7f0e; stroke-linejoin: miter"/>
     <use xlink:href="#m55493fb664" x="168.217795" y="249.131715" style="fill: #ff7f0e; stroke: #ff7f0e; stroke-linejoin: miter"/>
     <use xlink:href="#m55493fb664" x="177.701654" y="246.225021" style="fill: #ff7f0e; stroke: #ff7f0e; stroke-linejoin: miter"/>
     <use xlink:href="#m55493fb664" x="187.185513" y="242.403292" style="fill: #ff7f0e; stroke: #ff7f0e; stroke-linejoin: miter"/>
     <use xlink:href="#m55493fb664" x="196.669372" y="236.781636" style="fill: #ff7f0e; stroke: #ff7f0e; stroke-linejoin: miter"/>
     <use xlink:href="#m55493fb664" x="206.153231" y="232.680459" style="fill: #ff7f0e; stroke: #ff7f0e; stroke-linejoin: miter"/>
     <use xlink:href="#m55493fb664" x="215.63709" y="228.606856" style="fill: #ff7f0e; stroke: #ff7f0e; stroke-linejoin: miter"/>
     <use xlink:href="#m55493fb664" x="225.120949" y="224.705032" style="fill: #ff7f0e; stroke: #ff7f0e; stroke-linejoin: miter"/>
     <use xlink:href="#m55493fb664" x="234.604808" y="219.234365" style="fill: #ff7f0e; stroke: #ff7f0e; stroke-linejoin: miter"/>
     <use xlink:href="#m55493fb664" x="244.088667" y="215.424046" style="fill: #ff7f0e; stroke: #ff7f0e; stroke-linejoin: miter"/>
     <use xlink:href="#m55493fb664" x="253.572526" y="212.811345" style="fill: #ff7f0e; stroke: #ff7f0e; stroke-linejoin: miter"/>
     <use xlink:href="#m55493fb664" x="263.056385" y="210.379041" style="fill: #ff7f0e; stroke: #ff7f0e; stroke-linejoin: miter"/>
     <use xlink:href="#m55493fb664" x="272.540244" y="206.0797" style="fill: #ff7f0e; stroke: #ff7f0e; stroke-linejoin: miter"/>
     <use xlink:href="#m55493fb664" x="282.024103" y="203.431049" style="fill: #ff7f0e; stroke: #ff7f0e; stroke-linejoin: miter"/>
     <use xlink:href="#m55493fb664" x="291.507962" y="199.913487" style="fill: #ff7f0e; stroke: #ff7f0e; stroke-linejoin: miter"/>
     <use xlink:href="#m55493fb664" x="300.991821" y="196.241002" style="fill: #ff7f0e; stroke: #ff7f0e; stroke-linejoin: miter"/>
     <use xlink:href="#m55493fb664" x="310.475679" y="192.312216" style="fill: #ff7f0e; stroke: #ff7f0e; stroke-linejoin: miter"/>
     <use xlink:href="#m55493fb664" x="319.959538" y="191.677936" style="fill: #ff7f0e; stroke: #ff7f0e; stroke-linejoin: miter"/>
     <use xlink:href="#m55493fb664" x="329.443397" y="188.35566" style="fill: #ff7f0e; stroke: #ff7f0e; stroke-linejoin: miter"/>
     <use xlink:href="#m55493fb664" x="338.927256" y="185.188974" style="fill: #ff7f0e; stroke: #ff7f0e; stroke-linejoin: miter"/>
     <use xlink:href="#m55493fb664" x="348.411115" y="182.503844" style="fill: #ff7f0e; stroke: #ff7f0e; stroke-linejoin: miter"/>
     <use xlink:href="#m55493fb664" x="357.894974" y="181.180015" style="fill: #ff7f0e; stroke: #ff7f0e; stroke-linejoin: miter"/>
     <use xlink:href="#m55493fb664" x="367.378833" y="178.263077" style="fill: #ff7f0e; stroke: #ff7f0e; stroke-linejoin: miter"/>
     <use xlink:href="#m55493fb664" x="376.862692" y="176.277755" style="fill: #ff7f0e; stroke: #ff7f0e; stroke-linejoin: miter"/>
     <use xlink:href="#m55493fb664" x="386.346551" y="173.890201" style="fill: #ff7f0e; stroke: #ff7f0e; stroke-linejoin: miter"/>
     <use xlink:href="#m55493fb664" x="395.83041" y="171.332158" style="fill: #ff7f0e; stroke: #ff7f0e; stroke-linejoin: miter"/>
     <use xlink:href="#m55493fb664" x="405.314269" y="168.390336" style="fill: #ff7f0e; stroke: #ff7f0e; stroke-linejoin: miter"/>
     <use xlink:href="#m55493fb664" x="414.798128" y="166.237247" style="fill: #ff7f0e; stroke: #ff7f0e; stroke-linejoin: miter"/>
     <use xlink:href="#m55493fb664" x="424.281987" y="165.591933" style="fill: #ff7f0e; stroke: #ff7f0e; stroke-linejoin: miter"/>
     <use xlink:href="#m55493fb664" x="433.765846" y="163.269896" style="fill: #ff7f0e; stroke: #ff7f0e; stroke-linejoin: miter"/>
     <use xlink:href="#m55493fb664" x="443.249705" y="160.783468" style="fill: #ff7f0e; stroke: #ff7f0e; stroke-linejoin: miter"/>
     <use xlink:href="#m55493fb664" x="452.733564" y="159.39273" style="fill: #ff7f0e; stroke: #ff7f0e; stroke-linejoin: miter"/>
     <use xlink:href="#m55493fb664" x="462.217423" y="158.129755" style="fill: #ff7f0e; stroke: #ff7f0e; stroke-linejoin: miter"/>
     <use xlink:href="#m55493fb664" x="471.701282" y="155.911773" style="fill: #ff7f0e; stroke: #ff7f0e; stroke-linejoin: miter"/>
     <use xlink:href="#m55493fb664" x="481.185141" y="153.607553" style="fill: #ff7f0e; stroke: #ff7f0e; stroke-linejoin: miter"/>
     <use xlink:href="#m55493fb664" x="490.669" y="152.465491" style="fill: #ff7f0e; stroke: #ff7f0e; stroke-linejoin: miter"/>
     <use xlink:href="#m55493fb664" x="500.152859" y="151.363801" style="fill: #ff7f0e; stroke: #ff7f0e; stroke-linejoin: miter"/>
     <use xlink:href="#m55493fb664" x="509.636718" y="149.589344" style="fill: #ff7f0e; stroke: #ff7f0e; stroke-linejoin: miter"/>
     <use xlink:href="#m55493fb664" x="519.120577" y="147.967322" style="fill: #ff7f0e; stroke: #ff7f0e; stroke-linejoin: miter"/>
     <use xlink:href="#m55493fb664" x="528.604436" y="146.540774" style="fill: #ff7f0e; stroke: #ff7f0e; stroke-linejoin: miter"/>
     <use xlink:href="#m55493fb664" x="538.088295" y="145.241461" style="fill: #ff7f0e; stroke: #ff7f0e; stroke-linejoin: miter"/>
    </g>
   </g>
   <g id="line2d_19">
    <path d="M 73.379205 36.232956 
L 82.863064 36.232956 
L 92.346923 36.232956 
L 101.830782 36.232956 
L 111.314641 36.232956 
L 120.7985 36.232956 
L 130.282359 36.232956 
L 139.766218 36.232956 
L 149.250077 36.232956 
L 158.733936 36.232956 
L 168.217795 36.232956 
L 177.701654 36.232956 
L 187.185513 36.232956 
L 196.669372 36.232956 
L 206.153231 36.232956 
L 215.63709 36.232956 
L 225.120949 36.232956 
L 234.604808 36.232956 
L 244.088667 36.232956 
L 253.572526 36.232956 
L 263.056385 36.232956 
L 272.540244 36.232956 
L 282.024103 36.232956 
L 291.507962 36.232956 
L 300.991821 36.232956 
L 310.475679 36.232956 
L 319.959538 36.232956 
L 329.443397 36.232956 
L 338.927256 36.232956 
L 348.411115 36.232956 
L 357.894974 36.232956 
L 367.378833 36.232956 
L 376.862692 36.232956 
L 386.346551 36.232956 
L 395.83041 36.232956 
L 405.314269 36.232956 
L 414.798128 36.232956 
L 424.281987 36.232956 
L 433.765846 36.232956 
L 443.249705 36.232956 
L 452.733564 36.232956 
L 462.217423 36.232956 
L 471.701282 36.232956 
L 481.185141 36.232956 
L 490.669 36.232956 
L 500.152859 36.232956 
L 509.636718 36.232956 
L 519.120577 36.232956 
L 528.604436 36.232956 
L 538.088295 36.232956 
" clip-path="url(#p04995a653f)" style="fill: none; stroke: #9467bd; stroke-width: 1.5; stroke-linecap: square"/>
    <defs>
     <path id="m0489a7208c" d="M -0 3 
L 3 -3 
L -3 -3 
z
" style="stroke: #9467bd; stroke-linejoin: miter"/>
    </defs>
    <g clip-path="url(#p04995a653f)">
     <use xlink:href="#m0489a7208c" x="73.379205" y="36.232956" style="fill: #9467bd; stroke: #9467bd; stroke-linejoin: miter"/>
     <use xlink:href="#m0489a7208c" x="82.863064" y="36.232956" style="fill: #9467bd; stroke: #9467bd; stroke-linejoin: miter"/>
     <use xlink:href="#m0489a7208c" x="92.346923" y="36.232956" style="fill: #9467bd; stroke: #9467bd; stroke-linejoin: miter"/>
     <use xlink:href="#m0489a7208c" x="101.830782" y="36.232956" style="fill: #9467bd; stroke: #9467bd; stroke-linejoin: miter"/>
     <use xlink:href="#m0489a7208c" x="111.314641" y="36.232956" style="fill: #9467bd; stroke: #9467bd; stroke-linejoin: miter"/>
     <use xlink:href="#m0489a7208c" x="120.7985" y="36.232956" style="fill: #9467bd; stroke: #9467bd; stroke-linejoin: miter"/>
     <use xlink:href="#m0489a7208c" x="130.282359" y="36.232956" style="fill: #9467bd; stroke: #9467bd; stroke-linejoin: miter"/>
     <use xlink:href="#m0489a7208c" x="139.766218" y="36.232956" style="fill: #9467bd; stroke: #9467bd; stroke-linejoin: miter"/>
     <use xlink:href="#m0489a7208c" x="149.250077" y="36.232956" style="fill: #9467bd; stroke: #9467bd; stroke-linejoin: miter"/>
     <use xlink:href="#m0489a7208c" x="158.733936" y="36.232956" style="fill: #9467bd; stroke: #9467bd; stroke-linejoin: miter"/>
     <use xlink:href="#m0489a7208c" x="168.217795" y="36.232956" style="fill: #9467bd; stroke: #9467bd; stroke-linejoin: miter"/>
     <use xlink:href="#m0489a7208c" x="177.701654" y="36.232956" style="fill: #9467bd; stroke: #9467bd; stroke-linejoin: miter"/>
     <use xlink:href="#m0489a7208c" x="187.185513" y="36.232956" style="fill: #9467bd; stroke: #9467bd; stroke-linejoin: miter"/>
     <use xlink:href="#m0489a7208c" x="196.669372" y="36.232956" style="fill: #9467bd; stroke: #9467bd; stroke-linejoin: miter"/>
     <use xlink:href="#m0489a7208c" x="206.153231" y="36.232956" style="fill: #9467bd; stroke: #9467bd; stroke-linejoin: miter"/>
     <use xlink:href="#m0489a7208c" x="215.63709" y="36.232956" style="fill: #9467bd; stroke: #9467bd; stroke-linejoin: miter"/>
     <use xlink:href="#m0489a7208c" x="225.120949" y="36.232956" style="fill: #9467bd; stroke: #9467bd; stroke-linejoin: miter"/>
     <use xlink:href="#m0489a7208c" x="234.604808" y="36.232956" style="fill: #9467bd; stroke: #9467bd; stroke-linejoin: miter"/>
     <use xlink:href="#m0489a7208c" x="244.088667" y="36.232956" style="fill: #9467bd; stroke: #9467bd; stroke-linejoin: miter"/>
     <use xlink:href="#m0489a7208c" x="253.572526" y="36.232956" style="fill: #9467bd; stroke: #9467bd; stroke-linejoin: miter"/>
     <use xlink:href="#m0489a7208c" x="263.056385" y="36.232956" style="fill: #9467bd; stroke: #9467bd; stroke-linejoin: miter"/>
     <use xlink:href="#m0489a7208c" x="272.540244" y="36.232956" style="fill: #9467bd; stroke: #9467bd; stroke-linejoin: miter"/>
     <use xlink:href="#m0489a7208c" x="282.024103" y="36.232956" style="fill: #9467bd; stroke: #9467bd; stroke-linejoin: miter"/>
     <use xlink:href="#m0489a7208c" x="291.507962" y="36.232956" style="fill: #9467bd; stroke: #9467bd; stroke-linejoin: miter"/>
     <use xlink:href="#m0489a7208c" x="300.991821" y="36.232956" style="fill: #9467bd; stroke: #9467bd; stroke-linejoin: miter"/>
     <use xlink:href="#m0489a7208c" x="310.475679" y="36.232956" style="fill: #9467bd; stroke: #9467bd; stroke-linejoin: miter"/>
     <use xlink:href="#m0489a7208c" x="319.959538" y="36.232956" style="fill: #9467bd; stroke: #9467bd; stroke-linejoin: miter"/>
     <use xlink:href="#m0489a7208c" x="329.443397" y="36.232956" style="fill: #9467bd; stroke: #9467bd; stroke-linejoin: miter"/>
     <use xlink:href="#m0489a7208c" x="338.927256" y="36.232956" style="fill: #9467bd; stroke: #9467bd; stroke-linejoin: miter"/>
     <use xlink:href="#m0489a7208c" x="348.411115" y="36.232956" style="fill: #9467bd; stroke: #9467bd; stroke-linejoin: miter"/>
     <use xlink:href="#m0489a7208c" x="357.894974" y="36.232956" style="fill: #9467bd; stroke: #9467bd; stroke-linejoin: miter"/>
     <use xlink:href="#m0489a7208c" x="367.378833" y="36.232956" style="fill: #9467bd; stroke: #9467bd; stroke-linejoin: miter"/>
     <use xlink:href="#m0489a7208c" x="376.862692" y="36.232956" style="fill: #9467bd; stroke: #9467bd; stroke-linejoin: miter"/>
     <use xlink:href="#m0489a7208c" x="386.346551" y="36.232956" style="fill: #9467bd; stroke: #9467bd; stroke-linejoin: miter"/>
     <use xlink:href="#m0489a7208c" x="395.83041" y="36.232956" style="fill: #9467bd; stroke: #9467bd; stroke-linejoin: miter"/>
     <use xlink:href="#m0489a7208c" x="405.314269" y="36.232956" style="fill: #9467bd; stroke: #9467bd; stroke-linejoin: miter"/>
     <use xlink:href="#m0489a7208c" x="414.798128" y="36.232956" style="fill: #9467bd; stroke: #9467bd; stroke-linejoin: miter"/>
     <use xlink:href="#m0489a7208c" x="424.281987" y="36.232956" style="fill: #9467bd; stroke: #9467bd; stroke-linejoin: miter"/>
     <use xlink:href="#m0489a7208c" x="433.765846" y="36.232956" style="fill: #9467bd; stroke: #9467bd; stroke-linejoin: miter"/>
     <use xlink:href="#m0489a7208c" x="443.249705" y="36.232956" style="fill: #9467bd; stroke: #9467bd; stroke-linejoin: miter"/>
     <use xlink:href="#m0489a7208c" x="452.733564" y="36.232956" style="fill: #9467bd; stroke: #9467bd; stroke-linejoin: miter"/>
     <use xlink:href="#m0489a7208c" x="462.217423" y="36.232956" style="fill: #9467bd; stroke: #9467bd; stroke-linejoin: miter"/>
     <use xlink:href="#m0489a7208c" x="471.701282" y="36.232956" style="fill: #9467bd; stroke: #9467bd; stroke-linejoin: miter"/>
     <use xlink:href="#m0489a7208c" x="481.185141" y="36.232956" style="fill: #9467bd; stroke: #9467bd; stroke-linejoin: miter"/>
     <use xlink:href="#m0489a7208c" x="490.669" y="36.232956" style="fill: #9467bd; stroke: #9467bd; stroke-linejoin: miter"/>
     <use xlink:href="#m0489a7208c" x="500.152859" y="36.232956" style="fill: #9467bd; stroke: #9467bd; stroke-linejoin: miter"/>
     <use xlink:href="#m0489a7208c" x="509.636718" y="36.232956" style="fill: #9467bd; stroke: #9467bd; stroke-linejoin: miter"/>
     <use xlink:href="#m0489a7208c" x="519.120577" y="36.232956" style="fill: #9467bd; stroke: #9467bd; stroke-linejoin: miter"/>
     <use xlink:href="#m0489a7208c" x="528.604436" y="36.232956" style="fill: #9467bd; stroke: #9467bd; stroke-linejoin: miter"/>
     <use xlink:href="#m0489a7208c" x="538.088295" y="36.232956" style="fill: #9467bd; stroke: #9467bd; stroke-linejoin: miter"/>
    </g>
   </g>
   <g id="line2d_20">
    <path d="M 73.379205 291.603881 
L 82.863064 288.907686 
L 92.346923 277.119771 
L 101.830782 278.79601 
L 111.314641 280.534879 
L 120.7985 244.090092 
L 130.282359 252.046059 
L 139.766218 256.534622 
L 149.250077 239.362858 
L 158.733936 225.849465 
L 168.217795 241.480628 
L 177.701654 223.787795 
L 187.185513 213.128871 
L 196.669372 232.592387 
L 206.153231 223.418463 
L 215.63709 204.011783 
L 225.120949 218.971769 
L 234.604808 197.988967 
L 244.088667 163.146485 
L 253.572526 207.829087 
L 263.056385 187.480246 
L 272.540244 123.978152 
L 282.024103 196.862285 
L 291.507962 191.806758 
L 300.991821 139.876245 
L 310.475679 181.108485 
L 319.959538 145.418431 
L 329.443397 151.0921 
L 338.927256 155.987438 
L 348.411115 155.945076 
L 357.894974 126.754854 
L 367.378833 150.154046 
L 376.862692 156.205831 
L 386.346551 139.339459 
L 395.83041 144.212088 
L 405.314269 158.369558 
L 414.798128 114.117785 
L 424.281987 110.861012 
L 433.765846 155.796149 
L 443.249705 117.404173 
L 452.733564 101.268712 
L 462.217423 140.872626 
L 471.701282 140.751146 
L 481.185141 35.489091 
L 490.669 139.972269 
L 500.152859 140.605967 
L 509.636718 114.740211 
L 519.120577 127.822392 
L 528.604436 137.556998 
L 538.088295 96.912781 
" clip-path="url(#p04995a653f)" style="fill: none; stroke: #2ca02c; stroke-width: 1.5; stroke-linecap: square"/>
    <defs>
     <path id="m4efb02d147" d="M 0 -3 
L -3 3 
L 3 3 
z
" style="stroke: #2ca02c; stroke-linejoin: miter"/>
    </defs>
    <g clip-path="url(#p04995a653f)">
     <use xlink:href="#m4efb02d147" x="73.379205" y="291.603881" style="fill: #2ca02c; stroke: #2ca02c; stroke-linejoin: miter"/>
     <use xlink:href="#m4efb02d147" x="82.863064" y="288.907686" style="fill: #2ca02c; stroke: #2ca02c; stroke-linejoin: miter"/>
     <use xlink:href="#m4efb02d147" x="92.346923" y="277.119771" style="fill: #2ca02c; stroke: #2ca02c; stroke-linejoin: miter"/>
     <use xlink:href="#m4efb02d147" x="101.830782" y="278.79601" style="fill: #2ca02c; stroke: #2ca02c; stroke-linejoin: miter"/>
     <use xlink:href="#m4efb02d147" x="111.314641" y="280.534879" style="fill: #2ca02c; stroke: #2ca02c; stroke-linejoin: miter"/>
     <use xlink:href="#m4efb02d147" x="120.7985" y="244.090092" style="fill: #2ca02c; stroke: #2ca02c; stroke-linejoin: miter"/>
     <use xlink:href="#m4efb02d147" x="130.282359" y="252.046059" style="fill: #2ca02c; stroke: #2ca02c; stroke-linejoin: miter"/>
     <use xlink:href="#m4efb02d147" x="139.766218" y="256.534622" style="fill: #2ca02c; stroke: #2ca02c; stroke-linejoin: miter"/>
     <use xlink:href="#m4efb02d147" x="149.250077" y="239.362858" style="fill: #2ca02c; stroke: #2ca02c; stroke-linejoin: miter"/>
     <use xlink:href="#m4efb02d147" x="158.733936" y="225.849465" style="fill: #2ca02c; stroke: #2ca02c; stroke-linejoin: miter"/>
     <use xlink:href="#m4efb02d147" x="168.217795" y="241.480628" style="fill: #2ca02c; stroke: #2ca02c; stroke-linejoin: miter"/>
     <use xlink:href="#m4efb02d147" x="177.701654" y="223.787795" style="fill: #2ca02c; stroke: #2ca02c; stroke-linejoin: miter"/>
     <use xlink:href="#m4efb02d147" x="187.185513" y="213.128871" style="fill: #2ca02c; stroke: #2ca02c; stroke-linejoin: miter"/>
     <use xlink:href="#m4efb02d147" x="196.669372" y="232.592387" style="fill: #2ca02c; stroke: #2ca02c; stroke-linejoin: miter"/>
     <use xlink:href="#m4efb02d147" x="206.153231" y="223.418463" style="fill: #2ca02c; stroke: #2ca02c; stroke-linejoin: miter"/>
     <use xlink:href="#m4efb02d147" x="215.63709" y="204.011783" style="fill: #2ca02c; stroke: #2ca02c; stroke-linejoin: miter"/>
     <use xlink:href="#m4efb02d147" x="225.120949" y="218.971769" style="fill: #2ca02c; stroke: #2ca02c; stroke-linejoin: miter"/>
     <use xlink:href="#m4efb02d147" x="234.604808" y="197.988967" style="fill: #2ca02c; stroke: #2ca02c; stroke-linejoin: miter"/>
     <use xlink:href="#m4efb02d147" x="244.088667" y="163.146485" style="fill: #2ca02c; stroke: #2ca02c; stroke-linejoin: miter"/>
     <use xlink:href="#m4efb02d147" x="253.572526" y="207.829087" style="fill: #2ca02c; stroke: #2ca02c; stroke-linejoin: miter"/>
     <use xlink:href="#m4efb02d147" x="263.056385" y="187.480246" style="fill: #2ca02c; stroke: #2ca02c; stroke-linejoin: miter"/>
     <use xlink:href="#m4efb02d147" x="272.540244" y="123.978152" style="fill: #2ca02c; stroke: #2ca02c; stroke-linejoin: miter"/>
     <use xlink:href="#m4efb02d147" x="282.024103" y="196.862285" style="fill: #2ca02c; stroke: #2ca02c; stroke-linejoin: miter"/>
     <use xlink:href="#m4efb02d147" x="291.507962" y="191.806758" style="fill: #2ca02c; stroke: #2ca02c; stroke-linejoin: miter"/>
     <use xlink:href="#m4efb02d147" x="300.991821" y="139.876245" style="fill: #2ca02c; stroke: #2ca02c; stroke-linejoin: miter"/>
     <use xlink:href="#m4efb02d147" x="310.475679" y="181.108485" style="fill: #2ca02c; stroke: #2ca02c; stroke-linejoin: miter"/>
     <use xlink:href="#m4efb02d147" x="319.959538" y="145.418431" style="fill: #2ca02c; stroke: #2ca02c; stroke-linejoin: miter"/>
     <use xlink:href="#m4efb02d147" x="329.443397" y="151.0921" style="fill: #2ca02c; stroke: #2ca02c; stroke-linejoin: miter"/>
     <use xlink:href="#m4efb02d147" x="338.927256" y="155.987438" style="fill: #2ca02c; stroke: #2ca02c; stroke-linejoin: miter"/>
     <use xlink:href="#m4efb02d147" x="348.411115" y="155.945076" style="fill: #2ca02c; stroke: #2ca02c; stroke-linejoin: miter"/>
     <use xlink:href="#m4efb02d147" x="357.894974" y="126.754854" style="fill: #2ca02c; stroke: #2ca02c; stroke-linejoin: miter"/>
     <use xlink:href="#m4efb02d147" x="367.378833" y="150.154046" style="fill: #2ca02c; stroke: #2ca02c; stroke-linejoin: miter"/>
     <use xlink:href="#m4efb02d147" x="376.862692" y="156.205831" style="fill: #2ca02c; stroke: #2ca02c; stroke-linejoin: miter"/>
     <use xlink:href="#m4efb02d147" x="386.346551" y="139.339459" style="fill: #2ca02c; stroke: #2ca02c; stroke-linejoin: miter"/>
     <use xlink:href="#m4efb02d147" x="395.83041" y="144.212088" style="fill: #2ca02c; stroke: #2ca02c; stroke-linejoin: miter"/>
     <use xlink:href="#m4efb02d147" x="405.314269" y="158.369558" style="fill: #2ca02c; stroke: #2ca02c; stroke-linejoin: miter"/>
     <use xlink:href="#m4efb02d147" x="414.798128" y="114.117785" style="fill: #2ca02c; stroke: #2ca02c; stroke-linejoin: miter"/>
     <use xlink:href="#m4efb02d147" x="424.281987" y="110.861012" style="fill: #2ca02c; stroke: #2ca02c; stroke-linejoin: miter"/>
     <use xlink:href="#m4efb02d147" x="433.765846" y="155.796149" style="fill: #2ca02c; stroke: #2ca02c; stroke-linejoin: miter"/>
     <use xlink:href="#m4efb02d147" x="443.249705" y="117.404173" style="fill: #2ca02c; stroke: #2ca02c; stroke-linejoin: miter"/>
     <use xlink:href="#m4efb02d147" x="452.733564" y="101.268712" style="fill: #2ca02c; stroke: #2ca02c; stroke-linejoin: miter"/>
     <use xlink:href="#m4efb02d147" x="462.217423" y="140.872626" style="fill: #2ca02c; stroke: #2ca02c; stroke-linejoin: miter"/>
     <use xlink:href="#m4efb02d147" x="471.701282" y="140.751146" style="fill: #2ca02c; stroke: #2ca02c; stroke-linejoin: miter"/>
     <use xlink:href="#m4efb02d147" x="481.185141" y="35.489091" style="fill: #2ca02c; stroke: #2ca02c; stroke-linejoin: miter"/>
     <use xlink:href="#m4efb02d147" x="490.669" y="139.972269" style="fill: #2ca02c; stroke: #2ca02c; stroke-linejoin: miter"/>
     <use xlink:href="#m4efb02d147" x="500.152859" y="140.605967" style="fill: #2ca02c; stroke: #2ca02c; stroke-linejoin: miter"/>
     <use xlink:href="#m4efb02d147" x="509.636718" y="114.740211" style="fill: #2ca02c; stroke: #2ca02c; stroke-linejoin: miter"/>
     <use xlink:href="#m4efb02d147" x="519.120577" y="127.822392" style="fill: #2ca02c; stroke: #2ca02c; stroke-linejoin: miter"/>
     <use xlink:href="#m4efb02d147" x="528.604436" y="137.556998" style="fill: #2ca02c; stroke: #2ca02c; stroke-linejoin: miter"/>
     <use xlink:href="#m4efb02d147" x="538.088295" y="96.912781" style="fill: #2ca02c; stroke: #2ca02c; stroke-linejoin: miter"/>
    </g>
   </g>
   <g id="line2d_21">
    <path d="M 73.379205 297.03042 
L 82.863064 298.870909 
L 92.346923 296.176938 
L 101.830782 290.4081 
L 111.314641 286.911657 
L 120.7985 283.385537 
L 130.282359 273.448815 
L 139.766218 270.313598 
L 149.250077 268.001646 
L 158.733936 260.584576 
L 168.217795 255.180144 
L 177.701654 249.090643 
L 187.185513 245.737682 
L 196.669372 241.455878 
L 206.153231 234.520094 
L 215.63709 231.552527 
L 225.120949 227.811866 
L 234.604808 219.678959 
L 244.088667 219.035874 
L 253.572526 216.150865 
L 263.056385 211.556088 
L 272.540244 207.633833 
L 282.024103 203.119775 
L 291.507962 201.453541 
L 300.991821 198.445809 
L 310.475679 194.678244 
L 319.959538 190.766089 
L 329.443397 189.684053 
L 338.927256 186.6277 
L 348.411115 184.467632 
L 357.894974 181.528587 
L 367.378833 179.526683 
L 376.862692 177.121499 
L 386.346551 174.066679 
L 395.83041 172.010001 
L 405.314269 169.876446 
L 414.798128 168.116593 
L 424.281987 165.492237 
L 433.765846 163.565535 
L 443.249705 160.749124 
L 452.733564 159.86402 
L 462.217423 158.102382 
L 471.701282 156.355731 
L 481.185141 154.370395 
L 490.669 152.670792 
L 500.152859 151.376542 
L 509.636718 149.959513 
L 519.120577 148.309637 
L 528.604436 146.913128 
L 538.088295 145.530694 
" clip-path="url(#p04995a653f)" style="fill: none; stroke: #d62728; stroke-width: 1.5; stroke-linecap: square"/>
    <defs>
     <path id="m93e509f81f" d="M -0 4.242641 
L 4.242641 0 
L 0 -4.242641 
L -4.242641 -0 
z
" style="stroke: #d62728; stroke-linejoin: miter"/>
    </defs>
    <g clip-path="url(#p04995a653f)">
     <use xlink:href="#m93e509f81f" x="73.379205" y="297.03042" style="fill: #d62728; stroke: #d62728; stroke-linejoin: miter"/>
     <use xlink:href="#m93e509f81f" x="82.863064" y="298.870909" style="fill: #d62728; stroke: #d62728; stroke-linejoin: miter"/>
     <use xlink:href="#m93e509f81f" x="92.346923" y="296.176938" style="fill: #d62728; stroke: #d62728; stroke-linejoin: miter"/>
     <use xlink:href="#m93e509f81f" x="101.830782" y="290.4081" style="fill: #d62728; stroke: #d62728; stroke-linejoin: miter"/>
     <use xlink:href="#m93e509f81f" x="111.314641" y="286.911657" style="fill: #d62728; stroke: #d62728; stroke-linejoin: miter"/>
     <use xlink:href="#m93e509f81f" x="120.7985" y="283.385537" style="fill: #d62728; stroke: #d62728; stroke-linejoin: miter"/>
     <use xlink:href="#m93e509f81f" x="130.282359" y="273.448815" style="fill: #d62728; stroke: #d62728; stroke-linejoin: miter"/>
     <use xlink:href="#m93e509f81f" x="139.766218" y="270.313598" style="fill: #d62728; stroke: #d62728; stroke-linejoin: miter"/>
     <use xlink:href="#m93e509f81f" x="149.250077" y="268.001646" style="fill: #d62728; stroke: #d62728; stroke-linejoin: miter"/>
     <use xlink:href="#m93e509f81f" x="158.733936" y="260.584576" style="fill: #d62728; stroke: #d62728; stroke-linejoin: miter"/>
     <use xlink:href="#m93e509f81f" x="168.217795" y="255.180144" style="fill: #d62728; stroke: #d62728; stroke-linejoin: miter"/>
     <use xlink:href="#m93e509f81f" x="177.701654" y="249.090643" style="fill: #d62728; stroke: #d62728; stroke-linejoin: miter"/>
     <use xlink:href="#m93e509f81f" x="187.185513" y="245.737682" style="fill: #d62728; stroke: #d62728; stroke-linejoin: miter"/>
     <use xlink:href="#m93e509f81f" x="196.669372" y="241.455878" style="fill: #d62728; stroke: #d62728; stroke-linejoin: miter"/>
     <use xlink:href="#m93e509f81f" x="206.153231" y="234.520094" style="fill: #d62728; stroke: #d62728; stroke-linejoin: miter"/>
     <use xlink:href="#m93e509f81f" x="215.63709" y="231.552527" style="fill: #d62728; stroke: #d62728; stroke-linejoin: miter"/>
     <use xlink:href="#m93e509f81f" x="225.120949" y="227.811866" style="fill: #d62728; stroke: #d62728; stroke-linejoin: miter"/>
     <use xlink:href="#m93e509f81f" x="234.604808" y="219.678959" style="fill: #d62728; stroke: #d62728; stroke-linejoin: miter"/>
     <use xlink:href="#m93e509f81f" x="244.088667" y="219.035874" style="fill: #d62728; stroke: #d62728; stroke-linejoin: miter"/>
     <use xlink:href="#m93e509f81f" x="253.572526" y="216.150865" style="fill: #d62728; stroke: #d62728; stroke-linejoin: miter"/>
     <use xlink:href="#m93e509f81f" x="263.056385" y="211.556088" style="fill: #d62728; stroke: #d62728; stroke-linejoin: miter"/>
     <use xlink:href="#m93e509f81f" x="272.540244" y="207.633833" style="fill: #d62728; stroke: #d62728; stroke-linejoin: miter"/>
     <use xlink:href="#m93e509f81f" x="282.024103" y="203.119775" style="fill: #d62728; stroke: #d62728; stroke-linejoin: miter"/>
     <use xlink:href="#m93e509f81f" x="291.507962" y="201.453541" style="fill: #d62728; stroke: #d62728; stroke-linejoin: miter"/>
     <use xlink:href="#m93e509f81f" x="300.991821" y="198.445809" style="fill: #d62728; stroke: #d62728; stroke-linejoin: miter"/>
     <use xlink:href="#m93e509f81f" x="310.475679" y="194.678244" style="fill: #d62728; stroke: #d62728; stroke-linejoin: miter"/>
     <use xlink:href="#m93e509f81f" x="319.959538" y="190.766089" style="fill: #d62728; stroke: #d62728; stroke-linejoin: miter"/>
     <use xlink:href="#m93e509f81f" x="329.443397" y="189.684053" style="fill: #d62728; stroke: #d62728; stroke-linejoin: miter"/>
     <use xlink:href="#m93e509f81f" x="338.927256" y="186.6277" style="fill: #d62728; stroke: #d62728; stroke-linejoin: miter"/>
     <use xlink:href="#m93e509f81f" x="348.411115" y="184.467632" style="fill: #d62728; stroke: #d62728; stroke-linejoin: miter"/>
     <use xlink:href="#m93e509f81f" x="357.894974" y="181.528587" style="fill: #d62728; stroke: #d62728; stroke-linejoin: miter"/>
     <use xlink:href="#m93e509f81f" x="367.378833" y="179.526683" style="fill: #d62728; stroke: #d62728; stroke-linejoin: miter"/>
     <use xlink:href="#m93e509f81f" x="376.862692" y="177.121499" style="fill: #d62728; stroke: #d62728; stroke-linejoin: miter"/>
     <use xlink:href="#m93e509f81f" x="386.346551" y="174.066679" style="fill: #d62728; stroke: #d62728; stroke-linejoin: miter"/>
     <use xlink:href="#m93e509f81f" x="395.83041" y="172.010001" style="fill: #d62728; stroke: #d62728; stroke-linejoin: miter"/>
     <use xlink:href="#m93e509f81f" x="405.314269" y="169.876446" style="fill: #d62728; stroke: #d62728; stroke-linejoin: miter"/>
     <use xlink:href="#m93e509f81f" x="414.798128" y="168.116593" style="fill: #d62728; stroke: #d62728; stroke-linejoin: miter"/>
     <use xlink:href="#m93e509f81f" x="424.281987" y="165.492237" style="fill: #d62728; stroke: #d62728; stroke-linejoin: miter"/>
     <use xlink:href="#m93e509f81f" x="433.765846" y="163.565535" style="fill: #d62728; stroke: #d62728; stroke-linejoin: miter"/>
     <use xlink:href="#m93e509f81f" x="443.249705" y="160.749124" style="fill: #d62728; stroke: #d62728; stroke-linejoin: miter"/>
     <use xlink:href="#m93e509f81f" x="452.733564" y="159.86402" style="fill: #d62728; stroke: #d62728; stroke-linejoin: miter"/>
     <use xlink:href="#m93e509f81f" x="462.217423" y="158.102382" style="fill: #d62728; stroke: #d62728; stroke-linejoin: miter"/>
     <use xlink:href="#m93e509f81f" x="471.701282" y="156.355731" style="fill: #d62728; stroke: #d62728; stroke-linejoin: miter"/>
     <use xlink:href="#m93e509f81f" x="481.185141" y="154.370395" style="fill: #d62728; stroke: #d62728; stroke-linejoin: miter"/>
     <use xlink:href="#m93e509f81f" x="490.669" y="152.670792" style="fill: #d62728; stroke: #d62728; stroke-linejoin: miter"/>
     <use xlink:href="#m93e509f81f" x="500.152859" y="151.376542" style="fill: #d62728; stroke: #d62728; stroke-linejoin: miter"/>
     <use xlink:href="#m93e509f81f" x="509.636718" y="149.959513" style="fill: #d62728; stroke: #d62728; stroke-linejoin: miter"/>
     <use xlink:href="#m93e509f81f" x="519.120577" y="148.309637" style="fill: #d62728; stroke: #d62728; stroke-linejoin: miter"/>
     <use xlink:href="#m93e509f81f" x="528.604436" y="146.913128" style="fill: #d62728; stroke: #d62728; stroke-linejoin: miter"/>
     <use xlink:href="#m93e509f81f" x="538.088295" y="145.530694" style="fill: #d62728; stroke: #d62728; stroke-linejoin: miter"/>
    </g>
   </g>
   <g id="patch_3">
    <path d="M 50.14375 312.04 
L 50.14375 22.32 
" style="fill: none; stroke: #000000; stroke-width: 0.8; stroke-linejoin: miter; stroke-linecap: square"/>
   </g>
   <g id="patch_4">
    <path d="M 561.32375 312.04 
L 561.32375 22.32 
" style="fill: none; stroke: #000000; stroke-width: 0.8; stroke-linejoin: miter; stroke-linecap: square"/>
   </g>
   <g id="patch_5">
    <path d="M 50.14375 312.04 
L 561.32375 312.04 
" style="fill: none; stroke: #000000; stroke-width: 0.8; stroke-linejoin: miter; stroke-linecap: square"/>
   </g>
   <g id="patch_6">
    <path d="M 50.14375 22.32 
L 561.32375 22.32 
" style="fill: none; stroke: #000000; stroke-width: 0.8; stroke-linejoin: miter; stroke-linecap: square"/>
   </g>
   <g id="text_18">
    <!-- Sensitivity vs $\omega$: 2D slices, 4D random search, Nelder-Mead refinement -->
    <g transform="translate(91.53375 16.32) scale(0.12 -0.12)">
     <defs>
      <path id="DejaVuSans-53" d="M 3425 4513 
L 3425 3897 
Q 3066 4069 2747 4153 
Q 2428 4238 2131 4238 
Q 1616 4238 1336 4038 
Q 1056 3838 1056 3469 
Q 1056 3159 1242 3001 
Q 1428 2844 1947 2747 
L 2328 2669 
Q 3034 2534 3370 2195 
Q 3706 1856 3706 1288 
Q 3706 609 3251 259 
Q 2797 -91 1919 -91 
Q 1588 -91 1214 -16 
Q 841 59 441 206 
L 441 856 
Q 825 641 1194 531 
Q 1563 422 1919 422 
Q 2459 422 2753 634 
Q 3047 847 3047 1241 
Q 3047 1584 2836 1778 
Q 2625 1972 2144 2069 
L 1759 2144 
Q 1053 2284 737 2584 
Q 422 2884 422 3419 
Q 422 4038 858 4394 
Q 1294 4750 2059 4750 
Q 2388 4750 2728 4690 
Q 3069 4631 3425 4513 
z
" transform="scale(0.015625)"/>
      <path id="DejaVuSans-65" d="M 3597 1894 
L 3597 1613 
L 953 1613 
Q 991 1019 1311 708 
Q 1631 397 2203 397 
Q 2534 397 2845 478 
Q 3156 559 3463 722 
L 3463 178 
Q 3153 47 2828 -22 
Q 2503 -91 2169 -91 
Q 1331 -91 842 396 
Q 353 884 353 1716 
Q 353 2575 817 3079 
Q 1281 3584 2069 3584 
Q 2775 3584 3186 3129 
Q 3597 2675 3597 1894 
z
M 3022 2063 
Q 3016 2534 2758 2815 
Q 2500 3097 2075 3097 
Q 1594 3097 1305 2825 
Q 1016 2553 972 2059 
L 3022 2063 
z
" transform="scale(0.015625)"/>
      <path id="DejaVuSans-6e" d="M 3513 2113 
L 3513 0 
L 2938 0 
L 2938 2094 
Q 2938 2591 2744 2837 
Q 2550 3084 2163 3084 
Q 1697 3084 1428 2787 
Q 1159 2491 1159 1978 
L 1159 0 
L 581 0 
L 581 3500 
L 1159 3500 
L 1159 2956 
Q 1366 3272 1645 3428 
Q 1925 3584 2291 3584 
Q 2894 3584 3203 3211 
Q 3513 2838 3513 2113 
z
" transform="scale(0.015625)"/>
      <path id="DejaVuSans-73" d="M 2834 3397 
L 2834 2853 
Q 2591 2978 2328 3040 
Q 2066 3103 1784 3103 
Q 1356 3103 1142 2972 
Q 928 2841 928 2578 
Q 928 2378 1081 2264 
Q 1234 2150 1697 2047 
L 1894 2003 
Q 2506 1872 2764 1633 
Q 3022 1394 3022 966 
Q 3022 478 2636 193 
Q 2250 -91 1575 -91 
Q 1294 -91 989 -36 
Q 684 19 347 128 
L 347 722 
Q 666 556 975 473 
Q 1284 391 1588 391 
Q 1994 391 2212 530 
Q 2431 669 2431 922 
Q 2431 1156 2273 1281 
Q 2116 1406 1581 1522 
L 1381 1569 
Q 847 1681 609 1914 
Q 372 2147 372 2553 
Q 372 3047 722 3315 
Q 1072 3584 1716 3584 
Q 2034 3584 2315 3537 
Q 2597 3491 2834 3397 
z
" transform="scale(0.015625)"/>
      <path id="DejaVuSans-69" d="M 603 3500 
L 1178 3500 
L 1178 0 
L 603 0 
L 603 3500 
z
M 603 4863 
L 1178 4863 
L 1178 4134 
L 603 4134 
L 603 4863 
z
" transform="scale(0.015625)"/>
      <path id="DejaVuSans-74" d="M 1172 4494 
L 1172 3500 
L 2356 3500 
L 2356 3053 
L 1172 3053 
L 1172 1153 
Q 1172 725 1289 603 
Q 1406 481 1766 481 
L 2356 481 
L 2356 0 
L 1766 0 
Q 1100 0 847 248 
Q 594 497 594 1153 
L 594 3053 
L 172 3053 
L 172 3500 
L 594 3500 
L 594 4494 
L 1172 4494 
z
" transform="scale(0.015625)"/>
      <path id="DejaVuSans-76" d="M 191 3500 
L 800 3500 
L 1894 563 
L 2988 3500 
L 3597 3500 
L 2284 0 
L 1503 0 
L 191 3500 
z
" transform="scale(0.015625)"/>
      <path id="DejaVuSans-79" d="M 2059 -325 
Q 1816 -950 1584 -1140 
Q 1353 -1331 966 -1331 
L 506 -1331 
L 506 -850 
L 844 -850 
Q 1081 -850 1212 -737 
Q 1344 -625 1503 -206 
L 1606 56 
L 191 3500 
L 800 3500 
L 1894 763 
L 2988 3500 
L 3597 3500 
L 2059 -325 
z
" transform="scale(0.015625)"/>
      <path id="DejaVuSans-20" transform="scale(0.015625)"/>
      <path id="DejaVuSans-3a" d="M 750 794 
L 1409 794 
L 1409 0 
L 750 0 
L 750 794 
z
M 750 3309 
L 1409 3309 
L 1409 2516 
L 750 2516 
L 750 3309 
z
" transform="scale(0.015625)"/>
      <path id="DejaVuSans-44" d="M 1259 4147 
L 1259 519 
L 2022 519 
Q 2988 519 3436 956 
Q 3884 1394 3884 2338 
Q 3884 3275 3436 3711 
Q 2988 4147 2022 4147 
L 1259 4147 
z
M 628 4666 
L 1925 4666 
Q 3281 4666 3915 4102 
Q 4550 3538 4550 2338 
Q 4550 1131 3912 565 
Q 3275 0 1925 0 
L 628 0 
L 628 4666 
z
" transform="scale(0.015625)"/>
      <path id="DejaVuSans-6c" d="M 603 4863 
L 1178 4863 
L 1178 0 
L 603 0 
L 603 4863 
z
" transform="scale(0.015625)"/>
      <path id="DejaVuSans-63" d="M 3122 3366 
L 3122 2828 
Q 2878 2963 2633 3030 
Q 2388 3097 2138 3097 
Q 1578 3097 1268 2742 
Q 959 2388 959 1747 
Q 959 1106 1268 751 
Q 1578 397 2138 397 
Q 2388 397 2633 464 
Q 2878 531 3122 666 
L 3122 134 
Q 2881 22 2623 -34 
Q 2366 -91 2075 -91 
Q 1284 -91 818 406 
Q 353 903 353 1747 
Q 353 2603 823 3093 
Q 1294 3584 2113 3584 
Q 2378 3584 2631 3529 
Q 2884 3475 3122 3366 
z
" transform="scale(0.015625)"/>
      <path id="DejaVuSans-2c" d="M 750 794 
L 1409 794 
L 1409 256 
L 897 -744 
L 494 -744 
L 750 256 
L 750 794 
z
" transform="scale(0.015625)"/>
      <path id="DejaVuSans-72" d="M 2631 2963 
Q 2534 3019 2420 3045 
Q 2306 3072 2169 3072 
Q 1681 3072 1420 2755 
Q 1159 2438 1159 1844 
L 1159 0 
L 581 0 
L 581 3500 
L 1159 3500 
L 1159 2956 
Q 1341 3275 1631 3429 
Q 1922 3584 2338 3584 
Q 2397 3584 2469 3576 
Q 2541 3569 2628 3553 
L 2631 2963 
z
" transform="scale(0.015625)"/>
      <path id="DejaVuSans-61" d="M 2194 1759 
Q 1497 1759 1228 1600 
Q 959 1441 959 1056 
Q 959 750 1161 570 
Q 1363 391 1709 391 
Q 2188 391 2477 730 
Q 2766 1069 2766 1631 
L 2766 1759 
L 2194 1759 
z
M 3341 1997 
L 3341 0 
L 2766 0 
L 2766 531 
Q 2569 213 2275 61 
Q 1981 -91 1556 -91 
Q 1019 -91 701 211 
Q 384 513 384 1019 
Q 384 1609 779 1909 
Q 1175 2209 1959 2209 
L 2766 2209 
L 2766 2266 
Q 2766 2663 2505 2880 
Q 2244 3097 1772 3097 
Q 1472 3097 1187 3025 
Q 903 2953 641 2809 
L 641 3341 
Q 956 3463 1253 3523 
Q 1550 3584 1831 3584 
Q 2591 3584 2966 3190 
Q 3341 2797 3341 1997 
z
" transform="scale(0.015625)"/>
      <path id="DejaVuSans-64" d="M 2906 2969 
L 2906 4863 
L 3481 4863 
L 3481 0 
L 2906 0 
L 2906 525 
Q 2725 213 2448 61 
Q 2172 -91 1784 -91 
Q 1150 -91 751 415 
Q 353 922 353 1747 
Q 353 2572 751 3078 
Q 1150 3584 1784 3584 
Q 2172 3584 2448 3432 
Q 2725 3281 2906 2969 
z
M 947 1747 
Q 947 1113 1208 752 
Q 1469 391 1925 391 
Q 2381 391 2643 752 
Q 2906 1113 2906 1747 
Q 2906 2381 2643 2742 
Q 2381 3103 1925 3103 
Q 1469 3103 1208 2742 
Q 947 2381 947 1747 
z
" transform="scale(0.015625)"/>
      <path id="DejaVuSans-6f" d="M 1959 3097 
Q 1497 3097 1228 2736 
Q 959 2375 959 1747 
Q 959 1119 1226 758 
Q 1494 397 1959 397 
Q 2419 397 2687 759 
Q 2956 1122 2956 1747 
Q 2956 2369 2687 2733 
Q 2419 3097 1959 3097 
z
M 1959 3584 
Q 2709 3584 3137 3096 
Q 3566 2609 3566 1747 
Q 3566 888 3137 398 
Q 2709 -91 1959 -91 
Q 1206 -91 779 398 
Q 353 888 353 1747 
Q 353 2609 779 3096 
Q 1206 3584 1959 3584 
z
" transform="scale(0.015625)"/>
      <path id="DejaVuSans-6d" d="M 3328 2828 
Q 3544 3216 3844 3400 
Q 4144 3584 4550 3584 
Q 5097 3584 5394 3201 
Q 5691 2819 5691 2113 
L 5691 0 
L 5113 0 
L 5113 2094 
Q 5113 2597 4934 2840 
Q 4756 3084 4391 3084 
Q 3944 3084 3684 2787 
Q 3425 2491 3425 1978 
L 3425 0 
L 2847 0 
L 2847 2094 
Q 2847 2600 2669 2842 
Q 2491 3084 2119 3084 
Q 1678 3084 1418 2786 
Q 1159 2488 1159 1978 
L 1159 0 
L 581 0 
L 581 3500 
L 1159 3500 
L 1159 2956 
Q 1356 3278 1631 3431 
Q 1906 3584 2284 3584 
Q 2666 3584 2933 3390 
Q 3200 3197 3328 2828 
z
" transform="scale(0.015625)"/>
      <path id="DejaVuSans-68" d="M 3513 2113 
L 3513 0 
L 2938 0 
L 2938 2094 
Q 2938 2591 2744 2837 
Q 2550 3084 2163 3084 
Q 1697 3084 1428 2787 
Q 1159 2491 1159 1978 
L 1159 0 
L 581 0 
L 581 4863 
L 1159 4863 
L 1159 2956 
Q 1366 3272 1645 3428 
Q 1925 3584 2291 3584 
Q 2894 3584 3203 3211 
Q 3513 2838 3513 2113 
z
" transform="scale(0.015625)"/>
      <path id="DejaVuSans-4e" d="M 628 4666 
L 1478 4666 
L 3547 763 
L 3547 4666 
L 4159 4666 
L 4159 0 
L 3309 0 
L 1241 3903 
L 1241 0 
L 628 0 
L 628 4666 
z
" transform="scale(0.015625)"/>
      <path id="DejaVuSans-2d" d="M 313 2009 
L 1997 2009 
L 1997 1497 
L 313 1497 
L 313 2009 
z
" transform="scale(0.015625)"/>
      <path id="DejaVuSans-4d" d="M 628 4666 
L 1569 4666 
L 2759 1491 
L 3956 4666 
L 4897 4666 
L 4897 0 
L 4281 0 
L 4281 4097 
L 3078 897 
L 2444 897 
L 1241 4097 
L 1241 0 
L 628 0 
L 628 4666 
z
" transform="scale(0.015625)"/>
      <path id="DejaVuSans-66" d="M 2375 4863 
L 2375 4384 
L 1825 4384 
Q 1516 4384 1395 4259 
Q 1275 4134 1275 3809 
L 1275 3500 
L 2222 3500 
L 2222 3053 
L 1275 3053 
L 1275 0 
L 697 0 
L 697 3053 
L 147 3053 
L 147 3500 
L 697 3500 
L 697 3744 
Q 697 4328 969 4595 
Q 1241 4863 1831 4863 
L 2375 4863 
z
" transform="scale(0.015625)"/>
     </defs>
     <use xlink:href="#DejaVuSans-53" transform="translate(0 0.015625)"/>
     <use xlink:href="#DejaVuSans-65" transform="translate(63.476562 0.015625)"/>
     <use xlink:href="#DejaVuSans-6e" transform="translate(125 0.015625)"/>
     <use xlink:href="#DejaVuSans-73" transform="translate(188.378906 0.015625)"/>
     <use xlink:href="#DejaVuSans-69" transform="translate(240.478516 0.015625)"/>
     <use xlink:href="#DejaVuSans-74" transform="translate(268.261719 0.015625)"/>
     <use xlink:href="#DejaVuSans-69" transform="translate(307.470703 0.015625)"/>
     <use xlink:href="#DejaVuSans-76" transform="translate(335.253906 0.015625)"/>
     <use xlink:href="#DejaVuSans-69" transform="translate(394.433594 0.015625)"/>
     <use xlink:href="#DejaVuSans-74" transform="translate(422.216797 0.015625)"/>
     <use xlink:href="#DejaVuSans-79" transform="translate(461.425781 0.015625)"/>
     <use xlink:href="#DejaVuSans-20" transform="translate(520.605469 0.015625)"/>
     <use xlink:href="#DejaVuSans-76" transform="translate(552.392578 0.015625)"/>
     <use xlink:href="#DejaVuSans-73" transform="translate(611.572266 0.015625)"/>
     <use xlink:href="#DejaVuSans-20" transform="translate(663.671875 0.015625)"/>
     <use xlink:href="#DejaVuSans-Oblique-3c9" transform="translate(695.458984 0.015625)"/>
     <use xlink:href="#DejaVuSans-3a" transform="translate(779.199219 0.015625)"/>
     <use xlink:href="#DejaVuSans-20" transform="translate(812.890625 0.015625)"/>
     <use xlink:href="#DejaVuSans-32" transform="translate(844.677734 0.015625)"/>
     <use xlink:href="#DejaVuSans-44" transform="translate(908.300781 0.015625)"/>
     <use xlink:href="#DejaVuSans-20" transform="translate(985.302734 0.015625)"/>
     <use xlink:href="#DejaVuSans-73" transform="translate(1017.089844 0.015625)"/>
     <use xlink:href="#DejaVuSans-6c" transform="translate(1069.189453 0.015625)"/>
     <use xlink:href="#DejaVuSans-69" transform="translate(1096.972656 0.015625)"/>
     <use xlink:href="#DejaVuSans-63" transform="translate(1124.755859 0.015625)"/>
     <use xlink:href="#DejaVuSans-65" transform="translate(1179.736328 0.015625)"/>
     <use xlink:href="#DejaVuSans-73" transform="translate(1241.259766 0.015625)"/>
     <use xlink:href="#DejaVuSans-2c" transform="translate(1293.359375 0.015625)"/>
     <use xlink:href="#DejaVuSans-20" transform="translate(1325.146484 0.015625)"/>
     <use xlink:href="#DejaVuSans-34" transform="translate(1356.933594 0.015625)"/>
     <use xlink:href="#DejaVuSans-44" transform="translate(1420.556641 0.015625)"/>
     <use xlink:href="#DejaVuSans-20" transform="translate(1497.558594 0.015625)"/>
     <use xlink:href="#DejaVuSans-72" transform="translate(1529.345703 0.015625)"/>
     <use xlink:href="#DejaVuSans-61" transform="translate(1570.458984 0.015625)"/>
     <use xlink:href="#DejaVuSans-6e" transform="translate(1631.738281 0.015625)"/>
     <use xlink:href="#DejaVuSans-64" transform="translate(1695.117188 0.015625)"/>
     <use xlink:href="#DejaVuSans-6f" transform="translate(1758.59375 0.015625)"/>
     <use xlink:href="#DejaVuSans-6d" transform="translate(1819.775391 0.015625)"/>
     <use xlink:href="#DejaVuSans-20" transform="translate(1917.1875 0.015625)"/>
     <use xlink:href="#DejaVuSans-73" transform="translate(1948.974609 0.015625)"/>
     <use xlink:href="#DejaVuSans-65" transform="translate(2001.074219 0.015625)"/>
     <use xlink:href="#DejaVuSans-61" transform="translate(2062.597656 0.015625)"/>
     <use xlink:href="#DejaVuSans-72" transform="translate(2123.876953 0.015625)"/>
     <use xlink:href="#DejaVuSans-63" transform="translate(2164.990234 0.015625)"/>
     <use xlink:href="#DejaVuSans-68" transform="translate(2219.970703 0.015625)"/>
     <use xlink:href="#DejaVuSans-2c" transform="translate(2283.349609 0.015625)"/>
     <use xlink:href="#DejaVuSans-20" transform="translate(2315.136719 0.015625)"/>
     <use xlink:href="#DejaVuSans-4e" transform="translate(2346.923828 0.015625)"/>
     <use xlink:href="#DejaVuSans-65" transform="translate(2421.728516 0.015625)"/>
     <use xlink:href="#DejaVuSans-6c" transform="translate(2483.251953 0.015625)"/>
     <use xlink:href="#DejaVuSans-64" transform="translate(2511.035156 0.015625)"/>
     <use xlink:href="#DejaVuSans-65" transform="translate(2574.511719 0.015625)"/>
     <use xlink:href="#DejaVuSans-72" transform="translate(2636.035156 0.015625)"/>
     <use xlink:href="#DejaVuSans-2d" transform="translate(2677.148438 0.015625)"/>
     <use xlink:href="#DejaVuSans-4d" transform="translate(2713.232422 0.015625)"/>
     <use xlink:href="#DejaVuSans-65" transform="translate(2799.511719 0.015625)"/>
     <use xlink:href="#DejaVuSans-61" transform="translate(2861.035156 0.015625)"/>
     <use xlink:href="#DejaVuSans-64" transform="translate(2922.314453 0.015625)"/>
     <use xlink:href="#DejaVuSans-20" transform="translate(2985.791016 0.015625)"/>
     <use xlink:href="#DejaVuSans-72" transform="translate(3017.578125 0.015625)"/>
     <use xlink:href="#DejaVuSans-65" transform="translate(3058.691406 0.015625)"/>
     <use xlink:href="#DejaVuSans-66" transform="translate(3120.214844 0.015625)"/>
     <use xlink:href="#DejaVuSans-69" transform="translate(3155.419922 0.015625)"/>
     <use xlink:href="#DejaVuSans-6e" transform="translate(3183.203125 0.015625)"/>
     <use xlink:href="#DejaVuSans-65" transform="translate(3246.582031 0.015625)"/>
     <use xlink:href="#DejaVuSans-6d" transform="translate(3308.105469 0.015625)"/>
     <use xlink:href="#DejaVuSans-65" transform="translate(3405.517578 0.015625)"/>
     <use xlink:href="#DejaVuSans-6e" transform="translate(3467.041016 0.015625)"/>
     <use xlink:href="#DejaVuSans-74" transform="translate(3530.419922 0.015625)"/>
    </g>
   </g>
   <g id="legend_1">
    <g id="patch_7">
     <path d="M 443.049687 307.54 
L 555.02375 307.54 
Q 556.82375 307.54 556.82375 305.74 
L 556.82375 226.458438 
Q 556.82375 224.658437 555.02375 224.658437 
L 443.049687 224.658437 
Q 441.249687 224.658437 441.249687 226.458438 
L 441.249687 305.74 
Q 441.249687 307.54 443.049687 307.54 
z
" style="fill: #ffffff; opacity: 0.8; stroke: #cccccc; stroke-linejoin: miter"/>
    </g>
    <g id="line2d_22">
     <path d="M 444.849687 231.947031 
L 453.849687 231.947031 
L 462.849687 231.947031 
" style="fill: none; stroke-dasharray: 5.55,2.4; stroke-dashoffset: 0; stroke: #808080; stroke-opacity: 0.7; stroke-width: 1.5"/>
    </g>
    <g id="text_19">
     <!-- SQL = 0.0707 -->
     <g transform="translate(470.049687 235.097031) scale(0.09 -0.09)">
      <defs>
       <path id="DejaVuSans-51" d="M 2522 4238 
Q 1834 4238 1429 3725 
Q 1025 3213 1025 2328 
Q 1025 1447 1429 934 
Q 1834 422 2522 422 
Q 3209 422 3611 934 
Q 4013 1447 4013 2328 
Q 4013 3213 3611 3725 
Q 3209 4238 2522 4238 
z
M 3406 84 
L 4238 -825 
L 3475 -825 
L 2784 -78 
Q 2681 -84 2626 -87 
Q 2572 -91 2522 -91 
Q 1538 -91 948 567 
Q 359 1225 359 2328 
Q 359 3434 948 4092 
Q 1538 4750 2522 4750 
Q 3503 4750 4090 4092 
Q 4678 3434 4678 2328 
Q 4678 1516 4351 937 
Q 4025 359 3406 84 
z
" transform="scale(0.015625)"/>
       <path id="DejaVuSans-4c" d="M 628 4666 
L 1259 4666 
L 1259 531 
L 3531 531 
L 3531 0 
L 628 0 
L 628 4666 
z
" transform="scale(0.015625)"/>
       <path id="DejaVuSans-3d" d="M 678 2906 
L 4684 2906 
L 4684 2381 
L 678 2381 
L 678 2906 
z
M 678 1631 
L 4684 1631 
L 4684 1100 
L 678 1100 
L 678 1631 
z
" transform="scale(0.015625)"/>
      </defs>
      <use xlink:href="#DejaVuSans-53"/>
      <use xlink:href="#DejaVuSans-51" transform="translate(63.476562 0)"/>
      <use xlink:href="#DejaVuSans-4c" transform="translate(142.1875 0)"/>
      <use xlink:href="#DejaVuSans-20" transform="translate(197.900391 0)"/>
      <use xlink:href="#DejaVuSans-3d" transform="translate(229.6875 0)"/>
      <use xlink:href="#DejaVuSans-20" transform="translate(313.476562 0)"/>
      <use xlink:href="#DejaVuSans-30" transform="translate(345.263672 0)"/>
      <use xlink:href="#DejaVuSans-2e" transform="translate(408.886719 0)"/>
      <use xlink:href="#DejaVuSans-30" transform="translate(440.673828 0)"/>
      <use xlink:href="#DejaVuSans-37" transform="translate(504.296875 0)"/>
      <use xlink:href="#DejaVuSans-30" transform="translate(567.919922 0)"/>
      <use xlink:href="#DejaVuSans-37" transform="translate(631.542969 0)"/>
     </g>
    </g>
    <g id="line2d_23">
     <path d="M 444.849687 245.157344 
L 453.849687 245.157344 
L 462.849687 245.157344 
" style="fill: none; stroke: #1f77b4; stroke-width: 1.5; stroke-linecap: square"/>
     <g>
      <use xlink:href="#m16b1bd9e4c" x="453.849687" y="245.157344" style="fill: #1f77b4; stroke: #1f77b4"/>
     </g>
    </g>
    <g id="text_20">
     <!-- 2D slice $(a_x, a_{zz})$ -->
     <g transform="translate(470.049687 248.307344) scale(0.09 -0.09)">
      <defs>
       <path id="DejaVuSans-28" d="M 1984 4856 
Q 1566 4138 1362 3434 
Q 1159 2731 1159 2009 
Q 1159 1288 1364 580 
Q 1569 -128 1984 -844 
L 1484 -844 
Q 1016 -109 783 600 
Q 550 1309 550 2009 
Q 550 2706 781 3412 
Q 1013 4119 1484 4856 
L 1984 4856 
z
" transform="scale(0.015625)"/>
       <path id="DejaVuSans-Oblique-61" d="M 3438 1997 
L 3047 0 
L 2472 0 
L 2578 531 
Q 2325 219 2001 64 
Q 1678 -91 1281 -91 
Q 834 -91 548 182 
Q 263 456 263 884 
Q 263 1497 752 1853 
Q 1241 2209 2100 2209 
L 2900 2209 
L 2931 2363 
Q 2938 2388 2941 2417 
Q 2944 2447 2944 2509 
Q 2944 2788 2717 2942 
Q 2491 3097 2081 3097 
Q 1800 3097 1504 3025 
Q 1209 2953 897 2809 
L 997 3341 
Q 1322 3463 1633 3523 
Q 1944 3584 2234 3584 
Q 2853 3584 3176 3315 
Q 3500 3047 3500 2534 
Q 3500 2431 3484 2292 
Q 3469 2153 3438 1997 
z
M 2816 1759 
L 2241 1759 
Q 1534 1759 1195 1570 
Q 856 1381 856 984 
Q 856 709 1029 553 
Q 1203 397 1509 397 
Q 1978 397 2328 733 
Q 2678 1069 2791 1631 
L 2816 1759 
z
" transform="scale(0.015625)"/>
       <path id="DejaVuSans-Oblique-78" d="M 3841 3500 
L 2234 1784 
L 3219 0 
L 2559 0 
L 1819 1388 
L 531 0 
L -166 0 
L 1556 1844 
L 641 3500 
L 1300 3500 
L 1972 2234 
L 3144 3500 
L 3841 3500 
z
" transform="scale(0.015625)"/>
       <path id="DejaVuSans-Oblique-7a" d="M 744 3500 
L 3475 3500 
L 3372 2975 
L 738 459 
L 2913 459 
L 2822 0 
L -19 0 
L 84 525 
L 2719 3041 
L 653 3041 
L 744 3500 
z
" transform="scale(0.015625)"/>
       <path id="DejaVuSans-29" d="M 513 4856 
L 1013 4856 
Q 1481 4119 1714 3412 
Q 1947 2706 1947 2009 
Q 1947 1309 1714 600 
Q 1481 -109 1013 -844 
L 513 -844 
Q 928 -128 1133 580 
Q 1338 1288 1338 2009 
Q 1338 2731 1133 3434 
Q 928 4138 513 4856 
z
" transform="scale(0.015625)"/>
      </defs>
      <use xlink:href="#DejaVuSans-32" transform="translate(0 0.015625)"/>
      <use xlink:href="#DejaVuSans-44" transform="translate(63.623047 0.015625)"/>
      <use xlink:href="#DejaVuSans-20" transform="translate(140.625 0.015625)"/>
      <use xlink:href="#DejaVuSans-73" transform="translate(172.412109 0.015625)"/>
      <use xlink:href="#DejaVuSans-6c" transform="translate(224.511719 0.015625)"/>
      <use xlink:href="#DejaVuSans-69" transform="translate(252.294922 0.015625)"/>
      <use xlink:href="#DejaVuSans-63" transform="translate(280.078125 0.015625)"/>
      <use xlink:href="#DejaVuSans-65" transform="translate(335.058594 0.015625)"/>
      <use xlink:href="#DejaVuSans-20" transform="translate(396.582031 0.015625)"/>
      <use xlink:href="#DejaVuSans-28" transform="translate(428.369141 0.015625)"/>
      <use xlink:href="#DejaVuSans-Oblique-61" transform="translate(467.382812 0.015625)"/>
      <use xlink:href="#DejaVuSans-Oblique-78" transform="translate(528.662109 -16.390625) scale(0.7)"/>
      <use xlink:href="#DejaVuSans-2c" transform="translate(572.822266 0.015625)"/>
      <use xlink:href="#DejaVuSans-Oblique-61" transform="translate(624.091797 0.015625)"/>
      <use xlink:href="#DejaVuSans-Oblique-7a" transform="translate(685.371094 -16.390625) scale(0.7)"/>
      <use xlink:href="#DejaVuSans-Oblique-7a" transform="translate(722.114258 -16.390625) scale(0.7)"/>
      <use xlink:href="#DejaVuSans-29" transform="translate(761.591797 0.015625)"/>
     </g>
    </g>
    <g id="line2d_24">
     <path d="M 444.849687 258.369063 
L 453.849687 258.369063 
L 462.849687 258.369063 
" style="fill: none; stroke: #ff7f0e; stroke-width: 1.5; stroke-linecap: square"/>
     <g>
      <use xlink:href="#m55493fb664" x="453.849687" y="258.369063" style="fill: #ff7f0e; stroke: #ff7f0e; stroke-linejoin: miter"/>
     </g>
    </g>
    <g id="text_21">
     <!-- 2D slice $(a_y, a_{zz})$ -->
     <g transform="translate(470.049687 261.519063) scale(0.09 -0.09)">
      <defs>
       <path id="DejaVuSans-Oblique-79" d="M 1588 -325 
Q 1188 -997 936 -1164 
Q 684 -1331 294 -1331 
L -159 -1331 
L -63 -850 
L 269 -850 
Q 509 -850 678 -719 
Q 847 -588 1056 -206 
L 1234 128 
L 459 3500 
L 1069 3500 
L 1650 819 
L 3256 3500 
L 3859 3500 
L 1588 -325 
z
" transform="scale(0.015625)"/>
      </defs>
      <use xlink:href="#DejaVuSans-32" transform="translate(0 0.015625)"/>
      <use xlink:href="#DejaVuSans-44" transform="translate(63.623047 0.015625)"/>
      <use xlink:href="#DejaVuSans-20" transform="translate(140.625 0.015625)"/>
      <use xlink:href="#DejaVuSans-73" transform="translate(172.412109 0.015625)"/>
      <use xlink:href="#DejaVuSans-6c" transform="translate(224.511719 0.015625)"/>
      <use xlink:href="#DejaVuSans-69" transform="translate(252.294922 0.015625)"/>
      <use xlink:href="#DejaVuSans-63" transform="translate(280.078125 0.015625)"/>
      <use xlink:href="#DejaVuSans-65" transform="translate(335.058594 0.015625)"/>
      <use xlink:href="#DejaVuSans-20" transform="translate(396.582031 0.015625)"/>
      <use xlink:href="#DejaVuSans-28" transform="translate(428.369141 0.015625)"/>
      <use xlink:href="#DejaVuSans-Oblique-61" transform="translate(467.382812 0.015625)"/>
      <use xlink:href="#DejaVuSans-Oblique-79" transform="translate(528.662109 -16.390625) scale(0.7)"/>
      <use xlink:href="#DejaVuSans-2c" transform="translate(572.822266 0.015625)"/>
      <use xlink:href="#DejaVuSans-Oblique-61" transform="translate(624.091797 0.015625)"/>
      <use xlink:href="#DejaVuSans-Oblique-7a" transform="translate(685.371094 -16.390625) scale(0.7)"/>
      <use xlink:href="#DejaVuSans-Oblique-7a" transform="translate(722.114258 -16.390625) scale(0.7)"/>
      <use xlink:href="#DejaVuSans-29" transform="translate(761.591797 0.015625)"/>
     </g>
    </g>
    <g id="line2d_25">
     <path d="M 444.849687 272.497656 
L 453.849687 272.497656 
L 462.849687 272.497656 
" style="fill: none; stroke: #9467bd; stroke-width: 1.5; stroke-linecap: square"/>
     <g>
      <use xlink:href="#m0489a7208c" x="453.849687" y="272.497656" style="fill: #9467bd; stroke: #9467bd; stroke-linejoin: miter"/>
     </g>
    </g>
    <g id="text_22">
     <!-- 2D slice $(a_z, a_{zz})$ -->
     <g transform="translate(470.049687 275.647656) scale(0.09 -0.09)">
      <use xlink:href="#DejaVuSans-32" transform="translate(0 0.015625)"/>
      <use xlink:href="#DejaVuSans-44" transform="translate(63.623047 0.015625)"/>
      <use xlink:href="#DejaVuSans-20" transform="translate(140.625 0.015625)"/>
      <use xlink:href="#DejaVuSans-73" transform="translate(172.412109 0.015625)"/>
      <use xlink:href="#DejaVuSans-6c" transform="translate(224.511719 0.015625)"/>
      <use xlink:href="#DejaVuSans-69" transform="translate(252.294922 0.015625)"/>
      <use xlink:href="#DejaVuSans-63" transform="translate(280.078125 0.015625)"/>
      <use xlink:href="#DejaVuSans-65" transform="translate(335.058594 0.015625)"/>
      <use xlink:href="#DejaVuSans-20" transform="translate(396.582031 0.015625)"/>
      <use xlink:href="#DejaVuSans-28" transform="translate(428.369141 0.015625)"/>
      <use xlink:href="#DejaVuSans-Oblique-61" transform="translate(467.382812 0.015625)"/>
      <use xlink:href="#DejaVuSans-Oblique-7a" transform="translate(528.662109 -16.390625) scale(0.7)"/>
      <use xlink:href="#DejaVuSans-2c" transform="translate(568.139648 0.015625)"/>
      <use xlink:href="#DejaVuSans-Oblique-61" transform="translate(619.40918 0.015625)"/>
      <use xlink:href="#DejaVuSans-Oblique-7a" transform="translate(680.688477 -16.390625) scale(0.7)"/>
      <use xlink:href="#DejaVuSans-Oblique-7a" transform="translate(717.431641 -16.390625) scale(0.7)"/>
      <use xlink:href="#DejaVuSans-29" transform="translate(756.90918 0.015625)"/>
     </g>
    </g>
    <g id="line2d_26">
     <path d="M 444.849687 285.707969 
L 453.849687 285.707969 
L 462.849687 285.707969 
" style="fill: none; stroke: #2ca02c; stroke-width: 1.5; stroke-linecap: square"/>
     <g>
      <use xlink:href="#m4efb02d147" x="453.849687" y="285.707969" style="fill: #2ca02c; stroke: #2ca02c; stroke-linejoin: miter"/>
     </g>
    </g>
    <g id="text_23">
     <!-- 4D random search -->
     <g transform="translate(470.049687 288.857969) scale(0.09 -0.09)">
      <use xlink:href="#DejaVuSans-34"/>
      <use xlink:href="#DejaVuSans-44" transform="translate(63.623047 0)"/>
      <use xlink:href="#DejaVuSans-20" transform="translate(140.625 0)"/>
      <use xlink:href="#DejaVuSans-72" transform="translate(172.412109 0)"/>
      <use xlink:href="#DejaVuSans-61" transform="translate(213.525391 0)"/>
      <use xlink:href="#DejaVuSans-6e" transform="translate(274.804688 0)"/>
      <use xlink:href="#DejaVuSans-64" transform="translate(338.183594 0)"/>
      <use xlink:href="#DejaVuSans-6f" transform="translate(401.660156 0)"/>
      <use xlink:href="#DejaVuSans-6d" transform="translate(462.841797 0)"/>
      <use xlink:href="#DejaVuSans-20" transform="translate(560.253906 0)"/>
      <use xlink:href="#DejaVuSans-73" transform="translate(592.041016 0)"/>
      <use xlink:href="#DejaVuSans-65" transform="translate(644.140625 0)"/>
      <use xlink:href="#DejaVuSans-61" transform="translate(705.664062 0)"/>
      <use xlink:href="#DejaVuSans-72" transform="translate(766.943359 0)"/>
      <use xlink:href="#DejaVuSans-63" transform="translate(805.806641 0)"/>
      <use xlink:href="#DejaVuSans-68" transform="translate(860.787109 0)"/>
     </g>
    </g>
    <g id="line2d_27">
     <path d="M 444.849687 298.918281 
L 453.849687 298.918281 
L 462.849687 298.918281 
" style="fill: none; stroke: #d62728; stroke-width: 1.5; stroke-linecap: square"/>
     <g>
      <use xlink:href="#m93e509f81f" x="453.849687" y="298.918281" style="fill: #d62728; stroke: #d62728; stroke-linejoin: miter"/>
     </g>
    </g>
    <g id="text_24">
     <!-- 4D Nelder-Mead -->
     <g transform="translate(470.049687 302.068281) scale(0.09 -0.09)">
      <use xlink:href="#DejaVuSans-34"/>
      <use xlink:href="#DejaVuSans-44" transform="translate(63.623047 0)"/>
      <use xlink:href="#DejaVuSans-20" transform="translate(140.625 0)"/>
      <use xlink:href="#DejaVuSans-4e" transform="translate(172.412109 0)"/>
      <use xlink:href="#DejaVuSans-65" transform="translate(247.216797 0)"/>
      <use xlink:href="#DejaVuSans-6c" transform="translate(308.740234 0)"/>
      <use xlink:href="#DejaVuSans-64" transform="translate(336.523438 0)"/>
      <use xlink:href="#DejaVuSans-65" transform="translate(400 0)"/>
      <use xlink:href="#DejaVuSans-72" transform="translate(461.523438 0)"/>
      <use xlink:href="#DejaVuSans-2d" transform="translate(496.261719 0)"/>
      <use xlink:href="#DejaVuSans-4d" transform="translate(532.345703 0)"/>
      <use xlink:href="#DejaVuSans-65" transform="translate(618.625 0)"/>
      <use xlink:href="#DejaVuSans-61" transform="translate(680.148438 0)"/>
      <use xlink:href="#DejaVuSans-64" transform="translate(741.427734 0)"/>
     </g>
    </g>
   </g>
  </g>
 </g>
 <defs>
  <clipPath id="p04995a653f">
   <rect x="50.14375" y="22.32" width="511.18" height="289.72"/>
  </clipPath>
 </defs>
</svg>
