<?xml version="1.0" encoding="utf-8" standalone="no"?>
<!DOCTYPE svg PUBLIC "-//W3C//DTD SVG 1.1//EN"
  "http://www.w3.org/Graphics/SVG/1.1/DTD/svg11.dtd">
<svg xmlns:xlink="http://www.w3.org/1999/xlink" width="707.235937pt" height="560.579688pt" viewBox="0 0 707.235937 560.579688" xmlns="http://www.w3.org/2000/svg" version="1.1">
 <metadata>
  <rdf:RDF xmlns:dc="http://purl.org/dc/elements/1.1/" xmlns:cc="http://creativecommons.org/ns#" xmlns:rdf="http://www.w3.org/1999/02/22-rdf-syntax-ns#">
   <cc:Work>
    <dc:type rdf:resource="http://purl.org/dc/dcmitype/StillImage"/>
    <dc:date>2026-06-19T07:28:30.182114</dc:date>
    <dc:format>image/svg+xml</dc:format>
    <dc:creator>
     <cc:Agent>
      <dc:title>Matplotlib v3.10.9, https://matplotlib.org/</dc:title>
     </cc:Agent>
    </dc:creator>
   </cc:Work>
  </rdf:RDF>
 </metadata>
 <defs>
  <style type="text/css">*{stroke-linejoin: round; stroke-linecap: butt}</style>
 </defs>
 <g id="figure_1">
  <g id="patch_1">
   <path d="M 0 560.579688 
L 707.235937 560.579688 
L 707.235937 0 
L 0 0 
z
" style="fill: #ffffff"/>
  </g>
  <g id="axes_1">
   <g id="patch_2">
    <path d="M 56.805937 254.73 
L 700.035937 254.73 
L 700.035937 22.32 
L 56.805937 22.32 
z
" style="fill: #ffffff"/>
   </g>
   <g id="matplotlib.axis_1">
    <g id="xtick_1">
     <g id="line2d_1">
      <path d="M 74.109899 254.73 
L 74.109899 22.32 
" clip-path="url(#ped0d6d097f)" style="fill: none; stroke: #cccccc; stroke-linecap: round"/>
     </g>
    </g>
    <g id="xtick_2">
     <g id="line2d_2">
      <path d="M 193.447561 254.73 
L 193.447561 22.32 
" clip-path="url(#ped0d6d097f)" style="fill: none; stroke: #cccccc; stroke-linecap: round"/>
     </g>
    </g>
    <g id="xtick_3">
     <g id="line2d_3">
      <path d="M 312.785223 254.73 
L 312.785223 22.32 
" clip-path="url(#ped0d6d097f)" style="fill: none; stroke: #cccccc; stroke-linecap: round"/>
     </g>
    </g>
    <g id="xtick_4">
     <g id="line2d_4">
      <path d="M 432.122886 254.73 
L 432.122886 22.32 
" clip-path="url(#ped0d6d097f)" style="fill: none; stroke: #cccccc; stroke-linecap: round"/>
     </g>
    </g>
    <g id="xtick_5">
     <g id="line2d_5">
      <path d="M 551.460548 254.73 
L 551.460548 22.32 
" clip-path="url(#ped0d6d097f)" style="fill: none; stroke: #cccccc; stroke-linecap: round"/>
     </g>
    </g>
    <g id="xtick_6">
     <g id="line2d_6">
      <path d="M 670.79821 254.73 
L 670.79821 22.32 
" clip-path="url(#ped0d6d097f)" style="fill: none; stroke: #cccccc; stroke-linecap: round"/>
     </g>
    </g>
   </g>
   <g id="matplotlib.axis_2">
    <g id="ytick_1">
     <g id="line2d_7">
      <path d="M 56.805937 239.365024 
L 700.035937 239.365024 
" clip-path="url(#ped0d6d097f)" style="fill: none; stroke: #cccccc; stroke-linecap: round"/>
     </g>
     <g id="text_1">
      <!-- 0.02 -->
      <g style="fill: #262626" transform="translate(22.81375 243.544164) scale(0.11 -0.11)">
       <defs>
        <path id="DejaVuSans-30" d="M 2034 4250 
Q 1547 4250 1301 3770 
Q 1056 3291 1056 2328 
Q 1056 1369 1301 889 
Q 1547 409 2034 409 
Q 2525 409 2770 889 
Q 3016 1369 3016 2328 
Q 3016 3291 2770 3770 
Q 2525 4250 2034 4250 
z
M 2034 4750 
Q 2819 4750 3233 4129 
Q 3647 3509 3647 2328 
Q 3647 1150 3233 529 
Q 2819 -91 2034 -91 
Q 1250 -91 836 529 
Q 422 1150 422 2328 
Q 422 3509 836 4129 
Q 1250 4750 2034 4750 
z
" transform="scale(0.015625)"/>
        <path id="DejaVuSans-2e" d="M 684 794 
L 1344 794 
L 1344 0 
L 684 0 
L 684 794 
z
" transform="scale(0.015625)"/>
        <path id="DejaVuSans-32" d="M 1228 531 
L 3431 531 
L 3431 0 
L 469 0 
L 469 531 
Q 828 903 1448 1529 
Q 2069 2156 2228 2338 
Q 2531 2678 2651 2914 
Q 2772 3150 2772 3378 
Q 2772 3750 2511 3984 
Q 2250 4219 1831 4219 
Q 1534 4219 1204 4116 
Q 875 4013 500 3803 
L 500 4441 
Q 881 4594 1212 4672 
Q 1544 4750 1819 4750 
Q 2544 4750 2975 4387 
Q 3406 4025 3406 3419 
Q 3406 3131 3298 2873 
Q 3191 2616 2906 2266 
Q 2828 2175 2409 1742 
Q 1991 1309 1228 531 
z
" transform="scale(0.015625)"/>
       </defs>
       <use xlink:href="#DejaVuSans-30"/>
       <use xlink:href="#DejaVuSans-2e" transform="translate(63.623047 0)"/>
       <use xlink:href="#DejaVuSans-30" transform="translate(95.410156 0)"/>
       <use xlink:href="#DejaVuSans-32" transform="translate(159.033203 0)"/>
      </g>
     </g>
    </g>
    <g id="ytick_2">
     <g id="line2d_8">
      <path d="M 56.805937 187.74479 
L 700.035937 187.74479 
" clip-path="url(#ped0d6d097f)" style="fill: none; stroke: #cccccc; stroke-linecap: round"/>
     </g>
     <g id="text_2">
      <!-- 0.04 -->
      <g style="fill: #262626" transform="translate(22.81375 191.923931) scale(0.11 -0.11)">
       <defs>
        <path id="DejaVuSans-34" d="M 2419 4116 
L 825 1625 
L 2419 1625 
L 2419 4116 
z
M 2253 4666 
L 3047 4666 
L 3047 1625 
L 3713 1625 
L 3713 1100 
L 3047 1100 
L 3047 0 
L 2419 0 
L 2419 1100 
L 313 1100 
L 313 1709 
L 2253 4666 
z
" transform="scale(0.015625)"/>
       </defs>
       <use xlink:href="#DejaVuSans-30"/>
       <use xlink:href="#DejaVuSans-2e" transform="translate(63.623047 0)"/>
       <use xlink:href="#DejaVuSans-30" transform="translate(95.410156 0)"/>
       <use xlink:href="#DejaVuSans-34" transform="translate(159.033203 0)"/>
      </g>
     </g>
    </g>
    <g id="ytick_3">
     <g id="line2d_9">
      <path d="M 56.805937 136.124557 
L 700.035937 136.124557 
" clip-path="url(#ped0d6d097f)" style="fill: none; stroke: #cccccc; stroke-linecap: round"/>
     </g>
     <g id="text_3">
      <!-- 0.06 -->
      <g style="fill: #262626" transform="translate(22.81375 140.303698) scale(0.11 -0.11)">
       <defs>
        <path id="DejaVuSans-36" d="M 2113 2584 
Q 1688 2584 1439 2293 
Q 1191 2003 1191 1497 
Q 1191 994 1439 701 
Q 1688 409 2113 409 
Q 2538 409 2786 701 
Q 3034 994 3034 1497 
Q 3034 2003 2786 2293 
Q 2538 2584 2113 2584 
z
M 3366 4563 
L 3366 3988 
Q 3128 4100 2886 4159 
Q 2644 4219 2406 4219 
Q 1781 4219 1451 3797 
Q 1122 3375 1075 2522 
Q 1259 2794 1537 2939 
Q 1816 3084 2150 3084 
Q 2853 3084 3261 2657 
Q 3669 2231 3669 1497 
Q 3669 778 3244 343 
Q 2819 -91 2113 -91 
Q 1303 -91 875 529 
Q 447 1150 447 2328 
Q 447 3434 972 4092 
Q 1497 4750 2381 4750 
Q 2619 4750 2861 4703 
Q 3103 4656 3366 4563 
z
" transform="scale(0.015625)"/>
       </defs>
       <use xlink:href="#DejaVuSans-30"/>
       <use xlink:href="#DejaVuSans-2e" transform="translate(63.623047 0)"/>
       <use xlink:href="#DejaVuSans-30" transform="translate(95.410156 0)"/>
       <use xlink:href="#DejaVuSans-36" transform="translate(159.033203 0)"/>
      </g>
     </g>
    </g>
    <g id="ytick_4">
     <g id="line2d_10">
      <path d="M 56.805937 84.504324 
L 700.035937 84.504324 
" clip-path="url(#ped0d6d097f)" style="fill: none; stroke: #cccccc; stroke-linecap: round"/>
     </g>
     <g id="text_4">
      <!-- 0.08 -->
      <g style="fill: #262626" transform="translate(22.81375 88.683465) scale(0.11 -0.11)">
       <defs>
        <path id="DejaVuSans-38" d="M 2034 2216 
Q 1584 2216 1326 1975 
Q 1069 1734 1069 1313 
Q 1069 891 1326 650 
Q 1584 409 2034 409 
Q 2484 409 2743 651 
Q 3003 894 3003 1313 
Q 3003 1734 2745 1975 
Q 2488 2216 2034 2216 
z
M 1403 2484 
Q 997 2584 770 2862 
Q 544 3141 544 3541 
Q 544 4100 942 4425 
Q 1341 4750 2034 4750 
Q 2731 4750 3128 4425 
Q 3525 4100 3525 3541 
Q 3525 3141 3298 2862 
Q 3072 2584 2669 2484 
Q 3125 2378 3379 2068 
Q 3634 1759 3634 1313 
Q 3634 634 3220 271 
Q 2806 -91 2034 -91 
Q 1263 -91 848 271 
Q 434 634 434 1313 
Q 434 1759 690 2068 
Q 947 2378 1403 2484 
z
M 1172 3481 
Q 1172 3119 1398 2916 
Q 1625 2713 2034 2713 
Q 2441 2713 2670 2916 
Q 2900 3119 2900 3481 
Q 2900 3844 2670 4047 
Q 2441 4250 2034 4250 
Q 1625 4250 1398 4047 
Q 1172 3844 1172 3481 
z
" transform="scale(0.015625)"/>
       </defs>
       <use xlink:href="#DejaVuSans-30"/>
       <use xlink:href="#DejaVuSans-2e" transform="translate(63.623047 0)"/>
       <use xlink:href="#DejaVuSans-30" transform="translate(95.410156 0)"/>
       <use xlink:href="#DejaVuSans-38" transform="translate(159.033203 0)"/>
      </g>
     </g>
    </g>
    <g id="ytick_5">
     <g id="line2d_11">
      <path d="M 56.805937 32.884091 
L 700.035937 32.884091 
" clip-path="url(#ped0d6d097f)" style="fill: none; stroke: #cccccc; stroke-linecap: round"/>
     </g>
     <g id="text_5">
      <!-- 0.10 -->
      <g style="fill: #262626" transform="translate(22.81375 37.063232) scale(0.11 -0.11)">
       <defs>
        <path id="DejaVuSans-31" d="M 794 531 
L 1825 531 
L 1825 4091 
L 703 3866 
L 703 4441 
L 1819 4666 
L 2450 4666 
L 2450 531 
L 3481 531 
L 3481 0 
L 794 0 
L 794 531 
z
" transform="scale(0.015625)"/>
       </defs>
       <use xlink:href="#DejaVuSans-30"/>
       <use xlink:href="#DejaVuSans-2e" transform="translate(63.623047 0)"/>
       <use xlink:href="#DejaVuSans-31" transform="translate(95.410156 0)"/>
       <use xlink:href="#DejaVuSans-30" transform="translate(159.033203 0)"/>
      </g>
     </g>
    </g>
    <g id="text_6">
     <!-- $\Delta\omega$ -->
     <g style="fill: #262626" transform="translate(16.318125 147.705) rotate(-90) scale(0.12 -0.12)">
      <defs>
       <path id="DejaVuSans-394" d="M 2188 4044 
L 906 525 
L 3472 525 
L 2188 4044 
z
M 50 0 
L 1831 4666 
L 2547 4666 
L 4325 0 
L 50 0 
z
" transform="scale(0.015625)"/>
       <path id="DejaVuSans-Oblique-3c9" d="M 1369 -91 
Q 72 -91 434 1766 
Q 575 2500 1256 3500 
L 1875 3500 
Q 1231 2500 1088 1750 
Q 819 397 1519 397 
Q 2166 397 2478 2078 
L 3009 2078 
Q 2669 388 3316 397 
Q 4013 403 4275 1750 
Q 4419 2500 4169 3500 
L 4788 3500 
Q 5075 2500 4934 1766 
Q 4578 -94 3278 -91 
Q 2428 -88 2503 844 
Q 2194 -91 1369 -91 
z
" transform="scale(0.015625)"/>
      </defs>
      <use xlink:href="#DejaVuSans-394" transform="translate(0 0.09375)"/>
      <use xlink:href="#DejaVuSans-Oblique-3c9" transform="translate(68.408203 0.09375)"/>
     </g>
    </g>
   </g>
   <g id="line2d_12">
    <path d="M 56.805937 32.884091 
L 700.035937 32.884091 
" clip-path="url(#ped0d6d097f)" style="fill: none; stroke-dasharray: 5.55,2.4; stroke-dashoffset: 0; stroke: #808080; stroke-opacity: 0.7; stroke-width: 1.5"/>
   </g>
   <g id="line2d_13">
    <path d="M 86.043665 226.04348 
L 97.977431 238.716648 
L 109.911197 243.584358 
L 121.844963 242.065169 
L 133.77873 241.487009 
L 145.712496 243.82357 
L 157.646262 244.165909 
L 169.580028 243.320228 
L 181.513795 241.887103 
L 193.447561 242.607996 
L 205.381327 241.61999 
L 217.315093 242.943413 
L 229.24886 241.780276 
L 241.182626 241.730767 
L 253.116392 242.148848 
L 265.050158 240.917068 
L 276.983925 239.017552 
L 288.917691 236.998703 
L 300.851457 235.599059 
L 312.785223 234.282813 
L 324.718989 235.788075 
L 336.652756 235.401686 
L 348.586522 235.075978 
L 360.520288 230.796253 
L 372.454054 229.029462 
L 384.387821 230.724458 
L 396.321587 236.125538 
L 408.255353 236.145005 
L 420.189119 228.878493 
L 432.122886 226.214753 
L 444.056652 224.964321 
L 455.990418 227.465983 
L 467.924184 225.957425 
L 479.85795 224.107267 
L 491.791717 223.167596 
L 503.725483 223.122487 
L 515.659249 222.047494 
L 527.593015 223.781746 
L 539.526782 218.735158 
L 551.460548 217.648548 
L 563.394314 215.459305 
L 575.32808 220.164622 
L 587.261847 215.483724 
L 599.195613 218.521414 
L 611.129379 219.154171 
L 623.063145 213.00997 
L 634.996912 216.382771 
L 646.930678 226.003605 
L 658.864444 217.067304 
L 670.79821 216.153048 
" clip-path="url(#ped0d6d097f)" style="fill: none; stroke: #4c72b0; stroke-width: 1.8; stroke-linecap: round"/>
    <defs>
     <path id="mb2e7b7d1d7" d="M 0 3 
C 0.795609 3 1.55874 2.683901 2.12132 2.12132 
C 2.683901 1.55874 3 0.795609 3 0 
C 3 -0.795609 2.683901 -1.55874 2.12132 -2.12132 
C 1.55874 -2.683901 0.795609 -3 0 -3 
C -0.795609 -3 -1.55874 -2.683901 -2.12132 -2.12132 
C -2.683901 -1.55874 -3 -0.795609 -3 0 
C -3 0.795609 -2.683901 1.55874 -2.12132 2.12132 
C -1.55874 2.683901 -0.795609 3 0 3 
z
" style="stroke: #4c72b0"/>
    </defs>
    <g clip-path="url(#ped0d6d097f)">
     <use xlink:href="#mb2e7b7d1d7" x="86.043665" y="226.04348" style="fill: #4c72b0; stroke: #4c72b0"/>
     <use xlink:href="#mb2e7b7d1d7" x="97.977431" y="238.716648" style="fill: #4c72b0; stroke: #4c72b0"/>
     <use xlink:href="#mb2e7b7d1d7" x="109.911197" y="243.584358" style="fill: #4c72b0; stroke: #4c72b0"/>
     <use xlink:href="#mb2e7b7d1d7" x="121.844963" y="242.065169" style="fill: #4c72b0; stroke: #4c72b0"/>
     <use xlink:href="#mb2e7b7d1d7" x="133.77873" y="241.487009" style="fill: #4c72b0; stroke: #4c72b0"/>
     <use xlink:href="#mb2e7b7d1d7" x="145.712496" y="243.82357" style="fill: #4c72b0; stroke: #4c72b0"/>
     <use xlink:href="#mb2e7b7d1d7" x="157.646262" y="244.165909" style="fill: #4c72b0; stroke: #4c72b0"/>
     <use xlink:href="#mb2e7b7d1d7" x="169.580028" y="243.320228" style="fill: #4c72b0; stroke: #4c72b0"/>
     <use xlink:href="#mb2e7b7d1d7" x="181.513795" y="241.887103" style="fill: #4c72b0; stroke: #4c72b0"/>
     <use xlink:href="#mb2e7b7d1d7" x="193.447561" y="242.607996" style="fill: #4c72b0; stroke: #4c72b0"/>
     <use xlink:href="#mb2e7b7d1d7" x="205.381327" y="241.61999" style="fill: #4c72b0; stroke: #4c72b0"/>
     <use xlink:href="#mb2e7b7d1d7" x="217.315093" y="242.943413" style="fill: #4c72b0; stroke: #4c72b0"/>
     <use xlink:href="#mb2e7b7d1d7" x="229.24886" y="241.780276" style="fill: #4c72b0; stroke: #4c72b0"/>
     <use xlink:href="#mb2e7b7d1d7" x="241.182626" y="241.730767" style="fill: #4c72b0; stroke: #4c72b0"/>
     <use xlink:href="#mb2e7b7d1d7" x="253.116392" y="242.148848" style="fill: #4c72b0; stroke: #4c72b0"/>
     <use xlink:href="#mb2e7b7d1d7" x="265.050158" y="240.917068" style="fill: #4c72b0; stroke: #4c72b0"/>
     <use xlink:href="#mb2e7b7d1d7" x="276.983925" y="239.017552" style="fill: #4c72b0; stroke: #4c72b0"/>
     <use xlink:href="#mb2e7b7d1d7" x="288.917691" y="236.998703" style="fill: #4c72b0; stroke: #4c72b0"/>
     <use xlink:href="#mb2e7b7d1d7" x="300.851457" y="235.599059" style="fill: #4c72b0; stroke: #4c72b0"/>
     <use xlink:href="#mb2e7b7d1d7" x="312.785223" y="234.282813" style="fill: #4c72b0; stroke: #4c72b0"/>
     <use xlink:href="#mb2e7b7d1d7" x="324.718989" y="235.788075" style="fill: #4c72b0; stroke: #4c72b0"/>
     <use xlink:href="#mb2e7b7d1d7" x="336.652756" y="235.401686" style="fill: #4c72b0; stroke: #4c72b0"/>
     <use xlink:href="#mb2e7b7d1d7" x="348.586522" y="235.075978" style="fill: #4c72b0; stroke: #4c72b0"/>
     <use xlink:href="#mb2e7b7d1d7" x="360.520288" y="230.796253" style="fill: #4c72b0; stroke: #4c72b0"/>
     <use xlink:href="#mb2e7b7d1d7" x="372.454054" y="229.029462" style="fill: #4c72b0; stroke: #4c72b0"/>
     <use xlink:href="#mb2e7b7d1d7" x="384.387821" y="230.724458" style="fill: #4c72b0; stroke: #4c72b0"/>
     <use xlink:href="#mb2e7b7d1d7" x="396.321587" y="236.125538" style="fill: #4c72b0; stroke: #4c72b0"/>
     <use xlink:href="#mb2e7b7d1d7" x="408.255353" y="236.145005" style="fill: #4c72b0; stroke: #4c72b0"/>
     <use xlink:href="#mb2e7b7d1d7" x="420.189119" y="228.878493" style="fill: #4c72b0; stroke: #4c72b0"/>
     <use xlink:href="#mb2e7b7d1d7" x="432.122886" y="226.214753" style="fill: #4c72b0; stroke: #4c72b0"/>
     <use xlink:href="#mb2e7b7d1d7" x="444.056652" y="224.964321" style="fill: #4c72b0; stroke: #4c72b0"/>
     <use xlink:href="#mb2e7b7d1d7" x="455.990418" y="227.465983" style="fill: #4c72b0; stroke: #4c72b0"/>
     <use xlink:href="#mb2e7b7d1d7" x="467.924184" y="225.957425" style="fill: #4c72b0; stroke: #4c72b0"/>
     <use xlink:href="#mb2e7b7d1d7" x="479.85795" y="224.107267" style="fill: #4c72b0; stroke: #4c72b0"/>
     <use xlink:href="#mb2e7b7d1d7" x="491.791717" y="223.167596" style="fill: #4c72b0; stroke: #4c72b0"/>
     <use xlink:href="#mb2e7b7d1d7" x="503.725483" y="223.122487" style="fill: #4c72b0; stroke: #4c72b0"/>
     <use xlink:href="#mb2e7b7d1d7" x="515.659249" y="222.047494" style="fill: #4c72b0; stroke: #4c72b0"/>
     <use xlink:href="#mb2e7b7d1d7" x="527.593015" y="223.781746" style="fill: #4c72b0; stroke: #4c72b0"/>
     <use xlink:href="#mb2e7b7d1d7" x="539.526782" y="218.735158" style="fill: #4c72b0; stroke: #4c72b0"/>
     <use xlink:href="#mb2e7b7d1d7" x="551.460548" y="217.648548" style="fill: #4c72b0; stroke: #4c72b0"/>
     <use xlink:href="#mb2e7b7d1d7" x="563.394314" y="215.459305" style="fill: #4c72b0; stroke: #4c72b0"/>
     <use xlink:href="#mb2e7b7d1d7" x="575.32808" y="220.164622" style="fill: #4c72b0; stroke: #4c72b0"/>
     <use xlink:href="#mb2e7b7d1d7" x="587.261847" y="215.483724" style="fill: #4c72b0; stroke: #4c72b0"/>
     <use xlink:href="#mb2e7b7d1d7" x="599.195613" y="218.521414" style="fill: #4c72b0; stroke: #4c72b0"/>
     <use xlink:href="#mb2e7b7d1d7" x="611.129379" y="219.154171" style="fill: #4c72b0; stroke: #4c72b0"/>
     <use xlink:href="#mb2e7b7d1d7" x="623.063145" y="213.00997" style="fill: #4c72b0; stroke: #4c72b0"/>
     <use xlink:href="#mb2e7b7d1d7" x="634.996912" y="216.382771" style="fill: #4c72b0; stroke: #4c72b0"/>
     <use xlink:href="#mb2e7b7d1d7" x="646.930678" y="226.003605" style="fill: #4c72b0; stroke: #4c72b0"/>
     <use xlink:href="#mb2e7b7d1d7" x="658.864444" y="217.067304" style="fill: #4c72b0; stroke: #4c72b0"/>
     <use xlink:href="#mb2e7b7d1d7" x="670.79821" y="216.153048" style="fill: #4c72b0; stroke: #4c72b0"/>
    </g>
   </g>
   <g id="patch_3">
    <path d="M 56.805937 254.73 
L 56.805937 22.32 
" style="fill: none; stroke: #cccccc; stroke-width: 1.25; stroke-linejoin: miter; stroke-linecap: square"/>
   </g>
   <g id="patch_4">
    <path d="M 700.035937 254.73 
L 700.035937 22.32 
" style="fill: none; stroke: #cccccc; stroke-width: 1.25; stroke-linejoin: miter; stroke-linecap: square"/>
   </g>
   <g id="patch_5">
    <path d="M 56.805937 254.73 
L 700.035937 254.73 
" style="fill: none; stroke: #cccccc; stroke-width: 1.25; stroke-linejoin: miter; stroke-linecap: square"/>
   </g>
   <g id="patch_6">
    <path d="M 56.805937 22.32 
L 700.035937 22.32 
" style="fill: none; stroke: #cccccc; stroke-width: 1.25; stroke-linejoin: miter; stroke-linecap: square"/>
   </g>
   <g id="text_7">
    <!-- $N=1$: Optimal sensitivity vs $\omega$ (combined protocol) -->
    <g style="fill: #262626" transform="translate(224.400937 16.32) scale(0.12 -0.12)">
     <defs>
      <path id="DejaVuSans-Oblique-4e" d="M 1081 4666 
L 1931 4666 
L 3219 666 
L 4000 4666 
L 4616 4666 
L 3706 0 
L 2853 0 
L 1569 4025 
L 788 0 
L 172 0 
L 1081 4666 
z
" transform="scale(0.015625)"/>
      <path id="DejaVuSans-3d" d="M 678 2906 
L 4684 2906 
L 4684 2381 
L 678 2381 
L 678 2906 
z
M 678 1631 
L 4684 1631 
L 4684 1100 
L 678 1100 
L 678 1631 
z
" transform="scale(0.015625)"/>
      <path id="DejaVuSans-3a" d="M 750 794 
L 1409 794 
L 1409 0 
L 750 0 
L 750 794 
z
M 750 3309 
L 1409 3309 
L 1409 2516 
L 750 2516 
L 750 3309 
z
" transform="scale(0.015625)"/>
      <path id="DejaVuSans-20" transform="scale(0.015625)"/>
      <path id="DejaVuSans-4f" d="M 2522 4238 
Q 1834 4238 1429 3725 
Q 1025 3213 1025 2328 
Q 1025 1447 1429 934 
Q 1834 422 2522 422 
Q 3209 422 3611 934 
Q 4013 1447 4013 2328 
Q 4013 3213 3611 3725 
Q 3209 4238 2522 4238 
z
M 2522 4750 
Q 3503 4750 4090 4092 
Q 4678 3434 4678 2328 
Q 4678 1225 4090 567 
Q 3503 -91 2522 -91 
Q 1538 -91 948 565 
Q 359 1222 359 2328 
Q 359 3434 948 4092 
Q 1538 4750 2522 4750 
z
" transform="scale(0.015625)"/>
      <path id="DejaVuSans-70" d="M 1159 525 
L 1159 -1331 
L 581 -1331 
L 581 3500 
L 1159 3500 
L 1159 2969 
Q 1341 3281 1617 3432 
Q 1894 3584 2278 3584 
Q 2916 3584 3314 3078 
Q 3713 2572 3713 1747 
Q 3713 922 3314 415 
Q 2916 -91 2278 -91 
Q 1894 -91 1617 61 
Q 1341 213 1159 525 
z
M 3116 1747 
Q 3116 2381 2855 2742 
Q 2594 3103 2138 3103 
Q 1681 3103 1420 2742 
Q 1159 2381 1159 1747 
Q 1159 1113 1420 752 
Q 1681 391 2138 391 
Q 2594 391 2855 752 
Q 3116 1113 3116 1747 
z
" transform="scale(0.015625)"/>
      <path id="DejaVuSans-74" d="M 1172 4494 
L 1172 3500 
L 2356 3500 
L 2356 3053 
L 1172 3053 
L 1172 1153 
Q 1172 725 1289 603 
Q 1406 481 1766 481 
L 2356 481 
L 2356 0 
L 1766 0 
Q 1100 0 847 248 
Q 594 497 594 1153 
L 594 3053 
L 172 3053 
L 172 3500 
L 594 3500 
L 594 4494 
L 1172 4494 
z
" transform="scale(0.015625)"/>
      <path id="DejaVuSans-69" d="M 603 3500 
L 1178 3500 
L 1178 0 
L 603 0 
L 603 3500 
z
M 603 4863 
L 1178 4863 
L 1178 4134 
L 603 4134 
L 603 4863 
z
" transform="scale(0.015625)"/>
      <path id="DejaVuSans-6d" d="M 3328 2828 
Q 3544 3216 3844 3400 
Q 4144 3584 4550 3584 
Q 5097 3584 5394 3201 
Q 5691 2819 5691 2113 
L 5691 0 
L 5113 0 
L 5113 2094 
Q 5113 2597 4934 2840 
Q 4756 3084 4391 3084 
Q 3944 3084 3684 2787 
Q 3425 2491 3425 1978 
L 3425 0 
L 2847 0 
L 2847 2094 
Q 2847 2600 2669 2842 
Q 2491 3084 2119 3084 
Q 1678 3084 1418 2786 
Q 1159 2488 1159 1978 
L 1159 0 
L 581 0 
L 581 3500 
L 1159 3500 
L 1159 2956 
Q 1356 3278 1631 3431 
Q 1906 3584 2284 3584 
Q 2666 3584 2933 3390 
Q 3200 3197 3328 2828 
z
" transform="scale(0.015625)"/>
      <path id="DejaVuSans-61" d="M 2194 1759 
Q 1497 1759 1228 1600 
Q 959 1441 959 1056 
Q 959 750 1161 570 
Q 1363 391 1709 391 
Q 2188 391 2477 730 
Q 2766 1069 2766 1631 
L 2766 1759 
L 2194 1759 
z
M 3341 1997 
L 3341 0 
L 2766 0 
L 2766 531 
Q 2569 213 2275 61 
Q 1981 -91 1556 -91 
Q 1019 -91 701 211 
Q 384 513 384 1019 
Q 384 1609 779 1909 
Q 1175 2209 1959 2209 
L 2766 2209 
L 2766 2266 
Q 2766 2663 2505 2880 
Q 2244 3097 1772 3097 
Q 1472 3097 1187 3025 
Q 903 2953 641 2809 
L 641 3341 
Q 956 3463 1253 3523 
Q 1550 3584 1831 3584 
Q 2591 3584 2966 3190 
Q 3341 2797 3341 1997 
z
" transform="scale(0.015625)"/>
      <path id="DejaVuSans-6c" d="M 603 4863 
L 1178 4863 
L 1178 0 
L 603 0 
L 603 4863 
z
" transform="scale(0.015625)"/>
      <path id="DejaVuSans-73" d="M 2834 3397 
L 2834 2853 
Q 2591 2978 2328 3040 
Q 2066 3103 1784 3103 
Q 1356 3103 1142 2972 
Q 928 2841 928 2578 
Q 928 2378 1081 2264 
Q 1234 2150 1697 2047 
L 1894 2003 
Q 2506 1872 2764 1633 
Q 3022 1394 3022 966 
Q 3022 478 2636 193 
Q 2250 -91 1575 -91 
Q 1294 -91 989 -36 
Q 684 19 347 128 
L 347 722 
Q 666 556 975 473 
Q 1284 391 1588 391 
Q 1994 391 2212 530 
Q 2431 669 2431 922 
Q 2431 1156 2273 1281 
Q 2116 1406 1581 1522 
L 1381 1569 
Q 847 1681 609 1914 
Q 372 2147 372 2553 
Q 372 3047 722 3315 
Q 1072 3584 1716 3584 
Q 2034 3584 2315 3537 
Q 2597 3491 2834 3397 
z
" transform="scale(0.015625)"/>
      <path id="DejaVuSans-65" d="M 3597 1894 
L 3597 1613 
L 953 1613 
Q 991 1019 1311 708 
Q 1631 397 2203 397 
Q 2534 397 2845 478 
Q 3156 559 3463 722 
L 3463 178 
Q 3153 47 2828 -22 
Q 2503 -91 2169 -91 
Q 1331 -91 842 396 
Q 353 884 353 1716 
Q 353 2575 817 3079 
Q 1281 3584 2069 3584 
Q 2775 3584 3186 3129 
Q 3597 2675 3597 1894 
z
M 3022 2063 
Q 3016 2534 2758 2815 
Q 2500 3097 2075 3097 
Q 1594 3097 1305 2825 
Q 1016 2553 972 2059 
L 3022 2063 
z
" transform="scale(0.015625)"/>
      <path id="DejaVuSans-6e" d="M 3513 2113 
L 3513 0 
L 2938 0 
L 2938 2094 
Q 2938 2591 2744 2837 
Q 2550 3084 2163 3084 
Q 1697 3084 1428 2787 
Q 1159 2491 1159 1978 
L 1159 0 
L 581 0 
L 581 3500 
L 1159 3500 
L 1159 2956 
Q 1366 3272 1645 3428 
Q 1925 3584 2291 3584 
Q 2894 3584 3203 3211 
Q 3513 2838 3513 2113 
z
" transform="scale(0.015625)"/>
      <path id="DejaVuSans-76" d="M 191 3500 
L 800 3500 
L 1894 563 
L 2988 3500 
L 3597 3500 
L 2284 0 
L 1503 0 
L 191 3500 
z
" transform="scale(0.015625)"/>
      <path id="DejaVuSans-79" d="M 2059 -325 
Q 1816 -950 1584 -1140 
Q 1353 -1331 966 -1331 
L 506 -1331 
L 506 -850 
L 844 -850 
Q 1081 -850 1212 -737 
Q 1344 -625 1503 -206 
L 1606 56 
L 191 3500 
L 800 3500 
L 1894 763 
L 2988 3500 
L 3597 3500 
L 2059 -325 
z
" transform="scale(0.015625)"/>
      <path id="DejaVuSans-28" d="M 1984 4856 
Q 1566 4138 1362 3434 
Q 1159 2731 1159 2009 
Q 1159 1288 1364 580 
Q 1569 -128 1984 -844 
L 1484 -844 
Q 1016 -109 783 600 
Q 550 1309 550 2009 
Q 550 2706 781 3412 
Q 1013 4119 1484 4856 
L 1984 4856 
z
" transform="scale(0.015625)"/>
      <path id="DejaVuSans-63" d="M 3122 3366 
L 3122 2828 
Q 2878 2963 2633 3030 
Q 2388 3097 2138 3097 
Q 1578 3097 1268 2742 
Q 959 2388 959 1747 
Q 959 1106 1268 751 
Q 1578 397 2138 397 
Q 2388 397 2633 464 
Q 2878 531 3122 666 
L 3122 134 
Q 2881 22 2623 -34 
Q 2366 -91 2075 -91 
Q 1284 -91 818 406 
Q 353 903 353 1747 
Q 353 2603 823 3093 
Q 1294 3584 2113 3584 
Q 2378 3584 2631 3529 
Q 2884 3475 3122 3366 
z
" transform="scale(0.015625)"/>
      <path id="DejaVuSans-6f" d="M 1959 3097 
Q 1497 3097 1228 2736 
Q 959 2375 959 1747 
Q 959 1119 1226 758 
Q 1494 397 1959 397 
Q 2419 397 2687 759 
Q 2956 1122 2956 1747 
Q 2956 2369 2687 2733 
Q 2419 3097 1959 3097 
z
M 1959 3584 
Q 2709 3584 3137 3096 
Q 3566 2609 3566 1747 
Q 3566 888 3137 398 
Q 2709 -91 1959 -91 
Q 1206 -91 779 398 
Q 353 888 353 1747 
Q 353 2609 779 3096 
Q 1206 3584 1959 3584 
z
" transform="scale(0.015625)"/>
      <path id="DejaVuSans-62" d="M 3116 1747 
Q 3116 2381 2855 2742 
Q 2594 3103 2138 3103 
Q 1681 3103 1420 2742 
Q 1159 2381 1159 1747 
Q 1159 1113 1420 752 
Q 1681 391 2138 391 
Q 2594 391 2855 752 
Q 3116 1113 3116 1747 
z
M 1159 2969 
Q 1341 3281 1617 3432 
Q 1894 3584 2278 3584 
Q 2916 3584 3314 3078 
Q 3713 2572 3713 1747 
Q 3713 922 3314 415 
Q 2916 -91 2278 -91 
Q 1894 -91 1617 61 
Q 1341 213 1159 525 
L 1159 0 
L 581 0 
L 581 4863 
L 1159 4863 
L 1159 2969 
z
" transform="scale(0.015625)"/>
      <path id="DejaVuSans-64" d="M 2906 2969 
L 2906 4863 
L 3481 4863 
L 3481 0 
L 2906 0 
L 2906 525 
Q 2725 213 2448 61 
Q 2172 -91 1784 -91 
Q 1150 -91 751 415 
Q 353 922 353 1747 
Q 353 2572 751 3078 
Q 1150 3584 1784 3584 
Q 2172 3584 2448 3432 
Q 2725 3281 2906 2969 
z
M 947 1747 
Q 947 1113 1208 752 
Q 1469 391 1925 391 
Q 2381 391 2643 752 
Q 2906 1113 2906 1747 
Q 2906 2381 2643 2742 
Q 2381 3103 1925 3103 
Q 1469 3103 1208 2742 
Q 947 2381 947 1747 
z
" transform="scale(0.015625)"/>
      <path id="DejaVuSans-72" d="M 2631 2963 
Q 2534 3019 2420 3045 
Q 2306 3072 2169 3072 
Q 1681 3072 1420 2755 
Q 1159 2438 1159 1844 
L 1159 0 
L 581 0 
L 581 3500 
L 1159 3500 
L 1159 2956 
Q 1341 3275 1631 3429 
Q 1922 3584 2338 3584 
Q 2397 3584 2469 3576 
Q 2541 3569 2628 3553 
L 2631 2963 
z
" transform="scale(0.015625)"/>
      <path id="DejaVuSans-29" d="M 513 4856 
L 1013 4856 
Q 1481 4119 1714 3412 
Q 1947 2706 1947 2009 
Q 1947 1309 1714 600 
Q 1481 -109 1013 -844 
L 513 -844 
Q 928 -128 1133 580 
Q 1338 1288 1338 2009 
Q 1338 2731 1133 3434 
Q 928 4138 513 4856 
z
" transform="scale(0.015625)"/>
     </defs>
     <use xlink:href="#DejaVuSans-Oblique-4e" transform="translate(0 0.015625)"/>
     <use xlink:href="#DejaVuSans-3d" transform="translate(94.287109 0.015625)"/>
     <use xlink:href="#DejaVuSans-31" transform="translate(197.558594 0.015625)"/>
     <use xlink:href="#DejaVuSans-3a" transform="translate(261.181641 0.015625)"/>
     <use xlink:href="#DejaVuSans-20" transform="translate(294.873047 0.015625)"/>
     <use xlink:href="#DejaVuSans-4f" transform="translate(326.660156 0.015625)"/>
     <use xlink:href="#DejaVuSans-70" transform="translate(405.371094 0.015625)"/>
     <use xlink:href="#DejaVuSans-74" transform="translate(468.847656 0.015625)"/>
     <use xlink:href="#DejaVuSans-69" transform="translate(508.056641 0.015625)"/>
     <use xlink:href="#DejaVuSans-6d" transform="translate(535.839844 0.015625)"/>
     <use xlink:href="#DejaVuSans-61" transform="translate(633.251953 0.015625)"/>
     <use xlink:href="#DejaVuSans-6c" transform="translate(694.53125 0.015625)"/>
     <use xlink:href="#DejaVuSans-20" transform="translate(722.314453 0.015625)"/>
     <use xlink:href="#DejaVuSans-73" transform="translate(754.101562 0.015625)"/>
     <use xlink:href="#DejaVuSans-65" transform="translate(806.201172 0.015625)"/>
     <use xlink:href="#DejaVuSans-6e" transform="translate(867.724609 0.015625)"/>
     <use xlink:href="#DejaVuSans-73" transform="translate(931.103516 0.015625)"/>
     <use xlink:href="#DejaVuSans-69" transform="translate(983.203125 0.015625)"/>
     <use xlink:href="#DejaVuSans-74" transform="translate(1010.986328 0.015625)"/>
     <use xlink:href="#DejaVuSans-69" transform="translate(1050.195312 0.015625)"/>
     <use xlink:href="#DejaVuSans-76" transform="translate(1077.978516 0.015625)"/>
     <use xlink:href="#DejaVuSans-69" transform="translate(1137.158203 0.015625)"/>
     <use xlink:href="#DejaVuSans-74" transform="translate(1164.941406 0.015625)"/>
     <use xlink:href="#DejaVuSans-79" transform="translate(1204.150391 0.015625)"/>
     <use xlink:href="#DejaVuSans-20" transform="translate(1263.330078 0.015625)"/>
     <use xlink:href="#DejaVuSans-76" transform="translate(1295.117188 0.015625)"/>
     <use xlink:href="#DejaVuSans-73" transform="translate(1354.296875 0.015625)"/>
     <use xlink:href="#DejaVuSans-20" transform="translate(1406.396484 0.015625)"/>
     <use xlink:href="#DejaVuSans-Oblique-3c9" transform="translate(1438.183594 0.015625)"/>
     <use xlink:href="#DejaVuSans-20" transform="translate(1521.923828 0.015625)"/>
     <use xlink:href="#DejaVuSans-28" transform="translate(1553.710938 0.015625)"/>
     <use xlink:href="#DejaVuSans-63" transform="translate(1592.724609 0.015625)"/>
     <use xlink:href="#DejaVuSans-6f" transform="translate(1647.705078 0.015625)"/>
     <use xlink:href="#DejaVuSans-6d" transform="translate(1708.886719 0.015625)"/>
     <use xlink:href="#DejaVuSans-62" transform="translate(1806.298828 0.015625)"/>
     <use xlink:href="#DejaVuSans-69" transform="translate(1869.775391 0.015625)"/>
     <use xlink:href="#DejaVuSans-6e" transform="translate(1897.558594 0.015625)"/>
     <use xlink:href="#DejaVuSans-65" transform="translate(1960.9375 0.015625)"/>
     <use xlink:href="#DejaVuSans-64" transform="translate(2022.460938 0.015625)"/>
     <use xlink:href="#DejaVuSans-20" transform="translate(2085.9375 0.015625)"/>
     <use xlink:href="#DejaVuSans-70" transform="translate(2117.724609 0.015625)"/>
     <use xlink:href="#DejaVuSans-72" transform="translate(2181.201172 0.015625)"/>
     <use xlink:href="#DejaVuSans-6f" transform="translate(2222.314453 0.015625)"/>
     <use xlink:href="#DejaVuSans-74" transform="translate(2283.496094 0.015625)"/>
     <use xlink:href="#DejaVuSans-6f" transform="translate(2322.705078 0.015625)"/>
     <use xlink:href="#DejaVuSans-63" transform="translate(2383.886719 0.015625)"/>
     <use xlink:href="#DejaVuSans-6f" transform="translate(2438.867188 0.015625)"/>
     <use xlink:href="#DejaVuSans-6c" transform="translate(2500.048828 0.015625)"/>
     <use xlink:href="#DejaVuSans-29" transform="translate(2527.832031 0.015625)"/>
    </g>
   </g>
   <g id="legend_1">
    <g id="patch_7">
     <path d="M 580.665313 156.882109 
L 692.335937 156.882109 
Q 694.535937 156.882109 694.535937 154.682109 
L 694.535937 122.367891 
Q 694.535937 120.167891 692.335937 120.167891 
L 580.665313 120.167891 
Q 578.465312 120.167891 578.465312 122.367891 
L 578.465312 154.682109 
Q 578.465312 156.882109 580.665313 156.882109 
z
" style="fill: #ffffff; opacity: 0.8; stroke: #cccccc; stroke-linejoin: miter"/>
    </g>
    <g id="line2d_14">
     <path d="M 582.865312 129.076172 
L 593.865312 129.076172 
L 604.865312 129.076172 
" style="fill: none; stroke-dasharray: 5.55,2.4; stroke-dashoffset: 0; stroke: #808080; stroke-opacity: 0.7; stroke-width: 1.5"/>
    </g>
    <g id="text_8">
     <!-- SQL = 0.1000 -->
     <g style="fill: #262626" transform="translate(613.665312 132.926172) scale(0.11 -0.11)">
      <defs>
       <path id="DejaVuSans-53" d="M 3425 4513 
L 3425 3897 
Q 3066 4069 2747 4153 
Q 2428 4238 2131 4238 
Q 1616 4238 1336 4038 
Q 1056 3838 1056 3469 
Q 1056 3159 1242 3001 
Q 1428 2844 1947 2747 
L 2328 2669 
Q 3034 2534 3370 2195 
Q 3706 1856 3706 1288 
Q 3706 609 3251 259 
Q 2797 -91 1919 -91 
Q 1588 -91 1214 -16 
Q 841 59 441 206 
L 441 856 
Q 825 641 1194 531 
Q 1563 422 1919 422 
Q 2459 422 2753 634 
Q 3047 847 3047 1241 
Q 3047 1584 2836 1778 
Q 2625 1972 2144 2069 
L 1759 2144 
Q 1053 2284 737 2584 
Q 422 2884 422 3419 
Q 422 4038 858 4394 
Q 1294 4750 2059 4750 
Q 2388 4750 2728 4690 
Q 3069 4631 3425 4513 
z
" transform="scale(0.015625)"/>
       <path id="DejaVuSans-51" d="M 2522 4238 
Q 1834 4238 1429 3725 
Q 1025 3213 1025 2328 
Q 1025 1447 1429 934 
Q 1834 422 2522 422 
Q 3209 422 3611 934 
Q 4013 1447 4013 2328 
Q 4013 3213 3611 3725 
Q 3209 4238 2522 4238 
z
M 3406 84 
L 4238 -825 
L 3475 -825 
L 2784 -78 
Q 2681 -84 2626 -87 
Q 2572 -91 2522 -91 
Q 1538 -91 948 567 
Q 359 1225 359 2328 
Q 359 3434 948 4092 
Q 1538 4750 2522 4750 
Q 3503 4750 4090 4092 
Q 4678 3434 4678 2328 
Q 4678 1516 4351 937 
Q 4025 359 3406 84 
z
" transform="scale(0.015625)"/>
       <path id="DejaVuSans-4c" d="M 628 4666 
L 1259 4666 
L 1259 531 
L 3531 531 
L 3531 0 
L 628 0 
L 628 4666 
z
" transform="scale(0.015625)"/>
      </defs>
      <use xlink:href="#DejaVuSans-53"/>
      <use xlink:href="#DejaVuSans-51" transform="translate(63.476562 0)"/>
      <use xlink:href="#DejaVuSans-4c" transform="translate(142.1875 0)"/>
      <use xlink:href="#DejaVuSans-20" transform="translate(197.900391 0)"/>
      <use xlink:href="#DejaVuSans-3d" transform="translate(229.6875 0)"/>
      <use xlink:href="#DejaVuSans-20" transform="translate(313.476562 0)"/>
      <use xlink:href="#DejaVuSans-30" transform="translate(345.263672 0)"/>
      <use xlink:href="#DejaVuSans-2e" transform="translate(408.886719 0)"/>
      <use xlink:href="#DejaVuSans-31" transform="translate(440.673828 0)"/>
      <use xlink:href="#DejaVuSans-30" transform="translate(504.296875 0)"/>
      <use xlink:href="#DejaVuSans-30" transform="translate(567.919922 0)"/>
      <use xlink:href="#DejaVuSans-30" transform="translate(631.542969 0)"/>
     </g>
    </g>
    <g id="line2d_15">
     <path d="M 582.865312 145.222109 
L 593.865312 145.222109 
L 604.865312 145.222109 
" style="fill: none; stroke: #4c72b0; stroke-width: 1.8; stroke-linecap: round"/>
     <g>
      <use xlink:href="#mb2e7b7d1d7" x="593.865312" y="145.222109" style="fill: #4c72b0; stroke: #4c72b0"/>
     </g>
    </g>
    <g id="text_9">
     <!-- $\Delta\omega_{\mathrm{opt}}$ -->
     <g style="fill: #262626" transform="translate(613.665312 149.072109) scale(0.11 -0.11)">
      <use xlink:href="#DejaVuSans-394" transform="translate(0 0.09375)"/>
      <use xlink:href="#DejaVuSans-Oblique-3c9" transform="translate(68.408203 0.09375)"/>
      <use xlink:href="#DejaVuSans-6f" transform="translate(152.148438 -16.3125) scale(0.7)"/>
      <use xlink:href="#DejaVuSans-70" transform="translate(194.975586 -16.3125) scale(0.7)"/>
      <use xlink:href="#DejaVuSans-74" transform="translate(239.40918 -16.3125) scale(0.7)"/>
     </g>
    </g>
   </g>
  </g>
  <g id="axes_2">
   <g id="patch_8">
    <path d="M 56.805937 517.62 
L 700.035937 517.62 
L 700.035937 285.21 
L 56.805937 285.21 
z
" style="fill: #ffffff"/>
   </g>
   <g id="matplotlib.axis_3">
    <g id="xtick_7">
     <g id="line2d_16">
      <path d="M 74.109899 517.62 
L 74.109899 285.21 
" clip-path="url(#p87c8d17529)" style="fill: none; stroke: #cccccc; stroke-linecap: round"/>
     </g>
     <g id="text_10">
      <!-- 0 -->
      <g style="fill: #262626" transform="translate(70.610524 535.478281) scale(0.11 -0.11)">
       <use xlink:href="#DejaVuSans-30"/>
      </g>
     </g>
    </g>
    <g id="xtick_8">
     <g id="line2d_17">
      <path d="M 193.447561 517.62 
L 193.447561 285.21 
" clip-path="url(#p87c8d17529)" style="fill: none; stroke: #cccccc; stroke-linecap: round"/>
     </g>
     <g id="text_11">
      <!-- 1 -->
      <g style="fill: #262626" transform="translate(189.948186 535.478281) scale(0.11 -0.11)">
       <use xlink:href="#DejaVuSans-31"/>
      </g>
     </g>
    </g>
    <g id="xtick_9">
     <g id="line2d_18">
      <path d="M 312.785223 517.62 
L 312.785223 285.21 
" clip-path="url(#p87c8d17529)" style="fill: none; stroke: #cccccc; stroke-linecap: round"/>
     </g>
     <g id="text_12">
      <!-- 2 -->
      <g style="fill: #262626" transform="translate(309.285848 535.478281) scale(0.11 -0.11)">
       <use xlink:href="#DejaVuSans-32"/>
      </g>
     </g>
    </g>
    <g id="xtick_10">
     <g id="line2d_19">
      <path d="M 432.122886 517.62 
L 432.122886 285.21 
" clip-path="url(#p87c8d17529)" style="fill: none; stroke: #cccccc; stroke-linecap: round"/>
     </g>
     <g id="text_13">
      <!-- 3 -->
      <g style="fill: #262626" transform="translate(428.623511 535.478281) scale(0.11 -0.11)">
       <defs>
        <path id="DejaVuSans-33" d="M 2597 2516 
Q 3050 2419 3304 2112 
Q 3559 1806 3559 1356 
Q 3559 666 3084 287 
Q 2609 -91 1734 -91 
Q 1441 -91 1130 -33 
Q 819 25 488 141 
L 488 750 
Q 750 597 1062 519 
Q 1375 441 1716 441 
Q 2309 441 2620 675 
Q 2931 909 2931 1356 
Q 2931 1769 2642 2001 
Q 2353 2234 1838 2234 
L 1294 2234 
L 1294 2753 
L 1863 2753 
Q 2328 2753 2575 2939 
Q 2822 3125 2822 3475 
Q 2822 3834 2567 4026 
Q 2313 4219 1838 4219 
Q 1578 4219 1281 4162 
Q 984 4106 628 3988 
L 628 4550 
Q 988 4650 1302 4700 
Q 1616 4750 1894 4750 
Q 2613 4750 3031 4423 
Q 3450 4097 3450 3541 
Q 3450 3153 3228 2886 
Q 3006 2619 2597 2516 
z
" transform="scale(0.015625)"/>
       </defs>
       <use xlink:href="#DejaVuSans-33"/>
      </g>
     </g>
    </g>
    <g id="xtick_11">
     <g id="line2d_20">
      <path d="M 551.460548 517.62 
L 551.460548 285.21 
" clip-path="url(#p87c8d17529)" style="fill: none; stroke: #cccccc; stroke-linecap: round"/>
     </g>
     <g id="text_14">
      <!-- 4 -->
      <g style="fill: #262626" transform="translate(547.961173 535.478281) scale(0.11 -0.11)">
       <use xlink:href="#DejaVuSans-34"/>
      </g>
     </g>
    </g>
    <g id="xtick_12">
     <g id="line2d_21">
      <path d="M 670.79821 517.62 
L 670.79821 285.21 
" clip-path="url(#p87c8d17529)" style="fill: none; stroke: #cccccc; stroke-linecap: round"/>
     </g>
     <g id="text_15">
      <!-- 5 -->
      <g style="fill: #262626" transform="translate(667.298835 535.478281) scale(0.11 -0.11)">
       <defs>
        <path id="DejaVuSans-35" d="M 691 4666 
L 3169 4666 
L 3169 4134 
L 1269 4134 
L 1269 2991 
Q 1406 3038 1543 3061 
Q 1681 3084 1819 3084 
Q 2600 3084 3056 2656 
Q 3513 2228 3513 1497 
Q 3513 744 3044 326 
Q 2575 -91 1722 -91 
Q 1428 -91 1123 -41 
Q 819 9 494 109 
L 494 744 
Q 775 591 1075 516 
Q 1375 441 1709 441 
Q 2250 441 2565 725 
Q 2881 1009 2881 1497 
Q 2881 1984 2565 2268 
Q 2250 2553 1709 2553 
Q 1456 2553 1204 2497 
Q 953 2441 691 2322 
L 691 4666 
z
" transform="scale(0.015625)"/>
       </defs>
       <use xlink:href="#DejaVuSans-35"/>
      </g>
     </g>
    </g>
    <g id="text_16">
     <!-- $\omega$ -->
     <g style="fill: #262626" transform="translate(373.380937 550.884063) scale(0.12 -0.12)">
      <use xlink:href="#DejaVuSans-Oblique-3c9" transform="translate(0 0.3125)"/>
     </g>
    </g>
   </g>
   <g id="matplotlib.axis_4">
    <g id="ytick_6">
     <g id="line2d_22">
      <path d="M 56.805937 507.055909 
L 700.035937 507.055909 
" clip-path="url(#p87c8d17529)" style="fill: none; stroke: #cccccc; stroke-linecap: round"/>
     </g>
     <g id="text_17">
      <!-- 1 -->
      <g style="fill: #262626" transform="translate(40.307187 511.23505) scale(0.11 -0.11)">
       <use xlink:href="#DejaVuSans-31"/>
      </g>
     </g>
    </g>
    <g id="ytick_7">
     <g id="line2d_23">
      <path d="M 56.805937 460.236561 
L 700.035937 460.236561 
" clip-path="url(#p87c8d17529)" style="fill: none; stroke: #cccccc; stroke-linecap: round"/>
     </g>
     <g id="text_18">
      <!-- 2 -->
      <g style="fill: #262626" transform="translate(40.307187 464.415702) scale(0.11 -0.11)">
       <use xlink:href="#DejaVuSans-32"/>
      </g>
     </g>
    </g>
    <g id="ytick_8">
     <g id="line2d_24">
      <path d="M 56.805937 413.417214 
L 700.035937 413.417214 
" clip-path="url(#p87c8d17529)" style="fill: none; stroke: #cccccc; stroke-linecap: round"/>
     </g>
     <g id="text_19">
      <!-- 3 -->
      <g style="fill: #262626" transform="translate(40.307187 417.596354) scale(0.11 -0.11)">
       <use xlink:href="#DejaVuSans-33"/>
      </g>
     </g>
    </g>
    <g id="ytick_9">
     <g id="line2d_25">
      <path d="M 56.805937 366.597866 
L 700.035937 366.597866 
" clip-path="url(#p87c8d17529)" style="fill: none; stroke: #cccccc; stroke-linecap: round"/>
     </g>
     <g id="text_20">
      <!-- 4 -->
      <g style="fill: #262626" transform="translate(40.307187 370.777006) scale(0.11 -0.11)">
       <use xlink:href="#DejaVuSans-34"/>
      </g>
     </g>
    </g>
    <g id="ytick_10">
     <g id="line2d_26">
      <path d="M 56.805937 319.778518 
L 700.035937 319.778518 
" clip-path="url(#p87c8d17529)" style="fill: none; stroke: #cccccc; stroke-linecap: round"/>
     </g>
     <g id="text_21">
      <!-- 5 -->
      <g style="fill: #262626" transform="translate(40.307187 323.957659) scale(0.11 -0.11)">
       <use xlink:href="#DejaVuSans-35"/>
      </g>
     </g>
    </g>
    <g id="text_22">
     <!-- $R = \Delta\omega_{\mathrm{SQL}}/\Delta\omega_{\mathrm{opt}}$ -->
     <g style="fill: #262626" transform="translate(32.587187 448.755) rotate(-90) scale(0.12 -0.12)">
      <defs>
       <path id="DejaVuSans-Oblique-52" d="M 1613 4147 
L 1294 2491 
L 2106 2491 
Q 2584 2491 2879 2755 
Q 3175 3019 3175 3444 
Q 3175 3784 2976 3965 
Q 2778 4147 2406 4147 
L 1613 4147 
z
M 2772 2241 
Q 2972 2194 3105 2009 
Q 3238 1825 3413 1275 
L 3809 0 
L 3144 0 
L 2778 1197 
Q 2638 1659 2453 1815 
Q 2269 1972 1888 1972 
L 1191 1972 
L 806 0 
L 172 0 
L 1081 4666 
L 2503 4666 
Q 3150 4666 3495 4373 
Q 3841 4081 3841 3531 
Q 3841 3044 3547 2687 
Q 3253 2331 2772 2241 
z
" transform="scale(0.015625)"/>
       <path id="DejaVuSans-2f" d="M 1625 4666 
L 2156 4666 
L 531 -594 
L 0 -594 
L 1625 4666 
z
" transform="scale(0.015625)"/>
      </defs>
      <use xlink:href="#DejaVuSans-Oblique-52" transform="translate(0 0.09375)"/>
      <use xlink:href="#DejaVuSans-3d" transform="translate(88.964844 0.09375)"/>
      <use xlink:href="#DejaVuSans-394" transform="translate(192.236328 0.09375)"/>
      <use xlink:href="#DejaVuSans-Oblique-3c9" transform="translate(260.644531 0.09375)"/>
      <use xlink:href="#DejaVuSans-53" transform="translate(344.384766 -16.3125) scale(0.7)"/>
      <use xlink:href="#DejaVuSans-51" transform="translate(388.818359 -16.3125) scale(0.7)"/>
      <use xlink:href="#DejaVuSans-4c" transform="translate(443.916016 -16.3125) scale(0.7)"/>
      <use xlink:href="#DejaVuSans-2f" transform="translate(485.649414 0.09375)"/>
      <use xlink:href="#DejaVuSans-394" transform="translate(519.34082 0.09375)"/>
      <use xlink:href="#DejaVuSans-Oblique-3c9" transform="translate(587.749023 0.09375)"/>
      <use xlink:href="#DejaVuSans-6f" transform="translate(671.489258 -16.3125) scale(0.7)"/>
      <use xlink:href="#DejaVuSans-70" transform="translate(714.316406 -16.3125) scale(0.7)"/>
      <use xlink:href="#DejaVuSans-74" transform="translate(758.75 -16.3125) scale(0.7)"/>
     </g>
    </g>
   </g>
   <g id="line2d_27">
    <path d="M 86.043665 367.798914 
L 97.977431 322.682414 
L 109.911197 298.940678 
L 121.844963 306.857545 
L 133.77873 309.74281 
L 145.712496 297.647607 
L 157.646262 295.774091 
L 169.580028 300.353364 
L 181.513795 307.75341 
L 193.447561 304.08583 
L 205.381327 309.085164 
L 217.315093 302.341859 
L 229.24886 308.287758 
L 241.182626 308.534616 
L 253.116392 306.434292 
L 265.050158 312.521843 
L 276.983925 321.343758 
L 288.917691 330.03937 
L 300.851457 335.69584 
L 312.785223 340.760486 
L 324.718989 334.948711 
L 336.652756 336.470581 
L 348.586522 337.737105 
L 360.520288 353.105557 
L 372.454054 358.830898 
L 384.387821 353.344754 
L 396.321587 333.602011 
L 408.255353 333.523819 
L 420.189119 359.305011 
L 432.122886 367.306874 
L 444.056652 370.840465 
L 455.990418 363.631768 
L 467.924184 368.045161 
L 479.85795 373.186091 
L 491.791717 375.689691 
L 503.725483 375.808132 
L 515.659249 378.584853 
L 527.593015 374.061315 
L 539.526782 386.621117 
L 551.460548 389.099274 
L 563.394314 393.875575 
L 575.32808 383.245209 
L 587.261847 393.823828 
L 599.195613 387.11446 
L 611.129379 385.64547 
L 623.063145 398.901434 
L 634.996912 391.895021 
L 646.930678 367.913099 
L 658.864444 390.394968 
L 670.79821 392.392274 
" clip-path="url(#p87c8d17529)" style="fill: none; stroke: #c44e52; stroke-width: 1.8; stroke-linecap: round"/>
    <defs>
     <path id="m49d90220dd" d="M 0 3 
C 0.795609 3 1.55874 2.683901 2.12132 2.12132 
C 2.683901 1.55874 3 0.795609 3 0 
C 3 -0.795609 2.683901 -1.55874 2.12132 -2.12132 
C 1.55874 -2.683901 0.795609 -3 0 -3 
C -0.795609 -3 -1.55874 -2.683901 -2.12132 -2.12132 
C -2.683901 -1.55874 -3 -0.795609 -3 0 
C -3 0.795609 -2.683901 1.55874 -2.12132 2.12132 
C -1.55874 2.683901 -0.795609 3 0 3 
z
" style="stroke: #c44e52"/>
    </defs>
    <g clip-path="url(#p87c8d17529)">
     <use xlink:href="#m49d90220dd" x="86.043665" y="367.798914" style="fill: #c44e52; stroke: #c44e52"/>
     <use xlink:href="#m49d90220dd" x="97.977431" y="322.682414" style="fill: #c44e52; stroke: #c44e52"/>
     <use xlink:href="#m49d90220dd" x="109.911197" y="298.940678" style="fill: #c44e52; stroke: #c44e52"/>
     <use xlink:href="#m49d90220dd" x="121.844963" y="306.857545" style="fill: #c44e52; stroke: #c44e52"/>
     <use xlink:href="#m49d90220dd" x="133.77873" y="309.74281" style="fill: #c44e52; stroke: #c44e52"/>
     <use xlink:href="#m49d90220dd" x="145.712496" y="297.647607" style="fill: #c44e52; stroke: #c44e52"/>
     <use xlink:href="#m49d90220dd" x="157.646262" y="295.774091" style="fill: #c44e52; stroke: #c44e52"/>
     <use xlink:href="#m49d90220dd" x="169.580028" y="300.353364" style="fill: #c44e52; stroke: #c44e52"/>
     <use xlink:href="#m49d90220dd" x="181.513795" y="307.75341" style="fill: #c44e52; stroke: #c44e52"/>
     <use xlink:href="#m49d90220dd" x="193.447561" y="304.08583" style="fill: #c44e52; stroke: #c44e52"/>
     <use xlink:href="#m49d90220dd" x="205.381327" y="309.085164" style="fill: #c44e52; stroke: #c44e52"/>
     <use xlink:href="#m49d90220dd" x="217.315093" y="302.341859" style="fill: #c44e52; stroke: #c44e52"/>
     <use xlink:href="#m49d90220dd" x="229.24886" y="308.287758" style="fill: #c44e52; stroke: #c44e52"/>
     <use xlink:href="#m49d90220dd" x="241.182626" y="308.534616" style="fill: #c44e52; stroke: #c44e52"/>
     <use xlink:href="#m49d90220dd" x="253.116392" y="306.434292" style="fill: #c44e52; stroke: #c44e52"/>
     <use xlink:href="#m49d90220dd" x="265.050158" y="312.521843" style="fill: #c44e52; stroke: #c44e52"/>
     <use xlink:href="#m49d90220dd" x="276.983925" y="321.343758" style="fill: #c44e52; stroke: #c44e52"/>
     <use xlink:href="#m49d90220dd" x="288.917691" y="330.03937" style="fill: #c44e52; stroke: #c44e52"/>
     <use xlink:href="#m49d90220dd" x="300.851457" y="335.69584" style="fill: #c44e52; stroke: #c44e52"/>
     <use xlink:href="#m49d90220dd" x="312.785223" y="340.760486" style="fill: #c44e52; stroke: #c44e52"/>
     <use xlink:href="#m49d90220dd" x="324.718989" y="334.948711" style="fill: #c44e52; stroke: #c44e52"/>
     <use xlink:href="#m49d90220dd" x="336.652756" y="336.470581" style="fill: #c44e52; stroke: #c44e52"/>
     <use xlink:href="#m49d90220dd" x="348.586522" y="337.737105" style="fill: #c44e52; stroke: #c44e52"/>
     <use xlink:href="#m49d90220dd" x="360.520288" y="353.105557" style="fill: #c44e52; stroke: #c44e52"/>
     <use xlink:href="#m49d90220dd" x="372.454054" y="358.830898" style="fill: #c44e52; stroke: #c44e52"/>
     <use xlink:href="#m49d90220dd" x="384.387821" y="353.344754" style="fill: #c44e52; stroke: #c44e52"/>
     <use xlink:href="#m49d90220dd" x="396.321587" y="333.602011" style="fill: #c44e52; stroke: #c44e52"/>
     <use xlink:href="#m49d90220dd" x="408.255353" y="333.523819" style="fill: #c44e52; stroke: #c44e52"/>
     <use xlink:href="#m49d90220dd" x="420.189119" y="359.305011" style="fill: #c44e52; stroke: #c44e52"/>
     <use xlink:href="#m49d90220dd" x="432.122886" y="367.306874" style="fill: #c44e52; stroke: #c44e52"/>
     <use xlink:href="#m49d90220dd" x="444.056652" y="370.840465" style="fill: #c44e52; stroke: #c44e52"/>
     <use xlink:href="#m49d90220dd" x="455.990418" y="363.631768" style="fill: #c44e52; stroke: #c44e52"/>
     <use xlink:href="#m49d90220dd" x="467.924184" y="368.045161" style="fill: #c44e52; stroke: #c44e52"/>
     <use xlink:href="#m49d90220dd" x="479.85795" y="373.186091" style="fill: #c44e52; stroke: #c44e52"/>
     <use xlink:href="#m49d90220dd" x="491.791717" y="375.689691" style="fill: #c44e52; stroke: #c44e52"/>
     <use xlink:href="#m49d90220dd" x="503.725483" y="375.808132" style="fill: #c44e52; stroke: #c44e52"/>
     <use xlink:href="#m49d90220dd" x="515.659249" y="378.584853" style="fill: #c44e52; stroke: #c44e52"/>
     <use xlink:href="#m49d90220dd" x="527.593015" y="374.061315" style="fill: #c44e52; stroke: #c44e52"/>
     <use xlink:href="#m49d90220dd" x="539.526782" y="386.621117" style="fill: #c44e52; stroke: #c44e52"/>
     <use xlink:href="#m49d90220dd" x="551.460548" y="389.099274" style="fill: #c44e52; stroke: #c44e52"/>
     <use xlink:href="#m49d90220dd" x="563.394314" y="393.875575" style="fill: #c44e52; stroke: #c44e52"/>
     <use xlink:href="#m49d90220dd" x="575.32808" y="383.245209" style="fill: #c44e52; stroke: #c44e52"/>
     <use xlink:href="#m49d90220dd" x="587.261847" y="393.823828" style="fill: #c44e52; stroke: #c44e52"/>
     <use xlink:href="#m49d90220dd" x="599.195613" y="387.11446" style="fill: #c44e52; stroke: #c44e52"/>
     <use xlink:href="#m49d90220dd" x="611.129379" y="385.64547" style="fill: #c44e52; stroke: #c44e52"/>
     <use xlink:href="#m49d90220dd" x="623.063145" y="398.901434" style="fill: #c44e52; stroke: #c44e52"/>
     <use xlink:href="#m49d90220dd" x="634.996912" y="391.895021" style="fill: #c44e52; stroke: #c44e52"/>
     <use xlink:href="#m49d90220dd" x="646.930678" y="367.913099" style="fill: #c44e52; stroke: #c44e52"/>
     <use xlink:href="#m49d90220dd" x="658.864444" y="390.394968" style="fill: #c44e52; stroke: #c44e52"/>
     <use xlink:href="#m49d90220dd" x="670.79821" y="392.392274" style="fill: #c44e52; stroke: #c44e52"/>
    </g>
   </g>
   <g id="line2d_28">
    <path d="M 56.805937 507.055909 
L 700.035937 507.055909 
" clip-path="url(#p87c8d17529)" style="fill: none; stroke-dasharray: 5.55,2.4; stroke-dashoffset: 0; stroke: #808080; stroke-opacity: 0.7; stroke-width: 1.5"/>
   </g>
   <g id="patch_9">
    <path d="M 56.805937 517.62 
L 56.805937 285.21 
" style="fill: none; stroke: #cccccc; stroke-width: 1.25; stroke-linejoin: miter; stroke-linecap: square"/>
   </g>
   <g id="patch_10">
    <path d="M 700.035937 517.62 
L 700.035937 285.21 
" style="fill: none; stroke: #cccccc; stroke-width: 1.25; stroke-linejoin: miter; stroke-linecap: square"/>
   </g>
   <g id="patch_11">
    <path d="M 56.805937 517.62 
L 700.035937 517.62 
" style="fill: none; stroke: #cccccc; stroke-width: 1.25; stroke-linejoin: miter; stroke-linecap: square"/>
   </g>
   <g id="patch_12">
    <path d="M 56.805937 285.21 
L 700.035937 285.21 
" style="fill: none; stroke: #cccccc; stroke-width: 1.25; stroke-linejoin: miter; stroke-linecap: square"/>
   </g>
   <g id="patch_13">
    <path d="M 248.509331 286.222775 
Q 204.071889 290.893936 160.968736 295.42484 
" style="fill: none; stroke: #000000; stroke-width: 1.2; stroke-linecap: round"/>
    <path d="M 165.155901 296.995714 
L 160.968736 295.42484 
L 164.737734 293.017632 
" style="fill: none; stroke: #000000; stroke-width: 1.2; stroke-linecap: round"/>
   </g>
   <g id="text_23">
    <g id="patch_14">
     <path d="M 253.116392 286.807974 
L 381.916392 286.807974 
Q 384.916392 286.807974 384.916392 283.807974 
L 384.916392 274.129849 
Q 384.916392 271.129849 381.916392 271.129849 
L 253.116392 271.129849 
Q 250.116392 271.129849 250.116392 274.129849 
L 250.116392 283.807974 
Q 250.116392 286.807974 253.116392 286.807974 
z
" style="fill: #ffffff; stroke: #808080; stroke-linejoin: miter"/>
    </g>
    <!-- Best: $R=5.513$ at $\omega=0.7$ -->
    <g style="fill: #262626" transform="translate(253.116392 281.728287) scale(0.1 -0.1)">
     <defs>
      <path id="DejaVuSans-42" d="M 1259 2228 
L 1259 519 
L 2272 519 
Q 2781 519 3026 730 
Q 3272 941 3272 1375 
Q 3272 1813 3026 2020 
Q 2781 2228 2272 2228 
L 1259 2228 
z
M 1259 4147 
L 1259 2741 
L 2194 2741 
Q 2656 2741 2882 2914 
Q 3109 3088 3109 3444 
Q 3109 3797 2882 3972 
Q 2656 4147 2194 4147 
L 1259 4147 
z
M 628 4666 
L 2241 4666 
Q 2963 4666 3353 4366 
Q 3744 4066 3744 3513 
Q 3744 3084 3544 2831 
Q 3344 2578 2956 2516 
Q 3422 2416 3680 2098 
Q 3938 1781 3938 1306 
Q 3938 681 3513 340 
Q 3088 0 2303 0 
L 628 0 
L 628 4666 
z
" transform="scale(0.015625)"/>
      <path id="DejaVuSans-37" d="M 525 4666 
L 3525 4666 
L 3525 4397 
L 1831 0 
L 1172 0 
L 2766 4134 
L 525 4134 
L 525 4666 
z
" transform="scale(0.015625)"/>
     </defs>
     <use xlink:href="#DejaVuSans-42" transform="translate(0 0.78125)"/>
     <use xlink:href="#DejaVuSans-65" transform="translate(68.603516 0.78125)"/>
     <use xlink:href="#DejaVuSans-73" transform="translate(130.126953 0.78125)"/>
     <use xlink:href="#DejaVuSans-74" transform="translate(182.226562 0.78125)"/>
     <use xlink:href="#DejaVuSans-3a" transform="translate(221.435547 0.78125)"/>
     <use xlink:href="#DejaVuSans-20" transform="translate(255.126953 0.78125)"/>
     <use xlink:href="#DejaVuSans-Oblique-52" transform="translate(286.914062 0.78125)"/>
     <use xlink:href="#DejaVuSans-3d" transform="translate(375.878906 0.78125)"/>
     <use xlink:href="#DejaVuSans-35" transform="translate(479.150391 0.78125)"/>
     <use xlink:href="#DejaVuSans-2e" transform="translate(542.773438 0.78125)"/>
     <use xlink:href="#DejaVuSans-35" transform="translate(574.560547 0.78125)"/>
     <use xlink:href="#DejaVuSans-31" transform="translate(638.183594 0.78125)"/>
     <use xlink:href="#DejaVuSans-33" transform="translate(701.806641 0.78125)"/>
     <use xlink:href="#DejaVuSans-20" transform="translate(765.429688 0.78125)"/>
     <use xlink:href="#DejaVuSans-61" transform="translate(797.216797 0.78125)"/>
     <use xlink:href="#DejaVuSans-74" transform="translate(858.496094 0.78125)"/>
     <use xlink:href="#DejaVuSans-20" transform="translate(897.705078 0.78125)"/>
     <use xlink:href="#DejaVuSans-Oblique-3c9" transform="translate(929.492188 0.78125)"/>
     <use xlink:href="#DejaVuSans-3d" transform="translate(1032.714844 0.78125)"/>
     <use xlink:href="#DejaVuSans-30" transform="translate(1135.986328 0.78125)"/>
     <use xlink:href="#DejaVuSans-2e" transform="translate(1199.609375 0.78125)"/>
     <use xlink:href="#DejaVuSans-37" transform="translate(1223.646484 0.78125)"/>
    </g>
   </g>
   <g id="text_24">
    <!-- SQL-violation ratio $R$ vs $\omega$ -->
    <g style="fill: #262626" transform="translate(301.320937 279.21) scale(0.12 -0.12)">
     <defs>
      <path id="DejaVuSans-2d" d="M 313 2009 
L 1997 2009 
L 1997 1497 
L 313 1497 
L 313 2009 
z
" transform="scale(0.015625)"/>
     </defs>
     <use xlink:href="#DejaVuSans-53" transform="translate(0 0.015625)"/>
     <use xlink:href="#DejaVuSans-51" transform="translate(63.476562 0.015625)"/>
     <use xlink:href="#DejaVuSans-4c" transform="translate(142.1875 0.015625)"/>
     <use xlink:href="#DejaVuSans-2d" transform="translate(197.900391 0.015625)"/>
     <use xlink:href="#DejaVuSans-76" transform="translate(233.984375 0.015625)"/>
     <use xlink:href="#DejaVuSans-69" transform="translate(293.164062 0.015625)"/>
     <use xlink:href="#DejaVuSans-6f" transform="translate(320.947266 0.015625)"/>
     <use xlink:href="#DejaVuSans-6c" transform="translate(382.128906 0.015625)"/>
     <use xlink:href="#DejaVuSans-61" transform="translate(409.912109 0.015625)"/>
     <use xlink:href="#DejaVuSans-74" transform="translate(471.191406 0.015625)"/>
     <use xlink:href="#DejaVuSans-69" transform="translate(510.400391 0.015625)"/>
     <use xlink:href="#DejaVuSans-6f" transform="translate(538.183594 0.015625)"/>
     <use xlink:href="#DejaVuSans-6e" transform="translate(599.365234 0.015625)"/>
     <use xlink:href="#DejaVuSans-20" transform="translate(662.744141 0.015625)"/>
     <use xlink:href="#DejaVuSans-72" transform="translate(694.53125 0.015625)"/>
     <use xlink:href="#DejaVuSans-61" transform="translate(735.644531 0.015625)"/>
     <use xlink:href="#DejaVuSans-74" transform="translate(796.923828 0.015625)"/>
     <use xlink:href="#DejaVuSans-69" transform="translate(836.132812 0.015625)"/>
     <use xlink:href="#DejaVuSans-6f" transform="translate(863.916016 0.015625)"/>
     <use xlink:href="#DejaVuSans-20" transform="translate(925.097656 0.015625)"/>
     <use xlink:href="#DejaVuSans-Oblique-52" transform="translate(956.884766 0.015625)"/>
     <use xlink:href="#DejaVuSans-20" transform="translate(1026.367188 0.015625)"/>
     <use xlink:href="#DejaVuSans-76" transform="translate(1058.154297 0.015625)"/>
     <use xlink:href="#DejaVuSans-73" transform="translate(1117.333984 0.015625)"/>
     <use xlink:href="#DejaVuSans-20" transform="translate(1169.433594 0.015625)"/>
     <use xlink:href="#DejaVuSans-Oblique-3c9" transform="translate(1201.220703 0.015625)"/>
    </g>
   </g>
   <g id="legend_2">
    <g id="patch_15">
     <path d="M 599.425469 310.155938 
L 692.335937 310.155938 
Q 694.535937 310.155938 694.535937 307.955938 
L 694.535937 292.91 
Q 694.535937 290.71 692.335937 290.71 
L 599.425469 290.71 
Q 597.225469 290.71 597.225469 292.91 
L 597.225469 307.955938 
Q 597.225469 310.155938 599.425469 310.155938 
z
" style="fill: #ffffff; opacity: 0.8; stroke: #cccccc; stroke-linejoin: miter"/>
    </g>
    <g id="line2d_29">
     <path d="M 601.625469 299.618281 
L 612.625469 299.618281 
L 623.625469 299.618281 
" style="fill: none; stroke-dasharray: 5.55,2.4; stroke-dashoffset: 0; stroke: #808080; stroke-opacity: 0.7; stroke-width: 1.5"/>
    </g>
    <g id="text_25">
     <!-- SQL (R=1) -->
     <g style="fill: #262626" transform="translate(632.425469 303.468281) scale(0.11 -0.11)">
      <defs>
       <path id="DejaVuSans-52" d="M 2841 2188 
Q 3044 2119 3236 1894 
Q 3428 1669 3622 1275 
L 4263 0 
L 3584 0 
L 2988 1197 
Q 2756 1666 2539 1819 
Q 2322 1972 1947 1972 
L 1259 1972 
L 1259 0 
L 628 0 
L 628 4666 
L 2053 4666 
Q 2853 4666 3247 4331 
Q 3641 3997 3641 3322 
Q 3641 2881 3436 2590 
Q 3231 2300 2841 2188 
z
M 1259 4147 
L 1259 2491 
L 2053 2491 
Q 2509 2491 2742 2702 
Q 2975 2913 2975 3322 
Q 2975 3731 2742 3939 
Q 2509 4147 2053 4147 
L 1259 4147 
z
" transform="scale(0.015625)"/>
      </defs>
      <use xlink:href="#DejaVuSans-53"/>
      <use xlink:href="#DejaVuSans-51" transform="translate(63.476562 0)"/>
      <use xlink:href="#DejaVuSans-4c" transform="translate(142.1875 0)"/>
      <use xlink:href="#DejaVuSans-20" transform="translate(197.900391 0)"/>
      <use xlink:href="#DejaVuSans-28" transform="translate(229.6875 0)"/>
      <use xlink:href="#DejaVuSans-52" transform="translate(268.701172 0)"/>
      <use xlink:href="#DejaVuSans-3d" transform="translate(338.183594 0)"/>
      <use xlink:href="#DejaVuSans-31" transform="translate(421.972656 0)"/>
      <use xlink:href="#DejaVuSans-29" transform="translate(485.595703 0)"/>
     </g>
    </g>
   </g>
  </g>
 </g>
 <defs>
  <clipPath id="ped0d6d097f">
   <rect x="56.805937" y="22.32" width="643.23" height="232.41"/>
  </clipPath>
  <clipPath id="p87c8d17529">
   <rect x="56.805937" y="285.21" width="643.23" height="232.41"/>
  </clipPath>
 </defs>
</svg>
