<?xml version="1.0" encoding="utf-8" standalone="no"?>
<!DOCTYPE svg PUBLIC "-//W3C//DTD SVG 1.1//EN"
  "http://www.w3.org/Graphics/SVG/1.1/DTD/svg11.dtd">
<svg xmlns:xlink="http://www.w3.org/1999/xlink" width="563.240156pt" height="344.579687pt" viewBox="0 0 563.240156 344.579687" xmlns="http://www.w3.org/2000/svg" version="1.1">
 <metadata>
  <rdf:RDF xmlns:dc="http://purl.org/dc/elements/1.1/" xmlns:cc="http://creativecommons.org/ns#" xmlns:rdf="http://www.w3.org/1999/02/22-rdf-syntax-ns#">
   <cc:Work>
    <dc:type rdf:resource="http://purl.org/dc/dcmitype/StillImage"/>
    <dc:date>2026-07-11T11:50:05.078408</dc:date>
    <dc:format>image/svg+xml</dc:format>
    <dc:creator>
     <cc:Agent>
      <dc:title>Matplotlib v3.10.9, https://matplotlib.org/</dc:title>
     </cc:Agent>
    </dc:creator>
   </cc:Work>
  </rdf:RDF>
 </metadata>
 <defs>
  <style type="text/css">*{stroke-linejoin: round; stroke-linecap: butt}</style>
 </defs>
 <g id="figure_1">
  <g id="patch_1">
   <path d="M 0 344.579687 
L 563.240156 344.579687 
L 563.240156 0 
L 0 0 
z
" style="fill: #ffffff"/>
  </g>
  <g id="axes_1">
   <g id="patch_2">
    <path d="M 48.530156 301.62 
L 556.040156 301.62 
L 556.040156 22.32 
L 48.530156 22.32 
z
" style="fill: #ffffff"/>
   </g>
   <g id="matplotlib.axis_1">
    <g id="xtick_1">
     <g id="line2d_1">
      <path d="M 70.674198 301.62 
L 70.674198 22.32 
" clip-path="url(#pd3569c670f)" style="fill: none; stroke: #cccccc; stroke-linecap: round"/>
     </g>
     <g id="text_1">
      <!-- 0 -->
      <g style="fill: #262626" transform="translate(67.174823 319.478281) scale(0.11 -0.11)">
       <defs>
        <path id="DejaVuSans-30" d="M 2034 4250 
Q 1547 4250 1301 3770 
Q 1056 3291 1056 2328 
Q 1056 1369 1301 889 
Q 1547 409 2034 409 
Q 2525 409 2770 889 
Q 3016 1369 3016 2328 
Q 3016 3291 2770 3770 
Q 2525 4250 2034 4250 
z
M 2034 4750 
Q 2819 4750 3233 4129 
Q 3647 3509 3647 2328 
Q 3647 1150 3233 529 
Q 2819 -91 2034 -91 
Q 1250 -91 836 529 
Q 422 1150 422 2328 
Q 422 3509 836 4129 
Q 1250 4750 2034 4750 
z
" transform="scale(0.015625)"/>
       </defs>
       <use xlink:href="#DejaVuSans-30"/>
      </g>
     </g>
    </g>
    <g id="xtick_2">
     <g id="line2d_2">
      <path d="M 163.133662 301.62 
L 163.133662 22.32 
" clip-path="url(#pd3569c670f)" style="fill: none; stroke: #cccccc; stroke-linecap: round"/>
     </g>
     <g id="text_2">
      <!-- 1 -->
      <g style="fill: #262626" transform="translate(159.634287 319.478281) scale(0.11 -0.11)">
       <defs>
        <path id="DejaVuSans-31" d="M 794 531 
L 1825 531 
L 1825 4091 
L 703 3866 
L 703 4441 
L 1819 4666 
L 2450 4666 
L 2450 531 
L 3481 531 
L 3481 0 
L 794 0 
L 794 531 
z
" transform="scale(0.015625)"/>
       </defs>
       <use xlink:href="#DejaVuSans-31"/>
      </g>
     </g>
    </g>
    <g id="xtick_3">
     <g id="line2d_3">
      <path d="M 255.593127 301.62 
L 255.593127 22.32 
" clip-path="url(#pd3569c670f)" style="fill: none; stroke: #cccccc; stroke-linecap: round"/>
     </g>
     <g id="text_3">
      <!-- 2 -->
      <g style="fill: #262626" transform="translate(252.093752 319.478281) scale(0.11 -0.11)">
       <defs>
        <path id="DejaVuSans-32" d="M 1228 531 
L 3431 531 
L 3431 0 
L 469 0 
L 469 531 
Q 828 903 1448 1529 
Q 2069 2156 2228 2338 
Q 2531 2678 2651 2914 
Q 2772 3150 2772 3378 
Q 2772 3750 2511 3984 
Q 2250 4219 1831 4219 
Q 1534 4219 1204 4116 
Q 875 4013 500 3803 
L 500 4441 
Q 881 4594 1212 4672 
Q 1544 4750 1819 4750 
Q 2544 4750 2975 4387 
Q 3406 4025 3406 3419 
Q 3406 3131 3298 2873 
Q 3191 2616 2906 2266 
Q 2828 2175 2409 1742 
Q 1991 1309 1228 531 
z
" transform="scale(0.015625)"/>
       </defs>
       <use xlink:href="#DejaVuSans-32"/>
      </g>
     </g>
    </g>
    <g id="xtick_4">
     <g id="line2d_4">
      <path d="M 348.052591 301.62 
L 348.052591 22.32 
" clip-path="url(#pd3569c670f)" style="fill: none; stroke: #cccccc; stroke-linecap: round"/>
     </g>
     <g id="text_4">
      <!-- 3 -->
      <g style="fill: #262626" transform="translate(344.553216 319.478281) scale(0.11 -0.11)">
       <defs>
        <path id="DejaVuSans-33" d="M 2597 2516 
Q 3050 2419 3304 2112 
Q 3559 1806 3559 1356 
Q 3559 666 3084 287 
Q 2609 -91 1734 -91 
Q 1441 -91 1130 -33 
Q 819 25 488 141 
L 488 750 
Q 750 597 1062 519 
Q 1375 441 1716 441 
Q 2309 441 2620 675 
Q 2931 909 2931 1356 
Q 2931 1769 2642 2001 
Q 2353 2234 1838 2234 
L 1294 2234 
L 1294 2753 
L 1863 2753 
Q 2328 2753 2575 2939 
Q 2822 3125 2822 3475 
Q 2822 3834 2567 4026 
Q 2313 4219 1838 4219 
Q 1578 4219 1281 4162 
Q 984 4106 628 3988 
L 628 4550 
Q 988 4650 1302 4700 
Q 1616 4750 1894 4750 
Q 2613 4750 3031 4423 
Q 3450 4097 3450 3541 
Q 3450 3153 3228 2886 
Q 3006 2619 2597 2516 
z
" transform="scale(0.015625)"/>
       </defs>
       <use xlink:href="#DejaVuSans-33"/>
      </g>
     </g>
    </g>
    <g id="xtick_5">
     <g id="line2d_5">
      <path d="M 440.512056 301.62 
L 440.512056 22.32 
" clip-path="url(#pd3569c670f)" style="fill: none; stroke: #cccccc; stroke-linecap: round"/>
     </g>
     <g id="text_5">
      <!-- 4 -->
      <g style="fill: #262626" transform="translate(437.012681 319.478281) scale(0.11 -0.11)">
       <defs>
        <path id="DejaVuSans-34" d="M 2419 4116 
L 825 1625 
L 2419 1625 
L 2419 4116 
z
M 2253 4666 
L 3047 4666 
L 3047 1625 
L 3713 1625 
L 3713 1100 
L 3047 1100 
L 3047 0 
L 2419 0 
L 2419 1100 
L 313 1100 
L 313 1709 
L 2253 4666 
z
" transform="scale(0.015625)"/>
       </defs>
       <use xlink:href="#DejaVuSans-34"/>
      </g>
     </g>
    </g>
    <g id="xtick_6">
     <g id="line2d_6">
      <path d="M 532.97152 301.62 
L 532.97152 22.32 
" clip-path="url(#pd3569c670f)" style="fill: none; stroke: #cccccc; stroke-linecap: round"/>
     </g>
     <g id="text_6">
      <!-- 5 -->
      <g style="fill: #262626" transform="translate(529.472145 319.478281) scale(0.11 -0.11)">
       <defs>
        <path id="DejaVuSans-35" d="M 691 4666 
L 3169 4666 
L 3169 4134 
L 1269 4134 
L 1269 2991 
Q 1406 3038 1543 3061 
Q 1681 3084 1819 3084 
Q 2600 3084 3056 2656 
Q 3513 2228 3513 1497 
Q 3513 744 3044 326 
Q 2575 -91 1722 -91 
Q 1428 -91 1123 -41 
Q 819 9 494 109 
L 494 744 
Q 775 591 1075 516 
Q 1375 441 1709 441 
Q 2250 441 2565 725 
Q 2881 1009 2881 1497 
Q 2881 1984 2565 2268 
Q 2250 2553 1709 2553 
Q 1456 2553 1204 2497 
Q 953 2441 691 2322 
L 691 4666 
z
" transform="scale(0.015625)"/>
       </defs>
       <use xlink:href="#DejaVuSans-35"/>
      </g>
     </g>
    </g>
    <g id="text_7">
     <!-- $\omega$ -->
     <g style="fill: #262626" transform="translate(297.245156 334.884062) scale(0.12 -0.12)">
      <defs>
       <path id="DejaVuSans-Oblique-3c9" d="M 1369 -91 
Q 72 -91 434 1766 
Q 575 2500 1256 3500 
L 1875 3500 
Q 1231 2500 1088 1750 
Q 819 397 1519 397 
Q 2166 397 2478 2078 
L 3009 2078 
Q 2669 388 3316 397 
Q 4013 403 4275 1750 
Q 4419 2500 4169 3500 
L 4788 3500 
Q 5075 2500 4934 1766 
Q 4578 -94 3278 -91 
Q 2428 -88 2503 844 
Q 2194 -91 1369 -91 
z
" transform="scale(0.015625)"/>
      </defs>
      <use xlink:href="#DejaVuSans-Oblique-3c9" transform="translate(0 0.3125)"/>
     </g>
    </g>
   </g>
   <g id="matplotlib.axis_2">
    <g id="ytick_1">
     <g id="line2d_7">
      <path d="M 48.530156 263.533636 
L 556.040156 263.533636 
" clip-path="url(#pd3569c670f)" style="fill: none; stroke: #cccccc; stroke-linecap: round"/>
     </g>
     <g id="text_8">
      <!-- −4 -->
      <g style="fill: #262626" transform="translate(22.81375 267.712777) scale(0.11 -0.11)">
       <defs>
        <path id="DejaVuSans-2212" d="M 678 2272 
L 4684 2272 
L 4684 1741 
L 678 1741 
L 678 2272 
z
" transform="scale(0.015625)"/>
       </defs>
       <use xlink:href="#DejaVuSans-2212"/>
       <use xlink:href="#DejaVuSans-34" transform="translate(83.789062 0)"/>
      </g>
     </g>
    </g>
    <g id="ytick_2">
     <g id="line2d_8">
      <path d="M 48.530156 212.751818 
L 556.040156 212.751818 
" clip-path="url(#pd3569c670f)" style="fill: none; stroke: #cccccc; stroke-linecap: round"/>
     </g>
     <g id="text_9">
      <!-- −2 -->
      <g style="fill: #262626" transform="translate(22.81375 216.930959) scale(0.11 -0.11)">
       <use xlink:href="#DejaVuSans-2212"/>
       <use xlink:href="#DejaVuSans-32" transform="translate(83.789062 0)"/>
      </g>
     </g>
    </g>
    <g id="ytick_3">
     <g id="line2d_9">
      <path d="M 48.530156 161.97 
L 556.040156 161.97 
" clip-path="url(#pd3569c670f)" style="fill: none; stroke: #cccccc; stroke-linecap: round"/>
     </g>
     <g id="text_10">
      <!-- 0 -->
      <g style="fill: #262626" transform="translate(32.031406 166.149141) scale(0.11 -0.11)">
       <use xlink:href="#DejaVuSans-30"/>
      </g>
     </g>
    </g>
    <g id="ytick_4">
     <g id="line2d_10">
      <path d="M 48.530156 111.188182 
L 556.040156 111.188182 
" clip-path="url(#pd3569c670f)" style="fill: none; stroke: #cccccc; stroke-linecap: round"/>
     </g>
     <g id="text_11">
      <!-- 2 -->
      <g style="fill: #262626" transform="translate(32.031406 115.367322) scale(0.11 -0.11)">
       <use xlink:href="#DejaVuSans-32"/>
      </g>
     </g>
    </g>
    <g id="ytick_5">
     <g id="line2d_11">
      <path d="M 48.530156 60.406364 
L 556.040156 60.406364 
" clip-path="url(#pd3569c670f)" style="fill: none; stroke: #cccccc; stroke-linecap: round"/>
     </g>
     <g id="text_12">
      <!-- 4 -->
      <g style="fill: #262626" transform="translate(32.031406 64.585504) scale(0.11 -0.11)">
       <use xlink:href="#DejaVuSans-34"/>
      </g>
     </g>
    </g>
    <g id="text_13">
     <!-- Optimal parameter value -->
     <g style="fill: #262626" transform="translate(16.318125 237.58875) rotate(-90) scale(0.12 -0.12)">
      <defs>
       <path id="DejaVuSans-4f" d="M 2522 4238 
Q 1834 4238 1429 3725 
Q 1025 3213 1025 2328 
Q 1025 1447 1429 934 
Q 1834 422 2522 422 
Q 3209 422 3611 934 
Q 4013 1447 4013 2328 
Q 4013 3213 3611 3725 
Q 3209 4238 2522 4238 
z
M 2522 4750 
Q 3503 4750 4090 4092 
Q 4678 3434 4678 2328 
Q 4678 1225 4090 567 
Q 3503 -91 2522 -91 
Q 1538 -91 948 565 
Q 359 1222 359 2328 
Q 359 3434 948 4092 
Q 1538 4750 2522 4750 
z
" transform="scale(0.015625)"/>
       <path id="DejaVuSans-70" d="M 1159 525 
L 1159 -1331 
L 581 -1331 
L 581 3500 
L 1159 3500 
L 1159 2969 
Q 1341 3281 1617 3432 
Q 1894 3584 2278 3584 
Q 2916 3584 3314 3078 
Q 3713 2572 3713 1747 
Q 3713 922 3314 415 
Q 2916 -91 2278 -91 
Q 1894 -91 1617 61 
Q 1341 213 1159 525 
z
M 3116 1747 
Q 3116 2381 2855 2742 
Q 2594 3103 2138 3103 
Q 1681 3103 1420 2742 
Q 1159 2381 1159 1747 
Q 1159 1113 1420 752 
Q 1681 391 2138 391 
Q 2594 391 2855 752 
Q 3116 1113 3116 1747 
z
" transform="scale(0.015625)"/>
       <path id="DejaVuSans-74" d="M 1172 4494 
L 1172 3500 
L 2356 3500 
L 2356 3053 
L 1172 3053 
L 1172 1153 
Q 1172 725 1289 603 
Q 1406 481 1766 481 
L 2356 481 
L 2356 0 
L 1766 0 
Q 1100 0 847 248 
Q 594 497 594 1153 
L 594 3053 
L 172 3053 
L 172 3500 
L 594 3500 
L 594 4494 
L 1172 4494 
z
" transform="scale(0.015625)"/>
       <path id="DejaVuSans-69" d="M 603 3500 
L 1178 3500 
L 1178 0 
L 603 0 
L 603 3500 
z
M 603 4863 
L 1178 4863 
L 1178 4134 
L 603 4134 
L 603 4863 
z
" transform="scale(0.015625)"/>
       <path id="DejaVuSans-6d" d="M 3328 2828 
Q 3544 3216 3844 3400 
Q 4144 3584 4550 3584 
Q 5097 3584 5394 3201 
Q 5691 2819 5691 2113 
L 5691 0 
L 5113 0 
L 5113 2094 
Q 5113 2597 4934 2840 
Q 4756 3084 4391 3084 
Q 3944 3084 3684 2787 
Q 3425 2491 3425 1978 
L 3425 0 
L 2847 0 
L 2847 2094 
Q 2847 2600 2669 2842 
Q 2491 3084 2119 3084 
Q 1678 3084 1418 2786 
Q 1159 2488 1159 1978 
L 1159 0 
L 581 0 
L 581 3500 
L 1159 3500 
L 1159 2956 
Q 1356 3278 1631 3431 
Q 1906 3584 2284 3584 
Q 2666 3584 2933 3390 
Q 3200 3197 3328 2828 
z
" transform="scale(0.015625)"/>
       <path id="DejaVuSans-61" d="M 2194 1759 
Q 1497 1759 1228 1600 
Q 959 1441 959 1056 
Q 959 750 1161 570 
Q 1363 391 1709 391 
Q 2188 391 2477 730 
Q 2766 1069 2766 1631 
L 2766 1759 
L 2194 1759 
z
M 3341 1997 
L 3341 0 
L 2766 0 
L 2766 531 
Q 2569 213 2275 61 
Q 1981 -91 1556 -91 
Q 1019 -91 701 211 
Q 384 513 384 1019 
Q 384 1609 779 1909 
Q 1175 2209 1959 2209 
L 2766 2209 
L 2766 2266 
Q 2766 2663 2505 2880 
Q 2244 3097 1772 3097 
Q 1472 3097 1187 3025 
Q 903 2953 641 2809 
L 641 3341 
Q 956 3463 1253 3523 
Q 1550 3584 1831 3584 
Q 2591 3584 2966 3190 
Q 3341 2797 3341 1997 
z
" transform="scale(0.015625)"/>
       <path id="DejaVuSans-6c" d="M 603 4863 
L 1178 4863 
L 1178 0 
L 603 0 
L 603 4863 
z
" transform="scale(0.015625)"/>
       <path id="DejaVuSans-20" transform="scale(0.015625)"/>
       <path id="DejaVuSans-72" d="M 2631 2963 
Q 2534 3019 2420 3045 
Q 2306 3072 2169 3072 
Q 1681 3072 1420 2755 
Q 1159 2438 1159 1844 
L 1159 0 
L 581 0 
L 581 3500 
L 1159 3500 
L 1159 2956 
Q 1341 3275 1631 3429 
Q 1922 3584 2338 3584 
Q 2397 3584 2469 3576 
Q 2541 3569 2628 3553 
L 2631 2963 
z
" transform="scale(0.015625)"/>
       <path id="DejaVuSans-65" d="M 3597 1894 
L 3597 1613 
L 953 1613 
Q 991 1019 1311 708 
Q 1631 397 2203 397 
Q 2534 397 2845 478 
Q 3156 559 3463 722 
L 3463 178 
Q 3153 47 2828 -22 
Q 2503 -91 2169 -91 
Q 1331 -91 842 396 
Q 353 884 353 1716 
Q 353 2575 817 3079 
Q 1281 3584 2069 3584 
Q 2775 3584 3186 3129 
Q 3597 2675 3597 1894 
z
M 3022 2063 
Q 3016 2534 2758 2815 
Q 2500 3097 2075 3097 
Q 1594 3097 1305 2825 
Q 1016 2553 972 2059 
L 3022 2063 
z
" transform="scale(0.015625)"/>
       <path id="DejaVuSans-76" d="M 191 3500 
L 800 3500 
L 1894 563 
L 2988 3500 
L 3597 3500 
L 2284 0 
L 1503 0 
L 191 3500 
z
" transform="scale(0.015625)"/>
       <path id="DejaVuSans-75" d="M 544 1381 
L 544 3500 
L 1119 3500 
L 1119 1403 
Q 1119 906 1312 657 
Q 1506 409 1894 409 
Q 2359 409 2629 706 
Q 2900 1003 2900 1516 
L 2900 3500 
L 3475 3500 
L 3475 0 
L 2900 0 
L 2900 538 
Q 2691 219 2414 64 
Q 2138 -91 1772 -91 
Q 1169 -91 856 284 
Q 544 659 544 1381 
z
M 1991 3584 
L 1991 3584 
z
" transform="scale(0.015625)"/>
      </defs>
      <use xlink:href="#DejaVuSans-4f"/>
      <use xlink:href="#DejaVuSans-70" transform="translate(78.710938 0)"/>
      <use xlink:href="#DejaVuSans-74" transform="translate(142.1875 0)"/>
      <use xlink:href="#DejaVuSans-69" transform="translate(181.396484 0)"/>
      <use xlink:href="#DejaVuSans-6d" transform="translate(209.179688 0)"/>
      <use xlink:href="#DejaVuSans-61" transform="translate(306.591797 0)"/>
      <use xlink:href="#DejaVuSans-6c" transform="translate(367.871094 0)"/>
      <use xlink:href="#DejaVuSans-20" transform="translate(395.654297 0)"/>
      <use xlink:href="#DejaVuSans-70" transform="translate(427.441406 0)"/>
      <use xlink:href="#DejaVuSans-61" transform="translate(490.917969 0)"/>
      <use xlink:href="#DejaVuSans-72" transform="translate(552.197266 0)"/>
      <use xlink:href="#DejaVuSans-61" transform="translate(593.310547 0)"/>
      <use xlink:href="#DejaVuSans-6d" transform="translate(654.589844 0)"/>
      <use xlink:href="#DejaVuSans-65" transform="translate(752.001953 0)"/>
      <use xlink:href="#DejaVuSans-74" transform="translate(813.525391 0)"/>
      <use xlink:href="#DejaVuSans-65" transform="translate(852.734375 0)"/>
      <use xlink:href="#DejaVuSans-72" transform="translate(914.257812 0)"/>
      <use xlink:href="#DejaVuSans-20" transform="translate(955.371094 0)"/>
      <use xlink:href="#DejaVuSans-76" transform="translate(987.158203 0)"/>
      <use xlink:href="#DejaVuSans-61" transform="translate(1046.337891 0)"/>
      <use xlink:href="#DejaVuSans-6c" transform="translate(1107.617188 0)"/>
      <use xlink:href="#DejaVuSans-75" transform="translate(1135.400391 0)"/>
      <use xlink:href="#DejaVuSans-65" transform="translate(1198.779297 0)"/>
     </g>
    </g>
   </g>
   <g id="line2d_12">
    <path d="M 71.598793 35.015455 
L 72.523387 288.924545 
L 74.372577 288.924545 
L 75.297171 35.015455 
L 76.221766 288.924463 
L 77.14636 36.953264 
L 78.070955 288.924545 
L 78.99555 35.690375 
L 79.920144 38.67098 
L 80.844739 35.015455 
L 83.618523 35.015455 
L 84.543118 288.924545 
L 85.467712 35.015455 
L 86.392307 288.908906 
L 87.316902 269.247386 
L 88.241496 66.215245 
L 89.166091 35.015455 
L 90.090685 38.986289 
L 91.01528 35.018254 
L 91.939875 288.924545 
L 92.864469 42.402841 
L 93.789064 279.141777 
L 94.713659 282.512716 
L 95.638253 52.162016 
L 96.562848 36.25723 
L 97.487443 263.555801 
L 98.412037 288.0697 
L 99.336632 288.262171 
L 100.261227 87.324133 
L 101.185821 59.818287 
L 102.110416 35.742074 
L 103.035011 288.924545 
L 103.959605 41.629179 
L 104.8842 102.520583 
L 105.808794 237.591246 
L 106.733389 245.527317 
L 107.657984 268.350172 
L 108.582578 270.824017 
L 109.507173 250.195471 
L 110.431768 58.044112 
L 111.356362 275.355949 
L 112.280957 45.872168 
L 113.205552 276.77678 
L 114.130146 47.077206 
L 115.054741 287.654119 
L 115.979336 261.691087 
L 116.90393 274.626101 
L 117.828525 61.237479 
L 118.753119 44.458774 
L 119.677714 285.534718 
L 120.602309 36.983097 
L 121.526903 265.864094 
L 122.451498 39.090827 
L 123.376093 71.204571 
L 124.300687 44.194458 
L 125.225282 266.220454 
L 126.149877 36.966058 
L 127.074471 53.816265 
L 127.999066 279.212576 
L 128.923661 262.121474 
L 129.848255 281.807411 
L 130.77285 38.919265 
L 131.697444 266.180146 
L 132.622039 260.923375 
L 133.546634 243.738169 
L 134.471228 68.324556 
L 135.395823 239.505665 
L 136.320418 42.726515 
L 137.245012 73.629017 
L 138.169607 288.695466 
L 139.094202 283.188055 
L 140.018796 47.816462 
L 140.943391 269.940948 
L 141.867986 60.649259 
L 142.79258 44.719249 
L 143.717175 272.73006 
L 144.641769 270.989927 
L 145.566364 35.70528 
L 146.490959 288.78449 
L 147.415553 72.819075 
L 148.340148 270.840151 
L 149.264743 46.919635 
L 150.189337 247.11791 
L 151.113932 272.897854 
L 152.038527 284.821839 
L 152.963121 59.581731 
L 153.887716 35.226062 
L 154.812311 257.19005 
L 155.736905 286.945047 
L 156.6615 54.640046 
L 157.586094 40.740859 
L 158.510689 280.697698 
L 159.435284 63.5266 
L 160.359878 282.504236 
L 161.284473 47.934527 
L 162.209068 276.155864 
L 163.133662 255.229203 
L 164.058257 283.558642 
L 164.982852 51.576657 
L 165.907446 52.503592 
L 166.832041 287.915951 
L 167.756636 267.563842 
L 168.68123 266.534216 
L 169.605825 45.415216 
L 170.53042 284.188287 
L 171.455014 56.765954 
L 172.379609 35.015455 
L 173.304203 286.519996 
L 174.228798 44.739101 
L 175.153393 37.101217 
L 176.077987 35.342528 
L 177.002582 35.098927 
L 177.927177 269.795037 
L 178.851771 243.255028 
L 179.776366 263.871477 
L 180.700961 268.362165 
L 181.625555 52.969206 
L 182.55015 279.779257 
L 183.474745 47.513128 
L 184.399339 288.461745 
L 185.323934 73.544201 
L 186.248528 81.156864 
L 187.173123 54.023344 
L 188.097718 278.782543 
L 189.022312 56.90734 
L 189.946907 280.995418 
L 190.871502 272.587986 
L 191.796096 288.749713 
L 192.720691 273.686719 
L 193.645286 288.546515 
L 194.56988 64.304122 
L 195.494475 276.369143 
L 196.41907 37.720195 
L 197.343664 110.195742 
L 198.268259 267.442341 
L 199.192853 44.794437 
L 200.117448 285.734817 
L 201.042043 247.077155 
L 201.966637 35.015455 
L 202.891232 288.924535 
L 203.815827 273.568823 
L 204.740421 51.614101 
L 205.665016 248.459808 
L 206.589611 67.56726 
L 207.514205 286.218995 
L 208.4388 80.890517 
L 209.363395 216.45995 
L 210.287989 96.848447 
L 211.212584 254.117335 
L 212.137178 72.606513 
L 213.061773 274.490502 
L 213.986368 272.559901 
L 214.910962 40.327669 
L 215.835557 288.924502 
L 216.760152 278.031884 
L 217.684746 264.336896 
L 218.609341 38.136463 
L 219.533936 285.102353 
L 220.45853 220.458155 
L 221.383125 267.822576 
L 222.30772 288.443372 
L 223.232314 47.481846 
L 224.156909 39.063176 
L 225.081503 277.326629 
L 226.006098 44.125648 
L 226.930693 42.925678 
L 227.855287 277.175034 
L 228.779882 285.389411 
L 229.704477 282.176088 
L 230.629071 284.108046 
L 231.553666 46.677595 
L 232.478261 271.040947 
L 233.402855 287.909484 
L 234.32745 50.749817 
L 235.252045 277.446296 
L 236.176639 288.62278 
L 237.101234 59.15257 
L 238.025829 44.54072 
L 238.950423 46.039244 
L 239.875018 72.870868 
L 240.799612 214.554922 
L 241.724207 251.800778 
L 242.648802 68.482733 
L 243.573396 226.68924 
L 244.497991 184.190089 
L 245.422586 58.08463 
L 246.34718 285.60785 
L 247.271775 225.260158 
L 248.19637 287.126697 
L 249.120964 66.791785 
L 250.045559 38.546712 
L 250.970154 269.359649 
L 251.894748 70.017881 
L 252.819343 47.077558 
L 253.743937 275.609686 
L 254.668532 200.326686 
L 255.593127 285.656251 
L 256.517721 99.095245 
L 257.442316 277.797588 
L 258.366911 136.408789 
L 259.291505 287.107382 
L 260.2161 274.229751 
L 261.140695 244.982062 
L 262.065289 285.400483 
L 262.989884 283.673643 
L 263.914479 261.048799 
L 264.839073 273.484534 
L 265.763668 270.484788 
L 266.688262 57.804246 
L 267.612857 226.038929 
L 268.537452 269.156993 
L 269.462046 47.914516 
L 270.386641 54.794371 
L 271.311236 280.25485 
L 272.23583 97.458976 
L 273.160425 203.073933 
L 274.08502 234.402395 
L 275.009614 248.104418 
L 275.934209 224.608904 
L 277.783398 286.2582 
L 278.707993 41.240041 
L 279.632587 287.933143 
L 280.557182 73.775086 
L 281.481777 57.112498 
L 282.406371 274.014757 
L 283.330966 43.850157 
L 284.255561 277.491205 
L 285.180155 69.043439 
L 286.10475 288.531136 
L 287.029345 52.992103 
L 287.953939 212.608073 
L 288.878534 278.062131 
L 289.803129 110.504439 
L 290.727723 284.091042 
L 291.652318 41.750752 
L 292.576912 280.801397 
L 293.501507 260.031822 
L 294.426102 79.218075 
L 295.350696 183.133638 
L 296.275291 55.331449 
L 297.199886 46.122239 
L 298.12448 43.989146 
L 299.049075 35.152463 
L 299.97367 36.848914 
L 300.898264 263.177031 
L 301.822859 35.50944 
L 302.747454 35.211367 
L 303.672048 280.8625 
L 304.596643 288.519553 
L 305.521238 69.55093 
L 306.445832 35.355587 
L 307.370427 49.606402 
L 308.295021 38.527925 
L 309.219616 98.809587 
L 310.144211 35.015455 
L 311.068805 52.999028 
L 311.9934 35.015464 
L 312.917995 102.752165 
L 313.842589 270.89054 
L 314.767184 282.89949 
L 315.691779 268.219688 
L 316.616373 256.83862 
L 317.540968 66.917707 
L 318.465563 275.864994 
L 319.390157 88.006174 
L 320.314752 284.833007 
L 321.239346 255.267689 
L 322.163941 267.40771 
L 323.088536 205.635119 
L 324.01313 288.38453 
L 324.937725 45.254886 
L 325.86232 269.536806 
L 326.786914 101.215765 
L 327.711509 78.943672 
L 328.636104 35.34777 
L 329.560698 83.750262 
L 330.485293 277.488489 
L 331.409888 231.847709 
L 332.334482 43.321427 
L 333.259077 267.016693 
L 334.183671 253.276055 
L 335.108266 215.339712 
L 336.032861 39.306326 
L 336.957455 74.887257 
L 337.88205 38.503295 
L 338.806645 276.272429 
L 339.731239 268.009646 
L 340.655834 102.084729 
L 341.580429 48.467399 
L 342.505023 235.675917 
L 343.429618 248.459081 
L 344.354213 281.170343 
L 345.278807 288.788122 
L 346.203402 65.237188 
L 347.127996 53.225437 
L 348.052591 51.393843 
L 348.977186 56.367547 
L 349.90178 284.742466 
L 350.826375 287.898852 
L 351.75097 41.834159 
L 352.675564 251.27009 
L 353.600159 279.248448 
L 354.524754 50.424208 
L 355.449348 63.169528 
L 356.373943 35.015455 
L 357.298538 38.891518 
L 358.223132 73.308857 
L 359.147727 288.471382 
L 360.996916 57.265098 
L 361.921511 41.673638 
L 362.846105 273.058743 
L 363.7707 284.847222 
L 364.695295 255.55161 
L 365.619889 35.561826 
L 366.544484 248.292584 
L 367.469079 263.560124 
L 368.393673 36.342185 
L 369.318268 41.742902 
L 370.242863 121.632396 
L 371.167457 35.419285 
L 372.092052 288.924541 
L 373.016647 194.03958 
L 373.941241 54.355089 
L 374.865836 226.15935 
L 375.79043 61.39246 
L 376.715025 117.701308 
L 377.63962 286.616547 
L 378.564214 217.40117 
L 379.488809 116.499168 
L 380.413404 287.19879 
L 381.337998 57.987456 
L 382.262593 37.832725 
L 383.187188 115.50558 
L 384.111782 288.485573 
L 385.036377 282.445595 
L 385.960972 77.2472 
L 386.885566 271.677504 
L 387.810161 249.463065 
L 388.734755 275.304563 
L 389.65935 140.214405 
L 390.583945 275.575807 
L 391.508539 84.363865 
L 392.433134 79.030623 
L 393.357729 287.214555 
L 394.282323 286.792573 
L 395.206918 288.518422 
L 397.056107 42.02231 
L 397.980702 218.036007 
L 398.905297 140.224858 
L 399.829891 285.804391 
L 400.754486 47.873648 
L 401.67908 81.237184 
L 402.603675 36.304568 
L 404.452864 261.396155 
L 405.377459 258.955132 
L 406.302054 264.957116 
L 407.226648 74.94292 
L 408.151243 286.205164 
L 409.075838 262.914039 
L 410.000432 46.970824 
L 410.925027 36.761661 
L 411.849622 77.173694 
L 412.774216 233.408576 
L 413.698811 241.103005 
L 414.623405 65.730033 
L 415.548 113.942254 
L 416.472595 40.512599 
L 417.397189 38.605819 
L 418.321784 287.436727 
L 419.246379 36.190806 
L 420.170973 275.671699 
L 421.095568 36.76896 
L 422.020163 45.743728 
L 422.944757 69.160067 
L 423.869352 42.295574 
L 425.718541 85.553783 
L 426.643136 123.347007 
L 427.56773 37.121745 
L 428.492325 288.832644 
L 429.41692 61.655654 
L 430.341514 284.923649 
L 431.266109 279.216516 
L 432.190704 285.899053 
L 433.115298 284.187451 
L 434.039893 239.713114 
L 434.964488 44.433209 
L 435.889082 78.614266 
L 436.813677 286.437926 
L 437.738272 81.202218 
L 438.662866 109.414495 
L 439.587461 288.697239 
L 440.512056 285.533375 
L 441.43665 244.580157 
L 442.361245 99.434059 
L 443.285839 43.234567 
L 444.210434 246.401026 
L 445.135029 223.17537 
L 446.059623 258.885884 
L 446.984218 35.061312 
L 447.908813 111.006497 
L 448.833407 39.28721 
L 449.758002 43.151119 
L 450.682597 75.564847 
L 451.607191 102.597256 
L 452.531786 65.520474 
L 453.456381 100.281353 
L 454.380975 205.544953 
L 455.30557 235.141421 
L 456.230164 259.005315 
L 457.154759 61.188507 
L 458.079354 282.16077 
L 459.003948 87.141865 
L 459.928543 275.427173 
L 460.853138 269.680314 
L 461.777732 49.282914 
L 462.702327 147.037138 
L 463.626922 114.477039 
L 464.551516 269.624746 
L 465.476111 283.490604 
L 466.400706 263.527453 
L 467.3253 287.357991 
L 468.249895 277.95603 
L 469.174489 258.361976 
L 470.099084 269.355763 
L 471.023679 35.570353 
L 471.948273 278.443093 
L 472.872868 163.75996 
L 473.797463 83.515679 
L 474.722057 288.059861 
L 475.646652 193.021925 
L 476.571247 244.589624 
L 477.495841 126.96268 
L 478.420436 277.825575 
L 479.345031 261.871244 
L 480.269625 113.72282 
L 481.19422 243.680504 
L 482.118814 138.312142 
L 483.043409 84.161416 
L 483.968004 224.145679 
L 484.892598 283.510153 
L 485.817193 50.149434 
L 486.741788 106.145815 
L 487.666382 260.743372 
L 488.590977 271.647143 
L 489.515572 254.279809 
L 490.440166 57.547653 
L 491.364761 73.053989 
L 492.289356 57.350471 
L 493.21395 277.89522 
L 494.138545 234.337145 
L 495.063139 76.91078 
L 495.987734 42.329317 
L 496.912329 44.797171 
L 497.836923 288.001285 
L 498.761518 279.942487 
L 499.686113 261.033824 
L 500.610707 121.133246 
L 501.535302 37.110632 
L 502.459897 197.074003 
L 503.384491 271.934826 
L 504.309086 43.784987 
L 505.233681 65.241325 
L 506.158275 42.951209 
L 507.08287 56.053408 
L 508.007465 54.024946 
L 508.932059 35.018607 
L 509.856654 259.94977 
L 510.781248 287.694752 
L 511.705843 61.752176 
L 512.630438 241.490471 
L 513.555032 189.362035 
L 514.479627 266.026851 
L 515.404222 57.139056 
L 516.328816 57.114614 
L 517.253411 254.279808 
L 518.178006 105.660741 
L 519.1026 35.393162 
L 520.027195 287.31788 
L 520.95179 36.058752 
L 521.876384 264.934329 
L 522.800979 86.635167 
L 523.725573 288.815945 
L 524.650168 287.659002 
L 525.574763 62.361715 
L 526.499357 126.463521 
L 527.423952 224.650728 
L 528.348547 232.377662 
L 529.273141 58.694565 
L 530.197736 199.330677 
L 531.122331 35.265409 
L 532.046925 38.458952 
L 532.97152 270.775605 
L 532.97152 270.775605 
" clip-path="url(#pd3569c670f)" style="fill: none; stroke: #4c72b0; stroke-width: 1.5; stroke-linecap: round"/>
    <defs>
     <path id="mdd92f5b5b4" d="M 0 3 
C 0.795609 3 1.55874 2.683901 2.12132 2.12132 
C 2.683901 1.55874 3 0.795609 3 0 
C 3 -0.795609 2.683901 -1.55874 2.12132 -2.12132 
C 1.55874 -2.683901 0.795609 -3 0 -3 
C -0.795609 -3 -1.55874 -2.683901 -2.12132 -2.12132 
C -2.683901 -1.55874 -3 -0.795609 -3 0 
C -3 0.795609 -2.683901 1.55874 -2.12132 2.12132 
C -1.55874 2.683901 -0.795609 3 0 3 
z
" style="stroke: #4c72b0"/>
    </defs>
    <g clip-path="url(#pd3569c670f)">
     <use xlink:href="#mdd92f5b5b4" x="71.598793" y="35.015455" style="fill: #4c72b0; stroke: #4c72b0"/>
     <use xlink:href="#mdd92f5b5b4" x="86.392307" y="288.908906" style="fill: #4c72b0; stroke: #4c72b0"/>
     <use xlink:href="#mdd92f5b5b4" x="101.185821" y="59.818287" style="fill: #4c72b0; stroke: #4c72b0"/>
     <use xlink:href="#mdd92f5b5b4" x="115.979336" y="261.691087" style="fill: #4c72b0; stroke: #4c72b0"/>
     <use xlink:href="#mdd92f5b5b4" x="130.77285" y="38.919265" style="fill: #4c72b0; stroke: #4c72b0"/>
     <use xlink:href="#mdd92f5b5b4" x="145.566364" y="35.70528" style="fill: #4c72b0; stroke: #4c72b0"/>
     <use xlink:href="#mdd92f5b5b4" x="160.359878" y="282.504236" style="fill: #4c72b0; stroke: #4c72b0"/>
     <use xlink:href="#mdd92f5b5b4" x="175.153393" y="37.101217" style="fill: #4c72b0; stroke: #4c72b0"/>
     <use xlink:href="#mdd92f5b5b4" x="189.946907" y="280.995418" style="fill: #4c72b0; stroke: #4c72b0"/>
     <use xlink:href="#mdd92f5b5b4" x="204.740421" y="51.614101" style="fill: #4c72b0; stroke: #4c72b0"/>
     <use xlink:href="#mdd92f5b5b4" x="219.533936" y="285.102353" style="fill: #4c72b0; stroke: #4c72b0"/>
     <use xlink:href="#mdd92f5b5b4" x="234.32745" y="50.749817" style="fill: #4c72b0; stroke: #4c72b0"/>
     <use xlink:href="#mdd92f5b5b4" x="249.120964" y="66.791785" style="fill: #4c72b0; stroke: #4c72b0"/>
     <use xlink:href="#mdd92f5b5b4" x="263.914479" y="261.048799" style="fill: #4c72b0; stroke: #4c72b0"/>
     <use xlink:href="#mdd92f5b5b4" x="278.707993" y="41.240041" style="fill: #4c72b0; stroke: #4c72b0"/>
     <use xlink:href="#mdd92f5b5b4" x="293.501507" y="260.031822" style="fill: #4c72b0; stroke: #4c72b0"/>
     <use xlink:href="#mdd92f5b5b4" x="308.295021" y="38.527925" style="fill: #4c72b0; stroke: #4c72b0"/>
     <use xlink:href="#mdd92f5b5b4" x="323.088536" y="205.635119" style="fill: #4c72b0; stroke: #4c72b0"/>
     <use xlink:href="#mdd92f5b5b4" x="337.88205" y="38.503295" style="fill: #4c72b0; stroke: #4c72b0"/>
     <use xlink:href="#mdd92f5b5b4" x="352.675564" y="251.27009" style="fill: #4c72b0; stroke: #4c72b0"/>
     <use xlink:href="#mdd92f5b5b4" x="367.469079" y="263.560124" style="fill: #4c72b0; stroke: #4c72b0"/>
     <use xlink:href="#mdd92f5b5b4" x="382.262593" y="37.832725" style="fill: #4c72b0; stroke: #4c72b0"/>
     <use xlink:href="#mdd92f5b5b4" x="397.056107" y="42.02231" style="fill: #4c72b0; stroke: #4c72b0"/>
     <use xlink:href="#mdd92f5b5b4" x="411.849622" y="77.173694" style="fill: #4c72b0; stroke: #4c72b0"/>
     <use xlink:href="#mdd92f5b5b4" x="426.643136" y="123.347007" style="fill: #4c72b0; stroke: #4c72b0"/>
     <use xlink:href="#mdd92f5b5b4" x="441.43665" y="244.580157" style="fill: #4c72b0; stroke: #4c72b0"/>
     <use xlink:href="#mdd92f5b5b4" x="456.230164" y="259.005315" style="fill: #4c72b0; stroke: #4c72b0"/>
     <use xlink:href="#mdd92f5b5b4" x="471.023679" y="35.570353" style="fill: #4c72b0; stroke: #4c72b0"/>
     <use xlink:href="#mdd92f5b5b4" x="485.817193" y="50.149434" style="fill: #4c72b0; stroke: #4c72b0"/>
     <use xlink:href="#mdd92f5b5b4" x="500.610707" y="121.133246" style="fill: #4c72b0; stroke: #4c72b0"/>
     <use xlink:href="#mdd92f5b5b4" x="515.404222" y="57.139056" style="fill: #4c72b0; stroke: #4c72b0"/>
     <use xlink:href="#mdd92f5b5b4" x="530.197736" y="199.330677" style="fill: #4c72b0; stroke: #4c72b0"/>
    </g>
   </g>
   <g id="line2d_13">
    <path d="M 71.598793 288.924545 
L 73.447982 288.924545 
L 74.372577 35.015455 
L 76.221766 35.015455 
L 77.14636 284.631667 
L 78.070955 288.344626 
L 78.99555 51.94741 
L 79.920144 95.257087 
L 80.844739 288.924545 
L 81.769334 35.015455 
L 82.693928 288.924545 
L 83.618523 288.924545 
L 84.543118 35.015455 
L 85.467712 35.018293 
L 86.392307 42.264 
L 87.316902 36.855615 
L 88.241496 287.612149 
L 89.166091 35.015455 
L 90.090685 35.015455 
L 91.01528 288.860425 
L 91.939875 35.015455 
L 92.864469 288.818198 
L 93.789064 286.262556 
L 94.713659 44.10196 
L 95.638253 36.86427 
L 96.562848 56.748447 
L 97.487443 37.545823 
L 98.412037 252.683623 
L 99.336632 116.97939 
L 100.261227 287.124974 
L 101.185821 76.568549 
L 102.110416 282.315964 
L 103.035011 288.92437 
L 103.959605 47.518728 
L 104.8842 266.196462 
L 105.808794 63.780752 
L 106.733389 249.002641 
L 107.657984 51.977942 
L 108.582578 263.903578 
L 109.507173 43.562957 
L 110.431768 62.021229 
L 111.356362 284.034026 
L 112.280957 93.604049 
L 113.205552 280.537763 
L 114.130146 48.619728 
L 115.054741 282.006087 
L 115.979336 280.186692 
L 116.90393 60.593048 
L 117.828525 279.264906 
L 118.753119 37.967167 
L 119.677714 288.266076 
L 120.602309 268.976591 
L 121.526903 62.683035 
L 122.451498 279.470152 
L 123.376093 35.170028 
L 124.300687 56.039216 
L 125.225282 282.025379 
L 126.149877 273.696696 
L 127.074471 275.28543 
L 127.999066 35.05537 
L 128.923661 37.965577 
L 129.848255 39.213956 
L 130.77285 43.497057 
L 131.697444 286.506472 
L 132.622039 287.673046 
L 133.546634 38.660063 
L 134.471228 285.949764 
L 135.395823 40.941773 
L 136.320418 44.437683 
L 137.245012 36.137783 
L 138.169607 282.913758 
L 139.094202 267.390734 
L 140.018796 282.982587 
L 140.943391 38.332541 
L 141.867986 288.337454 
L 142.79258 64.647321 
L 143.717175 49.667987 
L 144.641769 273.120846 
L 145.566364 38.326308 
L 146.490959 278.932961 
L 147.415553 35.017787 
L 148.340148 262.505465 
L 149.264743 71.348882 
L 150.189337 285.11593 
L 151.113932 40.418424 
L 152.038527 265.728586 
L 152.963121 40.297561 
L 153.887716 47.450916 
L 154.812311 38.946844 
L 155.736905 35.505131 
L 156.6615 287.715081 
L 157.586094 251.409739 
L 158.510689 44.98794 
L 159.435284 288.322615 
L 160.359878 252.686352 
L 161.284473 73.068857 
L 162.209068 255.827513 
L 163.133662 284.251589 
L 164.058257 44.467036 
L 164.982852 36.0818 
L 165.907446 46.913474 
L 166.832041 247.824461 
L 167.756636 263.486479 
L 168.68123 55.049551 
L 169.605825 276.716653 
L 170.53042 262.302875 
L 171.455014 278.054577 
L 172.379609 239.400947 
L 173.304203 43.191564 
L 174.228798 259.38769 
L 175.153393 275.748099 
L 176.077987 35.412599 
L 177.002582 59.609993 
L 177.927177 286.229014 
L 178.851771 40.818071 
L 179.776366 283.860995 
L 180.700961 278.163581 
L 181.625555 70.559526 
L 182.55015 282.704935 
L 183.474745 59.409392 
L 184.399339 71.894862 
L 185.323934 39.199796 
L 186.248528 288.351219 
L 187.173123 268.497114 
L 188.097718 40.402416 
L 189.022312 281.983138 
L 189.946907 284.847733 
L 190.871502 273.46662 
L 191.796096 80.502277 
L 192.720691 37.568247 
L 193.645286 248.862071 
L 194.56988 288.433005 
L 195.494475 288.924528 
L 196.41907 39.624927 
L 197.343664 35.224309 
L 198.268259 265.754977 
L 199.192853 269.125311 
L 200.117448 277.591908 
L 201.042043 44.824329 
L 201.966637 42.824185 
L 202.891232 241.34845 
L 203.815827 282.973207 
L 204.740421 282.635496 
L 205.665016 38.073388 
L 206.589611 36.594201 
L 207.514205 279.722772 
L 208.4388 51.563703 
L 209.363395 286.652256 
L 210.287989 280.420286 
L 211.212584 287.776938 
L 212.137178 288.529666 
L 213.061773 41.91905 
L 213.986368 225.148226 
L 214.910962 44.636206 
L 215.835557 189.910758 
L 216.760152 66.862376 
L 217.684746 59.137639 
L 218.609341 88.102545 
L 219.533936 276.923069 
L 220.45853 43.446933 
L 221.383125 284.276103 
L 222.30772 282.033516 
L 223.232314 36.68004 
L 224.156909 89.162057 
L 225.081503 40.265109 
L 226.006098 91.465833 
L 226.930693 282.255926 
L 227.855287 44.224541 
L 228.779882 260.214001 
L 229.704477 76.745499 
L 230.629071 50.610833 
L 231.553666 36.589066 
L 232.478261 58.037735 
L 233.402855 264.552635 
L 234.32745 252.082838 
L 235.252045 220.825278 
L 236.176639 86.774511 
L 237.101234 259.380717 
L 238.025829 280.538507 
L 238.950423 276.329998 
L 239.875018 275.189073 
L 240.799612 285.607494 
L 241.724207 51.32982 
L 242.648802 268.521103 
L 243.573396 287.230021 
L 244.497991 41.283825 
L 245.422586 241.449678 
L 246.34718 98.964544 
L 247.271775 39.294748 
L 248.19637 270.689164 
L 249.120964 41.459965 
L 250.045559 41.608961 
L 250.970154 273.687558 
L 251.894748 63.786891 
L 252.819343 286.958049 
L 253.743937 286.958544 
L 254.668532 35.153917 
L 255.593127 257.588865 
L 256.517721 52.657576 
L 257.442316 59.287809 
L 258.366911 264.300175 
L 259.291505 218.403855 
L 260.2161 276.618842 
L 261.140695 279.478382 
L 262.065289 46.105385 
L 262.989884 56.975543 
L 263.914479 46.369666 
L 264.839073 275.584375 
L 265.763668 251.156724 
L 266.688262 276.965221 
L 267.612857 285.485822 
L 268.537452 101.224871 
L 269.462046 45.53556 
L 270.386641 259.272631 
L 271.311236 103.940696 
L 272.23583 50.885308 
L 273.160425 45.886262 
L 274.08502 36.739781 
L 275.009614 59.18094 
L 275.934209 279.865739 
L 276.858804 255.720082 
L 277.783398 44.778501 
L 278.707993 271.38962 
L 279.632587 38.451548 
L 280.557182 288.736262 
L 281.481777 49.519732 
L 282.406371 68.279782 
L 283.330966 123.119266 
L 284.255561 43.224784 
L 285.180155 51.753789 
L 286.10475 263.171229 
L 287.029345 280.962736 
L 287.953939 287.591569 
L 288.878534 51.885179 
L 289.803129 60.481201 
L 290.727723 137.605239 
L 291.652318 287.024462 
L 292.576912 287.342078 
L 293.501507 266.360286 
L 294.426102 37.663611 
L 295.350696 35.050021 
L 296.275291 47.051472 
L 297.199886 256.603694 
L 298.12448 35.191843 
L 299.049075 258.554048 
L 299.97367 51.091399 
L 300.898264 286.000066 
L 301.822859 278.927199 
L 302.747454 158.82475 
L 303.672048 215.848474 
L 304.596643 110.990667 
L 305.521238 278.397464 
L 306.445832 250.347369 
L 307.370427 276.035469 
L 308.295021 109.047145 
L 309.219616 286.992385 
L 310.144211 245.594125 
L 311.068805 63.031179 
L 311.9934 69.521863 
L 312.917995 51.264304 
L 313.842589 39.658223 
L 314.767184 131.959259 
L 315.691779 97.793318 
L 316.616373 40.540635 
L 317.540968 274.716968 
L 318.465563 234.156704 
L 319.390157 266.82511 
L 320.314752 177.443236 
L 321.239346 288.498081 
L 322.163941 91.351685 
L 323.088536 286.939002 
L 324.01313 43.682034 
L 324.937725 101.582407 
L 325.86232 35.486912 
L 326.786914 285.991049 
L 327.711509 69.649654 
L 328.636104 257.269522 
L 329.560698 45.110926 
L 330.485293 72.901412 
L 331.409888 248.056218 
L 332.334482 86.047082 
L 333.259077 129.008781 
L 334.183671 287.397443 
L 335.108266 288.875707 
L 336.032861 35.068222 
L 336.957455 35.53185 
L 337.88205 43.44103 
L 338.806645 99.630871 
L 339.731239 270.791575 
L 340.655834 270.277807 
L 341.580429 261.416492 
L 342.505023 37.207389 
L 343.429618 277.623793 
L 344.354213 263.090173 
L 345.278807 83.993541 
L 346.203402 71.967798 
L 347.127996 97.777211 
L 348.052591 64.527557 
L 348.977186 286.060409 
L 349.90178 138.352739 
L 350.826375 42.305025 
L 351.75097 210.371596 
L 352.675564 276.168308 
L 353.600159 123.621024 
L 354.524754 38.683183 
L 355.449348 268.088545 
L 356.373943 265.676335 
L 357.298538 113.651801 
L 358.223132 55.617306 
L 359.147727 197.423155 
L 360.072321 266.578702 
L 360.996916 59.905755 
L 361.921511 89.641426 
L 362.846105 46.406424 
L 363.7707 95.97025 
L 364.695295 39.373275 
L 365.619889 230.221023 
L 366.544484 35.322905 
L 367.469079 46.111011 
L 368.393673 42.420041 
L 369.318268 59.332065 
L 370.242863 276.604706 
L 371.167457 112.03296 
L 372.092052 267.737265 
L 373.016647 45.909457 
L 373.941241 287.546059 
L 374.865836 285.588324 
L 375.79043 46.015161 
L 376.715025 272.380512 
L 377.63962 49.100229 
L 378.564214 52.067048 
L 379.488809 42.796508 
L 380.413404 246.710395 
L 381.337998 39.94188 
L 382.262593 45.284632 
L 383.187188 284.254388 
L 384.111782 91.788445 
L 385.036377 166.38437 
L 385.960972 253.78966 
L 386.885566 42.492003 
L 387.810161 73.809501 
L 388.734755 257.763204 
L 389.65935 35.669903 
L 390.583945 75.228851 
L 391.508539 42.424811 
L 392.433134 288.495103 
L 394.282323 142.516534 
L 395.206918 258.371314 
L 396.131513 278.071034 
L 397.056107 67.631542 
L 397.980702 283.678869 
L 398.905297 270.730071 
L 399.829891 182.243438 
L 400.754486 253.688524 
L 401.67908 56.900328 
L 402.603675 281.269837 
L 403.52827 288.26633 
L 404.452864 279.13866 
L 405.377459 220.406866 
L 406.302054 287.759353 
L 407.226648 105.526746 
L 408.151243 143.833738 
L 409.075838 262.962899 
L 410.000432 185.225717 
L 410.925027 253.520521 
L 411.849622 228.878788 
L 412.774216 288.82808 
L 413.698811 283.708564 
L 414.623405 287.058322 
L 415.548 284.374786 
L 416.472595 76.828502 
L 417.397189 88.374942 
L 418.321784 288.378947 
L 419.246379 212.131833 
L 420.170973 81.538423 
L 421.095568 279.566161 
L 422.944757 49.781385 
L 423.869352 283.29829 
L 424.793947 231.071397 
L 425.718541 265.661956 
L 426.643136 287.742203 
L 428.492325 78.899583 
L 429.41692 259.356943 
L 430.341514 42.449607 
L 431.266109 169.741332 
L 432.190704 57.022322 
L 433.115298 188.748115 
L 434.039893 54.08137 
L 434.964488 70.481697 
L 435.889082 259.42177 
L 436.813677 97.688943 
L 437.738272 37.19214 
L 438.662866 255.222344 
L 439.587461 211.096099 
L 440.512056 158.237626 
L 441.43665 282.770638 
L 442.361245 275.944677 
L 443.285839 46.656269 
L 444.210434 53.682281 
L 445.135029 288.924515 
L 446.059623 279.644317 
L 446.984218 221.660682 
L 447.908813 61.877889 
L 448.833407 145.018118 
L 449.758002 175.823694 
L 450.682597 53.235917 
L 451.607191 282.819427 
L 452.531786 62.980412 
L 453.456381 249.152604 
L 454.380975 288.341512 
L 455.30557 282.578935 
L 456.230164 252.973757 
L 457.154759 242.305982 
L 458.079354 35.477718 
L 459.003948 35.015455 
L 459.928543 121.920366 
L 460.853138 56.904855 
L 461.777732 57.151043 
L 462.702327 276.675978 
L 463.626922 36.341902 
L 464.551516 95.634369 
L 465.476111 40.656487 
L 466.400706 48.73876 
L 467.3253 35.791273 
L 468.249895 198.285678 
L 470.099084 262.331382 
L 471.023679 113.064647 
L 471.948273 267.819386 
L 472.872868 56.636971 
L 473.797463 66.524738 
L 474.722057 271.929011 
L 475.646652 273.371723 
L 476.571247 280.690698 
L 477.495841 263.938686 
L 478.420436 48.52063 
L 479.345031 280.633689 
L 480.269625 62.323857 
L 481.19422 35.903181 
L 482.118814 254.737729 
L 483.043409 281.196287 
L 483.968004 256.709678 
L 484.892598 286.365105 
L 485.817193 87.634076 
L 486.741788 72.550124 
L 487.666382 277.549729 
L 488.590977 37.683585 
L 489.515572 285.637918 
L 490.440166 265.324363 
L 491.364761 240.140159 
L 492.289356 81.129905 
L 493.21395 140.626114 
L 494.138545 35.582715 
L 495.063139 35.016292 
L 495.987734 177.123575 
L 496.912329 220.054253 
L 497.836923 107.146738 
L 498.761518 126.177167 
L 499.686113 234.905137 
L 500.610707 288.654292 
L 501.535302 178.380247 
L 502.459897 44.885673 
L 503.384491 241.443113 
L 504.309086 35.697781 
L 505.233681 251.330177 
L 506.158275 67.709559 
L 507.08287 284.12553 
L 508.007465 272.600233 
L 508.932059 119.231446 
L 509.856654 76.07191 
L 510.781248 215.801657 
L 511.705843 214.026527 
L 512.630438 272.536137 
L 513.555032 284.818103 
L 514.479627 97.785014 
L 515.404222 76.365232 
L 516.328816 154.93139 
L 517.253411 281.932625 
L 518.178006 43.477162 
L 519.1026 128.523203 
L 520.027195 56.285871 
L 520.95179 106.678985 
L 521.876384 210.144916 
L 522.800979 36.096876 
L 523.725573 135.466054 
L 524.650168 247.735563 
L 525.574763 263.296905 
L 526.499357 272.17192 
L 527.423952 35.09629 
L 528.348547 50.889059 
L 529.273141 288.771436 
L 530.197736 287.514685 
L 531.122331 264.322383 
L 532.046925 267.6547 
L 532.97152 79.364255 
L 532.97152 79.364255 
" clip-path="url(#pd3569c670f)" style="fill: none; stroke: #dd8452; stroke-width: 1.5; stroke-linecap: round"/>
    <defs>
     <path id="m4824a03134" d="M -3 3 
L 3 3 
L 3 -3 
L -3 -3 
z
" style="stroke: #dd8452; stroke-linejoin: miter"/>
    </defs>
    <g clip-path="url(#pd3569c670f)">
     <use xlink:href="#m4824a03134" x="71.598793" y="288.924545" style="fill: #dd8452; stroke: #dd8452; stroke-linejoin: miter"/>
     <use xlink:href="#m4824a03134" x="86.392307" y="42.264" style="fill: #dd8452; stroke: #dd8452; stroke-linejoin: miter"/>
     <use xlink:href="#m4824a03134" x="101.185821" y="76.568549" style="fill: #dd8452; stroke: #dd8452; stroke-linejoin: miter"/>
     <use xlink:href="#m4824a03134" x="115.979336" y="280.186692" style="fill: #dd8452; stroke: #dd8452; stroke-linejoin: miter"/>
     <use xlink:href="#m4824a03134" x="130.77285" y="43.497057" style="fill: #dd8452; stroke: #dd8452; stroke-linejoin: miter"/>
     <use xlink:href="#m4824a03134" x="145.566364" y="38.326308" style="fill: #dd8452; stroke: #dd8452; stroke-linejoin: miter"/>
     <use xlink:href="#m4824a03134" x="160.359878" y="252.686352" style="fill: #dd8452; stroke: #dd8452; stroke-linejoin: miter"/>
     <use xlink:href="#m4824a03134" x="175.153393" y="275.748099" style="fill: #dd8452; stroke: #dd8452; stroke-linejoin: miter"/>
     <use xlink:href="#m4824a03134" x="189.946907" y="284.847733" style="fill: #dd8452; stroke: #dd8452; stroke-linejoin: miter"/>
     <use xlink:href="#m4824a03134" x="204.740421" y="282.635496" style="fill: #dd8452; stroke: #dd8452; stroke-linejoin: miter"/>
     <use xlink:href="#m4824a03134" x="219.533936" y="276.923069" style="fill: #dd8452; stroke: #dd8452; stroke-linejoin: miter"/>
     <use xlink:href="#m4824a03134" x="234.32745" y="252.082838" style="fill: #dd8452; stroke: #dd8452; stroke-linejoin: miter"/>
     <use xlink:href="#m4824a03134" x="249.120964" y="41.459965" style="fill: #dd8452; stroke: #dd8452; stroke-linejoin: miter"/>
     <use xlink:href="#m4824a03134" x="263.914479" y="46.369666" style="fill: #dd8452; stroke: #dd8452; stroke-linejoin: miter"/>
     <use xlink:href="#m4824a03134" x="278.707993" y="271.38962" style="fill: #dd8452; stroke: #dd8452; stroke-linejoin: miter"/>
     <use xlink:href="#m4824a03134" x="293.501507" y="266.360286" style="fill: #dd8452; stroke: #dd8452; stroke-linejoin: miter"/>
     <use xlink:href="#m4824a03134" x="308.295021" y="109.047145" style="fill: #dd8452; stroke: #dd8452; stroke-linejoin: miter"/>
     <use xlink:href="#m4824a03134" x="323.088536" y="286.939002" style="fill: #dd8452; stroke: #dd8452; stroke-linejoin: miter"/>
     <use xlink:href="#m4824a03134" x="337.88205" y="43.44103" style="fill: #dd8452; stroke: #dd8452; stroke-linejoin: miter"/>
     <use xlink:href="#m4824a03134" x="352.675564" y="276.168308" style="fill: #dd8452; stroke: #dd8452; stroke-linejoin: miter"/>
     <use xlink:href="#m4824a03134" x="367.469079" y="46.111011" style="fill: #dd8452; stroke: #dd8452; stroke-linejoin: miter"/>
     <use xlink:href="#m4824a03134" x="382.262593" y="45.284632" style="fill: #dd8452; stroke: #dd8452; stroke-linejoin: miter"/>
     <use xlink:href="#m4824a03134" x="397.056107" y="67.631542" style="fill: #dd8452; stroke: #dd8452; stroke-linejoin: miter"/>
     <use xlink:href="#m4824a03134" x="411.849622" y="228.878788" style="fill: #dd8452; stroke: #dd8452; stroke-linejoin: miter"/>
     <use xlink:href="#m4824a03134" x="426.643136" y="287.742203" style="fill: #dd8452; stroke: #dd8452; stroke-linejoin: miter"/>
     <use xlink:href="#m4824a03134" x="441.43665" y="282.770638" style="fill: #dd8452; stroke: #dd8452; stroke-linejoin: miter"/>
     <use xlink:href="#m4824a03134" x="456.230164" y="252.973757" style="fill: #dd8452; stroke: #dd8452; stroke-linejoin: miter"/>
     <use xlink:href="#m4824a03134" x="471.023679" y="113.064647" style="fill: #dd8452; stroke: #dd8452; stroke-linejoin: miter"/>
     <use xlink:href="#m4824a03134" x="485.817193" y="87.634076" style="fill: #dd8452; stroke: #dd8452; stroke-linejoin: miter"/>
     <use xlink:href="#m4824a03134" x="500.610707" y="288.654292" style="fill: #dd8452; stroke: #dd8452; stroke-linejoin: miter"/>
     <use xlink:href="#m4824a03134" x="515.404222" y="76.365232" style="fill: #dd8452; stroke: #dd8452; stroke-linejoin: miter"/>
     <use xlink:href="#m4824a03134" x="530.197736" y="287.514685" style="fill: #dd8452; stroke: #dd8452; stroke-linejoin: miter"/>
    </g>
   </g>
   <g id="line2d_14">
    <path d="M 71.598793 162.707673 
L 72.523387 161.970392 
L 73.447982 161.970852 
L 74.372577 162.583735 
L 75.297171 288.924545 
L 78.070955 288.924545 
L 78.99555 35.015455 
L 80.844739 35.017051 
L 81.769334 282.956258 
L 83.618523 264.220402 
L 84.543118 288.923179 
L 85.467712 288.924545 
L 86.392307 35.015455 
L 87.316902 288.924545 
L 88.241496 288.924545 
L 89.166091 60.387066 
L 90.090685 35.180631 
L 91.01528 288.924545 
L 91.939875 35.060517 
L 94.713659 35.015455 
L 96.562848 35.015455 
L 97.487443 288.294342 
L 98.412037 40.160796 
L 99.336632 288.924545 
L 100.261227 275.610962 
L 101.185821 288.924545 
L 102.110416 268.637916 
L 103.035011 161.967479 
L 103.959605 234.10085 
L 104.8842 277.457244 
L 105.808794 282.349177 
L 106.733389 278.964027 
L 107.657984 69.159428 
L 108.582578 252.314972 
L 109.507173 275.30457 
L 110.431768 272.842379 
L 111.356362 102.51174 
L 112.280957 244.466063 
L 113.205552 247.151805 
L 114.130146 77.71594 
L 115.054741 190.857973 
L 115.979336 243.657299 
L 116.90393 81.892568 
L 117.828525 275.197327 
L 118.753119 106.849504 
L 119.677714 74.913804 
L 120.602309 214.835692 
L 121.526903 265.858811 
L 122.451498 278.528868 
L 123.376093 211.745572 
L 124.300687 161.970011 
L 125.225282 239.024889 
L 126.149877 187.158411 
L 127.074471 267.550607 
L 127.999066 110.161517 
L 128.923661 185.775658 
L 129.848255 240.570696 
L 130.77285 240.184385 
L 131.697444 210.23313 
L 132.622039 114.52623 
L 133.546634 183.875375 
L 134.471228 207.849732 
L 135.395823 183.181732 
L 136.320418 138.39079 
L 137.245012 161.969791 
L 138.169607 238.210836 
L 139.094202 139.414073 
L 140.018796 114.974934 
L 140.943391 115.48071 
L 141.867986 208.085032 
L 142.79258 183.701987 
L 143.717175 207.685462 
L 144.641769 116.439343 
L 145.566364 82.520463 
L 146.490959 112.085314 
L 147.415553 161.97001 
L 148.340148 118.145163 
L 149.264743 205.232435 
L 150.189337 161.969894 
L 151.113932 88.103121 
L 152.038527 208.187026 
L 152.963121 207.562078 
L 153.887716 185.587122 
L 154.812311 117.588711 
L 155.736905 161.969985 
L 156.6615 184.664374 
L 157.586094 119.3085 
L 158.510689 208.301275 
L 159.435284 140.137133 
L 160.359878 161.969977 
L 161.284473 202.521065 
L 162.209068 161.969983 
L 163.133662 141.203038 
L 164.058257 139.515799 
L 164.982852 139.78372 
L 165.907446 161.969999 
L 166.832041 203.454702 
L 167.756636 181.597596 
L 168.68123 202.646325 
L 169.605825 117.99328 
L 170.53042 140.969418 
L 171.455014 141.045532 
L 172.379609 161.952793 
L 173.304203 209.060399 
L 174.228798 182.747284 
L 175.153393 115.133067 
L 176.077987 186.132665 
L 177.002582 184.167205 
L 177.927177 116.162113 
L 178.851771 141.925547 
L 179.776366 183.55551 
L 180.700961 183.335806 
L 181.625555 181.415219 
L 182.55015 184.576128 
L 183.474745 141.261749 
L 184.399339 204.603346 
L 185.323934 182.264934 
L 186.248528 182.043847 
L 187.173123 120.641062 
L 188.097718 161.970007 
L 189.022312 140.944738 
L 189.946907 184.322529 
L 190.871502 141.363836 
L 192.720691 183.665055 
L 193.645286 181.982807 
L 194.56988 161.969948 
L 195.494475 162.176329 
L 196.41907 139.602247 
L 197.343664 179.908527 
L 198.268259 142.723223 
L 199.192853 141.399694 
L 200.117448 183.889479 
L 201.042043 181.044218 
L 201.966637 160.201657 
L 202.891232 161.291907 
L 203.815827 140.165678 
L 204.740421 183.662058 
L 205.665016 141.744375 
L 206.589611 161.969956 
L 207.514205 184.700488 
L 208.4388 143.528199 
L 210.287989 143.825895 
L 211.212584 141.304377 
L 212.137178 141.481245 
L 213.061773 183.595108 
L 213.986368 161.970005 
L 214.910962 161.970008 
L 215.835557 144.737793 
L 216.760152 142.345787 
L 217.684746 161.970017 
L 218.609341 161.970025 
L 219.533936 117.548022 
L 220.45853 161.970044 
L 221.383125 161.969986 
L 222.30772 184.241516 
L 223.232314 161.97013 
L 224.156909 143.578618 
L 225.081503 161.969486 
L 226.006098 161.969852 
L 226.930693 140.420754 
L 227.855287 162.961154 
L 228.779882 182.231766 
L 229.704477 181.051393 
L 230.629071 183.345706 
L 231.553666 161.96994 
L 232.478261 161.970267 
L 233.402855 140.666216 
L 234.32745 143.034246 
L 235.252045 161.969999 
L 236.176639 161.970009 
L 237.101234 200.404226 
L 238.025829 140.066532 
L 238.950423 161.96957 
L 247.271775 161.970022 
L 248.19637 140.726629 
L 250.045559 183.930251 
L 250.970154 181.752352 
L 251.894748 161.9702 
L 252.819343 206.008253 
L 254.668532 161.97052 
L 255.593127 161.970107 
L 256.517721 178.192164 
L 257.442316 161.969753 
L 261.140695 161.970315 
L 262.065289 139.997743 
L 262.989884 182.922428 
L 263.914479 142.053575 
L 264.839073 141.161934 
L 265.763668 161.970889 
L 268.537452 161.970046 
L 269.462046 140.792607 
L 270.386641 161.970037 
L 271.311236 179.156627 
L 273.160425 145.923352 
L 274.08502 180.646327 
L 275.009614 161.970003 
L 276.858804 161.970054 
L 277.783398 140.223819 
L 278.707993 182.697853 
L 279.632587 139.617913 
L 280.557182 142.361788 
L 281.481777 181.468263 
L 282.406371 143.433798 
L 283.330966 146.088557 
L 284.255561 141.035864 
L 285.180155 180.289004 
L 286.10475 161.970186 
L 287.029345 161.969982 
L 287.953939 144.57758 
L 288.878534 161.969964 
L 289.803129 147.132064 
L 290.727723 161.969859 
L 291.652318 184.39834 
L 292.576912 139.588327 
L 293.501507 161.969437 
L 295.350696 161.969905 
L 296.275291 182.33833 
L 297.199886 181.405793 
L 298.12448 161.969933 
L 299.049075 161.970036 
L 299.97367 183.524602 
L 300.898264 141.349642 
L 301.822859 184.077764 
L 302.747454 178.352252 
L 303.672048 161.970011 
L 309.219616 161.97011 
L 310.144211 161.709044 
L 311.068805 180.599956 
L 311.9934 161.458871 
L 312.917995 161.970076 
L 313.842589 182.651122 
L 314.767184 161.969923 
L 319.390157 161.970079 
L 320.314752 178.043276 
L 321.239346 161.969877 
L 325.86232 161.96991 
L 326.786914 179.866521 
L 327.711509 161.970086 
L 331.409888 161.970002 
L 332.334482 143.915081 
L 333.259077 161.969978 
L 336.957455 161.969976 
L 337.88205 140.350407 
L 338.806645 161.969911 
L 343.429618 161.933558 
L 344.354213 142.181275 
L 345.278807 161.969974 
L 346.203402 162.611127 
L 347.127996 161.969965 
L 349.90178 161.969876 
L 350.826375 139.596439 
L 351.75097 161.97019 
L 353.600159 161.970201 
L 354.524754 140.529602 
L 355.449348 143.247966 
L 356.373943 161.861099 
L 357.298538 161.969984 
L 358.223132 144.15063 
L 359.147727 161.970039 
L 360.072321 161.973142 
L 360.996916 123.653331 
L 361.921511 161.969996 
L 364.695295 161.970001 
L 366.544484 161.96999 
L 367.469079 181.434639 
L 368.393673 183.816273 
L 369.318268 181.896987 
L 370.242863 161.970067 
L 371.167457 161.987779 
L 372.092052 162.303017 
L 373.016647 161.96993 
L 373.941241 182.898507 
L 374.865836 161.969912 
L 376.715025 161.970125 
L 377.63962 140.45243 
L 378.564214 161.970225 
L 379.488809 161.970068 
L 380.413404 162.093239 
L 381.337998 161.969789 
L 382.262593 140.036518 
L 383.187188 161.969934 
L 387.810161 161.970017 
L 388.734755 142.98176 
L 389.65935 161.969994 
L 390.583945 143.731775 
L 391.508539 180.125923 
L 392.433134 142.747987 
L 393.357729 161.970002 
L 394.282323 161.96995 
L 395.206918 182.076264 
L 396.131513 161.969983 
L 398.905297 161.970036 
L 399.829891 177.839376 
L 400.754486 161.969801 
L 401.67908 161.969991 
L 402.603675 140.083899 
L 403.52827 161.969929 
L 405.377459 161.969979 
L 406.302054 141.209397 
L 407.226648 161.970042 
L 409.075838 161.970208 
L 410.000432 177.125888 
L 411.849622 147.989502 
L 412.774216 161.969959 
L 417.397189 161.970011 
L 418.321784 184.665117 
L 419.246379 144.687915 
L 420.170973 144.231378 
L 421.095568 161.97002 
L 424.793947 161.96995 
L 425.718541 145.681105 
L 426.643136 161.978415 
L 428.492325 161.970091 
L 429.41692 179.613228 
L 430.341514 161.969529 
L 436.813677 161.970195 
L 437.738272 181.041109 
L 439.587461 144.484951 
L 440.512056 146.044026 
L 441.43665 161.969971 
L 449.758002 161.969991 
L 450.682597 161.854075 
L 451.607191 161.969926 
L 458.079354 161.969649 
L 459.003948 161.576874 
L 459.928543 161.970281 
L 460.853138 161.858839 
L 462.702327 161.969933 
L 464.551516 161.969908 
L 465.476111 140.041152 
L 466.400706 161.969855 
L 478.420436 161.970029 
L 479.345031 181.638921 
L 480.269625 161.970355 
L 486.741788 161.956618 
L 487.666382 142.806514 
L 488.590977 182.86873 
L 489.515572 161.970053 
L 494.138545 161.970105 
L 495.063139 142.434568 
L 495.987734 161.969735 
L 519.1026 161.970269 
L 520.027195 141.212037 
L 520.95179 144.501238 
L 521.876384 161.969987 
L 522.800979 143.270549 
L 523.725573 161.970255 
L 532.97152 161.969921 
L 532.97152 161.969921 
" clip-path="url(#pd3569c670f)" style="fill: none; stroke: #55a868; stroke-width: 1.5; stroke-linecap: round"/>
    <defs>
     <path id="m17c0565442" d="M 0 -3 
L -3 3 
L 3 3 
z
" style="stroke: #55a868; stroke-linejoin: miter"/>
    </defs>
    <g clip-path="url(#pd3569c670f)">
     <use xlink:href="#m17c0565442" x="71.598793" y="162.707673" style="fill: #55a868; stroke: #55a868; stroke-linejoin: miter"/>
     <use xlink:href="#m17c0565442" x="86.392307" y="35.015455" style="fill: #55a868; stroke: #55a868; stroke-linejoin: miter"/>
     <use xlink:href="#m17c0565442" x="101.185821" y="288.924545" style="fill: #55a868; stroke: #55a868; stroke-linejoin: miter"/>
     <use xlink:href="#m17c0565442" x="115.979336" y="243.657299" style="fill: #55a868; stroke: #55a868; stroke-linejoin: miter"/>
     <use xlink:href="#m17c0565442" x="130.77285" y="240.184385" style="fill: #55a868; stroke: #55a868; stroke-linejoin: miter"/>
     <use xlink:href="#m17c0565442" x="145.566364" y="82.520463" style="fill: #55a868; stroke: #55a868; stroke-linejoin: miter"/>
     <use xlink:href="#m17c0565442" x="160.359878" y="161.969977" style="fill: #55a868; stroke: #55a868; stroke-linejoin: miter"/>
     <use xlink:href="#m17c0565442" x="175.153393" y="115.133067" style="fill: #55a868; stroke: #55a868; stroke-linejoin: miter"/>
     <use xlink:href="#m17c0565442" x="189.946907" y="184.322529" style="fill: #55a868; stroke: #55a868; stroke-linejoin: miter"/>
     <use xlink:href="#m17c0565442" x="204.740421" y="183.662058" style="fill: #55a868; stroke: #55a868; stroke-linejoin: miter"/>
     <use xlink:href="#m17c0565442" x="219.533936" y="117.548022" style="fill: #55a868; stroke: #55a868; stroke-linejoin: miter"/>
     <use xlink:href="#m17c0565442" x="234.32745" y="143.034246" style="fill: #55a868; stroke: #55a868; stroke-linejoin: miter"/>
     <use xlink:href="#m17c0565442" x="249.120964" y="161.97006" style="fill: #55a868; stroke: #55a868; stroke-linejoin: miter"/>
     <use xlink:href="#m17c0565442" x="263.914479" y="142.053575" style="fill: #55a868; stroke: #55a868; stroke-linejoin: miter"/>
     <use xlink:href="#m17c0565442" x="278.707993" y="182.697853" style="fill: #55a868; stroke: #55a868; stroke-linejoin: miter"/>
     <use xlink:href="#m17c0565442" x="293.501507" y="161.969437" style="fill: #55a868; stroke: #55a868; stroke-linejoin: miter"/>
     <use xlink:href="#m17c0565442" x="308.295021" y="161.969977" style="fill: #55a868; stroke: #55a868; stroke-linejoin: miter"/>
     <use xlink:href="#m17c0565442" x="323.088536" y="161.996323" style="fill: #55a868; stroke: #55a868; stroke-linejoin: miter"/>
     <use xlink:href="#m17c0565442" x="337.88205" y="140.350407" style="fill: #55a868; stroke: #55a868; stroke-linejoin: miter"/>
     <use xlink:href="#m17c0565442" x="352.675564" y="161.969932" style="fill: #55a868; stroke: #55a868; stroke-linejoin: miter"/>
     <use xlink:href="#m17c0565442" x="367.469079" y="181.434639" style="fill: #55a868; stroke: #55a868; stroke-linejoin: miter"/>
     <use xlink:href="#m17c0565442" x="382.262593" y="140.036518" style="fill: #55a868; stroke: #55a868; stroke-linejoin: miter"/>
     <use xlink:href="#m17c0565442" x="397.056107" y="161.97024" style="fill: #55a868; stroke: #55a868; stroke-linejoin: miter"/>
     <use xlink:href="#m17c0565442" x="411.849622" y="147.989502" style="fill: #55a868; stroke: #55a868; stroke-linejoin: miter"/>
     <use xlink:href="#m17c0565442" x="426.643136" y="161.978415" style="fill: #55a868; stroke: #55a868; stroke-linejoin: miter"/>
     <use xlink:href="#m17c0565442" x="441.43665" y="161.969971" style="fill: #55a868; stroke: #55a868; stroke-linejoin: miter"/>
     <use xlink:href="#m17c0565442" x="456.230164" y="161.969875" style="fill: #55a868; stroke: #55a868; stroke-linejoin: miter"/>
     <use xlink:href="#m17c0565442" x="471.023679" y="161.969931" style="fill: #55a868; stroke: #55a868; stroke-linejoin: miter"/>
     <use xlink:href="#m17c0565442" x="485.817193" y="161.970088" style="fill: #55a868; stroke: #55a868; stroke-linejoin: miter"/>
     <use xlink:href="#m17c0565442" x="500.610707" y="161.969604" style="fill: #55a868; stroke: #55a868; stroke-linejoin: miter"/>
     <use xlink:href="#m17c0565442" x="515.404222" y="161.970032" style="fill: #55a868; stroke: #55a868; stroke-linejoin: miter"/>
     <use xlink:href="#m17c0565442" x="530.197736" y="161.970045" style="fill: #55a868; stroke: #55a868; stroke-linejoin: miter"/>
    </g>
   </g>
   <g id="line2d_15">
    <path d="M 71.598793 145.969625 
L 73.447982 145.67019 
L 74.372577 145.387094 
L 75.297171 132.452757 
L 76.221766 133.135914 
L 77.14636 134.791632 
L 78.070955 126.493945 
L 78.99555 129.114593 
L 79.920144 125.870442 
L 80.844739 92.409738 
L 81.769334 95.013524 
L 83.618523 102.127698 
L 84.543118 88.649636 
L 85.467712 92.060213 
L 86.392307 94.168266 
L 87.316902 94.311952 
L 88.241496 95.675687 
L 89.166091 60.4075 
L 90.090685 46.613816 
L 91.939875 53.561183 
L 92.864469 54.148982 
L 93.789064 55.610793 
L 94.713659 58.219835 
L 97.487443 67.69381 
L 98.412037 67.691932 
L 99.336632 38.808267 
L 100.261227 67.640926 
L 101.185821 44.234061 
L 102.110416 51.00692 
L 103.035011 63.860751 
L 103.959605 64.809469 
L 104.8842 53.896821 
L 105.808794 51.779643 
L 106.733389 51.534215 
L 107.657984 50.227504 
L 108.582578 49.97697 
L 109.507173 35.015455 
L 110.431768 35.015455 
L 111.356362 46.19502 
L 112.280957 48.353319 
L 113.205552 35.015455 
L 114.130146 35.015455 
L 115.054741 40.820166 
L 115.979336 35.015455 
L 359.147727 35.015455 
L 360.072321 35.328406 
L 360.996916 35.015455 
L 532.97152 35.015455 
L 532.97152 35.015455 
" clip-path="url(#pd3569c670f)" style="fill: none; stroke: #c44e52; stroke-width: 1.5; stroke-linecap: round"/>
    <defs>
     <path id="m11df3f7877" d="M -0 4.242641 
L 4.242641 0 
L 0 -4.242641 
L -4.242641 -0 
z
" style="stroke: #c44e52; stroke-linejoin: miter"/>
    </defs>
    <g clip-path="url(#pd3569c670f)">
     <use xlink:href="#m11df3f7877" x="71.598793" y="145.969625" style="fill: #c44e52; stroke: #c44e52; stroke-linejoin: miter"/>
     <use xlink:href="#m11df3f7877" x="86.392307" y="94.168266" style="fill: #c44e52; stroke: #c44e52; stroke-linejoin: miter"/>
     <use xlink:href="#m11df3f7877" x="101.185821" y="44.234061" style="fill: #c44e52; stroke: #c44e52; stroke-linejoin: miter"/>
     <use xlink:href="#m11df3f7877" x="115.979336" y="35.015455" style="fill: #c44e52; stroke: #c44e52; stroke-linejoin: miter"/>
     <use xlink:href="#m11df3f7877" x="130.77285" y="35.015455" style="fill: #c44e52; stroke: #c44e52; stroke-linejoin: miter"/>
     <use xlink:href="#m11df3f7877" x="145.566364" y="35.015455" style="fill: #c44e52; stroke: #c44e52; stroke-linejoin: miter"/>
     <use xlink:href="#m11df3f7877" x="160.359878" y="35.015455" style="fill: #c44e52; stroke: #c44e52; stroke-linejoin: miter"/>
     <use xlink:href="#m11df3f7877" x="175.153393" y="35.015455" style="fill: #c44e52; stroke: #c44e52; stroke-linejoin: miter"/>
     <use xlink:href="#m11df3f7877" x="189.946907" y="35.015455" style="fill: #c44e52; stroke: #c44e52; stroke-linejoin: miter"/>
     <use xlink:href="#m11df3f7877" x="204.740421" y="35.015455" style="fill: #c44e52; stroke: #c44e52; stroke-linejoin: miter"/>
     <use xlink:href="#m11df3f7877" x="219.533936" y="35.015455" style="fill: #c44e52; stroke: #c44e52; stroke-linejoin: miter"/>
     <use xlink:href="#m11df3f7877" x="234.32745" y="35.015455" style="fill: #c44e52; stroke: #c44e52; stroke-linejoin: miter"/>
     <use xlink:href="#m11df3f7877" x="249.120964" y="35.015455" style="fill: #c44e52; stroke: #c44e52; stroke-linejoin: miter"/>
     <use xlink:href="#m11df3f7877" x="263.914479" y="35.015455" style="fill: #c44e52; stroke: #c44e52; stroke-linejoin: miter"/>
     <use xlink:href="#m11df3f7877" x="278.707993" y="35.015455" style="fill: #c44e52; stroke: #c44e52; stroke-linejoin: miter"/>
     <use xlink:href="#m11df3f7877" x="293.501507" y="35.015455" style="fill: #c44e52; stroke: #c44e52; stroke-linejoin: miter"/>
     <use xlink:href="#m11df3f7877" x="308.295021" y="35.015455" style="fill: #c44e52; stroke: #c44e52; stroke-linejoin: miter"/>
     <use xlink:href="#m11df3f7877" x="323.088536" y="35.015455" style="fill: #c44e52; stroke: #c44e52; stroke-linejoin: miter"/>
     <use xlink:href="#m11df3f7877" x="337.88205" y="35.015455" style="fill: #c44e52; stroke: #c44e52; stroke-linejoin: miter"/>
     <use xlink:href="#m11df3f7877" x="352.675564" y="35.015455" style="fill: #c44e52; stroke: #c44e52; stroke-linejoin: miter"/>
     <use xlink:href="#m11df3f7877" x="367.469079" y="35.015455" style="fill: #c44e52; stroke: #c44e52; stroke-linejoin: miter"/>
     <use xlink:href="#m11df3f7877" x="382.262593" y="35.015455" style="fill: #c44e52; stroke: #c44e52; stroke-linejoin: miter"/>
     <use xlink:href="#m11df3f7877" x="397.056107" y="35.015455" style="fill: #c44e52; stroke: #c44e52; stroke-linejoin: miter"/>
     <use xlink:href="#m11df3f7877" x="411.849622" y="35.015455" style="fill: #c44e52; stroke: #c44e52; stroke-linejoin: miter"/>
     <use xlink:href="#m11df3f7877" x="426.643136" y="35.015455" style="fill: #c44e52; stroke: #c44e52; stroke-linejoin: miter"/>
     <use xlink:href="#m11df3f7877" x="441.43665" y="35.015455" style="fill: #c44e52; stroke: #c44e52; stroke-linejoin: miter"/>
     <use xlink:href="#m11df3f7877" x="456.230164" y="35.015455" style="fill: #c44e52; stroke: #c44e52; stroke-linejoin: miter"/>
     <use xlink:href="#m11df3f7877" x="471.023679" y="35.015455" style="fill: #c44e52; stroke: #c44e52; stroke-linejoin: miter"/>
     <use xlink:href="#m11df3f7877" x="485.817193" y="35.015455" style="fill: #c44e52; stroke: #c44e52; stroke-linejoin: miter"/>
     <use xlink:href="#m11df3f7877" x="500.610707" y="35.015455" style="fill: #c44e52; stroke: #c44e52; stroke-linejoin: miter"/>
     <use xlink:href="#m11df3f7877" x="515.404222" y="35.015455" style="fill: #c44e52; stroke: #c44e52; stroke-linejoin: miter"/>
     <use xlink:href="#m11df3f7877" x="530.197736" y="35.015455" style="fill: #c44e52; stroke: #c44e52; stroke-linejoin: miter"/>
    </g>
   </g>
   <g id="patch_3">
    <path d="M 48.530156 301.62 
L 48.530156 22.32 
" style="fill: none; stroke: #cccccc; stroke-width: 1.25; stroke-linejoin: miter; stroke-linecap: square"/>
   </g>
   <g id="patch_4">
    <path d="M 556.040156 301.62 
L 556.040156 22.32 
" style="fill: none; stroke: #cccccc; stroke-width: 1.25; stroke-linejoin: miter; stroke-linecap: square"/>
   </g>
   <g id="patch_5">
    <path d="M 48.530156 301.62 
L 556.040156 301.62 
" style="fill: none; stroke: #cccccc; stroke-width: 1.25; stroke-linejoin: miter; stroke-linecap: square"/>
   </g>
   <g id="patch_6">
    <path d="M 48.530156 22.32 
L 556.040156 22.32 
" style="fill: none; stroke: #cccccc; stroke-width: 1.25; stroke-linejoin: miter; stroke-linecap: square"/>
   </g>
   <g id="text_14">
    <!-- Optimal drive and interaction parameters vs $\omega$ -->
    <g style="fill: #262626" transform="translate(161.645156 16.32) scale(0.12 -0.12)">
     <defs>
      <path id="DejaVuSans-64" d="M 2906 2969 
L 2906 4863 
L 3481 4863 
L 3481 0 
L 2906 0 
L 2906 525 
Q 2725 213 2448 61 
Q 2172 -91 1784 -91 
Q 1150 -91 751 415 
Q 353 922 353 1747 
Q 353 2572 751 3078 
Q 1150 3584 1784 3584 
Q 2172 3584 2448 3432 
Q 2725 3281 2906 2969 
z
M 947 1747 
Q 947 1113 1208 752 
Q 1469 391 1925 391 
Q 2381 391 2643 752 
Q 2906 1113 2906 1747 
Q 2906 2381 2643 2742 
Q 2381 3103 1925 3103 
Q 1469 3103 1208 2742 
Q 947 2381 947 1747 
z
" transform="scale(0.015625)"/>
      <path id="DejaVuSans-6e" d="M 3513 2113 
L 3513 0 
L 2938 0 
L 2938 2094 
Q 2938 2591 2744 2837 
Q 2550 3084 2163 3084 
Q 1697 3084 1428 2787 
Q 1159 2491 1159 1978 
L 1159 0 
L 581 0 
L 581 3500 
L 1159 3500 
L 1159 2956 
Q 1366 3272 1645 3428 
Q 1925 3584 2291 3584 
Q 2894 3584 3203 3211 
Q 3513 2838 3513 2113 
z
" transform="scale(0.015625)"/>
      <path id="DejaVuSans-63" d="M 3122 3366 
L 3122 2828 
Q 2878 2963 2633 3030 
Q 2388 3097 2138 3097 
Q 1578 3097 1268 2742 
Q 959 2388 959 1747 
Q 959 1106 1268 751 
Q 1578 397 2138 397 
Q 2388 397 2633 464 
Q 2878 531 3122 666 
L 3122 134 
Q 2881 22 2623 -34 
Q 2366 -91 2075 -91 
Q 1284 -91 818 406 
Q 353 903 353 1747 
Q 353 2603 823 3093 
Q 1294 3584 2113 3584 
Q 2378 3584 2631 3529 
Q 2884 3475 3122 3366 
z
" transform="scale(0.015625)"/>
      <path id="DejaVuSans-6f" d="M 1959 3097 
Q 1497 3097 1228 2736 
Q 959 2375 959 1747 
Q 959 1119 1226 758 
Q 1494 397 1959 397 
Q 2419 397 2687 759 
Q 2956 1122 2956 1747 
Q 2956 2369 2687 2733 
Q 2419 3097 1959 3097 
z
M 1959 3584 
Q 2709 3584 3137 3096 
Q 3566 2609 3566 1747 
Q 3566 888 3137 398 
Q 2709 -91 1959 -91 
Q 1206 -91 779 398 
Q 353 888 353 1747 
Q 353 2609 779 3096 
Q 1206 3584 1959 3584 
z
" transform="scale(0.015625)"/>
      <path id="DejaVuSans-73" d="M 2834 3397 
L 2834 2853 
Q 2591 2978 2328 3040 
Q 2066 3103 1784 3103 
Q 1356 3103 1142 2972 
Q 928 2841 928 2578 
Q 928 2378 1081 2264 
Q 1234 2150 1697 2047 
L 1894 2003 
Q 2506 1872 2764 1633 
Q 3022 1394 3022 966 
Q 3022 478 2636 193 
Q 2250 -91 1575 -91 
Q 1294 -91 989 -36 
Q 684 19 347 128 
L 347 722 
Q 666 556 975 473 
Q 1284 391 1588 391 
Q 1994 391 2212 530 
Q 2431 669 2431 922 
Q 2431 1156 2273 1281 
Q 2116 1406 1581 1522 
L 1381 1569 
Q 847 1681 609 1914 
Q 372 2147 372 2553 
Q 372 3047 722 3315 
Q 1072 3584 1716 3584 
Q 2034 3584 2315 3537 
Q 2597 3491 2834 3397 
z
" transform="scale(0.015625)"/>
     </defs>
     <use xlink:href="#DejaVuSans-4f" transform="translate(0 0.015625)"/>
     <use xlink:href="#DejaVuSans-70" transform="translate(78.710938 0.015625)"/>
     <use xlink:href="#DejaVuSans-74" transform="translate(142.1875 0.015625)"/>
     <use xlink:href="#DejaVuSans-69" transform="translate(181.396484 0.015625)"/>
     <use xlink:href="#DejaVuSans-6d" transform="translate(209.179688 0.015625)"/>
     <use xlink:href="#DejaVuSans-61" transform="translate(306.591797 0.015625)"/>
     <use xlink:href="#DejaVuSans-6c" transform="translate(367.871094 0.015625)"/>
     <use xlink:href="#DejaVuSans-20" transform="translate(395.654297 0.015625)"/>
     <use xlink:href="#DejaVuSans-64" transform="translate(427.441406 0.015625)"/>
     <use xlink:href="#DejaVuSans-72" transform="translate(490.917969 0.015625)"/>
     <use xlink:href="#DejaVuSans-69" transform="translate(532.03125 0.015625)"/>
     <use xlink:href="#DejaVuSans-76" transform="translate(559.814453 0.015625)"/>
     <use xlink:href="#DejaVuSans-65" transform="translate(618.994141 0.015625)"/>
     <use xlink:href="#DejaVuSans-20" transform="translate(680.517578 0.015625)"/>
     <use xlink:href="#DejaVuSans-61" transform="translate(712.304688 0.015625)"/>
     <use xlink:href="#DejaVuSans-6e" transform="translate(773.583984 0.015625)"/>
     <use xlink:href="#DejaVuSans-64" transform="translate(836.962891 0.015625)"/>
     <use xlink:href="#DejaVuSans-20" transform="translate(900.439453 0.015625)"/>
     <use xlink:href="#DejaVuSans-69" transform="translate(932.226562 0.015625)"/>
     <use xlink:href="#DejaVuSans-6e" transform="translate(960.009766 0.015625)"/>
     <use xlink:href="#DejaVuSans-74" transform="translate(1023.388672 0.015625)"/>
     <use xlink:href="#DejaVuSans-65" transform="translate(1062.597656 0.015625)"/>
     <use xlink:href="#DejaVuSans-72" transform="translate(1124.121094 0.015625)"/>
     <use xlink:href="#DejaVuSans-61" transform="translate(1165.234375 0.015625)"/>
     <use xlink:href="#DejaVuSans-63" transform="translate(1226.513672 0.015625)"/>
     <use xlink:href="#DejaVuSans-74" transform="translate(1281.494141 0.015625)"/>
     <use xlink:href="#DejaVuSans-69" transform="translate(1320.703125 0.015625)"/>
     <use xlink:href="#DejaVuSans-6f" transform="translate(1348.486328 0.015625)"/>
     <use xlink:href="#DejaVuSans-6e" transform="translate(1409.667969 0.015625)"/>
     <use xlink:href="#DejaVuSans-20" transform="translate(1473.046875 0.015625)"/>
     <use xlink:href="#DejaVuSans-70" transform="translate(1504.833984 0.015625)"/>
     <use xlink:href="#DejaVuSans-61" transform="translate(1568.310547 0.015625)"/>
     <use xlink:href="#DejaVuSans-72" transform="translate(1629.589844 0.015625)"/>
     <use xlink:href="#DejaVuSans-61" transform="translate(1670.703125 0.015625)"/>
     <use xlink:href="#DejaVuSans-6d" transform="translate(1731.982422 0.015625)"/>
     <use xlink:href="#DejaVuSans-65" transform="translate(1829.394531 0.015625)"/>
     <use xlink:href="#DejaVuSans-74" transform="translate(1890.917969 0.015625)"/>
     <use xlink:href="#DejaVuSans-65" transform="translate(1930.126953 0.015625)"/>
     <use xlink:href="#DejaVuSans-72" transform="translate(1991.650391 0.015625)"/>
     <use xlink:href="#DejaVuSans-73" transform="translate(2032.763672 0.015625)"/>
     <use xlink:href="#DejaVuSans-20" transform="translate(2084.863281 0.015625)"/>
     <use xlink:href="#DejaVuSans-76" transform="translate(2116.650391 0.015625)"/>
     <use xlink:href="#DejaVuSans-73" transform="translate(2175.830078 0.015625)"/>
     <use xlink:href="#DejaVuSans-20" transform="translate(2227.929688 0.015625)"/>
     <use xlink:href="#DejaVuSans-Oblique-3c9" transform="translate(2259.716797 0.015625)"/>
    </g>
   </g>
   <g id="legend_1">
    <g id="patch_7">
     <path d="M 56.230156 201.57 
L 106.610156 201.57 
Q 108.810156 201.57 108.810156 199.37 
L 108.810156 124.57 
Q 108.810156 122.37 106.610156 122.37 
L 56.230156 122.37 
Q 54.030156 122.37 54.030156 124.57 
L 54.030156 199.37 
Q 54.030156 201.57 56.230156 201.57 
z
" style="fill: #ffffff; opacity: 0.8; stroke: #cccccc; stroke-linejoin: miter"/>
    </g>
    <g id="line2d_16">
     <path d="M 58.430156 132.93 
L 69.430156 132.93 
L 80.430156 132.93 
" style="fill: none; stroke: #4c72b0; stroke-width: 1.5; stroke-linecap: round"/>
     <g>
      <use xlink:href="#mdd92f5b5b4" x="69.430156" y="132.93" style="fill: #4c72b0; stroke: #4c72b0"/>
     </g>
    </g>
    <g id="text_15">
     <!-- $a_x^*$ -->
     <g style="fill: #262626" transform="translate(89.230156 136.78) scale(0.11 -0.11)">
      <defs>
       <path id="DejaVuSans-Oblique-61" d="M 3438 1997 
L 3047 0 
L 2472 0 
L 2578 531 
Q 2325 219 2001 64 
Q 1678 -91 1281 -91 
Q 834 -91 548 182 
Q 263 456 263 884 
Q 263 1497 752 1853 
Q 1241 2209 2100 2209 
L 2900 2209 
L 2931 2363 
Q 2938 2388 2941 2417 
Q 2944 2447 2944 2509 
Q 2944 2788 2717 2942 
Q 2491 3097 2081 3097 
Q 1800 3097 1504 3025 
Q 1209 2953 897 2809 
L 997 3341 
Q 1322 3463 1633 3523 
Q 1944 3584 2234 3584 
Q 2853 3584 3176 3315 
Q 3500 3047 3500 2534 
Q 3500 2431 3484 2292 
Q 3469 2153 3438 1997 
z
M 2816 1759 
L 2241 1759 
Q 1534 1759 1195 1570 
Q 856 1381 856 984 
Q 856 709 1029 553 
Q 1203 397 1509 397 
Q 1978 397 2328 733 
Q 2678 1069 2791 1631 
L 2816 1759 
z
" transform="scale(0.015625)"/>
       <path id="DejaVuSans-2a" d="M 3009 3897 
L 1888 3291 
L 3009 2681 
L 2828 2375 
L 1778 3009 
L 1778 1831 
L 1422 1831 
L 1422 3009 
L 372 2375 
L 191 2681 
L 1313 3291 
L 191 3897 
L 372 4206 
L 1422 3572 
L 1422 4750 
L 1778 4750 
L 1778 3572 
L 2828 4206 
L 3009 3897 
z
" transform="scale(0.015625)"/>
       <path id="DejaVuSans-Oblique-78" d="M 3841 3500 
L 2234 1784 
L 3219 0 
L 2559 0 
L 1819 1388 
L 531 0 
L -166 0 
L 1556 1844 
L 641 3500 
L 1300 3500 
L 1972 2234 
L 3144 3500 
L 3841 3500 
z
" transform="scale(0.015625)"/>
      </defs>
      <use xlink:href="#DejaVuSans-Oblique-61" transform="translate(0 0.765625)"/>
      <use xlink:href="#DejaVuSans-2a" transform="translate(79.566888 39.046875) scale(0.7)"/>
      <use xlink:href="#DejaVuSans-Oblique-78" transform="translate(61.279297 -26.578125) scale(0.7)"/>
     </g>
    </g>
    <g id="line2d_17">
     <path d="M 58.430156 151.52 
L 69.430156 151.52 
L 80.430156 151.52 
" style="fill: none; stroke: #dd8452; stroke-width: 1.5; stroke-linecap: round"/>
     <g>
      <use xlink:href="#m4824a03134" x="69.430156" y="151.52" style="fill: #dd8452; stroke: #dd8452; stroke-linejoin: miter"/>
     </g>
    </g>
    <g id="text_16">
     <!-- $a_y^*$ -->
     <g style="fill: #262626" transform="translate(89.230156 155.37) scale(0.11 -0.11)">
      <defs>
       <path id="DejaVuSans-Oblique-79" d="M 1588 -325 
Q 1188 -997 936 -1164 
Q 684 -1331 294 -1331 
L -159 -1331 
L -63 -850 
L 269 -850 
Q 509 -850 678 -719 
Q 847 -588 1056 -206 
L 1234 128 
L 459 3500 
L 1069 3500 
L 1650 819 
L 3256 3500 
L 3859 3500 
L 1588 -325 
z
" transform="scale(0.015625)"/>
      </defs>
      <use xlink:href="#DejaVuSans-Oblique-61" transform="translate(0 0.765625)"/>
      <use xlink:href="#DejaVuSans-2a" transform="translate(79.566888 39.046875) scale(0.7)"/>
      <use xlink:href="#DejaVuSans-Oblique-79" transform="translate(61.279297 -26.578125) scale(0.7)"/>
     </g>
    </g>
    <g id="line2d_18">
     <path d="M 58.430156 171.65 
L 69.430156 171.65 
L 80.430156 171.65 
" style="fill: none; stroke: #55a868; stroke-width: 1.5; stroke-linecap: round"/>
     <g>
      <use xlink:href="#m17c0565442" x="69.430156" y="171.65" style="fill: #55a868; stroke: #55a868; stroke-linejoin: miter"/>
     </g>
    </g>
    <g id="text_17">
     <!-- $a_z^*$ -->
     <g style="fill: #262626" transform="translate(89.230156 175.5) scale(0.11 -0.11)">
      <defs>
       <path id="DejaVuSans-Oblique-7a" d="M 744 3500 
L 3475 3500 
L 3372 2975 
L 738 459 
L 2913 459 
L 2822 0 
L -19 0 
L 84 525 
L 2719 3041 
L 653 3041 
L 744 3500 
z
" transform="scale(0.015625)"/>
      </defs>
      <use xlink:href="#DejaVuSans-Oblique-61" transform="translate(0 0.765625)"/>
      <use xlink:href="#DejaVuSans-2a" transform="translate(79.566888 39.046875) scale(0.7)"/>
      <use xlink:href="#DejaVuSans-Oblique-7a" transform="translate(61.279297 -26.578125) scale(0.7)"/>
     </g>
    </g>
    <g id="line2d_19">
     <path d="M 58.430156 190.24 
L 69.430156 190.24 
L 80.430156 190.24 
" style="fill: none; stroke: #c44e52; stroke-width: 1.5; stroke-linecap: round"/>
     <g>
      <use xlink:href="#m11df3f7877" x="69.430156" y="190.24" style="fill: #c44e52; stroke: #c44e52; stroke-linejoin: miter"/>
     </g>
    </g>
    <g id="text_18">
     <!-- $a_{zz}^*$ -->
     <g style="fill: #262626" transform="translate(89.230156 194.09) scale(0.11 -0.11)">
      <use xlink:href="#DejaVuSans-Oblique-61" transform="translate(0 0.765625)"/>
      <use xlink:href="#DejaVuSans-2a" transform="translate(79.566888 39.046875) scale(0.7)"/>
      <use xlink:href="#DejaVuSans-Oblique-7a" transform="translate(61.279297 -26.578125) scale(0.7)"/>
      <use xlink:href="#DejaVuSans-Oblique-7a" transform="translate(98.022461 -26.578125) scale(0.7)"/>
     </g>
    </g>
   </g>
  </g>
 </g>
 <defs>
  <clipPath id="pd3569c670f">
   <rect x="48.530156" y="22.32" width="507.51" height="279.3"/>
  </clipPath>
 </defs>
</svg>
