<?xml version="1.0" encoding="utf-8" standalone="no"?>
<!DOCTYPE svg PUBLIC "-//W3C//DTD SVG 1.1//EN"
  "http://www.w3.org/Graphics/SVG/1.1/DTD/svg11.dtd">
<svg xmlns:xlink="http://www.w3.org/1999/xlink" width="706.934952pt" height="416.579687pt" viewBox="0 0 706.934952 416.579687" xmlns="http://www.w3.org/2000/svg" version="1.1">
 <metadata>
  <rdf:RDF xmlns:dc="http://purl.org/dc/elements/1.1/" xmlns:cc="http://creativecommons.org/ns#" xmlns:rdf="http://www.w3.org/1999/02/22-rdf-syntax-ns#">
   <cc:Work>
    <dc:type rdf:resource="http://purl.org/dc/dcmitype/StillImage"/>
    <dc:date>2026-06-01T15:53:39.155075</dc:date>
    <dc:format>image/svg+xml</dc:format>
    <dc:creator>
     <cc:Agent>
      <dc:title>Matplotlib v3.10.9, https://matplotlib.org/</dc:title>
     </cc:Agent>
    </dc:creator>
   </cc:Work>
  </rdf:RDF>
 </metadata>
 <defs>
  <style type="text/css">*{stroke-linejoin: round; stroke-linecap: butt}</style>
 </defs>
 <g id="figure_1">
  <g id="patch_1">
   <path d="M 0 416.579687 
L 706.934952 416.579687 
L 706.934952 0 
L 0 0 
z
" style="fill: #ffffff"/>
  </g>
  <g id="axes_1">
   <g id="patch_2">
    <path d="M 58.16375 373.62 
L 699.734952 373.62 
L 699.734952 22.32 
L 58.16375 22.32 
z
" style="fill: #ffffff"/>
   </g>
   <g id="matplotlib.axis_1">
    <g id="xtick_1">
     <g id="line2d_1">
      <path d="M 75.423087 373.62 
L 75.423087 22.32 
" clip-path="url(#pb468ec9dc7)" style="fill: none; stroke: #cccccc; stroke-opacity: 0.3; stroke-linecap: round"/>
     </g>
     <g id="text_1">
      <!-- 0 -->
      <g style="fill: #262626" transform="translate(71.923712 391.478281) scale(0.11 -0.11)">
       <defs>
        <path id="DejaVuSans-30" d="M 2034 4250 
Q 1547 4250 1301 3770 
Q 1056 3291 1056 2328 
Q 1056 1369 1301 889 
Q 1547 409 2034 409 
Q 2525 409 2770 889 
Q 3016 1369 3016 2328 
Q 3016 3291 2770 3770 
Q 2525 4250 2034 4250 
z
M 2034 4750 
Q 2819 4750 3233 4129 
Q 3647 3509 3647 2328 
Q 3647 1150 3233 529 
Q 2819 -91 2034 -91 
Q 1250 -91 836 529 
Q 422 1150 422 2328 
Q 422 3509 836 4129 
Q 1250 4750 2034 4750 
z
" transform="scale(0.015625)"/>
       </defs>
       <use xlink:href="#DejaVuSans-30"/>
      </g>
     </g>
    </g>
    <g id="xtick_2">
     <g id="line2d_2">
      <path d="M 194.452994 373.62 
L 194.452994 22.32 
" clip-path="url(#pb468ec9dc7)" style="fill: none; stroke: #cccccc; stroke-opacity: 0.3; stroke-linecap: round"/>
     </g>
     <g id="text_2">
      <!-- 1 -->
      <g style="fill: #262626" transform="translate(190.953619 391.478281) scale(0.11 -0.11)">
       <defs>
        <path id="DejaVuSans-31" d="M 794 531 
L 1825 531 
L 1825 4091 
L 703 3866 
L 703 4441 
L 1819 4666 
L 2450 4666 
L 2450 531 
L 3481 531 
L 3481 0 
L 794 0 
L 794 531 
z
" transform="scale(0.015625)"/>
       </defs>
       <use xlink:href="#DejaVuSans-31"/>
      </g>
     </g>
    </g>
    <g id="xtick_3">
     <g id="line2d_3">
      <path d="M 313.482902 373.62 
L 313.482902 22.32 
" clip-path="url(#pb468ec9dc7)" style="fill: none; stroke: #cccccc; stroke-opacity: 0.3; stroke-linecap: round"/>
     </g>
     <g id="text_3">
      <!-- 2 -->
      <g style="fill: #262626" transform="translate(309.983527 391.478281) scale(0.11 -0.11)">
       <defs>
        <path id="DejaVuSans-32" d="M 1228 531 
L 3431 531 
L 3431 0 
L 469 0 
L 469 531 
Q 828 903 1448 1529 
Q 2069 2156 2228 2338 
Q 2531 2678 2651 2914 
Q 2772 3150 2772 3378 
Q 2772 3750 2511 3984 
Q 2250 4219 1831 4219 
Q 1534 4219 1204 4116 
Q 875 4013 500 3803 
L 500 4441 
Q 881 4594 1212 4672 
Q 1544 4750 1819 4750 
Q 2544 4750 2975 4387 
Q 3406 4025 3406 3419 
Q 3406 3131 3298 2873 
Q 3191 2616 2906 2266 
Q 2828 2175 2409 1742 
Q 1991 1309 1228 531 
z
" transform="scale(0.015625)"/>
       </defs>
       <use xlink:href="#DejaVuSans-32"/>
      </g>
     </g>
    </g>
    <g id="xtick_4">
     <g id="line2d_4">
      <path d="M 432.512809 373.62 
L 432.512809 22.32 
" clip-path="url(#pb468ec9dc7)" style="fill: none; stroke: #cccccc; stroke-opacity: 0.3; stroke-linecap: round"/>
     </g>
     <g id="text_4">
      <!-- 3 -->
      <g style="fill: #262626" transform="translate(429.013434 391.478281) scale(0.11 -0.11)">
       <defs>
        <path id="DejaVuSans-33" d="M 2597 2516 
Q 3050 2419 3304 2112 
Q 3559 1806 3559 1356 
Q 3559 666 3084 287 
Q 2609 -91 1734 -91 
Q 1441 -91 1130 -33 
Q 819 25 488 141 
L 488 750 
Q 750 597 1062 519 
Q 1375 441 1716 441 
Q 2309 441 2620 675 
Q 2931 909 2931 1356 
Q 2931 1769 2642 2001 
Q 2353 2234 1838 2234 
L 1294 2234 
L 1294 2753 
L 1863 2753 
Q 2328 2753 2575 2939 
Q 2822 3125 2822 3475 
Q 2822 3834 2567 4026 
Q 2313 4219 1838 4219 
Q 1578 4219 1281 4162 
Q 984 4106 628 3988 
L 628 4550 
Q 988 4650 1302 4700 
Q 1616 4750 1894 4750 
Q 2613 4750 3031 4423 
Q 3450 4097 3450 3541 
Q 3450 3153 3228 2886 
Q 3006 2619 2597 2516 
z
" transform="scale(0.015625)"/>
       </defs>
       <use xlink:href="#DejaVuSans-33"/>
      </g>
     </g>
    </g>
    <g id="xtick_5">
     <g id="line2d_5">
      <path d="M 551.542717 373.62 
L 551.542717 22.32 
" clip-path="url(#pb468ec9dc7)" style="fill: none; stroke: #cccccc; stroke-opacity: 0.3; stroke-linecap: round"/>
     </g>
     <g id="text_5">
      <!-- 4 -->
      <g style="fill: #262626" transform="translate(548.043342 391.478281) scale(0.11 -0.11)">
       <defs>
        <path id="DejaVuSans-34" d="M 2419 4116 
L 825 1625 
L 2419 1625 
L 2419 4116 
z
M 2253 4666 
L 3047 4666 
L 3047 1625 
L 3713 1625 
L 3713 1100 
L 3047 1100 
L 3047 0 
L 2419 0 
L 2419 1100 
L 313 1100 
L 313 1709 
L 2253 4666 
z
" transform="scale(0.015625)"/>
       </defs>
       <use xlink:href="#DejaVuSans-34"/>
      </g>
     </g>
    </g>
    <g id="xtick_6">
     <g id="line2d_6">
      <path d="M 670.572624 373.62 
L 670.572624 22.32 
" clip-path="url(#pb468ec9dc7)" style="fill: none; stroke: #cccccc; stroke-opacity: 0.3; stroke-linecap: round"/>
     </g>
     <g id="text_6">
      <!-- 5 -->
      <g style="fill: #262626" transform="translate(667.073249 391.478281) scale(0.11 -0.11)">
       <defs>
        <path id="DejaVuSans-35" d="M 691 4666 
L 3169 4666 
L 3169 4134 
L 1269 4134 
L 1269 2991 
Q 1406 3038 1543 3061 
Q 1681 3084 1819 3084 
Q 2600 3084 3056 2656 
Q 3513 2228 3513 1497 
Q 3513 744 3044 326 
Q 2575 -91 1722 -91 
Q 1428 -91 1123 -41 
Q 819 9 494 109 
L 494 744 
Q 775 591 1075 516 
Q 1375 441 1709 441 
Q 2250 441 2565 725 
Q 2881 1009 2881 1497 
Q 2881 1984 2565 2268 
Q 2250 2553 1709 2553 
Q 1456 2553 1204 2497 
Q 953 2441 691 2322 
L 691 4666 
z
" transform="scale(0.015625)"/>
       </defs>
       <use xlink:href="#DejaVuSans-35"/>
      </g>
     </g>
    </g>
    <g id="text_7">
     <!-- $\theta$ -->
     <g style="fill: #262626" transform="translate(375.229351 406.884062) scale(0.12 -0.12)">
      <defs>
       <path id="DejaVuSans-Oblique-3b8" d="M 2913 2219 
L 925 2219 
Q 791 1284 928 888 
Q 1100 400 1566 400 
Q 2034 400 2391 891 
Q 2703 1322 2913 2219 
z
M 3009 2750 
Q 3094 3638 2984 3950 
Q 2813 4444 2353 4444 
Q 1875 4444 1525 3956 
Q 1250 3563 1034 2750 
L 3009 2750 
z
M 2444 4913 
Q 3194 4913 3494 4250 
Q 3794 3591 3566 2422 
Q 3341 1256 2781 594 
Q 2225 -72 1475 -72 
Q 722 -72 425 594 
Q 128 1256 353 2422 
Q 581 3591 1134 4250 
Q 1691 4913 2444 4913 
z
" transform="scale(0.015625)"/>
      </defs>
      <use xlink:href="#DejaVuSans-Oblique-3b8" transform="translate(0 0.234375)"/>
     </g>
    </g>
   </g>
   <g id="matplotlib.axis_2">
    <g id="ytick_1">
     <g id="line2d_7">
      <path d="M 58.16375 230.54014 
L 699.734952 230.54014 
" clip-path="url(#pb468ec9dc7)" style="fill: none; stroke: #cccccc; stroke-opacity: 0.3; stroke-linecap: round"/>
     </g>
     <g id="text_8">
      <!-- $\mathdefault{10^{-2}}$ -->
      <g style="fill: #262626" transform="translate(22.81375 234.71928) scale(0.11 -0.11)">
       <defs>
        <path id="DejaVuSans-2212" d="M 678 2272 
L 4684 2272 
L 4684 1741 
L 678 1741 
L 678 2272 
z
" transform="scale(0.015625)"/>
       </defs>
       <use xlink:href="#DejaVuSans-31" transform="translate(0 0.765625)"/>
       <use xlink:href="#DejaVuSans-30" transform="translate(63.623047 0.765625)"/>
       <use xlink:href="#DejaVuSans-2212" transform="translate(128.203125 39.046875) scale(0.7)"/>
       <use xlink:href="#DejaVuSans-32" transform="translate(186.855469 39.046875) scale(0.7)"/>
      </g>
     </g>
    </g>
    <g id="ytick_2">
     <g id="line2d_8">
      <path d="M 58.16375 339.993686 
L 699.734952 339.993686 
" clip-path="url(#pb468ec9dc7)" style="fill: none; stroke: #cccccc; stroke-opacity: 0.3; stroke-linecap: round"/>
     </g>
    </g>
    <g id="ytick_3">
     <g id="line2d_9">
      <path d="M 58.16375 313.338551 
L 699.734952 313.338551 
" clip-path="url(#pb468ec9dc7)" style="fill: none; stroke: #cccccc; stroke-opacity: 0.3; stroke-linecap: round"/>
     </g>
    </g>
    <g id="ytick_4">
     <g id="line2d_10">
      <path d="M 58.16375 291.55972 
L 699.734952 291.55972 
" clip-path="url(#pb468ec9dc7)" style="fill: none; stroke: #cccccc; stroke-opacity: 0.3; stroke-linecap: round"/>
     </g>
    </g>
    <g id="ytick_5">
     <g id="line2d_11">
      <path d="M 58.16375 273.145981 
L 699.734952 273.145981 
" clip-path="url(#pb468ec9dc7)" style="fill: none; stroke: #cccccc; stroke-opacity: 0.3; stroke-linecap: round"/>
     </g>
    </g>
    <g id="ytick_6">
     <g id="line2d_12">
      <path d="M 58.16375 257.195274 
L 699.734952 257.195274 
" clip-path="url(#pb468ec9dc7)" style="fill: none; stroke: #cccccc; stroke-opacity: 0.3; stroke-linecap: round"/>
     </g>
    </g>
    <g id="ytick_7">
     <g id="line2d_13">
      <path d="M 58.16375 243.125754 
L 699.734952 243.125754 
" clip-path="url(#pb468ec9dc7)" style="fill: none; stroke: #cccccc; stroke-opacity: 0.3; stroke-linecap: round"/>
     </g>
    </g>
    <g id="ytick_8">
     <g id="line2d_14">
      <path d="M 58.16375 147.741728 
L 699.734952 147.741728 
" clip-path="url(#pb468ec9dc7)" style="fill: none; stroke: #cccccc; stroke-opacity: 0.3; stroke-linecap: round"/>
     </g>
    </g>
    <g id="ytick_9">
     <g id="line2d_15">
      <path d="M 58.16375 99.307762 
L 699.734952 99.307762 
" clip-path="url(#pb468ec9dc7)" style="fill: none; stroke: #cccccc; stroke-opacity: 0.3; stroke-linecap: round"/>
     </g>
    </g>
    <g id="ytick_10">
     <g id="line2d_16">
      <path d="M 58.16375 64.943317 
L 699.734952 64.943317 
" clip-path="url(#pb468ec9dc7)" style="fill: none; stroke: #cccccc; stroke-opacity: 0.3; stroke-linecap: round"/>
     </g>
    </g>
    <g id="ytick_11">
     <g id="line2d_17">
      <path d="M 58.16375 38.288182 
L 699.734952 38.288182 
" clip-path="url(#pb468ec9dc7)" style="fill: none; stroke: #cccccc; stroke-opacity: 0.3; stroke-linecap: round"/>
     </g>
    </g>
    <g id="text_9">
     <!-- $\Delta\theta$ -->
     <g style="fill: #262626" transform="translate(16.318125 205.77) rotate(-90) scale(0.12 -0.12)">
      <defs>
       <path id="DejaVuSans-394" d="M 2188 4044 
L 906 525 
L 3472 525 
L 2188 4044 
z
M 50 0 
L 1831 4666 
L 2547 4666 
L 4325 0 
L 50 0 
z
" transform="scale(0.015625)"/>
      </defs>
      <use xlink:href="#DejaVuSans-394" transform="translate(0 0.234375)"/>
      <use xlink:href="#DejaVuSans-Oblique-3b8" transform="translate(68.408203 0.234375)"/>
     </g>
    </g>
   </g>
   <g id="line2d_18">
    <path d="M 87.326077 38.288182 
L 99.229068 38.288182 
L 111.132059 38.288182 
L 123.03505 38.288182 
L 134.93804 38.288182 
L 146.841031 38.288182 
L 158.744022 38.288182 
L 170.647013 38.288182 
L 182.550003 38.288182 
L 194.452994 38.288182 
L 206.355985 38.288182 
L 218.258976 38.288182 
L 230.161966 38.288182 
L 242.064957 38.288182 
L 253.967948 38.288182 
L 265.870939 38.288182 
L 277.773929 38.288182 
L 289.67692 38.288182 
L 301.579911 38.288182 
L 313.482902 38.288182 
L 325.385892 38.288182 
L 337.288883 38.288182 
L 349.191874 38.288182 
L 361.094865 38.288182 
L 372.997855 38.288182 
L 384.900846 38.288182 
L 396.803837 38.288182 
L 408.706828 38.288182 
L 420.609818 38.288182 
L 432.512809 38.288182 
L 444.4158 38.288182 
L 456.318791 38.288182 
L 468.221781 38.288182 
L 480.124772 38.288182 
L 492.027763 38.288182 
L 503.930754 38.288182 
L 515.833744 38.288182 
L 527.736735 38.288182 
L 539.639726 38.288182 
L 551.542717 38.288182 
L 563.445707 38.288182 
L 575.348698 38.288182 
L 587.251689 38.288182 
L 599.15468 38.288182 
L 611.05767 38.288182 
L 622.960661 38.288182 
L 634.863652 38.288182 
L 646.766643 38.288182 
L 658.669633 38.288182 
L 670.572624 38.288182 
" clip-path="url(#pb468ec9dc7)" style="fill: none; stroke: #463480; stroke-width: 1.5; stroke-linecap: round"/>
   </g>
   <g id="line2d_19">
    <path d="M 58.16375 38.288182 
L 699.734952 38.288182 
" clip-path="url(#pb468ec9dc7)" style="fill: none; stroke-dasharray: 3.7,1.6; stroke-dashoffset: 0; stroke: #463480; stroke-opacity: 0.6"/>
   </g>
   <g id="line2d_20">
    <path d="M 87.326077 103.90437 
L 99.229068 103.90437 
L 111.132059 103.90437 
L 123.03505 103.90437 
L 134.93804 103.90437 
L 146.841031 103.90437 
L 158.744022 103.90437 
L 170.647013 103.90437 
L 182.550003 103.90437 
L 194.452994 103.90437 
L 206.355985 103.90437 
L 218.258976 103.90437 
L 230.161966 103.90437 
L 242.064957 103.90437 
L 253.967948 103.90437 
L 265.870939 103.90437 
L 277.773929 103.90437 
L 289.67692 103.90437 
L 301.579911 103.90437 
L 313.482902 103.90437 
L 325.385892 103.90437 
L 337.288883 103.90437 
L 349.191874 103.90437 
L 361.094865 103.90437 
L 372.997855 103.90437 
L 384.900846 103.904371 
L 396.803837 103.90437 
L 408.706828 103.90437 
L 420.609818 103.90437 
L 432.512809 103.90437 
L 444.4158 103.90437 
L 456.318791 103.90437 
L 468.221781 103.90437 
L 480.124772 103.90437 
L 492.027763 103.90437 
L 503.930754 103.90437 
L 515.833744 103.904371 
L 527.736735 103.90437 
L 539.639726 103.90437 
L 551.542717 103.904371 
L 563.445707 103.90437 
L 575.348698 103.90437 
L 587.251689 103.90437 
L 599.15468 103.90437 
L 611.05767 103.90437 
L 622.960661 103.90437 
L 634.863652 103.904371 
L 646.766643 103.904371 
L 658.669633 103.90437 
L 670.572624 103.904371 
" clip-path="url(#pb468ec9dc7)" style="fill: none; stroke: #365d8d; stroke-width: 1.5; stroke-linecap: round"/>
   </g>
   <g id="line2d_21">
    <path d="M 58.16375 103.90437 
L 699.734952 103.90437 
" clip-path="url(#pb468ec9dc7)" style="fill: none; stroke-dasharray: 3.7,1.6; stroke-dashoffset: 0; stroke: #365d8d; stroke-opacity: 0.6"/>
   </g>
   <g id="line2d_22">
    <path d="M 87.326077 200.03035 
L 99.229068 200.030349 
L 111.132059 200.030349 
L 123.03505 200.030349 
L 134.93804 200.030349 
L 146.841031 200.030349 
L 158.744022 200.030349 
L 170.647013 200.030349 
L 182.550003 200.03035 
L 194.452994 200.030349 
L 206.355985 200.030349 
L 218.258976 200.030349 
L 230.161966 200.030352 
L 242.064957 200.030349 
L 253.967948 200.030349 
L 265.870939 200.030349 
L 277.773929 200.030349 
L 289.67692 200.030349 
L 301.579911 200.030349 
L 313.482902 200.030349 
L 325.385892 200.030349 
L 337.288883 200.030349 
L 349.191874 200.030349 
L 361.094865 200.030349 
L 372.997855 200.030349 
L 384.900846 200.030349 
L 396.803837 200.030349 
L 408.706828 200.030349 
L 420.609818 200.030349 
L 432.512809 200.030349 
L 444.4158 200.03035 
L 456.318791 200.030349 
L 468.221781 200.030349 
L 480.124772 200.030349 
L 492.027763 200.030348 
L 503.930754 200.030349 
L 515.833744 200.030358 
L 527.736735 200.030349 
L 539.639726 200.030349 
L 551.542717 200.030349 
L 563.445707 200.030349 
L 575.348698 200.030349 
L 587.251689 200.030349 
L 599.15468 200.030349 
L 611.05767 200.030349 
L 622.960661 200.030349 
L 634.863652 200.030349 
L 646.766643 200.030349 
L 658.669633 200.030349 
L 670.572624 200.030349 
" clip-path="url(#pb468ec9dc7)" style="fill: none; stroke: #27808e; stroke-width: 1.5; stroke-linecap: round"/>
   </g>
   <g id="line2d_23">
    <path d="M 58.16375 200.030349 
L 699.734952 200.030349 
" clip-path="url(#pb468ec9dc7)" style="fill: none; stroke-dasharray: 3.7,1.6; stroke-dashoffset: 0; stroke: #27808e; stroke-opacity: 0.6"/>
   </g>
   <g id="line2d_24">
    <path d="M 87.326077 277.631881 
L 99.229068 277.631881 
L 111.132059 277.631882 
L 123.03505 277.631881 
L 134.93804 277.631881 
L 146.841031 277.631881 
L 158.744022 277.631881 
L 170.647013 277.631881 
L 182.550003 277.631881 
L 194.452994 277.631881 
L 206.355985 277.631881 
L 218.258976 277.631881 
L 230.161966 277.631881 
L 242.064957 277.631881 
L 253.967948 277.631881 
L 265.870939 277.631881 
L 277.773929 277.631881 
L 289.67692 277.631881 
L 301.579911 277.631882 
L 313.482902 277.631881 
L 325.385892 277.631881 
L 337.288883 277.631882 
L 349.191874 277.631882 
L 361.094865 277.631881 
L 372.997855 277.631882 
L 384.900846 277.631882 
L 396.803837 277.631881 
L 408.706828 277.631881 
L 420.609818 277.631881 
L 432.512809 277.631881 
L 444.4158 277.631881 
L 456.318791 277.631881 
L 468.221781 277.631881 
L 480.124772 277.631881 
L 492.027763 277.631881 
L 503.930754 277.631881 
L 515.833744 277.631881 
L 527.736735 277.631882 
L 539.639726 277.631881 
L 551.542717 277.631881 
L 563.445707 277.631882 
L 575.348698 277.631882 
L 587.251689 277.631881 
L 599.15468 277.631882 
L 611.05767 277.631881 
L 622.960661 277.631881 
L 634.863652 277.631882 
L 646.766643 277.631881 
L 658.669633 277.631881 
L 670.572624 277.631881 
" clip-path="url(#pb468ec9dc7)" style="fill: none; stroke: #1fa188; stroke-width: 1.5; stroke-linecap: round"/>
   </g>
   <g id="line2d_25">
    <path d="M 58.16375 277.631882 
L 699.734952 277.631882 
" clip-path="url(#pb468ec9dc7)" style="fill: none; stroke-dasharray: 3.7,1.6; stroke-dashoffset: 0; stroke: #1fa188; stroke-opacity: 0.6"/>
   </g>
   <g id="line2d_26">
    <path d="M 87.326077 324.227965 
L 99.229068 324.227965 
L 111.132059 324.227967 
L 123.03505 324.227966 
L 134.93804 324.227965 
L 146.841031 324.227965 
L 158.744022 324.227965 
L 170.647013 324.227965 
L 182.550003 324.227965 
L 194.452994 324.227967 
L 206.355985 324.227965 
L 218.258976 324.227965 
L 230.161966 324.227965 
L 242.064957 324.227965 
L 253.967948 324.227965 
L 265.870939 324.227965 
L 277.773929 324.227965 
L 289.67692 324.227965 
L 301.579911 324.22797 
L 313.482902 324.227969 
L 325.385892 324.227965 
L 337.288883 324.227966 
L 349.191874 324.227965 
L 361.094865 324.227965 
L 372.997855 324.227967 
L 384.900846 324.227965 
L 396.803837 324.227965 
L 408.706828 324.227965 
L 420.609818 324.227965 
L 432.512809 324.227965 
L 444.4158 324.227962 
L 456.318791 324.227965 
L 468.221781 324.227965 
L 480.124772 324.227967 
L 492.027763 324.227966 
L 503.930754 324.227965 
L 515.833744 324.227965 
L 527.736735 324.227965 
L 539.639726 324.227965 
L 551.542717 324.227965 
L 563.445707 324.227961 
L 575.348698 324.227965 
L 587.251689 324.227965 
L 599.15468 324.227966 
L 611.05767 324.227966 
L 622.960661 324.227966 
L 634.863652 324.227966 
L 646.766643 324.227965 
L 658.669633 324.227965 
L 670.572624 324.227965 
" clip-path="url(#pb468ec9dc7)" style="fill: none; stroke: #48c16e; stroke-width: 1.5; stroke-linecap: round"/>
   </g>
   <g id="line2d_27">
    <path d="M 58.16375 324.227967 
L 699.734952 324.227967 
" clip-path="url(#pb468ec9dc7)" style="fill: none; stroke-dasharray: 3.7,1.6; stroke-dashoffset: 0; stroke: #48c16e; stroke-opacity: 0.6"/>
   </g>
   <g id="line2d_28">
    <path d="M 87.326077 357.651817 
L 99.229068 357.651817 
L 111.132059 357.651817 
L 123.03505 357.651817 
L 134.93804 357.651817 
L 146.841031 357.651816 
L 158.744022 357.651817 
L 170.647013 357.651817 
L 182.550003 357.651816 
L 194.452994 357.651804 
L 206.355985 357.651817 
L 218.258976 357.651818 
L 230.161966 357.651814 
L 242.064957 357.651817 
L 253.967948 357.651816 
L 265.870939 357.651817 
L 277.773929 357.651816 
L 289.67692 357.651817 
L 301.579911 357.651817 
L 313.482902 357.651817 
L 325.385892 357.651817 
L 337.288883 357.651818 
L 349.191874 357.651816 
L 361.094865 357.651816 
L 372.997855 357.651816 
L 384.900846 357.651817 
L 396.803837 357.651817 
L 408.706828 357.651816 
L 420.609818 357.651816 
L 432.512809 357.651806 
L 444.4158 357.651816 
L 456.318791 357.651816 
L 468.221781 357.651817 
L 480.124772 357.651816 
L 492.027763 357.651816 
L 503.930754 357.651817 
L 515.833744 357.651817 
L 527.736735 357.651817 
L 539.639726 357.651817 
L 551.542717 357.651817 
L 563.445707 357.651817 
L 575.348698 357.651817 
L 587.251689 357.651816 
L 599.15468 357.651818 
L 611.05767 357.651817 
L 622.960661 357.651817 
L 634.863652 357.651814 
L 646.766643 357.651817 
L 658.669633 357.651816 
L 670.572624 357.651818 
" clip-path="url(#pb468ec9dc7)" style="fill: none; stroke: #9bd93c; stroke-width: 1.5; stroke-linecap: round"/>
   </g>
   <g id="line2d_29">
    <path d="M 58.16375 357.651819 
L 699.734952 357.651819 
" clip-path="url(#pb468ec9dc7)" style="fill: none; stroke-dasharray: 3.7,1.6; stroke-dashoffset: 0; stroke: #9bd93c; stroke-opacity: 0.6"/>
   </g>
   <g id="patch_3">
    <path d="M 58.16375 373.62 
L 58.16375 22.32 
" style="fill: none; stroke: #cccccc; stroke-width: 1.25; stroke-linejoin: miter; stroke-linecap: square"/>
   </g>
   <g id="patch_4">
    <path d="M 699.734952 373.62 
L 699.734952 22.32 
" style="fill: none; stroke: #cccccc; stroke-width: 1.25; stroke-linejoin: miter; stroke-linecap: square"/>
   </g>
   <g id="patch_5">
    <path d="M 58.16375 373.62 
L 699.734952 373.62 
" style="fill: none; stroke: #cccccc; stroke-width: 1.25; stroke-linejoin: miter; stroke-linecap: square"/>
   </g>
   <g id="patch_6">
    <path d="M 58.16375 22.32 
L 699.734952 22.32 
" style="fill: none; stroke: #cccccc; stroke-width: 1.25; stroke-linejoin: miter; stroke-linecap: square"/>
   </g>
   <g id="text_10">
    <!-- Twin Fock Std — Phase Sensitivity vs $	heta$ -->
    <g style="fill: #262626" transform="translate(252.289351 16.32) scale(0.12 -0.12)">
     <defs>
      <path id="DejaVuSans-54" d="M -19 4666 
L 3928 4666 
L 3928 4134 
L 2272 4134 
L 2272 0 
L 1638 0 
L 1638 4134 
L -19 4134 
L -19 4666 
z
" transform="scale(0.015625)"/>
      <path id="DejaVuSans-77" d="M 269 3500 
L 844 3500 
L 1563 769 
L 2278 3500 
L 2956 3500 
L 3675 769 
L 4391 3500 
L 4966 3500 
L 4050 0 
L 3372 0 
L 2619 2869 
L 1863 0 
L 1184 0 
L 269 3500 
z
" transform="scale(0.015625)"/>
      <path id="DejaVuSans-69" d="M 603 3500 
L 1178 3500 
L 1178 0 
L 603 0 
L 603 3500 
z
M 603 4863 
L 1178 4863 
L 1178 4134 
L 603 4134 
L 603 4863 
z
" transform="scale(0.015625)"/>
      <path id="DejaVuSans-6e" d="M 3513 2113 
L 3513 0 
L 2938 0 
L 2938 2094 
Q 2938 2591 2744 2837 
Q 2550 3084 2163 3084 
Q 1697 3084 1428 2787 
Q 1159 2491 1159 1978 
L 1159 0 
L 581 0 
L 581 3500 
L 1159 3500 
L 1159 2956 
Q 1366 3272 1645 3428 
Q 1925 3584 2291 3584 
Q 2894 3584 3203 3211 
Q 3513 2838 3513 2113 
z
" transform="scale(0.015625)"/>
      <path id="DejaVuSans-20" transform="scale(0.015625)"/>
      <path id="DejaVuSans-46" d="M 628 4666 
L 3309 4666 
L 3309 4134 
L 1259 4134 
L 1259 2759 
L 3109 2759 
L 3109 2228 
L 1259 2228 
L 1259 0 
L 628 0 
L 628 4666 
z
" transform="scale(0.015625)"/>
      <path id="DejaVuSans-6f" d="M 1959 3097 
Q 1497 3097 1228 2736 
Q 959 2375 959 1747 
Q 959 1119 1226 758 
Q 1494 397 1959 397 
Q 2419 397 2687 759 
Q 2956 1122 2956 1747 
Q 2956 2369 2687 2733 
Q 2419 3097 1959 3097 
z
M 1959 3584 
Q 2709 3584 3137 3096 
Q 3566 2609 3566 1747 
Q 3566 888 3137 398 
Q 2709 -91 1959 -91 
Q 1206 -91 779 398 
Q 353 888 353 1747 
Q 353 2609 779 3096 
Q 1206 3584 1959 3584 
z
" transform="scale(0.015625)"/>
      <path id="DejaVuSans-63" d="M 3122 3366 
L 3122 2828 
Q 2878 2963 2633 3030 
Q 2388 3097 2138 3097 
Q 1578 3097 1268 2742 
Q 959 2388 959 1747 
Q 959 1106 1268 751 
Q 1578 397 2138 397 
Q 2388 397 2633 464 
Q 2878 531 3122 666 
L 3122 134 
Q 2881 22 2623 -34 
Q 2366 -91 2075 -91 
Q 1284 -91 818 406 
Q 353 903 353 1747 
Q 353 2603 823 3093 
Q 1294 3584 2113 3584 
Q 2378 3584 2631 3529 
Q 2884 3475 3122 3366 
z
" transform="scale(0.015625)"/>
      <path id="DejaVuSans-6b" d="M 581 4863 
L 1159 4863 
L 1159 1991 
L 2875 3500 
L 3609 3500 
L 1753 1863 
L 3688 0 
L 2938 0 
L 1159 1709 
L 1159 0 
L 581 0 
L 581 4863 
z
" transform="scale(0.015625)"/>
      <path id="DejaVuSans-53" d="M 3425 4513 
L 3425 3897 
Q 3066 4069 2747 4153 
Q 2428 4238 2131 4238 
Q 1616 4238 1336 4038 
Q 1056 3838 1056 3469 
Q 1056 3159 1242 3001 
Q 1428 2844 1947 2747 
L 2328 2669 
Q 3034 2534 3370 2195 
Q 3706 1856 3706 1288 
Q 3706 609 3251 259 
Q 2797 -91 1919 -91 
Q 1588 -91 1214 -16 
Q 841 59 441 206 
L 441 856 
Q 825 641 1194 531 
Q 1563 422 1919 422 
Q 2459 422 2753 634 
Q 3047 847 3047 1241 
Q 3047 1584 2836 1778 
Q 2625 1972 2144 2069 
L 1759 2144 
Q 1053 2284 737 2584 
Q 422 2884 422 3419 
Q 422 4038 858 4394 
Q 1294 4750 2059 4750 
Q 2388 4750 2728 4690 
Q 3069 4631 3425 4513 
z
" transform="scale(0.015625)"/>
      <path id="DejaVuSans-74" d="M 1172 4494 
L 1172 3500 
L 2356 3500 
L 2356 3053 
L 1172 3053 
L 1172 1153 
Q 1172 725 1289 603 
Q 1406 481 1766 481 
L 2356 481 
L 2356 0 
L 1766 0 
Q 1100 0 847 248 
Q 594 497 594 1153 
L 594 3053 
L 172 3053 
L 172 3500 
L 594 3500 
L 594 4494 
L 1172 4494 
z
" transform="scale(0.015625)"/>
      <path id="DejaVuSans-64" d="M 2906 2969 
L 2906 4863 
L 3481 4863 
L 3481 0 
L 2906 0 
L 2906 525 
Q 2725 213 2448 61 
Q 2172 -91 1784 -91 
Q 1150 -91 751 415 
Q 353 922 353 1747 
Q 353 2572 751 3078 
Q 1150 3584 1784 3584 
Q 2172 3584 2448 3432 
Q 2725 3281 2906 2969 
z
M 947 1747 
Q 947 1113 1208 752 
Q 1469 391 1925 391 
Q 2381 391 2643 752 
Q 2906 1113 2906 1747 
Q 2906 2381 2643 2742 
Q 2381 3103 1925 3103 
Q 1469 3103 1208 2742 
Q 947 2381 947 1747 
z
" transform="scale(0.015625)"/>
      <path id="DejaVuSansDisplay-2014" d="M 313 1978 
L 6088 1978 
L 6088 1528 
L 313 1528 
L 313 1978 
z
" transform="scale(0.015625)"/>
      <path id="DejaVuSans-50" d="M 1259 4147 
L 1259 2394 
L 2053 2394 
Q 2494 2394 2734 2622 
Q 2975 2850 2975 3272 
Q 2975 3691 2734 3919 
Q 2494 4147 2053 4147 
L 1259 4147 
z
M 628 4666 
L 2053 4666 
Q 2838 4666 3239 4311 
Q 3641 3956 3641 3272 
Q 3641 2581 3239 2228 
Q 2838 1875 2053 1875 
L 1259 1875 
L 1259 0 
L 628 0 
L 628 4666 
z
" transform="scale(0.015625)"/>
      <path id="DejaVuSans-68" d="M 3513 2113 
L 3513 0 
L 2938 0 
L 2938 2094 
Q 2938 2591 2744 2837 
Q 2550 3084 2163 3084 
Q 1697 3084 1428 2787 
Q 1159 2491 1159 1978 
L 1159 0 
L 581 0 
L 581 4863 
L 1159 4863 
L 1159 2956 
Q 1366 3272 1645 3428 
Q 1925 3584 2291 3584 
Q 2894 3584 3203 3211 
Q 3513 2838 3513 2113 
z
" transform="scale(0.015625)"/>
      <path id="DejaVuSans-61" d="M 2194 1759 
Q 1497 1759 1228 1600 
Q 959 1441 959 1056 
Q 959 750 1161 570 
Q 1363 391 1709 391 
Q 2188 391 2477 730 
Q 2766 1069 2766 1631 
L 2766 1759 
L 2194 1759 
z
M 3341 1997 
L 3341 0 
L 2766 0 
L 2766 531 
Q 2569 213 2275 61 
Q 1981 -91 1556 -91 
Q 1019 -91 701 211 
Q 384 513 384 1019 
Q 384 1609 779 1909 
Q 1175 2209 1959 2209 
L 2766 2209 
L 2766 2266 
Q 2766 2663 2505 2880 
Q 2244 3097 1772 3097 
Q 1472 3097 1187 3025 
Q 903 2953 641 2809 
L 641 3341 
Q 956 3463 1253 3523 
Q 1550 3584 1831 3584 
Q 2591 3584 2966 3190 
Q 3341 2797 3341 1997 
z
" transform="scale(0.015625)"/>
      <path id="DejaVuSans-73" d="M 2834 3397 
L 2834 2853 
Q 2591 2978 2328 3040 
Q 2066 3103 1784 3103 
Q 1356 3103 1142 2972 
Q 928 2841 928 2578 
Q 928 2378 1081 2264 
Q 1234 2150 1697 2047 
L 1894 2003 
Q 2506 1872 2764 1633 
Q 3022 1394 3022 966 
Q 3022 478 2636 193 
Q 2250 -91 1575 -91 
Q 1294 -91 989 -36 
Q 684 19 347 128 
L 347 722 
Q 666 556 975 473 
Q 1284 391 1588 391 
Q 1994 391 2212 530 
Q 2431 669 2431 922 
Q 2431 1156 2273 1281 
Q 2116 1406 1581 1522 
L 1381 1569 
Q 847 1681 609 1914 
Q 372 2147 372 2553 
Q 372 3047 722 3315 
Q 1072 3584 1716 3584 
Q 2034 3584 2315 3537 
Q 2597 3491 2834 3397 
z
" transform="scale(0.015625)"/>
      <path id="DejaVuSans-65" d="M 3597 1894 
L 3597 1613 
L 953 1613 
Q 991 1019 1311 708 
Q 1631 397 2203 397 
Q 2534 397 2845 478 
Q 3156 559 3463 722 
L 3463 178 
Q 3153 47 2828 -22 
Q 2503 -91 2169 -91 
Q 1331 -91 842 396 
Q 353 884 353 1716 
Q 353 2575 817 3079 
Q 1281 3584 2069 3584 
Q 2775 3584 3186 3129 
Q 3597 2675 3597 1894 
z
M 3022 2063 
Q 3016 2534 2758 2815 
Q 2500 3097 2075 3097 
Q 1594 3097 1305 2825 
Q 1016 2553 972 2059 
L 3022 2063 
z
" transform="scale(0.015625)"/>
      <path id="DejaVuSans-76" d="M 191 3500 
L 800 3500 
L 1894 563 
L 2988 3500 
L 3597 3500 
L 2284 0 
L 1503 0 
L 191 3500 
z
" transform="scale(0.015625)"/>
      <path id="DejaVuSans-79" d="M 2059 -325 
Q 1816 -950 1584 -1140 
Q 1353 -1331 966 -1331 
L 506 -1331 
L 506 -850 
L 844 -850 
Q 1081 -850 1212 -737 
Q 1344 -625 1503 -206 
L 1606 56 
L 191 3500 
L 800 3500 
L 1894 763 
L 2988 3500 
L 3597 3500 
L 2059 -325 
z
" transform="scale(0.015625)"/>
      <path id="DejaVuSans-Oblique-68" d="M 3566 2113 
L 3156 0 
L 2578 0 
L 2988 2091 
Q 3016 2238 3031 2350 
Q 3047 2463 3047 2528 
Q 3047 2791 2881 2937 
Q 2716 3084 2419 3084 
Q 1956 3084 1617 2771 
Q 1278 2459 1178 1941 
L 800 0 
L 225 0 
L 1172 4863 
L 1747 4863 
L 1375 2950 
Q 1594 3244 1934 3414 
Q 2275 3584 2650 3584 
Q 3113 3584 3367 3334 
Q 3622 3084 3622 2631 
Q 3622 2519 3608 2391 
Q 3594 2263 3566 2113 
z
" transform="scale(0.015625)"/>
      <path id="DejaVuSans-Oblique-65" d="M 3078 2063 
Q 3088 2113 3092 2166 
Q 3097 2219 3097 2272 
Q 3097 2653 2873 2875 
Q 2650 3097 2266 3097 
Q 1838 3097 1509 2826 
Q 1181 2556 1013 2059 
L 3078 2063 
z
M 3578 1613 
L 903 1613 
Q 884 1494 878 1425 
Q 872 1356 872 1306 
Q 872 872 1139 634 
Q 1406 397 1894 397 
Q 2269 397 2603 481 
Q 2938 566 3225 728 
L 3116 159 
Q 2806 34 2476 -28 
Q 2147 -91 1806 -91 
Q 1078 -91 686 257 
Q 294 606 294 1247 
Q 294 1794 489 2264 
Q 684 2734 1063 3103 
Q 1306 3334 1642 3459 
Q 1978 3584 2356 3584 
Q 2950 3584 3301 3228 
Q 3653 2872 3653 2272 
Q 3653 2128 3634 1964 
Q 3616 1800 3578 1613 
z
" transform="scale(0.015625)"/>
      <path id="DejaVuSans-Oblique-74" d="M 2706 3500 
L 2619 3053 
L 1472 3053 
L 1100 1153 
Q 1081 1047 1072 975 
Q 1063 903 1063 863 
Q 1063 663 1183 572 
Q 1303 481 1569 481 
L 2150 481 
L 2053 0 
L 1503 0 
Q 991 0 739 200 
Q 488 400 488 806 
Q 488 878 497 964 
Q 506 1050 525 1153 
L 897 3053 
L 409 3053 
L 500 3500 
L 978 3500 
L 1172 4494 
L 1747 4494 
L 1556 3500 
L 2706 3500 
z
" transform="scale(0.015625)"/>
      <path id="DejaVuSans-Oblique-61" d="M 3438 1997 
L 3047 0 
L 2472 0 
L 2578 531 
Q 2325 219 2001 64 
Q 1678 -91 1281 -91 
Q 834 -91 548 182 
Q 263 456 263 884 
Q 263 1497 752 1853 
Q 1241 2209 2100 2209 
L 2900 2209 
L 2931 2363 
Q 2938 2388 2941 2417 
Q 2944 2447 2944 2509 
Q 2944 2788 2717 2942 
Q 2491 3097 2081 3097 
Q 1800 3097 1504 3025 
Q 1209 2953 897 2809 
L 997 3341 
Q 1322 3463 1633 3523 
Q 1944 3584 2234 3584 
Q 2853 3584 3176 3315 
Q 3500 3047 3500 2534 
Q 3500 2431 3484 2292 
Q 3469 2153 3438 1997 
z
M 2816 1759 
L 2241 1759 
Q 1534 1759 1195 1570 
Q 856 1381 856 984 
Q 856 709 1029 553 
Q 1203 397 1509 397 
Q 1978 397 2328 733 
Q 2678 1069 2791 1631 
L 2816 1759 
z
" transform="scale(0.015625)"/>
     </defs>
     <use xlink:href="#DejaVuSans-54" transform="translate(0 0.015625)"/>
     <use xlink:href="#DejaVuSans-77" transform="translate(61.083984 0.015625)"/>
     <use xlink:href="#DejaVuSans-69" transform="translate(142.871094 0.015625)"/>
     <use xlink:href="#DejaVuSans-6e" transform="translate(170.654297 0.015625)"/>
     <use xlink:href="#DejaVuSans-20" transform="translate(234.033203 0.015625)"/>
     <use xlink:href="#DejaVuSans-46" transform="translate(265.820312 0.015625)"/>
     <use xlink:href="#DejaVuSans-6f" transform="translate(323.339844 0.015625)"/>
     <use xlink:href="#DejaVuSans-63" transform="translate(384.521484 0.015625)"/>
     <use xlink:href="#DejaVuSans-6b" transform="translate(439.501953 0.015625)"/>
     <use xlink:href="#DejaVuSans-20" transform="translate(497.412109 0.015625)"/>
     <use xlink:href="#DejaVuSans-53" transform="translate(529.199219 0.015625)"/>
     <use xlink:href="#DejaVuSans-74" transform="translate(592.675781 0.015625)"/>
     <use xlink:href="#DejaVuSans-64" transform="translate(631.884766 0.015625)"/>
     <use xlink:href="#DejaVuSans-20" transform="translate(695.361328 0.015625)"/>
     <use xlink:href="#DejaVuSansDisplay-2014" transform="translate(727.148438 0.015625)"/>
     <use xlink:href="#DejaVuSans-20" transform="translate(827.148438 0.015625)"/>
     <use xlink:href="#DejaVuSans-50" transform="translate(858.935547 0.015625)"/>
     <use xlink:href="#DejaVuSans-68" transform="translate(919.238281 0.015625)"/>
     <use xlink:href="#DejaVuSans-61" transform="translate(982.617188 0.015625)"/>
     <use xlink:href="#DejaVuSans-73" transform="translate(1043.896484 0.015625)"/>
     <use xlink:href="#DejaVuSans-65" transform="translate(1095.996094 0.015625)"/>
     <use xlink:href="#DejaVuSans-20" transform="translate(1157.519531 0.015625)"/>
     <use xlink:href="#DejaVuSans-53" transform="translate(1189.306641 0.015625)"/>
     <use xlink:href="#DejaVuSans-65" transform="translate(1252.783203 0.015625)"/>
     <use xlink:href="#DejaVuSans-6e" transform="translate(1314.306641 0.015625)"/>
     <use xlink:href="#DejaVuSans-73" transform="translate(1377.685547 0.015625)"/>
     <use xlink:href="#DejaVuSans-69" transform="translate(1429.785156 0.015625)"/>
     <use xlink:href="#DejaVuSans-74" transform="translate(1457.568359 0.015625)"/>
     <use xlink:href="#DejaVuSans-69" transform="translate(1496.777344 0.015625)"/>
     <use xlink:href="#DejaVuSans-76" transform="translate(1524.560547 0.015625)"/>
     <use xlink:href="#DejaVuSans-69" transform="translate(1583.740234 0.015625)"/>
     <use xlink:href="#DejaVuSans-74" transform="translate(1611.523438 0.015625)"/>
     <use xlink:href="#DejaVuSans-79" transform="translate(1650.732422 0.015625)"/>
     <use xlink:href="#DejaVuSans-20" transform="translate(1709.912109 0.015625)"/>
     <use xlink:href="#DejaVuSans-76" transform="translate(1741.699219 0.015625)"/>
     <use xlink:href="#DejaVuSans-73" transform="translate(1800.878906 0.015625)"/>
     <use xlink:href="#DejaVuSans-20" transform="translate(1852.978516 0.015625)"/>
     <use xlink:href="#DejaVuSans-Oblique-68" transform="translate(1884.765625 0.015625)"/>
     <use xlink:href="#DejaVuSans-Oblique-65" transform="translate(1948.144531 0.015625)"/>
     <use xlink:href="#DejaVuSans-Oblique-74" transform="translate(2009.667969 0.015625)"/>
     <use xlink:href="#DejaVuSans-Oblique-61" transform="translate(2048.876953 0.015625)"/>
    </g>
   </g>
   <g id="legend_1">
    <g id="patch_7">
     <path d="M 626.054952 99.175 
L 694.134952 99.175 
Q 695.734952 99.175 695.734952 97.575 
L 695.734952 27.92 
Q 695.734952 26.32 694.134952 26.32 
L 626.054952 26.32 
Q 624.454952 26.32 624.454952 27.92 
L 624.454952 97.575 
Q 624.454952 99.175 626.054952 99.175 
z
" style="fill: #ffffff; opacity: 0.8; stroke: #cccccc; stroke-linejoin: miter"/>
    </g>
    <g id="line2d_30">
     <path d="M 627.654952 32.79875 
L 635.654952 32.79875 
L 643.654952 32.79875 
" style="fill: none; stroke: #463480; stroke-width: 1.5; stroke-linecap: round"/>
    </g>
    <g id="text_11">
     <!-- N=2  $\Delta\theta_{\mathrm{C}}$ -->
     <g style="fill: #262626" transform="translate(650.054952 35.59875) scale(0.08 -0.08)">
      <defs>
       <path id="DejaVuSans-4e" d="M 628 4666 
L 1478 4666 
L 3547 763 
L 3547 4666 
L 4159 4666 
L 4159 0 
L 3309 0 
L 1241 3903 
L 1241 0 
L 628 0 
L 628 4666 
z
" transform="scale(0.015625)"/>
       <path id="DejaVuSans-3d" d="M 678 2906 
L 4684 2906 
L 4684 2381 
L 678 2381 
L 678 2906 
z
M 678 1631 
L 4684 1631 
L 4684 1100 
L 678 1100 
L 678 1631 
z
" transform="scale(0.015625)"/>
       <path id="DejaVuSans-43" d="M 4122 4306 
L 4122 3641 
Q 3803 3938 3442 4084 
Q 3081 4231 2675 4231 
Q 1875 4231 1450 3742 
Q 1025 3253 1025 2328 
Q 1025 1406 1450 917 
Q 1875 428 2675 428 
Q 3081 428 3442 575 
Q 3803 722 4122 1019 
L 4122 359 
Q 3791 134 3420 21 
Q 3050 -91 2638 -91 
Q 1578 -91 968 557 
Q 359 1206 359 2328 
Q 359 3453 968 4101 
Q 1578 4750 2638 4750 
Q 3056 4750 3426 4639 
Q 3797 4528 4122 4306 
z
" transform="scale(0.015625)"/>
      </defs>
      <use xlink:href="#DejaVuSans-4e" transform="translate(0 0.234375)"/>
      <use xlink:href="#DejaVuSans-3d" transform="translate(74.804688 0.234375)"/>
      <use xlink:href="#DejaVuSans-32" transform="translate(158.59375 0.234375)"/>
      <use xlink:href="#DejaVuSans-20" transform="translate(222.216797 0.234375)"/>
      <use xlink:href="#DejaVuSans-20" transform="translate(254.003906 0.234375)"/>
      <use xlink:href="#DejaVuSans-394" transform="translate(285.791016 0.234375)"/>
      <use xlink:href="#DejaVuSans-Oblique-3b8" transform="translate(354.199219 0.234375)"/>
      <use xlink:href="#DejaVuSans-43" transform="translate(415.380859 -16.171875) scale(0.7)"/>
     </g>
    </g>
    <g id="line2d_31">
     <path d="M 627.654952 44.54125 
L 635.654952 44.54125 
L 643.654952 44.54125 
" style="fill: none; stroke: #365d8d; stroke-width: 1.5; stroke-linecap: round"/>
    </g>
    <g id="text_12">
     <!-- N=4  $\Delta\theta_{\mathrm{C}}$ -->
     <g style="fill: #262626" transform="translate(650.054952 47.34125) scale(0.08 -0.08)">
      <use xlink:href="#DejaVuSans-4e" transform="translate(0 0.234375)"/>
      <use xlink:href="#DejaVuSans-3d" transform="translate(74.804688 0.234375)"/>
      <use xlink:href="#DejaVuSans-34" transform="translate(158.59375 0.234375)"/>
      <use xlink:href="#DejaVuSans-20" transform="translate(222.216797 0.234375)"/>
      <use xlink:href="#DejaVuSans-20" transform="translate(254.003906 0.234375)"/>
      <use xlink:href="#DejaVuSans-394" transform="translate(285.791016 0.234375)"/>
      <use xlink:href="#DejaVuSans-Oblique-3b8" transform="translate(354.199219 0.234375)"/>
      <use xlink:href="#DejaVuSans-43" transform="translate(415.380859 -16.171875) scale(0.7)"/>
     </g>
    </g>
    <g id="line2d_32">
     <path d="M 627.654952 56.28375 
L 635.654952 56.28375 
L 643.654952 56.28375 
" style="fill: none; stroke: #27808e; stroke-width: 1.5; stroke-linecap: round"/>
    </g>
    <g id="text_13">
     <!-- N=10  $\Delta\theta_{\mathrm{C}}$ -->
     <g style="fill: #262626" transform="translate(650.054952 59.08375) scale(0.08 -0.08)">
      <use xlink:href="#DejaVuSans-4e" transform="translate(0 0.234375)"/>
      <use xlink:href="#DejaVuSans-3d" transform="translate(74.804688 0.234375)"/>
      <use xlink:href="#DejaVuSans-31" transform="translate(158.59375 0.234375)"/>
      <use xlink:href="#DejaVuSans-30" transform="translate(222.216797 0.234375)"/>
      <use xlink:href="#DejaVuSans-20" transform="translate(285.839844 0.234375)"/>
      <use xlink:href="#DejaVuSans-20" transform="translate(317.626953 0.234375)"/>
      <use xlink:href="#DejaVuSans-394" transform="translate(349.414062 0.234375)"/>
      <use xlink:href="#DejaVuSans-Oblique-3b8" transform="translate(417.822266 0.234375)"/>
      <use xlink:href="#DejaVuSans-43" transform="translate(479.003906 -16.171875) scale(0.7)"/>
     </g>
    </g>
    <g id="line2d_33">
     <path d="M 627.654952 68.02625 
L 635.654952 68.02625 
L 643.654952 68.02625 
" style="fill: none; stroke: #1fa188; stroke-width: 1.5; stroke-linecap: round"/>
    </g>
    <g id="text_14">
     <!-- N=20  $\Delta\theta_{\mathrm{C}}$ -->
     <g style="fill: #262626" transform="translate(650.054952 70.82625) scale(0.08 -0.08)">
      <use xlink:href="#DejaVuSans-4e" transform="translate(0 0.234375)"/>
      <use xlink:href="#DejaVuSans-3d" transform="translate(74.804688 0.234375)"/>
      <use xlink:href="#DejaVuSans-32" transform="translate(158.59375 0.234375)"/>
      <use xlink:href="#DejaVuSans-30" transform="translate(222.216797 0.234375)"/>
      <use xlink:href="#DejaVuSans-20" transform="translate(285.839844 0.234375)"/>
      <use xlink:href="#DejaVuSans-20" transform="translate(317.626953 0.234375)"/>
      <use xlink:href="#DejaVuSans-394" transform="translate(349.414062 0.234375)"/>
      <use xlink:href="#DejaVuSans-Oblique-3b8" transform="translate(417.822266 0.234375)"/>
      <use xlink:href="#DejaVuSans-43" transform="translate(479.003906 -16.171875) scale(0.7)"/>
     </g>
    </g>
    <g id="line2d_34">
     <path d="M 627.654952 79.76875 
L 635.654952 79.76875 
L 643.654952 79.76875 
" style="fill: none; stroke: #48c16e; stroke-width: 1.5; stroke-linecap: round"/>
    </g>
    <g id="text_15">
     <!-- N=30  $\Delta\theta_{\mathrm{C}}$ -->
     <g style="fill: #262626" transform="translate(650.054952 82.56875) scale(0.08 -0.08)">
      <use xlink:href="#DejaVuSans-4e" transform="translate(0 0.234375)"/>
      <use xlink:href="#DejaVuSans-3d" transform="translate(74.804688 0.234375)"/>
      <use xlink:href="#DejaVuSans-33" transform="translate(158.59375 0.234375)"/>
      <use xlink:href="#DejaVuSans-30" transform="translate(222.216797 0.234375)"/>
      <use xlink:href="#DejaVuSans-20" transform="translate(285.839844 0.234375)"/>
      <use xlink:href="#DejaVuSans-20" transform="translate(317.626953 0.234375)"/>
      <use xlink:href="#DejaVuSans-394" transform="translate(349.414062 0.234375)"/>
      <use xlink:href="#DejaVuSans-Oblique-3b8" transform="translate(417.822266 0.234375)"/>
      <use xlink:href="#DejaVuSans-43" transform="translate(479.003906 -16.171875) scale(0.7)"/>
     </g>
    </g>
    <g id="line2d_35">
     <path d="M 627.654952 91.51125 
L 635.654952 91.51125 
L 643.654952 91.51125 
" style="fill: none; stroke: #9bd93c; stroke-width: 1.5; stroke-linecap: round"/>
    </g>
    <g id="text_16">
     <!-- N=40  $\Delta\theta_{\mathrm{C}}$ -->
     <g style="fill: #262626" transform="translate(650.054952 94.31125) scale(0.08 -0.08)">
      <use xlink:href="#DejaVuSans-4e" transform="translate(0 0.234375)"/>
      <use xlink:href="#DejaVuSans-3d" transform="translate(74.804688 0.234375)"/>
      <use xlink:href="#DejaVuSans-34" transform="translate(158.59375 0.234375)"/>
      <use xlink:href="#DejaVuSans-30" transform="translate(222.216797 0.234375)"/>
      <use xlink:href="#DejaVuSans-20" transform="translate(285.839844 0.234375)"/>
      <use xlink:href="#DejaVuSans-20" transform="translate(317.626953 0.234375)"/>
      <use xlink:href="#DejaVuSans-394" transform="translate(349.414062 0.234375)"/>
      <use xlink:href="#DejaVuSans-Oblique-3b8" transform="translate(417.822266 0.234375)"/>
      <use xlink:href="#DejaVuSans-43" transform="translate(479.003906 -16.171875) scale(0.7)"/>
     </g>
    </g>
   </g>
  </g>
 </g>
 <defs>
  <clipPath id="pb468ec9dc7">
   <rect x="58.16375" y="22.32" width="641.571202" height="351.3"/>
  </clipPath>
 </defs>
</svg>
