<?xml version="1.0" encoding="utf-8" standalone="no"?>
<!DOCTYPE svg PUBLIC "-//W3C//DTD SVG 1.1//EN"
  "http://www.w3.org/Graphics/SVG/1.1/DTD/svg11.dtd">
<svg xmlns:xlink="http://www.w3.org/1999/xlink" width="559.704979pt" height="339.061937pt" viewBox="0 0 559.704979 339.061937" xmlns="http://www.w3.org/2000/svg" version="1.1">
 <metadata>
  <rdf:RDF xmlns:dc="http://purl.org/dc/elements/1.1/" xmlns:cc="http://creativecommons.org/ns#" xmlns:rdf="http://www.w3.org/1999/02/22-rdf-syntax-ns#">
   <cc:Work>
    <dc:type rdf:resource="http://purl.org/dc/dcmitype/StillImage"/>
    <dc:date>2026-06-01T16:52:08.515433</dc:date>
    <dc:format>image/svg+xml</dc:format>
    <dc:creator>
     <cc:Agent>
      <dc:title>Matplotlib v3.10.9, https://matplotlib.org/</dc:title>
     </cc:Agent>
    </dc:creator>
   </cc:Work>
  </rdf:RDF>
 </metadata>
 <defs>
  <style type="text/css">*{stroke-linejoin: round; stroke-linecap: butt}</style>
 </defs>
 <g id="figure_1">
  <g id="patch_1">
   <path d="M 0 339.061937 
L 559.704979 339.061937 
L 559.704979 0 
L 0 0 
z
" style="fill: #ffffff"/>
  </g>
  <g id="axes_1">
   <g id="patch_2">
    <path d="M 51.7 296.076 
L 552.504979 296.076 
L 552.504979 22.32 
L 51.7 22.32 
z
" style="fill: #ffffff"/>
   </g>
   <g id="matplotlib.axis_1">
    <g id="xtick_1">
     <g id="line2d_1">
      <path d="M 74.463863 296.076 
L 74.463863 22.32 
" clip-path="url(#pa5eb71e324)" style="fill: none; stroke: #cccccc; stroke-opacity: 0.3; stroke-linecap: round"/>
     </g>
     <g id="text_1">
      <!-- $\mathdefault{10^{0}}$ -->
      <g style="fill: #262626" transform="translate(64.783863 313.934281) scale(0.11 -0.11)">
       <defs>
        <path id="DejaVuSans-31" d="M 794 531 
L 1825 531 
L 1825 4091 
L 703 3866 
L 703 4441 
L 1819 4666 
L 2450 4666 
L 2450 531 
L 3481 531 
L 3481 0 
L 794 0 
L 794 531 
z
" transform="scale(0.015625)"/>
        <path id="DejaVuSans-30" d="M 2034 4250 
Q 1547 4250 1301 3770 
Q 1056 3291 1056 2328 
Q 1056 1369 1301 889 
Q 1547 409 2034 409 
Q 2525 409 2770 889 
Q 3016 1369 3016 2328 
Q 3016 3291 2770 3770 
Q 2525 4250 2034 4250 
z
M 2034 4750 
Q 2819 4750 3233 4129 
Q 3647 3509 3647 2328 
Q 3647 1150 3233 529 
Q 2819 -91 2034 -91 
Q 1250 -91 836 529 
Q 422 1150 422 2328 
Q 422 3509 836 4129 
Q 1250 4750 2034 4750 
z
" transform="scale(0.015625)"/>
       </defs>
       <use xlink:href="#DejaVuSans-31" transform="translate(0 0.765625)"/>
       <use xlink:href="#DejaVuSans-30" transform="translate(63.623047 0.765625)"/>
       <use xlink:href="#DejaVuSans-30" transform="translate(128.203125 39.046875) scale(0.7)"/>
      </g>
     </g>
    </g>
    <g id="xtick_2">
     <g id="line2d_2">
      <path d="M 358.646263 296.076 
L 358.646263 22.32 
" clip-path="url(#pa5eb71e324)" style="fill: none; stroke: #cccccc; stroke-opacity: 0.3; stroke-linecap: round"/>
     </g>
     <g id="text_2">
      <!-- $\mathdefault{10^{1}}$ -->
      <g style="fill: #262626" transform="translate(348.966263 313.934281) scale(0.11 -0.11)">
       <use xlink:href="#DejaVuSans-31" transform="translate(0 0.684375)"/>
       <use xlink:href="#DejaVuSans-30" transform="translate(63.623047 0.684375)"/>
       <use xlink:href="#DejaVuSans-31" transform="translate(128.203125 38.965625) scale(0.7)"/>
      </g>
     </g>
    </g>
    <g id="xtick_3">
     <g id="line2d_3">
      <path d="M 61.460389 296.076 
L 61.460389 22.32 
" clip-path="url(#pa5eb71e324)" style="fill: none; stroke: #cccccc; stroke-opacity: 0.3; stroke-linecap: round"/>
     </g>
    </g>
    <g id="xtick_4">
     <g id="line2d_4">
      <path d="M 160.011289 296.076 
L 160.011289 22.32 
" clip-path="url(#pa5eb71e324)" style="fill: none; stroke: #cccccc; stroke-opacity: 0.3; stroke-linecap: round"/>
     </g>
    </g>
    <g id="xtick_5">
     <g id="line2d_5">
      <path d="M 210.053326 296.076 
L 210.053326 22.32 
" clip-path="url(#pa5eb71e324)" style="fill: none; stroke: #cccccc; stroke-opacity: 0.3; stroke-linecap: round"/>
     </g>
    </g>
    <g id="xtick_6">
     <g id="line2d_6">
      <path d="M 245.558716 296.076 
L 245.558716 22.32 
" clip-path="url(#pa5eb71e324)" style="fill: none; stroke: #cccccc; stroke-opacity: 0.3; stroke-linecap: round"/>
     </g>
    </g>
    <g id="xtick_7">
     <g id="line2d_7">
      <path d="M 273.098836 296.076 
L 273.098836 22.32 
" clip-path="url(#pa5eb71e324)" style="fill: none; stroke: #cccccc; stroke-opacity: 0.3; stroke-linecap: round"/>
     </g>
    </g>
    <g id="xtick_8">
     <g id="line2d_8">
      <path d="M 295.600753 296.076 
L 295.600753 22.32 
" clip-path="url(#pa5eb71e324)" style="fill: none; stroke: #cccccc; stroke-opacity: 0.3; stroke-linecap: round"/>
     </g>
    </g>
    <g id="xtick_9">
     <g id="line2d_9">
      <path d="M 314.625852 296.076 
L 314.625852 22.32 
" clip-path="url(#pa5eb71e324)" style="fill: none; stroke: #cccccc; stroke-opacity: 0.3; stroke-linecap: round"/>
     </g>
    </g>
    <g id="xtick_10">
     <g id="line2d_10">
      <path d="M 331.106143 296.076 
L 331.106143 22.32 
" clip-path="url(#pa5eb71e324)" style="fill: none; stroke: #cccccc; stroke-opacity: 0.3; stroke-linecap: round"/>
     </g>
    </g>
    <g id="xtick_11">
     <g id="line2d_11">
      <path d="M 345.642789 296.076 
L 345.642789 22.32 
" clip-path="url(#pa5eb71e324)" style="fill: none; stroke: #cccccc; stroke-opacity: 0.3; stroke-linecap: round"/>
     </g>
    </g>
    <g id="xtick_12">
     <g id="line2d_12">
      <path d="M 444.19369 296.076 
L 444.19369 22.32 
" clip-path="url(#pa5eb71e324)" style="fill: none; stroke: #cccccc; stroke-opacity: 0.3; stroke-linecap: round"/>
     </g>
    </g>
    <g id="xtick_13">
     <g id="line2d_13">
      <path d="M 494.235726 296.076 
L 494.235726 22.32 
" clip-path="url(#pa5eb71e324)" style="fill: none; stroke: #cccccc; stroke-opacity: 0.3; stroke-linecap: round"/>
     </g>
    </g>
    <g id="xtick_14">
     <g id="line2d_14">
      <path d="M 529.741116 296.076 
L 529.741116 22.32 
" clip-path="url(#pa5eb71e324)" style="fill: none; stroke: #cccccc; stroke-opacity: 0.3; stroke-linecap: round"/>
     </g>
    </g>
    <g id="text_3">
     <!-- Total photon number $N$ -->
     <g style="fill: #262626" transform="translate(232.322489 329.341937) scale(0.12 -0.12)">
      <defs>
       <path id="DejaVuSans-54" d="M -19 4666 
L 3928 4666 
L 3928 4134 
L 2272 4134 
L 2272 0 
L 1638 0 
L 1638 4134 
L -19 4134 
L -19 4666 
z
" transform="scale(0.015625)"/>
       <path id="DejaVuSans-6f" d="M 1959 3097 
Q 1497 3097 1228 2736 
Q 959 2375 959 1747 
Q 959 1119 1226 758 
Q 1494 397 1959 397 
Q 2419 397 2687 759 
Q 2956 1122 2956 1747 
Q 2956 2369 2687 2733 
Q 2419 3097 1959 3097 
z
M 1959 3584 
Q 2709 3584 3137 3096 
Q 3566 2609 3566 1747 
Q 3566 888 3137 398 
Q 2709 -91 1959 -91 
Q 1206 -91 779 398 
Q 353 888 353 1747 
Q 353 2609 779 3096 
Q 1206 3584 1959 3584 
z
" transform="scale(0.015625)"/>
       <path id="DejaVuSans-74" d="M 1172 4494 
L 1172 3500 
L 2356 3500 
L 2356 3053 
L 1172 3053 
L 1172 1153 
Q 1172 725 1289 603 
Q 1406 481 1766 481 
L 2356 481 
L 2356 0 
L 1766 0 
Q 1100 0 847 248 
Q 594 497 594 1153 
L 594 3053 
L 172 3053 
L 172 3500 
L 594 3500 
L 594 4494 
L 1172 4494 
z
" transform="scale(0.015625)"/>
       <path id="DejaVuSans-61" d="M 2194 1759 
Q 1497 1759 1228 1600 
Q 959 1441 959 1056 
Q 959 750 1161 570 
Q 1363 391 1709 391 
Q 2188 391 2477 730 
Q 2766 1069 2766 1631 
L 2766 1759 
L 2194 1759 
z
M 3341 1997 
L 3341 0 
L 2766 0 
L 2766 531 
Q 2569 213 2275 61 
Q 1981 -91 1556 -91 
Q 1019 -91 701 211 
Q 384 513 384 1019 
Q 384 1609 779 1909 
Q 1175 2209 1959 2209 
L 2766 2209 
L 2766 2266 
Q 2766 2663 2505 2880 
Q 2244 3097 1772 3097 
Q 1472 3097 1187 3025 
Q 903 2953 641 2809 
L 641 3341 
Q 956 3463 1253 3523 
Q 1550 3584 1831 3584 
Q 2591 3584 2966 3190 
Q 3341 2797 3341 1997 
z
" transform="scale(0.015625)"/>
       <path id="DejaVuSans-6c" d="M 603 4863 
L 1178 4863 
L 1178 0 
L 603 0 
L 603 4863 
z
" transform="scale(0.015625)"/>
       <path id="DejaVuSans-20" transform="scale(0.015625)"/>
       <path id="DejaVuSans-70" d="M 1159 525 
L 1159 -1331 
L 581 -1331 
L 581 3500 
L 1159 3500 
L 1159 2969 
Q 1341 3281 1617 3432 
Q 1894 3584 2278 3584 
Q 2916 3584 3314 3078 
Q 3713 2572 3713 1747 
Q 3713 922 3314 415 
Q 2916 -91 2278 -91 
Q 1894 -91 1617 61 
Q 1341 213 1159 525 
z
M 3116 1747 
Q 3116 2381 2855 2742 
Q 2594 3103 2138 3103 
Q 1681 3103 1420 2742 
Q 1159 2381 1159 1747 
Q 1159 1113 1420 752 
Q 1681 391 2138 391 
Q 2594 391 2855 752 
Q 3116 1113 3116 1747 
z
" transform="scale(0.015625)"/>
       <path id="DejaVuSans-68" d="M 3513 2113 
L 3513 0 
L 2938 0 
L 2938 2094 
Q 2938 2591 2744 2837 
Q 2550 3084 2163 3084 
Q 1697 3084 1428 2787 
Q 1159 2491 1159 1978 
L 1159 0 
L 581 0 
L 581 4863 
L 1159 4863 
L 1159 2956 
Q 1366 3272 1645 3428 
Q 1925 3584 2291 3584 
Q 2894 3584 3203 3211 
Q 3513 2838 3513 2113 
z
" transform="scale(0.015625)"/>
       <path id="DejaVuSans-6e" d="M 3513 2113 
L 3513 0 
L 2938 0 
L 2938 2094 
Q 2938 2591 2744 2837 
Q 2550 3084 2163 3084 
Q 1697 3084 1428 2787 
Q 1159 2491 1159 1978 
L 1159 0 
L 581 0 
L 581 3500 
L 1159 3500 
L 1159 2956 
Q 1366 3272 1645 3428 
Q 1925 3584 2291 3584 
Q 2894 3584 3203 3211 
Q 3513 2838 3513 2113 
z
" transform="scale(0.015625)"/>
       <path id="DejaVuSans-75" d="M 544 1381 
L 544 3500 
L 1119 3500 
L 1119 1403 
Q 1119 906 1312 657 
Q 1506 409 1894 409 
Q 2359 409 2629 706 
Q 2900 1003 2900 1516 
L 2900 3500 
L 3475 3500 
L 3475 0 
L 2900 0 
L 2900 538 
Q 2691 219 2414 64 
Q 2138 -91 1772 -91 
Q 1169 -91 856 284 
Q 544 659 544 1381 
z
M 1991 3584 
L 1991 3584 
z
" transform="scale(0.015625)"/>
       <path id="DejaVuSans-6d" d="M 3328 2828 
Q 3544 3216 3844 3400 
Q 4144 3584 4550 3584 
Q 5097 3584 5394 3201 
Q 5691 2819 5691 2113 
L 5691 0 
L 5113 0 
L 5113 2094 
Q 5113 2597 4934 2840 
Q 4756 3084 4391 3084 
Q 3944 3084 3684 2787 
Q 3425 2491 3425 1978 
L 3425 0 
L 2847 0 
L 2847 2094 
Q 2847 2600 2669 2842 
Q 2491 3084 2119 3084 
Q 1678 3084 1418 2786 
Q 1159 2488 1159 1978 
L 1159 0 
L 581 0 
L 581 3500 
L 1159 3500 
L 1159 2956 
Q 1356 3278 1631 3431 
Q 1906 3584 2284 3584 
Q 2666 3584 2933 3390 
Q 3200 3197 3328 2828 
z
" transform="scale(0.015625)"/>
       <path id="DejaVuSans-62" d="M 3116 1747 
Q 3116 2381 2855 2742 
Q 2594 3103 2138 3103 
Q 1681 3103 1420 2742 
Q 1159 2381 1159 1747 
Q 1159 1113 1420 752 
Q 1681 391 2138 391 
Q 2594 391 2855 752 
Q 3116 1113 3116 1747 
z
M 1159 2969 
Q 1341 3281 1617 3432 
Q 1894 3584 2278 3584 
Q 2916 3584 3314 3078 
Q 3713 2572 3713 1747 
Q 3713 922 3314 415 
Q 2916 -91 2278 -91 
Q 1894 -91 1617 61 
Q 1341 213 1159 525 
L 1159 0 
L 581 0 
L 581 4863 
L 1159 4863 
L 1159 2969 
z
" transform="scale(0.015625)"/>
       <path id="DejaVuSans-65" d="M 3597 1894 
L 3597 1613 
L 953 1613 
Q 991 1019 1311 708 
Q 1631 397 2203 397 
Q 2534 397 2845 478 
Q 3156 559 3463 722 
L 3463 178 
Q 3153 47 2828 -22 
Q 2503 -91 2169 -91 
Q 1331 -91 842 396 
Q 353 884 353 1716 
Q 353 2575 817 3079 
Q 1281 3584 2069 3584 
Q 2775 3584 3186 3129 
Q 3597 2675 3597 1894 
z
M 3022 2063 
Q 3016 2534 2758 2815 
Q 2500 3097 2075 3097 
Q 1594 3097 1305 2825 
Q 1016 2553 972 2059 
L 3022 2063 
z
" transform="scale(0.015625)"/>
       <path id="DejaVuSans-72" d="M 2631 2963 
Q 2534 3019 2420 3045 
Q 2306 3072 2169 3072 
Q 1681 3072 1420 2755 
Q 1159 2438 1159 1844 
L 1159 0 
L 581 0 
L 581 3500 
L 1159 3500 
L 1159 2956 
Q 1341 3275 1631 3429 
Q 1922 3584 2338 3584 
Q 2397 3584 2469 3576 
Q 2541 3569 2628 3553 
L 2631 2963 
z
" transform="scale(0.015625)"/>
       <path id="DejaVuSans-Oblique-4e" d="M 1081 4666 
L 1931 4666 
L 3219 666 
L 4000 4666 
L 4616 4666 
L 3706 0 
L 2853 0 
L 1569 4025 
L 788 0 
L 172 0 
L 1081 4666 
z
" transform="scale(0.015625)"/>
      </defs>
      <use xlink:href="#DejaVuSans-54" transform="translate(0 0.015625)"/>
      <use xlink:href="#DejaVuSans-6f" transform="translate(61.083984 0.015625)"/>
      <use xlink:href="#DejaVuSans-74" transform="translate(122.265625 0.015625)"/>
      <use xlink:href="#DejaVuSans-61" transform="translate(161.474609 0.015625)"/>
      <use xlink:href="#DejaVuSans-6c" transform="translate(222.753906 0.015625)"/>
      <use xlink:href="#DejaVuSans-20" transform="translate(250.537109 0.015625)"/>
      <use xlink:href="#DejaVuSans-70" transform="translate(282.324219 0.015625)"/>
      <use xlink:href="#DejaVuSans-68" transform="translate(345.800781 0.015625)"/>
      <use xlink:href="#DejaVuSans-6f" transform="translate(409.179688 0.015625)"/>
      <use xlink:href="#DejaVuSans-74" transform="translate(470.361328 0.015625)"/>
      <use xlink:href="#DejaVuSans-6f" transform="translate(509.570312 0.015625)"/>
      <use xlink:href="#DejaVuSans-6e" transform="translate(570.751953 0.015625)"/>
      <use xlink:href="#DejaVuSans-20" transform="translate(634.130859 0.015625)"/>
      <use xlink:href="#DejaVuSans-6e" transform="translate(665.917969 0.015625)"/>
      <use xlink:href="#DejaVuSans-75" transform="translate(729.296875 0.015625)"/>
      <use xlink:href="#DejaVuSans-6d" transform="translate(792.675781 0.015625)"/>
      <use xlink:href="#DejaVuSans-62" transform="translate(890.087891 0.015625)"/>
      <use xlink:href="#DejaVuSans-65" transform="translate(953.564453 0.015625)"/>
      <use xlink:href="#DejaVuSans-72" transform="translate(1015.087891 0.015625)"/>
      <use xlink:href="#DejaVuSans-20" transform="translate(1056.201172 0.015625)"/>
      <use xlink:href="#DejaVuSans-Oblique-4e" transform="translate(1087.988281 0.015625)"/>
     </g>
    </g>
   </g>
   <g id="matplotlib.axis_2">
    <g id="ytick_1">
     <g id="line2d_15">
      <path d="M 51.7 236.869589 
L 552.504979 236.869589 
" clip-path="url(#pa5eb71e324)" style="fill: none; stroke: #cccccc; stroke-opacity: 0.3; stroke-linecap: round"/>
     </g>
     <g id="text_4">
      <!-- $\mathdefault{10^{0}}$ -->
      <g style="fill: #262626" transform="translate(22.84 241.04873) scale(0.11 -0.11)">
       <use xlink:href="#DejaVuSans-31" transform="translate(0 0.765625)"/>
       <use xlink:href="#DejaVuSans-30" transform="translate(63.623047 0.765625)"/>
       <use xlink:href="#DejaVuSans-30" transform="translate(128.203125 39.046875) scale(0.7)"/>
      </g>
     </g>
    </g>
    <g id="ytick_2">
     <g id="line2d_16">
      <path d="M 51.7 159.198 
L 552.504979 159.198 
" clip-path="url(#pa5eb71e324)" style="fill: none; stroke: #cccccc; stroke-opacity: 0.3; stroke-linecap: round"/>
     </g>
     <g id="text_5">
      <!-- $\mathdefault{10^{1}}$ -->
      <g style="fill: #262626" transform="translate(22.84 163.377141) scale(0.11 -0.11)">
       <use xlink:href="#DejaVuSans-31" transform="translate(0 0.684375)"/>
       <use xlink:href="#DejaVuSans-30" transform="translate(63.623047 0.684375)"/>
       <use xlink:href="#DejaVuSans-31" transform="translate(128.203125 38.965625) scale(0.7)"/>
      </g>
     </g>
    </g>
    <g id="ytick_3">
     <g id="line2d_17">
      <path d="M 51.7 81.526411 
L 552.504979 81.526411 
" clip-path="url(#pa5eb71e324)" style="fill: none; stroke: #cccccc; stroke-opacity: 0.3; stroke-linecap: round"/>
     </g>
     <g id="text_6">
      <!-- $\mathdefault{10^{2}}$ -->
      <g style="fill: #262626" transform="translate(22.84 85.705551) scale(0.11 -0.11)">
       <defs>
        <path id="DejaVuSans-32" d="M 1228 531 
L 3431 531 
L 3431 0 
L 469 0 
L 469 531 
Q 828 903 1448 1529 
Q 2069 2156 2228 2338 
Q 2531 2678 2651 2914 
Q 2772 3150 2772 3378 
Q 2772 3750 2511 3984 
Q 2250 4219 1831 4219 
Q 1534 4219 1204 4116 
Q 875 4013 500 3803 
L 500 4441 
Q 881 4594 1212 4672 
Q 1544 4750 1819 4750 
Q 2544 4750 2975 4387 
Q 3406 4025 3406 3419 
Q 3406 3131 3298 2873 
Q 3191 2616 2906 2266 
Q 2828 2175 2409 1742 
Q 1991 1309 1228 531 
z
" transform="scale(0.015625)"/>
       </defs>
       <use xlink:href="#DejaVuSans-31" transform="translate(0 0.765625)"/>
       <use xlink:href="#DejaVuSans-30" transform="translate(63.623047 0.765625)"/>
       <use xlink:href="#DejaVuSans-32" transform="translate(128.203125 39.046875) scale(0.7)"/>
      </g>
     </g>
    </g>
    <g id="ytick_4">
     <g id="line2d_18">
      <path d="M 51.7 291.1597 
L 552.504979 291.1597 
" clip-path="url(#pa5eb71e324)" style="fill: none; stroke: #cccccc; stroke-opacity: 0.3; stroke-linecap: round"/>
     </g>
    </g>
    <g id="ytick_5">
     <g id="line2d_19">
      <path d="M 51.7 277.482412 
L 552.504979 277.482412 
" clip-path="url(#pa5eb71e324)" style="fill: none; stroke: #cccccc; stroke-opacity: 0.3; stroke-linecap: round"/>
     </g>
    </g>
    <g id="ytick_6">
     <g id="line2d_20">
      <path d="M 51.7 267.778222 
L 552.504979 267.778222 
" clip-path="url(#pa5eb71e324)" style="fill: none; stroke: #cccccc; stroke-opacity: 0.3; stroke-linecap: round"/>
     </g>
    </g>
    <g id="ytick_7">
     <g id="line2d_21">
      <path d="M 51.7 260.251067 
L 552.504979 260.251067 
" clip-path="url(#pa5eb71e324)" style="fill: none; stroke: #cccccc; stroke-opacity: 0.3; stroke-linecap: round"/>
     </g>
    </g>
    <g id="ytick_8">
     <g id="line2d_22">
      <path d="M 51.7 254.100934 
L 552.504979 254.100934 
" clip-path="url(#pa5eb71e324)" style="fill: none; stroke: #cccccc; stroke-opacity: 0.3; stroke-linecap: round"/>
     </g>
    </g>
    <g id="ytick_9">
     <g id="line2d_23">
      <path d="M 51.7 248.901071 
L 552.504979 248.901071 
" clip-path="url(#pa5eb71e324)" style="fill: none; stroke: #cccccc; stroke-opacity: 0.3; stroke-linecap: round"/>
     </g>
    </g>
    <g id="ytick_10">
     <g id="line2d_24">
      <path d="M 51.7 244.396744 
L 552.504979 244.396744 
" clip-path="url(#pa5eb71e324)" style="fill: none; stroke: #cccccc; stroke-opacity: 0.3; stroke-linecap: round"/>
     </g>
    </g>
    <g id="ytick_11">
     <g id="line2d_25">
      <path d="M 51.7 240.423646 
L 552.504979 240.423646 
" clip-path="url(#pa5eb71e324)" style="fill: none; stroke: #cccccc; stroke-opacity: 0.3; stroke-linecap: round"/>
     </g>
    </g>
    <g id="ytick_12">
     <g id="line2d_26">
      <path d="M 51.7 213.488111 
L 552.504979 213.488111 
" clip-path="url(#pa5eb71e324)" style="fill: none; stroke: #cccccc; stroke-opacity: 0.3; stroke-linecap: round"/>
     </g>
    </g>
    <g id="ytick_13">
     <g id="line2d_27">
      <path d="M 51.7 199.810823 
L 552.504979 199.810823 
" clip-path="url(#pa5eb71e324)" style="fill: none; stroke: #cccccc; stroke-opacity: 0.3; stroke-linecap: round"/>
     </g>
    </g>
    <g id="ytick_14">
     <g id="line2d_28">
      <path d="M 51.7 190.106633 
L 552.504979 190.106633 
" clip-path="url(#pa5eb71e324)" style="fill: none; stroke: #cccccc; stroke-opacity: 0.3; stroke-linecap: round"/>
     </g>
    </g>
    <g id="ytick_15">
     <g id="line2d_29">
      <path d="M 51.7 182.579478 
L 552.504979 182.579478 
" clip-path="url(#pa5eb71e324)" style="fill: none; stroke: #cccccc; stroke-opacity: 0.3; stroke-linecap: round"/>
     </g>
    </g>
    <g id="ytick_16">
     <g id="line2d_30">
      <path d="M 51.7 176.429345 
L 552.504979 176.429345 
" clip-path="url(#pa5eb71e324)" style="fill: none; stroke: #cccccc; stroke-opacity: 0.3; stroke-linecap: round"/>
     </g>
    </g>
    <g id="ytick_17">
     <g id="line2d_31">
      <path d="M 51.7 171.229481 
L 552.504979 171.229481 
" clip-path="url(#pa5eb71e324)" style="fill: none; stroke: #cccccc; stroke-opacity: 0.3; stroke-linecap: round"/>
     </g>
    </g>
    <g id="ytick_18">
     <g id="line2d_32">
      <path d="M 51.7 166.725155 
L 552.504979 166.725155 
" clip-path="url(#pa5eb71e324)" style="fill: none; stroke: #cccccc; stroke-opacity: 0.3; stroke-linecap: round"/>
     </g>
    </g>
    <g id="ytick_19">
     <g id="line2d_33">
      <path d="M 51.7 162.752057 
L 552.504979 162.752057 
" clip-path="url(#pa5eb71e324)" style="fill: none; stroke: #cccccc; stroke-opacity: 0.3; stroke-linecap: round"/>
     </g>
    </g>
    <g id="ytick_20">
     <g id="line2d_34">
      <path d="M 51.7 135.816522 
L 552.504979 135.816522 
" clip-path="url(#pa5eb71e324)" style="fill: none; stroke: #cccccc; stroke-opacity: 0.3; stroke-linecap: round"/>
     </g>
    </g>
    <g id="ytick_21">
     <g id="line2d_35">
      <path d="M 51.7 122.139234 
L 552.504979 122.139234 
" clip-path="url(#pa5eb71e324)" style="fill: none; stroke: #cccccc; stroke-opacity: 0.3; stroke-linecap: round"/>
     </g>
    </g>
    <g id="ytick_22">
     <g id="line2d_36">
      <path d="M 51.7 112.435044 
L 552.504979 112.435044 
" clip-path="url(#pa5eb71e324)" style="fill: none; stroke: #cccccc; stroke-opacity: 0.3; stroke-linecap: round"/>
     </g>
    </g>
    <g id="ytick_23">
     <g id="line2d_37">
      <path d="M 51.7 104.907889 
L 552.504979 104.907889 
" clip-path="url(#pa5eb71e324)" style="fill: none; stroke: #cccccc; stroke-opacity: 0.3; stroke-linecap: round"/>
     </g>
    </g>
    <g id="ytick_24">
     <g id="line2d_38">
      <path d="M 51.7 98.757756 
L 552.504979 98.757756 
" clip-path="url(#pa5eb71e324)" style="fill: none; stroke: #cccccc; stroke-opacity: 0.3; stroke-linecap: round"/>
     </g>
    </g>
    <g id="ytick_25">
     <g id="line2d_39">
      <path d="M 51.7 93.557892 
L 552.504979 93.557892 
" clip-path="url(#pa5eb71e324)" style="fill: none; stroke: #cccccc; stroke-opacity: 0.3; stroke-linecap: round"/>
     </g>
    </g>
    <g id="ytick_26">
     <g id="line2d_40">
      <path d="M 51.7 89.053566 
L 552.504979 89.053566 
" clip-path="url(#pa5eb71e324)" style="fill: none; stroke: #cccccc; stroke-opacity: 0.3; stroke-linecap: round"/>
     </g>
    </g>
    <g id="ytick_27">
     <g id="line2d_41">
      <path d="M 51.7 85.080468 
L 552.504979 85.080468 
" clip-path="url(#pa5eb71e324)" style="fill: none; stroke: #cccccc; stroke-opacity: 0.3; stroke-linecap: round"/>
     </g>
    </g>
    <g id="ytick_28">
     <g id="line2d_42">
      <path d="M 51.7 58.144933 
L 552.504979 58.144933 
" clip-path="url(#pa5eb71e324)" style="fill: none; stroke: #cccccc; stroke-opacity: 0.3; stroke-linecap: round"/>
     </g>
    </g>
    <g id="ytick_29">
     <g id="line2d_43">
      <path d="M 51.7 44.467645 
L 552.504979 44.467645 
" clip-path="url(#pa5eb71e324)" style="fill: none; stroke: #cccccc; stroke-opacity: 0.3; stroke-linecap: round"/>
     </g>
    </g>
    <g id="ytick_30">
     <g id="line2d_44">
      <path d="M 51.7 34.763455 
L 552.504979 34.763455 
" clip-path="url(#pa5eb71e324)" style="fill: none; stroke: #cccccc; stroke-opacity: 0.3; stroke-linecap: round"/>
     </g>
    </g>
    <g id="ytick_31">
     <g id="line2d_45">
      <path d="M 51.7 27.2363 
L 552.504979 27.2363 
" clip-path="url(#pa5eb71e324)" style="fill: none; stroke: #cccccc; stroke-opacity: 0.3; stroke-linecap: round"/>
     </g>
    </g>
    <g id="text_7">
     <!-- $\mathrm{Var}(J_z)$ (probe variance) -->
     <g style="fill: #262626" transform="translate(16.32 230.058) rotate(-90) scale(0.12 -0.12)">
      <defs>
       <path id="DejaVuSans-56" d="M 1831 0 
L 50 4666 
L 709 4666 
L 2188 738 
L 3669 4666 
L 4325 4666 
L 2547 0 
L 1831 0 
z
" transform="scale(0.015625)"/>
       <path id="DejaVuSans-28" d="M 1984 4856 
Q 1566 4138 1362 3434 
Q 1159 2731 1159 2009 
Q 1159 1288 1364 580 
Q 1569 -128 1984 -844 
L 1484 -844 
Q 1016 -109 783 600 
Q 550 1309 550 2009 
Q 550 2706 781 3412 
Q 1013 4119 1484 4856 
L 1984 4856 
z
" transform="scale(0.015625)"/>
       <path id="DejaVuSans-Oblique-4a" d="M 1069 4666 
L 1703 4666 
L 856 325 
Q 691 -522 298 -901 
Q -94 -1281 -800 -1281 
L -1050 -1281 
L -947 -750 
L -750 -750 
Q -328 -750 -109 -509 
Q 109 -269 225 325 
L 1069 4666 
z
" transform="scale(0.015625)"/>
       <path id="DejaVuSans-Oblique-7a" d="M 744 3500 
L 3475 3500 
L 3372 2975 
L 738 459 
L 2913 459 
L 2822 0 
L -19 0 
L 84 525 
L 2719 3041 
L 653 3041 
L 744 3500 
z
" transform="scale(0.015625)"/>
       <path id="DejaVuSans-29" d="M 513 4856 
L 1013 4856 
Q 1481 4119 1714 3412 
Q 1947 2706 1947 2009 
Q 1947 1309 1714 600 
Q 1481 -109 1013 -844 
L 513 -844 
Q 928 -128 1133 580 
Q 1338 1288 1338 2009 
Q 1338 2731 1133 3434 
Q 928 4138 513 4856 
z
" transform="scale(0.015625)"/>
       <path id="DejaVuSans-76" d="M 191 3500 
L 800 3500 
L 1894 563 
L 2988 3500 
L 3597 3500 
L 2284 0 
L 1503 0 
L 191 3500 
z
" transform="scale(0.015625)"/>
       <path id="DejaVuSans-69" d="M 603 3500 
L 1178 3500 
L 1178 0 
L 603 0 
L 603 3500 
z
M 603 4863 
L 1178 4863 
L 1178 4134 
L 603 4134 
L 603 4863 
z
" transform="scale(0.015625)"/>
       <path id="DejaVuSans-63" d="M 3122 3366 
L 3122 2828 
Q 2878 2963 2633 3030 
Q 2388 3097 2138 3097 
Q 1578 3097 1268 2742 
Q 959 2388 959 1747 
Q 959 1106 1268 751 
Q 1578 397 2138 397 
Q 2388 397 2633 464 
Q 2878 531 3122 666 
L 3122 134 
Q 2881 22 2623 -34 
Q 2366 -91 2075 -91 
Q 1284 -91 818 406 
Q 353 903 353 1747 
Q 353 2603 823 3093 
Q 1294 3584 2113 3584 
Q 2378 3584 2631 3529 
Q 2884 3475 3122 3366 
z
" transform="scale(0.015625)"/>
      </defs>
      <use xlink:href="#DejaVuSans-56" transform="translate(0 0.015625)"/>
      <use xlink:href="#DejaVuSans-61" transform="translate(68.408203 0.015625)"/>
      <use xlink:href="#DejaVuSans-72" transform="translate(129.6875 0.015625)"/>
      <use xlink:href="#DejaVuSans-28" transform="translate(170.800781 0.015625)"/>
      <use xlink:href="#DejaVuSans-Oblique-4a" transform="translate(209.814453 0.015625)"/>
      <use xlink:href="#DejaVuSans-Oblique-7a" transform="translate(239.306641 -16.390625) scale(0.7)"/>
      <use xlink:href="#DejaVuSans-29" transform="translate(278.78418 0.015625)"/>
      <use xlink:href="#DejaVuSans-20" transform="translate(317.797852 0.015625)"/>
      <use xlink:href="#DejaVuSans-28" transform="translate(349.584961 0.015625)"/>
      <use xlink:href="#DejaVuSans-70" transform="translate(388.598633 0.015625)"/>
      <use xlink:href="#DejaVuSans-72" transform="translate(452.075195 0.015625)"/>
      <use xlink:href="#DejaVuSans-6f" transform="translate(493.188477 0.015625)"/>
      <use xlink:href="#DejaVuSans-62" transform="translate(554.370117 0.015625)"/>
      <use xlink:href="#DejaVuSans-65" transform="translate(617.84668 0.015625)"/>
      <use xlink:href="#DejaVuSans-20" transform="translate(679.370117 0.015625)"/>
      <use xlink:href="#DejaVuSans-76" transform="translate(711.157227 0.015625)"/>
      <use xlink:href="#DejaVuSans-61" transform="translate(770.336914 0.015625)"/>
      <use xlink:href="#DejaVuSans-72" transform="translate(831.616211 0.015625)"/>
      <use xlink:href="#DejaVuSans-69" transform="translate(872.729492 0.015625)"/>
      <use xlink:href="#DejaVuSans-61" transform="translate(900.512695 0.015625)"/>
      <use xlink:href="#DejaVuSans-6e" transform="translate(961.791992 0.015625)"/>
      <use xlink:href="#DejaVuSans-63" transform="translate(1025.170898 0.015625)"/>
      <use xlink:href="#DejaVuSans-65" transform="translate(1080.151367 0.015625)"/>
      <use xlink:href="#DejaVuSans-29" transform="translate(1141.674805 0.015625)"/>
     </g>
    </g>
   </g>
   <g id="line2d_46">
    <path d="M 74.463863 283.632545 
L 160.011289 236.869589 
L 210.053326 209.515013 
L 245.558716 190.106633 
L 273.098836 175.052323 
L 295.600753 162.752057 
L 314.625852 152.35233 
L 331.106143 143.343677 
L 345.642789 135.397481 
L 358.646263 128.289367 
L 370.409335 121.859296 
L 381.148179 115.989101 
L 391.026958 110.589045 
L 400.173279 105.589374 
L 408.688299 100.934791 
L 416.653569 96.58072 
L 424.13579 92.490699 
L 431.190216 88.634525 
L 437.86313 84.986897 
L 444.19369 81.526411 
L 450.215315 78.234798 
L 455.956762 75.09634 
L 461.442947 72.097415 
L 466.695606 69.226144 
L 471.73381 66.472101 
L 476.574385 63.826088 
L 481.232253 61.279949 
L 485.720705 58.826417 
L 490.051636 56.458992 
L 494.235726 54.171835 
L 498.282608 51.95968 
L 502.200996 49.817764 
L 505.998799 47.741764 
L 509.683217 45.727743 
L 513.260826 43.772108 
L 516.737643 41.871569 
L 520.119193 40.023105 
L 523.410557 38.223941 
L 526.616422 36.471512 
L 529.741116 34.763455 
" clip-path="url(#pa5eb71e324)" style="fill: none; stroke: #4c72b0; stroke-width: 1.5; stroke-linecap: round"/>
    <defs>
     <path id="m681b85262e" d="M 0 3 
C 0.795609 3 1.55874 2.683901 2.12132 2.12132 
C 2.683901 1.55874 3 0.795609 3 0 
C 3 -0.795609 2.683901 -1.55874 2.12132 -2.12132 
C 1.55874 -2.683901 0.795609 -3 0 -3 
C -0.795609 -3 -1.55874 -2.683901 -2.12132 -2.12132 
C -2.683901 -1.55874 -3 -0.795609 -3 0 
C -3 0.795609 -2.683901 1.55874 -2.12132 2.12132 
C -1.55874 2.683901 -0.795609 3 0 3 
z
" style="stroke: #4c72b0"/>
    </defs>
    <g clip-path="url(#pa5eb71e324)">
     <use xlink:href="#m681b85262e" x="74.463863" y="283.632545" style="fill: #4c72b0; stroke: #4c72b0"/>
     <use xlink:href="#m681b85262e" x="160.011289" y="236.869589" style="fill: #4c72b0; stroke: #4c72b0"/>
     <use xlink:href="#m681b85262e" x="210.053326" y="209.515013" style="fill: #4c72b0; stroke: #4c72b0"/>
     <use xlink:href="#m681b85262e" x="245.558716" y="190.106633" style="fill: #4c72b0; stroke: #4c72b0"/>
     <use xlink:href="#m681b85262e" x="273.098836" y="175.052323" style="fill: #4c72b0; stroke: #4c72b0"/>
     <use xlink:href="#m681b85262e" x="295.600753" y="162.752057" style="fill: #4c72b0; stroke: #4c72b0"/>
     <use xlink:href="#m681b85262e" x="314.625852" y="152.35233" style="fill: #4c72b0; stroke: #4c72b0"/>
     <use xlink:href="#m681b85262e" x="331.106143" y="143.343677" style="fill: #4c72b0; stroke: #4c72b0"/>
     <use xlink:href="#m681b85262e" x="345.642789" y="135.397481" style="fill: #4c72b0; stroke: #4c72b0"/>
     <use xlink:href="#m681b85262e" x="358.646263" y="128.289367" style="fill: #4c72b0; stroke: #4c72b0"/>
     <use xlink:href="#m681b85262e" x="370.409335" y="121.859296" style="fill: #4c72b0; stroke: #4c72b0"/>
     <use xlink:href="#m681b85262e" x="381.148179" y="115.989101" style="fill: #4c72b0; stroke: #4c72b0"/>
     <use xlink:href="#m681b85262e" x="391.026958" y="110.589045" style="fill: #4c72b0; stroke: #4c72b0"/>
     <use xlink:href="#m681b85262e" x="400.173279" y="105.589374" style="fill: #4c72b0; stroke: #4c72b0"/>
     <use xlink:href="#m681b85262e" x="408.688299" y="100.934791" style="fill: #4c72b0; stroke: #4c72b0"/>
     <use xlink:href="#m681b85262e" x="416.653569" y="96.58072" style="fill: #4c72b0; stroke: #4c72b0"/>
     <use xlink:href="#m681b85262e" x="424.13579" y="92.490699" style="fill: #4c72b0; stroke: #4c72b0"/>
     <use xlink:href="#m681b85262e" x="431.190216" y="88.634525" style="fill: #4c72b0; stroke: #4c72b0"/>
     <use xlink:href="#m681b85262e" x="437.86313" y="84.986897" style="fill: #4c72b0; stroke: #4c72b0"/>
     <use xlink:href="#m681b85262e" x="444.19369" y="81.526411" style="fill: #4c72b0; stroke: #4c72b0"/>
     <use xlink:href="#m681b85262e" x="450.215315" y="78.234798" style="fill: #4c72b0; stroke: #4c72b0"/>
     <use xlink:href="#m681b85262e" x="455.956762" y="75.09634" style="fill: #4c72b0; stroke: #4c72b0"/>
     <use xlink:href="#m681b85262e" x="461.442947" y="72.097415" style="fill: #4c72b0; stroke: #4c72b0"/>
     <use xlink:href="#m681b85262e" x="466.695606" y="69.226144" style="fill: #4c72b0; stroke: #4c72b0"/>
     <use xlink:href="#m681b85262e" x="471.73381" y="66.472101" style="fill: #4c72b0; stroke: #4c72b0"/>
     <use xlink:href="#m681b85262e" x="476.574385" y="63.826088" style="fill: #4c72b0; stroke: #4c72b0"/>
     <use xlink:href="#m681b85262e" x="481.232253" y="61.279949" style="fill: #4c72b0; stroke: #4c72b0"/>
     <use xlink:href="#m681b85262e" x="485.720705" y="58.826417" style="fill: #4c72b0; stroke: #4c72b0"/>
     <use xlink:href="#m681b85262e" x="490.051636" y="56.458992" style="fill: #4c72b0; stroke: #4c72b0"/>
     <use xlink:href="#m681b85262e" x="494.235726" y="54.171835" style="fill: #4c72b0; stroke: #4c72b0"/>
     <use xlink:href="#m681b85262e" x="498.282608" y="51.95968" style="fill: #4c72b0; stroke: #4c72b0"/>
     <use xlink:href="#m681b85262e" x="502.200996" y="49.817764" style="fill: #4c72b0; stroke: #4c72b0"/>
     <use xlink:href="#m681b85262e" x="505.998799" y="47.741764" style="fill: #4c72b0; stroke: #4c72b0"/>
     <use xlink:href="#m681b85262e" x="509.683217" y="45.727743" style="fill: #4c72b0; stroke: #4c72b0"/>
     <use xlink:href="#m681b85262e" x="513.260826" y="43.772108" style="fill: #4c72b0; stroke: #4c72b0"/>
     <use xlink:href="#m681b85262e" x="516.737643" y="41.871569" style="fill: #4c72b0; stroke: #4c72b0"/>
     <use xlink:href="#m681b85262e" x="520.119193" y="40.023105" style="fill: #4c72b0; stroke: #4c72b0"/>
     <use xlink:href="#m681b85262e" x="523.410557" y="38.223941" style="fill: #4c72b0; stroke: #4c72b0"/>
     <use xlink:href="#m681b85262e" x="526.616422" y="36.471512" style="fill: #4c72b0; stroke: #4c72b0"/>
     <use xlink:href="#m681b85262e" x="529.741116" y="34.763455" style="fill: #4c72b0; stroke: #4c72b0"/>
    </g>
   </g>
   <g id="line2d_47">
    <path d="M 160.011289 236.869589 
L 245.558716 199.810823 
L 295.600753 176.429345 
L 331.106143 159.198 
L 358.646263 145.520712 
L 381.148179 134.170715 
L 400.173279 124.466525 
L 416.653569 115.989101 
L 431.190216 108.461946 
L 444.19369 101.692853 
L 455.956762 95.54272 
L 466.695606 89.907595 
L 476.574385 84.707731 
L 485.720705 79.880604 
L 494.235726 75.376278 
L 502.200996 71.154232 
L 509.683217 67.181134 
L 516.737643 63.429233 
L 523.410557 59.875176 
L 529.741116 56.499126 
" clip-path="url(#pa5eb71e324)" style="fill: none; stroke: #dd8452; stroke-width: 1.5; stroke-linecap: round"/>
    <defs>
     <path id="m4cf2bcc119" d="M -3 3 
L 3 3 
L 3 -3 
L -3 -3 
z
" style="stroke: #dd8452; stroke-linejoin: miter"/>
    </defs>
    <g clip-path="url(#pa5eb71e324)">
     <use xlink:href="#m4cf2bcc119" x="160.011289" y="236.869589" style="fill: #dd8452; stroke: #dd8452; stroke-linejoin: miter"/>
     <use xlink:href="#m4cf2bcc119" x="245.558716" y="199.810823" style="fill: #dd8452; stroke: #dd8452; stroke-linejoin: miter"/>
     <use xlink:href="#m4cf2bcc119" x="295.600753" y="176.429345" style="fill: #dd8452; stroke: #dd8452; stroke-linejoin: miter"/>
     <use xlink:href="#m4cf2bcc119" x="331.106143" y="159.198" style="fill: #dd8452; stroke: #dd8452; stroke-linejoin: miter"/>
     <use xlink:href="#m4cf2bcc119" x="358.646263" y="145.520712" style="fill: #dd8452; stroke: #dd8452; stroke-linejoin: miter"/>
     <use xlink:href="#m4cf2bcc119" x="381.148179" y="134.170715" style="fill: #dd8452; stroke: #dd8452; stroke-linejoin: miter"/>
     <use xlink:href="#m4cf2bcc119" x="400.173279" y="124.466525" style="fill: #dd8452; stroke: #dd8452; stroke-linejoin: miter"/>
     <use xlink:href="#m4cf2bcc119" x="416.653569" y="115.989101" style="fill: #dd8452; stroke: #dd8452; stroke-linejoin: miter"/>
     <use xlink:href="#m4cf2bcc119" x="431.190216" y="108.461946" style="fill: #dd8452; stroke: #dd8452; stroke-linejoin: miter"/>
     <use xlink:href="#m4cf2bcc119" x="444.19369" y="101.692853" style="fill: #dd8452; stroke: #dd8452; stroke-linejoin: miter"/>
     <use xlink:href="#m4cf2bcc119" x="455.956762" y="95.54272" style="fill: #dd8452; stroke: #dd8452; stroke-linejoin: miter"/>
     <use xlink:href="#m4cf2bcc119" x="466.695606" y="89.907595" style="fill: #dd8452; stroke: #dd8452; stroke-linejoin: miter"/>
     <use xlink:href="#m4cf2bcc119" x="476.574385" y="84.707731" style="fill: #dd8452; stroke: #dd8452; stroke-linejoin: miter"/>
     <use xlink:href="#m4cf2bcc119" x="485.720705" y="79.880604" style="fill: #dd8452; stroke: #dd8452; stroke-linejoin: miter"/>
     <use xlink:href="#m4cf2bcc119" x="494.235726" y="75.376278" style="fill: #dd8452; stroke: #dd8452; stroke-linejoin: miter"/>
     <use xlink:href="#m4cf2bcc119" x="502.200996" y="71.154232" style="fill: #dd8452; stroke: #dd8452; stroke-linejoin: miter"/>
     <use xlink:href="#m4cf2bcc119" x="509.683217" y="67.181134" style="fill: #dd8452; stroke: #dd8452; stroke-linejoin: miter"/>
     <use xlink:href="#m4cf2bcc119" x="516.737643" y="63.429233" style="fill: #dd8452; stroke: #dd8452; stroke-linejoin: miter"/>
     <use xlink:href="#m4cf2bcc119" x="523.410557" y="59.875176" style="fill: #dd8452; stroke: #dd8452; stroke-linejoin: miter"/>
     <use xlink:href="#m4cf2bcc119" x="529.741116" y="56.499126" style="fill: #dd8452; stroke: #dd8452; stroke-linejoin: miter"/>
    </g>
   </g>
   <g id="patch_3">
    <path d="M 51.7 296.076 
L 51.7 22.32 
" style="fill: none; stroke: #cccccc; stroke-width: 1.25; stroke-linejoin: miter; stroke-linecap: square"/>
   </g>
   <g id="patch_4">
    <path d="M 552.504979 296.076 
L 552.504979 22.32 
" style="fill: none; stroke: #cccccc; stroke-width: 1.25; stroke-linejoin: miter; stroke-linecap: square"/>
   </g>
   <g id="patch_5">
    <path d="M 51.7 296.076 
L 552.504979 296.076 
" style="fill: none; stroke: #cccccc; stroke-width: 1.25; stroke-linejoin: miter; stroke-linecap: square"/>
   </g>
   <g id="patch_6">
    <path d="M 51.7 22.32 
L 552.504979 22.32 
" style="fill: none; stroke: #cccccc; stroke-width: 1.25; stroke-linejoin: miter; stroke-linecap: square"/>
   </g>
   <g id="text_8">
    <!-- Probe Variance $\mathrm{Var}(J_z)$ vs $N$ -->
    <g style="fill: #262626" transform="translate(220.562489 16.32) scale(0.12 -0.12)">
     <defs>
      <path id="DejaVuSans-50" d="M 1259 4147 
L 1259 2394 
L 2053 2394 
Q 2494 2394 2734 2622 
Q 2975 2850 2975 3272 
Q 2975 3691 2734 3919 
Q 2494 4147 2053 4147 
L 1259 4147 
z
M 628 4666 
L 2053 4666 
Q 2838 4666 3239 4311 
Q 3641 3956 3641 3272 
Q 3641 2581 3239 2228 
Q 2838 1875 2053 1875 
L 1259 1875 
L 1259 0 
L 628 0 
L 628 4666 
z
" transform="scale(0.015625)"/>
      <path id="DejaVuSans-73" d="M 2834 3397 
L 2834 2853 
Q 2591 2978 2328 3040 
Q 2066 3103 1784 3103 
Q 1356 3103 1142 2972 
Q 928 2841 928 2578 
Q 928 2378 1081 2264 
Q 1234 2150 1697 2047 
L 1894 2003 
Q 2506 1872 2764 1633 
Q 3022 1394 3022 966 
Q 3022 478 2636 193 
Q 2250 -91 1575 -91 
Q 1294 -91 989 -36 
Q 684 19 347 128 
L 347 722 
Q 666 556 975 473 
Q 1284 391 1588 391 
Q 1994 391 2212 530 
Q 2431 669 2431 922 
Q 2431 1156 2273 1281 
Q 2116 1406 1581 1522 
L 1381 1569 
Q 847 1681 609 1914 
Q 372 2147 372 2553 
Q 372 3047 722 3315 
Q 1072 3584 1716 3584 
Q 2034 3584 2315 3537 
Q 2597 3491 2834 3397 
z
" transform="scale(0.015625)"/>
     </defs>
     <use xlink:href="#DejaVuSans-50" transform="translate(0 0.015625)"/>
     <use xlink:href="#DejaVuSans-72" transform="translate(60.302734 0.015625)"/>
     <use xlink:href="#DejaVuSans-6f" transform="translate(101.416016 0.015625)"/>
     <use xlink:href="#DejaVuSans-62" transform="translate(162.597656 0.015625)"/>
     <use xlink:href="#DejaVuSans-65" transform="translate(226.074219 0.015625)"/>
     <use xlink:href="#DejaVuSans-20" transform="translate(287.597656 0.015625)"/>
     <use xlink:href="#DejaVuSans-56" transform="translate(319.384766 0.015625)"/>
     <use xlink:href="#DejaVuSans-61" transform="translate(387.792969 0.015625)"/>
     <use xlink:href="#DejaVuSans-72" transform="translate(449.072266 0.015625)"/>
     <use xlink:href="#DejaVuSans-69" transform="translate(490.185547 0.015625)"/>
     <use xlink:href="#DejaVuSans-61" transform="translate(517.96875 0.015625)"/>
     <use xlink:href="#DejaVuSans-6e" transform="translate(579.248047 0.015625)"/>
     <use xlink:href="#DejaVuSans-63" transform="translate(642.626953 0.015625)"/>
     <use xlink:href="#DejaVuSans-65" transform="translate(697.607422 0.015625)"/>
     <use xlink:href="#DejaVuSans-20" transform="translate(759.130859 0.015625)"/>
     <use xlink:href="#DejaVuSans-56" transform="translate(790.917969 0.015625)"/>
     <use xlink:href="#DejaVuSans-61" transform="translate(859.326172 0.015625)"/>
     <use xlink:href="#DejaVuSans-72" transform="translate(920.605469 0.015625)"/>
     <use xlink:href="#DejaVuSans-28" transform="translate(961.71875 0.015625)"/>
     <use xlink:href="#DejaVuSans-Oblique-4a" transform="translate(1000.732422 0.015625)"/>
     <use xlink:href="#DejaVuSans-Oblique-7a" transform="translate(1030.224609 -16.390625) scale(0.7)"/>
     <use xlink:href="#DejaVuSans-29" transform="translate(1069.702148 0.015625)"/>
     <use xlink:href="#DejaVuSans-20" transform="translate(1108.71582 0.015625)"/>
     <use xlink:href="#DejaVuSans-76" transform="translate(1140.50293 0.015625)"/>
     <use xlink:href="#DejaVuSans-73" transform="translate(1199.682617 0.015625)"/>
     <use xlink:href="#DejaVuSans-20" transform="translate(1251.782227 0.015625)"/>
     <use xlink:href="#DejaVuSans-Oblique-4e" transform="translate(1283.569336 0.015625)"/>
    </g>
   </g>
   <g id="legend_1">
    <g id="patch_7">
     <path d="M 58.7 59.67625 
L 138.85625 59.67625 
Q 140.85625 59.67625 140.85625 57.67625 
L 140.85625 29.32 
Q 140.85625 27.32 138.85625 27.32 
L 58.7 27.32 
Q 56.7 27.32 56.7 29.32 
L 56.7 57.67625 
Q 56.7 59.67625 58.7 59.67625 
z
" style="fill: #ffffff; opacity: 0.8; stroke: #cccccc; stroke-linejoin: miter"/>
    </g>
    <g id="line2d_48">
     <path d="M 60.7 35.418437 
L 70.7 35.418437 
L 80.7 35.418437 
" style="fill: none; stroke: #4c72b0; stroke-width: 1.5; stroke-linecap: round"/>
     <g>
      <use xlink:href="#m681b85262e" x="70.7" y="35.418437" style="fill: #4c72b0; stroke: #4c72b0"/>
     </g>
    </g>
    <g id="text_9">
     <!-- NOON -->
     <g style="fill: #262626" transform="translate(88.7 38.918437) scale(0.1 -0.1)">
      <defs>
       <path id="DejaVuSans-4e" d="M 628 4666 
L 1478 4666 
L 3547 763 
L 3547 4666 
L 4159 4666 
L 4159 0 
L 3309 0 
L 1241 3903 
L 1241 0 
L 628 0 
L 628 4666 
z
" transform="scale(0.015625)"/>
       <path id="DejaVuSans-4f" d="M 2522 4238 
Q 1834 4238 1429 3725 
Q 1025 3213 1025 2328 
Q 1025 1447 1429 934 
Q 1834 422 2522 422 
Q 3209 422 3611 934 
Q 4013 1447 4013 2328 
Q 4013 3213 3611 3725 
Q 3209 4238 2522 4238 
z
M 2522 4750 
Q 3503 4750 4090 4092 
Q 4678 3434 4678 2328 
Q 4678 1225 4090 567 
Q 3503 -91 2522 -91 
Q 1538 -91 948 565 
Q 359 1222 359 2328 
Q 359 3434 948 4092 
Q 1538 4750 2522 4750 
z
" transform="scale(0.015625)"/>
      </defs>
      <use xlink:href="#DejaVuSans-4e"/>
      <use xlink:href="#DejaVuSans-4f" transform="translate(74.804688 0)"/>
      <use xlink:href="#DejaVuSans-4f" transform="translate(153.515625 0)"/>
      <use xlink:href="#DejaVuSans-4e" transform="translate(232.226562 0)"/>
     </g>
    </g>
    <g id="line2d_49">
     <path d="M 60.7 50.096562 
L 70.7 50.096562 
L 80.7 50.096562 
" style="fill: none; stroke: #dd8452; stroke-width: 1.5; stroke-linecap: round"/>
     <g>
      <use xlink:href="#m4cf2bcc119" x="70.7" y="50.096562" style="fill: #dd8452; stroke: #dd8452; stroke-linejoin: miter"/>
     </g>
    </g>
    <g id="text_10">
     <!-- Twin-Fock -->
     <g style="fill: #262626" transform="translate(88.7 53.596562) scale(0.1 -0.1)">
      <defs>
       <path id="DejaVuSans-77" d="M 269 3500 
L 844 3500 
L 1563 769 
L 2278 3500 
L 2956 3500 
L 3675 769 
L 4391 3500 
L 4966 3500 
L 4050 0 
L 3372 0 
L 2619 2869 
L 1863 0 
L 1184 0 
L 269 3500 
z
" transform="scale(0.015625)"/>
       <path id="DejaVuSans-2d" d="M 313 2009 
L 1997 2009 
L 1997 1497 
L 313 1497 
L 313 2009 
z
" transform="scale(0.015625)"/>
       <path id="DejaVuSans-46" d="M 628 4666 
L 3309 4666 
L 3309 4134 
L 1259 4134 
L 1259 2759 
L 3109 2759 
L 3109 2228 
L 1259 2228 
L 1259 0 
L 628 0 
L 628 4666 
z
" transform="scale(0.015625)"/>
       <path id="DejaVuSans-6b" d="M 581 4863 
L 1159 4863 
L 1159 1991 
L 2875 3500 
L 3609 3500 
L 1753 1863 
L 3688 0 
L 2938 0 
L 1159 1709 
L 1159 0 
L 581 0 
L 581 4863 
z
" transform="scale(0.015625)"/>
      </defs>
      <use xlink:href="#DejaVuSans-54"/>
      <use xlink:href="#DejaVuSans-77" transform="translate(44.583984 0)"/>
      <use xlink:href="#DejaVuSans-69" transform="translate(126.371094 0)"/>
      <use xlink:href="#DejaVuSans-6e" transform="translate(154.154297 0)"/>
      <use xlink:href="#DejaVuSans-2d" transform="translate(217.533203 0)"/>
      <use xlink:href="#DejaVuSans-46" transform="translate(253.617188 0)"/>
      <use xlink:href="#DejaVuSans-6f" transform="translate(307.511719 0)"/>
      <use xlink:href="#DejaVuSans-63" transform="translate(368.693359 0)"/>
      <use xlink:href="#DejaVuSans-6b" transform="translate(423.673828 0)"/>
     </g>
    </g>
   </g>
  </g>
 </g>
 <defs>
  <clipPath id="pa5eb71e324">
   <rect x="51.7" y="22.32" width="500.804979" height="273.756"/>
  </clipPath>
 </defs>
</svg>
