<?xml version="1.0" encoding="utf-8" standalone="no"?>
<!DOCTYPE svg PUBLIC "-//W3C//DTD SVG 1.1//EN"
  "http://www.w3.org/Graphics/SVG/1.1/DTD/svg11.dtd">
<svg xmlns:xlink="http://www.w3.org/1999/xlink" width="703.929437pt" height="413.725938pt" viewBox="0 0 703.929437 413.725938" xmlns="http://www.w3.org/2000/svg" version="1.1">
 <metadata>
  <rdf:RDF xmlns:dc="http://purl.org/dc/elements/1.1/" xmlns:cc="http://creativecommons.org/ns#" xmlns:rdf="http://www.w3.org/1999/02/22-rdf-syntax-ns#">
   <cc:Work>
    <dc:type rdf:resource="http://purl.org/dc/dcmitype/StillImage"/>
    <dc:date>2026-06-11T23:26:17.737744</dc:date>
    <dc:format>image/svg+xml</dc:format>
    <dc:creator>
     <cc:Agent>
      <dc:title>Matplotlib v3.10.9, https://matplotlib.org/</dc:title>
     </cc:Agent>
    </dc:creator>
   </cc:Work>
  </rdf:RDF>
 </metadata>
 <defs>
  <style type="text/css">*{stroke-linejoin: round; stroke-linecap: butt}</style>
 </defs>
 <g id="figure_1">
  <g id="patch_1">
   <path d="M 0 413.725938 
L 703.929437 413.725938 
L 703.929437 0 
L 0 0 
z
" style="fill: #ffffff"/>
  </g>
  <g id="axes_1">
   <g id="patch_2">
    <path d="M 51.033438 370.74 
L 696.729437 370.74 
L 696.729437 22.32 
L 51.033438 22.32 
z
" style="fill: #ffffff"/>
   </g>
   <g id="matplotlib.axis_1">
    <g id="xtick_1">
     <g id="line2d_1">
      <path d="M 114.182191 370.74 
L 114.182191 22.32 
" clip-path="url(#pf4f51929ef)" style="fill: none; stroke: #cccccc; stroke-linecap: round"/>
     </g>
     <g id="text_1">
      <!-- 2.5 -->
      <g style="fill: #262626" transform="translate(105.435472 388.598281) scale(0.11 -0.11)">
       <defs>
        <path id="DejaVuSans-32" d="M 1228 531 
L 3431 531 
L 3431 0 
L 469 0 
L 469 531 
Q 828 903 1448 1529 
Q 2069 2156 2228 2338 
Q 2531 2678 2651 2914 
Q 2772 3150 2772 3378 
Q 2772 3750 2511 3984 
Q 2250 4219 1831 4219 
Q 1534 4219 1204 4116 
Q 875 4013 500 3803 
L 500 4441 
Q 881 4594 1212 4672 
Q 1544 4750 1819 4750 
Q 2544 4750 2975 4387 
Q 3406 4025 3406 3419 
Q 3406 3131 3298 2873 
Q 3191 2616 2906 2266 
Q 2828 2175 2409 1742 
Q 1991 1309 1228 531 
z
" transform="scale(0.015625)"/>
        <path id="DejaVuSans-2e" d="M 684 794 
L 1344 794 
L 1344 0 
L 684 0 
L 684 794 
z
" transform="scale(0.015625)"/>
        <path id="DejaVuSans-35" d="M 691 4666 
L 3169 4666 
L 3169 4134 
L 1269 4134 
L 1269 2991 
Q 1406 3038 1543 3061 
Q 1681 3084 1819 3084 
Q 2600 3084 3056 2656 
Q 3513 2228 3513 1497 
Q 3513 744 3044 326 
Q 2575 -91 1722 -91 
Q 1428 -91 1123 -41 
Q 819 9 494 109 
L 494 744 
Q 775 591 1075 516 
Q 1375 441 1709 441 
Q 2250 441 2565 725 
Q 2881 1009 2881 1497 
Q 2881 1984 2565 2268 
Q 2250 2553 1709 2553 
Q 1456 2553 1204 2497 
Q 953 2441 691 2322 
L 691 4666 
z
" transform="scale(0.015625)"/>
       </defs>
       <use xlink:href="#DejaVuSans-32"/>
       <use xlink:href="#DejaVuSans-2e" transform="translate(63.623047 0)"/>
       <use xlink:href="#DejaVuSans-35" transform="translate(95.410156 0)"/>
      </g>
     </g>
    </g>
    <g id="xtick_2">
     <g id="line2d_2">
      <path d="M 193.118132 370.74 
L 193.118132 22.32 
" clip-path="url(#pf4f51929ef)" style="fill: none; stroke: #cccccc; stroke-linecap: round"/>
     </g>
     <g id="text_2">
      <!-- 5.0 -->
      <g style="fill: #262626" transform="translate(184.371413 388.598281) scale(0.11 -0.11)">
       <defs>
        <path id="DejaVuSans-30" d="M 2034 4250 
Q 1547 4250 1301 3770 
Q 1056 3291 1056 2328 
Q 1056 1369 1301 889 
Q 1547 409 2034 409 
Q 2525 409 2770 889 
Q 3016 1369 3016 2328 
Q 3016 3291 2770 3770 
Q 2525 4250 2034 4250 
z
M 2034 4750 
Q 2819 4750 3233 4129 
Q 3647 3509 3647 2328 
Q 3647 1150 3233 529 
Q 2819 -91 2034 -91 
Q 1250 -91 836 529 
Q 422 1150 422 2328 
Q 422 3509 836 4129 
Q 1250 4750 2034 4750 
z
" transform="scale(0.015625)"/>
       </defs>
       <use xlink:href="#DejaVuSans-35"/>
       <use xlink:href="#DejaVuSans-2e" transform="translate(63.623047 0)"/>
       <use xlink:href="#DejaVuSans-30" transform="translate(95.410156 0)"/>
      </g>
     </g>
    </g>
    <g id="xtick_3">
     <g id="line2d_3">
      <path d="M 272.054073 370.74 
L 272.054073 22.32 
" clip-path="url(#pf4f51929ef)" style="fill: none; stroke: #cccccc; stroke-linecap: round"/>
     </g>
     <g id="text_3">
      <!-- 7.5 -->
      <g style="fill: #262626" transform="translate(263.307354 388.598281) scale(0.11 -0.11)">
       <defs>
        <path id="DejaVuSans-37" d="M 525 4666 
L 3525 4666 
L 3525 4397 
L 1831 0 
L 1172 0 
L 2766 4134 
L 525 4134 
L 525 4666 
z
" transform="scale(0.015625)"/>
       </defs>
       <use xlink:href="#DejaVuSans-37"/>
       <use xlink:href="#DejaVuSans-2e" transform="translate(63.623047 0)"/>
       <use xlink:href="#DejaVuSans-35" transform="translate(95.410156 0)"/>
      </g>
     </g>
    </g>
    <g id="xtick_4">
     <g id="line2d_4">
      <path d="M 350.990015 370.74 
L 350.990015 22.32 
" clip-path="url(#pf4f51929ef)" style="fill: none; stroke: #cccccc; stroke-linecap: round"/>
     </g>
     <g id="text_4">
      <!-- 10.0 -->
      <g style="fill: #262626" transform="translate(338.743921 388.598281) scale(0.11 -0.11)">
       <defs>
        <path id="DejaVuSans-31" d="M 794 531 
L 1825 531 
L 1825 4091 
L 703 3866 
L 703 4441 
L 1819 4666 
L 2450 4666 
L 2450 531 
L 3481 531 
L 3481 0 
L 794 0 
L 794 531 
z
" transform="scale(0.015625)"/>
       </defs>
       <use xlink:href="#DejaVuSans-31"/>
       <use xlink:href="#DejaVuSans-30" transform="translate(63.623047 0)"/>
       <use xlink:href="#DejaVuSans-2e" transform="translate(127.246094 0)"/>
       <use xlink:href="#DejaVuSans-30" transform="translate(159.033203 0)"/>
      </g>
     </g>
    </g>
    <g id="xtick_5">
     <g id="line2d_5">
      <path d="M 429.925956 370.74 
L 429.925956 22.32 
" clip-path="url(#pf4f51929ef)" style="fill: none; stroke: #cccccc; stroke-linecap: round"/>
     </g>
     <g id="text_5">
      <!-- 12.5 -->
      <g style="fill: #262626" transform="translate(417.679862 388.598281) scale(0.11 -0.11)">
       <use xlink:href="#DejaVuSans-31"/>
       <use xlink:href="#DejaVuSans-32" transform="translate(63.623047 0)"/>
       <use xlink:href="#DejaVuSans-2e" transform="translate(127.246094 0)"/>
       <use xlink:href="#DejaVuSans-35" transform="translate(159.033203 0)"/>
      </g>
     </g>
    </g>
    <g id="xtick_6">
     <g id="line2d_6">
      <path d="M 508.861897 370.74 
L 508.861897 22.32 
" clip-path="url(#pf4f51929ef)" style="fill: none; stroke: #cccccc; stroke-linecap: round"/>
     </g>
     <g id="text_6">
      <!-- 15.0 -->
      <g style="fill: #262626" transform="translate(496.615803 388.598281) scale(0.11 -0.11)">
       <use xlink:href="#DejaVuSans-31"/>
       <use xlink:href="#DejaVuSans-35" transform="translate(63.623047 0)"/>
       <use xlink:href="#DejaVuSans-2e" transform="translate(127.246094 0)"/>
       <use xlink:href="#DejaVuSans-30" transform="translate(159.033203 0)"/>
      </g>
     </g>
    </g>
    <g id="xtick_7">
     <g id="line2d_7">
      <path d="M 587.797838 370.74 
L 587.797838 22.32 
" clip-path="url(#pf4f51929ef)" style="fill: none; stroke: #cccccc; stroke-linecap: round"/>
     </g>
     <g id="text_7">
      <!-- 17.5 -->
      <g style="fill: #262626" transform="translate(575.551745 388.598281) scale(0.11 -0.11)">
       <use xlink:href="#DejaVuSans-31"/>
       <use xlink:href="#DejaVuSans-37" transform="translate(63.623047 0)"/>
       <use xlink:href="#DejaVuSans-2e" transform="translate(127.246094 0)"/>
       <use xlink:href="#DejaVuSans-35" transform="translate(159.033203 0)"/>
      </g>
     </g>
    </g>
    <g id="xtick_8">
     <g id="line2d_8">
      <path d="M 666.73378 370.74 
L 666.73378 22.32 
" clip-path="url(#pf4f51929ef)" style="fill: none; stroke: #cccccc; stroke-linecap: round"/>
     </g>
     <g id="text_8">
      <!-- 20.0 -->
      <g style="fill: #262626" transform="translate(654.487686 388.598281) scale(0.11 -0.11)">
       <use xlink:href="#DejaVuSans-32"/>
       <use xlink:href="#DejaVuSans-30" transform="translate(63.623047 0)"/>
       <use xlink:href="#DejaVuSans-2e" transform="translate(127.246094 0)"/>
       <use xlink:href="#DejaVuSans-30" transform="translate(159.033203 0)"/>
      </g>
     </g>
    </g>
    <g id="text_9">
     <!-- $N$ (system particles) -->
     <g style="fill: #262626" transform="translate(313.401437 404.005938) scale(0.12 -0.12)">
      <defs>
       <path id="DejaVuSans-Oblique-4e" d="M 1081 4666 
L 1931 4666 
L 3219 666 
L 4000 4666 
L 4616 4666 
L 3706 0 
L 2853 0 
L 1569 4025 
L 788 0 
L 172 0 
L 1081 4666 
z
" transform="scale(0.015625)"/>
       <path id="DejaVuSans-20" transform="scale(0.015625)"/>
       <path id="DejaVuSans-28" d="M 1984 4856 
Q 1566 4138 1362 3434 
Q 1159 2731 1159 2009 
Q 1159 1288 1364 580 
Q 1569 -128 1984 -844 
L 1484 -844 
Q 1016 -109 783 600 
Q 550 1309 550 2009 
Q 550 2706 781 3412 
Q 1013 4119 1484 4856 
L 1984 4856 
z
" transform="scale(0.015625)"/>
       <path id="DejaVuSans-73" d="M 2834 3397 
L 2834 2853 
Q 2591 2978 2328 3040 
Q 2066 3103 1784 3103 
Q 1356 3103 1142 2972 
Q 928 2841 928 2578 
Q 928 2378 1081 2264 
Q 1234 2150 1697 2047 
L 1894 2003 
Q 2506 1872 2764 1633 
Q 3022 1394 3022 966 
Q 3022 478 2636 193 
Q 2250 -91 1575 -91 
Q 1294 -91 989 -36 
Q 684 19 347 128 
L 347 722 
Q 666 556 975 473 
Q 1284 391 1588 391 
Q 1994 391 2212 530 
Q 2431 669 2431 922 
Q 2431 1156 2273 1281 
Q 2116 1406 1581 1522 
L 1381 1569 
Q 847 1681 609 1914 
Q 372 2147 372 2553 
Q 372 3047 722 3315 
Q 1072 3584 1716 3584 
Q 2034 3584 2315 3537 
Q 2597 3491 2834 3397 
z
" transform="scale(0.015625)"/>
       <path id="DejaVuSans-79" d="M 2059 -325 
Q 1816 -950 1584 -1140 
Q 1353 -1331 966 -1331 
L 506 -1331 
L 506 -850 
L 844 -850 
Q 1081 -850 1212 -737 
Q 1344 -625 1503 -206 
L 1606 56 
L 191 3500 
L 800 3500 
L 1894 763 
L 2988 3500 
L 3597 3500 
L 2059 -325 
z
" transform="scale(0.015625)"/>
       <path id="DejaVuSans-74" d="M 1172 4494 
L 1172 3500 
L 2356 3500 
L 2356 3053 
L 1172 3053 
L 1172 1153 
Q 1172 725 1289 603 
Q 1406 481 1766 481 
L 2356 481 
L 2356 0 
L 1766 0 
Q 1100 0 847 248 
Q 594 497 594 1153 
L 594 3053 
L 172 3053 
L 172 3500 
L 594 3500 
L 594 4494 
L 1172 4494 
z
" transform="scale(0.015625)"/>
       <path id="DejaVuSans-65" d="M 3597 1894 
L 3597 1613 
L 953 1613 
Q 991 1019 1311 708 
Q 1631 397 2203 397 
Q 2534 397 2845 478 
Q 3156 559 3463 722 
L 3463 178 
Q 3153 47 2828 -22 
Q 2503 -91 2169 -91 
Q 1331 -91 842 396 
Q 353 884 353 1716 
Q 353 2575 817 3079 
Q 1281 3584 2069 3584 
Q 2775 3584 3186 3129 
Q 3597 2675 3597 1894 
z
M 3022 2063 
Q 3016 2534 2758 2815 
Q 2500 3097 2075 3097 
Q 1594 3097 1305 2825 
Q 1016 2553 972 2059 
L 3022 2063 
z
" transform="scale(0.015625)"/>
       <path id="DejaVuSans-6d" d="M 3328 2828 
Q 3544 3216 3844 3400 
Q 4144 3584 4550 3584 
Q 5097 3584 5394 3201 
Q 5691 2819 5691 2113 
L 5691 0 
L 5113 0 
L 5113 2094 
Q 5113 2597 4934 2840 
Q 4756 3084 4391 3084 
Q 3944 3084 3684 2787 
Q 3425 2491 3425 1978 
L 3425 0 
L 2847 0 
L 2847 2094 
Q 2847 2600 2669 2842 
Q 2491 3084 2119 3084 
Q 1678 3084 1418 2786 
Q 1159 2488 1159 1978 
L 1159 0 
L 581 0 
L 581 3500 
L 1159 3500 
L 1159 2956 
Q 1356 3278 1631 3431 
Q 1906 3584 2284 3584 
Q 2666 3584 2933 3390 
Q 3200 3197 3328 2828 
z
" transform="scale(0.015625)"/>
       <path id="DejaVuSans-70" d="M 1159 525 
L 1159 -1331 
L 581 -1331 
L 581 3500 
L 1159 3500 
L 1159 2969 
Q 1341 3281 1617 3432 
Q 1894 3584 2278 3584 
Q 2916 3584 3314 3078 
Q 3713 2572 3713 1747 
Q 3713 922 3314 415 
Q 2916 -91 2278 -91 
Q 1894 -91 1617 61 
Q 1341 213 1159 525 
z
M 3116 1747 
Q 3116 2381 2855 2742 
Q 2594 3103 2138 3103 
Q 1681 3103 1420 2742 
Q 1159 2381 1159 1747 
Q 1159 1113 1420 752 
Q 1681 391 2138 391 
Q 2594 391 2855 752 
Q 3116 1113 3116 1747 
z
" transform="scale(0.015625)"/>
       <path id="DejaVuSans-61" d="M 2194 1759 
Q 1497 1759 1228 1600 
Q 959 1441 959 1056 
Q 959 750 1161 570 
Q 1363 391 1709 391 
Q 2188 391 2477 730 
Q 2766 1069 2766 1631 
L 2766 1759 
L 2194 1759 
z
M 3341 1997 
L 3341 0 
L 2766 0 
L 2766 531 
Q 2569 213 2275 61 
Q 1981 -91 1556 -91 
Q 1019 -91 701 211 
Q 384 513 384 1019 
Q 384 1609 779 1909 
Q 1175 2209 1959 2209 
L 2766 2209 
L 2766 2266 
Q 2766 2663 2505 2880 
Q 2244 3097 1772 3097 
Q 1472 3097 1187 3025 
Q 903 2953 641 2809 
L 641 3341 
Q 956 3463 1253 3523 
Q 1550 3584 1831 3584 
Q 2591 3584 2966 3190 
Q 3341 2797 3341 1997 
z
" transform="scale(0.015625)"/>
       <path id="DejaVuSans-72" d="M 2631 2963 
Q 2534 3019 2420 3045 
Q 2306 3072 2169 3072 
Q 1681 3072 1420 2755 
Q 1159 2438 1159 1844 
L 1159 0 
L 581 0 
L 581 3500 
L 1159 3500 
L 1159 2956 
Q 1341 3275 1631 3429 
Q 1922 3584 2338 3584 
Q 2397 3584 2469 3576 
Q 2541 3569 2628 3553 
L 2631 2963 
z
" transform="scale(0.015625)"/>
       <path id="DejaVuSans-69" d="M 603 3500 
L 1178 3500 
L 1178 0 
L 603 0 
L 603 3500 
z
M 603 4863 
L 1178 4863 
L 1178 4134 
L 603 4134 
L 603 4863 
z
" transform="scale(0.015625)"/>
       <path id="DejaVuSans-63" d="M 3122 3366 
L 3122 2828 
Q 2878 2963 2633 3030 
Q 2388 3097 2138 3097 
Q 1578 3097 1268 2742 
Q 959 2388 959 1747 
Q 959 1106 1268 751 
Q 1578 397 2138 397 
Q 2388 397 2633 464 
Q 2878 531 3122 666 
L 3122 134 
Q 2881 22 2623 -34 
Q 2366 -91 2075 -91 
Q 1284 -91 818 406 
Q 353 903 353 1747 
Q 353 2603 823 3093 
Q 1294 3584 2113 3584 
Q 2378 3584 2631 3529 
Q 2884 3475 3122 3366 
z
" transform="scale(0.015625)"/>
       <path id="DejaVuSans-6c" d="M 603 4863 
L 1178 4863 
L 1178 0 
L 603 0 
L 603 4863 
z
" transform="scale(0.015625)"/>
       <path id="DejaVuSans-29" d="M 513 4856 
L 1013 4856 
Q 1481 4119 1714 3412 
Q 1947 2706 1947 2009 
Q 1947 1309 1714 600 
Q 1481 -109 1013 -844 
L 513 -844 
Q 928 -128 1133 580 
Q 1338 1288 1338 2009 
Q 1338 2731 1133 3434 
Q 928 4138 513 4856 
z
" transform="scale(0.015625)"/>
      </defs>
      <use xlink:href="#DejaVuSans-Oblique-4e" transform="translate(0 0.015625)"/>
      <use xlink:href="#DejaVuSans-20" transform="translate(74.804688 0.015625)"/>
      <use xlink:href="#DejaVuSans-28" transform="translate(106.591797 0.015625)"/>
      <use xlink:href="#DejaVuSans-73" transform="translate(145.605469 0.015625)"/>
      <use xlink:href="#DejaVuSans-79" transform="translate(197.705078 0.015625)"/>
      <use xlink:href="#DejaVuSans-73" transform="translate(256.884766 0.015625)"/>
      <use xlink:href="#DejaVuSans-74" transform="translate(308.984375 0.015625)"/>
      <use xlink:href="#DejaVuSans-65" transform="translate(348.193359 0.015625)"/>
      <use xlink:href="#DejaVuSans-6d" transform="translate(409.716797 0.015625)"/>
      <use xlink:href="#DejaVuSans-20" transform="translate(507.128906 0.015625)"/>
      <use xlink:href="#DejaVuSans-70" transform="translate(538.916016 0.015625)"/>
      <use xlink:href="#DejaVuSans-61" transform="translate(602.392578 0.015625)"/>
      <use xlink:href="#DejaVuSans-72" transform="translate(663.671875 0.015625)"/>
      <use xlink:href="#DejaVuSans-74" transform="translate(704.785156 0.015625)"/>
      <use xlink:href="#DejaVuSans-69" transform="translate(743.994141 0.015625)"/>
      <use xlink:href="#DejaVuSans-63" transform="translate(771.777344 0.015625)"/>
      <use xlink:href="#DejaVuSans-6c" transform="translate(826.757812 0.015625)"/>
      <use xlink:href="#DejaVuSans-65" transform="translate(854.541016 0.015625)"/>
      <use xlink:href="#DejaVuSans-73" transform="translate(916.064453 0.015625)"/>
      <use xlink:href="#DejaVuSans-29" transform="translate(968.164062 0.015625)"/>
     </g>
    </g>
   </g>
   <g id="matplotlib.axis_2">
    <g id="ytick_1">
     <g id="line2d_9">
      <path d="M 51.033438 358.067626 
L 696.729437 358.067626 
" clip-path="url(#pf4f51929ef)" style="fill: none; stroke: #cccccc; stroke-linecap: round"/>
     </g>
     <g id="text_10">
      <!-- 1.0 -->
      <g style="fill: #262626" transform="translate(24.04 362.246767) scale(0.11 -0.11)">
       <use xlink:href="#DejaVuSans-31"/>
       <use xlink:href="#DejaVuSans-2e" transform="translate(63.623047 0)"/>
       <use xlink:href="#DejaVuSans-30" transform="translate(95.410156 0)"/>
      </g>
     </g>
    </g>
    <g id="ytick_2">
     <g id="line2d_10">
      <path d="M 51.033438 317.176175 
L 696.729437 317.176175 
" clip-path="url(#pf4f51929ef)" style="fill: none; stroke: #cccccc; stroke-linecap: round"/>
     </g>
     <g id="text_11">
      <!-- 1.5 -->
      <g style="fill: #262626" transform="translate(24.04 321.355316) scale(0.11 -0.11)">
       <use xlink:href="#DejaVuSans-31"/>
       <use xlink:href="#DejaVuSans-2e" transform="translate(63.623047 0)"/>
       <use xlink:href="#DejaVuSans-35" transform="translate(95.410156 0)"/>
      </g>
     </g>
    </g>
    <g id="ytick_3">
     <g id="line2d_11">
      <path d="M 51.033438 276.284724 
L 696.729437 276.284724 
" clip-path="url(#pf4f51929ef)" style="fill: none; stroke: #cccccc; stroke-linecap: round"/>
     </g>
     <g id="text_12">
      <!-- 2.0 -->
      <g style="fill: #262626" transform="translate(24.04 280.463865) scale(0.11 -0.11)">
       <use xlink:href="#DejaVuSans-32"/>
       <use xlink:href="#DejaVuSans-2e" transform="translate(63.623047 0)"/>
       <use xlink:href="#DejaVuSans-30" transform="translate(95.410156 0)"/>
      </g>
     </g>
    </g>
    <g id="ytick_4">
     <g id="line2d_12">
      <path d="M 51.033438 235.393273 
L 696.729437 235.393273 
" clip-path="url(#pf4f51929ef)" style="fill: none; stroke: #cccccc; stroke-linecap: round"/>
     </g>
     <g id="text_13">
      <!-- 2.5 -->
      <g style="fill: #262626" transform="translate(24.04 239.572413) scale(0.11 -0.11)">
       <use xlink:href="#DejaVuSans-32"/>
       <use xlink:href="#DejaVuSans-2e" transform="translate(63.623047 0)"/>
       <use xlink:href="#DejaVuSans-35" transform="translate(95.410156 0)"/>
      </g>
     </g>
    </g>
    <g id="ytick_5">
     <g id="line2d_13">
      <path d="M 51.033438 194.501822 
L 696.729437 194.501822 
" clip-path="url(#pf4f51929ef)" style="fill: none; stroke: #cccccc; stroke-linecap: round"/>
     </g>
     <g id="text_14">
      <!-- 3.0 -->
      <g style="fill: #262626" transform="translate(24.04 198.680962) scale(0.11 -0.11)">
       <defs>
        <path id="DejaVuSans-33" d="M 2597 2516 
Q 3050 2419 3304 2112 
Q 3559 1806 3559 1356 
Q 3559 666 3084 287 
Q 2609 -91 1734 -91 
Q 1441 -91 1130 -33 
Q 819 25 488 141 
L 488 750 
Q 750 597 1062 519 
Q 1375 441 1716 441 
Q 2309 441 2620 675 
Q 2931 909 2931 1356 
Q 2931 1769 2642 2001 
Q 2353 2234 1838 2234 
L 1294 2234 
L 1294 2753 
L 1863 2753 
Q 2328 2753 2575 2939 
Q 2822 3125 2822 3475 
Q 2822 3834 2567 4026 
Q 2313 4219 1838 4219 
Q 1578 4219 1281 4162 
Q 984 4106 628 3988 
L 628 4550 
Q 988 4650 1302 4700 
Q 1616 4750 1894 4750 
Q 2613 4750 3031 4423 
Q 3450 4097 3450 3541 
Q 3450 3153 3228 2886 
Q 3006 2619 2597 2516 
z
" transform="scale(0.015625)"/>
       </defs>
       <use xlink:href="#DejaVuSans-33"/>
       <use xlink:href="#DejaVuSans-2e" transform="translate(63.623047 0)"/>
       <use xlink:href="#DejaVuSans-30" transform="translate(95.410156 0)"/>
      </g>
     </g>
    </g>
    <g id="ytick_6">
     <g id="line2d_14">
      <path d="M 51.033438 153.610371 
L 696.729437 153.610371 
" clip-path="url(#pf4f51929ef)" style="fill: none; stroke: #cccccc; stroke-linecap: round"/>
     </g>
     <g id="text_15">
      <!-- 3.5 -->
      <g style="fill: #262626" transform="translate(24.04 157.789511) scale(0.11 -0.11)">
       <use xlink:href="#DejaVuSans-33"/>
       <use xlink:href="#DejaVuSans-2e" transform="translate(63.623047 0)"/>
       <use xlink:href="#DejaVuSans-35" transform="translate(95.410156 0)"/>
      </g>
     </g>
    </g>
    <g id="ytick_7">
     <g id="line2d_15">
      <path d="M 51.033438 112.71892 
L 696.729437 112.71892 
" clip-path="url(#pf4f51929ef)" style="fill: none; stroke: #cccccc; stroke-linecap: round"/>
     </g>
     <g id="text_16">
      <!-- 4.0 -->
      <g style="fill: #262626" transform="translate(24.04 116.89806) scale(0.11 -0.11)">
       <defs>
        <path id="DejaVuSans-34" d="M 2419 4116 
L 825 1625 
L 2419 1625 
L 2419 4116 
z
M 2253 4666 
L 3047 4666 
L 3047 1625 
L 3713 1625 
L 3713 1100 
L 3047 1100 
L 3047 0 
L 2419 0 
L 2419 1100 
L 313 1100 
L 313 1709 
L 2253 4666 
z
" transform="scale(0.015625)"/>
       </defs>
       <use xlink:href="#DejaVuSans-34"/>
       <use xlink:href="#DejaVuSans-2e" transform="translate(63.623047 0)"/>
       <use xlink:href="#DejaVuSans-30" transform="translate(95.410156 0)"/>
      </g>
     </g>
    </g>
    <g id="ytick_8">
     <g id="line2d_16">
      <path d="M 51.033438 71.827468 
L 696.729437 71.827468 
" clip-path="url(#pf4f51929ef)" style="fill: none; stroke: #cccccc; stroke-linecap: round"/>
     </g>
     <g id="text_17">
      <!-- 4.5 -->
      <g style="fill: #262626" transform="translate(24.04 76.006609) scale(0.11 -0.11)">
       <use xlink:href="#DejaVuSans-34"/>
       <use xlink:href="#DejaVuSans-2e" transform="translate(63.623047 0)"/>
       <use xlink:href="#DejaVuSans-35" transform="translate(95.410156 0)"/>
      </g>
     </g>
    </g>
    <g id="ytick_9">
     <g id="line2d_17">
      <path d="M 51.033438 30.936017 
L 696.729437 30.936017 
" clip-path="url(#pf4f51929ef)" style="fill: none; stroke: #cccccc; stroke-linecap: round"/>
     </g>
     <g id="text_18">
      <!-- 5.0 -->
      <g style="fill: #262626" transform="translate(24.04 35.115158) scale(0.11 -0.11)">
       <use xlink:href="#DejaVuSans-35"/>
       <use xlink:href="#DejaVuSans-2e" transform="translate(63.623047 0)"/>
       <use xlink:href="#DejaVuSans-30" transform="translate(95.410156 0)"/>
      </g>
     </g>
    </g>
    <g id="text_19">
     <!-- $R(N) = \Delta\omega_{\mathrm{SQL}} / \Delta\omega_{\mathrm{opt}}$ -->
     <g style="fill: #262626" transform="translate(16.32 253.05) rotate(-90) scale(0.12 -0.12)">
      <defs>
       <path id="DejaVuSans-Oblique-52" d="M 1613 4147 
L 1294 2491 
L 2106 2491 
Q 2584 2491 2879 2755 
Q 3175 3019 3175 3444 
Q 3175 3784 2976 3965 
Q 2778 4147 2406 4147 
L 1613 4147 
z
M 2772 2241 
Q 2972 2194 3105 2009 
Q 3238 1825 3413 1275 
L 3809 0 
L 3144 0 
L 2778 1197 
Q 2638 1659 2453 1815 
Q 2269 1972 1888 1972 
L 1191 1972 
L 806 0 
L 172 0 
L 1081 4666 
L 2503 4666 
Q 3150 4666 3495 4373 
Q 3841 4081 3841 3531 
Q 3841 3044 3547 2687 
Q 3253 2331 2772 2241 
z
" transform="scale(0.015625)"/>
       <path id="DejaVuSans-3d" d="M 678 2906 
L 4684 2906 
L 4684 2381 
L 678 2381 
L 678 2906 
z
M 678 1631 
L 4684 1631 
L 4684 1100 
L 678 1100 
L 678 1631 
z
" transform="scale(0.015625)"/>
       <path id="DejaVuSans-394" d="M 2188 4044 
L 906 525 
L 3472 525 
L 2188 4044 
z
M 50 0 
L 1831 4666 
L 2547 4666 
L 4325 0 
L 50 0 
z
" transform="scale(0.015625)"/>
       <path id="DejaVuSans-Oblique-3c9" d="M 1369 -91 
Q 72 -91 434 1766 
Q 575 2500 1256 3500 
L 1875 3500 
Q 1231 2500 1088 1750 
Q 819 397 1519 397 
Q 2166 397 2478 2078 
L 3009 2078 
Q 2669 388 3316 397 
Q 4013 403 4275 1750 
Q 4419 2500 4169 3500 
L 4788 3500 
Q 5075 2500 4934 1766 
Q 4578 -94 3278 -91 
Q 2428 -88 2503 844 
Q 2194 -91 1369 -91 
z
" transform="scale(0.015625)"/>
       <path id="DejaVuSans-53" d="M 3425 4513 
L 3425 3897 
Q 3066 4069 2747 4153 
Q 2428 4238 2131 4238 
Q 1616 4238 1336 4038 
Q 1056 3838 1056 3469 
Q 1056 3159 1242 3001 
Q 1428 2844 1947 2747 
L 2328 2669 
Q 3034 2534 3370 2195 
Q 3706 1856 3706 1288 
Q 3706 609 3251 259 
Q 2797 -91 1919 -91 
Q 1588 -91 1214 -16 
Q 841 59 441 206 
L 441 856 
Q 825 641 1194 531 
Q 1563 422 1919 422 
Q 2459 422 2753 634 
Q 3047 847 3047 1241 
Q 3047 1584 2836 1778 
Q 2625 1972 2144 2069 
L 1759 2144 
Q 1053 2284 737 2584 
Q 422 2884 422 3419 
Q 422 4038 858 4394 
Q 1294 4750 2059 4750 
Q 2388 4750 2728 4690 
Q 3069 4631 3425 4513 
z
" transform="scale(0.015625)"/>
       <path id="DejaVuSans-51" d="M 2522 4238 
Q 1834 4238 1429 3725 
Q 1025 3213 1025 2328 
Q 1025 1447 1429 934 
Q 1834 422 2522 422 
Q 3209 422 3611 934 
Q 4013 1447 4013 2328 
Q 4013 3213 3611 3725 
Q 3209 4238 2522 4238 
z
M 3406 84 
L 4238 -825 
L 3475 -825 
L 2784 -78 
Q 2681 -84 2626 -87 
Q 2572 -91 2522 -91 
Q 1538 -91 948 567 
Q 359 1225 359 2328 
Q 359 3434 948 4092 
Q 1538 4750 2522 4750 
Q 3503 4750 4090 4092 
Q 4678 3434 4678 2328 
Q 4678 1516 4351 937 
Q 4025 359 3406 84 
z
" transform="scale(0.015625)"/>
       <path id="DejaVuSans-4c" d="M 628 4666 
L 1259 4666 
L 1259 531 
L 3531 531 
L 3531 0 
L 628 0 
L 628 4666 
z
" transform="scale(0.015625)"/>
       <path id="DejaVuSans-2f" d="M 1625 4666 
L 2156 4666 
L 531 -594 
L 0 -594 
L 1625 4666 
z
" transform="scale(0.015625)"/>
       <path id="DejaVuSans-6f" d="M 1959 3097 
Q 1497 3097 1228 2736 
Q 959 2375 959 1747 
Q 959 1119 1226 758 
Q 1494 397 1959 397 
Q 2419 397 2687 759 
Q 2956 1122 2956 1747 
Q 2956 2369 2687 2733 
Q 2419 3097 1959 3097 
z
M 1959 3584 
Q 2709 3584 3137 3096 
Q 3566 2609 3566 1747 
Q 3566 888 3137 398 
Q 2709 -91 1959 -91 
Q 1206 -91 779 398 
Q 353 888 353 1747 
Q 353 2609 779 3096 
Q 1206 3584 1959 3584 
z
" transform="scale(0.015625)"/>
      </defs>
      <use xlink:href="#DejaVuSans-Oblique-52" transform="translate(0 0.125)"/>
      <use xlink:href="#DejaVuSans-28" transform="translate(69.482422 0.125)"/>
      <use xlink:href="#DejaVuSans-Oblique-4e" transform="translate(108.496094 0.125)"/>
      <use xlink:href="#DejaVuSans-29" transform="translate(183.300781 0.125)"/>
      <use xlink:href="#DejaVuSans-3d" transform="translate(241.796875 0.125)"/>
      <use xlink:href="#DejaVuSans-394" transform="translate(345.068359 0.125)"/>
      <use xlink:href="#DejaVuSans-Oblique-3c9" transform="translate(413.476562 0.125)"/>
      <use xlink:href="#DejaVuSans-53" transform="translate(497.216797 -16.28125) scale(0.7)"/>
      <use xlink:href="#DejaVuSans-51" transform="translate(541.650391 -16.28125) scale(0.7)"/>
      <use xlink:href="#DejaVuSans-4c" transform="translate(596.748047 -16.28125) scale(0.7)"/>
      <use xlink:href="#DejaVuSans-2f" transform="translate(638.481445 0.125)"/>
      <use xlink:href="#DejaVuSans-394" transform="translate(672.172852 0.125)"/>
      <use xlink:href="#DejaVuSans-Oblique-3c9" transform="translate(740.581055 0.125)"/>
      <use xlink:href="#DejaVuSans-6f" transform="translate(824.321289 -16.28125) scale(0.7)"/>
      <use xlink:href="#DejaVuSans-70" transform="translate(867.148438 -16.28125) scale(0.7)"/>
      <use xlink:href="#DejaVuSans-74" transform="translate(911.582031 -16.28125) scale(0.7)"/>
     </g>
    </g>
   </g>
   <g id="line2d_18">
    <path d="M 66.820626 48.874722 
L 98.395002 188.340685 
L 129.969379 294.399623 
L 161.543755 312.668035 
L 193.118132 318.740798 
L 224.692508 322.979892 
L 256.266885 326.152542 
L 287.841261 328.640951 
L 319.415638 330.659537 
L 350.990015 332.339095 
L 382.564391 333.764548 
L 414.138768 334.99375 
L 445.713144 336.067662 
L 477.287521 337.016207 
L 508.861897 337.86182 
L 540.436274 338.621699 
L 572.01065 339.309276 
L 603.585027 339.935218 
L 635.159403 340.508114 
L 666.73378 341.034972 
" clip-path="url(#pf4f51929ef)" style="fill: none; stroke: #414487; stroke-width: 1.5; stroke-linecap: round"/>
    <defs>
     <path id="mcf57ec0a9b" d="M 0 3 
C 0.795609 3 1.55874 2.683901 2.12132 2.12132 
C 2.683901 1.55874 3 0.795609 3 0 
C 3 -0.795609 2.683901 -1.55874 2.12132 -2.12132 
C 1.55874 -2.683901 0.795609 -3 0 -3 
C -0.795609 -3 -1.55874 -2.683901 -2.12132 -2.12132 
C -2.683901 -1.55874 -3 -0.795609 -3 0 
C -3 0.795609 -2.683901 1.55874 -2.12132 2.12132 
C -1.55874 2.683901 -0.795609 3 0 3 
z
" style="stroke: #414487"/>
    </defs>
    <g clip-path="url(#pf4f51929ef)">
     <use xlink:href="#mcf57ec0a9b" x="66.820626" y="48.874722" style="fill: #414487; stroke: #414487"/>
     <use xlink:href="#mcf57ec0a9b" x="98.395002" y="188.340685" style="fill: #414487; stroke: #414487"/>
     <use xlink:href="#mcf57ec0a9b" x="129.969379" y="294.399623" style="fill: #414487; stroke: #414487"/>
     <use xlink:href="#mcf57ec0a9b" x="161.543755" y="312.668035" style="fill: #414487; stroke: #414487"/>
     <use xlink:href="#mcf57ec0a9b" x="193.118132" y="318.740798" style="fill: #414487; stroke: #414487"/>
     <use xlink:href="#mcf57ec0a9b" x="224.692508" y="322.979892" style="fill: #414487; stroke: #414487"/>
     <use xlink:href="#mcf57ec0a9b" x="256.266885" y="326.152542" style="fill: #414487; stroke: #414487"/>
     <use xlink:href="#mcf57ec0a9b" x="287.841261" y="328.640951" style="fill: #414487; stroke: #414487"/>
     <use xlink:href="#mcf57ec0a9b" x="319.415638" y="330.659537" style="fill: #414487; stroke: #414487"/>
     <use xlink:href="#mcf57ec0a9b" x="350.990015" y="332.339095" style="fill: #414487; stroke: #414487"/>
     <use xlink:href="#mcf57ec0a9b" x="382.564391" y="333.764548" style="fill: #414487; stroke: #414487"/>
     <use xlink:href="#mcf57ec0a9b" x="414.138768" y="334.99375" style="fill: #414487; stroke: #414487"/>
     <use xlink:href="#mcf57ec0a9b" x="445.713144" y="336.067662" style="fill: #414487; stroke: #414487"/>
     <use xlink:href="#mcf57ec0a9b" x="477.287521" y="337.016207" style="fill: #414487; stroke: #414487"/>
     <use xlink:href="#mcf57ec0a9b" x="508.861897" y="337.86182" style="fill: #414487; stroke: #414487"/>
     <use xlink:href="#mcf57ec0a9b" x="540.436274" y="338.621699" style="fill: #414487; stroke: #414487"/>
     <use xlink:href="#mcf57ec0a9b" x="572.01065" y="339.309276" style="fill: #414487; stroke: #414487"/>
     <use xlink:href="#mcf57ec0a9b" x="603.585027" y="339.935218" style="fill: #414487; stroke: #414487"/>
     <use xlink:href="#mcf57ec0a9b" x="635.159403" y="340.508114" style="fill: #414487; stroke: #414487"/>
     <use xlink:href="#mcf57ec0a9b" x="666.73378" y="341.034972" style="fill: #414487; stroke: #414487"/>
    </g>
   </g>
   <g id="line2d_19">
    <path d="M 66.820626 38.157273 
L 98.395002 230.433008 
L 129.969379 242.270281 
L 161.543755 293.884684 
L 193.118132 308.965476 
L 224.692508 325.423718 
L 256.266885 332.798023 
L 287.841261 335.028338 
L 319.415638 336.806143 
L 350.990015 338.264042 
L 382.564391 339.486235 
L 414.138768 340.529025 
L 445.713144 341.431643 
L 477.287521 342.222351 
L 508.861897 342.92208 
L 540.436274 343.546702 
L 572.01065 344.108491 
L 603.585027 344.617106 
L 635.159403 345.080263 
L 666.73378 345.50421 
" clip-path="url(#pf4f51929ef)" style="fill: none; stroke: #2c728e; stroke-width: 1.5; stroke-linecap: round"/>
    <defs>
     <path id="mceb033ec53" d="M 0 3 
C 0.795609 3 1.55874 2.683901 2.12132 2.12132 
C 2.683901 1.55874 3 0.795609 3 0 
C 3 -0.795609 2.683901 -1.55874 2.12132 -2.12132 
C 1.55874 -2.683901 0.795609 -3 0 -3 
C -0.795609 -3 -1.55874 -2.683901 -2.12132 -2.12132 
C -2.683901 -1.55874 -3 -0.795609 -3 0 
C -3 0.795609 -2.683901 1.55874 -2.12132 2.12132 
C -1.55874 2.683901 -0.795609 3 0 3 
z
" style="stroke: #2c728e"/>
    </defs>
    <g clip-path="url(#pf4f51929ef)">
     <use xlink:href="#mceb033ec53" x="66.820626" y="38.157273" style="fill: #2c728e; stroke: #2c728e"/>
     <use xlink:href="#mceb033ec53" x="98.395002" y="230.433008" style="fill: #2c728e; stroke: #2c728e"/>
     <use xlink:href="#mceb033ec53" x="129.969379" y="242.270281" style="fill: #2c728e; stroke: #2c728e"/>
     <use xlink:href="#mceb033ec53" x="161.543755" y="293.884684" style="fill: #2c728e; stroke: #2c728e"/>
     <use xlink:href="#mceb033ec53" x="193.118132" y="308.965476" style="fill: #2c728e; stroke: #2c728e"/>
     <use xlink:href="#mceb033ec53" x="224.692508" y="325.423718" style="fill: #2c728e; stroke: #2c728e"/>
     <use xlink:href="#mceb033ec53" x="256.266885" y="332.798023" style="fill: #2c728e; stroke: #2c728e"/>
     <use xlink:href="#mceb033ec53" x="287.841261" y="335.028338" style="fill: #2c728e; stroke: #2c728e"/>
     <use xlink:href="#mceb033ec53" x="319.415638" y="336.806143" style="fill: #2c728e; stroke: #2c728e"/>
     <use xlink:href="#mceb033ec53" x="350.990015" y="338.264042" style="fill: #2c728e; stroke: #2c728e"/>
     <use xlink:href="#mceb033ec53" x="382.564391" y="339.486235" style="fill: #2c728e; stroke: #2c728e"/>
     <use xlink:href="#mceb033ec53" x="414.138768" y="340.529025" style="fill: #2c728e; stroke: #2c728e"/>
     <use xlink:href="#mceb033ec53" x="445.713144" y="341.431643" style="fill: #2c728e; stroke: #2c728e"/>
     <use xlink:href="#mceb033ec53" x="477.287521" y="342.222351" style="fill: #2c728e; stroke: #2c728e"/>
     <use xlink:href="#mceb033ec53" x="508.861897" y="342.92208" style="fill: #2c728e; stroke: #2c728e"/>
     <use xlink:href="#mceb033ec53" x="540.436274" y="343.546702" style="fill: #2c728e; stroke: #2c728e"/>
     <use xlink:href="#mceb033ec53" x="572.01065" y="344.108491" style="fill: #2c728e; stroke: #2c728e"/>
     <use xlink:href="#mceb033ec53" x="603.585027" y="344.617106" style="fill: #2c728e; stroke: #2c728e"/>
     <use xlink:href="#mceb033ec53" x="635.159403" y="345.080263" style="fill: #2c728e; stroke: #2c728e"/>
     <use xlink:href="#mceb033ec53" x="666.73378" y="345.50421" style="fill: #2c728e; stroke: #2c728e"/>
    </g>
   </g>
   <g id="line2d_20">
    <path d="M 66.820626 89.155512 
L 98.395002 197.382179 
L 129.969379 261.320261 
L 161.543755 291.059305 
L 193.118132 299.862793 
L 224.692508 314.9175 
L 256.266885 324.38367 
L 287.841261 335.015203 
L 319.415638 340.14781 
L 350.990015 346.170505 
L 382.564391 346.934008 
L 414.138768 347.58333 
L 445.713144 348.143763 
L 477.287521 348.633453 
L 508.861897 349.065792 
L 540.436274 349.450902 
L 572.01065 349.796593 
L 603.585027 350.108994 
L 635.159403 350.39299 
L 666.73378 350.65253 
" clip-path="url(#pf4f51929ef)" style="fill: none; stroke: #1e9c89; stroke-width: 1.5; stroke-linecap: round"/>
    <defs>
     <path id="m0ff6bded9a" d="M 0 3 
C 0.795609 3 1.55874 2.683901 2.12132 2.12132 
C 2.683901 1.55874 3 0.795609 3 0 
C 3 -0.795609 2.683901 -1.55874 2.12132 -2.12132 
C 1.55874 -2.683901 0.795609 -3 0 -3 
C -0.795609 -3 -1.55874 -2.683901 -2.12132 -2.12132 
C -2.683901 -1.55874 -3 -0.795609 -3 0 
C -3 0.795609 -2.683901 1.55874 -2.12132 2.12132 
C -1.55874 2.683901 -0.795609 3 0 3 
z
" style="stroke: #1e9c89"/>
    </defs>
    <g clip-path="url(#pf4f51929ef)">
     <use xlink:href="#m0ff6bded9a" x="66.820626" y="89.155512" style="fill: #1e9c89; stroke: #1e9c89"/>
     <use xlink:href="#m0ff6bded9a" x="98.395002" y="197.382179" style="fill: #1e9c89; stroke: #1e9c89"/>
     <use xlink:href="#m0ff6bded9a" x="129.969379" y="261.320261" style="fill: #1e9c89; stroke: #1e9c89"/>
     <use xlink:href="#m0ff6bded9a" x="161.543755" y="291.059305" style="fill: #1e9c89; stroke: #1e9c89"/>
     <use xlink:href="#m0ff6bded9a" x="193.118132" y="299.862793" style="fill: #1e9c89; stroke: #1e9c89"/>
     <use xlink:href="#m0ff6bded9a" x="224.692508" y="314.9175" style="fill: #1e9c89; stroke: #1e9c89"/>
     <use xlink:href="#m0ff6bded9a" x="256.266885" y="324.38367" style="fill: #1e9c89; stroke: #1e9c89"/>
     <use xlink:href="#m0ff6bded9a" x="287.841261" y="335.015203" style="fill: #1e9c89; stroke: #1e9c89"/>
     <use xlink:href="#m0ff6bded9a" x="319.415638" y="340.14781" style="fill: #1e9c89; stroke: #1e9c89"/>
     <use xlink:href="#m0ff6bded9a" x="350.990015" y="346.170505" style="fill: #1e9c89; stroke: #1e9c89"/>
     <use xlink:href="#m0ff6bded9a" x="382.564391" y="346.934008" style="fill: #1e9c89; stroke: #1e9c89"/>
     <use xlink:href="#m0ff6bded9a" x="414.138768" y="347.58333" style="fill: #1e9c89; stroke: #1e9c89"/>
     <use xlink:href="#m0ff6bded9a" x="445.713144" y="348.143763" style="fill: #1e9c89; stroke: #1e9c89"/>
     <use xlink:href="#m0ff6bded9a" x="477.287521" y="348.633453" style="fill: #1e9c89; stroke: #1e9c89"/>
     <use xlink:href="#m0ff6bded9a" x="508.861897" y="349.065792" style="fill: #1e9c89; stroke: #1e9c89"/>
     <use xlink:href="#m0ff6bded9a" x="540.436274" y="349.450902" style="fill: #1e9c89; stroke: #1e9c89"/>
     <use xlink:href="#m0ff6bded9a" x="572.01065" y="349.796593" style="fill: #1e9c89; stroke: #1e9c89"/>
     <use xlink:href="#m0ff6bded9a" x="603.585027" y="350.108994" style="fill: #1e9c89; stroke: #1e9c89"/>
     <use xlink:href="#m0ff6bded9a" x="635.159403" y="350.39299" style="fill: #1e9c89; stroke: #1e9c89"/>
     <use xlink:href="#m0ff6bded9a" x="666.73378" y="350.65253" style="fill: #1e9c89; stroke: #1e9c89"/>
    </g>
   </g>
   <g id="line2d_21">
    <path d="M 66.820626 179.314193 
L 98.395002 232.818809 
L 129.969379 275.279378 
L 161.543755 321.29537 
L 193.118132 333.580266 
L 224.692508 347.907542 
L 256.266885 348.813214 
L 287.841261 349.54148 
L 319.415638 350.143295 
L 350.990015 350.651046 
L 382.564391 351.08652 
L 414.138768 351.465025 
L 445.713144 351.797683 
L 477.287521 352.092809 
L 508.861897 352.356757 
L 540.436274 352.594484 
L 572.01065 352.809916 
L 603.585027 353.006212 
L 635.159403 353.16017 
L 666.73378 353.311848 
" clip-path="url(#pf4f51929ef)" style="fill: none; stroke: #50c46a; stroke-width: 1.5; stroke-linecap: round"/>
    <defs>
     <path id="ma98669b836" d="M 0 3 
C 0.795609 3 1.55874 2.683901 2.12132 2.12132 
C 2.683901 1.55874 3 0.795609 3 0 
C 3 -0.795609 2.683901 -1.55874 2.12132 -2.12132 
C 1.55874 -2.683901 0.795609 -3 0 -3 
C -0.795609 -3 -1.55874 -2.683901 -2.12132 -2.12132 
C -2.683901 -1.55874 -3 -0.795609 -3 0 
C -3 0.795609 -2.683901 1.55874 -2.12132 2.12132 
C -1.55874 2.683901 -0.795609 3 0 3 
z
" style="stroke: #50c46a"/>
    </defs>
    <g clip-path="url(#pf4f51929ef)">
     <use xlink:href="#ma98669b836" x="66.820626" y="179.314193" style="fill: #50c46a; stroke: #50c46a"/>
     <use xlink:href="#ma98669b836" x="98.395002" y="232.818809" style="fill: #50c46a; stroke: #50c46a"/>
     <use xlink:href="#ma98669b836" x="129.969379" y="275.279378" style="fill: #50c46a; stroke: #50c46a"/>
     <use xlink:href="#ma98669b836" x="161.543755" y="321.29537" style="fill: #50c46a; stroke: #50c46a"/>
     <use xlink:href="#ma98669b836" x="193.118132" y="333.580266" style="fill: #50c46a; stroke: #50c46a"/>
     <use xlink:href="#ma98669b836" x="224.692508" y="347.907542" style="fill: #50c46a; stroke: #50c46a"/>
     <use xlink:href="#ma98669b836" x="256.266885" y="348.813214" style="fill: #50c46a; stroke: #50c46a"/>
     <use xlink:href="#ma98669b836" x="287.841261" y="349.54148" style="fill: #50c46a; stroke: #50c46a"/>
     <use xlink:href="#ma98669b836" x="319.415638" y="350.143295" style="fill: #50c46a; stroke: #50c46a"/>
     <use xlink:href="#ma98669b836" x="350.990015" y="350.651046" style="fill: #50c46a; stroke: #50c46a"/>
     <use xlink:href="#ma98669b836" x="382.564391" y="351.08652" style="fill: #50c46a; stroke: #50c46a"/>
     <use xlink:href="#ma98669b836" x="414.138768" y="351.465025" style="fill: #50c46a; stroke: #50c46a"/>
     <use xlink:href="#ma98669b836" x="445.713144" y="351.797683" style="fill: #50c46a; stroke: #50c46a"/>
     <use xlink:href="#ma98669b836" x="477.287521" y="352.092809" style="fill: #50c46a; stroke: #50c46a"/>
     <use xlink:href="#ma98669b836" x="508.861897" y="352.356757" style="fill: #50c46a; stroke: #50c46a"/>
     <use xlink:href="#ma98669b836" x="540.436274" y="352.594484" style="fill: #50c46a; stroke: #50c46a"/>
     <use xlink:href="#ma98669b836" x="572.01065" y="352.809916" style="fill: #50c46a; stroke: #50c46a"/>
     <use xlink:href="#ma98669b836" x="603.585027" y="353.006212" style="fill: #50c46a; stroke: #50c46a"/>
     <use xlink:href="#ma98669b836" x="635.159403" y="353.16017" style="fill: #50c46a; stroke: #50c46a"/>
     <use xlink:href="#ma98669b836" x="666.73378" y="353.311848" style="fill: #50c46a; stroke: #50c46a"/>
    </g>
   </g>
   <g id="line2d_22">
    <path d="M 66.820626 260.295159 
L 98.395002 291.871043 
L 129.969379 291.170491 
L 161.543755 320.735742 
L 193.118132 333.866656 
L 224.692508 350.245824 
L 256.266885 351.332358 
L 287.841261 351.979643 
L 319.415638 352.492316 
L 350.990015 352.910253 
L 382.564391 353.25869 
L 414.138768 353.554447 
L 445.713144 353.80921 
L 477.287521 353.899602 
L 508.861897 354.093464 
L 540.436274 354.401149 
L 572.01065 354.530932 
L 603.585027 354.666689 
L 635.159403 354.790046 
L 666.73378 354.902727 
" clip-path="url(#pf4f51929ef)" style="fill: none; stroke: #bddf26; stroke-width: 1.5; stroke-linecap: round"/>
    <defs>
     <path id="me536f10489" d="M 0 3 
C 0.795609 3 1.55874 2.683901 2.12132 2.12132 
C 2.683901 1.55874 3 0.795609 3 0 
C 3 -0.795609 2.683901 -1.55874 2.12132 -2.12132 
C 1.55874 -2.683901 0.795609 -3 0 -3 
C -0.795609 -3 -1.55874 -2.683901 -2.12132 -2.12132 
C -2.683901 -1.55874 -3 -0.795609 -3 0 
C -3 0.795609 -2.683901 1.55874 -2.12132 2.12132 
C -1.55874 2.683901 -0.795609 3 0 3 
z
" style="stroke: #bddf26"/>
    </defs>
    <g clip-path="url(#pf4f51929ef)">
     <use xlink:href="#me536f10489" x="66.820626" y="260.295159" style="fill: #bddf26; stroke: #bddf26"/>
     <use xlink:href="#me536f10489" x="98.395002" y="291.871043" style="fill: #bddf26; stroke: #bddf26"/>
     <use xlink:href="#me536f10489" x="129.969379" y="291.170491" style="fill: #bddf26; stroke: #bddf26"/>
     <use xlink:href="#me536f10489" x="161.543755" y="320.735742" style="fill: #bddf26; stroke: #bddf26"/>
     <use xlink:href="#me536f10489" x="193.118132" y="333.866656" style="fill: #bddf26; stroke: #bddf26"/>
     <use xlink:href="#me536f10489" x="224.692508" y="350.245824" style="fill: #bddf26; stroke: #bddf26"/>
     <use xlink:href="#me536f10489" x="256.266885" y="351.332358" style="fill: #bddf26; stroke: #bddf26"/>
     <use xlink:href="#me536f10489" x="287.841261" y="351.979643" style="fill: #bddf26; stroke: #bddf26"/>
     <use xlink:href="#me536f10489" x="319.415638" y="352.492316" style="fill: #bddf26; stroke: #bddf26"/>
     <use xlink:href="#me536f10489" x="350.990015" y="352.910253" style="fill: #bddf26; stroke: #bddf26"/>
     <use xlink:href="#me536f10489" x="382.564391" y="353.25869" style="fill: #bddf26; stroke: #bddf26"/>
     <use xlink:href="#me536f10489" x="414.138768" y="353.554447" style="fill: #bddf26; stroke: #bddf26"/>
     <use xlink:href="#me536f10489" x="445.713144" y="353.80921" style="fill: #bddf26; stroke: #bddf26"/>
     <use xlink:href="#me536f10489" x="477.287521" y="353.899602" style="fill: #bddf26; stroke: #bddf26"/>
     <use xlink:href="#me536f10489" x="508.861897" y="354.093464" style="fill: #bddf26; stroke: #bddf26"/>
     <use xlink:href="#me536f10489" x="540.436274" y="354.401149" style="fill: #bddf26; stroke: #bddf26"/>
     <use xlink:href="#me536f10489" x="572.01065" y="354.530932" style="fill: #bddf26; stroke: #bddf26"/>
     <use xlink:href="#me536f10489" x="603.585027" y="354.666689" style="fill: #bddf26; stroke: #bddf26"/>
     <use xlink:href="#me536f10489" x="635.159403" y="354.790046" style="fill: #bddf26; stroke: #bddf26"/>
     <use xlink:href="#me536f10489" x="666.73378" y="354.902727" style="fill: #bddf26; stroke: #bddf26"/>
    </g>
   </g>
   <g id="line2d_23">
    <path d="M 51.033438 358.067626 
L 696.729437 358.067626 
" clip-path="url(#pf4f51929ef)" style="fill: none; stroke-dasharray: 5.55,2.4; stroke-dashoffset: 0; stroke: #808080; stroke-opacity: 0.7; stroke-width: 1.5"/>
   </g>
   <g id="patch_3">
    <path d="M 51.033438 370.74 
L 51.033438 22.32 
" style="fill: none; stroke: #cccccc; stroke-width: 1.25; stroke-linejoin: miter; stroke-linecap: square"/>
   </g>
   <g id="patch_4">
    <path d="M 696.729437 370.74 
L 696.729437 22.32 
" style="fill: none; stroke: #cccccc; stroke-width: 1.25; stroke-linejoin: miter; stroke-linecap: square"/>
   </g>
   <g id="patch_5">
    <path d="M 51.033438 370.74 
L 696.729438 370.74 
" style="fill: none; stroke: #cccccc; stroke-width: 1.25; stroke-linejoin: miter; stroke-linecap: square"/>
   </g>
   <g id="patch_6">
    <path d="M 51.033438 22.32 
L 696.729438 22.32 
" style="fill: none; stroke: #cccccc; stroke-width: 1.25; stroke-linejoin: miter; stroke-linecap: square"/>
   </g>
   <g id="text_20">
    <!-- SQL-violation ratio vs system particle number $N$ -->
    <g style="fill: #262626" transform="translate(229.881437 16.32) scale(0.12 -0.12)">
     <defs>
      <path id="DejaVuSans-2d" d="M 313 2009 
L 1997 2009 
L 1997 1497 
L 313 1497 
L 313 2009 
z
" transform="scale(0.015625)"/>
      <path id="DejaVuSans-76" d="M 191 3500 
L 800 3500 
L 1894 563 
L 2988 3500 
L 3597 3500 
L 2284 0 
L 1503 0 
L 191 3500 
z
" transform="scale(0.015625)"/>
      <path id="DejaVuSans-6e" d="M 3513 2113 
L 3513 0 
L 2938 0 
L 2938 2094 
Q 2938 2591 2744 2837 
Q 2550 3084 2163 3084 
Q 1697 3084 1428 2787 
Q 1159 2491 1159 1978 
L 1159 0 
L 581 0 
L 581 3500 
L 1159 3500 
L 1159 2956 
Q 1366 3272 1645 3428 
Q 1925 3584 2291 3584 
Q 2894 3584 3203 3211 
Q 3513 2838 3513 2113 
z
" transform="scale(0.015625)"/>
      <path id="DejaVuSans-75" d="M 544 1381 
L 544 3500 
L 1119 3500 
L 1119 1403 
Q 1119 906 1312 657 
Q 1506 409 1894 409 
Q 2359 409 2629 706 
Q 2900 1003 2900 1516 
L 2900 3500 
L 3475 3500 
L 3475 0 
L 2900 0 
L 2900 538 
Q 2691 219 2414 64 
Q 2138 -91 1772 -91 
Q 1169 -91 856 284 
Q 544 659 544 1381 
z
M 1991 3584 
L 1991 3584 
z
" transform="scale(0.015625)"/>
      <path id="DejaVuSans-62" d="M 3116 1747 
Q 3116 2381 2855 2742 
Q 2594 3103 2138 3103 
Q 1681 3103 1420 2742 
Q 1159 2381 1159 1747 
Q 1159 1113 1420 752 
Q 1681 391 2138 391 
Q 2594 391 2855 752 
Q 3116 1113 3116 1747 
z
M 1159 2969 
Q 1341 3281 1617 3432 
Q 1894 3584 2278 3584 
Q 2916 3584 3314 3078 
Q 3713 2572 3713 1747 
Q 3713 922 3314 415 
Q 2916 -91 2278 -91 
Q 1894 -91 1617 61 
Q 1341 213 1159 525 
L 1159 0 
L 581 0 
L 581 4863 
L 1159 4863 
L 1159 2969 
z
" transform="scale(0.015625)"/>
     </defs>
     <use xlink:href="#DejaVuSans-53" transform="translate(0 0.015625)"/>
     <use xlink:href="#DejaVuSans-51" transform="translate(63.476562 0.015625)"/>
     <use xlink:href="#DejaVuSans-4c" transform="translate(142.1875 0.015625)"/>
     <use xlink:href="#DejaVuSans-2d" transform="translate(197.900391 0.015625)"/>
     <use xlink:href="#DejaVuSans-76" transform="translate(233.984375 0.015625)"/>
     <use xlink:href="#DejaVuSans-69" transform="translate(293.164062 0.015625)"/>
     <use xlink:href="#DejaVuSans-6f" transform="translate(320.947266 0.015625)"/>
     <use xlink:href="#DejaVuSans-6c" transform="translate(382.128906 0.015625)"/>
     <use xlink:href="#DejaVuSans-61" transform="translate(409.912109 0.015625)"/>
     <use xlink:href="#DejaVuSans-74" transform="translate(471.191406 0.015625)"/>
     <use xlink:href="#DejaVuSans-69" transform="translate(510.400391 0.015625)"/>
     <use xlink:href="#DejaVuSans-6f" transform="translate(538.183594 0.015625)"/>
     <use xlink:href="#DejaVuSans-6e" transform="translate(599.365234 0.015625)"/>
     <use xlink:href="#DejaVuSans-20" transform="translate(662.744141 0.015625)"/>
     <use xlink:href="#DejaVuSans-72" transform="translate(694.53125 0.015625)"/>
     <use xlink:href="#DejaVuSans-61" transform="translate(735.644531 0.015625)"/>
     <use xlink:href="#DejaVuSans-74" transform="translate(796.923828 0.015625)"/>
     <use xlink:href="#DejaVuSans-69" transform="translate(836.132812 0.015625)"/>
     <use xlink:href="#DejaVuSans-6f" transform="translate(863.916016 0.015625)"/>
     <use xlink:href="#DejaVuSans-20" transform="translate(925.097656 0.015625)"/>
     <use xlink:href="#DejaVuSans-76" transform="translate(956.884766 0.015625)"/>
     <use xlink:href="#DejaVuSans-73" transform="translate(1016.064453 0.015625)"/>
     <use xlink:href="#DejaVuSans-20" transform="translate(1068.164062 0.015625)"/>
     <use xlink:href="#DejaVuSans-73" transform="translate(1099.951172 0.015625)"/>
     <use xlink:href="#DejaVuSans-79" transform="translate(1152.050781 0.015625)"/>
     <use xlink:href="#DejaVuSans-73" transform="translate(1211.230469 0.015625)"/>
     <use xlink:href="#DejaVuSans-74" transform="translate(1263.330078 0.015625)"/>
     <use xlink:href="#DejaVuSans-65" transform="translate(1302.539062 0.015625)"/>
     <use xlink:href="#DejaVuSans-6d" transform="translate(1364.0625 0.015625)"/>
     <use xlink:href="#DejaVuSans-20" transform="translate(1461.474609 0.015625)"/>
     <use xlink:href="#DejaVuSans-70" transform="translate(1493.261719 0.015625)"/>
     <use xlink:href="#DejaVuSans-61" transform="translate(1556.738281 0.015625)"/>
     <use xlink:href="#DejaVuSans-72" transform="translate(1618.017578 0.015625)"/>
     <use xlink:href="#DejaVuSans-74" transform="translate(1659.130859 0.015625)"/>
     <use xlink:href="#DejaVuSans-69" transform="translate(1698.339844 0.015625)"/>
     <use xlink:href="#DejaVuSans-63" transform="translate(1726.123047 0.015625)"/>
     <use xlink:href="#DejaVuSans-6c" transform="translate(1781.103516 0.015625)"/>
     <use xlink:href="#DejaVuSans-65" transform="translate(1808.886719 0.015625)"/>
     <use xlink:href="#DejaVuSans-20" transform="translate(1870.410156 0.015625)"/>
     <use xlink:href="#DejaVuSans-6e" transform="translate(1902.197266 0.015625)"/>
     <use xlink:href="#DejaVuSans-75" transform="translate(1965.576172 0.015625)"/>
     <use xlink:href="#DejaVuSans-6d" transform="translate(2028.955078 0.015625)"/>
     <use xlink:href="#DejaVuSans-62" transform="translate(2126.367188 0.015625)"/>
     <use xlink:href="#DejaVuSans-65" transform="translate(2189.84375 0.015625)"/>
     <use xlink:href="#DejaVuSans-72" transform="translate(2251.367188 0.015625)"/>
     <use xlink:href="#DejaVuSans-20" transform="translate(2292.480469 0.015625)"/>
     <use xlink:href="#DejaVuSans-Oblique-4e" transform="translate(2324.267578 0.015625)"/>
    </g>
   </g>
   <g id="legend_1">
    <g id="patch_7">
     <path d="M 614.411781 124.895625 
L 690.429437 124.895625 
Q 692.229437 124.895625 692.229437 123.095625 
L 692.229437 28.62 
Q 692.229437 26.82 690.429437 26.82 
L 614.411781 26.82 
Q 612.611781 26.82 612.611781 28.62 
L 612.611781 123.095625 
Q 612.611781 124.895625 614.411781 124.895625 
z
" style="fill: #ffffff; opacity: 0.8; stroke: #cccccc; stroke-linejoin: miter"/>
    </g>
    <g id="text_21">
     <!-- $\omega$ -->
     <g style="fill: #262626" transform="translate(647.380609 39.538125) scale(0.12 -0.12)">
      <use xlink:href="#DejaVuSans-Oblique-3c9" transform="translate(0 0.3125)"/>
     </g>
    </g>
    <g id="line2d_24">
     <path d="M 616.211781 50.222344 
L 625.211781 50.222344 
L 634.211781 50.222344 
" style="fill: none; stroke: #414487; stroke-width: 1.5; stroke-linecap: round"/>
     <g>
      <use xlink:href="#mcf57ec0a9b" x="625.211781" y="50.222344" style="fill: #414487; stroke: #414487"/>
     </g>
    </g>
    <g id="text_22">
     <!-- $\omega=0.1$ -->
     <g style="fill: #262626" transform="translate(641.411781 53.372344) scale(0.09 -0.09)">
      <use xlink:href="#DejaVuSans-Oblique-3c9" transform="translate(0 0.78125)"/>
      <use xlink:href="#DejaVuSans-3d" transform="translate(103.222656 0.78125)"/>
      <use xlink:href="#DejaVuSans-30" transform="translate(206.494141 0.78125)"/>
      <use xlink:href="#DejaVuSans-2e" transform="translate(270.117188 0.78125)"/>
      <use xlink:href="#DejaVuSans-31" transform="translate(301.904297 0.78125)"/>
     </g>
    </g>
    <g id="line2d_25">
     <path d="M 616.211781 63.432656 
L 625.211781 63.432656 
L 634.211781 63.432656 
" style="fill: none; stroke: #2c728e; stroke-width: 1.5; stroke-linecap: round"/>
     <g>
      <use xlink:href="#mceb033ec53" x="625.211781" y="63.432656" style="fill: #2c728e; stroke: #2c728e"/>
     </g>
    </g>
    <g id="text_23">
     <!-- $\omega=0.2$ -->
     <g style="fill: #262626" transform="translate(641.411781 66.582656) scale(0.09 -0.09)">
      <use xlink:href="#DejaVuSans-Oblique-3c9" transform="translate(0 0.78125)"/>
      <use xlink:href="#DejaVuSans-3d" transform="translate(103.222656 0.78125)"/>
      <use xlink:href="#DejaVuSans-30" transform="translate(206.494141 0.78125)"/>
      <use xlink:href="#DejaVuSans-2e" transform="translate(270.117188 0.78125)"/>
      <use xlink:href="#DejaVuSans-32" transform="translate(296.404297 0.78125)"/>
     </g>
    </g>
    <g id="line2d_26">
     <path d="M 616.211781 76.642969 
L 625.211781 76.642969 
L 634.211781 76.642969 
" style="fill: none; stroke: #1e9c89; stroke-width: 1.5; stroke-linecap: round"/>
     <g>
      <use xlink:href="#m0ff6bded9a" x="625.211781" y="76.642969" style="fill: #1e9c89; stroke: #1e9c89"/>
     </g>
    </g>
    <g id="text_24">
     <!-- $\omega=0.5$ -->
     <g style="fill: #262626" transform="translate(641.411781 79.792969) scale(0.09 -0.09)">
      <use xlink:href="#DejaVuSans-Oblique-3c9" transform="translate(0 0.78125)"/>
      <use xlink:href="#DejaVuSans-3d" transform="translate(103.222656 0.78125)"/>
      <use xlink:href="#DejaVuSans-30" transform="translate(206.494141 0.78125)"/>
      <use xlink:href="#DejaVuSans-2e" transform="translate(270.117188 0.78125)"/>
      <use xlink:href="#DejaVuSans-35" transform="translate(301.904297 0.78125)"/>
     </g>
    </g>
    <g id="line2d_27">
     <path d="M 616.211781 89.853281 
L 625.211781 89.853281 
L 634.211781 89.853281 
" style="fill: none; stroke: #50c46a; stroke-width: 1.5; stroke-linecap: round"/>
     <g>
      <use xlink:href="#ma98669b836" x="625.211781" y="89.853281" style="fill: #50c46a; stroke: #50c46a"/>
     </g>
    </g>
    <g id="text_25">
     <!-- $\omega=1.0$ -->
     <g style="fill: #262626" transform="translate(641.411781 93.003281) scale(0.09 -0.09)">
      <use xlink:href="#DejaVuSans-Oblique-3c9" transform="translate(0 0.78125)"/>
      <use xlink:href="#DejaVuSans-3d" transform="translate(103.222656 0.78125)"/>
      <use xlink:href="#DejaVuSans-31" transform="translate(206.494141 0.78125)"/>
      <use xlink:href="#DejaVuSans-2e" transform="translate(270.117188 0.78125)"/>
      <use xlink:href="#DejaVuSans-30" transform="translate(301.904297 0.78125)"/>
     </g>
    </g>
    <g id="line2d_28">
     <path d="M 616.211781 103.063594 
L 625.211781 103.063594 
L 634.211781 103.063594 
" style="fill: none; stroke: #bddf26; stroke-width: 1.5; stroke-linecap: round"/>
     <g>
      <use xlink:href="#me536f10489" x="625.211781" y="103.063594" style="fill: #bddf26; stroke: #bddf26"/>
     </g>
    </g>
    <g id="text_26">
     <!-- $\omega=2.0$ -->
     <g style="fill: #262626" transform="translate(641.411781 106.213594) scale(0.09 -0.09)">
      <use xlink:href="#DejaVuSans-Oblique-3c9" transform="translate(0 0.78125)"/>
      <use xlink:href="#DejaVuSans-3d" transform="translate(103.222656 0.78125)"/>
      <use xlink:href="#DejaVuSans-32" transform="translate(206.494141 0.78125)"/>
      <use xlink:href="#DejaVuSans-2e" transform="translate(270.117188 0.78125)"/>
      <use xlink:href="#DejaVuSans-30" transform="translate(301.904297 0.78125)"/>
     </g>
    </g>
    <g id="line2d_29">
     <path d="M 616.211781 116.273906 
L 625.211781 116.273906 
L 634.211781 116.273906 
" style="fill: none; stroke-dasharray: 5.55,2.4; stroke-dashoffset: 0; stroke: #808080; stroke-opacity: 0.7; stroke-width: 1.5"/>
    </g>
    <g id="text_27">
     <!-- SQL (R=1) -->
     <g style="fill: #262626" transform="translate(641.411781 119.423906) scale(0.09 -0.09)">
      <defs>
       <path id="DejaVuSans-52" d="M 2841 2188 
Q 3044 2119 3236 1894 
Q 3428 1669 3622 1275 
L 4263 0 
L 3584 0 
L 2988 1197 
Q 2756 1666 2539 1819 
Q 2322 1972 1947 1972 
L 1259 1972 
L 1259 0 
L 628 0 
L 628 4666 
L 2053 4666 
Q 2853 4666 3247 4331 
Q 3641 3997 3641 3322 
Q 3641 2881 3436 2590 
Q 3231 2300 2841 2188 
z
M 1259 4147 
L 1259 2491 
L 2053 2491 
Q 2509 2491 2742 2702 
Q 2975 2913 2975 3322 
Q 2975 3731 2742 3939 
Q 2509 4147 2053 4147 
L 1259 4147 
z
" transform="scale(0.015625)"/>
      </defs>
      <use xlink:href="#DejaVuSans-53"/>
      <use xlink:href="#DejaVuSans-51" transform="translate(63.476562 0)"/>
      <use xlink:href="#DejaVuSans-4c" transform="translate(142.1875 0)"/>
      <use xlink:href="#DejaVuSans-20" transform="translate(197.900391 0)"/>
      <use xlink:href="#DejaVuSans-28" transform="translate(229.6875 0)"/>
      <use xlink:href="#DejaVuSans-52" transform="translate(268.701172 0)"/>
      <use xlink:href="#DejaVuSans-3d" transform="translate(338.183594 0)"/>
      <use xlink:href="#DejaVuSans-31" transform="translate(421.972656 0)"/>
      <use xlink:href="#DejaVuSans-29" transform="translate(485.595703 0)"/>
     </g>
    </g>
   </g>
  </g>
 </g>
 <defs>
  <clipPath id="pf4f51929ef">
   <rect x="51.033438" y="22.32" width="645.696" height="348.42"/>
  </clipPath>
 </defs>
</svg>
