<?xml version="1.0" encoding="utf-8" standalone="no"?>
<!DOCTYPE svg PUBLIC "-//W3C//DTD SVG 1.1//EN"
  "http://www.w3.org/Graphics/SVG/1.1/DTD/svg11.dtd">
<svg xmlns:xlink="http://www.w3.org/1999/xlink" width="851.167187pt" height="346.017812pt" viewBox="0 0 851.167187 346.017812" xmlns="http://www.w3.org/2000/svg" version="1.1">
 <metadata>
  <rdf:RDF xmlns:dc="http://purl.org/dc/elements/1.1/" xmlns:cc="http://creativecommons.org/ns#" xmlns:rdf="http://www.w3.org/1999/02/22-rdf-syntax-ns#">
   <cc:Work>
    <dc:type rdf:resource="http://purl.org/dc/dcmitype/StillImage"/>
    <dc:date>2026-06-20T01:43:25.290215</dc:date>
    <dc:format>image/svg+xml</dc:format>
    <dc:creator>
     <cc:Agent>
      <dc:title>Matplotlib v3.10.9, https://matplotlib.org/</dc:title>
     </cc:Agent>
    </dc:creator>
   </cc:Work>
  </rdf:RDF>
 </metadata>
 <defs>
  <style type="text/css">*{stroke-linejoin: round; stroke-linecap: butt}</style>
 </defs>
 <g id="figure_1">
  <g id="patch_1">
   <path d="M 0 346.017812 
L 851.167187 346.017812 
L 851.167187 0 
L 0 0 
z
" style="fill: #ffffff"/>
  </g>
  <g id="axes_1">
   <g id="patch_2">
    <path d="M 49.807187 303.058125 
L 414.982188 303.058125 
L 414.982188 22.318125 
L 49.807187 22.318125 
z
" style="fill: #ffffff"/>
   </g>
   <g id="matplotlib.axis_1">
    <g id="xtick_1">
     <g id="line2d_1">
      <path d="M 66.406051 303.058125 
L 66.406051 22.318125 
" clip-path="url(#pab09094e24)" style="fill: none; stroke: #cccccc; stroke-opacity: 0.3; stroke-linecap: round"/>
     </g>
     <g id="text_1">
      <!-- 0 -->
      <g style="fill: #262626" transform="translate(62.906676 320.916406) scale(0.11 -0.11)">
       <defs>
        <path id="DejaVuSans-30" d="M 2034 4250 
Q 1547 4250 1301 3770 
Q 1056 3291 1056 2328 
Q 1056 1369 1301 889 
Q 1547 409 2034 409 
Q 2525 409 2770 889 
Q 3016 1369 3016 2328 
Q 3016 3291 2770 3770 
Q 2525 4250 2034 4250 
z
M 2034 4750 
Q 2819 4750 3233 4129 
Q 3647 3509 3647 2328 
Q 3647 1150 3233 529 
Q 2819 -91 2034 -91 
Q 1250 -91 836 529 
Q 422 1150 422 2328 
Q 422 3509 836 4129 
Q 1250 4750 2034 4750 
z
" transform="scale(0.015625)"/>
       </defs>
       <use xlink:href="#DejaVuSans-30"/>
      </g>
     </g>
    </g>
    <g id="xtick_2">
     <g id="line2d_2">
      <path d="M 132.801506 303.058125 
L 132.801506 22.318125 
" clip-path="url(#pab09094e24)" style="fill: none; stroke: #cccccc; stroke-opacity: 0.3; stroke-linecap: round"/>
     </g>
     <g id="text_2">
      <!-- 1 -->
      <g style="fill: #262626" transform="translate(129.302131 320.916406) scale(0.11 -0.11)">
       <defs>
        <path id="DejaVuSans-31" d="M 794 531 
L 1825 531 
L 1825 4091 
L 703 3866 
L 703 4441 
L 1819 4666 
L 2450 4666 
L 2450 531 
L 3481 531 
L 3481 0 
L 794 0 
L 794 531 
z
" transform="scale(0.015625)"/>
       </defs>
       <use xlink:href="#DejaVuSans-31"/>
      </g>
     </g>
    </g>
    <g id="xtick_3">
     <g id="line2d_3">
      <path d="M 199.19696 303.058125 
L 199.19696 22.318125 
" clip-path="url(#pab09094e24)" style="fill: none; stroke: #cccccc; stroke-opacity: 0.3; stroke-linecap: round"/>
     </g>
     <g id="text_3">
      <!-- 2 -->
      <g style="fill: #262626" transform="translate(195.697585 320.916406) scale(0.11 -0.11)">
       <defs>
        <path id="DejaVuSans-32" d="M 1228 531 
L 3431 531 
L 3431 0 
L 469 0 
L 469 531 
Q 828 903 1448 1529 
Q 2069 2156 2228 2338 
Q 2531 2678 2651 2914 
Q 2772 3150 2772 3378 
Q 2772 3750 2511 3984 
Q 2250 4219 1831 4219 
Q 1534 4219 1204 4116 
Q 875 4013 500 3803 
L 500 4441 
Q 881 4594 1212 4672 
Q 1544 4750 1819 4750 
Q 2544 4750 2975 4387 
Q 3406 4025 3406 3419 
Q 3406 3131 3298 2873 
Q 3191 2616 2906 2266 
Q 2828 2175 2409 1742 
Q 1991 1309 1228 531 
z
" transform="scale(0.015625)"/>
       </defs>
       <use xlink:href="#DejaVuSans-32"/>
      </g>
     </g>
    </g>
    <g id="xtick_4">
     <g id="line2d_4">
      <path d="M 265.592415 303.058125 
L 265.592415 22.318125 
" clip-path="url(#pab09094e24)" style="fill: none; stroke: #cccccc; stroke-opacity: 0.3; stroke-linecap: round"/>
     </g>
     <g id="text_4">
      <!-- 3 -->
      <g style="fill: #262626" transform="translate(262.09304 320.916406) scale(0.11 -0.11)">
       <defs>
        <path id="DejaVuSans-33" d="M 2597 2516 
Q 3050 2419 3304 2112 
Q 3559 1806 3559 1356 
Q 3559 666 3084 287 
Q 2609 -91 1734 -91 
Q 1441 -91 1130 -33 
Q 819 25 488 141 
L 488 750 
Q 750 597 1062 519 
Q 1375 441 1716 441 
Q 2309 441 2620 675 
Q 2931 909 2931 1356 
Q 2931 1769 2642 2001 
Q 2353 2234 1838 2234 
L 1294 2234 
L 1294 2753 
L 1863 2753 
Q 2328 2753 2575 2939 
Q 2822 3125 2822 3475 
Q 2822 3834 2567 4026 
Q 2313 4219 1838 4219 
Q 1578 4219 1281 4162 
Q 984 4106 628 3988 
L 628 4550 
Q 988 4650 1302 4700 
Q 1616 4750 1894 4750 
Q 2613 4750 3031 4423 
Q 3450 4097 3450 3541 
Q 3450 3153 3228 2886 
Q 3006 2619 2597 2516 
z
" transform="scale(0.015625)"/>
       </defs>
       <use xlink:href="#DejaVuSans-33"/>
      </g>
     </g>
    </g>
    <g id="xtick_5">
     <g id="line2d_5">
      <path d="M 331.987869 303.058125 
L 331.987869 22.318125 
" clip-path="url(#pab09094e24)" style="fill: none; stroke: #cccccc; stroke-opacity: 0.3; stroke-linecap: round"/>
     </g>
     <g id="text_5">
      <!-- 4 -->
      <g style="fill: #262626" transform="translate(328.488494 320.916406) scale(0.11 -0.11)">
       <defs>
        <path id="DejaVuSans-34" d="M 2419 4116 
L 825 1625 
L 2419 1625 
L 2419 4116 
z
M 2253 4666 
L 3047 4666 
L 3047 1625 
L 3713 1625 
L 3713 1100 
L 3047 1100 
L 3047 0 
L 2419 0 
L 2419 1100 
L 313 1100 
L 313 1709 
L 2253 4666 
z
" transform="scale(0.015625)"/>
       </defs>
       <use xlink:href="#DejaVuSans-34"/>
      </g>
     </g>
    </g>
    <g id="xtick_6">
     <g id="line2d_6">
      <path d="M 398.383324 303.058125 
L 398.383324 22.318125 
" clip-path="url(#pab09094e24)" style="fill: none; stroke: #cccccc; stroke-opacity: 0.3; stroke-linecap: round"/>
     </g>
     <g id="text_6">
      <!-- 5 -->
      <g style="fill: #262626" transform="translate(394.883949 320.916406) scale(0.11 -0.11)">
       <defs>
        <path id="DejaVuSans-35" d="M 691 4666 
L 3169 4666 
L 3169 4134 
L 1269 4134 
L 1269 2991 
Q 1406 3038 1543 3061 
Q 1681 3084 1819 3084 
Q 2600 3084 3056 2656 
Q 3513 2228 3513 1497 
Q 3513 744 3044 326 
Q 2575 -91 1722 -91 
Q 1428 -91 1123 -41 
Q 819 9 494 109 
L 494 744 
Q 775 591 1075 516 
Q 1375 441 1709 441 
Q 2250 441 2565 725 
Q 2881 1009 2881 1497 
Q 2881 1984 2565 2268 
Q 2250 2553 1709 2553 
Q 1456 2553 1204 2497 
Q 953 2441 691 2322 
L 691 4666 
z
" transform="scale(0.015625)"/>
       </defs>
       <use xlink:href="#DejaVuSans-35"/>
      </g>
     </g>
    </g>
    <g id="text_7">
     <!-- q (OAT squeezing strength) -->
     <g style="fill: #262626" transform="translate(150.445 336.322187) scale(0.12 -0.12)">
      <defs>
       <path id="DejaVuSans-71" d="M 947 1747 
Q 947 1113 1208 752 
Q 1469 391 1925 391 
Q 2381 391 2643 752 
Q 2906 1113 2906 1747 
Q 2906 2381 2643 2742 
Q 2381 3103 1925 3103 
Q 1469 3103 1208 2742 
Q 947 2381 947 1747 
z
M 2906 525 
Q 2725 213 2448 61 
Q 2172 -91 1784 -91 
Q 1150 -91 751 415 
Q 353 922 353 1747 
Q 353 2572 751 3078 
Q 1150 3584 1784 3584 
Q 2172 3584 2448 3432 
Q 2725 3281 2906 2969 
L 2906 3500 
L 3481 3500 
L 3481 -1331 
L 2906 -1331 
L 2906 525 
z
" transform="scale(0.015625)"/>
       <path id="DejaVuSans-20" transform="scale(0.015625)"/>
       <path id="DejaVuSans-28" d="M 1984 4856 
Q 1566 4138 1362 3434 
Q 1159 2731 1159 2009 
Q 1159 1288 1364 580 
Q 1569 -128 1984 -844 
L 1484 -844 
Q 1016 -109 783 600 
Q 550 1309 550 2009 
Q 550 2706 781 3412 
Q 1013 4119 1484 4856 
L 1984 4856 
z
" transform="scale(0.015625)"/>
       <path id="DejaVuSans-4f" d="M 2522 4238 
Q 1834 4238 1429 3725 
Q 1025 3213 1025 2328 
Q 1025 1447 1429 934 
Q 1834 422 2522 422 
Q 3209 422 3611 934 
Q 4013 1447 4013 2328 
Q 4013 3213 3611 3725 
Q 3209 4238 2522 4238 
z
M 2522 4750 
Q 3503 4750 4090 4092 
Q 4678 3434 4678 2328 
Q 4678 1225 4090 567 
Q 3503 -91 2522 -91 
Q 1538 -91 948 565 
Q 359 1222 359 2328 
Q 359 3434 948 4092 
Q 1538 4750 2522 4750 
z
" transform="scale(0.015625)"/>
       <path id="DejaVuSans-41" d="M 2188 4044 
L 1331 1722 
L 3047 1722 
L 2188 4044 
z
M 1831 4666 
L 2547 4666 
L 4325 0 
L 3669 0 
L 3244 1197 
L 1141 1197 
L 716 0 
L 50 0 
L 1831 4666 
z
" transform="scale(0.015625)"/>
       <path id="DejaVuSans-54" d="M -19 4666 
L 3928 4666 
L 3928 4134 
L 2272 4134 
L 2272 0 
L 1638 0 
L 1638 4134 
L -19 4134 
L -19 4666 
z
" transform="scale(0.015625)"/>
       <path id="DejaVuSans-73" d="M 2834 3397 
L 2834 2853 
Q 2591 2978 2328 3040 
Q 2066 3103 1784 3103 
Q 1356 3103 1142 2972 
Q 928 2841 928 2578 
Q 928 2378 1081 2264 
Q 1234 2150 1697 2047 
L 1894 2003 
Q 2506 1872 2764 1633 
Q 3022 1394 3022 966 
Q 3022 478 2636 193 
Q 2250 -91 1575 -91 
Q 1294 -91 989 -36 
Q 684 19 347 128 
L 347 722 
Q 666 556 975 473 
Q 1284 391 1588 391 
Q 1994 391 2212 530 
Q 2431 669 2431 922 
Q 2431 1156 2273 1281 
Q 2116 1406 1581 1522 
L 1381 1569 
Q 847 1681 609 1914 
Q 372 2147 372 2553 
Q 372 3047 722 3315 
Q 1072 3584 1716 3584 
Q 2034 3584 2315 3537 
Q 2597 3491 2834 3397 
z
" transform="scale(0.015625)"/>
       <path id="DejaVuSans-75" d="M 544 1381 
L 544 3500 
L 1119 3500 
L 1119 1403 
Q 1119 906 1312 657 
Q 1506 409 1894 409 
Q 2359 409 2629 706 
Q 2900 1003 2900 1516 
L 2900 3500 
L 3475 3500 
L 3475 0 
L 2900 0 
L 2900 538 
Q 2691 219 2414 64 
Q 2138 -91 1772 -91 
Q 1169 -91 856 284 
Q 544 659 544 1381 
z
M 1991 3584 
L 1991 3584 
z
" transform="scale(0.015625)"/>
       <path id="DejaVuSans-65" d="M 3597 1894 
L 3597 1613 
L 953 1613 
Q 991 1019 1311 708 
Q 1631 397 2203 397 
Q 2534 397 2845 478 
Q 3156 559 3463 722 
L 3463 178 
Q 3153 47 2828 -22 
Q 2503 -91 2169 -91 
Q 1331 -91 842 396 
Q 353 884 353 1716 
Q 353 2575 817 3079 
Q 1281 3584 2069 3584 
Q 2775 3584 3186 3129 
Q 3597 2675 3597 1894 
z
M 3022 2063 
Q 3016 2534 2758 2815 
Q 2500 3097 2075 3097 
Q 1594 3097 1305 2825 
Q 1016 2553 972 2059 
L 3022 2063 
z
" transform="scale(0.015625)"/>
       <path id="DejaVuSans-7a" d="M 353 3500 
L 3084 3500 
L 3084 2975 
L 922 459 
L 3084 459 
L 3084 0 
L 275 0 
L 275 525 
L 2438 3041 
L 353 3041 
L 353 3500 
z
" transform="scale(0.015625)"/>
       <path id="DejaVuSans-69" d="M 603 3500 
L 1178 3500 
L 1178 0 
L 603 0 
L 603 3500 
z
M 603 4863 
L 1178 4863 
L 1178 4134 
L 603 4134 
L 603 4863 
z
" transform="scale(0.015625)"/>
       <path id="DejaVuSans-6e" d="M 3513 2113 
L 3513 0 
L 2938 0 
L 2938 2094 
Q 2938 2591 2744 2837 
Q 2550 3084 2163 3084 
Q 1697 3084 1428 2787 
Q 1159 2491 1159 1978 
L 1159 0 
L 581 0 
L 581 3500 
L 1159 3500 
L 1159 2956 
Q 1366 3272 1645 3428 
Q 1925 3584 2291 3584 
Q 2894 3584 3203 3211 
Q 3513 2838 3513 2113 
z
" transform="scale(0.015625)"/>
       <path id="DejaVuSans-67" d="M 2906 1791 
Q 2906 2416 2648 2759 
Q 2391 3103 1925 3103 
Q 1463 3103 1205 2759 
Q 947 2416 947 1791 
Q 947 1169 1205 825 
Q 1463 481 1925 481 
Q 2391 481 2648 825 
Q 2906 1169 2906 1791 
z
M 3481 434 
Q 3481 -459 3084 -895 
Q 2688 -1331 1869 -1331 
Q 1566 -1331 1297 -1286 
Q 1028 -1241 775 -1147 
L 775 -588 
Q 1028 -725 1275 -790 
Q 1522 -856 1778 -856 
Q 2344 -856 2625 -561 
Q 2906 -266 2906 331 
L 2906 616 
Q 2728 306 2450 153 
Q 2172 0 1784 0 
Q 1141 0 747 490 
Q 353 981 353 1791 
Q 353 2603 747 3093 
Q 1141 3584 1784 3584 
Q 2172 3584 2450 3431 
Q 2728 3278 2906 2969 
L 2906 3500 
L 3481 3500 
L 3481 434 
z
" transform="scale(0.015625)"/>
       <path id="DejaVuSans-74" d="M 1172 4494 
L 1172 3500 
L 2356 3500 
L 2356 3053 
L 1172 3053 
L 1172 1153 
Q 1172 725 1289 603 
Q 1406 481 1766 481 
L 2356 481 
L 2356 0 
L 1766 0 
Q 1100 0 847 248 
Q 594 497 594 1153 
L 594 3053 
L 172 3053 
L 172 3500 
L 594 3500 
L 594 4494 
L 1172 4494 
z
" transform="scale(0.015625)"/>
       <path id="DejaVuSans-72" d="M 2631 2963 
Q 2534 3019 2420 3045 
Q 2306 3072 2169 3072 
Q 1681 3072 1420 2755 
Q 1159 2438 1159 1844 
L 1159 0 
L 581 0 
L 581 3500 
L 1159 3500 
L 1159 2956 
Q 1341 3275 1631 3429 
Q 1922 3584 2338 3584 
Q 2397 3584 2469 3576 
Q 2541 3569 2628 3553 
L 2631 2963 
z
" transform="scale(0.015625)"/>
       <path id="DejaVuSans-68" d="M 3513 2113 
L 3513 0 
L 2938 0 
L 2938 2094 
Q 2938 2591 2744 2837 
Q 2550 3084 2163 3084 
Q 1697 3084 1428 2787 
Q 1159 2491 1159 1978 
L 1159 0 
L 581 0 
L 581 4863 
L 1159 4863 
L 1159 2956 
Q 1366 3272 1645 3428 
Q 1925 3584 2291 3584 
Q 2894 3584 3203 3211 
Q 3513 2838 3513 2113 
z
" transform="scale(0.015625)"/>
       <path id="DejaVuSans-29" d="M 513 4856 
L 1013 4856 
Q 1481 4119 1714 3412 
Q 1947 2706 1947 2009 
Q 1947 1309 1714 600 
Q 1481 -109 1013 -844 
L 513 -844 
Q 928 -128 1133 580 
Q 1338 1288 1338 2009 
Q 1338 2731 1133 3434 
Q 928 4138 513 4856 
z
" transform="scale(0.015625)"/>
      </defs>
      <use xlink:href="#DejaVuSans-71"/>
      <use xlink:href="#DejaVuSans-20" transform="translate(63.476562 0)"/>
      <use xlink:href="#DejaVuSans-28" transform="translate(95.263672 0)"/>
      <use xlink:href="#DejaVuSans-4f" transform="translate(134.277344 0)"/>
      <use xlink:href="#DejaVuSans-41" transform="translate(211.238281 0)"/>
      <use xlink:href="#DejaVuSans-54" transform="translate(271.896484 0)"/>
      <use xlink:href="#DejaVuSans-20" transform="translate(332.980469 0)"/>
      <use xlink:href="#DejaVuSans-73" transform="translate(364.767578 0)"/>
      <use xlink:href="#DejaVuSans-71" transform="translate(416.867188 0)"/>
      <use xlink:href="#DejaVuSans-75" transform="translate(480.34375 0)"/>
      <use xlink:href="#DejaVuSans-65" transform="translate(543.722656 0)"/>
      <use xlink:href="#DejaVuSans-65" transform="translate(605.246094 0)"/>
      <use xlink:href="#DejaVuSans-7a" transform="translate(666.769531 0)"/>
      <use xlink:href="#DejaVuSans-69" transform="translate(719.259766 0)"/>
      <use xlink:href="#DejaVuSans-6e" transform="translate(747.042969 0)"/>
      <use xlink:href="#DejaVuSans-67" transform="translate(810.421875 0)"/>
      <use xlink:href="#DejaVuSans-20" transform="translate(873.898438 0)"/>
      <use xlink:href="#DejaVuSans-73" transform="translate(905.685547 0)"/>
      <use xlink:href="#DejaVuSans-74" transform="translate(957.785156 0)"/>
      <use xlink:href="#DejaVuSans-72" transform="translate(996.994141 0)"/>
      <use xlink:href="#DejaVuSans-65" transform="translate(1035.857422 0)"/>
      <use xlink:href="#DejaVuSans-6e" transform="translate(1097.380859 0)"/>
      <use xlink:href="#DejaVuSans-67" transform="translate(1160.759766 0)"/>
      <use xlink:href="#DejaVuSans-74" transform="translate(1224.236328 0)"/>
      <use xlink:href="#DejaVuSans-68" transform="translate(1263.445312 0)"/>
      <use xlink:href="#DejaVuSans-29" transform="translate(1326.824219 0)"/>
     </g>
    </g>
   </g>
   <g id="matplotlib.axis_2">
    <g id="ytick_1">
     <g id="line2d_7">
      <path d="M 49.807187 291.543702 
L 414.982188 291.543702 
" clip-path="url(#pab09094e24)" style="fill: none; stroke: #cccccc; stroke-opacity: 0.3; stroke-linecap: round"/>
     </g>
     <g id="text_8">
      <!-- 0.0 -->
      <g style="fill: #262626" transform="translate(22.81375 295.722843) scale(0.11 -0.11)">
       <defs>
        <path id="DejaVuSans-2e" d="M 684 794 
L 1344 794 
L 1344 0 
L 684 0 
L 684 794 
z
" transform="scale(0.015625)"/>
       </defs>
       <use xlink:href="#DejaVuSans-30"/>
       <use xlink:href="#DejaVuSans-2e" transform="translate(63.623047 0)"/>
       <use xlink:href="#DejaVuSans-30" transform="translate(95.410156 0)"/>
      </g>
     </g>
    </g>
    <g id="ytick_2">
     <g id="line2d_8">
      <path d="M 49.807187 252.86444 
L 414.982188 252.86444 
" clip-path="url(#pab09094e24)" style="fill: none; stroke: #cccccc; stroke-opacity: 0.3; stroke-linecap: round"/>
     </g>
     <g id="text_9">
      <!-- 0.5 -->
      <g style="fill: #262626" transform="translate(22.81375 257.043581) scale(0.11 -0.11)">
       <use xlink:href="#DejaVuSans-30"/>
       <use xlink:href="#DejaVuSans-2e" transform="translate(63.623047 0)"/>
       <use xlink:href="#DejaVuSans-35" transform="translate(95.410156 0)"/>
      </g>
     </g>
    </g>
    <g id="ytick_3">
     <g id="line2d_9">
      <path d="M 49.807187 214.185178 
L 414.982188 214.185178 
" clip-path="url(#pab09094e24)" style="fill: none; stroke: #cccccc; stroke-opacity: 0.3; stroke-linecap: round"/>
     </g>
     <g id="text_10">
      <!-- 1.0 -->
      <g style="fill: #262626" transform="translate(22.81375 218.364319) scale(0.11 -0.11)">
       <use xlink:href="#DejaVuSans-31"/>
       <use xlink:href="#DejaVuSans-2e" transform="translate(63.623047 0)"/>
       <use xlink:href="#DejaVuSans-30" transform="translate(95.410156 0)"/>
      </g>
     </g>
    </g>
    <g id="ytick_4">
     <g id="line2d_10">
      <path d="M 49.807187 175.505916 
L 414.982188 175.505916 
" clip-path="url(#pab09094e24)" style="fill: none; stroke: #cccccc; stroke-opacity: 0.3; stroke-linecap: round"/>
     </g>
     <g id="text_11">
      <!-- 1.5 -->
      <g style="fill: #262626" transform="translate(22.81375 179.685057) scale(0.11 -0.11)">
       <use xlink:href="#DejaVuSans-31"/>
       <use xlink:href="#DejaVuSans-2e" transform="translate(63.623047 0)"/>
       <use xlink:href="#DejaVuSans-35" transform="translate(95.410156 0)"/>
      </g>
     </g>
    </g>
    <g id="ytick_5">
     <g id="line2d_11">
      <path d="M 49.807187 136.826655 
L 414.982188 136.826655 
" clip-path="url(#pab09094e24)" style="fill: none; stroke: #cccccc; stroke-opacity: 0.3; stroke-linecap: round"/>
     </g>
     <g id="text_12">
      <!-- 2.0 -->
      <g style="fill: #262626" transform="translate(22.81375 141.005795) scale(0.11 -0.11)">
       <use xlink:href="#DejaVuSans-32"/>
       <use xlink:href="#DejaVuSans-2e" transform="translate(63.623047 0)"/>
       <use xlink:href="#DejaVuSans-30" transform="translate(95.410156 0)"/>
      </g>
     </g>
    </g>
    <g id="ytick_6">
     <g id="line2d_12">
      <path d="M 49.807187 98.147393 
L 414.982188 98.147393 
" clip-path="url(#pab09094e24)" style="fill: none; stroke: #cccccc; stroke-opacity: 0.3; stroke-linecap: round"/>
     </g>
     <g id="text_13">
      <!-- 2.5 -->
      <g style="fill: #262626" transform="translate(22.81375 102.326533) scale(0.11 -0.11)">
       <use xlink:href="#DejaVuSans-32"/>
       <use xlink:href="#DejaVuSans-2e" transform="translate(63.623047 0)"/>
       <use xlink:href="#DejaVuSans-35" transform="translate(95.410156 0)"/>
      </g>
     </g>
    </g>
    <g id="ytick_7">
     <g id="line2d_13">
      <path d="M 49.807187 59.468131 
L 414.982188 59.468131 
" clip-path="url(#pab09094e24)" style="fill: none; stroke: #cccccc; stroke-opacity: 0.3; stroke-linecap: round"/>
     </g>
     <g id="text_14">
      <!-- 3.0 -->
      <g style="fill: #262626" transform="translate(22.81375 63.647271) scale(0.11 -0.11)">
       <use xlink:href="#DejaVuSans-33"/>
       <use xlink:href="#DejaVuSans-2e" transform="translate(63.623047 0)"/>
       <use xlink:href="#DejaVuSans-30" transform="translate(95.410156 0)"/>
      </g>
     </g>
    </g>
    <g id="text_15">
     <!-- $\Delta\omega$ -->
     <g style="fill: #262626" transform="translate(16.318125 171.868125) rotate(-90) scale(0.12 -0.12)">
      <defs>
       <path id="DejaVuSans-394" d="M 2188 4044 
L 906 525 
L 3472 525 
L 2188 4044 
z
M 50 0 
L 1831 4666 
L 2547 4666 
L 4325 0 
L 50 0 
z
" transform="scale(0.015625)"/>
       <path id="DejaVuSans-Oblique-3c9" d="M 1369 -91 
Q 72 -91 434 1766 
Q 575 2500 1256 3500 
L 1875 3500 
Q 1231 2500 1088 1750 
Q 819 397 1519 397 
Q 2166 397 2478 2078 
L 3009 2078 
Q 2669 388 3316 397 
Q 4013 403 4275 1750 
Q 4419 2500 4169 3500 
L 4788 3500 
Q 5075 2500 4934 1766 
Q 4578 -94 3278 -91 
Q 2428 -88 2503 844 
Q 2194 -91 1369 -91 
z
" transform="scale(0.015625)"/>
      </defs>
      <use xlink:href="#DejaVuSans-394" transform="translate(0 0.09375)"/>
      <use xlink:href="#DejaVuSans-Oblique-3c9" transform="translate(68.408203 0.09375)"/>
     </g>
    </g>
   </g>
   <g id="line2d_14">
    <path d="M 66.406051 289.534195 
L 69.725824 289.526167 
L 73.045597 289.505469 
L 76.365369 289.471987 
L 79.685142 289.42543 
L 83.004915 289.365304 
L 86.324687 289.290867 
L 89.64446 289.201082 
L 92.964233 289.09454 
L 96.284006 288.969358 
L 99.603778 288.823045 
L 102.923551 288.652303 
L 106.243324 288.452751 
L 109.563097 288.218517 
L 112.882869 287.941622 
L 116.202642 287.611018 
L 119.522415 287.211049 
L 122.842188 286.718856 
L 126.16196 286.099789 
L 129.481733 285.298808 
L 132.801506 284.22301 
L 136.121278 282.702484 
L 139.441051 280.389886 
L 142.760824 276.447328 
L 146.080597 268.208514 
L 149.400369 240.207446 
L 152.720142 35.079034 
L 156.039915 254.916004 
L 159.359688 271.839201 
L 162.67946 278.078619 
L 165.999233 281.326502 
L 169.319006 283.319848 
L 172.638778 284.668935 
L 175.958551 285.643398 
L 179.278324 286.380782 
L 182.598097 286.958592 
L 185.917869 287.423818 
L 189.237642 287.806602 
L 192.557415 288.127155 
L 195.877188 288.399531 
L 199.19696 288.633796 
L 202.516733 288.837345 
L 205.836506 289.015722 
L 209.156278 289.17316 
L 212.476051 289.312942 
L 215.795824 289.437642 
L 219.115597 289.549304 
L 222.435369 289.649563 
L 225.755142 289.739735 
L 229.074915 289.820889 
L 232.394688 289.893891 
L 235.71446 289.959446 
L 239.034233 290.018128 
L 242.354006 290.070406 
L 245.673778 290.116659 
L 248.993551 290.157194 
L 252.313324 290.192259 
L 255.633097 290.222052 
L 258.952869 290.246735 
L 262.272642 290.266436 
L 265.592415 290.281259 
L 268.912188 290.291287 
L 272.23196 290.296588 
L 275.551733 290.297216 
L 278.871506 290.293213 
L 282.191278 290.284608 
L 285.511051 290.271417 
L 288.830824 290.25364 
L 292.150597 290.231259 
L 295.470369 290.20423 
L 298.790142 290.172485 
L 302.109915 290.135918 
L 305.429688 290.094385 
L 308.74946 290.047693 
L 312.069233 289.99559 
L 315.389006 289.937758 
L 318.708778 289.873799 
L 322.028551 289.803217 
L 325.348324 289.725402 
L 328.668097 289.639602 
L 331.987869 289.544895 
L 335.307642 289.440146 
L 338.627415 289.323952 
L 341.947188 289.194569 
L 345.26696 289.049817 
L 348.586733 288.886938 
L 351.906506 288.702405 
L 355.226278 288.491649 
L 358.546051 288.248648 
L 361.865824 287.965316 
L 365.185597 287.630546 
L 368.505369 287.22867 
L 371.825142 286.736867 
L 375.144915 286.120566 
L 378.464688 285.324798 
L 381.78446 284.256576 
L 385.104233 282.745185 
L 388.424006 280.439605 
L 391.743778 276.485149 
L 395.063551 268.115158 
L 398.383324 238.521939 
" clip-path="url(#pab09094e24)" style="fill: none; stroke: #4c72b0; stroke-width: 2; stroke-linecap: round"/>
   </g>
   <g id="line2d_15">
    <path d="M 49.807187 283.80785 
L 414.982188 283.80785 
" clip-path="url(#pab09094e24)" style="fill: none; stroke-dasharray: 5.55,2.4; stroke-dashoffset: 0; stroke: #808080; stroke-opacity: 0.5; stroke-width: 1.5"/>
   </g>
   <g id="line2d_16">
    <path d="M 274.352579 303.058125 
L 274.352579 22.318125 
" clip-path="url(#pab09094e24)" style="fill: none; stroke-dasharray: 1.5,2.475; stroke-dashoffset: 0; stroke: #c44e52; stroke-opacity: 0.7; stroke-width: 1.5"/>
   </g>
   <g id="patch_3">
    <path d="M 49.807187 303.058125 
L 49.807187 22.318125 
" style="fill: none; stroke: #cccccc; stroke-width: 1.25; stroke-linejoin: miter; stroke-linecap: square"/>
   </g>
   <g id="patch_4">
    <path d="M 414.982188 303.058125 
L 414.982188 22.318125 
" style="fill: none; stroke: #cccccc; stroke-width: 1.25; stroke-linejoin: miter; stroke-linecap: square"/>
   </g>
   <g id="patch_5">
    <path d="M 49.807187 303.058125 
L 414.982188 303.058125 
" style="fill: none; stroke: #cccccc; stroke-width: 1.25; stroke-linejoin: miter; stroke-linecap: square"/>
   </g>
   <g id="patch_6">
    <path d="M 49.807187 22.318125 
L 414.982188 22.318125 
" style="fill: none; stroke: #cccccc; stroke-width: 1.25; stroke-linejoin: miter; stroke-linecap: square"/>
   </g>
   <g id="text_16">
    <!-- Phase 1: N=1 (J_A=1), ω=0.2 -->
    <g style="fill: #262626" transform="translate(143.7775 16.318125) scale(0.12 -0.12)">
     <defs>
      <path id="DejaVuSans-50" d="M 1259 4147 
L 1259 2394 
L 2053 2394 
Q 2494 2394 2734 2622 
Q 2975 2850 2975 3272 
Q 2975 3691 2734 3919 
Q 2494 4147 2053 4147 
L 1259 4147 
z
M 628 4666 
L 2053 4666 
Q 2838 4666 3239 4311 
Q 3641 3956 3641 3272 
Q 3641 2581 3239 2228 
Q 2838 1875 2053 1875 
L 1259 1875 
L 1259 0 
L 628 0 
L 628 4666 
z
" transform="scale(0.015625)"/>
      <path id="DejaVuSans-61" d="M 2194 1759 
Q 1497 1759 1228 1600 
Q 959 1441 959 1056 
Q 959 750 1161 570 
Q 1363 391 1709 391 
Q 2188 391 2477 730 
Q 2766 1069 2766 1631 
L 2766 1759 
L 2194 1759 
z
M 3341 1997 
L 3341 0 
L 2766 0 
L 2766 531 
Q 2569 213 2275 61 
Q 1981 -91 1556 -91 
Q 1019 -91 701 211 
Q 384 513 384 1019 
Q 384 1609 779 1909 
Q 1175 2209 1959 2209 
L 2766 2209 
L 2766 2266 
Q 2766 2663 2505 2880 
Q 2244 3097 1772 3097 
Q 1472 3097 1187 3025 
Q 903 2953 641 2809 
L 641 3341 
Q 956 3463 1253 3523 
Q 1550 3584 1831 3584 
Q 2591 3584 2966 3190 
Q 3341 2797 3341 1997 
z
" transform="scale(0.015625)"/>
      <path id="DejaVuSans-3a" d="M 750 794 
L 1409 794 
L 1409 0 
L 750 0 
L 750 794 
z
M 750 3309 
L 1409 3309 
L 1409 2516 
L 750 2516 
L 750 3309 
z
" transform="scale(0.015625)"/>
      <path id="DejaVuSans-4e" d="M 628 4666 
L 1478 4666 
L 3547 763 
L 3547 4666 
L 4159 4666 
L 4159 0 
L 3309 0 
L 1241 3903 
L 1241 0 
L 628 0 
L 628 4666 
z
" transform="scale(0.015625)"/>
      <path id="DejaVuSans-3d" d="M 678 2906 
L 4684 2906 
L 4684 2381 
L 678 2381 
L 678 2906 
z
M 678 1631 
L 4684 1631 
L 4684 1100 
L 678 1100 
L 678 1631 
z
" transform="scale(0.015625)"/>
      <path id="DejaVuSans-4a" d="M 628 4666 
L 1259 4666 
L 1259 325 
Q 1259 -519 939 -900 
Q 619 -1281 -91 -1281 
L -331 -1281 
L -331 -750 
L -134 -750 
Q 284 -750 456 -515 
Q 628 -281 628 325 
L 628 4666 
z
" transform="scale(0.015625)"/>
      <path id="DejaVuSans-5f" d="M 3263 -1063 
L 3263 -1509 
L -63 -1509 
L -63 -1063 
L 3263 -1063 
z
" transform="scale(0.015625)"/>
      <path id="DejaVuSans-2c" d="M 750 794 
L 1409 794 
L 1409 256 
L 897 -744 
L 494 -744 
L 750 256 
L 750 794 
z
" transform="scale(0.015625)"/>
      <path id="DejaVuSans-3c9" d="M 1719 -91 
Q 422 -91 422 1766 
Q 422 2500 906 3500 
L 1525 3500 
Q 1078 2500 1078 1750 
Q 1078 397 1772 397 
Q 2406 397 2406 2078 
L 2938 2078 
Q 2938 397 3572 397 
Q 4266 397 4266 1750 
Q 4266 2500 3819 3500 
L 4438 3500 
Q 4922 2500 4922 1766 
Q 4922 -91 3625 -91 
Q 2775 -91 2672 844 
Q 2544 -91 1719 -91 
z
" transform="scale(0.015625)"/>
     </defs>
     <use xlink:href="#DejaVuSans-50"/>
     <use xlink:href="#DejaVuSans-68" transform="translate(60.302734 0)"/>
     <use xlink:href="#DejaVuSans-61" transform="translate(123.681641 0)"/>
     <use xlink:href="#DejaVuSans-73" transform="translate(184.960938 0)"/>
     <use xlink:href="#DejaVuSans-65" transform="translate(237.060547 0)"/>
     <use xlink:href="#DejaVuSans-20" transform="translate(298.583984 0)"/>
     <use xlink:href="#DejaVuSans-31" transform="translate(330.371094 0)"/>
     <use xlink:href="#DejaVuSans-3a" transform="translate(393.994141 0)"/>
     <use xlink:href="#DejaVuSans-20" transform="translate(427.685547 0)"/>
     <use xlink:href="#DejaVuSans-4e" transform="translate(459.472656 0)"/>
     <use xlink:href="#DejaVuSans-3d" transform="translate(534.277344 0)"/>
     <use xlink:href="#DejaVuSans-31" transform="translate(618.066406 0)"/>
     <use xlink:href="#DejaVuSans-20" transform="translate(681.689453 0)"/>
     <use xlink:href="#DejaVuSans-28" transform="translate(713.476562 0)"/>
     <use xlink:href="#DejaVuSans-4a" transform="translate(752.490234 0)"/>
     <use xlink:href="#DejaVuSans-5f" transform="translate(781.982422 0)"/>
     <use xlink:href="#DejaVuSans-41" transform="translate(831.982422 0)"/>
     <use xlink:href="#DejaVuSans-3d" transform="translate(900.390625 0)"/>
     <use xlink:href="#DejaVuSans-31" transform="translate(984.179688 0)"/>
     <use xlink:href="#DejaVuSans-29" transform="translate(1047.802734 0)"/>
     <use xlink:href="#DejaVuSans-2c" transform="translate(1086.816406 0)"/>
     <use xlink:href="#DejaVuSans-20" transform="translate(1118.603516 0)"/>
     <use xlink:href="#DejaVuSans-3c9" transform="translate(1150.390625 0)"/>
     <use xlink:href="#DejaVuSans-3d" transform="translate(1234.130859 0)"/>
     <use xlink:href="#DejaVuSans-30" transform="translate(1317.919922 0)"/>
     <use xlink:href="#DejaVuSans-2e" transform="translate(1381.542969 0)"/>
     <use xlink:href="#DejaVuSans-32" transform="translate(1413.330078 0)"/>
    </g>
   </g>
   <g id="legend_1">
    <g id="patch_7">
     <path d="M 336.772188 70.538437 
L 408.682187 70.538437 
Q 410.482188 70.538437 410.482188 68.738437 
L 410.482188 28.618125 
Q 410.482188 26.818125 408.682187 26.818125 
L 336.772188 26.818125 
Q 334.972188 26.818125 334.972188 28.618125 
L 334.972188 68.738437 
Q 334.972188 70.538437 336.772188 70.538437 
z
" style="fill: #ffffff; opacity: 0.8; stroke: #cccccc; stroke-linejoin: miter"/>
    </g>
    <g id="line2d_17">
     <path d="M 338.572188 34.108125 
L 347.572188 34.108125 
L 356.572188 34.108125 
" style="fill: none; stroke: #4c72b0; stroke-width: 2; stroke-linecap: round"/>
    </g>
    <g id="text_17">
     <!-- $\Delta\omega(q)$ -->
     <g style="fill: #262626" transform="translate(363.772188 37.258125) scale(0.09 -0.09)">
      <defs>
       <path id="DejaVuSans-Oblique-71" d="M 2669 525 
Q 2438 222 2123 65 
Q 1809 -91 1428 -91 
Q 897 -91 595 267 
Q 294 625 294 1253 
Q 294 1759 480 2231 
Q 666 2703 1013 3078 
Q 1238 3322 1530 3453 
Q 1822 3584 2144 3584 
Q 2531 3584 2781 3431 
Q 3031 3278 3144 2969 
L 3244 3494 
L 3822 3494 
L 2888 -1319 
L 2309 -1319 
L 2669 525 
z
M 891 1338 
Q 891 875 1084 633 
Q 1278 391 1644 391 
Q 2188 391 2572 911 
Q 2956 1431 2956 2175 
Q 2956 2625 2757 2864 
Q 2559 3103 2188 3103 
Q 1916 3103 1684 2976 
Q 1453 2850 1281 2606 
Q 1100 2350 995 2006 
Q 891 1663 891 1338 
z
" transform="scale(0.015625)"/>
      </defs>
      <use xlink:href="#DejaVuSans-394" transform="translate(0 0.125)"/>
      <use xlink:href="#DejaVuSans-Oblique-3c9" transform="translate(68.408203 0.125)"/>
      <use xlink:href="#DejaVuSans-28" transform="translate(152.148438 0.125)"/>
      <use xlink:href="#DejaVuSans-Oblique-71" transform="translate(191.162109 0.125)"/>
      <use xlink:href="#DejaVuSans-29" transform="translate(254.638672 0.125)"/>
     </g>
    </g>
    <g id="line2d_18">
     <path d="M 338.572188 47.336719 
L 347.572188 47.336719 
L 356.572188 47.336719 
" style="fill: none; stroke-dasharray: 5.55,2.4; stroke-dashoffset: 0; stroke: #808080; stroke-opacity: 0.5; stroke-width: 1.5"/>
    </g>
    <g id="text_18">
     <!-- SQL -->
     <g style="fill: #262626" transform="translate(363.772188 50.486719) scale(0.09 -0.09)">
      <defs>
       <path id="DejaVuSans-53" d="M 3425 4513 
L 3425 3897 
Q 3066 4069 2747 4153 
Q 2428 4238 2131 4238 
Q 1616 4238 1336 4038 
Q 1056 3838 1056 3469 
Q 1056 3159 1242 3001 
Q 1428 2844 1947 2747 
L 2328 2669 
Q 3034 2534 3370 2195 
Q 3706 1856 3706 1288 
Q 3706 609 3251 259 
Q 2797 -91 1919 -91 
Q 1588 -91 1214 -16 
Q 841 59 441 206 
L 441 856 
Q 825 641 1194 531 
Q 1563 422 1919 422 
Q 2459 422 2753 634 
Q 3047 847 3047 1241 
Q 3047 1584 2836 1778 
Q 2625 1972 2144 2069 
L 1759 2144 
Q 1053 2284 737 2584 
Q 422 2884 422 3419 
Q 422 4038 858 4394 
Q 1294 4750 2059 4750 
Q 2388 4750 2728 4690 
Q 3069 4631 3425 4513 
z
" transform="scale(0.015625)"/>
       <path id="DejaVuSans-51" d="M 2522 4238 
Q 1834 4238 1429 3725 
Q 1025 3213 1025 2328 
Q 1025 1447 1429 934 
Q 1834 422 2522 422 
Q 3209 422 3611 934 
Q 4013 1447 4013 2328 
Q 4013 3213 3611 3725 
Q 3209 4238 2522 4238 
z
M 3406 84 
L 4238 -825 
L 3475 -825 
L 2784 -78 
Q 2681 -84 2626 -87 
Q 2572 -91 2522 -91 
Q 1538 -91 948 567 
Q 359 1225 359 2328 
Q 359 3434 948 4092 
Q 1538 4750 2522 4750 
Q 3503 4750 4090 4092 
Q 4678 3434 4678 2328 
Q 4678 1516 4351 937 
Q 4025 359 3406 84 
z
" transform="scale(0.015625)"/>
       <path id="DejaVuSans-4c" d="M 628 4666 
L 1259 4666 
L 1259 531 
L 3531 531 
L 3531 0 
L 628 0 
L 628 4666 
z
" transform="scale(0.015625)"/>
      </defs>
      <use xlink:href="#DejaVuSans-53"/>
      <use xlink:href="#DejaVuSans-51" transform="translate(63.476562 0)"/>
      <use xlink:href="#DejaVuSans-4c" transform="translate(142.1875 0)"/>
     </g>
    </g>
    <g id="line2d_19">
     <path d="M 338.572188 61.898437 
L 347.572188 61.898437 
L 356.572188 61.898437 
" style="fill: none; stroke-dasharray: 1.5,2.475; stroke-dashoffset: 0; stroke: #c44e52; stroke-opacity: 0.7; stroke-width: 1.5"/>
    </g>
    <g id="text_19">
     <!-- $q^*=3.13$ -->
     <g style="fill: #262626" transform="translate(363.772188 65.048437) scale(0.09 -0.09)">
      <defs>
       <path id="DejaVuSans-2a" d="M 3009 3897 
L 1888 3291 
L 3009 2681 
L 2828 2375 
L 1778 3009 
L 1778 1831 
L 1422 1831 
L 1422 3009 
L 372 2375 
L 191 2681 
L 1313 3291 
L 191 3897 
L 372 4206 
L 1422 3572 
L 1422 4750 
L 1778 4750 
L 1778 3572 
L 2828 4206 
L 3009 3897 
z
" transform="scale(0.015625)"/>
      </defs>
      <use xlink:href="#DejaVuSans-Oblique-71" transform="translate(0 0.765625)"/>
      <use xlink:href="#DejaVuSans-2a" transform="translate(81.764154 39.046875) scale(0.7)"/>
      <use xlink:href="#DejaVuSans-3d" transform="translate(152.618646 0.765625)"/>
      <use xlink:href="#DejaVuSans-33" transform="translate(255.89013 0.765625)"/>
      <use xlink:href="#DejaVuSans-2e" transform="translate(319.513177 0.765625)"/>
      <use xlink:href="#DejaVuSans-31" transform="translate(351.300286 0.765625)"/>
      <use xlink:href="#DejaVuSans-33" transform="translate(414.923333 0.765625)"/>
     </g>
    </g>
   </g>
  </g>
  <g id="axes_2">
   <g id="patch_8">
    <path d="M 478.792188 303.058125 
L 843.967187 303.058125 
L 843.967187 22.318125 
L 478.792188 22.318125 
z
" style="fill: #ffffff"/>
   </g>
   <g id="matplotlib.axis_3">
    <g id="xtick_7">
     <g id="line2d_20">
      <path d="M 495.391051 303.058125 
L 495.391051 22.318125 
" clip-path="url(#p582f03501c)" style="fill: none; stroke: #cccccc; stroke-opacity: 0.3; stroke-linecap: round"/>
     </g>
     <g id="text_20">
      <!-- 0 -->
      <g style="fill: #262626" transform="translate(491.891676 320.916406) scale(0.11 -0.11)">
       <use xlink:href="#DejaVuSans-30"/>
      </g>
     </g>
    </g>
    <g id="xtick_8">
     <g id="line2d_21">
      <path d="M 561.786506 303.058125 
L 561.786506 22.318125 
" clip-path="url(#p582f03501c)" style="fill: none; stroke: #cccccc; stroke-opacity: 0.3; stroke-linecap: round"/>
     </g>
     <g id="text_21">
      <!-- 1 -->
      <g style="fill: #262626" transform="translate(558.287131 320.916406) scale(0.11 -0.11)">
       <use xlink:href="#DejaVuSans-31"/>
      </g>
     </g>
    </g>
    <g id="xtick_9">
     <g id="line2d_22">
      <path d="M 628.18196 303.058125 
L 628.18196 22.318125 
" clip-path="url(#p582f03501c)" style="fill: none; stroke: #cccccc; stroke-opacity: 0.3; stroke-linecap: round"/>
     </g>
     <g id="text_22">
      <!-- 2 -->
      <g style="fill: #262626" transform="translate(624.682585 320.916406) scale(0.11 -0.11)">
       <use xlink:href="#DejaVuSans-32"/>
      </g>
     </g>
    </g>
    <g id="xtick_10">
     <g id="line2d_23">
      <path d="M 694.577415 303.058125 
L 694.577415 22.318125 
" clip-path="url(#p582f03501c)" style="fill: none; stroke: #cccccc; stroke-opacity: 0.3; stroke-linecap: round"/>
     </g>
     <g id="text_23">
      <!-- 3 -->
      <g style="fill: #262626" transform="translate(691.07804 320.916406) scale(0.11 -0.11)">
       <use xlink:href="#DejaVuSans-33"/>
      </g>
     </g>
    </g>
    <g id="xtick_11">
     <g id="line2d_24">
      <path d="M 760.972869 303.058125 
L 760.972869 22.318125 
" clip-path="url(#p582f03501c)" style="fill: none; stroke: #cccccc; stroke-opacity: 0.3; stroke-linecap: round"/>
     </g>
     <g id="text_24">
      <!-- 4 -->
      <g style="fill: #262626" transform="translate(757.473494 320.916406) scale(0.11 -0.11)">
       <use xlink:href="#DejaVuSans-34"/>
      </g>
     </g>
    </g>
    <g id="xtick_12">
     <g id="line2d_25">
      <path d="M 827.368324 303.058125 
L 827.368324 22.318125 
" clip-path="url(#p582f03501c)" style="fill: none; stroke: #cccccc; stroke-opacity: 0.3; stroke-linecap: round"/>
     </g>
     <g id="text_25">
      <!-- 5 -->
      <g style="fill: #262626" transform="translate(823.868949 320.916406) scale(0.11 -0.11)">
       <use xlink:href="#DejaVuSans-35"/>
      </g>
     </g>
    </g>
    <g id="text_26">
     <!-- q (OAT squeezing strength) -->
     <g style="fill: #262626" transform="translate(579.43 336.322187) scale(0.12 -0.12)">
      <use xlink:href="#DejaVuSans-71"/>
      <use xlink:href="#DejaVuSans-20" transform="translate(63.476562 0)"/>
      <use xlink:href="#DejaVuSans-28" transform="translate(95.263672 0)"/>
      <use xlink:href="#DejaVuSans-4f" transform="translate(134.277344 0)"/>
      <use xlink:href="#DejaVuSans-41" transform="translate(211.238281 0)"/>
      <use xlink:href="#DejaVuSans-54" transform="translate(271.896484 0)"/>
      <use xlink:href="#DejaVuSans-20" transform="translate(332.980469 0)"/>
      <use xlink:href="#DejaVuSans-73" transform="translate(364.767578 0)"/>
      <use xlink:href="#DejaVuSans-71" transform="translate(416.867188 0)"/>
      <use xlink:href="#DejaVuSans-75" transform="translate(480.34375 0)"/>
      <use xlink:href="#DejaVuSans-65" transform="translate(543.722656 0)"/>
      <use xlink:href="#DejaVuSans-65" transform="translate(605.246094 0)"/>
      <use xlink:href="#DejaVuSans-7a" transform="translate(666.769531 0)"/>
      <use xlink:href="#DejaVuSans-69" transform="translate(719.259766 0)"/>
      <use xlink:href="#DejaVuSans-6e" transform="translate(747.042969 0)"/>
      <use xlink:href="#DejaVuSans-67" transform="translate(810.421875 0)"/>
      <use xlink:href="#DejaVuSans-20" transform="translate(873.898438 0)"/>
      <use xlink:href="#DejaVuSans-73" transform="translate(905.685547 0)"/>
      <use xlink:href="#DejaVuSans-74" transform="translate(957.785156 0)"/>
      <use xlink:href="#DejaVuSans-72" transform="translate(996.994141 0)"/>
      <use xlink:href="#DejaVuSans-65" transform="translate(1035.857422 0)"/>
      <use xlink:href="#DejaVuSans-6e" transform="translate(1097.380859 0)"/>
      <use xlink:href="#DejaVuSans-67" transform="translate(1160.759766 0)"/>
      <use xlink:href="#DejaVuSans-74" transform="translate(1224.236328 0)"/>
      <use xlink:href="#DejaVuSans-68" transform="translate(1263.445312 0)"/>
      <use xlink:href="#DejaVuSans-29" transform="translate(1326.824219 0)"/>
     </g>
    </g>
   </g>
   <g id="matplotlib.axis_4">
    <g id="ytick_8">
     <g id="line2d_26">
      <path d="M 478.792188 257.728479 
L 843.967187 257.728479 
" clip-path="url(#p582f03501c)" style="fill: none; stroke: #cccccc; stroke-opacity: 0.3; stroke-linecap: round"/>
     </g>
     <g id="text_27">
      <!-- 0.02 -->
      <g style="fill: #262626" transform="translate(444.8 261.90762) scale(0.11 -0.11)">
       <use xlink:href="#DejaVuSans-30"/>
       <use xlink:href="#DejaVuSans-2e" transform="translate(63.623047 0)"/>
       <use xlink:href="#DejaVuSans-30" transform="translate(95.410156 0)"/>
       <use xlink:href="#DejaVuSans-32" transform="translate(159.033203 0)"/>
      </g>
     </g>
    </g>
    <g id="ytick_9">
     <g id="line2d_27">
      <path d="M 478.792188 199.738509 
L 843.967187 199.738509 
" clip-path="url(#p582f03501c)" style="fill: none; stroke: #cccccc; stroke-opacity: 0.3; stroke-linecap: round"/>
     </g>
     <g id="text_28">
      <!-- 0.03 -->
      <g style="fill: #262626" transform="translate(444.8 203.917649) scale(0.11 -0.11)">
       <use xlink:href="#DejaVuSans-30"/>
       <use xlink:href="#DejaVuSans-2e" transform="translate(63.623047 0)"/>
       <use xlink:href="#DejaVuSans-30" transform="translate(95.410156 0)"/>
       <use xlink:href="#DejaVuSans-33" transform="translate(159.033203 0)"/>
      </g>
     </g>
    </g>
    <g id="ytick_10">
     <g id="line2d_28">
      <path d="M 478.792188 141.748538 
L 843.967187 141.748538 
" clip-path="url(#p582f03501c)" style="fill: none; stroke: #cccccc; stroke-opacity: 0.3; stroke-linecap: round"/>
     </g>
     <g id="text_29">
      <!-- 0.04 -->
      <g style="fill: #262626" transform="translate(444.8 145.927679) scale(0.11 -0.11)">
       <use xlink:href="#DejaVuSans-30"/>
       <use xlink:href="#DejaVuSans-2e" transform="translate(63.623047 0)"/>
       <use xlink:href="#DejaVuSans-30" transform="translate(95.410156 0)"/>
       <use xlink:href="#DejaVuSans-34" transform="translate(159.033203 0)"/>
      </g>
     </g>
    </g>
    <g id="ytick_11">
     <g id="line2d_29">
      <path d="M 478.792188 83.758568 
L 843.967187 83.758568 
" clip-path="url(#p582f03501c)" style="fill: none; stroke: #cccccc; stroke-opacity: 0.3; stroke-linecap: round"/>
     </g>
     <g id="text_30">
      <!-- 0.05 -->
      <g style="fill: #262626" transform="translate(444.8 87.937709) scale(0.11 -0.11)">
       <use xlink:href="#DejaVuSans-30"/>
       <use xlink:href="#DejaVuSans-2e" transform="translate(63.623047 0)"/>
       <use xlink:href="#DejaVuSans-30" transform="translate(95.410156 0)"/>
       <use xlink:href="#DejaVuSans-35" transform="translate(159.033203 0)"/>
      </g>
     </g>
    </g>
    <g id="ytick_12">
     <g id="line2d_30">
      <path d="M 478.792188 25.768597 
L 843.967187 25.768597 
" clip-path="url(#p582f03501c)" style="fill: none; stroke: #cccccc; stroke-opacity: 0.3; stroke-linecap: round"/>
     </g>
     <g id="text_31">
      <!-- 0.06 -->
      <g style="fill: #262626" transform="translate(444.8 29.947738) scale(0.11 -0.11)">
       <defs>
        <path id="DejaVuSans-36" d="M 2113 2584 
Q 1688 2584 1439 2293 
Q 1191 2003 1191 1497 
Q 1191 994 1439 701 
Q 1688 409 2113 409 
Q 2538 409 2786 701 
Q 3034 994 3034 1497 
Q 3034 2003 2786 2293 
Q 2538 2584 2113 2584 
z
M 3366 4563 
L 3366 3988 
Q 3128 4100 2886 4159 
Q 2644 4219 2406 4219 
Q 1781 4219 1451 3797 
Q 1122 3375 1075 2522 
Q 1259 2794 1537 2939 
Q 1816 3084 2150 3084 
Q 2853 3084 3261 2657 
Q 3669 2231 3669 1497 
Q 3669 778 3244 343 
Q 2819 -91 2113 -91 
Q 1303 -91 875 529 
Q 447 1150 447 2328 
Q 447 3434 972 4092 
Q 1497 4750 2381 4750 
Q 2619 4750 2861 4703 
Q 3103 4656 3366 4563 
z
" transform="scale(0.015625)"/>
       </defs>
       <use xlink:href="#DejaVuSans-30"/>
       <use xlink:href="#DejaVuSans-2e" transform="translate(63.623047 0)"/>
       <use xlink:href="#DejaVuSans-30" transform="translate(95.410156 0)"/>
       <use xlink:href="#DejaVuSans-36" transform="translate(159.033203 0)"/>
      </g>
     </g>
    </g>
    <g id="text_32">
     <!-- $\Delta\omega$ -->
     <g style="fill: #262626" transform="translate(438.304375 171.868125) rotate(-90) scale(0.12 -0.12)">
      <use xlink:href="#DejaVuSans-394" transform="translate(0 0.09375)"/>
      <use xlink:href="#DejaVuSans-Oblique-3c9" transform="translate(68.408203 0.09375)"/>
     </g>
    </g>
   </g>
   <g id="line2d_31">
    <path d="M 495.391051 167.136037 
L 498.710824 158.808889 
L 502.030597 148.218372 
L 505.350369 135.25397 
L 508.670142 120.009598 
L 511.989915 102.911399 
L 515.309687 84.843229 
L 518.62946 67.204556 
L 521.949233 51.81217 
L 525.269006 40.587084 
L 528.588778 35.079034 
L 531.908551 36.02095 
L 535.228324 43.14261 
L 538.548097 55.333637 
L 541.867869 71.038591 
L 545.187642 88.670506 
L 548.507415 106.890135 
L 551.827188 124.717771 
L 555.14696 141.52339 
L 558.466733 156.958092 
L 561.786506 170.872771 
L 565.106278 183.247263 
L 568.426051 194.137215 
L 571.745824 203.637837 
L 575.065597 211.860922 
L 578.385369 218.921237 
L 581.705142 224.929147 
L 585.024915 229.987186 
L 588.344687 234.189047 
L 591.66446 237.620035 
L 594.984233 240.358348 
L 598.304006 242.476873 
L 601.623778 244.045254 
L 604.943551 245.132116 
L 608.263324 245.807317 
L 611.583097 246.144102 
L 614.902869 246.220944 
L 618.222642 246.122792 
L 621.542415 245.941336 
L 624.862188 245.773845 
L 628.18196 245.720195 
L 631.501733 245.877881 
L 634.821506 246.335263 
L 638.141278 247.163848 
L 641.461051 248.410949 
L 644.780824 250.094372 
L 648.100597 252.200509 
L 651.420369 254.686463 
L 654.740142 257.48577 
L 658.059915 260.516416 
L 661.379688 263.689426 
L 664.69946 266.916518 
L 668.019233 270.115852 
L 671.339006 273.215584 
L 674.658778 276.155412 
L 677.978551 278.88664 
L 681.298324 281.371266 
L 684.618097 283.580626 
L 687.937869 285.493913 
L 691.257642 287.096838 
L 694.577415 288.38052 
L 697.897187 289.340681 
L 701.21696 289.977128 
L 704.536733 290.293496 
L 707.856506 290.297216 
L 711.176278 289.999643 
L 714.496051 289.416322 
L 717.815824 288.567313 
L 721.135597 287.477527 
L 724.455369 286.176996 
L 727.775142 284.700971 
L 731.094915 283.089728 
L 734.414688 281.387942 
L 737.73446 279.643479 
L 741.054233 277.905504 
L 744.374006 276.221868 
L 747.693778 274.635881 
L 751.013551 273.182748 
L 754.333324 271.886118 
L 757.653097 270.755297 
L 760.972869 269.783702 
L 764.292642 268.94894 
L 767.612415 268.214595 
L 770.932188 267.533464 
L 774.25196 266.851643 
L 777.571733 266.112756 
L 780.891506 265.261645 
L 784.211278 264.247082 
L 787.531051 263.023349 
L 790.850824 261.55081 
L 794.170597 259.795756 
L 797.490369 257.72988 
L 800.810142 255.329717 
L 804.129915 252.576296 
L 807.449687 249.455193 
L 810.76946 245.957084 
L 814.089233 242.078844 
L 817.409006 237.825191 
L 820.728778 233.210847 
L 824.048551 228.263085 
L 827.368324 223.024486 
" clip-path="url(#p582f03501c)" style="fill: none; stroke: #4c72b0; stroke-width: 2; stroke-linecap: round"/>
   </g>
   <g id="line2d_32">
    <path d="M 478.792188 83.758568 
L 843.967187 83.758568 
" clip-path="url(#p582f03501c)" style="fill: none; stroke-dasharray: 5.55,2.4; stroke-dashoffset: 0; stroke: #808080; stroke-opacity: 0.5; stroke-width: 1.5"/>
   </g>
   <g id="line2d_33">
    <path d="M 706.232324 303.058125 
L 706.232324 22.318125 
" clip-path="url(#p582f03501c)" style="fill: none; stroke-dasharray: 1.5,2.475; stroke-dashoffset: 0; stroke: #c44e52; stroke-opacity: 0.7; stroke-width: 1.5"/>
   </g>
   <g id="patch_9">
    <path d="M 478.792188 303.058125 
L 478.792188 22.318125 
" style="fill: none; stroke: #cccccc; stroke-width: 1.25; stroke-linejoin: miter; stroke-linecap: square"/>
   </g>
   <g id="patch_10">
    <path d="M 843.967187 303.058125 
L 843.967187 22.318125 
" style="fill: none; stroke: #cccccc; stroke-width: 1.25; stroke-linejoin: miter; stroke-linecap: square"/>
   </g>
   <g id="patch_11">
    <path d="M 478.792188 303.058125 
L 843.967187 303.058125 
" style="fill: none; stroke: #cccccc; stroke-width: 1.25; stroke-linejoin: miter; stroke-linecap: square"/>
   </g>
   <g id="patch_12">
    <path d="M 478.792188 22.318125 
L 843.967187 22.318125 
" style="fill: none; stroke: #cccccc; stroke-width: 1.25; stroke-linejoin: miter; stroke-linecap: square"/>
   </g>
   <g id="text_33">
    <!-- Phase 2: N=4 (J_A=2), ω=1.0 -->
    <g style="fill: #262626" transform="translate(572.7625 16.318125) scale(0.12 -0.12)">
     <use xlink:href="#DejaVuSans-50"/>
     <use xlink:href="#DejaVuSans-68" transform="translate(60.302734 0)"/>
     <use xlink:href="#DejaVuSans-61" transform="translate(123.681641 0)"/>
     <use xlink:href="#DejaVuSans-73" transform="translate(184.960938 0)"/>
     <use xlink:href="#DejaVuSans-65" transform="translate(237.060547 0)"/>
     <use xlink:href="#DejaVuSans-20" transform="translate(298.583984 0)"/>
     <use xlink:href="#DejaVuSans-32" transform="translate(330.371094 0)"/>
     <use xlink:href="#DejaVuSans-3a" transform="translate(393.994141 0)"/>
     <use xlink:href="#DejaVuSans-20" transform="translate(427.685547 0)"/>
     <use xlink:href="#DejaVuSans-4e" transform="translate(459.472656 0)"/>
     <use xlink:href="#DejaVuSans-3d" transform="translate(534.277344 0)"/>
     <use xlink:href="#DejaVuSans-34" transform="translate(618.066406 0)"/>
     <use xlink:href="#DejaVuSans-20" transform="translate(681.689453 0)"/>
     <use xlink:href="#DejaVuSans-28" transform="translate(713.476562 0)"/>
     <use xlink:href="#DejaVuSans-4a" transform="translate(752.490234 0)"/>
     <use xlink:href="#DejaVuSans-5f" transform="translate(781.982422 0)"/>
     <use xlink:href="#DejaVuSans-41" transform="translate(831.982422 0)"/>
     <use xlink:href="#DejaVuSans-3d" transform="translate(900.390625 0)"/>
     <use xlink:href="#DejaVuSans-32" transform="translate(984.179688 0)"/>
     <use xlink:href="#DejaVuSans-29" transform="translate(1047.802734 0)"/>
     <use xlink:href="#DejaVuSans-2c" transform="translate(1086.816406 0)"/>
     <use xlink:href="#DejaVuSans-20" transform="translate(1118.603516 0)"/>
     <use xlink:href="#DejaVuSans-3c9" transform="translate(1150.390625 0)"/>
     <use xlink:href="#DejaVuSans-3d" transform="translate(1234.130859 0)"/>
     <use xlink:href="#DejaVuSans-31" transform="translate(1317.919922 0)"/>
     <use xlink:href="#DejaVuSans-2e" transform="translate(1381.542969 0)"/>
     <use xlink:href="#DejaVuSans-30" transform="translate(1413.330078 0)"/>
    </g>
   </g>
   <g id="legend_2">
    <g id="patch_13">
     <path d="M 765.757187 70.538437 
L 837.667187 70.538437 
Q 839.467187 70.538437 839.467187 68.738437 
L 839.467187 28.618125 
Q 839.467187 26.818125 837.667187 26.818125 
L 765.757187 26.818125 
Q 763.957187 26.818125 763.957187 28.618125 
L 763.957187 68.738437 
Q 763.957187 70.538437 765.757187 70.538437 
z
" style="fill: #ffffff; opacity: 0.8; stroke: #cccccc; stroke-linejoin: miter"/>
    </g>
    <g id="line2d_34">
     <path d="M 767.557187 34.108125 
L 776.557187 34.108125 
L 785.557187 34.108125 
" style="fill: none; stroke: #4c72b0; stroke-width: 2; stroke-linecap: round"/>
    </g>
    <g id="text_34">
     <!-- $\Delta\omega(q)$ -->
     <g style="fill: #262626" transform="translate(792.757187 37.258125) scale(0.09 -0.09)">
      <use xlink:href="#DejaVuSans-394" transform="translate(0 0.125)"/>
      <use xlink:href="#DejaVuSans-Oblique-3c9" transform="translate(68.408203 0.125)"/>
      <use xlink:href="#DejaVuSans-28" transform="translate(152.148438 0.125)"/>
      <use xlink:href="#DejaVuSans-Oblique-71" transform="translate(191.162109 0.125)"/>
      <use xlink:href="#DejaVuSans-29" transform="translate(254.638672 0.125)"/>
     </g>
    </g>
    <g id="line2d_35">
     <path d="M 767.557187 47.336719 
L 776.557187 47.336719 
L 785.557187 47.336719 
" style="fill: none; stroke-dasharray: 5.55,2.4; stroke-dashoffset: 0; stroke: #808080; stroke-opacity: 0.5; stroke-width: 1.5"/>
    </g>
    <g id="text_35">
     <!-- SQL -->
     <g style="fill: #262626" transform="translate(792.757187 50.486719) scale(0.09 -0.09)">
      <use xlink:href="#DejaVuSans-53"/>
      <use xlink:href="#DejaVuSans-51" transform="translate(63.476562 0)"/>
      <use xlink:href="#DejaVuSans-4c" transform="translate(142.1875 0)"/>
     </g>
    </g>
    <g id="line2d_36">
     <path d="M 767.557187 61.898437 
L 776.557187 61.898437 
L 785.557187 61.898437 
" style="fill: none; stroke-dasharray: 1.5,2.475; stroke-dashoffset: 0; stroke: #c44e52; stroke-opacity: 0.7; stroke-width: 1.5"/>
    </g>
    <g id="text_36">
     <!-- $q^*=3.18$ -->
     <g style="fill: #262626" transform="translate(792.757187 65.048437) scale(0.09 -0.09)">
      <defs>
       <path id="DejaVuSans-38" d="M 2034 2216 
Q 1584 2216 1326 1975 
Q 1069 1734 1069 1313 
Q 1069 891 1326 650 
Q 1584 409 2034 409 
Q 2484 409 2743 651 
Q 3003 894 3003 1313 
Q 3003 1734 2745 1975 
Q 2488 2216 2034 2216 
z
M 1403 2484 
Q 997 2584 770 2862 
Q 544 3141 544 3541 
Q 544 4100 942 4425 
Q 1341 4750 2034 4750 
Q 2731 4750 3128 4425 
Q 3525 4100 3525 3541 
Q 3525 3141 3298 2862 
Q 3072 2584 2669 2484 
Q 3125 2378 3379 2068 
Q 3634 1759 3634 1313 
Q 3634 634 3220 271 
Q 2806 -91 2034 -91 
Q 1263 -91 848 271 
Q 434 634 434 1313 
Q 434 1759 690 2068 
Q 947 2378 1403 2484 
z
M 1172 3481 
Q 1172 3119 1398 2916 
Q 1625 2713 2034 2713 
Q 2441 2713 2670 2916 
Q 2900 3119 2900 3481 
Q 2900 3844 2670 4047 
Q 2441 4250 2034 4250 
Q 1625 4250 1398 4047 
Q 1172 3844 1172 3481 
z
" transform="scale(0.015625)"/>
      </defs>
      <use xlink:href="#DejaVuSans-Oblique-71" transform="translate(0 0.765625)"/>
      <use xlink:href="#DejaVuSans-2a" transform="translate(81.764154 39.046875) scale(0.7)"/>
      <use xlink:href="#DejaVuSans-3d" transform="translate(152.618646 0.765625)"/>
      <use xlink:href="#DejaVuSans-33" transform="translate(255.89013 0.765625)"/>
      <use xlink:href="#DejaVuSans-2e" transform="translate(319.513177 0.765625)"/>
      <use xlink:href="#DejaVuSans-31" transform="translate(351.300286 0.765625)"/>
      <use xlink:href="#DejaVuSans-38" transform="translate(414.923333 0.765625)"/>
     </g>
    </g>
   </g>
  </g>
 </g>
 <defs>
  <clipPath id="pab09094e24">
   <rect x="49.807187" y="22.318125" width="365.175" height="280.74"/>
  </clipPath>
  <clipPath id="p582f03501c">
   <rect x="478.792188" y="22.318125" width="365.175" height="280.74"/>
  </clipPath>
 </defs>
</svg>
