<?xml version="1.0" encoding="utf-8" standalone="no"?>
<!DOCTYPE svg PUBLIC "-//W3C//DTD SVG 1.1//EN"
  "http://www.w3.org/Graphics/SVG/1.1/DTD/svg11.dtd">
<svg xmlns:xlink="http://www.w3.org/1999/xlink" width="563.18125pt" height="413.745437pt" viewBox="0 0 563.18125 413.745437" xmlns="http://www.w3.org/2000/svg" version="1.1">
 <metadata>
  <rdf:RDF xmlns:dc="http://purl.org/dc/elements/1.1/" xmlns:cc="http://creativecommons.org/ns#" xmlns:rdf="http://www.w3.org/1999/02/22-rdf-syntax-ns#">
   <cc:Work>
    <dc:type rdf:resource="http://purl.org/dc/dcmitype/StillImage"/>
    <dc:date>2026-05-22T19:21:58.757940</dc:date>
    <dc:format>image/svg+xml</dc:format>
    <dc:creator>
     <cc:Agent>
      <dc:title>Matplotlib v3.10.9, https://matplotlib.org/</dc:title>
     </cc:Agent>
    </dc:creator>
   </cc:Work>
  </rdf:RDF>
 </metadata>
 <defs>
  <style type="text/css">*{stroke-linejoin: round; stroke-linecap: butt}</style>
 </defs>
 <g id="figure_1">
  <g id="patch_1">
   <path d="M 0 413.745437 
L 563.18125 413.745437 
L 563.18125 0 
L 0 0 
z
" style="fill: #ffffff"/>
  </g>
  <g id="axes_1">
   <g id="patch_2">
    <path d="M 46.31125 370.78575 
L 555.98125 370.78575 
L 555.98125 35.90175 
L 46.31125 35.90175 
z
" style="fill: #ffffff"/>
   </g>
   <g id="matplotlib.axis_1">
    <g id="xtick_1">
     <g id="line2d_1">
      <path d="M 60.022224 370.78575 
L 60.022224 35.90175 
" clip-path="url(#p5b601c47d9)" style="fill: none; stroke: #cccccc; stroke-linecap: round"/>
     </g>
     <g id="text_1">
      <!-- 0 -->
      <g style="fill: #262626" transform="translate(56.522849 388.644031) scale(0.11 -0.11)">
       <defs>
        <path id="DejaVuSans-30" d="M 2034 4250 
Q 1547 4250 1301 3770 
Q 1056 3291 1056 2328 
Q 1056 1369 1301 889 
Q 1547 409 2034 409 
Q 2525 409 2770 889 
Q 3016 1369 3016 2328 
Q 3016 3291 2770 3770 
Q 2525 4250 2034 4250 
z
M 2034 4750 
Q 2819 4750 3233 4129 
Q 3647 3509 3647 2328 
Q 3647 1150 3233 529 
Q 2819 -91 2034 -91 
Q 1250 -91 836 529 
Q 422 1150 422 2328 
Q 422 3509 836 4129 
Q 1250 4750 2034 4750 
z
" transform="scale(0.015625)"/>
       </defs>
       <use xlink:href="#DejaVuSans-30"/>
      </g>
     </g>
    </g>
    <g id="xtick_2">
     <g id="line2d_2">
      <path d="M 154.580666 370.78575 
L 154.580666 35.90175 
" clip-path="url(#p5b601c47d9)" style="fill: none; stroke: #cccccc; stroke-linecap: round"/>
     </g>
     <g id="text_2">
      <!-- 1 -->
      <g style="fill: #262626" transform="translate(151.081291 388.644031) scale(0.11 -0.11)">
       <defs>
        <path id="DejaVuSans-31" d="M 794 531 
L 1825 531 
L 1825 4091 
L 703 3866 
L 703 4441 
L 1819 4666 
L 2450 4666 
L 2450 531 
L 3481 531 
L 3481 0 
L 794 0 
L 794 531 
z
" transform="scale(0.015625)"/>
       </defs>
       <use xlink:href="#DejaVuSans-31"/>
      </g>
     </g>
    </g>
    <g id="xtick_3">
     <g id="line2d_3">
      <path d="M 249.139107 370.78575 
L 249.139107 35.90175 
" clip-path="url(#p5b601c47d9)" style="fill: none; stroke: #cccccc; stroke-linecap: round"/>
     </g>
     <g id="text_3">
      <!-- 2 -->
      <g style="fill: #262626" transform="translate(245.639732 388.644031) scale(0.11 -0.11)">
       <defs>
        <path id="DejaVuSans-32" d="M 1228 531 
L 3431 531 
L 3431 0 
L 469 0 
L 469 531 
Q 828 903 1448 1529 
Q 2069 2156 2228 2338 
Q 2531 2678 2651 2914 
Q 2772 3150 2772 3378 
Q 2772 3750 2511 3984 
Q 2250 4219 1831 4219 
Q 1534 4219 1204 4116 
Q 875 4013 500 3803 
L 500 4441 
Q 881 4594 1212 4672 
Q 1544 4750 1819 4750 
Q 2544 4750 2975 4387 
Q 3406 4025 3406 3419 
Q 3406 3131 3298 2873 
Q 3191 2616 2906 2266 
Q 2828 2175 2409 1742 
Q 1991 1309 1228 531 
z
" transform="scale(0.015625)"/>
       </defs>
       <use xlink:href="#DejaVuSans-32"/>
      </g>
     </g>
    </g>
    <g id="xtick_4">
     <g id="line2d_4">
      <path d="M 343.697549 370.78575 
L 343.697549 35.90175 
" clip-path="url(#p5b601c47d9)" style="fill: none; stroke: #cccccc; stroke-linecap: round"/>
     </g>
     <g id="text_4">
      <!-- 3 -->
      <g style="fill: #262626" transform="translate(340.198174 388.644031) scale(0.11 -0.11)">
       <defs>
        <path id="DejaVuSans-33" d="M 2597 2516 
Q 3050 2419 3304 2112 
Q 3559 1806 3559 1356 
Q 3559 666 3084 287 
Q 2609 -91 1734 -91 
Q 1441 -91 1130 -33 
Q 819 25 488 141 
L 488 750 
Q 750 597 1062 519 
Q 1375 441 1716 441 
Q 2309 441 2620 675 
Q 2931 909 2931 1356 
Q 2931 1769 2642 2001 
Q 2353 2234 1838 2234 
L 1294 2234 
L 1294 2753 
L 1863 2753 
Q 2328 2753 2575 2939 
Q 2822 3125 2822 3475 
Q 2822 3834 2567 4026 
Q 2313 4219 1838 4219 
Q 1578 4219 1281 4162 
Q 984 4106 628 3988 
L 628 4550 
Q 988 4650 1302 4700 
Q 1616 4750 1894 4750 
Q 2613 4750 3031 4423 
Q 3450 4097 3450 3541 
Q 3450 3153 3228 2886 
Q 3006 2619 2597 2516 
z
" transform="scale(0.015625)"/>
       </defs>
       <use xlink:href="#DejaVuSans-33"/>
      </g>
     </g>
    </g>
    <g id="xtick_5">
     <g id="line2d_5">
      <path d="M 438.25599 370.78575 
L 438.25599 35.90175 
" clip-path="url(#p5b601c47d9)" style="fill: none; stroke: #cccccc; stroke-linecap: round"/>
     </g>
     <g id="text_5">
      <!-- 4 -->
      <g style="fill: #262626" transform="translate(434.756615 388.644031) scale(0.11 -0.11)">
       <defs>
        <path id="DejaVuSans-34" d="M 2419 4116 
L 825 1625 
L 2419 1625 
L 2419 4116 
z
M 2253 4666 
L 3047 4666 
L 3047 1625 
L 3713 1625 
L 3713 1100 
L 3047 1100 
L 3047 0 
L 2419 0 
L 2419 1100 
L 313 1100 
L 313 1709 
L 2253 4666 
z
" transform="scale(0.015625)"/>
       </defs>
       <use xlink:href="#DejaVuSans-34"/>
      </g>
     </g>
    </g>
    <g id="xtick_6">
     <g id="line2d_6">
      <path d="M 532.814432 370.78575 
L 532.814432 35.90175 
" clip-path="url(#p5b601c47d9)" style="fill: none; stroke: #cccccc; stroke-linecap: round"/>
     </g>
     <g id="text_6">
      <!-- 5 -->
      <g style="fill: #262626" transform="translate(529.315057 388.644031) scale(0.11 -0.11)">
       <defs>
        <path id="DejaVuSans-35" d="M 691 4666 
L 3169 4666 
L 3169 4134 
L 1269 4134 
L 1269 2991 
Q 1406 3038 1543 3061 
Q 1681 3084 1819 3084 
Q 2600 3084 3056 2656 
Q 3513 2228 3513 1497 
Q 3513 744 3044 326 
Q 2575 -91 1722 -91 
Q 1428 -91 1123 -41 
Q 819 9 494 109 
L 494 744 
Q 775 591 1075 516 
Q 1375 441 1709 441 
Q 2250 441 2565 725 
Q 2881 1009 2881 1497 
Q 2881 1984 2565 2268 
Q 2250 2553 1709 2553 
Q 1456 2553 1204 2497 
Q 953 2441 691 2322 
L 691 4666 
z
" transform="scale(0.015625)"/>
       </defs>
       <use xlink:href="#DejaVuSans-35"/>
      </g>
     </g>
    </g>
    <g id="text_7">
     <!-- $\theta$ -->
     <g style="fill: #262626" transform="translate(297.42625 404.049812) scale(0.12 -0.12)">
      <defs>
       <path id="DejaVuSans-Oblique-3b8" d="M 2913 2219 
L 925 2219 
Q 791 1284 928 888 
Q 1100 400 1566 400 
Q 2034 400 2391 891 
Q 2703 1322 2913 2219 
z
M 3009 2750 
Q 3094 3638 2984 3950 
Q 2813 4444 2353 4444 
Q 1875 4444 1525 3956 
Q 1250 3563 1034 2750 
L 3009 2750 
z
M 2444 4913 
Q 3194 4913 3494 4250 
Q 3794 3591 3566 2422 
Q 3341 1256 2781 594 
Q 2225 -72 1475 -72 
Q 722 -72 425 594 
Q 128 1256 353 2422 
Q 581 3591 1134 4250 
Q 1691 4913 2444 4913 
z
" transform="scale(0.015625)"/>
      </defs>
      <use xlink:href="#DejaVuSans-Oblique-3b8" transform="translate(0 0.234375)"/>
     </g>
    </g>
   </g>
   <g id="matplotlib.axis_2">
    <g id="ytick_1">
     <g id="line2d_7">
      <path d="M 46.31125 335.839783 
L 555.98125 335.839783 
" clip-path="url(#p5b601c47d9)" style="fill: none; stroke: #cccccc; stroke-linecap: round"/>
     </g>
     <g id="text_8">
      <!-- 49 -->
      <g style="fill: #262626" transform="translate(22.81375 340.018938) scale(0.11 -0.11)">
       <defs>
        <path id="DejaVuSans-39" d="M 703 97 
L 703 672 
Q 941 559 1184 500 
Q 1428 441 1663 441 
Q 2288 441 2617 861 
Q 2947 1281 2994 2138 
Q 2813 1869 2534 1725 
Q 2256 1581 1919 1581 
Q 1219 1581 811 2004 
Q 403 2428 403 3163 
Q 403 3881 828 4315 
Q 1253 4750 1959 4750 
Q 2769 4750 3195 4129 
Q 3622 3509 3622 2328 
Q 3622 1225 3098 567 
Q 2575 -91 1691 -91 
Q 1453 -91 1209 -44 
Q 966 3 703 97 
z
M 1959 2075 
Q 2384 2075 2632 2365 
Q 2881 2656 2881 3163 
Q 2881 3666 2632 3958 
Q 2384 4250 1959 4250 
Q 1534 4250 1286 3958 
Q 1038 3666 1038 3163 
Q 1038 2656 1286 2365 
Q 1534 2075 1959 2075 
z
" transform="scale(0.015625)"/>
       </defs>
       <use xlink:href="#DejaVuSans-34"/>
       <use xlink:href="#DejaVuSans-39" transform="translate(63.623047 0)"/>
      </g>
     </g>
    </g>
    <g id="ytick_2">
     <g id="line2d_8">
      <path d="M 46.31125 294.77298 
L 555.98125 294.77298 
" clip-path="url(#p5b601c47d9)" style="fill: none; stroke: #cccccc; stroke-linecap: round"/>
     </g>
     <g id="text_9">
      <!-- 50 -->
      <g style="fill: #262626" transform="translate(22.81375 298.952135) scale(0.11 -0.11)">
       <use xlink:href="#DejaVuSans-35"/>
       <use xlink:href="#DejaVuSans-30" transform="translate(63.623047 0)"/>
      </g>
     </g>
    </g>
    <g id="ytick_3">
     <g id="line2d_9">
      <path d="M 46.31125 253.706207 
L 555.98125 253.706207 
" clip-path="url(#p5b601c47d9)" style="fill: none; stroke: #cccccc; stroke-linecap: round"/>
     </g>
     <g id="text_10">
      <!-- 51 -->
      <g style="fill: #262626" transform="translate(22.81375 257.885363) scale(0.11 -0.11)">
       <use xlink:href="#DejaVuSans-35"/>
       <use xlink:href="#DejaVuSans-31" transform="translate(63.623047 0)"/>
      </g>
     </g>
    </g>
    <g id="ytick_4">
     <g id="line2d_10">
      <path d="M 46.31125 212.639404 
L 555.98125 212.639404 
" clip-path="url(#p5b601c47d9)" style="fill: none; stroke: #cccccc; stroke-linecap: round"/>
     </g>
     <g id="text_11">
      <!-- 52 -->
      <g style="fill: #262626" transform="translate(22.81375 216.81856) scale(0.11 -0.11)">
       <use xlink:href="#DejaVuSans-35"/>
       <use xlink:href="#DejaVuSans-32" transform="translate(63.623047 0)"/>
      </g>
     </g>
    </g>
    <g id="ytick_5">
     <g id="line2d_11">
      <path d="M 46.31125 171.572632 
L 555.98125 171.572632 
" clip-path="url(#p5b601c47d9)" style="fill: none; stroke: #cccccc; stroke-linecap: round"/>
     </g>
     <g id="text_12">
      <!-- 53 -->
      <g style="fill: #262626" transform="translate(22.81375 175.751788) scale(0.11 -0.11)">
       <use xlink:href="#DejaVuSans-35"/>
       <use xlink:href="#DejaVuSans-33" transform="translate(63.623047 0)"/>
      </g>
     </g>
    </g>
    <g id="ytick_6">
     <g id="line2d_12">
      <path d="M 46.31125 130.505859 
L 555.98125 130.505859 
" clip-path="url(#p5b601c47d9)" style="fill: none; stroke: #cccccc; stroke-linecap: round"/>
     </g>
     <g id="text_13">
      <!-- 54 -->
      <g style="fill: #262626" transform="translate(22.81375 134.685015) scale(0.11 -0.11)">
       <use xlink:href="#DejaVuSans-35"/>
       <use xlink:href="#DejaVuSans-34" transform="translate(63.623047 0)"/>
      </g>
     </g>
    </g>
    <g id="ytick_7">
     <g id="line2d_13">
      <path d="M 46.31125 89.439056 
L 555.98125 89.439056 
" clip-path="url(#p5b601c47d9)" style="fill: none; stroke: #cccccc; stroke-linecap: round"/>
     </g>
     <g id="text_14">
      <!-- 55 -->
      <g style="fill: #262626" transform="translate(22.81375 93.618212) scale(0.11 -0.11)">
       <use xlink:href="#DejaVuSans-35"/>
       <use xlink:href="#DejaVuSans-35" transform="translate(63.623047 0)"/>
      </g>
     </g>
    </g>
    <g id="ytick_8">
     <g id="line2d_14">
      <path d="M 46.31125 48.372284 
L 555.98125 48.372284 
" clip-path="url(#p5b601c47d9)" style="fill: none; stroke: #cccccc; stroke-linecap: round"/>
     </g>
     <g id="text_15">
      <!-- 56 -->
      <g style="fill: #262626" transform="translate(22.81375 52.55144) scale(0.11 -0.11)">
       <defs>
        <path id="DejaVuSans-36" d="M 2113 2584 
Q 1688 2584 1439 2293 
Q 1191 2003 1191 1497 
Q 1191 994 1439 701 
Q 1688 409 2113 409 
Q 2538 409 2786 701 
Q 3034 994 3034 1497 
Q 3034 2003 2786 2293 
Q 2538 2584 2113 2584 
z
M 3366 4563 
L 3366 3988 
Q 3128 4100 2886 4159 
Q 2644 4219 2406 4219 
Q 1781 4219 1451 3797 
Q 1122 3375 1075 2522 
Q 1259 2794 1537 2939 
Q 1816 3084 2150 3084 
Q 2853 3084 3261 2657 
Q 3669 2231 3669 1497 
Q 3669 778 3244 343 
Q 2819 -91 2113 -91 
Q 1303 -91 875 529 
Q 447 1150 447 2328 
Q 447 3434 972 4092 
Q 1497 4750 2381 4750 
Q 2619 4750 2861 4703 
Q 3103 4656 3366 4563 
z
" transform="scale(0.015625)"/>
       </defs>
       <use xlink:href="#DejaVuSans-35"/>
       <use xlink:href="#DejaVuSans-36" transform="translate(63.623047 0)"/>
      </g>
     </g>
    </g>
    <g id="text_16">
     <!-- $\Delta\theta$ -->
     <g style="fill: #262626" transform="translate(16.318125 211.14375) rotate(-90) scale(0.12 -0.12)">
      <defs>
       <path id="DejaVuSans-394" d="M 2188 4044 
L 906 525 
L 3472 525 
L 2188 4044 
z
M 50 0 
L 1831 4666 
L 2547 4666 
L 4325 0 
L 50 0 
z
" transform="scale(0.015625)"/>
      </defs>
      <use xlink:href="#DejaVuSans-394" transform="translate(0 0.234375)"/>
      <use xlink:href="#DejaVuSans-Oblique-3b8" transform="translate(68.408203 0.234375)"/>
     </g>
    </g>
    <g id="text_17">
     <!-- 1e−11+4.4721359e−2 -->
     <g style="fill: #262626" transform="translate(46.31125 32.90175) scale(0.11 -0.11)">
      <defs>
       <path id="DejaVuSans-65" d="M 3597 1894 
L 3597 1613 
L 953 1613 
Q 991 1019 1311 708 
Q 1631 397 2203 397 
Q 2534 397 2845 478 
Q 3156 559 3463 722 
L 3463 178 
Q 3153 47 2828 -22 
Q 2503 -91 2169 -91 
Q 1331 -91 842 396 
Q 353 884 353 1716 
Q 353 2575 817 3079 
Q 1281 3584 2069 3584 
Q 2775 3584 3186 3129 
Q 3597 2675 3597 1894 
z
M 3022 2063 
Q 3016 2534 2758 2815 
Q 2500 3097 2075 3097 
Q 1594 3097 1305 2825 
Q 1016 2553 972 2059 
L 3022 2063 
z
" transform="scale(0.015625)"/>
       <path id="DejaVuSans-2212" d="M 678 2272 
L 4684 2272 
L 4684 1741 
L 678 1741 
L 678 2272 
z
" transform="scale(0.015625)"/>
       <path id="DejaVuSans-2b" d="M 2944 4013 
L 2944 2272 
L 4684 2272 
L 4684 1741 
L 2944 1741 
L 2944 0 
L 2419 0 
L 2419 1741 
L 678 1741 
L 678 2272 
L 2419 2272 
L 2419 4013 
L 2944 4013 
z
" transform="scale(0.015625)"/>
       <path id="DejaVuSans-2e" d="M 684 794 
L 1344 794 
L 1344 0 
L 684 0 
L 684 794 
z
" transform="scale(0.015625)"/>
       <path id="DejaVuSans-37" d="M 525 4666 
L 3525 4666 
L 3525 4397 
L 1831 0 
L 1172 0 
L 2766 4134 
L 525 4134 
L 525 4666 
z
" transform="scale(0.015625)"/>
      </defs>
      <use xlink:href="#DejaVuSans-31"/>
      <use xlink:href="#DejaVuSans-65" transform="translate(63.623047 0)"/>
      <use xlink:href="#DejaVuSans-2212" transform="translate(125.146484 0)"/>
      <use xlink:href="#DejaVuSans-31" transform="translate(208.935547 0)"/>
      <use xlink:href="#DejaVuSans-31" transform="translate(272.558594 0)"/>
      <use xlink:href="#DejaVuSans-2b" transform="translate(336.181641 0)"/>
      <use xlink:href="#DejaVuSans-34" transform="translate(419.970703 0)"/>
      <use xlink:href="#DejaVuSans-2e" transform="translate(483.59375 0)"/>
      <use xlink:href="#DejaVuSans-34" transform="translate(515.380859 0)"/>
      <use xlink:href="#DejaVuSans-37" transform="translate(579.003906 0)"/>
      <use xlink:href="#DejaVuSans-32" transform="translate(642.626953 0)"/>
      <use xlink:href="#DejaVuSans-31" transform="translate(706.25 0)"/>
      <use xlink:href="#DejaVuSans-33" transform="translate(769.873047 0)"/>
      <use xlink:href="#DejaVuSans-35" transform="translate(833.496094 0)"/>
      <use xlink:href="#DejaVuSans-39" transform="translate(897.119141 0)"/>
      <use xlink:href="#DejaVuSans-65" transform="translate(960.742188 0)"/>
      <use xlink:href="#DejaVuSans-2212" transform="translate(1022.265625 0)"/>
      <use xlink:href="#DejaVuSans-32" transform="translate(1106.054688 0)"/>
     </g>
    </g>
   </g>
   <g id="line2d_15">
    <path d="M 46.31125 89.456329 
L 555.98125 89.456329 
" clip-path="url(#p5b601c47d9)" style="fill: none; stroke-dasharray: 5.55,2.4; stroke-dashoffset: 0; stroke: #808080; stroke-opacity: 0.7; stroke-width: 1.5"/>
   </g>
   <g id="line2d_16">
    <path d="M 69.478068 86.358246 
L 78.933912 86.716553 
L 88.389756 91.496063 
L 97.845601 79.657532 
L 107.301445 84.80246 
L 116.757289 87.960236 
L 126.213133 93.345032 
L 135.668977 97.123505 
L 145.124821 92.69455 
L 154.580666 80.231567 
L 164.03651 68.723938 
L 173.492354 73.963165 
L 182.948198 77.242126 
L 192.404042 75.340729 
L 201.859886 70.947144 
L 211.315731 65.157928 
L 220.771575 51.123749 
L 230.227419 87.234924 
L 239.683263 70.569427 
L 249.139107 101.668365 
L 258.594951 116.341949 
L 268.050795 355.563751 
L 277.50664 108.89566 
L 286.962484 87.303436 
L 296.418328 144.248993 
L 305.874172 120.036835 
L 315.330016 107.849976 
L 324.78586 126.212219 
L 334.241705 114.529449 
L 343.697549 109.06662 
L 353.153393 121.691406 
L 362.609237 107.03952 
L 372.065081 86.553497 
L 381.520925 118.874908 
L 390.976769 82.846863 
L 400.432614 144.745483 
L 409.888458 129.67691 
L 419.344302 94.971222 
L 428.800146 113.556152 
L 438.25599 120.999847 
L 447.711834 89.099701 
L 457.167679 131.731049 
L 466.623523 144.448334 
L 476.079367 207.81543 
L 485.535211 89.45166 
L 494.991055 127.522003 
L 504.446899 159.297821 
L 513.902744 145.567657 
L 523.358588 128.315033 
L 532.814432 81.308411 
" clip-path="url(#p5b601c47d9)" style="fill: none; stroke: #4c72b0; stroke-width: 1.5; stroke-linecap: round"/>
    <defs>
     <path id="m577ec20267" d="M 0 3 
C 0.795609 3 1.55874 2.683901 2.12132 2.12132 
C 2.683901 1.55874 3 0.795609 3 0 
C 3 -0.795609 2.683901 -1.55874 2.12132 -2.12132 
C 1.55874 -2.683901 0.795609 -3 0 -3 
C -0.795609 -3 -1.55874 -2.683901 -2.12132 -2.12132 
C -2.683901 -1.55874 -3 -0.795609 -3 0 
C -3 0.795609 -2.683901 1.55874 -2.12132 2.12132 
C -1.55874 2.683901 -0.795609 3 0 3 
z
" style="stroke: #4c72b0"/>
    </defs>
    <g clip-path="url(#p5b601c47d9)">
     <use xlink:href="#m577ec20267" x="69.478068" y="86.358246" style="fill: #4c72b0; stroke: #4c72b0"/>
     <use xlink:href="#m577ec20267" x="78.933912" y="86.716553" style="fill: #4c72b0; stroke: #4c72b0"/>
     <use xlink:href="#m577ec20267" x="88.389756" y="91.496063" style="fill: #4c72b0; stroke: #4c72b0"/>
     <use xlink:href="#m577ec20267" x="97.845601" y="79.657532" style="fill: #4c72b0; stroke: #4c72b0"/>
     <use xlink:href="#m577ec20267" x="107.301445" y="84.80246" style="fill: #4c72b0; stroke: #4c72b0"/>
     <use xlink:href="#m577ec20267" x="116.757289" y="87.960236" style="fill: #4c72b0; stroke: #4c72b0"/>
     <use xlink:href="#m577ec20267" x="126.213133" y="93.345032" style="fill: #4c72b0; stroke: #4c72b0"/>
     <use xlink:href="#m577ec20267" x="135.668977" y="97.123505" style="fill: #4c72b0; stroke: #4c72b0"/>
     <use xlink:href="#m577ec20267" x="145.124821" y="92.69455" style="fill: #4c72b0; stroke: #4c72b0"/>
     <use xlink:href="#m577ec20267" x="154.580666" y="80.231567" style="fill: #4c72b0; stroke: #4c72b0"/>
     <use xlink:href="#m577ec20267" x="164.03651" y="68.723938" style="fill: #4c72b0; stroke: #4c72b0"/>
     <use xlink:href="#m577ec20267" x="173.492354" y="73.963165" style="fill: #4c72b0; stroke: #4c72b0"/>
     <use xlink:href="#m577ec20267" x="182.948198" y="77.242126" style="fill: #4c72b0; stroke: #4c72b0"/>
     <use xlink:href="#m577ec20267" x="192.404042" y="75.340729" style="fill: #4c72b0; stroke: #4c72b0"/>
     <use xlink:href="#m577ec20267" x="201.859886" y="70.947144" style="fill: #4c72b0; stroke: #4c72b0"/>
     <use xlink:href="#m577ec20267" x="211.315731" y="65.157928" style="fill: #4c72b0; stroke: #4c72b0"/>
     <use xlink:href="#m577ec20267" x="220.771575" y="51.123749" style="fill: #4c72b0; stroke: #4c72b0"/>
     <use xlink:href="#m577ec20267" x="230.227419" y="87.234924" style="fill: #4c72b0; stroke: #4c72b0"/>
     <use xlink:href="#m577ec20267" x="239.683263" y="70.569427" style="fill: #4c72b0; stroke: #4c72b0"/>
     <use xlink:href="#m577ec20267" x="249.139107" y="101.668365" style="fill: #4c72b0; stroke: #4c72b0"/>
     <use xlink:href="#m577ec20267" x="258.594951" y="116.341949" style="fill: #4c72b0; stroke: #4c72b0"/>
     <use xlink:href="#m577ec20267" x="268.050795" y="355.563751" style="fill: #4c72b0; stroke: #4c72b0"/>
     <use xlink:href="#m577ec20267" x="277.50664" y="108.89566" style="fill: #4c72b0; stroke: #4c72b0"/>
     <use xlink:href="#m577ec20267" x="286.962484" y="87.303436" style="fill: #4c72b0; stroke: #4c72b0"/>
     <use xlink:href="#m577ec20267" x="296.418328" y="144.248993" style="fill: #4c72b0; stroke: #4c72b0"/>
     <use xlink:href="#m577ec20267" x="305.874172" y="120.036835" style="fill: #4c72b0; stroke: #4c72b0"/>
     <use xlink:href="#m577ec20267" x="315.330016" y="107.849976" style="fill: #4c72b0; stroke: #4c72b0"/>
     <use xlink:href="#m577ec20267" x="324.78586" y="126.212219" style="fill: #4c72b0; stroke: #4c72b0"/>
     <use xlink:href="#m577ec20267" x="334.241705" y="114.529449" style="fill: #4c72b0; stroke: #4c72b0"/>
     <use xlink:href="#m577ec20267" x="343.697549" y="109.06662" style="fill: #4c72b0; stroke: #4c72b0"/>
     <use xlink:href="#m577ec20267" x="353.153393" y="121.691406" style="fill: #4c72b0; stroke: #4c72b0"/>
     <use xlink:href="#m577ec20267" x="362.609237" y="107.03952" style="fill: #4c72b0; stroke: #4c72b0"/>
     <use xlink:href="#m577ec20267" x="372.065081" y="86.553497" style="fill: #4c72b0; stroke: #4c72b0"/>
     <use xlink:href="#m577ec20267" x="381.520925" y="118.874908" style="fill: #4c72b0; stroke: #4c72b0"/>
     <use xlink:href="#m577ec20267" x="390.976769" y="82.846863" style="fill: #4c72b0; stroke: #4c72b0"/>
     <use xlink:href="#m577ec20267" x="400.432614" y="144.745483" style="fill: #4c72b0; stroke: #4c72b0"/>
     <use xlink:href="#m577ec20267" x="409.888458" y="129.67691" style="fill: #4c72b0; stroke: #4c72b0"/>
     <use xlink:href="#m577ec20267" x="419.344302" y="94.971222" style="fill: #4c72b0; stroke: #4c72b0"/>
     <use xlink:href="#m577ec20267" x="428.800146" y="113.556152" style="fill: #4c72b0; stroke: #4c72b0"/>
     <use xlink:href="#m577ec20267" x="438.25599" y="120.999847" style="fill: #4c72b0; stroke: #4c72b0"/>
     <use xlink:href="#m577ec20267" x="447.711834" y="89.099701" style="fill: #4c72b0; stroke: #4c72b0"/>
     <use xlink:href="#m577ec20267" x="457.167679" y="131.731049" style="fill: #4c72b0; stroke: #4c72b0"/>
     <use xlink:href="#m577ec20267" x="466.623523" y="144.448334" style="fill: #4c72b0; stroke: #4c72b0"/>
     <use xlink:href="#m577ec20267" x="476.079367" y="207.81543" style="fill: #4c72b0; stroke: #4c72b0"/>
     <use xlink:href="#m577ec20267" x="485.535211" y="89.45166" style="fill: #4c72b0; stroke: #4c72b0"/>
     <use xlink:href="#m577ec20267" x="494.991055" y="127.522003" style="fill: #4c72b0; stroke: #4c72b0"/>
     <use xlink:href="#m577ec20267" x="504.446899" y="159.297821" style="fill: #4c72b0; stroke: #4c72b0"/>
     <use xlink:href="#m577ec20267" x="513.902744" y="145.567657" style="fill: #4c72b0; stroke: #4c72b0"/>
     <use xlink:href="#m577ec20267" x="523.358588" y="128.315033" style="fill: #4c72b0; stroke: #4c72b0"/>
     <use xlink:href="#m577ec20267" x="532.814432" y="81.308411" style="fill: #4c72b0; stroke: #4c72b0"/>
    </g>
   </g>
   <g id="patch_3">
    <path d="M 46.31125 370.785736 
L 46.31125 35.901733 
" style="fill: none; stroke: #cccccc; stroke-width: 1.25; stroke-linejoin: miter; stroke-linecap: square"/>
   </g>
   <g id="patch_4">
    <path d="M 555.98125 370.785736 
L 555.98125 35.901733 
" style="fill: none; stroke: #cccccc; stroke-width: 1.25; stroke-linejoin: miter; stroke-linecap: square"/>
   </g>
   <g id="patch_5">
    <path d="M 46.31125 370.78575 
L 555.98125 370.78575 
" style="fill: none; stroke: #cccccc; stroke-width: 1.25; stroke-linejoin: miter; stroke-linecap: square"/>
   </g>
   <g id="patch_6">
    <path d="M 46.31125 35.90175 
L 555.98125 35.90175 
" style="fill: none; stroke: #cccccc; stroke-width: 1.25; stroke-linejoin: miter; stroke-linecap: square"/>
   </g>
   <g id="text_18">
    <!-- $\theta$-Dependence at $N=5$: -->
    <g style="fill: #262626" transform="translate(229.86625 16.44) scale(0.12 -0.12)">
     <defs>
      <path id="DejaVuSans-2d" d="M 313 2009 
L 1997 2009 
L 1997 1497 
L 313 1497 
L 313 2009 
z
" transform="scale(0.015625)"/>
      <path id="DejaVuSans-44" d="M 1259 4147 
L 1259 519 
L 2022 519 
Q 2988 519 3436 956 
Q 3884 1394 3884 2338 
Q 3884 3275 3436 3711 
Q 2988 4147 2022 4147 
L 1259 4147 
z
M 628 4666 
L 1925 4666 
Q 3281 4666 3915 4102 
Q 4550 3538 4550 2338 
Q 4550 1131 3912 565 
Q 3275 0 1925 0 
L 628 0 
L 628 4666 
z
" transform="scale(0.015625)"/>
      <path id="DejaVuSans-70" d="M 1159 525 
L 1159 -1331 
L 581 -1331 
L 581 3500 
L 1159 3500 
L 1159 2969 
Q 1341 3281 1617 3432 
Q 1894 3584 2278 3584 
Q 2916 3584 3314 3078 
Q 3713 2572 3713 1747 
Q 3713 922 3314 415 
Q 2916 -91 2278 -91 
Q 1894 -91 1617 61 
Q 1341 213 1159 525 
z
M 3116 1747 
Q 3116 2381 2855 2742 
Q 2594 3103 2138 3103 
Q 1681 3103 1420 2742 
Q 1159 2381 1159 1747 
Q 1159 1113 1420 752 
Q 1681 391 2138 391 
Q 2594 391 2855 752 
Q 3116 1113 3116 1747 
z
" transform="scale(0.015625)"/>
      <path id="DejaVuSans-6e" d="M 3513 2113 
L 3513 0 
L 2938 0 
L 2938 2094 
Q 2938 2591 2744 2837 
Q 2550 3084 2163 3084 
Q 1697 3084 1428 2787 
Q 1159 2491 1159 1978 
L 1159 0 
L 581 0 
L 581 3500 
L 1159 3500 
L 1159 2956 
Q 1366 3272 1645 3428 
Q 1925 3584 2291 3584 
Q 2894 3584 3203 3211 
Q 3513 2838 3513 2113 
z
" transform="scale(0.015625)"/>
      <path id="DejaVuSans-64" d="M 2906 2969 
L 2906 4863 
L 3481 4863 
L 3481 0 
L 2906 0 
L 2906 525 
Q 2725 213 2448 61 
Q 2172 -91 1784 -91 
Q 1150 -91 751 415 
Q 353 922 353 1747 
Q 353 2572 751 3078 
Q 1150 3584 1784 3584 
Q 2172 3584 2448 3432 
Q 2725 3281 2906 2969 
z
M 947 1747 
Q 947 1113 1208 752 
Q 1469 391 1925 391 
Q 2381 391 2643 752 
Q 2906 1113 2906 1747 
Q 2906 2381 2643 2742 
Q 2381 3103 1925 3103 
Q 1469 3103 1208 2742 
Q 947 2381 947 1747 
z
" transform="scale(0.015625)"/>
      <path id="DejaVuSans-63" d="M 3122 3366 
L 3122 2828 
Q 2878 2963 2633 3030 
Q 2388 3097 2138 3097 
Q 1578 3097 1268 2742 
Q 959 2388 959 1747 
Q 959 1106 1268 751 
Q 1578 397 2138 397 
Q 2388 397 2633 464 
Q 2878 531 3122 666 
L 3122 134 
Q 2881 22 2623 -34 
Q 2366 -91 2075 -91 
Q 1284 -91 818 406 
Q 353 903 353 1747 
Q 353 2603 823 3093 
Q 1294 3584 2113 3584 
Q 2378 3584 2631 3529 
Q 2884 3475 3122 3366 
z
" transform="scale(0.015625)"/>
      <path id="DejaVuSans-20" transform="scale(0.015625)"/>
      <path id="DejaVuSans-61" d="M 2194 1759 
Q 1497 1759 1228 1600 
Q 959 1441 959 1056 
Q 959 750 1161 570 
Q 1363 391 1709 391 
Q 2188 391 2477 730 
Q 2766 1069 2766 1631 
L 2766 1759 
L 2194 1759 
z
M 3341 1997 
L 3341 0 
L 2766 0 
L 2766 531 
Q 2569 213 2275 61 
Q 1981 -91 1556 -91 
Q 1019 -91 701 211 
Q 384 513 384 1019 
Q 384 1609 779 1909 
Q 1175 2209 1959 2209 
L 2766 2209 
L 2766 2266 
Q 2766 2663 2505 2880 
Q 2244 3097 1772 3097 
Q 1472 3097 1187 3025 
Q 903 2953 641 2809 
L 641 3341 
Q 956 3463 1253 3523 
Q 1550 3584 1831 3584 
Q 2591 3584 2966 3190 
Q 3341 2797 3341 1997 
z
" transform="scale(0.015625)"/>
      <path id="DejaVuSans-74" d="M 1172 4494 
L 1172 3500 
L 2356 3500 
L 2356 3053 
L 1172 3053 
L 1172 1153 
Q 1172 725 1289 603 
Q 1406 481 1766 481 
L 2356 481 
L 2356 0 
L 1766 0 
Q 1100 0 847 248 
Q 594 497 594 1153 
L 594 3053 
L 172 3053 
L 172 3500 
L 594 3500 
L 594 4494 
L 1172 4494 
z
" transform="scale(0.015625)"/>
      <path id="DejaVuSans-Oblique-4e" d="M 1081 4666 
L 1931 4666 
L 3219 666 
L 4000 4666 
L 4616 4666 
L 3706 0 
L 2853 0 
L 1569 4025 
L 788 0 
L 172 0 
L 1081 4666 
z
" transform="scale(0.015625)"/>
      <path id="DejaVuSans-3d" d="M 678 2906 
L 4684 2906 
L 4684 2381 
L 678 2381 
L 678 2906 
z
M 678 1631 
L 4684 1631 
L 4684 1100 
L 678 1100 
L 678 1631 
z
" transform="scale(0.015625)"/>
      <path id="DejaVuSans-3a" d="M 750 794 
L 1409 794 
L 1409 0 
L 750 0 
L 750 794 
z
M 750 3309 
L 1409 3309 
L 1409 2516 
L 750 2516 
L 750 3309 
z
" transform="scale(0.015625)"/>
     </defs>
     <use xlink:href="#DejaVuSans-Oblique-3b8" transform="translate(0 0.234375)"/>
     <use xlink:href="#DejaVuSans-2d" transform="translate(61.181641 0.234375)"/>
     <use xlink:href="#DejaVuSans-44" transform="translate(97.265625 0.234375)"/>
     <use xlink:href="#DejaVuSans-65" transform="translate(174.267578 0.234375)"/>
     <use xlink:href="#DejaVuSans-70" transform="translate(235.791016 0.234375)"/>
     <use xlink:href="#DejaVuSans-65" transform="translate(299.267578 0.234375)"/>
     <use xlink:href="#DejaVuSans-6e" transform="translate(360.791016 0.234375)"/>
     <use xlink:href="#DejaVuSans-64" transform="translate(424.169922 0.234375)"/>
     <use xlink:href="#DejaVuSans-65" transform="translate(487.646484 0.234375)"/>
     <use xlink:href="#DejaVuSans-6e" transform="translate(549.169922 0.234375)"/>
     <use xlink:href="#DejaVuSans-63" transform="translate(612.548828 0.234375)"/>
     <use xlink:href="#DejaVuSans-65" transform="translate(667.529297 0.234375)"/>
     <use xlink:href="#DejaVuSans-20" transform="translate(729.052734 0.234375)"/>
     <use xlink:href="#DejaVuSans-61" transform="translate(760.839844 0.234375)"/>
     <use xlink:href="#DejaVuSans-74" transform="translate(822.119141 0.234375)"/>
     <use xlink:href="#DejaVuSans-20" transform="translate(861.328125 0.234375)"/>
     <use xlink:href="#DejaVuSans-Oblique-4e" transform="translate(893.115234 0.234375)"/>
     <use xlink:href="#DejaVuSans-3d" transform="translate(987.402344 0.234375)"/>
     <use xlink:href="#DejaVuSans-35" transform="translate(1090.673828 0.234375)"/>
     <use xlink:href="#DejaVuSans-3a" transform="translate(1154.296875 0.234375)"/>
    </g>
    <!-- Dual-MZI XX Coupling -->
    <g style="fill: #262626" transform="translate(235.706875 29.90175) scale(0.12 -0.12)">
     <defs>
      <path id="DejaVuSans-75" d="M 544 1381 
L 544 3500 
L 1119 3500 
L 1119 1403 
Q 1119 906 1312 657 
Q 1506 409 1894 409 
Q 2359 409 2629 706 
Q 2900 1003 2900 1516 
L 2900 3500 
L 3475 3500 
L 3475 0 
L 2900 0 
L 2900 538 
Q 2691 219 2414 64 
Q 2138 -91 1772 -91 
Q 1169 -91 856 284 
Q 544 659 544 1381 
z
M 1991 3584 
L 1991 3584 
z
" transform="scale(0.015625)"/>
      <path id="DejaVuSans-6c" d="M 603 4863 
L 1178 4863 
L 1178 0 
L 603 0 
L 603 4863 
z
" transform="scale(0.015625)"/>
      <path id="DejaVuSans-4d" d="M 628 4666 
L 1569 4666 
L 2759 1491 
L 3956 4666 
L 4897 4666 
L 4897 0 
L 4281 0 
L 4281 4097 
L 3078 897 
L 2444 897 
L 1241 4097 
L 1241 0 
L 628 0 
L 628 4666 
z
" transform="scale(0.015625)"/>
      <path id="DejaVuSans-5a" d="M 359 4666 
L 4025 4666 
L 4025 4184 
L 1075 531 
L 4097 531 
L 4097 0 
L 288 0 
L 288 481 
L 3238 4134 
L 359 4134 
L 359 4666 
z
" transform="scale(0.015625)"/>
      <path id="DejaVuSans-49" d="M 628 4666 
L 1259 4666 
L 1259 0 
L 628 0 
L 628 4666 
z
" transform="scale(0.015625)"/>
      <path id="DejaVuSans-58" d="M 403 4666 
L 1081 4666 
L 2241 2931 
L 3406 4666 
L 4084 4666 
L 2584 2425 
L 4184 0 
L 3506 0 
L 2194 1984 
L 872 0 
L 191 0 
L 1856 2491 
L 403 4666 
z
" transform="scale(0.015625)"/>
      <path id="DejaVuSans-43" d="M 4122 4306 
L 4122 3641 
Q 3803 3938 3442 4084 
Q 3081 4231 2675 4231 
Q 1875 4231 1450 3742 
Q 1025 3253 1025 2328 
Q 1025 1406 1450 917 
Q 1875 428 2675 428 
Q 3081 428 3442 575 
Q 3803 722 4122 1019 
L 4122 359 
Q 3791 134 3420 21 
Q 3050 -91 2638 -91 
Q 1578 -91 968 557 
Q 359 1206 359 2328 
Q 359 3453 968 4101 
Q 1578 4750 2638 4750 
Q 3056 4750 3426 4639 
Q 3797 4528 4122 4306 
z
" transform="scale(0.015625)"/>
      <path id="DejaVuSans-6f" d="M 1959 3097 
Q 1497 3097 1228 2736 
Q 959 2375 959 1747 
Q 959 1119 1226 758 
Q 1494 397 1959 397 
Q 2419 397 2687 759 
Q 2956 1122 2956 1747 
Q 2956 2369 2687 2733 
Q 2419 3097 1959 3097 
z
M 1959 3584 
Q 2709 3584 3137 3096 
Q 3566 2609 3566 1747 
Q 3566 888 3137 398 
Q 2709 -91 1959 -91 
Q 1206 -91 779 398 
Q 353 888 353 1747 
Q 353 2609 779 3096 
Q 1206 3584 1959 3584 
z
" transform="scale(0.015625)"/>
      <path id="DejaVuSans-69" d="M 603 3500 
L 1178 3500 
L 1178 0 
L 603 0 
L 603 3500 
z
M 603 4863 
L 1178 4863 
L 1178 4134 
L 603 4134 
L 603 4863 
z
" transform="scale(0.015625)"/>
      <path id="DejaVuSans-67" d="M 2906 1791 
Q 2906 2416 2648 2759 
Q 2391 3103 1925 3103 
Q 1463 3103 1205 2759 
Q 947 2416 947 1791 
Q 947 1169 1205 825 
Q 1463 481 1925 481 
Q 2391 481 2648 825 
Q 2906 1169 2906 1791 
z
M 3481 434 
Q 3481 -459 3084 -895 
Q 2688 -1331 1869 -1331 
Q 1566 -1331 1297 -1286 
Q 1028 -1241 775 -1147 
L 775 -588 
Q 1028 -725 1275 -790 
Q 1522 -856 1778 -856 
Q 2344 -856 2625 -561 
Q 2906 -266 2906 331 
L 2906 616 
Q 2728 306 2450 153 
Q 2172 0 1784 0 
Q 1141 0 747 490 
Q 353 981 353 1791 
Q 353 2603 747 3093 
Q 1141 3584 1784 3584 
Q 2172 3584 2450 3431 
Q 2728 3278 2906 2969 
L 2906 3500 
L 3481 3500 
L 3481 434 
z
" transform="scale(0.015625)"/>
     </defs>
     <use xlink:href="#DejaVuSans-44"/>
     <use xlink:href="#DejaVuSans-75" transform="translate(77.001953 0)"/>
     <use xlink:href="#DejaVuSans-61" transform="translate(140.380859 0)"/>
     <use xlink:href="#DejaVuSans-6c" transform="translate(201.660156 0)"/>
     <use xlink:href="#DejaVuSans-2d" transform="translate(229.443359 0)"/>
     <use xlink:href="#DejaVuSans-4d" transform="translate(265.527344 0)"/>
     <use xlink:href="#DejaVuSans-5a" transform="translate(351.806641 0)"/>
     <use xlink:href="#DejaVuSans-49" transform="translate(420.3125 0)"/>
     <use xlink:href="#DejaVuSans-20" transform="translate(449.804688 0)"/>
     <use xlink:href="#DejaVuSans-58" transform="translate(481.591797 0)"/>
     <use xlink:href="#DejaVuSans-58" transform="translate(550.097656 0)"/>
     <use xlink:href="#DejaVuSans-20" transform="translate(618.603516 0)"/>
     <use xlink:href="#DejaVuSans-43" transform="translate(650.390625 0)"/>
     <use xlink:href="#DejaVuSans-6f" transform="translate(720.214844 0)"/>
     <use xlink:href="#DejaVuSans-75" transform="translate(781.396484 0)"/>
     <use xlink:href="#DejaVuSans-70" transform="translate(844.775391 0)"/>
     <use xlink:href="#DejaVuSans-6c" transform="translate(908.251953 0)"/>
     <use xlink:href="#DejaVuSans-69" transform="translate(936.035156 0)"/>
     <use xlink:href="#DejaVuSans-6e" transform="translate(963.818359 0)"/>
     <use xlink:href="#DejaVuSans-67" transform="translate(1027.197266 0)"/>
    </g>
   </g>
   <g id="legend_1">
    <g id="patch_7">
     <path d="M 441.1 74.379875 
L 548.98125 74.379875 
Q 550.98125 74.379875 550.98125 72.379875 
L 550.98125 42.90175 
Q 550.98125 40.90175 548.98125 40.90175 
L 441.1 40.90175 
Q 439.1 40.90175 439.1 42.90175 
L 439.1 72.379875 
Q 439.1 74.379875 441.1 74.379875 
z
" style="fill: #ffffff; opacity: 0.8; stroke: #cccccc; stroke-linejoin: miter"/>
    </g>
    <g id="line2d_17">
     <path d="M 443.1 49.000187 
L 453.1 49.000187 
L 463.1 49.000187 
" style="fill: none; stroke-dasharray: 5.55,2.4; stroke-dashoffset: 0; stroke: #808080; stroke-opacity: 0.7; stroke-width: 1.5"/>
    </g>
    <g id="text_19">
     <!-- SQL = 0.04472 -->
     <g style="fill: #262626" transform="translate(471.1 52.500187) scale(0.1 -0.1)">
      <defs>
       <path id="DejaVuSans-53" d="M 3425 4513 
L 3425 3897 
Q 3066 4069 2747 4153 
Q 2428 4238 2131 4238 
Q 1616 4238 1336 4038 
Q 1056 3838 1056 3469 
Q 1056 3159 1242 3001 
Q 1428 2844 1947 2747 
L 2328 2669 
Q 3034 2534 3370 2195 
Q 3706 1856 3706 1288 
Q 3706 609 3251 259 
Q 2797 -91 1919 -91 
Q 1588 -91 1214 -16 
Q 841 59 441 206 
L 441 856 
Q 825 641 1194 531 
Q 1563 422 1919 422 
Q 2459 422 2753 634 
Q 3047 847 3047 1241 
Q 3047 1584 2836 1778 
Q 2625 1972 2144 2069 
L 1759 2144 
Q 1053 2284 737 2584 
Q 422 2884 422 3419 
Q 422 4038 858 4394 
Q 1294 4750 2059 4750 
Q 2388 4750 2728 4690 
Q 3069 4631 3425 4513 
z
" transform="scale(0.015625)"/>
       <path id="DejaVuSans-51" d="M 2522 4238 
Q 1834 4238 1429 3725 
Q 1025 3213 1025 2328 
Q 1025 1447 1429 934 
Q 1834 422 2522 422 
Q 3209 422 3611 934 
Q 4013 1447 4013 2328 
Q 4013 3213 3611 3725 
Q 3209 4238 2522 4238 
z
M 3406 84 
L 4238 -825 
L 3475 -825 
L 2784 -78 
Q 2681 -84 2626 -87 
Q 2572 -91 2522 -91 
Q 1538 -91 948 567 
Q 359 1225 359 2328 
Q 359 3434 948 4092 
Q 1538 4750 2522 4750 
Q 3503 4750 4090 4092 
Q 4678 3434 4678 2328 
Q 4678 1516 4351 937 
Q 4025 359 3406 84 
z
" transform="scale(0.015625)"/>
       <path id="DejaVuSans-4c" d="M 628 4666 
L 1259 4666 
L 1259 531 
L 3531 531 
L 3531 0 
L 628 0 
L 628 4666 
z
" transform="scale(0.015625)"/>
      </defs>
      <use xlink:href="#DejaVuSans-53"/>
      <use xlink:href="#DejaVuSans-51" transform="translate(63.476562 0)"/>
      <use xlink:href="#DejaVuSans-4c" transform="translate(142.1875 0)"/>
      <use xlink:href="#DejaVuSans-20" transform="translate(197.900391 0)"/>
      <use xlink:href="#DejaVuSans-3d" transform="translate(229.6875 0)"/>
      <use xlink:href="#DejaVuSans-20" transform="translate(313.476562 0)"/>
      <use xlink:href="#DejaVuSans-30" transform="translate(345.263672 0)"/>
      <use xlink:href="#DejaVuSans-2e" transform="translate(408.886719 0)"/>
      <use xlink:href="#DejaVuSans-30" transform="translate(440.673828 0)"/>
      <use xlink:href="#DejaVuSans-34" transform="translate(504.296875 0)"/>
      <use xlink:href="#DejaVuSans-34" transform="translate(567.919922 0)"/>
      <use xlink:href="#DejaVuSans-37" transform="translate(631.542969 0)"/>
      <use xlink:href="#DejaVuSans-32" transform="translate(695.166016 0)"/>
     </g>
    </g>
    <g id="line2d_18">
     <path d="M 443.1 63.779875 
L 453.1 63.779875 
L 463.1 63.779875 
" style="fill: none; stroke: #4c72b0; stroke-width: 1.5; stroke-linecap: round"/>
     <g>
      <use xlink:href="#m577ec20267" x="453.1" y="63.779875" style="fill: #4c72b0; stroke: #4c72b0"/>
     </g>
    </g>
    <g id="text_20">
     <!-- $\Delta\theta_{\mathrm{opt}}(N=5)$ -->
     <g style="fill: #262626" transform="translate(471.1 67.279875) scale(0.1 -0.1)">
      <defs>
       <path id="DejaVuSans-28" d="M 1984 4856 
Q 1566 4138 1362 3434 
Q 1159 2731 1159 2009 
Q 1159 1288 1364 580 
Q 1569 -128 1984 -844 
L 1484 -844 
Q 1016 -109 783 600 
Q 550 1309 550 2009 
Q 550 2706 781 3412 
Q 1013 4119 1484 4856 
L 1984 4856 
z
" transform="scale(0.015625)"/>
       <path id="DejaVuSans-29" d="M 513 4856 
L 1013 4856 
Q 1481 4119 1714 3412 
Q 1947 2706 1947 2009 
Q 1947 1309 1714 600 
Q 1481 -109 1013 -844 
L 513 -844 
Q 928 -128 1133 580 
Q 1338 1288 1338 2009 
Q 1338 2731 1133 3434 
Q 928 4138 513 4856 
z
" transform="scale(0.015625)"/>
      </defs>
      <use xlink:href="#DejaVuSans-394" transform="translate(0 0.234375)"/>
      <use xlink:href="#DejaVuSans-Oblique-3b8" transform="translate(68.408203 0.234375)"/>
      <use xlink:href="#DejaVuSans-6f" transform="translate(129.589844 -16.171875) scale(0.7)"/>
      <use xlink:href="#DejaVuSans-70" transform="translate(172.416992 -16.171875) scale(0.7)"/>
      <use xlink:href="#DejaVuSans-74" transform="translate(216.850586 -16.171875) scale(0.7)"/>
      <use xlink:href="#DejaVuSans-28" transform="translate(247.03125 0.234375)"/>
      <use xlink:href="#DejaVuSans-Oblique-4e" transform="translate(286.044922 0.234375)"/>
      <use xlink:href="#DejaVuSans-3d" transform="translate(380.332031 0.234375)"/>
      <use xlink:href="#DejaVuSans-35" transform="translate(483.603516 0.234375)"/>
      <use xlink:href="#DejaVuSans-29" transform="translate(547.226562 0.234375)"/>
     </g>
    </g>
   </g>
  </g>
 </g>
 <defs>
  <clipPath id="p5b601c47d9">
   <rect x="46.31125" y="35.90175" width="509.67" height="334.884"/>
  </clipPath>
 </defs>
</svg>
