<?xml version="1.0" encoding="utf-8" standalone="no"?>
<!DOCTYPE svg PUBLIC "-//W3C//DTD SVG 1.1//EN"
  "http://www.w3.org/Graphics/SVG/1.1/DTD/svg11.dtd">
<svg xmlns:xlink="http://www.w3.org/1999/xlink" width="563.235937pt" height="346.017812pt" viewBox="0 0 563.235937 346.017812" xmlns="http://www.w3.org/2000/svg" version="1.1">
 <metadata>
  <rdf:RDF xmlns:dc="http://purl.org/dc/elements/1.1/" xmlns:cc="http://creativecommons.org/ns#" xmlns:rdf="http://www.w3.org/1999/02/22-rdf-syntax-ns#">
   <cc:Work>
    <dc:type rdf:resource="http://purl.org/dc/dcmitype/StillImage"/>
    <dc:date>2026-07-11T15:17:17.310840</dc:date>
    <dc:format>image/svg+xml</dc:format>
    <dc:creator>
     <cc:Agent>
      <dc:title>Matplotlib v3.10.9, https://matplotlib.org/</dc:title>
     </cc:Agent>
    </dc:creator>
   </cc:Work>
  </rdf:RDF>
 </metadata>
 <defs>
  <style type="text/css">*{stroke-linejoin: round; stroke-linecap: butt}</style>
 </defs>
 <g id="figure_1">
  <g id="patch_1">
   <path d="M 0 346.017812 
L 563.235937 346.017812 
L 563.235937 0 
L 0 0 
z
" style="fill: #ffffff"/>
  </g>
  <g id="axes_1">
   <g id="patch_2">
    <path d="M 56.805937 156.208125 
L 556.035937 156.208125 
L 556.035937 22.318125 
L 56.805937 22.318125 
z
" style="fill: #ffffff"/>
   </g>
   <g id="matplotlib.axis_1">
    <g id="xtick_1">
     <g id="line2d_1">
      <path d="M 78.5887 156.208125 
L 78.5887 22.318125 
" clip-path="url(#p99e5e1e4d7)" style="fill: none; stroke: #cccccc; stroke-linecap: round"/>
     </g>
    </g>
    <g id="xtick_2">
     <g id="line2d_2">
      <path d="M 169.539693 156.208125 
L 169.539693 22.318125 
" clip-path="url(#p99e5e1e4d7)" style="fill: none; stroke: #cccccc; stroke-linecap: round"/>
     </g>
    </g>
    <g id="xtick_3">
     <g id="line2d_3">
      <path d="M 260.490686 156.208125 
L 260.490686 22.318125 
" clip-path="url(#p99e5e1e4d7)" style="fill: none; stroke: #cccccc; stroke-linecap: round"/>
     </g>
    </g>
    <g id="xtick_4">
     <g id="line2d_4">
      <path d="M 351.441679 156.208125 
L 351.441679 22.318125 
" clip-path="url(#p99e5e1e4d7)" style="fill: none; stroke: #cccccc; stroke-linecap: round"/>
     </g>
    </g>
    <g id="xtick_5">
     <g id="line2d_5">
      <path d="M 442.392672 156.208125 
L 442.392672 22.318125 
" clip-path="url(#p99e5e1e4d7)" style="fill: none; stroke: #cccccc; stroke-linecap: round"/>
     </g>
    </g>
    <g id="xtick_6">
     <g id="line2d_6">
      <path d="M 533.343665 156.208125 
L 533.343665 22.318125 
" clip-path="url(#p99e5e1e4d7)" style="fill: none; stroke: #cccccc; stroke-linecap: round"/>
     </g>
    </g>
   </g>
   <g id="matplotlib.axis_2">
    <g id="ytick_1">
     <g id="line2d_7">
      <path d="M 56.805937 146.273071 
L 556.035937 146.273071 
" clip-path="url(#p99e5e1e4d7)" style="fill: none; stroke: #cccccc; stroke-linecap: round"/>
     </g>
     <g id="text_1">
      <!-- 0.02 -->
      <g style="fill: #262626" transform="translate(22.81375 150.452212) scale(0.11 -0.11)">
       <defs>
        <path id="DejaVuSans-30" d="M 2034 4250 
Q 1547 4250 1301 3770 
Q 1056 3291 1056 2328 
Q 1056 1369 1301 889 
Q 1547 409 2034 409 
Q 2525 409 2770 889 
Q 3016 1369 3016 2328 
Q 3016 3291 2770 3770 
Q 2525 4250 2034 4250 
z
M 2034 4750 
Q 2819 4750 3233 4129 
Q 3647 3509 3647 2328 
Q 3647 1150 3233 529 
Q 2819 -91 2034 -91 
Q 1250 -91 836 529 
Q 422 1150 422 2328 
Q 422 3509 836 4129 
Q 1250 4750 2034 4750 
z
" transform="scale(0.015625)"/>
        <path id="DejaVuSans-2e" d="M 684 794 
L 1344 794 
L 1344 0 
L 684 0 
L 684 794 
z
" transform="scale(0.015625)"/>
        <path id="DejaVuSans-32" d="M 1228 531 
L 3431 531 
L 3431 0 
L 469 0 
L 469 531 
Q 828 903 1448 1529 
Q 2069 2156 2228 2338 
Q 2531 2678 2651 2914 
Q 2772 3150 2772 3378 
Q 2772 3750 2511 3984 
Q 2250 4219 1831 4219 
Q 1534 4219 1204 4116 
Q 875 4013 500 3803 
L 500 4441 
Q 881 4594 1212 4672 
Q 1544 4750 1819 4750 
Q 2544 4750 2975 4387 
Q 3406 4025 3406 3419 
Q 3406 3131 3298 2873 
Q 3191 2616 2906 2266 
Q 2828 2175 2409 1742 
Q 1991 1309 1228 531 
z
" transform="scale(0.015625)"/>
       </defs>
       <use xlink:href="#DejaVuSans-30"/>
       <use xlink:href="#DejaVuSans-2e" transform="translate(63.623047 0)"/>
       <use xlink:href="#DejaVuSans-30" transform="translate(95.410156 0)"/>
       <use xlink:href="#DejaVuSans-32" transform="translate(159.033203 0)"/>
      </g>
     </g>
    </g>
    <g id="ytick_2">
     <g id="line2d_8">
      <path d="M 56.805937 116.805812 
L 556.035937 116.805812 
" clip-path="url(#p99e5e1e4d7)" style="fill: none; stroke: #cccccc; stroke-linecap: round"/>
     </g>
     <g id="text_2">
      <!-- 0.04 -->
      <g style="fill: #262626" transform="translate(22.81375 120.984953) scale(0.11 -0.11)">
       <defs>
        <path id="DejaVuSans-34" d="M 2419 4116 
L 825 1625 
L 2419 1625 
L 2419 4116 
z
M 2253 4666 
L 3047 4666 
L 3047 1625 
L 3713 1625 
L 3713 1100 
L 3047 1100 
L 3047 0 
L 2419 0 
L 2419 1100 
L 313 1100 
L 313 1709 
L 2253 4666 
z
" transform="scale(0.015625)"/>
       </defs>
       <use xlink:href="#DejaVuSans-30"/>
       <use xlink:href="#DejaVuSans-2e" transform="translate(63.623047 0)"/>
       <use xlink:href="#DejaVuSans-30" transform="translate(95.410156 0)"/>
       <use xlink:href="#DejaVuSans-34" transform="translate(159.033203 0)"/>
      </g>
     </g>
    </g>
    <g id="ytick_3">
     <g id="line2d_9">
      <path d="M 56.805937 87.338553 
L 556.035937 87.338553 
" clip-path="url(#p99e5e1e4d7)" style="fill: none; stroke: #cccccc; stroke-linecap: round"/>
     </g>
     <g id="text_3">
      <!-- 0.06 -->
      <g style="fill: #262626" transform="translate(22.81375 91.517693) scale(0.11 -0.11)">
       <defs>
        <path id="DejaVuSans-36" d="M 2113 2584 
Q 1688 2584 1439 2293 
Q 1191 2003 1191 1497 
Q 1191 994 1439 701 
Q 1688 409 2113 409 
Q 2538 409 2786 701 
Q 3034 994 3034 1497 
Q 3034 2003 2786 2293 
Q 2538 2584 2113 2584 
z
M 3366 4563 
L 3366 3988 
Q 3128 4100 2886 4159 
Q 2644 4219 2406 4219 
Q 1781 4219 1451 3797 
Q 1122 3375 1075 2522 
Q 1259 2794 1537 2939 
Q 1816 3084 2150 3084 
Q 2853 3084 3261 2657 
Q 3669 2231 3669 1497 
Q 3669 778 3244 343 
Q 2819 -91 2113 -91 
Q 1303 -91 875 529 
Q 447 1150 447 2328 
Q 447 3434 972 4092 
Q 1497 4750 2381 4750 
Q 2619 4750 2861 4703 
Q 3103 4656 3366 4563 
z
" transform="scale(0.015625)"/>
       </defs>
       <use xlink:href="#DejaVuSans-30"/>
       <use xlink:href="#DejaVuSans-2e" transform="translate(63.623047 0)"/>
       <use xlink:href="#DejaVuSans-30" transform="translate(95.410156 0)"/>
       <use xlink:href="#DejaVuSans-36" transform="translate(159.033203 0)"/>
      </g>
     </g>
    </g>
    <g id="ytick_4">
     <g id="line2d_10">
      <path d="M 56.805937 57.871293 
L 556.035937 57.871293 
" clip-path="url(#p99e5e1e4d7)" style="fill: none; stroke: #cccccc; stroke-linecap: round"/>
     </g>
     <g id="text_4">
      <!-- 0.08 -->
      <g style="fill: #262626" transform="translate(22.81375 62.050434) scale(0.11 -0.11)">
       <defs>
        <path id="DejaVuSans-38" d="M 2034 2216 
Q 1584 2216 1326 1975 
Q 1069 1734 1069 1313 
Q 1069 891 1326 650 
Q 1584 409 2034 409 
Q 2484 409 2743 651 
Q 3003 894 3003 1313 
Q 3003 1734 2745 1975 
Q 2488 2216 2034 2216 
z
M 1403 2484 
Q 997 2584 770 2862 
Q 544 3141 544 3541 
Q 544 4100 942 4425 
Q 1341 4750 2034 4750 
Q 2731 4750 3128 4425 
Q 3525 4100 3525 3541 
Q 3525 3141 3298 2862 
Q 3072 2584 2669 2484 
Q 3125 2378 3379 2068 
Q 3634 1759 3634 1313 
Q 3634 634 3220 271 
Q 2806 -91 2034 -91 
Q 1263 -91 848 271 
Q 434 634 434 1313 
Q 434 1759 690 2068 
Q 947 2378 1403 2484 
z
M 1172 3481 
Q 1172 3119 1398 2916 
Q 1625 2713 2034 2713 
Q 2441 2713 2670 2916 
Q 2900 3119 2900 3481 
Q 2900 3844 2670 4047 
Q 2441 4250 2034 4250 
Q 1625 4250 1398 4047 
Q 1172 3844 1172 3481 
z
" transform="scale(0.015625)"/>
       </defs>
       <use xlink:href="#DejaVuSans-30"/>
       <use xlink:href="#DejaVuSans-2e" transform="translate(63.623047 0)"/>
       <use xlink:href="#DejaVuSans-30" transform="translate(95.410156 0)"/>
       <use xlink:href="#DejaVuSans-38" transform="translate(159.033203 0)"/>
      </g>
     </g>
    </g>
    <g id="ytick_5">
     <g id="line2d_11">
      <path d="M 56.805937 28.404034 
L 556.035937 28.404034 
" clip-path="url(#p99e5e1e4d7)" style="fill: none; stroke: #cccccc; stroke-linecap: round"/>
     </g>
     <g id="text_5">
      <!-- 0.10 -->
      <g style="fill: #262626" transform="translate(22.81375 32.583175) scale(0.11 -0.11)">
       <defs>
        <path id="DejaVuSans-31" d="M 794 531 
L 1825 531 
L 1825 4091 
L 703 3866 
L 703 4441 
L 1819 4666 
L 2450 4666 
L 2450 531 
L 3481 531 
L 3481 0 
L 794 0 
L 794 531 
z
" transform="scale(0.015625)"/>
       </defs>
       <use xlink:href="#DejaVuSans-30"/>
       <use xlink:href="#DejaVuSans-2e" transform="translate(63.623047 0)"/>
       <use xlink:href="#DejaVuSans-31" transform="translate(95.410156 0)"/>
       <use xlink:href="#DejaVuSans-30" transform="translate(159.033203 0)"/>
      </g>
     </g>
    </g>
    <g id="text_6">
     <!-- $\Delta\omega$ -->
     <g style="fill: #262626" transform="translate(16.318125 98.443125) rotate(-90) scale(0.12 -0.12)">
      <defs>
       <path id="DejaVuSans-394" d="M 2188 4044 
L 906 525 
L 3472 525 
L 2188 4044 
z
M 50 0 
L 1831 4666 
L 2547 4666 
L 4325 0 
L 50 0 
z
" transform="scale(0.015625)"/>
       <path id="DejaVuSans-Oblique-3c9" d="M 1369 -91 
Q 72 -91 434 1766 
Q 575 2500 1256 3500 
L 1875 3500 
Q 1231 2500 1088 1750 
Q 819 397 1519 397 
Q 2166 397 2478 2078 
L 3009 2078 
Q 2669 388 3316 397 
Q 4013 403 4275 1750 
Q 4419 2500 4169 3500 
L 4788 3500 
Q 5075 2500 4934 1766 
Q 4578 -94 3278 -91 
Q 2428 -88 2503 844 
Q 2194 -91 1369 -91 
z
" transform="scale(0.015625)"/>
      </defs>
      <use xlink:href="#DejaVuSans-394" transform="translate(0 0.09375)"/>
      <use xlink:href="#DejaVuSans-Oblique-3c9" transform="translate(68.408203 0.09375)"/>
     </g>
    </g>
   </g>
   <g id="line2d_12">
    <path d="M 56.805937 71.557836 
L 556.035937 71.557836 
" clip-path="url(#p99e5e1e4d7)" style="fill: none; stroke-dasharray: 5.55,2.4; stroke-dashoffset: 0; stroke: #808080; stroke-opacity: 0.7; stroke-width: 1.5"/>
   </g>
   <g id="line2d_13">
    <path d="M 79.49821 28.404034 
L 533.343665 28.404034 
L 533.343665 28.404034 
" clip-path="url(#p99e5e1e4d7)" style="fill: none; stroke: #4c72b0; stroke-width: 1.8; stroke-linecap: round"/>
    <defs>
     <path id="m7ad0044e43" d="M -2.5 2.5 
L 2.5 2.5 
L 2.5 -2.5 
L -2.5 -2.5 
z
" style="stroke: #4c72b0; stroke-linejoin: miter"/>
    </defs>
    <g clip-path="url(#p99e5e1e4d7)">
     <use xlink:href="#m7ad0044e43" x="79.49821" y="28.404034" style="fill: #4c72b0; stroke: #4c72b0; stroke-linejoin: miter"/>
     <use xlink:href="#m7ad0044e43" x="94.050369" y="28.404034" style="fill: #4c72b0; stroke: #4c72b0; stroke-linejoin: miter"/>
     <use xlink:href="#m7ad0044e43" x="108.602528" y="28.404034" style="fill: #4c72b0; stroke: #4c72b0; stroke-linejoin: miter"/>
     <use xlink:href="#m7ad0044e43" x="123.154687" y="28.404034" style="fill: #4c72b0; stroke: #4c72b0; stroke-linejoin: miter"/>
     <use xlink:href="#m7ad0044e43" x="137.706846" y="28.404034" style="fill: #4c72b0; stroke: #4c72b0; stroke-linejoin: miter"/>
     <use xlink:href="#m7ad0044e43" x="152.259005" y="28.404034" style="fill: #4c72b0; stroke: #4c72b0; stroke-linejoin: miter"/>
     <use xlink:href="#m7ad0044e43" x="166.811163" y="28.404034" style="fill: #4c72b0; stroke: #4c72b0; stroke-linejoin: miter"/>
     <use xlink:href="#m7ad0044e43" x="181.363322" y="28.404034" style="fill: #4c72b0; stroke: #4c72b0; stroke-linejoin: miter"/>
     <use xlink:href="#m7ad0044e43" x="195.915481" y="28.404034" style="fill: #4c72b0; stroke: #4c72b0; stroke-linejoin: miter"/>
     <use xlink:href="#m7ad0044e43" x="210.46764" y="28.404034" style="fill: #4c72b0; stroke: #4c72b0; stroke-linejoin: miter"/>
     <use xlink:href="#m7ad0044e43" x="225.019799" y="28.404034" style="fill: #4c72b0; stroke: #4c72b0; stroke-linejoin: miter"/>
     <use xlink:href="#m7ad0044e43" x="239.571958" y="28.404034" style="fill: #4c72b0; stroke: #4c72b0; stroke-linejoin: miter"/>
     <use xlink:href="#m7ad0044e43" x="254.124117" y="28.404034" style="fill: #4c72b0; stroke: #4c72b0; stroke-linejoin: miter"/>
     <use xlink:href="#m7ad0044e43" x="268.676275" y="28.404034" style="fill: #4c72b0; stroke: #4c72b0; stroke-linejoin: miter"/>
     <use xlink:href="#m7ad0044e43" x="283.228434" y="28.404034" style="fill: #4c72b0; stroke: #4c72b0; stroke-linejoin: miter"/>
     <use xlink:href="#m7ad0044e43" x="297.780593" y="28.404034" style="fill: #4c72b0; stroke: #4c72b0; stroke-linejoin: miter"/>
     <use xlink:href="#m7ad0044e43" x="312.332752" y="28.404034" style="fill: #4c72b0; stroke: #4c72b0; stroke-linejoin: miter"/>
     <use xlink:href="#m7ad0044e43" x="326.884911" y="28.404034" style="fill: #4c72b0; stroke: #4c72b0; stroke-linejoin: miter"/>
     <use xlink:href="#m7ad0044e43" x="341.43707" y="28.404034" style="fill: #4c72b0; stroke: #4c72b0; stroke-linejoin: miter"/>
     <use xlink:href="#m7ad0044e43" x="355.989229" y="28.404034" style="fill: #4c72b0; stroke: #4c72b0; stroke-linejoin: miter"/>
     <use xlink:href="#m7ad0044e43" x="370.541387" y="28.404034" style="fill: #4c72b0; stroke: #4c72b0; stroke-linejoin: miter"/>
     <use xlink:href="#m7ad0044e43" x="385.093546" y="28.404034" style="fill: #4c72b0; stroke: #4c72b0; stroke-linejoin: miter"/>
     <use xlink:href="#m7ad0044e43" x="399.645705" y="28.404034" style="fill: #4c72b0; stroke: #4c72b0; stroke-linejoin: miter"/>
     <use xlink:href="#m7ad0044e43" x="414.197864" y="28.404034" style="fill: #4c72b0; stroke: #4c72b0; stroke-linejoin: miter"/>
     <use xlink:href="#m7ad0044e43" x="428.750023" y="28.404034" style="fill: #4c72b0; stroke: #4c72b0; stroke-linejoin: miter"/>
     <use xlink:href="#m7ad0044e43" x="443.302182" y="28.404034" style="fill: #4c72b0; stroke: #4c72b0; stroke-linejoin: miter"/>
     <use xlink:href="#m7ad0044e43" x="457.854341" y="28.404034" style="fill: #4c72b0; stroke: #4c72b0; stroke-linejoin: miter"/>
     <use xlink:href="#m7ad0044e43" x="472.4065" y="28.404034" style="fill: #4c72b0; stroke: #4c72b0; stroke-linejoin: miter"/>
     <use xlink:href="#m7ad0044e43" x="486.958658" y="28.404034" style="fill: #4c72b0; stroke: #4c72b0; stroke-linejoin: miter"/>
     <use xlink:href="#m7ad0044e43" x="501.510817" y="28.404034" style="fill: #4c72b0; stroke: #4c72b0; stroke-linejoin: miter"/>
     <use xlink:href="#m7ad0044e43" x="516.062976" y="28.404034" style="fill: #4c72b0; stroke: #4c72b0; stroke-linejoin: miter"/>
     <use xlink:href="#m7ad0044e43" x="530.615135" y="28.404034" style="fill: #4c72b0; stroke: #4c72b0; stroke-linejoin: miter"/>
    </g>
   </g>
   <g id="line2d_14">
    <path d="M 79.49821 145.726217 
L 80.40772 146.91401 
L 81.31723 147.493179 
L 82.22674 147.40162 
L 83.13625 149.228759 
L 84.04576 150.122216 
L 84.95527 148.601562 
L 86.77429 146.696647 
L 87.6838 144.921058 
L 89.502819 146.062053 
L 90.412329 146.295226 
L 91.321839 146.281478 
L 92.231349 147.4784 
L 93.140859 147.853332 
L 94.050369 147.395319 
L 94.959879 146.719325 
L 95.869389 145.90345 
L 96.778899 145.743337 
L 97.688409 146.287032 
L 98.597919 147.185368 
L 99.507429 147.388184 
L 101.326449 147.322778 
L 102.235958 147.139707 
L 103.145468 146.755656 
L 104.054978 146.16472 
L 106.783508 143.810122 
L 107.693018 142.884874 
L 109.512038 145.194211 
L 110.421548 142.492935 
L 111.331058 142.116784 
L 112.240568 139.382914 
L 113.150078 141.325691 
L 114.059588 140.606781 
L 114.969097 141.96239 
L 115.878607 141.291843 
L 116.788117 143.08757 
L 117.697627 142.458298 
L 118.607137 141.50128 
L 119.516647 138.712217 
L 120.426157 142.450788 
L 124.064197 140.400277 
L 124.973707 140.96116 
L 125.883217 141.109451 
L 126.792727 141.682447 
L 127.702236 140.119874 
L 128.611746 139.155516 
L 129.521256 140.327266 
L 130.430766 138.650486 
L 131.340276 138.132625 
L 132.249786 138.905628 
L 133.159296 138.824905 
L 134.068806 138.106672 
L 134.978316 138.964425 
L 135.887826 137.452572 
L 136.797336 137.792972 
L 137.706846 137.987964 
L 138.616356 137.199283 
L 139.525866 136.763036 
L 140.435375 135.247544 
L 141.344885 135.894481 
L 142.254395 134.385456 
L 143.163905 136.340922 
L 144.073415 134.965268 
L 144.982925 135.572559 
L 145.892435 135.114121 
L 146.801945 135.033525 
L 148.620965 134.160977 
L 149.530475 133.51428 
L 150.439985 133.349226 
L 152.259005 132.698342 
L 153.168514 133.479419 
L 154.078024 132.703192 
L 154.987534 131.652369 
L 155.897044 131.319864 
L 156.806554 131.613523 
L 157.716064 131.148089 
L 158.625574 131.54707 
L 159.535084 131.214663 
L 160.444594 131.951813 
L 161.354104 130.54601 
L 162.263614 131.91625 
L 163.173124 130.942242 
L 164.082634 129.539431 
L 164.992144 130.109177 
L 165.901653 129.946302 
L 166.811163 129.253467 
L 167.720673 128.191687 
L 168.630183 128.601648 
L 169.539693 128.638073 
L 170.449203 129.169555 
L 171.358713 128.848421 
L 172.268223 128.361347 
L 173.177733 127.046037 
L 174.087243 127.020626 
L 174.996753 126.317979 
L 176.815773 126.925868 
L 178.634792 126.223524 
L 179.544302 125.743266 
L 180.453812 125.718886 
L 181.363322 125.232263 
L 182.272832 126.318861 
L 183.182342 125.540661 
L 184.091852 124.544159 
L 185.001362 124.328804 
L 185.910872 124.721793 
L 186.820382 124.448829 
L 187.729892 123.502904 
L 188.639402 124.421567 
L 190.458422 122.797268 
L 191.367931 123.064332 
L 192.277441 122.817914 
L 193.186951 121.999091 
L 194.096461 123.299783 
L 195.005971 122.538214 
L 195.915481 122.687052 
L 196.824991 122.004895 
L 197.734501 121.765323 
L 198.644011 121.890362 
L 199.553521 121.205945 
L 200.463031 121.47398 
L 201.372541 121.584642 
L 202.282051 121.159494 
L 203.191561 119.600852 
L 205.01058 120.019327 
L 205.92009 120.091905 
L 206.8296 119.078669 
L 207.73911 119.574421 
L 208.64862 119.103285 
L 209.55813 119.110572 
L 210.46764 118.869709 
L 211.37715 118.318546 
L 212.28666 118.657271 
L 213.19617 118.490697 
L 214.10568 117.218789 
L 215.9247 116.767226 
L 216.834209 117.316936 
L 217.743719 117.092092 
L 218.653229 117.149437 
L 219.562739 115.893467 
L 220.472249 117.153385 
L 221.381759 115.407996 
L 222.291269 115.966926 
L 223.200779 115.890298 
L 224.110289 115.667364 
L 225.019799 114.843243 
L 225.929309 114.822653 
L 226.838819 115.597574 
L 227.748329 115.334245 
L 228.657839 115.385422 
L 229.567349 114.160335 
L 230.476858 114.955664 
L 231.386368 113.923938 
L 232.295878 114.190912 
L 233.205388 113.996141 
L 235.024408 113.081145 
L 235.933918 113.297379 
L 236.843428 113.673001 
L 237.752938 113.053722 
L 238.662448 112.695692 
L 239.571958 112.071813 
L 240.481468 111.840223 
L 241.390978 112.238439 
L 242.300488 110.362586 
L 243.209997 111.925252 
L 244.119507 112.052858 
L 245.029017 111.438711 
L 245.938527 110.969229 
L 246.848037 111.044544 
L 248.667057 110.654109 
L 249.576567 109.855714 
L 251.395587 110.075273 
L 252.305097 109.884153 
L 253.214607 109.972677 
L 254.124117 109.923121 
L 255.033627 109.710315 
L 255.943136 109.244577 
L 256.852646 108.941787 
L 257.762156 107.872848 
L 258.671666 108.923647 
L 259.581176 108.386756 
L 260.490686 108.786332 
L 261.400196 107.444699 
L 262.309706 108.422703 
L 263.219216 106.636733 
L 264.128726 107.706986 
L 265.038236 108.02326 
L 265.947746 107.541901 
L 267.766766 107.054581 
L 268.676275 106.768691 
L 270.495295 106.662678 
L 271.404805 106.793027 
L 273.223825 105.722527 
L 274.133335 106.039019 
L 275.042845 105.966597 
L 275.952355 105.158729 
L 276.861865 105.271149 
L 277.771375 104.625067 
L 278.680885 104.98116 
L 279.590395 104.961547 
L 281.409414 104.630171 
L 282.318924 104.727237 
L 283.228434 104.474194 
L 284.137944 104.461778 
L 285.047454 104.037325 
L 286.866474 103.582246 
L 287.775984 102.964405 
L 288.685494 103.52012 
L 289.595004 103.058095 
L 290.504514 103.640071 
L 291.414024 103.482387 
L 292.323534 102.422342 
L 293.233044 103.168995 
L 294.142553 101.590436 
L 295.052063 102.233348 
L 295.961573 102.360679 
L 296.871083 102.219978 
L 298.690103 102.151777 
L 299.599613 101.631805 
L 300.509123 101.528158 
L 301.418633 101.3052 
L 302.328143 101.858166 
L 303.237653 101.572524 
L 304.147163 101.104453 
L 305.056673 100.895869 
L 305.966183 100.876207 
L 306.875692 100.118404 
L 307.785202 100.43325 
L 311.423242 100.326683 
L 312.332752 99.831587 
L 314.151772 99.717234 
L 315.061282 99.192964 
L 315.970792 99.369744 
L 316.880302 99.001366 
L 317.789812 98.925573 
L 319.608831 98.582831 
L 320.518341 98.916849 
L 322.337361 98.395942 
L 323.246871 98.153666 
L 324.156381 97.445123 
L 325.065891 98.296406 
L 325.975401 97.746431 
L 326.884911 97.716015 
L 327.794421 98.040406 
L 328.703931 97.449236 
L 329.613441 97.733378 
L 330.522951 96.874173 
L 331.432461 96.946064 
L 332.34197 97.285515 
L 333.25148 96.961699 
L 334.16099 96.902774 
L 335.0705 96.161958 
L 335.98001 96.192668 
L 336.88952 95.903362 
L 337.79903 96.505656 
L 338.70854 96.18509 
L 339.61805 96.425907 
L 342.34658 95.596206 
L 343.25609 95.743263 
L 344.1656 95.253319 
L 345.075109 95.49291 
L 346.894129 95.186571 
L 347.803639 94.667741 
L 348.713149 94.997749 
L 349.622659 94.368153 
L 352.351189 94.647856 
L 353.260699 94.117109 
L 354.170209 93.965818 
L 355.989229 94.029035 
L 356.898739 93.638442 
L 357.808248 93.507567 
L 358.717758 93.240001 
L 359.627268 93.68761 
L 361.446288 92.859225 
L 362.355798 93.084625 
L 363.265308 92.418433 
L 364.174818 91.313089 
L 365.084328 92.857061 
L 365.993838 92.891733 
L 366.903348 92.627676 
L 367.812858 92.650736 
L 368.722368 92.450414 
L 369.631878 92.42367 
L 370.541387 91.877199 
L 371.450897 91.875036 
L 372.360407 91.666671 
L 374.179427 91.725848 
L 375.088937 91.77607 
L 375.998447 91.315353 
L 376.907957 91.110064 
L 377.817467 91.335202 
L 378.726977 91.349101 
L 379.636487 90.87746 
L 380.545997 90.689282 
L 384.184036 90.764714 
L 385.093546 90.22772 
L 386.912566 90.34399 
L 387.822076 89.984293 
L 388.731586 89.941426 
L 389.641096 90.157028 
L 390.550606 89.731965 
L 391.460116 89.438095 
L 392.369626 89.579553 
L 393.279136 89.201058 
L 395.098156 89.058538 
L 396.007666 89.262229 
L 398.736195 88.744731 
L 399.645705 88.996587 
L 400.555215 88.754744 
L 402.374235 88.00235 
L 403.283745 88.56463 
L 404.193255 88.35481 
L 405.102765 87.991996 
L 406.921785 88.226522 
L 407.831295 87.749256 
L 409.650314 87.406542 
L 410.559824 87.623041 
L 411.469334 87.680448 
L 412.378844 86.860387 
L 413.288354 87.570729 
L 414.197864 86.572423 
L 415.107374 87.32596 
L 416.016884 87.230552 
L 416.926394 86.987137 
L 419.654924 86.851991 
L 421.473944 86.188693 
L 422.383453 86.126613 
L 423.292963 86.630471 
L 424.202473 86.153471 
L 425.111983 86.320653 
L 426.021493 86.353048 
L 427.840513 85.486941 
L 428.750023 85.863627 
L 429.659533 85.736854 
L 430.569043 85.820532 
L 431.478553 85.174634 
L 432.388063 85.731543 
L 433.297573 85.292675 
L 434.207083 85.519588 
L 435.116592 85.197576 
L 436.935612 85.193627 
L 437.845122 84.967586 
L 438.754632 84.969086 
L 439.664142 84.423008 
L 440.573652 84.482713 
L 441.483162 84.200114 
L 442.392672 84.034381 
L 443.302182 84.580265 
L 444.211692 84.389185 
L 445.121202 84.498236 
L 446.030712 84.273726 
L 448.759241 84.042163 
L 449.668751 83.725258 
L 450.578261 83.758846 
L 452.397281 83.411922 
L 453.306791 83.595254 
L 454.216301 83.536321 
L 455.125811 83.173785 
L 456.035321 83.345057 
L 457.854341 83.179515 
L 458.763851 83.062802 
L 459.673361 83.203921 
L 460.58287 82.851891 
L 461.49238 82.763167 
L 462.40189 82.864443 
L 463.3114 82.810337 
L 464.22091 82.484582 
L 465.13042 82.55174 
L 466.03993 82.420025 
L 466.94944 82.034346 
L 467.85895 82.407714 
L 468.76846 82.415644 
L 469.67797 82.071536 
L 470.58748 81.960389 
L 471.49699 82.073465 
L 472.4065 81.93711 
L 473.316009 81.961772 
L 474.225519 81.529632 
L 476.044539 81.7642 
L 476.954049 81.412409 
L 477.863559 81.52624 
L 478.773069 81.184543 
L 479.682579 81.442982 
L 480.592089 80.915727 
L 482.411109 81.173573 
L 483.320619 80.660505 
L 484.230129 80.99006 
L 485.139639 80.724124 
L 486.049148 80.951231 
L 489.687188 80.136039 
L 490.596698 80.522906 
L 491.506208 80.421611 
L 492.415718 80.187256 
L 493.325228 80.206336 
L 494.234738 80.040056 
L 495.144248 80.126793 
L 496.053758 79.575959 
L 496.963268 79.846973 
L 498.782287 79.804235 
L 500.601307 79.581398 
L 502.420327 79.459808 
L 504.239347 79.373223 
L 505.148857 79.429954 
L 506.058367 79.213884 
L 507.877387 79.19122 
L 508.786897 79.100375 
L 509.696407 78.790458 
L 511.515426 78.825614 
L 512.424936 78.612816 
L 513.334446 78.686644 
L 515.153466 78.476766 
L 516.062976 78.47962 
L 516.972486 78.209211 
L 517.881996 78.406979 
L 519.701016 78.190366 
L 520.610526 77.734911 
L 521.520036 77.583851 
L 522.429546 77.886633 
L 523.339056 77.486069 
L 524.248565 77.852844 
L 525.158075 77.876186 
L 528.796115 77.535621 
L 529.705625 77.579399 
L 530.615135 77.403662 
L 532.434155 77.381931 
L 533.343665 77.235211 
L 533.343665 77.235211 
" clip-path="url(#p99e5e1e4d7)" style="fill: none; stroke: #c44e52; stroke-width: 1.8; stroke-linecap: round"/>
    <defs>
     <path id="mf9c8dc3760" d="M 0 2.5 
C 0.663008 2.5 1.29895 2.236584 1.767767 1.767767 
C 2.236584 1.29895 2.5 0.663008 2.5 0 
C 2.5 -0.663008 2.236584 -1.29895 1.767767 -1.767767 
C 1.29895 -2.236584 0.663008 -2.5 0 -2.5 
C -0.663008 -2.5 -1.29895 -2.236584 -1.767767 -1.767767 
C -2.236584 -1.29895 -2.5 -0.663008 -2.5 0 
C -2.5 0.663008 -2.236584 1.29895 -1.767767 1.767767 
C -1.29895 2.236584 -0.663008 2.5 0 2.5 
z
" style="stroke: #c44e52"/>
    </defs>
    <g clip-path="url(#p99e5e1e4d7)">
     <use xlink:href="#mf9c8dc3760" x="79.49821" y="145.726217" style="fill: #c44e52; stroke: #c44e52"/>
     <use xlink:href="#mf9c8dc3760" x="94.050369" y="147.395319" style="fill: #c44e52; stroke: #c44e52"/>
     <use xlink:href="#mf9c8dc3760" x="108.602528" y="144.020591" style="fill: #c44e52; stroke: #c44e52"/>
     <use xlink:href="#mf9c8dc3760" x="123.154687" y="140.901453" style="fill: #c44e52; stroke: #c44e52"/>
     <use xlink:href="#mf9c8dc3760" x="137.706846" y="137.987964" style="fill: #c44e52; stroke: #c44e52"/>
     <use xlink:href="#mf9c8dc3760" x="152.259005" y="132.698342" style="fill: #c44e52; stroke: #c44e52"/>
     <use xlink:href="#mf9c8dc3760" x="166.811163" y="129.253467" style="fill: #c44e52; stroke: #c44e52"/>
     <use xlink:href="#mf9c8dc3760" x="181.363322" y="125.232263" style="fill: #c44e52; stroke: #c44e52"/>
     <use xlink:href="#mf9c8dc3760" x="195.915481" y="122.687052" style="fill: #c44e52; stroke: #c44e52"/>
     <use xlink:href="#mf9c8dc3760" x="210.46764" y="118.869709" style="fill: #c44e52; stroke: #c44e52"/>
     <use xlink:href="#mf9c8dc3760" x="225.019799" y="114.843243" style="fill: #c44e52; stroke: #c44e52"/>
     <use xlink:href="#mf9c8dc3760" x="239.571958" y="112.071813" style="fill: #c44e52; stroke: #c44e52"/>
     <use xlink:href="#mf9c8dc3760" x="254.124117" y="109.923121" style="fill: #c44e52; stroke: #c44e52"/>
     <use xlink:href="#mf9c8dc3760" x="268.676275" y="106.768691" style="fill: #c44e52; stroke: #c44e52"/>
     <use xlink:href="#mf9c8dc3760" x="283.228434" y="104.474194" style="fill: #c44e52; stroke: #c44e52"/>
     <use xlink:href="#mf9c8dc3760" x="297.780593" y="102.198561" style="fill: #c44e52; stroke: #c44e52"/>
     <use xlink:href="#mf9c8dc3760" x="312.332752" y="99.831587" style="fill: #c44e52; stroke: #c44e52"/>
     <use xlink:href="#mf9c8dc3760" x="326.884911" y="97.716015" style="fill: #c44e52; stroke: #c44e52"/>
     <use xlink:href="#mf9c8dc3760" x="341.43707" y="95.707279" style="fill: #c44e52; stroke: #c44e52"/>
     <use xlink:href="#mf9c8dc3760" x="355.989229" y="94.029035" style="fill: #c44e52; stroke: #c44e52"/>
     <use xlink:href="#mf9c8dc3760" x="370.541387" y="91.877199" style="fill: #c44e52; stroke: #c44e52"/>
     <use xlink:href="#mf9c8dc3760" x="385.093546" y="90.22772" style="fill: #c44e52; stroke: #c44e52"/>
     <use xlink:href="#mf9c8dc3760" x="399.645705" y="88.996587" style="fill: #c44e52; stroke: #c44e52"/>
     <use xlink:href="#mf9c8dc3760" x="414.197864" y="86.572423" style="fill: #c44e52; stroke: #c44e52"/>
     <use xlink:href="#mf9c8dc3760" x="428.750023" y="85.863627" style="fill: #c44e52; stroke: #c44e52"/>
     <use xlink:href="#mf9c8dc3760" x="443.302182" y="84.580265" style="fill: #c44e52; stroke: #c44e52"/>
     <use xlink:href="#mf9c8dc3760" x="457.854341" y="83.179515" style="fill: #c44e52; stroke: #c44e52"/>
     <use xlink:href="#mf9c8dc3760" x="472.4065" y="81.93711" style="fill: #c44e52; stroke: #c44e52"/>
     <use xlink:href="#mf9c8dc3760" x="486.958658" y="80.727141" style="fill: #c44e52; stroke: #c44e52"/>
     <use xlink:href="#mf9c8dc3760" x="501.510817" y="79.570489" style="fill: #c44e52; stroke: #c44e52"/>
     <use xlink:href="#mf9c8dc3760" x="516.062976" y="78.47962" style="fill: #c44e52; stroke: #c44e52"/>
     <use xlink:href="#mf9c8dc3760" x="530.615135" y="77.403662" style="fill: #c44e52; stroke: #c44e52"/>
    </g>
   </g>
   <g id="patch_3">
    <path d="M 56.805937 156.208125 
L 56.805937 22.318125 
" style="fill: none; stroke: #cccccc; stroke-width: 1.25; stroke-linejoin: miter; stroke-linecap: square"/>
   </g>
   <g id="patch_4">
    <path d="M 556.035937 156.208125 
L 556.035937 22.318125 
" style="fill: none; stroke: #cccccc; stroke-width: 1.25; stroke-linejoin: miter; stroke-linecap: square"/>
   </g>
   <g id="patch_5">
    <path d="M 56.805937 156.208125 
L 556.035937 156.208125 
" style="fill: none; stroke: #cccccc; stroke-width: 1.25; stroke-linejoin: miter; stroke-linecap: square"/>
   </g>
   <g id="patch_6">
    <path d="M 56.805937 22.318125 
L 556.035937 22.318125 
" style="fill: none; stroke: #cccccc; stroke-width: 1.25; stroke-linejoin: miter; stroke-linecap: square"/>
   </g>
   <g id="text_7">
    <!-- Cross-experiment comparison: fixed vs modulated drive -->
    <g style="fill: #262626" transform="translate(137.929687 16.318125) scale(0.12 -0.12)">
     <defs>
      <path id="DejaVuSans-43" d="M 4122 4306 
L 4122 3641 
Q 3803 3938 3442 4084 
Q 3081 4231 2675 4231 
Q 1875 4231 1450 3742 
Q 1025 3253 1025 2328 
Q 1025 1406 1450 917 
Q 1875 428 2675 428 
Q 3081 428 3442 575 
Q 3803 722 4122 1019 
L 4122 359 
Q 3791 134 3420 21 
Q 3050 -91 2638 -91 
Q 1578 -91 968 557 
Q 359 1206 359 2328 
Q 359 3453 968 4101 
Q 1578 4750 2638 4750 
Q 3056 4750 3426 4639 
Q 3797 4528 4122 4306 
z
" transform="scale(0.015625)"/>
      <path id="DejaVuSans-72" d="M 2631 2963 
Q 2534 3019 2420 3045 
Q 2306 3072 2169 3072 
Q 1681 3072 1420 2755 
Q 1159 2438 1159 1844 
L 1159 0 
L 581 0 
L 581 3500 
L 1159 3500 
L 1159 2956 
Q 1341 3275 1631 3429 
Q 1922 3584 2338 3584 
Q 2397 3584 2469 3576 
Q 2541 3569 2628 3553 
L 2631 2963 
z
" transform="scale(0.015625)"/>
      <path id="DejaVuSans-6f" d="M 1959 3097 
Q 1497 3097 1228 2736 
Q 959 2375 959 1747 
Q 959 1119 1226 758 
Q 1494 397 1959 397 
Q 2419 397 2687 759 
Q 2956 1122 2956 1747 
Q 2956 2369 2687 2733 
Q 2419 3097 1959 3097 
z
M 1959 3584 
Q 2709 3584 3137 3096 
Q 3566 2609 3566 1747 
Q 3566 888 3137 398 
Q 2709 -91 1959 -91 
Q 1206 -91 779 398 
Q 353 888 353 1747 
Q 353 2609 779 3096 
Q 1206 3584 1959 3584 
z
" transform="scale(0.015625)"/>
      <path id="DejaVuSans-73" d="M 2834 3397 
L 2834 2853 
Q 2591 2978 2328 3040 
Q 2066 3103 1784 3103 
Q 1356 3103 1142 2972 
Q 928 2841 928 2578 
Q 928 2378 1081 2264 
Q 1234 2150 1697 2047 
L 1894 2003 
Q 2506 1872 2764 1633 
Q 3022 1394 3022 966 
Q 3022 478 2636 193 
Q 2250 -91 1575 -91 
Q 1294 -91 989 -36 
Q 684 19 347 128 
L 347 722 
Q 666 556 975 473 
Q 1284 391 1588 391 
Q 1994 391 2212 530 
Q 2431 669 2431 922 
Q 2431 1156 2273 1281 
Q 2116 1406 1581 1522 
L 1381 1569 
Q 847 1681 609 1914 
Q 372 2147 372 2553 
Q 372 3047 722 3315 
Q 1072 3584 1716 3584 
Q 2034 3584 2315 3537 
Q 2597 3491 2834 3397 
z
" transform="scale(0.015625)"/>
      <path id="DejaVuSans-2d" d="M 313 2009 
L 1997 2009 
L 1997 1497 
L 313 1497 
L 313 2009 
z
" transform="scale(0.015625)"/>
      <path id="DejaVuSans-65" d="M 3597 1894 
L 3597 1613 
L 953 1613 
Q 991 1019 1311 708 
Q 1631 397 2203 397 
Q 2534 397 2845 478 
Q 3156 559 3463 722 
L 3463 178 
Q 3153 47 2828 -22 
Q 2503 -91 2169 -91 
Q 1331 -91 842 396 
Q 353 884 353 1716 
Q 353 2575 817 3079 
Q 1281 3584 2069 3584 
Q 2775 3584 3186 3129 
Q 3597 2675 3597 1894 
z
M 3022 2063 
Q 3016 2534 2758 2815 
Q 2500 3097 2075 3097 
Q 1594 3097 1305 2825 
Q 1016 2553 972 2059 
L 3022 2063 
z
" transform="scale(0.015625)"/>
      <path id="DejaVuSans-78" d="M 3513 3500 
L 2247 1797 
L 3578 0 
L 2900 0 
L 1881 1375 
L 863 0 
L 184 0 
L 1544 1831 
L 300 3500 
L 978 3500 
L 1906 2253 
L 2834 3500 
L 3513 3500 
z
" transform="scale(0.015625)"/>
      <path id="DejaVuSans-70" d="M 1159 525 
L 1159 -1331 
L 581 -1331 
L 581 3500 
L 1159 3500 
L 1159 2969 
Q 1341 3281 1617 3432 
Q 1894 3584 2278 3584 
Q 2916 3584 3314 3078 
Q 3713 2572 3713 1747 
Q 3713 922 3314 415 
Q 2916 -91 2278 -91 
Q 1894 -91 1617 61 
Q 1341 213 1159 525 
z
M 3116 1747 
Q 3116 2381 2855 2742 
Q 2594 3103 2138 3103 
Q 1681 3103 1420 2742 
Q 1159 2381 1159 1747 
Q 1159 1113 1420 752 
Q 1681 391 2138 391 
Q 2594 391 2855 752 
Q 3116 1113 3116 1747 
z
" transform="scale(0.015625)"/>
      <path id="DejaVuSans-69" d="M 603 3500 
L 1178 3500 
L 1178 0 
L 603 0 
L 603 3500 
z
M 603 4863 
L 1178 4863 
L 1178 4134 
L 603 4134 
L 603 4863 
z
" transform="scale(0.015625)"/>
      <path id="DejaVuSans-6d" d="M 3328 2828 
Q 3544 3216 3844 3400 
Q 4144 3584 4550 3584 
Q 5097 3584 5394 3201 
Q 5691 2819 5691 2113 
L 5691 0 
L 5113 0 
L 5113 2094 
Q 5113 2597 4934 2840 
Q 4756 3084 4391 3084 
Q 3944 3084 3684 2787 
Q 3425 2491 3425 1978 
L 3425 0 
L 2847 0 
L 2847 2094 
Q 2847 2600 2669 2842 
Q 2491 3084 2119 3084 
Q 1678 3084 1418 2786 
Q 1159 2488 1159 1978 
L 1159 0 
L 581 0 
L 581 3500 
L 1159 3500 
L 1159 2956 
Q 1356 3278 1631 3431 
Q 1906 3584 2284 3584 
Q 2666 3584 2933 3390 
Q 3200 3197 3328 2828 
z
" transform="scale(0.015625)"/>
      <path id="DejaVuSans-6e" d="M 3513 2113 
L 3513 0 
L 2938 0 
L 2938 2094 
Q 2938 2591 2744 2837 
Q 2550 3084 2163 3084 
Q 1697 3084 1428 2787 
Q 1159 2491 1159 1978 
L 1159 0 
L 581 0 
L 581 3500 
L 1159 3500 
L 1159 2956 
Q 1366 3272 1645 3428 
Q 1925 3584 2291 3584 
Q 2894 3584 3203 3211 
Q 3513 2838 3513 2113 
z
" transform="scale(0.015625)"/>
      <path id="DejaVuSans-74" d="M 1172 4494 
L 1172 3500 
L 2356 3500 
L 2356 3053 
L 1172 3053 
L 1172 1153 
Q 1172 725 1289 603 
Q 1406 481 1766 481 
L 2356 481 
L 2356 0 
L 1766 0 
Q 1100 0 847 248 
Q 594 497 594 1153 
L 594 3053 
L 172 3053 
L 172 3500 
L 594 3500 
L 594 4494 
L 1172 4494 
z
" transform="scale(0.015625)"/>
      <path id="DejaVuSans-20" transform="scale(0.015625)"/>
      <path id="DejaVuSans-63" d="M 3122 3366 
L 3122 2828 
Q 2878 2963 2633 3030 
Q 2388 3097 2138 3097 
Q 1578 3097 1268 2742 
Q 959 2388 959 1747 
Q 959 1106 1268 751 
Q 1578 397 2138 397 
Q 2388 397 2633 464 
Q 2878 531 3122 666 
L 3122 134 
Q 2881 22 2623 -34 
Q 2366 -91 2075 -91 
Q 1284 -91 818 406 
Q 353 903 353 1747 
Q 353 2603 823 3093 
Q 1294 3584 2113 3584 
Q 2378 3584 2631 3529 
Q 2884 3475 3122 3366 
z
" transform="scale(0.015625)"/>
      <path id="DejaVuSans-61" d="M 2194 1759 
Q 1497 1759 1228 1600 
Q 959 1441 959 1056 
Q 959 750 1161 570 
Q 1363 391 1709 391 
Q 2188 391 2477 730 
Q 2766 1069 2766 1631 
L 2766 1759 
L 2194 1759 
z
M 3341 1997 
L 3341 0 
L 2766 0 
L 2766 531 
Q 2569 213 2275 61 
Q 1981 -91 1556 -91 
Q 1019 -91 701 211 
Q 384 513 384 1019 
Q 384 1609 779 1909 
Q 1175 2209 1959 2209 
L 2766 2209 
L 2766 2266 
Q 2766 2663 2505 2880 
Q 2244 3097 1772 3097 
Q 1472 3097 1187 3025 
Q 903 2953 641 2809 
L 641 3341 
Q 956 3463 1253 3523 
Q 1550 3584 1831 3584 
Q 2591 3584 2966 3190 
Q 3341 2797 3341 1997 
z
" transform="scale(0.015625)"/>
      <path id="DejaVuSans-3a" d="M 750 794 
L 1409 794 
L 1409 0 
L 750 0 
L 750 794 
z
M 750 3309 
L 1409 3309 
L 1409 2516 
L 750 2516 
L 750 3309 
z
" transform="scale(0.015625)"/>
      <path id="DejaVuSans-66" d="M 2375 4863 
L 2375 4384 
L 1825 4384 
Q 1516 4384 1395 4259 
Q 1275 4134 1275 3809 
L 1275 3500 
L 2222 3500 
L 2222 3053 
L 1275 3053 
L 1275 0 
L 697 0 
L 697 3053 
L 147 3053 
L 147 3500 
L 697 3500 
L 697 3744 
Q 697 4328 969 4595 
Q 1241 4863 1831 4863 
L 2375 4863 
z
" transform="scale(0.015625)"/>
      <path id="DejaVuSans-64" d="M 2906 2969 
L 2906 4863 
L 3481 4863 
L 3481 0 
L 2906 0 
L 2906 525 
Q 2725 213 2448 61 
Q 2172 -91 1784 -91 
Q 1150 -91 751 415 
Q 353 922 353 1747 
Q 353 2572 751 3078 
Q 1150 3584 1784 3584 
Q 2172 3584 2448 3432 
Q 2725 3281 2906 2969 
z
M 947 1747 
Q 947 1113 1208 752 
Q 1469 391 1925 391 
Q 2381 391 2643 752 
Q 2906 1113 2906 1747 
Q 2906 2381 2643 2742 
Q 2381 3103 1925 3103 
Q 1469 3103 1208 2742 
Q 947 2381 947 1747 
z
" transform="scale(0.015625)"/>
      <path id="DejaVuSans-76" d="M 191 3500 
L 800 3500 
L 1894 563 
L 2988 3500 
L 3597 3500 
L 2284 0 
L 1503 0 
L 191 3500 
z
" transform="scale(0.015625)"/>
      <path id="DejaVuSans-75" d="M 544 1381 
L 544 3500 
L 1119 3500 
L 1119 1403 
Q 1119 906 1312 657 
Q 1506 409 1894 409 
Q 2359 409 2629 706 
Q 2900 1003 2900 1516 
L 2900 3500 
L 3475 3500 
L 3475 0 
L 2900 0 
L 2900 538 
Q 2691 219 2414 64 
Q 2138 -91 1772 -91 
Q 1169 -91 856 284 
Q 544 659 544 1381 
z
M 1991 3584 
L 1991 3584 
z
" transform="scale(0.015625)"/>
      <path id="DejaVuSans-6c" d="M 603 4863 
L 1178 4863 
L 1178 0 
L 603 0 
L 603 4863 
z
" transform="scale(0.015625)"/>
     </defs>
     <use xlink:href="#DejaVuSans-43"/>
     <use xlink:href="#DejaVuSans-72" transform="translate(69.824219 0)"/>
     <use xlink:href="#DejaVuSans-6f" transform="translate(108.6875 0)"/>
     <use xlink:href="#DejaVuSans-73" transform="translate(169.869141 0)"/>
     <use xlink:href="#DejaVuSans-73" transform="translate(221.96875 0)"/>
     <use xlink:href="#DejaVuSans-2d" transform="translate(274.068359 0)"/>
     <use xlink:href="#DejaVuSans-65" transform="translate(310.152344 0)"/>
     <use xlink:href="#DejaVuSans-78" transform="translate(369.925781 0)"/>
     <use xlink:href="#DejaVuSans-70" transform="translate(429.105469 0)"/>
     <use xlink:href="#DejaVuSans-65" transform="translate(492.582031 0)"/>
     <use xlink:href="#DejaVuSans-72" transform="translate(554.105469 0)"/>
     <use xlink:href="#DejaVuSans-69" transform="translate(595.21875 0)"/>
     <use xlink:href="#DejaVuSans-6d" transform="translate(623.001953 0)"/>
     <use xlink:href="#DejaVuSans-65" transform="translate(720.414062 0)"/>
     <use xlink:href="#DejaVuSans-6e" transform="translate(781.9375 0)"/>
     <use xlink:href="#DejaVuSans-74" transform="translate(845.316406 0)"/>
     <use xlink:href="#DejaVuSans-20" transform="translate(884.525391 0)"/>
     <use xlink:href="#DejaVuSans-63" transform="translate(916.3125 0)"/>
     <use xlink:href="#DejaVuSans-6f" transform="translate(971.292969 0)"/>
     <use xlink:href="#DejaVuSans-6d" transform="translate(1032.474609 0)"/>
     <use xlink:href="#DejaVuSans-70" transform="translate(1129.886719 0)"/>
     <use xlink:href="#DejaVuSans-61" transform="translate(1193.363281 0)"/>
     <use xlink:href="#DejaVuSans-72" transform="translate(1254.642578 0)"/>
     <use xlink:href="#DejaVuSans-69" transform="translate(1295.755859 0)"/>
     <use xlink:href="#DejaVuSans-73" transform="translate(1323.539062 0)"/>
     <use xlink:href="#DejaVuSans-6f" transform="translate(1375.638672 0)"/>
     <use xlink:href="#DejaVuSans-6e" transform="translate(1436.820312 0)"/>
     <use xlink:href="#DejaVuSans-3a" transform="translate(1500.199219 0)"/>
     <use xlink:href="#DejaVuSans-20" transform="translate(1533.890625 0)"/>
     <use xlink:href="#DejaVuSans-66" transform="translate(1565.677734 0)"/>
     <use xlink:href="#DejaVuSans-69" transform="translate(1600.882812 0)"/>
     <use xlink:href="#DejaVuSans-78" transform="translate(1628.666016 0)"/>
     <use xlink:href="#DejaVuSans-65" transform="translate(1684.720703 0)"/>
     <use xlink:href="#DejaVuSans-64" transform="translate(1746.244141 0)"/>
     <use xlink:href="#DejaVuSans-20" transform="translate(1809.720703 0)"/>
     <use xlink:href="#DejaVuSans-76" transform="translate(1841.507812 0)"/>
     <use xlink:href="#DejaVuSans-73" transform="translate(1900.6875 0)"/>
     <use xlink:href="#DejaVuSans-20" transform="translate(1952.787109 0)"/>
     <use xlink:href="#DejaVuSans-6d" transform="translate(1984.574219 0)"/>
     <use xlink:href="#DejaVuSans-6f" transform="translate(2081.986328 0)"/>
     <use xlink:href="#DejaVuSans-64" transform="translate(2143.167969 0)"/>
     <use xlink:href="#DejaVuSans-75" transform="translate(2206.644531 0)"/>
     <use xlink:href="#DejaVuSans-6c" transform="translate(2270.023438 0)"/>
     <use xlink:href="#DejaVuSans-61" transform="translate(2297.806641 0)"/>
     <use xlink:href="#DejaVuSans-74" transform="translate(2359.085938 0)"/>
     <use xlink:href="#DejaVuSans-65" transform="translate(2398.294922 0)"/>
     <use xlink:href="#DejaVuSans-64" transform="translate(2459.818359 0)"/>
     <use xlink:href="#DejaVuSans-20" transform="translate(2523.294922 0)"/>
     <use xlink:href="#DejaVuSans-64" transform="translate(2555.082031 0)"/>
     <use xlink:href="#DejaVuSans-72" transform="translate(2618.558594 0)"/>
     <use xlink:href="#DejaVuSans-69" transform="translate(2659.671875 0)"/>
     <use xlink:href="#DejaVuSans-76" transform="translate(2687.455078 0)"/>
     <use xlink:href="#DejaVuSans-65" transform="translate(2746.634766 0)"/>
    </g>
   </g>
   <g id="legend_1">
    <g id="patch_7">
     <path d="M 385.625156 151.708125 
L 549.735937 151.708125 
Q 551.535937 151.708125 551.535937 149.908125 
L 551.535937 111.177188 
Q 551.535937 109.377187 549.735937 109.377187 
L 385.625156 109.377187 
Q 383.825156 109.377187 383.825156 111.177188 
L 383.825156 149.908125 
Q 383.825156 151.708125 385.625156 151.708125 
z
" style="fill: #ffffff; opacity: 0.8; stroke: #cccccc; stroke-linejoin: miter"/>
    </g>
    <g id="line2d_15">
     <path d="M 387.425156 116.665781 
L 396.425156 116.665781 
L 405.425156 116.665781 
" style="fill: none; stroke-dasharray: 5.55,2.4; stroke-dashoffset: 0; stroke: #808080; stroke-opacity: 0.7; stroke-width: 1.5"/>
    </g>
    <g id="text_8">
     <!-- SQL = 0.0707 -->
     <g style="fill: #262626" transform="translate(412.625156 119.815781) scale(0.09 -0.09)">
      <defs>
       <path id="DejaVuSans-53" d="M 3425 4513 
L 3425 3897 
Q 3066 4069 2747 4153 
Q 2428 4238 2131 4238 
Q 1616 4238 1336 4038 
Q 1056 3838 1056 3469 
Q 1056 3159 1242 3001 
Q 1428 2844 1947 2747 
L 2328 2669 
Q 3034 2534 3370 2195 
Q 3706 1856 3706 1288 
Q 3706 609 3251 259 
Q 2797 -91 1919 -91 
Q 1588 -91 1214 -16 
Q 841 59 441 206 
L 441 856 
Q 825 641 1194 531 
Q 1563 422 1919 422 
Q 2459 422 2753 634 
Q 3047 847 3047 1241 
Q 3047 1584 2836 1778 
Q 2625 1972 2144 2069 
L 1759 2144 
Q 1053 2284 737 2584 
Q 422 2884 422 3419 
Q 422 4038 858 4394 
Q 1294 4750 2059 4750 
Q 2388 4750 2728 4690 
Q 3069 4631 3425 4513 
z
" transform="scale(0.015625)"/>
       <path id="DejaVuSans-51" d="M 2522 4238 
Q 1834 4238 1429 3725 
Q 1025 3213 1025 2328 
Q 1025 1447 1429 934 
Q 1834 422 2522 422 
Q 3209 422 3611 934 
Q 4013 1447 4013 2328 
Q 4013 3213 3611 3725 
Q 3209 4238 2522 4238 
z
M 3406 84 
L 4238 -825 
L 3475 -825 
L 2784 -78 
Q 2681 -84 2626 -87 
Q 2572 -91 2522 -91 
Q 1538 -91 948 567 
Q 359 1225 359 2328 
Q 359 3434 948 4092 
Q 1538 4750 2522 4750 
Q 3503 4750 4090 4092 
Q 4678 3434 4678 2328 
Q 4678 1516 4351 937 
Q 4025 359 3406 84 
z
" transform="scale(0.015625)"/>
       <path id="DejaVuSans-4c" d="M 628 4666 
L 1259 4666 
L 1259 531 
L 3531 531 
L 3531 0 
L 628 0 
L 628 4666 
z
" transform="scale(0.015625)"/>
       <path id="DejaVuSans-3d" d="M 678 2906 
L 4684 2906 
L 4684 2381 
L 678 2381 
L 678 2906 
z
M 678 1631 
L 4684 1631 
L 4684 1100 
L 678 1100 
L 678 1631 
z
" transform="scale(0.015625)"/>
       <path id="DejaVuSans-37" d="M 525 4666 
L 3525 4666 
L 3525 4397 
L 1831 0 
L 1172 0 
L 2766 4134 
L 525 4134 
L 525 4666 
z
" transform="scale(0.015625)"/>
      </defs>
      <use xlink:href="#DejaVuSans-53"/>
      <use xlink:href="#DejaVuSans-51" transform="translate(63.476562 0)"/>
      <use xlink:href="#DejaVuSans-4c" transform="translate(142.1875 0)"/>
      <use xlink:href="#DejaVuSans-20" transform="translate(197.900391 0)"/>
      <use xlink:href="#DejaVuSans-3d" transform="translate(229.6875 0)"/>
      <use xlink:href="#DejaVuSans-20" transform="translate(313.476562 0)"/>
      <use xlink:href="#DejaVuSans-30" transform="translate(345.263672 0)"/>
      <use xlink:href="#DejaVuSans-2e" transform="translate(408.886719 0)"/>
      <use xlink:href="#DejaVuSans-30" transform="translate(440.673828 0)"/>
      <use xlink:href="#DejaVuSans-37" transform="translate(504.296875 0)"/>
      <use xlink:href="#DejaVuSans-30" transform="translate(567.919922 0)"/>
      <use xlink:href="#DejaVuSans-37" transform="translate(631.542969 0)"/>
     </g>
    </g>
    <g id="line2d_16">
     <path d="M 387.425156 129.876094 
L 396.425156 129.876094 
L 405.425156 129.876094 
" style="fill: none; stroke: #4c72b0; stroke-width: 1.8; stroke-linecap: round"/>
     <g>
      <use xlink:href="#m7ad0044e43" x="396.425156" y="129.876094" style="fill: #4c72b0; stroke: #4c72b0; stroke-linejoin: miter"/>
     </g>
    </g>
    <g id="text_9">
     <!-- Fixed drive (2026-05-18) -->
     <g style="fill: #262626" transform="translate(412.625156 133.026094) scale(0.09 -0.09)">
      <defs>
       <path id="DejaVuSans-46" d="M 628 4666 
L 3309 4666 
L 3309 4134 
L 1259 4134 
L 1259 2759 
L 3109 2759 
L 3109 2228 
L 1259 2228 
L 1259 0 
L 628 0 
L 628 4666 
z
" transform="scale(0.015625)"/>
       <path id="DejaVuSans-28" d="M 1984 4856 
Q 1566 4138 1362 3434 
Q 1159 2731 1159 2009 
Q 1159 1288 1364 580 
Q 1569 -128 1984 -844 
L 1484 -844 
Q 1016 -109 783 600 
Q 550 1309 550 2009 
Q 550 2706 781 3412 
Q 1013 4119 1484 4856 
L 1984 4856 
z
" transform="scale(0.015625)"/>
       <path id="DejaVuSans-35" d="M 691 4666 
L 3169 4666 
L 3169 4134 
L 1269 4134 
L 1269 2991 
Q 1406 3038 1543 3061 
Q 1681 3084 1819 3084 
Q 2600 3084 3056 2656 
Q 3513 2228 3513 1497 
Q 3513 744 3044 326 
Q 2575 -91 1722 -91 
Q 1428 -91 1123 -41 
Q 819 9 494 109 
L 494 744 
Q 775 591 1075 516 
Q 1375 441 1709 441 
Q 2250 441 2565 725 
Q 2881 1009 2881 1497 
Q 2881 1984 2565 2268 
Q 2250 2553 1709 2553 
Q 1456 2553 1204 2497 
Q 953 2441 691 2322 
L 691 4666 
z
" transform="scale(0.015625)"/>
       <path id="DejaVuSans-29" d="M 513 4856 
L 1013 4856 
Q 1481 4119 1714 3412 
Q 1947 2706 1947 2009 
Q 1947 1309 1714 600 
Q 1481 -109 1013 -844 
L 513 -844 
Q 928 -128 1133 580 
Q 1338 1288 1338 2009 
Q 1338 2731 1133 3434 
Q 928 4138 513 4856 
z
" transform="scale(0.015625)"/>
      </defs>
      <use xlink:href="#DejaVuSans-46"/>
      <use xlink:href="#DejaVuSans-69" transform="translate(50.269531 0)"/>
      <use xlink:href="#DejaVuSans-78" transform="translate(78.052734 0)"/>
      <use xlink:href="#DejaVuSans-65" transform="translate(134.107422 0)"/>
      <use xlink:href="#DejaVuSans-64" transform="translate(195.630859 0)"/>
      <use xlink:href="#DejaVuSans-20" transform="translate(259.107422 0)"/>
      <use xlink:href="#DejaVuSans-64" transform="translate(290.894531 0)"/>
      <use xlink:href="#DejaVuSans-72" transform="translate(354.371094 0)"/>
      <use xlink:href="#DejaVuSans-69" transform="translate(395.484375 0)"/>
      <use xlink:href="#DejaVuSans-76" transform="translate(423.267578 0)"/>
      <use xlink:href="#DejaVuSans-65" transform="translate(482.447266 0)"/>
      <use xlink:href="#DejaVuSans-20" transform="translate(543.970703 0)"/>
      <use xlink:href="#DejaVuSans-28" transform="translate(575.757812 0)"/>
      <use xlink:href="#DejaVuSans-32" transform="translate(614.771484 0)"/>
      <use xlink:href="#DejaVuSans-30" transform="translate(678.394531 0)"/>
      <use xlink:href="#DejaVuSans-32" transform="translate(742.017578 0)"/>
      <use xlink:href="#DejaVuSans-36" transform="translate(805.640625 0)"/>
      <use xlink:href="#DejaVuSans-2d" transform="translate(869.263672 0)"/>
      <use xlink:href="#DejaVuSans-30" transform="translate(905.347656 0)"/>
      <use xlink:href="#DejaVuSans-35" transform="translate(968.970703 0)"/>
      <use xlink:href="#DejaVuSans-2d" transform="translate(1032.59375 0)"/>
      <use xlink:href="#DejaVuSans-31" transform="translate(1068.677734 0)"/>
      <use xlink:href="#DejaVuSans-38" transform="translate(1132.300781 0)"/>
      <use xlink:href="#DejaVuSans-29" transform="translate(1195.923828 0)"/>
     </g>
    </g>
    <g id="line2d_17">
     <path d="M 387.425156 143.086406 
L 396.425156 143.086406 
L 405.425156 143.086406 
" style="fill: none; stroke: #c44e52; stroke-width: 1.8; stroke-linecap: round"/>
     <g>
      <use xlink:href="#mf9c8dc3760" x="396.425156" y="143.086406" style="fill: #c44e52; stroke: #c44e52"/>
     </g>
    </g>
    <g id="text_10">
     <!-- Modulated drive (2026-05-19) -->
     <g style="fill: #262626" transform="translate(412.625156 146.236406) scale(0.09 -0.09)">
      <defs>
       <path id="DejaVuSans-4d" d="M 628 4666 
L 1569 4666 
L 2759 1491 
L 3956 4666 
L 4897 4666 
L 4897 0 
L 4281 0 
L 4281 4097 
L 3078 897 
L 2444 897 
L 1241 4097 
L 1241 0 
L 628 0 
L 628 4666 
z
" transform="scale(0.015625)"/>
       <path id="DejaVuSans-39" d="M 703 97 
L 703 672 
Q 941 559 1184 500 
Q 1428 441 1663 441 
Q 2288 441 2617 861 
Q 2947 1281 2994 2138 
Q 2813 1869 2534 1725 
Q 2256 1581 1919 1581 
Q 1219 1581 811 2004 
Q 403 2428 403 3163 
Q 403 3881 828 4315 
Q 1253 4750 1959 4750 
Q 2769 4750 3195 4129 
Q 3622 3509 3622 2328 
Q 3622 1225 3098 567 
Q 2575 -91 1691 -91 
Q 1453 -91 1209 -44 
Q 966 3 703 97 
z
M 1959 2075 
Q 2384 2075 2632 2365 
Q 2881 2656 2881 3163 
Q 2881 3666 2632 3958 
Q 2384 4250 1959 4250 
Q 1534 4250 1286 3958 
Q 1038 3666 1038 3163 
Q 1038 2656 1286 2365 
Q 1534 2075 1959 2075 
z
" transform="scale(0.015625)"/>
      </defs>
      <use xlink:href="#DejaVuSans-4d"/>
      <use xlink:href="#DejaVuSans-6f" transform="translate(86.279297 0)"/>
      <use xlink:href="#DejaVuSans-64" transform="translate(147.460938 0)"/>
      <use xlink:href="#DejaVuSans-75" transform="translate(210.9375 0)"/>
      <use xlink:href="#DejaVuSans-6c" transform="translate(274.316406 0)"/>
      <use xlink:href="#DejaVuSans-61" transform="translate(302.099609 0)"/>
      <use xlink:href="#DejaVuSans-74" transform="translate(363.378906 0)"/>
      <use xlink:href="#DejaVuSans-65" transform="translate(402.587891 0)"/>
      <use xlink:href="#DejaVuSans-64" transform="translate(464.111328 0)"/>
      <use xlink:href="#DejaVuSans-20" transform="translate(527.587891 0)"/>
      <use xlink:href="#DejaVuSans-64" transform="translate(559.375 0)"/>
      <use xlink:href="#DejaVuSans-72" transform="translate(622.851562 0)"/>
      <use xlink:href="#DejaVuSans-69" transform="translate(663.964844 0)"/>
      <use xlink:href="#DejaVuSans-76" transform="translate(691.748047 0)"/>
      <use xlink:href="#DejaVuSans-65" transform="translate(750.927734 0)"/>
      <use xlink:href="#DejaVuSans-20" transform="translate(812.451172 0)"/>
      <use xlink:href="#DejaVuSans-28" transform="translate(844.238281 0)"/>
      <use xlink:href="#DejaVuSans-32" transform="translate(883.251953 0)"/>
      <use xlink:href="#DejaVuSans-30" transform="translate(946.875 0)"/>
      <use xlink:href="#DejaVuSans-32" transform="translate(1010.498047 0)"/>
      <use xlink:href="#DejaVuSans-36" transform="translate(1074.121094 0)"/>
      <use xlink:href="#DejaVuSans-2d" transform="translate(1137.744141 0)"/>
      <use xlink:href="#DejaVuSans-30" transform="translate(1173.828125 0)"/>
      <use xlink:href="#DejaVuSans-35" transform="translate(1237.451172 0)"/>
      <use xlink:href="#DejaVuSans-2d" transform="translate(1301.074219 0)"/>
      <use xlink:href="#DejaVuSans-31" transform="translate(1337.158203 0)"/>
      <use xlink:href="#DejaVuSans-39" transform="translate(1400.78125 0)"/>
      <use xlink:href="#DejaVuSans-29" transform="translate(1464.404297 0)"/>
     </g>
    </g>
   </g>
  </g>
  <g id="axes_2">
   <g id="patch_8">
    <path d="M 56.805937 303.058125 
L 556.035937 303.058125 
L 556.035937 169.168125 
L 56.805937 169.168125 
z
" style="fill: #ffffff"/>
   </g>
   <g id="matplotlib.axis_3">
    <g id="xtick_7">
     <g id="line2d_18">
      <path d="M 78.5887 303.058125 
L 78.5887 169.168125 
" clip-path="url(#p744987524a)" style="fill: none; stroke: #cccccc; stroke-linecap: round"/>
     </g>
     <g id="text_11">
      <!-- 0 -->
      <g style="fill: #262626" transform="translate(75.089325 320.916406) scale(0.11 -0.11)">
       <use xlink:href="#DejaVuSans-30"/>
      </g>
     </g>
    </g>
    <g id="xtick_8">
     <g id="line2d_19">
      <path d="M 169.539693 303.058125 
L 169.539693 169.168125 
" clip-path="url(#p744987524a)" style="fill: none; stroke: #cccccc; stroke-linecap: round"/>
     </g>
     <g id="text_12">
      <!-- 1 -->
      <g style="fill: #262626" transform="translate(166.040318 320.916406) scale(0.11 -0.11)">
       <use xlink:href="#DejaVuSans-31"/>
      </g>
     </g>
    </g>
    <g id="xtick_9">
     <g id="line2d_20">
      <path d="M 260.490686 303.058125 
L 260.490686 169.168125 
" clip-path="url(#p744987524a)" style="fill: none; stroke: #cccccc; stroke-linecap: round"/>
     </g>
     <g id="text_13">
      <!-- 2 -->
      <g style="fill: #262626" transform="translate(256.991311 320.916406) scale(0.11 -0.11)">
       <use xlink:href="#DejaVuSans-32"/>
      </g>
     </g>
    </g>
    <g id="xtick_10">
     <g id="line2d_21">
      <path d="M 351.441679 303.058125 
L 351.441679 169.168125 
" clip-path="url(#p744987524a)" style="fill: none; stroke: #cccccc; stroke-linecap: round"/>
     </g>
     <g id="text_14">
      <!-- 3 -->
      <g style="fill: #262626" transform="translate(347.942304 320.916406) scale(0.11 -0.11)">
       <defs>
        <path id="DejaVuSans-33" d="M 2597 2516 
Q 3050 2419 3304 2112 
Q 3559 1806 3559 1356 
Q 3559 666 3084 287 
Q 2609 -91 1734 -91 
Q 1441 -91 1130 -33 
Q 819 25 488 141 
L 488 750 
Q 750 597 1062 519 
Q 1375 441 1716 441 
Q 2309 441 2620 675 
Q 2931 909 2931 1356 
Q 2931 1769 2642 2001 
Q 2353 2234 1838 2234 
L 1294 2234 
L 1294 2753 
L 1863 2753 
Q 2328 2753 2575 2939 
Q 2822 3125 2822 3475 
Q 2822 3834 2567 4026 
Q 2313 4219 1838 4219 
Q 1578 4219 1281 4162 
Q 984 4106 628 3988 
L 628 4550 
Q 988 4650 1302 4700 
Q 1616 4750 1894 4750 
Q 2613 4750 3031 4423 
Q 3450 4097 3450 3541 
Q 3450 3153 3228 2886 
Q 3006 2619 2597 2516 
z
" transform="scale(0.015625)"/>
       </defs>
       <use xlink:href="#DejaVuSans-33"/>
      </g>
     </g>
    </g>
    <g id="xtick_11">
     <g id="line2d_22">
      <path d="M 442.392672 303.058125 
L 442.392672 169.168125 
" clip-path="url(#p744987524a)" style="fill: none; stroke: #cccccc; stroke-linecap: round"/>
     </g>
     <g id="text_15">
      <!-- 4 -->
      <g style="fill: #262626" transform="translate(438.893297 320.916406) scale(0.11 -0.11)">
       <use xlink:href="#DejaVuSans-34"/>
      </g>
     </g>
    </g>
    <g id="xtick_12">
     <g id="line2d_23">
      <path d="M 533.343665 303.058125 
L 533.343665 169.168125 
" clip-path="url(#p744987524a)" style="fill: none; stroke: #cccccc; stroke-linecap: round"/>
     </g>
     <g id="text_16">
      <!-- 5 -->
      <g style="fill: #262626" transform="translate(529.84429 320.916406) scale(0.11 -0.11)">
       <use xlink:href="#DejaVuSans-35"/>
      </g>
     </g>
    </g>
    <g id="text_17">
     <!-- $\omega$ -->
     <g style="fill: #262626" transform="translate(301.380937 336.322187) scale(0.12 -0.12)">
      <use xlink:href="#DejaVuSans-Oblique-3c9" transform="translate(0 0.3125)"/>
     </g>
    </g>
   </g>
   <g id="matplotlib.axis_4">
    <g id="ytick_6">
     <g id="line2d_24">
      <path d="M 56.805937 293.123071 
L 556.035937 293.123071 
" clip-path="url(#p744987524a)" style="fill: none; stroke: #cccccc; stroke-linecap: round"/>
     </g>
     <g id="text_18">
      <!-- 0.2 -->
      <g style="fill: #262626" transform="translate(29.8125 297.302212) scale(0.11 -0.11)">
       <use xlink:href="#DejaVuSans-30"/>
       <use xlink:href="#DejaVuSans-2e" transform="translate(63.623047 0)"/>
       <use xlink:href="#DejaVuSans-32" transform="translate(95.410156 0)"/>
      </g>
     </g>
    </g>
    <g id="ytick_7">
     <g id="line2d_25">
      <path d="M 56.805937 263.655812 
L 556.035937 263.655812 
" clip-path="url(#p744987524a)" style="fill: none; stroke: #cccccc; stroke-linecap: round"/>
     </g>
     <g id="text_19">
      <!-- 0.4 -->
      <g style="fill: #262626" transform="translate(29.8125 267.834953) scale(0.11 -0.11)">
       <use xlink:href="#DejaVuSans-30"/>
       <use xlink:href="#DejaVuSans-2e" transform="translate(63.623047 0)"/>
       <use xlink:href="#DejaVuSans-34" transform="translate(95.410156 0)"/>
      </g>
     </g>
    </g>
    <g id="ytick_8">
     <g id="line2d_26">
      <path d="M 56.805937 234.188553 
L 556.035937 234.188553 
" clip-path="url(#p744987524a)" style="fill: none; stroke: #cccccc; stroke-linecap: round"/>
     </g>
     <g id="text_20">
      <!-- 0.6 -->
      <g style="fill: #262626" transform="translate(29.8125 238.367693) scale(0.11 -0.11)">
       <use xlink:href="#DejaVuSans-30"/>
       <use xlink:href="#DejaVuSans-2e" transform="translate(63.623047 0)"/>
       <use xlink:href="#DejaVuSans-36" transform="translate(95.410156 0)"/>
      </g>
     </g>
    </g>
    <g id="ytick_9">
     <g id="line2d_27">
      <path d="M 56.805937 204.721293 
L 556.035937 204.721293 
" clip-path="url(#p744987524a)" style="fill: none; stroke: #cccccc; stroke-linecap: round"/>
     </g>
     <g id="text_21">
      <!-- 0.8 -->
      <g style="fill: #262626" transform="translate(29.8125 208.900434) scale(0.11 -0.11)">
       <use xlink:href="#DejaVuSans-30"/>
       <use xlink:href="#DejaVuSans-2e" transform="translate(63.623047 0)"/>
       <use xlink:href="#DejaVuSans-38" transform="translate(95.410156 0)"/>
      </g>
     </g>
    </g>
    <g id="ytick_10">
     <g id="line2d_28">
      <path d="M 56.805937 175.254034 
L 556.035937 175.254034 
" clip-path="url(#p744987524a)" style="fill: none; stroke: #cccccc; stroke-linecap: round"/>
     </g>
     <g id="text_22">
      <!-- 1.0 -->
      <g style="fill: #262626" transform="translate(29.8125 179.433175) scale(0.11 -0.11)">
       <use xlink:href="#DejaVuSans-31"/>
       <use xlink:href="#DejaVuSans-2e" transform="translate(63.623047 0)"/>
       <use xlink:href="#DejaVuSans-30" transform="translate(95.410156 0)"/>
      </g>
     </g>
    </g>
    <g id="text_23">
     <!-- $\Delta\omega_{19} \;/\; \Delta\omega_{18}$ -->
     <g style="fill: #262626" transform="translate(23.316875 270.673125) rotate(-90) scale(0.12 -0.12)">
      <defs>
       <path id="DejaVuSans-2f" d="M 1625 4666 
L 2156 4666 
L 531 -594 
L 0 -594 
L 1625 4666 
z
" transform="scale(0.015625)"/>
      </defs>
      <use xlink:href="#DejaVuSans-394" transform="translate(0 0.09375)"/>
      <use xlink:href="#DejaVuSans-Oblique-3c9" transform="translate(68.408203 0.09375)"/>
      <use xlink:href="#DejaVuSans-31" transform="translate(152.148438 -16.3125) scale(0.7)"/>
      <use xlink:href="#DejaVuSans-39" transform="translate(196.68457 -16.3125) scale(0.7)"/>
      <use xlink:href="#DejaVuSans-2f" transform="translate(271.014214 0.09375)"/>
      <use xlink:href="#DejaVuSans-394" transform="translate(331.764756 0.09375)"/>
      <use xlink:href="#DejaVuSans-Oblique-3c9" transform="translate(400.172959 0.09375)"/>
      <use xlink:href="#DejaVuSans-31" transform="translate(483.913193 -16.3125) scale(0.7)"/>
      <use xlink:href="#DejaVuSans-38" transform="translate(528.449326 -16.3125) scale(0.7)"/>
     </g>
    </g>
   </g>
   <g id="line2d_29">
    <path d="M 79.49821 292.576217 
L 80.40772 293.76401 
L 81.31723 294.343179 
L 82.22674 294.25162 
L 83.13625 296.078759 
L 84.04576 296.972216 
L 84.95527 295.451562 
L 86.77429 293.546647 
L 87.6838 291.771058 
L 89.502819 292.912053 
L 90.412329 293.145226 
L 91.321839 293.131478 
L 92.231349 294.3284 
L 93.140859 294.703332 
L 94.050369 294.245319 
L 94.959879 293.569325 
L 95.869389 292.75345 
L 96.778899 292.593337 
L 97.688409 293.137032 
L 98.597919 294.035368 
L 99.507429 294.238184 
L 101.326449 294.172778 
L 102.235958 293.989707 
L 103.145468 293.605656 
L 104.054978 293.01472 
L 106.783508 290.660122 
L 107.693018 289.734874 
L 109.512038 292.044211 
L 110.421548 289.342935 
L 111.331058 288.966784 
L 112.240568 286.232914 
L 113.150078 288.175691 
L 114.059588 287.456781 
L 114.969097 288.81239 
L 115.878607 288.141843 
L 116.788117 289.93757 
L 117.697627 289.308298 
L 118.607137 288.35128 
L 119.516647 285.562217 
L 120.426157 289.300788 
L 124.064197 287.250277 
L 124.973707 287.81116 
L 125.883217 287.959451 
L 126.792727 288.532447 
L 127.702236 286.969874 
L 128.611746 286.005516 
L 129.521256 287.177265 
L 130.430766 285.500486 
L 131.340276 284.982625 
L 132.249786 285.755628 
L 133.159296 285.674905 
L 134.068806 284.956672 
L 134.978316 285.814425 
L 135.887826 284.302572 
L 136.797336 284.642972 
L 137.706846 284.837964 
L 138.616356 284.049283 
L 139.525866 283.613036 
L 140.435375 282.097544 
L 141.344885 282.744481 
L 142.254395 281.235455 
L 143.163905 283.190922 
L 144.073415 281.815268 
L 144.982925 282.422559 
L 145.892435 281.964121 
L 146.801945 281.883525 
L 148.620965 281.010977 
L 149.530475 280.36428 
L 150.439985 280.199226 
L 152.259005 279.548342 
L 153.168514 280.329419 
L 154.078024 279.553192 
L 154.987534 278.502369 
L 155.897044 278.169864 
L 156.806554 278.463523 
L 157.716064 277.998089 
L 158.625574 278.39707 
L 159.535084 278.064663 
L 160.444594 278.801813 
L 161.354104 277.39601 
L 162.263614 278.76625 
L 163.173124 277.792242 
L 164.082634 276.389431 
L 164.992144 276.959177 
L 165.901653 276.796302 
L 166.811163 276.103467 
L 167.720673 275.041687 
L 168.630183 275.451648 
L 169.539693 275.488073 
L 170.449203 276.019555 
L 171.358713 275.698421 
L 172.268223 275.211347 
L 173.177733 273.896037 
L 174.087243 273.870626 
L 174.996753 273.167979 
L 176.815773 273.775868 
L 178.634792 273.073524 
L 179.544302 272.593266 
L 180.453812 272.568886 
L 181.363322 272.082263 
L 182.272832 273.168861 
L 183.182342 272.390661 
L 184.091852 271.394159 
L 185.001362 271.178804 
L 185.910872 271.571793 
L 186.820382 271.298829 
L 187.729892 270.352904 
L 188.639402 271.271567 
L 190.458422 269.647268 
L 191.367931 269.914332 
L 192.277441 269.667914 
L 193.186951 268.849091 
L 194.096461 270.149783 
L 195.005971 269.388214 
L 195.915481 269.537052 
L 196.824991 268.854895 
L 197.734501 268.615323 
L 198.644011 268.740362 
L 199.553521 268.055945 
L 200.463031 268.32398 
L 201.372541 268.434642 
L 202.282051 268.009494 
L 203.191561 266.450852 
L 205.01058 266.869327 
L 205.92009 266.941905 
L 206.8296 265.928669 
L 207.73911 266.424421 
L 208.64862 265.953285 
L 209.55813 265.960572 
L 210.46764 265.719709 
L 211.37715 265.168546 
L 212.28666 265.507271 
L 213.19617 265.340697 
L 214.10568 264.068789 
L 215.9247 263.617226 
L 216.834209 264.166936 
L 217.743719 263.942092 
L 218.653229 263.999437 
L 219.562739 262.743467 
L 220.472249 264.003385 
L 221.381759 262.257996 
L 222.291269 262.816926 
L 223.200779 262.740298 
L 224.110289 262.517364 
L 225.019799 261.693243 
L 225.929309 261.672653 
L 226.838819 262.447574 
L 227.748329 262.184245 
L 228.657839 262.235422 
L 229.567349 261.010335 
L 230.476858 261.805664 
L 231.386368 260.773938 
L 232.295878 261.040912 
L 233.205388 260.846141 
L 235.024408 259.931145 
L 235.933918 260.147379 
L 236.843428 260.523001 
L 237.752938 259.903722 
L 238.662448 259.545692 
L 239.571958 258.921813 
L 240.481468 258.690223 
L 241.390978 259.088439 
L 242.300488 257.212586 
L 243.209997 258.775252 
L 244.119507 258.902858 
L 245.029017 258.288711 
L 245.938527 257.819229 
L 246.848037 257.894544 
L 248.667057 257.504109 
L 249.576567 256.705714 
L 251.395587 256.925273 
L 252.305097 256.734153 
L 253.214607 256.822677 
L 254.124117 256.773121 
L 255.033627 256.560315 
L 255.943136 256.094577 
L 256.852646 255.791787 
L 257.762156 254.722848 
L 258.671666 255.773647 
L 259.581176 255.236756 
L 260.490686 255.636332 
L 261.400196 254.294699 
L 262.309706 255.272703 
L 263.219216 253.486733 
L 264.128726 254.556986 
L 265.038236 254.87326 
L 265.947746 254.391901 
L 267.766766 253.904581 
L 268.676275 253.618691 
L 270.495295 253.512678 
L 271.404805 253.643027 
L 273.223825 252.572527 
L 274.133335 252.889019 
L 275.042845 252.816597 
L 275.952355 252.008729 
L 276.861865 252.121149 
L 277.771375 251.475067 
L 278.680885 251.83116 
L 279.590395 251.811547 
L 281.409414 251.480171 
L 282.318924 251.577237 
L 283.228434 251.324194 
L 284.137944 251.311778 
L 285.047454 250.887325 
L 286.866474 250.432246 
L 287.775984 249.814405 
L 288.685494 250.37012 
L 289.595004 249.908095 
L 290.504514 250.490071 
L 291.414024 250.332387 
L 292.323534 249.272342 
L 293.233044 250.018995 
L 294.142553 248.440436 
L 295.052063 249.083348 
L 295.961573 249.210679 
L 296.871083 249.069978 
L 298.690103 249.001777 
L 299.599613 248.481805 
L 300.509123 248.378158 
L 301.418633 248.1552 
L 302.328143 248.708166 
L 303.237653 248.422524 
L 304.147163 247.954453 
L 305.056673 247.745869 
L 305.966183 247.726207 
L 306.875692 246.968404 
L 307.785202 247.28325 
L 311.423242 247.176683 
L 312.332752 246.681587 
L 314.151772 246.567234 
L 315.061282 246.042964 
L 315.970792 246.219744 
L 316.880302 245.851366 
L 317.789812 245.775573 
L 319.608831 245.432831 
L 320.518341 245.766849 
L 322.337361 245.245942 
L 323.246871 245.003666 
L 324.156381 244.295123 
L 325.065891 245.146406 
L 325.975401 244.596431 
L 326.884911 244.566015 
L 327.794421 244.890406 
L 328.703931 244.299236 
L 329.613441 244.583378 
L 330.522951 243.724173 
L 331.432461 243.796064 
L 332.34197 244.135515 
L 333.25148 243.811699 
L 334.16099 243.752774 
L 335.0705 243.011958 
L 335.98001 243.042668 
L 336.88952 242.753362 
L 337.79903 243.355656 
L 338.70854 243.03509 
L 339.61805 243.275907 
L 342.34658 242.446206 
L 343.25609 242.593263 
L 344.1656 242.103319 
L 345.075109 242.34291 
L 346.894129 242.036571 
L 347.803639 241.517741 
L 348.713149 241.847749 
L 349.622659 241.218153 
L 352.351189 241.497856 
L 353.260699 240.967109 
L 354.170209 240.815818 
L 355.989229 240.879035 
L 356.898739 240.488442 
L 357.808248 240.357567 
L 358.717758 240.090001 
L 359.627268 240.53761 
L 361.446288 239.709225 
L 362.355798 239.934625 
L 363.265308 239.268433 
L 364.174818 238.163089 
L 365.084328 239.707061 
L 365.993838 239.741733 
L 366.903348 239.477676 
L 367.812858 239.500736 
L 368.722368 239.300414 
L 369.631878 239.27367 
L 370.541387 238.727199 
L 371.450897 238.725036 
L 372.360407 238.51667 
L 374.179427 238.575848 
L 375.088937 238.62607 
L 375.998447 238.165353 
L 376.907957 237.960064 
L 377.817467 238.185202 
L 378.726977 238.199101 
L 379.636487 237.72746 
L 380.545997 237.539282 
L 384.184036 237.614714 
L 385.093546 237.07772 
L 386.912566 237.19399 
L 387.822076 236.834293 
L 388.731586 236.791426 
L 389.641096 237.007028 
L 390.550606 236.581965 
L 391.460116 236.288095 
L 392.369626 236.429553 
L 393.279136 236.051058 
L 395.098156 235.908538 
L 396.007666 236.112229 
L 398.736195 235.594731 
L 399.645705 235.846587 
L 400.555215 235.604744 
L 402.374235 234.85235 
L 403.283745 235.41463 
L 404.193255 235.20481 
L 405.102765 234.841996 
L 406.921785 235.076522 
L 407.831295 234.599256 
L 409.650314 234.256542 
L 410.559824 234.473041 
L 411.469334 234.530448 
L 412.378844 233.710387 
L 413.288354 234.420729 
L 414.197864 233.422423 
L 415.107374 234.17596 
L 416.016884 234.080552 
L 416.926394 233.837137 
L 419.654924 233.701991 
L 421.473944 233.038693 
L 422.383453 232.976613 
L 423.292963 233.480471 
L 424.202473 233.003471 
L 425.111983 233.170653 
L 426.021493 233.203048 
L 427.840513 232.336941 
L 428.750023 232.713627 
L 429.659533 232.586854 
L 430.569043 232.670532 
L 431.478553 232.024634 
L 432.388063 232.581543 
L 433.297573 232.142675 
L 434.207083 232.369588 
L 435.116592 232.047576 
L 436.935612 232.043627 
L 437.845122 231.817586 
L 438.754632 231.819086 
L 439.664142 231.273008 
L 440.573652 231.332713 
L 441.483162 231.050114 
L 442.392672 230.884381 
L 443.302182 231.430265 
L 444.211692 231.239185 
L 445.121202 231.348236 
L 446.030712 231.123726 
L 448.759241 230.892163 
L 449.668751 230.575258 
L 450.578261 230.608846 
L 452.397281 230.261922 
L 453.306791 230.445254 
L 454.216301 230.386321 
L 455.125811 230.023785 
L 456.035321 230.195057 
L 457.854341 230.029515 
L 458.763851 229.912802 
L 459.673361 230.053921 
L 460.58287 229.701891 
L 461.49238 229.613167 
L 462.40189 229.714443 
L 463.3114 229.660337 
L 464.22091 229.334582 
L 465.13042 229.40174 
L 466.03993 229.270025 
L 466.94944 228.884346 
L 467.85895 229.257714 
L 468.76846 229.265644 
L 469.67797 228.921536 
L 470.58748 228.810389 
L 471.49699 228.923465 
L 472.4065 228.78711 
L 473.316009 228.811772 
L 474.225519 228.379632 
L 476.044539 228.6142 
L 476.954049 228.262409 
L 477.863559 228.37624 
L 478.773069 228.034543 
L 479.682579 228.292982 
L 480.592089 227.765727 
L 482.411109 228.023573 
L 483.320619 227.510505 
L 484.230129 227.84006 
L 485.139639 227.574124 
L 486.049148 227.801231 
L 489.687188 226.986039 
L 490.596698 227.372906 
L 491.506208 227.27161 
L 492.415718 227.037256 
L 493.325228 227.056336 
L 494.234738 226.890056 
L 495.144248 226.976793 
L 496.053758 226.425958 
L 496.963268 226.696973 
L 498.782287 226.654235 
L 500.601307 226.431398 
L 502.420327 226.309808 
L 504.239347 226.223223 
L 505.148857 226.279954 
L 506.058367 226.063884 
L 507.877387 226.04122 
L 508.786897 225.950375 
L 509.696407 225.640458 
L 511.515426 225.675614 
L 512.424936 225.462816 
L 513.334446 225.536644 
L 515.153466 225.326766 
L 516.062976 225.32962 
L 516.972486 225.059211 
L 517.881996 225.256979 
L 519.701016 225.040366 
L 520.610526 224.584911 
L 521.520036 224.433851 
L 522.429546 224.736633 
L 523.339056 224.336069 
L 524.248565 224.702844 
L 525.158075 224.726186 
L 528.796115 224.385621 
L 529.705625 224.429399 
L 530.615135 224.253662 
L 532.434155 224.231931 
L 533.343665 224.085211 
L 533.343665 224.085211 
" clip-path="url(#p744987524a)" style="fill: none; stroke: #c44e52; stroke-width: 1.5; stroke-linecap: round"/>
    <defs>
     <path id="mb1b3ca23a5" d="M 0 2 
C 0.530406 2 1.03916 1.789267 1.414214 1.414214 
C 1.789267 1.03916 2 0.530406 2 0 
C 2 -0.530406 1.789267 -1.03916 1.414214 -1.414214 
C 1.03916 -1.789267 0.530406 -2 0 -2 
C -0.530406 -2 -1.03916 -1.789267 -1.414214 -1.414214 
C -1.789267 -1.03916 -2 -0.530406 -2 0 
C -2 0.530406 -1.789267 1.03916 -1.414214 1.414214 
C -1.03916 1.789267 -0.530406 2 0 2 
z
" style="stroke: #c44e52"/>
    </defs>
    <g clip-path="url(#p744987524a)">
     <use xlink:href="#mb1b3ca23a5" x="79.49821" y="292.576217" style="fill: #c44e52; stroke: #c44e52"/>
     <use xlink:href="#mb1b3ca23a5" x="94.050369" y="294.245319" style="fill: #c44e52; stroke: #c44e52"/>
     <use xlink:href="#mb1b3ca23a5" x="108.602528" y="290.870591" style="fill: #c44e52; stroke: #c44e52"/>
     <use xlink:href="#mb1b3ca23a5" x="123.154687" y="287.751453" style="fill: #c44e52; stroke: #c44e52"/>
     <use xlink:href="#mb1b3ca23a5" x="137.706846" y="284.837964" style="fill: #c44e52; stroke: #c44e52"/>
     <use xlink:href="#mb1b3ca23a5" x="152.259005" y="279.548342" style="fill: #c44e52; stroke: #c44e52"/>
     <use xlink:href="#mb1b3ca23a5" x="166.811163" y="276.103467" style="fill: #c44e52; stroke: #c44e52"/>
     <use xlink:href="#mb1b3ca23a5" x="181.363322" y="272.082263" style="fill: #c44e52; stroke: #c44e52"/>
     <use xlink:href="#mb1b3ca23a5" x="195.915481" y="269.537052" style="fill: #c44e52; stroke: #c44e52"/>
     <use xlink:href="#mb1b3ca23a5" x="210.46764" y="265.719709" style="fill: #c44e52; stroke: #c44e52"/>
     <use xlink:href="#mb1b3ca23a5" x="225.019799" y="261.693243" style="fill: #c44e52; stroke: #c44e52"/>
     <use xlink:href="#mb1b3ca23a5" x="239.571958" y="258.921813" style="fill: #c44e52; stroke: #c44e52"/>
     <use xlink:href="#mb1b3ca23a5" x="254.124117" y="256.773121" style="fill: #c44e52; stroke: #c44e52"/>
     <use xlink:href="#mb1b3ca23a5" x="268.676275" y="253.618691" style="fill: #c44e52; stroke: #c44e52"/>
     <use xlink:href="#mb1b3ca23a5" x="283.228434" y="251.324194" style="fill: #c44e52; stroke: #c44e52"/>
     <use xlink:href="#mb1b3ca23a5" x="297.780593" y="249.048561" style="fill: #c44e52; stroke: #c44e52"/>
     <use xlink:href="#mb1b3ca23a5" x="312.332752" y="246.681587" style="fill: #c44e52; stroke: #c44e52"/>
     <use xlink:href="#mb1b3ca23a5" x="326.884911" y="244.566015" style="fill: #c44e52; stroke: #c44e52"/>
     <use xlink:href="#mb1b3ca23a5" x="341.43707" y="242.557279" style="fill: #c44e52; stroke: #c44e52"/>
     <use xlink:href="#mb1b3ca23a5" x="355.989229" y="240.879035" style="fill: #c44e52; stroke: #c44e52"/>
     <use xlink:href="#mb1b3ca23a5" x="370.541387" y="238.727199" style="fill: #c44e52; stroke: #c44e52"/>
     <use xlink:href="#mb1b3ca23a5" x="385.093546" y="237.07772" style="fill: #c44e52; stroke: #c44e52"/>
     <use xlink:href="#mb1b3ca23a5" x="399.645705" y="235.846587" style="fill: #c44e52; stroke: #c44e52"/>
     <use xlink:href="#mb1b3ca23a5" x="414.197864" y="233.422423" style="fill: #c44e52; stroke: #c44e52"/>
     <use xlink:href="#mb1b3ca23a5" x="428.750023" y="232.713627" style="fill: #c44e52; stroke: #c44e52"/>
     <use xlink:href="#mb1b3ca23a5" x="443.302182" y="231.430265" style="fill: #c44e52; stroke: #c44e52"/>
     <use xlink:href="#mb1b3ca23a5" x="457.854341" y="230.029515" style="fill: #c44e52; stroke: #c44e52"/>
     <use xlink:href="#mb1b3ca23a5" x="472.4065" y="228.78711" style="fill: #c44e52; stroke: #c44e52"/>
     <use xlink:href="#mb1b3ca23a5" x="486.958658" y="227.577141" style="fill: #c44e52; stroke: #c44e52"/>
     <use xlink:href="#mb1b3ca23a5" x="501.510817" y="226.420489" style="fill: #c44e52; stroke: #c44e52"/>
     <use xlink:href="#mb1b3ca23a5" x="516.062976" y="225.32962" style="fill: #c44e52; stroke: #c44e52"/>
     <use xlink:href="#mb1b3ca23a5" x="530.615135" y="224.253662" style="fill: #c44e52; stroke: #c44e52"/>
    </g>
   </g>
   <g id="line2d_30">
    <path d="M 56.805937 175.254034 
L 556.035937 175.254034 
" clip-path="url(#p744987524a)" style="fill: none; stroke-dasharray: 4.44,1.92; stroke-dashoffset: 0; stroke: #808080; stroke-opacity: 0.7; stroke-width: 1.2"/>
   </g>
   <g id="patch_9">
    <path d="M 56.805937 303.058125 
L 56.805937 169.168125 
" style="fill: none; stroke: #cccccc; stroke-width: 1.25; stroke-linejoin: miter; stroke-linecap: square"/>
   </g>
   <g id="patch_10">
    <path d="M 556.035937 303.058125 
L 556.035937 169.168125 
" style="fill: none; stroke: #cccccc; stroke-width: 1.25; stroke-linejoin: miter; stroke-linecap: square"/>
   </g>
   <g id="patch_11">
    <path d="M 56.805937 303.058125 
L 556.035937 303.058125 
" style="fill: none; stroke: #cccccc; stroke-width: 1.25; stroke-linejoin: miter; stroke-linecap: square"/>
   </g>
   <g id="patch_12">
    <path d="M 56.805937 169.168125 
L 556.035937 169.168125 
" style="fill: none; stroke: #cccccc; stroke-width: 1.25; stroke-linejoin: miter; stroke-linecap: square"/>
   </g>
   <g id="patch_13">
    <path d="M 161.351397 280.85924 
Q 123.677638 288.711661 87.317294 296.290323 
" style="fill: none; stroke: #000000; stroke-width: 1.2; stroke-linecap: round"/>
    <path d="M 91.641232 297.432058 
L 87.317294 296.290323 
L 90.825045 293.516213 
" style="fill: none; stroke: #000000; stroke-width: 1.2; stroke-linecap: round"/>
   </g>
   <g id="text_24">
    <g id="patch_14">
     <path d="M 138.616356 279.951459 
L 268.016356 279.951459 
Q 271.016356 279.951459 271.016356 276.951459 
L 271.016356 267.273334 
Q 271.016356 264.273334 268.016356 264.273334 
L 138.616356 264.273334 
Q 135.616356 264.273334 135.616356 267.273334 
L 135.616356 276.951459 
Q 135.616356 279.951459 138.616356 279.951459 
z
" style="fill: #ffffff; stroke: #808080; stroke-linejoin: miter"/>
    </g>
    <!-- Best = 0.174$\times$ at $\omega$=0.06 -->
    <g style="fill: #262626" transform="translate(138.616356 274.871771) scale(0.1 -0.1)">
     <defs>
      <path id="DejaVuSans-42" d="M 1259 2228 
L 1259 519 
L 2272 519 
Q 2781 519 3026 730 
Q 3272 941 3272 1375 
Q 3272 1813 3026 2020 
Q 2781 2228 2272 2228 
L 1259 2228 
z
M 1259 4147 
L 1259 2741 
L 2194 2741 
Q 2656 2741 2882 2914 
Q 3109 3088 3109 3444 
Q 3109 3797 2882 3972 
Q 2656 4147 2194 4147 
L 1259 4147 
z
M 628 4666 
L 2241 4666 
Q 2963 4666 3353 4366 
Q 3744 4066 3744 3513 
Q 3744 3084 3544 2831 
Q 3344 2578 2956 2516 
Q 3422 2416 3680 2098 
Q 3938 1781 3938 1306 
Q 3938 681 3513 340 
Q 3088 0 2303 0 
L 628 0 
L 628 4666 
z
" transform="scale(0.015625)"/>
      <path id="DejaVuSans-d7" d="M 4488 3438 
L 3059 2003 
L 4488 575 
L 4116 197 
L 2681 1631 
L 1247 197 
L 878 575 
L 2303 2003 
L 878 3438 
L 1247 3816 
L 2681 2381 
L 4116 3816 
L 4488 3438 
z
" transform="scale(0.015625)"/>
     </defs>
     <use xlink:href="#DejaVuSans-42" transform="translate(0 0.78125)"/>
     <use xlink:href="#DejaVuSans-65" transform="translate(68.603516 0.78125)"/>
     <use xlink:href="#DejaVuSans-73" transform="translate(130.126953 0.78125)"/>
     <use xlink:href="#DejaVuSans-74" transform="translate(182.226562 0.78125)"/>
     <use xlink:href="#DejaVuSans-20" transform="translate(221.435547 0.78125)"/>
     <use xlink:href="#DejaVuSans-3d" transform="translate(253.222656 0.78125)"/>
     <use xlink:href="#DejaVuSans-20" transform="translate(337.011719 0.78125)"/>
     <use xlink:href="#DejaVuSans-30" transform="translate(368.798828 0.78125)"/>
     <use xlink:href="#DejaVuSans-2e" transform="translate(432.421875 0.78125)"/>
     <use xlink:href="#DejaVuSans-31" transform="translate(464.208984 0.78125)"/>
     <use xlink:href="#DejaVuSans-37" transform="translate(527.832031 0.78125)"/>
     <use xlink:href="#DejaVuSans-34" transform="translate(591.455078 0.78125)"/>
     <use xlink:href="#DejaVuSans-d7" transform="translate(655.078125 0.78125)"/>
     <use xlink:href="#DejaVuSans-20" transform="translate(738.867188 0.78125)"/>
     <use xlink:href="#DejaVuSans-61" transform="translate(770.654297 0.78125)"/>
     <use xlink:href="#DejaVuSans-74" transform="translate(831.933594 0.78125)"/>
     <use xlink:href="#DejaVuSans-20" transform="translate(871.142578 0.78125)"/>
     <use xlink:href="#DejaVuSans-Oblique-3c9" transform="translate(902.929688 0.78125)"/>
     <use xlink:href="#DejaVuSans-3d" transform="translate(986.669922 0.78125)"/>
     <use xlink:href="#DejaVuSans-30" transform="translate(1070.458984 0.78125)"/>
     <use xlink:href="#DejaVuSans-2e" transform="translate(1134.082031 0.78125)"/>
     <use xlink:href="#DejaVuSans-30" transform="translate(1165.869141 0.78125)"/>
     <use xlink:href="#DejaVuSans-36" transform="translate(1229.492188 0.78125)"/>
    </g>
   </g>
   <g id="legend_2">
    <g id="patch_15">
     <path d="M 496.620469 298.558125 
L 549.735937 298.558125 
Q 551.535937 298.558125 551.535937 296.758125 
L 551.535937 284.447812 
Q 551.535937 282.647812 549.735937 282.647812 
L 496.620469 282.647812 
Q 494.820469 282.647812 494.820469 284.447812 
L 494.820469 296.758125 
Q 494.820469 298.558125 496.620469 298.558125 
z
" style="fill: #ffffff; opacity: 0.8; stroke: #cccccc; stroke-linejoin: miter"/>
    </g>
    <g id="line2d_31">
     <path d="M 498.420469 289.936406 
L 507.420469 289.936406 
L 516.420469 289.936406 
" style="fill: none; stroke-dasharray: 4.44,1.92; stroke-dashoffset: 0; stroke: #808080; stroke-opacity: 0.7; stroke-width: 1.2"/>
    </g>
    <g id="text_25">
     <!-- y = 1 -->
     <g style="fill: #262626" transform="translate(523.620469 293.086406) scale(0.09 -0.09)">
      <defs>
       <path id="DejaVuSans-79" d="M 2059 -325 
Q 1816 -950 1584 -1140 
Q 1353 -1331 966 -1331 
L 506 -1331 
L 506 -850 
L 844 -850 
Q 1081 -850 1212 -737 
Q 1344 -625 1503 -206 
L 1606 56 
L 191 3500 
L 800 3500 
L 1894 763 
L 2988 3500 
L 3597 3500 
L 2059 -325 
z
" transform="scale(0.015625)"/>
      </defs>
      <use xlink:href="#DejaVuSans-79"/>
      <use xlink:href="#DejaVuSans-20" transform="translate(59.179688 0)"/>
      <use xlink:href="#DejaVuSans-3d" transform="translate(90.966797 0)"/>
      <use xlink:href="#DejaVuSans-20" transform="translate(174.755859 0)"/>
      <use xlink:href="#DejaVuSans-31" transform="translate(206.542969 0)"/>
     </g>
    </g>
   </g>
  </g>
 </g>
 <defs>
  <clipPath id="p99e5e1e4d7">
   <rect x="56.805937" y="22.318125" width="499.23" height="133.89"/>
  </clipPath>
  <clipPath id="p744987524a">
   <rect x="56.805937" y="169.168125" width="499.23" height="133.89"/>
  </clipPath>
 </defs>
</svg>
