<?xml version="1.0" encoding="utf-8" standalone="no"?>
<!DOCTYPE svg PUBLIC "-//W3C//DTD SVG 1.1//EN"
  "http://www.w3.org/Graphics/SVG/1.1/DTD/svg11.dtd">
<svg xmlns:xlink="http://www.w3.org/1999/xlink" width="563.240156pt" height="272.867688pt" viewBox="0 0 563.240156 272.867688" xmlns="http://www.w3.org/2000/svg" version="1.1">
 <metadata>
  <rdf:RDF xmlns:dc="http://purl.org/dc/elements/1.1/" xmlns:cc="http://creativecommons.org/ns#" xmlns:rdf="http://www.w3.org/1999/02/22-rdf-syntax-ns#">
   <cc:Work>
    <dc:type rdf:resource="http://purl.org/dc/dcmitype/StillImage"/>
    <dc:date>2026-07-12T14:24:08.256618</dc:date>
    <dc:format>image/svg+xml</dc:format>
    <dc:creator>
     <cc:Agent>
      <dc:title>Matplotlib v3.10.9, https://matplotlib.org/</dc:title>
     </cc:Agent>
    </dc:creator>
   </cc:Work>
  </rdf:RDF>
 </metadata>
 <defs>
  <style type="text/css">*{stroke-linejoin: round; stroke-linecap: butt}</style>
 </defs>
 <g id="figure_1">
  <g id="patch_1">
   <path d="M 0 272.867688 
L 563.240156 272.867688 
L 563.240156 0 
L 0 0 
z
" style="fill: #ffffff"/>
  </g>
  <g id="axes_1">
   <g id="patch_2">
    <path d="M 48.530156 229.908 
L 556.040156 229.908 
L 556.040156 24.12 
L 48.530156 24.12 
z
" style="fill: #ffffff"/>
   </g>
   <g id="matplotlib.axis_1">
    <g id="xtick_1">
     <g id="line2d_1">
      <path d="M 70.674198 229.908 
L 70.674198 24.12 
" clip-path="url(#p7cf5688ce9)" style="fill: none; stroke: #cccccc; stroke-linecap: round"/>
     </g>
     <g id="text_1">
      <!-- 0 -->
      <g style="fill: #262626" transform="translate(67.174823 247.766281) scale(0.11 -0.11)">
       <defs>
        <path id="DejaVuSans-30" d="M 2034 4250 
Q 1547 4250 1301 3770 
Q 1056 3291 1056 2328 
Q 1056 1369 1301 889 
Q 1547 409 2034 409 
Q 2525 409 2770 889 
Q 3016 1369 3016 2328 
Q 3016 3291 2770 3770 
Q 2525 4250 2034 4250 
z
M 2034 4750 
Q 2819 4750 3233 4129 
Q 3647 3509 3647 2328 
Q 3647 1150 3233 529 
Q 2819 -91 2034 -91 
Q 1250 -91 836 529 
Q 422 1150 422 2328 
Q 422 3509 836 4129 
Q 1250 4750 2034 4750 
z
" transform="scale(0.015625)"/>
       </defs>
       <use xlink:href="#DejaVuSans-30"/>
      </g>
     </g>
    </g>
    <g id="xtick_2">
     <g id="line2d_2">
      <path d="M 163.133662 229.908 
L 163.133662 24.12 
" clip-path="url(#p7cf5688ce9)" style="fill: none; stroke: #cccccc; stroke-linecap: round"/>
     </g>
     <g id="text_2">
      <!-- 1 -->
      <g style="fill: #262626" transform="translate(159.634287 247.766281) scale(0.11 -0.11)">
       <defs>
        <path id="DejaVuSans-31" d="M 794 531 
L 1825 531 
L 1825 4091 
L 703 3866 
L 703 4441 
L 1819 4666 
L 2450 4666 
L 2450 531 
L 3481 531 
L 3481 0 
L 794 0 
L 794 531 
z
" transform="scale(0.015625)"/>
       </defs>
       <use xlink:href="#DejaVuSans-31"/>
      </g>
     </g>
    </g>
    <g id="xtick_3">
     <g id="line2d_3">
      <path d="M 255.593127 229.908 
L 255.593127 24.12 
" clip-path="url(#p7cf5688ce9)" style="fill: none; stroke: #cccccc; stroke-linecap: round"/>
     </g>
     <g id="text_3">
      <!-- 2 -->
      <g style="fill: #262626" transform="translate(252.093752 247.766281) scale(0.11 -0.11)">
       <defs>
        <path id="DejaVuSans-32" d="M 1228 531 
L 3431 531 
L 3431 0 
L 469 0 
L 469 531 
Q 828 903 1448 1529 
Q 2069 2156 2228 2338 
Q 2531 2678 2651 2914 
Q 2772 3150 2772 3378 
Q 2772 3750 2511 3984 
Q 2250 4219 1831 4219 
Q 1534 4219 1204 4116 
Q 875 4013 500 3803 
L 500 4441 
Q 881 4594 1212 4672 
Q 1544 4750 1819 4750 
Q 2544 4750 2975 4387 
Q 3406 4025 3406 3419 
Q 3406 3131 3298 2873 
Q 3191 2616 2906 2266 
Q 2828 2175 2409 1742 
Q 1991 1309 1228 531 
z
" transform="scale(0.015625)"/>
       </defs>
       <use xlink:href="#DejaVuSans-32"/>
      </g>
     </g>
    </g>
    <g id="xtick_4">
     <g id="line2d_4">
      <path d="M 348.052591 229.908 
L 348.052591 24.12 
" clip-path="url(#p7cf5688ce9)" style="fill: none; stroke: #cccccc; stroke-linecap: round"/>
     </g>
     <g id="text_4">
      <!-- 3 -->
      <g style="fill: #262626" transform="translate(344.553216 247.766281) scale(0.11 -0.11)">
       <defs>
        <path id="DejaVuSans-33" d="M 2597 2516 
Q 3050 2419 3304 2112 
Q 3559 1806 3559 1356 
Q 3559 666 3084 287 
Q 2609 -91 1734 -91 
Q 1441 -91 1130 -33 
Q 819 25 488 141 
L 488 750 
Q 750 597 1062 519 
Q 1375 441 1716 441 
Q 2309 441 2620 675 
Q 2931 909 2931 1356 
Q 2931 1769 2642 2001 
Q 2353 2234 1838 2234 
L 1294 2234 
L 1294 2753 
L 1863 2753 
Q 2328 2753 2575 2939 
Q 2822 3125 2822 3475 
Q 2822 3834 2567 4026 
Q 2313 4219 1838 4219 
Q 1578 4219 1281 4162 
Q 984 4106 628 3988 
L 628 4550 
Q 988 4650 1302 4700 
Q 1616 4750 1894 4750 
Q 2613 4750 3031 4423 
Q 3450 4097 3450 3541 
Q 3450 3153 3228 2886 
Q 3006 2619 2597 2516 
z
" transform="scale(0.015625)"/>
       </defs>
       <use xlink:href="#DejaVuSans-33"/>
      </g>
     </g>
    </g>
    <g id="xtick_5">
     <g id="line2d_5">
      <path d="M 440.512056 229.908 
L 440.512056 24.12 
" clip-path="url(#p7cf5688ce9)" style="fill: none; stroke: #cccccc; stroke-linecap: round"/>
     </g>
     <g id="text_5">
      <!-- 4 -->
      <g style="fill: #262626" transform="translate(437.012681 247.766281) scale(0.11 -0.11)">
       <defs>
        <path id="DejaVuSans-34" d="M 2419 4116 
L 825 1625 
L 2419 1625 
L 2419 4116 
z
M 2253 4666 
L 3047 4666 
L 3047 1625 
L 3713 1625 
L 3713 1100 
L 3047 1100 
L 3047 0 
L 2419 0 
L 2419 1100 
L 313 1100 
L 313 1709 
L 2253 4666 
z
" transform="scale(0.015625)"/>
       </defs>
       <use xlink:href="#DejaVuSans-34"/>
      </g>
     </g>
    </g>
    <g id="xtick_6">
     <g id="line2d_6">
      <path d="M 532.97152 229.908 
L 532.97152 24.12 
" clip-path="url(#p7cf5688ce9)" style="fill: none; stroke: #cccccc; stroke-linecap: round"/>
     </g>
     <g id="text_6">
      <!-- 5 -->
      <g style="fill: #262626" transform="translate(529.472145 247.766281) scale(0.11 -0.11)">
       <defs>
        <path id="DejaVuSans-35" d="M 691 4666 
L 3169 4666 
L 3169 4134 
L 1269 4134 
L 1269 2991 
Q 1406 3038 1543 3061 
Q 1681 3084 1819 3084 
Q 2600 3084 3056 2656 
Q 3513 2228 3513 1497 
Q 3513 744 3044 326 
Q 2575 -91 1722 -91 
Q 1428 -91 1123 -41 
Q 819 9 494 109 
L 494 744 
Q 775 591 1075 516 
Q 1375 441 1709 441 
Q 2250 441 2565 725 
Q 2881 1009 2881 1497 
Q 2881 1984 2565 2268 
Q 2250 2553 1709 2553 
Q 1456 2553 1204 2497 
Q 953 2441 691 2322 
L 691 4666 
z
" transform="scale(0.015625)"/>
       </defs>
       <use xlink:href="#DejaVuSans-35"/>
      </g>
     </g>
    </g>
    <g id="text_7">
     <!-- $\omega$ -->
     <g style="fill: #262626" transform="translate(297.245156 263.172063) scale(0.12 -0.12)">
      <defs>
       <path id="DejaVuSans-Oblique-3c9" d="M 1369 -91 
Q 72 -91 434 1766 
Q 575 2500 1256 3500 
L 1875 3500 
Q 1231 2500 1088 1750 
Q 819 397 1519 397 
Q 2166 397 2478 2078 
L 3009 2078 
Q 2669 388 3316 397 
Q 4013 403 4275 1750 
Q 4419 2500 4169 3500 
L 4788 3500 
Q 5075 2500 4934 1766 
Q 4578 -94 3278 -91 
Q 2428 -88 2503 844 
Q 2194 -91 1369 -91 
z
" transform="scale(0.015625)"/>
      </defs>
      <use xlink:href="#DejaVuSans-Oblique-3c9" transform="translate(0 0.3125)"/>
     </g>
    </g>
   </g>
   <g id="matplotlib.axis_2">
    <g id="ytick_1">
     <g id="line2d_7">
      <path d="M 48.530156 201.846 
L 556.040156 201.846 
" clip-path="url(#p7cf5688ce9)" style="fill: none; stroke: #cccccc; stroke-linecap: round"/>
     </g>
     <g id="text_8">
      <!-- −4 -->
      <g style="fill: #262626" transform="translate(22.81375 206.025141) scale(0.11 -0.11)">
       <defs>
        <path id="DejaVuSans-2212" d="M 678 2272 
L 4684 2272 
L 4684 1741 
L 678 1741 
L 678 2272 
z
" transform="scale(0.015625)"/>
       </defs>
       <use xlink:href="#DejaVuSans-2212"/>
       <use xlink:href="#DejaVuSans-34" transform="translate(83.789062 0)"/>
      </g>
     </g>
    </g>
    <g id="ytick_2">
     <g id="line2d_8">
      <path d="M 48.530156 164.43 
L 556.040156 164.43 
" clip-path="url(#p7cf5688ce9)" style="fill: none; stroke: #cccccc; stroke-linecap: round"/>
     </g>
     <g id="text_9">
      <!-- −2 -->
      <g style="fill: #262626" transform="translate(22.81375 168.609141) scale(0.11 -0.11)">
       <use xlink:href="#DejaVuSans-2212"/>
       <use xlink:href="#DejaVuSans-32" transform="translate(83.789062 0)"/>
      </g>
     </g>
    </g>
    <g id="ytick_3">
     <g id="line2d_9">
      <path d="M 48.530156 127.014 
L 556.040156 127.014 
" clip-path="url(#p7cf5688ce9)" style="fill: none; stroke: #cccccc; stroke-linecap: round"/>
     </g>
     <g id="text_10">
      <!-- 0 -->
      <g style="fill: #262626" transform="translate(32.031406 131.193141) scale(0.11 -0.11)">
       <use xlink:href="#DejaVuSans-30"/>
      </g>
     </g>
    </g>
    <g id="ytick_4">
     <g id="line2d_10">
      <path d="M 48.530156 89.598 
L 556.040156 89.598 
" clip-path="url(#p7cf5688ce9)" style="fill: none; stroke: #cccccc; stroke-linecap: round"/>
     </g>
     <g id="text_11">
      <!-- 2 -->
      <g style="fill: #262626" transform="translate(32.031406 93.777141) scale(0.11 -0.11)">
       <use xlink:href="#DejaVuSans-32"/>
      </g>
     </g>
    </g>
    <g id="ytick_5">
     <g id="line2d_11">
      <path d="M 48.530156 52.182 
L 556.040156 52.182 
" clip-path="url(#p7cf5688ce9)" style="fill: none; stroke: #cccccc; stroke-linecap: round"/>
     </g>
     <g id="text_12">
      <!-- 4 -->
      <g style="fill: #262626" transform="translate(32.031406 56.361141) scale(0.11 -0.11)">
       <use xlink:href="#DejaVuSans-34"/>
      </g>
     </g>
    </g>
    <g id="text_13">
     <!-- Optimal parameter value -->
     <g style="fill: #262626" transform="translate(16.318125 202.63275) rotate(-90) scale(0.12 -0.12)">
      <defs>
       <path id="DejaVuSans-4f" d="M 2522 4238 
Q 1834 4238 1429 3725 
Q 1025 3213 1025 2328 
Q 1025 1447 1429 934 
Q 1834 422 2522 422 
Q 3209 422 3611 934 
Q 4013 1447 4013 2328 
Q 4013 3213 3611 3725 
Q 3209 4238 2522 4238 
z
M 2522 4750 
Q 3503 4750 4090 4092 
Q 4678 3434 4678 2328 
Q 4678 1225 4090 567 
Q 3503 -91 2522 -91 
Q 1538 -91 948 565 
Q 359 1222 359 2328 
Q 359 3434 948 4092 
Q 1538 4750 2522 4750 
z
" transform="scale(0.015625)"/>
       <path id="DejaVuSans-70" d="M 1159 525 
L 1159 -1331 
L 581 -1331 
L 581 3500 
L 1159 3500 
L 1159 2969 
Q 1341 3281 1617 3432 
Q 1894 3584 2278 3584 
Q 2916 3584 3314 3078 
Q 3713 2572 3713 1747 
Q 3713 922 3314 415 
Q 2916 -91 2278 -91 
Q 1894 -91 1617 61 
Q 1341 213 1159 525 
z
M 3116 1747 
Q 3116 2381 2855 2742 
Q 2594 3103 2138 3103 
Q 1681 3103 1420 2742 
Q 1159 2381 1159 1747 
Q 1159 1113 1420 752 
Q 1681 391 2138 391 
Q 2594 391 2855 752 
Q 3116 1113 3116 1747 
z
" transform="scale(0.015625)"/>
       <path id="DejaVuSans-74" d="M 1172 4494 
L 1172 3500 
L 2356 3500 
L 2356 3053 
L 1172 3053 
L 1172 1153 
Q 1172 725 1289 603 
Q 1406 481 1766 481 
L 2356 481 
L 2356 0 
L 1766 0 
Q 1100 0 847 248 
Q 594 497 594 1153 
L 594 3053 
L 172 3053 
L 172 3500 
L 594 3500 
L 594 4494 
L 1172 4494 
z
" transform="scale(0.015625)"/>
       <path id="DejaVuSans-69" d="M 603 3500 
L 1178 3500 
L 1178 0 
L 603 0 
L 603 3500 
z
M 603 4863 
L 1178 4863 
L 1178 4134 
L 603 4134 
L 603 4863 
z
" transform="scale(0.015625)"/>
       <path id="DejaVuSans-6d" d="M 3328 2828 
Q 3544 3216 3844 3400 
Q 4144 3584 4550 3584 
Q 5097 3584 5394 3201 
Q 5691 2819 5691 2113 
L 5691 0 
L 5113 0 
L 5113 2094 
Q 5113 2597 4934 2840 
Q 4756 3084 4391 3084 
Q 3944 3084 3684 2787 
Q 3425 2491 3425 1978 
L 3425 0 
L 2847 0 
L 2847 2094 
Q 2847 2600 2669 2842 
Q 2491 3084 2119 3084 
Q 1678 3084 1418 2786 
Q 1159 2488 1159 1978 
L 1159 0 
L 581 0 
L 581 3500 
L 1159 3500 
L 1159 2956 
Q 1356 3278 1631 3431 
Q 1906 3584 2284 3584 
Q 2666 3584 2933 3390 
Q 3200 3197 3328 2828 
z
" transform="scale(0.015625)"/>
       <path id="DejaVuSans-61" d="M 2194 1759 
Q 1497 1759 1228 1600 
Q 959 1441 959 1056 
Q 959 750 1161 570 
Q 1363 391 1709 391 
Q 2188 391 2477 730 
Q 2766 1069 2766 1631 
L 2766 1759 
L 2194 1759 
z
M 3341 1997 
L 3341 0 
L 2766 0 
L 2766 531 
Q 2569 213 2275 61 
Q 1981 -91 1556 -91 
Q 1019 -91 701 211 
Q 384 513 384 1019 
Q 384 1609 779 1909 
Q 1175 2209 1959 2209 
L 2766 2209 
L 2766 2266 
Q 2766 2663 2505 2880 
Q 2244 3097 1772 3097 
Q 1472 3097 1187 3025 
Q 903 2953 641 2809 
L 641 3341 
Q 956 3463 1253 3523 
Q 1550 3584 1831 3584 
Q 2591 3584 2966 3190 
Q 3341 2797 3341 1997 
z
" transform="scale(0.015625)"/>
       <path id="DejaVuSans-6c" d="M 603 4863 
L 1178 4863 
L 1178 0 
L 603 0 
L 603 4863 
z
" transform="scale(0.015625)"/>
       <path id="DejaVuSans-20" transform="scale(0.015625)"/>
       <path id="DejaVuSans-72" d="M 2631 2963 
Q 2534 3019 2420 3045 
Q 2306 3072 2169 3072 
Q 1681 3072 1420 2755 
Q 1159 2438 1159 1844 
L 1159 0 
L 581 0 
L 581 3500 
L 1159 3500 
L 1159 2956 
Q 1341 3275 1631 3429 
Q 1922 3584 2338 3584 
Q 2397 3584 2469 3576 
Q 2541 3569 2628 3553 
L 2631 2963 
z
" transform="scale(0.015625)"/>
       <path id="DejaVuSans-65" d="M 3597 1894 
L 3597 1613 
L 953 1613 
Q 991 1019 1311 708 
Q 1631 397 2203 397 
Q 2534 397 2845 478 
Q 3156 559 3463 722 
L 3463 178 
Q 3153 47 2828 -22 
Q 2503 -91 2169 -91 
Q 1331 -91 842 396 
Q 353 884 353 1716 
Q 353 2575 817 3079 
Q 1281 3584 2069 3584 
Q 2775 3584 3186 3129 
Q 3597 2675 3597 1894 
z
M 3022 2063 
Q 3016 2534 2758 2815 
Q 2500 3097 2075 3097 
Q 1594 3097 1305 2825 
Q 1016 2553 972 2059 
L 3022 2063 
z
" transform="scale(0.015625)"/>
       <path id="DejaVuSans-76" d="M 191 3500 
L 800 3500 
L 1894 563 
L 2988 3500 
L 3597 3500 
L 2284 0 
L 1503 0 
L 191 3500 
z
" transform="scale(0.015625)"/>
       <path id="DejaVuSans-75" d="M 544 1381 
L 544 3500 
L 1119 3500 
L 1119 1403 
Q 1119 906 1312 657 
Q 1506 409 1894 409 
Q 2359 409 2629 706 
Q 2900 1003 2900 1516 
L 2900 3500 
L 3475 3500 
L 3475 0 
L 2900 0 
L 2900 538 
Q 2691 219 2414 64 
Q 2138 -91 1772 -91 
Q 1169 -91 856 284 
Q 544 659 544 1381 
z
M 1991 3584 
L 1991 3584 
z
" transform="scale(0.015625)"/>
      </defs>
      <use xlink:href="#DejaVuSans-4f"/>
      <use xlink:href="#DejaVuSans-70" transform="translate(78.710938 0)"/>
      <use xlink:href="#DejaVuSans-74" transform="translate(142.1875 0)"/>
      <use xlink:href="#DejaVuSans-69" transform="translate(181.396484 0)"/>
      <use xlink:href="#DejaVuSans-6d" transform="translate(209.179688 0)"/>
      <use xlink:href="#DejaVuSans-61" transform="translate(306.591797 0)"/>
      <use xlink:href="#DejaVuSans-6c" transform="translate(367.871094 0)"/>
      <use xlink:href="#DejaVuSans-20" transform="translate(395.654297 0)"/>
      <use xlink:href="#DejaVuSans-70" transform="translate(427.441406 0)"/>
      <use xlink:href="#DejaVuSans-61" transform="translate(490.917969 0)"/>
      <use xlink:href="#DejaVuSans-72" transform="translate(552.197266 0)"/>
      <use xlink:href="#DejaVuSans-61" transform="translate(593.310547 0)"/>
      <use xlink:href="#DejaVuSans-6d" transform="translate(654.589844 0)"/>
      <use xlink:href="#DejaVuSans-65" transform="translate(752.001953 0)"/>
      <use xlink:href="#DejaVuSans-74" transform="translate(813.525391 0)"/>
      <use xlink:href="#DejaVuSans-65" transform="translate(852.734375 0)"/>
      <use xlink:href="#DejaVuSans-72" transform="translate(914.257812 0)"/>
      <use xlink:href="#DejaVuSans-20" transform="translate(955.371094 0)"/>
      <use xlink:href="#DejaVuSans-76" transform="translate(987.158203 0)"/>
      <use xlink:href="#DejaVuSans-61" transform="translate(1046.337891 0)"/>
      <use xlink:href="#DejaVuSans-6c" transform="translate(1107.617188 0)"/>
      <use xlink:href="#DejaVuSans-75" transform="translate(1135.400391 0)"/>
      <use xlink:href="#DejaVuSans-65" transform="translate(1198.779297 0)"/>
     </g>
    </g>
   </g>
   <g id="patch_3">
    <path d="M 48.530156 220.554 
L 556.040156 220.554 
L 556.040156 201.846 
L 48.530156 201.846 
z
" clip-path="url(#p7cf5688ce9)" style="fill: #ff0000; opacity: 0.08; stroke: #ff0000; stroke-linejoin: miter"/>
   </g>
   <g id="patch_4">
    <path d="M 48.530156 52.182 
L 556.040156 52.182 
L 556.040156 33.474 
L 48.530156 33.474 
z
" clip-path="url(#p7cf5688ce9)" style="fill: #ff0000; opacity: 0.08; stroke: #ff0000; stroke-linejoin: miter"/>
   </g>
   <g id="line2d_12">
    <path d="M 71.598793 33.474 
L 72.523387 220.554 
L 73.447982 33.474 
L 74.372577 220.554 
L 76.221766 220.554 
L 77.14636 33.474 
L 78.070955 220.552536 
L 82.693928 220.554 
L 83.618523 214.953906 
L 84.543118 220.553994 
L 85.467712 220.553994 
L 86.392307 33.474002 
L 87.316902 220.554 
L 88.241496 33.474 
L 89.166091 220.554 
L 90.090685 220.554 
L 91.01528 33.474604 
L 91.939875 220.553997 
L 92.864469 220.553987 
L 93.789064 33.474001 
L 94.713659 220.553439 
L 95.638253 220.554 
L 96.562848 33.474 
L 97.487443 220.554 
L 98.412037 33.474014 
L 100.261227 33.474013 
L 101.185821 220.553993 
L 102.110416 220.553996 
L 103.035011 33.474 
L 105.808794 33.475173 
L 106.733389 220.554 
L 107.657984 33.47406 
L 108.582578 33.476274 
L 109.507173 220.55397 
L 111.356362 220.553955 
L 112.280957 33.474004 
L 113.205552 220.553986 
L 114.130146 33.474 
L 115.054741 33.474098 
L 115.979336 220.550988 
L 116.90393 33.474038 
L 117.828525 33.476166 
L 118.753119 220.552621 
L 120.602309 220.553927 
L 121.526903 33.474002 
L 122.451498 220.553956 
L 123.376093 220.553991 
L 124.300687 33.474158 
L 127.074471 33.474017 
L 127.999066 220.553999 
L 128.923661 33.474001 
L 129.848255 220.553991 
L 130.77285 33.474002 
L 131.697444 33.474001 
L 132.622039 220.095503 
L 133.546634 220.553994 
L 134.471228 218.997938 
L 135.395823 220.553997 
L 136.320418 220.552619 
L 137.245012 33.474001 
L 138.169607 33.474002 
L 139.094202 220.553994 
L 140.018796 220.553997 
L 140.943391 33.474002 
L 141.867986 33.474016 
L 142.79258 220.553765 
L 143.717175 33.474174 
L 144.641769 220.553995 
L 145.566364 33.474002 
L 146.490959 33.474005 
L 147.415553 220.553988 
L 148.340148 33.474001 
L 149.264743 220.553997 
L 150.189337 33.474001 
L 151.113932 33.475269 
L 152.038527 220.554 
L 152.963121 220.553937 
L 153.887716 33.474006 
L 154.812311 33.474026 
L 155.736905 220.553977 
L 156.6615 220.553987 
L 157.586094 219.26915 
L 158.510689 220.553998 
L 159.435284 220.55396 
L 160.359878 33.474042 
L 161.284473 33.474004 
L 162.209068 220.55395 
L 163.133662 33.47401 
L 168.68123 33.474008 
L 169.605825 220.55399 
L 170.53042 33.474016 
L 172.379609 33.474003 
L 173.304203 220.553998 
L 174.228798 220.473243 
L 175.153393 33.474002 
L 177.002582 33.474052 
L 177.927177 41.604806 
L 178.851771 220.554 
L 179.776366 220.553985 
L 180.700961 33.474064 
L 181.625555 33.474002 
L 182.55015 220.553994 
L 183.474745 33.474 
L 184.399339 33.474002 
L 185.323934 220.553999 
L 186.248528 33.474004 
L 187.173123 220.553986 
L 188.097718 33.474001 
L 189.022312 220.553997 
L 189.946907 220.553995 
L 190.871502 33.474001 
L 191.796096 220.553999 
L 192.720691 33.474002 
L 193.645286 220.553998 
L 195.494475 220.553981 
L 196.41907 33.474008 
L 197.343664 220.553992 
L 199.192853 220.553999 
L 200.117448 33.47401 
L 201.042043 220.553995 
L 201.966637 219.463326 
L 202.891232 220.553998 
L 204.740421 220.553855 
L 205.665016 33.474124 
L 206.589611 220.533803 
L 208.4388 220.553999 
L 209.363395 33.474002 
L 210.287989 33.474144 
L 211.212584 35.751271 
L 212.137178 220.553999 
L 213.061773 220.553995 
L 213.986368 33.474 
L 214.910962 220.55374 
L 216.760152 220.553994 
L 217.684746 33.474002 
L 218.609341 33.474003 
L 219.533936 220.553995 
L 220.45853 33.474008 
L 221.383125 33.474005 
L 222.30772 220.553173 
L 223.232314 33.474006 
L 224.156909 220.553997 
L 225.081503 33.474002 
L 226.006098 220.554 
L 226.930693 33.474008 
L 227.855287 33.475111 
L 228.779882 220.553993 
L 229.704477 33.474002 
L 230.629071 220.553994 
L 231.553666 33.484084 
L 232.478261 220.553998 
L 233.402855 220.553992 
L 234.32745 33.474001 
L 235.252045 220.553956 
L 236.176639 220.553997 
L 237.101234 33.474008 
L 238.025829 220.553984 
L 238.950423 220.553993 
L 239.875018 33.474011 
L 241.724207 33.474002 
L 242.648802 220.553996 
L 243.573396 220.553503 
L 244.497991 33.474034 
L 246.34718 33.474038 
L 247.271775 220.553999 
L 248.19637 220.553996 
L 249.120964 33.474002 
L 250.045559 33.474005 
L 250.970154 220.470514 
L 251.894748 33.474003 
L 252.819343 220.553997 
L 253.743937 220.553991 
L 254.668532 33.474007 
L 255.593127 33.536082 
L 257.442316 33.474082 
L 259.291505 33.474001 
L 260.2161 220.553983 
L 261.140695 33.474023 
L 262.065289 220.553988 
L 262.989884 33.47403 
L 263.914479 220.553997 
L 264.839073 33.474002 
L 266.688262 33.474002 
L 267.612857 220.554 
L 268.537452 33.474002 
L 269.462046 220.553997 
L 270.386641 220.553906 
L 271.311236 33.474005 
L 272.23583 220.553989 
L 274.08502 220.553993 
L 275.009614 33.474004 
L 275.934209 220.553998 
L 276.858804 33.474006 
L 277.783398 220.55396 
L 278.707993 220.550555 
L 279.632587 33.474074 
L 280.557182 220.553997 
L 281.481777 33.474004 
L 282.406371 33.474013 
L 283.330966 220.553994 
L 284.255561 33.474021 
L 285.180155 43.767969 
L 286.10475 33.474005 
L 289.803129 33.474003 
L 290.727723 220.554 
L 291.652318 33.474 
L 292.576912 33.474001 
L 293.501507 220.553988 
L 294.426102 33.474082 
L 295.350696 220.554 
L 296.275291 33.474109 
L 299.97367 33.474001 
L 300.898264 220.553996 
L 301.822859 33.474009 
L 302.747454 33.474009 
L 303.672048 220.554 
L 304.596643 220.553918 
L 305.521238 219.998235 
L 306.445832 33.474005 
L 307.370427 220.553997 
L 308.295021 220.553992 
L 309.219616 42.771938 
L 310.144211 220.553996 
L 311.068805 33.474002 
L 311.9934 220.553977 
L 312.917995 33.474015 
L 313.842589 219.940493 
L 314.767184 220.553994 
L 315.691779 33.474192 
L 317.540968 33.474004 
L 318.465563 220.553977 
L 319.390157 220.44018 
L 320.314752 220.553994 
L 324.01313 220.554 
L 324.937725 33.474001 
L 325.86232 220.521295 
L 326.786914 220.553994 
L 327.711509 33.474003 
L 328.636104 220.553965 
L 329.560698 220.553999 
L 330.485293 33.474051 
L 331.409888 34.659612 
L 332.334482 33.474 
L 334.183671 33.474005 
L 335.108266 220.553998 
L 336.032861 220.55397 
L 336.957455 33.474001 
L 337.88205 33.474001 
L 338.806645 220.553988 
L 339.731239 33.474017 
L 341.580429 33.474009 
L 342.505023 220.554 
L 343.429618 33.474059 
L 344.354213 220.553912 
L 346.203402 220.553994 
L 347.127996 33.474025 
L 350.826375 33.474006 
L 351.75097 220.553209 
L 353.600159 220.553997 
L 354.524754 33.474005 
L 355.449348 33.474002 
L 356.373943 220.553999 
L 357.298538 33.474136 
L 358.223132 33.474009 
L 359.147727 220.553998 
L 361.921511 220.553982 
L 362.846105 33.474037 
L 363.7707 220.553994 
L 364.695295 33.474007 
L 365.619889 33.474004 
L 366.544484 35.95282 
L 367.469079 33.474066 
L 368.393673 220.553996 
L 369.318268 33.474002 
L 370.242863 220.553999 
L 371.167457 220.554 
L 372.092052 33.474004 
L 373.016647 220.553993 
L 373.941241 33.474194 
L 374.865836 220.553988 
L 375.79043 33.474369 
L 376.715025 220.553999 
L 377.63962 220.553996 
L 378.564214 33.474002 
L 379.488809 220.55392 
L 380.413404 33.474013 
L 381.337998 33.474001 
L 382.262593 220.553999 
L 383.187188 33.474 
L 384.111782 220.553997 
L 385.036377 33.474001 
L 388.734755 33.474001 
L 389.65935 220.553995 
L 390.583945 220.553065 
L 391.508539 33.474029 
L 397.056107 33.474002 
L 397.980702 220.553948 
L 401.67908 220.553919 
L 402.603675 33.474019 
L 403.52827 33.474012 
L 404.452864 220.554 
L 405.377459 33.474087 
L 406.302054 220.553998 
L 407.226648 220.553999 
L 408.151243 33.474046 
L 409.075838 220.553999 
L 411.849622 220.553966 
L 412.774216 33.474003 
L 413.698811 220.553955 
L 414.623405 33.474005 
L 415.548 220.553991 
L 418.321784 220.553994 
L 419.246379 33.474002 
L 420.170973 33.474022 
L 421.095568 220.55322 
L 422.020163 33.474015 
L 422.944757 220.553976 
L 423.869352 220.553992 
L 424.793947 33.474173 
L 425.718541 33.474035 
L 426.643136 220.55398 
L 427.56773 33.474001 
L 428.492325 220.553972 
L 429.41692 220.553997 
L 430.341514 33.474008 
L 431.266109 33.555562 
L 432.190704 220.553976 
L 433.115298 33.474005 
L 434.039893 209.437511 
L 434.964488 33.474036 
L 435.889082 220.553998 
L 436.813677 33.474001 
L 438.662866 33.474085 
L 439.587461 220.553977 
L 443.285839 220.553999 
L 444.210434 33.474012 
L 445.135029 220.518484 
L 446.059623 220.553994 
L 446.984218 33.474002 
L 449.758002 33.474001 
L 450.682597 220.553999 
L 451.607191 220.554 
L 452.531786 33.47402 
L 453.456381 33.474012 
L 454.380975 220.553969 
L 455.30557 220.550639 
L 456.230164 33.474004 
L 457.154759 33.474005 
L 458.079354 220.553998 
L 459.003948 33.474002 
L 459.928543 33.474007 
L 460.853138 220.552795 
L 461.777732 220.35533 
L 462.702327 33.474002 
L 463.626922 33.474021 
L 464.551516 220.553987 
L 467.3253 220.553256 
L 468.249895 33.474001 
L 469.174489 220.546406 
L 470.099084 220.553977 
L 471.023679 33.474005 
L 471.948273 220.553998 
L 472.872868 220.553893 
L 473.797463 33.474 
L 474.722057 220.55393 
L 481.19422 220.553984 
L 482.118814 33.474006 
L 483.043409 220.553997 
L 483.968004 33.474004 
L 485.817193 33.474009 
L 486.741788 220.027533 
L 487.666382 33.474003 
L 489.515572 33.474006 
L 490.440166 220.553847 
L 491.364761 220.553994 
L 492.289356 35.377971 
L 493.21395 220.535235 
L 494.138545 33.474003 
L 495.063139 220.553987 
L 495.987734 33.474021 
L 496.912329 220.554 
L 500.610707 220.554 
L 501.535302 33.474006 
L 502.459897 33.474011 
L 503.384491 220.320707 
L 504.309086 33.474001 
L 505.233681 220.553978 
L 506.158275 33.474023 
L 508.007465 33.474014 
L 508.932059 220.553997 
L 509.856654 33.474001 
L 515.404222 33.474007 
L 516.328816 220.553922 
L 517.253411 220.553986 
L 518.178006 33.474021 
L 519.1026 220.504737 
L 520.95179 220.553998 
L 521.876384 33.474003 
L 522.800979 220.554 
L 524.650168 220.55396 
L 525.574763 217.738894 
L 526.499357 220.553989 
L 527.423952 33.474004 
L 528.348547 220.553999 
L 529.273141 33.474037 
L 531.122331 33.474002 
L 532.046925 220.553985 
L 532.97152 33.477922 
L 532.97152 33.477922 
" clip-path="url(#p7cf5688ce9)" style="fill: none; stroke: #55a868; stroke-width: 1.8; stroke-linecap: round"/>
    <defs>
     <path id="m1bdd445b8d" d="M 0 -2 
L -2 2 
L 2 2 
z
" style="stroke: #55a868; stroke-linejoin: miter"/>
    </defs>
    <g clip-path="url(#p7cf5688ce9)">
     <use xlink:href="#m1bdd445b8d" x="71.598793" y="33.474" style="fill: #55a868; stroke: #55a868; stroke-linejoin: miter"/>
     <use xlink:href="#m1bdd445b8d" x="86.392307" y="33.474002" style="fill: #55a868; stroke: #55a868; stroke-linejoin: miter"/>
     <use xlink:href="#m1bdd445b8d" x="101.185821" y="220.553993" style="fill: #55a868; stroke: #55a868; stroke-linejoin: miter"/>
     <use xlink:href="#m1bdd445b8d" x="115.979336" y="220.550988" style="fill: #55a868; stroke: #55a868; stroke-linejoin: miter"/>
     <use xlink:href="#m1bdd445b8d" x="130.77285" y="33.474002" style="fill: #55a868; stroke: #55a868; stroke-linejoin: miter"/>
     <use xlink:href="#m1bdd445b8d" x="145.566364" y="33.474002" style="fill: #55a868; stroke: #55a868; stroke-linejoin: miter"/>
     <use xlink:href="#m1bdd445b8d" x="160.359878" y="33.474042" style="fill: #55a868; stroke: #55a868; stroke-linejoin: miter"/>
     <use xlink:href="#m1bdd445b8d" x="175.153393" y="33.474002" style="fill: #55a868; stroke: #55a868; stroke-linejoin: miter"/>
     <use xlink:href="#m1bdd445b8d" x="189.946907" y="220.553995" style="fill: #55a868; stroke: #55a868; stroke-linejoin: miter"/>
     <use xlink:href="#m1bdd445b8d" x="204.740421" y="220.553855" style="fill: #55a868; stroke: #55a868; stroke-linejoin: miter"/>
     <use xlink:href="#m1bdd445b8d" x="219.533936" y="220.553995" style="fill: #55a868; stroke: #55a868; stroke-linejoin: miter"/>
     <use xlink:href="#m1bdd445b8d" x="234.32745" y="33.474001" style="fill: #55a868; stroke: #55a868; stroke-linejoin: miter"/>
     <use xlink:href="#m1bdd445b8d" x="249.120964" y="33.474002" style="fill: #55a868; stroke: #55a868; stroke-linejoin: miter"/>
     <use xlink:href="#m1bdd445b8d" x="263.914479" y="220.553997" style="fill: #55a868; stroke: #55a868; stroke-linejoin: miter"/>
     <use xlink:href="#m1bdd445b8d" x="278.707993" y="220.550555" style="fill: #55a868; stroke: #55a868; stroke-linejoin: miter"/>
     <use xlink:href="#m1bdd445b8d" x="293.501507" y="220.553988" style="fill: #55a868; stroke: #55a868; stroke-linejoin: miter"/>
     <use xlink:href="#m1bdd445b8d" x="308.295021" y="220.553992" style="fill: #55a868; stroke: #55a868; stroke-linejoin: miter"/>
     <use xlink:href="#m1bdd445b8d" x="323.088536" y="220.553996" style="fill: #55a868; stroke: #55a868; stroke-linejoin: miter"/>
     <use xlink:href="#m1bdd445b8d" x="337.88205" y="33.474001" style="fill: #55a868; stroke: #55a868; stroke-linejoin: miter"/>
     <use xlink:href="#m1bdd445b8d" x="352.675564" y="220.553992" style="fill: #55a868; stroke: #55a868; stroke-linejoin: miter"/>
     <use xlink:href="#m1bdd445b8d" x="367.469079" y="33.474066" style="fill: #55a868; stroke: #55a868; stroke-linejoin: miter"/>
     <use xlink:href="#m1bdd445b8d" x="382.262593" y="220.553999" style="fill: #55a868; stroke: #55a868; stroke-linejoin: miter"/>
     <use xlink:href="#m1bdd445b8d" x="397.056107" y="33.474002" style="fill: #55a868; stroke: #55a868; stroke-linejoin: miter"/>
     <use xlink:href="#m1bdd445b8d" x="411.849622" y="220.553966" style="fill: #55a868; stroke: #55a868; stroke-linejoin: miter"/>
     <use xlink:href="#m1bdd445b8d" x="426.643136" y="220.55398" style="fill: #55a868; stroke: #55a868; stroke-linejoin: miter"/>
     <use xlink:href="#m1bdd445b8d" x="441.43665" y="220.553989" style="fill: #55a868; stroke: #55a868; stroke-linejoin: miter"/>
     <use xlink:href="#m1bdd445b8d" x="456.230164" y="33.474004" style="fill: #55a868; stroke: #55a868; stroke-linejoin: miter"/>
     <use xlink:href="#m1bdd445b8d" x="471.023679" y="33.474005" style="fill: #55a868; stroke: #55a868; stroke-linejoin: miter"/>
     <use xlink:href="#m1bdd445b8d" x="485.817193" y="33.474009" style="fill: #55a868; stroke: #55a868; stroke-linejoin: miter"/>
     <use xlink:href="#m1bdd445b8d" x="500.610707" y="220.554" style="fill: #55a868; stroke: #55a868; stroke-linejoin: miter"/>
     <use xlink:href="#m1bdd445b8d" x="515.404222" y="33.474007" style="fill: #55a868; stroke: #55a868; stroke-linejoin: miter"/>
     <use xlink:href="#m1bdd445b8d" x="530.197736" y="33.474011" style="fill: #55a868; stroke: #55a868; stroke-linejoin: miter"/>
    </g>
   </g>
   <g id="line2d_13">
    <path d="M 48.530156 220.554 
L 556.040156 220.554 
" clip-path="url(#p7cf5688ce9)" style="fill: none; stroke-dasharray: 1,1.65; stroke-dashoffset: 0; stroke: #808080; stroke-opacity: 0.5"/>
   </g>
   <g id="line2d_14">
    <path d="M 48.530156 33.474 
L 556.040156 33.474 
" clip-path="url(#p7cf5688ce9)" style="fill: none; stroke-dasharray: 1,1.65; stroke-dashoffset: 0; stroke: #808080; stroke-opacity: 0.5"/>
   </g>
   <g id="patch_5">
    <path d="M 48.530156 229.908 
L 48.530156 24.12 
" style="fill: none; stroke: #cccccc; stroke-width: 1.25; stroke-linejoin: miter; stroke-linecap: square"/>
   </g>
   <g id="patch_6">
    <path d="M 556.040156 229.908 
L 556.040156 24.12 
" style="fill: none; stroke: #cccccc; stroke-width: 1.25; stroke-linejoin: miter; stroke-linecap: square"/>
   </g>
   <g id="patch_7">
    <path d="M 48.530156 229.908 
L 556.040156 229.908 
" style="fill: none; stroke: #cccccc; stroke-width: 1.25; stroke-linejoin: miter; stroke-linecap: square"/>
   </g>
   <g id="patch_8">
    <path d="M 48.530156 24.12 
L 556.040156 24.12 
" style="fill: none; stroke: #cccccc; stroke-width: 1.25; stroke-linejoin: miter; stroke-linecap: square"/>
   </g>
   <g id="text_14">
    <!-- Scenario A: Optimal $a_z^*$ vs $\omega$  (487/500 bound-saturated) -->
    <g style="fill: #262626" transform="translate(131.885156 18.12) scale(0.12 -0.12)">
     <defs>
      <path id="DejaVuSans-53" d="M 3425 4513 
L 3425 3897 
Q 3066 4069 2747 4153 
Q 2428 4238 2131 4238 
Q 1616 4238 1336 4038 
Q 1056 3838 1056 3469 
Q 1056 3159 1242 3001 
Q 1428 2844 1947 2747 
L 2328 2669 
Q 3034 2534 3370 2195 
Q 3706 1856 3706 1288 
Q 3706 609 3251 259 
Q 2797 -91 1919 -91 
Q 1588 -91 1214 -16 
Q 841 59 441 206 
L 441 856 
Q 825 641 1194 531 
Q 1563 422 1919 422 
Q 2459 422 2753 634 
Q 3047 847 3047 1241 
Q 3047 1584 2836 1778 
Q 2625 1972 2144 2069 
L 1759 2144 
Q 1053 2284 737 2584 
Q 422 2884 422 3419 
Q 422 4038 858 4394 
Q 1294 4750 2059 4750 
Q 2388 4750 2728 4690 
Q 3069 4631 3425 4513 
z
" transform="scale(0.015625)"/>
      <path id="DejaVuSans-63" d="M 3122 3366 
L 3122 2828 
Q 2878 2963 2633 3030 
Q 2388 3097 2138 3097 
Q 1578 3097 1268 2742 
Q 959 2388 959 1747 
Q 959 1106 1268 751 
Q 1578 397 2138 397 
Q 2388 397 2633 464 
Q 2878 531 3122 666 
L 3122 134 
Q 2881 22 2623 -34 
Q 2366 -91 2075 -91 
Q 1284 -91 818 406 
Q 353 903 353 1747 
Q 353 2603 823 3093 
Q 1294 3584 2113 3584 
Q 2378 3584 2631 3529 
Q 2884 3475 3122 3366 
z
" transform="scale(0.015625)"/>
      <path id="DejaVuSans-6e" d="M 3513 2113 
L 3513 0 
L 2938 0 
L 2938 2094 
Q 2938 2591 2744 2837 
Q 2550 3084 2163 3084 
Q 1697 3084 1428 2787 
Q 1159 2491 1159 1978 
L 1159 0 
L 581 0 
L 581 3500 
L 1159 3500 
L 1159 2956 
Q 1366 3272 1645 3428 
Q 1925 3584 2291 3584 
Q 2894 3584 3203 3211 
Q 3513 2838 3513 2113 
z
" transform="scale(0.015625)"/>
      <path id="DejaVuSans-6f" d="M 1959 3097 
Q 1497 3097 1228 2736 
Q 959 2375 959 1747 
Q 959 1119 1226 758 
Q 1494 397 1959 397 
Q 2419 397 2687 759 
Q 2956 1122 2956 1747 
Q 2956 2369 2687 2733 
Q 2419 3097 1959 3097 
z
M 1959 3584 
Q 2709 3584 3137 3096 
Q 3566 2609 3566 1747 
Q 3566 888 3137 398 
Q 2709 -91 1959 -91 
Q 1206 -91 779 398 
Q 353 888 353 1747 
Q 353 2609 779 3096 
Q 1206 3584 1959 3584 
z
" transform="scale(0.015625)"/>
      <path id="DejaVuSans-41" d="M 2188 4044 
L 1331 1722 
L 3047 1722 
L 2188 4044 
z
M 1831 4666 
L 2547 4666 
L 4325 0 
L 3669 0 
L 3244 1197 
L 1141 1197 
L 716 0 
L 50 0 
L 1831 4666 
z
" transform="scale(0.015625)"/>
      <path id="DejaVuSans-3a" d="M 750 794 
L 1409 794 
L 1409 0 
L 750 0 
L 750 794 
z
M 750 3309 
L 1409 3309 
L 1409 2516 
L 750 2516 
L 750 3309 
z
" transform="scale(0.015625)"/>
      <path id="DejaVuSans-Oblique-61" d="M 3438 1997 
L 3047 0 
L 2472 0 
L 2578 531 
Q 2325 219 2001 64 
Q 1678 -91 1281 -91 
Q 834 -91 548 182 
Q 263 456 263 884 
Q 263 1497 752 1853 
Q 1241 2209 2100 2209 
L 2900 2209 
L 2931 2363 
Q 2938 2388 2941 2417 
Q 2944 2447 2944 2509 
Q 2944 2788 2717 2942 
Q 2491 3097 2081 3097 
Q 1800 3097 1504 3025 
Q 1209 2953 897 2809 
L 997 3341 
Q 1322 3463 1633 3523 
Q 1944 3584 2234 3584 
Q 2853 3584 3176 3315 
Q 3500 3047 3500 2534 
Q 3500 2431 3484 2292 
Q 3469 2153 3438 1997 
z
M 2816 1759 
L 2241 1759 
Q 1534 1759 1195 1570 
Q 856 1381 856 984 
Q 856 709 1029 553 
Q 1203 397 1509 397 
Q 1978 397 2328 733 
Q 2678 1069 2791 1631 
L 2816 1759 
z
" transform="scale(0.015625)"/>
      <path id="DejaVuSans-2a" d="M 3009 3897 
L 1888 3291 
L 3009 2681 
L 2828 2375 
L 1778 3009 
L 1778 1831 
L 1422 1831 
L 1422 3009 
L 372 2375 
L 191 2681 
L 1313 3291 
L 191 3897 
L 372 4206 
L 1422 3572 
L 1422 4750 
L 1778 4750 
L 1778 3572 
L 2828 4206 
L 3009 3897 
z
" transform="scale(0.015625)"/>
      <path id="DejaVuSans-Oblique-7a" d="M 744 3500 
L 3475 3500 
L 3372 2975 
L 738 459 
L 2913 459 
L 2822 0 
L -19 0 
L 84 525 
L 2719 3041 
L 653 3041 
L 744 3500 
z
" transform="scale(0.015625)"/>
      <path id="DejaVuSans-73" d="M 2834 3397 
L 2834 2853 
Q 2591 2978 2328 3040 
Q 2066 3103 1784 3103 
Q 1356 3103 1142 2972 
Q 928 2841 928 2578 
Q 928 2378 1081 2264 
Q 1234 2150 1697 2047 
L 1894 2003 
Q 2506 1872 2764 1633 
Q 3022 1394 3022 966 
Q 3022 478 2636 193 
Q 2250 -91 1575 -91 
Q 1294 -91 989 -36 
Q 684 19 347 128 
L 347 722 
Q 666 556 975 473 
Q 1284 391 1588 391 
Q 1994 391 2212 530 
Q 2431 669 2431 922 
Q 2431 1156 2273 1281 
Q 2116 1406 1581 1522 
L 1381 1569 
Q 847 1681 609 1914 
Q 372 2147 372 2553 
Q 372 3047 722 3315 
Q 1072 3584 1716 3584 
Q 2034 3584 2315 3537 
Q 2597 3491 2834 3397 
z
" transform="scale(0.015625)"/>
      <path id="DejaVuSans-28" d="M 1984 4856 
Q 1566 4138 1362 3434 
Q 1159 2731 1159 2009 
Q 1159 1288 1364 580 
Q 1569 -128 1984 -844 
L 1484 -844 
Q 1016 -109 783 600 
Q 550 1309 550 2009 
Q 550 2706 781 3412 
Q 1013 4119 1484 4856 
L 1984 4856 
z
" transform="scale(0.015625)"/>
      <path id="DejaVuSans-38" d="M 2034 2216 
Q 1584 2216 1326 1975 
Q 1069 1734 1069 1313 
Q 1069 891 1326 650 
Q 1584 409 2034 409 
Q 2484 409 2743 651 
Q 3003 894 3003 1313 
Q 3003 1734 2745 1975 
Q 2488 2216 2034 2216 
z
M 1403 2484 
Q 997 2584 770 2862 
Q 544 3141 544 3541 
Q 544 4100 942 4425 
Q 1341 4750 2034 4750 
Q 2731 4750 3128 4425 
Q 3525 4100 3525 3541 
Q 3525 3141 3298 2862 
Q 3072 2584 2669 2484 
Q 3125 2378 3379 2068 
Q 3634 1759 3634 1313 
Q 3634 634 3220 271 
Q 2806 -91 2034 -91 
Q 1263 -91 848 271 
Q 434 634 434 1313 
Q 434 1759 690 2068 
Q 947 2378 1403 2484 
z
M 1172 3481 
Q 1172 3119 1398 2916 
Q 1625 2713 2034 2713 
Q 2441 2713 2670 2916 
Q 2900 3119 2900 3481 
Q 2900 3844 2670 4047 
Q 2441 4250 2034 4250 
Q 1625 4250 1398 4047 
Q 1172 3844 1172 3481 
z
" transform="scale(0.015625)"/>
      <path id="DejaVuSans-37" d="M 525 4666 
L 3525 4666 
L 3525 4397 
L 1831 0 
L 1172 0 
L 2766 4134 
L 525 4134 
L 525 4666 
z
" transform="scale(0.015625)"/>
      <path id="DejaVuSans-2f" d="M 1625 4666 
L 2156 4666 
L 531 -594 
L 0 -594 
L 1625 4666 
z
" transform="scale(0.015625)"/>
      <path id="DejaVuSans-62" d="M 3116 1747 
Q 3116 2381 2855 2742 
Q 2594 3103 2138 3103 
Q 1681 3103 1420 2742 
Q 1159 2381 1159 1747 
Q 1159 1113 1420 752 
Q 1681 391 2138 391 
Q 2594 391 2855 752 
Q 3116 1113 3116 1747 
z
M 1159 2969 
Q 1341 3281 1617 3432 
Q 1894 3584 2278 3584 
Q 2916 3584 3314 3078 
Q 3713 2572 3713 1747 
Q 3713 922 3314 415 
Q 2916 -91 2278 -91 
Q 1894 -91 1617 61 
Q 1341 213 1159 525 
L 1159 0 
L 581 0 
L 581 4863 
L 1159 4863 
L 1159 2969 
z
" transform="scale(0.015625)"/>
      <path id="DejaVuSans-64" d="M 2906 2969 
L 2906 4863 
L 3481 4863 
L 3481 0 
L 2906 0 
L 2906 525 
Q 2725 213 2448 61 
Q 2172 -91 1784 -91 
Q 1150 -91 751 415 
Q 353 922 353 1747 
Q 353 2572 751 3078 
Q 1150 3584 1784 3584 
Q 2172 3584 2448 3432 
Q 2725 3281 2906 2969 
z
M 947 1747 
Q 947 1113 1208 752 
Q 1469 391 1925 391 
Q 2381 391 2643 752 
Q 2906 1113 2906 1747 
Q 2906 2381 2643 2742 
Q 2381 3103 1925 3103 
Q 1469 3103 1208 2742 
Q 947 2381 947 1747 
z
" transform="scale(0.015625)"/>
      <path id="DejaVuSans-2d" d="M 313 2009 
L 1997 2009 
L 1997 1497 
L 313 1497 
L 313 2009 
z
" transform="scale(0.015625)"/>
      <path id="DejaVuSans-29" d="M 513 4856 
L 1013 4856 
Q 1481 4119 1714 3412 
Q 1947 2706 1947 2009 
Q 1947 1309 1714 600 
Q 1481 -109 1013 -844 
L 513 -844 
Q 928 -128 1133 580 
Q 1338 1288 1338 2009 
Q 1338 2731 1133 3434 
Q 928 4138 513 4856 
z
" transform="scale(0.015625)"/>
     </defs>
     <use xlink:href="#DejaVuSans-53" transform="translate(0 0.765625)"/>
     <use xlink:href="#DejaVuSans-63" transform="translate(63.476562 0.765625)"/>
     <use xlink:href="#DejaVuSans-65" transform="translate(118.457031 0.765625)"/>
     <use xlink:href="#DejaVuSans-6e" transform="translate(179.980469 0.765625)"/>
     <use xlink:href="#DejaVuSans-61" transform="translate(243.359375 0.765625)"/>
     <use xlink:href="#DejaVuSans-72" transform="translate(304.638672 0.765625)"/>
     <use xlink:href="#DejaVuSans-69" transform="translate(345.751953 0.765625)"/>
     <use xlink:href="#DejaVuSans-6f" transform="translate(373.535156 0.765625)"/>
     <use xlink:href="#DejaVuSans-20" transform="translate(434.716797 0.765625)"/>
     <use xlink:href="#DejaVuSans-41" transform="translate(466.503906 0.765625)"/>
     <use xlink:href="#DejaVuSans-3a" transform="translate(534.912109 0.765625)"/>
     <use xlink:href="#DejaVuSans-20" transform="translate(568.603516 0.765625)"/>
     <use xlink:href="#DejaVuSans-4f" transform="translate(600.390625 0.765625)"/>
     <use xlink:href="#DejaVuSans-70" transform="translate(679.101562 0.765625)"/>
     <use xlink:href="#DejaVuSans-74" transform="translate(742.578125 0.765625)"/>
     <use xlink:href="#DejaVuSans-69" transform="translate(781.787109 0.765625)"/>
     <use xlink:href="#DejaVuSans-6d" transform="translate(809.570312 0.765625)"/>
     <use xlink:href="#DejaVuSans-61" transform="translate(906.982422 0.765625)"/>
     <use xlink:href="#DejaVuSans-6c" transform="translate(968.261719 0.765625)"/>
     <use xlink:href="#DejaVuSans-20" transform="translate(996.044922 0.765625)"/>
     <use xlink:href="#DejaVuSans-Oblique-61" transform="translate(1027.832031 0.765625)"/>
     <use xlink:href="#DejaVuSans-2a" transform="translate(1107.398919 39.046875) scale(0.7)"/>
     <use xlink:href="#DejaVuSans-Oblique-7a" transform="translate(1089.111328 -26.578125) scale(0.7)"/>
     <use xlink:href="#DejaVuSans-20" transform="translate(1158.77099 0.765625)"/>
     <use xlink:href="#DejaVuSans-76" transform="translate(1190.558099 0.765625)"/>
     <use xlink:href="#DejaVuSans-73" transform="translate(1249.737786 0.765625)"/>
     <use xlink:href="#DejaVuSans-20" transform="translate(1301.837396 0.765625)"/>
     <use xlink:href="#DejaVuSans-Oblique-3c9" transform="translate(1333.624505 0.765625)"/>
     <use xlink:href="#DejaVuSans-20" transform="translate(1417.36474 0.765625)"/>
     <use xlink:href="#DejaVuSans-20" transform="translate(1449.151849 0.765625)"/>
     <use xlink:href="#DejaVuSans-28" transform="translate(1480.938958 0.765625)"/>
     <use xlink:href="#DejaVuSans-34" transform="translate(1519.95263 0.765625)"/>
     <use xlink:href="#DejaVuSans-38" transform="translate(1583.575677 0.765625)"/>
     <use xlink:href="#DejaVuSans-37" transform="translate(1647.198724 0.765625)"/>
     <use xlink:href="#DejaVuSans-2f" transform="translate(1710.821771 0.765625)"/>
     <use xlink:href="#DejaVuSans-35" transform="translate(1744.513177 0.765625)"/>
     <use xlink:href="#DejaVuSans-30" transform="translate(1808.136224 0.765625)"/>
     <use xlink:href="#DejaVuSans-30" transform="translate(1871.759271 0.765625)"/>
     <use xlink:href="#DejaVuSans-20" transform="translate(1935.382318 0.765625)"/>
     <use xlink:href="#DejaVuSans-62" transform="translate(1967.169427 0.765625)"/>
     <use xlink:href="#DejaVuSans-6f" transform="translate(2030.64599 0.765625)"/>
     <use xlink:href="#DejaVuSans-75" transform="translate(2091.82763 0.765625)"/>
     <use xlink:href="#DejaVuSans-6e" transform="translate(2155.206536 0.765625)"/>
     <use xlink:href="#DejaVuSans-64" transform="translate(2218.585443 0.765625)"/>
     <use xlink:href="#DejaVuSans-2d" transform="translate(2282.062005 0.765625)"/>
     <use xlink:href="#DejaVuSans-73" transform="translate(2318.14599 0.765625)"/>
     <use xlink:href="#DejaVuSans-61" transform="translate(2370.245599 0.765625)"/>
     <use xlink:href="#DejaVuSans-74" transform="translate(2431.524896 0.765625)"/>
     <use xlink:href="#DejaVuSans-75" transform="translate(2470.73388 0.765625)"/>
     <use xlink:href="#DejaVuSans-72" transform="translate(2534.112786 0.765625)"/>
     <use xlink:href="#DejaVuSans-61" transform="translate(2575.226068 0.765625)"/>
     <use xlink:href="#DejaVuSans-74" transform="translate(2636.505365 0.765625)"/>
     <use xlink:href="#DejaVuSans-65" transform="translate(2675.714349 0.765625)"/>
     <use xlink:href="#DejaVuSans-64" transform="translate(2737.237786 0.765625)"/>
     <use xlink:href="#DejaVuSans-29" transform="translate(2800.714349 0.765625)"/>
    </g>
   </g>
   <g id="legend_1">
    <g id="patch_9">
     <path d="M 469.901719 149.179313 
L 549.740156 149.179313 
Q 551.540156 149.179313 551.540156 147.379313 
L 551.540156 106.648688 
Q 551.540156 104.848688 549.740156 104.848688 
L 469.901719 104.848688 
Q 468.101719 104.848688 468.101719 106.648688 
L 468.101719 147.379313 
Q 468.101719 149.179313 469.901719 149.179313 
z
" style="fill: #ffffff; opacity: 0.8; stroke: #cccccc; stroke-linejoin: miter"/>
    </g>
    <g id="line2d_15">
     <path d="M 471.701719 113.488688 
L 480.701719 113.488688 
L 489.701719 113.488688 
" style="fill: none; stroke: #55a868; stroke-width: 1.8; stroke-linecap: round"/>
     <g>
      <use xlink:href="#m1bdd445b8d" x="480.701719" y="113.488688" style="fill: #55a868; stroke: #55a868; stroke-linejoin: miter"/>
     </g>
    </g>
    <g id="text_15">
     <!-- $a_z^*$ -->
     <g style="fill: #262626" transform="translate(496.901719 116.638688) scale(0.09 -0.09)">
      <use xlink:href="#DejaVuSans-Oblique-61" transform="translate(0 0.765625)"/>
      <use xlink:href="#DejaVuSans-2a" transform="translate(79.566888 39.046875) scale(0.7)"/>
      <use xlink:href="#DejaVuSans-Oblique-7a" transform="translate(61.279297 -26.578125) scale(0.7)"/>
     </g>
    </g>
    <g id="line2d_16">
     <path d="M 471.701719 127.347281 
L 480.701719 127.347281 
L 489.701719 127.347281 
" style="fill: none; stroke-dasharray: 1,1.65; stroke-dashoffset: 0; stroke: #808080; stroke-opacity: 0.5"/>
    </g>
    <g id="text_16">
     <!-- Bound = -5 -->
     <g style="fill: #262626" transform="translate(496.901719 130.497281) scale(0.09 -0.09)">
      <defs>
       <path id="DejaVuSans-42" d="M 1259 2228 
L 1259 519 
L 2272 519 
Q 2781 519 3026 730 
Q 3272 941 3272 1375 
Q 3272 1813 3026 2020 
Q 2781 2228 2272 2228 
L 1259 2228 
z
M 1259 4147 
L 1259 2741 
L 2194 2741 
Q 2656 2741 2882 2914 
Q 3109 3088 3109 3444 
Q 3109 3797 2882 3972 
Q 2656 4147 2194 4147 
L 1259 4147 
z
M 628 4666 
L 2241 4666 
Q 2963 4666 3353 4366 
Q 3744 4066 3744 3513 
Q 3744 3084 3544 2831 
Q 3344 2578 2956 2516 
Q 3422 2416 3680 2098 
Q 3938 1781 3938 1306 
Q 3938 681 3513 340 
Q 3088 0 2303 0 
L 628 0 
L 628 4666 
z
" transform="scale(0.015625)"/>
       <path id="DejaVuSans-3d" d="M 678 2906 
L 4684 2906 
L 4684 2381 
L 678 2381 
L 678 2906 
z
M 678 1631 
L 4684 1631 
L 4684 1100 
L 678 1100 
L 678 1631 
z
" transform="scale(0.015625)"/>
      </defs>
      <use xlink:href="#DejaVuSans-42"/>
      <use xlink:href="#DejaVuSans-6f" transform="translate(68.603516 0)"/>
      <use xlink:href="#DejaVuSans-75" transform="translate(129.785156 0)"/>
      <use xlink:href="#DejaVuSans-6e" transform="translate(193.164062 0)"/>
      <use xlink:href="#DejaVuSans-64" transform="translate(256.542969 0)"/>
      <use xlink:href="#DejaVuSans-20" transform="translate(320.019531 0)"/>
      <use xlink:href="#DejaVuSans-3d" transform="translate(351.806641 0)"/>
      <use xlink:href="#DejaVuSans-20" transform="translate(435.595703 0)"/>
      <use xlink:href="#DejaVuSans-2d" transform="translate(467.382812 0)"/>
      <use xlink:href="#DejaVuSans-35" transform="translate(503.466797 0)"/>
     </g>
    </g>
    <g id="line2d_17">
     <path d="M 471.701719 140.557594 
L 480.701719 140.557594 
L 489.701719 140.557594 
" style="fill: none; stroke-dasharray: 1,1.65; stroke-dashoffset: 0; stroke: #808080; stroke-opacity: 0.5"/>
    </g>
    <g id="text_17">
     <!-- Bound = 5 -->
     <g style="fill: #262626" transform="translate(496.901719 143.707594) scale(0.09 -0.09)">
      <use xlink:href="#DejaVuSans-42"/>
      <use xlink:href="#DejaVuSans-6f" transform="translate(68.603516 0)"/>
      <use xlink:href="#DejaVuSans-75" transform="translate(129.785156 0)"/>
      <use xlink:href="#DejaVuSans-6e" transform="translate(193.164062 0)"/>
      <use xlink:href="#DejaVuSans-64" transform="translate(256.542969 0)"/>
      <use xlink:href="#DejaVuSans-20" transform="translate(320.019531 0)"/>
      <use xlink:href="#DejaVuSans-3d" transform="translate(351.806641 0)"/>
      <use xlink:href="#DejaVuSans-20" transform="translate(435.595703 0)"/>
      <use xlink:href="#DejaVuSans-35" transform="translate(467.382812 0)"/>
     </g>
    </g>
   </g>
  </g>
 </g>
 <defs>
  <clipPath id="p7cf5688ce9">
   <rect x="48.530156" y="24.12" width="507.51" height="205.788"/>
  </clipPath>
 </defs>
</svg>
