<?xml version="1.0" encoding="utf-8" standalone="no"?>
<!DOCTYPE svg PUBLIC "-//W3C//DTD SVG 1.1//EN"
  "http://www.w3.org/Graphics/SVG/1.1/DTD/svg11.dtd">
<svg xmlns:xlink="http://www.w3.org/1999/xlink" width="993.705937pt" height="705.539687pt" viewBox="0 0 993.705937 705.539687" xmlns="http://www.w3.org/2000/svg" version="1.1">
 <metadata>
  <rdf:RDF xmlns:dc="http://purl.org/dc/elements/1.1/" xmlns:cc="http://creativecommons.org/ns#" xmlns:rdf="http://www.w3.org/1999/02/22-rdf-syntax-ns#">
   <cc:Work>
    <dc:type rdf:resource="http://purl.org/dc/dcmitype/StillImage"/>
    <dc:date>2026-06-21T04:53:49.239235</dc:date>
    <dc:format>image/svg+xml</dc:format>
    <dc:creator>
     <cc:Agent>
      <dc:title>Matplotlib v3.10.9, https://matplotlib.org/</dc:title>
     </cc:Agent>
    </dc:creator>
   </cc:Work>
  </rdf:RDF>
 </metadata>
 <defs>
  <style type="text/css">*{stroke-linejoin: round; stroke-linecap: butt}</style>
 </defs>
 <g id="figure_1">
  <g id="patch_1">
   <path d="M 0 705.539687 
L 993.705937 705.539687 
L 993.705937 0 
L 0 0 
z
" style="fill: #ffffff"/>
  </g>
  <g id="axes_1">
   <g id="patch_2">
    <path d="M 56.805938 349.578 
L 515.175938 349.578 
L 515.175938 65.616 
L 56.805938 65.616 
z
" style="fill: #ffffff"/>
   </g>
   <g id="matplotlib.axis_1">
    <g id="xtick_1">
     <g id="line2d_1">
      <path d="M 123.940938 349.578 
L 123.940938 65.616 
" clip-path="url(#p8c37bf35df)" style="fill: none; stroke: #cccccc; stroke-linecap: round"/>
     </g>
    </g>
    <g id="xtick_2">
     <g id="line2d_2">
      <path d="M 216.540938 349.578 
L 216.540938 65.616 
" clip-path="url(#p8c37bf35df)" style="fill: none; stroke: #cccccc; stroke-linecap: round"/>
     </g>
    </g>
    <g id="xtick_3">
     <g id="line2d_3">
      <path d="M 309.140938 349.578 
L 309.140938 65.616 
" clip-path="url(#p8c37bf35df)" style="fill: none; stroke: #cccccc; stroke-linecap: round"/>
     </g>
    </g>
    <g id="xtick_4">
     <g id="line2d_4">
      <path d="M 401.740938 349.578 
L 401.740938 65.616 
" clip-path="url(#p8c37bf35df)" style="fill: none; stroke: #cccccc; stroke-linecap: round"/>
     </g>
    </g>
    <g id="xtick_5">
     <g id="line2d_5">
      <path d="M 494.340938 349.578 
L 494.340938 65.616 
" clip-path="url(#p8c37bf35df)" style="fill: none; stroke: #cccccc; stroke-linecap: round"/>
     </g>
    </g>
   </g>
   <g id="matplotlib.axis_2">
    <g id="ytick_1">
     <g id="line2d_6">
      <path d="M 56.805938 310.855909 
L 515.175938 310.855909 
" clip-path="url(#p8c37bf35df)" style="fill: none; stroke: #cccccc; stroke-linecap: round"/>
     </g>
     <g id="text_1">
      <!-- 0.96 -->
      <g style="fill: #262626" transform="translate(22.81375 315.03505) scale(0.11 -0.11)">
       <defs>
        <path id="DejaVuSans-30" d="M 2034 4250 
Q 1547 4250 1301 3770 
Q 1056 3291 1056 2328 
Q 1056 1369 1301 889 
Q 1547 409 2034 409 
Q 2525 409 2770 889 
Q 3016 1369 3016 2328 
Q 3016 3291 2770 3770 
Q 2525 4250 2034 4250 
z
M 2034 4750 
Q 2819 4750 3233 4129 
Q 3647 3509 3647 2328 
Q 3647 1150 3233 529 
Q 2819 -91 2034 -91 
Q 1250 -91 836 529 
Q 422 1150 422 2328 
Q 422 3509 836 4129 
Q 1250 4750 2034 4750 
z
" transform="scale(0.015625)"/>
        <path id="DejaVuSans-2e" d="M 684 794 
L 1344 794 
L 1344 0 
L 684 0 
L 684 794 
z
" transform="scale(0.015625)"/>
        <path id="DejaVuSans-39" d="M 703 97 
L 703 672 
Q 941 559 1184 500 
Q 1428 441 1663 441 
Q 2288 441 2617 861 
Q 2947 1281 2994 2138 
Q 2813 1869 2534 1725 
Q 2256 1581 1919 1581 
Q 1219 1581 811 2004 
Q 403 2428 403 3163 
Q 403 3881 828 4315 
Q 1253 4750 1959 4750 
Q 2769 4750 3195 4129 
Q 3622 3509 3622 2328 
Q 3622 1225 3098 567 
Q 2575 -91 1691 -91 
Q 1453 -91 1209 -44 
Q 966 3 703 97 
z
M 1959 2075 
Q 2384 2075 2632 2365 
Q 2881 2656 2881 3163 
Q 2881 3666 2632 3958 
Q 2384 4250 1959 4250 
Q 1534 4250 1286 3958 
Q 1038 3666 1038 3163 
Q 1038 2656 1286 2365 
Q 1534 2075 1959 2075 
z
" transform="scale(0.015625)"/>
        <path id="DejaVuSans-36" d="M 2113 2584 
Q 1688 2584 1439 2293 
Q 1191 2003 1191 1497 
Q 1191 994 1439 701 
Q 1688 409 2113 409 
Q 2538 409 2786 701 
Q 3034 994 3034 1497 
Q 3034 2003 2786 2293 
Q 2538 2584 2113 2584 
z
M 3366 4563 
L 3366 3988 
Q 3128 4100 2886 4159 
Q 2644 4219 2406 4219 
Q 1781 4219 1451 3797 
Q 1122 3375 1075 2522 
Q 1259 2794 1537 2939 
Q 1816 3084 2150 3084 
Q 2853 3084 3261 2657 
Q 3669 2231 3669 1497 
Q 3669 778 3244 343 
Q 2819 -91 2113 -91 
Q 1303 -91 875 529 
Q 447 1150 447 2328 
Q 447 3434 972 4092 
Q 1497 4750 2381 4750 
Q 2619 4750 2861 4703 
Q 3103 4656 3366 4563 
z
" transform="scale(0.015625)"/>
       </defs>
       <use xlink:href="#DejaVuSans-30"/>
       <use xlink:href="#DejaVuSans-2e" transform="translate(63.623047 0)"/>
       <use xlink:href="#DejaVuSans-39" transform="translate(95.410156 0)"/>
       <use xlink:href="#DejaVuSans-36" transform="translate(159.033203 0)"/>
      </g>
     </g>
    </g>
    <g id="ytick_2">
     <g id="line2d_7">
      <path d="M 56.805938 259.226455 
L 515.175938 259.226455 
" clip-path="url(#p8c37bf35df)" style="fill: none; stroke: #cccccc; stroke-linecap: round"/>
     </g>
     <g id="text_2">
      <!-- 0.98 -->
      <g style="fill: #262626" transform="translate(22.81375 263.405595) scale(0.11 -0.11)">
       <defs>
        <path id="DejaVuSans-38" d="M 2034 2216 
Q 1584 2216 1326 1975 
Q 1069 1734 1069 1313 
Q 1069 891 1326 650 
Q 1584 409 2034 409 
Q 2484 409 2743 651 
Q 3003 894 3003 1313 
Q 3003 1734 2745 1975 
Q 2488 2216 2034 2216 
z
M 1403 2484 
Q 997 2584 770 2862 
Q 544 3141 544 3541 
Q 544 4100 942 4425 
Q 1341 4750 2034 4750 
Q 2731 4750 3128 4425 
Q 3525 4100 3525 3541 
Q 3525 3141 3298 2862 
Q 3072 2584 2669 2484 
Q 3125 2378 3379 2068 
Q 3634 1759 3634 1313 
Q 3634 634 3220 271 
Q 2806 -91 2034 -91 
Q 1263 -91 848 271 
Q 434 634 434 1313 
Q 434 1759 690 2068 
Q 947 2378 1403 2484 
z
M 1172 3481 
Q 1172 3119 1398 2916 
Q 1625 2713 2034 2713 
Q 2441 2713 2670 2916 
Q 2900 3119 2900 3481 
Q 2900 3844 2670 4047 
Q 2441 4250 2034 4250 
Q 1625 4250 1398 4047 
Q 1172 3844 1172 3481 
z
" transform="scale(0.015625)"/>
       </defs>
       <use xlink:href="#DejaVuSans-30"/>
       <use xlink:href="#DejaVuSans-2e" transform="translate(63.623047 0)"/>
       <use xlink:href="#DejaVuSans-39" transform="translate(95.410156 0)"/>
       <use xlink:href="#DejaVuSans-38" transform="translate(159.033203 0)"/>
      </g>
     </g>
    </g>
    <g id="ytick_3">
     <g id="line2d_8">
      <path d="M 56.805938 207.597 
L 515.175938 207.597 
" clip-path="url(#p8c37bf35df)" style="fill: none; stroke: #cccccc; stroke-linecap: round"/>
     </g>
     <g id="text_3">
      <!-- 1.00 -->
      <g style="fill: #262626" transform="translate(22.81375 211.776141) scale(0.11 -0.11)">
       <defs>
        <path id="DejaVuSans-31" d="M 794 531 
L 1825 531 
L 1825 4091 
L 703 3866 
L 703 4441 
L 1819 4666 
L 2450 4666 
L 2450 531 
L 3481 531 
L 3481 0 
L 794 0 
L 794 531 
z
" transform="scale(0.015625)"/>
       </defs>
       <use xlink:href="#DejaVuSans-31"/>
       <use xlink:href="#DejaVuSans-2e" transform="translate(63.623047 0)"/>
       <use xlink:href="#DejaVuSans-30" transform="translate(95.410156 0)"/>
       <use xlink:href="#DejaVuSans-30" transform="translate(159.033203 0)"/>
      </g>
     </g>
    </g>
    <g id="ytick_4">
     <g id="line2d_9">
      <path d="M 56.805938 155.967545 
L 515.175938 155.967545 
" clip-path="url(#p8c37bf35df)" style="fill: none; stroke: #cccccc; stroke-linecap: round"/>
     </g>
     <g id="text_4">
      <!-- 1.02 -->
      <g style="fill: #262626" transform="translate(22.81375 160.146686) scale(0.11 -0.11)">
       <defs>
        <path id="DejaVuSans-32" d="M 1228 531 
L 3431 531 
L 3431 0 
L 469 0 
L 469 531 
Q 828 903 1448 1529 
Q 2069 2156 2228 2338 
Q 2531 2678 2651 2914 
Q 2772 3150 2772 3378 
Q 2772 3750 2511 3984 
Q 2250 4219 1831 4219 
Q 1534 4219 1204 4116 
Q 875 4013 500 3803 
L 500 4441 
Q 881 4594 1212 4672 
Q 1544 4750 1819 4750 
Q 2544 4750 2975 4387 
Q 3406 4025 3406 3419 
Q 3406 3131 3298 2873 
Q 3191 2616 2906 2266 
Q 2828 2175 2409 1742 
Q 1991 1309 1228 531 
z
" transform="scale(0.015625)"/>
       </defs>
       <use xlink:href="#DejaVuSans-31"/>
       <use xlink:href="#DejaVuSans-2e" transform="translate(63.623047 0)"/>
       <use xlink:href="#DejaVuSans-30" transform="translate(95.410156 0)"/>
       <use xlink:href="#DejaVuSans-32" transform="translate(159.033203 0)"/>
      </g>
     </g>
    </g>
    <g id="ytick_5">
     <g id="line2d_10">
      <path d="M 56.805938 104.338091 
L 515.175938 104.338091 
" clip-path="url(#p8c37bf35df)" style="fill: none; stroke: #cccccc; stroke-linecap: round"/>
     </g>
     <g id="text_5">
      <!-- 1.04 -->
      <g style="fill: #262626" transform="translate(22.81375 108.517232) scale(0.11 -0.11)">
       <defs>
        <path id="DejaVuSans-34" d="M 2419 4116 
L 825 1625 
L 2419 1625 
L 2419 4116 
z
M 2253 4666 
L 3047 4666 
L 3047 1625 
L 3713 1625 
L 3713 1100 
L 3047 1100 
L 3047 0 
L 2419 0 
L 2419 1100 
L 313 1100 
L 313 1709 
L 2253 4666 
z
" transform="scale(0.015625)"/>
       </defs>
       <use xlink:href="#DejaVuSans-31"/>
       <use xlink:href="#DejaVuSans-2e" transform="translate(63.623047 0)"/>
       <use xlink:href="#DejaVuSans-30" transform="translate(95.410156 0)"/>
       <use xlink:href="#DejaVuSans-34" transform="translate(159.033203 0)"/>
      </g>
     </g>
    </g>
    <g id="text_6">
     <!-- R(N) = SQL/$\Delta\omega$ -->
     <g style="fill: #262626" transform="translate(16.318125 252.837) rotate(-90) scale(0.12 -0.12)">
      <defs>
       <path id="DejaVuSans-52" d="M 2841 2188 
Q 3044 2119 3236 1894 
Q 3428 1669 3622 1275 
L 4263 0 
L 3584 0 
L 2988 1197 
Q 2756 1666 2539 1819 
Q 2322 1972 1947 1972 
L 1259 1972 
L 1259 0 
L 628 0 
L 628 4666 
L 2053 4666 
Q 2853 4666 3247 4331 
Q 3641 3997 3641 3322 
Q 3641 2881 3436 2590 
Q 3231 2300 2841 2188 
z
M 1259 4147 
L 1259 2491 
L 2053 2491 
Q 2509 2491 2742 2702 
Q 2975 2913 2975 3322 
Q 2975 3731 2742 3939 
Q 2509 4147 2053 4147 
L 1259 4147 
z
" transform="scale(0.015625)"/>
       <path id="DejaVuSans-28" d="M 1984 4856 
Q 1566 4138 1362 3434 
Q 1159 2731 1159 2009 
Q 1159 1288 1364 580 
Q 1569 -128 1984 -844 
L 1484 -844 
Q 1016 -109 783 600 
Q 550 1309 550 2009 
Q 550 2706 781 3412 
Q 1013 4119 1484 4856 
L 1984 4856 
z
" transform="scale(0.015625)"/>
       <path id="DejaVuSans-4e" d="M 628 4666 
L 1478 4666 
L 3547 763 
L 3547 4666 
L 4159 4666 
L 4159 0 
L 3309 0 
L 1241 3903 
L 1241 0 
L 628 0 
L 628 4666 
z
" transform="scale(0.015625)"/>
       <path id="DejaVuSans-29" d="M 513 4856 
L 1013 4856 
Q 1481 4119 1714 3412 
Q 1947 2706 1947 2009 
Q 1947 1309 1714 600 
Q 1481 -109 1013 -844 
L 513 -844 
Q 928 -128 1133 580 
Q 1338 1288 1338 2009 
Q 1338 2731 1133 3434 
Q 928 4138 513 4856 
z
" transform="scale(0.015625)"/>
       <path id="DejaVuSans-20" transform="scale(0.015625)"/>
       <path id="DejaVuSans-3d" d="M 678 2906 
L 4684 2906 
L 4684 2381 
L 678 2381 
L 678 2906 
z
M 678 1631 
L 4684 1631 
L 4684 1100 
L 678 1100 
L 678 1631 
z
" transform="scale(0.015625)"/>
       <path id="DejaVuSans-53" d="M 3425 4513 
L 3425 3897 
Q 3066 4069 2747 4153 
Q 2428 4238 2131 4238 
Q 1616 4238 1336 4038 
Q 1056 3838 1056 3469 
Q 1056 3159 1242 3001 
Q 1428 2844 1947 2747 
L 2328 2669 
Q 3034 2534 3370 2195 
Q 3706 1856 3706 1288 
Q 3706 609 3251 259 
Q 2797 -91 1919 -91 
Q 1588 -91 1214 -16 
Q 841 59 441 206 
L 441 856 
Q 825 641 1194 531 
Q 1563 422 1919 422 
Q 2459 422 2753 634 
Q 3047 847 3047 1241 
Q 3047 1584 2836 1778 
Q 2625 1972 2144 2069 
L 1759 2144 
Q 1053 2284 737 2584 
Q 422 2884 422 3419 
Q 422 4038 858 4394 
Q 1294 4750 2059 4750 
Q 2388 4750 2728 4690 
Q 3069 4631 3425 4513 
z
" transform="scale(0.015625)"/>
       <path id="DejaVuSans-51" d="M 2522 4238 
Q 1834 4238 1429 3725 
Q 1025 3213 1025 2328 
Q 1025 1447 1429 934 
Q 1834 422 2522 422 
Q 3209 422 3611 934 
Q 4013 1447 4013 2328 
Q 4013 3213 3611 3725 
Q 3209 4238 2522 4238 
z
M 3406 84 
L 4238 -825 
L 3475 -825 
L 2784 -78 
Q 2681 -84 2626 -87 
Q 2572 -91 2522 -91 
Q 1538 -91 948 567 
Q 359 1225 359 2328 
Q 359 3434 948 4092 
Q 1538 4750 2522 4750 
Q 3503 4750 4090 4092 
Q 4678 3434 4678 2328 
Q 4678 1516 4351 937 
Q 4025 359 3406 84 
z
" transform="scale(0.015625)"/>
       <path id="DejaVuSans-4c" d="M 628 4666 
L 1259 4666 
L 1259 531 
L 3531 531 
L 3531 0 
L 628 0 
L 628 4666 
z
" transform="scale(0.015625)"/>
       <path id="DejaVuSans-2f" d="M 1625 4666 
L 2156 4666 
L 531 -594 
L 0 -594 
L 1625 4666 
z
" transform="scale(0.015625)"/>
       <path id="DejaVuSans-394" d="M 2188 4044 
L 906 525 
L 3472 525 
L 2188 4044 
z
M 50 0 
L 1831 4666 
L 2547 4666 
L 4325 0 
L 50 0 
z
" transform="scale(0.015625)"/>
       <path id="DejaVuSans-Oblique-3c9" d="M 1369 -91 
Q 72 -91 434 1766 
Q 575 2500 1256 3500 
L 1875 3500 
Q 1231 2500 1088 1750 
Q 819 397 1519 397 
Q 2166 397 2478 2078 
L 3009 2078 
Q 2669 388 3316 397 
Q 4013 403 4275 1750 
Q 4419 2500 4169 3500 
L 4788 3500 
Q 5075 2500 4934 1766 
Q 4578 -94 3278 -91 
Q 2428 -88 2503 844 
Q 2194 -91 1369 -91 
z
" transform="scale(0.015625)"/>
      </defs>
      <use xlink:href="#DejaVuSans-52" transform="translate(0 0.125)"/>
      <use xlink:href="#DejaVuSans-28" transform="translate(69.482422 0.125)"/>
      <use xlink:href="#DejaVuSans-4e" transform="translate(108.496094 0.125)"/>
      <use xlink:href="#DejaVuSans-29" transform="translate(183.300781 0.125)"/>
      <use xlink:href="#DejaVuSans-20" transform="translate(222.314453 0.125)"/>
      <use xlink:href="#DejaVuSans-3d" transform="translate(254.101562 0.125)"/>
      <use xlink:href="#DejaVuSans-20" transform="translate(337.890625 0.125)"/>
      <use xlink:href="#DejaVuSans-53" transform="translate(369.677734 0.125)"/>
      <use xlink:href="#DejaVuSans-51" transform="translate(433.154297 0.125)"/>
      <use xlink:href="#DejaVuSans-4c" transform="translate(511.865234 0.125)"/>
      <use xlink:href="#DejaVuSans-2f" transform="translate(567.578125 0.125)"/>
      <use xlink:href="#DejaVuSans-394" transform="translate(601.269531 0.125)"/>
      <use xlink:href="#DejaVuSans-Oblique-3c9" transform="translate(669.677734 0.125)"/>
     </g>
    </g>
   </g>
   <g id="line2d_11">
    <path d="M 77.640938 207.597 
L 123.940938 207.597 
L 170.240938 207.597 
L 216.540938 207.597 
L 262.840938 207.597 
L 309.140938 207.597 
L 355.440938 207.597 
L 401.740938 207.597 
L 448.040938 207.597 
L 494.340938 207.597 
" clip-path="url(#p8c37bf35df)" style="fill: none; stroke: #4c72b0; stroke-width: 1.2; stroke-linecap: round"/>
    <defs>
     <path id="m7715c6e550" d="M 0 2.5 
C 0.663008 2.5 1.29895 2.236584 1.767767 1.767767 
C 2.236584 1.29895 2.5 0.663008 2.5 0 
C 2.5 -0.663008 2.236584 -1.29895 1.767767 -1.767767 
C 1.29895 -2.236584 0.663008 -2.5 0 -2.5 
C -0.663008 -2.5 -1.29895 -2.236584 -1.767767 -1.767767 
C -2.236584 -1.29895 -2.5 -0.663008 -2.5 0 
C -2.5 0.663008 -2.236584 1.29895 -1.767767 1.767767 
C -1.29895 2.236584 -0.663008 2.5 0 2.5 
z
" style="stroke: #4c72b0"/>
    </defs>
    <g clip-path="url(#p8c37bf35df)">
     <use xlink:href="#m7715c6e550" x="77.640938" y="207.597" style="fill: #4c72b0; stroke: #4c72b0"/>
     <use xlink:href="#m7715c6e550" x="123.940938" y="207.597" style="fill: #4c72b0; stroke: #4c72b0"/>
     <use xlink:href="#m7715c6e550" x="170.240938" y="207.597" style="fill: #4c72b0; stroke: #4c72b0"/>
     <use xlink:href="#m7715c6e550" x="216.540938" y="207.597" style="fill: #4c72b0; stroke: #4c72b0"/>
     <use xlink:href="#m7715c6e550" x="262.840938" y="207.597" style="fill: #4c72b0; stroke: #4c72b0"/>
     <use xlink:href="#m7715c6e550" x="309.140938" y="207.597" style="fill: #4c72b0; stroke: #4c72b0"/>
     <use xlink:href="#m7715c6e550" x="355.440938" y="207.597" style="fill: #4c72b0; stroke: #4c72b0"/>
     <use xlink:href="#m7715c6e550" x="401.740938" y="207.597" style="fill: #4c72b0; stroke: #4c72b0"/>
     <use xlink:href="#m7715c6e550" x="448.040938" y="207.597" style="fill: #4c72b0; stroke: #4c72b0"/>
     <use xlink:href="#m7715c6e550" x="494.340938" y="207.597" style="fill: #4c72b0; stroke: #4c72b0"/>
    </g>
   </g>
   <g id="line2d_12">
    <path d="M 77.640938 207.597 
L 123.940938 207.597 
L 170.240938 207.597 
L 216.540938 207.597 
L 262.840938 207.597 
L 309.140938 207.597 
L 355.440938 207.597 
L 401.740938 207.597 
L 448.040938 207.597 
L 494.340938 207.597 
" clip-path="url(#p8c37bf35df)" style="fill: none; stroke: #dd8452; stroke-width: 1.2; stroke-linecap: round"/>
    <defs>
     <path id="m01cf4b6aa4" d="M 0 2.5 
C 0.663008 2.5 1.29895 2.236584 1.767767 1.767767 
C 2.236584 1.29895 2.5 0.663008 2.5 0 
C 2.5 -0.663008 2.236584 -1.29895 1.767767 -1.767767 
C 1.29895 -2.236584 0.663008 -2.5 0 -2.5 
C -0.663008 -2.5 -1.29895 -2.236584 -1.767767 -1.767767 
C -2.236584 -1.29895 -2.5 -0.663008 -2.5 0 
C -2.5 0.663008 -2.236584 1.29895 -1.767767 1.767767 
C -1.29895 2.236584 -0.663008 2.5 0 2.5 
z
" style="stroke: #dd8452"/>
    </defs>
    <g clip-path="url(#p8c37bf35df)">
     <use xlink:href="#m01cf4b6aa4" x="77.640938" y="207.597" style="fill: #dd8452; stroke: #dd8452"/>
     <use xlink:href="#m01cf4b6aa4" x="123.940938" y="207.597" style="fill: #dd8452; stroke: #dd8452"/>
     <use xlink:href="#m01cf4b6aa4" x="170.240938" y="207.597" style="fill: #dd8452; stroke: #dd8452"/>
     <use xlink:href="#m01cf4b6aa4" x="216.540938" y="207.597" style="fill: #dd8452; stroke: #dd8452"/>
     <use xlink:href="#m01cf4b6aa4" x="262.840938" y="207.597" style="fill: #dd8452; stroke: #dd8452"/>
     <use xlink:href="#m01cf4b6aa4" x="309.140938" y="207.597" style="fill: #dd8452; stroke: #dd8452"/>
     <use xlink:href="#m01cf4b6aa4" x="355.440938" y="207.597" style="fill: #dd8452; stroke: #dd8452"/>
     <use xlink:href="#m01cf4b6aa4" x="401.740938" y="207.597" style="fill: #dd8452; stroke: #dd8452"/>
     <use xlink:href="#m01cf4b6aa4" x="448.040938" y="207.597" style="fill: #dd8452; stroke: #dd8452"/>
     <use xlink:href="#m01cf4b6aa4" x="494.340938" y="207.597" style="fill: #dd8452; stroke: #dd8452"/>
    </g>
   </g>
   <g id="line2d_13">
    <path d="M 77.640938 207.597 
L 123.940938 207.597 
L 170.240938 207.597 
L 216.540938 207.597 
L 262.840938 207.597 
L 309.140938 207.597 
L 355.440938 207.597 
L 401.740938 207.597 
L 448.040938 207.597 
L 494.340938 207.597 
" clip-path="url(#p8c37bf35df)" style="fill: none; stroke: #55a868; stroke-width: 1.2; stroke-linecap: round"/>
    <defs>
     <path id="m92e017ec6b" d="M 0 2.5 
C 0.663008 2.5 1.29895 2.236584 1.767767 1.767767 
C 2.236584 1.29895 2.5 0.663008 2.5 0 
C 2.5 -0.663008 2.236584 -1.29895 1.767767 -1.767767 
C 1.29895 -2.236584 0.663008 -2.5 0 -2.5 
C -0.663008 -2.5 -1.29895 -2.236584 -1.767767 -1.767767 
C -2.236584 -1.29895 -2.5 -0.663008 -2.5 0 
C -2.5 0.663008 -2.236584 1.29895 -1.767767 1.767767 
C -1.29895 2.236584 -0.663008 2.5 0 2.5 
z
" style="stroke: #55a868"/>
    </defs>
    <g clip-path="url(#p8c37bf35df)">
     <use xlink:href="#m92e017ec6b" x="77.640938" y="207.597" style="fill: #55a868; stroke: #55a868"/>
     <use xlink:href="#m92e017ec6b" x="123.940938" y="207.597" style="fill: #55a868; stroke: #55a868"/>
     <use xlink:href="#m92e017ec6b" x="170.240938" y="207.597" style="fill: #55a868; stroke: #55a868"/>
     <use xlink:href="#m92e017ec6b" x="216.540938" y="207.597" style="fill: #55a868; stroke: #55a868"/>
     <use xlink:href="#m92e017ec6b" x="262.840938" y="207.597" style="fill: #55a868; stroke: #55a868"/>
     <use xlink:href="#m92e017ec6b" x="309.140938" y="207.597" style="fill: #55a868; stroke: #55a868"/>
     <use xlink:href="#m92e017ec6b" x="355.440938" y="207.597" style="fill: #55a868; stroke: #55a868"/>
     <use xlink:href="#m92e017ec6b" x="401.740938" y="207.597" style="fill: #55a868; stroke: #55a868"/>
     <use xlink:href="#m92e017ec6b" x="448.040938" y="207.597" style="fill: #55a868; stroke: #55a868"/>
     <use xlink:href="#m92e017ec6b" x="494.340938" y="207.597" style="fill: #55a868; stroke: #55a868"/>
    </g>
   </g>
   <g id="line2d_14">
    <path d="M 77.640938 207.597 
L 123.940938 207.597 
L 170.240938 207.597 
L 216.540938 207.597 
L 262.840938 207.597 
L 309.140938 207.597 
L 355.440938 207.597 
L 401.740938 207.597 
L 448.040938 207.597 
L 494.340938 207.597 
" clip-path="url(#p8c37bf35df)" style="fill: none; stroke: #c44e52; stroke-width: 1.2; stroke-linecap: round"/>
    <defs>
     <path id="mb37538d1cd" d="M 0 2.5 
C 0.663008 2.5 1.29895 2.236584 1.767767 1.767767 
C 2.236584 1.29895 2.5 0.663008 2.5 0 
C 2.5 -0.663008 2.236584 -1.29895 1.767767 -1.767767 
C 1.29895 -2.236584 0.663008 -2.5 0 -2.5 
C -0.663008 -2.5 -1.29895 -2.236584 -1.767767 -1.767767 
C -2.236584 -1.29895 -2.5 -0.663008 -2.5 0 
C -2.5 0.663008 -2.236584 1.29895 -1.767767 1.767767 
C -1.29895 2.236584 -0.663008 2.5 0 2.5 
z
" style="stroke: #c44e52"/>
    </defs>
    <g clip-path="url(#p8c37bf35df)">
     <use xlink:href="#mb37538d1cd" x="77.640938" y="207.597" style="fill: #c44e52; stroke: #c44e52"/>
     <use xlink:href="#mb37538d1cd" x="123.940938" y="207.597" style="fill: #c44e52; stroke: #c44e52"/>
     <use xlink:href="#mb37538d1cd" x="170.240938" y="207.597" style="fill: #c44e52; stroke: #c44e52"/>
     <use xlink:href="#mb37538d1cd" x="216.540938" y="207.597" style="fill: #c44e52; stroke: #c44e52"/>
     <use xlink:href="#mb37538d1cd" x="262.840938" y="207.597" style="fill: #c44e52; stroke: #c44e52"/>
     <use xlink:href="#mb37538d1cd" x="309.140938" y="207.597" style="fill: #c44e52; stroke: #c44e52"/>
     <use xlink:href="#mb37538d1cd" x="355.440938" y="207.597" style="fill: #c44e52; stroke: #c44e52"/>
     <use xlink:href="#mb37538d1cd" x="401.740938" y="207.597" style="fill: #c44e52; stroke: #c44e52"/>
     <use xlink:href="#mb37538d1cd" x="448.040938" y="207.597" style="fill: #c44e52; stroke: #c44e52"/>
     <use xlink:href="#mb37538d1cd" x="494.340938" y="207.597" style="fill: #c44e52; stroke: #c44e52"/>
    </g>
   </g>
   <g id="line2d_15">
    <path d="M 56.805938 207.597 
L 515.175938 207.597 
" clip-path="url(#p8c37bf35df)" style="fill: none; stroke-dasharray: 5.55,2.4; stroke-dashoffset: 0; stroke: #808080; stroke-opacity: 0.7; stroke-width: 1.5"/>
   </g>
   <g id="patch_3">
    <path d="M 56.805938 349.578 
L 56.805938 65.616 
" style="fill: none; stroke: #cccccc; stroke-width: 1.25; stroke-linejoin: miter; stroke-linecap: square"/>
   </g>
   <g id="patch_4">
    <path d="M 515.175938 349.578 
L 515.175938 65.616 
" style="fill: none; stroke: #cccccc; stroke-width: 1.25; stroke-linejoin: miter; stroke-linecap: square"/>
   </g>
   <g id="patch_5">
    <path d="M 56.805937 349.578 
L 515.175938 349.578 
" style="fill: none; stroke: #cccccc; stroke-width: 1.25; stroke-linejoin: miter; stroke-linecap: square"/>
   </g>
   <g id="patch_6">
    <path d="M 56.805937 65.616 
L 515.175938 65.616 
" style="fill: none; stroke: #cccccc; stroke-width: 1.25; stroke-linejoin: miter; stroke-linecap: square"/>
   </g>
   <g id="text_7">
    <!-- $\omega=0.1$ -->
    <g style="fill: #262626" transform="translate(264.030938 59.616) scale(0.12 -0.12)">
     <use xlink:href="#DejaVuSans-Oblique-3c9" transform="translate(0 0.78125)"/>
     <use xlink:href="#DejaVuSans-3d" transform="translate(103.222656 0.78125)"/>
     <use xlink:href="#DejaVuSans-30" transform="translate(206.494141 0.78125)"/>
     <use xlink:href="#DejaVuSans-2e" transform="translate(270.117188 0.78125)"/>
     <use xlink:href="#DejaVuSans-31" transform="translate(301.904297 0.78125)"/>
    </g>
   </g>
   <g id="legend_1">
    <g id="patch_7">
     <path d="M 434.555938 118.986 
L 509.575937 118.986 
Q 511.175937 118.986 511.175937 117.386 
L 511.175937 71.216 
Q 511.175937 69.616 509.575937 69.616 
L 434.555938 69.616 
Q 432.955938 69.616 432.955938 71.216 
L 432.955938 117.386 
Q 432.955938 118.986 434.555938 118.986 
z
" style="fill: #ffffff; opacity: 0.8; stroke: #cccccc; stroke-linejoin: miter"/>
    </g>
    <g id="line2d_16">
     <path d="M 436.155937 76.09475 
L 444.155937 76.09475 
L 452.155937 76.09475 
" style="fill: none; stroke: #4c72b0; stroke-width: 1.2; stroke-linecap: round"/>
     <g>
      <use xlink:href="#m7715c6e550" x="444.155937" y="76.09475" style="fill: #4c72b0; stroke: #4c72b0"/>
     </g>
    </g>
    <g id="text_8">
     <!-- M=1 (J=1/2) -->
     <g style="fill: #262626" transform="translate(458.555937 78.89475) scale(0.08 -0.08)">
      <defs>
       <path id="DejaVuSans-4d" d="M 628 4666 
L 1569 4666 
L 2759 1491 
L 3956 4666 
L 4897 4666 
L 4897 0 
L 4281 0 
L 4281 4097 
L 3078 897 
L 2444 897 
L 1241 4097 
L 1241 0 
L 628 0 
L 628 4666 
z
" transform="scale(0.015625)"/>
       <path id="DejaVuSans-4a" d="M 628 4666 
L 1259 4666 
L 1259 325 
Q 1259 -519 939 -900 
Q 619 -1281 -91 -1281 
L -331 -1281 
L -331 -750 
L -134 -750 
Q 284 -750 456 -515 
Q 628 -281 628 325 
L 628 4666 
z
" transform="scale(0.015625)"/>
      </defs>
      <use xlink:href="#DejaVuSans-4d"/>
      <use xlink:href="#DejaVuSans-3d" transform="translate(86.279297 0)"/>
      <use xlink:href="#DejaVuSans-31" transform="translate(170.068359 0)"/>
      <use xlink:href="#DejaVuSans-20" transform="translate(233.691406 0)"/>
      <use xlink:href="#DejaVuSans-28" transform="translate(265.478516 0)"/>
      <use xlink:href="#DejaVuSans-4a" transform="translate(304.492188 0)"/>
      <use xlink:href="#DejaVuSans-3d" transform="translate(333.984375 0)"/>
      <use xlink:href="#DejaVuSans-31" transform="translate(417.773438 0)"/>
      <use xlink:href="#DejaVuSans-2f" transform="translate(481.396484 0)"/>
      <use xlink:href="#DejaVuSans-32" transform="translate(515.087891 0)"/>
      <use xlink:href="#DejaVuSans-29" transform="translate(578.710938 0)"/>
     </g>
    </g>
    <g id="line2d_17">
     <path d="M 436.155937 87.83725 
L 444.155937 87.83725 
L 452.155937 87.83725 
" style="fill: none; stroke: #dd8452; stroke-width: 1.2; stroke-linecap: round"/>
     <g>
      <use xlink:href="#m01cf4b6aa4" x="444.155937" y="87.83725" style="fill: #dd8452; stroke: #dd8452"/>
     </g>
    </g>
    <g id="text_9">
     <!-- M=2 (J=1) -->
     <g style="fill: #262626" transform="translate(458.555937 90.63725) scale(0.08 -0.08)">
      <use xlink:href="#DejaVuSans-4d"/>
      <use xlink:href="#DejaVuSans-3d" transform="translate(86.279297 0)"/>
      <use xlink:href="#DejaVuSans-32" transform="translate(170.068359 0)"/>
      <use xlink:href="#DejaVuSans-20" transform="translate(233.691406 0)"/>
      <use xlink:href="#DejaVuSans-28" transform="translate(265.478516 0)"/>
      <use xlink:href="#DejaVuSans-4a" transform="translate(304.492188 0)"/>
      <use xlink:href="#DejaVuSans-3d" transform="translate(333.984375 0)"/>
      <use xlink:href="#DejaVuSans-31" transform="translate(417.773438 0)"/>
      <use xlink:href="#DejaVuSans-29" transform="translate(481.396484 0)"/>
     </g>
    </g>
    <g id="line2d_18">
     <path d="M 436.155937 99.57975 
L 444.155937 99.57975 
L 452.155937 99.57975 
" style="fill: none; stroke: #55a868; stroke-width: 1.2; stroke-linecap: round"/>
     <g>
      <use xlink:href="#m92e017ec6b" x="444.155937" y="99.57975" style="fill: #55a868; stroke: #55a868"/>
     </g>
    </g>
    <g id="text_10">
     <!-- M=3 (J=3/2) -->
     <g style="fill: #262626" transform="translate(458.555937 102.37975) scale(0.08 -0.08)">
      <defs>
       <path id="DejaVuSans-33" d="M 2597 2516 
Q 3050 2419 3304 2112 
Q 3559 1806 3559 1356 
Q 3559 666 3084 287 
Q 2609 -91 1734 -91 
Q 1441 -91 1130 -33 
Q 819 25 488 141 
L 488 750 
Q 750 597 1062 519 
Q 1375 441 1716 441 
Q 2309 441 2620 675 
Q 2931 909 2931 1356 
Q 2931 1769 2642 2001 
Q 2353 2234 1838 2234 
L 1294 2234 
L 1294 2753 
L 1863 2753 
Q 2328 2753 2575 2939 
Q 2822 3125 2822 3475 
Q 2822 3834 2567 4026 
Q 2313 4219 1838 4219 
Q 1578 4219 1281 4162 
Q 984 4106 628 3988 
L 628 4550 
Q 988 4650 1302 4700 
Q 1616 4750 1894 4750 
Q 2613 4750 3031 4423 
Q 3450 4097 3450 3541 
Q 3450 3153 3228 2886 
Q 3006 2619 2597 2516 
z
" transform="scale(0.015625)"/>
      </defs>
      <use xlink:href="#DejaVuSans-4d"/>
      <use xlink:href="#DejaVuSans-3d" transform="translate(86.279297 0)"/>
      <use xlink:href="#DejaVuSans-33" transform="translate(170.068359 0)"/>
      <use xlink:href="#DejaVuSans-20" transform="translate(233.691406 0)"/>
      <use xlink:href="#DejaVuSans-28" transform="translate(265.478516 0)"/>
      <use xlink:href="#DejaVuSans-4a" transform="translate(304.492188 0)"/>
      <use xlink:href="#DejaVuSans-3d" transform="translate(333.984375 0)"/>
      <use xlink:href="#DejaVuSans-33" transform="translate(417.773438 0)"/>
      <use xlink:href="#DejaVuSans-2f" transform="translate(481.396484 0)"/>
      <use xlink:href="#DejaVuSans-32" transform="translate(515.087891 0)"/>
      <use xlink:href="#DejaVuSans-29" transform="translate(578.710938 0)"/>
     </g>
    </g>
    <g id="line2d_19">
     <path d="M 436.155937 111.32225 
L 444.155937 111.32225 
L 452.155937 111.32225 
" style="fill: none; stroke: #c44e52; stroke-width: 1.2; stroke-linecap: round"/>
     <g>
      <use xlink:href="#mb37538d1cd" x="444.155937" y="111.32225" style="fill: #c44e52; stroke: #c44e52"/>
     </g>
    </g>
    <g id="text_11">
     <!-- M=4 (J=2) -->
     <g style="fill: #262626" transform="translate(458.555937 114.12225) scale(0.08 -0.08)">
      <use xlink:href="#DejaVuSans-4d"/>
      <use xlink:href="#DejaVuSans-3d" transform="translate(86.279297 0)"/>
      <use xlink:href="#DejaVuSans-34" transform="translate(170.068359 0)"/>
      <use xlink:href="#DejaVuSans-20" transform="translate(233.691406 0)"/>
      <use xlink:href="#DejaVuSans-28" transform="translate(265.478516 0)"/>
      <use xlink:href="#DejaVuSans-4a" transform="translate(304.492188 0)"/>
      <use xlink:href="#DejaVuSans-3d" transform="translate(333.984375 0)"/>
      <use xlink:href="#DejaVuSans-32" transform="translate(417.773438 0)"/>
      <use xlink:href="#DejaVuSans-29" transform="translate(481.396484 0)"/>
     </g>
    </g>
   </g>
  </g>
  <g id="axes_2">
   <g id="patch_8">
    <path d="M 528.135937 349.578 
L 986.505937 349.578 
L 986.505937 65.616 
L 528.135937 65.616 
z
" style="fill: #ffffff"/>
   </g>
   <g id="matplotlib.axis_3">
    <g id="xtick_6">
     <g id="line2d_20">
      <path d="M 595.270937 349.578 
L 595.270937 65.616 
" clip-path="url(#p885de7b0f9)" style="fill: none; stroke: #cccccc; stroke-linecap: round"/>
     </g>
    </g>
    <g id="xtick_7">
     <g id="line2d_21">
      <path d="M 687.870937 349.578 
L 687.870937 65.616 
" clip-path="url(#p885de7b0f9)" style="fill: none; stroke: #cccccc; stroke-linecap: round"/>
     </g>
    </g>
    <g id="xtick_8">
     <g id="line2d_22">
      <path d="M 780.470937 349.578 
L 780.470937 65.616 
" clip-path="url(#p885de7b0f9)" style="fill: none; stroke: #cccccc; stroke-linecap: round"/>
     </g>
    </g>
    <g id="xtick_9">
     <g id="line2d_23">
      <path d="M 873.070937 349.578 
L 873.070937 65.616 
" clip-path="url(#p885de7b0f9)" style="fill: none; stroke: #cccccc; stroke-linecap: round"/>
     </g>
    </g>
    <g id="xtick_10">
     <g id="line2d_24">
      <path d="M 965.670938 349.578 
L 965.670938 65.616 
" clip-path="url(#p885de7b0f9)" style="fill: none; stroke: #cccccc; stroke-linecap: round"/>
     </g>
    </g>
   </g>
   <g id="matplotlib.axis_4">
    <g id="ytick_6">
     <g id="line2d_25">
      <path d="M 528.135937 310.855909 
L 986.505937 310.855909 
" clip-path="url(#p885de7b0f9)" style="fill: none; stroke: #cccccc; stroke-linecap: round"/>
     </g>
    </g>
    <g id="ytick_7">
     <g id="line2d_26">
      <path d="M 528.135937 259.226455 
L 986.505937 259.226455 
" clip-path="url(#p885de7b0f9)" style="fill: none; stroke: #cccccc; stroke-linecap: round"/>
     </g>
    </g>
    <g id="ytick_8">
     <g id="line2d_27">
      <path d="M 528.135937 207.597 
L 986.505937 207.597 
" clip-path="url(#p885de7b0f9)" style="fill: none; stroke: #cccccc; stroke-linecap: round"/>
     </g>
    </g>
    <g id="ytick_9">
     <g id="line2d_28">
      <path d="M 528.135937 155.967545 
L 986.505937 155.967545 
" clip-path="url(#p885de7b0f9)" style="fill: none; stroke: #cccccc; stroke-linecap: round"/>
     </g>
    </g>
    <g id="ytick_10">
     <g id="line2d_29">
      <path d="M 528.135937 104.338091 
L 986.505937 104.338091 
" clip-path="url(#p885de7b0f9)" style="fill: none; stroke: #cccccc; stroke-linecap: round"/>
     </g>
    </g>
   </g>
   <g id="line2d_30">
    <path d="M 548.970937 207.597 
L 595.270937 207.597 
L 641.570937 207.597 
L 687.870937 207.597 
L 734.170937 207.597 
L 780.470937 207.597 
L 826.770937 207.597 
L 873.070937 207.597 
L 919.370937 207.597 
L 965.670938 207.597 
" clip-path="url(#p885de7b0f9)" style="fill: none; stroke: #4c72b0; stroke-width: 1.2; stroke-linecap: round"/>
    <g clip-path="url(#p885de7b0f9)">
     <use xlink:href="#m7715c6e550" x="548.970937" y="207.597" style="fill: #4c72b0; stroke: #4c72b0"/>
     <use xlink:href="#m7715c6e550" x="595.270937" y="207.597" style="fill: #4c72b0; stroke: #4c72b0"/>
     <use xlink:href="#m7715c6e550" x="641.570937" y="207.597" style="fill: #4c72b0; stroke: #4c72b0"/>
     <use xlink:href="#m7715c6e550" x="687.870937" y="207.597" style="fill: #4c72b0; stroke: #4c72b0"/>
     <use xlink:href="#m7715c6e550" x="734.170937" y="207.597" style="fill: #4c72b0; stroke: #4c72b0"/>
     <use xlink:href="#m7715c6e550" x="780.470937" y="207.597" style="fill: #4c72b0; stroke: #4c72b0"/>
     <use xlink:href="#m7715c6e550" x="826.770937" y="207.597" style="fill: #4c72b0; stroke: #4c72b0"/>
     <use xlink:href="#m7715c6e550" x="873.070937" y="207.597" style="fill: #4c72b0; stroke: #4c72b0"/>
     <use xlink:href="#m7715c6e550" x="919.370937" y="207.597" style="fill: #4c72b0; stroke: #4c72b0"/>
     <use xlink:href="#m7715c6e550" x="965.670938" y="207.597" style="fill: #4c72b0; stroke: #4c72b0"/>
    </g>
   </g>
   <g id="line2d_31">
    <path d="M 548.970937 207.597 
L 595.270937 207.597 
L 641.570937 207.597 
L 687.870937 207.597 
L 734.170937 207.597 
L 780.470937 207.597 
L 826.770937 207.597 
L 873.070937 207.597 
L 919.370937 207.597 
L 965.670938 207.597 
" clip-path="url(#p885de7b0f9)" style="fill: none; stroke: #dd8452; stroke-width: 1.2; stroke-linecap: round"/>
    <g clip-path="url(#p885de7b0f9)">
     <use xlink:href="#m01cf4b6aa4" x="548.970937" y="207.597" style="fill: #dd8452; stroke: #dd8452"/>
     <use xlink:href="#m01cf4b6aa4" x="595.270937" y="207.597" style="fill: #dd8452; stroke: #dd8452"/>
     <use xlink:href="#m01cf4b6aa4" x="641.570937" y="207.597" style="fill: #dd8452; stroke: #dd8452"/>
     <use xlink:href="#m01cf4b6aa4" x="687.870937" y="207.597" style="fill: #dd8452; stroke: #dd8452"/>
     <use xlink:href="#m01cf4b6aa4" x="734.170937" y="207.597" style="fill: #dd8452; stroke: #dd8452"/>
     <use xlink:href="#m01cf4b6aa4" x="780.470937" y="207.597" style="fill: #dd8452; stroke: #dd8452"/>
     <use xlink:href="#m01cf4b6aa4" x="826.770937" y="207.597" style="fill: #dd8452; stroke: #dd8452"/>
     <use xlink:href="#m01cf4b6aa4" x="873.070937" y="207.597" style="fill: #dd8452; stroke: #dd8452"/>
     <use xlink:href="#m01cf4b6aa4" x="919.370937" y="207.597" style="fill: #dd8452; stroke: #dd8452"/>
     <use xlink:href="#m01cf4b6aa4" x="965.670938" y="207.597" style="fill: #dd8452; stroke: #dd8452"/>
    </g>
   </g>
   <g id="line2d_32">
    <path d="M 548.970937 207.597 
L 595.270937 207.597 
L 641.570937 207.597 
L 687.870937 207.597 
L 734.170937 207.597 
L 780.470937 207.597 
L 826.770937 207.597 
L 873.070937 207.597 
L 919.370937 207.597 
L 965.670938 207.597 
" clip-path="url(#p885de7b0f9)" style="fill: none; stroke: #55a868; stroke-width: 1.2; stroke-linecap: round"/>
    <g clip-path="url(#p885de7b0f9)">
     <use xlink:href="#m92e017ec6b" x="548.970937" y="207.597" style="fill: #55a868; stroke: #55a868"/>
     <use xlink:href="#m92e017ec6b" x="595.270937" y="207.597" style="fill: #55a868; stroke: #55a868"/>
     <use xlink:href="#m92e017ec6b" x="641.570937" y="207.597" style="fill: #55a868; stroke: #55a868"/>
     <use xlink:href="#m92e017ec6b" x="687.870937" y="207.597" style="fill: #55a868; stroke: #55a868"/>
     <use xlink:href="#m92e017ec6b" x="734.170937" y="207.597" style="fill: #55a868; stroke: #55a868"/>
     <use xlink:href="#m92e017ec6b" x="780.470937" y="207.597" style="fill: #55a868; stroke: #55a868"/>
     <use xlink:href="#m92e017ec6b" x="826.770937" y="207.597" style="fill: #55a868; stroke: #55a868"/>
     <use xlink:href="#m92e017ec6b" x="873.070937" y="207.597" style="fill: #55a868; stroke: #55a868"/>
     <use xlink:href="#m92e017ec6b" x="919.370937" y="207.597" style="fill: #55a868; stroke: #55a868"/>
     <use xlink:href="#m92e017ec6b" x="965.670938" y="207.597" style="fill: #55a868; stroke: #55a868"/>
    </g>
   </g>
   <g id="line2d_33">
    <path d="M 548.970937 207.597 
L 595.270937 207.597 
L 641.570937 207.597 
L 687.870937 207.597 
L 734.170937 207.597 
L 780.470937 207.597 
L 826.770937 207.597 
L 873.070937 207.597 
L 919.370937 207.597 
L 965.670938 207.597 
" clip-path="url(#p885de7b0f9)" style="fill: none; stroke: #c44e52; stroke-width: 1.2; stroke-linecap: round"/>
    <g clip-path="url(#p885de7b0f9)">
     <use xlink:href="#mb37538d1cd" x="548.970937" y="207.597" style="fill: #c44e52; stroke: #c44e52"/>
     <use xlink:href="#mb37538d1cd" x="595.270937" y="207.597" style="fill: #c44e52; stroke: #c44e52"/>
     <use xlink:href="#mb37538d1cd" x="641.570937" y="207.597" style="fill: #c44e52; stroke: #c44e52"/>
     <use xlink:href="#mb37538d1cd" x="687.870937" y="207.597" style="fill: #c44e52; stroke: #c44e52"/>
     <use xlink:href="#mb37538d1cd" x="734.170937" y="207.597" style="fill: #c44e52; stroke: #c44e52"/>
     <use xlink:href="#mb37538d1cd" x="780.470937" y="207.597" style="fill: #c44e52; stroke: #c44e52"/>
     <use xlink:href="#mb37538d1cd" x="826.770937" y="207.597" style="fill: #c44e52; stroke: #c44e52"/>
     <use xlink:href="#mb37538d1cd" x="873.070937" y="207.597" style="fill: #c44e52; stroke: #c44e52"/>
     <use xlink:href="#mb37538d1cd" x="919.370937" y="207.597" style="fill: #c44e52; stroke: #c44e52"/>
     <use xlink:href="#mb37538d1cd" x="965.670938" y="207.597" style="fill: #c44e52; stroke: #c44e52"/>
    </g>
   </g>
   <g id="line2d_34">
    <path d="M 528.135937 207.597 
L 986.505937 207.597 
" clip-path="url(#p885de7b0f9)" style="fill: none; stroke-dasharray: 5.55,2.4; stroke-dashoffset: 0; stroke: #808080; stroke-opacity: 0.7; stroke-width: 1.5"/>
   </g>
   <g id="patch_9">
    <path d="M 528.135937 349.578 
L 528.135937 65.616 
" style="fill: none; stroke: #cccccc; stroke-width: 1.25; stroke-linejoin: miter; stroke-linecap: square"/>
   </g>
   <g id="patch_10">
    <path d="M 986.505937 349.578 
L 986.505937 65.616 
" style="fill: none; stroke: #cccccc; stroke-width: 1.25; stroke-linejoin: miter; stroke-linecap: square"/>
   </g>
   <g id="patch_11">
    <path d="M 528.135937 349.578 
L 986.505937 349.578 
" style="fill: none; stroke: #cccccc; stroke-width: 1.25; stroke-linejoin: miter; stroke-linecap: square"/>
   </g>
   <g id="patch_12">
    <path d="M 528.135937 65.616 
L 986.505937 65.616 
" style="fill: none; stroke: #cccccc; stroke-width: 1.25; stroke-linejoin: miter; stroke-linecap: square"/>
   </g>
   <g id="text_12">
    <!-- $\omega=0.5$ -->
    <g style="fill: #262626" transform="translate(735.360937 59.616) scale(0.12 -0.12)">
     <defs>
      <path id="DejaVuSans-35" d="M 691 4666 
L 3169 4666 
L 3169 4134 
L 1269 4134 
L 1269 2991 
Q 1406 3038 1543 3061 
Q 1681 3084 1819 3084 
Q 2600 3084 3056 2656 
Q 3513 2228 3513 1497 
Q 3513 744 3044 326 
Q 2575 -91 1722 -91 
Q 1428 -91 1123 -41 
Q 819 9 494 109 
L 494 744 
Q 775 591 1075 516 
Q 1375 441 1709 441 
Q 2250 441 2565 725 
Q 2881 1009 2881 1497 
Q 2881 1984 2565 2268 
Q 2250 2553 1709 2553 
Q 1456 2553 1204 2497 
Q 953 2441 691 2322 
L 691 4666 
z
" transform="scale(0.015625)"/>
     </defs>
     <use xlink:href="#DejaVuSans-Oblique-3c9" transform="translate(0 0.78125)"/>
     <use xlink:href="#DejaVuSans-3d" transform="translate(103.222656 0.78125)"/>
     <use xlink:href="#DejaVuSans-30" transform="translate(206.494141 0.78125)"/>
     <use xlink:href="#DejaVuSans-2e" transform="translate(270.117188 0.78125)"/>
     <use xlink:href="#DejaVuSans-35" transform="translate(301.904297 0.78125)"/>
    </g>
   </g>
  </g>
  <g id="axes_3">
   <g id="patch_13">
    <path d="M 56.805938 662.58 
L 515.175938 662.58 
L 515.175938 378.618 
L 56.805938 378.618 
z
" style="fill: #ffffff"/>
   </g>
   <g id="matplotlib.axis_5">
    <g id="xtick_11">
     <g id="line2d_35">
      <path d="M 123.940938 662.58 
L 123.940938 378.618 
" clip-path="url(#pf83f0686cf)" style="fill: none; stroke: #cccccc; stroke-linecap: round"/>
     </g>
     <g id="text_13">
      <!-- 2 -->
      <g style="fill: #262626" transform="translate(120.441563 680.438281) scale(0.11 -0.11)">
       <use xlink:href="#DejaVuSans-32"/>
      </g>
     </g>
    </g>
    <g id="xtick_12">
     <g id="line2d_36">
      <path d="M 216.540938 662.58 
L 216.540938 378.618 
" clip-path="url(#pf83f0686cf)" style="fill: none; stroke: #cccccc; stroke-linecap: round"/>
     </g>
     <g id="text_14">
      <!-- 4 -->
      <g style="fill: #262626" transform="translate(213.041563 680.438281) scale(0.11 -0.11)">
       <use xlink:href="#DejaVuSans-34"/>
      </g>
     </g>
    </g>
    <g id="xtick_13">
     <g id="line2d_37">
      <path d="M 309.140938 662.58 
L 309.140938 378.618 
" clip-path="url(#pf83f0686cf)" style="fill: none; stroke: #cccccc; stroke-linecap: round"/>
     </g>
     <g id="text_15">
      <!-- 6 -->
      <g style="fill: #262626" transform="translate(305.641563 680.438281) scale(0.11 -0.11)">
       <use xlink:href="#DejaVuSans-36"/>
      </g>
     </g>
    </g>
    <g id="xtick_14">
     <g id="line2d_38">
      <path d="M 401.740938 662.58 
L 401.740938 378.618 
" clip-path="url(#pf83f0686cf)" style="fill: none; stroke: #cccccc; stroke-linecap: round"/>
     </g>
     <g id="text_16">
      <!-- 8 -->
      <g style="fill: #262626" transform="translate(398.241563 680.438281) scale(0.11 -0.11)">
       <use xlink:href="#DejaVuSans-38"/>
      </g>
     </g>
    </g>
    <g id="xtick_15">
     <g id="line2d_39">
      <path d="M 494.340938 662.58 
L 494.340938 378.618 
" clip-path="url(#pf83f0686cf)" style="fill: none; stroke: #cccccc; stroke-linecap: round"/>
     </g>
     <g id="text_17">
      <!-- 10 -->
      <g style="fill: #262626" transform="translate(487.342188 680.438281) scale(0.11 -0.11)">
       <use xlink:href="#DejaVuSans-31"/>
       <use xlink:href="#DejaVuSans-30" transform="translate(63.623047 0)"/>
      </g>
     </g>
    </g>
   </g>
   <g id="matplotlib.axis_6">
    <g id="ytick_11">
     <g id="line2d_40">
      <path d="M 56.805938 623.857909 
L 515.175938 623.857909 
" clip-path="url(#pf83f0686cf)" style="fill: none; stroke: #cccccc; stroke-linecap: round"/>
     </g>
     <g id="text_18">
      <!-- 0.96 -->
      <g style="fill: #262626" transform="translate(22.81375 628.03705) scale(0.11 -0.11)">
       <use xlink:href="#DejaVuSans-30"/>
       <use xlink:href="#DejaVuSans-2e" transform="translate(63.623047 0)"/>
       <use xlink:href="#DejaVuSans-39" transform="translate(95.410156 0)"/>
       <use xlink:href="#DejaVuSans-36" transform="translate(159.033203 0)"/>
      </g>
     </g>
    </g>
    <g id="ytick_12">
     <g id="line2d_41">
      <path d="M 56.805938 572.228455 
L 515.175938 572.228455 
" clip-path="url(#pf83f0686cf)" style="fill: none; stroke: #cccccc; stroke-linecap: round"/>
     </g>
     <g id="text_19">
      <!-- 0.98 -->
      <g style="fill: #262626" transform="translate(22.81375 576.407595) scale(0.11 -0.11)">
       <use xlink:href="#DejaVuSans-30"/>
       <use xlink:href="#DejaVuSans-2e" transform="translate(63.623047 0)"/>
       <use xlink:href="#DejaVuSans-39" transform="translate(95.410156 0)"/>
       <use xlink:href="#DejaVuSans-38" transform="translate(159.033203 0)"/>
      </g>
     </g>
    </g>
    <g id="ytick_13">
     <g id="line2d_42">
      <path d="M 56.805938 520.599 
L 515.175938 520.599 
" clip-path="url(#pf83f0686cf)" style="fill: none; stroke: #cccccc; stroke-linecap: round"/>
     </g>
     <g id="text_20">
      <!-- 1.00 -->
      <g style="fill: #262626" transform="translate(22.81375 524.778141) scale(0.11 -0.11)">
       <use xlink:href="#DejaVuSans-31"/>
       <use xlink:href="#DejaVuSans-2e" transform="translate(63.623047 0)"/>
       <use xlink:href="#DejaVuSans-30" transform="translate(95.410156 0)"/>
       <use xlink:href="#DejaVuSans-30" transform="translate(159.033203 0)"/>
      </g>
     </g>
    </g>
    <g id="ytick_14">
     <g id="line2d_43">
      <path d="M 56.805938 468.969545 
L 515.175938 468.969545 
" clip-path="url(#pf83f0686cf)" style="fill: none; stroke: #cccccc; stroke-linecap: round"/>
     </g>
     <g id="text_21">
      <!-- 1.02 -->
      <g style="fill: #262626" transform="translate(22.81375 473.148686) scale(0.11 -0.11)">
       <use xlink:href="#DejaVuSans-31"/>
       <use xlink:href="#DejaVuSans-2e" transform="translate(63.623047 0)"/>
       <use xlink:href="#DejaVuSans-30" transform="translate(95.410156 0)"/>
       <use xlink:href="#DejaVuSans-32" transform="translate(159.033203 0)"/>
      </g>
     </g>
    </g>
    <g id="ytick_15">
     <g id="line2d_44">
      <path d="M 56.805938 417.340091 
L 515.175938 417.340091 
" clip-path="url(#pf83f0686cf)" style="fill: none; stroke: #cccccc; stroke-linecap: round"/>
     </g>
     <g id="text_22">
      <!-- 1.04 -->
      <g style="fill: #262626" transform="translate(22.81375 421.519232) scale(0.11 -0.11)">
       <use xlink:href="#DejaVuSans-31"/>
       <use xlink:href="#DejaVuSans-2e" transform="translate(63.623047 0)"/>
       <use xlink:href="#DejaVuSans-30" transform="translate(95.410156 0)"/>
       <use xlink:href="#DejaVuSans-34" transform="translate(159.033203 0)"/>
      </g>
     </g>
    </g>
    <g id="text_23">
     <!-- R(N) = SQL/$\Delta\omega$ -->
     <g style="fill: #262626" transform="translate(16.318125 565.839) rotate(-90) scale(0.12 -0.12)">
      <use xlink:href="#DejaVuSans-52" transform="translate(0 0.125)"/>
      <use xlink:href="#DejaVuSans-28" transform="translate(69.482422 0.125)"/>
      <use xlink:href="#DejaVuSans-4e" transform="translate(108.496094 0.125)"/>
      <use xlink:href="#DejaVuSans-29" transform="translate(183.300781 0.125)"/>
      <use xlink:href="#DejaVuSans-20" transform="translate(222.314453 0.125)"/>
      <use xlink:href="#DejaVuSans-3d" transform="translate(254.101562 0.125)"/>
      <use xlink:href="#DejaVuSans-20" transform="translate(337.890625 0.125)"/>
      <use xlink:href="#DejaVuSans-53" transform="translate(369.677734 0.125)"/>
      <use xlink:href="#DejaVuSans-51" transform="translate(433.154297 0.125)"/>
      <use xlink:href="#DejaVuSans-4c" transform="translate(511.865234 0.125)"/>
      <use xlink:href="#DejaVuSans-2f" transform="translate(567.578125 0.125)"/>
      <use xlink:href="#DejaVuSans-394" transform="translate(601.269531 0.125)"/>
      <use xlink:href="#DejaVuSans-Oblique-3c9" transform="translate(669.677734 0.125)"/>
     </g>
    </g>
   </g>
   <g id="line2d_45">
    <path d="M 77.640938 520.599 
L 123.940938 520.599 
L 170.240938 520.599 
L 216.540938 520.599 
L 262.840938 520.599 
L 309.140938 520.599 
L 355.440938 520.599 
L 401.740938 520.599 
L 448.040938 520.599 
L 494.340938 520.599 
" clip-path="url(#pf83f0686cf)" style="fill: none; stroke: #4c72b0; stroke-width: 1.2; stroke-linecap: round"/>
    <g clip-path="url(#pf83f0686cf)">
     <use xlink:href="#m7715c6e550" x="77.640938" y="520.599" style="fill: #4c72b0; stroke: #4c72b0"/>
     <use xlink:href="#m7715c6e550" x="123.940938" y="520.599" style="fill: #4c72b0; stroke: #4c72b0"/>
     <use xlink:href="#m7715c6e550" x="170.240938" y="520.599" style="fill: #4c72b0; stroke: #4c72b0"/>
     <use xlink:href="#m7715c6e550" x="216.540938" y="520.599" style="fill: #4c72b0; stroke: #4c72b0"/>
     <use xlink:href="#m7715c6e550" x="262.840938" y="520.599" style="fill: #4c72b0; stroke: #4c72b0"/>
     <use xlink:href="#m7715c6e550" x="309.140938" y="520.599" style="fill: #4c72b0; stroke: #4c72b0"/>
     <use xlink:href="#m7715c6e550" x="355.440938" y="520.599" style="fill: #4c72b0; stroke: #4c72b0"/>
     <use xlink:href="#m7715c6e550" x="401.740938" y="520.599" style="fill: #4c72b0; stroke: #4c72b0"/>
     <use xlink:href="#m7715c6e550" x="448.040938" y="520.599" style="fill: #4c72b0; stroke: #4c72b0"/>
     <use xlink:href="#m7715c6e550" x="494.340938" y="520.599" style="fill: #4c72b0; stroke: #4c72b0"/>
    </g>
   </g>
   <g id="line2d_46">
    <path d="M 77.640938 520.599 
L 123.940938 520.599 
L 170.240938 520.599 
L 216.540938 520.599 
L 262.840938 520.599 
L 309.140938 520.599 
L 355.440938 520.599 
L 401.740938 520.599 
L 448.040938 520.599 
L 494.340938 520.599 
" clip-path="url(#pf83f0686cf)" style="fill: none; stroke: #dd8452; stroke-width: 1.2; stroke-linecap: round"/>
    <g clip-path="url(#pf83f0686cf)">
     <use xlink:href="#m01cf4b6aa4" x="77.640938" y="520.599" style="fill: #dd8452; stroke: #dd8452"/>
     <use xlink:href="#m01cf4b6aa4" x="123.940938" y="520.599" style="fill: #dd8452; stroke: #dd8452"/>
     <use xlink:href="#m01cf4b6aa4" x="170.240938" y="520.599" style="fill: #dd8452; stroke: #dd8452"/>
     <use xlink:href="#m01cf4b6aa4" x="216.540938" y="520.599" style="fill: #dd8452; stroke: #dd8452"/>
     <use xlink:href="#m01cf4b6aa4" x="262.840938" y="520.599" style="fill: #dd8452; stroke: #dd8452"/>
     <use xlink:href="#m01cf4b6aa4" x="309.140938" y="520.599" style="fill: #dd8452; stroke: #dd8452"/>
     <use xlink:href="#m01cf4b6aa4" x="355.440938" y="520.599" style="fill: #dd8452; stroke: #dd8452"/>
     <use xlink:href="#m01cf4b6aa4" x="401.740938" y="520.599" style="fill: #dd8452; stroke: #dd8452"/>
     <use xlink:href="#m01cf4b6aa4" x="448.040938" y="520.599" style="fill: #dd8452; stroke: #dd8452"/>
     <use xlink:href="#m01cf4b6aa4" x="494.340938" y="520.599" style="fill: #dd8452; stroke: #dd8452"/>
    </g>
   </g>
   <g id="line2d_47">
    <path d="M 77.640938 520.599 
L 123.940938 520.599 
L 170.240938 520.599 
L 216.540938 520.599 
L 262.840938 520.599 
L 309.140938 520.599 
L 355.440938 520.599 
L 401.740938 520.599 
L 448.040938 520.599 
L 494.340938 520.599 
" clip-path="url(#pf83f0686cf)" style="fill: none; stroke: #55a868; stroke-width: 1.2; stroke-linecap: round"/>
    <g clip-path="url(#pf83f0686cf)">
     <use xlink:href="#m92e017ec6b" x="77.640938" y="520.599" style="fill: #55a868; stroke: #55a868"/>
     <use xlink:href="#m92e017ec6b" x="123.940938" y="520.599" style="fill: #55a868; stroke: #55a868"/>
     <use xlink:href="#m92e017ec6b" x="170.240938" y="520.599" style="fill: #55a868; stroke: #55a868"/>
     <use xlink:href="#m92e017ec6b" x="216.540938" y="520.599" style="fill: #55a868; stroke: #55a868"/>
     <use xlink:href="#m92e017ec6b" x="262.840938" y="520.599" style="fill: #55a868; stroke: #55a868"/>
     <use xlink:href="#m92e017ec6b" x="309.140938" y="520.599" style="fill: #55a868; stroke: #55a868"/>
     <use xlink:href="#m92e017ec6b" x="355.440938" y="520.599" style="fill: #55a868; stroke: #55a868"/>
     <use xlink:href="#m92e017ec6b" x="401.740938" y="520.599" style="fill: #55a868; stroke: #55a868"/>
     <use xlink:href="#m92e017ec6b" x="448.040938" y="520.599" style="fill: #55a868; stroke: #55a868"/>
     <use xlink:href="#m92e017ec6b" x="494.340938" y="520.599" style="fill: #55a868; stroke: #55a868"/>
    </g>
   </g>
   <g id="line2d_48">
    <path d="M 77.640938 520.599 
L 123.940938 520.599 
L 170.240938 520.599 
L 216.540938 520.599 
L 262.840938 520.599 
L 309.140938 520.599 
L 355.440938 520.599 
L 401.740938 520.599 
L 448.040938 520.599 
L 494.340938 520.599 
" clip-path="url(#pf83f0686cf)" style="fill: none; stroke: #c44e52; stroke-width: 1.2; stroke-linecap: round"/>
    <g clip-path="url(#pf83f0686cf)">
     <use xlink:href="#mb37538d1cd" x="77.640938" y="520.599" style="fill: #c44e52; stroke: #c44e52"/>
     <use xlink:href="#mb37538d1cd" x="123.940938" y="520.599" style="fill: #c44e52; stroke: #c44e52"/>
     <use xlink:href="#mb37538d1cd" x="170.240938" y="520.599" style="fill: #c44e52; stroke: #c44e52"/>
     <use xlink:href="#mb37538d1cd" x="216.540938" y="520.599" style="fill: #c44e52; stroke: #c44e52"/>
     <use xlink:href="#mb37538d1cd" x="262.840938" y="520.599" style="fill: #c44e52; stroke: #c44e52"/>
     <use xlink:href="#mb37538d1cd" x="309.140938" y="520.599" style="fill: #c44e52; stroke: #c44e52"/>
     <use xlink:href="#mb37538d1cd" x="355.440938" y="520.599" style="fill: #c44e52; stroke: #c44e52"/>
     <use xlink:href="#mb37538d1cd" x="401.740938" y="520.599" style="fill: #c44e52; stroke: #c44e52"/>
     <use xlink:href="#mb37538d1cd" x="448.040938" y="520.599" style="fill: #c44e52; stroke: #c44e52"/>
     <use xlink:href="#mb37538d1cd" x="494.340938" y="520.599" style="fill: #c44e52; stroke: #c44e52"/>
    </g>
   </g>
   <g id="line2d_49">
    <path d="M 56.805938 520.599 
L 515.175938 520.599 
" clip-path="url(#pf83f0686cf)" style="fill: none; stroke-dasharray: 5.55,2.4; stroke-dashoffset: 0; stroke: #808080; stroke-opacity: 0.7; stroke-width: 1.5"/>
   </g>
   <g id="patch_14">
    <path d="M 56.805938 662.58 
L 56.805938 378.618 
" style="fill: none; stroke: #cccccc; stroke-width: 1.25; stroke-linejoin: miter; stroke-linecap: square"/>
   </g>
   <g id="patch_15">
    <path d="M 515.175938 662.58 
L 515.175938 378.618 
" style="fill: none; stroke: #cccccc; stroke-width: 1.25; stroke-linejoin: miter; stroke-linecap: square"/>
   </g>
   <g id="patch_16">
    <path d="M 56.805937 662.58 
L 515.175938 662.58 
" style="fill: none; stroke: #cccccc; stroke-width: 1.25; stroke-linejoin: miter; stroke-linecap: square"/>
   </g>
   <g id="patch_17">
    <path d="M 56.805937 378.618 
L 515.175938 378.618 
" style="fill: none; stroke: #cccccc; stroke-width: 1.25; stroke-linejoin: miter; stroke-linecap: square"/>
   </g>
   <g id="text_24">
    <!-- $\omega=1.0$ -->
    <g style="fill: #262626" transform="translate(264.030938 372.618) scale(0.12 -0.12)">
     <use xlink:href="#DejaVuSans-Oblique-3c9" transform="translate(0 0.78125)"/>
     <use xlink:href="#DejaVuSans-3d" transform="translate(103.222656 0.78125)"/>
     <use xlink:href="#DejaVuSans-31" transform="translate(206.494141 0.78125)"/>
     <use xlink:href="#DejaVuSans-2e" transform="translate(270.117188 0.78125)"/>
     <use xlink:href="#DejaVuSans-30" transform="translate(301.904297 0.78125)"/>
    </g>
   </g>
  </g>
  <g id="axes_4">
   <g id="patch_18">
    <path d="M 528.135937 662.58 
L 986.505937 662.58 
L 986.505937 378.618 
L 528.135937 378.618 
z
" style="fill: #ffffff"/>
   </g>
   <g id="matplotlib.axis_7">
    <g id="xtick_16">
     <g id="line2d_50">
      <path d="M 595.270937 662.58 
L 595.270937 378.618 
" clip-path="url(#p4c349218d3)" style="fill: none; stroke: #cccccc; stroke-linecap: round"/>
     </g>
     <g id="text_25">
      <!-- 2 -->
      <g style="fill: #262626" transform="translate(591.771562 680.438281) scale(0.11 -0.11)">
       <use xlink:href="#DejaVuSans-32"/>
      </g>
     </g>
    </g>
    <g id="xtick_17">
     <g id="line2d_51">
      <path d="M 687.870937 662.58 
L 687.870937 378.618 
" clip-path="url(#p4c349218d3)" style="fill: none; stroke: #cccccc; stroke-linecap: round"/>
     </g>
     <g id="text_26">
      <!-- 4 -->
      <g style="fill: #262626" transform="translate(684.371562 680.438281) scale(0.11 -0.11)">
       <use xlink:href="#DejaVuSans-34"/>
      </g>
     </g>
    </g>
    <g id="xtick_18">
     <g id="line2d_52">
      <path d="M 780.470937 662.58 
L 780.470937 378.618 
" clip-path="url(#p4c349218d3)" style="fill: none; stroke: #cccccc; stroke-linecap: round"/>
     </g>
     <g id="text_27">
      <!-- 6 -->
      <g style="fill: #262626" transform="translate(776.971563 680.438281) scale(0.11 -0.11)">
       <use xlink:href="#DejaVuSans-36"/>
      </g>
     </g>
    </g>
    <g id="xtick_19">
     <g id="line2d_53">
      <path d="M 873.070937 662.58 
L 873.070937 378.618 
" clip-path="url(#p4c349218d3)" style="fill: none; stroke: #cccccc; stroke-linecap: round"/>
     </g>
     <g id="text_28">
      <!-- 8 -->
      <g style="fill: #262626" transform="translate(869.571562 680.438281) scale(0.11 -0.11)">
       <use xlink:href="#DejaVuSans-38"/>
      </g>
     </g>
    </g>
    <g id="xtick_20">
     <g id="line2d_54">
      <path d="M 965.670938 662.58 
L 965.670938 378.618 
" clip-path="url(#p4c349218d3)" style="fill: none; stroke: #cccccc; stroke-linecap: round"/>
     </g>
     <g id="text_29">
      <!-- 10 -->
      <g style="fill: #262626" transform="translate(958.672188 680.438281) scale(0.11 -0.11)">
       <use xlink:href="#DejaVuSans-31"/>
       <use xlink:href="#DejaVuSans-30" transform="translate(63.623047 0)"/>
      </g>
     </g>
    </g>
    <g id="text_30">
     <!-- N (system particles) -->
     <g style="fill: #262626" transform="translate(696.890625 695.844062) scale(0.12 -0.12)">
      <defs>
       <path id="DejaVuSans-73" d="M 2834 3397 
L 2834 2853 
Q 2591 2978 2328 3040 
Q 2066 3103 1784 3103 
Q 1356 3103 1142 2972 
Q 928 2841 928 2578 
Q 928 2378 1081 2264 
Q 1234 2150 1697 2047 
L 1894 2003 
Q 2506 1872 2764 1633 
Q 3022 1394 3022 966 
Q 3022 478 2636 193 
Q 2250 -91 1575 -91 
Q 1294 -91 989 -36 
Q 684 19 347 128 
L 347 722 
Q 666 556 975 473 
Q 1284 391 1588 391 
Q 1994 391 2212 530 
Q 2431 669 2431 922 
Q 2431 1156 2273 1281 
Q 2116 1406 1581 1522 
L 1381 1569 
Q 847 1681 609 1914 
Q 372 2147 372 2553 
Q 372 3047 722 3315 
Q 1072 3584 1716 3584 
Q 2034 3584 2315 3537 
Q 2597 3491 2834 3397 
z
" transform="scale(0.015625)"/>
       <path id="DejaVuSans-79" d="M 2059 -325 
Q 1816 -950 1584 -1140 
Q 1353 -1331 966 -1331 
L 506 -1331 
L 506 -850 
L 844 -850 
Q 1081 -850 1212 -737 
Q 1344 -625 1503 -206 
L 1606 56 
L 191 3500 
L 800 3500 
L 1894 763 
L 2988 3500 
L 3597 3500 
L 2059 -325 
z
" transform="scale(0.015625)"/>
       <path id="DejaVuSans-74" d="M 1172 4494 
L 1172 3500 
L 2356 3500 
L 2356 3053 
L 1172 3053 
L 1172 1153 
Q 1172 725 1289 603 
Q 1406 481 1766 481 
L 2356 481 
L 2356 0 
L 1766 0 
Q 1100 0 847 248 
Q 594 497 594 1153 
L 594 3053 
L 172 3053 
L 172 3500 
L 594 3500 
L 594 4494 
L 1172 4494 
z
" transform="scale(0.015625)"/>
       <path id="DejaVuSans-65" d="M 3597 1894 
L 3597 1613 
L 953 1613 
Q 991 1019 1311 708 
Q 1631 397 2203 397 
Q 2534 397 2845 478 
Q 3156 559 3463 722 
L 3463 178 
Q 3153 47 2828 -22 
Q 2503 -91 2169 -91 
Q 1331 -91 842 396 
Q 353 884 353 1716 
Q 353 2575 817 3079 
Q 1281 3584 2069 3584 
Q 2775 3584 3186 3129 
Q 3597 2675 3597 1894 
z
M 3022 2063 
Q 3016 2534 2758 2815 
Q 2500 3097 2075 3097 
Q 1594 3097 1305 2825 
Q 1016 2553 972 2059 
L 3022 2063 
z
" transform="scale(0.015625)"/>
       <path id="DejaVuSans-6d" d="M 3328 2828 
Q 3544 3216 3844 3400 
Q 4144 3584 4550 3584 
Q 5097 3584 5394 3201 
Q 5691 2819 5691 2113 
L 5691 0 
L 5113 0 
L 5113 2094 
Q 5113 2597 4934 2840 
Q 4756 3084 4391 3084 
Q 3944 3084 3684 2787 
Q 3425 2491 3425 1978 
L 3425 0 
L 2847 0 
L 2847 2094 
Q 2847 2600 2669 2842 
Q 2491 3084 2119 3084 
Q 1678 3084 1418 2786 
Q 1159 2488 1159 1978 
L 1159 0 
L 581 0 
L 581 3500 
L 1159 3500 
L 1159 2956 
Q 1356 3278 1631 3431 
Q 1906 3584 2284 3584 
Q 2666 3584 2933 3390 
Q 3200 3197 3328 2828 
z
" transform="scale(0.015625)"/>
       <path id="DejaVuSans-70" d="M 1159 525 
L 1159 -1331 
L 581 -1331 
L 581 3500 
L 1159 3500 
L 1159 2969 
Q 1341 3281 1617 3432 
Q 1894 3584 2278 3584 
Q 2916 3584 3314 3078 
Q 3713 2572 3713 1747 
Q 3713 922 3314 415 
Q 2916 -91 2278 -91 
Q 1894 -91 1617 61 
Q 1341 213 1159 525 
z
M 3116 1747 
Q 3116 2381 2855 2742 
Q 2594 3103 2138 3103 
Q 1681 3103 1420 2742 
Q 1159 2381 1159 1747 
Q 1159 1113 1420 752 
Q 1681 391 2138 391 
Q 2594 391 2855 752 
Q 3116 1113 3116 1747 
z
" transform="scale(0.015625)"/>
       <path id="DejaVuSans-61" d="M 2194 1759 
Q 1497 1759 1228 1600 
Q 959 1441 959 1056 
Q 959 750 1161 570 
Q 1363 391 1709 391 
Q 2188 391 2477 730 
Q 2766 1069 2766 1631 
L 2766 1759 
L 2194 1759 
z
M 3341 1997 
L 3341 0 
L 2766 0 
L 2766 531 
Q 2569 213 2275 61 
Q 1981 -91 1556 -91 
Q 1019 -91 701 211 
Q 384 513 384 1019 
Q 384 1609 779 1909 
Q 1175 2209 1959 2209 
L 2766 2209 
L 2766 2266 
Q 2766 2663 2505 2880 
Q 2244 3097 1772 3097 
Q 1472 3097 1187 3025 
Q 903 2953 641 2809 
L 641 3341 
Q 956 3463 1253 3523 
Q 1550 3584 1831 3584 
Q 2591 3584 2966 3190 
Q 3341 2797 3341 1997 
z
" transform="scale(0.015625)"/>
       <path id="DejaVuSans-72" d="M 2631 2963 
Q 2534 3019 2420 3045 
Q 2306 3072 2169 3072 
Q 1681 3072 1420 2755 
Q 1159 2438 1159 1844 
L 1159 0 
L 581 0 
L 581 3500 
L 1159 3500 
L 1159 2956 
Q 1341 3275 1631 3429 
Q 1922 3584 2338 3584 
Q 2397 3584 2469 3576 
Q 2541 3569 2628 3553 
L 2631 2963 
z
" transform="scale(0.015625)"/>
       <path id="DejaVuSans-69" d="M 603 3500 
L 1178 3500 
L 1178 0 
L 603 0 
L 603 3500 
z
M 603 4863 
L 1178 4863 
L 1178 4134 
L 603 4134 
L 603 4863 
z
" transform="scale(0.015625)"/>
       <path id="DejaVuSans-63" d="M 3122 3366 
L 3122 2828 
Q 2878 2963 2633 3030 
Q 2388 3097 2138 3097 
Q 1578 3097 1268 2742 
Q 959 2388 959 1747 
Q 959 1106 1268 751 
Q 1578 397 2138 397 
Q 2388 397 2633 464 
Q 2878 531 3122 666 
L 3122 134 
Q 2881 22 2623 -34 
Q 2366 -91 2075 -91 
Q 1284 -91 818 406 
Q 353 903 353 1747 
Q 353 2603 823 3093 
Q 1294 3584 2113 3584 
Q 2378 3584 2631 3529 
Q 2884 3475 3122 3366 
z
" transform="scale(0.015625)"/>
       <path id="DejaVuSans-6c" d="M 603 4863 
L 1178 4863 
L 1178 0 
L 603 0 
L 603 4863 
z
" transform="scale(0.015625)"/>
      </defs>
      <use xlink:href="#DejaVuSans-4e"/>
      <use xlink:href="#DejaVuSans-20" transform="translate(74.804688 0)"/>
      <use xlink:href="#DejaVuSans-28" transform="translate(106.591797 0)"/>
      <use xlink:href="#DejaVuSans-73" transform="translate(145.605469 0)"/>
      <use xlink:href="#DejaVuSans-79" transform="translate(197.705078 0)"/>
      <use xlink:href="#DejaVuSans-73" transform="translate(256.884766 0)"/>
      <use xlink:href="#DejaVuSans-74" transform="translate(308.984375 0)"/>
      <use xlink:href="#DejaVuSans-65" transform="translate(348.193359 0)"/>
      <use xlink:href="#DejaVuSans-6d" transform="translate(409.716797 0)"/>
      <use xlink:href="#DejaVuSans-20" transform="translate(507.128906 0)"/>
      <use xlink:href="#DejaVuSans-70" transform="translate(538.916016 0)"/>
      <use xlink:href="#DejaVuSans-61" transform="translate(602.392578 0)"/>
      <use xlink:href="#DejaVuSans-72" transform="translate(663.671875 0)"/>
      <use xlink:href="#DejaVuSans-74" transform="translate(704.785156 0)"/>
      <use xlink:href="#DejaVuSans-69" transform="translate(743.994141 0)"/>
      <use xlink:href="#DejaVuSans-63" transform="translate(771.777344 0)"/>
      <use xlink:href="#DejaVuSans-6c" transform="translate(826.757812 0)"/>
      <use xlink:href="#DejaVuSans-65" transform="translate(854.541016 0)"/>
      <use xlink:href="#DejaVuSans-73" transform="translate(916.064453 0)"/>
      <use xlink:href="#DejaVuSans-29" transform="translate(968.164062 0)"/>
     </g>
    </g>
   </g>
   <g id="matplotlib.axis_8">
    <g id="ytick_16">
     <g id="line2d_55">
      <path d="M 528.135937 623.857909 
L 986.505937 623.857909 
" clip-path="url(#p4c349218d3)" style="fill: none; stroke: #cccccc; stroke-linecap: round"/>
     </g>
    </g>
    <g id="ytick_17">
     <g id="line2d_56">
      <path d="M 528.135937 572.228455 
L 986.505937 572.228455 
" clip-path="url(#p4c349218d3)" style="fill: none; stroke: #cccccc; stroke-linecap: round"/>
     </g>
    </g>
    <g id="ytick_18">
     <g id="line2d_57">
      <path d="M 528.135937 520.599 
L 986.505937 520.599 
" clip-path="url(#p4c349218d3)" style="fill: none; stroke: #cccccc; stroke-linecap: round"/>
     </g>
    </g>
    <g id="ytick_19">
     <g id="line2d_58">
      <path d="M 528.135937 468.969545 
L 986.505937 468.969545 
" clip-path="url(#p4c349218d3)" style="fill: none; stroke: #cccccc; stroke-linecap: round"/>
     </g>
    </g>
    <g id="ytick_20">
     <g id="line2d_59">
      <path d="M 528.135937 417.340091 
L 986.505937 417.340091 
" clip-path="url(#p4c349218d3)" style="fill: none; stroke: #cccccc; stroke-linecap: round"/>
     </g>
    </g>
   </g>
   <g id="line2d_60">
    <path d="M 548.970937 520.599 
L 595.270937 520.599 
L 641.570937 520.599 
L 687.870937 520.599 
L 734.170937 520.599 
L 780.470937 520.599 
L 826.770937 520.599 
L 873.070937 520.599 
L 919.370937 520.599 
L 965.670938 520.599 
" clip-path="url(#p4c349218d3)" style="fill: none; stroke: #4c72b0; stroke-width: 1.2; stroke-linecap: round"/>
    <g clip-path="url(#p4c349218d3)">
     <use xlink:href="#m7715c6e550" x="548.970937" y="520.599" style="fill: #4c72b0; stroke: #4c72b0"/>
     <use xlink:href="#m7715c6e550" x="595.270937" y="520.599" style="fill: #4c72b0; stroke: #4c72b0"/>
     <use xlink:href="#m7715c6e550" x="641.570937" y="520.599" style="fill: #4c72b0; stroke: #4c72b0"/>
     <use xlink:href="#m7715c6e550" x="687.870937" y="520.599" style="fill: #4c72b0; stroke: #4c72b0"/>
     <use xlink:href="#m7715c6e550" x="734.170937" y="520.599" style="fill: #4c72b0; stroke: #4c72b0"/>
     <use xlink:href="#m7715c6e550" x="780.470937" y="520.599" style="fill: #4c72b0; stroke: #4c72b0"/>
     <use xlink:href="#m7715c6e550" x="826.770937" y="520.599" style="fill: #4c72b0; stroke: #4c72b0"/>
     <use xlink:href="#m7715c6e550" x="873.070937" y="520.599" style="fill: #4c72b0; stroke: #4c72b0"/>
     <use xlink:href="#m7715c6e550" x="919.370937" y="520.599" style="fill: #4c72b0; stroke: #4c72b0"/>
     <use xlink:href="#m7715c6e550" x="965.670938" y="520.599" style="fill: #4c72b0; stroke: #4c72b0"/>
    </g>
   </g>
   <g id="line2d_61">
    <path d="M 548.970937 520.599 
L 595.270937 520.599 
L 641.570937 520.599 
L 687.870937 520.599 
L 734.170937 520.599 
L 780.470937 520.599 
L 826.770937 520.599 
L 873.070937 520.599 
L 919.370937 520.599 
L 965.670938 520.599 
" clip-path="url(#p4c349218d3)" style="fill: none; stroke: #dd8452; stroke-width: 1.2; stroke-linecap: round"/>
    <g clip-path="url(#p4c349218d3)">
     <use xlink:href="#m01cf4b6aa4" x="548.970937" y="520.599" style="fill: #dd8452; stroke: #dd8452"/>
     <use xlink:href="#m01cf4b6aa4" x="595.270937" y="520.599" style="fill: #dd8452; stroke: #dd8452"/>
     <use xlink:href="#m01cf4b6aa4" x="641.570937" y="520.599" style="fill: #dd8452; stroke: #dd8452"/>
     <use xlink:href="#m01cf4b6aa4" x="687.870937" y="520.599" style="fill: #dd8452; stroke: #dd8452"/>
     <use xlink:href="#m01cf4b6aa4" x="734.170937" y="520.599" style="fill: #dd8452; stroke: #dd8452"/>
     <use xlink:href="#m01cf4b6aa4" x="780.470937" y="520.599" style="fill: #dd8452; stroke: #dd8452"/>
     <use xlink:href="#m01cf4b6aa4" x="826.770937" y="520.599" style="fill: #dd8452; stroke: #dd8452"/>
     <use xlink:href="#m01cf4b6aa4" x="873.070937" y="520.599" style="fill: #dd8452; stroke: #dd8452"/>
     <use xlink:href="#m01cf4b6aa4" x="919.370937" y="520.599" style="fill: #dd8452; stroke: #dd8452"/>
     <use xlink:href="#m01cf4b6aa4" x="965.670938" y="520.599" style="fill: #dd8452; stroke: #dd8452"/>
    </g>
   </g>
   <g id="line2d_62">
    <path d="M 548.970937 520.599 
L 595.270937 520.599 
L 641.570937 520.599 
L 687.870937 520.599 
L 734.170937 520.599 
L 780.470937 520.599 
L 826.770937 520.599 
L 873.070937 520.599 
L 919.370937 520.599 
L 965.670938 520.599 
" clip-path="url(#p4c349218d3)" style="fill: none; stroke: #55a868; stroke-width: 1.2; stroke-linecap: round"/>
    <g clip-path="url(#p4c349218d3)">
     <use xlink:href="#m92e017ec6b" x="548.970937" y="520.599" style="fill: #55a868; stroke: #55a868"/>
     <use xlink:href="#m92e017ec6b" x="595.270937" y="520.599" style="fill: #55a868; stroke: #55a868"/>
     <use xlink:href="#m92e017ec6b" x="641.570937" y="520.599" style="fill: #55a868; stroke: #55a868"/>
     <use xlink:href="#m92e017ec6b" x="687.870937" y="520.599" style="fill: #55a868; stroke: #55a868"/>
     <use xlink:href="#m92e017ec6b" x="734.170937" y="520.599" style="fill: #55a868; stroke: #55a868"/>
     <use xlink:href="#m92e017ec6b" x="780.470937" y="520.599" style="fill: #55a868; stroke: #55a868"/>
     <use xlink:href="#m92e017ec6b" x="826.770937" y="520.599" style="fill: #55a868; stroke: #55a868"/>
     <use xlink:href="#m92e017ec6b" x="873.070937" y="520.599" style="fill: #55a868; stroke: #55a868"/>
     <use xlink:href="#m92e017ec6b" x="919.370937" y="520.599" style="fill: #55a868; stroke: #55a868"/>
     <use xlink:href="#m92e017ec6b" x="965.670938" y="520.599" style="fill: #55a868; stroke: #55a868"/>
    </g>
   </g>
   <g id="line2d_63">
    <path d="M 548.970937 520.599 
L 595.270937 520.599 
L 641.570937 520.599 
L 687.870937 520.599 
L 734.170937 520.599 
L 780.470937 520.599 
L 826.770937 520.599 
L 873.070937 520.599 
L 919.370937 520.599 
L 965.670938 520.599 
" clip-path="url(#p4c349218d3)" style="fill: none; stroke: #c44e52; stroke-width: 1.2; stroke-linecap: round"/>
    <g clip-path="url(#p4c349218d3)">
     <use xlink:href="#mb37538d1cd" x="548.970937" y="520.599" style="fill: #c44e52; stroke: #c44e52"/>
     <use xlink:href="#mb37538d1cd" x="595.270937" y="520.599" style="fill: #c44e52; stroke: #c44e52"/>
     <use xlink:href="#mb37538d1cd" x="641.570937" y="520.599" style="fill: #c44e52; stroke: #c44e52"/>
     <use xlink:href="#mb37538d1cd" x="687.870937" y="520.599" style="fill: #c44e52; stroke: #c44e52"/>
     <use xlink:href="#mb37538d1cd" x="734.170937" y="520.599" style="fill: #c44e52; stroke: #c44e52"/>
     <use xlink:href="#mb37538d1cd" x="780.470937" y="520.599" style="fill: #c44e52; stroke: #c44e52"/>
     <use xlink:href="#mb37538d1cd" x="826.770937" y="520.599" style="fill: #c44e52; stroke: #c44e52"/>
     <use xlink:href="#mb37538d1cd" x="873.070937" y="520.599" style="fill: #c44e52; stroke: #c44e52"/>
     <use xlink:href="#mb37538d1cd" x="919.370937" y="520.599" style="fill: #c44e52; stroke: #c44e52"/>
     <use xlink:href="#mb37538d1cd" x="965.670938" y="520.599" style="fill: #c44e52; stroke: #c44e52"/>
    </g>
   </g>
   <g id="line2d_64">
    <path d="M 528.135937 520.599 
L 986.505937 520.599 
" clip-path="url(#p4c349218d3)" style="fill: none; stroke-dasharray: 5.55,2.4; stroke-dashoffset: 0; stroke: #808080; stroke-opacity: 0.7; stroke-width: 1.5"/>
   </g>
   <g id="patch_19">
    <path d="M 528.135937 662.58 
L 528.135937 378.618 
" style="fill: none; stroke: #cccccc; stroke-width: 1.25; stroke-linejoin: miter; stroke-linecap: square"/>
   </g>
   <g id="patch_20">
    <path d="M 986.505937 662.58 
L 986.505937 378.618 
" style="fill: none; stroke: #cccccc; stroke-width: 1.25; stroke-linejoin: miter; stroke-linecap: square"/>
   </g>
   <g id="patch_21">
    <path d="M 528.135937 662.58 
L 986.505937 662.58 
" style="fill: none; stroke: #cccccc; stroke-width: 1.25; stroke-linejoin: miter; stroke-linecap: square"/>
   </g>
   <g id="patch_22">
    <path d="M 528.135937 378.618 
L 986.505937 378.618 
" style="fill: none; stroke: #cccccc; stroke-width: 1.25; stroke-linejoin: miter; stroke-linecap: square"/>
   </g>
   <g id="text_31">
    <!-- $\omega=2.0$ -->
    <g style="fill: #262626" transform="translate(735.360937 372.618) scale(0.12 -0.12)">
     <use xlink:href="#DejaVuSans-Oblique-3c9" transform="translate(0 0.78125)"/>
     <use xlink:href="#DejaVuSans-3d" transform="translate(103.222656 0.78125)"/>
     <use xlink:href="#DejaVuSans-32" transform="translate(206.494141 0.78125)"/>
     <use xlink:href="#DejaVuSans-2e" transform="translate(270.117188 0.78125)"/>
     <use xlink:href="#DejaVuSans-30" transform="translate(301.904297 0.78125)"/>
    </g>
   </g>
  </g>
  <g id="text_32">
   <!-- SQL-Violation Ratio R(N) for $\omega$-Independent Drive -->
   <g style="fill: #262626" transform="translate(334.915937 17.08) scale(0.13 -0.13)">
    <defs>
     <path id="DejaVuSans-2d" d="M 313 2009 
L 1997 2009 
L 1997 1497 
L 313 1497 
L 313 2009 
z
" transform="scale(0.015625)"/>
     <path id="DejaVuSans-56" d="M 1831 0 
L 50 4666 
L 709 4666 
L 2188 738 
L 3669 4666 
L 4325 4666 
L 2547 0 
L 1831 0 
z
" transform="scale(0.015625)"/>
     <path id="DejaVuSans-6f" d="M 1959 3097 
Q 1497 3097 1228 2736 
Q 959 2375 959 1747 
Q 959 1119 1226 758 
Q 1494 397 1959 397 
Q 2419 397 2687 759 
Q 2956 1122 2956 1747 
Q 2956 2369 2687 2733 
Q 2419 3097 1959 3097 
z
M 1959 3584 
Q 2709 3584 3137 3096 
Q 3566 2609 3566 1747 
Q 3566 888 3137 398 
Q 2709 -91 1959 -91 
Q 1206 -91 779 398 
Q 353 888 353 1747 
Q 353 2609 779 3096 
Q 1206 3584 1959 3584 
z
" transform="scale(0.015625)"/>
     <path id="DejaVuSans-6e" d="M 3513 2113 
L 3513 0 
L 2938 0 
L 2938 2094 
Q 2938 2591 2744 2837 
Q 2550 3084 2163 3084 
Q 1697 3084 1428 2787 
Q 1159 2491 1159 1978 
L 1159 0 
L 581 0 
L 581 3500 
L 1159 3500 
L 1159 2956 
Q 1366 3272 1645 3428 
Q 1925 3584 2291 3584 
Q 2894 3584 3203 3211 
Q 3513 2838 3513 2113 
z
" transform="scale(0.015625)"/>
     <path id="DejaVuSans-66" d="M 2375 4863 
L 2375 4384 
L 1825 4384 
Q 1516 4384 1395 4259 
Q 1275 4134 1275 3809 
L 1275 3500 
L 2222 3500 
L 2222 3053 
L 1275 3053 
L 1275 0 
L 697 0 
L 697 3053 
L 147 3053 
L 147 3500 
L 697 3500 
L 697 3744 
Q 697 4328 969 4595 
Q 1241 4863 1831 4863 
L 2375 4863 
z
" transform="scale(0.015625)"/>
     <path id="DejaVuSans-49" d="M 628 4666 
L 1259 4666 
L 1259 0 
L 628 0 
L 628 4666 
z
" transform="scale(0.015625)"/>
     <path id="DejaVuSans-64" d="M 2906 2969 
L 2906 4863 
L 3481 4863 
L 3481 0 
L 2906 0 
L 2906 525 
Q 2725 213 2448 61 
Q 2172 -91 1784 -91 
Q 1150 -91 751 415 
Q 353 922 353 1747 
Q 353 2572 751 3078 
Q 1150 3584 1784 3584 
Q 2172 3584 2448 3432 
Q 2725 3281 2906 2969 
z
M 947 1747 
Q 947 1113 1208 752 
Q 1469 391 1925 391 
Q 2381 391 2643 752 
Q 2906 1113 2906 1747 
Q 2906 2381 2643 2742 
Q 2381 3103 1925 3103 
Q 1469 3103 1208 2742 
Q 947 2381 947 1747 
z
" transform="scale(0.015625)"/>
     <path id="DejaVuSans-44" d="M 1259 4147 
L 1259 519 
L 2022 519 
Q 2988 519 3436 956 
Q 3884 1394 3884 2338 
Q 3884 3275 3436 3711 
Q 2988 4147 2022 4147 
L 1259 4147 
z
M 628 4666 
L 1925 4666 
Q 3281 4666 3915 4102 
Q 4550 3538 4550 2338 
Q 4550 1131 3912 565 
Q 3275 0 1925 0 
L 628 0 
L 628 4666 
z
" transform="scale(0.015625)"/>
     <path id="DejaVuSans-76" d="M 191 3500 
L 800 3500 
L 1894 563 
L 2988 3500 
L 3597 3500 
L 2284 0 
L 1503 0 
L 191 3500 
z
" transform="scale(0.015625)"/>
    </defs>
    <use xlink:href="#DejaVuSans-53" transform="translate(0 0.015625)"/>
    <use xlink:href="#DejaVuSans-51" transform="translate(63.476562 0.015625)"/>
    <use xlink:href="#DejaVuSans-4c" transform="translate(142.1875 0.015625)"/>
    <use xlink:href="#DejaVuSans-2d" transform="translate(197.900391 0.015625)"/>
    <use xlink:href="#DejaVuSans-56" transform="translate(233.984375 0.015625)"/>
    <use xlink:href="#DejaVuSans-69" transform="translate(302.392578 0.015625)"/>
    <use xlink:href="#DejaVuSans-6f" transform="translate(330.175781 0.015625)"/>
    <use xlink:href="#DejaVuSans-6c" transform="translate(391.357422 0.015625)"/>
    <use xlink:href="#DejaVuSans-61" transform="translate(419.140625 0.015625)"/>
    <use xlink:href="#DejaVuSans-74" transform="translate(480.419922 0.015625)"/>
    <use xlink:href="#DejaVuSans-69" transform="translate(519.628906 0.015625)"/>
    <use xlink:href="#DejaVuSans-6f" transform="translate(547.412109 0.015625)"/>
    <use xlink:href="#DejaVuSans-6e" transform="translate(608.59375 0.015625)"/>
    <use xlink:href="#DejaVuSans-20" transform="translate(671.972656 0.015625)"/>
    <use xlink:href="#DejaVuSans-52" transform="translate(703.759766 0.015625)"/>
    <use xlink:href="#DejaVuSans-61" transform="translate(773.242188 0.015625)"/>
    <use xlink:href="#DejaVuSans-74" transform="translate(834.521484 0.015625)"/>
    <use xlink:href="#DejaVuSans-69" transform="translate(873.730469 0.015625)"/>
    <use xlink:href="#DejaVuSans-6f" transform="translate(901.513672 0.015625)"/>
    <use xlink:href="#DejaVuSans-20" transform="translate(962.695312 0.015625)"/>
    <use xlink:href="#DejaVuSans-52" transform="translate(994.482422 0.015625)"/>
    <use xlink:href="#DejaVuSans-28" transform="translate(1063.964844 0.015625)"/>
    <use xlink:href="#DejaVuSans-4e" transform="translate(1102.978516 0.015625)"/>
    <use xlink:href="#DejaVuSans-29" transform="translate(1177.783203 0.015625)"/>
    <use xlink:href="#DejaVuSans-20" transform="translate(1216.796875 0.015625)"/>
    <use xlink:href="#DejaVuSans-66" transform="translate(1248.583984 0.015625)"/>
    <use xlink:href="#DejaVuSans-6f" transform="translate(1283.789062 0.015625)"/>
    <use xlink:href="#DejaVuSans-72" transform="translate(1344.970703 0.015625)"/>
    <use xlink:href="#DejaVuSans-20" transform="translate(1386.083984 0.015625)"/>
    <use xlink:href="#DejaVuSans-Oblique-3c9" transform="translate(1417.871094 0.015625)"/>
    <use xlink:href="#DejaVuSans-2d" transform="translate(1501.611328 0.015625)"/>
    <use xlink:href="#DejaVuSans-49" transform="translate(1537.695312 0.015625)"/>
    <use xlink:href="#DejaVuSans-6e" transform="translate(1567.1875 0.015625)"/>
    <use xlink:href="#DejaVuSans-64" transform="translate(1630.566406 0.015625)"/>
    <use xlink:href="#DejaVuSans-65" transform="translate(1694.042969 0.015625)"/>
    <use xlink:href="#DejaVuSans-70" transform="translate(1755.566406 0.015625)"/>
    <use xlink:href="#DejaVuSans-65" transform="translate(1819.042969 0.015625)"/>
    <use xlink:href="#DejaVuSans-6e" transform="translate(1880.566406 0.015625)"/>
    <use xlink:href="#DejaVuSans-64" transform="translate(1943.945312 0.015625)"/>
    <use xlink:href="#DejaVuSans-65" transform="translate(2007.421875 0.015625)"/>
    <use xlink:href="#DejaVuSans-6e" transform="translate(2068.945312 0.015625)"/>
    <use xlink:href="#DejaVuSans-74" transform="translate(2132.324219 0.015625)"/>
    <use xlink:href="#DejaVuSans-20" transform="translate(2171.533203 0.015625)"/>
    <use xlink:href="#DejaVuSans-44" transform="translate(2203.320312 0.015625)"/>
    <use xlink:href="#DejaVuSans-72" transform="translate(2280.322266 0.015625)"/>
    <use xlink:href="#DejaVuSans-69" transform="translate(2321.435547 0.015625)"/>
    <use xlink:href="#DejaVuSans-76" transform="translate(2349.21875 0.015625)"/>
    <use xlink:href="#DejaVuSans-65" transform="translate(2408.398438 0.015625)"/>
   </g>
   <!-- (All M values collapse to SQL, R=1) -->
   <g style="fill: #262626" transform="translate(380.978594 31.663562) scale(0.13 -0.13)">
    <defs>
     <path id="DejaVuSans-41" d="M 2188 4044 
L 1331 1722 
L 3047 1722 
L 2188 4044 
z
M 1831 4666 
L 2547 4666 
L 4325 0 
L 3669 0 
L 3244 1197 
L 1141 1197 
L 716 0 
L 50 0 
L 1831 4666 
z
" transform="scale(0.015625)"/>
     <path id="DejaVuSans-75" d="M 544 1381 
L 544 3500 
L 1119 3500 
L 1119 1403 
Q 1119 906 1312 657 
Q 1506 409 1894 409 
Q 2359 409 2629 706 
Q 2900 1003 2900 1516 
L 2900 3500 
L 3475 3500 
L 3475 0 
L 2900 0 
L 2900 538 
Q 2691 219 2414 64 
Q 2138 -91 1772 -91 
Q 1169 -91 856 284 
Q 544 659 544 1381 
z
M 1991 3584 
L 1991 3584 
z
" transform="scale(0.015625)"/>
     <path id="DejaVuSans-2c" d="M 750 794 
L 1409 794 
L 1409 256 
L 897 -744 
L 494 -744 
L 750 256 
L 750 794 
z
" transform="scale(0.015625)"/>
    </defs>
    <use xlink:href="#DejaVuSans-28"/>
    <use xlink:href="#DejaVuSans-41" transform="translate(39.013672 0)"/>
    <use xlink:href="#DejaVuSans-6c" transform="translate(107.421875 0)"/>
    <use xlink:href="#DejaVuSans-6c" transform="translate(135.205078 0)"/>
    <use xlink:href="#DejaVuSans-20" transform="translate(162.988281 0)"/>
    <use xlink:href="#DejaVuSans-4d" transform="translate(194.775391 0)"/>
    <use xlink:href="#DejaVuSans-20" transform="translate(281.054688 0)"/>
    <use xlink:href="#DejaVuSans-76" transform="translate(312.841797 0)"/>
    <use xlink:href="#DejaVuSans-61" transform="translate(372.021484 0)"/>
    <use xlink:href="#DejaVuSans-6c" transform="translate(433.300781 0)"/>
    <use xlink:href="#DejaVuSans-75" transform="translate(461.083984 0)"/>
    <use xlink:href="#DejaVuSans-65" transform="translate(524.462891 0)"/>
    <use xlink:href="#DejaVuSans-73" transform="translate(585.986328 0)"/>
    <use xlink:href="#DejaVuSans-20" transform="translate(638.085938 0)"/>
    <use xlink:href="#DejaVuSans-63" transform="translate(669.873047 0)"/>
    <use xlink:href="#DejaVuSans-6f" transform="translate(724.853516 0)"/>
    <use xlink:href="#DejaVuSans-6c" transform="translate(786.035156 0)"/>
    <use xlink:href="#DejaVuSans-6c" transform="translate(813.818359 0)"/>
    <use xlink:href="#DejaVuSans-61" transform="translate(841.601562 0)"/>
    <use xlink:href="#DejaVuSans-70" transform="translate(902.880859 0)"/>
    <use xlink:href="#DejaVuSans-73" transform="translate(966.357422 0)"/>
    <use xlink:href="#DejaVuSans-65" transform="translate(1018.457031 0)"/>
    <use xlink:href="#DejaVuSans-20" transform="translate(1079.980469 0)"/>
    <use xlink:href="#DejaVuSans-74" transform="translate(1111.767578 0)"/>
    <use xlink:href="#DejaVuSans-6f" transform="translate(1150.976562 0)"/>
    <use xlink:href="#DejaVuSans-20" transform="translate(1212.158203 0)"/>
    <use xlink:href="#DejaVuSans-53" transform="translate(1243.945312 0)"/>
    <use xlink:href="#DejaVuSans-51" transform="translate(1307.421875 0)"/>
    <use xlink:href="#DejaVuSans-4c" transform="translate(1386.132812 0)"/>
    <use xlink:href="#DejaVuSans-2c" transform="translate(1441.845703 0)"/>
    <use xlink:href="#DejaVuSans-20" transform="translate(1473.632812 0)"/>
    <use xlink:href="#DejaVuSans-52" transform="translate(1505.419922 0)"/>
    <use xlink:href="#DejaVuSans-3d" transform="translate(1574.902344 0)"/>
    <use xlink:href="#DejaVuSans-31" transform="translate(1658.691406 0)"/>
    <use xlink:href="#DejaVuSans-29" transform="translate(1722.314453 0)"/>
   </g>
  </g>
 </g>
 <defs>
  <clipPath id="p8c37bf35df">
   <rect x="56.805938" y="65.616" width="458.37" height="283.962"/>
  </clipPath>
  <clipPath id="p885de7b0f9">
   <rect x="528.135937" y="65.616" width="458.37" height="283.962"/>
  </clipPath>
  <clipPath id="pf83f0686cf">
   <rect x="56.805938" y="378.618" width="458.37" height="283.962"/>
  </clipPath>
  <clipPath id="p4c349218d3">
   <rect x="528.135937" y="378.618" width="458.37" height="283.962"/>
  </clipPath>
 </defs>
</svg>
