<?xml version="1.0" encoding="utf-8" standalone="no"?>
<!DOCTYPE svg PUBLIC "-//W3C//DTD SVG 1.1//EN"
  "http://www.w3.org/Graphics/SVG/1.1/DTD/svg11.dtd">
<svg xmlns:xlink="http://www.w3.org/1999/xlink" width="992.053012pt" height="702.875687pt" viewBox="0 0 992.053012 702.875687" xmlns="http://www.w3.org/2000/svg" version="1.1">
 <metadata>
  <rdf:RDF xmlns:dc="http://purl.org/dc/elements/1.1/" xmlns:cc="http://creativecommons.org/ns#" xmlns:rdf="http://www.w3.org/1999/02/22-rdf-syntax-ns#">
   <cc:Work>
    <dc:type rdf:resource="http://purl.org/dc/dcmitype/StillImage"/>
    <dc:date>2026-06-21T04:53:50.006059</dc:date>
    <dc:format>image/svg+xml</dc:format>
    <dc:creator>
     <cc:Agent>
      <dc:title>Matplotlib v3.10.9, https://matplotlib.org/</dc:title>
     </cc:Agent>
    </dc:creator>
   </cc:Work>
  </rdf:RDF>
 </metadata>
 <defs>
  <style type="text/css">*{stroke-linejoin: round; stroke-linecap: butt}</style>
 </defs>
 <g id="figure_1">
  <g id="patch_1">
   <path d="M 0 702.875687 
L 992.053012 702.875687 
L 992.053012 0 
L 0 0 
z
" style="fill: #ffffff"/>
  </g>
  <g id="axes_1">
   <g id="patch_2">
    <path d="M 77.39 346.40996 
L 524.641506 346.40996 
L 524.641506 68.784 
L 77.39 68.784 
z
" style="fill: #ffffff"/>
   </g>
   <g id="matplotlib.axis_1">
    <g id="xtick_1">
     <g id="line2d_1">
      <path d="M 97.719614 346.40996 
L 97.719614 68.784 
" clip-path="url(#p5ac011513a)" style="fill: none; stroke: #cccccc; stroke-linecap: round"/>
     </g>
    </g>
    <g id="xtick_2">
     <g id="line2d_2">
      <path d="M 504.311892 346.40996 
L 504.311892 68.784 
" clip-path="url(#p5ac011513a)" style="fill: none; stroke: #cccccc; stroke-linecap: round"/>
     </g>
    </g>
    <g id="xtick_3"/>
    <g id="xtick_4"/>
    <g id="xtick_5"/>
    <g id="xtick_6"/>
    <g id="xtick_7"/>
    <g id="xtick_8"/>
    <g id="xtick_9"/>
    <g id="xtick_10"/>
    <g id="xtick_11"/>
   </g>
   <g id="matplotlib.axis_2">
    <g id="ytick_1">
     <g id="line2d_3">
      <path d="M 77.39 81.403362 
L 524.641506 81.403362 
" clip-path="url(#p5ac011513a)" style="fill: none; stroke: #cccccc; stroke-linecap: round"/>
     </g>
     <g id="text_1">
      <!-- $\mathdefault{10^{-1}}$ -->
      <g style="fill: #262626" transform="translate(42.04 85.582502) scale(0.11 -0.11)">
       <defs>
        <path id="DejaVuSans-31" d="M 794 531 
L 1825 531 
L 1825 4091 
L 703 3866 
L 703 4441 
L 1819 4666 
L 2450 4666 
L 2450 531 
L 3481 531 
L 3481 0 
L 794 0 
L 794 531 
z
" transform="scale(0.015625)"/>
        <path id="DejaVuSans-30" d="M 2034 4250 
Q 1547 4250 1301 3770 
Q 1056 3291 1056 2328 
Q 1056 1369 1301 889 
Q 1547 409 2034 409 
Q 2525 409 2770 889 
Q 3016 1369 3016 2328 
Q 3016 3291 2770 3770 
Q 2525 4250 2034 4250 
z
M 2034 4750 
Q 2819 4750 3233 4129 
Q 3647 3509 3647 2328 
Q 3647 1150 3233 529 
Q 2819 -91 2034 -91 
Q 1250 -91 836 529 
Q 422 1150 422 2328 
Q 422 3509 836 4129 
Q 1250 4750 2034 4750 
z
" transform="scale(0.015625)"/>
        <path id="DejaVuSans-2212" d="M 678 2272 
L 4684 2272 
L 4684 1741 
L 678 1741 
L 678 2272 
z
" transform="scale(0.015625)"/>
       </defs>
       <use xlink:href="#DejaVuSans-31" transform="translate(0 0.684375)"/>
       <use xlink:href="#DejaVuSans-30" transform="translate(63.623047 0.684375)"/>
       <use xlink:href="#DejaVuSans-2212" transform="translate(128.203125 38.965625) scale(0.7)"/>
       <use xlink:href="#DejaVuSans-31" transform="translate(186.855469 38.965625) scale(0.7)"/>
      </g>
     </g>
    </g>
    <g id="ytick_2">
     <g id="text_2">
      <!-- $\mathdefault{3\times10^{-2}}$ -->
      <g style="fill: #262626" transform="translate(23.68 349.518346) scale(0.11 -0.11)">
       <defs>
        <path id="DejaVuSans-33" d="M 2597 2516 
Q 3050 2419 3304 2112 
Q 3559 1806 3559 1356 
Q 3559 666 3084 287 
Q 2609 -91 1734 -91 
Q 1441 -91 1130 -33 
Q 819 25 488 141 
L 488 750 
Q 750 597 1062 519 
Q 1375 441 1716 441 
Q 2309 441 2620 675 
Q 2931 909 2931 1356 
Q 2931 1769 2642 2001 
Q 2353 2234 1838 2234 
L 1294 2234 
L 1294 2753 
L 1863 2753 
Q 2328 2753 2575 2939 
Q 2822 3125 2822 3475 
Q 2822 3834 2567 4026 
Q 2313 4219 1838 4219 
Q 1578 4219 1281 4162 
Q 984 4106 628 3988 
L 628 4550 
Q 988 4650 1302 4700 
Q 1616 4750 1894 4750 
Q 2613 4750 3031 4423 
Q 3450 4097 3450 3541 
Q 3450 3153 3228 2886 
Q 3006 2619 2597 2516 
z
" transform="scale(0.015625)"/>
        <path id="DejaVuSans-d7" d="M 4488 3438 
L 3059 2003 
L 4488 575 
L 4116 197 
L 2681 1631 
L 1247 197 
L 878 575 
L 2303 2003 
L 878 3438 
L 1247 3816 
L 2681 2381 
L 4116 3816 
L 4488 3438 
z
" transform="scale(0.015625)"/>
        <path id="DejaVuSans-32" d="M 1228 531 
L 3431 531 
L 3431 0 
L 469 0 
L 469 531 
Q 828 903 1448 1529 
Q 2069 2156 2228 2338 
Q 2531 2678 2651 2914 
Q 2772 3150 2772 3378 
Q 2772 3750 2511 3984 
Q 2250 4219 1831 4219 
Q 1534 4219 1204 4116 
Q 875 4013 500 3803 
L 500 4441 
Q 881 4594 1212 4672 
Q 1544 4750 1819 4750 
Q 2544 4750 2975 4387 
Q 3406 4025 3406 3419 
Q 3406 3131 3298 2873 
Q 3191 2616 2906 2266 
Q 2828 2175 2409 1742 
Q 1991 1309 1228 531 
z
" transform="scale(0.015625)"/>
       </defs>
       <use xlink:href="#DejaVuSans-33" transform="translate(0 0.765625)"/>
       <use xlink:href="#DejaVuSans-d7" transform="translate(83.105469 0.765625)"/>
       <use xlink:href="#DejaVuSans-31" transform="translate(186.376953 0.765625)"/>
       <use xlink:href="#DejaVuSans-30" transform="translate(250 0.765625)"/>
       <use xlink:href="#DejaVuSans-2212" transform="translate(314.580078 39.046875) scale(0.7)"/>
       <use xlink:href="#DejaVuSans-32" transform="translate(373.232422 39.046875) scale(0.7)"/>
      </g>
     </g>
    </g>
    <g id="ytick_3">
     <g id="text_3">
      <!-- $\mathdefault{4\times10^{-2}}$ -->
      <g style="fill: #262626" transform="translate(23.68 286.452461) scale(0.11 -0.11)">
       <defs>
        <path id="DejaVuSans-34" d="M 2419 4116 
L 825 1625 
L 2419 1625 
L 2419 4116 
z
M 2253 4666 
L 3047 4666 
L 3047 1625 
L 3713 1625 
L 3713 1100 
L 3047 1100 
L 3047 0 
L 2419 0 
L 2419 1100 
L 313 1100 
L 313 1709 
L 2253 4666 
z
" transform="scale(0.015625)"/>
       </defs>
       <use xlink:href="#DejaVuSans-34" transform="translate(0 0.765625)"/>
       <use xlink:href="#DejaVuSans-d7" transform="translate(83.105469 0.765625)"/>
       <use xlink:href="#DejaVuSans-31" transform="translate(186.376953 0.765625)"/>
       <use xlink:href="#DejaVuSans-30" transform="translate(250 0.765625)"/>
       <use xlink:href="#DejaVuSans-2212" transform="translate(314.580078 39.046875) scale(0.7)"/>
       <use xlink:href="#DejaVuSans-32" transform="translate(373.232422 39.046875) scale(0.7)"/>
      </g>
     </g>
    </g>
    <g id="ytick_4"/>
    <g id="ytick_5">
     <g id="text_4">
      <!-- $\mathdefault{6\times10^{-2}}$ -->
      <g style="fill: #262626" transform="translate(23.68 197.566088) scale(0.11 -0.11)">
       <defs>
        <path id="DejaVuSans-36" d="M 2113 2584 
Q 1688 2584 1439 2293 
Q 1191 2003 1191 1497 
Q 1191 994 1439 701 
Q 1688 409 2113 409 
Q 2538 409 2786 701 
Q 3034 994 3034 1497 
Q 3034 2003 2786 2293 
Q 2538 2584 2113 2584 
z
M 3366 4563 
L 3366 3988 
Q 3128 4100 2886 4159 
Q 2644 4219 2406 4219 
Q 1781 4219 1451 3797 
Q 1122 3375 1075 2522 
Q 1259 2794 1537 2939 
Q 1816 3084 2150 3084 
Q 2853 3084 3261 2657 
Q 3669 2231 3669 1497 
Q 3669 778 3244 343 
Q 2819 -91 2113 -91 
Q 1303 -91 875 529 
Q 447 1150 447 2328 
Q 447 3434 972 4092 
Q 1497 4750 2381 4750 
Q 2619 4750 2861 4703 
Q 3103 4656 3366 4563 
z
" transform="scale(0.015625)"/>
       </defs>
       <use xlink:href="#DejaVuSans-36" transform="translate(0 0.765625)"/>
       <use xlink:href="#DejaVuSans-d7" transform="translate(83.105469 0.765625)"/>
       <use xlink:href="#DejaVuSans-31" transform="translate(186.376953 0.765625)"/>
       <use xlink:href="#DejaVuSans-30" transform="translate(250 0.765625)"/>
       <use xlink:href="#DejaVuSans-2212" transform="translate(314.580078 39.046875) scale(0.7)"/>
       <use xlink:href="#DejaVuSans-32" transform="translate(373.232422 39.046875) scale(0.7)"/>
      </g>
     </g>
    </g>
    <g id="ytick_6"/>
    <g id="ytick_7"/>
    <g id="ytick_8"/>
    <g id="text_5">
     <!-- $\Delta\omega_\mathrm{opt}$ -->
     <g style="fill: #262626" transform="translate(15.96 223.79698) rotate(-90) scale(0.12 -0.12)">
      <defs>
       <path id="DejaVuSans-394" d="M 2188 4044 
L 906 525 
L 3472 525 
L 2188 4044 
z
M 50 0 
L 1831 4666 
L 2547 4666 
L 4325 0 
L 50 0 
z
" transform="scale(0.015625)"/>
       <path id="DejaVuSans-Oblique-3c9" d="M 1369 -91 
Q 72 -91 434 1766 
Q 575 2500 1256 3500 
L 1875 3500 
Q 1231 2500 1088 1750 
Q 819 397 1519 397 
Q 2166 397 2478 2078 
L 3009 2078 
Q 2669 388 3316 397 
Q 4013 403 4275 1750 
Q 4419 2500 4169 3500 
L 4788 3500 
Q 5075 2500 4934 1766 
Q 4578 -94 3278 -91 
Q 2428 -88 2503 844 
Q 2194 -91 1369 -91 
z
" transform="scale(0.015625)"/>
       <path id="DejaVuSans-6f" d="M 1959 3097 
Q 1497 3097 1228 2736 
Q 959 2375 959 1747 
Q 959 1119 1226 758 
Q 1494 397 1959 397 
Q 2419 397 2687 759 
Q 2956 1122 2956 1747 
Q 2956 2369 2687 2733 
Q 2419 3097 1959 3097 
z
M 1959 3584 
Q 2709 3584 3137 3096 
Q 3566 2609 3566 1747 
Q 3566 888 3137 398 
Q 2709 -91 1959 -91 
Q 1206 -91 779 398 
Q 353 888 353 1747 
Q 353 2609 779 3096 
Q 1206 3584 1959 3584 
z
" transform="scale(0.015625)"/>
       <path id="DejaVuSans-70" d="M 1159 525 
L 1159 -1331 
L 581 -1331 
L 581 3500 
L 1159 3500 
L 1159 2969 
Q 1341 3281 1617 3432 
Q 1894 3584 2278 3584 
Q 2916 3584 3314 3078 
Q 3713 2572 3713 1747 
Q 3713 922 3314 415 
Q 2916 -91 2278 -91 
Q 1894 -91 1617 61 
Q 1341 213 1159 525 
z
M 3116 1747 
Q 3116 2381 2855 2742 
Q 2594 3103 2138 3103 
Q 1681 3103 1420 2742 
Q 1159 2381 1159 1747 
Q 1159 1113 1420 752 
Q 1681 391 2138 391 
Q 2594 391 2855 752 
Q 3116 1113 3116 1747 
z
" transform="scale(0.015625)"/>
       <path id="DejaVuSans-74" d="M 1172 4494 
L 1172 3500 
L 2356 3500 
L 2356 3053 
L 1172 3053 
L 1172 1153 
Q 1172 725 1289 603 
Q 1406 481 1766 481 
L 2356 481 
L 2356 0 
L 1766 0 
Q 1100 0 847 248 
Q 594 497 594 1153 
L 594 3053 
L 172 3053 
L 172 3500 
L 594 3500 
L 594 4494 
L 1172 4494 
z
" transform="scale(0.015625)"/>
      </defs>
      <use xlink:href="#DejaVuSans-394" transform="translate(0 0.09375)"/>
      <use xlink:href="#DejaVuSans-Oblique-3c9" transform="translate(68.408203 0.09375)"/>
      <use xlink:href="#DejaVuSans-6f" transform="translate(152.148438 -16.3125) scale(0.7)"/>
      <use xlink:href="#DejaVuSans-70" transform="translate(194.975586 -16.3125) scale(0.7)"/>
      <use xlink:href="#DejaVuSans-74" transform="translate(239.40918 -16.3125) scale(0.7)"/>
     </g>
    </g>
   </g>
   <g id="line2d_4">
    <path d="M 97.719614 81.403362 
L 220.116086 157.379491 
L 291.713432 201.822677 
L 342.512557 233.355619 
L 381.91542 257.81447 
L 414.109904 277.798806 
L 441.329951 294.695321 
L 464.909029 309.331748 
L 485.70725 322.241992 
L 504.311892 333.790598 
" clip-path="url(#p5ac011513a)" style="fill: none; stroke: #4c72b0; stroke-width: 1.2; stroke-linecap: round"/>
    <defs>
     <path id="ma5874d7370" d="M 0 2.5 
C 0.663008 2.5 1.29895 2.236584 1.767767 1.767767 
C 2.236584 1.29895 2.5 0.663008 2.5 0 
C 2.5 -0.663008 2.236584 -1.29895 1.767767 -1.767767 
C 1.29895 -2.236584 0.663008 -2.5 0 -2.5 
C -0.663008 -2.5 -1.29895 -2.236584 -1.767767 -1.767767 
C -2.236584 -1.29895 -2.5 -0.663008 -2.5 0 
C -2.5 0.663008 -2.236584 1.29895 -1.767767 1.767767 
C -1.29895 2.236584 -0.663008 2.5 0 2.5 
z
" style="stroke: #4c72b0"/>
    </defs>
    <g clip-path="url(#p5ac011513a)">
     <use xlink:href="#ma5874d7370" x="97.719614" y="81.403362" style="fill: #4c72b0; stroke: #4c72b0"/>
     <use xlink:href="#ma5874d7370" x="220.116086" y="157.379491" style="fill: #4c72b0; stroke: #4c72b0"/>
     <use xlink:href="#ma5874d7370" x="291.713432" y="201.822677" style="fill: #4c72b0; stroke: #4c72b0"/>
     <use xlink:href="#ma5874d7370" x="342.512557" y="233.355619" style="fill: #4c72b0; stroke: #4c72b0"/>
     <use xlink:href="#ma5874d7370" x="381.91542" y="257.81447" style="fill: #4c72b0; stroke: #4c72b0"/>
     <use xlink:href="#ma5874d7370" x="414.109904" y="277.798806" style="fill: #4c72b0; stroke: #4c72b0"/>
     <use xlink:href="#ma5874d7370" x="441.329951" y="294.695321" style="fill: #4c72b0; stroke: #4c72b0"/>
     <use xlink:href="#ma5874d7370" x="464.909029" y="309.331748" style="fill: #4c72b0; stroke: #4c72b0"/>
     <use xlink:href="#ma5874d7370" x="485.70725" y="322.241992" style="fill: #4c72b0; stroke: #4c72b0"/>
     <use xlink:href="#ma5874d7370" x="504.311892" y="333.790598" style="fill: #4c72b0; stroke: #4c72b0"/>
    </g>
   </g>
   <g id="line2d_5">
    <path d="M 97.719614 81.403362 
L 220.116086 157.379491 
L 291.713432 201.822677 
L 342.512557 233.355619 
L 381.91542 257.81447 
L 414.109904 277.798806 
L 441.329951 294.695321 
L 464.909029 309.331748 
L 485.70725 322.241992 
L 504.311892 333.790598 
" clip-path="url(#p5ac011513a)" style="fill: none; stroke: #dd8452; stroke-width: 1.2; stroke-linecap: round"/>
    <defs>
     <path id="m716cdd5fb1" d="M 0 2.5 
C 0.663008 2.5 1.29895 2.236584 1.767767 1.767767 
C 2.236584 1.29895 2.5 0.663008 2.5 0 
C 2.5 -0.663008 2.236584 -1.29895 1.767767 -1.767767 
C 1.29895 -2.236584 0.663008 -2.5 0 -2.5 
C -0.663008 -2.5 -1.29895 -2.236584 -1.767767 -1.767767 
C -2.236584 -1.29895 -2.5 -0.663008 -2.5 0 
C -2.5 0.663008 -2.236584 1.29895 -1.767767 1.767767 
C -1.29895 2.236584 -0.663008 2.5 0 2.5 
z
" style="stroke: #dd8452"/>
    </defs>
    <g clip-path="url(#p5ac011513a)">
     <use xlink:href="#m716cdd5fb1" x="97.719614" y="81.403362" style="fill: #dd8452; stroke: #dd8452"/>
     <use xlink:href="#m716cdd5fb1" x="220.116086" y="157.379491" style="fill: #dd8452; stroke: #dd8452"/>
     <use xlink:href="#m716cdd5fb1" x="291.713432" y="201.822677" style="fill: #dd8452; stroke: #dd8452"/>
     <use xlink:href="#m716cdd5fb1" x="342.512557" y="233.355619" style="fill: #dd8452; stroke: #dd8452"/>
     <use xlink:href="#m716cdd5fb1" x="381.91542" y="257.81447" style="fill: #dd8452; stroke: #dd8452"/>
     <use xlink:href="#m716cdd5fb1" x="414.109904" y="277.798806" style="fill: #dd8452; stroke: #dd8452"/>
     <use xlink:href="#m716cdd5fb1" x="441.329951" y="294.695321" style="fill: #dd8452; stroke: #dd8452"/>
     <use xlink:href="#m716cdd5fb1" x="464.909029" y="309.331748" style="fill: #dd8452; stroke: #dd8452"/>
     <use xlink:href="#m716cdd5fb1" x="485.70725" y="322.241992" style="fill: #dd8452; stroke: #dd8452"/>
     <use xlink:href="#m716cdd5fb1" x="504.311892" y="333.790598" style="fill: #dd8452; stroke: #dd8452"/>
    </g>
   </g>
   <g id="line2d_6">
    <path d="M 97.719614 81.403362 
L 220.116086 157.379491 
L 291.713432 201.822677 
L 342.512557 233.355619 
L 381.91542 257.81447 
L 414.109904 277.798806 
L 441.329951 294.695321 
L 464.909029 309.331748 
L 485.70725 322.241992 
L 504.311892 333.790598 
" clip-path="url(#p5ac011513a)" style="fill: none; stroke: #55a868; stroke-width: 1.2; stroke-linecap: round"/>
    <defs>
     <path id="m73e3549d94" d="M 0 2.5 
C 0.663008 2.5 1.29895 2.236584 1.767767 1.767767 
C 2.236584 1.29895 2.5 0.663008 2.5 0 
C 2.5 -0.663008 2.236584 -1.29895 1.767767 -1.767767 
C 1.29895 -2.236584 0.663008 -2.5 0 -2.5 
C -0.663008 -2.5 -1.29895 -2.236584 -1.767767 -1.767767 
C -2.236584 -1.29895 -2.5 -0.663008 -2.5 0 
C -2.5 0.663008 -2.236584 1.29895 -1.767767 1.767767 
C -1.29895 2.236584 -0.663008 2.5 0 2.5 
z
" style="stroke: #55a868"/>
    </defs>
    <g clip-path="url(#p5ac011513a)">
     <use xlink:href="#m73e3549d94" x="97.719614" y="81.403362" style="fill: #55a868; stroke: #55a868"/>
     <use xlink:href="#m73e3549d94" x="220.116086" y="157.379491" style="fill: #55a868; stroke: #55a868"/>
     <use xlink:href="#m73e3549d94" x="291.713432" y="201.822677" style="fill: #55a868; stroke: #55a868"/>
     <use xlink:href="#m73e3549d94" x="342.512557" y="233.355619" style="fill: #55a868; stroke: #55a868"/>
     <use xlink:href="#m73e3549d94" x="381.91542" y="257.81447" style="fill: #55a868; stroke: #55a868"/>
     <use xlink:href="#m73e3549d94" x="414.109904" y="277.798806" style="fill: #55a868; stroke: #55a868"/>
     <use xlink:href="#m73e3549d94" x="441.329951" y="294.695321" style="fill: #55a868; stroke: #55a868"/>
     <use xlink:href="#m73e3549d94" x="464.909029" y="309.331748" style="fill: #55a868; stroke: #55a868"/>
     <use xlink:href="#m73e3549d94" x="485.70725" y="322.241992" style="fill: #55a868; stroke: #55a868"/>
     <use xlink:href="#m73e3549d94" x="504.311892" y="333.790598" style="fill: #55a868; stroke: #55a868"/>
    </g>
   </g>
   <g id="line2d_7">
    <path d="M 97.719614 81.403362 
L 220.116086 157.379491 
L 291.713432 201.822677 
L 342.512557 233.355619 
L 381.91542 257.81447 
L 414.109904 277.798806 
L 441.329951 294.695321 
L 464.909029 309.331748 
L 485.70725 322.241992 
L 504.311892 333.790598 
" clip-path="url(#p5ac011513a)" style="fill: none; stroke: #c44e52; stroke-width: 1.2; stroke-linecap: round"/>
    <defs>
     <path id="mca6d6e3f8f" d="M 0 2.5 
C 0.663008 2.5 1.29895 2.236584 1.767767 1.767767 
C 2.236584 1.29895 2.5 0.663008 2.5 0 
C 2.5 -0.663008 2.236584 -1.29895 1.767767 -1.767767 
C 1.29895 -2.236584 0.663008 -2.5 0 -2.5 
C -0.663008 -2.5 -1.29895 -2.236584 -1.767767 -1.767767 
C -2.236584 -1.29895 -2.5 -0.663008 -2.5 0 
C -2.5 0.663008 -2.236584 1.29895 -1.767767 1.767767 
C -1.29895 2.236584 -0.663008 2.5 0 2.5 
z
" style="stroke: #c44e52"/>
    </defs>
    <g clip-path="url(#p5ac011513a)">
     <use xlink:href="#mca6d6e3f8f" x="97.719614" y="81.403362" style="fill: #c44e52; stroke: #c44e52"/>
     <use xlink:href="#mca6d6e3f8f" x="220.116086" y="157.379491" style="fill: #c44e52; stroke: #c44e52"/>
     <use xlink:href="#mca6d6e3f8f" x="291.713432" y="201.822677" style="fill: #c44e52; stroke: #c44e52"/>
     <use xlink:href="#mca6d6e3f8f" x="342.512557" y="233.355619" style="fill: #c44e52; stroke: #c44e52"/>
     <use xlink:href="#mca6d6e3f8f" x="381.91542" y="257.81447" style="fill: #c44e52; stroke: #c44e52"/>
     <use xlink:href="#mca6d6e3f8f" x="414.109904" y="277.798806" style="fill: #c44e52; stroke: #c44e52"/>
     <use xlink:href="#mca6d6e3f8f" x="441.329951" y="294.695321" style="fill: #c44e52; stroke: #c44e52"/>
     <use xlink:href="#mca6d6e3f8f" x="464.909029" y="309.331748" style="fill: #c44e52; stroke: #c44e52"/>
     <use xlink:href="#mca6d6e3f8f" x="485.70725" y="322.241992" style="fill: #c44e52; stroke: #c44e52"/>
     <use xlink:href="#mca6d6e3f8f" x="504.311892" y="333.790598" style="fill: #c44e52; stroke: #c44e52"/>
    </g>
   </g>
   <g id="line2d_8">
    <path d="M 97.719614 81.403362 
L 220.116086 157.379491 
L 291.713432 201.822677 
L 342.512557 233.355619 
L 381.91542 257.81447 
L 414.109904 277.798806 
L 441.329951 294.695321 
L 464.909029 309.331748 
L 485.70725 322.241992 
L 504.311892 333.790598 
" clip-path="url(#p5ac011513a)" style="fill: none; stroke: #8172b3; stroke-width: 1.2; stroke-linecap: round"/>
    <defs>
     <path id="m11cae1fd7d" d="M 0 2.5 
C 0.663008 2.5 1.29895 2.236584 1.767767 1.767767 
C 2.236584 1.29895 2.5 0.663008 2.5 0 
C 2.5 -0.663008 2.236584 -1.29895 1.767767 -1.767767 
C 1.29895 -2.236584 0.663008 -2.5 0 -2.5 
C -0.663008 -2.5 -1.29895 -2.236584 -1.767767 -1.767767 
C -2.236584 -1.29895 -2.5 -0.663008 -2.5 0 
C -2.5 0.663008 -2.236584 1.29895 -1.767767 1.767767 
C -1.29895 2.236584 -0.663008 2.5 0 2.5 
z
" style="stroke: #8172b3"/>
    </defs>
    <g clip-path="url(#p5ac011513a)">
     <use xlink:href="#m11cae1fd7d" x="97.719614" y="81.403362" style="fill: #8172b3; stroke: #8172b3"/>
     <use xlink:href="#m11cae1fd7d" x="220.116086" y="157.379491" style="fill: #8172b3; stroke: #8172b3"/>
     <use xlink:href="#m11cae1fd7d" x="291.713432" y="201.822677" style="fill: #8172b3; stroke: #8172b3"/>
     <use xlink:href="#m11cae1fd7d" x="342.512557" y="233.355619" style="fill: #8172b3; stroke: #8172b3"/>
     <use xlink:href="#m11cae1fd7d" x="381.91542" y="257.81447" style="fill: #8172b3; stroke: #8172b3"/>
     <use xlink:href="#m11cae1fd7d" x="414.109904" y="277.798806" style="fill: #8172b3; stroke: #8172b3"/>
     <use xlink:href="#m11cae1fd7d" x="441.329951" y="294.695321" style="fill: #8172b3; stroke: #8172b3"/>
     <use xlink:href="#m11cae1fd7d" x="464.909029" y="309.331748" style="fill: #8172b3; stroke: #8172b3"/>
     <use xlink:href="#m11cae1fd7d" x="485.70725" y="322.241992" style="fill: #8172b3; stroke: #8172b3"/>
     <use xlink:href="#m11cae1fd7d" x="504.311892" y="333.790598" style="fill: #8172b3; stroke: #8172b3"/>
    </g>
   </g>
   <g id="line2d_9">
    <path d="M 97.719614 81.403362 
L 113.084151 90.940712 
L 127.218155 99.714224 
L 140.304199 107.837228 
L 152.487014 115.399563 
L 163.883277 122.473655 
L 174.58842 129.118743 
L 184.681497 135.383899 
L 194.228729 141.310227 
L 203.28614 146.932505 
L 211.901545 152.280414 
L 220.116086 157.379491 
L 227.965413 162.251865 
L 235.480623 166.916841 
L 242.689002 171.391355 
L 249.614627 175.690353 
L 256.278843 179.827085 
L 262.70067 183.813356 
L 268.897123 187.659729 
L 274.883486 191.375691 
L 280.673538 194.969796 
L 286.279748 198.449783 
L 291.713432 201.822677 
L 296.984891 205.094872 
L 302.103533 208.272207 
L 307.077969 211.360027 
L 311.916101 214.363239 
L 316.625201 217.286356 
L 321.211973 220.133539 
L 325.682611 222.908634 
L 330.042852 225.615201 
L 334.298017 228.256542 
L 338.45305 230.835729 
L 342.512557 233.355619 
L 346.480832 235.818878 
L 350.361884 238.227994 
L 354.159467 240.585297 
L 357.877094 242.89297 
L 361.518064 245.153058 
L 365.085474 247.367484 
L 368.582238 249.538058 
L 372.011098 251.666482 
L 375.374644 253.754362 
L 378.675315 255.803213 
L 381.91542 257.81447 
L 385.097142 259.789485 
L 388.222547 261.729542 
L 391.293595 263.635858 
L 394.312143 265.509585 
L 397.279957 267.35182 
L 400.198715 269.163603 
L 403.07001 270.945925 
L 405.895363 272.699729 
L 408.67622 274.425912 
L 411.413961 276.125332 
L 414.109904 277.798806 
L 416.765304 279.447113 
L 419.381363 281.071 
L 421.959231 282.67118 
L 424.500005 284.248335 
L 427.004739 285.803119 
L 429.474441 287.336156 
L 431.910076 288.848047 
L 434.312573 290.339368 
L 436.68282 291.81067 
L 439.021673 293.262485 
L 441.329951 294.695321 
L 443.608445 296.109668 
L 445.857912 297.505997 
L 448.079083 298.884763 
L 450.272661 300.2464 
L 452.439324 301.591329 
L 454.579723 302.919956 
L 456.694488 304.232671 
L 458.784226 305.529851 
L 460.849522 306.811858 
L 462.890941 308.079044 
L 464.909029 309.331748 
L 466.904313 310.570297 
L 468.877304 311.795006 
L 470.828492 313.006183 
L 472.758356 314.204123 
L 474.667356 315.389111 
L 476.555939 316.561426 
L 478.424536 317.721335 
L 480.273566 318.869098 
L 482.103435 320.004967 
L 483.914536 321.129186 
L 485.70725 322.241992 
L 487.481946 323.343613 
L 489.238983 324.434273 
L 490.978709 325.514187 
L 492.701462 326.583565 
L 494.40757 327.64261 
L 496.097351 328.691522 
L 497.771115 329.73049 
L 499.429163 330.759703 
L 501.071787 331.779342 
L 502.699271 332.789583 
L 504.311892 333.790598 
" clip-path="url(#p5ac011513a)" style="fill: none; stroke-dasharray: 5.55,2.4; stroke-dashoffset: 0; stroke: #1a1a1a; stroke-opacity: 0.7; stroke-width: 1.5"/>
   </g>
   <g id="patch_3">
    <path d="M 77.39 346.40996 
L 77.39 68.784 
" style="fill: none; stroke: #cccccc; stroke-width: 1.25; stroke-linejoin: miter; stroke-linecap: square"/>
   </g>
   <g id="patch_4">
    <path d="M 524.641506 346.40996 
L 524.641506 68.784 
" style="fill: none; stroke: #cccccc; stroke-width: 1.25; stroke-linejoin: miter; stroke-linecap: square"/>
   </g>
   <g id="patch_5">
    <path d="M 77.39 346.40996 
L 524.641506 346.40996 
" style="fill: none; stroke: #cccccc; stroke-width: 1.25; stroke-linejoin: miter; stroke-linecap: square"/>
   </g>
   <g id="patch_6">
    <path d="M 77.39 68.784 
L 524.641506 68.784 
" style="fill: none; stroke: #cccccc; stroke-width: 1.25; stroke-linejoin: miter; stroke-linecap: square"/>
   </g>
   <g id="text_6">
    <!-- M=1 (J_A=0.5) -->
    <g style="fill: #262626" transform="translate(256.960753 62.784) scale(0.12 -0.12)">
     <defs>
      <path id="DejaVuSans-4d" d="M 628 4666 
L 1569 4666 
L 2759 1491 
L 3956 4666 
L 4897 4666 
L 4897 0 
L 4281 0 
L 4281 4097 
L 3078 897 
L 2444 897 
L 1241 4097 
L 1241 0 
L 628 0 
L 628 4666 
z
" transform="scale(0.015625)"/>
      <path id="DejaVuSans-3d" d="M 678 2906 
L 4684 2906 
L 4684 2381 
L 678 2381 
L 678 2906 
z
M 678 1631 
L 4684 1631 
L 4684 1100 
L 678 1100 
L 678 1631 
z
" transform="scale(0.015625)"/>
      <path id="DejaVuSans-20" transform="scale(0.015625)"/>
      <path id="DejaVuSans-28" d="M 1984 4856 
Q 1566 4138 1362 3434 
Q 1159 2731 1159 2009 
Q 1159 1288 1364 580 
Q 1569 -128 1984 -844 
L 1484 -844 
Q 1016 -109 783 600 
Q 550 1309 550 2009 
Q 550 2706 781 3412 
Q 1013 4119 1484 4856 
L 1984 4856 
z
" transform="scale(0.015625)"/>
      <path id="DejaVuSans-4a" d="M 628 4666 
L 1259 4666 
L 1259 325 
Q 1259 -519 939 -900 
Q 619 -1281 -91 -1281 
L -331 -1281 
L -331 -750 
L -134 -750 
Q 284 -750 456 -515 
Q 628 -281 628 325 
L 628 4666 
z
" transform="scale(0.015625)"/>
      <path id="DejaVuSans-5f" d="M 3263 -1063 
L 3263 -1509 
L -63 -1509 
L -63 -1063 
L 3263 -1063 
z
" transform="scale(0.015625)"/>
      <path id="DejaVuSans-41" d="M 2188 4044 
L 1331 1722 
L 3047 1722 
L 2188 4044 
z
M 1831 4666 
L 2547 4666 
L 4325 0 
L 3669 0 
L 3244 1197 
L 1141 1197 
L 716 0 
L 50 0 
L 1831 4666 
z
" transform="scale(0.015625)"/>
      <path id="DejaVuSans-2e" d="M 684 794 
L 1344 794 
L 1344 0 
L 684 0 
L 684 794 
z
" transform="scale(0.015625)"/>
      <path id="DejaVuSans-35" d="M 691 4666 
L 3169 4666 
L 3169 4134 
L 1269 4134 
L 1269 2991 
Q 1406 3038 1543 3061 
Q 1681 3084 1819 3084 
Q 2600 3084 3056 2656 
Q 3513 2228 3513 1497 
Q 3513 744 3044 326 
Q 2575 -91 1722 -91 
Q 1428 -91 1123 -41 
Q 819 9 494 109 
L 494 744 
Q 775 591 1075 516 
Q 1375 441 1709 441 
Q 2250 441 2565 725 
Q 2881 1009 2881 1497 
Q 2881 1984 2565 2268 
Q 2250 2553 1709 2553 
Q 1456 2553 1204 2497 
Q 953 2441 691 2322 
L 691 4666 
z
" transform="scale(0.015625)"/>
      <path id="DejaVuSans-29" d="M 513 4856 
L 1013 4856 
Q 1481 4119 1714 3412 
Q 1947 2706 1947 2009 
Q 1947 1309 1714 600 
Q 1481 -109 1013 -844 
L 513 -844 
Q 928 -128 1133 580 
Q 1338 1288 1338 2009 
Q 1338 2731 1133 3434 
Q 928 4138 513 4856 
z
" transform="scale(0.015625)"/>
     </defs>
     <use xlink:href="#DejaVuSans-4d"/>
     <use xlink:href="#DejaVuSans-3d" transform="translate(86.279297 0)"/>
     <use xlink:href="#DejaVuSans-31" transform="translate(170.068359 0)"/>
     <use xlink:href="#DejaVuSans-20" transform="translate(233.691406 0)"/>
     <use xlink:href="#DejaVuSans-28" transform="translate(265.478516 0)"/>
     <use xlink:href="#DejaVuSans-4a" transform="translate(304.492188 0)"/>
     <use xlink:href="#DejaVuSans-5f" transform="translate(333.984375 0)"/>
     <use xlink:href="#DejaVuSans-41" transform="translate(383.984375 0)"/>
     <use xlink:href="#DejaVuSans-3d" transform="translate(452.392578 0)"/>
     <use xlink:href="#DejaVuSans-30" transform="translate(536.181641 0)"/>
     <use xlink:href="#DejaVuSans-2e" transform="translate(599.804688 0)"/>
     <use xlink:href="#DejaVuSans-35" transform="translate(631.591797 0)"/>
     <use xlink:href="#DejaVuSans-29" transform="translate(695.214844 0)"/>
    </g>
   </g>
   <g id="legend_1">
    <g id="patch_7">
     <path d="M 464.161506 145.639 
L 519.041506 145.639 
Q 520.641506 145.639 520.641506 144.039 
L 520.641506 74.384 
Q 520.641506 72.784 519.041506 72.784 
L 464.161506 72.784 
Q 462.561506 72.784 462.561506 74.384 
L 462.561506 144.039 
Q 462.561506 145.639 464.161506 145.639 
z
" style="fill: #ffffff; opacity: 0.8; stroke: #cccccc; stroke-linejoin: miter"/>
    </g>
    <g id="line2d_10">
     <path d="M 465.761506 79.26275 
L 473.761506 79.26275 
L 481.761506 79.26275 
" style="fill: none; stroke: #4c72b0; stroke-width: 1.2; stroke-linecap: round"/>
     <g>
      <use xlink:href="#ma5874d7370" x="473.761506" y="79.26275" style="fill: #4c72b0; stroke: #4c72b0"/>
     </g>
    </g>
    <g id="text_7">
     <!-- $\omega=0.1$ -->
     <g style="fill: #262626" transform="translate(488.161506 82.06275) scale(0.08 -0.08)">
      <use xlink:href="#DejaVuSans-Oblique-3c9" transform="translate(0 0.78125)"/>
      <use xlink:href="#DejaVuSans-3d" transform="translate(103.222656 0.78125)"/>
      <use xlink:href="#DejaVuSans-30" transform="translate(206.494141 0.78125)"/>
      <use xlink:href="#DejaVuSans-2e" transform="translate(270.117188 0.78125)"/>
      <use xlink:href="#DejaVuSans-31" transform="translate(301.904297 0.78125)"/>
     </g>
    </g>
    <g id="line2d_11">
     <path d="M 465.761506 91.00525 
L 473.761506 91.00525 
L 481.761506 91.00525 
" style="fill: none; stroke: #dd8452; stroke-width: 1.2; stroke-linecap: round"/>
     <g>
      <use xlink:href="#m716cdd5fb1" x="473.761506" y="91.00525" style="fill: #dd8452; stroke: #dd8452"/>
     </g>
    </g>
    <g id="text_8">
     <!-- $\omega=0.5$ -->
     <g style="fill: #262626" transform="translate(488.161506 93.80525) scale(0.08 -0.08)">
      <use xlink:href="#DejaVuSans-Oblique-3c9" transform="translate(0 0.78125)"/>
      <use xlink:href="#DejaVuSans-3d" transform="translate(103.222656 0.78125)"/>
      <use xlink:href="#DejaVuSans-30" transform="translate(206.494141 0.78125)"/>
      <use xlink:href="#DejaVuSans-2e" transform="translate(270.117188 0.78125)"/>
      <use xlink:href="#DejaVuSans-35" transform="translate(301.904297 0.78125)"/>
     </g>
    </g>
    <g id="line2d_12">
     <path d="M 465.761506 102.74775 
L 473.761506 102.74775 
L 481.761506 102.74775 
" style="fill: none; stroke: #55a868; stroke-width: 1.2; stroke-linecap: round"/>
     <g>
      <use xlink:href="#m73e3549d94" x="473.761506" y="102.74775" style="fill: #55a868; stroke: #55a868"/>
     </g>
    </g>
    <g id="text_9">
     <!-- $\omega=1.0$ -->
     <g style="fill: #262626" transform="translate(488.161506 105.54775) scale(0.08 -0.08)">
      <use xlink:href="#DejaVuSans-Oblique-3c9" transform="translate(0 0.78125)"/>
      <use xlink:href="#DejaVuSans-3d" transform="translate(103.222656 0.78125)"/>
      <use xlink:href="#DejaVuSans-31" transform="translate(206.494141 0.78125)"/>
      <use xlink:href="#DejaVuSans-2e" transform="translate(270.117188 0.78125)"/>
      <use xlink:href="#DejaVuSans-30" transform="translate(301.904297 0.78125)"/>
     </g>
    </g>
    <g id="line2d_13">
     <path d="M 465.761506 114.49025 
L 473.761506 114.49025 
L 481.761506 114.49025 
" style="fill: none; stroke: #c44e52; stroke-width: 1.2; stroke-linecap: round"/>
     <g>
      <use xlink:href="#mca6d6e3f8f" x="473.761506" y="114.49025" style="fill: #c44e52; stroke: #c44e52"/>
     </g>
    </g>
    <g id="text_10">
     <!-- $\omega=2.0$ -->
     <g style="fill: #262626" transform="translate(488.161506 117.29025) scale(0.08 -0.08)">
      <use xlink:href="#DejaVuSans-Oblique-3c9" transform="translate(0 0.78125)"/>
      <use xlink:href="#DejaVuSans-3d" transform="translate(103.222656 0.78125)"/>
      <use xlink:href="#DejaVuSans-32" transform="translate(206.494141 0.78125)"/>
      <use xlink:href="#DejaVuSans-2e" transform="translate(270.117188 0.78125)"/>
      <use xlink:href="#DejaVuSans-30" transform="translate(301.904297 0.78125)"/>
     </g>
    </g>
    <g id="line2d_14">
     <path d="M 465.761506 126.23275 
L 473.761506 126.23275 
L 481.761506 126.23275 
" style="fill: none; stroke: #8172b3; stroke-width: 1.2; stroke-linecap: round"/>
     <g>
      <use xlink:href="#m11cae1fd7d" x="473.761506" y="126.23275" style="fill: #8172b3; stroke: #8172b3"/>
     </g>
    </g>
    <g id="text_11">
     <!-- $\omega=5.0$ -->
     <g style="fill: #262626" transform="translate(488.161506 129.03275) scale(0.08 -0.08)">
      <use xlink:href="#DejaVuSans-Oblique-3c9" transform="translate(0 0.78125)"/>
      <use xlink:href="#DejaVuSans-3d" transform="translate(103.222656 0.78125)"/>
      <use xlink:href="#DejaVuSans-35" transform="translate(206.494141 0.78125)"/>
      <use xlink:href="#DejaVuSans-2e" transform="translate(270.117188 0.78125)"/>
      <use xlink:href="#DejaVuSans-30" transform="translate(301.904297 0.78125)"/>
     </g>
    </g>
    <g id="line2d_15">
     <path d="M 465.761506 137.97525 
L 473.761506 137.97525 
L 481.761506 137.97525 
" style="fill: none; stroke-dasharray: 5.55,2.4; stroke-dashoffset: 0; stroke: #1a1a1a; stroke-opacity: 0.7; stroke-width: 1.5"/>
    </g>
    <g id="text_12">
     <!-- SQL -->
     <g style="fill: #262626" transform="translate(488.161506 140.77525) scale(0.08 -0.08)">
      <defs>
       <path id="DejaVuSans-53" d="M 3425 4513 
L 3425 3897 
Q 3066 4069 2747 4153 
Q 2428 4238 2131 4238 
Q 1616 4238 1336 4038 
Q 1056 3838 1056 3469 
Q 1056 3159 1242 3001 
Q 1428 2844 1947 2747 
L 2328 2669 
Q 3034 2534 3370 2195 
Q 3706 1856 3706 1288 
Q 3706 609 3251 259 
Q 2797 -91 1919 -91 
Q 1588 -91 1214 -16 
Q 841 59 441 206 
L 441 856 
Q 825 641 1194 531 
Q 1563 422 1919 422 
Q 2459 422 2753 634 
Q 3047 847 3047 1241 
Q 3047 1584 2836 1778 
Q 2625 1972 2144 2069 
L 1759 2144 
Q 1053 2284 737 2584 
Q 422 2884 422 3419 
Q 422 4038 858 4394 
Q 1294 4750 2059 4750 
Q 2388 4750 2728 4690 
Q 3069 4631 3425 4513 
z
" transform="scale(0.015625)"/>
       <path id="DejaVuSans-51" d="M 2522 4238 
Q 1834 4238 1429 3725 
Q 1025 3213 1025 2328 
Q 1025 1447 1429 934 
Q 1834 422 2522 422 
Q 3209 422 3611 934 
Q 4013 1447 4013 2328 
Q 4013 3213 3611 3725 
Q 3209 4238 2522 4238 
z
M 3406 84 
L 4238 -825 
L 3475 -825 
L 2784 -78 
Q 2681 -84 2626 -87 
Q 2572 -91 2522 -91 
Q 1538 -91 948 567 
Q 359 1225 359 2328 
Q 359 3434 948 4092 
Q 1538 4750 2522 4750 
Q 3503 4750 4090 4092 
Q 4678 3434 4678 2328 
Q 4678 1516 4351 937 
Q 4025 359 3406 84 
z
" transform="scale(0.015625)"/>
       <path id="DejaVuSans-4c" d="M 628 4666 
L 1259 4666 
L 1259 531 
L 3531 531 
L 3531 0 
L 628 0 
L 628 4666 
z
" transform="scale(0.015625)"/>
      </defs>
      <use xlink:href="#DejaVuSans-53"/>
      <use xlink:href="#DejaVuSans-51" transform="translate(63.476562 0)"/>
      <use xlink:href="#DejaVuSans-4c" transform="translate(142.1875 0)"/>
     </g>
    </g>
   </g>
  </g>
  <g id="axes_2">
   <g id="patch_8">
    <path d="M 537.601506 346.40996 
L 984.853012 346.40996 
L 984.853012 68.784 
L 537.601506 68.784 
z
" style="fill: #ffffff"/>
   </g>
   <g id="matplotlib.axis_3">
    <g id="xtick_12">
     <g id="line2d_16">
      <path d="M 557.93112 346.40996 
L 557.93112 68.784 
" clip-path="url(#pe4a5db14c7)" style="fill: none; stroke: #cccccc; stroke-linecap: round"/>
     </g>
    </g>
    <g id="xtick_13">
     <g id="line2d_17">
      <path d="M 964.523398 346.40996 
L 964.523398 68.784 
" clip-path="url(#pe4a5db14c7)" style="fill: none; stroke: #cccccc; stroke-linecap: round"/>
     </g>
    </g>
    <g id="xtick_14"/>
    <g id="xtick_15"/>
    <g id="xtick_16"/>
    <g id="xtick_17"/>
    <g id="xtick_18"/>
    <g id="xtick_19"/>
    <g id="xtick_20"/>
    <g id="xtick_21"/>
    <g id="xtick_22"/>
   </g>
   <g id="matplotlib.axis_4">
    <g id="ytick_9">
     <g id="line2d_18">
      <path d="M 537.601506 81.403362 
L 984.853012 81.403362 
" clip-path="url(#pe4a5db14c7)" style="fill: none; stroke: #cccccc; stroke-linecap: round"/>
     </g>
    </g>
    <g id="ytick_10"/>
    <g id="ytick_11"/>
    <g id="ytick_12"/>
    <g id="ytick_13"/>
    <g id="ytick_14"/>
    <g id="ytick_15"/>
    <g id="ytick_16"/>
   </g>
   <g id="line2d_19">
    <path d="M 557.93112 81.403362 
L 680.327592 157.379491 
L 751.924938 201.822677 
L 802.724063 233.355619 
L 842.126926 257.81447 
L 874.32141 277.798806 
L 901.541457 294.695321 
L 925.120535 309.331748 
L 945.918756 322.241992 
L 964.523398 333.790598 
" clip-path="url(#pe4a5db14c7)" style="fill: none; stroke: #4c72b0; stroke-width: 1.2; stroke-linecap: round"/>
    <g clip-path="url(#pe4a5db14c7)">
     <use xlink:href="#ma5874d7370" x="557.93112" y="81.403362" style="fill: #4c72b0; stroke: #4c72b0"/>
     <use xlink:href="#ma5874d7370" x="680.327592" y="157.379491" style="fill: #4c72b0; stroke: #4c72b0"/>
     <use xlink:href="#ma5874d7370" x="751.924938" y="201.822677" style="fill: #4c72b0; stroke: #4c72b0"/>
     <use xlink:href="#ma5874d7370" x="802.724063" y="233.355619" style="fill: #4c72b0; stroke: #4c72b0"/>
     <use xlink:href="#ma5874d7370" x="842.126926" y="257.81447" style="fill: #4c72b0; stroke: #4c72b0"/>
     <use xlink:href="#ma5874d7370" x="874.32141" y="277.798806" style="fill: #4c72b0; stroke: #4c72b0"/>
     <use xlink:href="#ma5874d7370" x="901.541457" y="294.695321" style="fill: #4c72b0; stroke: #4c72b0"/>
     <use xlink:href="#ma5874d7370" x="925.120535" y="309.331748" style="fill: #4c72b0; stroke: #4c72b0"/>
     <use xlink:href="#ma5874d7370" x="945.918756" y="322.241992" style="fill: #4c72b0; stroke: #4c72b0"/>
     <use xlink:href="#ma5874d7370" x="964.523398" y="333.790598" style="fill: #4c72b0; stroke: #4c72b0"/>
    </g>
   </g>
   <g id="line2d_20">
    <path d="M 557.93112 81.403362 
L 680.327592 157.379491 
L 751.924938 201.822677 
L 802.724063 233.355619 
L 842.126926 257.81447 
L 874.32141 277.798806 
L 901.541457 294.695321 
L 925.120535 309.331748 
L 945.918756 322.241992 
L 964.523398 333.790598 
" clip-path="url(#pe4a5db14c7)" style="fill: none; stroke: #dd8452; stroke-width: 1.2; stroke-linecap: round"/>
    <g clip-path="url(#pe4a5db14c7)">
     <use xlink:href="#m716cdd5fb1" x="557.93112" y="81.403362" style="fill: #dd8452; stroke: #dd8452"/>
     <use xlink:href="#m716cdd5fb1" x="680.327592" y="157.379491" style="fill: #dd8452; stroke: #dd8452"/>
     <use xlink:href="#m716cdd5fb1" x="751.924938" y="201.822677" style="fill: #dd8452; stroke: #dd8452"/>
     <use xlink:href="#m716cdd5fb1" x="802.724063" y="233.355619" style="fill: #dd8452; stroke: #dd8452"/>
     <use xlink:href="#m716cdd5fb1" x="842.126926" y="257.81447" style="fill: #dd8452; stroke: #dd8452"/>
     <use xlink:href="#m716cdd5fb1" x="874.32141" y="277.798806" style="fill: #dd8452; stroke: #dd8452"/>
     <use xlink:href="#m716cdd5fb1" x="901.541457" y="294.695321" style="fill: #dd8452; stroke: #dd8452"/>
     <use xlink:href="#m716cdd5fb1" x="925.120535" y="309.331748" style="fill: #dd8452; stroke: #dd8452"/>
     <use xlink:href="#m716cdd5fb1" x="945.918756" y="322.241992" style="fill: #dd8452; stroke: #dd8452"/>
     <use xlink:href="#m716cdd5fb1" x="964.523398" y="333.790598" style="fill: #dd8452; stroke: #dd8452"/>
    </g>
   </g>
   <g id="line2d_21">
    <path d="M 557.93112 81.403362 
L 680.327592 157.379491 
L 751.924938 201.822677 
L 802.724063 233.355619 
L 842.126926 257.81447 
L 874.32141 277.798806 
L 901.541457 294.695321 
L 925.120535 309.331748 
L 945.918756 322.241992 
L 964.523398 333.790598 
" clip-path="url(#pe4a5db14c7)" style="fill: none; stroke: #55a868; stroke-width: 1.2; stroke-linecap: round"/>
    <g clip-path="url(#pe4a5db14c7)">
     <use xlink:href="#m73e3549d94" x="557.93112" y="81.403362" style="fill: #55a868; stroke: #55a868"/>
     <use xlink:href="#m73e3549d94" x="680.327592" y="157.379491" style="fill: #55a868; stroke: #55a868"/>
     <use xlink:href="#m73e3549d94" x="751.924938" y="201.822677" style="fill: #55a868; stroke: #55a868"/>
     <use xlink:href="#m73e3549d94" x="802.724063" y="233.355619" style="fill: #55a868; stroke: #55a868"/>
     <use xlink:href="#m73e3549d94" x="842.126926" y="257.81447" style="fill: #55a868; stroke: #55a868"/>
     <use xlink:href="#m73e3549d94" x="874.32141" y="277.798806" style="fill: #55a868; stroke: #55a868"/>
     <use xlink:href="#m73e3549d94" x="901.541457" y="294.695321" style="fill: #55a868; stroke: #55a868"/>
     <use xlink:href="#m73e3549d94" x="925.120535" y="309.331748" style="fill: #55a868; stroke: #55a868"/>
     <use xlink:href="#m73e3549d94" x="945.918756" y="322.241992" style="fill: #55a868; stroke: #55a868"/>
     <use xlink:href="#m73e3549d94" x="964.523398" y="333.790598" style="fill: #55a868; stroke: #55a868"/>
    </g>
   </g>
   <g id="line2d_22">
    <path d="M 557.93112 81.403362 
L 680.327592 157.379491 
L 751.924938 201.822677 
L 802.724063 233.355619 
L 842.126926 257.81447 
L 874.32141 277.798806 
L 901.541457 294.695321 
L 925.120535 309.331748 
L 945.918756 322.241992 
L 964.523398 333.790598 
" clip-path="url(#pe4a5db14c7)" style="fill: none; stroke: #c44e52; stroke-width: 1.2; stroke-linecap: round"/>
    <g clip-path="url(#pe4a5db14c7)">
     <use xlink:href="#mca6d6e3f8f" x="557.93112" y="81.403362" style="fill: #c44e52; stroke: #c44e52"/>
     <use xlink:href="#mca6d6e3f8f" x="680.327592" y="157.379491" style="fill: #c44e52; stroke: #c44e52"/>
     <use xlink:href="#mca6d6e3f8f" x="751.924938" y="201.822677" style="fill: #c44e52; stroke: #c44e52"/>
     <use xlink:href="#mca6d6e3f8f" x="802.724063" y="233.355619" style="fill: #c44e52; stroke: #c44e52"/>
     <use xlink:href="#mca6d6e3f8f" x="842.126926" y="257.81447" style="fill: #c44e52; stroke: #c44e52"/>
     <use xlink:href="#mca6d6e3f8f" x="874.32141" y="277.798806" style="fill: #c44e52; stroke: #c44e52"/>
     <use xlink:href="#mca6d6e3f8f" x="901.541457" y="294.695321" style="fill: #c44e52; stroke: #c44e52"/>
     <use xlink:href="#mca6d6e3f8f" x="925.120535" y="309.331748" style="fill: #c44e52; stroke: #c44e52"/>
     <use xlink:href="#mca6d6e3f8f" x="945.918756" y="322.241992" style="fill: #c44e52; stroke: #c44e52"/>
     <use xlink:href="#mca6d6e3f8f" x="964.523398" y="333.790598" style="fill: #c44e52; stroke: #c44e52"/>
    </g>
   </g>
   <g id="line2d_23">
    <path d="M 557.93112 81.403362 
L 680.327592 157.379491 
L 751.924938 201.822677 
L 802.724063 233.355619 
L 842.126926 257.81447 
L 874.32141 277.798806 
L 901.541457 294.695321 
L 925.120535 309.331748 
L 945.918756 322.241992 
L 964.523398 333.790598 
" clip-path="url(#pe4a5db14c7)" style="fill: none; stroke: #8172b3; stroke-width: 1.2; stroke-linecap: round"/>
    <g clip-path="url(#pe4a5db14c7)">
     <use xlink:href="#m11cae1fd7d" x="557.93112" y="81.403362" style="fill: #8172b3; stroke: #8172b3"/>
     <use xlink:href="#m11cae1fd7d" x="680.327592" y="157.379491" style="fill: #8172b3; stroke: #8172b3"/>
     <use xlink:href="#m11cae1fd7d" x="751.924938" y="201.822677" style="fill: #8172b3; stroke: #8172b3"/>
     <use xlink:href="#m11cae1fd7d" x="802.724063" y="233.355619" style="fill: #8172b3; stroke: #8172b3"/>
     <use xlink:href="#m11cae1fd7d" x="842.126926" y="257.81447" style="fill: #8172b3; stroke: #8172b3"/>
     <use xlink:href="#m11cae1fd7d" x="874.32141" y="277.798806" style="fill: #8172b3; stroke: #8172b3"/>
     <use xlink:href="#m11cae1fd7d" x="901.541457" y="294.695321" style="fill: #8172b3; stroke: #8172b3"/>
     <use xlink:href="#m11cae1fd7d" x="925.120535" y="309.331748" style="fill: #8172b3; stroke: #8172b3"/>
     <use xlink:href="#m11cae1fd7d" x="945.918756" y="322.241992" style="fill: #8172b3; stroke: #8172b3"/>
     <use xlink:href="#m11cae1fd7d" x="964.523398" y="333.790598" style="fill: #8172b3; stroke: #8172b3"/>
    </g>
   </g>
   <g id="line2d_24">
    <path d="M 557.93112 81.403362 
L 573.295657 90.940712 
L 587.429661 99.714224 
L 600.515705 107.837228 
L 612.69852 115.399563 
L 624.094783 122.473655 
L 634.799926 129.118743 
L 644.893003 135.383899 
L 654.440235 141.310227 
L 663.497646 146.932505 
L 672.113051 152.280414 
L 680.327592 157.379491 
L 688.176919 162.251865 
L 695.692129 166.916841 
L 702.900509 171.391355 
L 709.826133 175.690353 
L 716.490349 179.827085 
L 722.912176 183.813356 
L 729.108629 187.659729 
L 735.094992 191.375691 
L 740.885044 194.969796 
L 746.491254 198.449783 
L 751.924938 201.822677 
L 757.196398 205.094872 
L 762.315039 208.272207 
L 767.289475 211.360027 
L 772.127607 214.363239 
L 776.836707 217.286356 
L 781.423479 220.133539 
L 785.894117 222.908634 
L 790.254358 225.615201 
L 794.509523 228.256542 
L 798.664556 230.835729 
L 802.724063 233.355619 
L 806.692338 235.818878 
L 810.573391 238.227994 
L 814.370973 240.585297 
L 818.088601 242.89297 
L 821.72957 245.153058 
L 825.29698 247.367484 
L 828.793744 249.538058 
L 832.222605 251.666482 
L 835.58615 253.754362 
L 838.886821 255.803213 
L 842.126926 257.81447 
L 845.308648 259.789485 
L 848.434053 261.729542 
L 851.505101 263.635858 
L 854.523649 265.509585 
L 857.491464 267.35182 
L 860.410221 269.163603 
L 863.281516 270.945925 
L 866.106869 272.699729 
L 868.887726 274.425912 
L 871.625467 276.125332 
L 874.32141 277.798806 
L 876.97681 279.447113 
L 879.592869 281.071 
L 882.170737 282.67118 
L 884.711511 284.248335 
L 887.216245 285.803119 
L 889.685947 287.336156 
L 892.121582 288.848047 
L 894.524079 290.339368 
L 896.894326 291.81067 
L 899.233179 293.262485 
L 901.541457 294.695321 
L 903.819951 296.109668 
L 906.069418 297.505997 
L 908.290589 298.884763 
L 910.484167 300.2464 
L 912.65083 301.591329 
L 914.791229 302.919956 
L 916.905994 304.232671 
L 918.995732 305.529851 
L 921.061028 306.811858 
L 923.102447 308.079044 
L 925.120535 309.331748 
L 927.11582 310.570297 
L 929.08881 311.795006 
L 931.039998 313.006183 
L 932.969862 314.204123 
L 934.878862 315.389111 
L 936.767445 316.561426 
L 938.636042 317.721335 
L 940.485072 318.869098 
L 942.314941 320.004967 
L 944.126042 321.129186 
L 945.918756 322.241992 
L 947.693452 323.343613 
L 949.450489 324.434273 
L 951.190215 325.514187 
L 952.912968 326.583565 
L 954.619076 327.64261 
L 956.308857 328.691522 
L 957.982621 329.73049 
L 959.640669 330.759703 
L 961.283293 331.779342 
L 962.910777 332.789583 
L 964.523398 333.790598 
" clip-path="url(#pe4a5db14c7)" style="fill: none; stroke-dasharray: 5.55,2.4; stroke-dashoffset: 0; stroke: #1a1a1a; stroke-opacity: 0.7; stroke-width: 1.5"/>
   </g>
   <g id="patch_9">
    <path d="M 537.601506 346.40996 
L 537.601506 68.784 
" style="fill: none; stroke: #cccccc; stroke-width: 1.25; stroke-linejoin: miter; stroke-linecap: square"/>
   </g>
   <g id="patch_10">
    <path d="M 984.853012 346.40996 
L 984.853012 68.784 
" style="fill: none; stroke: #cccccc; stroke-width: 1.25; stroke-linejoin: miter; stroke-linecap: square"/>
   </g>
   <g id="patch_11">
    <path d="M 537.601506 346.40996 
L 984.853012 346.40996 
" style="fill: none; stroke: #cccccc; stroke-width: 1.25; stroke-linejoin: miter; stroke-linecap: square"/>
   </g>
   <g id="patch_12">
    <path d="M 537.601506 68.784 
L 984.853012 68.784 
" style="fill: none; stroke: #cccccc; stroke-width: 1.25; stroke-linejoin: miter; stroke-linecap: square"/>
   </g>
   <g id="text_13">
    <!-- M=2 (J_A=1.0) -->
    <g style="fill: #262626" transform="translate(717.172259 62.784) scale(0.12 -0.12)">
     <use xlink:href="#DejaVuSans-4d"/>
     <use xlink:href="#DejaVuSans-3d" transform="translate(86.279297 0)"/>
     <use xlink:href="#DejaVuSans-32" transform="translate(170.068359 0)"/>
     <use xlink:href="#DejaVuSans-20" transform="translate(233.691406 0)"/>
     <use xlink:href="#DejaVuSans-28" transform="translate(265.478516 0)"/>
     <use xlink:href="#DejaVuSans-4a" transform="translate(304.492188 0)"/>
     <use xlink:href="#DejaVuSans-5f" transform="translate(333.984375 0)"/>
     <use xlink:href="#DejaVuSans-41" transform="translate(383.984375 0)"/>
     <use xlink:href="#DejaVuSans-3d" transform="translate(452.392578 0)"/>
     <use xlink:href="#DejaVuSans-31" transform="translate(536.181641 0)"/>
     <use xlink:href="#DejaVuSans-2e" transform="translate(599.804688 0)"/>
     <use xlink:href="#DejaVuSans-30" transform="translate(631.591797 0)"/>
     <use xlink:href="#DejaVuSans-29" transform="translate(695.214844 0)"/>
    </g>
   </g>
  </g>
  <g id="axes_3">
   <g id="patch_13">
    <path d="M 77.39 659.916 
L 524.641506 659.916 
L 524.641506 382.29004 
L 77.39 382.29004 
z
" style="fill: #ffffff"/>
   </g>
   <g id="matplotlib.axis_5">
    <g id="xtick_23">
     <g id="line2d_25">
      <path d="M 97.719614 659.916 
L 97.719614 382.29004 
" clip-path="url(#pb0f70b1f03)" style="fill: none; stroke: #cccccc; stroke-linecap: round"/>
     </g>
     <g id="text_14">
      <!-- $\mathdefault{10^{0}}$ -->
      <g style="fill: #262626" transform="translate(88.039614 677.774281) scale(0.11 -0.11)">
       <use xlink:href="#DejaVuSans-31" transform="translate(0 0.765625)"/>
       <use xlink:href="#DejaVuSans-30" transform="translate(63.623047 0.765625)"/>
       <use xlink:href="#DejaVuSans-30" transform="translate(128.203125 39.046875) scale(0.7)"/>
      </g>
     </g>
    </g>
    <g id="xtick_24">
     <g id="line2d_26">
      <path d="M 504.311892 659.916 
L 504.311892 382.29004 
" clip-path="url(#pb0f70b1f03)" style="fill: none; stroke: #cccccc; stroke-linecap: round"/>
     </g>
     <g id="text_15">
      <!-- $\mathdefault{10^{1}}$ -->
      <g style="fill: #262626" transform="translate(494.631892 677.774281) scale(0.11 -0.11)">
       <use xlink:href="#DejaVuSans-31" transform="translate(0 0.684375)"/>
       <use xlink:href="#DejaVuSans-30" transform="translate(63.623047 0.684375)"/>
       <use xlink:href="#DejaVuSans-31" transform="translate(128.203125 38.965625) scale(0.7)"/>
      </g>
     </g>
    </g>
    <g id="xtick_25"/>
    <g id="xtick_26"/>
    <g id="xtick_27"/>
    <g id="xtick_28"/>
    <g id="xtick_29"/>
    <g id="xtick_30"/>
    <g id="xtick_31"/>
    <g id="xtick_32"/>
    <g id="xtick_33"/>
    <g id="text_16">
     <!-- N (system particles) -->
     <g style="fill: #262626" transform="translate(240.585441 693.180062) scale(0.12 -0.12)">
      <defs>
       <path id="DejaVuSans-4e" d="M 628 4666 
L 1478 4666 
L 3547 763 
L 3547 4666 
L 4159 4666 
L 4159 0 
L 3309 0 
L 1241 3903 
L 1241 0 
L 628 0 
L 628 4666 
z
" transform="scale(0.015625)"/>
       <path id="DejaVuSans-73" d="M 2834 3397 
L 2834 2853 
Q 2591 2978 2328 3040 
Q 2066 3103 1784 3103 
Q 1356 3103 1142 2972 
Q 928 2841 928 2578 
Q 928 2378 1081 2264 
Q 1234 2150 1697 2047 
L 1894 2003 
Q 2506 1872 2764 1633 
Q 3022 1394 3022 966 
Q 3022 478 2636 193 
Q 2250 -91 1575 -91 
Q 1294 -91 989 -36 
Q 684 19 347 128 
L 347 722 
Q 666 556 975 473 
Q 1284 391 1588 391 
Q 1994 391 2212 530 
Q 2431 669 2431 922 
Q 2431 1156 2273 1281 
Q 2116 1406 1581 1522 
L 1381 1569 
Q 847 1681 609 1914 
Q 372 2147 372 2553 
Q 372 3047 722 3315 
Q 1072 3584 1716 3584 
Q 2034 3584 2315 3537 
Q 2597 3491 2834 3397 
z
" transform="scale(0.015625)"/>
       <path id="DejaVuSans-79" d="M 2059 -325 
Q 1816 -950 1584 -1140 
Q 1353 -1331 966 -1331 
L 506 -1331 
L 506 -850 
L 844 -850 
Q 1081 -850 1212 -737 
Q 1344 -625 1503 -206 
L 1606 56 
L 191 3500 
L 800 3500 
L 1894 763 
L 2988 3500 
L 3597 3500 
L 2059 -325 
z
" transform="scale(0.015625)"/>
       <path id="DejaVuSans-65" d="M 3597 1894 
L 3597 1613 
L 953 1613 
Q 991 1019 1311 708 
Q 1631 397 2203 397 
Q 2534 397 2845 478 
Q 3156 559 3463 722 
L 3463 178 
Q 3153 47 2828 -22 
Q 2503 -91 2169 -91 
Q 1331 -91 842 396 
Q 353 884 353 1716 
Q 353 2575 817 3079 
Q 1281 3584 2069 3584 
Q 2775 3584 3186 3129 
Q 3597 2675 3597 1894 
z
M 3022 2063 
Q 3016 2534 2758 2815 
Q 2500 3097 2075 3097 
Q 1594 3097 1305 2825 
Q 1016 2553 972 2059 
L 3022 2063 
z
" transform="scale(0.015625)"/>
       <path id="DejaVuSans-6d" d="M 3328 2828 
Q 3544 3216 3844 3400 
Q 4144 3584 4550 3584 
Q 5097 3584 5394 3201 
Q 5691 2819 5691 2113 
L 5691 0 
L 5113 0 
L 5113 2094 
Q 5113 2597 4934 2840 
Q 4756 3084 4391 3084 
Q 3944 3084 3684 2787 
Q 3425 2491 3425 1978 
L 3425 0 
L 2847 0 
L 2847 2094 
Q 2847 2600 2669 2842 
Q 2491 3084 2119 3084 
Q 1678 3084 1418 2786 
Q 1159 2488 1159 1978 
L 1159 0 
L 581 0 
L 581 3500 
L 1159 3500 
L 1159 2956 
Q 1356 3278 1631 3431 
Q 1906 3584 2284 3584 
Q 2666 3584 2933 3390 
Q 3200 3197 3328 2828 
z
" transform="scale(0.015625)"/>
       <path id="DejaVuSans-61" d="M 2194 1759 
Q 1497 1759 1228 1600 
Q 959 1441 959 1056 
Q 959 750 1161 570 
Q 1363 391 1709 391 
Q 2188 391 2477 730 
Q 2766 1069 2766 1631 
L 2766 1759 
L 2194 1759 
z
M 3341 1997 
L 3341 0 
L 2766 0 
L 2766 531 
Q 2569 213 2275 61 
Q 1981 -91 1556 -91 
Q 1019 -91 701 211 
Q 384 513 384 1019 
Q 384 1609 779 1909 
Q 1175 2209 1959 2209 
L 2766 2209 
L 2766 2266 
Q 2766 2663 2505 2880 
Q 2244 3097 1772 3097 
Q 1472 3097 1187 3025 
Q 903 2953 641 2809 
L 641 3341 
Q 956 3463 1253 3523 
Q 1550 3584 1831 3584 
Q 2591 3584 2966 3190 
Q 3341 2797 3341 1997 
z
" transform="scale(0.015625)"/>
       <path id="DejaVuSans-72" d="M 2631 2963 
Q 2534 3019 2420 3045 
Q 2306 3072 2169 3072 
Q 1681 3072 1420 2755 
Q 1159 2438 1159 1844 
L 1159 0 
L 581 0 
L 581 3500 
L 1159 3500 
L 1159 2956 
Q 1341 3275 1631 3429 
Q 1922 3584 2338 3584 
Q 2397 3584 2469 3576 
Q 2541 3569 2628 3553 
L 2631 2963 
z
" transform="scale(0.015625)"/>
       <path id="DejaVuSans-69" d="M 603 3500 
L 1178 3500 
L 1178 0 
L 603 0 
L 603 3500 
z
M 603 4863 
L 1178 4863 
L 1178 4134 
L 603 4134 
L 603 4863 
z
" transform="scale(0.015625)"/>
       <path id="DejaVuSans-63" d="M 3122 3366 
L 3122 2828 
Q 2878 2963 2633 3030 
Q 2388 3097 2138 3097 
Q 1578 3097 1268 2742 
Q 959 2388 959 1747 
Q 959 1106 1268 751 
Q 1578 397 2138 397 
Q 2388 397 2633 464 
Q 2878 531 3122 666 
L 3122 134 
Q 2881 22 2623 -34 
Q 2366 -91 2075 -91 
Q 1284 -91 818 406 
Q 353 903 353 1747 
Q 353 2603 823 3093 
Q 1294 3584 2113 3584 
Q 2378 3584 2631 3529 
Q 2884 3475 3122 3366 
z
" transform="scale(0.015625)"/>
       <path id="DejaVuSans-6c" d="M 603 4863 
L 1178 4863 
L 1178 0 
L 603 0 
L 603 4863 
z
" transform="scale(0.015625)"/>
      </defs>
      <use xlink:href="#DejaVuSans-4e"/>
      <use xlink:href="#DejaVuSans-20" transform="translate(74.804688 0)"/>
      <use xlink:href="#DejaVuSans-28" transform="translate(106.591797 0)"/>
      <use xlink:href="#DejaVuSans-73" transform="translate(145.605469 0)"/>
      <use xlink:href="#DejaVuSans-79" transform="translate(197.705078 0)"/>
      <use xlink:href="#DejaVuSans-73" transform="translate(256.884766 0)"/>
      <use xlink:href="#DejaVuSans-74" transform="translate(308.984375 0)"/>
      <use xlink:href="#DejaVuSans-65" transform="translate(348.193359 0)"/>
      <use xlink:href="#DejaVuSans-6d" transform="translate(409.716797 0)"/>
      <use xlink:href="#DejaVuSans-20" transform="translate(507.128906 0)"/>
      <use xlink:href="#DejaVuSans-70" transform="translate(538.916016 0)"/>
      <use xlink:href="#DejaVuSans-61" transform="translate(602.392578 0)"/>
      <use xlink:href="#DejaVuSans-72" transform="translate(663.671875 0)"/>
      <use xlink:href="#DejaVuSans-74" transform="translate(704.785156 0)"/>
      <use xlink:href="#DejaVuSans-69" transform="translate(743.994141 0)"/>
      <use xlink:href="#DejaVuSans-63" transform="translate(771.777344 0)"/>
      <use xlink:href="#DejaVuSans-6c" transform="translate(826.757812 0)"/>
      <use xlink:href="#DejaVuSans-65" transform="translate(854.541016 0)"/>
      <use xlink:href="#DejaVuSans-73" transform="translate(916.064453 0)"/>
      <use xlink:href="#DejaVuSans-29" transform="translate(968.164062 0)"/>
     </g>
    </g>
   </g>
   <g id="matplotlib.axis_6">
    <g id="ytick_17">
     <g id="line2d_27">
      <path d="M 77.39 394.909402 
L 524.641506 394.909402 
" clip-path="url(#pb0f70b1f03)" style="fill: none; stroke: #cccccc; stroke-linecap: round"/>
     </g>
     <g id="text_17">
      <!-- $\mathdefault{10^{-1}}$ -->
      <g style="fill: #262626" transform="translate(42.04 399.088542) scale(0.11 -0.11)">
       <use xlink:href="#DejaVuSans-31" transform="translate(0 0.684375)"/>
       <use xlink:href="#DejaVuSans-30" transform="translate(63.623047 0.684375)"/>
       <use xlink:href="#DejaVuSans-2212" transform="translate(128.203125 38.965625) scale(0.7)"/>
       <use xlink:href="#DejaVuSans-31" transform="translate(186.855469 38.965625) scale(0.7)"/>
      </g>
     </g>
    </g>
    <g id="ytick_18">
     <g id="text_18">
      <!-- $\mathdefault{3\times10^{-2}}$ -->
      <g style="fill: #262626" transform="translate(23.68 663.024385) scale(0.11 -0.11)">
       <use xlink:href="#DejaVuSans-33" transform="translate(0 0.765625)"/>
       <use xlink:href="#DejaVuSans-d7" transform="translate(83.105469 0.765625)"/>
       <use xlink:href="#DejaVuSans-31" transform="translate(186.376953 0.765625)"/>
       <use xlink:href="#DejaVuSans-30" transform="translate(250 0.765625)"/>
       <use xlink:href="#DejaVuSans-2212" transform="translate(314.580078 39.046875) scale(0.7)"/>
       <use xlink:href="#DejaVuSans-32" transform="translate(373.232422 39.046875) scale(0.7)"/>
      </g>
     </g>
    </g>
    <g id="ytick_19">
     <g id="text_19">
      <!-- $\mathdefault{4\times10^{-2}}$ -->
      <g style="fill: #262626" transform="translate(23.68 599.9585) scale(0.11 -0.11)">
       <use xlink:href="#DejaVuSans-34" transform="translate(0 0.765625)"/>
       <use xlink:href="#DejaVuSans-d7" transform="translate(83.105469 0.765625)"/>
       <use xlink:href="#DejaVuSans-31" transform="translate(186.376953 0.765625)"/>
       <use xlink:href="#DejaVuSans-30" transform="translate(250 0.765625)"/>
       <use xlink:href="#DejaVuSans-2212" transform="translate(314.580078 39.046875) scale(0.7)"/>
       <use xlink:href="#DejaVuSans-32" transform="translate(373.232422 39.046875) scale(0.7)"/>
      </g>
     </g>
    </g>
    <g id="ytick_20"/>
    <g id="ytick_21">
     <g id="text_20">
      <!-- $\mathdefault{6\times10^{-2}}$ -->
      <g style="fill: #262626" transform="translate(23.68 511.072128) scale(0.11 -0.11)">
       <use xlink:href="#DejaVuSans-36" transform="translate(0 0.765625)"/>
       <use xlink:href="#DejaVuSans-d7" transform="translate(83.105469 0.765625)"/>
       <use xlink:href="#DejaVuSans-31" transform="translate(186.376953 0.765625)"/>
       <use xlink:href="#DejaVuSans-30" transform="translate(250 0.765625)"/>
       <use xlink:href="#DejaVuSans-2212" transform="translate(314.580078 39.046875) scale(0.7)"/>
       <use xlink:href="#DejaVuSans-32" transform="translate(373.232422 39.046875) scale(0.7)"/>
      </g>
     </g>
    </g>
    <g id="ytick_22"/>
    <g id="ytick_23"/>
    <g id="ytick_24"/>
    <g id="text_21">
     <!-- $\Delta\omega_\mathrm{opt}$ -->
     <g style="fill: #262626" transform="translate(15.96 537.30302) rotate(-90) scale(0.12 -0.12)">
      <use xlink:href="#DejaVuSans-394" transform="translate(0 0.09375)"/>
      <use xlink:href="#DejaVuSans-Oblique-3c9" transform="translate(68.408203 0.09375)"/>
      <use xlink:href="#DejaVuSans-6f" transform="translate(152.148438 -16.3125) scale(0.7)"/>
      <use xlink:href="#DejaVuSans-70" transform="translate(194.975586 -16.3125) scale(0.7)"/>
      <use xlink:href="#DejaVuSans-74" transform="translate(239.40918 -16.3125) scale(0.7)"/>
     </g>
    </g>
   </g>
   <g id="line2d_28">
    <path d="M 97.719614 394.909402 
L 220.116086 470.88553 
L 291.713432 515.328717 
L 342.512557 546.861659 
L 381.91542 571.320509 
L 414.109904 591.304845 
L 441.329951 608.201361 
L 464.909029 622.837788 
L 485.70725 635.748032 
L 504.311892 647.296638 
" clip-path="url(#pb0f70b1f03)" style="fill: none; stroke: #4c72b0; stroke-width: 1.2; stroke-linecap: round"/>
    <g clip-path="url(#pb0f70b1f03)">
     <use xlink:href="#ma5874d7370" x="97.719614" y="394.909402" style="fill: #4c72b0; stroke: #4c72b0"/>
     <use xlink:href="#ma5874d7370" x="220.116086" y="470.88553" style="fill: #4c72b0; stroke: #4c72b0"/>
     <use xlink:href="#ma5874d7370" x="291.713432" y="515.328717" style="fill: #4c72b0; stroke: #4c72b0"/>
     <use xlink:href="#ma5874d7370" x="342.512557" y="546.861659" style="fill: #4c72b0; stroke: #4c72b0"/>
     <use xlink:href="#ma5874d7370" x="381.91542" y="571.320509" style="fill: #4c72b0; stroke: #4c72b0"/>
     <use xlink:href="#ma5874d7370" x="414.109904" y="591.304845" style="fill: #4c72b0; stroke: #4c72b0"/>
     <use xlink:href="#ma5874d7370" x="441.329951" y="608.201361" style="fill: #4c72b0; stroke: #4c72b0"/>
     <use xlink:href="#ma5874d7370" x="464.909029" y="622.837788" style="fill: #4c72b0; stroke: #4c72b0"/>
     <use xlink:href="#ma5874d7370" x="485.70725" y="635.748032" style="fill: #4c72b0; stroke: #4c72b0"/>
     <use xlink:href="#ma5874d7370" x="504.311892" y="647.296638" style="fill: #4c72b0; stroke: #4c72b0"/>
    </g>
   </g>
   <g id="line2d_29">
    <path d="M 97.719614 394.909402 
L 220.116086 470.88553 
L 291.713432 515.328717 
L 342.512557 546.861659 
L 381.91542 571.320509 
L 414.109904 591.304845 
L 441.329951 608.201361 
L 464.909029 622.837788 
L 485.70725 635.748032 
L 504.311892 647.296638 
" clip-path="url(#pb0f70b1f03)" style="fill: none; stroke: #dd8452; stroke-width: 1.2; stroke-linecap: round"/>
    <g clip-path="url(#pb0f70b1f03)">
     <use xlink:href="#m716cdd5fb1" x="97.719614" y="394.909402" style="fill: #dd8452; stroke: #dd8452"/>
     <use xlink:href="#m716cdd5fb1" x="220.116086" y="470.88553" style="fill: #dd8452; stroke: #dd8452"/>
     <use xlink:href="#m716cdd5fb1" x="291.713432" y="515.328717" style="fill: #dd8452; stroke: #dd8452"/>
     <use xlink:href="#m716cdd5fb1" x="342.512557" y="546.861659" style="fill: #dd8452; stroke: #dd8452"/>
     <use xlink:href="#m716cdd5fb1" x="381.91542" y="571.320509" style="fill: #dd8452; stroke: #dd8452"/>
     <use xlink:href="#m716cdd5fb1" x="414.109904" y="591.304845" style="fill: #dd8452; stroke: #dd8452"/>
     <use xlink:href="#m716cdd5fb1" x="441.329951" y="608.201361" style="fill: #dd8452; stroke: #dd8452"/>
     <use xlink:href="#m716cdd5fb1" x="464.909029" y="622.837788" style="fill: #dd8452; stroke: #dd8452"/>
     <use xlink:href="#m716cdd5fb1" x="485.70725" y="635.748032" style="fill: #dd8452; stroke: #dd8452"/>
     <use xlink:href="#m716cdd5fb1" x="504.311892" y="647.296638" style="fill: #dd8452; stroke: #dd8452"/>
    </g>
   </g>
   <g id="line2d_30">
    <path d="M 97.719614 394.909402 
L 220.116086 470.88553 
L 291.713432 515.328717 
L 342.512557 546.861659 
L 381.91542 571.320509 
L 414.109904 591.304845 
L 441.329951 608.201361 
L 464.909029 622.837788 
L 485.70725 635.748032 
L 504.311892 647.296638 
" clip-path="url(#pb0f70b1f03)" style="fill: none; stroke: #55a868; stroke-width: 1.2; stroke-linecap: round"/>
    <g clip-path="url(#pb0f70b1f03)">
     <use xlink:href="#m73e3549d94" x="97.719614" y="394.909402" style="fill: #55a868; stroke: #55a868"/>
     <use xlink:href="#m73e3549d94" x="220.116086" y="470.88553" style="fill: #55a868; stroke: #55a868"/>
     <use xlink:href="#m73e3549d94" x="291.713432" y="515.328717" style="fill: #55a868; stroke: #55a868"/>
     <use xlink:href="#m73e3549d94" x="342.512557" y="546.861659" style="fill: #55a868; stroke: #55a868"/>
     <use xlink:href="#m73e3549d94" x="381.91542" y="571.320509" style="fill: #55a868; stroke: #55a868"/>
     <use xlink:href="#m73e3549d94" x="414.109904" y="591.304845" style="fill: #55a868; stroke: #55a868"/>
     <use xlink:href="#m73e3549d94" x="441.329951" y="608.201361" style="fill: #55a868; stroke: #55a868"/>
     <use xlink:href="#m73e3549d94" x="464.909029" y="622.837788" style="fill: #55a868; stroke: #55a868"/>
     <use xlink:href="#m73e3549d94" x="485.70725" y="635.748032" style="fill: #55a868; stroke: #55a868"/>
     <use xlink:href="#m73e3549d94" x="504.311892" y="647.296638" style="fill: #55a868; stroke: #55a868"/>
    </g>
   </g>
   <g id="line2d_31">
    <path d="M 97.719614 394.909402 
L 220.116086 470.88553 
L 291.713432 515.328717 
L 342.512557 546.861659 
L 381.91542 571.320509 
L 414.109904 591.304845 
L 441.329951 608.201361 
L 464.909029 622.837788 
L 485.70725 635.748032 
L 504.311892 647.296638 
" clip-path="url(#pb0f70b1f03)" style="fill: none; stroke: #c44e52; stroke-width: 1.2; stroke-linecap: round"/>
    <g clip-path="url(#pb0f70b1f03)">
     <use xlink:href="#mca6d6e3f8f" x="97.719614" y="394.909402" style="fill: #c44e52; stroke: #c44e52"/>
     <use xlink:href="#mca6d6e3f8f" x="220.116086" y="470.88553" style="fill: #c44e52; stroke: #c44e52"/>
     <use xlink:href="#mca6d6e3f8f" x="291.713432" y="515.328717" style="fill: #c44e52; stroke: #c44e52"/>
     <use xlink:href="#mca6d6e3f8f" x="342.512557" y="546.861659" style="fill: #c44e52; stroke: #c44e52"/>
     <use xlink:href="#mca6d6e3f8f" x="381.91542" y="571.320509" style="fill: #c44e52; stroke: #c44e52"/>
     <use xlink:href="#mca6d6e3f8f" x="414.109904" y="591.304845" style="fill: #c44e52; stroke: #c44e52"/>
     <use xlink:href="#mca6d6e3f8f" x="441.329951" y="608.201361" style="fill: #c44e52; stroke: #c44e52"/>
     <use xlink:href="#mca6d6e3f8f" x="464.909029" y="622.837788" style="fill: #c44e52; stroke: #c44e52"/>
     <use xlink:href="#mca6d6e3f8f" x="485.70725" y="635.748032" style="fill: #c44e52; stroke: #c44e52"/>
     <use xlink:href="#mca6d6e3f8f" x="504.311892" y="647.296638" style="fill: #c44e52; stroke: #c44e52"/>
    </g>
   </g>
   <g id="line2d_32">
    <path d="M 97.719614 394.909402 
L 220.116086 470.88553 
L 291.713432 515.328717 
L 342.512557 546.861659 
L 381.91542 571.320509 
L 414.109904 591.304845 
L 441.329951 608.201361 
L 464.909029 622.837788 
L 485.70725 635.748032 
L 504.311892 647.296638 
" clip-path="url(#pb0f70b1f03)" style="fill: none; stroke: #8172b3; stroke-width: 1.2; stroke-linecap: round"/>
    <g clip-path="url(#pb0f70b1f03)">
     <use xlink:href="#m11cae1fd7d" x="97.719614" y="394.909402" style="fill: #8172b3; stroke: #8172b3"/>
     <use xlink:href="#m11cae1fd7d" x="220.116086" y="470.88553" style="fill: #8172b3; stroke: #8172b3"/>
     <use xlink:href="#m11cae1fd7d" x="291.713432" y="515.328717" style="fill: #8172b3; stroke: #8172b3"/>
     <use xlink:href="#m11cae1fd7d" x="342.512557" y="546.861659" style="fill: #8172b3; stroke: #8172b3"/>
     <use xlink:href="#m11cae1fd7d" x="381.91542" y="571.320509" style="fill: #8172b3; stroke: #8172b3"/>
     <use xlink:href="#m11cae1fd7d" x="414.109904" y="591.304845" style="fill: #8172b3; stroke: #8172b3"/>
     <use xlink:href="#m11cae1fd7d" x="441.329951" y="608.201361" style="fill: #8172b3; stroke: #8172b3"/>
     <use xlink:href="#m11cae1fd7d" x="464.909029" y="622.837788" style="fill: #8172b3; stroke: #8172b3"/>
     <use xlink:href="#m11cae1fd7d" x="485.70725" y="635.748032" style="fill: #8172b3; stroke: #8172b3"/>
     <use xlink:href="#m11cae1fd7d" x="504.311892" y="647.296638" style="fill: #8172b3; stroke: #8172b3"/>
    </g>
   </g>
   <g id="line2d_33">
    <path d="M 97.719614 394.909402 
L 113.084151 404.446752 
L 127.218155 413.220264 
L 140.304199 421.343267 
L 152.487014 428.905602 
L 163.883277 435.979695 
L 174.58842 442.624783 
L 184.681497 448.889938 
L 194.228729 454.816267 
L 203.28614 460.438545 
L 211.901545 465.786454 
L 220.116086 470.88553 
L 227.965413 475.757905 
L 235.480623 480.422881 
L 242.689002 484.897395 
L 249.614627 489.196393 
L 256.278843 493.333125 
L 262.70067 497.319396 
L 268.897123 501.165769 
L 274.883486 504.881731 
L 280.673538 508.475836 
L 286.279748 511.955823 
L 291.713432 515.328717 
L 296.984891 518.600911 
L 302.103533 521.778246 
L 307.077969 524.866067 
L 311.916101 527.869279 
L 316.625201 530.792396 
L 321.211973 533.639579 
L 325.682611 536.414674 
L 330.042852 539.12124 
L 334.298017 541.762582 
L 338.45305 544.341769 
L 342.512557 546.861659 
L 346.480832 549.324917 
L 350.361884 551.734034 
L 354.159467 554.091337 
L 357.877094 556.39901 
L 361.518064 558.659098 
L 365.085474 560.873524 
L 368.582238 563.044098 
L 372.011098 565.172521 
L 375.374644 567.260401 
L 378.675315 569.309253 
L 381.91542 571.320509 
L 385.097142 573.295525 
L 388.222547 575.235582 
L 391.293595 577.141898 
L 394.312143 579.015625 
L 397.279957 580.85786 
L 400.198715 582.669643 
L 403.07001 584.451965 
L 405.895363 586.205769 
L 408.67622 587.931952 
L 411.413961 589.631372 
L 414.109904 591.304845 
L 416.765304 592.953153 
L 419.381363 594.57704 
L 421.959231 596.17722 
L 424.500005 597.754375 
L 427.004739 599.309158 
L 429.474441 600.842196 
L 431.910076 602.354087 
L 434.312573 603.845408 
L 436.68282 605.31671 
L 439.021673 606.768525 
L 441.329951 608.201361 
L 443.608445 609.615708 
L 445.857912 611.012037 
L 448.079083 612.390802 
L 450.272661 613.75244 
L 452.439324 615.097369 
L 454.579723 616.425996 
L 456.694488 617.738711 
L 458.784226 619.03589 
L 460.849522 620.317898 
L 462.890941 621.585084 
L 464.909029 622.837788 
L 466.904313 624.076336 
L 468.877304 625.301046 
L 470.828492 626.512223 
L 472.758356 627.710163 
L 474.667356 628.895151 
L 476.555939 630.067466 
L 478.424536 631.227375 
L 480.273566 632.375138 
L 482.103435 633.511007 
L 483.914536 634.635226 
L 485.70725 635.748032 
L 487.481946 636.849653 
L 489.238983 637.940312 
L 490.978709 639.020226 
L 492.701462 640.089604 
L 494.40757 641.14865 
L 496.097351 642.197561 
L 497.771115 643.23653 
L 499.429163 644.265743 
L 501.071787 645.285382 
L 502.699271 646.295623 
L 504.311892 647.296638 
" clip-path="url(#pb0f70b1f03)" style="fill: none; stroke-dasharray: 5.55,2.4; stroke-dashoffset: 0; stroke: #1a1a1a; stroke-opacity: 0.7; stroke-width: 1.5"/>
   </g>
   <g id="patch_14">
    <path d="M 77.39 659.916 
L 77.39 382.29004 
" style="fill: none; stroke: #cccccc; stroke-width: 1.25; stroke-linejoin: miter; stroke-linecap: square"/>
   </g>
   <g id="patch_15">
    <path d="M 524.641506 659.916 
L 524.641506 382.29004 
" style="fill: none; stroke: #cccccc; stroke-width: 1.25; stroke-linejoin: miter; stroke-linecap: square"/>
   </g>
   <g id="patch_16">
    <path d="M 77.39 659.916 
L 524.641506 659.916 
" style="fill: none; stroke: #cccccc; stroke-width: 1.25; stroke-linejoin: miter; stroke-linecap: square"/>
   </g>
   <g id="patch_17">
    <path d="M 77.39 382.29004 
L 524.641506 382.29004 
" style="fill: none; stroke: #cccccc; stroke-width: 1.25; stroke-linejoin: miter; stroke-linecap: square"/>
   </g>
   <g id="text_22">
    <!-- M=3 (J_A=1.5) -->
    <g style="fill: #262626" transform="translate(256.960753 376.29004) scale(0.12 -0.12)">
     <use xlink:href="#DejaVuSans-4d"/>
     <use xlink:href="#DejaVuSans-3d" transform="translate(86.279297 0)"/>
     <use xlink:href="#DejaVuSans-33" transform="translate(170.068359 0)"/>
     <use xlink:href="#DejaVuSans-20" transform="translate(233.691406 0)"/>
     <use xlink:href="#DejaVuSans-28" transform="translate(265.478516 0)"/>
     <use xlink:href="#DejaVuSans-4a" transform="translate(304.492188 0)"/>
     <use xlink:href="#DejaVuSans-5f" transform="translate(333.984375 0)"/>
     <use xlink:href="#DejaVuSans-41" transform="translate(383.984375 0)"/>
     <use xlink:href="#DejaVuSans-3d" transform="translate(452.392578 0)"/>
     <use xlink:href="#DejaVuSans-31" transform="translate(536.181641 0)"/>
     <use xlink:href="#DejaVuSans-2e" transform="translate(599.804688 0)"/>
     <use xlink:href="#DejaVuSans-35" transform="translate(631.591797 0)"/>
     <use xlink:href="#DejaVuSans-29" transform="translate(695.214844 0)"/>
    </g>
   </g>
  </g>
  <g id="axes_4">
   <g id="patch_18">
    <path d="M 537.601506 659.916 
L 984.853012 659.916 
L 984.853012 382.29004 
L 537.601506 382.29004 
z
" style="fill: #ffffff"/>
   </g>
   <g id="matplotlib.axis_7">
    <g id="xtick_34">
     <g id="line2d_34">
      <path d="M 557.93112 659.916 
L 557.93112 382.29004 
" clip-path="url(#p21b666a6af)" style="fill: none; stroke: #cccccc; stroke-linecap: round"/>
     </g>
     <g id="text_23">
      <!-- $\mathdefault{10^{0}}$ -->
      <g style="fill: #262626" transform="translate(548.25112 677.774281) scale(0.11 -0.11)">
       <use xlink:href="#DejaVuSans-31" transform="translate(0 0.765625)"/>
       <use xlink:href="#DejaVuSans-30" transform="translate(63.623047 0.765625)"/>
       <use xlink:href="#DejaVuSans-30" transform="translate(128.203125 39.046875) scale(0.7)"/>
      </g>
     </g>
    </g>
    <g id="xtick_35">
     <g id="line2d_35">
      <path d="M 964.523398 659.916 
L 964.523398 382.29004 
" clip-path="url(#p21b666a6af)" style="fill: none; stroke: #cccccc; stroke-linecap: round"/>
     </g>
     <g id="text_24">
      <!-- $\mathdefault{10^{1}}$ -->
      <g style="fill: #262626" transform="translate(954.843398 677.774281) scale(0.11 -0.11)">
       <use xlink:href="#DejaVuSans-31" transform="translate(0 0.684375)"/>
       <use xlink:href="#DejaVuSans-30" transform="translate(63.623047 0.684375)"/>
       <use xlink:href="#DejaVuSans-31" transform="translate(128.203125 38.965625) scale(0.7)"/>
      </g>
     </g>
    </g>
    <g id="xtick_36"/>
    <g id="xtick_37"/>
    <g id="xtick_38"/>
    <g id="xtick_39"/>
    <g id="xtick_40"/>
    <g id="xtick_41"/>
    <g id="xtick_42"/>
    <g id="xtick_43"/>
    <g id="xtick_44"/>
    <g id="text_25">
     <!-- N (system particles) -->
     <g style="fill: #262626" transform="translate(700.796947 693.180062) scale(0.12 -0.12)">
      <use xlink:href="#DejaVuSans-4e"/>
      <use xlink:href="#DejaVuSans-20" transform="translate(74.804688 0)"/>
      <use xlink:href="#DejaVuSans-28" transform="translate(106.591797 0)"/>
      <use xlink:href="#DejaVuSans-73" transform="translate(145.605469 0)"/>
      <use xlink:href="#DejaVuSans-79" transform="translate(197.705078 0)"/>
      <use xlink:href="#DejaVuSans-73" transform="translate(256.884766 0)"/>
      <use xlink:href="#DejaVuSans-74" transform="translate(308.984375 0)"/>
      <use xlink:href="#DejaVuSans-65" transform="translate(348.193359 0)"/>
      <use xlink:href="#DejaVuSans-6d" transform="translate(409.716797 0)"/>
      <use xlink:href="#DejaVuSans-20" transform="translate(507.128906 0)"/>
      <use xlink:href="#DejaVuSans-70" transform="translate(538.916016 0)"/>
      <use xlink:href="#DejaVuSans-61" transform="translate(602.392578 0)"/>
      <use xlink:href="#DejaVuSans-72" transform="translate(663.671875 0)"/>
      <use xlink:href="#DejaVuSans-74" transform="translate(704.785156 0)"/>
      <use xlink:href="#DejaVuSans-69" transform="translate(743.994141 0)"/>
      <use xlink:href="#DejaVuSans-63" transform="translate(771.777344 0)"/>
      <use xlink:href="#DejaVuSans-6c" transform="translate(826.757812 0)"/>
      <use xlink:href="#DejaVuSans-65" transform="translate(854.541016 0)"/>
      <use xlink:href="#DejaVuSans-73" transform="translate(916.064453 0)"/>
      <use xlink:href="#DejaVuSans-29" transform="translate(968.164062 0)"/>
     </g>
    </g>
   </g>
   <g id="matplotlib.axis_8">
    <g id="ytick_25">
     <g id="line2d_36">
      <path d="M 537.601506 394.909402 
L 984.853012 394.909402 
" clip-path="url(#p21b666a6af)" style="fill: none; stroke: #cccccc; stroke-linecap: round"/>
     </g>
    </g>
    <g id="ytick_26"/>
    <g id="ytick_27"/>
    <g id="ytick_28"/>
    <g id="ytick_29"/>
    <g id="ytick_30"/>
    <g id="ytick_31"/>
    <g id="ytick_32"/>
   </g>
   <g id="line2d_37">
    <path d="M 557.93112 394.909402 
L 680.327592 470.88553 
L 751.924938 515.328717 
L 802.724063 546.861659 
L 842.126926 571.320509 
L 874.32141 591.304845 
L 901.541457 608.201361 
L 925.120535 622.837788 
L 945.918756 635.748032 
L 964.523398 647.296638 
" clip-path="url(#p21b666a6af)" style="fill: none; stroke: #4c72b0; stroke-width: 1.2; stroke-linecap: round"/>
    <g clip-path="url(#p21b666a6af)">
     <use xlink:href="#ma5874d7370" x="557.93112" y="394.909402" style="fill: #4c72b0; stroke: #4c72b0"/>
     <use xlink:href="#ma5874d7370" x="680.327592" y="470.88553" style="fill: #4c72b0; stroke: #4c72b0"/>
     <use xlink:href="#ma5874d7370" x="751.924938" y="515.328717" style="fill: #4c72b0; stroke: #4c72b0"/>
     <use xlink:href="#ma5874d7370" x="802.724063" y="546.861659" style="fill: #4c72b0; stroke: #4c72b0"/>
     <use xlink:href="#ma5874d7370" x="842.126926" y="571.320509" style="fill: #4c72b0; stroke: #4c72b0"/>
     <use xlink:href="#ma5874d7370" x="874.32141" y="591.304845" style="fill: #4c72b0; stroke: #4c72b0"/>
     <use xlink:href="#ma5874d7370" x="901.541457" y="608.201361" style="fill: #4c72b0; stroke: #4c72b0"/>
     <use xlink:href="#ma5874d7370" x="925.120535" y="622.837788" style="fill: #4c72b0; stroke: #4c72b0"/>
     <use xlink:href="#ma5874d7370" x="945.918756" y="635.748032" style="fill: #4c72b0; stroke: #4c72b0"/>
     <use xlink:href="#ma5874d7370" x="964.523398" y="647.296638" style="fill: #4c72b0; stroke: #4c72b0"/>
    </g>
   </g>
   <g id="line2d_38">
    <path d="M 557.93112 394.909402 
L 680.327592 470.88553 
L 751.924938 515.328717 
L 802.724063 546.861659 
L 842.126926 571.320509 
L 874.32141 591.304845 
L 901.541457 608.201361 
L 925.120535 622.837788 
L 945.918756 635.748032 
L 964.523398 647.296638 
" clip-path="url(#p21b666a6af)" style="fill: none; stroke: #dd8452; stroke-width: 1.2; stroke-linecap: round"/>
    <g clip-path="url(#p21b666a6af)">
     <use xlink:href="#m716cdd5fb1" x="557.93112" y="394.909402" style="fill: #dd8452; stroke: #dd8452"/>
     <use xlink:href="#m716cdd5fb1" x="680.327592" y="470.88553" style="fill: #dd8452; stroke: #dd8452"/>
     <use xlink:href="#m716cdd5fb1" x="751.924938" y="515.328717" style="fill: #dd8452; stroke: #dd8452"/>
     <use xlink:href="#m716cdd5fb1" x="802.724063" y="546.861659" style="fill: #dd8452; stroke: #dd8452"/>
     <use xlink:href="#m716cdd5fb1" x="842.126926" y="571.320509" style="fill: #dd8452; stroke: #dd8452"/>
     <use xlink:href="#m716cdd5fb1" x="874.32141" y="591.304845" style="fill: #dd8452; stroke: #dd8452"/>
     <use xlink:href="#m716cdd5fb1" x="901.541457" y="608.201361" style="fill: #dd8452; stroke: #dd8452"/>
     <use xlink:href="#m716cdd5fb1" x="925.120535" y="622.837788" style="fill: #dd8452; stroke: #dd8452"/>
     <use xlink:href="#m716cdd5fb1" x="945.918756" y="635.748032" style="fill: #dd8452; stroke: #dd8452"/>
     <use xlink:href="#m716cdd5fb1" x="964.523398" y="647.296638" style="fill: #dd8452; stroke: #dd8452"/>
    </g>
   </g>
   <g id="line2d_39">
    <path d="M 557.93112 394.909402 
L 680.327592 470.88553 
L 751.924938 515.328717 
L 802.724063 546.861659 
L 842.126926 571.320509 
L 874.32141 591.304845 
L 901.541457 608.201361 
L 925.120535 622.837788 
L 945.918756 635.748032 
L 964.523398 647.296638 
" clip-path="url(#p21b666a6af)" style="fill: none; stroke: #55a868; stroke-width: 1.2; stroke-linecap: round"/>
    <g clip-path="url(#p21b666a6af)">
     <use xlink:href="#m73e3549d94" x="557.93112" y="394.909402" style="fill: #55a868; stroke: #55a868"/>
     <use xlink:href="#m73e3549d94" x="680.327592" y="470.88553" style="fill: #55a868; stroke: #55a868"/>
     <use xlink:href="#m73e3549d94" x="751.924938" y="515.328717" style="fill: #55a868; stroke: #55a868"/>
     <use xlink:href="#m73e3549d94" x="802.724063" y="546.861659" style="fill: #55a868; stroke: #55a868"/>
     <use xlink:href="#m73e3549d94" x="842.126926" y="571.320509" style="fill: #55a868; stroke: #55a868"/>
     <use xlink:href="#m73e3549d94" x="874.32141" y="591.304845" style="fill: #55a868; stroke: #55a868"/>
     <use xlink:href="#m73e3549d94" x="901.541457" y="608.201361" style="fill: #55a868; stroke: #55a868"/>
     <use xlink:href="#m73e3549d94" x="925.120535" y="622.837788" style="fill: #55a868; stroke: #55a868"/>
     <use xlink:href="#m73e3549d94" x="945.918756" y="635.748032" style="fill: #55a868; stroke: #55a868"/>
     <use xlink:href="#m73e3549d94" x="964.523398" y="647.296638" style="fill: #55a868; stroke: #55a868"/>
    </g>
   </g>
   <g id="line2d_40">
    <path d="M 557.93112 394.909402 
L 680.327592 470.88553 
L 751.924938 515.328717 
L 802.724063 546.861659 
L 842.126926 571.320509 
L 874.32141 591.304845 
L 901.541457 608.201361 
L 925.120535 622.837788 
L 945.918756 635.748032 
L 964.523398 647.296638 
" clip-path="url(#p21b666a6af)" style="fill: none; stroke: #c44e52; stroke-width: 1.2; stroke-linecap: round"/>
    <g clip-path="url(#p21b666a6af)">
     <use xlink:href="#mca6d6e3f8f" x="557.93112" y="394.909402" style="fill: #c44e52; stroke: #c44e52"/>
     <use xlink:href="#mca6d6e3f8f" x="680.327592" y="470.88553" style="fill: #c44e52; stroke: #c44e52"/>
     <use xlink:href="#mca6d6e3f8f" x="751.924938" y="515.328717" style="fill: #c44e52; stroke: #c44e52"/>
     <use xlink:href="#mca6d6e3f8f" x="802.724063" y="546.861659" style="fill: #c44e52; stroke: #c44e52"/>
     <use xlink:href="#mca6d6e3f8f" x="842.126926" y="571.320509" style="fill: #c44e52; stroke: #c44e52"/>
     <use xlink:href="#mca6d6e3f8f" x="874.32141" y="591.304845" style="fill: #c44e52; stroke: #c44e52"/>
     <use xlink:href="#mca6d6e3f8f" x="901.541457" y="608.201361" style="fill: #c44e52; stroke: #c44e52"/>
     <use xlink:href="#mca6d6e3f8f" x="925.120535" y="622.837788" style="fill: #c44e52; stroke: #c44e52"/>
     <use xlink:href="#mca6d6e3f8f" x="945.918756" y="635.748032" style="fill: #c44e52; stroke: #c44e52"/>
     <use xlink:href="#mca6d6e3f8f" x="964.523398" y="647.296638" style="fill: #c44e52; stroke: #c44e52"/>
    </g>
   </g>
   <g id="line2d_41">
    <path d="M 557.93112 394.909402 
L 680.327592 470.88553 
L 751.924938 515.328717 
L 802.724063 546.861659 
L 842.126926 571.320509 
L 874.32141 591.304845 
L 901.541457 608.201361 
L 925.120535 622.837788 
L 945.918756 635.748032 
L 964.523398 647.296638 
" clip-path="url(#p21b666a6af)" style="fill: none; stroke: #8172b3; stroke-width: 1.2; stroke-linecap: round"/>
    <g clip-path="url(#p21b666a6af)">
     <use xlink:href="#m11cae1fd7d" x="557.93112" y="394.909402" style="fill: #8172b3; stroke: #8172b3"/>
     <use xlink:href="#m11cae1fd7d" x="680.327592" y="470.88553" style="fill: #8172b3; stroke: #8172b3"/>
     <use xlink:href="#m11cae1fd7d" x="751.924938" y="515.328717" style="fill: #8172b3; stroke: #8172b3"/>
     <use xlink:href="#m11cae1fd7d" x="802.724063" y="546.861659" style="fill: #8172b3; stroke: #8172b3"/>
     <use xlink:href="#m11cae1fd7d" x="842.126926" y="571.320509" style="fill: #8172b3; stroke: #8172b3"/>
     <use xlink:href="#m11cae1fd7d" x="874.32141" y="591.304845" style="fill: #8172b3; stroke: #8172b3"/>
     <use xlink:href="#m11cae1fd7d" x="901.541457" y="608.201361" style="fill: #8172b3; stroke: #8172b3"/>
     <use xlink:href="#m11cae1fd7d" x="925.120535" y="622.837788" style="fill: #8172b3; stroke: #8172b3"/>
     <use xlink:href="#m11cae1fd7d" x="945.918756" y="635.748032" style="fill: #8172b3; stroke: #8172b3"/>
     <use xlink:href="#m11cae1fd7d" x="964.523398" y="647.296638" style="fill: #8172b3; stroke: #8172b3"/>
    </g>
   </g>
   <g id="line2d_42">
    <path d="M 557.93112 394.909402 
L 573.295657 404.446752 
L 587.429661 413.220264 
L 600.515705 421.343267 
L 612.69852 428.905602 
L 624.094783 435.979695 
L 634.799926 442.624783 
L 644.893003 448.889938 
L 654.440235 454.816267 
L 663.497646 460.438545 
L 672.113051 465.786454 
L 680.327592 470.88553 
L 688.176919 475.757905 
L 695.692129 480.422881 
L 702.900509 484.897395 
L 709.826133 489.196393 
L 716.490349 493.333125 
L 722.912176 497.319396 
L 729.108629 501.165769 
L 735.094992 504.881731 
L 740.885044 508.475836 
L 746.491254 511.955823 
L 751.924938 515.328717 
L 757.196398 518.600911 
L 762.315039 521.778246 
L 767.289475 524.866067 
L 772.127607 527.869279 
L 776.836707 530.792396 
L 781.423479 533.639579 
L 785.894117 536.414674 
L 790.254358 539.12124 
L 794.509523 541.762582 
L 798.664556 544.341769 
L 802.724063 546.861659 
L 806.692338 549.324917 
L 810.573391 551.734034 
L 814.370973 554.091337 
L 818.088601 556.39901 
L 821.72957 558.659098 
L 825.29698 560.873524 
L 828.793744 563.044098 
L 832.222605 565.172521 
L 835.58615 567.260401 
L 838.886821 569.309253 
L 842.126926 571.320509 
L 845.308648 573.295525 
L 848.434053 575.235582 
L 851.505101 577.141898 
L 854.523649 579.015625 
L 857.491464 580.85786 
L 860.410221 582.669643 
L 863.281516 584.451965 
L 866.106869 586.205769 
L 868.887726 587.931952 
L 871.625467 589.631372 
L 874.32141 591.304845 
L 876.97681 592.953153 
L 879.592869 594.57704 
L 882.170737 596.17722 
L 884.711511 597.754375 
L 887.216245 599.309158 
L 889.685947 600.842196 
L 892.121582 602.354087 
L 894.524079 603.845408 
L 896.894326 605.31671 
L 899.233179 606.768525 
L 901.541457 608.201361 
L 903.819951 609.615708 
L 906.069418 611.012037 
L 908.290589 612.390802 
L 910.484167 613.75244 
L 912.65083 615.097369 
L 914.791229 616.425996 
L 916.905994 617.738711 
L 918.995732 619.03589 
L 921.061028 620.317898 
L 923.102447 621.585084 
L 925.120535 622.837788 
L 927.11582 624.076336 
L 929.08881 625.301046 
L 931.039998 626.512223 
L 932.969862 627.710163 
L 934.878862 628.895151 
L 936.767445 630.067466 
L 938.636042 631.227375 
L 940.485072 632.375138 
L 942.314941 633.511007 
L 944.126042 634.635226 
L 945.918756 635.748032 
L 947.693452 636.849653 
L 949.450489 637.940312 
L 951.190215 639.020226 
L 952.912968 640.089604 
L 954.619076 641.14865 
L 956.308857 642.197561 
L 957.982621 643.23653 
L 959.640669 644.265743 
L 961.283293 645.285382 
L 962.910777 646.295623 
L 964.523398 647.296638 
" clip-path="url(#p21b666a6af)" style="fill: none; stroke-dasharray: 5.55,2.4; stroke-dashoffset: 0; stroke: #1a1a1a; stroke-opacity: 0.7; stroke-width: 1.5"/>
   </g>
   <g id="patch_19">
    <path d="M 537.601506 659.916 
L 537.601506 382.29004 
" style="fill: none; stroke: #cccccc; stroke-width: 1.25; stroke-linejoin: miter; stroke-linecap: square"/>
   </g>
   <g id="patch_20">
    <path d="M 984.853012 659.916 
L 984.853012 382.29004 
" style="fill: none; stroke: #cccccc; stroke-width: 1.25; stroke-linejoin: miter; stroke-linecap: square"/>
   </g>
   <g id="patch_21">
    <path d="M 537.601506 659.916 
L 984.853012 659.916 
" style="fill: none; stroke: #cccccc; stroke-width: 1.25; stroke-linejoin: miter; stroke-linecap: square"/>
   </g>
   <g id="patch_22">
    <path d="M 537.601506 382.29004 
L 984.853012 382.29004 
" style="fill: none; stroke: #cccccc; stroke-width: 1.25; stroke-linejoin: miter; stroke-linecap: square"/>
   </g>
   <g id="text_26">
    <!-- M=4 (J_A=2.0) -->
    <g style="fill: #262626" transform="translate(717.172259 376.29004) scale(0.12 -0.12)">
     <use xlink:href="#DejaVuSans-4d"/>
     <use xlink:href="#DejaVuSans-3d" transform="translate(86.279297 0)"/>
     <use xlink:href="#DejaVuSans-34" transform="translate(170.068359 0)"/>
     <use xlink:href="#DejaVuSans-20" transform="translate(233.691406 0)"/>
     <use xlink:href="#DejaVuSans-28" transform="translate(265.478516 0)"/>
     <use xlink:href="#DejaVuSans-4a" transform="translate(304.492188 0)"/>
     <use xlink:href="#DejaVuSans-5f" transform="translate(333.984375 0)"/>
     <use xlink:href="#DejaVuSans-41" transform="translate(383.984375 0)"/>
     <use xlink:href="#DejaVuSans-3d" transform="translate(452.392578 0)"/>
     <use xlink:href="#DejaVuSans-32" transform="translate(536.181641 0)"/>
     <use xlink:href="#DejaVuSans-2e" transform="translate(599.804688 0)"/>
     <use xlink:href="#DejaVuSans-30" transform="translate(631.591797 0)"/>
     <use xlink:href="#DejaVuSans-29" transform="translate(695.214844 0)"/>
    </g>
   </g>
  </g>
  <g id="text_27">
   <!-- Optimal Sensitivity vs N for $\omega$-Independent Drive -->
   <g style="fill: #262626" transform="translate(334.498012 17.08) scale(0.13 -0.13)">
    <defs>
     <path id="DejaVuSans-4f" d="M 2522 4238 
Q 1834 4238 1429 3725 
Q 1025 3213 1025 2328 
Q 1025 1447 1429 934 
Q 1834 422 2522 422 
Q 3209 422 3611 934 
Q 4013 1447 4013 2328 
Q 4013 3213 3611 3725 
Q 3209 4238 2522 4238 
z
M 2522 4750 
Q 3503 4750 4090 4092 
Q 4678 3434 4678 2328 
Q 4678 1225 4090 567 
Q 3503 -91 2522 -91 
Q 1538 -91 948 565 
Q 359 1222 359 2328 
Q 359 3434 948 4092 
Q 1538 4750 2522 4750 
z
" transform="scale(0.015625)"/>
     <path id="DejaVuSans-6e" d="M 3513 2113 
L 3513 0 
L 2938 0 
L 2938 2094 
Q 2938 2591 2744 2837 
Q 2550 3084 2163 3084 
Q 1697 3084 1428 2787 
Q 1159 2491 1159 1978 
L 1159 0 
L 581 0 
L 581 3500 
L 1159 3500 
L 1159 2956 
Q 1366 3272 1645 3428 
Q 1925 3584 2291 3584 
Q 2894 3584 3203 3211 
Q 3513 2838 3513 2113 
z
" transform="scale(0.015625)"/>
     <path id="DejaVuSans-76" d="M 191 3500 
L 800 3500 
L 1894 563 
L 2988 3500 
L 3597 3500 
L 2284 0 
L 1503 0 
L 191 3500 
z
" transform="scale(0.015625)"/>
     <path id="DejaVuSans-66" d="M 2375 4863 
L 2375 4384 
L 1825 4384 
Q 1516 4384 1395 4259 
Q 1275 4134 1275 3809 
L 1275 3500 
L 2222 3500 
L 2222 3053 
L 1275 3053 
L 1275 0 
L 697 0 
L 697 3053 
L 147 3053 
L 147 3500 
L 697 3500 
L 697 3744 
Q 697 4328 969 4595 
Q 1241 4863 1831 4863 
L 2375 4863 
z
" transform="scale(0.015625)"/>
     <path id="DejaVuSans-2d" d="M 313 2009 
L 1997 2009 
L 1997 1497 
L 313 1497 
L 313 2009 
z
" transform="scale(0.015625)"/>
     <path id="DejaVuSans-49" d="M 628 4666 
L 1259 4666 
L 1259 0 
L 628 0 
L 628 4666 
z
" transform="scale(0.015625)"/>
     <path id="DejaVuSans-64" d="M 2906 2969 
L 2906 4863 
L 3481 4863 
L 3481 0 
L 2906 0 
L 2906 525 
Q 2725 213 2448 61 
Q 2172 -91 1784 -91 
Q 1150 -91 751 415 
Q 353 922 353 1747 
Q 353 2572 751 3078 
Q 1150 3584 1784 3584 
Q 2172 3584 2448 3432 
Q 2725 3281 2906 2969 
z
M 947 1747 
Q 947 1113 1208 752 
Q 1469 391 1925 391 
Q 2381 391 2643 752 
Q 2906 1113 2906 1747 
Q 2906 2381 2643 2742 
Q 2381 3103 1925 3103 
Q 1469 3103 1208 2742 
Q 947 2381 947 1747 
z
" transform="scale(0.015625)"/>
     <path id="DejaVuSans-44" d="M 1259 4147 
L 1259 519 
L 2022 519 
Q 2988 519 3436 956 
Q 3884 1394 3884 2338 
Q 3884 3275 3436 3711 
Q 2988 4147 2022 4147 
L 1259 4147 
z
M 628 4666 
L 1925 4666 
Q 3281 4666 3915 4102 
Q 4550 3538 4550 2338 
Q 4550 1131 3912 565 
Q 3275 0 1925 0 
L 628 0 
L 628 4666 
z
" transform="scale(0.015625)"/>
    </defs>
    <use xlink:href="#DejaVuSans-4f" transform="translate(0 0.015625)"/>
    <use xlink:href="#DejaVuSans-70" transform="translate(78.710938 0.015625)"/>
    <use xlink:href="#DejaVuSans-74" transform="translate(142.1875 0.015625)"/>
    <use xlink:href="#DejaVuSans-69" transform="translate(181.396484 0.015625)"/>
    <use xlink:href="#DejaVuSans-6d" transform="translate(209.179688 0.015625)"/>
    <use xlink:href="#DejaVuSans-61" transform="translate(306.591797 0.015625)"/>
    <use xlink:href="#DejaVuSans-6c" transform="translate(367.871094 0.015625)"/>
    <use xlink:href="#DejaVuSans-20" transform="translate(395.654297 0.015625)"/>
    <use xlink:href="#DejaVuSans-53" transform="translate(427.441406 0.015625)"/>
    <use xlink:href="#DejaVuSans-65" transform="translate(490.917969 0.015625)"/>
    <use xlink:href="#DejaVuSans-6e" transform="translate(552.441406 0.015625)"/>
    <use xlink:href="#DejaVuSans-73" transform="translate(615.820312 0.015625)"/>
    <use xlink:href="#DejaVuSans-69" transform="translate(667.919922 0.015625)"/>
    <use xlink:href="#DejaVuSans-74" transform="translate(695.703125 0.015625)"/>
    <use xlink:href="#DejaVuSans-69" transform="translate(734.912109 0.015625)"/>
    <use xlink:href="#DejaVuSans-76" transform="translate(762.695312 0.015625)"/>
    <use xlink:href="#DejaVuSans-69" transform="translate(821.875 0.015625)"/>
    <use xlink:href="#DejaVuSans-74" transform="translate(849.658203 0.015625)"/>
    <use xlink:href="#DejaVuSans-79" transform="translate(888.867188 0.015625)"/>
    <use xlink:href="#DejaVuSans-20" transform="translate(948.046875 0.015625)"/>
    <use xlink:href="#DejaVuSans-76" transform="translate(979.833984 0.015625)"/>
    <use xlink:href="#DejaVuSans-73" transform="translate(1039.013672 0.015625)"/>
    <use xlink:href="#DejaVuSans-20" transform="translate(1091.113281 0.015625)"/>
    <use xlink:href="#DejaVuSans-4e" transform="translate(1122.900391 0.015625)"/>
    <use xlink:href="#DejaVuSans-20" transform="translate(1197.705078 0.015625)"/>
    <use xlink:href="#DejaVuSans-66" transform="translate(1229.492188 0.015625)"/>
    <use xlink:href="#DejaVuSans-6f" transform="translate(1264.697266 0.015625)"/>
    <use xlink:href="#DejaVuSans-72" transform="translate(1325.878906 0.015625)"/>
    <use xlink:href="#DejaVuSans-20" transform="translate(1366.992188 0.015625)"/>
    <use xlink:href="#DejaVuSans-Oblique-3c9" transform="translate(1398.779297 0.015625)"/>
    <use xlink:href="#DejaVuSans-2d" transform="translate(1482.519531 0.015625)"/>
    <use xlink:href="#DejaVuSans-49" transform="translate(1518.603516 0.015625)"/>
    <use xlink:href="#DejaVuSans-6e" transform="translate(1548.095703 0.015625)"/>
    <use xlink:href="#DejaVuSans-64" transform="translate(1611.474609 0.015625)"/>
    <use xlink:href="#DejaVuSans-65" transform="translate(1674.951172 0.015625)"/>
    <use xlink:href="#DejaVuSans-70" transform="translate(1736.474609 0.015625)"/>
    <use xlink:href="#DejaVuSans-65" transform="translate(1799.951172 0.015625)"/>
    <use xlink:href="#DejaVuSans-6e" transform="translate(1861.474609 0.015625)"/>
    <use xlink:href="#DejaVuSans-64" transform="translate(1924.853516 0.015625)"/>
    <use xlink:href="#DejaVuSans-65" transform="translate(1988.330078 0.015625)"/>
    <use xlink:href="#DejaVuSans-6e" transform="translate(2049.853516 0.015625)"/>
    <use xlink:href="#DejaVuSans-74" transform="translate(2113.232422 0.015625)"/>
    <use xlink:href="#DejaVuSans-20" transform="translate(2152.441406 0.015625)"/>
    <use xlink:href="#DejaVuSans-44" transform="translate(2184.228516 0.015625)"/>
    <use xlink:href="#DejaVuSans-72" transform="translate(2261.230469 0.015625)"/>
    <use xlink:href="#DejaVuSans-69" transform="translate(2302.34375 0.015625)"/>
    <use xlink:href="#DejaVuSans-76" transform="translate(2330.126953 0.015625)"/>
    <use xlink:href="#DejaVuSans-65" transform="translate(2389.306641 0.015625)"/>
   </g>
   <!-- (All M, all $\omega$ collapse to SQL) -->
   <g style="fill: #262626" transform="translate(401.513012 31.666) scale(0.13 -0.13)">
    <defs>
     <path id="DejaVuSans-2c" d="M 750 794 
L 1409 794 
L 1409 256 
L 897 -744 
L 494 -744 
L 750 256 
L 750 794 
z
" transform="scale(0.015625)"/>
    </defs>
    <use xlink:href="#DejaVuSans-28" transform="translate(0 0.015625)"/>
    <use xlink:href="#DejaVuSans-41" transform="translate(39.013672 0.015625)"/>
    <use xlink:href="#DejaVuSans-6c" transform="translate(107.421875 0.015625)"/>
    <use xlink:href="#DejaVuSans-6c" transform="translate(135.205078 0.015625)"/>
    <use xlink:href="#DejaVuSans-20" transform="translate(162.988281 0.015625)"/>
    <use xlink:href="#DejaVuSans-4d" transform="translate(194.775391 0.015625)"/>
    <use xlink:href="#DejaVuSans-2c" transform="translate(281.054688 0.015625)"/>
    <use xlink:href="#DejaVuSans-20" transform="translate(312.841797 0.015625)"/>
    <use xlink:href="#DejaVuSans-61" transform="translate(344.628906 0.015625)"/>
    <use xlink:href="#DejaVuSans-6c" transform="translate(405.908203 0.015625)"/>
    <use xlink:href="#DejaVuSans-6c" transform="translate(433.691406 0.015625)"/>
    <use xlink:href="#DejaVuSans-20" transform="translate(461.474609 0.015625)"/>
    <use xlink:href="#DejaVuSans-Oblique-3c9" transform="translate(493.261719 0.015625)"/>
    <use xlink:href="#DejaVuSans-20" transform="translate(577.001953 0.015625)"/>
    <use xlink:href="#DejaVuSans-63" transform="translate(608.789062 0.015625)"/>
    <use xlink:href="#DejaVuSans-6f" transform="translate(663.769531 0.015625)"/>
    <use xlink:href="#DejaVuSans-6c" transform="translate(724.951172 0.015625)"/>
    <use xlink:href="#DejaVuSans-6c" transform="translate(752.734375 0.015625)"/>
    <use xlink:href="#DejaVuSans-61" transform="translate(780.517578 0.015625)"/>
    <use xlink:href="#DejaVuSans-70" transform="translate(841.796875 0.015625)"/>
    <use xlink:href="#DejaVuSans-73" transform="translate(905.273438 0.015625)"/>
    <use xlink:href="#DejaVuSans-65" transform="translate(957.373047 0.015625)"/>
    <use xlink:href="#DejaVuSans-20" transform="translate(1018.896484 0.015625)"/>
    <use xlink:href="#DejaVuSans-74" transform="translate(1050.683594 0.015625)"/>
    <use xlink:href="#DejaVuSans-6f" transform="translate(1089.892578 0.015625)"/>
    <use xlink:href="#DejaVuSans-20" transform="translate(1151.074219 0.015625)"/>
    <use xlink:href="#DejaVuSans-53" transform="translate(1182.861328 0.015625)"/>
    <use xlink:href="#DejaVuSans-51" transform="translate(1246.337891 0.015625)"/>
    <use xlink:href="#DejaVuSans-4c" transform="translate(1325.048828 0.015625)"/>
    <use xlink:href="#DejaVuSans-29" transform="translate(1380.761719 0.015625)"/>
   </g>
  </g>
 </g>
 <defs>
  <clipPath id="p5ac011513a">
   <rect x="77.39" y="68.784" width="447.251506" height="277.62596"/>
  </clipPath>
  <clipPath id="pe4a5db14c7">
   <rect x="537.601506" y="68.784" width="447.251506" height="277.62596"/>
  </clipPath>
  <clipPath id="pb0f70b1f03">
   <rect x="77.39" y="382.29004" width="447.251506" height="277.62596"/>
  </clipPath>
  <clipPath id="p21b666a6af">
   <rect x="537.601506" y="382.29004" width="447.251506" height="277.62596"/>
  </clipPath>
 </defs>
</svg>
