<?xml version="1.0" encoding="utf-8" standalone="no"?>
<!DOCTYPE svg PUBLIC "-//W3C//DTD SVG 1.1//EN"
  "http://www.w3.org/Graphics/SVG/1.1/DTD/svg11.dtd">
<svg xmlns:xlink="http://www.w3.org/1999/xlink" width="576pt" height="432pt" viewBox="0 0 576 432" xmlns="http://www.w3.org/2000/svg" version="1.1">
 <metadata>
  <rdf:RDF xmlns:dc="http://purl.org/dc/elements/1.1/" xmlns:cc="http://creativecommons.org/ns#" xmlns:rdf="http://www.w3.org/1999/02/22-rdf-syntax-ns#">
   <cc:Work>
    <dc:type rdf:resource="http://purl.org/dc/dcmitype/StillImage"/>
    <dc:date>2026-07-01T00:00:44.251333</dc:date>
    <dc:format>image/svg+xml</dc:format>
    <dc:creator>
     <cc:Agent>
      <dc:title>Matplotlib v3.10.9, https://matplotlib.org/</dc:title>
     </cc:Agent>
    </dc:creator>
   </cc:Work>
  </rdf:RDF>
 </metadata>
 <defs>
  <style type="text/css">*{stroke-linejoin: round; stroke-linecap: butt}</style>
 </defs>
 <g id="figure_1">
  <g id="patch_1">
   <path d="M 0 432 
L 576 432 
L 576 0 
L 0 0 
z
" style="fill: #ffffff"/>
  </g>
  <g id="axes_1">
   <g id="patch_2">
    <path d="M 65.502548 377.676 
L 553.235614 377.676 
L 553.235614 30.48 
L 65.502548 30.48 
z
" style="fill: #ffffff"/>
   </g>
   <g id="matplotlib.axis_1">
    <g id="xtick_1">
     <g id="line2d_1">
      <path d="M 65.502548 377.676 
L 65.502548 30.48 
" clip-path="url(#pcb6eb22818)" style="fill: none; stroke: #cccccc; stroke-linecap: round"/>
     </g>
     <g id="text_1">
      <!-- $\mathdefault{10^{-1}}$ -->
      <g style="fill: #262626" transform="translate(52.577548 395.534281) scale(0.11 -0.11)">
       <defs>
        <path id="DejaVuSans-31" d="M 794 531 
L 1825 531 
L 1825 4091 
L 703 3866 
L 703 4441 
L 1819 4666 
L 2450 4666 
L 2450 531 
L 3481 531 
L 3481 0 
L 794 0 
L 794 531 
z
" transform="scale(0.015625)"/>
        <path id="DejaVuSans-30" d="M 2034 4250 
Q 1547 4250 1301 3770 
Q 1056 3291 1056 2328 
Q 1056 1369 1301 889 
Q 1547 409 2034 409 
Q 2525 409 2770 889 
Q 3016 1369 3016 2328 
Q 3016 3291 2770 3770 
Q 2525 4250 2034 4250 
z
M 2034 4750 
Q 2819 4750 3233 4129 
Q 3647 3509 3647 2328 
Q 3647 1150 3233 529 
Q 2819 -91 2034 -91 
Q 1250 -91 836 529 
Q 422 1150 422 2328 
Q 422 3509 836 4129 
Q 1250 4750 2034 4750 
z
" transform="scale(0.015625)"/>
        <path id="DejaVuSans-2212" d="M 678 2272 
L 4684 2272 
L 4684 1741 
L 678 1741 
L 678 2272 
z
" transform="scale(0.015625)"/>
       </defs>
       <use xlink:href="#DejaVuSans-31" transform="translate(0 0.684375)"/>
       <use xlink:href="#DejaVuSans-30" transform="translate(63.623047 0.684375)"/>
       <use xlink:href="#DejaVuSans-2212" transform="translate(128.203125 38.965625) scale(0.7)"/>
       <use xlink:href="#DejaVuSans-31" transform="translate(186.855469 38.965625) scale(0.7)"/>
      </g>
     </g>
    </g>
    <g id="xtick_2">
     <g id="line2d_2">
      <path d="M 228.080237 377.676 
L 228.080237 30.48 
" clip-path="url(#pcb6eb22818)" style="fill: none; stroke: #cccccc; stroke-linecap: round"/>
     </g>
     <g id="text_2">
      <!-- $\mathdefault{10^{0}}$ -->
      <g style="fill: #262626" transform="translate(218.400237 395.534281) scale(0.11 -0.11)">
       <use xlink:href="#DejaVuSans-31" transform="translate(0 0.765625)"/>
       <use xlink:href="#DejaVuSans-30" transform="translate(63.623047 0.765625)"/>
       <use xlink:href="#DejaVuSans-30" transform="translate(128.203125 39.046875) scale(0.7)"/>
      </g>
     </g>
    </g>
    <g id="xtick_3">
     <g id="line2d_3">
      <path d="M 390.657926 377.676 
L 390.657926 30.48 
" clip-path="url(#pcb6eb22818)" style="fill: none; stroke: #cccccc; stroke-linecap: round"/>
     </g>
     <g id="text_3">
      <!-- $\mathdefault{10^{1}}$ -->
      <g style="fill: #262626" transform="translate(380.977926 395.534281) scale(0.11 -0.11)">
       <use xlink:href="#DejaVuSans-31" transform="translate(0 0.684375)"/>
       <use xlink:href="#DejaVuSans-30" transform="translate(63.623047 0.684375)"/>
       <use xlink:href="#DejaVuSans-31" transform="translate(128.203125 38.965625) scale(0.7)"/>
      </g>
     </g>
    </g>
    <g id="xtick_4">
     <g id="line2d_4">
      <path d="M 553.235614 377.676 
L 553.235614 30.48 
" clip-path="url(#pcb6eb22818)" style="fill: none; stroke: #cccccc; stroke-linecap: round"/>
     </g>
     <g id="text_4">
      <!-- $\mathdefault{10^{2}}$ -->
      <g style="fill: #262626" transform="translate(543.555614 395.534281) scale(0.11 -0.11)">
       <defs>
        <path id="DejaVuSans-32" d="M 1228 531 
L 3431 531 
L 3431 0 
L 469 0 
L 469 531 
Q 828 903 1448 1529 
Q 2069 2156 2228 2338 
Q 2531 2678 2651 2914 
Q 2772 3150 2772 3378 
Q 2772 3750 2511 3984 
Q 2250 4219 1831 4219 
Q 1534 4219 1204 4116 
Q 875 4013 500 3803 
L 500 4441 
Q 881 4594 1212 4672 
Q 1544 4750 1819 4750 
Q 2544 4750 2975 4387 
Q 3406 4025 3406 3419 
Q 3406 3131 3298 2873 
Q 3191 2616 2906 2266 
Q 2828 2175 2409 1742 
Q 1991 1309 1228 531 
z
" transform="scale(0.015625)"/>
       </defs>
       <use xlink:href="#DejaVuSans-31" transform="translate(0 0.765625)"/>
       <use xlink:href="#DejaVuSans-30" transform="translate(63.623047 0.765625)"/>
       <use xlink:href="#DejaVuSans-32" transform="translate(128.203125 39.046875) scale(0.7)"/>
      </g>
     </g>
    </g>
    <g id="xtick_5"/>
    <g id="xtick_6"/>
    <g id="xtick_7"/>
    <g id="xtick_8"/>
    <g id="xtick_9"/>
    <g id="xtick_10"/>
    <g id="xtick_11"/>
    <g id="xtick_12"/>
    <g id="xtick_13"/>
    <g id="xtick_14"/>
    <g id="xtick_15"/>
    <g id="xtick_16"/>
    <g id="xtick_17"/>
    <g id="xtick_18"/>
    <g id="xtick_19"/>
    <g id="xtick_20"/>
    <g id="xtick_21"/>
    <g id="xtick_22"/>
    <g id="xtick_23"/>
    <g id="xtick_24"/>
    <g id="xtick_25"/>
    <g id="xtick_26"/>
    <g id="xtick_27"/>
    <g id="xtick_28"/>
    <g id="text_5">
     <!-- $t_{\text{hold}}$ -->
     <g style="fill: #262626" transform="translate(297.729081 410.940063) scale(0.12 -0.12)">
      <defs>
       <path id="DejaVuSans-Oblique-74" d="M 2706 3500 
L 2619 3053 
L 1472 3053 
L 1100 1153 
Q 1081 1047 1072 975 
Q 1063 903 1063 863 
Q 1063 663 1183 572 
Q 1303 481 1569 481 
L 2150 481 
L 2053 0 
L 1503 0 
Q 991 0 739 200 
Q 488 400 488 806 
Q 488 878 497 964 
Q 506 1050 525 1153 
L 897 3053 
L 409 3053 
L 500 3500 
L 978 3500 
L 1172 4494 
L 1747 4494 
L 1556 3500 
L 2706 3500 
z
" transform="scale(0.015625)"/>
       <path id="DejaVuSans-68" d="M 3513 2113 
L 3513 0 
L 2938 0 
L 2938 2094 
Q 2938 2591 2744 2837 
Q 2550 3084 2163 3084 
Q 1697 3084 1428 2787 
Q 1159 2491 1159 1978 
L 1159 0 
L 581 0 
L 581 4863 
L 1159 4863 
L 1159 2956 
Q 1366 3272 1645 3428 
Q 1925 3584 2291 3584 
Q 2894 3584 3203 3211 
Q 3513 2838 3513 2113 
z
" transform="scale(0.015625)"/>
       <path id="DejaVuSans-6f" d="M 1959 3097 
Q 1497 3097 1228 2736 
Q 959 2375 959 1747 
Q 959 1119 1226 758 
Q 1494 397 1959 397 
Q 2419 397 2687 759 
Q 2956 1122 2956 1747 
Q 2956 2369 2687 2733 
Q 2419 3097 1959 3097 
z
M 1959 3584 
Q 2709 3584 3137 3096 
Q 3566 2609 3566 1747 
Q 3566 888 3137 398 
Q 2709 -91 1959 -91 
Q 1206 -91 779 398 
Q 353 888 353 1747 
Q 353 2609 779 3096 
Q 1206 3584 1959 3584 
z
" transform="scale(0.015625)"/>
       <path id="DejaVuSans-6c" d="M 603 4863 
L 1178 4863 
L 1178 0 
L 603 0 
L 603 4863 
z
" transform="scale(0.015625)"/>
       <path id="DejaVuSans-64" d="M 2906 2969 
L 2906 4863 
L 3481 4863 
L 3481 0 
L 2906 0 
L 2906 525 
Q 2725 213 2448 61 
Q 2172 -91 1784 -91 
Q 1150 -91 751 415 
Q 353 922 353 1747 
Q 353 2572 751 3078 
Q 1150 3584 1784 3584 
Q 2172 3584 2448 3432 
Q 2725 3281 2906 2969 
z
M 947 1747 
Q 947 1113 1208 752 
Q 1469 391 1925 391 
Q 2381 391 2643 752 
Q 2906 1113 2906 1747 
Q 2906 2381 2643 2742 
Q 2381 3103 1925 3103 
Q 1469 3103 1208 2742 
Q 947 2381 947 1747 
z
" transform="scale(0.015625)"/>
      </defs>
      <use xlink:href="#DejaVuSans-Oblique-74" transform="translate(0 0.78125)"/>
      <use xlink:href="#DejaVuSans-68" transform="translate(39.208984 -15.625) scale(0.7)"/>
      <use xlink:href="#DejaVuSans-6f" transform="translate(83.574219 -15.625) scale(0.7)"/>
      <use xlink:href="#DejaVuSans-6c" transform="translate(126.401367 -15.625) scale(0.7)"/>
      <use xlink:href="#DejaVuSans-64" transform="translate(145.849609 -15.625) scale(0.7)"/>
     </g>
    </g>
   </g>
   <g id="matplotlib.axis_2">
    <g id="ytick_1">
     <g id="line2d_5">
      <path d="M 65.502548 361.894364 
L 553.235614 361.894364 
" clip-path="url(#pcb6eb22818)" style="fill: none; stroke: #cccccc; stroke-linecap: round"/>
     </g>
     <g id="text_6">
      <!-- $\mathdefault{10^{-2}}$ -->
      <g style="fill: #262626" transform="translate(30.152548 366.073504) scale(0.11 -0.11)">
       <use xlink:href="#DejaVuSans-31" transform="translate(0 0.765625)"/>
       <use xlink:href="#DejaVuSans-30" transform="translate(63.623047 0.765625)"/>
       <use xlink:href="#DejaVuSans-2212" transform="translate(128.203125 39.046875) scale(0.7)"/>
       <use xlink:href="#DejaVuSans-32" transform="translate(186.855469 39.046875) scale(0.7)"/>
      </g>
     </g>
    </g>
    <g id="ytick_2">
     <g id="line2d_6">
      <path d="M 65.502548 291.641604 
L 553.235614 291.641604 
" clip-path="url(#pcb6eb22818)" style="fill: none; stroke: #cccccc; stroke-linecap: round"/>
     </g>
     <g id="text_7">
      <!-- $\mathdefault{10^{-1}}$ -->
      <g style="fill: #262626" transform="translate(30.152548 295.820744) scale(0.11 -0.11)">
       <use xlink:href="#DejaVuSans-31" transform="translate(0 0.684375)"/>
       <use xlink:href="#DejaVuSans-30" transform="translate(63.623047 0.684375)"/>
       <use xlink:href="#DejaVuSans-2212" transform="translate(128.203125 38.965625) scale(0.7)"/>
       <use xlink:href="#DejaVuSans-31" transform="translate(186.855469 38.965625) scale(0.7)"/>
      </g>
     </g>
    </g>
    <g id="ytick_3">
     <g id="line2d_7">
      <path d="M 65.502548 221.388844 
L 553.235614 221.388844 
" clip-path="url(#pcb6eb22818)" style="fill: none; stroke: #cccccc; stroke-linecap: round"/>
     </g>
     <g id="text_8">
      <!-- $\mathdefault{10^{0}}$ -->
      <g style="fill: #262626" transform="translate(36.642548 225.567985) scale(0.11 -0.11)">
       <use xlink:href="#DejaVuSans-31" transform="translate(0 0.765625)"/>
       <use xlink:href="#DejaVuSans-30" transform="translate(63.623047 0.765625)"/>
       <use xlink:href="#DejaVuSans-30" transform="translate(128.203125 39.046875) scale(0.7)"/>
      </g>
     </g>
    </g>
    <g id="ytick_4">
     <g id="line2d_8">
      <path d="M 65.502548 151.136084 
L 553.235614 151.136084 
" clip-path="url(#pcb6eb22818)" style="fill: none; stroke: #cccccc; stroke-linecap: round"/>
     </g>
     <g id="text_9">
      <!-- $\mathdefault{10^{1}}$ -->
      <g style="fill: #262626" transform="translate(36.642548 155.315225) scale(0.11 -0.11)">
       <use xlink:href="#DejaVuSans-31" transform="translate(0 0.684375)"/>
       <use xlink:href="#DejaVuSans-30" transform="translate(63.623047 0.684375)"/>
       <use xlink:href="#DejaVuSans-31" transform="translate(128.203125 38.965625) scale(0.7)"/>
      </g>
     </g>
    </g>
    <g id="ytick_5">
     <g id="line2d_9">
      <path d="M 65.502548 80.883324 
L 553.235614 80.883324 
" clip-path="url(#pcb6eb22818)" style="fill: none; stroke: #cccccc; stroke-linecap: round"/>
     </g>
     <g id="text_10">
      <!-- $\mathdefault{10^{2}}$ -->
      <g style="fill: #262626" transform="translate(36.642548 85.062465) scale(0.11 -0.11)">
       <use xlink:href="#DejaVuSans-31" transform="translate(0 0.765625)"/>
       <use xlink:href="#DejaVuSans-30" transform="translate(63.623047 0.765625)"/>
       <use xlink:href="#DejaVuSans-32" transform="translate(128.203125 39.046875) scale(0.7)"/>
      </g>
     </g>
    </g>
    <g id="ytick_6"/>
    <g id="ytick_7"/>
    <g id="ytick_8"/>
    <g id="ytick_9"/>
    <g id="ytick_10"/>
    <g id="ytick_11"/>
    <g id="ytick_12"/>
    <g id="ytick_13"/>
    <g id="ytick_14"/>
    <g id="ytick_15"/>
    <g id="ytick_16"/>
    <g id="ytick_17"/>
    <g id="ytick_18"/>
    <g id="ytick_19"/>
    <g id="ytick_20"/>
    <g id="ytick_21"/>
    <g id="ytick_22"/>
    <g id="ytick_23"/>
    <g id="ytick_24"/>
    <g id="ytick_25"/>
    <g id="ytick_26"/>
    <g id="ytick_27"/>
    <g id="ytick_28"/>
    <g id="ytick_29"/>
    <g id="ytick_30"/>
    <g id="ytick_31"/>
    <g id="ytick_32"/>
    <g id="ytick_33"/>
    <g id="ytick_34"/>
    <g id="ytick_35"/>
    <g id="ytick_36"/>
    <g id="ytick_37"/>
    <g id="ytick_38"/>
    <g id="ytick_39"/>
    <g id="ytick_40"/>
    <g id="ytick_41"/>
    <g id="ytick_42"/>
    <g id="ytick_43"/>
    <g id="ytick_44"/>
    <g id="ytick_45"/>
    <g id="text_11">
     <!-- $\Delta\omega$ -->
     <g style="fill: #262626" transform="translate(23.656923 213.258) rotate(-90) scale(0.12 -0.12)">
      <defs>
       <path id="DejaVuSans-394" d="M 2188 4044 
L 906 525 
L 3472 525 
L 2188 4044 
z
M 50 0 
L 1831 4666 
L 2547 4666 
L 4325 0 
L 50 0 
z
" transform="scale(0.015625)"/>
       <path id="DejaVuSans-Oblique-3c9" d="M 1369 -91 
Q 72 -91 434 1766 
Q 575 2500 1256 3500 
L 1875 3500 
Q 1231 2500 1088 1750 
Q 819 397 1519 397 
Q 2166 397 2478 2078 
L 3009 2078 
Q 2669 388 3316 397 
Q 4013 403 4275 1750 
Q 4419 2500 4169 3500 
L 4788 3500 
Q 5075 2500 4934 1766 
Q 4578 -94 3278 -91 
Q 2428 -88 2503 844 
Q 2194 -91 1369 -91 
z
" transform="scale(0.015625)"/>
      </defs>
      <use xlink:href="#DejaVuSans-394" transform="translate(0 0.09375)"/>
      <use xlink:href="#DejaVuSans-Oblique-3c9" transform="translate(68.408203 0.09375)"/>
     </g>
    </g>
   </g>
   <g id="line2d_10">
    <path d="M 65.502548 151.136084 
L 553.235614 361.894364 
L 553.235614 361.894364 
" clip-path="url(#pcb6eb22818)" style="fill: none; stroke-dasharray: 5.55,2.4; stroke-dashoffset: 0; stroke: #000000; stroke-width: 1.5"/>
   </g>
   <g id="line2d_11">
    <path d="M 65.502548 140.495084 
L 82.658988 149.634482 
L 99.815427 158.548632 
L 119.422787 168.472757 
L 139.030146 178.131051 
L 158.637506 187.549772 
L 180.695785 197.890094 
L 202.754065 207.985619 
L 224.812344 217.839485 
L 241.968783 225.297133 
L 256.674303 231.446885 
L 266.477983 235.297016 
L 273.830742 237.911918 
L 278.732582 239.409416 
L 281.183502 240.037828 
L 283.634422 240.550094 
L 286.085342 240.903766 
L 288.536262 241.036471 
L 290.987182 240.85327 
L 293.438102 240.205765 
L 295.889022 238.853001 
L 298.339942 236.389758 
L 300.790862 232.091733 
L 303.241782 224.514941 
L 305.692702 209.97373 
L 308.143621 167.904403 
L 310.594541 192.958949 
L 313.045461 220.047379 
L 315.496381 233.159652 
L 317.947301 241.206582 
L 320.398221 246.650754 
L 322.849141 250.57518 
L 325.300061 253.545334 
L 327.750981 255.880408 
L 330.201901 257.764788 
L 332.652821 259.302944 
L 335.103741 260.546481 
L 337.554661 261.503679 
L 340.005581 262.140538 
L 342.4565 262.364687 
L 344.90742 261.99017 
L 347.35834 260.655385 
L 349.80926 257.638252 
L 352.26018 251.375571 
L 354.7111 237.769013 
L 357.16202 193.792909 
L 359.61294 223.142157 
L 362.06386 248.212433 
L 364.51478 259.47469 
L 366.9657 265.703814 
L 369.41662 269.3966 
L 371.86754 271.529443 
L 374.31846 272.42254 
L 376.76938 271.939962 
L 379.220299 269.353353 
L 381.671219 262.652831 
L 384.122139 245.499084 
L 386.573059 150.760302 
L 389.023979 249.252329 
L 391.474899 266.543545 
L 393.925819 274.10739 
L 396.376739 277.333545 
L 398.827659 277.483563 
L 401.278579 273.786114 
L 403.729499 262.095042 
L 406.180419 216.343339 
L 408.631339 249.878248 
L 411.082259 271.739517 
L 413.533178 279.294109 
L 415.984098 280.375959 
L 418.435018 274.727708 
L 423.336858 232.014199 
L 425.787778 271.364356 
L 428.238698 281.100963 
L 430.689618 280.440464 
L 433.140538 266.389455 
L 435.591458 191.398218 
L 438.042378 270.648462 
L 440.493298 281.906834 
L 442.944218 277.888738 
L 445.395138 244.622261 
L 447.846057 260.197224 
L 450.296977 280.725267 
L 452.747897 277.52551 
L 455.198817 231.50484 
L 457.649737 268.226634 
L 460.100657 280.833537 
L 462.551577 263.319971 
L 465.002497 251.021583 
L 467.453417 279.119085 
L 469.904337 265.826897 
L 472.355257 249.483314 
L 474.806177 277.710248 
L 477.257097 252.959285 
L 479.708017 264.470909 
L 482.158936 272.771284 
L 484.609856 213.785213 
L 487.060776 273.383435 
L 489.511696 234.123191 
L 491.962616 268.55536 
L 494.413536 248.536407 
L 496.864456 264.087713 
L 499.315376 246.719616 
L 501.766296 262.815245 
L 504.217216 229.347288 
L 506.668136 262.62496 
L 509.119056 198.553336 
L 511.569976 256.145774 
L 514.020896 248.297981 
L 516.471816 216.036667 
L 518.922735 252.258591 
L 521.373655 242.25922 
L 523.824575 151.534457 
L 526.275495 237.483519 
L 528.726415 243.4642 
L 531.177335 233.544638 
L 533.628255 205.541949 
L 536.079175 167.838915 
L 538.530095 208.240632 
L 540.981015 216.841472 
L 543.431935 218.075393 
L 545.882855 215.874833 
L 548.333775 211.223809 
L 550.784695 203.348313 
L 553.235614 188.542248 
L 553.235614 188.542248 
" clip-path="url(#pcb6eb22818)" style="fill: none; stroke: #ff0000; stroke-width: 1.5; stroke-linecap: round"/>
   </g>
   <g id="line2d_12">
    <path d="M 65.502548 144.905936 
L 85.109908 154.656355 
L 107.168187 165.342475 
L 129.226467 175.770977 
L 153.735666 187.106072 
L 180.695785 199.326963 
L 210.106824 212.416103 
L 237.066944 224.195622 
L 256.674303 232.552713 
L 268.928903 237.556398 
L 276.281662 240.354235 
L 281.183502 242.035986 
L 286.085342 243.427838 
L 288.536262 243.933571 
L 290.987182 244.229772 
L 293.438102 244.20188 
L 295.889022 243.6512 
L 298.339942 242.213011 
L 300.790862 239.174438 
L 303.241782 233.010278 
L 305.692702 219.766647 
L 308.143621 178.431144 
L 310.594541 203.306296 
L 313.045461 229.412099 
L 315.496381 241.184699 
L 317.947301 247.925426 
L 320.398221 252.275477 
L 322.849141 255.350605 
L 325.300061 257.690178 
L 327.750981 259.574321 
L 330.201901 261.153857 
L 332.652821 262.510339 
L 335.103741 263.682928 
L 337.554661 264.679384 
L 340.005581 265.47718 
L 342.4565 266.011292 
L 344.90742 266.144756 
L 347.35834 265.590592 
L 349.80926 263.721074 
L 352.26018 259.018797 
L 354.7111 247.15567 
L 357.16202 204.304319 
L 359.61294 233.310172 
L 362.06386 256.91669 
L 364.51478 266.589129 
L 366.9657 271.61779 
L 369.41662 274.571967 
L 371.86754 276.376879 
L 374.31846 277.321734 
L 376.76938 277.301634 
L 379.220299 275.684015 
L 381.671219 270.536324 
L 384.122139 255.207143 
L 386.573059 161.330608 
L 389.023979 258.865714 
L 391.474899 274.482582 
L 393.925819 280.81088 
L 396.376739 283.524886 
L 398.827659 283.89637 
L 401.278579 281.206674 
L 403.729499 271.22178 
L 406.180419 226.836491 
L 408.631339 259.873953 
L 411.082259 280.156218 
L 413.533178 286.677054 
L 415.984098 287.75412 
L 418.435018 283.166437 
L 423.336858 242.555988 
L 425.787778 280.518741 
L 428.238698 289.24555 
L 430.689618 288.827054 
L 433.140538 276.116014 
L 435.591458 201.984789 
L 438.042378 280.248696 
L 440.493298 290.634267 
L 442.944218 287.117355 
L 445.395138 255.155291 
L 447.846057 270.310282 
L 450.296977 289.990559 
L 452.747897 287.082412 
L 455.198817 241.86786 
L 457.649737 278.36015 
L 460.100657 290.39541 
L 462.551577 273.587849 
L 465.002497 261.446877 
L 467.453417 288.95089 
L 469.904337 276.104886 
L 472.355257 259.974804 
L 474.806177 287.731691 
L 477.257097 263.436974 
L 479.708017 274.837744 
L 482.158936 283.020011 
L 484.609856 224.321672 
L 487.060776 283.660734 
L 489.511696 244.690363 
L 491.962616 278.938674 
L 494.413536 259.066148 
L 496.864456 274.539958 
L 499.315376 257.249585 
L 501.766296 273.287761 
L 504.217216 239.899481 
L 506.668136 273.109902 
L 509.119056 209.13989 
L 511.569976 266.665253 
L 514.020896 258.842047 
L 516.471816 226.591992 
L 518.922735 262.795666 
L 521.373655 252.8146 
L 523.824575 162.037144 
L 526.275495 248.038952 
L 528.726415 254.017984 
L 531.177335 244.106941 
L 533.628255 216.114501 
L 536.079175 178.373934 
L 538.530095 218.798774 
L 540.981015 227.40085 
L 543.431935 228.63491 
L 545.882855 226.434453 
L 548.333775 221.782977 
L 550.784695 213.939429 
L 553.235614 199.130032 
L 553.235614 199.130032 
" clip-path="url(#pcb6eb22818)" style="fill: none; stroke: #0000ff; stroke-width: 1.5; stroke-linecap: round"/>
   </g>
   <g id="line2d_13">
    <path d="M 65.502548 137.048459 
L 82.658988 146.552847 
L 99.815427 155.824141 
L 116.971867 164.867091 
L 134.128306 173.678698 
L 153.735666 183.47879 
L 173.343025 193.005933 
L 192.950385 202.274612 
L 212.557744 211.288079 
L 229.714184 218.941241 
L 244.419703 225.264543 
L 254.223383 229.286515 
L 261.576143 232.132138 
L 268.928903 234.730679 
L 273.830742 236.237037 
L 278.732582 237.44508 
L 281.183502 237.882247 
L 283.634422 238.161894 
L 286.085342 238.231713 
L 288.536262 238.016923 
L 290.987182 237.408677 
L 293.438102 236.243262 
L 295.889022 234.269657 
L 298.339942 231.084945 
L 300.790862 225.993642 
L 303.241782 217.627785 
L 305.692702 202.429962 
L 308.143621 159.991616 
L 310.594541 185.048623 
L 313.045461 212.500204 
L 315.496381 226.204884 
L 317.947301 234.928457 
L 320.398221 241.021574 
L 322.849141 245.506442 
L 325.300061 248.926527 
L 327.750981 251.597471 
L 330.201901 253.707903 
L 332.652821 255.367015 
L 335.103741 256.626186 
L 337.554661 257.488329 
L 340.005581 257.904816 
L 342.4565 257.759662 
L 344.90742 256.833047 
L 347.35834 254.726591 
L 349.80926 250.698822 
L 352.26018 243.244115 
L 354.7111 228.483939 
L 357.16202 183.782951 
L 359.61294 213.138474 
L 362.06386 238.851933 
L 364.51478 250.995337 
L 366.9657 258.001798 
L 369.41662 262.197646 
L 371.86754 264.496808 
L 374.31846 265.184527 
L 376.76938 264.083588 
L 379.220299 260.431415 
L 381.671219 252.284321 
L 384.122139 233.674211 
L 386.573059 138.107131 
L 389.023979 236.934736 
L 391.474899 255.111462 
L 393.925819 263.431578 
L 396.376739 266.864675 
L 398.827659 266.501103 
L 401.278579 261.544552 
L 403.729499 248.124699 
L 406.180419 201.053171 
L 408.631339 234.46256 
L 411.082259 257.093788 
L 413.533178 265.14383 
L 415.984098 265.777194 
L 418.435018 258.648304 
L 420.885938 235.057782 
L 423.336858 213.198629 
L 425.787778 252.983601 
L 428.238698 263.028348 
L 430.689618 261.488897 
L 433.140538 245.540739 
L 435.591458 169.072169 
L 438.042378 242.889986 
L 440.493298 259.652117 
L 442.944218 254.300336 
L 445.395138 219.070613 
L 447.846057 233.880905 
L 450.296977 254.281536 
L 452.747897 249.738001 
L 455.198817 201.746749 
L 457.649737 237.694032 
L 460.100657 249.60474 
L 462.551577 230.145883 
L 465.002497 216.349233 
L 467.453417 243.646955 
L 469.904337 228.466772 
L 472.355257 210.412207 
L 474.806177 237.498945 
L 477.257097 210.656103 
L 479.708017 220.533131 
L 482.158936 227.155441 
L 484.609856 165.967331 
L 487.060776 223.907577 
L 489.511696 182.345622 
L 491.962616 214.822208 
L 494.413536 192.465274 
L 496.864456 205.784284 
L 499.315376 185.971298 
L 501.766296 199.64565 
L 504.217216 163.552702 
L 506.668136 194.225093 
L 509.119056 127.262688 
L 511.569976 182.09733 
L 514.020896 171.252989 
L 516.471816 135.924722 
L 518.922735 168.9659 
L 521.373655 155.640516 
L 523.824575 61.436841 
L 526.275495 143.889559 
L 528.726415 146.194013 
L 531.177335 132.46135 
L 533.628255 100.524671 
L 536.079175 58.532818 
L 538.530095 94.820508 
L 540.981015 99.046947 
L 543.431935 95.742923 
L 545.882855 88.846844 
L 548.333775 79.329473 
L 550.784695 66.359086 
L 553.235614 46.261636 
L 553.235614 46.261636 
" clip-path="url(#pcb6eb22818)" style="fill: none; stroke: #800080; stroke-width: 1.5; stroke-linecap: round"/>
   </g>
   <g id="line2d_14">
    <path d="M 65.502548 151.136084 
L 553.235614 361.894364 
L 553.235614 361.894364 
" clip-path="url(#pcb6eb22818)" style="fill: none; stroke-dasharray: 1.5,2.475; stroke-dashoffset: 0; stroke: #1a1a1a; stroke-opacity: 0.5; stroke-width: 1.5"/>
   </g>
   <g id="patch_3">
    <path d="M 65.502548 377.676 
L 65.502548 30.48 
" style="fill: none; stroke: #cccccc; stroke-width: 1.25; stroke-linejoin: miter; stroke-linecap: square"/>
   </g>
   <g id="patch_4">
    <path d="M 553.235614 377.676 
L 553.235614 30.48 
" style="fill: none; stroke: #cccccc; stroke-width: 1.25; stroke-linejoin: miter; stroke-linecap: square"/>
   </g>
   <g id="patch_5">
    <path d="M 65.502548 377.676 
L 553.235614 377.676 
" style="fill: none; stroke: #cccccc; stroke-width: 1.25; stroke-linejoin: miter; stroke-linecap: square"/>
   </g>
   <g id="patch_6">
    <path d="M 65.502548 30.48 
L 553.235614 30.48 
" style="fill: none; stroke: #cccccc; stroke-width: 1.25; stroke-linejoin: miter; stroke-linecap: square"/>
   </g>
   <g id="text_12">
    <!-- Holding-Time Degradation ($\gamma = 0.1$) -->
    <g style="fill: #262626" transform="translate(203.169081 24.48) scale(0.12 -0.12)">
     <defs>
      <path id="DejaVuSans-48" d="M 628 4666 
L 1259 4666 
L 1259 2753 
L 3553 2753 
L 3553 4666 
L 4184 4666 
L 4184 0 
L 3553 0 
L 3553 2222 
L 1259 2222 
L 1259 0 
L 628 0 
L 628 4666 
z
" transform="scale(0.015625)"/>
      <path id="DejaVuSans-69" d="M 603 3500 
L 1178 3500 
L 1178 0 
L 603 0 
L 603 3500 
z
M 603 4863 
L 1178 4863 
L 1178 4134 
L 603 4134 
L 603 4863 
z
" transform="scale(0.015625)"/>
      <path id="DejaVuSans-6e" d="M 3513 2113 
L 3513 0 
L 2938 0 
L 2938 2094 
Q 2938 2591 2744 2837 
Q 2550 3084 2163 3084 
Q 1697 3084 1428 2787 
Q 1159 2491 1159 1978 
L 1159 0 
L 581 0 
L 581 3500 
L 1159 3500 
L 1159 2956 
Q 1366 3272 1645 3428 
Q 1925 3584 2291 3584 
Q 2894 3584 3203 3211 
Q 3513 2838 3513 2113 
z
" transform="scale(0.015625)"/>
      <path id="DejaVuSans-67" d="M 2906 1791 
Q 2906 2416 2648 2759 
Q 2391 3103 1925 3103 
Q 1463 3103 1205 2759 
Q 947 2416 947 1791 
Q 947 1169 1205 825 
Q 1463 481 1925 481 
Q 2391 481 2648 825 
Q 2906 1169 2906 1791 
z
M 3481 434 
Q 3481 -459 3084 -895 
Q 2688 -1331 1869 -1331 
Q 1566 -1331 1297 -1286 
Q 1028 -1241 775 -1147 
L 775 -588 
Q 1028 -725 1275 -790 
Q 1522 -856 1778 -856 
Q 2344 -856 2625 -561 
Q 2906 -266 2906 331 
L 2906 616 
Q 2728 306 2450 153 
Q 2172 0 1784 0 
Q 1141 0 747 490 
Q 353 981 353 1791 
Q 353 2603 747 3093 
Q 1141 3584 1784 3584 
Q 2172 3584 2450 3431 
Q 2728 3278 2906 2969 
L 2906 3500 
L 3481 3500 
L 3481 434 
z
" transform="scale(0.015625)"/>
      <path id="DejaVuSans-2d" d="M 313 2009 
L 1997 2009 
L 1997 1497 
L 313 1497 
L 313 2009 
z
" transform="scale(0.015625)"/>
      <path id="DejaVuSans-54" d="M -19 4666 
L 3928 4666 
L 3928 4134 
L 2272 4134 
L 2272 0 
L 1638 0 
L 1638 4134 
L -19 4134 
L -19 4666 
z
" transform="scale(0.015625)"/>
      <path id="DejaVuSans-6d" d="M 3328 2828 
Q 3544 3216 3844 3400 
Q 4144 3584 4550 3584 
Q 5097 3584 5394 3201 
Q 5691 2819 5691 2113 
L 5691 0 
L 5113 0 
L 5113 2094 
Q 5113 2597 4934 2840 
Q 4756 3084 4391 3084 
Q 3944 3084 3684 2787 
Q 3425 2491 3425 1978 
L 3425 0 
L 2847 0 
L 2847 2094 
Q 2847 2600 2669 2842 
Q 2491 3084 2119 3084 
Q 1678 3084 1418 2786 
Q 1159 2488 1159 1978 
L 1159 0 
L 581 0 
L 581 3500 
L 1159 3500 
L 1159 2956 
Q 1356 3278 1631 3431 
Q 1906 3584 2284 3584 
Q 2666 3584 2933 3390 
Q 3200 3197 3328 2828 
z
" transform="scale(0.015625)"/>
      <path id="DejaVuSans-65" d="M 3597 1894 
L 3597 1613 
L 953 1613 
Q 991 1019 1311 708 
Q 1631 397 2203 397 
Q 2534 397 2845 478 
Q 3156 559 3463 722 
L 3463 178 
Q 3153 47 2828 -22 
Q 2503 -91 2169 -91 
Q 1331 -91 842 396 
Q 353 884 353 1716 
Q 353 2575 817 3079 
Q 1281 3584 2069 3584 
Q 2775 3584 3186 3129 
Q 3597 2675 3597 1894 
z
M 3022 2063 
Q 3016 2534 2758 2815 
Q 2500 3097 2075 3097 
Q 1594 3097 1305 2825 
Q 1016 2553 972 2059 
L 3022 2063 
z
" transform="scale(0.015625)"/>
      <path id="DejaVuSans-20" transform="scale(0.015625)"/>
      <path id="DejaVuSans-44" d="M 1259 4147 
L 1259 519 
L 2022 519 
Q 2988 519 3436 956 
Q 3884 1394 3884 2338 
Q 3884 3275 3436 3711 
Q 2988 4147 2022 4147 
L 1259 4147 
z
M 628 4666 
L 1925 4666 
Q 3281 4666 3915 4102 
Q 4550 3538 4550 2338 
Q 4550 1131 3912 565 
Q 3275 0 1925 0 
L 628 0 
L 628 4666 
z
" transform="scale(0.015625)"/>
      <path id="DejaVuSans-72" d="M 2631 2963 
Q 2534 3019 2420 3045 
Q 2306 3072 2169 3072 
Q 1681 3072 1420 2755 
Q 1159 2438 1159 1844 
L 1159 0 
L 581 0 
L 581 3500 
L 1159 3500 
L 1159 2956 
Q 1341 3275 1631 3429 
Q 1922 3584 2338 3584 
Q 2397 3584 2469 3576 
Q 2541 3569 2628 3553 
L 2631 2963 
z
" transform="scale(0.015625)"/>
      <path id="DejaVuSans-61" d="M 2194 1759 
Q 1497 1759 1228 1600 
Q 959 1441 959 1056 
Q 959 750 1161 570 
Q 1363 391 1709 391 
Q 2188 391 2477 730 
Q 2766 1069 2766 1631 
L 2766 1759 
L 2194 1759 
z
M 3341 1997 
L 3341 0 
L 2766 0 
L 2766 531 
Q 2569 213 2275 61 
Q 1981 -91 1556 -91 
Q 1019 -91 701 211 
Q 384 513 384 1019 
Q 384 1609 779 1909 
Q 1175 2209 1959 2209 
L 2766 2209 
L 2766 2266 
Q 2766 2663 2505 2880 
Q 2244 3097 1772 3097 
Q 1472 3097 1187 3025 
Q 903 2953 641 2809 
L 641 3341 
Q 956 3463 1253 3523 
Q 1550 3584 1831 3584 
Q 2591 3584 2966 3190 
Q 3341 2797 3341 1997 
z
" transform="scale(0.015625)"/>
      <path id="DejaVuSans-74" d="M 1172 4494 
L 1172 3500 
L 2356 3500 
L 2356 3053 
L 1172 3053 
L 1172 1153 
Q 1172 725 1289 603 
Q 1406 481 1766 481 
L 2356 481 
L 2356 0 
L 1766 0 
Q 1100 0 847 248 
Q 594 497 594 1153 
L 594 3053 
L 172 3053 
L 172 3500 
L 594 3500 
L 594 4494 
L 1172 4494 
z
" transform="scale(0.015625)"/>
      <path id="DejaVuSans-28" d="M 1984 4856 
Q 1566 4138 1362 3434 
Q 1159 2731 1159 2009 
Q 1159 1288 1364 580 
Q 1569 -128 1984 -844 
L 1484 -844 
Q 1016 -109 783 600 
Q 550 1309 550 2009 
Q 550 2706 781 3412 
Q 1013 4119 1484 4856 
L 1984 4856 
z
" transform="scale(0.015625)"/>
      <path id="DejaVuSans-Oblique-3b3" d="M 1491 2950 
L 1838 788 
L 3456 3500 
L 4066 3500 
L 1972 0 
L 1713 -1331 
L 1138 -1331 
L 1397 0 
L 988 2613 
Q 925 3006 628 3006 
L 475 3006 
L 569 3500 
L 788 3500 
Q 1403 3500 1491 2950 
z
" transform="scale(0.015625)"/>
      <path id="DejaVuSans-3d" d="M 678 2906 
L 4684 2906 
L 4684 2381 
L 678 2381 
L 678 2906 
z
M 678 1631 
L 4684 1631 
L 4684 1100 
L 678 1100 
L 678 1631 
z
" transform="scale(0.015625)"/>
      <path id="DejaVuSans-2e" d="M 684 794 
L 1344 794 
L 1344 0 
L 684 0 
L 684 794 
z
" transform="scale(0.015625)"/>
      <path id="DejaVuSans-29" d="M 513 4856 
L 1013 4856 
Q 1481 4119 1714 3412 
Q 1947 2706 1947 2009 
Q 1947 1309 1714 600 
Q 1481 -109 1013 -844 
L 513 -844 
Q 928 -128 1133 580 
Q 1338 1288 1338 2009 
Q 1338 2731 1133 3434 
Q 928 4138 513 4856 
z
" transform="scale(0.015625)"/>
     </defs>
     <use xlink:href="#DejaVuSans-48" transform="translate(0 0.015625)"/>
     <use xlink:href="#DejaVuSans-6f" transform="translate(75.195312 0.015625)"/>
     <use xlink:href="#DejaVuSans-6c" transform="translate(136.376953 0.015625)"/>
     <use xlink:href="#DejaVuSans-64" transform="translate(164.160156 0.015625)"/>
     <use xlink:href="#DejaVuSans-69" transform="translate(227.636719 0.015625)"/>
     <use xlink:href="#DejaVuSans-6e" transform="translate(255.419922 0.015625)"/>
     <use xlink:href="#DejaVuSans-67" transform="translate(318.798828 0.015625)"/>
     <use xlink:href="#DejaVuSans-2d" transform="translate(382.275391 0.015625)"/>
     <use xlink:href="#DejaVuSans-54" transform="translate(418.359375 0.015625)"/>
     <use xlink:href="#DejaVuSans-69" transform="translate(479.443359 0.015625)"/>
     <use xlink:href="#DejaVuSans-6d" transform="translate(507.226562 0.015625)"/>
     <use xlink:href="#DejaVuSans-65" transform="translate(604.638672 0.015625)"/>
     <use xlink:href="#DejaVuSans-20" transform="translate(666.162109 0.015625)"/>
     <use xlink:href="#DejaVuSans-44" transform="translate(697.949219 0.015625)"/>
     <use xlink:href="#DejaVuSans-65" transform="translate(774.951172 0.015625)"/>
     <use xlink:href="#DejaVuSans-67" transform="translate(836.474609 0.015625)"/>
     <use xlink:href="#DejaVuSans-72" transform="translate(899.951172 0.015625)"/>
     <use xlink:href="#DejaVuSans-61" transform="translate(941.064453 0.015625)"/>
     <use xlink:href="#DejaVuSans-64" transform="translate(1002.34375 0.015625)"/>
     <use xlink:href="#DejaVuSans-61" transform="translate(1065.820312 0.015625)"/>
     <use xlink:href="#DejaVuSans-74" transform="translate(1127.099609 0.015625)"/>
     <use xlink:href="#DejaVuSans-69" transform="translate(1166.308594 0.015625)"/>
     <use xlink:href="#DejaVuSans-6f" transform="translate(1194.091797 0.015625)"/>
     <use xlink:href="#DejaVuSans-6e" transform="translate(1255.273438 0.015625)"/>
     <use xlink:href="#DejaVuSans-20" transform="translate(1318.652344 0.015625)"/>
     <use xlink:href="#DejaVuSans-28" transform="translate(1350.439453 0.015625)"/>
     <use xlink:href="#DejaVuSans-Oblique-3b3" transform="translate(1389.453125 0.015625)"/>
     <use xlink:href="#DejaVuSans-3d" transform="translate(1468.115234 0.015625)"/>
     <use xlink:href="#DejaVuSans-30" transform="translate(1571.386719 0.015625)"/>
     <use xlink:href="#DejaVuSans-2e" transform="translate(1635.009766 0.015625)"/>
     <use xlink:href="#DejaVuSans-31" transform="translate(1666.796875 0.015625)"/>
     <use xlink:href="#DejaVuSans-29" transform="translate(1730.419922 0.015625)"/>
    </g>
   </g>
   <g id="legend_1">
    <g id="patch_7">
     <path d="M 73.202548 121.157812 
L 222.142548 121.157812 
Q 224.342548 121.157812 224.342548 118.957812 
L 224.342548 38.18 
Q 224.342548 35.98 222.142548 35.98 
L 73.202548 35.98 
Q 71.002548 35.98 71.002548 38.18 
L 71.002548 118.957812 
Q 71.002548 121.157812 73.202548 121.157812 
z
" style="fill: #ffffff; opacity: 0.8; stroke: #cccccc; stroke-linejoin: miter"/>
    </g>
    <g id="line2d_15">
     <path d="M 75.402548 44.888281 
L 86.402548 44.888281 
L 97.402548 44.888281 
" style="fill: none; stroke-dasharray: 5.55,2.4; stroke-dashoffset: 0; stroke: #000000; stroke-width: 1.5"/>
    </g>
    <g id="text_13">
     <!-- Clean (SQL) -->
     <g style="fill: #262626" transform="translate(106.202548 48.738281) scale(0.11 -0.11)">
      <defs>
       <path id="DejaVuSans-43" d="M 4122 4306 
L 4122 3641 
Q 3803 3938 3442 4084 
Q 3081 4231 2675 4231 
Q 1875 4231 1450 3742 
Q 1025 3253 1025 2328 
Q 1025 1406 1450 917 
Q 1875 428 2675 428 
Q 3081 428 3442 575 
Q 3803 722 4122 1019 
L 4122 359 
Q 3791 134 3420 21 
Q 3050 -91 2638 -91 
Q 1578 -91 968 557 
Q 359 1206 359 2328 
Q 359 3453 968 4101 
Q 1578 4750 2638 4750 
Q 3056 4750 3426 4639 
Q 3797 4528 4122 4306 
z
" transform="scale(0.015625)"/>
       <path id="DejaVuSans-53" d="M 3425 4513 
L 3425 3897 
Q 3066 4069 2747 4153 
Q 2428 4238 2131 4238 
Q 1616 4238 1336 4038 
Q 1056 3838 1056 3469 
Q 1056 3159 1242 3001 
Q 1428 2844 1947 2747 
L 2328 2669 
Q 3034 2534 3370 2195 
Q 3706 1856 3706 1288 
Q 3706 609 3251 259 
Q 2797 -91 1919 -91 
Q 1588 -91 1214 -16 
Q 841 59 441 206 
L 441 856 
Q 825 641 1194 531 
Q 1563 422 1919 422 
Q 2459 422 2753 634 
Q 3047 847 3047 1241 
Q 3047 1584 2836 1778 
Q 2625 1972 2144 2069 
L 1759 2144 
Q 1053 2284 737 2584 
Q 422 2884 422 3419 
Q 422 4038 858 4394 
Q 1294 4750 2059 4750 
Q 2388 4750 2728 4690 
Q 3069 4631 3425 4513 
z
" transform="scale(0.015625)"/>
       <path id="DejaVuSans-51" d="M 2522 4238 
Q 1834 4238 1429 3725 
Q 1025 3213 1025 2328 
Q 1025 1447 1429 934 
Q 1834 422 2522 422 
Q 3209 422 3611 934 
Q 4013 1447 4013 2328 
Q 4013 3213 3611 3725 
Q 3209 4238 2522 4238 
z
M 3406 84 
L 4238 -825 
L 3475 -825 
L 2784 -78 
Q 2681 -84 2626 -87 
Q 2572 -91 2522 -91 
Q 1538 -91 948 567 
Q 359 1225 359 2328 
Q 359 3434 948 4092 
Q 1538 4750 2522 4750 
Q 3503 4750 4090 4092 
Q 4678 3434 4678 2328 
Q 4678 1516 4351 937 
Q 4025 359 3406 84 
z
" transform="scale(0.015625)"/>
       <path id="DejaVuSans-4c" d="M 628 4666 
L 1259 4666 
L 1259 531 
L 3531 531 
L 3531 0 
L 628 0 
L 628 4666 
z
" transform="scale(0.015625)"/>
      </defs>
      <use xlink:href="#DejaVuSans-43"/>
      <use xlink:href="#DejaVuSans-6c" transform="translate(69.824219 0)"/>
      <use xlink:href="#DejaVuSans-65" transform="translate(97.607422 0)"/>
      <use xlink:href="#DejaVuSans-61" transform="translate(159.130859 0)"/>
      <use xlink:href="#DejaVuSans-6e" transform="translate(220.410156 0)"/>
      <use xlink:href="#DejaVuSans-20" transform="translate(283.789062 0)"/>
      <use xlink:href="#DejaVuSans-28" transform="translate(315.576172 0)"/>
      <use xlink:href="#DejaVuSans-53" transform="translate(354.589844 0)"/>
      <use xlink:href="#DejaVuSans-51" transform="translate(418.066406 0)"/>
      <use xlink:href="#DejaVuSans-4c" transform="translate(496.777344 0)"/>
      <use xlink:href="#DejaVuSans-29" transform="translate(552.490234 0)"/>
     </g>
    </g>
    <g id="line2d_16">
     <path d="M 75.402548 61.035938 
L 86.402548 61.035938 
L 97.402548 61.035938 
" style="fill: none; stroke: #ff0000; stroke-width: 1.5; stroke-linecap: round"/>
    </g>
    <g id="text_14">
     <!-- Dephasing ($\gamma_\phi=0.1$) -->
     <g style="fill: #262626" transform="translate(106.202548 64.885938) scale(0.11 -0.11)">
      <defs>
       <path id="DejaVuSans-70" d="M 1159 525 
L 1159 -1331 
L 581 -1331 
L 581 3500 
L 1159 3500 
L 1159 2969 
Q 1341 3281 1617 3432 
Q 1894 3584 2278 3584 
Q 2916 3584 3314 3078 
Q 3713 2572 3713 1747 
Q 3713 922 3314 415 
Q 2916 -91 2278 -91 
Q 1894 -91 1617 61 
Q 1341 213 1159 525 
z
M 3116 1747 
Q 3116 2381 2855 2742 
Q 2594 3103 2138 3103 
Q 1681 3103 1420 2742 
Q 1159 2381 1159 1747 
Q 1159 1113 1420 752 
Q 1681 391 2138 391 
Q 2594 391 2855 752 
Q 3116 1113 3116 1747 
z
" transform="scale(0.015625)"/>
       <path id="DejaVuSans-73" d="M 2834 3397 
L 2834 2853 
Q 2591 2978 2328 3040 
Q 2066 3103 1784 3103 
Q 1356 3103 1142 2972 
Q 928 2841 928 2578 
Q 928 2378 1081 2264 
Q 1234 2150 1697 2047 
L 1894 2003 
Q 2506 1872 2764 1633 
Q 3022 1394 3022 966 
Q 3022 478 2636 193 
Q 2250 -91 1575 -91 
Q 1294 -91 989 -36 
Q 684 19 347 128 
L 347 722 
Q 666 556 975 473 
Q 1284 391 1588 391 
Q 1994 391 2212 530 
Q 2431 669 2431 922 
Q 2431 1156 2273 1281 
Q 2116 1406 1581 1522 
L 1381 1569 
Q 847 1681 609 1914 
Q 372 2147 372 2553 
Q 372 3047 722 3315 
Q 1072 3584 1716 3584 
Q 2034 3584 2315 3537 
Q 2597 3491 2834 3397 
z
" transform="scale(0.015625)"/>
       <path id="DejaVuSans-Oblique-3d5" d="M 2991 4863 
L 2738 3572 
Q 3363 3572 3684 3094 
Q 4016 2606 3850 1747 
Q 3681 888 3159 400 
Q 2653 -78 2028 -78 
L 1784 -1331 
L 1213 -1331 
L 1456 -78 
Q 834 -78 509 400 
Q 178 888 347 1747 
Q 513 2606 1034 3094 
Q 1544 3572 2166 3572 
L 2419 4863 
L 2991 4863 
z
M 2128 434 
Q 2481 434 2784 756 
Q 3116 1116 3244 1747 
Q 3369 2372 3169 2738 
Q 2991 3059 2638 3059 
L 2128 434 
z
M 1556 434 
L 2066 3059 
Q 1716 3059 1413 2738 
Q 1072 2372 953 1747 
Q 834 1116 1028 756 
Q 1203 434 1556 434 
z
" transform="scale(0.015625)"/>
      </defs>
      <use xlink:href="#DejaVuSans-44" transform="translate(0 0.015625)"/>
      <use xlink:href="#DejaVuSans-65" transform="translate(77.001953 0.015625)"/>
      <use xlink:href="#DejaVuSans-70" transform="translate(138.525391 0.015625)"/>
      <use xlink:href="#DejaVuSans-68" transform="translate(202.001953 0.015625)"/>
      <use xlink:href="#DejaVuSans-61" transform="translate(265.380859 0.015625)"/>
      <use xlink:href="#DejaVuSans-73" transform="translate(326.660156 0.015625)"/>
      <use xlink:href="#DejaVuSans-69" transform="translate(378.759766 0.015625)"/>
      <use xlink:href="#DejaVuSans-6e" transform="translate(406.542969 0.015625)"/>
      <use xlink:href="#DejaVuSans-67" transform="translate(469.921875 0.015625)"/>
      <use xlink:href="#DejaVuSans-20" transform="translate(533.398438 0.015625)"/>
      <use xlink:href="#DejaVuSans-28" transform="translate(565.185547 0.015625)"/>
      <use xlink:href="#DejaVuSans-Oblique-3b3" transform="translate(604.199219 0.015625)"/>
      <use xlink:href="#DejaVuSans-Oblique-3d5" transform="translate(663.378906 -16.390625) scale(0.7)"/>
      <use xlink:href="#DejaVuSans-3d" transform="translate(731.772461 0.015625)"/>
      <use xlink:href="#DejaVuSans-30" transform="translate(835.043945 0.015625)"/>
      <use xlink:href="#DejaVuSans-2e" transform="translate(898.666992 0.015625)"/>
      <use xlink:href="#DejaVuSans-31" transform="translate(930.454102 0.015625)"/>
      <use xlink:href="#DejaVuSans-29" transform="translate(994.077148 0.015625)"/>
     </g>
    </g>
    <g id="line2d_17">
     <path d="M 75.402548 78.305937 
L 86.402548 78.305937 
L 97.402548 78.305937 
" style="fill: none; stroke: #0000ff; stroke-width: 1.5; stroke-linecap: round"/>
    </g>
    <g id="text_15">
     <!-- Loss ($\gamma_1=0.1$) -->
     <g style="fill: #262626" transform="translate(106.202548 82.155937) scale(0.11 -0.11)">
      <use xlink:href="#DejaVuSans-4c" transform="translate(0 0.125)"/>
      <use xlink:href="#DejaVuSans-6f" transform="translate(55.712891 0.125)"/>
      <use xlink:href="#DejaVuSans-73" transform="translate(116.894531 0.125)"/>
      <use xlink:href="#DejaVuSans-73" transform="translate(168.994141 0.125)"/>
      <use xlink:href="#DejaVuSans-20" transform="translate(221.09375 0.125)"/>
      <use xlink:href="#DejaVuSans-28" transform="translate(252.880859 0.125)"/>
      <use xlink:href="#DejaVuSans-Oblique-3b3" transform="translate(291.894531 0.125)"/>
      <use xlink:href="#DejaVuSans-31" transform="translate(351.074219 -16.28125) scale(0.7)"/>
      <use xlink:href="#DejaVuSans-3d" transform="translate(417.827148 0.125)"/>
      <use xlink:href="#DejaVuSans-30" transform="translate(521.098633 0.125)"/>
      <use xlink:href="#DejaVuSans-2e" transform="translate(584.72168 0.125)"/>
      <use xlink:href="#DejaVuSans-31" transform="translate(616.508789 0.125)"/>
      <use xlink:href="#DejaVuSans-29" transform="translate(680.131836 0.125)"/>
     </g>
    </g>
    <g id="line2d_18">
     <path d="M 75.402548 94.474219 
L 86.402548 94.474219 
L 97.402548 94.474219 
" style="fill: none; stroke: #800080; stroke-width: 1.5; stroke-linecap: round"/>
    </g>
    <g id="text_16">
     <!-- Both -->
     <g style="fill: #262626" transform="translate(106.202548 98.324219) scale(0.11 -0.11)">
      <defs>
       <path id="DejaVuSans-42" d="M 1259 2228 
L 1259 519 
L 2272 519 
Q 2781 519 3026 730 
Q 3272 941 3272 1375 
Q 3272 1813 3026 2020 
Q 2781 2228 2272 2228 
L 1259 2228 
z
M 1259 4147 
L 1259 2741 
L 2194 2741 
Q 2656 2741 2882 2914 
Q 3109 3088 3109 3444 
Q 3109 3797 2882 3972 
Q 2656 4147 2194 4147 
L 1259 4147 
z
M 628 4666 
L 2241 4666 
Q 2963 4666 3353 4366 
Q 3744 4066 3744 3513 
Q 3744 3084 3544 2831 
Q 3344 2578 2956 2516 
Q 3422 2416 3680 2098 
Q 3938 1781 3938 1306 
Q 3938 681 3513 340 
Q 3088 0 2303 0 
L 628 0 
L 628 4666 
z
" transform="scale(0.015625)"/>
      </defs>
      <use xlink:href="#DejaVuSans-42"/>
      <use xlink:href="#DejaVuSans-6f" transform="translate(68.603516 0)"/>
      <use xlink:href="#DejaVuSans-74" transform="translate(129.785156 0)"/>
      <use xlink:href="#DejaVuSans-68" transform="translate(168.994141 0)"/>
     </g>
    </g>
    <g id="line2d_19">
     <path d="M 75.402548 110.620156 
L 86.402548 110.620156 
L 97.402548 110.620156 
" style="fill: none; stroke-dasharray: 1.5,2.475; stroke-dashoffset: 0; stroke: #1a1a1a; stroke-opacity: 0.5; stroke-width: 1.5"/>
    </g>
    <g id="text_17">
     <!-- $1/t_{\text{hold}}$ -->
     <g style="fill: #262626" transform="translate(106.202548 114.470156) scale(0.11 -0.11)">
      <defs>
       <path id="DejaVuSans-2f" d="M 1625 4666 
L 2156 4666 
L 531 -594 
L 0 -594 
L 1625 4666 
z
" transform="scale(0.015625)"/>
      </defs>
      <use xlink:href="#DejaVuSans-31" transform="translate(0 0.09375)"/>
      <use xlink:href="#DejaVuSans-2f" transform="translate(63.623047 0.09375)"/>
      <use xlink:href="#DejaVuSans-Oblique-74" transform="translate(97.314453 0.09375)"/>
      <use xlink:href="#DejaVuSans-68" transform="translate(136.523438 -16.3125) scale(0.7)"/>
      <use xlink:href="#DejaVuSans-6f" transform="translate(180.888672 -16.3125) scale(0.7)"/>
      <use xlink:href="#DejaVuSans-6c" transform="translate(223.71582 -16.3125) scale(0.7)"/>
      <use xlink:href="#DejaVuSans-64" transform="translate(243.164062 -16.3125) scale(0.7)"/>
     </g>
    </g>
   </g>
  </g>
 </g>
 <defs>
  <clipPath id="pcb6eb22818">
   <rect x="65.502548" y="30.48" width="487.733066" height="347.196"/>
  </clipPath>
 </defs>
</svg>
