<?xml version="1.0" encoding="utf-8" standalone="no"?>
<!DOCTYPE svg PUBLIC "-//W3C//DTD SVG 1.1//EN"
  "http://www.w3.org/Graphics/SVG/1.1/DTD/svg11.dtd">
<svg xmlns:xlink="http://www.w3.org/1999/xlink" width="568.006071pt" height="416.86425pt" viewBox="0 0 568.006071 416.86425" xmlns="http://www.w3.org/2000/svg" version="1.1">
 <metadata>
  <rdf:RDF xmlns:dc="http://purl.org/dc/elements/1.1/" xmlns:cc="http://creativecommons.org/ns#" xmlns:rdf="http://www.w3.org/1999/02/22-rdf-syntax-ns#">
   <cc:Work>
    <dc:type rdf:resource="http://purl.org/dc/dcmitype/StillImage"/>
    <dc:date>2026-06-27T17:25:46.570243</dc:date>
    <dc:format>image/svg+xml</dc:format>
    <dc:creator>
     <cc:Agent>
      <dc:title>Matplotlib v3.10.9, https://matplotlib.org/</dc:title>
     </cc:Agent>
    </dc:creator>
   </cc:Work>
  </rdf:RDF>
 </metadata>
 <defs>
  <style type="text/css">*{stroke-linejoin: round; stroke-linecap: butt}</style>
 </defs>
 <g id="figure_1">
  <g id="patch_1">
   <path d="M 0 416.86425 
L 568.006071 416.86425 
L 568.006071 0 
L 0 0 
z
" style="fill: #ffffff"/>
  </g>
  <g id="axes_1">
   <g id="patch_2">
    <path d="M 51.378125 379.286125 
L 560.806071 379.286125 
L 560.806071 22.318125 
L 51.378125 22.318125 
z
" style="fill: #ffffff"/>
   </g>
   <g id="matplotlib.axis_1">
    <g id="xtick_1">
     <g id="line2d_1">
      <path d="M 74.533941 379.286125 
L 74.533941 22.318125 
" clip-path="url(#p396ee4e074)" style="fill: none; stroke: #b0b0b0; stroke-opacity: 0.3; stroke-width: 0.8; stroke-linecap: square"/>
     </g>
     <g id="line2d_2">
      <defs>
       <path id="m20853d3e7a" d="M 0 0 
L 0 3.5 
" style="stroke: #000000; stroke-width: 0.8"/>
      </defs>
      <g>
       <use xlink:href="#m20853d3e7a" x="74.533941" y="379.286125" style="stroke: #000000; stroke-width: 0.8"/>
      </g>
     </g>
     <g id="text_1">
      <!-- $\mathdefault{10^{0}}$ -->
      <g transform="translate(65.733941 393.884562) scale(0.1 -0.1)">
       <defs>
        <path id="DejaVuSans-31" d="M 794 531 
L 1825 531 
L 1825 4091 
L 703 3866 
L 703 4441 
L 1819 4666 
L 2450 4666 
L 2450 531 
L 3481 531 
L 3481 0 
L 794 0 
L 794 531 
z
" transform="scale(0.015625)"/>
        <path id="DejaVuSans-30" d="M 2034 4250 
Q 1547 4250 1301 3770 
Q 1056 3291 1056 2328 
Q 1056 1369 1301 889 
Q 1547 409 2034 409 
Q 2525 409 2770 889 
Q 3016 1369 3016 2328 
Q 3016 3291 2770 3770 
Q 2525 4250 2034 4250 
z
M 2034 4750 
Q 2819 4750 3233 4129 
Q 3647 3509 3647 2328 
Q 3647 1150 3233 529 
Q 2819 -91 2034 -91 
Q 1250 -91 836 529 
Q 422 1150 422 2328 
Q 422 3509 836 4129 
Q 1250 4750 2034 4750 
z
" transform="scale(0.015625)"/>
       </defs>
       <use xlink:href="#DejaVuSans-31" transform="translate(0 0.765625)"/>
       <use xlink:href="#DejaVuSans-30" transform="translate(63.623047 0.765625)"/>
       <use xlink:href="#DejaVuSans-30" transform="translate(128.203125 39.046875) scale(0.7)"/>
      </g>
     </g>
    </g>
    <g id="xtick_2">
     <g id="line2d_3">
      <path d="M 383.27815 379.286125 
L 383.27815 22.318125 
" clip-path="url(#p396ee4e074)" style="fill: none; stroke: #b0b0b0; stroke-opacity: 0.3; stroke-width: 0.8; stroke-linecap: square"/>
     </g>
     <g id="line2d_4">
      <g>
       <use xlink:href="#m20853d3e7a" x="383.27815" y="379.286125" style="stroke: #000000; stroke-width: 0.8"/>
      </g>
     </g>
     <g id="text_2">
      <!-- $\mathdefault{10^{1}}$ -->
      <g transform="translate(374.47815 393.884562) scale(0.1 -0.1)">
       <use xlink:href="#DejaVuSans-31" transform="translate(0 0.684375)"/>
       <use xlink:href="#DejaVuSans-30" transform="translate(63.623047 0.684375)"/>
       <use xlink:href="#DejaVuSans-31" transform="translate(128.203125 38.965625) scale(0.7)"/>
      </g>
     </g>
    </g>
    <g id="xtick_3">
     <g id="line2d_5">
      <path d="M 60.40658 379.286125 
L 60.40658 22.318125 
" clip-path="url(#p396ee4e074)" style="fill: none; stroke: #b0b0b0; stroke-opacity: 0.3; stroke-width: 0.8; stroke-linecap: square"/>
     </g>
     <g id="line2d_6">
      <defs>
       <path id="m63404f2db5" d="M 0 0 
L 0 2 
" style="stroke: #000000; stroke-width: 0.6"/>
      </defs>
      <g>
       <use xlink:href="#m63404f2db5" x="60.40658" y="379.286125" style="stroke: #000000; stroke-width: 0.6"/>
      </g>
     </g>
    </g>
    <g id="xtick_4">
     <g id="line2d_7">
      <path d="M 167.475209 379.286125 
L 167.475209 22.318125 
" clip-path="url(#p396ee4e074)" style="fill: none; stroke: #b0b0b0; stroke-opacity: 0.3; stroke-width: 0.8; stroke-linecap: square"/>
     </g>
     <g id="line2d_8">
      <g>
       <use xlink:href="#m63404f2db5" x="167.475209" y="379.286125" style="stroke: #000000; stroke-width: 0.6"/>
      </g>
     </g>
    </g>
    <g id="xtick_5">
     <g id="line2d_9">
      <path d="M 221.842365 379.286125 
L 221.842365 22.318125 
" clip-path="url(#p396ee4e074)" style="fill: none; stroke: #b0b0b0; stroke-opacity: 0.3; stroke-width: 0.8; stroke-linecap: square"/>
     </g>
     <g id="line2d_10">
      <g>
       <use xlink:href="#m63404f2db5" x="221.842365" y="379.286125" style="stroke: #000000; stroke-width: 0.6"/>
      </g>
     </g>
    </g>
    <g id="xtick_6">
     <g id="line2d_11">
      <path d="M 260.416477 379.286125 
L 260.416477 22.318125 
" clip-path="url(#p396ee4e074)" style="fill: none; stroke: #b0b0b0; stroke-opacity: 0.3; stroke-width: 0.8; stroke-linecap: square"/>
     </g>
     <g id="line2d_12">
      <g>
       <use xlink:href="#m63404f2db5" x="260.416477" y="379.286125" style="stroke: #000000; stroke-width: 0.6"/>
      </g>
     </g>
    </g>
    <g id="xtick_7">
     <g id="line2d_13">
      <path d="M 290.336882 379.286125 
L 290.336882 22.318125 
" clip-path="url(#p396ee4e074)" style="fill: none; stroke: #b0b0b0; stroke-opacity: 0.3; stroke-width: 0.8; stroke-linecap: square"/>
     </g>
     <g id="line2d_14">
      <g>
       <use xlink:href="#m63404f2db5" x="290.336882" y="379.286125" style="stroke: #000000; stroke-width: 0.6"/>
      </g>
     </g>
    </g>
    <g id="xtick_8">
     <g id="line2d_15">
      <path d="M 314.783634 379.286125 
L 314.783634 22.318125 
" clip-path="url(#p396ee4e074)" style="fill: none; stroke: #b0b0b0; stroke-opacity: 0.3; stroke-width: 0.8; stroke-linecap: square"/>
     </g>
     <g id="line2d_16">
      <g>
       <use xlink:href="#m63404f2db5" x="314.783634" y="379.286125" style="stroke: #000000; stroke-width: 0.6"/>
      </g>
     </g>
    </g>
    <g id="xtick_9">
     <g id="line2d_17">
      <path d="M 335.453067 379.286125 
L 335.453067 22.318125 
" clip-path="url(#p396ee4e074)" style="fill: none; stroke: #b0b0b0; stroke-opacity: 0.3; stroke-width: 0.8; stroke-linecap: square"/>
     </g>
     <g id="line2d_18">
      <g>
       <use xlink:href="#m63404f2db5" x="335.453067" y="379.286125" style="stroke: #000000; stroke-width: 0.6"/>
      </g>
     </g>
    </g>
    <g id="xtick_10">
     <g id="line2d_19">
      <path d="M 353.357745 379.286125 
L 353.357745 22.318125 
" clip-path="url(#p396ee4e074)" style="fill: none; stroke: #b0b0b0; stroke-opacity: 0.3; stroke-width: 0.8; stroke-linecap: square"/>
     </g>
     <g id="line2d_20">
      <g>
       <use xlink:href="#m63404f2db5" x="353.357745" y="379.286125" style="stroke: #000000; stroke-width: 0.6"/>
      </g>
     </g>
    </g>
    <g id="xtick_11">
     <g id="line2d_21">
      <path d="M 369.15079 379.286125 
L 369.15079 22.318125 
" clip-path="url(#p396ee4e074)" style="fill: none; stroke: #b0b0b0; stroke-opacity: 0.3; stroke-width: 0.8; stroke-linecap: square"/>
     </g>
     <g id="line2d_22">
      <g>
       <use xlink:href="#m63404f2db5" x="369.15079" y="379.286125" style="stroke: #000000; stroke-width: 0.6"/>
      </g>
     </g>
    </g>
    <g id="xtick_12">
     <g id="line2d_23">
      <path d="M 476.219419 379.286125 
L 476.219419 22.318125 
" clip-path="url(#p396ee4e074)" style="fill: none; stroke: #b0b0b0; stroke-opacity: 0.3; stroke-width: 0.8; stroke-linecap: square"/>
     </g>
     <g id="line2d_24">
      <g>
       <use xlink:href="#m63404f2db5" x="476.219419" y="379.286125" style="stroke: #000000; stroke-width: 0.6"/>
      </g>
     </g>
    </g>
    <g id="xtick_13">
     <g id="line2d_25">
      <path d="M 530.586575 379.286125 
L 530.586575 22.318125 
" clip-path="url(#p396ee4e074)" style="fill: none; stroke: #b0b0b0; stroke-opacity: 0.3; stroke-width: 0.8; stroke-linecap: square"/>
     </g>
     <g id="line2d_26">
      <g>
       <use xlink:href="#m63404f2db5" x="530.586575" y="379.286125" style="stroke: #000000; stroke-width: 0.6"/>
      </g>
     </g>
    </g>
    <g id="text_3">
     <!-- Mean photon number $\langle N \rangle$ -->
     <g transform="translate(242.942098 407.56425) scale(0.1 -0.1)">
      <defs>
       <path id="DejaVuSans-4d" d="M 628 4666 
L 1569 4666 
L 2759 1491 
L 3956 4666 
L 4897 4666 
L 4897 0 
L 4281 0 
L 4281 4097 
L 3078 897 
L 2444 897 
L 1241 4097 
L 1241 0 
L 628 0 
L 628 4666 
z
" transform="scale(0.015625)"/>
       <path id="DejaVuSans-65" d="M 3597 1894 
L 3597 1613 
L 953 1613 
Q 991 1019 1311 708 
Q 1631 397 2203 397 
Q 2534 397 2845 478 
Q 3156 559 3463 722 
L 3463 178 
Q 3153 47 2828 -22 
Q 2503 -91 2169 -91 
Q 1331 -91 842 396 
Q 353 884 353 1716 
Q 353 2575 817 3079 
Q 1281 3584 2069 3584 
Q 2775 3584 3186 3129 
Q 3597 2675 3597 1894 
z
M 3022 2063 
Q 3016 2534 2758 2815 
Q 2500 3097 2075 3097 
Q 1594 3097 1305 2825 
Q 1016 2553 972 2059 
L 3022 2063 
z
" transform="scale(0.015625)"/>
       <path id="DejaVuSans-61" d="M 2194 1759 
Q 1497 1759 1228 1600 
Q 959 1441 959 1056 
Q 959 750 1161 570 
Q 1363 391 1709 391 
Q 2188 391 2477 730 
Q 2766 1069 2766 1631 
L 2766 1759 
L 2194 1759 
z
M 3341 1997 
L 3341 0 
L 2766 0 
L 2766 531 
Q 2569 213 2275 61 
Q 1981 -91 1556 -91 
Q 1019 -91 701 211 
Q 384 513 384 1019 
Q 384 1609 779 1909 
Q 1175 2209 1959 2209 
L 2766 2209 
L 2766 2266 
Q 2766 2663 2505 2880 
Q 2244 3097 1772 3097 
Q 1472 3097 1187 3025 
Q 903 2953 641 2809 
L 641 3341 
Q 956 3463 1253 3523 
Q 1550 3584 1831 3584 
Q 2591 3584 2966 3190 
Q 3341 2797 3341 1997 
z
" transform="scale(0.015625)"/>
       <path id="DejaVuSans-6e" d="M 3513 2113 
L 3513 0 
L 2938 0 
L 2938 2094 
Q 2938 2591 2744 2837 
Q 2550 3084 2163 3084 
Q 1697 3084 1428 2787 
Q 1159 2491 1159 1978 
L 1159 0 
L 581 0 
L 581 3500 
L 1159 3500 
L 1159 2956 
Q 1366 3272 1645 3428 
Q 1925 3584 2291 3584 
Q 2894 3584 3203 3211 
Q 3513 2838 3513 2113 
z
" transform="scale(0.015625)"/>
       <path id="DejaVuSans-20" transform="scale(0.015625)"/>
       <path id="DejaVuSans-70" d="M 1159 525 
L 1159 -1331 
L 581 -1331 
L 581 3500 
L 1159 3500 
L 1159 2969 
Q 1341 3281 1617 3432 
Q 1894 3584 2278 3584 
Q 2916 3584 3314 3078 
Q 3713 2572 3713 1747 
Q 3713 922 3314 415 
Q 2916 -91 2278 -91 
Q 1894 -91 1617 61 
Q 1341 213 1159 525 
z
M 3116 1747 
Q 3116 2381 2855 2742 
Q 2594 3103 2138 3103 
Q 1681 3103 1420 2742 
Q 1159 2381 1159 1747 
Q 1159 1113 1420 752 
Q 1681 391 2138 391 
Q 2594 391 2855 752 
Q 3116 1113 3116 1747 
z
" transform="scale(0.015625)"/>
       <path id="DejaVuSans-68" d="M 3513 2113 
L 3513 0 
L 2938 0 
L 2938 2094 
Q 2938 2591 2744 2837 
Q 2550 3084 2163 3084 
Q 1697 3084 1428 2787 
Q 1159 2491 1159 1978 
L 1159 0 
L 581 0 
L 581 4863 
L 1159 4863 
L 1159 2956 
Q 1366 3272 1645 3428 
Q 1925 3584 2291 3584 
Q 2894 3584 3203 3211 
Q 3513 2838 3513 2113 
z
" transform="scale(0.015625)"/>
       <path id="DejaVuSans-6f" d="M 1959 3097 
Q 1497 3097 1228 2736 
Q 959 2375 959 1747 
Q 959 1119 1226 758 
Q 1494 397 1959 397 
Q 2419 397 2687 759 
Q 2956 1122 2956 1747 
Q 2956 2369 2687 2733 
Q 2419 3097 1959 3097 
z
M 1959 3584 
Q 2709 3584 3137 3096 
Q 3566 2609 3566 1747 
Q 3566 888 3137 398 
Q 2709 -91 1959 -91 
Q 1206 -91 779 398 
Q 353 888 353 1747 
Q 353 2609 779 3096 
Q 1206 3584 1959 3584 
z
" transform="scale(0.015625)"/>
       <path id="DejaVuSans-74" d="M 1172 4494 
L 1172 3500 
L 2356 3500 
L 2356 3053 
L 1172 3053 
L 1172 1153 
Q 1172 725 1289 603 
Q 1406 481 1766 481 
L 2356 481 
L 2356 0 
L 1766 0 
Q 1100 0 847 248 
Q 594 497 594 1153 
L 594 3053 
L 172 3053 
L 172 3500 
L 594 3500 
L 594 4494 
L 1172 4494 
z
" transform="scale(0.015625)"/>
       <path id="DejaVuSans-75" d="M 544 1381 
L 544 3500 
L 1119 3500 
L 1119 1403 
Q 1119 906 1312 657 
Q 1506 409 1894 409 
Q 2359 409 2629 706 
Q 2900 1003 2900 1516 
L 2900 3500 
L 3475 3500 
L 3475 0 
L 2900 0 
L 2900 538 
Q 2691 219 2414 64 
Q 2138 -91 1772 -91 
Q 1169 -91 856 284 
Q 544 659 544 1381 
z
M 1991 3584 
L 1991 3584 
z
" transform="scale(0.015625)"/>
       <path id="DejaVuSans-6d" d="M 3328 2828 
Q 3544 3216 3844 3400 
Q 4144 3584 4550 3584 
Q 5097 3584 5394 3201 
Q 5691 2819 5691 2113 
L 5691 0 
L 5113 0 
L 5113 2094 
Q 5113 2597 4934 2840 
Q 4756 3084 4391 3084 
Q 3944 3084 3684 2787 
Q 3425 2491 3425 1978 
L 3425 0 
L 2847 0 
L 2847 2094 
Q 2847 2600 2669 2842 
Q 2491 3084 2119 3084 
Q 1678 3084 1418 2786 
Q 1159 2488 1159 1978 
L 1159 0 
L 581 0 
L 581 3500 
L 1159 3500 
L 1159 2956 
Q 1356 3278 1631 3431 
Q 1906 3584 2284 3584 
Q 2666 3584 2933 3390 
Q 3200 3197 3328 2828 
z
" transform="scale(0.015625)"/>
       <path id="DejaVuSans-62" d="M 3116 1747 
Q 3116 2381 2855 2742 
Q 2594 3103 2138 3103 
Q 1681 3103 1420 2742 
Q 1159 2381 1159 1747 
Q 1159 1113 1420 752 
Q 1681 391 2138 391 
Q 2594 391 2855 752 
Q 3116 1113 3116 1747 
z
M 1159 2969 
Q 1341 3281 1617 3432 
Q 1894 3584 2278 3584 
Q 2916 3584 3314 3078 
Q 3713 2572 3713 1747 
Q 3713 922 3314 415 
Q 2916 -91 2278 -91 
Q 1894 -91 1617 61 
Q 1341 213 1159 525 
L 1159 0 
L 581 0 
L 581 4863 
L 1159 4863 
L 1159 2969 
z
" transform="scale(0.015625)"/>
       <path id="DejaVuSans-72" d="M 2631 2963 
Q 2534 3019 2420 3045 
Q 2306 3072 2169 3072 
Q 1681 3072 1420 2755 
Q 1159 2438 1159 1844 
L 1159 0 
L 581 0 
L 581 3500 
L 1159 3500 
L 1159 2956 
Q 1341 3275 1631 3429 
Q 1922 3584 2338 3584 
Q 2397 3584 2469 3576 
Q 2541 3569 2628 3553 
L 2631 2963 
z
" transform="scale(0.015625)"/>
       <path id="DejaVuSans-27e8" d="M 572 2006 
L 1453 4856 
L 1984 4856 
L 1103 2006 
L 1984 -844 
L 1453 -844 
L 572 2006 
z
" transform="scale(0.015625)"/>
       <path id="DejaVuSans-Oblique-4e" d="M 1081 4666 
L 1931 4666 
L 3219 666 
L 4000 4666 
L 4616 4666 
L 3706 0 
L 2853 0 
L 1569 4025 
L 788 0 
L 172 0 
L 1081 4666 
z
" transform="scale(0.015625)"/>
       <path id="DejaVuSans-27e9" d="M 1925 2006 
L 1044 -844 
L 513 -844 
L 1394 2006 
L 513 4856 
L 1044 4856 
L 1925 2006 
z
" transform="scale(0.015625)"/>
      </defs>
      <use xlink:href="#DejaVuSans-4d" transform="translate(0 0.015625)"/>
      <use xlink:href="#DejaVuSans-65" transform="translate(86.279297 0.015625)"/>
      <use xlink:href="#DejaVuSans-61" transform="translate(147.802734 0.015625)"/>
      <use xlink:href="#DejaVuSans-6e" transform="translate(209.082031 0.015625)"/>
      <use xlink:href="#DejaVuSans-20" transform="translate(272.460938 0.015625)"/>
      <use xlink:href="#DejaVuSans-70" transform="translate(304.248047 0.015625)"/>
      <use xlink:href="#DejaVuSans-68" transform="translate(367.724609 0.015625)"/>
      <use xlink:href="#DejaVuSans-6f" transform="translate(431.103516 0.015625)"/>
      <use xlink:href="#DejaVuSans-74" transform="translate(492.285156 0.015625)"/>
      <use xlink:href="#DejaVuSans-6f" transform="translate(531.494141 0.015625)"/>
      <use xlink:href="#DejaVuSans-6e" transform="translate(592.675781 0.015625)"/>
      <use xlink:href="#DejaVuSans-20" transform="translate(656.054688 0.015625)"/>
      <use xlink:href="#DejaVuSans-6e" transform="translate(687.841797 0.015625)"/>
      <use xlink:href="#DejaVuSans-75" transform="translate(751.220703 0.015625)"/>
      <use xlink:href="#DejaVuSans-6d" transform="translate(814.599609 0.015625)"/>
      <use xlink:href="#DejaVuSans-62" transform="translate(912.011719 0.015625)"/>
      <use xlink:href="#DejaVuSans-65" transform="translate(975.488281 0.015625)"/>
      <use xlink:href="#DejaVuSans-72" transform="translate(1037.011719 0.015625)"/>
      <use xlink:href="#DejaVuSans-20" transform="translate(1078.125 0.015625)"/>
      <use xlink:href="#DejaVuSans-27e8" transform="translate(1109.912109 0.015625)"/>
      <use xlink:href="#DejaVuSans-Oblique-4e" transform="translate(1148.925781 0.015625)"/>
      <use xlink:href="#DejaVuSans-27e9" transform="translate(1223.730469 0.015625)"/>
     </g>
    </g>
   </g>
   <g id="matplotlib.axis_2">
    <g id="ytick_1">
     <g id="line2d_27">
      <path d="M 51.378125 257.32084 
L 560.806071 257.32084 
" clip-path="url(#p396ee4e074)" style="fill: none; stroke: #b0b0b0; stroke-opacity: 0.3; stroke-width: 0.8; stroke-linecap: square"/>
     </g>
     <g id="line2d_28">
      <defs>
       <path id="ma1021a4749" d="M 0 0 
L -3.5 0 
" style="stroke: #000000; stroke-width: 0.8"/>
      </defs>
      <g>
       <use xlink:href="#ma1021a4749" x="51.378125" y="257.32084" style="stroke: #000000; stroke-width: 0.8"/>
      </g>
     </g>
     <g id="text_4">
      <!-- $\mathdefault{10^{-2}}$ -->
      <g transform="translate(20.878125 261.120059) scale(0.1 -0.1)">
       <defs>
        <path id="DejaVuSans-2212" d="M 678 2272 
L 4684 2272 
L 4684 1741 
L 678 1741 
L 678 2272 
z
" transform="scale(0.015625)"/>
        <path id="DejaVuSans-32" d="M 1228 531 
L 3431 531 
L 3431 0 
L 469 0 
L 469 531 
Q 828 903 1448 1529 
Q 2069 2156 2228 2338 
Q 2531 2678 2651 2914 
Q 2772 3150 2772 3378 
Q 2772 3750 2511 3984 
Q 2250 4219 1831 4219 
Q 1534 4219 1204 4116 
Q 875 4013 500 3803 
L 500 4441 
Q 881 4594 1212 4672 
Q 1544 4750 1819 4750 
Q 2544 4750 2975 4387 
Q 3406 4025 3406 3419 
Q 3406 3131 3298 2873 
Q 3191 2616 2906 2266 
Q 2828 2175 2409 1742 
Q 1991 1309 1228 531 
z
" transform="scale(0.015625)"/>
       </defs>
       <use xlink:href="#DejaVuSans-31" transform="translate(0 0.765625)"/>
       <use xlink:href="#DejaVuSans-30" transform="translate(63.623047 0.765625)"/>
       <use xlink:href="#DejaVuSans-2212" transform="translate(128.203125 39.046875) scale(0.7)"/>
       <use xlink:href="#DejaVuSans-32" transform="translate(186.855469 39.046875) scale(0.7)"/>
      </g>
     </g>
    </g>
    <g id="ytick_2">
     <g id="line2d_29">
      <path d="M 51.378125 45.841906 
L 560.806071 45.841906 
" clip-path="url(#p396ee4e074)" style="fill: none; stroke: #b0b0b0; stroke-opacity: 0.3; stroke-width: 0.8; stroke-linecap: square"/>
     </g>
     <g id="line2d_30">
      <g>
       <use xlink:href="#ma1021a4749" x="51.378125" y="45.841906" style="stroke: #000000; stroke-width: 0.8"/>
      </g>
     </g>
     <g id="text_5">
      <!-- $\mathdefault{10^{-1}}$ -->
      <g transform="translate(20.878125 49.641125) scale(0.1 -0.1)">
       <use xlink:href="#DejaVuSans-31" transform="translate(0 0.684375)"/>
       <use xlink:href="#DejaVuSans-30" transform="translate(63.623047 0.684375)"/>
       <use xlink:href="#DejaVuSans-2212" transform="translate(128.203125 38.965625) scale(0.7)"/>
       <use xlink:href="#DejaVuSans-31" transform="translate(186.855469 38.965625) scale(0.7)"/>
      </g>
     </g>
    </g>
    <g id="ytick_3">
     <g id="line2d_31">
      <path d="M 51.378125 367.898679 
L 560.806071 367.898679 
" clip-path="url(#p396ee4e074)" style="fill: none; stroke: #b0b0b0; stroke-opacity: 0.3; stroke-width: 0.8; stroke-linecap: square"/>
     </g>
     <g id="line2d_32">
      <defs>
       <path id="m01ae22acfd" d="M 0 0 
L -2 0 
" style="stroke: #000000; stroke-width: 0.6"/>
      </defs>
      <g>
       <use xlink:href="#m01ae22acfd" x="51.378125" y="367.898679" style="stroke: #000000; stroke-width: 0.6"/>
      </g>
     </g>
    </g>
    <g id="ytick_4">
     <g id="line2d_33">
      <path d="M 51.378125 341.476769 
L 560.806071 341.476769 
" clip-path="url(#p396ee4e074)" style="fill: none; stroke: #b0b0b0; stroke-opacity: 0.3; stroke-width: 0.8; stroke-linecap: square"/>
     </g>
     <g id="line2d_34">
      <g>
       <use xlink:href="#m01ae22acfd" x="51.378125" y="341.476769" style="stroke: #000000; stroke-width: 0.6"/>
      </g>
     </g>
    </g>
    <g id="ytick_5">
     <g id="line2d_35">
      <path d="M 51.378125 320.982342 
L 560.806071 320.982342 
" clip-path="url(#p396ee4e074)" style="fill: none; stroke: #b0b0b0; stroke-opacity: 0.3; stroke-width: 0.8; stroke-linecap: square"/>
     </g>
     <g id="line2d_36">
      <g>
       <use xlink:href="#m01ae22acfd" x="51.378125" y="320.982342" style="stroke: #000000; stroke-width: 0.6"/>
      </g>
     </g>
    </g>
    <g id="ytick_6">
     <g id="line2d_37">
      <path d="M 51.378125 304.237177 
L 560.806071 304.237177 
" clip-path="url(#p396ee4e074)" style="fill: none; stroke: #b0b0b0; stroke-opacity: 0.3; stroke-width: 0.8; stroke-linecap: square"/>
     </g>
     <g id="line2d_38">
      <g>
       <use xlink:href="#m01ae22acfd" x="51.378125" y="304.237177" style="stroke: #000000; stroke-width: 0.6"/>
      </g>
     </g>
    </g>
    <g id="ytick_7">
     <g id="line2d_39">
      <path d="M 51.378125 290.079341 
L 560.806071 290.079341 
" clip-path="url(#p396ee4e074)" style="fill: none; stroke: #b0b0b0; stroke-opacity: 0.3; stroke-width: 0.8; stroke-linecap: square"/>
     </g>
     <g id="line2d_40">
      <g>
       <use xlink:href="#m01ae22acfd" x="51.378125" y="290.079341" style="stroke: #000000; stroke-width: 0.6"/>
      </g>
     </g>
    </g>
    <g id="ytick_8">
     <g id="line2d_41">
      <path d="M 51.378125 277.815266 
L 560.806071 277.815266 
" clip-path="url(#p396ee4e074)" style="fill: none; stroke: #b0b0b0; stroke-opacity: 0.3; stroke-width: 0.8; stroke-linecap: square"/>
     </g>
     <g id="line2d_42">
      <g>
       <use xlink:href="#m01ae22acfd" x="51.378125" y="277.815266" style="stroke: #000000; stroke-width: 0.6"/>
      </g>
     </g>
    </g>
    <g id="ytick_9">
     <g id="line2d_43">
      <path d="M 51.378125 266.997585 
L 560.806071 266.997585 
" clip-path="url(#p396ee4e074)" style="fill: none; stroke: #b0b0b0; stroke-opacity: 0.3; stroke-width: 0.8; stroke-linecap: square"/>
     </g>
     <g id="line2d_44">
      <g>
       <use xlink:href="#m01ae22acfd" x="51.378125" y="266.997585" style="stroke: #000000; stroke-width: 0.6"/>
      </g>
     </g>
    </g>
    <g id="ytick_10">
     <g id="line2d_45">
      <path d="M 51.378125 193.659337 
L 560.806071 193.659337 
" clip-path="url(#p396ee4e074)" style="fill: none; stroke: #b0b0b0; stroke-opacity: 0.3; stroke-width: 0.8; stroke-linecap: square"/>
     </g>
     <g id="line2d_46">
      <g>
       <use xlink:href="#m01ae22acfd" x="51.378125" y="193.659337" style="stroke: #000000; stroke-width: 0.6"/>
      </g>
     </g>
    </g>
    <g id="ytick_11">
     <g id="line2d_47">
      <path d="M 51.378125 156.419746 
L 560.806071 156.419746 
" clip-path="url(#p396ee4e074)" style="fill: none; stroke: #b0b0b0; stroke-opacity: 0.3; stroke-width: 0.8; stroke-linecap: square"/>
     </g>
     <g id="line2d_48">
      <g>
       <use xlink:href="#m01ae22acfd" x="51.378125" y="156.419746" style="stroke: #000000; stroke-width: 0.6"/>
      </g>
     </g>
    </g>
    <g id="ytick_12">
     <g id="line2d_49">
      <path d="M 51.378125 129.997835 
L 560.806071 129.997835 
" clip-path="url(#p396ee4e074)" style="fill: none; stroke: #b0b0b0; stroke-opacity: 0.3; stroke-width: 0.8; stroke-linecap: square"/>
     </g>
     <g id="line2d_50">
      <g>
       <use xlink:href="#m01ae22acfd" x="51.378125" y="129.997835" style="stroke: #000000; stroke-width: 0.6"/>
      </g>
     </g>
    </g>
    <g id="ytick_13">
     <g id="line2d_51">
      <path d="M 51.378125 109.503409 
L 560.806071 109.503409 
" clip-path="url(#p396ee4e074)" style="fill: none; stroke: #b0b0b0; stroke-opacity: 0.3; stroke-width: 0.8; stroke-linecap: square"/>
     </g>
     <g id="line2d_52">
      <g>
       <use xlink:href="#m01ae22acfd" x="51.378125" y="109.503409" style="stroke: #000000; stroke-width: 0.6"/>
      </g>
     </g>
    </g>
    <g id="ytick_14">
     <g id="line2d_53">
      <path d="M 51.378125 92.758243 
L 560.806071 92.758243 
" clip-path="url(#p396ee4e074)" style="fill: none; stroke: #b0b0b0; stroke-opacity: 0.3; stroke-width: 0.8; stroke-linecap: square"/>
     </g>
     <g id="line2d_54">
      <g>
       <use xlink:href="#m01ae22acfd" x="51.378125" y="92.758243" style="stroke: #000000; stroke-width: 0.6"/>
      </g>
     </g>
    </g>
    <g id="ytick_15">
     <g id="line2d_55">
      <path d="M 51.378125 78.600407 
L 560.806071 78.600407 
" clip-path="url(#p396ee4e074)" style="fill: none; stroke: #b0b0b0; stroke-opacity: 0.3; stroke-width: 0.8; stroke-linecap: square"/>
     </g>
     <g id="line2d_56">
      <g>
       <use xlink:href="#m01ae22acfd" x="51.378125" y="78.600407" style="stroke: #000000; stroke-width: 0.6"/>
      </g>
     </g>
    </g>
    <g id="ytick_16">
     <g id="line2d_57">
      <path d="M 51.378125 66.336332 
L 560.806071 66.336332 
" clip-path="url(#p396ee4e074)" style="fill: none; stroke: #b0b0b0; stroke-opacity: 0.3; stroke-width: 0.8; stroke-linecap: square"/>
     </g>
     <g id="line2d_58">
      <g>
       <use xlink:href="#m01ae22acfd" x="51.378125" y="66.336332" style="stroke: #000000; stroke-width: 0.6"/>
      </g>
     </g>
    </g>
    <g id="ytick_17">
     <g id="line2d_59">
      <path d="M 51.378125 55.518651 
L 560.806071 55.518651 
" clip-path="url(#p396ee4e074)" style="fill: none; stroke: #b0b0b0; stroke-opacity: 0.3; stroke-width: 0.8; stroke-linecap: square"/>
     </g>
     <g id="line2d_60">
      <g>
       <use xlink:href="#m01ae22acfd" x="51.378125" y="55.518651" style="stroke: #000000; stroke-width: 0.6"/>
      </g>
     </g>
    </g>
    <g id="text_6">
     <!-- $\Delta\omega$ -->
     <g transform="translate(14.798438 208.452125) rotate(-90) scale(0.1 -0.1)">
      <defs>
       <path id="DejaVuSans-394" d="M 2188 4044 
L 906 525 
L 3472 525 
L 2188 4044 
z
M 50 0 
L 1831 4666 
L 2547 4666 
L 4325 0 
L 50 0 
z
" transform="scale(0.015625)"/>
       <path id="DejaVuSans-Oblique-3c9" d="M 1369 -91 
Q 72 -91 434 1766 
Q 575 2500 1256 3500 
L 1875 3500 
Q 1231 2500 1088 1750 
Q 819 397 1519 397 
Q 2166 397 2478 2078 
L 3009 2078 
Q 2669 388 3316 397 
Q 4013 403 4275 1750 
Q 4419 2500 4169 3500 
L 4788 3500 
Q 5075 2500 4934 1766 
Q 4578 -94 3278 -91 
Q 2428 -88 2503 844 
Q 2194 -91 1369 -91 
z
" transform="scale(0.015625)"/>
      </defs>
      <use xlink:href="#DejaVuSans-394" transform="translate(0 0.09375)"/>
      <use xlink:href="#DejaVuSans-Oblique-3c9" transform="translate(68.408203 0.09375)"/>
     </g>
    </g>
   </g>
   <g id="line2d_61">
    <path d="M 74.533941 45.841906 
L 83.985294 52.315751 
L 93.436647 58.789596 
L 102.888001 65.263441 
L 112.339354 71.737286 
L 121.790708 78.211131 
L 131.242061 84.684976 
L 140.693414 91.158821 
L 150.144768 97.632665 
L 159.596121 104.10651 
L 169.047474 110.580355 
L 178.498828 117.0542 
L 187.950181 123.528045 
L 197.401534 130.00189 
L 206.852888 136.475735 
L 216.304241 142.94958 
L 225.755594 149.423425 
L 235.206948 155.89727 
L 244.658301 162.371115 
L 254.109655 168.844959 
L 263.561008 175.318804 
L 273.012361 181.792649 
L 282.463715 188.266494 
L 291.915068 194.740339 
L 301.366421 201.214184 
L 310.817775 207.688029 
L 320.269128 214.161874 
L 329.720481 220.635719 
L 339.171835 227.109564 
L 348.623188 233.583409 
L 358.074542 240.057253 
L 367.525895 246.531098 
L 376.977248 253.004943 
L 386.428602 259.478788 
L 395.879955 265.952633 
L 405.331308 272.426478 
L 414.782662 278.900323 
L 424.234015 285.374168 
L 433.685368 291.848013 
L 443.136722 298.321858 
L 452.588075 304.795703 
L 462.039428 311.269548 
L 471.490782 317.743392 
L 480.942135 324.217237 
L 490.393489 330.691082 
L 499.844842 337.164927 
L 509.296195 343.638772 
L 518.747549 350.112617 
L 528.198902 356.586462 
L 537.650255 363.060307 
" clip-path="url(#p396ee4e074)" style="fill: none; stroke-dasharray: 5.55,2.4; stroke-dashoffset: 0; stroke: #000000; stroke-opacity: 0.4; stroke-width: 1.5"/>
   </g>
   <g id="line2d_62">
    <path d="M 74.533941 45.841906 
L 83.985294 49.078829 
L 93.436647 52.315751 
L 102.888001 55.552673 
L 112.339354 58.789596 
L 121.790708 62.026518 
L 131.242061 65.263441 
L 140.693414 68.500363 
L 150.144768 71.737286 
L 159.596121 74.974208 
L 169.047474 78.211131 
L 178.498828 81.448053 
L 187.950181 84.684976 
L 197.401534 87.921898 
L 206.852888 91.158821 
L 216.304241 94.395743 
L 225.755594 97.632665 
L 235.206948 100.869588 
L 244.658301 104.10651 
L 254.109655 107.343433 
L 263.561008 110.580355 
L 273.012361 113.817278 
L 282.463715 117.0542 
L 291.915068 120.291123 
L 301.366421 123.528045 
L 310.817775 126.764968 
L 320.269128 130.00189 
L 329.720481 133.238812 
L 339.171835 136.475735 
L 348.623188 139.712657 
L 358.074542 142.94958 
L 367.525895 146.186502 
L 376.977248 149.423425 
L 386.428602 152.660347 
L 395.879955 155.89727 
L 405.331308 159.134192 
L 414.782662 162.371115 
L 424.234015 165.608037 
L 433.685368 168.844959 
L 443.136722 172.081882 
L 452.588075 175.318804 
L 462.039428 178.555727 
L 471.490782 181.792649 
L 480.942135 185.029572 
L 490.393489 188.266494 
L 499.844842 191.503417 
L 509.296195 194.740339 
L 518.747549 197.977262 
L 528.198902 201.214184 
L 537.650255 204.451106 
" clip-path="url(#p396ee4e074)" style="fill: none; stroke-dasharray: 1.5,2.475; stroke-dashoffset: 0; stroke: #000000; stroke-opacity: 0.4; stroke-width: 1.5"/>
   </g>
   <g id="line2d_63">
    <path d="M 74.533941 38.550374 
L 167.475209 73.379864 
L 221.842365 91.534515 
L 260.416477 105.587062 
L 290.336882 115.500563 
L 314.783634 124.342065 
L 335.453067 131.169264 
L 353.357745 137.622781 
L 369.15079 142.830583 
L 383.27815 147.912591 
L 396.057902 152.122346 
L 407.724902 156.313892 
L 418.457501 159.846766 
L 428.394335 163.413483 
L 437.645307 166.457058 
L 446.299013 169.561114 
L 454.427921 171.724519 
L 462.092058 173.700531 
L 469.341711 175.510752 
L 476.219419 177.17365 
" clip-path="url(#p396ee4e074)" style="fill: none; stroke-dasharray: 5.55,2.4; stroke-dashoffset: 0; stroke: #1f77b4; stroke-opacity: 0.5; stroke-width: 1.5"/>
   </g>
   <g id="line2d_64">
    <path d="M 74.533941 38.543943 
L 167.475209 73.366991 
L 221.842365 91.516924 
L 260.416477 105.56331 
L 290.336882 115.472065 
L 314.783634 124.307447 
L 335.453067 131.129886 
L 353.357745 137.577301 
L 369.15079 142.780334 
L 383.27815 147.856251 
L 396.057902 152.061231 
L 407.724902 156.246693 
L 418.457501 159.774788 
L 428.394335 163.335425 
L 437.645307 166.37422 
L 446.299013 169.472199 
L 454.427921 171.633511 
L 462.092058 173.607679 
L 469.341711 175.416272 
L 476.219419 177.077733 
" clip-path="url(#p396ee4e074)" style="fill: none; stroke: #1f77b4; stroke-width: 1.5; stroke-linecap: square"/>
    <defs>
     <path id="m646c91391f" d="M 0 3 
C 0.795609 3 1.55874 2.683901 2.12132 2.12132 
C 2.683901 1.55874 3 0.795609 3 0 
C 3 -0.795609 2.683901 -1.55874 2.12132 -2.12132 
C 1.55874 -2.683901 0.795609 -3 0 -3 
C -0.795609 -3 -1.55874 -2.683901 -2.12132 -2.12132 
C -2.683901 -1.55874 -3 -0.795609 -3 0 
C -3 0.795609 -2.683901 1.55874 -2.12132 2.12132 
C -1.55874 2.683901 -0.795609 3 0 3 
z
" style="stroke: #1f77b4"/>
    </defs>
    <g clip-path="url(#p396ee4e074)">
     <use xlink:href="#m646c91391f" x="74.533941" y="38.543943" style="fill: #1f77b4; stroke: #1f77b4"/>
     <use xlink:href="#m646c91391f" x="167.475209" y="73.366991" style="fill: #1f77b4; stroke: #1f77b4"/>
     <use xlink:href="#m646c91391f" x="221.842365" y="91.516924" style="fill: #1f77b4; stroke: #1f77b4"/>
     <use xlink:href="#m646c91391f" x="260.416477" y="105.56331" style="fill: #1f77b4; stroke: #1f77b4"/>
     <use xlink:href="#m646c91391f" x="290.336882" y="115.472065" style="fill: #1f77b4; stroke: #1f77b4"/>
     <use xlink:href="#m646c91391f" x="314.783634" y="124.307447" style="fill: #1f77b4; stroke: #1f77b4"/>
     <use xlink:href="#m646c91391f" x="335.453067" y="131.129886" style="fill: #1f77b4; stroke: #1f77b4"/>
     <use xlink:href="#m646c91391f" x="353.357745" y="137.577301" style="fill: #1f77b4; stroke: #1f77b4"/>
     <use xlink:href="#m646c91391f" x="369.15079" y="142.780334" style="fill: #1f77b4; stroke: #1f77b4"/>
     <use xlink:href="#m646c91391f" x="383.27815" y="147.856251" style="fill: #1f77b4; stroke: #1f77b4"/>
     <use xlink:href="#m646c91391f" x="396.057902" y="152.061231" style="fill: #1f77b4; stroke: #1f77b4"/>
     <use xlink:href="#m646c91391f" x="407.724902" y="156.246693" style="fill: #1f77b4; stroke: #1f77b4"/>
     <use xlink:href="#m646c91391f" x="418.457501" y="159.774788" style="fill: #1f77b4; stroke: #1f77b4"/>
     <use xlink:href="#m646c91391f" x="428.394335" y="163.335425" style="fill: #1f77b4; stroke: #1f77b4"/>
     <use xlink:href="#m646c91391f" x="437.645307" y="166.37422" style="fill: #1f77b4; stroke: #1f77b4"/>
     <use xlink:href="#m646c91391f" x="446.299013" y="169.472199" style="fill: #1f77b4; stroke: #1f77b4"/>
     <use xlink:href="#m646c91391f" x="454.427921" y="171.633511" style="fill: #1f77b4; stroke: #1f77b4"/>
     <use xlink:href="#m646c91391f" x="462.092058" y="173.607679" style="fill: #1f77b4; stroke: #1f77b4"/>
     <use xlink:href="#m646c91391f" x="469.341711" y="175.416272" style="fill: #1f77b4; stroke: #1f77b4"/>
     <use xlink:href="#m646c91391f" x="476.219419" y="177.077733" style="fill: #1f77b4; stroke: #1f77b4"/>
    </g>
   </g>
   <g id="line2d_65">
    <path d="M 260.416477 106.008583 
L 290.336882 116.097125 
L 314.783634 124.340064 
L 335.453067 131.30937 
L 353.357745 137.346458 
L 369.15079 142.671546 
L 383.27815 147.435 
L 396.057902 151.744068 
L 407.724902 155.677939 
L 418.457501 159.29675 
L 428.394335 162.647245 
L 437.645307 165.766482 
L 446.299013 168.684333 
L 454.427921 171.425232 
L 462.092058 174.009421 
L 469.341711 176.453854 
L 476.219419 178.772875 
" clip-path="url(#p396ee4e074)" style="fill: none; stroke-dasharray: 5.55,2.4; stroke-dashoffset: 0; stroke: #1f77b4; stroke-opacity: 0.7; stroke-width: 1.5"/>
   </g>
   <g id="patch_3">
    <path d="M 51.378125 379.286125 
L 51.378125 22.318125 
" style="fill: none; stroke: #000000; stroke-width: 0.8; stroke-linejoin: miter; stroke-linecap: square"/>
   </g>
   <g id="patch_4">
    <path d="M 560.806071 379.286125 
L 560.806071 22.318125 
" style="fill: none; stroke: #000000; stroke-width: 0.8; stroke-linejoin: miter; stroke-linecap: square"/>
   </g>
   <g id="patch_5">
    <path d="M 51.378125 379.286125 
L 560.806071 379.286125 
" style="fill: none; stroke: #000000; stroke-width: 0.8; stroke-linejoin: miter; stroke-linecap: square"/>
   </g>
   <g id="patch_6">
    <path d="M 51.378125 22.318125 
L 560.806071 22.318125 
" style="fill: none; stroke: #000000; stroke-width: 0.8; stroke-linejoin: miter; stroke-linecap: square"/>
   </g>
   <g id="text_7">
    <!-- SV + Parity Measurement - - - Phase Sensitivity Scaling -->
    <g transform="translate(144.177411 16.318125) scale(0.12 -0.12)">
     <defs>
      <path id="DejaVuSans-53" d="M 3425 4513 
L 3425 3897 
Q 3066 4069 2747 4153 
Q 2428 4238 2131 4238 
Q 1616 4238 1336 4038 
Q 1056 3838 1056 3469 
Q 1056 3159 1242 3001 
Q 1428 2844 1947 2747 
L 2328 2669 
Q 3034 2534 3370 2195 
Q 3706 1856 3706 1288 
Q 3706 609 3251 259 
Q 2797 -91 1919 -91 
Q 1588 -91 1214 -16 
Q 841 59 441 206 
L 441 856 
Q 825 641 1194 531 
Q 1563 422 1919 422 
Q 2459 422 2753 634 
Q 3047 847 3047 1241 
Q 3047 1584 2836 1778 
Q 2625 1972 2144 2069 
L 1759 2144 
Q 1053 2284 737 2584 
Q 422 2884 422 3419 
Q 422 4038 858 4394 
Q 1294 4750 2059 4750 
Q 2388 4750 2728 4690 
Q 3069 4631 3425 4513 
z
" transform="scale(0.015625)"/>
      <path id="DejaVuSans-56" d="M 1831 0 
L 50 4666 
L 709 4666 
L 2188 738 
L 3669 4666 
L 4325 4666 
L 2547 0 
L 1831 0 
z
" transform="scale(0.015625)"/>
      <path id="DejaVuSans-2b" d="M 2944 4013 
L 2944 2272 
L 4684 2272 
L 4684 1741 
L 2944 1741 
L 2944 0 
L 2419 0 
L 2419 1741 
L 678 1741 
L 678 2272 
L 2419 2272 
L 2419 4013 
L 2944 4013 
z
" transform="scale(0.015625)"/>
      <path id="DejaVuSans-50" d="M 1259 4147 
L 1259 2394 
L 2053 2394 
Q 2494 2394 2734 2622 
Q 2975 2850 2975 3272 
Q 2975 3691 2734 3919 
Q 2494 4147 2053 4147 
L 1259 4147 
z
M 628 4666 
L 2053 4666 
Q 2838 4666 3239 4311 
Q 3641 3956 3641 3272 
Q 3641 2581 3239 2228 
Q 2838 1875 2053 1875 
L 1259 1875 
L 1259 0 
L 628 0 
L 628 4666 
z
" transform="scale(0.015625)"/>
      <path id="DejaVuSans-69" d="M 603 3500 
L 1178 3500 
L 1178 0 
L 603 0 
L 603 3500 
z
M 603 4863 
L 1178 4863 
L 1178 4134 
L 603 4134 
L 603 4863 
z
" transform="scale(0.015625)"/>
      <path id="DejaVuSans-79" d="M 2059 -325 
Q 1816 -950 1584 -1140 
Q 1353 -1331 966 -1331 
L 506 -1331 
L 506 -850 
L 844 -850 
Q 1081 -850 1212 -737 
Q 1344 -625 1503 -206 
L 1606 56 
L 191 3500 
L 800 3500 
L 1894 763 
L 2988 3500 
L 3597 3500 
L 2059 -325 
z
" transform="scale(0.015625)"/>
      <path id="DejaVuSans-73" d="M 2834 3397 
L 2834 2853 
Q 2591 2978 2328 3040 
Q 2066 3103 1784 3103 
Q 1356 3103 1142 2972 
Q 928 2841 928 2578 
Q 928 2378 1081 2264 
Q 1234 2150 1697 2047 
L 1894 2003 
Q 2506 1872 2764 1633 
Q 3022 1394 3022 966 
Q 3022 478 2636 193 
Q 2250 -91 1575 -91 
Q 1294 -91 989 -36 
Q 684 19 347 128 
L 347 722 
Q 666 556 975 473 
Q 1284 391 1588 391 
Q 1994 391 2212 530 
Q 2431 669 2431 922 
Q 2431 1156 2273 1281 
Q 2116 1406 1581 1522 
L 1381 1569 
Q 847 1681 609 1914 
Q 372 2147 372 2553 
Q 372 3047 722 3315 
Q 1072 3584 1716 3584 
Q 2034 3584 2315 3537 
Q 2597 3491 2834 3397 
z
" transform="scale(0.015625)"/>
      <path id="DejaVuSans-2d" d="M 313 2009 
L 1997 2009 
L 1997 1497 
L 313 1497 
L 313 2009 
z
" transform="scale(0.015625)"/>
      <path id="DejaVuSans-76" d="M 191 3500 
L 800 3500 
L 1894 563 
L 2988 3500 
L 3597 3500 
L 2284 0 
L 1503 0 
L 191 3500 
z
" transform="scale(0.015625)"/>
      <path id="DejaVuSans-63" d="M 3122 3366 
L 3122 2828 
Q 2878 2963 2633 3030 
Q 2388 3097 2138 3097 
Q 1578 3097 1268 2742 
Q 959 2388 959 1747 
Q 959 1106 1268 751 
Q 1578 397 2138 397 
Q 2388 397 2633 464 
Q 2878 531 3122 666 
L 3122 134 
Q 2881 22 2623 -34 
Q 2366 -91 2075 -91 
Q 1284 -91 818 406 
Q 353 903 353 1747 
Q 353 2603 823 3093 
Q 1294 3584 2113 3584 
Q 2378 3584 2631 3529 
Q 2884 3475 3122 3366 
z
" transform="scale(0.015625)"/>
      <path id="DejaVuSans-6c" d="M 603 4863 
L 1178 4863 
L 1178 0 
L 603 0 
L 603 4863 
z
" transform="scale(0.015625)"/>
      <path id="DejaVuSans-67" d="M 2906 1791 
Q 2906 2416 2648 2759 
Q 2391 3103 1925 3103 
Q 1463 3103 1205 2759 
Q 947 2416 947 1791 
Q 947 1169 1205 825 
Q 1463 481 1925 481 
Q 2391 481 2648 825 
Q 2906 1169 2906 1791 
z
M 3481 434 
Q 3481 -459 3084 -895 
Q 2688 -1331 1869 -1331 
Q 1566 -1331 1297 -1286 
Q 1028 -1241 775 -1147 
L 775 -588 
Q 1028 -725 1275 -790 
Q 1522 -856 1778 -856 
Q 2344 -856 2625 -561 
Q 2906 -266 2906 331 
L 2906 616 
Q 2728 306 2450 153 
Q 2172 0 1784 0 
Q 1141 0 747 490 
Q 353 981 353 1791 
Q 353 2603 747 3093 
Q 1141 3584 1784 3584 
Q 2172 3584 2450 3431 
Q 2728 3278 2906 2969 
L 2906 3500 
L 3481 3500 
L 3481 434 
z
" transform="scale(0.015625)"/>
     </defs>
     <use xlink:href="#DejaVuSans-53"/>
     <use xlink:href="#DejaVuSans-56" transform="translate(63.476562 0)"/>
     <use xlink:href="#DejaVuSans-20" transform="translate(131.884766 0)"/>
     <use xlink:href="#DejaVuSans-2b" transform="translate(163.671875 0)"/>
     <use xlink:href="#DejaVuSans-20" transform="translate(247.460938 0)"/>
     <use xlink:href="#DejaVuSans-50" transform="translate(279.248047 0)"/>
     <use xlink:href="#DejaVuSans-61" transform="translate(335.050781 0)"/>
     <use xlink:href="#DejaVuSans-72" transform="translate(396.330078 0)"/>
     <use xlink:href="#DejaVuSans-69" transform="translate(437.443359 0)"/>
     <use xlink:href="#DejaVuSans-74" transform="translate(465.226562 0)"/>
     <use xlink:href="#DejaVuSans-79" transform="translate(504.435547 0)"/>
     <use xlink:href="#DejaVuSans-20" transform="translate(563.615234 0)"/>
     <use xlink:href="#DejaVuSans-4d" transform="translate(595.402344 0)"/>
     <use xlink:href="#DejaVuSans-65" transform="translate(681.681641 0)"/>
     <use xlink:href="#DejaVuSans-61" transform="translate(743.205078 0)"/>
     <use xlink:href="#DejaVuSans-73" transform="translate(804.484375 0)"/>
     <use xlink:href="#DejaVuSans-75" transform="translate(856.583984 0)"/>
     <use xlink:href="#DejaVuSans-72" transform="translate(919.962891 0)"/>
     <use xlink:href="#DejaVuSans-65" transform="translate(958.826172 0)"/>
     <use xlink:href="#DejaVuSans-6d" transform="translate(1020.349609 0)"/>
     <use xlink:href="#DejaVuSans-65" transform="translate(1117.761719 0)"/>
     <use xlink:href="#DejaVuSans-6e" transform="translate(1179.285156 0)"/>
     <use xlink:href="#DejaVuSans-74" transform="translate(1242.664062 0)"/>
     <use xlink:href="#DejaVuSans-20" transform="translate(1281.873047 0)"/>
     <use xlink:href="#DejaVuSans-2d" transform="translate(1313.660156 0)"/>
     <use xlink:href="#DejaVuSans-2d" transform="translate(1349.744141 0)"/>
     <use xlink:href="#DejaVuSans-2d" transform="translate(1385.828125 0)"/>
     <use xlink:href="#DejaVuSans-20" transform="translate(1421.912109 0)"/>
     <use xlink:href="#DejaVuSans-50" transform="translate(1453.699219 0)"/>
     <use xlink:href="#DejaVuSans-68" transform="translate(1514.001953 0)"/>
     <use xlink:href="#DejaVuSans-61" transform="translate(1577.380859 0)"/>
     <use xlink:href="#DejaVuSans-73" transform="translate(1638.660156 0)"/>
     <use xlink:href="#DejaVuSans-65" transform="translate(1690.759766 0)"/>
     <use xlink:href="#DejaVuSans-20" transform="translate(1752.283203 0)"/>
     <use xlink:href="#DejaVuSans-53" transform="translate(1784.070312 0)"/>
     <use xlink:href="#DejaVuSans-65" transform="translate(1847.546875 0)"/>
     <use xlink:href="#DejaVuSans-6e" transform="translate(1909.070312 0)"/>
     <use xlink:href="#DejaVuSans-73" transform="translate(1972.449219 0)"/>
     <use xlink:href="#DejaVuSans-69" transform="translate(2024.548828 0)"/>
     <use xlink:href="#DejaVuSans-74" transform="translate(2052.332031 0)"/>
     <use xlink:href="#DejaVuSans-69" transform="translate(2091.541016 0)"/>
     <use xlink:href="#DejaVuSans-76" transform="translate(2119.324219 0)"/>
     <use xlink:href="#DejaVuSans-69" transform="translate(2178.503906 0)"/>
     <use xlink:href="#DejaVuSans-74" transform="translate(2206.287109 0)"/>
     <use xlink:href="#DejaVuSans-79" transform="translate(2245.496094 0)"/>
     <use xlink:href="#DejaVuSans-20" transform="translate(2304.675781 0)"/>
     <use xlink:href="#DejaVuSans-53" transform="translate(2336.462891 0)"/>
     <use xlink:href="#DejaVuSans-63" transform="translate(2399.939453 0)"/>
     <use xlink:href="#DejaVuSans-61" transform="translate(2454.919922 0)"/>
     <use xlink:href="#DejaVuSans-6c" transform="translate(2516.199219 0)"/>
     <use xlink:href="#DejaVuSans-69" transform="translate(2543.982422 0)"/>
     <use xlink:href="#DejaVuSans-6e" transform="translate(2571.765625 0)"/>
     <use xlink:href="#DejaVuSans-67" transform="translate(2635.144531 0)"/>
    </g>
   </g>
   <g id="legend_1">
    <g id="patch_7">
     <path d="M 424.186071 98.078437 
L 554.506071 98.078437 
Q 556.306071 98.078437 556.306071 96.278437 
L 556.306071 28.618125 
Q 556.306071 26.818125 554.506071 26.818125 
L 424.186071 26.818125 
Q 422.386071 26.818125 422.386071 28.618125 
L 422.386071 96.278437 
Q 422.386071 98.078437 424.186071 98.078437 
z
" style="fill: #ffffff; opacity: 0.8; stroke: #cccccc; stroke-linejoin: miter"/>
    </g>
    <g id="line2d_66">
     <path d="M 425.986071 34.108125 
L 434.986071 34.108125 
L 443.986071 34.108125 
" style="fill: none; stroke-dasharray: 5.55,2.4; stroke-dashoffset: 0; stroke: #000000; stroke-opacity: 0.4; stroke-width: 1.5"/>
    </g>
    <g id="text_8">
     <!-- $\propto 1/R$ (Heisenberg) -->
     <g transform="translate(451.186071 37.258125) scale(0.09 -0.09)">
      <defs>
       <path id="DejaVuSans-221d" d="M 1647 1134 
Q 2163 1134 2472 1884 
Q 2075 2703 1647 2703 
Q 1334 2703 1175 2478 
Q 1006 2238 1006 1919 
Q 1006 1569 1175 1353 
Q 1350 1134 1647 1134 
z
M 3884 1128 
L 3884 716 
L 3644 716 
Q 3416 716 3247 809 
Q 3078 894 2916 1091 
Q 2819 1203 2666 1466 
Q 2456 1091 2272 925 
Q 2044 725 1681 725 
Q 1259 725 981 1041 
Q 688 1372 688 1919 
Q 688 2444 981 2800 
Q 1241 3116 1688 3116 
Q 1916 3116 2084 3022 
Q 2281 2919 2416 2741 
Q 2541 2581 2666 2366 
Q 2875 2741 3059 2906 
Q 3288 3106 3650 3106 
L 3884 3106 
L 3884 2697 
L 3684 2697 
Q 3222 2697 2859 1947 
Q 3256 1128 3684 1128 
L 3884 1128 
z
" transform="scale(0.015625)"/>
       <path id="DejaVuSans-2f" d="M 1625 4666 
L 2156 4666 
L 531 -594 
L 0 -594 
L 1625 4666 
z
" transform="scale(0.015625)"/>
       <path id="DejaVuSans-Oblique-52" d="M 1613 4147 
L 1294 2491 
L 2106 2491 
Q 2584 2491 2879 2755 
Q 3175 3019 3175 3444 
Q 3175 3784 2976 3965 
Q 2778 4147 2406 4147 
L 1613 4147 
z
M 2772 2241 
Q 2972 2194 3105 2009 
Q 3238 1825 3413 1275 
L 3809 0 
L 3144 0 
L 2778 1197 
Q 2638 1659 2453 1815 
Q 2269 1972 1888 1972 
L 1191 1972 
L 806 0 
L 172 0 
L 1081 4666 
L 2503 4666 
Q 3150 4666 3495 4373 
Q 3841 4081 3841 3531 
Q 3841 3044 3547 2687 
Q 3253 2331 2772 2241 
z
" transform="scale(0.015625)"/>
       <path id="DejaVuSans-28" d="M 1984 4856 
Q 1566 4138 1362 3434 
Q 1159 2731 1159 2009 
Q 1159 1288 1364 580 
Q 1569 -128 1984 -844 
L 1484 -844 
Q 1016 -109 783 600 
Q 550 1309 550 2009 
Q 550 2706 781 3412 
Q 1013 4119 1484 4856 
L 1984 4856 
z
" transform="scale(0.015625)"/>
       <path id="DejaVuSans-48" d="M 628 4666 
L 1259 4666 
L 1259 2753 
L 3553 2753 
L 3553 4666 
L 4184 4666 
L 4184 0 
L 3553 0 
L 3553 2222 
L 1259 2222 
L 1259 0 
L 628 0 
L 628 4666 
z
" transform="scale(0.015625)"/>
       <path id="DejaVuSans-29" d="M 513 4856 
L 1013 4856 
Q 1481 4119 1714 3412 
Q 1947 2706 1947 2009 
Q 1947 1309 1714 600 
Q 1481 -109 1013 -844 
L 513 -844 
Q 928 -128 1133 580 
Q 1338 1288 1338 2009 
Q 1338 2731 1133 3434 
Q 928 4138 513 4856 
z
" transform="scale(0.015625)"/>
      </defs>
      <use xlink:href="#DejaVuSans-221d" transform="translate(19.482422 0.015625)"/>
      <use xlink:href="#DejaVuSans-31" transform="translate(110.400391 0.015625)"/>
      <use xlink:href="#DejaVuSans-2f" transform="translate(174.023438 0.015625)"/>
      <use xlink:href="#DejaVuSans-Oblique-52" transform="translate(205.964844 0.015625)"/>
      <use xlink:href="#DejaVuSans-20" transform="translate(275.447266 0.015625)"/>
      <use xlink:href="#DejaVuSans-28" transform="translate(307.234375 0.015625)"/>
      <use xlink:href="#DejaVuSans-48" transform="translate(346.248047 0.015625)"/>
      <use xlink:href="#DejaVuSans-65" transform="translate(421.443359 0.015625)"/>
      <use xlink:href="#DejaVuSans-69" transform="translate(482.966797 0.015625)"/>
      <use xlink:href="#DejaVuSans-73" transform="translate(510.75 0.015625)"/>
      <use xlink:href="#DejaVuSans-65" transform="translate(562.849609 0.015625)"/>
      <use xlink:href="#DejaVuSans-6e" transform="translate(624.373047 0.015625)"/>
      <use xlink:href="#DejaVuSans-62" transform="translate(687.751953 0.015625)"/>
      <use xlink:href="#DejaVuSans-65" transform="translate(751.228516 0.015625)"/>
      <use xlink:href="#DejaVuSans-72" transform="translate(812.751953 0.015625)"/>
      <use xlink:href="#DejaVuSans-67" transform="translate(853.865234 0.015625)"/>
      <use xlink:href="#DejaVuSans-29" transform="translate(917.341797 0.015625)"/>
     </g>
    </g>
    <g id="line2d_67">
     <path d="M 425.986071 49.786406 
L 434.986071 49.786406 
L 443.986071 49.786406 
" style="fill: none; stroke-dasharray: 1.5,2.475; stroke-dashoffset: 0; stroke: #000000; stroke-opacity: 0.4; stroke-width: 1.5"/>
    </g>
    <g id="text_9">
     <!-- $\propto 1/\sqrt{R}$ (SQL) -->
     <g transform="translate(451.186071 52.936406) scale(0.09 -0.09)">
      <defs>
       <path id="STIXSizeOneSym-Regular-221a" d="M 6970 9933 
L 3373 -1888 
L 3104 -1888 
L 1626 2918 
Q 1555 3149 1465 3251 
Q 1376 3354 1229 3354 
Q 1011 3354 794 3181 
L 717 3309 
L 1766 4115 
L 1926 4115 
L 3379 -602 
L 3405 -602 
L 6605 9933 
L 6970 9933 
z
" transform="scale(0.015625)"/>
       <path id="DejaVuSans-51" d="M 2522 4238 
Q 1834 4238 1429 3725 
Q 1025 3213 1025 2328 
Q 1025 1447 1429 934 
Q 1834 422 2522 422 
Q 3209 422 3611 934 
Q 4013 1447 4013 2328 
Q 4013 3213 3611 3725 
Q 3209 4238 2522 4238 
z
M 3406 84 
L 4238 -825 
L 3475 -825 
L 2784 -78 
Q 2681 -84 2626 -87 
Q 2572 -91 2522 -91 
Q 1538 -91 948 567 
Q 359 1225 359 2328 
Q 359 3434 948 4092 
Q 1538 4750 2522 4750 
Q 3503 4750 4090 4092 
Q 4678 3434 4678 2328 
Q 4678 1516 4351 937 
Q 4025 359 3406 84 
z
" transform="scale(0.015625)"/>
       <path id="DejaVuSans-4c" d="M 628 4666 
L 1259 4666 
L 1259 531 
L 3531 531 
L 3531 0 
L 628 0 
L 628 4666 
z
" transform="scale(0.015625)"/>
      </defs>
      <use xlink:href="#DejaVuSans-221d" transform="translate(19.482422 0.578125)"/>
      <use xlink:href="#DejaVuSans-31" transform="translate(110.400391 0.578125)"/>
      <use xlink:href="#DejaVuSans-2f" transform="translate(174.023438 0.578125)"/>
      <use xlink:href="#STIXSizeOneSym-Regular-221a" transform="translate(207.714844 17.09375) scale(0.563912)"/>
      <use xlink:href="#DejaVuSans-Oblique-52" transform="translate(279.803207 0.84375)"/>
      <use xlink:href="#DejaVuSans-20" transform="translate(361.785629 0.578125)"/>
      <use xlink:href="#DejaVuSans-28" transform="translate(393.572739 0.578125)"/>
      <use xlink:href="#DejaVuSans-53" transform="translate(432.586411 0.578125)"/>
      <use xlink:href="#DejaVuSans-51" transform="translate(496.062973 0.578125)"/>
      <use xlink:href="#DejaVuSans-4c" transform="translate(574.773911 0.578125)"/>
      <use xlink:href="#DejaVuSans-29" transform="translate(630.486801 0.578125)"/>
      <path d="M 267.303207 97.5 
L 267.303207 103.75 
L 361.785629 103.75 
L 361.785629 97.5 
L 267.303207 97.5 
z
"/>
     </g>
    </g>
    <g id="line2d_68">
     <path d="M 425.986071 62.996719 
L 434.986071 62.996719 
L 443.986071 62.996719 
" style="fill: none; stroke-dasharray: 5.55,2.4; stroke-dashoffset: 0; stroke: #1f77b4; stroke-opacity: 0.5; stroke-width: 1.5"/>
    </g>
    <g id="text_10">
     <!-- SV+Parity QFI bound -->
     <g transform="translate(451.186071 66.146719) scale(0.09 -0.09)">
      <defs>
       <path id="DejaVuSans-46" d="M 628 4666 
L 3309 4666 
L 3309 4134 
L 1259 4134 
L 1259 2759 
L 3109 2759 
L 3109 2228 
L 1259 2228 
L 1259 0 
L 628 0 
L 628 4666 
z
" transform="scale(0.015625)"/>
       <path id="DejaVuSans-49" d="M 628 4666 
L 1259 4666 
L 1259 0 
L 628 0 
L 628 4666 
z
" transform="scale(0.015625)"/>
       <path id="DejaVuSans-64" d="M 2906 2969 
L 2906 4863 
L 3481 4863 
L 3481 0 
L 2906 0 
L 2906 525 
Q 2725 213 2448 61 
Q 2172 -91 1784 -91 
Q 1150 -91 751 415 
Q 353 922 353 1747 
Q 353 2572 751 3078 
Q 1150 3584 1784 3584 
Q 2172 3584 2448 3432 
Q 2725 3281 2906 2969 
z
M 947 1747 
Q 947 1113 1208 752 
Q 1469 391 1925 391 
Q 2381 391 2643 752 
Q 2906 1113 2906 1747 
Q 2906 2381 2643 2742 
Q 2381 3103 1925 3103 
Q 1469 3103 1208 2742 
Q 947 2381 947 1747 
z
" transform="scale(0.015625)"/>
      </defs>
      <use xlink:href="#DejaVuSans-53"/>
      <use xlink:href="#DejaVuSans-56" transform="translate(63.476562 0)"/>
      <use xlink:href="#DejaVuSans-2b" transform="translate(131.884766 0)"/>
      <use xlink:href="#DejaVuSans-50" transform="translate(215.673828 0)"/>
      <use xlink:href="#DejaVuSans-61" transform="translate(271.476562 0)"/>
      <use xlink:href="#DejaVuSans-72" transform="translate(332.755859 0)"/>
      <use xlink:href="#DejaVuSans-69" transform="translate(373.869141 0)"/>
      <use xlink:href="#DejaVuSans-74" transform="translate(401.652344 0)"/>
      <use xlink:href="#DejaVuSans-79" transform="translate(440.861328 0)"/>
      <use xlink:href="#DejaVuSans-20" transform="translate(500.041016 0)"/>
      <use xlink:href="#DejaVuSans-51" transform="translate(531.828125 0)"/>
      <use xlink:href="#DejaVuSans-46" transform="translate(610.539062 0)"/>
      <use xlink:href="#DejaVuSans-49" transform="translate(668.058594 0)"/>
      <use xlink:href="#DejaVuSans-20" transform="translate(697.550781 0)"/>
      <use xlink:href="#DejaVuSans-62" transform="translate(729.337891 0)"/>
      <use xlink:href="#DejaVuSans-6f" transform="translate(792.814453 0)"/>
      <use xlink:href="#DejaVuSans-75" transform="translate(853.996094 0)"/>
      <use xlink:href="#DejaVuSans-6e" transform="translate(917.375 0)"/>
      <use xlink:href="#DejaVuSans-64" transform="translate(980.753906 0)"/>
     </g>
    </g>
    <g id="line2d_69">
     <path d="M 425.986071 76.208437 
L 434.986071 76.208437 
L 443.986071 76.208437 
" style="fill: none; stroke: #1f77b4; stroke-width: 1.5; stroke-linecap: square"/>
     <g>
      <use xlink:href="#m646c91391f" x="434.986071" y="76.208437" style="fill: #1f77b4; stroke: #1f77b4"/>
     </g>
    </g>
    <g id="text_11">
     <!-- SV+Parity best $\Delta\omega_{\mathrm{C}}$ -->
     <g transform="translate(451.186071 79.358437) scale(0.09 -0.09)">
      <defs>
       <path id="DejaVuSans-43" d="M 4122 4306 
L 4122 3641 
Q 3803 3938 3442 4084 
Q 3081 4231 2675 4231 
Q 1875 4231 1450 3742 
Q 1025 3253 1025 2328 
Q 1025 1406 1450 917 
Q 1875 428 2675 428 
Q 3081 428 3442 575 
Q 3803 722 4122 1019 
L 4122 359 
Q 3791 134 3420 21 
Q 3050 -91 2638 -91 
Q 1578 -91 968 557 
Q 359 1206 359 2328 
Q 359 3453 968 4101 
Q 1578 4750 2638 4750 
Q 3056 4750 3426 4639 
Q 3797 4528 4122 4306 
z
" transform="scale(0.015625)"/>
      </defs>
      <use xlink:href="#DejaVuSans-53" transform="translate(0 0.015625)"/>
      <use xlink:href="#DejaVuSans-56" transform="translate(63.476562 0.015625)"/>
      <use xlink:href="#DejaVuSans-2b" transform="translate(131.884766 0.015625)"/>
      <use xlink:href="#DejaVuSans-50" transform="translate(215.673828 0.015625)"/>
      <use xlink:href="#DejaVuSans-61" transform="translate(275.976562 0.015625)"/>
      <use xlink:href="#DejaVuSans-72" transform="translate(337.255859 0.015625)"/>
      <use xlink:href="#DejaVuSans-69" transform="translate(378.369141 0.015625)"/>
      <use xlink:href="#DejaVuSans-74" transform="translate(406.152344 0.015625)"/>
      <use xlink:href="#DejaVuSans-79" transform="translate(445.361328 0.015625)"/>
      <use xlink:href="#DejaVuSans-20" transform="translate(504.541016 0.015625)"/>
      <use xlink:href="#DejaVuSans-62" transform="translate(536.328125 0.015625)"/>
      <use xlink:href="#DejaVuSans-65" transform="translate(599.804688 0.015625)"/>
      <use xlink:href="#DejaVuSans-73" transform="translate(661.328125 0.015625)"/>
      <use xlink:href="#DejaVuSans-74" transform="translate(713.427734 0.015625)"/>
      <use xlink:href="#DejaVuSans-20" transform="translate(752.636719 0.015625)"/>
      <use xlink:href="#DejaVuSans-394" transform="translate(784.423828 0.015625)"/>
      <use xlink:href="#DejaVuSans-Oblique-3c9" transform="translate(852.832031 0.015625)"/>
      <use xlink:href="#DejaVuSans-43" transform="translate(936.572266 -16.390625) scale(0.7)"/>
     </g>
    </g>
    <g id="line2d_70">
     <path d="M 425.986071 89.438437 
L 434.986071 89.438437 
L 443.986071 89.438437 
" style="fill: none; stroke-dasharray: 5.55,2.4; stroke-dashoffset: 0; stroke: #1f77b4; stroke-opacity: 0.7; stroke-width: 1.5"/>
    </g>
    <g id="text_12">
     <!-- SV+Parity: $\alpha = -0.492$ -->
     <g transform="translate(451.186071 92.588437) scale(0.09 -0.09)">
      <defs>
       <path id="DejaVuSans-3a" d="M 750 794 
L 1409 794 
L 1409 0 
L 750 0 
L 750 794 
z
M 750 3309 
L 1409 3309 
L 1409 2516 
L 750 2516 
L 750 3309 
z
" transform="scale(0.015625)"/>
       <path id="DejaVuSans-Oblique-3b1" d="M 2619 1628 
L 2622 2350 
Q 2625 3088 2069 3091 
Q 1653 3094 1394 2747 
Q 1069 2319 959 1747 
Q 825 1059 994 731 
Q 1169 397 1547 397 
Q 1966 397 2319 1063 
L 2619 1628 
z
M 2166 3578 
Q 3141 3594 3128 2584 
Q 3128 2584 3616 3500 
L 4128 3500 
L 3119 1603 
L 3109 919 
Q 3109 766 3194 638 
Q 3291 488 3391 488 
L 3669 488 
L 3575 0 
L 3228 0 
Q 2934 0 2722 263 
Q 2622 394 2619 669 
Q 2416 334 2066 50 
Q 1900 -81 1453 -78 
Q 722 -72 456 397 
Q 184 884 353 1747 
Q 534 2675 1009 3097 
Q 1544 3569 2166 3578 
z
" transform="scale(0.015625)"/>
       <path id="DejaVuSans-3d" d="M 678 2906 
L 4684 2906 
L 4684 2381 
L 678 2381 
L 678 2906 
z
M 678 1631 
L 4684 1631 
L 4684 1100 
L 678 1100 
L 678 1631 
z
" transform="scale(0.015625)"/>
       <path id="DejaVuSans-2e" d="M 684 794 
L 1344 794 
L 1344 0 
L 684 0 
L 684 794 
z
" transform="scale(0.015625)"/>
       <path id="DejaVuSans-34" d="M 2419 4116 
L 825 1625 
L 2419 1625 
L 2419 4116 
z
M 2253 4666 
L 3047 4666 
L 3047 1625 
L 3713 1625 
L 3713 1100 
L 3047 1100 
L 3047 0 
L 2419 0 
L 2419 1100 
L 313 1100 
L 313 1709 
L 2253 4666 
z
" transform="scale(0.015625)"/>
       <path id="DejaVuSans-39" d="M 703 97 
L 703 672 
Q 941 559 1184 500 
Q 1428 441 1663 441 
Q 2288 441 2617 861 
Q 2947 1281 2994 2138 
Q 2813 1869 2534 1725 
Q 2256 1581 1919 1581 
Q 1219 1581 811 2004 
Q 403 2428 403 3163 
Q 403 3881 828 4315 
Q 1253 4750 1959 4750 
Q 2769 4750 3195 4129 
Q 3622 3509 3622 2328 
Q 3622 1225 3098 567 
Q 2575 -91 1691 -91 
Q 1453 -91 1209 -44 
Q 966 3 703 97 
z
M 1959 2075 
Q 2384 2075 2632 2365 
Q 2881 2656 2881 3163 
Q 2881 3666 2632 3958 
Q 2384 4250 1959 4250 
Q 1534 4250 1286 3958 
Q 1038 3666 1038 3163 
Q 1038 2656 1286 2365 
Q 1534 2075 1959 2075 
z
" transform="scale(0.015625)"/>
      </defs>
      <use xlink:href="#DejaVuSans-53" transform="translate(0 0.015625)"/>
      <use xlink:href="#DejaVuSans-56" transform="translate(63.476562 0.015625)"/>
      <use xlink:href="#DejaVuSans-2b" transform="translate(131.884766 0.015625)"/>
      <use xlink:href="#DejaVuSans-50" transform="translate(215.673828 0.015625)"/>
      <use xlink:href="#DejaVuSans-61" transform="translate(275.976562 0.015625)"/>
      <use xlink:href="#DejaVuSans-72" transform="translate(337.255859 0.015625)"/>
      <use xlink:href="#DejaVuSans-69" transform="translate(378.369141 0.015625)"/>
      <use xlink:href="#DejaVuSans-74" transform="translate(406.152344 0.015625)"/>
      <use xlink:href="#DejaVuSans-79" transform="translate(445.361328 0.015625)"/>
      <use xlink:href="#DejaVuSans-3a" transform="translate(504.541016 0.015625)"/>
      <use xlink:href="#DejaVuSans-20" transform="translate(538.232422 0.015625)"/>
      <use xlink:href="#DejaVuSans-Oblique-3b1" transform="translate(570.019531 0.015625)"/>
      <use xlink:href="#DejaVuSans-3d" transform="translate(655.419922 0.015625)"/>
      <use xlink:href="#DejaVuSans-2212" transform="translate(758.691406 0.015625)"/>
      <use xlink:href="#DejaVuSans-30" transform="translate(842.480469 0.015625)"/>
      <use xlink:href="#DejaVuSans-2e" transform="translate(906.103516 0.015625)"/>
      <use xlink:href="#DejaVuSans-34" transform="translate(937.890625 0.015625)"/>
      <use xlink:href="#DejaVuSans-39" transform="translate(1001.513672 0.015625)"/>
      <use xlink:href="#DejaVuSans-32" transform="translate(1063.386719 0.015625)"/>
     </g>
    </g>
   </g>
  </g>
 </g>
 <defs>
  <clipPath id="p396ee4e074">
   <rect x="51.378125" y="22.318125" width="509.427946" height="356.968"/>
  </clipPath>
 </defs>
</svg>
