<?xml version="1.0" encoding="utf-8" standalone="no"?>
<!DOCTYPE svg PUBLIC "-//W3C//DTD SVG 1.1//EN"
  "http://www.w3.org/Graphics/SVG/1.1/DTD/svg11.dtd">
<svg xmlns:xlink="http://www.w3.org/1999/xlink" width="562.901202pt" height="412.500063pt" viewBox="0 0 562.901202 412.500063" xmlns="http://www.w3.org/2000/svg" version="1.1">
 <metadata>
  <rdf:RDF xmlns:dc="http://purl.org/dc/elements/1.1/" xmlns:cc="http://creativecommons.org/ns#" xmlns:rdf="http://www.w3.org/1999/02/22-rdf-syntax-ns#">
   <cc:Work>
    <dc:type rdf:resource="http://purl.org/dc/dcmitype/StillImage"/>
    <dc:date>2026-06-30T15:40:03.217439</dc:date>
    <dc:format>image/svg+xml</dc:format>
    <dc:creator>
     <cc:Agent>
      <dc:title>Matplotlib v3.10.9, https://matplotlib.org/</dc:title>
     </cc:Agent>
    </dc:creator>
   </cc:Work>
  </rdf:RDF>
 </metadata>
 <defs>
  <style type="text/css">*{stroke-linejoin: round; stroke-linecap: butt}</style>
 </defs>
 <g id="figure_1">
  <g id="patch_1">
   <path d="M 0 412.500063 
L 562.901202 412.500063 
L 562.901202 0 
L 0 0 
z
" style="fill: #ffffff"/>
  </g>
  <g id="axes_1">
   <g id="patch_2">
    <path d="M 58.16375 369.514125 
L 555.701202 369.514125 
L 555.701202 22.318125 
L 58.16375 22.318125 
z
" style="fill: #ffffff"/>
   </g>
   <g id="matplotlib.axis_1">
    <g id="xtick_1">
     <g id="line2d_1">
      <path d="M 80.779089 369.514125 
L 80.779089 22.318125 
" clip-path="url(#p8b973ae766)" style="fill: none; stroke: #cccccc; stroke-opacity: 0.3; stroke-linecap: round"/>
     </g>
     <g id="text_1">
      <!-- $\mathdefault{10^{0}}$ -->
      <g style="fill: #262626" transform="translate(71.099089 387.372406) scale(0.11 -0.11)">
       <defs>
        <path id="DejaVuSans-31" d="M 794 531 
L 1825 531 
L 1825 4091 
L 703 3866 
L 703 4441 
L 1819 4666 
L 2450 4666 
L 2450 531 
L 3481 531 
L 3481 0 
L 794 0 
L 794 531 
z
" transform="scale(0.015625)"/>
        <path id="DejaVuSans-30" d="M 2034 4250 
Q 1547 4250 1301 3770 
Q 1056 3291 1056 2328 
Q 1056 1369 1301 889 
Q 1547 409 2034 409 
Q 2525 409 2770 889 
Q 3016 1369 3016 2328 
Q 3016 3291 2770 3770 
Q 2525 4250 2034 4250 
z
M 2034 4750 
Q 2819 4750 3233 4129 
Q 3647 3509 3647 2328 
Q 3647 1150 3233 529 
Q 2819 -91 2034 -91 
Q 1250 -91 836 529 
Q 422 1150 422 2328 
Q 422 3509 836 4129 
Q 1250 4750 2034 4750 
z
" transform="scale(0.015625)"/>
       </defs>
       <use xlink:href="#DejaVuSans-31" transform="translate(0 0.765625)"/>
       <use xlink:href="#DejaVuSans-30" transform="translate(63.623047 0.765625)"/>
       <use xlink:href="#DejaVuSans-30" transform="translate(128.203125 39.046875) scale(0.7)"/>
      </g>
     </g>
    </g>
    <g id="xtick_2">
     <g id="line2d_2">
      <path d="M 382.316938 369.514125 
L 382.316938 22.318125 
" clip-path="url(#p8b973ae766)" style="fill: none; stroke: #cccccc; stroke-opacity: 0.3; stroke-linecap: round"/>
     </g>
     <g id="text_2">
      <!-- $\mathdefault{10^{1}}$ -->
      <g style="fill: #262626" transform="translate(372.636938 387.372406) scale(0.11 -0.11)">
       <use xlink:href="#DejaVuSans-31" transform="translate(0 0.684375)"/>
       <use xlink:href="#DejaVuSans-30" transform="translate(63.623047 0.684375)"/>
       <use xlink:href="#DejaVuSans-31" transform="translate(128.203125 38.965625) scale(0.7)"/>
      </g>
     </g>
    </g>
    <g id="xtick_3">
     <g id="line2d_3">
      <path d="M 66.981473 369.514125 
L 66.981473 22.318125 
" clip-path="url(#p8b973ae766)" style="fill: none; stroke: #cccccc; stroke-opacity: 0.3; stroke-linecap: round"/>
     </g>
    </g>
    <g id="xtick_4">
     <g id="line2d_4">
      <path d="M 171.551026 369.514125 
L 171.551026 22.318125 
" clip-path="url(#p8b973ae766)" style="fill: none; stroke: #cccccc; stroke-opacity: 0.3; stroke-linecap: round"/>
     </g>
    </g>
    <g id="xtick_5">
     <g id="line2d_5">
      <path d="M 224.649206 369.514125 
L 224.649206 22.318125 
" clip-path="url(#p8b973ae766)" style="fill: none; stroke: #cccccc; stroke-opacity: 0.3; stroke-linecap: round"/>
     </g>
    </g>
    <g id="xtick_6">
     <g id="line2d_6">
      <path d="M 262.322964 369.514125 
L 262.322964 22.318125 
" clip-path="url(#p8b973ae766)" style="fill: none; stroke: #cccccc; stroke-opacity: 0.3; stroke-linecap: round"/>
     </g>
    </g>
    <g id="xtick_7">
     <g id="line2d_7">
      <path d="M 291.545001 369.514125 
L 291.545001 22.318125 
" clip-path="url(#p8b973ae766)" style="fill: none; stroke: #cccccc; stroke-opacity: 0.3; stroke-linecap: round"/>
     </g>
    </g>
    <g id="xtick_8">
     <g id="line2d_8">
      <path d="M 315.421143 369.514125 
L 315.421143 22.318125 
" clip-path="url(#p8b973ae766)" style="fill: none; stroke: #cccccc; stroke-opacity: 0.3; stroke-linecap: round"/>
     </g>
    </g>
    <g id="xtick_9">
     <g id="line2d_9">
      <path d="M 335.608134 369.514125 
L 335.608134 22.318125 
" clip-path="url(#p8b973ae766)" style="fill: none; stroke: #cccccc; stroke-opacity: 0.3; stroke-linecap: round"/>
     </g>
    </g>
    <g id="xtick_10">
     <g id="line2d_10">
      <path d="M 353.094901 369.514125 
L 353.094901 22.318125 
" clip-path="url(#p8b973ae766)" style="fill: none; stroke: #cccccc; stroke-opacity: 0.3; stroke-linecap: round"/>
     </g>
    </g>
    <g id="xtick_11">
     <g id="line2d_11">
      <path d="M 368.519323 369.514125 
L 368.519323 22.318125 
" clip-path="url(#p8b973ae766)" style="fill: none; stroke: #cccccc; stroke-opacity: 0.3; stroke-linecap: round"/>
     </g>
    </g>
    <g id="xtick_12">
     <g id="line2d_12">
      <path d="M 473.088876 369.514125 
L 473.088876 22.318125 
" clip-path="url(#p8b973ae766)" style="fill: none; stroke: #cccccc; stroke-opacity: 0.3; stroke-linecap: round"/>
     </g>
    </g>
    <g id="xtick_13">
     <g id="line2d_13">
      <path d="M 526.187055 369.514125 
L 526.187055 22.318125 
" clip-path="url(#p8b973ae766)" style="fill: none; stroke: #cccccc; stroke-opacity: 0.3; stroke-linecap: round"/>
     </g>
    </g>
    <g id="text_3">
     <!-- Mean photon number $\langle N \rangle$ -->
     <g style="fill: #262626" transform="translate(231.152476 402.780063) scale(0.12 -0.12)">
      <defs>
       <path id="DejaVuSans-4d" d="M 628 4666 
L 1569 4666 
L 2759 1491 
L 3956 4666 
L 4897 4666 
L 4897 0 
L 4281 0 
L 4281 4097 
L 3078 897 
L 2444 897 
L 1241 4097 
L 1241 0 
L 628 0 
L 628 4666 
z
" transform="scale(0.015625)"/>
       <path id="DejaVuSans-65" d="M 3597 1894 
L 3597 1613 
L 953 1613 
Q 991 1019 1311 708 
Q 1631 397 2203 397 
Q 2534 397 2845 478 
Q 3156 559 3463 722 
L 3463 178 
Q 3153 47 2828 -22 
Q 2503 -91 2169 -91 
Q 1331 -91 842 396 
Q 353 884 353 1716 
Q 353 2575 817 3079 
Q 1281 3584 2069 3584 
Q 2775 3584 3186 3129 
Q 3597 2675 3597 1894 
z
M 3022 2063 
Q 3016 2534 2758 2815 
Q 2500 3097 2075 3097 
Q 1594 3097 1305 2825 
Q 1016 2553 972 2059 
L 3022 2063 
z
" transform="scale(0.015625)"/>
       <path id="DejaVuSans-61" d="M 2194 1759 
Q 1497 1759 1228 1600 
Q 959 1441 959 1056 
Q 959 750 1161 570 
Q 1363 391 1709 391 
Q 2188 391 2477 730 
Q 2766 1069 2766 1631 
L 2766 1759 
L 2194 1759 
z
M 3341 1997 
L 3341 0 
L 2766 0 
L 2766 531 
Q 2569 213 2275 61 
Q 1981 -91 1556 -91 
Q 1019 -91 701 211 
Q 384 513 384 1019 
Q 384 1609 779 1909 
Q 1175 2209 1959 2209 
L 2766 2209 
L 2766 2266 
Q 2766 2663 2505 2880 
Q 2244 3097 1772 3097 
Q 1472 3097 1187 3025 
Q 903 2953 641 2809 
L 641 3341 
Q 956 3463 1253 3523 
Q 1550 3584 1831 3584 
Q 2591 3584 2966 3190 
Q 3341 2797 3341 1997 
z
" transform="scale(0.015625)"/>
       <path id="DejaVuSans-6e" d="M 3513 2113 
L 3513 0 
L 2938 0 
L 2938 2094 
Q 2938 2591 2744 2837 
Q 2550 3084 2163 3084 
Q 1697 3084 1428 2787 
Q 1159 2491 1159 1978 
L 1159 0 
L 581 0 
L 581 3500 
L 1159 3500 
L 1159 2956 
Q 1366 3272 1645 3428 
Q 1925 3584 2291 3584 
Q 2894 3584 3203 3211 
Q 3513 2838 3513 2113 
z
" transform="scale(0.015625)"/>
       <path id="DejaVuSans-20" transform="scale(0.015625)"/>
       <path id="DejaVuSans-70" d="M 1159 525 
L 1159 -1331 
L 581 -1331 
L 581 3500 
L 1159 3500 
L 1159 2969 
Q 1341 3281 1617 3432 
Q 1894 3584 2278 3584 
Q 2916 3584 3314 3078 
Q 3713 2572 3713 1747 
Q 3713 922 3314 415 
Q 2916 -91 2278 -91 
Q 1894 -91 1617 61 
Q 1341 213 1159 525 
z
M 3116 1747 
Q 3116 2381 2855 2742 
Q 2594 3103 2138 3103 
Q 1681 3103 1420 2742 
Q 1159 2381 1159 1747 
Q 1159 1113 1420 752 
Q 1681 391 2138 391 
Q 2594 391 2855 752 
Q 3116 1113 3116 1747 
z
" transform="scale(0.015625)"/>
       <path id="DejaVuSans-68" d="M 3513 2113 
L 3513 0 
L 2938 0 
L 2938 2094 
Q 2938 2591 2744 2837 
Q 2550 3084 2163 3084 
Q 1697 3084 1428 2787 
Q 1159 2491 1159 1978 
L 1159 0 
L 581 0 
L 581 4863 
L 1159 4863 
L 1159 2956 
Q 1366 3272 1645 3428 
Q 1925 3584 2291 3584 
Q 2894 3584 3203 3211 
Q 3513 2838 3513 2113 
z
" transform="scale(0.015625)"/>
       <path id="DejaVuSans-6f" d="M 1959 3097 
Q 1497 3097 1228 2736 
Q 959 2375 959 1747 
Q 959 1119 1226 758 
Q 1494 397 1959 397 
Q 2419 397 2687 759 
Q 2956 1122 2956 1747 
Q 2956 2369 2687 2733 
Q 2419 3097 1959 3097 
z
M 1959 3584 
Q 2709 3584 3137 3096 
Q 3566 2609 3566 1747 
Q 3566 888 3137 398 
Q 2709 -91 1959 -91 
Q 1206 -91 779 398 
Q 353 888 353 1747 
Q 353 2609 779 3096 
Q 1206 3584 1959 3584 
z
" transform="scale(0.015625)"/>
       <path id="DejaVuSans-74" d="M 1172 4494 
L 1172 3500 
L 2356 3500 
L 2356 3053 
L 1172 3053 
L 1172 1153 
Q 1172 725 1289 603 
Q 1406 481 1766 481 
L 2356 481 
L 2356 0 
L 1766 0 
Q 1100 0 847 248 
Q 594 497 594 1153 
L 594 3053 
L 172 3053 
L 172 3500 
L 594 3500 
L 594 4494 
L 1172 4494 
z
" transform="scale(0.015625)"/>
       <path id="DejaVuSans-75" d="M 544 1381 
L 544 3500 
L 1119 3500 
L 1119 1403 
Q 1119 906 1312 657 
Q 1506 409 1894 409 
Q 2359 409 2629 706 
Q 2900 1003 2900 1516 
L 2900 3500 
L 3475 3500 
L 3475 0 
L 2900 0 
L 2900 538 
Q 2691 219 2414 64 
Q 2138 -91 1772 -91 
Q 1169 -91 856 284 
Q 544 659 544 1381 
z
M 1991 3584 
L 1991 3584 
z
" transform="scale(0.015625)"/>
       <path id="DejaVuSans-6d" d="M 3328 2828 
Q 3544 3216 3844 3400 
Q 4144 3584 4550 3584 
Q 5097 3584 5394 3201 
Q 5691 2819 5691 2113 
L 5691 0 
L 5113 0 
L 5113 2094 
Q 5113 2597 4934 2840 
Q 4756 3084 4391 3084 
Q 3944 3084 3684 2787 
Q 3425 2491 3425 1978 
L 3425 0 
L 2847 0 
L 2847 2094 
Q 2847 2600 2669 2842 
Q 2491 3084 2119 3084 
Q 1678 3084 1418 2786 
Q 1159 2488 1159 1978 
L 1159 0 
L 581 0 
L 581 3500 
L 1159 3500 
L 1159 2956 
Q 1356 3278 1631 3431 
Q 1906 3584 2284 3584 
Q 2666 3584 2933 3390 
Q 3200 3197 3328 2828 
z
" transform="scale(0.015625)"/>
       <path id="DejaVuSans-62" d="M 3116 1747 
Q 3116 2381 2855 2742 
Q 2594 3103 2138 3103 
Q 1681 3103 1420 2742 
Q 1159 2381 1159 1747 
Q 1159 1113 1420 752 
Q 1681 391 2138 391 
Q 2594 391 2855 752 
Q 3116 1113 3116 1747 
z
M 1159 2969 
Q 1341 3281 1617 3432 
Q 1894 3584 2278 3584 
Q 2916 3584 3314 3078 
Q 3713 2572 3713 1747 
Q 3713 922 3314 415 
Q 2916 -91 2278 -91 
Q 1894 -91 1617 61 
Q 1341 213 1159 525 
L 1159 0 
L 581 0 
L 581 4863 
L 1159 4863 
L 1159 2969 
z
" transform="scale(0.015625)"/>
       <path id="DejaVuSans-72" d="M 2631 2963 
Q 2534 3019 2420 3045 
Q 2306 3072 2169 3072 
Q 1681 3072 1420 2755 
Q 1159 2438 1159 1844 
L 1159 0 
L 581 0 
L 581 3500 
L 1159 3500 
L 1159 2956 
Q 1341 3275 1631 3429 
Q 1922 3584 2338 3584 
Q 2397 3584 2469 3576 
Q 2541 3569 2628 3553 
L 2631 2963 
z
" transform="scale(0.015625)"/>
       <path id="DejaVuSans-27e8" d="M 572 2006 
L 1453 4856 
L 1984 4856 
L 1103 2006 
L 1984 -844 
L 1453 -844 
L 572 2006 
z
" transform="scale(0.015625)"/>
       <path id="DejaVuSans-Oblique-4e" d="M 1081 4666 
L 1931 4666 
L 3219 666 
L 4000 4666 
L 4616 4666 
L 3706 0 
L 2853 0 
L 1569 4025 
L 788 0 
L 172 0 
L 1081 4666 
z
" transform="scale(0.015625)"/>
       <path id="DejaVuSans-27e9" d="M 1925 2006 
L 1044 -844 
L 513 -844 
L 1394 2006 
L 513 4856 
L 1044 4856 
L 1925 2006 
z
" transform="scale(0.015625)"/>
      </defs>
      <use xlink:href="#DejaVuSans-4d" transform="translate(0 0.015625)"/>
      <use xlink:href="#DejaVuSans-65" transform="translate(86.279297 0.015625)"/>
      <use xlink:href="#DejaVuSans-61" transform="translate(147.802734 0.015625)"/>
      <use xlink:href="#DejaVuSans-6e" transform="translate(209.082031 0.015625)"/>
      <use xlink:href="#DejaVuSans-20" transform="translate(272.460938 0.015625)"/>
      <use xlink:href="#DejaVuSans-70" transform="translate(304.248047 0.015625)"/>
      <use xlink:href="#DejaVuSans-68" transform="translate(367.724609 0.015625)"/>
      <use xlink:href="#DejaVuSans-6f" transform="translate(431.103516 0.015625)"/>
      <use xlink:href="#DejaVuSans-74" transform="translate(492.285156 0.015625)"/>
      <use xlink:href="#DejaVuSans-6f" transform="translate(531.494141 0.015625)"/>
      <use xlink:href="#DejaVuSans-6e" transform="translate(592.675781 0.015625)"/>
      <use xlink:href="#DejaVuSans-20" transform="translate(656.054688 0.015625)"/>
      <use xlink:href="#DejaVuSans-6e" transform="translate(687.841797 0.015625)"/>
      <use xlink:href="#DejaVuSans-75" transform="translate(751.220703 0.015625)"/>
      <use xlink:href="#DejaVuSans-6d" transform="translate(814.599609 0.015625)"/>
      <use xlink:href="#DejaVuSans-62" transform="translate(912.011719 0.015625)"/>
      <use xlink:href="#DejaVuSans-65" transform="translate(975.488281 0.015625)"/>
      <use xlink:href="#DejaVuSans-72" transform="translate(1037.011719 0.015625)"/>
      <use xlink:href="#DejaVuSans-20" transform="translate(1078.125 0.015625)"/>
      <use xlink:href="#DejaVuSans-27e8" transform="translate(1109.912109 0.015625)"/>
      <use xlink:href="#DejaVuSans-Oblique-4e" transform="translate(1148.925781 0.015625)"/>
      <use xlink:href="#DejaVuSans-27e9" transform="translate(1223.730469 0.015625)"/>
     </g>
    </g>
   </g>
   <g id="matplotlib.axis_2">
    <g id="ytick_1">
     <g id="line2d_14">
      <path d="M 58.16375 274.664566 
L 555.701202 274.664566 
" clip-path="url(#p8b973ae766)" style="fill: none; stroke: #cccccc; stroke-opacity: 0.3; stroke-linecap: round"/>
     </g>
     <g id="text_4">
      <!-- $\mathdefault{10^{-2}}$ -->
      <g style="fill: #262626" transform="translate(22.81375 278.843707) scale(0.11 -0.11)">
       <defs>
        <path id="DejaVuSans-2212" d="M 678 2272 
L 4684 2272 
L 4684 1741 
L 678 1741 
L 678 2272 
z
" transform="scale(0.015625)"/>
        <path id="DejaVuSans-32" d="M 1228 531 
L 3431 531 
L 3431 0 
L 469 0 
L 469 531 
Q 828 903 1448 1529 
Q 2069 2156 2228 2338 
Q 2531 2678 2651 2914 
Q 2772 3150 2772 3378 
Q 2772 3750 2511 3984 
Q 2250 4219 1831 4219 
Q 1534 4219 1204 4116 
Q 875 4013 500 3803 
L 500 4441 
Q 881 4594 1212 4672 
Q 1544 4750 1819 4750 
Q 2544 4750 2975 4387 
Q 3406 4025 3406 3419 
Q 3406 3131 3298 2873 
Q 3191 2616 2906 2266 
Q 2828 2175 2409 1742 
Q 1991 1309 1228 531 
z
" transform="scale(0.015625)"/>
       </defs>
       <use xlink:href="#DejaVuSans-31" transform="translate(0 0.765625)"/>
       <use xlink:href="#DejaVuSans-30" transform="translate(63.623047 0.765625)"/>
       <use xlink:href="#DejaVuSans-2212" transform="translate(128.203125 39.046875) scale(0.7)"/>
       <use xlink:href="#DejaVuSans-32" transform="translate(186.855469 39.046875) scale(0.7)"/>
      </g>
     </g>
    </g>
    <g id="ytick_2">
     <g id="line2d_15">
      <path d="M 58.16375 116.528721 
L 555.701202 116.528721 
" clip-path="url(#p8b973ae766)" style="fill: none; stroke: #cccccc; stroke-opacity: 0.3; stroke-linecap: round"/>
     </g>
     <g id="text_5">
      <!-- $\mathdefault{10^{-1}}$ -->
      <g style="fill: #262626" transform="translate(22.81375 120.707862) scale(0.11 -0.11)">
       <use xlink:href="#DejaVuSans-31" transform="translate(0 0.684375)"/>
       <use xlink:href="#DejaVuSans-30" transform="translate(63.623047 0.684375)"/>
       <use xlink:href="#DejaVuSans-2212" transform="translate(128.203125 38.965625) scale(0.7)"/>
       <use xlink:href="#DejaVuSans-31" transform="translate(186.855469 38.965625) scale(0.7)"/>
      </g>
     </g>
    </g>
    <g id="ytick_3">
     <g id="line2d_16">
      <path d="M 58.16375 357.350438 
L 555.701202 357.350438 
" clip-path="url(#p8b973ae766)" style="fill: none; stroke: #cccccc; stroke-opacity: 0.3; stroke-linecap: round"/>
     </g>
    </g>
    <g id="ytick_4">
     <g id="line2d_17">
      <path d="M 58.16375 337.593146 
L 555.701202 337.593146 
" clip-path="url(#p8b973ae766)" style="fill: none; stroke: #cccccc; stroke-opacity: 0.3; stroke-linecap: round"/>
     </g>
    </g>
    <g id="ytick_5">
     <g id="line2d_18">
      <path d="M 58.16375 322.268199 
L 555.701202 322.268199 
" clip-path="url(#p8b973ae766)" style="fill: none; stroke: #cccccc; stroke-opacity: 0.3; stroke-linecap: round"/>
     </g>
    </g>
    <g id="ytick_6">
     <g id="line2d_19">
      <path d="M 58.16375 309.746806 
L 555.701202 309.746806 
" clip-path="url(#p8b973ae766)" style="fill: none; stroke: #cccccc; stroke-opacity: 0.3; stroke-linecap: round"/>
     </g>
    </g>
    <g id="ytick_7">
     <g id="line2d_20">
      <path d="M 58.16375 299.160118 
L 555.701202 299.160118 
" clip-path="url(#p8b973ae766)" style="fill: none; stroke: #cccccc; stroke-opacity: 0.3; stroke-linecap: round"/>
     </g>
    </g>
    <g id="ytick_8">
     <g id="line2d_21">
      <path d="M 58.16375 289.989513 
L 555.701202 289.989513 
" clip-path="url(#p8b973ae766)" style="fill: none; stroke: #cccccc; stroke-opacity: 0.3; stroke-linecap: round"/>
     </g>
    </g>
    <g id="ytick_9">
     <g id="line2d_22">
      <path d="M 58.16375 281.900466 
L 555.701202 281.900466 
" clip-path="url(#p8b973ae766)" style="fill: none; stroke: #cccccc; stroke-opacity: 0.3; stroke-linecap: round"/>
     </g>
    </g>
    <g id="ytick_10">
     <g id="line2d_23">
      <path d="M 58.16375 227.060933 
L 555.701202 227.060933 
" clip-path="url(#p8b973ae766)" style="fill: none; stroke: #cccccc; stroke-opacity: 0.3; stroke-linecap: round"/>
     </g>
    </g>
    <g id="ytick_11">
     <g id="line2d_24">
      <path d="M 58.16375 199.214593 
L 555.701202 199.214593 
" clip-path="url(#p8b973ae766)" style="fill: none; stroke: #cccccc; stroke-opacity: 0.3; stroke-linecap: round"/>
     </g>
    </g>
    <g id="ytick_12">
     <g id="line2d_25">
      <path d="M 58.16375 179.457301 
L 555.701202 179.457301 
" clip-path="url(#p8b973ae766)" style="fill: none; stroke: #cccccc; stroke-opacity: 0.3; stroke-linecap: round"/>
     </g>
    </g>
    <g id="ytick_13">
     <g id="line2d_26">
      <path d="M 58.16375 164.132354 
L 555.701202 164.132354 
" clip-path="url(#p8b973ae766)" style="fill: none; stroke: #cccccc; stroke-opacity: 0.3; stroke-linecap: round"/>
     </g>
    </g>
    <g id="ytick_14">
     <g id="line2d_27">
      <path d="M 58.16375 151.610961 
L 555.701202 151.610961 
" clip-path="url(#p8b973ae766)" style="fill: none; stroke: #cccccc; stroke-opacity: 0.3; stroke-linecap: round"/>
     </g>
    </g>
    <g id="ytick_15">
     <g id="line2d_28">
      <path d="M 58.16375 141.024274 
L 555.701202 141.024274 
" clip-path="url(#p8b973ae766)" style="fill: none; stroke: #cccccc; stroke-opacity: 0.3; stroke-linecap: round"/>
     </g>
    </g>
    <g id="ytick_16">
     <g id="line2d_29">
      <path d="M 58.16375 131.853668 
L 555.701202 131.853668 
" clip-path="url(#p8b973ae766)" style="fill: none; stroke: #cccccc; stroke-opacity: 0.3; stroke-linecap: round"/>
     </g>
    </g>
    <g id="ytick_17">
     <g id="line2d_30">
      <path d="M 58.16375 123.764621 
L 555.701202 123.764621 
" clip-path="url(#p8b973ae766)" style="fill: none; stroke: #cccccc; stroke-opacity: 0.3; stroke-linecap: round"/>
     </g>
    </g>
    <g id="ytick_18">
     <g id="line2d_31">
      <path d="M 58.16375 68.925089 
L 555.701202 68.925089 
" clip-path="url(#p8b973ae766)" style="fill: none; stroke: #cccccc; stroke-opacity: 0.3; stroke-linecap: round"/>
     </g>
    </g>
    <g id="ytick_19">
     <g id="line2d_32">
      <path d="M 58.16375 41.078749 
L 555.701202 41.078749 
" clip-path="url(#p8b973ae766)" style="fill: none; stroke: #cccccc; stroke-opacity: 0.3; stroke-linecap: round"/>
     </g>
    </g>
    <g id="text_6">
     <!-- $\Delta\omega$ -->
     <g style="fill: #262626" transform="translate(16.318125 205.096125) rotate(-90) scale(0.12 -0.12)">
      <defs>
       <path id="DejaVuSans-394" d="M 2188 4044 
L 906 525 
L 3472 525 
L 2188 4044 
z
M 50 0 
L 1831 4666 
L 2547 4666 
L 4325 0 
L 50 0 
z
" transform="scale(0.015625)"/>
       <path id="DejaVuSans-Oblique-3c9" d="M 1369 -91 
Q 72 -91 434 1766 
Q 575 2500 1256 3500 
L 1875 3500 
Q 1231 2500 1088 1750 
Q 819 397 1519 397 
Q 2166 397 2478 2078 
L 3009 2078 
Q 2669 388 3316 397 
Q 4013 403 4275 1750 
Q 4419 2500 4169 3500 
L 4788 3500 
Q 5075 2500 4934 1766 
Q 4578 -94 3278 -91 
Q 2428 -88 2503 844 
Q 2194 -91 1369 -91 
z
" transform="scale(0.015625)"/>
      </defs>
      <use xlink:href="#DejaVuSans-394" transform="translate(0 0.09375)"/>
      <use xlink:href="#DejaVuSans-Oblique-3c9" transform="translate(68.408203 0.09375)"/>
     </g>
    </g>
   </g>
   <g id="line2d_33">
    <path d="M 80.779089 116.528721 
L 90.009839 121.369614 
L 99.24059 126.210508 
L 108.47134 131.051401 
L 117.702091 135.892294 
L 126.932841 140.733187 
L 136.163592 145.574081 
L 145.394342 150.414974 
L 154.625093 155.255867 
L 163.855843 160.09676 
L 173.086594 164.937653 
L 182.317344 169.778547 
L 191.548095 174.61944 
L 200.778845 179.460333 
L 210.009596 184.301226 
L 219.240346 189.142119 
L 228.471097 193.983013 
L 237.701847 198.823906 
L 246.932598 203.664799 
L 256.163348 208.505692 
L 265.394099 213.346585 
L 274.624849 218.187479 
L 283.8556 223.028372 
L 293.08635 227.869265 
L 302.317101 232.710158 
L 311.547851 237.551052 
L 320.778602 242.391945 
L 330.009352 247.232838 
L 339.240103 252.073731 
L 348.470853 256.914624 
L 357.701603 261.755518 
L 366.932354 266.596411 
L 376.163104 271.437304 
L 385.393855 276.278197 
L 394.624605 281.11909 
L 403.855356 285.959984 
L 413.086106 290.800877 
L 422.316857 295.64177 
L 431.547607 300.482663 
L 440.778358 305.323557 
L 450.009108 310.16445 
L 459.239859 315.005343 
L 468.470609 319.846236 
L 477.70136 324.687129 
L 486.93211 329.528023 
L 496.162861 334.368916 
L 505.393611 339.209809 
L 514.624362 344.050702 
L 523.855112 348.891595 
L 533.085863 353.732489 
" clip-path="url(#p8b973ae766)" style="fill: none; stroke-dasharray: 5.55,2.4; stroke-dashoffset: 0; stroke: #1a1a1a; stroke-opacity: 0.4; stroke-width: 1.5"/>
   </g>
   <g id="line2d_34">
    <path d="M 80.779089 116.528721 
L 90.009839 118.949168 
L 99.24059 121.369614 
L 108.47134 123.790061 
L 117.702091 126.210508 
L 126.932841 128.630954 
L 136.163592 131.051401 
L 145.394342 133.471847 
L 154.625093 135.892294 
L 163.855843 138.312741 
L 173.086594 140.733187 
L 182.317344 143.153634 
L 191.548095 145.574081 
L 200.778845 147.994527 
L 210.009596 150.414974 
L 219.240346 152.83542 
L 228.471097 155.255867 
L 237.701847 157.676314 
L 246.932598 160.09676 
L 256.163348 162.517207 
L 265.394099 164.937653 
L 274.624849 167.3581 
L 283.8556 169.778547 
L 293.08635 172.198993 
L 302.317101 174.61944 
L 311.547851 177.039886 
L 320.778602 179.460333 
L 330.009352 181.88078 
L 339.240103 184.301226 
L 348.470853 186.721673 
L 357.701603 189.142119 
L 366.932354 191.562566 
L 376.163104 193.983013 
L 385.393855 196.403459 
L 394.624605 198.823906 
L 403.855356 201.244352 
L 413.086106 203.664799 
L 422.316857 206.085246 
L 431.547607 208.505692 
L 440.778358 210.926139 
L 450.009108 213.346585 
L 459.239859 215.767032 
L 468.470609 218.187479 
L 477.70136 220.607925 
L 486.93211 223.028372 
L 496.162861 225.448819 
L 505.393611 227.869265 
L 514.624362 230.289712 
L 523.855112 232.710158 
L 533.085863 235.130605 
" clip-path="url(#p8b973ae766)" style="fill: none; stroke-dasharray: 1.5,2.475; stroke-dashoffset: 0; stroke: #1a1a1a; stroke-opacity: 0.4; stroke-width: 1.5"/>
   </g>
   <g id="line2d_35">
    <path d="M 171.551026 137.120551 
" clip-path="url(#p8b973ae766)" style="fill: none; stroke-dasharray: 5.55,2.4; stroke-dashoffset: 0; stroke: #4c72b0; stroke-opacity: 0.5; stroke-width: 1.5"/>
   </g>
   <g id="line2d_36">
    <path d="M 171.551026 38.099761 
" clip-path="url(#p8b973ae766)" style="fill: none; stroke: #4c72b0; stroke-width: 1.5; stroke-linecap: round"/>
    <defs>
     <path id="m04889f42c1" d="M 0 3 
C 0.795609 3 1.55874 2.683901 2.12132 2.12132 
C 2.683901 1.55874 3 0.795609 3 0 
C 3 -0.795609 2.683901 -1.55874 2.12132 -2.12132 
C 1.55874 -2.683901 0.795609 -3 0 -3 
C -0.795609 -3 -1.55874 -2.683901 -2.12132 -2.12132 
C -2.683901 -1.55874 -3 -0.795609 -3 0 
C -3 0.795609 -2.683901 1.55874 -2.12132 2.12132 
C -1.55874 2.683901 -0.795609 3 0 3 
z
" style="stroke: #4c72b0"/>
    </defs>
    <g clip-path="url(#p8b973ae766)">
     <use xlink:href="#m04889f42c1" x="171.551026" y="38.099761" style="fill: #4c72b0; stroke: #4c72b0"/>
    </g>
   </g>
   <g id="patch_3">
    <path d="M 58.16375 369.514125 
L 58.16375 22.318125 
" style="fill: none; stroke: #cccccc; stroke-width: 1.25; stroke-linejoin: miter; stroke-linecap: square"/>
   </g>
   <g id="patch_4">
    <path d="M 555.701202 369.514125 
L 555.701202 22.318125 
" style="fill: none; stroke: #cccccc; stroke-width: 1.25; stroke-linejoin: miter; stroke-linecap: square"/>
   </g>
   <g id="patch_5">
    <path d="M 58.16375 369.514125 
L 555.701202 369.514125 
" style="fill: none; stroke: #cccccc; stroke-width: 1.25; stroke-linejoin: miter; stroke-linecap: square"/>
   </g>
   <g id="patch_6">
    <path d="M 58.16375 22.318125 
L 555.701202 22.318125 
" style="fill: none; stroke: #cccccc; stroke-width: 1.25; stroke-linejoin: miter; stroke-linecap: square"/>
   </g>
   <g id="text_7">
    <!-- SV + Parity Measurement - - - Phase Sensitivity Scaling -->
    <g style="fill: #262626" transform="translate(145.017788 16.318125) scale(0.12 -0.12)">
     <defs>
      <path id="DejaVuSans-53" d="M 3425 4513 
L 3425 3897 
Q 3066 4069 2747 4153 
Q 2428 4238 2131 4238 
Q 1616 4238 1336 4038 
Q 1056 3838 1056 3469 
Q 1056 3159 1242 3001 
Q 1428 2844 1947 2747 
L 2328 2669 
Q 3034 2534 3370 2195 
Q 3706 1856 3706 1288 
Q 3706 609 3251 259 
Q 2797 -91 1919 -91 
Q 1588 -91 1214 -16 
Q 841 59 441 206 
L 441 856 
Q 825 641 1194 531 
Q 1563 422 1919 422 
Q 2459 422 2753 634 
Q 3047 847 3047 1241 
Q 3047 1584 2836 1778 
Q 2625 1972 2144 2069 
L 1759 2144 
Q 1053 2284 737 2584 
Q 422 2884 422 3419 
Q 422 4038 858 4394 
Q 1294 4750 2059 4750 
Q 2388 4750 2728 4690 
Q 3069 4631 3425 4513 
z
" transform="scale(0.015625)"/>
      <path id="DejaVuSans-56" d="M 1831 0 
L 50 4666 
L 709 4666 
L 2188 738 
L 3669 4666 
L 4325 4666 
L 2547 0 
L 1831 0 
z
" transform="scale(0.015625)"/>
      <path id="DejaVuSans-2b" d="M 2944 4013 
L 2944 2272 
L 4684 2272 
L 4684 1741 
L 2944 1741 
L 2944 0 
L 2419 0 
L 2419 1741 
L 678 1741 
L 678 2272 
L 2419 2272 
L 2419 4013 
L 2944 4013 
z
" transform="scale(0.015625)"/>
      <path id="DejaVuSans-50" d="M 1259 4147 
L 1259 2394 
L 2053 2394 
Q 2494 2394 2734 2622 
Q 2975 2850 2975 3272 
Q 2975 3691 2734 3919 
Q 2494 4147 2053 4147 
L 1259 4147 
z
M 628 4666 
L 2053 4666 
Q 2838 4666 3239 4311 
Q 3641 3956 3641 3272 
Q 3641 2581 3239 2228 
Q 2838 1875 2053 1875 
L 1259 1875 
L 1259 0 
L 628 0 
L 628 4666 
z
" transform="scale(0.015625)"/>
      <path id="DejaVuSans-69" d="M 603 3500 
L 1178 3500 
L 1178 0 
L 603 0 
L 603 3500 
z
M 603 4863 
L 1178 4863 
L 1178 4134 
L 603 4134 
L 603 4863 
z
" transform="scale(0.015625)"/>
      <path id="DejaVuSans-79" d="M 2059 -325 
Q 1816 -950 1584 -1140 
Q 1353 -1331 966 -1331 
L 506 -1331 
L 506 -850 
L 844 -850 
Q 1081 -850 1212 -737 
Q 1344 -625 1503 -206 
L 1606 56 
L 191 3500 
L 800 3500 
L 1894 763 
L 2988 3500 
L 3597 3500 
L 2059 -325 
z
" transform="scale(0.015625)"/>
      <path id="DejaVuSans-73" d="M 2834 3397 
L 2834 2853 
Q 2591 2978 2328 3040 
Q 2066 3103 1784 3103 
Q 1356 3103 1142 2972 
Q 928 2841 928 2578 
Q 928 2378 1081 2264 
Q 1234 2150 1697 2047 
L 1894 2003 
Q 2506 1872 2764 1633 
Q 3022 1394 3022 966 
Q 3022 478 2636 193 
Q 2250 -91 1575 -91 
Q 1294 -91 989 -36 
Q 684 19 347 128 
L 347 722 
Q 666 556 975 473 
Q 1284 391 1588 391 
Q 1994 391 2212 530 
Q 2431 669 2431 922 
Q 2431 1156 2273 1281 
Q 2116 1406 1581 1522 
L 1381 1569 
Q 847 1681 609 1914 
Q 372 2147 372 2553 
Q 372 3047 722 3315 
Q 1072 3584 1716 3584 
Q 2034 3584 2315 3537 
Q 2597 3491 2834 3397 
z
" transform="scale(0.015625)"/>
      <path id="DejaVuSans-2d" d="M 313 2009 
L 1997 2009 
L 1997 1497 
L 313 1497 
L 313 2009 
z
" transform="scale(0.015625)"/>
      <path id="DejaVuSans-76" d="M 191 3500 
L 800 3500 
L 1894 563 
L 2988 3500 
L 3597 3500 
L 2284 0 
L 1503 0 
L 191 3500 
z
" transform="scale(0.015625)"/>
      <path id="DejaVuSans-63" d="M 3122 3366 
L 3122 2828 
Q 2878 2963 2633 3030 
Q 2388 3097 2138 3097 
Q 1578 3097 1268 2742 
Q 959 2388 959 1747 
Q 959 1106 1268 751 
Q 1578 397 2138 397 
Q 2388 397 2633 464 
Q 2878 531 3122 666 
L 3122 134 
Q 2881 22 2623 -34 
Q 2366 -91 2075 -91 
Q 1284 -91 818 406 
Q 353 903 353 1747 
Q 353 2603 823 3093 
Q 1294 3584 2113 3584 
Q 2378 3584 2631 3529 
Q 2884 3475 3122 3366 
z
" transform="scale(0.015625)"/>
      <path id="DejaVuSans-6c" d="M 603 4863 
L 1178 4863 
L 1178 0 
L 603 0 
L 603 4863 
z
" transform="scale(0.015625)"/>
      <path id="DejaVuSans-67" d="M 2906 1791 
Q 2906 2416 2648 2759 
Q 2391 3103 1925 3103 
Q 1463 3103 1205 2759 
Q 947 2416 947 1791 
Q 947 1169 1205 825 
Q 1463 481 1925 481 
Q 2391 481 2648 825 
Q 2906 1169 2906 1791 
z
M 3481 434 
Q 3481 -459 3084 -895 
Q 2688 -1331 1869 -1331 
Q 1566 -1331 1297 -1286 
Q 1028 -1241 775 -1147 
L 775 -588 
Q 1028 -725 1275 -790 
Q 1522 -856 1778 -856 
Q 2344 -856 2625 -561 
Q 2906 -266 2906 331 
L 2906 616 
Q 2728 306 2450 153 
Q 2172 0 1784 0 
Q 1141 0 747 490 
Q 353 981 353 1791 
Q 353 2603 747 3093 
Q 1141 3584 1784 3584 
Q 2172 3584 2450 3431 
Q 2728 3278 2906 2969 
L 2906 3500 
L 3481 3500 
L 3481 434 
z
" transform="scale(0.015625)"/>
     </defs>
     <use xlink:href="#DejaVuSans-53"/>
     <use xlink:href="#DejaVuSans-56" transform="translate(63.476562 0)"/>
     <use xlink:href="#DejaVuSans-20" transform="translate(131.884766 0)"/>
     <use xlink:href="#DejaVuSans-2b" transform="translate(163.671875 0)"/>
     <use xlink:href="#DejaVuSans-20" transform="translate(247.460938 0)"/>
     <use xlink:href="#DejaVuSans-50" transform="translate(279.248047 0)"/>
     <use xlink:href="#DejaVuSans-61" transform="translate(335.050781 0)"/>
     <use xlink:href="#DejaVuSans-72" transform="translate(396.330078 0)"/>
     <use xlink:href="#DejaVuSans-69" transform="translate(437.443359 0)"/>
     <use xlink:href="#DejaVuSans-74" transform="translate(465.226562 0)"/>
     <use xlink:href="#DejaVuSans-79" transform="translate(504.435547 0)"/>
     <use xlink:href="#DejaVuSans-20" transform="translate(563.615234 0)"/>
     <use xlink:href="#DejaVuSans-4d" transform="translate(595.402344 0)"/>
     <use xlink:href="#DejaVuSans-65" transform="translate(681.681641 0)"/>
     <use xlink:href="#DejaVuSans-61" transform="translate(743.205078 0)"/>
     <use xlink:href="#DejaVuSans-73" transform="translate(804.484375 0)"/>
     <use xlink:href="#DejaVuSans-75" transform="translate(856.583984 0)"/>
     <use xlink:href="#DejaVuSans-72" transform="translate(919.962891 0)"/>
     <use xlink:href="#DejaVuSans-65" transform="translate(958.826172 0)"/>
     <use xlink:href="#DejaVuSans-6d" transform="translate(1020.349609 0)"/>
     <use xlink:href="#DejaVuSans-65" transform="translate(1117.761719 0)"/>
     <use xlink:href="#DejaVuSans-6e" transform="translate(1179.285156 0)"/>
     <use xlink:href="#DejaVuSans-74" transform="translate(1242.664062 0)"/>
     <use xlink:href="#DejaVuSans-20" transform="translate(1281.873047 0)"/>
     <use xlink:href="#DejaVuSans-2d" transform="translate(1313.660156 0)"/>
     <use xlink:href="#DejaVuSans-2d" transform="translate(1349.744141 0)"/>
     <use xlink:href="#DejaVuSans-2d" transform="translate(1385.828125 0)"/>
     <use xlink:href="#DejaVuSans-20" transform="translate(1421.912109 0)"/>
     <use xlink:href="#DejaVuSans-50" transform="translate(1453.699219 0)"/>
     <use xlink:href="#DejaVuSans-68" transform="translate(1514.001953 0)"/>
     <use xlink:href="#DejaVuSans-61" transform="translate(1577.380859 0)"/>
     <use xlink:href="#DejaVuSans-73" transform="translate(1638.660156 0)"/>
     <use xlink:href="#DejaVuSans-65" transform="translate(1690.759766 0)"/>
     <use xlink:href="#DejaVuSans-20" transform="translate(1752.283203 0)"/>
     <use xlink:href="#DejaVuSans-53" transform="translate(1784.070312 0)"/>
     <use xlink:href="#DejaVuSans-65" transform="translate(1847.546875 0)"/>
     <use xlink:href="#DejaVuSans-6e" transform="translate(1909.070312 0)"/>
     <use xlink:href="#DejaVuSans-73" transform="translate(1972.449219 0)"/>
     <use xlink:href="#DejaVuSans-69" transform="translate(2024.548828 0)"/>
     <use xlink:href="#DejaVuSans-74" transform="translate(2052.332031 0)"/>
     <use xlink:href="#DejaVuSans-69" transform="translate(2091.541016 0)"/>
     <use xlink:href="#DejaVuSans-76" transform="translate(2119.324219 0)"/>
     <use xlink:href="#DejaVuSans-69" transform="translate(2178.503906 0)"/>
     <use xlink:href="#DejaVuSans-74" transform="translate(2206.287109 0)"/>
     <use xlink:href="#DejaVuSans-79" transform="translate(2245.496094 0)"/>
     <use xlink:href="#DejaVuSans-20" transform="translate(2304.675781 0)"/>
     <use xlink:href="#DejaVuSans-53" transform="translate(2336.462891 0)"/>
     <use xlink:href="#DejaVuSans-63" transform="translate(2399.939453 0)"/>
     <use xlink:href="#DejaVuSans-61" transform="translate(2454.919922 0)"/>
     <use xlink:href="#DejaVuSans-6c" transform="translate(2516.199219 0)"/>
     <use xlink:href="#DejaVuSans-69" transform="translate(2543.982422 0)"/>
     <use xlink:href="#DejaVuSans-6e" transform="translate(2571.765625 0)"/>
     <use xlink:href="#DejaVuSans-67" transform="translate(2635.144531 0)"/>
    </g>
   </g>
   <g id="legend_1">
    <g id="patch_7">
     <path d="M 426.618702 84.848438 
L 549.401202 84.848438 
Q 551.201202 84.848438 551.201202 83.048438 
L 551.201202 28.618125 
Q 551.201202 26.818125 549.401202 26.818125 
L 426.618702 26.818125 
Q 424.818702 26.818125 424.818702 28.618125 
L 424.818702 83.048438 
Q 424.818702 84.848438 426.618702 84.848438 
z
" style="fill: #ffffff; opacity: 0.8; stroke: #cccccc; stroke-linejoin: miter"/>
    </g>
    <g id="line2d_37">
     <path d="M 428.418702 34.108125 
L 437.418702 34.108125 
L 446.418702 34.108125 
" style="fill: none; stroke-dasharray: 5.55,2.4; stroke-dashoffset: 0; stroke: #1a1a1a; stroke-opacity: 0.4; stroke-width: 1.5"/>
    </g>
    <g id="text_8">
     <!-- $\propto 1/R$ (Heisenberg) -->
     <g style="fill: #262626" transform="translate(453.618702 37.258125) scale(0.09 -0.09)">
      <defs>
       <path id="DejaVuSans-221d" d="M 1647 1134 
Q 2163 1134 2472 1884 
Q 2075 2703 1647 2703 
Q 1334 2703 1175 2478 
Q 1006 2238 1006 1919 
Q 1006 1569 1175 1353 
Q 1350 1134 1647 1134 
z
M 3884 1128 
L 3884 716 
L 3644 716 
Q 3416 716 3247 809 
Q 3078 894 2916 1091 
Q 2819 1203 2666 1466 
Q 2456 1091 2272 925 
Q 2044 725 1681 725 
Q 1259 725 981 1041 
Q 688 1372 688 1919 
Q 688 2444 981 2800 
Q 1241 3116 1688 3116 
Q 1916 3116 2084 3022 
Q 2281 2919 2416 2741 
Q 2541 2581 2666 2366 
Q 2875 2741 3059 2906 
Q 3288 3106 3650 3106 
L 3884 3106 
L 3884 2697 
L 3684 2697 
Q 3222 2697 2859 1947 
Q 3256 1128 3684 1128 
L 3884 1128 
z
" transform="scale(0.015625)"/>
       <path id="DejaVuSans-2f" d="M 1625 4666 
L 2156 4666 
L 531 -594 
L 0 -594 
L 1625 4666 
z
" transform="scale(0.015625)"/>
       <path id="DejaVuSans-Oblique-52" d="M 1613 4147 
L 1294 2491 
L 2106 2491 
Q 2584 2491 2879 2755 
Q 3175 3019 3175 3444 
Q 3175 3784 2976 3965 
Q 2778 4147 2406 4147 
L 1613 4147 
z
M 2772 2241 
Q 2972 2194 3105 2009 
Q 3238 1825 3413 1275 
L 3809 0 
L 3144 0 
L 2778 1197 
Q 2638 1659 2453 1815 
Q 2269 1972 1888 1972 
L 1191 1972 
L 806 0 
L 172 0 
L 1081 4666 
L 2503 4666 
Q 3150 4666 3495 4373 
Q 3841 4081 3841 3531 
Q 3841 3044 3547 2687 
Q 3253 2331 2772 2241 
z
" transform="scale(0.015625)"/>
       <path id="DejaVuSans-28" d="M 1984 4856 
Q 1566 4138 1362 3434 
Q 1159 2731 1159 2009 
Q 1159 1288 1364 580 
Q 1569 -128 1984 -844 
L 1484 -844 
Q 1016 -109 783 600 
Q 550 1309 550 2009 
Q 550 2706 781 3412 
Q 1013 4119 1484 4856 
L 1984 4856 
z
" transform="scale(0.015625)"/>
       <path id="DejaVuSans-48" d="M 628 4666 
L 1259 4666 
L 1259 2753 
L 3553 2753 
L 3553 4666 
L 4184 4666 
L 4184 0 
L 3553 0 
L 3553 2222 
L 1259 2222 
L 1259 0 
L 628 0 
L 628 4666 
z
" transform="scale(0.015625)"/>
       <path id="DejaVuSans-29" d="M 513 4856 
L 1013 4856 
Q 1481 4119 1714 3412 
Q 1947 2706 1947 2009 
Q 1947 1309 1714 600 
Q 1481 -109 1013 -844 
L 513 -844 
Q 928 -128 1133 580 
Q 1338 1288 1338 2009 
Q 1338 2731 1133 3434 
Q 928 4138 513 4856 
z
" transform="scale(0.015625)"/>
      </defs>
      <use xlink:href="#DejaVuSans-221d" transform="translate(19.482422 0.015625)"/>
      <use xlink:href="#DejaVuSans-31" transform="translate(110.400391 0.015625)"/>
      <use xlink:href="#DejaVuSans-2f" transform="translate(174.023438 0.015625)"/>
      <use xlink:href="#DejaVuSans-Oblique-52" transform="translate(205.964844 0.015625)"/>
      <use xlink:href="#DejaVuSans-20" transform="translate(275.447266 0.015625)"/>
      <use xlink:href="#DejaVuSans-28" transform="translate(307.234375 0.015625)"/>
      <use xlink:href="#DejaVuSans-48" transform="translate(346.248047 0.015625)"/>
      <use xlink:href="#DejaVuSans-65" transform="translate(421.443359 0.015625)"/>
      <use xlink:href="#DejaVuSans-69" transform="translate(482.966797 0.015625)"/>
      <use xlink:href="#DejaVuSans-73" transform="translate(510.75 0.015625)"/>
      <use xlink:href="#DejaVuSans-65" transform="translate(562.849609 0.015625)"/>
      <use xlink:href="#DejaVuSans-6e" transform="translate(624.373047 0.015625)"/>
      <use xlink:href="#DejaVuSans-62" transform="translate(687.751953 0.015625)"/>
      <use xlink:href="#DejaVuSans-65" transform="translate(751.228516 0.015625)"/>
      <use xlink:href="#DejaVuSans-72" transform="translate(812.751953 0.015625)"/>
      <use xlink:href="#DejaVuSans-67" transform="translate(853.865234 0.015625)"/>
      <use xlink:href="#DejaVuSans-29" transform="translate(917.341797 0.015625)"/>
     </g>
    </g>
    <g id="line2d_38">
     <path d="M 428.418702 49.786406 
L 437.418702 49.786406 
L 446.418702 49.786406 
" style="fill: none; stroke-dasharray: 1.5,2.475; stroke-dashoffset: 0; stroke: #1a1a1a; stroke-opacity: 0.4; stroke-width: 1.5"/>
    </g>
    <g id="text_9">
     <!-- $\propto 1/\sqrt{R}$ (SQL) -->
     <g style="fill: #262626" transform="translate(453.618702 52.936406) scale(0.09 -0.09)">
      <defs>
       <path id="STIXSizeOneSym-Regular-221a" d="M 6970 9933 
L 3373 -1888 
L 3104 -1888 
L 1626 2918 
Q 1555 3149 1465 3251 
Q 1376 3354 1229 3354 
Q 1011 3354 794 3181 
L 717 3309 
L 1766 4115 
L 1926 4115 
L 3379 -602 
L 3405 -602 
L 6605 9933 
L 6970 9933 
z
" transform="scale(0.015625)"/>
       <path id="DejaVuSans-51" d="M 2522 4238 
Q 1834 4238 1429 3725 
Q 1025 3213 1025 2328 
Q 1025 1447 1429 934 
Q 1834 422 2522 422 
Q 3209 422 3611 934 
Q 4013 1447 4013 2328 
Q 4013 3213 3611 3725 
Q 3209 4238 2522 4238 
z
M 3406 84 
L 4238 -825 
L 3475 -825 
L 2784 -78 
Q 2681 -84 2626 -87 
Q 2572 -91 2522 -91 
Q 1538 -91 948 567 
Q 359 1225 359 2328 
Q 359 3434 948 4092 
Q 1538 4750 2522 4750 
Q 3503 4750 4090 4092 
Q 4678 3434 4678 2328 
Q 4678 1516 4351 937 
Q 4025 359 3406 84 
z
" transform="scale(0.015625)"/>
       <path id="DejaVuSans-4c" d="M 628 4666 
L 1259 4666 
L 1259 531 
L 3531 531 
L 3531 0 
L 628 0 
L 628 4666 
z
" transform="scale(0.015625)"/>
      </defs>
      <use xlink:href="#DejaVuSans-221d" transform="translate(19.482422 0.578125)"/>
      <use xlink:href="#DejaVuSans-31" transform="translate(110.400391 0.578125)"/>
      <use xlink:href="#DejaVuSans-2f" transform="translate(174.023438 0.578125)"/>
      <use xlink:href="#STIXSizeOneSym-Regular-221a" transform="translate(207.714844 17.09375) scale(0.563912)"/>
      <use xlink:href="#DejaVuSans-Oblique-52" transform="translate(279.803207 0.84375)"/>
      <use xlink:href="#DejaVuSans-20" transform="translate(361.785629 0.578125)"/>
      <use xlink:href="#DejaVuSans-28" transform="translate(393.572739 0.578125)"/>
      <use xlink:href="#DejaVuSans-53" transform="translate(432.586411 0.578125)"/>
      <use xlink:href="#DejaVuSans-51" transform="translate(496.062973 0.578125)"/>
      <use xlink:href="#DejaVuSans-4c" transform="translate(574.773911 0.578125)"/>
      <use xlink:href="#DejaVuSans-29" transform="translate(630.486801 0.578125)"/>
      <path d="M 267.303207 97.5 
L 267.303207 103.75 
L 361.785629 103.75 
L 361.785629 97.5 
L 267.303207 97.5 
z
"/>
     </g>
    </g>
    <g id="line2d_39">
     <path d="M 428.418702 62.996719 
L 437.418702 62.996719 
L 446.418702 62.996719 
" style="fill: none; stroke-dasharray: 5.55,2.4; stroke-dashoffset: 0; stroke: #4c72b0; stroke-opacity: 0.5; stroke-width: 1.5"/>
    </g>
    <g id="text_10">
     <!-- SV+Parity QFI bound -->
     <g style="fill: #262626" transform="translate(453.618702 66.146719) scale(0.09 -0.09)">
      <defs>
       <path id="DejaVuSans-46" d="M 628 4666 
L 3309 4666 
L 3309 4134 
L 1259 4134 
L 1259 2759 
L 3109 2759 
L 3109 2228 
L 1259 2228 
L 1259 0 
L 628 0 
L 628 4666 
z
" transform="scale(0.015625)"/>
       <path id="DejaVuSans-49" d="M 628 4666 
L 1259 4666 
L 1259 0 
L 628 0 
L 628 4666 
z
" transform="scale(0.015625)"/>
       <path id="DejaVuSans-64" d="M 2906 2969 
L 2906 4863 
L 3481 4863 
L 3481 0 
L 2906 0 
L 2906 525 
Q 2725 213 2448 61 
Q 2172 -91 1784 -91 
Q 1150 -91 751 415 
Q 353 922 353 1747 
Q 353 2572 751 3078 
Q 1150 3584 1784 3584 
Q 2172 3584 2448 3432 
Q 2725 3281 2906 2969 
z
M 947 1747 
Q 947 1113 1208 752 
Q 1469 391 1925 391 
Q 2381 391 2643 752 
Q 2906 1113 2906 1747 
Q 2906 2381 2643 2742 
Q 2381 3103 1925 3103 
Q 1469 3103 1208 2742 
Q 947 2381 947 1747 
z
" transform="scale(0.015625)"/>
      </defs>
      <use xlink:href="#DejaVuSans-53"/>
      <use xlink:href="#DejaVuSans-56" transform="translate(63.476562 0)"/>
      <use xlink:href="#DejaVuSans-2b" transform="translate(131.884766 0)"/>
      <use xlink:href="#DejaVuSans-50" transform="translate(215.673828 0)"/>
      <use xlink:href="#DejaVuSans-61" transform="translate(271.476562 0)"/>
      <use xlink:href="#DejaVuSans-72" transform="translate(332.755859 0)"/>
      <use xlink:href="#DejaVuSans-69" transform="translate(373.869141 0)"/>
      <use xlink:href="#DejaVuSans-74" transform="translate(401.652344 0)"/>
      <use xlink:href="#DejaVuSans-79" transform="translate(440.861328 0)"/>
      <use xlink:href="#DejaVuSans-20" transform="translate(500.041016 0)"/>
      <use xlink:href="#DejaVuSans-51" transform="translate(531.828125 0)"/>
      <use xlink:href="#DejaVuSans-46" transform="translate(610.539062 0)"/>
      <use xlink:href="#DejaVuSans-49" transform="translate(668.058594 0)"/>
      <use xlink:href="#DejaVuSans-20" transform="translate(697.550781 0)"/>
      <use xlink:href="#DejaVuSans-62" transform="translate(729.337891 0)"/>
      <use xlink:href="#DejaVuSans-6f" transform="translate(792.814453 0)"/>
      <use xlink:href="#DejaVuSans-75" transform="translate(853.996094 0)"/>
      <use xlink:href="#DejaVuSans-6e" transform="translate(917.375 0)"/>
      <use xlink:href="#DejaVuSans-64" transform="translate(980.753906 0)"/>
     </g>
    </g>
    <g id="line2d_40">
     <path d="M 428.418702 76.208438 
L 437.418702 76.208438 
L 446.418702 76.208438 
" style="fill: none; stroke: #4c72b0; stroke-width: 1.5; stroke-linecap: round"/>
     <g>
      <use xlink:href="#m04889f42c1" x="437.418702" y="76.208438" style="fill: #4c72b0; stroke: #4c72b0"/>
     </g>
    </g>
    <g id="text_11">
     <!-- SV+Parity best $\Delta\omega_{\mathrm{C}}$ -->
     <g style="fill: #262626" transform="translate(453.618702 79.358438) scale(0.09 -0.09)">
      <defs>
       <path id="DejaVuSans-43" d="M 4122 4306 
L 4122 3641 
Q 3803 3938 3442 4084 
Q 3081 4231 2675 4231 
Q 1875 4231 1450 3742 
Q 1025 3253 1025 2328 
Q 1025 1406 1450 917 
Q 1875 428 2675 428 
Q 3081 428 3442 575 
Q 3803 722 4122 1019 
L 4122 359 
Q 3791 134 3420 21 
Q 3050 -91 2638 -91 
Q 1578 -91 968 557 
Q 359 1206 359 2328 
Q 359 3453 968 4101 
Q 1578 4750 2638 4750 
Q 3056 4750 3426 4639 
Q 3797 4528 4122 4306 
z
" transform="scale(0.015625)"/>
      </defs>
      <use xlink:href="#DejaVuSans-53" transform="translate(0 0.015625)"/>
      <use xlink:href="#DejaVuSans-56" transform="translate(63.476562 0.015625)"/>
      <use xlink:href="#DejaVuSans-2b" transform="translate(131.884766 0.015625)"/>
      <use xlink:href="#DejaVuSans-50" transform="translate(215.673828 0.015625)"/>
      <use xlink:href="#DejaVuSans-61" transform="translate(275.976562 0.015625)"/>
      <use xlink:href="#DejaVuSans-72" transform="translate(337.255859 0.015625)"/>
      <use xlink:href="#DejaVuSans-69" transform="translate(378.369141 0.015625)"/>
      <use xlink:href="#DejaVuSans-74" transform="translate(406.152344 0.015625)"/>
      <use xlink:href="#DejaVuSans-79" transform="translate(445.361328 0.015625)"/>
      <use xlink:href="#DejaVuSans-20" transform="translate(504.541016 0.015625)"/>
      <use xlink:href="#DejaVuSans-62" transform="translate(536.328125 0.015625)"/>
      <use xlink:href="#DejaVuSans-65" transform="translate(599.804688 0.015625)"/>
      <use xlink:href="#DejaVuSans-73" transform="translate(661.328125 0.015625)"/>
      <use xlink:href="#DejaVuSans-74" transform="translate(713.427734 0.015625)"/>
      <use xlink:href="#DejaVuSans-20" transform="translate(752.636719 0.015625)"/>
      <use xlink:href="#DejaVuSans-394" transform="translate(784.423828 0.015625)"/>
      <use xlink:href="#DejaVuSans-Oblique-3c9" transform="translate(852.832031 0.015625)"/>
      <use xlink:href="#DejaVuSans-43" transform="translate(936.572266 -16.390625) scale(0.7)"/>
     </g>
    </g>
   </g>
  </g>
 </g>
 <defs>
  <clipPath id="p8b973ae766">
   <rect x="58.16375" y="22.318125" width="497.537452" height="347.196"/>
  </clipPath>
 </defs>
</svg>
