<?xml version="1.0" encoding="utf-8" standalone="no"?>
<!DOCTYPE svg PUBLIC "-//W3C//DTD SVG 1.1//EN"
  "http://www.w3.org/Graphics/SVG/1.1/DTD/svg11.dtd">
<svg xmlns:xlink="http://www.w3.org/1999/xlink" width="562.934952pt" height="413.193813pt" viewBox="0 0 562.934952 413.193813" xmlns="http://www.w3.org/2000/svg" version="1.1">
 <metadata>
  <rdf:RDF xmlns:dc="http://purl.org/dc/elements/1.1/" xmlns:cc="http://creativecommons.org/ns#" xmlns:rdf="http://www.w3.org/1999/02/22-rdf-syntax-ns#">
   <cc:Work>
    <dc:type rdf:resource="http://purl.org/dc/dcmitype/StillImage"/>
    <dc:date>2026-06-26T18:15:11.156000</dc:date>
    <dc:format>image/svg+xml</dc:format>
    <dc:creator>
     <cc:Agent>
      <dc:title>Matplotlib v3.10.9, https://matplotlib.org/</dc:title>
     </cc:Agent>
    </dc:creator>
   </cc:Work>
  </rdf:RDF>
 </metadata>
 <defs>
  <style type="text/css">*{stroke-linejoin: round; stroke-linecap: butt}</style>
 </defs>
 <g id="figure_1">
  <g id="patch_1">
   <path d="M 0 413.193813 
L 562.934952 413.193813 
L 562.934952 0 
L 0 0 
z
" style="fill: #ffffff"/>
  </g>
  <g id="axes_1">
   <g id="patch_2">
    <path d="M 58.16375 370.234125 
L 555.734952 370.234125 
L 555.734952 22.318125 
L 58.16375 22.318125 
z
" style="fill: #ffffff"/>
   </g>
   <g id="matplotlib.axis_1">
    <g id="xtick_1">
     <g id="line2d_1">
      <path d="M 80.780623 370.234125 
L 80.780623 22.318125 
" clip-path="url(#ped3858c3f2)" style="fill: none; stroke: #cccccc; stroke-opacity: 0.3; stroke-linecap: round"/>
     </g>
     <g id="text_1">
      <!-- $\mathdefault{10^{0}}$ -->
      <g style="fill: #262626" transform="translate(71.100623 388.092406) scale(0.11 -0.11)">
       <defs>
        <path id="DejaVuSans-31" d="M 794 531 
L 1825 531 
L 1825 4091 
L 703 3866 
L 703 4441 
L 1819 4666 
L 2450 4666 
L 2450 531 
L 3481 531 
L 3481 0 
L 794 0 
L 794 531 
z
" transform="scale(0.015625)"/>
        <path id="DejaVuSans-30" d="M 2034 4250 
Q 1547 4250 1301 3770 
Q 1056 3291 1056 2328 
Q 1056 1369 1301 889 
Q 1547 409 2034 409 
Q 2525 409 2770 889 
Q 3016 1369 3016 2328 
Q 3016 3291 2770 3770 
Q 2525 4250 2034 4250 
z
M 2034 4750 
Q 2819 4750 3233 4129 
Q 3647 3509 3647 2328 
Q 3647 1150 3233 529 
Q 2819 -91 2034 -91 
Q 1250 -91 836 529 
Q 422 1150 422 2328 
Q 422 3509 836 4129 
Q 1250 4750 2034 4750 
z
" transform="scale(0.015625)"/>
       </defs>
       <use xlink:href="#DejaVuSans-31" transform="translate(0 0.765625)"/>
       <use xlink:href="#DejaVuSans-30" transform="translate(63.623047 0.765625)"/>
       <use xlink:href="#DejaVuSans-30" transform="translate(128.203125 39.046875) scale(0.7)"/>
      </g>
     </g>
    </g>
    <g id="xtick_2">
     <g id="line2d_2">
      <path d="M 363.128012 370.234125 
L 363.128012 22.318125 
" clip-path="url(#ped3858c3f2)" style="fill: none; stroke: #cccccc; stroke-opacity: 0.3; stroke-linecap: round"/>
     </g>
     <g id="text_2">
      <!-- $\mathdefault{10^{1}}$ -->
      <g style="fill: #262626" transform="translate(353.448012 388.092406) scale(0.11 -0.11)">
       <use xlink:href="#DejaVuSans-31" transform="translate(0 0.684375)"/>
       <use xlink:href="#DejaVuSans-30" transform="translate(63.623047 0.684375)"/>
       <use xlink:href="#DejaVuSans-31" transform="translate(128.203125 38.965625) scale(0.7)"/>
      </g>
     </g>
    </g>
    <g id="xtick_3">
     <g id="line2d_3">
      <path d="M 67.861115 370.234125 
L 67.861115 22.318125 
" clip-path="url(#ped3858c3f2)" style="fill: none; stroke: #cccccc; stroke-opacity: 0.3; stroke-linecap: round"/>
     </g>
    </g>
    <g id="xtick_4">
     <g id="line2d_4">
      <path d="M 165.775656 370.234125 
L 165.775656 22.318125 
" clip-path="url(#ped3858c3f2)" style="fill: none; stroke: #cccccc; stroke-opacity: 0.3; stroke-linecap: round"/>
     </g>
    </g>
    <g id="xtick_5">
     <g id="line2d_5">
      <path d="M 215.494563 370.234125 
L 215.494563 22.318125 
" clip-path="url(#ped3858c3f2)" style="fill: none; stroke: #cccccc; stroke-opacity: 0.3; stroke-linecap: round"/>
     </g>
    </g>
    <g id="xtick_6">
     <g id="line2d_6">
      <path d="M 250.77069 370.234125 
L 250.77069 22.318125 
" clip-path="url(#ped3858c3f2)" style="fill: none; stroke: #cccccc; stroke-opacity: 0.3; stroke-linecap: round"/>
     </g>
    </g>
    <g id="xtick_7">
     <g id="line2d_7">
      <path d="M 278.132979 370.234125 
L 278.132979 22.318125 
" clip-path="url(#ped3858c3f2)" style="fill: none; stroke: #cccccc; stroke-opacity: 0.3; stroke-linecap: round"/>
     </g>
    </g>
    <g id="xtick_8">
     <g id="line2d_8">
      <path d="M 300.489597 370.234125 
L 300.489597 22.318125 
" clip-path="url(#ped3858c3f2)" style="fill: none; stroke: #cccccc; stroke-opacity: 0.3; stroke-linecap: round"/>
     </g>
    </g>
    <g id="xtick_9">
     <g id="line2d_9">
      <path d="M 319.391848 370.234125 
L 319.391848 22.318125 
" clip-path="url(#ped3858c3f2)" style="fill: none; stroke: #cccccc; stroke-opacity: 0.3; stroke-linecap: round"/>
     </g>
    </g>
    <g id="xtick_10">
     <g id="line2d_10">
      <path d="M 335.765723 370.234125 
L 335.765723 22.318125 
" clip-path="url(#ped3858c3f2)" style="fill: none; stroke: #cccccc; stroke-opacity: 0.3; stroke-linecap: round"/>
     </g>
    </g>
    <g id="xtick_11">
     <g id="line2d_11">
      <path d="M 350.208504 370.234125 
L 350.208504 22.318125 
" clip-path="url(#ped3858c3f2)" style="fill: none; stroke: #cccccc; stroke-opacity: 0.3; stroke-linecap: round"/>
     </g>
    </g>
    <g id="xtick_12">
     <g id="line2d_12">
      <path d="M 448.123045 370.234125 
L 448.123045 22.318125 
" clip-path="url(#ped3858c3f2)" style="fill: none; stroke: #cccccc; stroke-opacity: 0.3; stroke-linecap: round"/>
     </g>
    </g>
    <g id="xtick_13">
     <g id="line2d_13">
      <path d="M 497.841953 370.234125 
L 497.841953 22.318125 
" clip-path="url(#ped3858c3f2)" style="fill: none; stroke: #cccccc; stroke-opacity: 0.3; stroke-linecap: round"/>
     </g>
    </g>
    <g id="xtick_14">
     <g id="line2d_14">
      <path d="M 533.118079 370.234125 
L 533.118079 22.318125 
" clip-path="url(#ped3858c3f2)" style="fill: none; stroke: #cccccc; stroke-opacity: 0.3; stroke-linecap: round"/>
     </g>
    </g>
    <g id="text_3">
     <!-- Resource parameter $R$ -->
     <g style="fill: #262626" transform="translate(239.329351 403.473813) scale(0.12 -0.12)">
      <defs>
       <path id="DejaVuSans-52" d="M 2841 2188 
Q 3044 2119 3236 1894 
Q 3428 1669 3622 1275 
L 4263 0 
L 3584 0 
L 2988 1197 
Q 2756 1666 2539 1819 
Q 2322 1972 1947 1972 
L 1259 1972 
L 1259 0 
L 628 0 
L 628 4666 
L 2053 4666 
Q 2853 4666 3247 4331 
Q 3641 3997 3641 3322 
Q 3641 2881 3436 2590 
Q 3231 2300 2841 2188 
z
M 1259 4147 
L 1259 2491 
L 2053 2491 
Q 2509 2491 2742 2702 
Q 2975 2913 2975 3322 
Q 2975 3731 2742 3939 
Q 2509 4147 2053 4147 
L 1259 4147 
z
" transform="scale(0.015625)"/>
       <path id="DejaVuSans-65" d="M 3597 1894 
L 3597 1613 
L 953 1613 
Q 991 1019 1311 708 
Q 1631 397 2203 397 
Q 2534 397 2845 478 
Q 3156 559 3463 722 
L 3463 178 
Q 3153 47 2828 -22 
Q 2503 -91 2169 -91 
Q 1331 -91 842 396 
Q 353 884 353 1716 
Q 353 2575 817 3079 
Q 1281 3584 2069 3584 
Q 2775 3584 3186 3129 
Q 3597 2675 3597 1894 
z
M 3022 2063 
Q 3016 2534 2758 2815 
Q 2500 3097 2075 3097 
Q 1594 3097 1305 2825 
Q 1016 2553 972 2059 
L 3022 2063 
z
" transform="scale(0.015625)"/>
       <path id="DejaVuSans-73" d="M 2834 3397 
L 2834 2853 
Q 2591 2978 2328 3040 
Q 2066 3103 1784 3103 
Q 1356 3103 1142 2972 
Q 928 2841 928 2578 
Q 928 2378 1081 2264 
Q 1234 2150 1697 2047 
L 1894 2003 
Q 2506 1872 2764 1633 
Q 3022 1394 3022 966 
Q 3022 478 2636 193 
Q 2250 -91 1575 -91 
Q 1294 -91 989 -36 
Q 684 19 347 128 
L 347 722 
Q 666 556 975 473 
Q 1284 391 1588 391 
Q 1994 391 2212 530 
Q 2431 669 2431 922 
Q 2431 1156 2273 1281 
Q 2116 1406 1581 1522 
L 1381 1569 
Q 847 1681 609 1914 
Q 372 2147 372 2553 
Q 372 3047 722 3315 
Q 1072 3584 1716 3584 
Q 2034 3584 2315 3537 
Q 2597 3491 2834 3397 
z
" transform="scale(0.015625)"/>
       <path id="DejaVuSans-6f" d="M 1959 3097 
Q 1497 3097 1228 2736 
Q 959 2375 959 1747 
Q 959 1119 1226 758 
Q 1494 397 1959 397 
Q 2419 397 2687 759 
Q 2956 1122 2956 1747 
Q 2956 2369 2687 2733 
Q 2419 3097 1959 3097 
z
M 1959 3584 
Q 2709 3584 3137 3096 
Q 3566 2609 3566 1747 
Q 3566 888 3137 398 
Q 2709 -91 1959 -91 
Q 1206 -91 779 398 
Q 353 888 353 1747 
Q 353 2609 779 3096 
Q 1206 3584 1959 3584 
z
" transform="scale(0.015625)"/>
       <path id="DejaVuSans-75" d="M 544 1381 
L 544 3500 
L 1119 3500 
L 1119 1403 
Q 1119 906 1312 657 
Q 1506 409 1894 409 
Q 2359 409 2629 706 
Q 2900 1003 2900 1516 
L 2900 3500 
L 3475 3500 
L 3475 0 
L 2900 0 
L 2900 538 
Q 2691 219 2414 64 
Q 2138 -91 1772 -91 
Q 1169 -91 856 284 
Q 544 659 544 1381 
z
M 1991 3584 
L 1991 3584 
z
" transform="scale(0.015625)"/>
       <path id="DejaVuSans-72" d="M 2631 2963 
Q 2534 3019 2420 3045 
Q 2306 3072 2169 3072 
Q 1681 3072 1420 2755 
Q 1159 2438 1159 1844 
L 1159 0 
L 581 0 
L 581 3500 
L 1159 3500 
L 1159 2956 
Q 1341 3275 1631 3429 
Q 1922 3584 2338 3584 
Q 2397 3584 2469 3576 
Q 2541 3569 2628 3553 
L 2631 2963 
z
" transform="scale(0.015625)"/>
       <path id="DejaVuSans-63" d="M 3122 3366 
L 3122 2828 
Q 2878 2963 2633 3030 
Q 2388 3097 2138 3097 
Q 1578 3097 1268 2742 
Q 959 2388 959 1747 
Q 959 1106 1268 751 
Q 1578 397 2138 397 
Q 2388 397 2633 464 
Q 2878 531 3122 666 
L 3122 134 
Q 2881 22 2623 -34 
Q 2366 -91 2075 -91 
Q 1284 -91 818 406 
Q 353 903 353 1747 
Q 353 2603 823 3093 
Q 1294 3584 2113 3584 
Q 2378 3584 2631 3529 
Q 2884 3475 3122 3366 
z
" transform="scale(0.015625)"/>
       <path id="DejaVuSans-20" transform="scale(0.015625)"/>
       <path id="DejaVuSans-70" d="M 1159 525 
L 1159 -1331 
L 581 -1331 
L 581 3500 
L 1159 3500 
L 1159 2969 
Q 1341 3281 1617 3432 
Q 1894 3584 2278 3584 
Q 2916 3584 3314 3078 
Q 3713 2572 3713 1747 
Q 3713 922 3314 415 
Q 2916 -91 2278 -91 
Q 1894 -91 1617 61 
Q 1341 213 1159 525 
z
M 3116 1747 
Q 3116 2381 2855 2742 
Q 2594 3103 2138 3103 
Q 1681 3103 1420 2742 
Q 1159 2381 1159 1747 
Q 1159 1113 1420 752 
Q 1681 391 2138 391 
Q 2594 391 2855 752 
Q 3116 1113 3116 1747 
z
" transform="scale(0.015625)"/>
       <path id="DejaVuSans-61" d="M 2194 1759 
Q 1497 1759 1228 1600 
Q 959 1441 959 1056 
Q 959 750 1161 570 
Q 1363 391 1709 391 
Q 2188 391 2477 730 
Q 2766 1069 2766 1631 
L 2766 1759 
L 2194 1759 
z
M 3341 1997 
L 3341 0 
L 2766 0 
L 2766 531 
Q 2569 213 2275 61 
Q 1981 -91 1556 -91 
Q 1019 -91 701 211 
Q 384 513 384 1019 
Q 384 1609 779 1909 
Q 1175 2209 1959 2209 
L 2766 2209 
L 2766 2266 
Q 2766 2663 2505 2880 
Q 2244 3097 1772 3097 
Q 1472 3097 1187 3025 
Q 903 2953 641 2809 
L 641 3341 
Q 956 3463 1253 3523 
Q 1550 3584 1831 3584 
Q 2591 3584 2966 3190 
Q 3341 2797 3341 1997 
z
" transform="scale(0.015625)"/>
       <path id="DejaVuSans-6d" d="M 3328 2828 
Q 3544 3216 3844 3400 
Q 4144 3584 4550 3584 
Q 5097 3584 5394 3201 
Q 5691 2819 5691 2113 
L 5691 0 
L 5113 0 
L 5113 2094 
Q 5113 2597 4934 2840 
Q 4756 3084 4391 3084 
Q 3944 3084 3684 2787 
Q 3425 2491 3425 1978 
L 3425 0 
L 2847 0 
L 2847 2094 
Q 2847 2600 2669 2842 
Q 2491 3084 2119 3084 
Q 1678 3084 1418 2786 
Q 1159 2488 1159 1978 
L 1159 0 
L 581 0 
L 581 3500 
L 1159 3500 
L 1159 2956 
Q 1356 3278 1631 3431 
Q 1906 3584 2284 3584 
Q 2666 3584 2933 3390 
Q 3200 3197 3328 2828 
z
" transform="scale(0.015625)"/>
       <path id="DejaVuSans-74" d="M 1172 4494 
L 1172 3500 
L 2356 3500 
L 2356 3053 
L 1172 3053 
L 1172 1153 
Q 1172 725 1289 603 
Q 1406 481 1766 481 
L 2356 481 
L 2356 0 
L 1766 0 
Q 1100 0 847 248 
Q 594 497 594 1153 
L 594 3053 
L 172 3053 
L 172 3500 
L 594 3500 
L 594 4494 
L 1172 4494 
z
" transform="scale(0.015625)"/>
       <path id="DejaVuSans-Oblique-52" d="M 1613 4147 
L 1294 2491 
L 2106 2491 
Q 2584 2491 2879 2755 
Q 3175 3019 3175 3444 
Q 3175 3784 2976 3965 
Q 2778 4147 2406 4147 
L 1613 4147 
z
M 2772 2241 
Q 2972 2194 3105 2009 
Q 3238 1825 3413 1275 
L 3809 0 
L 3144 0 
L 2778 1197 
Q 2638 1659 2453 1815 
Q 2269 1972 1888 1972 
L 1191 1972 
L 806 0 
L 172 0 
L 1081 4666 
L 2503 4666 
Q 3150 4666 3495 4373 
Q 3841 4081 3841 3531 
Q 3841 3044 3547 2687 
Q 3253 2331 2772 2241 
z
" transform="scale(0.015625)"/>
      </defs>
      <use xlink:href="#DejaVuSans-52" transform="translate(0 0.09375)"/>
      <use xlink:href="#DejaVuSans-65" transform="translate(69.482422 0.09375)"/>
      <use xlink:href="#DejaVuSans-73" transform="translate(131.005859 0.09375)"/>
      <use xlink:href="#DejaVuSans-6f" transform="translate(183.105469 0.09375)"/>
      <use xlink:href="#DejaVuSans-75" transform="translate(244.287109 0.09375)"/>
      <use xlink:href="#DejaVuSans-72" transform="translate(307.666016 0.09375)"/>
      <use xlink:href="#DejaVuSans-63" transform="translate(348.779297 0.09375)"/>
      <use xlink:href="#DejaVuSans-65" transform="translate(403.759766 0.09375)"/>
      <use xlink:href="#DejaVuSans-20" transform="translate(465.283203 0.09375)"/>
      <use xlink:href="#DejaVuSans-70" transform="translate(497.070312 0.09375)"/>
      <use xlink:href="#DejaVuSans-61" transform="translate(560.546875 0.09375)"/>
      <use xlink:href="#DejaVuSans-72" transform="translate(621.826172 0.09375)"/>
      <use xlink:href="#DejaVuSans-61" transform="translate(662.939453 0.09375)"/>
      <use xlink:href="#DejaVuSans-6d" transform="translate(724.21875 0.09375)"/>
      <use xlink:href="#DejaVuSans-65" transform="translate(821.630859 0.09375)"/>
      <use xlink:href="#DejaVuSans-74" transform="translate(883.154297 0.09375)"/>
      <use xlink:href="#DejaVuSans-65" transform="translate(922.363281 0.09375)"/>
      <use xlink:href="#DejaVuSans-72" transform="translate(983.886719 0.09375)"/>
      <use xlink:href="#DejaVuSans-20" transform="translate(1025 0.09375)"/>
      <use xlink:href="#DejaVuSans-Oblique-52" transform="translate(1056.787109 0.09375)"/>
     </g>
    </g>
   </g>
   <g id="matplotlib.axis_2">
    <g id="ytick_1">
     <g id="line2d_15">
      <path d="M 58.16375 341.965037 
L 555.734952 341.965037 
" clip-path="url(#ped3858c3f2)" style="fill: none; stroke: #cccccc; stroke-opacity: 0.3; stroke-linecap: round"/>
     </g>
     <g id="text_4">
      <!-- $\mathdefault{10^{-2}}$ -->
      <g style="fill: #262626" transform="translate(22.81375 346.144177) scale(0.11 -0.11)">
       <defs>
        <path id="DejaVuSans-2212" d="M 678 2272 
L 4684 2272 
L 4684 1741 
L 678 1741 
L 678 2272 
z
" transform="scale(0.015625)"/>
        <path id="DejaVuSans-32" d="M 1228 531 
L 3431 531 
L 3431 0 
L 469 0 
L 469 531 
Q 828 903 1448 1529 
Q 2069 2156 2228 2338 
Q 2531 2678 2651 2914 
Q 2772 3150 2772 3378 
Q 2772 3750 2511 3984 
Q 2250 4219 1831 4219 
Q 1534 4219 1204 4116 
Q 875 4013 500 3803 
L 500 4441 
Q 881 4594 1212 4672 
Q 1544 4750 1819 4750 
Q 2544 4750 2975 4387 
Q 3406 4025 3406 3419 
Q 3406 3131 3298 2873 
Q 3191 2616 2906 2266 
Q 2828 2175 2409 1742 
Q 1991 1309 1228 531 
z
" transform="scale(0.015625)"/>
       </defs>
       <use xlink:href="#DejaVuSans-31" transform="translate(0 0.765625)"/>
       <use xlink:href="#DejaVuSans-30" transform="translate(63.623047 0.765625)"/>
       <use xlink:href="#DejaVuSans-2212" transform="translate(128.203125 39.046875) scale(0.7)"/>
       <use xlink:href="#DejaVuSans-32" transform="translate(186.855469 39.046875) scale(0.7)"/>
      </g>
     </g>
    </g>
    <g id="ytick_2">
     <g id="line2d_16">
      <path d="M 58.16375 292.146137 
L 555.734952 292.146137 
" clip-path="url(#ped3858c3f2)" style="fill: none; stroke: #cccccc; stroke-opacity: 0.3; stroke-linecap: round"/>
     </g>
     <g id="text_5">
      <!-- $\mathdefault{10^{0}}$ -->
      <g style="fill: #262626" transform="translate(29.30375 296.325278) scale(0.11 -0.11)">
       <use xlink:href="#DejaVuSans-31" transform="translate(0 0.765625)"/>
       <use xlink:href="#DejaVuSans-30" transform="translate(63.623047 0.765625)"/>
       <use xlink:href="#DejaVuSans-30" transform="translate(128.203125 39.046875) scale(0.7)"/>
      </g>
     </g>
    </g>
    <g id="ytick_3">
     <g id="line2d_17">
      <path d="M 58.16375 242.327238 
L 555.734952 242.327238 
" clip-path="url(#ped3858c3f2)" style="fill: none; stroke: #cccccc; stroke-opacity: 0.3; stroke-linecap: round"/>
     </g>
     <g id="text_6">
      <!-- $\mathdefault{10^{2}}$ -->
      <g style="fill: #262626" transform="translate(29.30375 246.506378) scale(0.11 -0.11)">
       <use xlink:href="#DejaVuSans-31" transform="translate(0 0.765625)"/>
       <use xlink:href="#DejaVuSans-30" transform="translate(63.623047 0.765625)"/>
       <use xlink:href="#DejaVuSans-32" transform="translate(128.203125 39.046875) scale(0.7)"/>
      </g>
     </g>
    </g>
    <g id="ytick_4">
     <g id="line2d_18">
      <path d="M 58.16375 192.508338 
L 555.734952 192.508338 
" clip-path="url(#ped3858c3f2)" style="fill: none; stroke: #cccccc; stroke-opacity: 0.3; stroke-linecap: round"/>
     </g>
     <g id="text_7">
      <!-- $\mathdefault{10^{4}}$ -->
      <g style="fill: #262626" transform="translate(29.30375 196.687479) scale(0.11 -0.11)">
       <defs>
        <path id="DejaVuSans-34" d="M 2419 4116 
L 825 1625 
L 2419 1625 
L 2419 4116 
z
M 2253 4666 
L 3047 4666 
L 3047 1625 
L 3713 1625 
L 3713 1100 
L 3047 1100 
L 3047 0 
L 2419 0 
L 2419 1100 
L 313 1100 
L 313 1709 
L 2253 4666 
z
" transform="scale(0.015625)"/>
       </defs>
       <use xlink:href="#DejaVuSans-31" transform="translate(0 0.684375)"/>
       <use xlink:href="#DejaVuSans-30" transform="translate(63.623047 0.684375)"/>
       <use xlink:href="#DejaVuSans-34" transform="translate(128.203125 38.965625) scale(0.7)"/>
      </g>
     </g>
    </g>
    <g id="ytick_5">
     <g id="line2d_19">
      <path d="M 58.16375 142.689439 
L 555.734952 142.689439 
" clip-path="url(#ped3858c3f2)" style="fill: none; stroke: #cccccc; stroke-opacity: 0.3; stroke-linecap: round"/>
     </g>
     <g id="text_8">
      <!-- $\mathdefault{10^{6}}$ -->
      <g style="fill: #262626" transform="translate(29.30375 146.868579) scale(0.11 -0.11)">
       <defs>
        <path id="DejaVuSans-36" d="M 2113 2584 
Q 1688 2584 1439 2293 
Q 1191 2003 1191 1497 
Q 1191 994 1439 701 
Q 1688 409 2113 409 
Q 2538 409 2786 701 
Q 3034 994 3034 1497 
Q 3034 2003 2786 2293 
Q 2538 2584 2113 2584 
z
M 3366 4563 
L 3366 3988 
Q 3128 4100 2886 4159 
Q 2644 4219 2406 4219 
Q 1781 4219 1451 3797 
Q 1122 3375 1075 2522 
Q 1259 2794 1537 2939 
Q 1816 3084 2150 3084 
Q 2853 3084 3261 2657 
Q 3669 2231 3669 1497 
Q 3669 778 3244 343 
Q 2819 -91 2113 -91 
Q 1303 -91 875 529 
Q 447 1150 447 2328 
Q 447 3434 972 4092 
Q 1497 4750 2381 4750 
Q 2619 4750 2861 4703 
Q 3103 4656 3366 4563 
z
" transform="scale(0.015625)"/>
       </defs>
       <use xlink:href="#DejaVuSans-31" transform="translate(0 0.765625)"/>
       <use xlink:href="#DejaVuSans-30" transform="translate(63.623047 0.765625)"/>
       <use xlink:href="#DejaVuSans-36" transform="translate(128.203125 39.046875) scale(0.7)"/>
      </g>
     </g>
    </g>
    <g id="ytick_6">
     <g id="line2d_20">
      <path d="M 58.16375 92.870539 
L 555.734952 92.870539 
" clip-path="url(#ped3858c3f2)" style="fill: none; stroke: #cccccc; stroke-opacity: 0.3; stroke-linecap: round"/>
     </g>
     <g id="text_9">
      <!-- $\mathdefault{10^{8}}$ -->
      <g style="fill: #262626" transform="translate(29.30375 97.04968) scale(0.11 -0.11)">
       <defs>
        <path id="DejaVuSans-38" d="M 2034 2216 
Q 1584 2216 1326 1975 
Q 1069 1734 1069 1313 
Q 1069 891 1326 650 
Q 1584 409 2034 409 
Q 2484 409 2743 651 
Q 3003 894 3003 1313 
Q 3003 1734 2745 1975 
Q 2488 2216 2034 2216 
z
M 1403 2484 
Q 997 2584 770 2862 
Q 544 3141 544 3541 
Q 544 4100 942 4425 
Q 1341 4750 2034 4750 
Q 2731 4750 3128 4425 
Q 3525 4100 3525 3541 
Q 3525 3141 3298 2862 
Q 3072 2584 2669 2484 
Q 3125 2378 3379 2068 
Q 3634 1759 3634 1313 
Q 3634 634 3220 271 
Q 2806 -91 2034 -91 
Q 1263 -91 848 271 
Q 434 634 434 1313 
Q 434 1759 690 2068 
Q 947 2378 1403 2484 
z
M 1172 3481 
Q 1172 3119 1398 2916 
Q 1625 2713 2034 2713 
Q 2441 2713 2670 2916 
Q 2900 3119 2900 3481 
Q 2900 3844 2670 4047 
Q 2441 4250 2034 4250 
Q 1625 4250 1398 4047 
Q 1172 3844 1172 3481 
z
" transform="scale(0.015625)"/>
       </defs>
       <use xlink:href="#DejaVuSans-31" transform="translate(0 0.765625)"/>
       <use xlink:href="#DejaVuSans-30" transform="translate(63.623047 0.765625)"/>
       <use xlink:href="#DejaVuSans-38" transform="translate(128.203125 39.046875) scale(0.7)"/>
      </g>
     </g>
    </g>
    <g id="ytick_7">
     <g id="line2d_21">
      <path d="M 58.16375 43.05164 
L 555.734952 43.05164 
" clip-path="url(#ped3858c3f2)" style="fill: none; stroke: #cccccc; stroke-opacity: 0.3; stroke-linecap: round"/>
     </g>
     <g id="text_10">
      <!-- $\mathdefault{10^{10}}$ -->
      <g style="fill: #262626" transform="translate(24.35375 47.230781) scale(0.11 -0.11)">
       <use xlink:href="#DejaVuSans-31" transform="translate(0 0.765625)"/>
       <use xlink:href="#DejaVuSans-30" transform="translate(63.623047 0.765625)"/>
       <use xlink:href="#DejaVuSans-31" transform="translate(128.203125 39.046875) scale(0.7)"/>
       <use xlink:href="#DejaVuSans-30" transform="translate(172.739258 39.046875) scale(0.7)"/>
      </g>
     </g>
    </g>
    <g id="text_11">
     <!-- $\Delta\omega$ -->
     <g style="fill: #262626" transform="translate(16.318125 205.456125) rotate(-90) scale(0.12 -0.12)">
      <defs>
       <path id="DejaVuSans-394" d="M 2188 4044 
L 906 525 
L 3472 525 
L 2188 4044 
z
M 50 0 
L 1831 4666 
L 2547 4666 
L 4325 0 
L 50 0 
z
" transform="scale(0.015625)"/>
       <path id="DejaVuSans-Oblique-3c9" d="M 1369 -91 
Q 72 -91 434 1766 
Q 575 2500 1256 3500 
L 1875 3500 
Q 1231 2500 1088 1750 
Q 819 397 1519 397 
Q 2166 397 2478 2078 
L 3009 2078 
Q 2669 388 3316 397 
Q 4013 403 4275 1750 
Q 4419 2500 4169 3500 
L 4788 3500 
Q 5075 2500 4934 1766 
Q 4578 -94 3278 -91 
Q 2428 -88 2503 844 
Q 2194 -91 1369 -91 
z
" transform="scale(0.015625)"/>
      </defs>
      <use xlink:href="#DejaVuSans-394" transform="translate(0 0.09375)"/>
      <use xlink:href="#DejaVuSans-Oblique-3c9" transform="translate(68.408203 0.09375)"/>
     </g>
    </g>
   </g>
   <g id="line2d_22">
    <path d="M 80.780623 317.055587 
L 89.42391 317.818121 
L 98.067198 318.580655 
L 106.710485 319.343189 
L 115.353773 320.105723 
L 123.99706 320.868258 
L 132.640347 321.630792 
L 141.283635 322.393326 
L 149.926922 323.15586 
L 158.57021 323.918394 
L 167.213497 324.680929 
L 175.856784 325.443463 
L 184.500072 326.205997 
L 193.143359 326.968531 
L 201.786647 327.731065 
L 210.429934 328.493599 
L 219.073222 329.256134 
L 227.716509 330.018668 
L 236.359796 330.781202 
L 245.003084 331.543736 
L 253.646371 332.30627 
L 262.289659 333.068804 
L 270.932946 333.831339 
L 279.576234 334.593873 
L 288.219521 335.356407 
L 296.862808 336.118941 
L 305.506096 336.881475 
L 314.149383 337.64401 
L 322.792671 338.406544 
L 331.435958 339.169078 
L 340.079246 339.931612 
L 348.722533 340.694146 
L 357.36582 341.45668 
L 366.009108 342.219215 
L 374.652395 342.981749 
L 383.295683 343.744283 
L 391.93897 344.506817 
L 400.582258 345.269351 
L 409.225545 346.031885 
L 417.868832 346.79442 
L 426.51212 347.556954 
L 435.155407 348.319488 
L 443.798695 349.082022 
L 452.441982 349.844556 
L 461.08527 350.60709 
L 469.728557 351.369625 
L 478.371844 352.132159 
L 487.015132 352.894693 
L 495.658419 353.657227 
L 504.301707 354.419761 
" clip-path="url(#ped3858c3f2)" style="fill: none; stroke-dasharray: 5.55,2.4; stroke-dashoffset: 0; stroke: #1a1a1a; stroke-opacity: 0.4; stroke-width: 1.5"/>
   </g>
   <g id="line2d_23">
    <path d="M 80.780623 317.055587 
L 89.42391 317.436854 
L 98.067198 317.818121 
L 106.710485 318.199388 
L 115.353773 318.580655 
L 123.99706 318.961922 
L 132.640347 319.343189 
L 141.283635 319.724456 
L 149.926922 320.105723 
L 158.57021 320.486991 
L 167.213497 320.868258 
L 175.856784 321.249525 
L 184.500072 321.630792 
L 193.143359 322.012059 
L 201.786647 322.393326 
L 210.429934 322.774593 
L 219.073222 323.15586 
L 227.716509 323.537127 
L 236.359796 323.918394 
L 245.003084 324.299661 
L 253.646371 324.680929 
L 262.289659 325.062196 
L 270.932946 325.443463 
L 279.576234 325.82473 
L 288.219521 326.205997 
L 296.862808 326.587264 
L 305.506096 326.968531 
L 314.149383 327.349798 
L 322.792671 327.731065 
L 331.435958 328.112332 
L 340.079246 328.493599 
L 348.722533 328.874867 
L 357.36582 329.256134 
L 366.009108 329.637401 
L 374.652395 330.018668 
L 383.295683 330.399935 
L 391.93897 330.781202 
L 400.582258 331.162469 
L 409.225545 331.543736 
L 417.868832 331.925003 
L 426.51212 332.30627 
L 435.155407 332.687537 
L 443.798695 333.068804 
L 452.441982 333.450072 
L 461.08527 333.831339 
L 469.728557 334.212606 
L 478.371844 334.593873 
L 487.015132 334.97514 
L 495.658419 335.356407 
L 504.301707 335.737674 
" clip-path="url(#ped3858c3f2)" style="fill: none; stroke-dasharray: 1.5,2.475; stroke-dashoffset: 0; stroke: #1a1a1a; stroke-opacity: 0.4; stroke-width: 1.5"/>
   </g>
   <g id="line2d_24">
    <path d="M 80.780623 321.111998 
L 165.775656 328.090833 
L 215.494563 331.541799 
L 250.77069 334.634103 
L 278.132979 336.634869 
L 300.489597 338.654197 
L 319.391848 340.069647 
L 335.765723 341.572263 
L 350.208504 342.668624 
L 363.128012 343.865953 
L 374.815129 344.761003 
L 385.48463 345.756443 
L 395.29962 346.512785 
L 404.386881 347.364718 
L 412.846919 348.019641 
L 420.760756 348.76429 
L 428.194663 349.086886 
L 435.203537 349.370877 
L 441.833364 349.6216 
L 448.123045 349.843521 
" clip-path="url(#ped3858c3f2)" style="fill: none; stroke-dasharray: 5.55,2.4; stroke-dashoffset: 0; stroke: #4c72b0; stroke-opacity: 0.5; stroke-width: 1.5"/>
   </g>
   <g id="line2d_25">
    <path d="M 80.780623 45.631653 
L 165.775656 38.848222 
L 215.494563 41.794077 
L 250.77069 41.746371 
L 278.132979 42.827422 
L 300.489597 40.059795 
L 319.391848 43.869771 
L 335.765723 44.647856 
L 350.208504 42.587169 
L 363.128012 44.238196 
L 374.815129 41.722073 
L 385.48463 43.404646 
L 395.29962 44.774868 
L 404.386881 42.271101 
L 412.846919 43.748057 
L 420.760756 41.26085 
L 428.194663 38.132489 
L 435.203537 47.143264 
L 441.833364 41.803217 
L 448.123045 44.358993 
" clip-path="url(#ped3858c3f2)" style="fill: none; stroke: #4c72b0; stroke-width: 1.5; stroke-linecap: round"/>
    <defs>
     <path id="meaf6ef0b83" d="M 0 3 
C 0.795609 3 1.55874 2.683901 2.12132 2.12132 
C 2.683901 1.55874 3 0.795609 3 0 
C 3 -0.795609 2.683901 -1.55874 2.12132 -2.12132 
C 1.55874 -2.683901 0.795609 -3 0 -3 
C -0.795609 -3 -1.55874 -2.683901 -2.12132 -2.12132 
C -2.683901 -1.55874 -3 -0.795609 -3 0 
C -3 0.795609 -2.683901 1.55874 -2.12132 2.12132 
C -1.55874 2.683901 -0.795609 3 0 3 
z
" style="stroke: #4c72b0"/>
    </defs>
    <g clip-path="url(#ped3858c3f2)">
     <use xlink:href="#meaf6ef0b83" x="80.780623" y="45.631653" style="fill: #4c72b0; stroke: #4c72b0"/>
     <use xlink:href="#meaf6ef0b83" x="165.775656" y="38.848222" style="fill: #4c72b0; stroke: #4c72b0"/>
     <use xlink:href="#meaf6ef0b83" x="215.494563" y="41.794077" style="fill: #4c72b0; stroke: #4c72b0"/>
     <use xlink:href="#meaf6ef0b83" x="250.77069" y="41.746371" style="fill: #4c72b0; stroke: #4c72b0"/>
     <use xlink:href="#meaf6ef0b83" x="278.132979" y="42.827422" style="fill: #4c72b0; stroke: #4c72b0"/>
     <use xlink:href="#meaf6ef0b83" x="300.489597" y="40.059795" style="fill: #4c72b0; stroke: #4c72b0"/>
     <use xlink:href="#meaf6ef0b83" x="319.391848" y="43.869771" style="fill: #4c72b0; stroke: #4c72b0"/>
     <use xlink:href="#meaf6ef0b83" x="335.765723" y="44.647856" style="fill: #4c72b0; stroke: #4c72b0"/>
     <use xlink:href="#meaf6ef0b83" x="350.208504" y="42.587169" style="fill: #4c72b0; stroke: #4c72b0"/>
     <use xlink:href="#meaf6ef0b83" x="363.128012" y="44.238196" style="fill: #4c72b0; stroke: #4c72b0"/>
     <use xlink:href="#meaf6ef0b83" x="374.815129" y="41.722073" style="fill: #4c72b0; stroke: #4c72b0"/>
     <use xlink:href="#meaf6ef0b83" x="385.48463" y="43.404646" style="fill: #4c72b0; stroke: #4c72b0"/>
     <use xlink:href="#meaf6ef0b83" x="395.29962" y="44.774868" style="fill: #4c72b0; stroke: #4c72b0"/>
     <use xlink:href="#meaf6ef0b83" x="404.386881" y="42.271101" style="fill: #4c72b0; stroke: #4c72b0"/>
     <use xlink:href="#meaf6ef0b83" x="412.846919" y="43.748057" style="fill: #4c72b0; stroke: #4c72b0"/>
     <use xlink:href="#meaf6ef0b83" x="420.760756" y="41.26085" style="fill: #4c72b0; stroke: #4c72b0"/>
     <use xlink:href="#meaf6ef0b83" x="428.194663" y="38.132489" style="fill: #4c72b0; stroke: #4c72b0"/>
     <use xlink:href="#meaf6ef0b83" x="435.203537" y="47.143264" style="fill: #4c72b0; stroke: #4c72b0"/>
     <use xlink:href="#meaf6ef0b83" x="441.833364" y="41.803217" style="fill: #4c72b0; stroke: #4c72b0"/>
     <use xlink:href="#meaf6ef0b83" x="448.123045" y="44.358993" style="fill: #4c72b0; stroke: #4c72b0"/>
    </g>
   </g>
   <g id="line2d_26">
    <path d="M 250.77069 42.32578 
L 278.132979 42.444837 
L 300.489597 42.542113 
L 319.391848 42.624359 
L 335.765723 42.695604 
L 350.208504 42.758446 
L 363.128012 42.81466 
L 374.815129 42.865512 
L 385.48463 42.911937 
L 395.29962 42.954643 
L 404.386881 42.994183 
L 412.846919 43.030993 
L 420.760756 43.065427 
L 428.194663 43.097773 
L 435.203537 43.12827 
L 441.833364 43.157117 
L 448.123045 43.184484 
" clip-path="url(#ped3858c3f2)" style="fill: none; stroke-dasharray: 5.55,2.4; stroke-dashoffset: 0; stroke: #4c72b0; stroke-opacity: 0.7; stroke-width: 1.5"/>
   </g>
   <g id="line2d_27">
    <path d="M 165.775656 327.082439 
L 250.77069 333.427026 
L 300.489597 337.301482 
L 335.765723 340.128615 
L 363.128012 342.359465 
L 385.48463 344.204525 
L 404.386881 345.778428 
L 420.760756 347.1509 
L 435.203537 348.094533 
L 448.123045 348.878173 
L 459.810162 349.533307 
L 470.479664 350.084578 
L 480.294653 350.551367 
L 489.381915 350.948998 
L 497.841953 351.289657 
L 505.75579 351.583095 
L 513.189697 351.837159 
L 520.198571 352.058207 
L 526.828397 352.251417 
L 533.118079 352.421032 
" clip-path="url(#ped3858c3f2)" style="fill: none; stroke-dasharray: 5.55,2.4; stroke-dashoffset: 0; stroke: #dd8452; stroke-opacity: 0.5; stroke-width: 1.5"/>
   </g>
   <g id="line2d_28">
    <path d="M 165.775656 327.080049 
L 250.77069 333.419449 
L 300.489597 337.286592 
L 335.765723 340.103765 
L 363.128012 342.322076 
L 385.48463 344.151777 
L 404.386881 345.707626 
L 420.760756 347.059439 
L 435.203537 347.996646 
L 448.123045 348.775754 
L 459.810162 349.427794 
L 470.479664 349.977033 
L 480.294653 350.442558 
L 489.381915 350.839472 
L 497.841953 351.179797 
L 505.75579 351.473164 
L 513.189697 351.727337 
L 520.198571 351.948611 
L 526.828397 352.142119 
L 533.118079 352.312075 
" clip-path="url(#ped3858c3f2)" style="fill: none; stroke: #dd8452; stroke-width: 1.5; stroke-linecap: round"/>
    <defs>
     <path id="m2b28675582" d="M -3 3 
L 3 3 
L 3 -3 
L -3 -3 
z
" style="stroke: #dd8452; stroke-linejoin: miter"/>
    </defs>
    <g clip-path="url(#ped3858c3f2)">
     <use xlink:href="#m2b28675582" x="165.775656" y="327.080049" style="fill: #dd8452; stroke: #dd8452; stroke-linejoin: miter"/>
     <use xlink:href="#m2b28675582" x="250.77069" y="333.419449" style="fill: #dd8452; stroke: #dd8452; stroke-linejoin: miter"/>
     <use xlink:href="#m2b28675582" x="300.489597" y="337.286592" style="fill: #dd8452; stroke: #dd8452; stroke-linejoin: miter"/>
     <use xlink:href="#m2b28675582" x="335.765723" y="340.103765" style="fill: #dd8452; stroke: #dd8452; stroke-linejoin: miter"/>
     <use xlink:href="#m2b28675582" x="363.128012" y="342.322076" style="fill: #dd8452; stroke: #dd8452; stroke-linejoin: miter"/>
     <use xlink:href="#m2b28675582" x="385.48463" y="344.151777" style="fill: #dd8452; stroke: #dd8452; stroke-linejoin: miter"/>
     <use xlink:href="#m2b28675582" x="404.386881" y="345.707626" style="fill: #dd8452; stroke: #dd8452; stroke-linejoin: miter"/>
     <use xlink:href="#m2b28675582" x="420.760756" y="347.059439" style="fill: #dd8452; stroke: #dd8452; stroke-linejoin: miter"/>
     <use xlink:href="#m2b28675582" x="435.203537" y="347.996646" style="fill: #dd8452; stroke: #dd8452; stroke-linejoin: miter"/>
     <use xlink:href="#m2b28675582" x="448.123045" y="348.775754" style="fill: #dd8452; stroke: #dd8452; stroke-linejoin: miter"/>
     <use xlink:href="#m2b28675582" x="459.810162" y="349.427794" style="fill: #dd8452; stroke: #dd8452; stroke-linejoin: miter"/>
     <use xlink:href="#m2b28675582" x="470.479664" y="349.977033" style="fill: #dd8452; stroke: #dd8452; stroke-linejoin: miter"/>
     <use xlink:href="#m2b28675582" x="480.294653" y="350.442558" style="fill: #dd8452; stroke: #dd8452; stroke-linejoin: miter"/>
     <use xlink:href="#m2b28675582" x="489.381915" y="350.839472" style="fill: #dd8452; stroke: #dd8452; stroke-linejoin: miter"/>
     <use xlink:href="#m2b28675582" x="497.841953" y="351.179797" style="fill: #dd8452; stroke: #dd8452; stroke-linejoin: miter"/>
     <use xlink:href="#m2b28675582" x="505.75579" y="351.473164" style="fill: #dd8452; stroke: #dd8452; stroke-linejoin: miter"/>
     <use xlink:href="#m2b28675582" x="513.189697" y="351.727337" style="fill: #dd8452; stroke: #dd8452; stroke-linejoin: miter"/>
     <use xlink:href="#m2b28675582" x="520.198571" y="351.948611" style="fill: #dd8452; stroke: #dd8452; stroke-linejoin: miter"/>
     <use xlink:href="#m2b28675582" x="526.828397" y="352.142119" style="fill: #dd8452; stroke: #dd8452; stroke-linejoin: miter"/>
     <use xlink:href="#m2b28675582" x="533.118079" y="352.312075" style="fill: #dd8452; stroke: #dd8452; stroke-linejoin: miter"/>
    </g>
   </g>
   <g id="line2d_29">
    <path d="M 250.77069 334.644086 
L 300.489597 337.981352 
L 335.765723 340.349181 
L 363.128012 342.185811 
L 385.48463 343.686447 
L 404.386881 344.955217 
L 420.760756 346.054275 
L 435.203537 347.023713 
L 448.123045 347.890905 
L 459.810162 348.675376 
L 470.479664 349.391541 
L 480.294653 350.05035 
L 489.381915 350.660311 
L 497.841953 351.228171 
L 505.75579 351.759369 
L 513.189697 352.258353 
L 520.198571 352.728808 
L 526.828397 353.173819 
L 533.118079 353.596 
" clip-path="url(#ped3858c3f2)" style="fill: none; stroke-dasharray: 5.55,2.4; stroke-dashoffset: 0; stroke: #dd8452; stroke-opacity: 0.7; stroke-width: 1.5"/>
   </g>
   <g id="line2d_30">
    <path d="M 165.775656 320.804833 
L 250.77069 324.554078 
L 300.489597 326.747247 
L 335.765723 328.303324 
L 363.128012 329.510312 
L 385.48463 330.496492 
L 404.386881 331.330296 
L 420.760756 332.05257 
L 435.203537 332.68966 
L 448.123045 333.259557 
L 459.810162 333.775092 
L 470.479664 334.245738 
L 480.294653 334.678691 
L 489.381915 335.079542 
L 497.841953 335.452726 
L 505.75579 335.801816 
L 513.189697 336.129735 
L 520.198571 336.438906 
L 526.828397 336.731357 
L 533.118079 337.008803 
" clip-path="url(#ped3858c3f2)" style="fill: none; stroke-dasharray: 5.55,2.4; stroke-dashoffset: 0; stroke: #55a868; stroke-opacity: 0.5; stroke-width: 1.5"/>
   </g>
   <g id="line2d_31">
    <path d="M 165.775656 320.804833 
L 250.77069 324.554078 
L 300.489597 326.747247 
L 335.765723 328.303324 
L 363.128012 329.510312 
L 385.48463 330.496492 
L 404.386881 331.330296 
L 420.760756 332.05257 
L 435.203537 332.68966 
L 448.123045 333.259557 
L 459.810162 333.775092 
L 470.479664 334.245738 
L 480.294653 334.678691 
L 489.381915 335.079542 
L 497.841953 335.452726 
L 505.75579 335.801816 
L 513.189697 336.129735 
L 520.198571 336.438906 
L 526.828397 336.731357 
L 533.118079 337.008803 
" clip-path="url(#ped3858c3f2)" style="fill: none; stroke: #55a868; stroke-width: 1.5; stroke-linecap: round"/>
    <defs>
     <path id="m74e0261fb8" d="M 0 -3 
L -3 3 
L 3 3 
z
" style="stroke: #55a868; stroke-linejoin: miter"/>
    </defs>
    <g clip-path="url(#ped3858c3f2)">
     <use xlink:href="#m74e0261fb8" x="165.775656" y="320.804833" style="fill: #55a868; stroke: #55a868; stroke-linejoin: miter"/>
     <use xlink:href="#m74e0261fb8" x="250.77069" y="324.554078" style="fill: #55a868; stroke: #55a868; stroke-linejoin: miter"/>
     <use xlink:href="#m74e0261fb8" x="300.489597" y="326.747247" style="fill: #55a868; stroke: #55a868; stroke-linejoin: miter"/>
     <use xlink:href="#m74e0261fb8" x="335.765723" y="328.303324" style="fill: #55a868; stroke: #55a868; stroke-linejoin: miter"/>
     <use xlink:href="#m74e0261fb8" x="363.128012" y="329.510312" style="fill: #55a868; stroke: #55a868; stroke-linejoin: miter"/>
     <use xlink:href="#m74e0261fb8" x="385.48463" y="330.496492" style="fill: #55a868; stroke: #55a868; stroke-linejoin: miter"/>
     <use xlink:href="#m74e0261fb8" x="404.386881" y="331.330296" style="fill: #55a868; stroke: #55a868; stroke-linejoin: miter"/>
     <use xlink:href="#m74e0261fb8" x="420.760756" y="332.05257" style="fill: #55a868; stroke: #55a868; stroke-linejoin: miter"/>
     <use xlink:href="#m74e0261fb8" x="435.203537" y="332.68966" style="fill: #55a868; stroke: #55a868; stroke-linejoin: miter"/>
     <use xlink:href="#m74e0261fb8" x="448.123045" y="333.259557" style="fill: #55a868; stroke: #55a868; stroke-linejoin: miter"/>
     <use xlink:href="#m74e0261fb8" x="459.810162" y="333.775092" style="fill: #55a868; stroke: #55a868; stroke-linejoin: miter"/>
     <use xlink:href="#m74e0261fb8" x="470.479664" y="334.245738" style="fill: #55a868; stroke: #55a868; stroke-linejoin: miter"/>
     <use xlink:href="#m74e0261fb8" x="480.294653" y="334.678691" style="fill: #55a868; stroke: #55a868; stroke-linejoin: miter"/>
     <use xlink:href="#m74e0261fb8" x="489.381915" y="335.079542" style="fill: #55a868; stroke: #55a868; stroke-linejoin: miter"/>
     <use xlink:href="#m74e0261fb8" x="497.841953" y="335.452726" style="fill: #55a868; stroke: #55a868; stroke-linejoin: miter"/>
     <use xlink:href="#m74e0261fb8" x="505.75579" y="335.801816" style="fill: #55a868; stroke: #55a868; stroke-linejoin: miter"/>
     <use xlink:href="#m74e0261fb8" x="513.189697" y="336.129735" style="fill: #55a868; stroke: #55a868; stroke-linejoin: miter"/>
     <use xlink:href="#m74e0261fb8" x="520.198571" y="336.438906" style="fill: #55a868; stroke: #55a868; stroke-linejoin: miter"/>
     <use xlink:href="#m74e0261fb8" x="526.828397" y="336.731357" style="fill: #55a868; stroke: #55a868; stroke-linejoin: miter"/>
     <use xlink:href="#m74e0261fb8" x="533.118079" y="337.008803" style="fill: #55a868; stroke: #55a868; stroke-linejoin: miter"/>
    </g>
   </g>
   <g id="line2d_32">
    <path d="M 250.77069 324.554078 
L 300.489597 326.747247 
L 335.765723 328.303324 
L 363.128012 329.510312 
L 385.48463 330.496492 
L 404.386881 331.330296 
L 420.760756 332.05257 
L 435.203537 332.68966 
L 448.123045 333.259557 
L 459.810162 333.775092 
L 470.479664 334.245738 
L 480.294653 334.678691 
L 489.381915 335.079542 
L 497.841953 335.452726 
L 505.75579 335.801816 
L 513.189697 336.129735 
L 520.198571 336.438906 
L 526.828397 336.731357 
L 533.118079 337.008803 
" clip-path="url(#ped3858c3f2)" style="fill: none; stroke-dasharray: 5.55,2.4; stroke-dashoffset: 0; stroke: #55a868; stroke-opacity: 0.7; stroke-width: 1.5"/>
   </g>
   <g id="patch_3">
    <path d="M 58.16375 370.234125 
L 58.16375 22.318125 
" style="fill: none; stroke: #cccccc; stroke-width: 1.25; stroke-linejoin: miter; stroke-linecap: square"/>
   </g>
   <g id="patch_4">
    <path d="M 555.734952 370.234125 
L 555.734952 22.318125 
" style="fill: none; stroke: #cccccc; stroke-width: 1.25; stroke-linejoin: miter; stroke-linecap: square"/>
   </g>
   <g id="patch_5">
    <path d="M 58.16375 370.234125 
L 555.734952 370.234125 
" style="fill: none; stroke: #cccccc; stroke-width: 1.25; stroke-linejoin: miter; stroke-linecap: square"/>
   </g>
   <g id="patch_6">
    <path d="M 58.16375 22.318125 
L 555.734952 22.318125 
" style="fill: none; stroke: #cccccc; stroke-width: 1.25; stroke-linejoin: miter; stroke-linecap: square"/>
   </g>
   <g id="text_12">
    <!-- Phase Sensitivity Scaling in Standard MZI -->
    <g style="fill: #262626" transform="translate(182.709976 16.318125) scale(0.12 -0.12)">
     <defs>
      <path id="DejaVuSans-50" d="M 1259 4147 
L 1259 2394 
L 2053 2394 
Q 2494 2394 2734 2622 
Q 2975 2850 2975 3272 
Q 2975 3691 2734 3919 
Q 2494 4147 2053 4147 
L 1259 4147 
z
M 628 4666 
L 2053 4666 
Q 2838 4666 3239 4311 
Q 3641 3956 3641 3272 
Q 3641 2581 3239 2228 
Q 2838 1875 2053 1875 
L 1259 1875 
L 1259 0 
L 628 0 
L 628 4666 
z
" transform="scale(0.015625)"/>
      <path id="DejaVuSans-68" d="M 3513 2113 
L 3513 0 
L 2938 0 
L 2938 2094 
Q 2938 2591 2744 2837 
Q 2550 3084 2163 3084 
Q 1697 3084 1428 2787 
Q 1159 2491 1159 1978 
L 1159 0 
L 581 0 
L 581 4863 
L 1159 4863 
L 1159 2956 
Q 1366 3272 1645 3428 
Q 1925 3584 2291 3584 
Q 2894 3584 3203 3211 
Q 3513 2838 3513 2113 
z
" transform="scale(0.015625)"/>
      <path id="DejaVuSans-53" d="M 3425 4513 
L 3425 3897 
Q 3066 4069 2747 4153 
Q 2428 4238 2131 4238 
Q 1616 4238 1336 4038 
Q 1056 3838 1056 3469 
Q 1056 3159 1242 3001 
Q 1428 2844 1947 2747 
L 2328 2669 
Q 3034 2534 3370 2195 
Q 3706 1856 3706 1288 
Q 3706 609 3251 259 
Q 2797 -91 1919 -91 
Q 1588 -91 1214 -16 
Q 841 59 441 206 
L 441 856 
Q 825 641 1194 531 
Q 1563 422 1919 422 
Q 2459 422 2753 634 
Q 3047 847 3047 1241 
Q 3047 1584 2836 1778 
Q 2625 1972 2144 2069 
L 1759 2144 
Q 1053 2284 737 2584 
Q 422 2884 422 3419 
Q 422 4038 858 4394 
Q 1294 4750 2059 4750 
Q 2388 4750 2728 4690 
Q 3069 4631 3425 4513 
z
" transform="scale(0.015625)"/>
      <path id="DejaVuSans-6e" d="M 3513 2113 
L 3513 0 
L 2938 0 
L 2938 2094 
Q 2938 2591 2744 2837 
Q 2550 3084 2163 3084 
Q 1697 3084 1428 2787 
Q 1159 2491 1159 1978 
L 1159 0 
L 581 0 
L 581 3500 
L 1159 3500 
L 1159 2956 
Q 1366 3272 1645 3428 
Q 1925 3584 2291 3584 
Q 2894 3584 3203 3211 
Q 3513 2838 3513 2113 
z
" transform="scale(0.015625)"/>
      <path id="DejaVuSans-69" d="M 603 3500 
L 1178 3500 
L 1178 0 
L 603 0 
L 603 3500 
z
M 603 4863 
L 1178 4863 
L 1178 4134 
L 603 4134 
L 603 4863 
z
" transform="scale(0.015625)"/>
      <path id="DejaVuSans-76" d="M 191 3500 
L 800 3500 
L 1894 563 
L 2988 3500 
L 3597 3500 
L 2284 0 
L 1503 0 
L 191 3500 
z
" transform="scale(0.015625)"/>
      <path id="DejaVuSans-79" d="M 2059 -325 
Q 1816 -950 1584 -1140 
Q 1353 -1331 966 -1331 
L 506 -1331 
L 506 -850 
L 844 -850 
Q 1081 -850 1212 -737 
Q 1344 -625 1503 -206 
L 1606 56 
L 191 3500 
L 800 3500 
L 1894 763 
L 2988 3500 
L 3597 3500 
L 2059 -325 
z
" transform="scale(0.015625)"/>
      <path id="DejaVuSans-6c" d="M 603 4863 
L 1178 4863 
L 1178 0 
L 603 0 
L 603 4863 
z
" transform="scale(0.015625)"/>
      <path id="DejaVuSans-67" d="M 2906 1791 
Q 2906 2416 2648 2759 
Q 2391 3103 1925 3103 
Q 1463 3103 1205 2759 
Q 947 2416 947 1791 
Q 947 1169 1205 825 
Q 1463 481 1925 481 
Q 2391 481 2648 825 
Q 2906 1169 2906 1791 
z
M 3481 434 
Q 3481 -459 3084 -895 
Q 2688 -1331 1869 -1331 
Q 1566 -1331 1297 -1286 
Q 1028 -1241 775 -1147 
L 775 -588 
Q 1028 -725 1275 -790 
Q 1522 -856 1778 -856 
Q 2344 -856 2625 -561 
Q 2906 -266 2906 331 
L 2906 616 
Q 2728 306 2450 153 
Q 2172 0 1784 0 
Q 1141 0 747 490 
Q 353 981 353 1791 
Q 353 2603 747 3093 
Q 1141 3584 1784 3584 
Q 2172 3584 2450 3431 
Q 2728 3278 2906 2969 
L 2906 3500 
L 3481 3500 
L 3481 434 
z
" transform="scale(0.015625)"/>
      <path id="DejaVuSans-64" d="M 2906 2969 
L 2906 4863 
L 3481 4863 
L 3481 0 
L 2906 0 
L 2906 525 
Q 2725 213 2448 61 
Q 2172 -91 1784 -91 
Q 1150 -91 751 415 
Q 353 922 353 1747 
Q 353 2572 751 3078 
Q 1150 3584 1784 3584 
Q 2172 3584 2448 3432 
Q 2725 3281 2906 2969 
z
M 947 1747 
Q 947 1113 1208 752 
Q 1469 391 1925 391 
Q 2381 391 2643 752 
Q 2906 1113 2906 1747 
Q 2906 2381 2643 2742 
Q 2381 3103 1925 3103 
Q 1469 3103 1208 2742 
Q 947 2381 947 1747 
z
" transform="scale(0.015625)"/>
      <path id="DejaVuSans-4d" d="M 628 4666 
L 1569 4666 
L 2759 1491 
L 3956 4666 
L 4897 4666 
L 4897 0 
L 4281 0 
L 4281 4097 
L 3078 897 
L 2444 897 
L 1241 4097 
L 1241 0 
L 628 0 
L 628 4666 
z
" transform="scale(0.015625)"/>
      <path id="DejaVuSans-5a" d="M 359 4666 
L 4025 4666 
L 4025 4184 
L 1075 531 
L 4097 531 
L 4097 0 
L 288 0 
L 288 481 
L 3238 4134 
L 359 4134 
L 359 4666 
z
" transform="scale(0.015625)"/>
      <path id="DejaVuSans-49" d="M 628 4666 
L 1259 4666 
L 1259 0 
L 628 0 
L 628 4666 
z
" transform="scale(0.015625)"/>
     </defs>
     <use xlink:href="#DejaVuSans-50"/>
     <use xlink:href="#DejaVuSans-68" transform="translate(60.302734 0)"/>
     <use xlink:href="#DejaVuSans-61" transform="translate(123.681641 0)"/>
     <use xlink:href="#DejaVuSans-73" transform="translate(184.960938 0)"/>
     <use xlink:href="#DejaVuSans-65" transform="translate(237.060547 0)"/>
     <use xlink:href="#DejaVuSans-20" transform="translate(298.583984 0)"/>
     <use xlink:href="#DejaVuSans-53" transform="translate(330.371094 0)"/>
     <use xlink:href="#DejaVuSans-65" transform="translate(393.847656 0)"/>
     <use xlink:href="#DejaVuSans-6e" transform="translate(455.371094 0)"/>
     <use xlink:href="#DejaVuSans-73" transform="translate(518.75 0)"/>
     <use xlink:href="#DejaVuSans-69" transform="translate(570.849609 0)"/>
     <use xlink:href="#DejaVuSans-74" transform="translate(598.632812 0)"/>
     <use xlink:href="#DejaVuSans-69" transform="translate(637.841797 0)"/>
     <use xlink:href="#DejaVuSans-76" transform="translate(665.625 0)"/>
     <use xlink:href="#DejaVuSans-69" transform="translate(724.804688 0)"/>
     <use xlink:href="#DejaVuSans-74" transform="translate(752.587891 0)"/>
     <use xlink:href="#DejaVuSans-79" transform="translate(791.796875 0)"/>
     <use xlink:href="#DejaVuSans-20" transform="translate(850.976562 0)"/>
     <use xlink:href="#DejaVuSans-53" transform="translate(882.763672 0)"/>
     <use xlink:href="#DejaVuSans-63" transform="translate(946.240234 0)"/>
     <use xlink:href="#DejaVuSans-61" transform="translate(1001.220703 0)"/>
     <use xlink:href="#DejaVuSans-6c" transform="translate(1062.5 0)"/>
     <use xlink:href="#DejaVuSans-69" transform="translate(1090.283203 0)"/>
     <use xlink:href="#DejaVuSans-6e" transform="translate(1118.066406 0)"/>
     <use xlink:href="#DejaVuSans-67" transform="translate(1181.445312 0)"/>
     <use xlink:href="#DejaVuSans-20" transform="translate(1244.921875 0)"/>
     <use xlink:href="#DejaVuSans-69" transform="translate(1276.708984 0)"/>
     <use xlink:href="#DejaVuSans-6e" transform="translate(1304.492188 0)"/>
     <use xlink:href="#DejaVuSans-20" transform="translate(1367.871094 0)"/>
     <use xlink:href="#DejaVuSans-53" transform="translate(1399.658203 0)"/>
     <use xlink:href="#DejaVuSans-74" transform="translate(1463.134766 0)"/>
     <use xlink:href="#DejaVuSans-61" transform="translate(1502.34375 0)"/>
     <use xlink:href="#DejaVuSans-6e" transform="translate(1563.623047 0)"/>
     <use xlink:href="#DejaVuSans-64" transform="translate(1627.001953 0)"/>
     <use xlink:href="#DejaVuSans-61" transform="translate(1690.478516 0)"/>
     <use xlink:href="#DejaVuSans-72" transform="translate(1751.757812 0)"/>
     <use xlink:href="#DejaVuSans-64" transform="translate(1791.121094 0)"/>
     <use xlink:href="#DejaVuSans-20" transform="translate(1854.597656 0)"/>
     <use xlink:href="#DejaVuSans-4d" transform="translate(1886.384766 0)"/>
     <use xlink:href="#DejaVuSans-5a" transform="translate(1972.664062 0)"/>
     <use xlink:href="#DejaVuSans-49" transform="translate(2041.169922 0)"/>
    </g>
   </g>
   <g id="legend_1">
    <g id="patch_7">
     <path d="M 434.504952 271.517531 
L 549.434952 271.517531 
Q 551.234952 271.517531 551.234952 269.717531 
L 551.234952 122.834719 
Q 551.234952 121.034719 549.434952 121.034719 
L 434.504952 121.034719 
Q 432.704952 121.034719 432.704952 122.834719 
L 432.704952 269.717531 
Q 432.704952 271.517531 434.504952 271.517531 
z
" style="fill: #ffffff; opacity: 0.8; stroke: #cccccc; stroke-linejoin: miter"/>
    </g>
    <g id="line2d_33">
     <path d="M 436.304952 128.324719 
L 445.304952 128.324719 
L 454.304952 128.324719 
" style="fill: none; stroke-dasharray: 5.55,2.4; stroke-dashoffset: 0; stroke: #1a1a1a; stroke-opacity: 0.4; stroke-width: 1.5"/>
    </g>
    <g id="text_13">
     <!-- $\propto 1/R$ (Heisenberg) -->
     <g style="fill: #262626" transform="translate(461.504952 131.474719) scale(0.09 -0.09)">
      <defs>
       <path id="DejaVuSans-221d" d="M 1647 1134 
Q 2163 1134 2472 1884 
Q 2075 2703 1647 2703 
Q 1334 2703 1175 2478 
Q 1006 2238 1006 1919 
Q 1006 1569 1175 1353 
Q 1350 1134 1647 1134 
z
M 3884 1128 
L 3884 716 
L 3644 716 
Q 3416 716 3247 809 
Q 3078 894 2916 1091 
Q 2819 1203 2666 1466 
Q 2456 1091 2272 925 
Q 2044 725 1681 725 
Q 1259 725 981 1041 
Q 688 1372 688 1919 
Q 688 2444 981 2800 
Q 1241 3116 1688 3116 
Q 1916 3116 2084 3022 
Q 2281 2919 2416 2741 
Q 2541 2581 2666 2366 
Q 2875 2741 3059 2906 
Q 3288 3106 3650 3106 
L 3884 3106 
L 3884 2697 
L 3684 2697 
Q 3222 2697 2859 1947 
Q 3256 1128 3684 1128 
L 3884 1128 
z
" transform="scale(0.015625)"/>
       <path id="DejaVuSans-2f" d="M 1625 4666 
L 2156 4666 
L 531 -594 
L 0 -594 
L 1625 4666 
z
" transform="scale(0.015625)"/>
       <path id="DejaVuSans-28" d="M 1984 4856 
Q 1566 4138 1362 3434 
Q 1159 2731 1159 2009 
Q 1159 1288 1364 580 
Q 1569 -128 1984 -844 
L 1484 -844 
Q 1016 -109 783 600 
Q 550 1309 550 2009 
Q 550 2706 781 3412 
Q 1013 4119 1484 4856 
L 1984 4856 
z
" transform="scale(0.015625)"/>
       <path id="DejaVuSans-48" d="M 628 4666 
L 1259 4666 
L 1259 2753 
L 3553 2753 
L 3553 4666 
L 4184 4666 
L 4184 0 
L 3553 0 
L 3553 2222 
L 1259 2222 
L 1259 0 
L 628 0 
L 628 4666 
z
" transform="scale(0.015625)"/>
       <path id="DejaVuSans-62" d="M 3116 1747 
Q 3116 2381 2855 2742 
Q 2594 3103 2138 3103 
Q 1681 3103 1420 2742 
Q 1159 2381 1159 1747 
Q 1159 1113 1420 752 
Q 1681 391 2138 391 
Q 2594 391 2855 752 
Q 3116 1113 3116 1747 
z
M 1159 2969 
Q 1341 3281 1617 3432 
Q 1894 3584 2278 3584 
Q 2916 3584 3314 3078 
Q 3713 2572 3713 1747 
Q 3713 922 3314 415 
Q 2916 -91 2278 -91 
Q 1894 -91 1617 61 
Q 1341 213 1159 525 
L 1159 0 
L 581 0 
L 581 4863 
L 1159 4863 
L 1159 2969 
z
" transform="scale(0.015625)"/>
       <path id="DejaVuSans-29" d="M 513 4856 
L 1013 4856 
Q 1481 4119 1714 3412 
Q 1947 2706 1947 2009 
Q 1947 1309 1714 600 
Q 1481 -109 1013 -844 
L 513 -844 
Q 928 -128 1133 580 
Q 1338 1288 1338 2009 
Q 1338 2731 1133 3434 
Q 928 4138 513 4856 
z
" transform="scale(0.015625)"/>
      </defs>
      <use xlink:href="#DejaVuSans-221d" transform="translate(19.482422 0.015625)"/>
      <use xlink:href="#DejaVuSans-31" transform="translate(110.400391 0.015625)"/>
      <use xlink:href="#DejaVuSans-2f" transform="translate(174.023438 0.015625)"/>
      <use xlink:href="#DejaVuSans-Oblique-52" transform="translate(205.964844 0.015625)"/>
      <use xlink:href="#DejaVuSans-20" transform="translate(275.447266 0.015625)"/>
      <use xlink:href="#DejaVuSans-28" transform="translate(307.234375 0.015625)"/>
      <use xlink:href="#DejaVuSans-48" transform="translate(346.248047 0.015625)"/>
      <use xlink:href="#DejaVuSans-65" transform="translate(421.443359 0.015625)"/>
      <use xlink:href="#DejaVuSans-69" transform="translate(482.966797 0.015625)"/>
      <use xlink:href="#DejaVuSans-73" transform="translate(510.75 0.015625)"/>
      <use xlink:href="#DejaVuSans-65" transform="translate(562.849609 0.015625)"/>
      <use xlink:href="#DejaVuSans-6e" transform="translate(624.373047 0.015625)"/>
      <use xlink:href="#DejaVuSans-62" transform="translate(687.751953 0.015625)"/>
      <use xlink:href="#DejaVuSans-65" transform="translate(751.228516 0.015625)"/>
      <use xlink:href="#DejaVuSans-72" transform="translate(812.751953 0.015625)"/>
      <use xlink:href="#DejaVuSans-67" transform="translate(853.865234 0.015625)"/>
      <use xlink:href="#DejaVuSans-29" transform="translate(917.341797 0.015625)"/>
     </g>
    </g>
    <g id="line2d_34">
     <path d="M 436.304952 144.003 
L 445.304952 144.003 
L 454.304952 144.003 
" style="fill: none; stroke-dasharray: 1.5,2.475; stroke-dashoffset: 0; stroke: #1a1a1a; stroke-opacity: 0.4; stroke-width: 1.5"/>
    </g>
    <g id="text_14">
     <!-- $\propto 1/\sqrt{R}$ (SQL) -->
     <g style="fill: #262626" transform="translate(461.504952 147.153) scale(0.09 -0.09)">
      <defs>
       <path id="STIXSizeOneSym-Regular-221a" d="M 6970 9933 
L 3373 -1888 
L 3104 -1888 
L 1626 2918 
Q 1555 3149 1465 3251 
Q 1376 3354 1229 3354 
Q 1011 3354 794 3181 
L 717 3309 
L 1766 4115 
L 1926 4115 
L 3379 -602 
L 3405 -602 
L 6605 9933 
L 6970 9933 
z
" transform="scale(0.015625)"/>
       <path id="DejaVuSans-51" d="M 2522 4238 
Q 1834 4238 1429 3725 
Q 1025 3213 1025 2328 
Q 1025 1447 1429 934 
Q 1834 422 2522 422 
Q 3209 422 3611 934 
Q 4013 1447 4013 2328 
Q 4013 3213 3611 3725 
Q 3209 4238 2522 4238 
z
M 3406 84 
L 4238 -825 
L 3475 -825 
L 2784 -78 
Q 2681 -84 2626 -87 
Q 2572 -91 2522 -91 
Q 1538 -91 948 567 
Q 359 1225 359 2328 
Q 359 3434 948 4092 
Q 1538 4750 2522 4750 
Q 3503 4750 4090 4092 
Q 4678 3434 4678 2328 
Q 4678 1516 4351 937 
Q 4025 359 3406 84 
z
" transform="scale(0.015625)"/>
       <path id="DejaVuSans-4c" d="M 628 4666 
L 1259 4666 
L 1259 531 
L 3531 531 
L 3531 0 
L 628 0 
L 628 4666 
z
" transform="scale(0.015625)"/>
      </defs>
      <use xlink:href="#DejaVuSans-221d" transform="translate(19.482422 0.578125)"/>
      <use xlink:href="#DejaVuSans-31" transform="translate(110.400391 0.578125)"/>
      <use xlink:href="#DejaVuSans-2f" transform="translate(174.023438 0.578125)"/>
      <use xlink:href="#STIXSizeOneSym-Regular-221a" transform="translate(207.714844 17.09375) scale(0.563912)"/>
      <use xlink:href="#DejaVuSans-Oblique-52" transform="translate(279.803207 0.84375)"/>
      <use xlink:href="#DejaVuSans-20" transform="translate(361.785629 0.578125)"/>
      <use xlink:href="#DejaVuSans-28" transform="translate(393.572739 0.578125)"/>
      <use xlink:href="#DejaVuSans-53" transform="translate(432.586411 0.578125)"/>
      <use xlink:href="#DejaVuSans-51" transform="translate(496.062973 0.578125)"/>
      <use xlink:href="#DejaVuSans-4c" transform="translate(574.773911 0.578125)"/>
      <use xlink:href="#DejaVuSans-29" transform="translate(630.486801 0.578125)"/>
      <path d="M 267.303207 97.5 
L 267.303207 103.75 
L 361.785629 103.75 
L 361.785629 97.5 
L 267.303207 97.5 
z
"/>
     </g>
    </g>
    <g id="line2d_35">
     <path d="M 436.304952 157.213313 
L 445.304952 157.213313 
L 454.304952 157.213313 
" style="fill: none; stroke-dasharray: 5.55,2.4; stroke-dashoffset: 0; stroke: #4c72b0; stroke-opacity: 0.5; stroke-width: 1.5"/>
    </g>
    <g id="text_15">
     <!-- SV QFI bound -->
     <g style="fill: #262626" transform="translate(461.504952 160.363313) scale(0.09 -0.09)">
      <defs>
       <path id="DejaVuSans-56" d="M 1831 0 
L 50 4666 
L 709 4666 
L 2188 738 
L 3669 4666 
L 4325 4666 
L 2547 0 
L 1831 0 
z
" transform="scale(0.015625)"/>
       <path id="DejaVuSans-46" d="M 628 4666 
L 3309 4666 
L 3309 4134 
L 1259 4134 
L 1259 2759 
L 3109 2759 
L 3109 2228 
L 1259 2228 
L 1259 0 
L 628 0 
L 628 4666 
z
" transform="scale(0.015625)"/>
      </defs>
      <use xlink:href="#DejaVuSans-53"/>
      <use xlink:href="#DejaVuSans-56" transform="translate(63.476562 0)"/>
      <use xlink:href="#DejaVuSans-20" transform="translate(131.884766 0)"/>
      <use xlink:href="#DejaVuSans-51" transform="translate(163.671875 0)"/>
      <use xlink:href="#DejaVuSans-46" transform="translate(242.382812 0)"/>
      <use xlink:href="#DejaVuSans-49" transform="translate(299.902344 0)"/>
      <use xlink:href="#DejaVuSans-20" transform="translate(329.394531 0)"/>
      <use xlink:href="#DejaVuSans-62" transform="translate(361.181641 0)"/>
      <use xlink:href="#DejaVuSans-6f" transform="translate(424.658203 0)"/>
      <use xlink:href="#DejaVuSans-75" transform="translate(485.839844 0)"/>
      <use xlink:href="#DejaVuSans-6e" transform="translate(549.21875 0)"/>
      <use xlink:href="#DejaVuSans-64" transform="translate(612.597656 0)"/>
     </g>
    </g>
    <g id="line2d_36">
     <path d="M 436.304952 170.423625 
L 445.304952 170.423625 
L 454.304952 170.423625 
" style="fill: none; stroke: #4c72b0; stroke-width: 1.5; stroke-linecap: round"/>
     <g>
      <use xlink:href="#meaf6ef0b83" x="445.304952" y="170.423625" style="fill: #4c72b0; stroke: #4c72b0"/>
     </g>
    </g>
    <g id="text_16">
     <!-- SV best $\Delta\omega_{\mathrm{C}}$ -->
     <g style="fill: #262626" transform="translate(461.504952 173.573625) scale(0.09 -0.09)">
      <defs>
       <path id="DejaVuSans-43" d="M 4122 4306 
L 4122 3641 
Q 3803 3938 3442 4084 
Q 3081 4231 2675 4231 
Q 1875 4231 1450 3742 
Q 1025 3253 1025 2328 
Q 1025 1406 1450 917 
Q 1875 428 2675 428 
Q 3081 428 3442 575 
Q 3803 722 4122 1019 
L 4122 359 
Q 3791 134 3420 21 
Q 3050 -91 2638 -91 
Q 1578 -91 968 557 
Q 359 1206 359 2328 
Q 359 3453 968 4101 
Q 1578 4750 2638 4750 
Q 3056 4750 3426 4639 
Q 3797 4528 4122 4306 
z
" transform="scale(0.015625)"/>
      </defs>
      <use xlink:href="#DejaVuSans-53" transform="translate(0 0.015625)"/>
      <use xlink:href="#DejaVuSans-56" transform="translate(63.476562 0.015625)"/>
      <use xlink:href="#DejaVuSans-20" transform="translate(131.884766 0.015625)"/>
      <use xlink:href="#DejaVuSans-62" transform="translate(163.671875 0.015625)"/>
      <use xlink:href="#DejaVuSans-65" transform="translate(227.148438 0.015625)"/>
      <use xlink:href="#DejaVuSans-73" transform="translate(288.671875 0.015625)"/>
      <use xlink:href="#DejaVuSans-74" transform="translate(340.771484 0.015625)"/>
      <use xlink:href="#DejaVuSans-20" transform="translate(379.980469 0.015625)"/>
      <use xlink:href="#DejaVuSans-394" transform="translate(411.767578 0.015625)"/>
      <use xlink:href="#DejaVuSans-Oblique-3c9" transform="translate(480.175781 0.015625)"/>
      <use xlink:href="#DejaVuSans-43" transform="translate(563.916016 -16.390625) scale(0.7)"/>
     </g>
    </g>
    <g id="line2d_37">
     <path d="M 436.304952 183.633938 
L 445.304952 183.633938 
L 454.304952 183.633938 
" style="fill: none; stroke-dasharray: 5.55,2.4; stroke-dashoffset: 0; stroke: #4c72b0; stroke-opacity: 0.7; stroke-width: 1.5"/>
    </g>
    <g id="text_17">
     <!-- SV: $\alpha = -0.049$ -->
     <g style="fill: #262626" transform="translate(461.504952 186.783938) scale(0.09 -0.09)">
      <defs>
       <path id="DejaVuSans-3a" d="M 750 794 
L 1409 794 
L 1409 0 
L 750 0 
L 750 794 
z
M 750 3309 
L 1409 3309 
L 1409 2516 
L 750 2516 
L 750 3309 
z
" transform="scale(0.015625)"/>
       <path id="DejaVuSans-Oblique-3b1" d="M 2619 1628 
L 2622 2350 
Q 2625 3088 2069 3091 
Q 1653 3094 1394 2747 
Q 1069 2319 959 1747 
Q 825 1059 994 731 
Q 1169 397 1547 397 
Q 1966 397 2319 1063 
L 2619 1628 
z
M 2166 3578 
Q 3141 3594 3128 2584 
Q 3128 2584 3616 3500 
L 4128 3500 
L 3119 1603 
L 3109 919 
Q 3109 766 3194 638 
Q 3291 488 3391 488 
L 3669 488 
L 3575 0 
L 3228 0 
Q 2934 0 2722 263 
Q 2622 394 2619 669 
Q 2416 334 2066 50 
Q 1900 -81 1453 -78 
Q 722 -72 456 397 
Q 184 884 353 1747 
Q 534 2675 1009 3097 
Q 1544 3569 2166 3578 
z
" transform="scale(0.015625)"/>
       <path id="DejaVuSans-3d" d="M 678 2906 
L 4684 2906 
L 4684 2381 
L 678 2381 
L 678 2906 
z
M 678 1631 
L 4684 1631 
L 4684 1100 
L 678 1100 
L 678 1631 
z
" transform="scale(0.015625)"/>
       <path id="DejaVuSans-2e" d="M 684 794 
L 1344 794 
L 1344 0 
L 684 0 
L 684 794 
z
" transform="scale(0.015625)"/>
       <path id="DejaVuSans-39" d="M 703 97 
L 703 672 
Q 941 559 1184 500 
Q 1428 441 1663 441 
Q 2288 441 2617 861 
Q 2947 1281 2994 2138 
Q 2813 1869 2534 1725 
Q 2256 1581 1919 1581 
Q 1219 1581 811 2004 
Q 403 2428 403 3163 
Q 403 3881 828 4315 
Q 1253 4750 1959 4750 
Q 2769 4750 3195 4129 
Q 3622 3509 3622 2328 
Q 3622 1225 3098 567 
Q 2575 -91 1691 -91 
Q 1453 -91 1209 -44 
Q 966 3 703 97 
z
M 1959 2075 
Q 2384 2075 2632 2365 
Q 2881 2656 2881 3163 
Q 2881 3666 2632 3958 
Q 2384 4250 1959 4250 
Q 1534 4250 1286 3958 
Q 1038 3666 1038 3163 
Q 1038 2656 1286 2365 
Q 1534 2075 1959 2075 
z
" transform="scale(0.015625)"/>
      </defs>
      <use xlink:href="#DejaVuSans-53" transform="translate(0 0.78125)"/>
      <use xlink:href="#DejaVuSans-56" transform="translate(63.476562 0.78125)"/>
      <use xlink:href="#DejaVuSans-3a" transform="translate(131.884766 0.78125)"/>
      <use xlink:href="#DejaVuSans-20" transform="translate(165.576172 0.78125)"/>
      <use xlink:href="#DejaVuSans-Oblique-3b1" transform="translate(197.363281 0.78125)"/>
      <use xlink:href="#DejaVuSans-3d" transform="translate(282.763672 0.78125)"/>
      <use xlink:href="#DejaVuSans-2212" transform="translate(386.035156 0.78125)"/>
      <use xlink:href="#DejaVuSans-30" transform="translate(469.824219 0.78125)"/>
      <use xlink:href="#DejaVuSans-2e" transform="translate(533.447266 0.78125)"/>
      <use xlink:href="#DejaVuSans-30" transform="translate(565.234375 0.78125)"/>
      <use xlink:href="#DejaVuSans-34" transform="translate(628.857422 0.78125)"/>
      <use xlink:href="#DejaVuSans-39" transform="translate(692.480469 0.78125)"/>
     </g>
    </g>
    <g id="line2d_38">
     <path d="M 436.304952 196.84425 
L 445.304952 196.84425 
L 454.304952 196.84425 
" style="fill: none; stroke-dasharray: 5.55,2.4; stroke-dashoffset: 0; stroke: #dd8452; stroke-opacity: 0.5; stroke-width: 1.5"/>
    </g>
    <g id="text_18">
     <!-- TMSV QFI bound -->
     <g style="fill: #262626" transform="translate(461.504952 199.99425) scale(0.09 -0.09)">
      <defs>
       <path id="DejaVuSans-54" d="M -19 4666 
L 3928 4666 
L 3928 4134 
L 2272 4134 
L 2272 0 
L 1638 0 
L 1638 4134 
L -19 4134 
L -19 4666 
z
" transform="scale(0.015625)"/>
      </defs>
      <use xlink:href="#DejaVuSans-54"/>
      <use xlink:href="#DejaVuSans-4d" transform="translate(61.083984 0)"/>
      <use xlink:href="#DejaVuSans-53" transform="translate(147.363281 0)"/>
      <use xlink:href="#DejaVuSans-56" transform="translate(210.839844 0)"/>
      <use xlink:href="#DejaVuSans-20" transform="translate(279.248047 0)"/>
      <use xlink:href="#DejaVuSans-51" transform="translate(311.035156 0)"/>
      <use xlink:href="#DejaVuSans-46" transform="translate(389.746094 0)"/>
      <use xlink:href="#DejaVuSans-49" transform="translate(447.265625 0)"/>
      <use xlink:href="#DejaVuSans-20" transform="translate(476.757812 0)"/>
      <use xlink:href="#DejaVuSans-62" transform="translate(508.544922 0)"/>
      <use xlink:href="#DejaVuSans-6f" transform="translate(572.021484 0)"/>
      <use xlink:href="#DejaVuSans-75" transform="translate(633.203125 0)"/>
      <use xlink:href="#DejaVuSans-6e" transform="translate(696.582031 0)"/>
      <use xlink:href="#DejaVuSans-64" transform="translate(759.960938 0)"/>
     </g>
    </g>
    <g id="line2d_39">
     <path d="M 436.304952 210.054563 
L 445.304952 210.054563 
L 454.304952 210.054563 
" style="fill: none; stroke: #dd8452; stroke-width: 1.5; stroke-linecap: round"/>
     <g>
      <use xlink:href="#m2b28675582" x="445.304952" y="210.054563" style="fill: #dd8452; stroke: #dd8452; stroke-linejoin: miter"/>
     </g>
    </g>
    <g id="text_19">
     <!-- TMSV best $\Delta\omega_{\mathrm{C}}$ -->
     <g style="fill: #262626" transform="translate(461.504952 213.204563) scale(0.09 -0.09)">
      <use xlink:href="#DejaVuSans-54" transform="translate(0 0.015625)"/>
      <use xlink:href="#DejaVuSans-4d" transform="translate(61.083984 0.015625)"/>
      <use xlink:href="#DejaVuSans-53" transform="translate(147.363281 0.015625)"/>
      <use xlink:href="#DejaVuSans-56" transform="translate(210.839844 0.015625)"/>
      <use xlink:href="#DejaVuSans-20" transform="translate(279.248047 0.015625)"/>
      <use xlink:href="#DejaVuSans-62" transform="translate(311.035156 0.015625)"/>
      <use xlink:href="#DejaVuSans-65" transform="translate(374.511719 0.015625)"/>
      <use xlink:href="#DejaVuSans-73" transform="translate(436.035156 0.015625)"/>
      <use xlink:href="#DejaVuSans-74" transform="translate(488.134766 0.015625)"/>
      <use xlink:href="#DejaVuSans-20" transform="translate(527.34375 0.015625)"/>
      <use xlink:href="#DejaVuSans-394" transform="translate(559.130859 0.015625)"/>
      <use xlink:href="#DejaVuSans-Oblique-3c9" transform="translate(627.539062 0.015625)"/>
      <use xlink:href="#DejaVuSans-43" transform="translate(711.279297 -16.390625) scale(0.7)"/>
     </g>
    </g>
    <g id="line2d_40">
     <path d="M 436.304952 223.264875 
L 445.304952 223.264875 
L 454.304952 223.264875 
" style="fill: none; stroke-dasharray: 5.55,2.4; stroke-dashoffset: 0; stroke: #dd8452; stroke-opacity: 0.7; stroke-width: 1.5"/>
    </g>
    <g id="text_20">
     <!-- TMSV: $\alpha = -0.761$ -->
     <g style="fill: #262626" transform="translate(461.504952 226.414875) scale(0.09 -0.09)">
      <defs>
       <path id="DejaVuSans-37" d="M 525 4666 
L 3525 4666 
L 3525 4397 
L 1831 0 
L 1172 0 
L 2766 4134 
L 525 4134 
L 525 4666 
z
" transform="scale(0.015625)"/>
      </defs>
      <use xlink:href="#DejaVuSans-54" transform="translate(0 0.78125)"/>
      <use xlink:href="#DejaVuSans-4d" transform="translate(61.083984 0.78125)"/>
      <use xlink:href="#DejaVuSans-53" transform="translate(147.363281 0.78125)"/>
      <use xlink:href="#DejaVuSans-56" transform="translate(210.839844 0.78125)"/>
      <use xlink:href="#DejaVuSans-3a" transform="translate(279.248047 0.78125)"/>
      <use xlink:href="#DejaVuSans-20" transform="translate(312.939453 0.78125)"/>
      <use xlink:href="#DejaVuSans-Oblique-3b1" transform="translate(344.726562 0.78125)"/>
      <use xlink:href="#DejaVuSans-3d" transform="translate(430.126953 0.78125)"/>
      <use xlink:href="#DejaVuSans-2212" transform="translate(533.398438 0.78125)"/>
      <use xlink:href="#DejaVuSans-30" transform="translate(617.1875 0.78125)"/>
      <use xlink:href="#DejaVuSans-2e" transform="translate(680.810547 0.78125)"/>
      <use xlink:href="#DejaVuSans-37" transform="translate(704.847656 0.78125)"/>
      <use xlink:href="#DejaVuSans-36" transform="translate(768.470703 0.78125)"/>
      <use xlink:href="#DejaVuSans-31" transform="translate(832.09375 0.78125)"/>
     </g>
    </g>
    <g id="line2d_41">
     <path d="M 436.304952 236.475188 
L 445.304952 236.475188 
L 454.304952 236.475188 
" style="fill: none; stroke-dasharray: 5.55,2.4; stroke-dashoffset: 0; stroke: #55a868; stroke-opacity: 0.5; stroke-width: 1.5"/>
    </g>
    <g id="text_21">
     <!-- OAT QFI bound -->
     <g style="fill: #262626" transform="translate(461.504952 239.625188) scale(0.09 -0.09)">
      <defs>
       <path id="DejaVuSans-4f" d="M 2522 4238 
Q 1834 4238 1429 3725 
Q 1025 3213 1025 2328 
Q 1025 1447 1429 934 
Q 1834 422 2522 422 
Q 3209 422 3611 934 
Q 4013 1447 4013 2328 
Q 4013 3213 3611 3725 
Q 3209 4238 2522 4238 
z
M 2522 4750 
Q 3503 4750 4090 4092 
Q 4678 3434 4678 2328 
Q 4678 1225 4090 567 
Q 3503 -91 2522 -91 
Q 1538 -91 948 565 
Q 359 1222 359 2328 
Q 359 3434 948 4092 
Q 1538 4750 2522 4750 
z
" transform="scale(0.015625)"/>
       <path id="DejaVuSans-41" d="M 2188 4044 
L 1331 1722 
L 3047 1722 
L 2188 4044 
z
M 1831 4666 
L 2547 4666 
L 4325 0 
L 3669 0 
L 3244 1197 
L 1141 1197 
L 716 0 
L 50 0 
L 1831 4666 
z
" transform="scale(0.015625)"/>
      </defs>
      <use xlink:href="#DejaVuSans-4f"/>
      <use xlink:href="#DejaVuSans-41" transform="translate(76.960938 0)"/>
      <use xlink:href="#DejaVuSans-54" transform="translate(137.619141 0)"/>
      <use xlink:href="#DejaVuSans-20" transform="translate(198.703125 0)"/>
      <use xlink:href="#DejaVuSans-51" transform="translate(230.490234 0)"/>
      <use xlink:href="#DejaVuSans-46" transform="translate(309.201172 0)"/>
      <use xlink:href="#DejaVuSans-49" transform="translate(366.720703 0)"/>
      <use xlink:href="#DejaVuSans-20" transform="translate(396.212891 0)"/>
      <use xlink:href="#DejaVuSans-62" transform="translate(428 0)"/>
      <use xlink:href="#DejaVuSans-6f" transform="translate(491.476562 0)"/>
      <use xlink:href="#DejaVuSans-75" transform="translate(552.658203 0)"/>
      <use xlink:href="#DejaVuSans-6e" transform="translate(616.037109 0)"/>
      <use xlink:href="#DejaVuSans-64" transform="translate(679.416016 0)"/>
     </g>
    </g>
    <g id="line2d_42">
     <path d="M 436.304952 249.6855 
L 445.304952 249.6855 
L 454.304952 249.6855 
" style="fill: none; stroke: #55a868; stroke-width: 1.5; stroke-linecap: round"/>
     <g>
      <use xlink:href="#m74e0261fb8" x="445.304952" y="249.6855" style="fill: #55a868; stroke: #55a868; stroke-linejoin: miter"/>
     </g>
    </g>
    <g id="text_22">
     <!-- OAT best $\Delta\omega_{\mathrm{C}}$ -->
     <g style="fill: #262626" transform="translate(461.504952 252.8355) scale(0.09 -0.09)">
      <use xlink:href="#DejaVuSans-4f" transform="translate(0 0.015625)"/>
      <use xlink:href="#DejaVuSans-41" transform="translate(78.710938 0.015625)"/>
      <use xlink:href="#DejaVuSans-54" transform="translate(147.119141 0.015625)"/>
      <use xlink:href="#DejaVuSans-20" transform="translate(208.203125 0.015625)"/>
      <use xlink:href="#DejaVuSans-62" transform="translate(239.990234 0.015625)"/>
      <use xlink:href="#DejaVuSans-65" transform="translate(303.466797 0.015625)"/>
      <use xlink:href="#DejaVuSans-73" transform="translate(364.990234 0.015625)"/>
      <use xlink:href="#DejaVuSans-74" transform="translate(417.089844 0.015625)"/>
      <use xlink:href="#DejaVuSans-20" transform="translate(456.298828 0.015625)"/>
      <use xlink:href="#DejaVuSans-394" transform="translate(488.085938 0.015625)"/>
      <use xlink:href="#DejaVuSans-Oblique-3c9" transform="translate(556.494141 0.015625)"/>
      <use xlink:href="#DejaVuSans-43" transform="translate(640.234375 -16.390625) scale(0.7)"/>
     </g>
    </g>
    <g id="line2d_43">
     <path d="M 436.304952 262.895813 
L 445.304952 262.895813 
L 454.304952 262.895813 
" style="fill: none; stroke-dasharray: 5.55,2.4; stroke-dashoffset: 0; stroke: #55a868; stroke-opacity: 0.7; stroke-width: 1.5"/>
    </g>
    <g id="text_23">
     <!-- OAT: $\alpha = -0.500$ -->
     <g style="fill: #262626" transform="translate(461.504952 266.045813) scale(0.09 -0.09)">
      <defs>
       <path id="DejaVuSans-35" d="M 691 4666 
L 3169 4666 
L 3169 4134 
L 1269 4134 
L 1269 2991 
Q 1406 3038 1543 3061 
Q 1681 3084 1819 3084 
Q 2600 3084 3056 2656 
Q 3513 2228 3513 1497 
Q 3513 744 3044 326 
Q 2575 -91 1722 -91 
Q 1428 -91 1123 -41 
Q 819 9 494 109 
L 494 744 
Q 775 591 1075 516 
Q 1375 441 1709 441 
Q 2250 441 2565 725 
Q 2881 1009 2881 1497 
Q 2881 1984 2565 2268 
Q 2250 2553 1709 2553 
Q 1456 2553 1204 2497 
Q 953 2441 691 2322 
L 691 4666 
z
" transform="scale(0.015625)"/>
      </defs>
      <use xlink:href="#DejaVuSans-4f" transform="translate(0 0.78125)"/>
      <use xlink:href="#DejaVuSans-41" transform="translate(78.710938 0.78125)"/>
      <use xlink:href="#DejaVuSans-54" transform="translate(147.119141 0.78125)"/>
      <use xlink:href="#DejaVuSans-3a" transform="translate(208.203125 0.78125)"/>
      <use xlink:href="#DejaVuSans-20" transform="translate(241.894531 0.78125)"/>
      <use xlink:href="#DejaVuSans-Oblique-3b1" transform="translate(273.681641 0.78125)"/>
      <use xlink:href="#DejaVuSans-3d" transform="translate(359.082031 0.78125)"/>
      <use xlink:href="#DejaVuSans-2212" transform="translate(462.353516 0.78125)"/>
      <use xlink:href="#DejaVuSans-30" transform="translate(546.142578 0.78125)"/>
      <use xlink:href="#DejaVuSans-2e" transform="translate(609.765625 0.78125)"/>
      <use xlink:href="#DejaVuSans-35" transform="translate(641.552734 0.78125)"/>
      <use xlink:href="#DejaVuSans-30" transform="translate(705.175781 0.78125)"/>
      <use xlink:href="#DejaVuSans-30" transform="translate(768.798828 0.78125)"/>
     </g>
    </g>
   </g>
  </g>
 </g>
 <defs>
  <clipPath id="ped3858c3f2">
   <rect x="58.16375" y="22.318125" width="497.571202" height="347.916"/>
  </clipPath>
 </defs>
</svg>
