<?xml version="1.0" encoding="utf-8" standalone="no"?>
<!DOCTYPE svg PUBLIC "-//W3C//DTD SVG 1.1//EN"
  "http://www.w3.org/Graphics/SVG/1.1/DTD/svg11.dtd">
<svg xmlns:xlink="http://www.w3.org/1999/xlink" width="706.579844pt" height="416.579687pt" viewBox="0 0 706.579844 416.579687" xmlns="http://www.w3.org/2000/svg" version="1.1">
 <metadata>
  <rdf:RDF xmlns:dc="http://purl.org/dc/elements/1.1/" xmlns:cc="http://creativecommons.org/ns#" xmlns:rdf="http://www.w3.org/1999/02/22-rdf-syntax-ns#">
   <cc:Work>
    <dc:type rdf:resource="http://purl.org/dc/dcmitype/StillImage"/>
    <dc:date>2026-06-26T18:15:10.052662</dc:date>
    <dc:format>image/svg+xml</dc:format>
    <dc:creator>
     <cc:Agent>
      <dc:title>Matplotlib v3.10.9, https://matplotlib.org/</dc:title>
     </cc:Agent>
    </dc:creator>
   </cc:Work>
  </rdf:RDF>
 </metadata>
 <defs>
  <style type="text/css">*{stroke-linejoin: round; stroke-linecap: butt}</style>
 </defs>
 <g id="figure_1">
  <g id="patch_1">
   <path d="M 0 416.579687 
L 706.579844 416.579687 
L 706.579844 0 
L 0 0 
z
" style="fill: #ffffff"/>
  </g>
  <g id="axes_1">
   <g id="patch_2">
    <path d="M 61.46375 373.62 
L 699.379844 373.62 
L 699.379844 22.32 
L 61.46375 22.32 
z
" style="fill: #ffffff"/>
   </g>
   <g id="matplotlib.axis_1">
    <g id="xtick_1">
     <g id="line2d_1">
      <path d="M 78.624758 373.62 
L 78.624758 22.32 
" clip-path="url(#p1196ccab11)" style="fill: none; stroke: #cccccc; stroke-opacity: 0.3; stroke-linecap: round"/>
     </g>
     <g id="text_1">
      <!-- 0 -->
      <g style="fill: #262626" transform="translate(75.125383 391.478281) scale(0.11 -0.11)">
       <defs>
        <path id="DejaVuSans-30" d="M 2034 4250 
Q 1547 4250 1301 3770 
Q 1056 3291 1056 2328 
Q 1056 1369 1301 889 
Q 1547 409 2034 409 
Q 2525 409 2770 889 
Q 3016 1369 3016 2328 
Q 3016 3291 2770 3770 
Q 2525 4250 2034 4250 
z
M 2034 4750 
Q 2819 4750 3233 4129 
Q 3647 3509 3647 2328 
Q 3647 1150 3233 529 
Q 2819 -91 2034 -91 
Q 1250 -91 836 529 
Q 422 1150 422 2328 
Q 422 3509 836 4129 
Q 1250 4750 2034 4750 
z
" transform="scale(0.015625)"/>
       </defs>
       <use xlink:href="#DejaVuSans-30"/>
      </g>
     </g>
    </g>
    <g id="xtick_2">
     <g id="line2d_2">
      <path d="M 196.976538 373.62 
L 196.976538 22.32 
" clip-path="url(#p1196ccab11)" style="fill: none; stroke: #cccccc; stroke-opacity: 0.3; stroke-linecap: round"/>
     </g>
     <g id="text_2">
      <!-- 1 -->
      <g style="fill: #262626" transform="translate(193.477163 391.478281) scale(0.11 -0.11)">
       <defs>
        <path id="DejaVuSans-31" d="M 794 531 
L 1825 531 
L 1825 4091 
L 703 3866 
L 703 4441 
L 1819 4666 
L 2450 4666 
L 2450 531 
L 3481 531 
L 3481 0 
L 794 0 
L 794 531 
z
" transform="scale(0.015625)"/>
       </defs>
       <use xlink:href="#DejaVuSans-31"/>
      </g>
     </g>
    </g>
    <g id="xtick_3">
     <g id="line2d_3">
      <path d="M 315.328318 373.62 
L 315.328318 22.32 
" clip-path="url(#p1196ccab11)" style="fill: none; stroke: #cccccc; stroke-opacity: 0.3; stroke-linecap: round"/>
     </g>
     <g id="text_3">
      <!-- 2 -->
      <g style="fill: #262626" transform="translate(311.828943 391.478281) scale(0.11 -0.11)">
       <defs>
        <path id="DejaVuSans-32" d="M 1228 531 
L 3431 531 
L 3431 0 
L 469 0 
L 469 531 
Q 828 903 1448 1529 
Q 2069 2156 2228 2338 
Q 2531 2678 2651 2914 
Q 2772 3150 2772 3378 
Q 2772 3750 2511 3984 
Q 2250 4219 1831 4219 
Q 1534 4219 1204 4116 
Q 875 4013 500 3803 
L 500 4441 
Q 881 4594 1212 4672 
Q 1544 4750 1819 4750 
Q 2544 4750 2975 4387 
Q 3406 4025 3406 3419 
Q 3406 3131 3298 2873 
Q 3191 2616 2906 2266 
Q 2828 2175 2409 1742 
Q 1991 1309 1228 531 
z
" transform="scale(0.015625)"/>
       </defs>
       <use xlink:href="#DejaVuSans-32"/>
      </g>
     </g>
    </g>
    <g id="xtick_4">
     <g id="line2d_4">
      <path d="M 433.680098 373.62 
L 433.680098 22.32 
" clip-path="url(#p1196ccab11)" style="fill: none; stroke: #cccccc; stroke-opacity: 0.3; stroke-linecap: round"/>
     </g>
     <g id="text_4">
      <!-- 3 -->
      <g style="fill: #262626" transform="translate(430.180723 391.478281) scale(0.11 -0.11)">
       <defs>
        <path id="DejaVuSans-33" d="M 2597 2516 
Q 3050 2419 3304 2112 
Q 3559 1806 3559 1356 
Q 3559 666 3084 287 
Q 2609 -91 1734 -91 
Q 1441 -91 1130 -33 
Q 819 25 488 141 
L 488 750 
Q 750 597 1062 519 
Q 1375 441 1716 441 
Q 2309 441 2620 675 
Q 2931 909 2931 1356 
Q 2931 1769 2642 2001 
Q 2353 2234 1838 2234 
L 1294 2234 
L 1294 2753 
L 1863 2753 
Q 2328 2753 2575 2939 
Q 2822 3125 2822 3475 
Q 2822 3834 2567 4026 
Q 2313 4219 1838 4219 
Q 1578 4219 1281 4162 
Q 984 4106 628 3988 
L 628 4550 
Q 988 4650 1302 4700 
Q 1616 4750 1894 4750 
Q 2613 4750 3031 4423 
Q 3450 4097 3450 3541 
Q 3450 3153 3228 2886 
Q 3006 2619 2597 2516 
z
" transform="scale(0.015625)"/>
       </defs>
       <use xlink:href="#DejaVuSans-33"/>
      </g>
     </g>
    </g>
    <g id="xtick_5">
     <g id="line2d_5">
      <path d="M 552.031878 373.62 
L 552.031878 22.32 
" clip-path="url(#p1196ccab11)" style="fill: none; stroke: #cccccc; stroke-opacity: 0.3; stroke-linecap: round"/>
     </g>
     <g id="text_5">
      <!-- 4 -->
      <g style="fill: #262626" transform="translate(548.532503 391.478281) scale(0.11 -0.11)">
       <defs>
        <path id="DejaVuSans-34" d="M 2419 4116 
L 825 1625 
L 2419 1625 
L 2419 4116 
z
M 2253 4666 
L 3047 4666 
L 3047 1625 
L 3713 1625 
L 3713 1100 
L 3047 1100 
L 3047 0 
L 2419 0 
L 2419 1100 
L 313 1100 
L 313 1709 
L 2253 4666 
z
" transform="scale(0.015625)"/>
       </defs>
       <use xlink:href="#DejaVuSans-34"/>
      </g>
     </g>
    </g>
    <g id="xtick_6">
     <g id="line2d_6">
      <path d="M 670.383658 373.62 
L 670.383658 22.32 
" clip-path="url(#p1196ccab11)" style="fill: none; stroke: #cccccc; stroke-opacity: 0.3; stroke-linecap: round"/>
     </g>
     <g id="text_6">
      <!-- 5 -->
      <g style="fill: #262626" transform="translate(666.884283 391.478281) scale(0.11 -0.11)">
       <defs>
        <path id="DejaVuSans-35" d="M 691 4666 
L 3169 4666 
L 3169 4134 
L 1269 4134 
L 1269 2991 
Q 1406 3038 1543 3061 
Q 1681 3084 1819 3084 
Q 2600 3084 3056 2656 
Q 3513 2228 3513 1497 
Q 3513 744 3044 326 
Q 2575 -91 1722 -91 
Q 1428 -91 1123 -41 
Q 819 9 494 109 
L 494 744 
Q 775 591 1075 516 
Q 1375 441 1709 441 
Q 2250 441 2565 725 
Q 2881 1009 2881 1497 
Q 2881 1984 2565 2268 
Q 2250 2553 1709 2553 
Q 1456 2553 1204 2497 
Q 953 2441 691 2322 
L 691 4666 
z
" transform="scale(0.015625)"/>
       </defs>
       <use xlink:href="#DejaVuSans-35"/>
      </g>
     </g>
    </g>
    <g id="text_7">
     <!-- $\omega$ -->
     <g style="fill: #262626" transform="translate(375.381797 406.884062) scale(0.12 -0.12)">
      <defs>
       <path id="DejaVuSans-Oblique-3c9" d="M 1369 -91 
Q 72 -91 434 1766 
Q 575 2500 1256 3500 
L 1875 3500 
Q 1231 2500 1088 1750 
Q 819 397 1519 397 
Q 2166 397 2478 2078 
L 3009 2078 
Q 2669 388 3316 397 
Q 4013 403 4275 1750 
Q 4419 2500 4169 3500 
L 4788 3500 
Q 5075 2500 4934 1766 
Q 4578 -94 3278 -91 
Q 2428 -88 2503 844 
Q 2194 -91 1369 -91 
z
" transform="scale(0.015625)"/>
      </defs>
      <use xlink:href="#DejaVuSans-Oblique-3c9" transform="translate(0 0.3125)"/>
     </g>
    </g>
   </g>
   <g id="matplotlib.axis_2">
    <g id="ytick_1">
     <g id="line2d_7">
      <path d="M 61.46375 333.983777 
L 699.379844 333.983777 
" clip-path="url(#p1196ccab11)" style="fill: none; stroke: #cccccc; stroke-opacity: 0.3; stroke-linecap: round"/>
     </g>
     <g id="text_8">
      <!-- $\mathdefault{10^{9}}$ -->
      <g style="fill: #262626" transform="translate(32.60375 338.162918) scale(0.11 -0.11)">
       <defs>
        <path id="DejaVuSans-39" d="M 703 97 
L 703 672 
Q 941 559 1184 500 
Q 1428 441 1663 441 
Q 2288 441 2617 861 
Q 2947 1281 2994 2138 
Q 2813 1869 2534 1725 
Q 2256 1581 1919 1581 
Q 1219 1581 811 2004 
Q 403 2428 403 3163 
Q 403 3881 828 4315 
Q 1253 4750 1959 4750 
Q 2769 4750 3195 4129 
Q 3622 3509 3622 2328 
Q 3622 1225 3098 567 
Q 2575 -91 1691 -91 
Q 1453 -91 1209 -44 
Q 966 3 703 97 
z
M 1959 2075 
Q 2384 2075 2632 2365 
Q 2881 2656 2881 3163 
Q 2881 3666 2632 3958 
Q 2384 4250 1959 4250 
Q 1534 4250 1286 3958 
Q 1038 3666 1038 3163 
Q 1038 2656 1286 2365 
Q 1534 2075 1959 2075 
z
" transform="scale(0.015625)"/>
       </defs>
       <use xlink:href="#DejaVuSans-31" transform="translate(0 0.765625)"/>
       <use xlink:href="#DejaVuSans-30" transform="translate(63.623047 0.765625)"/>
       <use xlink:href="#DejaVuSans-39" transform="translate(128.203125 39.046875) scale(0.7)"/>
      </g>
     </g>
    </g>
    <g id="ytick_2">
     <g id="line2d_8">
      <path d="M 61.46375 294.138272 
L 699.379844 294.138272 
" clip-path="url(#p1196ccab11)" style="fill: none; stroke: #cccccc; stroke-opacity: 0.3; stroke-linecap: round"/>
     </g>
     <g id="text_9">
      <!-- $\mathdefault{10^{28}}$ -->
      <g style="fill: #262626" transform="translate(27.65375 298.317412) scale(0.11 -0.11)">
       <defs>
        <path id="DejaVuSans-38" d="M 2034 2216 
Q 1584 2216 1326 1975 
Q 1069 1734 1069 1313 
Q 1069 891 1326 650 
Q 1584 409 2034 409 
Q 2484 409 2743 651 
Q 3003 894 3003 1313 
Q 3003 1734 2745 1975 
Q 2488 2216 2034 2216 
z
M 1403 2484 
Q 997 2584 770 2862 
Q 544 3141 544 3541 
Q 544 4100 942 4425 
Q 1341 4750 2034 4750 
Q 2731 4750 3128 4425 
Q 3525 4100 3525 3541 
Q 3525 3141 3298 2862 
Q 3072 2584 2669 2484 
Q 3125 2378 3379 2068 
Q 3634 1759 3634 1313 
Q 3634 634 3220 271 
Q 2806 -91 2034 -91 
Q 1263 -91 848 271 
Q 434 634 434 1313 
Q 434 1759 690 2068 
Q 947 2378 1403 2484 
z
M 1172 3481 
Q 1172 3119 1398 2916 
Q 1625 2713 2034 2713 
Q 2441 2713 2670 2916 
Q 2900 3119 2900 3481 
Q 2900 3844 2670 4047 
Q 2441 4250 2034 4250 
Q 1625 4250 1398 4047 
Q 1172 3844 1172 3481 
z
" transform="scale(0.015625)"/>
       </defs>
       <use xlink:href="#DejaVuSans-31" transform="translate(0 0.765625)"/>
       <use xlink:href="#DejaVuSans-30" transform="translate(63.623047 0.765625)"/>
       <use xlink:href="#DejaVuSans-32" transform="translate(128.203125 39.046875) scale(0.7)"/>
       <use xlink:href="#DejaVuSans-38" transform="translate(172.739258 39.046875) scale(0.7)"/>
      </g>
     </g>
    </g>
    <g id="ytick_3">
     <g id="line2d_9">
      <path d="M 61.46375 254.292766 
L 699.379844 254.292766 
" clip-path="url(#p1196ccab11)" style="fill: none; stroke: #cccccc; stroke-opacity: 0.3; stroke-linecap: round"/>
     </g>
     <g id="text_10">
      <!-- $\mathdefault{10^{47}}$ -->
      <g style="fill: #262626" transform="translate(27.65375 258.471906) scale(0.11 -0.11)">
       <defs>
        <path id="DejaVuSans-37" d="M 525 4666 
L 3525 4666 
L 3525 4397 
L 1831 0 
L 1172 0 
L 2766 4134 
L 525 4134 
L 525 4666 
z
" transform="scale(0.015625)"/>
       </defs>
       <use xlink:href="#DejaVuSans-31" transform="translate(0 0.684375)"/>
       <use xlink:href="#DejaVuSans-30" transform="translate(63.623047 0.684375)"/>
       <use xlink:href="#DejaVuSans-34" transform="translate(128.203125 38.965625) scale(0.7)"/>
       <use xlink:href="#DejaVuSans-37" transform="translate(172.739258 38.965625) scale(0.7)"/>
      </g>
     </g>
    </g>
    <g id="ytick_4">
     <g id="line2d_10">
      <path d="M 61.46375 214.44726 
L 699.379844 214.44726 
" clip-path="url(#p1196ccab11)" style="fill: none; stroke: #cccccc; stroke-opacity: 0.3; stroke-linecap: round"/>
     </g>
     <g id="text_11">
      <!-- $\mathdefault{10^{66}}$ -->
      <g style="fill: #262626" transform="translate(27.65375 218.626401) scale(0.11 -0.11)">
       <defs>
        <path id="DejaVuSans-36" d="M 2113 2584 
Q 1688 2584 1439 2293 
Q 1191 2003 1191 1497 
Q 1191 994 1439 701 
Q 1688 409 2113 409 
Q 2538 409 2786 701 
Q 3034 994 3034 1497 
Q 3034 2003 2786 2293 
Q 2538 2584 2113 2584 
z
M 3366 4563 
L 3366 3988 
Q 3128 4100 2886 4159 
Q 2644 4219 2406 4219 
Q 1781 4219 1451 3797 
Q 1122 3375 1075 2522 
Q 1259 2794 1537 2939 
Q 1816 3084 2150 3084 
Q 2853 3084 3261 2657 
Q 3669 2231 3669 1497 
Q 3669 778 3244 343 
Q 2819 -91 2113 -91 
Q 1303 -91 875 529 
Q 447 1150 447 2328 
Q 447 3434 972 4092 
Q 1497 4750 2381 4750 
Q 2619 4750 2861 4703 
Q 3103 4656 3366 4563 
z
" transform="scale(0.015625)"/>
       </defs>
       <use xlink:href="#DejaVuSans-31" transform="translate(0 0.765625)"/>
       <use xlink:href="#DejaVuSans-30" transform="translate(63.623047 0.765625)"/>
       <use xlink:href="#DejaVuSans-36" transform="translate(128.203125 39.046875) scale(0.7)"/>
       <use xlink:href="#DejaVuSans-36" transform="translate(172.739258 39.046875) scale(0.7)"/>
      </g>
     </g>
    </g>
    <g id="ytick_5">
     <g id="line2d_11">
      <path d="M 61.46375 174.601754 
L 699.379844 174.601754 
" clip-path="url(#p1196ccab11)" style="fill: none; stroke: #cccccc; stroke-opacity: 0.3; stroke-linecap: round"/>
     </g>
     <g id="text_12">
      <!-- $\mathdefault{10^{85}}$ -->
      <g style="fill: #262626" transform="translate(27.65375 178.780895) scale(0.11 -0.11)">
       <use xlink:href="#DejaVuSans-31" transform="translate(0 0.765625)"/>
       <use xlink:href="#DejaVuSans-30" transform="translate(63.623047 0.765625)"/>
       <use xlink:href="#DejaVuSans-38" transform="translate(128.203125 39.046875) scale(0.7)"/>
       <use xlink:href="#DejaVuSans-35" transform="translate(172.739258 39.046875) scale(0.7)"/>
      </g>
     </g>
    </g>
    <g id="ytick_6">
     <g id="line2d_12">
      <path d="M 61.46375 134.756248 
L 699.379844 134.756248 
" clip-path="url(#p1196ccab11)" style="fill: none; stroke: #cccccc; stroke-opacity: 0.3; stroke-linecap: round"/>
     </g>
     <g id="text_13">
      <!-- $\mathdefault{10^{104}}$ -->
      <g style="fill: #262626" transform="translate(22.81375 138.935389) scale(0.11 -0.11)">
       <use xlink:href="#DejaVuSans-31" transform="translate(0 0.765625)"/>
       <use xlink:href="#DejaVuSans-30" transform="translate(63.623047 0.765625)"/>
       <use xlink:href="#DejaVuSans-31" transform="translate(128.203125 39.046875) scale(0.7)"/>
       <use xlink:href="#DejaVuSans-30" transform="translate(172.739258 39.046875) scale(0.7)"/>
       <use xlink:href="#DejaVuSans-34" transform="translate(217.275391 39.046875) scale(0.7)"/>
      </g>
     </g>
    </g>
    <g id="ytick_7">
     <g id="line2d_13">
      <path d="M 61.46375 94.910743 
L 699.379844 94.910743 
" clip-path="url(#p1196ccab11)" style="fill: none; stroke: #cccccc; stroke-opacity: 0.3; stroke-linecap: round"/>
     </g>
     <g id="text_14">
      <!-- $\mathdefault{10^{123}}$ -->
      <g style="fill: #262626" transform="translate(22.81375 99.089883) scale(0.11 -0.11)">
       <use xlink:href="#DejaVuSans-31" transform="translate(0 0.765625)"/>
       <use xlink:href="#DejaVuSans-30" transform="translate(63.623047 0.765625)"/>
       <use xlink:href="#DejaVuSans-31" transform="translate(128.203125 39.046875) scale(0.7)"/>
       <use xlink:href="#DejaVuSans-32" transform="translate(172.739258 39.046875) scale(0.7)"/>
       <use xlink:href="#DejaVuSans-33" transform="translate(217.275391 39.046875) scale(0.7)"/>
      </g>
     </g>
    </g>
    <g id="ytick_8">
     <g id="line2d_14">
      <path d="M 61.46375 55.065237 
L 699.379844 55.065237 
" clip-path="url(#p1196ccab11)" style="fill: none; stroke: #cccccc; stroke-opacity: 0.3; stroke-linecap: round"/>
     </g>
     <g id="text_15">
      <!-- $\mathdefault{10^{142}}$ -->
      <g style="fill: #262626" transform="translate(22.81375 59.244378) scale(0.11 -0.11)">
       <use xlink:href="#DejaVuSans-31" transform="translate(0 0.765625)"/>
       <use xlink:href="#DejaVuSans-30" transform="translate(63.623047 0.765625)"/>
       <use xlink:href="#DejaVuSans-31" transform="translate(128.203125 39.046875) scale(0.7)"/>
       <use xlink:href="#DejaVuSans-34" transform="translate(172.739258 39.046875) scale(0.7)"/>
       <use xlink:href="#DejaVuSans-32" transform="translate(217.275391 39.046875) scale(0.7)"/>
      </g>
     </g>
    </g>
    <g id="text_16">
     <!-- $\Delta\omega$ -->
     <g style="fill: #262626" transform="translate(16.318125 207.15) rotate(-90) scale(0.12 -0.12)">
      <defs>
       <path id="DejaVuSans-394" d="M 2188 4044 
L 906 525 
L 3472 525 
L 2188 4044 
z
M 50 0 
L 1831 4666 
L 2547 4666 
L 4325 0 
L 50 0 
z
" transform="scale(0.015625)"/>
      </defs>
      <use xlink:href="#DejaVuSans-394" transform="translate(0 0.09375)"/>
      <use xlink:href="#DejaVuSans-Oblique-3c9" transform="translate(68.408203 0.09375)"/>
     </g>
    </g>
   </g>
   <g id="line2d_15">
    <path d="M 90.459936 330.446209 
L 102.295114 330.762261 
L 114.130292 331.524509 
L 125.96547 330.714326 
L 137.800648 330.714326 
L 149.635826 329.713292 
L 161.471004 331.515896 
L 173.306182 38.288182 
L 185.14136 330.446209 
L 196.976538 329.713292 
L 208.811716 330.762261 
L 220.646894 330.028942 
L 232.482072 330.762261 
L 244.31725 330.660746 
L 256.152428 331.479633 
L 267.987606 332.002535 
L 279.822784 331.507117 
L 291.657962 331.440321 
L 303.49314 331.733238 
L 315.328318 331.429939 
L 327.163496 329.713292 
L 338.998674 331.306043 
L 350.833852 331.429939 
L 362.66903 329.713292 
L 374.504208 329.713292 
L 386.339386 330.762261 
L 398.174564 331.292045 
L 410.009742 331.507117 
L 421.84492 331.524509 
L 433.680098 330.881646 
L 445.515276 330.762261 
L 457.350454 331.524509 
L 469.185632 331.515896 
L 481.02081 330.762261 
L 492.855988 38.288182 
L 504.691166 331.003973 
L 516.526344 329.713292 
L 528.361522 332.103857 
L 540.1967 330.976144 
L 552.031878 331.440321 
L 563.867056 330.762261 
L 575.702234 330.881646 
L 587.537412 331.450471 
L 599.37259 331.003973 
L 611.207768 329.713292 
L 623.042946 331.160871 
L 634.878124 329.713292 
L 646.713302 331.524509 
L 658.54848 331.507117 
L 670.383658 331.319623 
" clip-path="url(#p1196ccab11)" style="fill: none; stroke: #463480; stroke-width: 1.5; stroke-linecap: round"/>
   </g>
   <g id="line2d_16">
    <path d="M 61.46375 355.296606 
L 699.379844 355.296606 
" clip-path="url(#p1196ccab11)" style="fill: none; stroke-dasharray: 3.7,1.6; stroke-dashoffset: 0; stroke: #463480; stroke-opacity: 0.6"/>
   </g>
   <g id="line2d_17">
    <path d="M 90.459936 331.222401 
L 102.295114 331.702212 
L 114.130292 330.869336 
L 125.96547 330.500414 
L 137.800648 331.64485 
L 149.635826 331.217561 
L 161.471004 331.254306 
L 173.306182 330.647897 
L 185.14136 331.534634 
L 196.976538 330.844647 
L 208.811716 330.705067 
L 220.646894 331.606475 
L 232.482072 331.587648 
L 244.31725 330.851337 
L 256.152428 330.181398 
L 267.987606 331.536439 
L 279.822784 331.404826 
L 291.657962 331.149833 
L 303.49314 329.860469 
L 315.328318 331.563389 
L 327.163496 331.573667 
L 338.998674 330.18077 
L 350.833852 330.29824 
L 362.66903 331.585318 
L 374.504208 328.704114 
L 386.339386 330.873279 
L 398.174564 330.557939 
L 410.009742 330.866476 
L 421.84492 331.780771 
L 433.680098 331.524156 
L 445.515276 331.599122 
L 457.350454 330.820146 
L 469.185632 331.574303 
L 481.02081 331.604788 
L 492.855988 330.808025 
L 504.691166 331.607708 
L 516.526344 331.414574 
L 528.361522 329.965005 
L 540.1967 330.824472 
L 552.031878 330.782809 
L 563.867056 331.534466 
L 575.702234 330.255469 
L 587.537412 330.983545 
L 599.37259 330.765853 
L 611.207768 330.766465 
L 623.042946 330.64632 
L 634.878124 331.608636 
L 646.713302 330.969575 
L 658.54848 330.175298 
L 670.383658 330.194683 
" clip-path="url(#p1196ccab11)" style="fill: none; stroke: #3e4c8a; stroke-width: 1.5; stroke-linecap: round"/>
   </g>
   <g id="line2d_18">
    <path d="M 61.46375 356.174694 
L 699.379844 356.174694 
" clip-path="url(#p1196ccab11)" style="fill: none; stroke-dasharray: 3.7,1.6; stroke-dashoffset: 0; stroke: #3e4c8a; stroke-opacity: 0.6"/>
   </g>
   <g id="line2d_19">
    <path d="M 90.459936 330.486651 
L 102.295114 331.19927 
L 114.130292 331.609786 
L 125.96547 331.335082 
L 137.800648 331.815462 
L 149.635826 331.391457 
L 161.471004 331.358825 
L 173.306182 331.806046 
L 185.14136 331.614101 
L 196.976538 331.81825 
L 208.811716 331.435751 
L 220.646894 331.673604 
L 232.482072 331.715773 
L 244.31725 331.396052 
L 256.152428 331.600376 
L 267.987606 331.867769 
L 279.822784 331.790653 
L 291.657962 331.604024 
L 303.49314 331.784127 
L 315.328318 331.800483 
L 327.163496 331.623688 
L 338.998674 331.605491 
L 350.833852 331.829423 
L 362.66903 331.385213 
L 374.504208 331.488467 
L 386.339386 331.806996 
L 398.174564 330.589336 
L 410.009742 331.795925 
L 421.84492 330.284933 
L 433.680098 331.336117 
L 445.515276 330.39617 
L 457.350454 331.864967 
L 469.185632 331.803272 
L 481.02081 331.616389 
L 492.855988 330.659171 
L 504.691166 331.86099 
L 516.526344 331.400343 
L 528.361522 331.615981 
L 540.1967 331.367737 
L 552.031878 331.819658 
L 563.867056 331.390381 
L 575.702234 331.320617 
L 587.537412 331.370859 
L 599.37259 331.335941 
L 611.207768 330.341056 
L 623.042946 331.10596 
L 634.878124 330.255467 
L 646.713302 331.810513 
L 658.54848 331.80028 
L 670.383658 331.358163 
" clip-path="url(#p1196ccab11)" style="fill: none; stroke: #34618d; stroke-width: 1.5; stroke-linecap: round"/>
   </g>
   <g id="line2d_20">
    <path d="M 61.46375 356.60348 
L 699.379844 356.60348 
" clip-path="url(#p1196ccab11)" style="fill: none; stroke-dasharray: 3.7,1.6; stroke-dashoffset: 0; stroke: #34618d; stroke-opacity: 0.6"/>
   </g>
   <g id="line2d_21">
    <path d="M 90.459936 330.547947 
L 102.295114 330.535912 
L 114.130292 331.372886 
L 125.96547 331.828456 
L 137.800648 331.369134 
L 149.635826 331.148574 
L 161.471004 331.748321 
L 173.306182 331.635726 
L 185.14136 330.530156 
L 196.976538 329.646307 
L 208.811716 331.754332 
L 220.646894 331.281218 
L 232.482072 331.645738 
L 244.31725 331.737104 
L 256.152428 331.161863 
L 267.987606 331.744242 
L 279.822784 330.55484 
L 291.657962 331.725212 
L 303.49314 331.652635 
L 315.328318 331.774906 
L 327.163496 331.165273 
L 338.998674 331.465032 
L 350.833852 331.248199 
L 362.66903 331.406016 
L 374.504208 331.745347 
L 386.339386 331.674139 
L 398.174564 331.619554 
L 410.009742 331.367098 
L 421.84492 331.272944 
L 433.680098 331.649716 
L 445.515276 331.955524 
L 457.350454 331.174039 
L 469.185632 330.369662 
L 481.02081 331.134272 
L 492.855988 331.070826 
L 504.691166 331.108767 
L 516.526344 331.028697 
L 528.361522 331.108935 
L 540.1967 331.437789 
L 552.031878 331.821341 
L 563.867056 331.281863 
L 575.702234 331.654186 
L 587.537412 331.377815 
L 599.37259 331.022905 
L 611.207768 331.694878 
L 623.042946 331.761505 
L 634.878124 331.827723 
L 646.713302 331.042885 
L 658.54848 328.460304 
L 670.383658 331.747468 
" clip-path="url(#p1196ccab11)" style="fill: none; stroke: #2b748e; stroke-width: 1.5; stroke-linecap: round"/>
   </g>
   <g id="line2d_22">
    <path d="M 61.46375 356.892655 
L 699.379844 356.892655 
" clip-path="url(#p1196ccab11)" style="fill: none; stroke-dasharray: 3.7,1.6; stroke-dashoffset: 0; stroke: #2b748e; stroke-opacity: 0.6"/>
   </g>
   <g id="line2d_23">
    <path d="M 90.459936 331.774618 
L 102.295114 331.266359 
L 114.130292 328.34593 
L 125.96547 331.356164 
L 137.800648 330.507736 
L 149.635826 330.553215 
L 161.471004 330.207127 
L 173.306182 330.622631 
L 185.14136 331.797872 
L 196.976538 331.139937 
L 208.811716 331.218718 
L 220.646894 330.692633 
L 232.482072 331.005043 
L 244.31725 331.180691 
L 256.152428 331.241807 
L 267.987606 331.168962 
L 279.822784 331.775584 
L 291.657962 330.657465 
L 303.49314 331.757644 
L 315.328318 331.109089 
L 327.163496 330.824871 
L 338.998674 330.325447 
L 350.833852 331.635064 
L 362.66903 331.836813 
L 374.504208 331.697224 
L 386.339386 331.061265 
L 398.174564 330.771587 
L 410.009742 331.796677 
L 421.84492 331.410511 
L 433.680098 330.214443 
L 445.515276 330.757479 
L 457.350454 331.675363 
L 469.185632 331.728735 
L 481.02081 330.301592 
L 492.855988 330.049331 
L 504.691166 331.197244 
L 516.526344 331.171008 
L 528.361522 331.847542 
L 540.1967 331.364186 
L 552.031878 331.058897 
L 563.867056 330.895177 
L 575.702234 331.083041 
L 587.537412 331.748991 
L 599.37259 330.600829 
L 611.207768 330.299037 
L 623.042946 330.616816 
L 634.878124 330.557998 
L 646.713302 331.133015 
L 658.54848 331.052203 
L 670.383658 330.151929 
" clip-path="url(#p1196ccab11)" style="fill: none; stroke: #24878e; stroke-width: 1.5; stroke-linecap: round"/>
   </g>
   <g id="line2d_24">
    <path d="M 61.46375 357.111463 
L 699.379844 357.111463 
" clip-path="url(#p1196ccab11)" style="fill: none; stroke-dasharray: 3.7,1.6; stroke-dashoffset: 0; stroke: #24878e; stroke-opacity: 0.6"/>
   </g>
   <g id="line2d_25">
    <path d="M 90.459936 331.376428 
L 102.295114 331.170704 
L 114.130292 331.016351 
L 125.96547 331.282533 
L 137.800648 331.217671 
L 149.635826 330.713136 
L 161.471004 330.245278 
L 173.306182 330.752666 
L 185.14136 331.322632 
L 196.976538 331.254971 
L 208.811716 331.447598 
L 220.646894 331.247504 
L 232.482072 331.094847 
L 244.31725 331.774709 
L 256.152428 330.287517 
L 267.987606 331.29485 
L 279.822784 331.354782 
L 291.657962 331.376538 
L 303.49314 331.363431 
L 315.328318 331.212749 
L 327.163496 331.385675 
L 338.998674 331.097333 
L 350.833852 330.896497 
L 362.66903 331.102644 
L 374.504208 331.226508 
L 386.339386 331.618562 
L 398.174564 331.25738 
L 410.009742 330.882432 
L 421.84492 331.462575 
L 433.680098 331.055362 
L 445.515276 330.709288 
L 457.350454 331.54932 
L 469.185632 331.354175 
L 481.02081 331.247397 
L 492.855988 331.346461 
L 504.691166 331.204311 
L 516.526344 331.122649 
L 528.361522 331.709963 
L 540.1967 331.160392 
L 552.031878 331.582308 
L 563.867056 331.404791 
L 575.702234 330.651878 
L 587.537412 331.119034 
L 599.37259 331.463099 
L 611.207768 331.345762 
L 623.042946 330.541736 
L 634.878124 331.486774 
L 646.713302 331.328522 
L 658.54848 331.025777 
L 670.383658 330.291513 
" clip-path="url(#p1196ccab11)" style="fill: none; stroke: #1f998a; stroke-width: 1.5; stroke-linecap: round"/>
   </g>
   <g id="line2d_26">
    <path d="M 61.46375 357.287621 
L 699.379844 357.287621 
" clip-path="url(#p1196ccab11)" style="fill: none; stroke-dasharray: 3.7,1.6; stroke-dashoffset: 0; stroke: #1f998a; stroke-opacity: 0.6"/>
   </g>
   <g id="line2d_27">
    <path d="M 90.459936 331.30279 
L 102.295114 331.011683 
L 114.130292 331.627678 
L 125.96547 331.320603 
L 137.800648 331.127246 
L 149.635826 330.195557 
L 161.471004 331.461786 
L 173.306182 331.469221 
L 185.14136 331.240604 
L 196.976538 331.712457 
L 208.811716 331.691279 
L 220.646894 330.36457 
L 232.482072 330.86341 
L 244.31725 331.081011 
L 256.152428 331.258181 
L 267.987606 331.355107 
L 279.822784 331.408753 
L 291.657962 330.895192 
L 303.49314 331.440127 
L 315.328318 331.388694 
L 327.163496 331.026484 
L 338.998674 330.940074 
L 350.833852 331.443341 
L 362.66903 331.518065 
L 374.504208 331.099394 
L 386.339386 331.089843 
L 398.174564 331.624694 
L 410.009742 331.289879 
L 421.84492 331.213318 
L 433.680098 331.054881 
L 445.515276 330.226833 
L 457.350454 330.256034 
L 469.185632 331.732124 
L 481.02081 331.2618 
L 492.855988 331.845585 
L 504.691166 331.222917 
L 516.526344 331.32521 
L 528.361522 329.736659 
L 540.1967 331.349436 
L 552.031878 331.06584 
L 563.867056 331.251864 
L 575.702234 330.977717 
L 587.537412 331.671498 
L 599.37259 331.791009 
L 611.207768 332.031724 
L 623.042946 331.367666 
L 634.878124 330.844797 
L 646.713302 331.430392 
L 658.54848 331.646909 
L 670.383658 330.867898 
" clip-path="url(#p1196ccab11)" style="fill: none; stroke: #25ac82; stroke-width: 1.5; stroke-linecap: round"/>
   </g>
   <g id="line2d_28">
    <path d="M 61.46375 357.435104 
L 699.379844 357.435104 
" clip-path="url(#p1196ccab11)" style="fill: none; stroke-dasharray: 3.7,1.6; stroke-dashoffset: 0; stroke: #25ac82; stroke-opacity: 0.6"/>
   </g>
   <g id="line2d_29">
    <path d="M 90.459936 331.398827 
L 102.295114 331.492837 
L 114.130292 331.730088 
L 125.96547 331.351742 
L 137.800648 331.008504 
L 149.635826 331.182028 
L 161.471004 331.4117 
L 173.306182 331.130209 
L 185.14136 331.801555 
L 196.976538 331.142394 
L 208.811716 331.541039 
L 220.646894 331.531183 
L 232.482072 331.14544 
L 244.31725 331.628301 
L 256.152428 330.945473 
L 267.987606 331.780098 
L 279.822784 330.573437 
L 291.657962 331.553129 
L 303.49314 330.666214 
L 315.328318 331.223005 
L 327.163496 331.333762 
L 338.998674 331.730133 
L 350.833852 331.463627 
L 362.66903 331.415328 
L 374.504208 331.149129 
L 386.339386 331.18739 
L 398.174564 331.419601 
L 410.009742 331.555123 
L 421.84492 331.945277 
L 433.680098 330.816932 
L 445.515276 331.437334 
L 457.350454 331.270611 
L 469.185632 331.478858 
L 481.02081 331.260129 
L 492.855988 331.643855 
L 504.691166 331.348936 
L 516.526344 331.416698 
L 528.361522 331.475054 
L 540.1967 331.318193 
L 552.031878 331.535127 
L 563.867056 331.192043 
L 575.702234 331.578009 
L 587.537412 331.088228 
L 599.37259 331.708327 
L 611.207768 331.45429 
L 623.042946 331.160071 
L 634.878124 331.536603 
L 646.713302 330.772975 
L 658.54848 331.512477 
L 670.383658 331.687366 
" clip-path="url(#p1196ccab11)" style="fill: none; stroke: #40bd72; stroke-width: 1.5; stroke-linecap: round"/>
   </g>
   <g id="line2d_30">
    <path d="M 61.46375 357.561967 
L 699.379844 357.561967 
" clip-path="url(#p1196ccab11)" style="fill: none; stroke-dasharray: 3.7,1.6; stroke-dashoffset: 0; stroke: #40bd72; stroke-opacity: 0.6"/>
   </g>
   <g id="line2d_31">
    <path d="M 90.459936 331.343093 
L 102.295114 330.827898 
L 114.130292 331.074942 
L 125.96547 331.225427 
L 137.800648 330.557295 
L 149.635826 330.865182 
L 161.471004 331.388441 
L 173.306182 331.125917 
L 185.14136 331.065962 
L 196.976538 331.238295 
L 208.811716 331.010804 
L 220.646894 331.001838 
L 232.482072 331.462835 
L 244.31725 331.064931 
L 256.152428 331.046921 
L 267.987606 331.414374 
L 279.822784 331.327013 
L 291.657962 331.175759 
L 303.49314 330.120579 
L 315.328318 331.15828 
L 327.163496 331.016988 
L 338.998674 330.881061 
L 350.833852 331.365894 
L 362.66903 331.154618 
L 374.504208 331.085999 
L 386.339386 331.371127 
L 398.174564 331.408616 
L 410.009742 330.856408 
L 421.84492 331.318836 
L 433.680098 330.946616 
L 445.515276 330.557798 
L 457.350454 330.67945 
L 469.185632 331.472501 
L 481.02081 330.921368 
L 492.855988 331.312096 
L 504.691166 331.39509 
L 516.526344 330.735783 
L 528.361522 330.185689 
L 540.1967 331.108207 
L 552.031878 331.237838 
L 563.867056 330.95636 
L 575.702234 331.341352 
L 587.537412 330.622452 
L 599.37259 331.458851 
L 611.207768 331.217938 
L 623.042946 330.900939 
L 634.878124 331.018502 
L 646.713302 330.630245 
L 658.54848 331.427673 
L 670.383658 331.237997 
" clip-path="url(#p1196ccab11)" style="fill: none; stroke: #69cd5b; stroke-width: 1.5; stroke-linecap: round"/>
   </g>
   <g id="line2d_32">
    <path d="M 61.46375 357.651818 
L 699.379844 357.651818 
" clip-path="url(#p1196ccab11)" style="fill: none; stroke-dasharray: 3.7,1.6; stroke-dashoffset: 0; stroke: #69cd5b; stroke-opacity: 0.6"/>
   </g>
   <g id="line2d_33">
    <path d="M 90.459936 331.560934 
L 102.295114 331.25007 
L 114.130292 329.383056 
L 125.96547 331.641853 
L 137.800648 331.431612 
L 149.635826 330.770027 
L 161.471004 330.940346 
L 173.306182 331.453199 
L 185.14136 330.704742 
L 196.976538 331.375273 
L 208.811716 331.273687 
L 220.646894 331.600169 
L 232.482072 331.448879 
L 244.31725 331.231265 
L 256.152428 331.398531 
L 267.987606 330.995761 
L 279.822784 331.160477 
L 291.657962 330.977294 
L 303.49314 331.561638 
L 315.328318 330.923304 
L 327.163496 330.961528 
L 338.998674 331.770134 
L 350.833852 331.490288 
L 362.66903 331.357849 
L 374.504208 331.215521 
L 386.339386 331.463241 
L 398.174564 331.172597 
L 410.009742 331.445011 
L 421.84492 331.363008 
L 433.680098 331.447586 
L 445.515276 331.332555 
L 457.350454 331.578569 
L 469.185632 331.665693 
L 481.02081 331.229407 
L 492.855988 331.618084 
L 504.691166 331.04729 
L 516.526344 331.781541 
L 528.361522 330.249614 
L 540.1967 331.498767 
L 552.031878 331.180131 
L 563.867056 330.710529 
L 575.702234 331.553393 
L 587.537412 331.388436 
L 599.37259 331.336936 
L 611.207768 331.55706 
L 623.042946 331.496916 
L 634.878124 331.277628 
L 646.713302 331.324535 
L 658.54848 330.885993 
L 670.383658 331.338439 
" clip-path="url(#p1196ccab11)" style="fill: none; stroke: #9bd93c; stroke-width: 1.5; stroke-linecap: round"/>
   </g>
   <g id="line2d_34">
    <path d="M 61.46375 357.696836 
L 699.379844 357.696836 
" clip-path="url(#p1196ccab11)" style="fill: none; stroke-dasharray: 3.7,1.6; stroke-dashoffset: 0; stroke: #9bd93c; stroke-opacity: 0.6"/>
   </g>
   <g id="patch_3">
    <path d="M 61.46375 373.62 
L 61.46375 22.32 
" style="fill: none; stroke: #cccccc; stroke-width: 1.25; stroke-linejoin: miter; stroke-linecap: square"/>
   </g>
   <g id="patch_4">
    <path d="M 699.379844 373.62 
L 699.379844 22.32 
" style="fill: none; stroke: #cccccc; stroke-width: 1.25; stroke-linejoin: miter; stroke-linecap: square"/>
   </g>
   <g id="patch_5">
    <path d="M 61.46375 373.62 
L 699.379844 373.62 
" style="fill: none; stroke: #cccccc; stroke-width: 1.25; stroke-linejoin: miter; stroke-linecap: square"/>
   </g>
   <g id="patch_6">
    <path d="M 61.46375 22.32 
L 699.379844 22.32 
" style="fill: none; stroke: #cccccc; stroke-width: 1.25; stroke-linejoin: miter; stroke-linecap: square"/>
   </g>
   <g id="text_17">
    <!-- SV — Phase Sensitivity vs $\omega$ -->
    <g style="fill: #262626" transform="translate(296.061797 16.32) scale(0.12 -0.12)">
     <defs>
      <path id="DejaVuSans-53" d="M 3425 4513 
L 3425 3897 
Q 3066 4069 2747 4153 
Q 2428 4238 2131 4238 
Q 1616 4238 1336 4038 
Q 1056 3838 1056 3469 
Q 1056 3159 1242 3001 
Q 1428 2844 1947 2747 
L 2328 2669 
Q 3034 2534 3370 2195 
Q 3706 1856 3706 1288 
Q 3706 609 3251 259 
Q 2797 -91 1919 -91 
Q 1588 -91 1214 -16 
Q 841 59 441 206 
L 441 856 
Q 825 641 1194 531 
Q 1563 422 1919 422 
Q 2459 422 2753 634 
Q 3047 847 3047 1241 
Q 3047 1584 2836 1778 
Q 2625 1972 2144 2069 
L 1759 2144 
Q 1053 2284 737 2584 
Q 422 2884 422 3419 
Q 422 4038 858 4394 
Q 1294 4750 2059 4750 
Q 2388 4750 2728 4690 
Q 3069 4631 3425 4513 
z
" transform="scale(0.015625)"/>
      <path id="DejaVuSans-56" d="M 1831 0 
L 50 4666 
L 709 4666 
L 2188 738 
L 3669 4666 
L 4325 4666 
L 2547 0 
L 1831 0 
z
" transform="scale(0.015625)"/>
      <path id="DejaVuSans-20" transform="scale(0.015625)"/>
      <path id="DejaVuSansDisplay-2014" d="M 313 1978 
L 6088 1978 
L 6088 1528 
L 313 1528 
L 313 1978 
z
" transform="scale(0.015625)"/>
      <path id="DejaVuSans-50" d="M 1259 4147 
L 1259 2394 
L 2053 2394 
Q 2494 2394 2734 2622 
Q 2975 2850 2975 3272 
Q 2975 3691 2734 3919 
Q 2494 4147 2053 4147 
L 1259 4147 
z
M 628 4666 
L 2053 4666 
Q 2838 4666 3239 4311 
Q 3641 3956 3641 3272 
Q 3641 2581 3239 2228 
Q 2838 1875 2053 1875 
L 1259 1875 
L 1259 0 
L 628 0 
L 628 4666 
z
" transform="scale(0.015625)"/>
      <path id="DejaVuSans-68" d="M 3513 2113 
L 3513 0 
L 2938 0 
L 2938 2094 
Q 2938 2591 2744 2837 
Q 2550 3084 2163 3084 
Q 1697 3084 1428 2787 
Q 1159 2491 1159 1978 
L 1159 0 
L 581 0 
L 581 4863 
L 1159 4863 
L 1159 2956 
Q 1366 3272 1645 3428 
Q 1925 3584 2291 3584 
Q 2894 3584 3203 3211 
Q 3513 2838 3513 2113 
z
" transform="scale(0.015625)"/>
      <path id="DejaVuSans-61" d="M 2194 1759 
Q 1497 1759 1228 1600 
Q 959 1441 959 1056 
Q 959 750 1161 570 
Q 1363 391 1709 391 
Q 2188 391 2477 730 
Q 2766 1069 2766 1631 
L 2766 1759 
L 2194 1759 
z
M 3341 1997 
L 3341 0 
L 2766 0 
L 2766 531 
Q 2569 213 2275 61 
Q 1981 -91 1556 -91 
Q 1019 -91 701 211 
Q 384 513 384 1019 
Q 384 1609 779 1909 
Q 1175 2209 1959 2209 
L 2766 2209 
L 2766 2266 
Q 2766 2663 2505 2880 
Q 2244 3097 1772 3097 
Q 1472 3097 1187 3025 
Q 903 2953 641 2809 
L 641 3341 
Q 956 3463 1253 3523 
Q 1550 3584 1831 3584 
Q 2591 3584 2966 3190 
Q 3341 2797 3341 1997 
z
" transform="scale(0.015625)"/>
      <path id="DejaVuSans-73" d="M 2834 3397 
L 2834 2853 
Q 2591 2978 2328 3040 
Q 2066 3103 1784 3103 
Q 1356 3103 1142 2972 
Q 928 2841 928 2578 
Q 928 2378 1081 2264 
Q 1234 2150 1697 2047 
L 1894 2003 
Q 2506 1872 2764 1633 
Q 3022 1394 3022 966 
Q 3022 478 2636 193 
Q 2250 -91 1575 -91 
Q 1294 -91 989 -36 
Q 684 19 347 128 
L 347 722 
Q 666 556 975 473 
Q 1284 391 1588 391 
Q 1994 391 2212 530 
Q 2431 669 2431 922 
Q 2431 1156 2273 1281 
Q 2116 1406 1581 1522 
L 1381 1569 
Q 847 1681 609 1914 
Q 372 2147 372 2553 
Q 372 3047 722 3315 
Q 1072 3584 1716 3584 
Q 2034 3584 2315 3537 
Q 2597 3491 2834 3397 
z
" transform="scale(0.015625)"/>
      <path id="DejaVuSans-65" d="M 3597 1894 
L 3597 1613 
L 953 1613 
Q 991 1019 1311 708 
Q 1631 397 2203 397 
Q 2534 397 2845 478 
Q 3156 559 3463 722 
L 3463 178 
Q 3153 47 2828 -22 
Q 2503 -91 2169 -91 
Q 1331 -91 842 396 
Q 353 884 353 1716 
Q 353 2575 817 3079 
Q 1281 3584 2069 3584 
Q 2775 3584 3186 3129 
Q 3597 2675 3597 1894 
z
M 3022 2063 
Q 3016 2534 2758 2815 
Q 2500 3097 2075 3097 
Q 1594 3097 1305 2825 
Q 1016 2553 972 2059 
L 3022 2063 
z
" transform="scale(0.015625)"/>
      <path id="DejaVuSans-6e" d="M 3513 2113 
L 3513 0 
L 2938 0 
L 2938 2094 
Q 2938 2591 2744 2837 
Q 2550 3084 2163 3084 
Q 1697 3084 1428 2787 
Q 1159 2491 1159 1978 
L 1159 0 
L 581 0 
L 581 3500 
L 1159 3500 
L 1159 2956 
Q 1366 3272 1645 3428 
Q 1925 3584 2291 3584 
Q 2894 3584 3203 3211 
Q 3513 2838 3513 2113 
z
" transform="scale(0.015625)"/>
      <path id="DejaVuSans-69" d="M 603 3500 
L 1178 3500 
L 1178 0 
L 603 0 
L 603 3500 
z
M 603 4863 
L 1178 4863 
L 1178 4134 
L 603 4134 
L 603 4863 
z
" transform="scale(0.015625)"/>
      <path id="DejaVuSans-74" d="M 1172 4494 
L 1172 3500 
L 2356 3500 
L 2356 3053 
L 1172 3053 
L 1172 1153 
Q 1172 725 1289 603 
Q 1406 481 1766 481 
L 2356 481 
L 2356 0 
L 1766 0 
Q 1100 0 847 248 
Q 594 497 594 1153 
L 594 3053 
L 172 3053 
L 172 3500 
L 594 3500 
L 594 4494 
L 1172 4494 
z
" transform="scale(0.015625)"/>
      <path id="DejaVuSans-76" d="M 191 3500 
L 800 3500 
L 1894 563 
L 2988 3500 
L 3597 3500 
L 2284 0 
L 1503 0 
L 191 3500 
z
" transform="scale(0.015625)"/>
      <path id="DejaVuSans-79" d="M 2059 -325 
Q 1816 -950 1584 -1140 
Q 1353 -1331 966 -1331 
L 506 -1331 
L 506 -850 
L 844 -850 
Q 1081 -850 1212 -737 
Q 1344 -625 1503 -206 
L 1606 56 
L 191 3500 
L 800 3500 
L 1894 763 
L 2988 3500 
L 3597 3500 
L 2059 -325 
z
" transform="scale(0.015625)"/>
     </defs>
     <use xlink:href="#DejaVuSans-53" transform="translate(0 0.015625)"/>
     <use xlink:href="#DejaVuSans-56" transform="translate(63.476562 0.015625)"/>
     <use xlink:href="#DejaVuSans-20" transform="translate(131.884766 0.015625)"/>
     <use xlink:href="#DejaVuSansDisplay-2014" transform="translate(163.671875 0.015625)"/>
     <use xlink:href="#DejaVuSans-20" transform="translate(263.671875 0.015625)"/>
     <use xlink:href="#DejaVuSans-50" transform="translate(295.458984 0.015625)"/>
     <use xlink:href="#DejaVuSans-68" transform="translate(355.761719 0.015625)"/>
     <use xlink:href="#DejaVuSans-61" transform="translate(419.140625 0.015625)"/>
     <use xlink:href="#DejaVuSans-73" transform="translate(480.419922 0.015625)"/>
     <use xlink:href="#DejaVuSans-65" transform="translate(532.519531 0.015625)"/>
     <use xlink:href="#DejaVuSans-20" transform="translate(594.042969 0.015625)"/>
     <use xlink:href="#DejaVuSans-53" transform="translate(625.830078 0.015625)"/>
     <use xlink:href="#DejaVuSans-65" transform="translate(689.306641 0.015625)"/>
     <use xlink:href="#DejaVuSans-6e" transform="translate(750.830078 0.015625)"/>
     <use xlink:href="#DejaVuSans-73" transform="translate(814.208984 0.015625)"/>
     <use xlink:href="#DejaVuSans-69" transform="translate(866.308594 0.015625)"/>
     <use xlink:href="#DejaVuSans-74" transform="translate(894.091797 0.015625)"/>
     <use xlink:href="#DejaVuSans-69" transform="translate(933.300781 0.015625)"/>
     <use xlink:href="#DejaVuSans-76" transform="translate(961.083984 0.015625)"/>
     <use xlink:href="#DejaVuSans-69" transform="translate(1020.263672 0.015625)"/>
     <use xlink:href="#DejaVuSans-74" transform="translate(1048.046875 0.015625)"/>
     <use xlink:href="#DejaVuSans-79" transform="translate(1087.255859 0.015625)"/>
     <use xlink:href="#DejaVuSans-20" transform="translate(1146.435547 0.015625)"/>
     <use xlink:href="#DejaVuSans-76" transform="translate(1178.222656 0.015625)"/>
     <use xlink:href="#DejaVuSans-73" transform="translate(1237.402344 0.015625)"/>
     <use xlink:href="#DejaVuSans-20" transform="translate(1289.501953 0.015625)"/>
     <use xlink:href="#DejaVuSans-Oblique-3c9" transform="translate(1321.289062 0.015625)"/>
    </g>
   </g>
   <g id="legend_1">
    <g id="patch_7">
     <path d="M 616.659844 146.145 
L 693.779844 146.145 
Q 695.379844 146.145 695.379844 144.545 
L 695.379844 27.92 
Q 695.379844 26.32 693.779844 26.32 
L 616.659844 26.32 
Q 615.059844 26.32 615.059844 27.92 
L 615.059844 144.545 
Q 615.059844 146.145 616.659844 146.145 
z
" style="fill: #ffffff; opacity: 0.8; stroke: #cccccc; stroke-linejoin: miter"/>
    </g>
    <g id="line2d_35">
     <path d="M 618.259844 32.79875 
L 626.259844 32.79875 
L 634.259844 32.79875 
" style="fill: none; stroke: #463480; stroke-width: 1.5; stroke-linecap: round"/>
    </g>
    <g id="text_18">
     <!-- R=1.0  $\Delta\omega_{\mathrm{C}}$ -->
     <g style="fill: #262626" transform="translate(640.659844 35.59875) scale(0.08 -0.08)">
      <defs>
       <path id="DejaVuSans-52" d="M 2841 2188 
Q 3044 2119 3236 1894 
Q 3428 1669 3622 1275 
L 4263 0 
L 3584 0 
L 2988 1197 
Q 2756 1666 2539 1819 
Q 2322 1972 1947 1972 
L 1259 1972 
L 1259 0 
L 628 0 
L 628 4666 
L 2053 4666 
Q 2853 4666 3247 4331 
Q 3641 3997 3641 3322 
Q 3641 2881 3436 2590 
Q 3231 2300 2841 2188 
z
M 1259 4147 
L 1259 2491 
L 2053 2491 
Q 2509 2491 2742 2702 
Q 2975 2913 2975 3322 
Q 2975 3731 2742 3939 
Q 2509 4147 2053 4147 
L 1259 4147 
z
" transform="scale(0.015625)"/>
       <path id="DejaVuSans-3d" d="M 678 2906 
L 4684 2906 
L 4684 2381 
L 678 2381 
L 678 2906 
z
M 678 1631 
L 4684 1631 
L 4684 1100 
L 678 1100 
L 678 1631 
z
" transform="scale(0.015625)"/>
       <path id="DejaVuSans-2e" d="M 684 794 
L 1344 794 
L 1344 0 
L 684 0 
L 684 794 
z
" transform="scale(0.015625)"/>
       <path id="DejaVuSans-43" d="M 4122 4306 
L 4122 3641 
Q 3803 3938 3442 4084 
Q 3081 4231 2675 4231 
Q 1875 4231 1450 3742 
Q 1025 3253 1025 2328 
Q 1025 1406 1450 917 
Q 1875 428 2675 428 
Q 3081 428 3442 575 
Q 3803 722 4122 1019 
L 4122 359 
Q 3791 134 3420 21 
Q 3050 -91 2638 -91 
Q 1578 -91 968 557 
Q 359 1206 359 2328 
Q 359 3453 968 4101 
Q 1578 4750 2638 4750 
Q 3056 4750 3426 4639 
Q 3797 4528 4122 4306 
z
" transform="scale(0.015625)"/>
      </defs>
      <use xlink:href="#DejaVuSans-52" transform="translate(0 0.78125)"/>
      <use xlink:href="#DejaVuSans-3d" transform="translate(69.482422 0.78125)"/>
      <use xlink:href="#DejaVuSans-31" transform="translate(153.271484 0.78125)"/>
      <use xlink:href="#DejaVuSans-2e" transform="translate(216.894531 0.78125)"/>
      <use xlink:href="#DejaVuSans-30" transform="translate(248.681641 0.78125)"/>
      <use xlink:href="#DejaVuSans-20" transform="translate(312.304688 0.78125)"/>
      <use xlink:href="#DejaVuSans-20" transform="translate(344.091797 0.78125)"/>
      <use xlink:href="#DejaVuSans-394" transform="translate(375.878906 0.78125)"/>
      <use xlink:href="#DejaVuSans-Oblique-3c9" transform="translate(444.287109 0.78125)"/>
      <use xlink:href="#DejaVuSans-43" transform="translate(528.027344 -15.625) scale(0.7)"/>
     </g>
    </g>
    <g id="line2d_36">
     <path d="M 618.259844 44.54125 
L 626.259844 44.54125 
L 634.259844 44.54125 
" style="fill: none; stroke: #3e4c8a; stroke-width: 1.5; stroke-linecap: round"/>
    </g>
    <g id="text_19">
     <!-- R=3.0  $\Delta\omega_{\mathrm{C}}$ -->
     <g style="fill: #262626" transform="translate(640.659844 47.34125) scale(0.08 -0.08)">
      <use xlink:href="#DejaVuSans-52" transform="translate(0 0.78125)"/>
      <use xlink:href="#DejaVuSans-3d" transform="translate(69.482422 0.78125)"/>
      <use xlink:href="#DejaVuSans-33" transform="translate(153.271484 0.78125)"/>
      <use xlink:href="#DejaVuSans-2e" transform="translate(216.894531 0.78125)"/>
      <use xlink:href="#DejaVuSans-30" transform="translate(248.681641 0.78125)"/>
      <use xlink:href="#DejaVuSans-20" transform="translate(312.304688 0.78125)"/>
      <use xlink:href="#DejaVuSans-20" transform="translate(344.091797 0.78125)"/>
      <use xlink:href="#DejaVuSans-394" transform="translate(375.878906 0.78125)"/>
      <use xlink:href="#DejaVuSans-Oblique-3c9" transform="translate(444.287109 0.78125)"/>
      <use xlink:href="#DejaVuSans-43" transform="translate(528.027344 -15.625) scale(0.7)"/>
     </g>
    </g>
    <g id="line2d_37">
     <path d="M 618.259844 56.28375 
L 626.259844 56.28375 
L 634.259844 56.28375 
" style="fill: none; stroke: #34618d; stroke-width: 1.5; stroke-linecap: round"/>
    </g>
    <g id="text_20">
     <!-- R=5.0  $\Delta\omega_{\mathrm{C}}$ -->
     <g style="fill: #262626" transform="translate(640.659844 59.08375) scale(0.08 -0.08)">
      <use xlink:href="#DejaVuSans-52" transform="translate(0 0.78125)"/>
      <use xlink:href="#DejaVuSans-3d" transform="translate(69.482422 0.78125)"/>
      <use xlink:href="#DejaVuSans-35" transform="translate(153.271484 0.78125)"/>
      <use xlink:href="#DejaVuSans-2e" transform="translate(216.894531 0.78125)"/>
      <use xlink:href="#DejaVuSans-30" transform="translate(248.681641 0.78125)"/>
      <use xlink:href="#DejaVuSans-20" transform="translate(312.304688 0.78125)"/>
      <use xlink:href="#DejaVuSans-20" transform="translate(344.091797 0.78125)"/>
      <use xlink:href="#DejaVuSans-394" transform="translate(375.878906 0.78125)"/>
      <use xlink:href="#DejaVuSans-Oblique-3c9" transform="translate(444.287109 0.78125)"/>
      <use xlink:href="#DejaVuSans-43" transform="translate(528.027344 -15.625) scale(0.7)"/>
     </g>
    </g>
    <g id="line2d_38">
     <path d="M 618.259844 68.02625 
L 626.259844 68.02625 
L 634.259844 68.02625 
" style="fill: none; stroke: #2b748e; stroke-width: 1.5; stroke-linecap: round"/>
    </g>
    <g id="text_21">
     <!-- R=7.0  $\Delta\omega_{\mathrm{C}}$ -->
     <g style="fill: #262626" transform="translate(640.659844 70.82625) scale(0.08 -0.08)">
      <use xlink:href="#DejaVuSans-52" transform="translate(0 0.78125)"/>
      <use xlink:href="#DejaVuSans-3d" transform="translate(69.482422 0.78125)"/>
      <use xlink:href="#DejaVuSans-37" transform="translate(153.271484 0.78125)"/>
      <use xlink:href="#DejaVuSans-2e" transform="translate(216.894531 0.78125)"/>
      <use xlink:href="#DejaVuSans-30" transform="translate(248.681641 0.78125)"/>
      <use xlink:href="#DejaVuSans-20" transform="translate(312.304688 0.78125)"/>
      <use xlink:href="#DejaVuSans-20" transform="translate(344.091797 0.78125)"/>
      <use xlink:href="#DejaVuSans-394" transform="translate(375.878906 0.78125)"/>
      <use xlink:href="#DejaVuSans-Oblique-3c9" transform="translate(444.287109 0.78125)"/>
      <use xlink:href="#DejaVuSans-43" transform="translate(528.027344 -15.625) scale(0.7)"/>
     </g>
    </g>
    <g id="line2d_39">
     <path d="M 618.259844 79.76875 
L 626.259844 79.76875 
L 634.259844 79.76875 
" style="fill: none; stroke: #24878e; stroke-width: 1.5; stroke-linecap: round"/>
    </g>
    <g id="text_22">
     <!-- R=9.0  $\Delta\omega_{\mathrm{C}}$ -->
     <g style="fill: #262626" transform="translate(640.659844 82.56875) scale(0.08 -0.08)">
      <use xlink:href="#DejaVuSans-52" transform="translate(0 0.78125)"/>
      <use xlink:href="#DejaVuSans-3d" transform="translate(69.482422 0.78125)"/>
      <use xlink:href="#DejaVuSans-39" transform="translate(153.271484 0.78125)"/>
      <use xlink:href="#DejaVuSans-2e" transform="translate(216.894531 0.78125)"/>
      <use xlink:href="#DejaVuSans-30" transform="translate(248.681641 0.78125)"/>
      <use xlink:href="#DejaVuSans-20" transform="translate(312.304688 0.78125)"/>
      <use xlink:href="#DejaVuSans-20" transform="translate(344.091797 0.78125)"/>
      <use xlink:href="#DejaVuSans-394" transform="translate(375.878906 0.78125)"/>
      <use xlink:href="#DejaVuSans-Oblique-3c9" transform="translate(444.287109 0.78125)"/>
      <use xlink:href="#DejaVuSans-43" transform="translate(528.027344 -15.625) scale(0.7)"/>
     </g>
    </g>
    <g id="line2d_40">
     <path d="M 618.259844 91.51125 
L 626.259844 91.51125 
L 634.259844 91.51125 
" style="fill: none; stroke: #1f998a; stroke-width: 1.5; stroke-linecap: round"/>
    </g>
    <g id="text_23">
     <!-- R=11.0  $\Delta\omega_{\mathrm{C}}$ -->
     <g style="fill: #262626" transform="translate(640.659844 94.31125) scale(0.08 -0.08)">
      <use xlink:href="#DejaVuSans-52" transform="translate(0 0.78125)"/>
      <use xlink:href="#DejaVuSans-3d" transform="translate(69.482422 0.78125)"/>
      <use xlink:href="#DejaVuSans-31" transform="translate(153.271484 0.78125)"/>
      <use xlink:href="#DejaVuSans-31" transform="translate(216.894531 0.78125)"/>
      <use xlink:href="#DejaVuSans-2e" transform="translate(280.517578 0.78125)"/>
      <use xlink:href="#DejaVuSans-30" transform="translate(312.304688 0.78125)"/>
      <use xlink:href="#DejaVuSans-20" transform="translate(375.927734 0.78125)"/>
      <use xlink:href="#DejaVuSans-20" transform="translate(407.714844 0.78125)"/>
      <use xlink:href="#DejaVuSans-394" transform="translate(439.501953 0.78125)"/>
      <use xlink:href="#DejaVuSans-Oblique-3c9" transform="translate(507.910156 0.78125)"/>
      <use xlink:href="#DejaVuSans-43" transform="translate(591.650391 -15.625) scale(0.7)"/>
     </g>
    </g>
    <g id="line2d_41">
     <path d="M 618.259844 103.25375 
L 626.259844 103.25375 
L 634.259844 103.25375 
" style="fill: none; stroke: #25ac82; stroke-width: 1.5; stroke-linecap: round"/>
    </g>
    <g id="text_24">
     <!-- R=13.0  $\Delta\omega_{\mathrm{C}}$ -->
     <g style="fill: #262626" transform="translate(640.659844 106.05375) scale(0.08 -0.08)">
      <use xlink:href="#DejaVuSans-52" transform="translate(0 0.78125)"/>
      <use xlink:href="#DejaVuSans-3d" transform="translate(69.482422 0.78125)"/>
      <use xlink:href="#DejaVuSans-31" transform="translate(153.271484 0.78125)"/>
      <use xlink:href="#DejaVuSans-33" transform="translate(216.894531 0.78125)"/>
      <use xlink:href="#DejaVuSans-2e" transform="translate(280.517578 0.78125)"/>
      <use xlink:href="#DejaVuSans-30" transform="translate(312.304688 0.78125)"/>
      <use xlink:href="#DejaVuSans-20" transform="translate(375.927734 0.78125)"/>
      <use xlink:href="#DejaVuSans-20" transform="translate(407.714844 0.78125)"/>
      <use xlink:href="#DejaVuSans-394" transform="translate(439.501953 0.78125)"/>
      <use xlink:href="#DejaVuSans-Oblique-3c9" transform="translate(507.910156 0.78125)"/>
      <use xlink:href="#DejaVuSans-43" transform="translate(591.650391 -15.625) scale(0.7)"/>
     </g>
    </g>
    <g id="line2d_42">
     <path d="M 618.259844 114.99625 
L 626.259844 114.99625 
L 634.259844 114.99625 
" style="fill: none; stroke: #40bd72; stroke-width: 1.5; stroke-linecap: round"/>
    </g>
    <g id="text_25">
     <!-- R=15.0  $\Delta\omega_{\mathrm{C}}$ -->
     <g style="fill: #262626" transform="translate(640.659844 117.79625) scale(0.08 -0.08)">
      <use xlink:href="#DejaVuSans-52" transform="translate(0 0.78125)"/>
      <use xlink:href="#DejaVuSans-3d" transform="translate(69.482422 0.78125)"/>
      <use xlink:href="#DejaVuSans-31" transform="translate(153.271484 0.78125)"/>
      <use xlink:href="#DejaVuSans-35" transform="translate(216.894531 0.78125)"/>
      <use xlink:href="#DejaVuSans-2e" transform="translate(280.517578 0.78125)"/>
      <use xlink:href="#DejaVuSans-30" transform="translate(312.304688 0.78125)"/>
      <use xlink:href="#DejaVuSans-20" transform="translate(375.927734 0.78125)"/>
      <use xlink:href="#DejaVuSans-20" transform="translate(407.714844 0.78125)"/>
      <use xlink:href="#DejaVuSans-394" transform="translate(439.501953 0.78125)"/>
      <use xlink:href="#DejaVuSans-Oblique-3c9" transform="translate(507.910156 0.78125)"/>
      <use xlink:href="#DejaVuSans-43" transform="translate(591.650391 -15.625) scale(0.7)"/>
     </g>
    </g>
    <g id="line2d_43">
     <path d="M 618.259844 126.73875 
L 626.259844 126.73875 
L 634.259844 126.73875 
" style="fill: none; stroke: #69cd5b; stroke-width: 1.5; stroke-linecap: round"/>
    </g>
    <g id="text_26">
     <!-- R=17.0  $\Delta\omega_{\mathrm{C}}$ -->
     <g style="fill: #262626" transform="translate(640.659844 129.53875) scale(0.08 -0.08)">
      <use xlink:href="#DejaVuSans-52" transform="translate(0 0.78125)"/>
      <use xlink:href="#DejaVuSans-3d" transform="translate(69.482422 0.78125)"/>
      <use xlink:href="#DejaVuSans-31" transform="translate(153.271484 0.78125)"/>
      <use xlink:href="#DejaVuSans-37" transform="translate(216.894531 0.78125)"/>
      <use xlink:href="#DejaVuSans-2e" transform="translate(280.517578 0.78125)"/>
      <use xlink:href="#DejaVuSans-30" transform="translate(312.304688 0.78125)"/>
      <use xlink:href="#DejaVuSans-20" transform="translate(375.927734 0.78125)"/>
      <use xlink:href="#DejaVuSans-20" transform="translate(407.714844 0.78125)"/>
      <use xlink:href="#DejaVuSans-394" transform="translate(439.501953 0.78125)"/>
      <use xlink:href="#DejaVuSans-Oblique-3c9" transform="translate(507.910156 0.78125)"/>
      <use xlink:href="#DejaVuSans-43" transform="translate(591.650391 -15.625) scale(0.7)"/>
     </g>
    </g>
    <g id="line2d_44">
     <path d="M 618.259844 138.48125 
L 626.259844 138.48125 
L 634.259844 138.48125 
" style="fill: none; stroke: #9bd93c; stroke-width: 1.5; stroke-linecap: round"/>
    </g>
    <g id="text_27">
     <!-- R=19.0  $\Delta\omega_{\mathrm{C}}$ -->
     <g style="fill: #262626" transform="translate(640.659844 141.28125) scale(0.08 -0.08)">
      <use xlink:href="#DejaVuSans-52" transform="translate(0 0.78125)"/>
      <use xlink:href="#DejaVuSans-3d" transform="translate(69.482422 0.78125)"/>
      <use xlink:href="#DejaVuSans-31" transform="translate(153.271484 0.78125)"/>
      <use xlink:href="#DejaVuSans-39" transform="translate(216.894531 0.78125)"/>
      <use xlink:href="#DejaVuSans-2e" transform="translate(280.517578 0.78125)"/>
      <use xlink:href="#DejaVuSans-30" transform="translate(312.304688 0.78125)"/>
      <use xlink:href="#DejaVuSans-20" transform="translate(375.927734 0.78125)"/>
      <use xlink:href="#DejaVuSans-20" transform="translate(407.714844 0.78125)"/>
      <use xlink:href="#DejaVuSans-394" transform="translate(439.501953 0.78125)"/>
      <use xlink:href="#DejaVuSans-Oblique-3c9" transform="translate(507.910156 0.78125)"/>
      <use xlink:href="#DejaVuSans-43" transform="translate(591.650391 -15.625) scale(0.7)"/>
     </g>
    </g>
   </g>
  </g>
 </g>
 <defs>
  <clipPath id="p1196ccab11">
   <rect x="61.46375" y="22.32" width="637.916094" height="351.3"/>
  </clipPath>
 </defs>
</svg>
