<?xml version="1.0" encoding="utf-8" standalone="no"?>
<!DOCTYPE svg PUBLIC "-//W3C//DTD SVG 1.1//EN"
  "http://www.w3.org/Graphics/SVG/1.1/DTD/svg11.dtd">
<svg xmlns:xlink="http://www.w3.org/1999/xlink" width="706.930762pt" height="416.579687pt" viewBox="0 0 706.930762 416.579687" xmlns="http://www.w3.org/2000/svg" version="1.1">
 <metadata>
  <rdf:RDF xmlns:dc="http://purl.org/dc/elements/1.1/" xmlns:cc="http://creativecommons.org/ns#" xmlns:rdf="http://www.w3.org/1999/02/22-rdf-syntax-ns#">
   <cc:Work>
    <dc:type rdf:resource="http://purl.org/dc/dcmitype/StillImage"/>
    <dc:date>2026-06-27T00:27:24.467224</dc:date>
    <dc:format>image/svg+xml</dc:format>
    <dc:creator>
     <cc:Agent>
      <dc:title>Matplotlib v3.10.9, https://matplotlib.org/</dc:title>
     </cc:Agent>
    </dc:creator>
   </cc:Work>
  </rdf:RDF>
 </metadata>
 <defs>
  <style type="text/css">*{stroke-linejoin: round; stroke-linecap: butt}</style>
 </defs>
 <g id="figure_1">
  <g id="patch_1">
   <path d="M 0 416.579687 
L 706.930762 416.579687 
L 706.930762 0 
L 0 0 
z
" style="fill: #ffffff"/>
  </g>
  <g id="axes_1">
   <g id="patch_2">
    <path d="M 76.52375 373.62 
L 699.730762 373.62 
L 699.730762 22.32 
L 76.52375 22.32 
z
" style="fill: #ffffff"/>
   </g>
   <g id="matplotlib.axis_1">
    <g id="xtick_1">
     <g id="line2d_1">
      <path d="M 103.715967 373.62 
L 103.715967 22.32 
" clip-path="url(#p228dfeb4ed)" style="fill: none; stroke: #cccccc; stroke-opacity: 0.3; stroke-linecap: round"/>
     </g>
     <g id="text_1">
      <!-- 0 -->
      <g style="fill: #262626" transform="translate(100.216592 391.478281) scale(0.11 -0.11)">
       <defs>
        <path id="DejaVuSans-30" d="M 2034 4250 
Q 1547 4250 1301 3770 
Q 1056 3291 1056 2328 
Q 1056 1369 1301 889 
Q 1547 409 2034 409 
Q 2525 409 2770 889 
Q 3016 1369 3016 2328 
Q 3016 3291 2770 3770 
Q 2525 4250 2034 4250 
z
M 2034 4750 
Q 2819 4750 3233 4129 
Q 3647 3509 3647 2328 
Q 3647 1150 3233 529 
Q 2819 -91 2034 -91 
Q 1250 -91 836 529 
Q 422 1150 422 2328 
Q 422 3509 836 4129 
Q 1250 4750 2034 4750 
z
" transform="scale(0.015625)"/>
       </defs>
       <use xlink:href="#DejaVuSans-30"/>
      </g>
     </g>
    </g>
    <g id="xtick_2">
     <g id="line2d_2">
      <path d="M 217.253408 373.62 
L 217.253408 22.32 
" clip-path="url(#p228dfeb4ed)" style="fill: none; stroke: #cccccc; stroke-opacity: 0.3; stroke-linecap: round"/>
     </g>
     <g id="text_2">
      <!-- 1 -->
      <g style="fill: #262626" transform="translate(213.754033 391.478281) scale(0.11 -0.11)">
       <defs>
        <path id="DejaVuSans-31" d="M 794 531 
L 1825 531 
L 1825 4091 
L 703 3866 
L 703 4441 
L 1819 4666 
L 2450 4666 
L 2450 531 
L 3481 531 
L 3481 0 
L 794 0 
L 794 531 
z
" transform="scale(0.015625)"/>
       </defs>
       <use xlink:href="#DejaVuSans-31"/>
      </g>
     </g>
    </g>
    <g id="xtick_3">
     <g id="line2d_3">
      <path d="M 330.790848 373.62 
L 330.790848 22.32 
" clip-path="url(#p228dfeb4ed)" style="fill: none; stroke: #cccccc; stroke-opacity: 0.3; stroke-linecap: round"/>
     </g>
     <g id="text_3">
      <!-- 2 -->
      <g style="fill: #262626" transform="translate(327.291473 391.478281) scale(0.11 -0.11)">
       <defs>
        <path id="DejaVuSans-32" d="M 1228 531 
L 3431 531 
L 3431 0 
L 469 0 
L 469 531 
Q 828 903 1448 1529 
Q 2069 2156 2228 2338 
Q 2531 2678 2651 2914 
Q 2772 3150 2772 3378 
Q 2772 3750 2511 3984 
Q 2250 4219 1831 4219 
Q 1534 4219 1204 4116 
Q 875 4013 500 3803 
L 500 4441 
Q 881 4594 1212 4672 
Q 1544 4750 1819 4750 
Q 2544 4750 2975 4387 
Q 3406 4025 3406 3419 
Q 3406 3131 3298 2873 
Q 3191 2616 2906 2266 
Q 2828 2175 2409 1742 
Q 1991 1309 1228 531 
z
" transform="scale(0.015625)"/>
       </defs>
       <use xlink:href="#DejaVuSans-32"/>
      </g>
     </g>
    </g>
    <g id="xtick_4">
     <g id="line2d_4">
      <path d="M 444.328289 373.62 
L 444.328289 22.32 
" clip-path="url(#p228dfeb4ed)" style="fill: none; stroke: #cccccc; stroke-opacity: 0.3; stroke-linecap: round"/>
     </g>
     <g id="text_4">
      <!-- 3 -->
      <g style="fill: #262626" transform="translate(440.828914 391.478281) scale(0.11 -0.11)">
       <defs>
        <path id="DejaVuSans-33" d="M 2597 2516 
Q 3050 2419 3304 2112 
Q 3559 1806 3559 1356 
Q 3559 666 3084 287 
Q 2609 -91 1734 -91 
Q 1441 -91 1130 -33 
Q 819 25 488 141 
L 488 750 
Q 750 597 1062 519 
Q 1375 441 1716 441 
Q 2309 441 2620 675 
Q 2931 909 2931 1356 
Q 2931 1769 2642 2001 
Q 2353 2234 1838 2234 
L 1294 2234 
L 1294 2753 
L 1863 2753 
Q 2328 2753 2575 2939 
Q 2822 3125 2822 3475 
Q 2822 3834 2567 4026 
Q 2313 4219 1838 4219 
Q 1578 4219 1281 4162 
Q 984 4106 628 3988 
L 628 4550 
Q 988 4650 1302 4700 
Q 1616 4750 1894 4750 
Q 2613 4750 3031 4423 
Q 3450 4097 3450 3541 
Q 3450 3153 3228 2886 
Q 3006 2619 2597 2516 
z
" transform="scale(0.015625)"/>
       </defs>
       <use xlink:href="#DejaVuSans-33"/>
      </g>
     </g>
    </g>
    <g id="xtick_5">
     <g id="line2d_5">
      <path d="M 557.86573 373.62 
L 557.86573 22.32 
" clip-path="url(#p228dfeb4ed)" style="fill: none; stroke: #cccccc; stroke-opacity: 0.3; stroke-linecap: round"/>
     </g>
     <g id="text_5">
      <!-- 4 -->
      <g style="fill: #262626" transform="translate(554.366355 391.478281) scale(0.11 -0.11)">
       <defs>
        <path id="DejaVuSans-34" d="M 2419 4116 
L 825 1625 
L 2419 1625 
L 2419 4116 
z
M 2253 4666 
L 3047 4666 
L 3047 1625 
L 3713 1625 
L 3713 1100 
L 3047 1100 
L 3047 0 
L 2419 0 
L 2419 1100 
L 313 1100 
L 313 1709 
L 2253 4666 
z
" transform="scale(0.015625)"/>
       </defs>
       <use xlink:href="#DejaVuSans-34"/>
      </g>
     </g>
    </g>
    <g id="xtick_6">
     <g id="line2d_6">
      <path d="M 671.403171 373.62 
L 671.403171 22.32 
" clip-path="url(#p228dfeb4ed)" style="fill: none; stroke: #cccccc; stroke-opacity: 0.3; stroke-linecap: round"/>
     </g>
     <g id="text_6">
      <!-- 5 -->
      <g style="fill: #262626" transform="translate(667.903796 391.478281) scale(0.11 -0.11)">
       <defs>
        <path id="DejaVuSans-35" d="M 691 4666 
L 3169 4666 
L 3169 4134 
L 1269 4134 
L 1269 2991 
Q 1406 3038 1543 3061 
Q 1681 3084 1819 3084 
Q 2600 3084 3056 2656 
Q 3513 2228 3513 1497 
Q 3513 744 3044 326 
Q 2575 -91 1722 -91 
Q 1428 -91 1123 -41 
Q 819 9 494 109 
L 494 744 
Q 775 591 1075 516 
Q 1375 441 1709 441 
Q 2250 441 2565 725 
Q 2881 1009 2881 1497 
Q 2881 1984 2565 2268 
Q 2250 2553 1709 2553 
Q 1456 2553 1204 2497 
Q 953 2441 691 2322 
L 691 4666 
z
" transform="scale(0.015625)"/>
       </defs>
       <use xlink:href="#DejaVuSans-35"/>
      </g>
     </g>
    </g>
    <g id="text_7">
     <!-- $\omega$ -->
     <g style="fill: #262626" transform="translate(383.087256 406.884062) scale(0.12 -0.12)">
      <defs>
       <path id="DejaVuSans-Oblique-3c9" d="M 1369 -91 
Q 72 -91 434 1766 
Q 575 2500 1256 3500 
L 1875 3500 
Q 1231 2500 1088 1750 
Q 819 397 1519 397 
Q 2166 397 2478 2078 
L 3009 2078 
Q 2669 388 3316 397 
Q 4013 403 4275 1750 
Q 4419 2500 4169 3500 
L 4788 3500 
Q 5075 2500 4934 1766 
Q 4578 -94 3278 -91 
Q 2428 -88 2503 844 
Q 2194 -91 1369 -91 
z
" transform="scale(0.015625)"/>
      </defs>
      <use xlink:href="#DejaVuSans-Oblique-3c9" transform="translate(0 0.3125)"/>
     </g>
    </g>
   </g>
   <g id="matplotlib.axis_2">
    <g id="ytick_1">
     <g id="line2d_7">
      <path d="M 76.52375 312.237104 
L 699.730762 312.237104 
" clip-path="url(#p228dfeb4ed)" style="fill: none; stroke: #cccccc; stroke-opacity: 0.3; stroke-linecap: round"/>
     </g>
     <g id="text_8">
      <!-- $\mathdefault{2\times10^{-2}}$ -->
      <g style="fill: #262626" transform="translate(22.81375 316.416244) scale(0.11 -0.11)">
       <defs>
        <path id="DejaVuSans-d7" d="M 4488 3438 
L 3059 2003 
L 4488 575 
L 4116 197 
L 2681 1631 
L 1247 197 
L 878 575 
L 2303 2003 
L 878 3438 
L 1247 3816 
L 2681 2381 
L 4116 3816 
L 4488 3438 
z
" transform="scale(0.015625)"/>
        <path id="DejaVuSans-2212" d="M 678 2272 
L 4684 2272 
L 4684 1741 
L 678 1741 
L 678 2272 
z
" transform="scale(0.015625)"/>
       </defs>
       <use xlink:href="#DejaVuSans-32" transform="translate(0 0.765625)"/>
       <use xlink:href="#DejaVuSans-d7" transform="translate(83.105469 0.765625)"/>
       <use xlink:href="#DejaVuSans-31" transform="translate(186.376953 0.765625)"/>
       <use xlink:href="#DejaVuSans-30" transform="translate(250 0.765625)"/>
       <use xlink:href="#DejaVuSans-2212" transform="translate(314.580078 39.046875) scale(0.7)"/>
       <use xlink:href="#DejaVuSans-32" transform="translate(373.232422 39.046875) scale(0.7)"/>
      </g>
     </g>
    </g>
    <g id="ytick_2">
     <g id="line2d_8">
      <path d="M 76.52375 224.280918 
L 699.730762 224.280918 
" clip-path="url(#p228dfeb4ed)" style="fill: none; stroke: #cccccc; stroke-opacity: 0.3; stroke-linecap: round"/>
     </g>
     <g id="text_9">
      <!-- $\mathdefault{3\times10^{-2}}$ -->
      <g style="fill: #262626" transform="translate(22.81375 228.460058) scale(0.11 -0.11)">
       <use xlink:href="#DejaVuSans-33" transform="translate(0 0.765625)"/>
       <use xlink:href="#DejaVuSans-d7" transform="translate(83.105469 0.765625)"/>
       <use xlink:href="#DejaVuSans-31" transform="translate(186.376953 0.765625)"/>
       <use xlink:href="#DejaVuSans-30" transform="translate(250 0.765625)"/>
       <use xlink:href="#DejaVuSans-2212" transform="translate(314.580078 39.046875) scale(0.7)"/>
       <use xlink:href="#DejaVuSans-32" transform="translate(373.232422 39.046875) scale(0.7)"/>
      </g>
     </g>
    </g>
    <g id="ytick_3">
     <g id="line2d_9">
      <path d="M 76.52375 161.875011 
L 699.730762 161.875011 
" clip-path="url(#p228dfeb4ed)" style="fill: none; stroke: #cccccc; stroke-opacity: 0.3; stroke-linecap: round"/>
     </g>
     <g id="text_10">
      <!-- $\mathdefault{4\times10^{-2}}$ -->
      <g style="fill: #262626" transform="translate(22.81375 166.054151) scale(0.11 -0.11)">
       <use xlink:href="#DejaVuSans-34" transform="translate(0 0.765625)"/>
       <use xlink:href="#DejaVuSans-d7" transform="translate(83.105469 0.765625)"/>
       <use xlink:href="#DejaVuSans-31" transform="translate(186.376953 0.765625)"/>
       <use xlink:href="#DejaVuSans-30" transform="translate(250 0.765625)"/>
       <use xlink:href="#DejaVuSans-2212" transform="translate(314.580078 39.046875) scale(0.7)"/>
       <use xlink:href="#DejaVuSans-32" transform="translate(373.232422 39.046875) scale(0.7)"/>
      </g>
     </g>
    </g>
    <g id="ytick_4">
     <g id="line2d_10">
      <path d="M 76.52375 113.469228 
L 699.730762 113.469228 
" clip-path="url(#p228dfeb4ed)" style="fill: none; stroke: #cccccc; stroke-opacity: 0.3; stroke-linecap: round"/>
     </g>
    </g>
    <g id="ytick_5">
     <g id="line2d_11">
      <path d="M 76.52375 73.918825 
L 699.730762 73.918825 
" clip-path="url(#p228dfeb4ed)" style="fill: none; stroke: #cccccc; stroke-opacity: 0.3; stroke-linecap: round"/>
     </g>
     <g id="text_11">
      <!-- $\mathdefault{6\times10^{-2}}$ -->
      <g style="fill: #262626" transform="translate(22.81375 78.097965) scale(0.11 -0.11)">
       <defs>
        <path id="DejaVuSans-36" d="M 2113 2584 
Q 1688 2584 1439 2293 
Q 1191 2003 1191 1497 
Q 1191 994 1439 701 
Q 1688 409 2113 409 
Q 2538 409 2786 701 
Q 3034 994 3034 1497 
Q 3034 2003 2786 2293 
Q 2538 2584 2113 2584 
z
M 3366 4563 
L 3366 3988 
Q 3128 4100 2886 4159 
Q 2644 4219 2406 4219 
Q 1781 4219 1451 3797 
Q 1122 3375 1075 2522 
Q 1259 2794 1537 2939 
Q 1816 3084 2150 3084 
Q 2853 3084 3261 2657 
Q 3669 2231 3669 1497 
Q 3669 778 3244 343 
Q 2819 -91 2113 -91 
Q 1303 -91 875 529 
Q 447 1150 447 2328 
Q 447 3434 972 4092 
Q 1497 4750 2381 4750 
Q 2619 4750 2861 4703 
Q 3103 4656 3366 4563 
z
" transform="scale(0.015625)"/>
       </defs>
       <use xlink:href="#DejaVuSans-36" transform="translate(0 0.765625)"/>
       <use xlink:href="#DejaVuSans-d7" transform="translate(83.105469 0.765625)"/>
       <use xlink:href="#DejaVuSans-31" transform="translate(186.376953 0.765625)"/>
       <use xlink:href="#DejaVuSans-30" transform="translate(250 0.765625)"/>
       <use xlink:href="#DejaVuSans-2212" transform="translate(314.580078 39.046875) scale(0.7)"/>
       <use xlink:href="#DejaVuSans-32" transform="translate(373.232422 39.046875) scale(0.7)"/>
      </g>
     </g>
    </g>
    <g id="ytick_6">
     <g id="line2d_12">
      <path d="M 76.52375 40.479435 
L 699.730762 40.479435 
" clip-path="url(#p228dfeb4ed)" style="fill: none; stroke: #cccccc; stroke-opacity: 0.3; stroke-linecap: round"/>
     </g>
    </g>
    <g id="text_12">
     <!-- $\Delta\omega$ -->
     <g style="fill: #262626" transform="translate(16.318125 207.15) rotate(-90) scale(0.12 -0.12)">
      <defs>
       <path id="DejaVuSans-394" d="M 2188 4044 
L 906 525 
L 3472 525 
L 2188 4044 
z
M 50 0 
L 1831 4666 
L 2547 4666 
L 4325 0 
L 50 0 
z
" transform="scale(0.015625)"/>
      </defs>
      <use xlink:href="#DejaVuSans-394" transform="translate(0 0.09375)"/>
      <use xlink:href="#DejaVuSans-Oblique-3c9" transform="translate(68.408203 0.09375)"/>
     </g>
    </g>
   </g>
   <g id="line2d_13">
    <path d="M 104.851341 38.288182 
L 671.403171 38.288182 
L 671.403171 38.288182 
" clip-path="url(#p228dfeb4ed)" style="fill: none; stroke: #463480; stroke-width: 1.5; stroke-linecap: round"/>
   </g>
   <g id="line2d_14">
    <path d="M 76.52375 38.288182 
L 699.730762 38.288182 
" clip-path="url(#p228dfeb4ed)" style="fill: none; stroke-dasharray: 3.7,1.6; stroke-dashoffset: 0; stroke: #463480; stroke-opacity: 0.6"/>
   </g>
   <g id="line2d_15">
    <path d="M 104.851341 157.447321 
L 671.403171 157.447321 
L 671.403171 157.447321 
" clip-path="url(#p228dfeb4ed)" style="fill: none; stroke: #3e4c8a; stroke-width: 1.5; stroke-linecap: round"/>
   </g>
   <g id="line2d_16">
    <path d="M 76.52375 157.447321 
L 699.730762 157.447321 
" clip-path="url(#p228dfeb4ed)" style="fill: none; stroke-dasharray: 3.7,1.6; stroke-dashoffset: 0; stroke: #3e4c8a; stroke-opacity: 0.6"/>
   </g>
   <g id="line2d_17">
    <path d="M 104.851341 212.853166 
L 671.403171 212.853166 
L 671.403171 212.853166 
" clip-path="url(#p228dfeb4ed)" style="fill: none; stroke: #34618d; stroke-width: 1.5; stroke-linecap: round"/>
   </g>
   <g id="line2d_18">
    <path d="M 76.52375 212.853166 
L 699.730762 212.853166 
" clip-path="url(#p228dfeb4ed)" style="fill: none; stroke-dasharray: 3.7,1.6; stroke-dashoffset: 0; stroke: #34618d; stroke-opacity: 0.6"/>
   </g>
   <g id="line2d_19">
    <path d="M 104.851341 249.348063 
L 671.403171 249.348063 
L 671.403171 249.348063 
" clip-path="url(#p228dfeb4ed)" style="fill: none; stroke: #2b748e; stroke-width: 1.5; stroke-linecap: round"/>
   </g>
   <g id="line2d_20">
    <path d="M 76.52375 249.348063 
L 699.730762 249.348063 
" clip-path="url(#p228dfeb4ed)" style="fill: none; stroke-dasharray: 3.7,1.6; stroke-dashoffset: 0; stroke: #2b748e; stroke-opacity: 0.6"/>
   </g>
   <g id="line2d_21">
    <path d="M 104.851341 276.606461 
L 671.403171 276.606461 
L 671.403171 276.606461 
" clip-path="url(#p228dfeb4ed)" style="fill: none; stroke: #24878e; stroke-width: 1.5; stroke-linecap: round"/>
   </g>
   <g id="line2d_22">
    <path d="M 76.52375 276.606461 
L 699.730762 276.606461 
" clip-path="url(#p228dfeb4ed)" style="fill: none; stroke-dasharray: 3.7,1.6; stroke-dashoffset: 0; stroke: #24878e; stroke-opacity: 0.6"/>
   </g>
   <g id="line2d_23">
    <path d="M 104.851341 298.371871 
L 671.403171 298.371872 
L 671.403171 298.371872 
" clip-path="url(#p228dfeb4ed)" style="fill: none; stroke: #1f998a; stroke-width: 1.5; stroke-linecap: round"/>
   </g>
   <g id="line2d_24">
    <path d="M 76.52375 298.371871 
L 699.730762 298.371871 
" clip-path="url(#p228dfeb4ed)" style="fill: none; stroke-dasharray: 3.7,1.6; stroke-dashoffset: 0; stroke: #1f998a; stroke-opacity: 0.6"/>
   </g>
   <g id="line2d_25">
    <path d="M 104.851341 316.491113 
L 671.403171 316.491113 
L 671.403171 316.491113 
" clip-path="url(#p228dfeb4ed)" style="fill: none; stroke: #25ac82; stroke-width: 1.5; stroke-linecap: round"/>
   </g>
   <g id="line2d_26">
    <path d="M 76.52375 316.491113 
L 699.730762 316.491113 
" clip-path="url(#p228dfeb4ed)" style="fill: none; stroke-dasharray: 3.7,1.6; stroke-dashoffset: 0; stroke: #25ac82; stroke-opacity: 0.6"/>
   </g>
   <g id="line2d_27">
    <path d="M 104.851341 332.012306 
L 671.403171 332.012306 
L 671.403171 332.012306 
" clip-path="url(#p228dfeb4ed)" style="fill: none; stroke: #40bd72; stroke-width: 1.5; stroke-linecap: round"/>
   </g>
   <g id="line2d_28">
    <path d="M 76.52375 332.012306 
L 699.730762 332.012306 
" clip-path="url(#p228dfeb4ed)" style="fill: none; stroke-dasharray: 3.7,1.6; stroke-dashoffset: 0; stroke: #40bd72; stroke-opacity: 0.6"/>
   </g>
   <g id="line2d_29">
    <path d="M 104.851341 345.587916 
L 671.403171 345.587916 
L 671.403171 345.587916 
" clip-path="url(#p228dfeb4ed)" style="fill: none; stroke: #69cd5b; stroke-width: 1.5; stroke-linecap: round"/>
   </g>
   <g id="line2d_30">
    <path d="M 76.52375 345.587916 
L 699.730762 345.587916 
" clip-path="url(#p228dfeb4ed)" style="fill: none; stroke-dasharray: 3.7,1.6; stroke-dashoffset: 0; stroke: #69cd5b; stroke-opacity: 0.6"/>
   </g>
   <g id="line2d_31">
    <path d="M 104.851341 357.651818 
L 671.403171 357.651818 
L 671.403171 357.651818 
" clip-path="url(#p228dfeb4ed)" style="fill: none; stroke: #9bd93c; stroke-width: 1.5; stroke-linecap: round"/>
   </g>
   <g id="line2d_32">
    <path d="M 76.52375 357.651818 
L 699.730762 357.651818 
" clip-path="url(#p228dfeb4ed)" style="fill: none; stroke-dasharray: 3.7,1.6; stroke-dashoffset: 0; stroke: #9bd93c; stroke-opacity: 0.6"/>
   </g>
   <g id="patch_3">
    <path d="M 76.52375 373.62 
L 76.52375 22.32 
" style="fill: none; stroke: #cccccc; stroke-width: 1.25; stroke-linejoin: miter; stroke-linecap: square"/>
   </g>
   <g id="patch_4">
    <path d="M 699.730762 373.62 
L 699.730762 22.32 
" style="fill: none; stroke: #cccccc; stroke-width: 1.25; stroke-linejoin: miter; stroke-linecap: square"/>
   </g>
   <g id="patch_5">
    <path d="M 76.52375 373.62 
L 699.730762 373.62 
" style="fill: none; stroke: #cccccc; stroke-width: 1.25; stroke-linejoin: miter; stroke-linecap: square"/>
   </g>
   <g id="patch_6">
    <path d="M 76.52375 22.32 
L 699.730762 22.32 
" style="fill: none; stroke: #cccccc; stroke-width: 1.25; stroke-linejoin: miter; stroke-linecap: square"/>
   </g>
   <g id="text_13">
    <!-- OAT — Phase Sensitivity vs $\omega$ -->
    <g style="fill: #262626" transform="translate(299.207256 16.32) scale(0.12 -0.12)">
     <defs>
      <path id="DejaVuSans-4f" d="M 2522 4238 
Q 1834 4238 1429 3725 
Q 1025 3213 1025 2328 
Q 1025 1447 1429 934 
Q 1834 422 2522 422 
Q 3209 422 3611 934 
Q 4013 1447 4013 2328 
Q 4013 3213 3611 3725 
Q 3209 4238 2522 4238 
z
M 2522 4750 
Q 3503 4750 4090 4092 
Q 4678 3434 4678 2328 
Q 4678 1225 4090 567 
Q 3503 -91 2522 -91 
Q 1538 -91 948 565 
Q 359 1222 359 2328 
Q 359 3434 948 4092 
Q 1538 4750 2522 4750 
z
" transform="scale(0.015625)"/>
      <path id="DejaVuSans-41" d="M 2188 4044 
L 1331 1722 
L 3047 1722 
L 2188 4044 
z
M 1831 4666 
L 2547 4666 
L 4325 0 
L 3669 0 
L 3244 1197 
L 1141 1197 
L 716 0 
L 50 0 
L 1831 4666 
z
" transform="scale(0.015625)"/>
      <path id="DejaVuSans-54" d="M -19 4666 
L 3928 4666 
L 3928 4134 
L 2272 4134 
L 2272 0 
L 1638 0 
L 1638 4134 
L -19 4134 
L -19 4666 
z
" transform="scale(0.015625)"/>
      <path id="DejaVuSans-20" transform="scale(0.015625)"/>
      <path id="DejaVuSansDisplay-2014" d="M 313 1978 
L 6088 1978 
L 6088 1528 
L 313 1528 
L 313 1978 
z
" transform="scale(0.015625)"/>
      <path id="DejaVuSans-50" d="M 1259 4147 
L 1259 2394 
L 2053 2394 
Q 2494 2394 2734 2622 
Q 2975 2850 2975 3272 
Q 2975 3691 2734 3919 
Q 2494 4147 2053 4147 
L 1259 4147 
z
M 628 4666 
L 2053 4666 
Q 2838 4666 3239 4311 
Q 3641 3956 3641 3272 
Q 3641 2581 3239 2228 
Q 2838 1875 2053 1875 
L 1259 1875 
L 1259 0 
L 628 0 
L 628 4666 
z
" transform="scale(0.015625)"/>
      <path id="DejaVuSans-68" d="M 3513 2113 
L 3513 0 
L 2938 0 
L 2938 2094 
Q 2938 2591 2744 2837 
Q 2550 3084 2163 3084 
Q 1697 3084 1428 2787 
Q 1159 2491 1159 1978 
L 1159 0 
L 581 0 
L 581 4863 
L 1159 4863 
L 1159 2956 
Q 1366 3272 1645 3428 
Q 1925 3584 2291 3584 
Q 2894 3584 3203 3211 
Q 3513 2838 3513 2113 
z
" transform="scale(0.015625)"/>
      <path id="DejaVuSans-61" d="M 2194 1759 
Q 1497 1759 1228 1600 
Q 959 1441 959 1056 
Q 959 750 1161 570 
Q 1363 391 1709 391 
Q 2188 391 2477 730 
Q 2766 1069 2766 1631 
L 2766 1759 
L 2194 1759 
z
M 3341 1997 
L 3341 0 
L 2766 0 
L 2766 531 
Q 2569 213 2275 61 
Q 1981 -91 1556 -91 
Q 1019 -91 701 211 
Q 384 513 384 1019 
Q 384 1609 779 1909 
Q 1175 2209 1959 2209 
L 2766 2209 
L 2766 2266 
Q 2766 2663 2505 2880 
Q 2244 3097 1772 3097 
Q 1472 3097 1187 3025 
Q 903 2953 641 2809 
L 641 3341 
Q 956 3463 1253 3523 
Q 1550 3584 1831 3584 
Q 2591 3584 2966 3190 
Q 3341 2797 3341 1997 
z
" transform="scale(0.015625)"/>
      <path id="DejaVuSans-73" d="M 2834 3397 
L 2834 2853 
Q 2591 2978 2328 3040 
Q 2066 3103 1784 3103 
Q 1356 3103 1142 2972 
Q 928 2841 928 2578 
Q 928 2378 1081 2264 
Q 1234 2150 1697 2047 
L 1894 2003 
Q 2506 1872 2764 1633 
Q 3022 1394 3022 966 
Q 3022 478 2636 193 
Q 2250 -91 1575 -91 
Q 1294 -91 989 -36 
Q 684 19 347 128 
L 347 722 
Q 666 556 975 473 
Q 1284 391 1588 391 
Q 1994 391 2212 530 
Q 2431 669 2431 922 
Q 2431 1156 2273 1281 
Q 2116 1406 1581 1522 
L 1381 1569 
Q 847 1681 609 1914 
Q 372 2147 372 2553 
Q 372 3047 722 3315 
Q 1072 3584 1716 3584 
Q 2034 3584 2315 3537 
Q 2597 3491 2834 3397 
z
" transform="scale(0.015625)"/>
      <path id="DejaVuSans-65" d="M 3597 1894 
L 3597 1613 
L 953 1613 
Q 991 1019 1311 708 
Q 1631 397 2203 397 
Q 2534 397 2845 478 
Q 3156 559 3463 722 
L 3463 178 
Q 3153 47 2828 -22 
Q 2503 -91 2169 -91 
Q 1331 -91 842 396 
Q 353 884 353 1716 
Q 353 2575 817 3079 
Q 1281 3584 2069 3584 
Q 2775 3584 3186 3129 
Q 3597 2675 3597 1894 
z
M 3022 2063 
Q 3016 2534 2758 2815 
Q 2500 3097 2075 3097 
Q 1594 3097 1305 2825 
Q 1016 2553 972 2059 
L 3022 2063 
z
" transform="scale(0.015625)"/>
      <path id="DejaVuSans-53" d="M 3425 4513 
L 3425 3897 
Q 3066 4069 2747 4153 
Q 2428 4238 2131 4238 
Q 1616 4238 1336 4038 
Q 1056 3838 1056 3469 
Q 1056 3159 1242 3001 
Q 1428 2844 1947 2747 
L 2328 2669 
Q 3034 2534 3370 2195 
Q 3706 1856 3706 1288 
Q 3706 609 3251 259 
Q 2797 -91 1919 -91 
Q 1588 -91 1214 -16 
Q 841 59 441 206 
L 441 856 
Q 825 641 1194 531 
Q 1563 422 1919 422 
Q 2459 422 2753 634 
Q 3047 847 3047 1241 
Q 3047 1584 2836 1778 
Q 2625 1972 2144 2069 
L 1759 2144 
Q 1053 2284 737 2584 
Q 422 2884 422 3419 
Q 422 4038 858 4394 
Q 1294 4750 2059 4750 
Q 2388 4750 2728 4690 
Q 3069 4631 3425 4513 
z
" transform="scale(0.015625)"/>
      <path id="DejaVuSans-6e" d="M 3513 2113 
L 3513 0 
L 2938 0 
L 2938 2094 
Q 2938 2591 2744 2837 
Q 2550 3084 2163 3084 
Q 1697 3084 1428 2787 
Q 1159 2491 1159 1978 
L 1159 0 
L 581 0 
L 581 3500 
L 1159 3500 
L 1159 2956 
Q 1366 3272 1645 3428 
Q 1925 3584 2291 3584 
Q 2894 3584 3203 3211 
Q 3513 2838 3513 2113 
z
" transform="scale(0.015625)"/>
      <path id="DejaVuSans-69" d="M 603 3500 
L 1178 3500 
L 1178 0 
L 603 0 
L 603 3500 
z
M 603 4863 
L 1178 4863 
L 1178 4134 
L 603 4134 
L 603 4863 
z
" transform="scale(0.015625)"/>
      <path id="DejaVuSans-74" d="M 1172 4494 
L 1172 3500 
L 2356 3500 
L 2356 3053 
L 1172 3053 
L 1172 1153 
Q 1172 725 1289 603 
Q 1406 481 1766 481 
L 2356 481 
L 2356 0 
L 1766 0 
Q 1100 0 847 248 
Q 594 497 594 1153 
L 594 3053 
L 172 3053 
L 172 3500 
L 594 3500 
L 594 4494 
L 1172 4494 
z
" transform="scale(0.015625)"/>
      <path id="DejaVuSans-76" d="M 191 3500 
L 800 3500 
L 1894 563 
L 2988 3500 
L 3597 3500 
L 2284 0 
L 1503 0 
L 191 3500 
z
" transform="scale(0.015625)"/>
      <path id="DejaVuSans-79" d="M 2059 -325 
Q 1816 -950 1584 -1140 
Q 1353 -1331 966 -1331 
L 506 -1331 
L 506 -850 
L 844 -850 
Q 1081 -850 1212 -737 
Q 1344 -625 1503 -206 
L 1606 56 
L 191 3500 
L 800 3500 
L 1894 763 
L 2988 3500 
L 3597 3500 
L 2059 -325 
z
" transform="scale(0.015625)"/>
     </defs>
     <use xlink:href="#DejaVuSans-4f" transform="translate(0 0.015625)"/>
     <use xlink:href="#DejaVuSans-41" transform="translate(78.710938 0.015625)"/>
     <use xlink:href="#DejaVuSans-54" transform="translate(147.119141 0.015625)"/>
     <use xlink:href="#DejaVuSans-20" transform="translate(208.203125 0.015625)"/>
     <use xlink:href="#DejaVuSansDisplay-2014" transform="translate(239.990234 0.015625)"/>
     <use xlink:href="#DejaVuSans-20" transform="translate(339.990234 0.015625)"/>
     <use xlink:href="#DejaVuSans-50" transform="translate(371.777344 0.015625)"/>
     <use xlink:href="#DejaVuSans-68" transform="translate(432.080078 0.015625)"/>
     <use xlink:href="#DejaVuSans-61" transform="translate(495.458984 0.015625)"/>
     <use xlink:href="#DejaVuSans-73" transform="translate(556.738281 0.015625)"/>
     <use xlink:href="#DejaVuSans-65" transform="translate(608.837891 0.015625)"/>
     <use xlink:href="#DejaVuSans-20" transform="translate(670.361328 0.015625)"/>
     <use xlink:href="#DejaVuSans-53" transform="translate(702.148438 0.015625)"/>
     <use xlink:href="#DejaVuSans-65" transform="translate(765.625 0.015625)"/>
     <use xlink:href="#DejaVuSans-6e" transform="translate(827.148438 0.015625)"/>
     <use xlink:href="#DejaVuSans-73" transform="translate(890.527344 0.015625)"/>
     <use xlink:href="#DejaVuSans-69" transform="translate(942.626953 0.015625)"/>
     <use xlink:href="#DejaVuSans-74" transform="translate(970.410156 0.015625)"/>
     <use xlink:href="#DejaVuSans-69" transform="translate(1009.619141 0.015625)"/>
     <use xlink:href="#DejaVuSans-76" transform="translate(1037.402344 0.015625)"/>
     <use xlink:href="#DejaVuSans-69" transform="translate(1096.582031 0.015625)"/>
     <use xlink:href="#DejaVuSans-74" transform="translate(1124.365234 0.015625)"/>
     <use xlink:href="#DejaVuSans-79" transform="translate(1163.574219 0.015625)"/>
     <use xlink:href="#DejaVuSans-20" transform="translate(1222.753906 0.015625)"/>
     <use xlink:href="#DejaVuSans-76" transform="translate(1254.541016 0.015625)"/>
     <use xlink:href="#DejaVuSans-73" transform="translate(1313.720703 0.015625)"/>
     <use xlink:href="#DejaVuSans-20" transform="translate(1365.820312 0.015625)"/>
     <use xlink:href="#DejaVuSans-Oblique-3c9" transform="translate(1397.607422 0.015625)"/>
    </g>
   </g>
   <g id="legend_1">
    <g id="patch_7">
     <path d="M 617.010762 146.145 
L 694.130762 146.145 
Q 695.730762 146.145 695.730762 144.545 
L 695.730762 27.92 
Q 695.730762 26.32 694.130762 26.32 
L 617.010762 26.32 
Q 615.410762 26.32 615.410762 27.92 
L 615.410762 144.545 
Q 615.410762 146.145 617.010762 146.145 
z
" style="fill: #ffffff; opacity: 0.8; stroke: #cccccc; stroke-linejoin: miter"/>
    </g>
    <g id="line2d_33">
     <path d="M 618.610762 32.79875 
L 626.610762 32.79875 
L 634.610762 32.79875 
" style="fill: none; stroke: #463480; stroke-width: 1.5; stroke-linecap: round"/>
    </g>
    <g id="text_14">
     <!-- R=2.0  $\Delta\omega_{\mathrm{C}}$ -->
     <g style="fill: #262626" transform="translate(641.010762 35.59875) scale(0.08 -0.08)">
      <defs>
       <path id="DejaVuSans-52" d="M 2841 2188 
Q 3044 2119 3236 1894 
Q 3428 1669 3622 1275 
L 4263 0 
L 3584 0 
L 2988 1197 
Q 2756 1666 2539 1819 
Q 2322 1972 1947 1972 
L 1259 1972 
L 1259 0 
L 628 0 
L 628 4666 
L 2053 4666 
Q 2853 4666 3247 4331 
Q 3641 3997 3641 3322 
Q 3641 2881 3436 2590 
Q 3231 2300 2841 2188 
z
M 1259 4147 
L 1259 2491 
L 2053 2491 
Q 2509 2491 2742 2702 
Q 2975 2913 2975 3322 
Q 2975 3731 2742 3939 
Q 2509 4147 2053 4147 
L 1259 4147 
z
" transform="scale(0.015625)"/>
       <path id="DejaVuSans-3d" d="M 678 2906 
L 4684 2906 
L 4684 2381 
L 678 2381 
L 678 2906 
z
M 678 1631 
L 4684 1631 
L 4684 1100 
L 678 1100 
L 678 1631 
z
" transform="scale(0.015625)"/>
       <path id="DejaVuSans-2e" d="M 684 794 
L 1344 794 
L 1344 0 
L 684 0 
L 684 794 
z
" transform="scale(0.015625)"/>
       <path id="DejaVuSans-43" d="M 4122 4306 
L 4122 3641 
Q 3803 3938 3442 4084 
Q 3081 4231 2675 4231 
Q 1875 4231 1450 3742 
Q 1025 3253 1025 2328 
Q 1025 1406 1450 917 
Q 1875 428 2675 428 
Q 3081 428 3442 575 
Q 3803 722 4122 1019 
L 4122 359 
Q 3791 134 3420 21 
Q 3050 -91 2638 -91 
Q 1578 -91 968 557 
Q 359 1206 359 2328 
Q 359 3453 968 4101 
Q 1578 4750 2638 4750 
Q 3056 4750 3426 4639 
Q 3797 4528 4122 4306 
z
" transform="scale(0.015625)"/>
      </defs>
      <use xlink:href="#DejaVuSans-52" transform="translate(0 0.78125)"/>
      <use xlink:href="#DejaVuSans-3d" transform="translate(69.482422 0.78125)"/>
      <use xlink:href="#DejaVuSans-32" transform="translate(153.271484 0.78125)"/>
      <use xlink:href="#DejaVuSans-2e" transform="translate(216.894531 0.78125)"/>
      <use xlink:href="#DejaVuSans-30" transform="translate(248.681641 0.78125)"/>
      <use xlink:href="#DejaVuSans-20" transform="translate(312.304688 0.78125)"/>
      <use xlink:href="#DejaVuSans-20" transform="translate(344.091797 0.78125)"/>
      <use xlink:href="#DejaVuSans-394" transform="translate(375.878906 0.78125)"/>
      <use xlink:href="#DejaVuSans-Oblique-3c9" transform="translate(444.287109 0.78125)"/>
      <use xlink:href="#DejaVuSans-43" transform="translate(528.027344 -15.625) scale(0.7)"/>
     </g>
    </g>
    <g id="line2d_34">
     <path d="M 618.610762 44.54125 
L 626.610762 44.54125 
L 634.610762 44.54125 
" style="fill: none; stroke: #3e4c8a; stroke-width: 1.5; stroke-linecap: round"/>
    </g>
    <g id="text_15">
     <!-- R=6.0  $\Delta\omega_{\mathrm{C}}$ -->
     <g style="fill: #262626" transform="translate(641.010762 47.34125) scale(0.08 -0.08)">
      <use xlink:href="#DejaVuSans-52" transform="translate(0 0.78125)"/>
      <use xlink:href="#DejaVuSans-3d" transform="translate(69.482422 0.78125)"/>
      <use xlink:href="#DejaVuSans-36" transform="translate(153.271484 0.78125)"/>
      <use xlink:href="#DejaVuSans-2e" transform="translate(216.894531 0.78125)"/>
      <use xlink:href="#DejaVuSans-30" transform="translate(248.681641 0.78125)"/>
      <use xlink:href="#DejaVuSans-20" transform="translate(312.304688 0.78125)"/>
      <use xlink:href="#DejaVuSans-20" transform="translate(344.091797 0.78125)"/>
      <use xlink:href="#DejaVuSans-394" transform="translate(375.878906 0.78125)"/>
      <use xlink:href="#DejaVuSans-Oblique-3c9" transform="translate(444.287109 0.78125)"/>
      <use xlink:href="#DejaVuSans-43" transform="translate(528.027344 -15.625) scale(0.7)"/>
     </g>
    </g>
    <g id="line2d_35">
     <path d="M 618.610762 56.28375 
L 626.610762 56.28375 
L 634.610762 56.28375 
" style="fill: none; stroke: #34618d; stroke-width: 1.5; stroke-linecap: round"/>
    </g>
    <g id="text_16">
     <!-- R=10.0  $\Delta\omega_{\mathrm{C}}$ -->
     <g style="fill: #262626" transform="translate(641.010762 59.08375) scale(0.08 -0.08)">
      <use xlink:href="#DejaVuSans-52" transform="translate(0 0.78125)"/>
      <use xlink:href="#DejaVuSans-3d" transform="translate(69.482422 0.78125)"/>
      <use xlink:href="#DejaVuSans-31" transform="translate(153.271484 0.78125)"/>
      <use xlink:href="#DejaVuSans-30" transform="translate(216.894531 0.78125)"/>
      <use xlink:href="#DejaVuSans-2e" transform="translate(280.517578 0.78125)"/>
      <use xlink:href="#DejaVuSans-30" transform="translate(312.304688 0.78125)"/>
      <use xlink:href="#DejaVuSans-20" transform="translate(375.927734 0.78125)"/>
      <use xlink:href="#DejaVuSans-20" transform="translate(407.714844 0.78125)"/>
      <use xlink:href="#DejaVuSans-394" transform="translate(439.501953 0.78125)"/>
      <use xlink:href="#DejaVuSans-Oblique-3c9" transform="translate(507.910156 0.78125)"/>
      <use xlink:href="#DejaVuSans-43" transform="translate(591.650391 -15.625) scale(0.7)"/>
     </g>
    </g>
    <g id="line2d_36">
     <path d="M 618.610762 68.02625 
L 626.610762 68.02625 
L 634.610762 68.02625 
" style="fill: none; stroke: #2b748e; stroke-width: 1.5; stroke-linecap: round"/>
    </g>
    <g id="text_17">
     <!-- R=14.0  $\Delta\omega_{\mathrm{C}}$ -->
     <g style="fill: #262626" transform="translate(641.010762 70.82625) scale(0.08 -0.08)">
      <use xlink:href="#DejaVuSans-52" transform="translate(0 0.78125)"/>
      <use xlink:href="#DejaVuSans-3d" transform="translate(69.482422 0.78125)"/>
      <use xlink:href="#DejaVuSans-31" transform="translate(153.271484 0.78125)"/>
      <use xlink:href="#DejaVuSans-34" transform="translate(216.894531 0.78125)"/>
      <use xlink:href="#DejaVuSans-2e" transform="translate(280.517578 0.78125)"/>
      <use xlink:href="#DejaVuSans-30" transform="translate(312.304688 0.78125)"/>
      <use xlink:href="#DejaVuSans-20" transform="translate(375.927734 0.78125)"/>
      <use xlink:href="#DejaVuSans-20" transform="translate(407.714844 0.78125)"/>
      <use xlink:href="#DejaVuSans-394" transform="translate(439.501953 0.78125)"/>
      <use xlink:href="#DejaVuSans-Oblique-3c9" transform="translate(507.910156 0.78125)"/>
      <use xlink:href="#DejaVuSans-43" transform="translate(591.650391 -15.625) scale(0.7)"/>
     </g>
    </g>
    <g id="line2d_37">
     <path d="M 618.610762 79.76875 
L 626.610762 79.76875 
L 634.610762 79.76875 
" style="fill: none; stroke: #24878e; stroke-width: 1.5; stroke-linecap: round"/>
    </g>
    <g id="text_18">
     <!-- R=18.0  $\Delta\omega_{\mathrm{C}}$ -->
     <g style="fill: #262626" transform="translate(641.010762 82.56875) scale(0.08 -0.08)">
      <defs>
       <path id="DejaVuSans-38" d="M 2034 2216 
Q 1584 2216 1326 1975 
Q 1069 1734 1069 1313 
Q 1069 891 1326 650 
Q 1584 409 2034 409 
Q 2484 409 2743 651 
Q 3003 894 3003 1313 
Q 3003 1734 2745 1975 
Q 2488 2216 2034 2216 
z
M 1403 2484 
Q 997 2584 770 2862 
Q 544 3141 544 3541 
Q 544 4100 942 4425 
Q 1341 4750 2034 4750 
Q 2731 4750 3128 4425 
Q 3525 4100 3525 3541 
Q 3525 3141 3298 2862 
Q 3072 2584 2669 2484 
Q 3125 2378 3379 2068 
Q 3634 1759 3634 1313 
Q 3634 634 3220 271 
Q 2806 -91 2034 -91 
Q 1263 -91 848 271 
Q 434 634 434 1313 
Q 434 1759 690 2068 
Q 947 2378 1403 2484 
z
M 1172 3481 
Q 1172 3119 1398 2916 
Q 1625 2713 2034 2713 
Q 2441 2713 2670 2916 
Q 2900 3119 2900 3481 
Q 2900 3844 2670 4047 
Q 2441 4250 2034 4250 
Q 1625 4250 1398 4047 
Q 1172 3844 1172 3481 
z
" transform="scale(0.015625)"/>
      </defs>
      <use xlink:href="#DejaVuSans-52" transform="translate(0 0.78125)"/>
      <use xlink:href="#DejaVuSans-3d" transform="translate(69.482422 0.78125)"/>
      <use xlink:href="#DejaVuSans-31" transform="translate(153.271484 0.78125)"/>
      <use xlink:href="#DejaVuSans-38" transform="translate(216.894531 0.78125)"/>
      <use xlink:href="#DejaVuSans-2e" transform="translate(280.517578 0.78125)"/>
      <use xlink:href="#DejaVuSans-30" transform="translate(312.304688 0.78125)"/>
      <use xlink:href="#DejaVuSans-20" transform="translate(375.927734 0.78125)"/>
      <use xlink:href="#DejaVuSans-20" transform="translate(407.714844 0.78125)"/>
      <use xlink:href="#DejaVuSans-394" transform="translate(439.501953 0.78125)"/>
      <use xlink:href="#DejaVuSans-Oblique-3c9" transform="translate(507.910156 0.78125)"/>
      <use xlink:href="#DejaVuSans-43" transform="translate(591.650391 -15.625) scale(0.7)"/>
     </g>
    </g>
    <g id="line2d_38">
     <path d="M 618.610762 91.51125 
L 626.610762 91.51125 
L 634.610762 91.51125 
" style="fill: none; stroke: #1f998a; stroke-width: 1.5; stroke-linecap: round"/>
    </g>
    <g id="text_19">
     <!-- R=22.0  $\Delta\omega_{\mathrm{C}}$ -->
     <g style="fill: #262626" transform="translate(641.010762 94.31125) scale(0.08 -0.08)">
      <use xlink:href="#DejaVuSans-52" transform="translate(0 0.78125)"/>
      <use xlink:href="#DejaVuSans-3d" transform="translate(69.482422 0.78125)"/>
      <use xlink:href="#DejaVuSans-32" transform="translate(153.271484 0.78125)"/>
      <use xlink:href="#DejaVuSans-32" transform="translate(216.894531 0.78125)"/>
      <use xlink:href="#DejaVuSans-2e" transform="translate(280.517578 0.78125)"/>
      <use xlink:href="#DejaVuSans-30" transform="translate(312.304688 0.78125)"/>
      <use xlink:href="#DejaVuSans-20" transform="translate(375.927734 0.78125)"/>
      <use xlink:href="#DejaVuSans-20" transform="translate(407.714844 0.78125)"/>
      <use xlink:href="#DejaVuSans-394" transform="translate(439.501953 0.78125)"/>
      <use xlink:href="#DejaVuSans-Oblique-3c9" transform="translate(507.910156 0.78125)"/>
      <use xlink:href="#DejaVuSans-43" transform="translate(591.650391 -15.625) scale(0.7)"/>
     </g>
    </g>
    <g id="line2d_39">
     <path d="M 618.610762 103.25375 
L 626.610762 103.25375 
L 634.610762 103.25375 
" style="fill: none; stroke: #25ac82; stroke-width: 1.5; stroke-linecap: round"/>
    </g>
    <g id="text_20">
     <!-- R=26.0  $\Delta\omega_{\mathrm{C}}$ -->
     <g style="fill: #262626" transform="translate(641.010762 106.05375) scale(0.08 -0.08)">
      <use xlink:href="#DejaVuSans-52" transform="translate(0 0.78125)"/>
      <use xlink:href="#DejaVuSans-3d" transform="translate(69.482422 0.78125)"/>
      <use xlink:href="#DejaVuSans-32" transform="translate(153.271484 0.78125)"/>
      <use xlink:href="#DejaVuSans-36" transform="translate(216.894531 0.78125)"/>
      <use xlink:href="#DejaVuSans-2e" transform="translate(280.517578 0.78125)"/>
      <use xlink:href="#DejaVuSans-30" transform="translate(312.304688 0.78125)"/>
      <use xlink:href="#DejaVuSans-20" transform="translate(375.927734 0.78125)"/>
      <use xlink:href="#DejaVuSans-20" transform="translate(407.714844 0.78125)"/>
      <use xlink:href="#DejaVuSans-394" transform="translate(439.501953 0.78125)"/>
      <use xlink:href="#DejaVuSans-Oblique-3c9" transform="translate(507.910156 0.78125)"/>
      <use xlink:href="#DejaVuSans-43" transform="translate(591.650391 -15.625) scale(0.7)"/>
     </g>
    </g>
    <g id="line2d_40">
     <path d="M 618.610762 114.99625 
L 626.610762 114.99625 
L 634.610762 114.99625 
" style="fill: none; stroke: #40bd72; stroke-width: 1.5; stroke-linecap: round"/>
    </g>
    <g id="text_21">
     <!-- R=30.0  $\Delta\omega_{\mathrm{C}}$ -->
     <g style="fill: #262626" transform="translate(641.010762 117.79625) scale(0.08 -0.08)">
      <use xlink:href="#DejaVuSans-52" transform="translate(0 0.78125)"/>
      <use xlink:href="#DejaVuSans-3d" transform="translate(69.482422 0.78125)"/>
      <use xlink:href="#DejaVuSans-33" transform="translate(153.271484 0.78125)"/>
      <use xlink:href="#DejaVuSans-30" transform="translate(216.894531 0.78125)"/>
      <use xlink:href="#DejaVuSans-2e" transform="translate(280.517578 0.78125)"/>
      <use xlink:href="#DejaVuSans-30" transform="translate(312.304688 0.78125)"/>
      <use xlink:href="#DejaVuSans-20" transform="translate(375.927734 0.78125)"/>
      <use xlink:href="#DejaVuSans-20" transform="translate(407.714844 0.78125)"/>
      <use xlink:href="#DejaVuSans-394" transform="translate(439.501953 0.78125)"/>
      <use xlink:href="#DejaVuSans-Oblique-3c9" transform="translate(507.910156 0.78125)"/>
      <use xlink:href="#DejaVuSans-43" transform="translate(591.650391 -15.625) scale(0.7)"/>
     </g>
    </g>
    <g id="line2d_41">
     <path d="M 618.610762 126.73875 
L 626.610762 126.73875 
L 634.610762 126.73875 
" style="fill: none; stroke: #69cd5b; stroke-width: 1.5; stroke-linecap: round"/>
    </g>
    <g id="text_22">
     <!-- R=34.0  $\Delta\omega_{\mathrm{C}}$ -->
     <g style="fill: #262626" transform="translate(641.010762 129.53875) scale(0.08 -0.08)">
      <use xlink:href="#DejaVuSans-52" transform="translate(0 0.78125)"/>
      <use xlink:href="#DejaVuSans-3d" transform="translate(69.482422 0.78125)"/>
      <use xlink:href="#DejaVuSans-33" transform="translate(153.271484 0.78125)"/>
      <use xlink:href="#DejaVuSans-34" transform="translate(216.894531 0.78125)"/>
      <use xlink:href="#DejaVuSans-2e" transform="translate(280.517578 0.78125)"/>
      <use xlink:href="#DejaVuSans-30" transform="translate(312.304688 0.78125)"/>
      <use xlink:href="#DejaVuSans-20" transform="translate(375.927734 0.78125)"/>
      <use xlink:href="#DejaVuSans-20" transform="translate(407.714844 0.78125)"/>
      <use xlink:href="#DejaVuSans-394" transform="translate(439.501953 0.78125)"/>
      <use xlink:href="#DejaVuSans-Oblique-3c9" transform="translate(507.910156 0.78125)"/>
      <use xlink:href="#DejaVuSans-43" transform="translate(591.650391 -15.625) scale(0.7)"/>
     </g>
    </g>
    <g id="line2d_42">
     <path d="M 618.610762 138.48125 
L 626.610762 138.48125 
L 634.610762 138.48125 
" style="fill: none; stroke: #9bd93c; stroke-width: 1.5; stroke-linecap: round"/>
    </g>
    <g id="text_23">
     <!-- R=38.0  $\Delta\omega_{\mathrm{C}}$ -->
     <g style="fill: #262626" transform="translate(641.010762 141.28125) scale(0.08 -0.08)">
      <use xlink:href="#DejaVuSans-52" transform="translate(0 0.78125)"/>
      <use xlink:href="#DejaVuSans-3d" transform="translate(69.482422 0.78125)"/>
      <use xlink:href="#DejaVuSans-33" transform="translate(153.271484 0.78125)"/>
      <use xlink:href="#DejaVuSans-38" transform="translate(216.894531 0.78125)"/>
      <use xlink:href="#DejaVuSans-2e" transform="translate(280.517578 0.78125)"/>
      <use xlink:href="#DejaVuSans-30" transform="translate(312.304688 0.78125)"/>
      <use xlink:href="#DejaVuSans-20" transform="translate(375.927734 0.78125)"/>
      <use xlink:href="#DejaVuSans-20" transform="translate(407.714844 0.78125)"/>
      <use xlink:href="#DejaVuSans-394" transform="translate(439.501953 0.78125)"/>
      <use xlink:href="#DejaVuSans-Oblique-3c9" transform="translate(507.910156 0.78125)"/>
      <use xlink:href="#DejaVuSans-43" transform="translate(591.650391 -15.625) scale(0.7)"/>
     </g>
    </g>
   </g>
  </g>
 </g>
 <defs>
  <clipPath id="p228dfeb4ed">
   <rect x="76.52375" y="22.32" width="623.207012" height="351.3"/>
  </clipPath>
 </defs>
</svg>
