<?xml version="1.0" encoding="utf-8" standalone="no"?>
<!DOCTYPE svg PUBLIC "-//W3C//DTD SVG 1.1//EN"
  "http://www.w3.org/Graphics/SVG/1.1/DTD/svg11.dtd">
<svg xmlns:xlink="http://www.w3.org/1999/xlink" width="704.917844pt" height="344.699687pt" viewBox="0 0 704.917844 344.699687" xmlns="http://www.w3.org/2000/svg" version="1.1">
 <metadata>
  <rdf:RDF xmlns:dc="http://purl.org/dc/elements/1.1/" xmlns:cc="http://creativecommons.org/ns#" xmlns:rdf="http://www.w3.org/1999/02/22-rdf-syntax-ns#">
   <cc:Work>
    <dc:type rdf:resource="http://purl.org/dc/dcmitype/StillImage"/>
    <dc:date>2026-05-21T09:31:22.131559</dc:date>
    <dc:format>image/svg+xml</dc:format>
    <dc:creator>
     <cc:Agent>
      <dc:title>Matplotlib v3.10.5, https://matplotlib.org/</dc:title>
     </cc:Agent>
    </dc:creator>
   </cc:Work>
  </rdf:RDF>
 </metadata>
 <defs>
  <style type="text/css">*{stroke-linejoin: round; stroke-linecap: butt}</style>
 </defs>
 <g id="figure_1">
  <g id="patch_1">
   <path d="M 0 344.699687 
L 704.917844 344.699687 
L 704.917844 0 
L 0 0 
z
" style="fill: #ffffff"/>
  </g>
  <g id="axes_1">
   <g id="patch_2">
    <path d="M 68.689844 301.74 
L 354.763844 301.74 
L 354.763844 22.44 
L 68.689844 22.44 
z
" style="fill: #ffffff"/>
   </g>
   <g id="matplotlib.axis_1">
    <g id="xtick_1">
     <g id="line2d_1">
      <path d="M 76.385712 301.74 
L 76.385712 22.44 
" clip-path="url(#pdb17f447f8)" style="fill: none; stroke: #cccccc; stroke-linecap: round"/>
     </g>
     <g id="text_1">
      <!-- 0 -->
      <g style="fill: #262626" transform="translate(72.886337 319.598281) scale(0.11 -0.11)">
       <defs>
        <path id="DejaVuSans-30" d="M 2034 4250 
Q 1547 4250 1301 3770 
Q 1056 3291 1056 2328 
Q 1056 1369 1301 889 
Q 1547 409 2034 409 
Q 2525 409 2770 889 
Q 3016 1369 3016 2328 
Q 3016 3291 2770 3770 
Q 2525 4250 2034 4250 
z
M 2034 4750 
Q 2819 4750 3233 4129 
Q 3647 3509 3647 2328 
Q 3647 1150 3233 529 
Q 2819 -91 2034 -91 
Q 1250 -91 836 529 
Q 422 1150 422 2328 
Q 422 3509 836 4129 
Q 1250 4750 2034 4750 
z
" transform="scale(0.015625)"/>
       </defs>
       <use xlink:href="#DejaVuSans-30"/>
      </g>
     </g>
    </g>
    <g id="xtick_2">
     <g id="line2d_2">
      <path d="M 129.460666 301.74 
L 129.460666 22.44 
" clip-path="url(#pdb17f447f8)" style="fill: none; stroke: #cccccc; stroke-linecap: round"/>
     </g>
     <g id="text_2">
      <!-- 1 -->
      <g style="fill: #262626" transform="translate(125.961291 319.598281) scale(0.11 -0.11)">
       <defs>
        <path id="DejaVuSans-31" d="M 794 531 
L 1825 531 
L 1825 4091 
L 703 3866 
L 703 4441 
L 1819 4666 
L 2450 4666 
L 2450 531 
L 3481 531 
L 3481 0 
L 794 0 
L 794 531 
z
" transform="scale(0.015625)"/>
       </defs>
       <use xlink:href="#DejaVuSans-31"/>
      </g>
     </g>
    </g>
    <g id="xtick_3">
     <g id="line2d_3">
      <path d="M 182.535619 301.74 
L 182.535619 22.44 
" clip-path="url(#pdb17f447f8)" style="fill: none; stroke: #cccccc; stroke-linecap: round"/>
     </g>
     <g id="text_3">
      <!-- 2 -->
      <g style="fill: #262626" transform="translate(179.036244 319.598281) scale(0.11 -0.11)">
       <defs>
        <path id="DejaVuSans-32" d="M 1228 531 
L 3431 531 
L 3431 0 
L 469 0 
L 469 531 
Q 828 903 1448 1529 
Q 2069 2156 2228 2338 
Q 2531 2678 2651 2914 
Q 2772 3150 2772 3378 
Q 2772 3750 2511 3984 
Q 2250 4219 1831 4219 
Q 1534 4219 1204 4116 
Q 875 4013 500 3803 
L 500 4441 
Q 881 4594 1212 4672 
Q 1544 4750 1819 4750 
Q 2544 4750 2975 4387 
Q 3406 4025 3406 3419 
Q 3406 3131 3298 2873 
Q 3191 2616 2906 2266 
Q 2828 2175 2409 1742 
Q 1991 1309 1228 531 
z
" transform="scale(0.015625)"/>
       </defs>
       <use xlink:href="#DejaVuSans-32"/>
      </g>
     </g>
    </g>
    <g id="xtick_4">
     <g id="line2d_4">
      <path d="M 235.610573 301.74 
L 235.610573 22.44 
" clip-path="url(#pdb17f447f8)" style="fill: none; stroke: #cccccc; stroke-linecap: round"/>
     </g>
     <g id="text_4">
      <!-- 3 -->
      <g style="fill: #262626" transform="translate(232.111198 319.598281) scale(0.11 -0.11)">
       <defs>
        <path id="DejaVuSans-33" d="M 2597 2516 
Q 3050 2419 3304 2112 
Q 3559 1806 3559 1356 
Q 3559 666 3084 287 
Q 2609 -91 1734 -91 
Q 1441 -91 1130 -33 
Q 819 25 488 141 
L 488 750 
Q 750 597 1062 519 
Q 1375 441 1716 441 
Q 2309 441 2620 675 
Q 2931 909 2931 1356 
Q 2931 1769 2642 2001 
Q 2353 2234 1838 2234 
L 1294 2234 
L 1294 2753 
L 1863 2753 
Q 2328 2753 2575 2939 
Q 2822 3125 2822 3475 
Q 2822 3834 2567 4026 
Q 2313 4219 1838 4219 
Q 1578 4219 1281 4162 
Q 984 4106 628 3988 
L 628 4550 
Q 988 4650 1302 4700 
Q 1616 4750 1894 4750 
Q 2613 4750 3031 4423 
Q 3450 4097 3450 3541 
Q 3450 3153 3228 2886 
Q 3006 2619 2597 2516 
z
" transform="scale(0.015625)"/>
       </defs>
       <use xlink:href="#DejaVuSans-33"/>
      </g>
     </g>
    </g>
    <g id="xtick_5">
     <g id="line2d_5">
      <path d="M 288.685526 301.74 
L 288.685526 22.44 
" clip-path="url(#pdb17f447f8)" style="fill: none; stroke: #cccccc; stroke-linecap: round"/>
     </g>
     <g id="text_5">
      <!-- 4 -->
      <g style="fill: #262626" transform="translate(285.186151 319.598281) scale(0.11 -0.11)">
       <defs>
        <path id="DejaVuSans-34" d="M 2419 4116 
L 825 1625 
L 2419 1625 
L 2419 4116 
z
M 2253 4666 
L 3047 4666 
L 3047 1625 
L 3713 1625 
L 3713 1100 
L 3047 1100 
L 3047 0 
L 2419 0 
L 2419 1100 
L 313 1100 
L 313 1709 
L 2253 4666 
z
" transform="scale(0.015625)"/>
       </defs>
       <use xlink:href="#DejaVuSans-34"/>
      </g>
     </g>
    </g>
    <g id="xtick_6">
     <g id="line2d_6">
      <path d="M 341.76048 301.74 
L 341.76048 22.44 
" clip-path="url(#pdb17f447f8)" style="fill: none; stroke: #cccccc; stroke-linecap: round"/>
     </g>
     <g id="text_6">
      <!-- 5 -->
      <g style="fill: #262626" transform="translate(338.261105 319.598281) scale(0.11 -0.11)">
       <defs>
        <path id="DejaVuSans-35" d="M 691 4666 
L 3169 4666 
L 3169 4134 
L 1269 4134 
L 1269 2991 
Q 1406 3038 1543 3061 
Q 1681 3084 1819 3084 
Q 2600 3084 3056 2656 
Q 3513 2228 3513 1497 
Q 3513 744 3044 326 
Q 2575 -91 1722 -91 
Q 1428 -91 1123 -41 
Q 819 9 494 109 
L 494 744 
Q 775 591 1075 516 
Q 1375 441 1709 441 
Q 2250 441 2565 725 
Q 2881 1009 2881 1497 
Q 2881 1984 2565 2268 
Q 2250 2553 1709 2553 
Q 1456 2553 1204 2497 
Q 953 2441 691 2322 
L 691 4666 
z
" transform="scale(0.015625)"/>
       </defs>
       <use xlink:href="#DejaVuSans-35"/>
      </g>
     </g>
    </g>
    <g id="text_7">
     <!-- $\theta$ -->
     <g style="fill: #262626" transform="translate(208.006844 335.004062) scale(0.12 -0.12)">
      <defs>
       <path id="DejaVuSans-Oblique-3b8" d="M 2913 2219 
L 925 2219 
Q 791 1284 928 888 
Q 1100 400 1566 400 
Q 2034 400 2391 891 
Q 2703 1322 2913 2219 
z
M 3009 2750 
Q 3094 3638 2984 3950 
Q 2813 4444 2353 4444 
Q 1875 4444 1525 3956 
Q 1250 3563 1034 2750 
L 3009 2750 
z
M 2444 4913 
Q 3194 4913 3494 4250 
Q 3794 3591 3566 2422 
Q 3341 1256 2781 594 
Q 2225 -72 1475 -72 
Q 722 -72 425 594 
Q 128 1256 353 2422 
Q 581 3591 1134 4250 
Q 1691 4913 2444 4913 
z
" transform="scale(0.015625)"/>
      </defs>
      <use xlink:href="#DejaVuSans-Oblique-3b8" transform="translate(0 0.234375)"/>
     </g>
    </g>
   </g>
   <g id="matplotlib.axis_2">
    <g id="ytick_1">
     <g id="line2d_7">
      <path d="M 68.689844 263.653636 
L 354.763844 263.653636 
" clip-path="url(#pdb17f447f8)" style="fill: none; stroke: #cccccc; stroke-linecap: round"/>
     </g>
     <g id="text_8">
      <!-- −0.04 -->
      <g style="fill: #262626" transform="translate(25.48 267.832777) scale(0.11 -0.11)">
       <defs>
        <path id="DejaVuSans-2212" d="M 678 2272 
L 4684 2272 
L 4684 1741 
L 678 1741 
L 678 2272 
z
" transform="scale(0.015625)"/>
        <path id="DejaVuSans-2e" d="M 684 794 
L 1344 794 
L 1344 0 
L 684 0 
L 684 794 
z
" transform="scale(0.015625)"/>
       </defs>
       <use xlink:href="#DejaVuSans-2212"/>
       <use xlink:href="#DejaVuSans-30" transform="translate(83.789062 0)"/>
       <use xlink:href="#DejaVuSans-2e" transform="translate(147.412109 0)"/>
       <use xlink:href="#DejaVuSans-30" transform="translate(179.199219 0)"/>
       <use xlink:href="#DejaVuSans-34" transform="translate(242.822266 0)"/>
      </g>
     </g>
    </g>
    <g id="ytick_2">
     <g id="line2d_8">
      <path d="M 68.689844 212.871818 
L 354.763844 212.871818 
" clip-path="url(#pdb17f447f8)" style="fill: none; stroke: #cccccc; stroke-linecap: round"/>
     </g>
     <g id="text_9">
      <!-- −0.02 -->
      <g style="fill: #262626" transform="translate(25.48 217.050959) scale(0.11 -0.11)">
       <use xlink:href="#DejaVuSans-2212"/>
       <use xlink:href="#DejaVuSans-30" transform="translate(83.789062 0)"/>
       <use xlink:href="#DejaVuSans-2e" transform="translate(147.412109 0)"/>
       <use xlink:href="#DejaVuSans-30" transform="translate(179.199219 0)"/>
       <use xlink:href="#DejaVuSans-32" transform="translate(242.822266 0)"/>
      </g>
     </g>
    </g>
    <g id="ytick_3">
     <g id="line2d_9">
      <path d="M 68.689844 162.09 
L 354.763844 162.09 
" clip-path="url(#pdb17f447f8)" style="fill: none; stroke: #cccccc; stroke-linecap: round"/>
     </g>
     <g id="text_10">
      <!-- 0.00 -->
      <g style="fill: #262626" transform="translate(34.697656 166.269141) scale(0.11 -0.11)">
       <use xlink:href="#DejaVuSans-30"/>
       <use xlink:href="#DejaVuSans-2e" transform="translate(63.623047 0)"/>
       <use xlink:href="#DejaVuSans-30" transform="translate(95.410156 0)"/>
       <use xlink:href="#DejaVuSans-30" transform="translate(159.033203 0)"/>
      </g>
     </g>
    </g>
    <g id="ytick_4">
     <g id="line2d_10">
      <path d="M 68.689844 111.308182 
L 354.763844 111.308182 
" clip-path="url(#pdb17f447f8)" style="fill: none; stroke: #cccccc; stroke-linecap: round"/>
     </g>
     <g id="text_11">
      <!-- 0.02 -->
      <g style="fill: #262626" transform="translate(34.697656 115.487322) scale(0.11 -0.11)">
       <use xlink:href="#DejaVuSans-30"/>
       <use xlink:href="#DejaVuSans-2e" transform="translate(63.623047 0)"/>
       <use xlink:href="#DejaVuSans-30" transform="translate(95.410156 0)"/>
       <use xlink:href="#DejaVuSans-32" transform="translate(159.033203 0)"/>
      </g>
     </g>
    </g>
    <g id="ytick_5">
     <g id="line2d_11">
      <path d="M 68.689844 60.526364 
L 354.763844 60.526364 
" clip-path="url(#pdb17f447f8)" style="fill: none; stroke: #cccccc; stroke-linecap: round"/>
     </g>
     <g id="text_12">
      <!-- 0.04 -->
      <g style="fill: #262626" transform="translate(34.697656 64.705504) scale(0.11 -0.11)">
       <use xlink:href="#DejaVuSans-30"/>
       <use xlink:href="#DejaVuSans-2e" transform="translate(63.623047 0)"/>
       <use xlink:href="#DejaVuSans-30" transform="translate(95.410156 0)"/>
       <use xlink:href="#DejaVuSans-34" transform="translate(159.033203 0)"/>
      </g>
     </g>
    </g>
    <g id="text_13">
     <!-- $\alpha_{xx}^*$ -->
     <g style="fill: #262626" transform="translate(18.12 171.21) rotate(-90) scale(0.12 -0.12)">
      <defs>
       <path id="DejaVuSans-Oblique-3b1" d="M 2619 1628 
L 2622 2350 
Q 2625 3088 2069 3091 
Q 1653 3094 1394 2747 
Q 1069 2319 959 1747 
Q 825 1059 994 731 
Q 1169 397 1547 397 
Q 1966 397 2319 1063 
L 2619 1628 
z
M 2166 3578 
Q 3141 3594 3128 2584 
Q 3128 2584 3616 3500 
L 4128 3500 
L 3119 1603 
L 3109 919 
Q 3109 766 3194 638 
Q 3291 488 3391 488 
L 3669 488 
L 3575 0 
L 3228 0 
Q 2934 0 2722 263 
Q 2622 394 2619 669 
Q 2416 334 2066 50 
Q 1900 -81 1453 -78 
Q 722 -72 456 397 
Q 184 884 353 1747 
Q 534 2675 1009 3097 
Q 1544 3569 2166 3578 
z
" transform="scale(0.015625)"/>
       <path id="DejaVuSans-2a" d="M 3009 3897 
L 1888 3291 
L 3009 2681 
L 2828 2375 
L 1778 3009 
L 1778 1831 
L 1422 1831 
L 1422 3009 
L 372 2375 
L 191 2681 
L 1313 3291 
L 191 3897 
L 372 4206 
L 1422 3572 
L 1422 4750 
L 1778 4750 
L 1778 3572 
L 2828 4206 
L 3009 3897 
z
" transform="scale(0.015625)"/>
       <path id="DejaVuSans-Oblique-78" d="M 3841 3500 
L 2234 1784 
L 3219 0 
L 2559 0 
L 1819 1388 
L 531 0 
L -166 0 
L 1556 1844 
L 641 3500 
L 1300 3500 
L 1972 2234 
L 3144 3500 
L 3841 3500 
z
" transform="scale(0.015625)"/>
      </defs>
      <use xlink:href="#DejaVuSans-Oblique-3b1" transform="translate(0 0.765625)"/>
      <use xlink:href="#DejaVuSans-2a" transform="translate(84.227435 39.046875) scale(0.7)"/>
      <use xlink:href="#DejaVuSans-Oblique-78" transform="translate(65.917969 -26.578125) scale(0.7)"/>
      <use xlink:href="#DejaVuSans-Oblique-78" transform="translate(107.34375 -26.578125) scale(0.7)"/>
     </g>
    </g>
   </g>
   <g id="line2d_12">
    <path d="M 81.693207 162.09 
L 87.000703 162.09 
L 92.308198 162.09 
L 97.615693 162.09 
L 102.923189 162.09 
L 108.230684 162.09 
L 113.53818 162.09 
L 118.845675 162.09 
L 124.15317 162.09 
L 129.460666 162.09 
L 134.768161 162.09 
L 140.075656 162.09 
L 145.383152 162.09 
L 150.690647 162.09 
L 155.998142 162.09 
L 161.305638 162.09 
L 166.613133 162.09 
L 171.920629 162.09 
L 177.228124 162.09 
L 182.535619 162.09 
L 187.843115 162.09 
L 193.15061 162.09 
L 198.458105 162.09 
L 203.765601 162.09 
L 209.073096 162.09 
L 214.380591 162.09 
L 219.688087 162.09 
L 224.995582 162.09 
L 230.303078 162.09 
L 235.610573 162.09 
L 240.918068 162.09 
L 246.225564 162.09 
L 251.533059 162.09 
L 256.840554 162.09 
L 262.14805 162.09 
L 267.455545 162.09 
L 272.76304 162.09 
L 278.070536 162.09 
L 283.378031 162.09 
L 288.685526 162.09 
L 293.993022 162.09 
L 299.300517 162.09 
L 304.608013 162.09 
L 309.915508 162.09 
L 315.223003 162.09 
L 320.530499 162.09 
L 325.837994 162.09 
L 331.145489 162.09 
L 336.452985 162.09 
L 341.76048 162.09 
" clip-path="url(#pdb17f447f8)" style="fill: none; stroke: #dd8452; stroke-width: 1.5; stroke-linecap: round"/>
    <defs>
     <path id="m72d623adf2" d="M -3 3 
L 3 3 
L 3 -3 
L -3 -3 
z
" style="stroke: #dd8452; stroke-linejoin: miter"/>
    </defs>
    <g clip-path="url(#pdb17f447f8)">
     <use xlink:href="#m72d623adf2" x="81.693207" y="162.09" style="fill: #dd8452; stroke: #dd8452; stroke-linejoin: miter"/>
     <use xlink:href="#m72d623adf2" x="87.000703" y="162.09" style="fill: #dd8452; stroke: #dd8452; stroke-linejoin: miter"/>
     <use xlink:href="#m72d623adf2" x="92.308198" y="162.09" style="fill: #dd8452; stroke: #dd8452; stroke-linejoin: miter"/>
     <use xlink:href="#m72d623adf2" x="97.615693" y="162.09" style="fill: #dd8452; stroke: #dd8452; stroke-linejoin: miter"/>
     <use xlink:href="#m72d623adf2" x="102.923189" y="162.09" style="fill: #dd8452; stroke: #dd8452; stroke-linejoin: miter"/>
     <use xlink:href="#m72d623adf2" x="108.230684" y="162.09" style="fill: #dd8452; stroke: #dd8452; stroke-linejoin: miter"/>
     <use xlink:href="#m72d623adf2" x="113.53818" y="162.09" style="fill: #dd8452; stroke: #dd8452; stroke-linejoin: miter"/>
     <use xlink:href="#m72d623adf2" x="118.845675" y="162.09" style="fill: #dd8452; stroke: #dd8452; stroke-linejoin: miter"/>
     <use xlink:href="#m72d623adf2" x="124.15317" y="162.09" style="fill: #dd8452; stroke: #dd8452; stroke-linejoin: miter"/>
     <use xlink:href="#m72d623adf2" x="129.460666" y="162.09" style="fill: #dd8452; stroke: #dd8452; stroke-linejoin: miter"/>
     <use xlink:href="#m72d623adf2" x="134.768161" y="162.09" style="fill: #dd8452; stroke: #dd8452; stroke-linejoin: miter"/>
     <use xlink:href="#m72d623adf2" x="140.075656" y="162.09" style="fill: #dd8452; stroke: #dd8452; stroke-linejoin: miter"/>
     <use xlink:href="#m72d623adf2" x="145.383152" y="162.09" style="fill: #dd8452; stroke: #dd8452; stroke-linejoin: miter"/>
     <use xlink:href="#m72d623adf2" x="150.690647" y="162.09" style="fill: #dd8452; stroke: #dd8452; stroke-linejoin: miter"/>
     <use xlink:href="#m72d623adf2" x="155.998142" y="162.09" style="fill: #dd8452; stroke: #dd8452; stroke-linejoin: miter"/>
     <use xlink:href="#m72d623adf2" x="161.305638" y="162.09" style="fill: #dd8452; stroke: #dd8452; stroke-linejoin: miter"/>
     <use xlink:href="#m72d623adf2" x="166.613133" y="162.09" style="fill: #dd8452; stroke: #dd8452; stroke-linejoin: miter"/>
     <use xlink:href="#m72d623adf2" x="171.920629" y="162.09" style="fill: #dd8452; stroke: #dd8452; stroke-linejoin: miter"/>
     <use xlink:href="#m72d623adf2" x="177.228124" y="162.09" style="fill: #dd8452; stroke: #dd8452; stroke-linejoin: miter"/>
     <use xlink:href="#m72d623adf2" x="182.535619" y="162.09" style="fill: #dd8452; stroke: #dd8452; stroke-linejoin: miter"/>
     <use xlink:href="#m72d623adf2" x="187.843115" y="162.09" style="fill: #dd8452; stroke: #dd8452; stroke-linejoin: miter"/>
     <use xlink:href="#m72d623adf2" x="193.15061" y="162.09" style="fill: #dd8452; stroke: #dd8452; stroke-linejoin: miter"/>
     <use xlink:href="#m72d623adf2" x="198.458105" y="162.09" style="fill: #dd8452; stroke: #dd8452; stroke-linejoin: miter"/>
     <use xlink:href="#m72d623adf2" x="203.765601" y="162.09" style="fill: #dd8452; stroke: #dd8452; stroke-linejoin: miter"/>
     <use xlink:href="#m72d623adf2" x="209.073096" y="162.09" style="fill: #dd8452; stroke: #dd8452; stroke-linejoin: miter"/>
     <use xlink:href="#m72d623adf2" x="214.380591" y="162.09" style="fill: #dd8452; stroke: #dd8452; stroke-linejoin: miter"/>
     <use xlink:href="#m72d623adf2" x="219.688087" y="162.09" style="fill: #dd8452; stroke: #dd8452; stroke-linejoin: miter"/>
     <use xlink:href="#m72d623adf2" x="224.995582" y="162.09" style="fill: #dd8452; stroke: #dd8452; stroke-linejoin: miter"/>
     <use xlink:href="#m72d623adf2" x="230.303078" y="162.09" style="fill: #dd8452; stroke: #dd8452; stroke-linejoin: miter"/>
     <use xlink:href="#m72d623adf2" x="235.610573" y="162.09" style="fill: #dd8452; stroke: #dd8452; stroke-linejoin: miter"/>
     <use xlink:href="#m72d623adf2" x="240.918068" y="162.09" style="fill: #dd8452; stroke: #dd8452; stroke-linejoin: miter"/>
     <use xlink:href="#m72d623adf2" x="246.225564" y="162.09" style="fill: #dd8452; stroke: #dd8452; stroke-linejoin: miter"/>
     <use xlink:href="#m72d623adf2" x="251.533059" y="162.09" style="fill: #dd8452; stroke: #dd8452; stroke-linejoin: miter"/>
     <use xlink:href="#m72d623adf2" x="256.840554" y="162.09" style="fill: #dd8452; stroke: #dd8452; stroke-linejoin: miter"/>
     <use xlink:href="#m72d623adf2" x="262.14805" y="162.09" style="fill: #dd8452; stroke: #dd8452; stroke-linejoin: miter"/>
     <use xlink:href="#m72d623adf2" x="267.455545" y="162.09" style="fill: #dd8452; stroke: #dd8452; stroke-linejoin: miter"/>
     <use xlink:href="#m72d623adf2" x="272.76304" y="162.09" style="fill: #dd8452; stroke: #dd8452; stroke-linejoin: miter"/>
     <use xlink:href="#m72d623adf2" x="278.070536" y="162.09" style="fill: #dd8452; stroke: #dd8452; stroke-linejoin: miter"/>
     <use xlink:href="#m72d623adf2" x="283.378031" y="162.09" style="fill: #dd8452; stroke: #dd8452; stroke-linejoin: miter"/>
     <use xlink:href="#m72d623adf2" x="288.685526" y="162.09" style="fill: #dd8452; stroke: #dd8452; stroke-linejoin: miter"/>
     <use xlink:href="#m72d623adf2" x="293.993022" y="162.09" style="fill: #dd8452; stroke: #dd8452; stroke-linejoin: miter"/>
     <use xlink:href="#m72d623adf2" x="299.300517" y="162.09" style="fill: #dd8452; stroke: #dd8452; stroke-linejoin: miter"/>
     <use xlink:href="#m72d623adf2" x="304.608013" y="162.09" style="fill: #dd8452; stroke: #dd8452; stroke-linejoin: miter"/>
     <use xlink:href="#m72d623adf2" x="309.915508" y="162.09" style="fill: #dd8452; stroke: #dd8452; stroke-linejoin: miter"/>
     <use xlink:href="#m72d623adf2" x="315.223003" y="162.09" style="fill: #dd8452; stroke: #dd8452; stroke-linejoin: miter"/>
     <use xlink:href="#m72d623adf2" x="320.530499" y="162.09" style="fill: #dd8452; stroke: #dd8452; stroke-linejoin: miter"/>
     <use xlink:href="#m72d623adf2" x="325.837994" y="162.09" style="fill: #dd8452; stroke: #dd8452; stroke-linejoin: miter"/>
     <use xlink:href="#m72d623adf2" x="331.145489" y="162.09" style="fill: #dd8452; stroke: #dd8452; stroke-linejoin: miter"/>
     <use xlink:href="#m72d623adf2" x="336.452985" y="162.09" style="fill: #dd8452; stroke: #dd8452; stroke-linejoin: miter"/>
     <use xlink:href="#m72d623adf2" x="341.76048" y="162.09" style="fill: #dd8452; stroke: #dd8452; stroke-linejoin: miter"/>
    </g>
   </g>
   <g id="patch_3">
    <path d="M 68.689844 301.74 
L 68.689844 22.44 
" style="fill: none; stroke: #cccccc; stroke-width: 1.25; stroke-linejoin: miter; stroke-linecap: square"/>
   </g>
   <g id="patch_4">
    <path d="M 354.763844 301.74 
L 354.763844 22.44 
" style="fill: none; stroke: #cccccc; stroke-width: 1.25; stroke-linejoin: miter; stroke-linecap: square"/>
   </g>
   <g id="patch_5">
    <path d="M 68.689844 301.74 
L 354.763844 301.74 
" style="fill: none; stroke: #cccccc; stroke-width: 1.25; stroke-linejoin: miter; stroke-linecap: square"/>
   </g>
   <g id="patch_6">
    <path d="M 68.689844 22.44 
L 354.763844 22.44 
" style="fill: none; stroke: #cccccc; stroke-width: 1.25; stroke-linejoin: miter; stroke-linecap: square"/>
   </g>
   <g id="text_14">
    <!-- Optimal $\alpha_{xx}$ vs $\theta$ -->
    <g style="fill: #262626" transform="translate(162.826844 16.44) scale(0.12 -0.12)">
     <defs>
      <path id="DejaVuSans-4f" d="M 2522 4238 
Q 1834 4238 1429 3725 
Q 1025 3213 1025 2328 
Q 1025 1447 1429 934 
Q 1834 422 2522 422 
Q 3209 422 3611 934 
Q 4013 1447 4013 2328 
Q 4013 3213 3611 3725 
Q 3209 4238 2522 4238 
z
M 2522 4750 
Q 3503 4750 4090 4092 
Q 4678 3434 4678 2328 
Q 4678 1225 4090 567 
Q 3503 -91 2522 -91 
Q 1538 -91 948 565 
Q 359 1222 359 2328 
Q 359 3434 948 4092 
Q 1538 4750 2522 4750 
z
" transform="scale(0.015625)"/>
      <path id="DejaVuSans-70" d="M 1159 525 
L 1159 -1331 
L 581 -1331 
L 581 3500 
L 1159 3500 
L 1159 2969 
Q 1341 3281 1617 3432 
Q 1894 3584 2278 3584 
Q 2916 3584 3314 3078 
Q 3713 2572 3713 1747 
Q 3713 922 3314 415 
Q 2916 -91 2278 -91 
Q 1894 -91 1617 61 
Q 1341 213 1159 525 
z
M 3116 1747 
Q 3116 2381 2855 2742 
Q 2594 3103 2138 3103 
Q 1681 3103 1420 2742 
Q 1159 2381 1159 1747 
Q 1159 1113 1420 752 
Q 1681 391 2138 391 
Q 2594 391 2855 752 
Q 3116 1113 3116 1747 
z
" transform="scale(0.015625)"/>
      <path id="DejaVuSans-74" d="M 1172 4494 
L 1172 3500 
L 2356 3500 
L 2356 3053 
L 1172 3053 
L 1172 1153 
Q 1172 725 1289 603 
Q 1406 481 1766 481 
L 2356 481 
L 2356 0 
L 1766 0 
Q 1100 0 847 248 
Q 594 497 594 1153 
L 594 3053 
L 172 3053 
L 172 3500 
L 594 3500 
L 594 4494 
L 1172 4494 
z
" transform="scale(0.015625)"/>
      <path id="DejaVuSans-69" d="M 603 3500 
L 1178 3500 
L 1178 0 
L 603 0 
L 603 3500 
z
M 603 4863 
L 1178 4863 
L 1178 4134 
L 603 4134 
L 603 4863 
z
" transform="scale(0.015625)"/>
      <path id="DejaVuSans-6d" d="M 3328 2828 
Q 3544 3216 3844 3400 
Q 4144 3584 4550 3584 
Q 5097 3584 5394 3201 
Q 5691 2819 5691 2113 
L 5691 0 
L 5113 0 
L 5113 2094 
Q 5113 2597 4934 2840 
Q 4756 3084 4391 3084 
Q 3944 3084 3684 2787 
Q 3425 2491 3425 1978 
L 3425 0 
L 2847 0 
L 2847 2094 
Q 2847 2600 2669 2842 
Q 2491 3084 2119 3084 
Q 1678 3084 1418 2786 
Q 1159 2488 1159 1978 
L 1159 0 
L 581 0 
L 581 3500 
L 1159 3500 
L 1159 2956 
Q 1356 3278 1631 3431 
Q 1906 3584 2284 3584 
Q 2666 3584 2933 3390 
Q 3200 3197 3328 2828 
z
" transform="scale(0.015625)"/>
      <path id="DejaVuSans-61" d="M 2194 1759 
Q 1497 1759 1228 1600 
Q 959 1441 959 1056 
Q 959 750 1161 570 
Q 1363 391 1709 391 
Q 2188 391 2477 730 
Q 2766 1069 2766 1631 
L 2766 1759 
L 2194 1759 
z
M 3341 1997 
L 3341 0 
L 2766 0 
L 2766 531 
Q 2569 213 2275 61 
Q 1981 -91 1556 -91 
Q 1019 -91 701 211 
Q 384 513 384 1019 
Q 384 1609 779 1909 
Q 1175 2209 1959 2209 
L 2766 2209 
L 2766 2266 
Q 2766 2663 2505 2880 
Q 2244 3097 1772 3097 
Q 1472 3097 1187 3025 
Q 903 2953 641 2809 
L 641 3341 
Q 956 3463 1253 3523 
Q 1550 3584 1831 3584 
Q 2591 3584 2966 3190 
Q 3341 2797 3341 1997 
z
" transform="scale(0.015625)"/>
      <path id="DejaVuSans-6c" d="M 603 4863 
L 1178 4863 
L 1178 0 
L 603 0 
L 603 4863 
z
" transform="scale(0.015625)"/>
      <path id="DejaVuSans-20" transform="scale(0.015625)"/>
      <path id="DejaVuSans-76" d="M 191 3500 
L 800 3500 
L 1894 563 
L 2988 3500 
L 3597 3500 
L 2284 0 
L 1503 0 
L 191 3500 
z
" transform="scale(0.015625)"/>
      <path id="DejaVuSans-73" d="M 2834 3397 
L 2834 2853 
Q 2591 2978 2328 3040 
Q 2066 3103 1784 3103 
Q 1356 3103 1142 2972 
Q 928 2841 928 2578 
Q 928 2378 1081 2264 
Q 1234 2150 1697 2047 
L 1894 2003 
Q 2506 1872 2764 1633 
Q 3022 1394 3022 966 
Q 3022 478 2636 193 
Q 2250 -91 1575 -91 
Q 1294 -91 989 -36 
Q 684 19 347 128 
L 347 722 
Q 666 556 975 473 
Q 1284 391 1588 391 
Q 1994 391 2212 530 
Q 2431 669 2431 922 
Q 2431 1156 2273 1281 
Q 2116 1406 1581 1522 
L 1381 1569 
Q 847 1681 609 1914 
Q 372 2147 372 2553 
Q 372 3047 722 3315 
Q 1072 3584 1716 3584 
Q 2034 3584 2315 3537 
Q 2597 3491 2834 3397 
z
" transform="scale(0.015625)"/>
     </defs>
     <use xlink:href="#DejaVuSans-4f" transform="translate(0 0.234375)"/>
     <use xlink:href="#DejaVuSans-70" transform="translate(78.710938 0.234375)"/>
     <use xlink:href="#DejaVuSans-74" transform="translate(142.1875 0.234375)"/>
     <use xlink:href="#DejaVuSans-69" transform="translate(181.396484 0.234375)"/>
     <use xlink:href="#DejaVuSans-6d" transform="translate(209.179688 0.234375)"/>
     <use xlink:href="#DejaVuSans-61" transform="translate(306.591797 0.234375)"/>
     <use xlink:href="#DejaVuSans-6c" transform="translate(367.871094 0.234375)"/>
     <use xlink:href="#DejaVuSans-20" transform="translate(395.654297 0.234375)"/>
     <use xlink:href="#DejaVuSans-Oblique-3b1" transform="translate(427.441406 0.234375)"/>
     <use xlink:href="#DejaVuSans-Oblique-78" transform="translate(493.359375 -16.171875) scale(0.7)"/>
     <use xlink:href="#DejaVuSans-Oblique-78" transform="translate(534.785156 -16.171875) scale(0.7)"/>
     <use xlink:href="#DejaVuSans-20" transform="translate(578.945312 0.234375)"/>
     <use xlink:href="#DejaVuSans-76" transform="translate(610.732422 0.234375)"/>
     <use xlink:href="#DejaVuSans-73" transform="translate(669.912109 0.234375)"/>
     <use xlink:href="#DejaVuSans-20" transform="translate(722.011719 0.234375)"/>
     <use xlink:href="#DejaVuSans-Oblique-3b8" transform="translate(753.798828 0.234375)"/>
    </g>
   </g>
  </g>
  <g id="axes_2">
   <g id="patch_7">
    <path d="M 411.643844 301.74 
L 697.717844 301.74 
L 697.717844 22.44 
L 411.643844 22.44 
z
" style="fill: #ffffff"/>
   </g>
   <g id="matplotlib.axis_3">
    <g id="xtick_7">
     <g id="line2d_13">
      <path d="M 419.339712 301.74 
L 419.339712 22.44 
" clip-path="url(#p77492950d8)" style="fill: none; stroke: #cccccc; stroke-linecap: round"/>
     </g>
     <g id="text_15">
      <!-- 0 -->
      <g style="fill: #262626" transform="translate(415.840337 319.598281) scale(0.11 -0.11)">
       <use xlink:href="#DejaVuSans-30"/>
      </g>
     </g>
    </g>
    <g id="xtick_8">
     <g id="line2d_14">
      <path d="M 472.414666 301.74 
L 472.414666 22.44 
" clip-path="url(#p77492950d8)" style="fill: none; stroke: #cccccc; stroke-linecap: round"/>
     </g>
     <g id="text_16">
      <!-- 1 -->
      <g style="fill: #262626" transform="translate(468.915291 319.598281) scale(0.11 -0.11)">
       <use xlink:href="#DejaVuSans-31"/>
      </g>
     </g>
    </g>
    <g id="xtick_9">
     <g id="line2d_15">
      <path d="M 525.489619 301.74 
L 525.489619 22.44 
" clip-path="url(#p77492950d8)" style="fill: none; stroke: #cccccc; stroke-linecap: round"/>
     </g>
     <g id="text_17">
      <!-- 2 -->
      <g style="fill: #262626" transform="translate(521.990244 319.598281) scale(0.11 -0.11)">
       <use xlink:href="#DejaVuSans-32"/>
      </g>
     </g>
    </g>
    <g id="xtick_10">
     <g id="line2d_16">
      <path d="M 578.564573 301.74 
L 578.564573 22.44 
" clip-path="url(#p77492950d8)" style="fill: none; stroke: #cccccc; stroke-linecap: round"/>
     </g>
     <g id="text_18">
      <!-- 3 -->
      <g style="fill: #262626" transform="translate(575.065198 319.598281) scale(0.11 -0.11)">
       <use xlink:href="#DejaVuSans-33"/>
      </g>
     </g>
    </g>
    <g id="xtick_11">
     <g id="line2d_17">
      <path d="M 631.639526 301.74 
L 631.639526 22.44 
" clip-path="url(#p77492950d8)" style="fill: none; stroke: #cccccc; stroke-linecap: round"/>
     </g>
     <g id="text_19">
      <!-- 4 -->
      <g style="fill: #262626" transform="translate(628.140151 319.598281) scale(0.11 -0.11)">
       <use xlink:href="#DejaVuSans-34"/>
      </g>
     </g>
    </g>
    <g id="xtick_12">
     <g id="line2d_18">
      <path d="M 684.71448 301.74 
L 684.71448 22.44 
" clip-path="url(#p77492950d8)" style="fill: none; stroke: #cccccc; stroke-linecap: round"/>
     </g>
     <g id="text_20">
      <!-- 5 -->
      <g style="fill: #262626" transform="translate(681.215105 319.598281) scale(0.11 -0.11)">
       <use xlink:href="#DejaVuSans-35"/>
      </g>
     </g>
    </g>
    <g id="text_21">
     <!-- $\theta$ -->
     <g style="fill: #262626" transform="translate(550.960844 335.004062) scale(0.12 -0.12)">
      <use xlink:href="#DejaVuSans-Oblique-3b8" transform="translate(0 0.234375)"/>
     </g>
    </g>
   </g>
   <g id="matplotlib.axis_4">
    <g id="ytick_6">
     <g id="line2d_19">
      <path d="M 411.643844 289.044545 
L 697.717844 289.044545 
" clip-path="url(#p77492950d8)" style="fill: none; stroke: #cccccc; stroke-linecap: round"/>
     </g>
     <g id="text_22">
      <!-- 0.0 -->
      <g style="fill: #262626" transform="translate(384.650406 293.223686) scale(0.11 -0.11)">
       <use xlink:href="#DejaVuSans-30"/>
       <use xlink:href="#DejaVuSans-2e" transform="translate(63.623047 0)"/>
       <use xlink:href="#DejaVuSans-30" transform="translate(95.410156 0)"/>
      </g>
     </g>
    </g>
    <g id="ytick_7">
     <g id="line2d_20">
      <path d="M 411.643844 238.262727 
L 697.717844 238.262727 
" clip-path="url(#p77492950d8)" style="fill: none; stroke: #cccccc; stroke-linecap: round"/>
     </g>
     <g id="text_23">
      <!-- 0.2 -->
      <g style="fill: #262626" transform="translate(384.650406 242.441868) scale(0.11 -0.11)">
       <use xlink:href="#DejaVuSans-30"/>
       <use xlink:href="#DejaVuSans-2e" transform="translate(63.623047 0)"/>
       <use xlink:href="#DejaVuSans-32" transform="translate(95.410156 0)"/>
      </g>
     </g>
    </g>
    <g id="ytick_8">
     <g id="line2d_21">
      <path d="M 411.643844 187.480909 
L 697.717844 187.480909 
" clip-path="url(#p77492950d8)" style="fill: none; stroke: #cccccc; stroke-linecap: round"/>
     </g>
     <g id="text_24">
      <!-- 0.4 -->
      <g style="fill: #262626" transform="translate(384.650406 191.66005) scale(0.11 -0.11)">
       <use xlink:href="#DejaVuSans-30"/>
       <use xlink:href="#DejaVuSans-2e" transform="translate(63.623047 0)"/>
       <use xlink:href="#DejaVuSans-34" transform="translate(95.410156 0)"/>
      </g>
     </g>
    </g>
    <g id="ytick_9">
     <g id="line2d_22">
      <path d="M 411.643844 136.699091 
L 697.717844 136.699091 
" clip-path="url(#p77492950d8)" style="fill: none; stroke: #cccccc; stroke-linecap: round"/>
     </g>
     <g id="text_25">
      <!-- 0.6 -->
      <g style="fill: #262626" transform="translate(384.650406 140.878232) scale(0.11 -0.11)">
       <defs>
        <path id="DejaVuSans-36" d="M 2113 2584 
Q 1688 2584 1439 2293 
Q 1191 2003 1191 1497 
Q 1191 994 1439 701 
Q 1688 409 2113 409 
Q 2538 409 2786 701 
Q 3034 994 3034 1497 
Q 3034 2003 2786 2293 
Q 2538 2584 2113 2584 
z
M 3366 4563 
L 3366 3988 
Q 3128 4100 2886 4159 
Q 2644 4219 2406 4219 
Q 1781 4219 1451 3797 
Q 1122 3375 1075 2522 
Q 1259 2794 1537 2939 
Q 1816 3084 2150 3084 
Q 2853 3084 3261 2657 
Q 3669 2231 3669 1497 
Q 3669 778 3244 343 
Q 2819 -91 2113 -91 
Q 1303 -91 875 529 
Q 447 1150 447 2328 
Q 447 3434 972 4092 
Q 1497 4750 2381 4750 
Q 2619 4750 2861 4703 
Q 3103 4656 3366 4563 
z
" transform="scale(0.015625)"/>
       </defs>
       <use xlink:href="#DejaVuSans-30"/>
       <use xlink:href="#DejaVuSans-2e" transform="translate(63.623047 0)"/>
       <use xlink:href="#DejaVuSans-36" transform="translate(95.410156 0)"/>
      </g>
     </g>
    </g>
    <g id="ytick_10">
     <g id="line2d_23">
      <path d="M 411.643844 85.917273 
L 697.717844 85.917273 
" clip-path="url(#p77492950d8)" style="fill: none; stroke: #cccccc; stroke-linecap: round"/>
     </g>
     <g id="text_26">
      <!-- 0.8 -->
      <g style="fill: #262626" transform="translate(384.650406 90.096413) scale(0.11 -0.11)">
       <defs>
        <path id="DejaVuSans-38" d="M 2034 2216 
Q 1584 2216 1326 1975 
Q 1069 1734 1069 1313 
Q 1069 891 1326 650 
Q 1584 409 2034 409 
Q 2484 409 2743 651 
Q 3003 894 3003 1313 
Q 3003 1734 2745 1975 
Q 2488 2216 2034 2216 
z
M 1403 2484 
Q 997 2584 770 2862 
Q 544 3141 544 3541 
Q 544 4100 942 4425 
Q 1341 4750 2034 4750 
Q 2731 4750 3128 4425 
Q 3525 4100 3525 3541 
Q 3525 3141 3298 2862 
Q 3072 2584 2669 2484 
Q 3125 2378 3379 2068 
Q 3634 1759 3634 1313 
Q 3634 634 3220 271 
Q 2806 -91 2034 -91 
Q 1263 -91 848 271 
Q 434 634 434 1313 
Q 434 1759 690 2068 
Q 947 2378 1403 2484 
z
M 1172 3481 
Q 1172 3119 1398 2916 
Q 1625 2713 2034 2713 
Q 2441 2713 2670 2916 
Q 2900 3119 2900 3481 
Q 2900 3844 2670 4047 
Q 2441 4250 2034 4250 
Q 1625 4250 1398 4047 
Q 1172 3844 1172 3481 
z
" transform="scale(0.015625)"/>
       </defs>
       <use xlink:href="#DejaVuSans-30"/>
       <use xlink:href="#DejaVuSans-2e" transform="translate(63.623047 0)"/>
       <use xlink:href="#DejaVuSans-38" transform="translate(95.410156 0)"/>
      </g>
     </g>
    </g>
    <g id="ytick_11">
     <g id="line2d_24">
      <path d="M 411.643844 35.135455 
L 697.717844 35.135455 
" clip-path="url(#p77492950d8)" style="fill: none; stroke: #cccccc; stroke-linecap: round"/>
     </g>
     <g id="text_27">
      <!-- 1.0 -->
      <g style="fill: #262626" transform="translate(384.650406 39.314595) scale(0.11 -0.11)">
       <use xlink:href="#DejaVuSans-31"/>
       <use xlink:href="#DejaVuSans-2e" transform="translate(63.623047 0)"/>
       <use xlink:href="#DejaVuSans-30" transform="translate(95.410156 0)"/>
      </g>
     </g>
    </g>
    <g id="text_28">
     <!-- Fraction below SQL -->
     <g style="fill: #262626" transform="translate(378.154781 219.47625) rotate(-90) scale(0.12 -0.12)">
      <defs>
       <path id="DejaVuSans-46" d="M 628 4666 
L 3309 4666 
L 3309 4134 
L 1259 4134 
L 1259 2759 
L 3109 2759 
L 3109 2228 
L 1259 2228 
L 1259 0 
L 628 0 
L 628 4666 
z
" transform="scale(0.015625)"/>
       <path id="DejaVuSans-72" d="M 2631 2963 
Q 2534 3019 2420 3045 
Q 2306 3072 2169 3072 
Q 1681 3072 1420 2755 
Q 1159 2438 1159 1844 
L 1159 0 
L 581 0 
L 581 3500 
L 1159 3500 
L 1159 2956 
Q 1341 3275 1631 3429 
Q 1922 3584 2338 3584 
Q 2397 3584 2469 3576 
Q 2541 3569 2628 3553 
L 2631 2963 
z
" transform="scale(0.015625)"/>
       <path id="DejaVuSans-63" d="M 3122 3366 
L 3122 2828 
Q 2878 2963 2633 3030 
Q 2388 3097 2138 3097 
Q 1578 3097 1268 2742 
Q 959 2388 959 1747 
Q 959 1106 1268 751 
Q 1578 397 2138 397 
Q 2388 397 2633 464 
Q 2878 531 3122 666 
L 3122 134 
Q 2881 22 2623 -34 
Q 2366 -91 2075 -91 
Q 1284 -91 818 406 
Q 353 903 353 1747 
Q 353 2603 823 3093 
Q 1294 3584 2113 3584 
Q 2378 3584 2631 3529 
Q 2884 3475 3122 3366 
z
" transform="scale(0.015625)"/>
       <path id="DejaVuSans-6f" d="M 1959 3097 
Q 1497 3097 1228 2736 
Q 959 2375 959 1747 
Q 959 1119 1226 758 
Q 1494 397 1959 397 
Q 2419 397 2687 759 
Q 2956 1122 2956 1747 
Q 2956 2369 2687 2733 
Q 2419 3097 1959 3097 
z
M 1959 3584 
Q 2709 3584 3137 3096 
Q 3566 2609 3566 1747 
Q 3566 888 3137 398 
Q 2709 -91 1959 -91 
Q 1206 -91 779 398 
Q 353 888 353 1747 
Q 353 2609 779 3096 
Q 1206 3584 1959 3584 
z
" transform="scale(0.015625)"/>
       <path id="DejaVuSans-6e" d="M 3513 2113 
L 3513 0 
L 2938 0 
L 2938 2094 
Q 2938 2591 2744 2837 
Q 2550 3084 2163 3084 
Q 1697 3084 1428 2787 
Q 1159 2491 1159 1978 
L 1159 0 
L 581 0 
L 581 3500 
L 1159 3500 
L 1159 2956 
Q 1366 3272 1645 3428 
Q 1925 3584 2291 3584 
Q 2894 3584 3203 3211 
Q 3513 2838 3513 2113 
z
" transform="scale(0.015625)"/>
       <path id="DejaVuSans-62" d="M 3116 1747 
Q 3116 2381 2855 2742 
Q 2594 3103 2138 3103 
Q 1681 3103 1420 2742 
Q 1159 2381 1159 1747 
Q 1159 1113 1420 752 
Q 1681 391 2138 391 
Q 2594 391 2855 752 
Q 3116 1113 3116 1747 
z
M 1159 2969 
Q 1341 3281 1617 3432 
Q 1894 3584 2278 3584 
Q 2916 3584 3314 3078 
Q 3713 2572 3713 1747 
Q 3713 922 3314 415 
Q 2916 -91 2278 -91 
Q 1894 -91 1617 61 
Q 1341 213 1159 525 
L 1159 0 
L 581 0 
L 581 4863 
L 1159 4863 
L 1159 2969 
z
" transform="scale(0.015625)"/>
       <path id="DejaVuSans-65" d="M 3597 1894 
L 3597 1613 
L 953 1613 
Q 991 1019 1311 708 
Q 1631 397 2203 397 
Q 2534 397 2845 478 
Q 3156 559 3463 722 
L 3463 178 
Q 3153 47 2828 -22 
Q 2503 -91 2169 -91 
Q 1331 -91 842 396 
Q 353 884 353 1716 
Q 353 2575 817 3079 
Q 1281 3584 2069 3584 
Q 2775 3584 3186 3129 
Q 3597 2675 3597 1894 
z
M 3022 2063 
Q 3016 2534 2758 2815 
Q 2500 3097 2075 3097 
Q 1594 3097 1305 2825 
Q 1016 2553 972 2059 
L 3022 2063 
z
" transform="scale(0.015625)"/>
       <path id="DejaVuSans-77" d="M 269 3500 
L 844 3500 
L 1563 769 
L 2278 3500 
L 2956 3500 
L 3675 769 
L 4391 3500 
L 4966 3500 
L 4050 0 
L 3372 0 
L 2619 2869 
L 1863 0 
L 1184 0 
L 269 3500 
z
" transform="scale(0.015625)"/>
       <path id="DejaVuSans-53" d="M 3425 4513 
L 3425 3897 
Q 3066 4069 2747 4153 
Q 2428 4238 2131 4238 
Q 1616 4238 1336 4038 
Q 1056 3838 1056 3469 
Q 1056 3159 1242 3001 
Q 1428 2844 1947 2747 
L 2328 2669 
Q 3034 2534 3370 2195 
Q 3706 1856 3706 1288 
Q 3706 609 3251 259 
Q 2797 -91 1919 -91 
Q 1588 -91 1214 -16 
Q 841 59 441 206 
L 441 856 
Q 825 641 1194 531 
Q 1563 422 1919 422 
Q 2459 422 2753 634 
Q 3047 847 3047 1241 
Q 3047 1584 2836 1778 
Q 2625 1972 2144 2069 
L 1759 2144 
Q 1053 2284 737 2584 
Q 422 2884 422 3419 
Q 422 4038 858 4394 
Q 1294 4750 2059 4750 
Q 2388 4750 2728 4690 
Q 3069 4631 3425 4513 
z
" transform="scale(0.015625)"/>
       <path id="DejaVuSans-51" d="M 2522 4238 
Q 1834 4238 1429 3725 
Q 1025 3213 1025 2328 
Q 1025 1447 1429 934 
Q 1834 422 2522 422 
Q 3209 422 3611 934 
Q 4013 1447 4013 2328 
Q 4013 3213 3611 3725 
Q 3209 4238 2522 4238 
z
M 3406 84 
L 4238 -825 
L 3475 -825 
L 2784 -78 
Q 2681 -84 2626 -87 
Q 2572 -91 2522 -91 
Q 1538 -91 948 567 
Q 359 1225 359 2328 
Q 359 3434 948 4092 
Q 1538 4750 2522 4750 
Q 3503 4750 4090 4092 
Q 4678 3434 4678 2328 
Q 4678 1516 4351 937 
Q 4025 359 3406 84 
z
" transform="scale(0.015625)"/>
       <path id="DejaVuSans-4c" d="M 628 4666 
L 1259 4666 
L 1259 531 
L 3531 531 
L 3531 0 
L 628 0 
L 628 4666 
z
" transform="scale(0.015625)"/>
      </defs>
      <use xlink:href="#DejaVuSans-46"/>
      <use xlink:href="#DejaVuSans-72" transform="translate(50.269531 0)"/>
      <use xlink:href="#DejaVuSans-61" transform="translate(91.382812 0)"/>
      <use xlink:href="#DejaVuSans-63" transform="translate(152.662109 0)"/>
      <use xlink:href="#DejaVuSans-74" transform="translate(207.642578 0)"/>
      <use xlink:href="#DejaVuSans-69" transform="translate(246.851562 0)"/>
      <use xlink:href="#DejaVuSans-6f" transform="translate(274.634766 0)"/>
      <use xlink:href="#DejaVuSans-6e" transform="translate(335.816406 0)"/>
      <use xlink:href="#DejaVuSans-20" transform="translate(399.195312 0)"/>
      <use xlink:href="#DejaVuSans-62" transform="translate(430.982422 0)"/>
      <use xlink:href="#DejaVuSans-65" transform="translate(494.458984 0)"/>
      <use xlink:href="#DejaVuSans-6c" transform="translate(555.982422 0)"/>
      <use xlink:href="#DejaVuSans-6f" transform="translate(583.765625 0)"/>
      <use xlink:href="#DejaVuSans-77" transform="translate(644.947266 0)"/>
      <use xlink:href="#DejaVuSans-20" transform="translate(726.734375 0)"/>
      <use xlink:href="#DejaVuSans-53" transform="translate(758.521484 0)"/>
      <use xlink:href="#DejaVuSans-51" transform="translate(821.998047 0)"/>
      <use xlink:href="#DejaVuSans-4c" transform="translate(900.708984 0)"/>
     </g>
    </g>
   </g>
   <g id="line2d_25">
    <path d="M 424.647207 289.044545 
L 429.954703 289.044545 
L 435.262198 289.044545 
L 440.569693 289.044545 
L 445.877189 289.044545 
L 451.184684 289.044545 
L 456.49218 289.044545 
L 461.799675 288.917654 
L 467.10717 289.044545 
L 472.414666 289.044545 
L 477.722161 289.044545 
L 483.029656 289.044545 
L 488.337152 289.044545 
L 493.644647 289.044545 
L 498.952142 289.044545 
L 504.259638 289.044545 
L 509.567133 289.044545 
L 514.874629 289.044545 
L 520.182124 289.044545 
L 525.489619 288.917654 
L 530.797115 288.917654 
L 536.10461 288.917654 
L 541.412105 288.917654 
L 546.719601 288.917654 
L 552.027096 288.917654 
L 557.334591 288.917654 
L 562.642087 288.917654 
L 567.949582 288.917654 
L 573.257078 288.917654 
L 578.564573 288.917654 
L 583.872068 288.917654 
L 589.179564 288.917654 
L 594.487059 288.917654 
L 599.794554 288.917654 
L 605.10205 288.917654 
L 610.409545 288.917654 
L 615.71704 288.917654 
L 621.024536 288.917654 
L 626.332031 288.917654 
L 631.639526 288.917654 
L 636.947022 288.917654 
L 642.254517 288.917654 
L 647.562013 288.917654 
L 652.869508 289.044545 
L 658.177003 288.917654 
L 663.484499 289.044545 
L 668.791994 288.917654 
L 674.099489 288.917654 
L 679.406985 289.044545 
L 684.71448 288.917654 
" clip-path="url(#p77492950d8)" style="fill: none; stroke: #55a868; stroke-width: 1.5; stroke-linecap: round"/>
    <defs>
     <path id="mc0bdc836e0" d="M 0 3 
C 0.795609 3 1.55874 2.683901 2.12132 2.12132 
C 2.683901 1.55874 3 0.795609 3 0 
C 3 -0.795609 2.683901 -1.55874 2.12132 -2.12132 
C 1.55874 -2.683901 0.795609 -3 0 -3 
C -0.795609 -3 -1.55874 -2.683901 -2.12132 -2.12132 
C -2.683901 -1.55874 -3 -0.795609 -3 0 
C -3 0.795609 -2.683901 1.55874 -2.12132 2.12132 
C -1.55874 2.683901 -0.795609 3 0 3 
z
" style="stroke: #55a868"/>
    </defs>
    <g clip-path="url(#p77492950d8)">
     <use xlink:href="#mc0bdc836e0" x="424.647207" y="289.044545" style="fill: #55a868; stroke: #55a868"/>
     <use xlink:href="#mc0bdc836e0" x="429.954703" y="289.044545" style="fill: #55a868; stroke: #55a868"/>
     <use xlink:href="#mc0bdc836e0" x="435.262198" y="289.044545" style="fill: #55a868; stroke: #55a868"/>
     <use xlink:href="#mc0bdc836e0" x="440.569693" y="289.044545" style="fill: #55a868; stroke: #55a868"/>
     <use xlink:href="#mc0bdc836e0" x="445.877189" y="289.044545" style="fill: #55a868; stroke: #55a868"/>
     <use xlink:href="#mc0bdc836e0" x="451.184684" y="289.044545" style="fill: #55a868; stroke: #55a868"/>
     <use xlink:href="#mc0bdc836e0" x="456.49218" y="289.044545" style="fill: #55a868; stroke: #55a868"/>
     <use xlink:href="#mc0bdc836e0" x="461.799675" y="288.917654" style="fill: #55a868; stroke: #55a868"/>
     <use xlink:href="#mc0bdc836e0" x="467.10717" y="289.044545" style="fill: #55a868; stroke: #55a868"/>
     <use xlink:href="#mc0bdc836e0" x="472.414666" y="289.044545" style="fill: #55a868; stroke: #55a868"/>
     <use xlink:href="#mc0bdc836e0" x="477.722161" y="289.044545" style="fill: #55a868; stroke: #55a868"/>
     <use xlink:href="#mc0bdc836e0" x="483.029656" y="289.044545" style="fill: #55a868; stroke: #55a868"/>
     <use xlink:href="#mc0bdc836e0" x="488.337152" y="289.044545" style="fill: #55a868; stroke: #55a868"/>
     <use xlink:href="#mc0bdc836e0" x="493.644647" y="289.044545" style="fill: #55a868; stroke: #55a868"/>
     <use xlink:href="#mc0bdc836e0" x="498.952142" y="289.044545" style="fill: #55a868; stroke: #55a868"/>
     <use xlink:href="#mc0bdc836e0" x="504.259638" y="289.044545" style="fill: #55a868; stroke: #55a868"/>
     <use xlink:href="#mc0bdc836e0" x="509.567133" y="289.044545" style="fill: #55a868; stroke: #55a868"/>
     <use xlink:href="#mc0bdc836e0" x="514.874629" y="289.044545" style="fill: #55a868; stroke: #55a868"/>
     <use xlink:href="#mc0bdc836e0" x="520.182124" y="289.044545" style="fill: #55a868; stroke: #55a868"/>
     <use xlink:href="#mc0bdc836e0" x="525.489619" y="288.917654" style="fill: #55a868; stroke: #55a868"/>
     <use xlink:href="#mc0bdc836e0" x="530.797115" y="288.917654" style="fill: #55a868; stroke: #55a868"/>
     <use xlink:href="#mc0bdc836e0" x="536.10461" y="288.917654" style="fill: #55a868; stroke: #55a868"/>
     <use xlink:href="#mc0bdc836e0" x="541.412105" y="288.917654" style="fill: #55a868; stroke: #55a868"/>
     <use xlink:href="#mc0bdc836e0" x="546.719601" y="288.917654" style="fill: #55a868; stroke: #55a868"/>
     <use xlink:href="#mc0bdc836e0" x="552.027096" y="288.917654" style="fill: #55a868; stroke: #55a868"/>
     <use xlink:href="#mc0bdc836e0" x="557.334591" y="288.917654" style="fill: #55a868; stroke: #55a868"/>
     <use xlink:href="#mc0bdc836e0" x="562.642087" y="288.917654" style="fill: #55a868; stroke: #55a868"/>
     <use xlink:href="#mc0bdc836e0" x="567.949582" y="288.917654" style="fill: #55a868; stroke: #55a868"/>
     <use xlink:href="#mc0bdc836e0" x="573.257078" y="288.917654" style="fill: #55a868; stroke: #55a868"/>
     <use xlink:href="#mc0bdc836e0" x="578.564573" y="288.917654" style="fill: #55a868; stroke: #55a868"/>
     <use xlink:href="#mc0bdc836e0" x="583.872068" y="288.917654" style="fill: #55a868; stroke: #55a868"/>
     <use xlink:href="#mc0bdc836e0" x="589.179564" y="288.917654" style="fill: #55a868; stroke: #55a868"/>
     <use xlink:href="#mc0bdc836e0" x="594.487059" y="288.917654" style="fill: #55a868; stroke: #55a868"/>
     <use xlink:href="#mc0bdc836e0" x="599.794554" y="288.917654" style="fill: #55a868; stroke: #55a868"/>
     <use xlink:href="#mc0bdc836e0" x="605.10205" y="288.917654" style="fill: #55a868; stroke: #55a868"/>
     <use xlink:href="#mc0bdc836e0" x="610.409545" y="288.917654" style="fill: #55a868; stroke: #55a868"/>
     <use xlink:href="#mc0bdc836e0" x="615.71704" y="288.917654" style="fill: #55a868; stroke: #55a868"/>
     <use xlink:href="#mc0bdc836e0" x="621.024536" y="288.917654" style="fill: #55a868; stroke: #55a868"/>
     <use xlink:href="#mc0bdc836e0" x="626.332031" y="288.917654" style="fill: #55a868; stroke: #55a868"/>
     <use xlink:href="#mc0bdc836e0" x="631.639526" y="288.917654" style="fill: #55a868; stroke: #55a868"/>
     <use xlink:href="#mc0bdc836e0" x="636.947022" y="288.917654" style="fill: #55a868; stroke: #55a868"/>
     <use xlink:href="#mc0bdc836e0" x="642.254517" y="288.917654" style="fill: #55a868; stroke: #55a868"/>
     <use xlink:href="#mc0bdc836e0" x="647.562013" y="288.917654" style="fill: #55a868; stroke: #55a868"/>
     <use xlink:href="#mc0bdc836e0" x="652.869508" y="289.044545" style="fill: #55a868; stroke: #55a868"/>
     <use xlink:href="#mc0bdc836e0" x="658.177003" y="288.917654" style="fill: #55a868; stroke: #55a868"/>
     <use xlink:href="#mc0bdc836e0" x="663.484499" y="289.044545" style="fill: #55a868; stroke: #55a868"/>
     <use xlink:href="#mc0bdc836e0" x="668.791994" y="288.917654" style="fill: #55a868; stroke: #55a868"/>
     <use xlink:href="#mc0bdc836e0" x="674.099489" y="288.917654" style="fill: #55a868; stroke: #55a868"/>
     <use xlink:href="#mc0bdc836e0" x="679.406985" y="289.044545" style="fill: #55a868; stroke: #55a868"/>
     <use xlink:href="#mc0bdc836e0" x="684.71448" y="288.917654" style="fill: #55a868; stroke: #55a868"/>
    </g>
   </g>
   <g id="line2d_26">
    <path d="M 411.643844 289.044545 
L 697.717844 289.044545 
" clip-path="url(#p77492950d8)" style="fill: none; stroke-dasharray: 3.7,1.6; stroke-dashoffset: 0; stroke: #808080; stroke-opacity: 0.5"/>
   </g>
   <g id="patch_8">
    <path d="M 411.643844 301.74 
L 411.643844 22.44 
" style="fill: none; stroke: #cccccc; stroke-width: 1.25; stroke-linejoin: miter; stroke-linecap: square"/>
   </g>
   <g id="patch_9">
    <path d="M 697.717844 301.74 
L 697.717844 22.44 
" style="fill: none; stroke: #cccccc; stroke-width: 1.25; stroke-linejoin: miter; stroke-linecap: square"/>
   </g>
   <g id="patch_10">
    <path d="M 411.643844 301.74 
L 697.717844 301.74 
" style="fill: none; stroke: #cccccc; stroke-width: 1.25; stroke-linejoin: miter; stroke-linecap: square"/>
   </g>
   <g id="patch_11">
    <path d="M 411.643844 22.44 
L 697.717844 22.44 
" style="fill: none; stroke: #cccccc; stroke-width: 1.25; stroke-linejoin: miter; stroke-linecap: square"/>
   </g>
   <g id="text_29">
    <!-- Fraction of $\alpha_{xx}$ grid below SQL -->
    <g style="fill: #262626" transform="translate(464.500844 16.44) scale(0.12 -0.12)">
     <defs>
      <path id="DejaVuSans-66" d="M 2375 4863 
L 2375 4384 
L 1825 4384 
Q 1516 4384 1395 4259 
Q 1275 4134 1275 3809 
L 1275 3500 
L 2222 3500 
L 2222 3053 
L 1275 3053 
L 1275 0 
L 697 0 
L 697 3053 
L 147 3053 
L 147 3500 
L 697 3500 
L 697 3744 
Q 697 4328 969 4595 
Q 1241 4863 1831 4863 
L 2375 4863 
z
" transform="scale(0.015625)"/>
      <path id="DejaVuSans-67" d="M 2906 1791 
Q 2906 2416 2648 2759 
Q 2391 3103 1925 3103 
Q 1463 3103 1205 2759 
Q 947 2416 947 1791 
Q 947 1169 1205 825 
Q 1463 481 1925 481 
Q 2391 481 2648 825 
Q 2906 1169 2906 1791 
z
M 3481 434 
Q 3481 -459 3084 -895 
Q 2688 -1331 1869 -1331 
Q 1566 -1331 1297 -1286 
Q 1028 -1241 775 -1147 
L 775 -588 
Q 1028 -725 1275 -790 
Q 1522 -856 1778 -856 
Q 2344 -856 2625 -561 
Q 2906 -266 2906 331 
L 2906 616 
Q 2728 306 2450 153 
Q 2172 0 1784 0 
Q 1141 0 747 490 
Q 353 981 353 1791 
Q 353 2603 747 3093 
Q 1141 3584 1784 3584 
Q 2172 3584 2450 3431 
Q 2728 3278 2906 2969 
L 2906 3500 
L 3481 3500 
L 3481 434 
z
" transform="scale(0.015625)"/>
      <path id="DejaVuSans-64" d="M 2906 2969 
L 2906 4863 
L 3481 4863 
L 3481 0 
L 2906 0 
L 2906 525 
Q 2725 213 2448 61 
Q 2172 -91 1784 -91 
Q 1150 -91 751 415 
Q 353 922 353 1747 
Q 353 2572 751 3078 
Q 1150 3584 1784 3584 
Q 2172 3584 2448 3432 
Q 2725 3281 2906 2969 
z
M 947 1747 
Q 947 1113 1208 752 
Q 1469 391 1925 391 
Q 2381 391 2643 752 
Q 2906 1113 2906 1747 
Q 2906 2381 2643 2742 
Q 2381 3103 1925 3103 
Q 1469 3103 1208 2742 
Q 947 2381 947 1747 
z
" transform="scale(0.015625)"/>
     </defs>
     <use xlink:href="#DejaVuSans-46" transform="translate(0 0.015625)"/>
     <use xlink:href="#DejaVuSans-72" transform="translate(57.519531 0.015625)"/>
     <use xlink:href="#DejaVuSans-61" transform="translate(98.632812 0.015625)"/>
     <use xlink:href="#DejaVuSans-63" transform="translate(159.912109 0.015625)"/>
     <use xlink:href="#DejaVuSans-74" transform="translate(214.892578 0.015625)"/>
     <use xlink:href="#DejaVuSans-69" transform="translate(254.101562 0.015625)"/>
     <use xlink:href="#DejaVuSans-6f" transform="translate(281.884766 0.015625)"/>
     <use xlink:href="#DejaVuSans-6e" transform="translate(343.066406 0.015625)"/>
     <use xlink:href="#DejaVuSans-20" transform="translate(406.445312 0.015625)"/>
     <use xlink:href="#DejaVuSans-6f" transform="translate(438.232422 0.015625)"/>
     <use xlink:href="#DejaVuSans-66" transform="translate(499.414062 0.015625)"/>
     <use xlink:href="#DejaVuSans-20" transform="translate(534.619141 0.015625)"/>
     <use xlink:href="#DejaVuSans-Oblique-3b1" transform="translate(566.40625 0.015625)"/>
     <use xlink:href="#DejaVuSans-Oblique-78" transform="translate(632.324219 -16.390625) scale(0.7)"/>
     <use xlink:href="#DejaVuSans-Oblique-78" transform="translate(673.75 -16.390625) scale(0.7)"/>
     <use xlink:href="#DejaVuSans-20" transform="translate(717.910156 0.015625)"/>
     <use xlink:href="#DejaVuSans-67" transform="translate(749.697266 0.015625)"/>
     <use xlink:href="#DejaVuSans-72" transform="translate(813.173828 0.015625)"/>
     <use xlink:href="#DejaVuSans-69" transform="translate(854.287109 0.015625)"/>
     <use xlink:href="#DejaVuSans-64" transform="translate(882.070312 0.015625)"/>
     <use xlink:href="#DejaVuSans-20" transform="translate(945.546875 0.015625)"/>
     <use xlink:href="#DejaVuSans-62" transform="translate(977.333984 0.015625)"/>
     <use xlink:href="#DejaVuSans-65" transform="translate(1040.810547 0.015625)"/>
     <use xlink:href="#DejaVuSans-6c" transform="translate(1102.333984 0.015625)"/>
     <use xlink:href="#DejaVuSans-6f" transform="translate(1130.117188 0.015625)"/>
     <use xlink:href="#DejaVuSans-77" transform="translate(1191.298828 0.015625)"/>
     <use xlink:href="#DejaVuSans-20" transform="translate(1273.085938 0.015625)"/>
     <use xlink:href="#DejaVuSans-53" transform="translate(1304.873047 0.015625)"/>
     <use xlink:href="#DejaVuSans-51" transform="translate(1368.349609 0.015625)"/>
     <use xlink:href="#DejaVuSans-4c" transform="translate(1447.060547 0.015625)"/>
    </g>
   </g>
  </g>
 </g>
 <defs>
  <clipPath id="pdb17f447f8">
   <rect x="68.689844" y="22.44" width="286.074" height="279.3"/>
  </clipPath>
  <clipPath id="p77492950d8">
   <rect x="411.643844" y="22.44" width="286.074" height="279.3"/>
  </clipPath>
 </defs>
</svg>
