<?xml version="1.0" encoding="utf-8" standalone="no"?>
<!DOCTYPE svg PUBLIC "-//W3C//DTD SVG 1.1//EN"
  "http://www.w3.org/Graphics/SVG/1.1/DTD/svg11.dtd">
<svg xmlns:xlink="http://www.w3.org/1999/xlink" width="706.568594pt" height="416.579687pt" viewBox="0 0 706.568594 416.579687" xmlns="http://www.w3.org/2000/svg" version="1.1">
 <metadata>
  <rdf:RDF xmlns:dc="http://purl.org/dc/elements/1.1/" xmlns:cc="http://creativecommons.org/ns#" xmlns:rdf="http://www.w3.org/1999/02/22-rdf-syntax-ns#">
   <cc:Work>
    <dc:type rdf:resource="http://purl.org/dc/dcmitype/StillImage"/>
    <dc:date>2026-06-29T14:49:09.226309</dc:date>
    <dc:format>image/svg+xml</dc:format>
    <dc:creator>
     <cc:Agent>
      <dc:title>Matplotlib v3.10.9, https://matplotlib.org/</dc:title>
     </cc:Agent>
    </dc:creator>
   </cc:Work>
  </rdf:RDF>
 </metadata>
 <defs>
  <style type="text/css">*{stroke-linejoin: round; stroke-linecap: butt}</style>
 </defs>
 <g id="figure_1">
  <g id="patch_1">
   <path d="M 0 416.579687 
L 706.568594 416.579687 
L 706.568594 0 
L 0 0 
z
" style="fill: #ffffff"/>
  </g>
  <g id="axes_1">
   <g id="patch_2">
    <path d="M 61.46375 373.62 
L 699.368594 373.62 
L 699.368594 22.32 
L 61.46375 22.32 
z
" style="fill: #ffffff"/>
   </g>
   <g id="matplotlib.axis_1">
    <g id="xtick_1">
     <g id="line2d_1">
      <path d="M 90.459425 373.62 
L 90.459425 22.32 
" clip-path="url(#p87d5d9cd0d)" style="fill: none; stroke: #cccccc; stroke-opacity: 0.3; stroke-linecap: round"/>
     </g>
     <g id="text_1">
      <!-- 0.00000 -->
      <g style="fill: #262626" transform="translate(67.715206 391.478281) scale(0.11 -0.11)">
       <defs>
        <path id="DejaVuSans-30" d="M 2034 4250 
Q 1547 4250 1301 3770 
Q 1056 3291 1056 2328 
Q 1056 1369 1301 889 
Q 1547 409 2034 409 
Q 2525 409 2770 889 
Q 3016 1369 3016 2328 
Q 3016 3291 2770 3770 
Q 2525 4250 2034 4250 
z
M 2034 4750 
Q 2819 4750 3233 4129 
Q 3647 3509 3647 2328 
Q 3647 1150 3233 529 
Q 2819 -91 2034 -91 
Q 1250 -91 836 529 
Q 422 1150 422 2328 
Q 422 3509 836 4129 
Q 1250 4750 2034 4750 
z
" transform="scale(0.015625)"/>
        <path id="DejaVuSans-2e" d="M 684 794 
L 1344 794 
L 1344 0 
L 684 0 
L 684 794 
z
" transform="scale(0.015625)"/>
       </defs>
       <use xlink:href="#DejaVuSans-30"/>
       <use xlink:href="#DejaVuSans-2e" transform="translate(63.623047 0)"/>
       <use xlink:href="#DejaVuSans-30" transform="translate(95.410156 0)"/>
       <use xlink:href="#DejaVuSans-30" transform="translate(159.033203 0)"/>
       <use xlink:href="#DejaVuSans-30" transform="translate(222.65625 0)"/>
       <use xlink:href="#DejaVuSans-30" transform="translate(286.279297 0)"/>
       <use xlink:href="#DejaVuSans-30" transform="translate(349.902344 0)"/>
      </g>
     </g>
    </g>
    <g id="xtick_2">
     <g id="line2d_2">
      <path d="M 182.755524 373.62 
L 182.755524 22.32 
" clip-path="url(#p87d5d9cd0d)" style="fill: none; stroke: #cccccc; stroke-opacity: 0.3; stroke-linecap: round"/>
     </g>
     <g id="text_2">
      <!-- 0.00005 -->
      <g style="fill: #262626" transform="translate(160.011305 391.478281) scale(0.11 -0.11)">
       <defs>
        <path id="DejaVuSans-35" d="M 691 4666 
L 3169 4666 
L 3169 4134 
L 1269 4134 
L 1269 2991 
Q 1406 3038 1543 3061 
Q 1681 3084 1819 3084 
Q 2600 3084 3056 2656 
Q 3513 2228 3513 1497 
Q 3513 744 3044 326 
Q 2575 -91 1722 -91 
Q 1428 -91 1123 -41 
Q 819 9 494 109 
L 494 744 
Q 775 591 1075 516 
Q 1375 441 1709 441 
Q 2250 441 2565 725 
Q 2881 1009 2881 1497 
Q 2881 1984 2565 2268 
Q 2250 2553 1709 2553 
Q 1456 2553 1204 2497 
Q 953 2441 691 2322 
L 691 4666 
z
" transform="scale(0.015625)"/>
       </defs>
       <use xlink:href="#DejaVuSans-30"/>
       <use xlink:href="#DejaVuSans-2e" transform="translate(63.623047 0)"/>
       <use xlink:href="#DejaVuSans-30" transform="translate(95.410156 0)"/>
       <use xlink:href="#DejaVuSans-30" transform="translate(159.033203 0)"/>
       <use xlink:href="#DejaVuSans-30" transform="translate(222.65625 0)"/>
       <use xlink:href="#DejaVuSans-30" transform="translate(286.279297 0)"/>
       <use xlink:href="#DejaVuSans-35" transform="translate(349.902344 0)"/>
      </g>
     </g>
    </g>
    <g id="xtick_3">
     <g id="line2d_3">
      <path d="M 275.051623 373.62 
L 275.051623 22.32 
" clip-path="url(#p87d5d9cd0d)" style="fill: none; stroke: #cccccc; stroke-opacity: 0.3; stroke-linecap: round"/>
     </g>
     <g id="text_3">
      <!-- 0.00010 -->
      <g style="fill: #262626" transform="translate(252.307404 391.478281) scale(0.11 -0.11)">
       <defs>
        <path id="DejaVuSans-31" d="M 794 531 
L 1825 531 
L 1825 4091 
L 703 3866 
L 703 4441 
L 1819 4666 
L 2450 4666 
L 2450 531 
L 3481 531 
L 3481 0 
L 794 0 
L 794 531 
z
" transform="scale(0.015625)"/>
       </defs>
       <use xlink:href="#DejaVuSans-30"/>
       <use xlink:href="#DejaVuSans-2e" transform="translate(63.623047 0)"/>
       <use xlink:href="#DejaVuSans-30" transform="translate(95.410156 0)"/>
       <use xlink:href="#DejaVuSans-30" transform="translate(159.033203 0)"/>
       <use xlink:href="#DejaVuSans-30" transform="translate(222.65625 0)"/>
       <use xlink:href="#DejaVuSans-31" transform="translate(286.279297 0)"/>
       <use xlink:href="#DejaVuSans-30" transform="translate(349.902344 0)"/>
      </g>
     </g>
    </g>
    <g id="xtick_4">
     <g id="line2d_4">
      <path d="M 367.347722 373.62 
L 367.347722 22.32 
" clip-path="url(#p87d5d9cd0d)" style="fill: none; stroke: #cccccc; stroke-opacity: 0.3; stroke-linecap: round"/>
     </g>
     <g id="text_4">
      <!-- 0.00015 -->
      <g style="fill: #262626" transform="translate(344.603504 391.478281) scale(0.11 -0.11)">
       <use xlink:href="#DejaVuSans-30"/>
       <use xlink:href="#DejaVuSans-2e" transform="translate(63.623047 0)"/>
       <use xlink:href="#DejaVuSans-30" transform="translate(95.410156 0)"/>
       <use xlink:href="#DejaVuSans-30" transform="translate(159.033203 0)"/>
       <use xlink:href="#DejaVuSans-30" transform="translate(222.65625 0)"/>
       <use xlink:href="#DejaVuSans-31" transform="translate(286.279297 0)"/>
       <use xlink:href="#DejaVuSans-35" transform="translate(349.902344 0)"/>
      </g>
     </g>
    </g>
    <g id="xtick_5">
     <g id="line2d_5">
      <path d="M 459.643822 373.62 
L 459.643822 22.32 
" clip-path="url(#p87d5d9cd0d)" style="fill: none; stroke: #cccccc; stroke-opacity: 0.3; stroke-linecap: round"/>
     </g>
     <g id="text_5">
      <!-- 0.00020 -->
      <g style="fill: #262626" transform="translate(436.899603 391.478281) scale(0.11 -0.11)">
       <defs>
        <path id="DejaVuSans-32" d="M 1228 531 
L 3431 531 
L 3431 0 
L 469 0 
L 469 531 
Q 828 903 1448 1529 
Q 2069 2156 2228 2338 
Q 2531 2678 2651 2914 
Q 2772 3150 2772 3378 
Q 2772 3750 2511 3984 
Q 2250 4219 1831 4219 
Q 1534 4219 1204 4116 
Q 875 4013 500 3803 
L 500 4441 
Q 881 4594 1212 4672 
Q 1544 4750 1819 4750 
Q 2544 4750 2975 4387 
Q 3406 4025 3406 3419 
Q 3406 3131 3298 2873 
Q 3191 2616 2906 2266 
Q 2828 2175 2409 1742 
Q 1991 1309 1228 531 
z
" transform="scale(0.015625)"/>
       </defs>
       <use xlink:href="#DejaVuSans-30"/>
       <use xlink:href="#DejaVuSans-2e" transform="translate(63.623047 0)"/>
       <use xlink:href="#DejaVuSans-30" transform="translate(95.410156 0)"/>
       <use xlink:href="#DejaVuSans-30" transform="translate(159.033203 0)"/>
       <use xlink:href="#DejaVuSans-30" transform="translate(222.65625 0)"/>
       <use xlink:href="#DejaVuSans-32" transform="translate(286.279297 0)"/>
       <use xlink:href="#DejaVuSans-30" transform="translate(349.902344 0)"/>
      </g>
     </g>
    </g>
    <g id="xtick_6">
     <g id="line2d_6">
      <path d="M 551.939921 373.62 
L 551.939921 22.32 
" clip-path="url(#p87d5d9cd0d)" style="fill: none; stroke: #cccccc; stroke-opacity: 0.3; stroke-linecap: round"/>
     </g>
     <g id="text_6">
      <!-- 0.00025 -->
      <g style="fill: #262626" transform="translate(529.195702 391.478281) scale(0.11 -0.11)">
       <use xlink:href="#DejaVuSans-30"/>
       <use xlink:href="#DejaVuSans-2e" transform="translate(63.623047 0)"/>
       <use xlink:href="#DejaVuSans-30" transform="translate(95.410156 0)"/>
       <use xlink:href="#DejaVuSans-30" transform="translate(159.033203 0)"/>
       <use xlink:href="#DejaVuSans-30" transform="translate(222.65625 0)"/>
       <use xlink:href="#DejaVuSans-32" transform="translate(286.279297 0)"/>
       <use xlink:href="#DejaVuSans-35" transform="translate(349.902344 0)"/>
      </g>
     </g>
    </g>
    <g id="xtick_7">
     <g id="line2d_7">
      <path d="M 644.23602 373.62 
L 644.23602 22.32 
" clip-path="url(#p87d5d9cd0d)" style="fill: none; stroke: #cccccc; stroke-opacity: 0.3; stroke-linecap: round"/>
     </g>
     <g id="text_7">
      <!-- 0.00030 -->
      <g style="fill: #262626" transform="translate(621.491801 391.478281) scale(0.11 -0.11)">
       <defs>
        <path id="DejaVuSans-33" d="M 2597 2516 
Q 3050 2419 3304 2112 
Q 3559 1806 3559 1356 
Q 3559 666 3084 287 
Q 2609 -91 1734 -91 
Q 1441 -91 1130 -33 
Q 819 25 488 141 
L 488 750 
Q 750 597 1062 519 
Q 1375 441 1716 441 
Q 2309 441 2620 675 
Q 2931 909 2931 1356 
Q 2931 1769 2642 2001 
Q 2353 2234 1838 2234 
L 1294 2234 
L 1294 2753 
L 1863 2753 
Q 2328 2753 2575 2939 
Q 2822 3125 2822 3475 
Q 2822 3834 2567 4026 
Q 2313 4219 1838 4219 
Q 1578 4219 1281 4162 
Q 984 4106 628 3988 
L 628 4550 
Q 988 4650 1302 4700 
Q 1616 4750 1894 4750 
Q 2613 4750 3031 4423 
Q 3450 4097 3450 3541 
Q 3450 3153 3228 2886 
Q 3006 2619 2597 2516 
z
" transform="scale(0.015625)"/>
       </defs>
       <use xlink:href="#DejaVuSans-30"/>
       <use xlink:href="#DejaVuSans-2e" transform="translate(63.623047 0)"/>
       <use xlink:href="#DejaVuSans-30" transform="translate(95.410156 0)"/>
       <use xlink:href="#DejaVuSans-30" transform="translate(159.033203 0)"/>
       <use xlink:href="#DejaVuSans-30" transform="translate(222.65625 0)"/>
       <use xlink:href="#DejaVuSans-33" transform="translate(286.279297 0)"/>
       <use xlink:href="#DejaVuSans-30" transform="translate(349.902344 0)"/>
      </g>
     </g>
    </g>
    <g id="text_8">
     <!-- $\omega$ -->
     <g style="fill: #262626" transform="translate(375.376172 406.884062) scale(0.12 -0.12)">
      <defs>
       <path id="DejaVuSans-Oblique-3c9" d="M 1369 -91 
Q 72 -91 434 1766 
Q 575 2500 1256 3500 
L 1875 3500 
Q 1231 2500 1088 1750 
Q 819 397 1519 397 
Q 2166 397 2478 2078 
L 3009 2078 
Q 2669 388 3316 397 
Q 4013 403 4275 1750 
Q 4419 2500 4169 3500 
L 4788 3500 
Q 5075 2500 4934 1766 
Q 4578 -94 3278 -91 
Q 2428 -88 2503 844 
Q 2194 -91 1369 -91 
z
" transform="scale(0.015625)"/>
      </defs>
      <use xlink:href="#DejaVuSans-Oblique-3c9" transform="translate(0 0.3125)"/>
     </g>
    </g>
   </g>
   <g id="matplotlib.axis_2">
    <g id="ytick_1">
     <g id="line2d_8">
      <path d="M 61.46375 334.703383 
L 699.368594 334.703383 
" clip-path="url(#p87d5d9cd0d)" style="fill: none; stroke: #cccccc; stroke-opacity: 0.3; stroke-linecap: round"/>
     </g>
     <g id="text_9">
      <!-- $\mathdefault{10^{6}}$ -->
      <g style="fill: #262626" transform="translate(32.60375 338.882524) scale(0.11 -0.11)">
       <defs>
        <path id="DejaVuSans-36" d="M 2113 2584 
Q 1688 2584 1439 2293 
Q 1191 2003 1191 1497 
Q 1191 994 1439 701 
Q 1688 409 2113 409 
Q 2538 409 2786 701 
Q 3034 994 3034 1497 
Q 3034 2003 2786 2293 
Q 2538 2584 2113 2584 
z
M 3366 4563 
L 3366 3988 
Q 3128 4100 2886 4159 
Q 2644 4219 2406 4219 
Q 1781 4219 1451 3797 
Q 1122 3375 1075 2522 
Q 1259 2794 1537 2939 
Q 1816 3084 2150 3084 
Q 2853 3084 3261 2657 
Q 3669 2231 3669 1497 
Q 3669 778 3244 343 
Q 2819 -91 2113 -91 
Q 1303 -91 875 529 
Q 447 1150 447 2328 
Q 447 3434 972 4092 
Q 1497 4750 2381 4750 
Q 2619 4750 2861 4703 
Q 3103 4656 3366 4563 
z
" transform="scale(0.015625)"/>
       </defs>
       <use xlink:href="#DejaVuSans-31" transform="translate(0 0.765625)"/>
       <use xlink:href="#DejaVuSans-30" transform="translate(63.623047 0.765625)"/>
       <use xlink:href="#DejaVuSans-36" transform="translate(128.203125 39.046875) scale(0.7)"/>
      </g>
     </g>
    </g>
    <g id="ytick_2">
     <g id="line2d_9">
      <path d="M 61.46375 295.593044 
L 699.368594 295.593044 
" clip-path="url(#p87d5d9cd0d)" style="fill: none; stroke: #cccccc; stroke-opacity: 0.3; stroke-linecap: round"/>
     </g>
     <g id="text_10">
      <!-- $\mathdefault{10^{25}}$ -->
      <g style="fill: #262626" transform="translate(27.65375 299.772185) scale(0.11 -0.11)">
       <use xlink:href="#DejaVuSans-31" transform="translate(0 0.765625)"/>
       <use xlink:href="#DejaVuSans-30" transform="translate(63.623047 0.765625)"/>
       <use xlink:href="#DejaVuSans-32" transform="translate(128.203125 39.046875) scale(0.7)"/>
       <use xlink:href="#DejaVuSans-35" transform="translate(172.739258 39.046875) scale(0.7)"/>
      </g>
     </g>
    </g>
    <g id="ytick_3">
     <g id="line2d_10">
      <path d="M 61.46375 256.482705 
L 699.368594 256.482705 
" clip-path="url(#p87d5d9cd0d)" style="fill: none; stroke: #cccccc; stroke-opacity: 0.3; stroke-linecap: round"/>
     </g>
     <g id="text_11">
      <!-- $\mathdefault{10^{44}}$ -->
      <g style="fill: #262626" transform="translate(27.65375 260.661846) scale(0.11 -0.11)">
       <defs>
        <path id="DejaVuSans-34" d="M 2419 4116 
L 825 1625 
L 2419 1625 
L 2419 4116 
z
M 2253 4666 
L 3047 4666 
L 3047 1625 
L 3713 1625 
L 3713 1100 
L 3047 1100 
L 3047 0 
L 2419 0 
L 2419 1100 
L 313 1100 
L 313 1709 
L 2253 4666 
z
" transform="scale(0.015625)"/>
       </defs>
       <use xlink:href="#DejaVuSans-31" transform="translate(0 0.684375)"/>
       <use xlink:href="#DejaVuSans-30" transform="translate(63.623047 0.684375)"/>
       <use xlink:href="#DejaVuSans-34" transform="translate(128.203125 38.965625) scale(0.7)"/>
       <use xlink:href="#DejaVuSans-34" transform="translate(172.739258 38.965625) scale(0.7)"/>
      </g>
     </g>
    </g>
    <g id="ytick_4">
     <g id="line2d_11">
      <path d="M 61.46375 217.372366 
L 699.368594 217.372366 
" clip-path="url(#p87d5d9cd0d)" style="fill: none; stroke: #cccccc; stroke-opacity: 0.3; stroke-linecap: round"/>
     </g>
     <g id="text_12">
      <!-- $\mathdefault{10^{63}}$ -->
      <g style="fill: #262626" transform="translate(27.65375 221.551507) scale(0.11 -0.11)">
       <use xlink:href="#DejaVuSans-31" transform="translate(0 0.765625)"/>
       <use xlink:href="#DejaVuSans-30" transform="translate(63.623047 0.765625)"/>
       <use xlink:href="#DejaVuSans-36" transform="translate(128.203125 39.046875) scale(0.7)"/>
       <use xlink:href="#DejaVuSans-33" transform="translate(172.739258 39.046875) scale(0.7)"/>
      </g>
     </g>
    </g>
    <g id="ytick_5">
     <g id="line2d_12">
      <path d="M 61.46375 178.262027 
L 699.368594 178.262027 
" clip-path="url(#p87d5d9cd0d)" style="fill: none; stroke: #cccccc; stroke-opacity: 0.3; stroke-linecap: round"/>
     </g>
     <g id="text_13">
      <!-- $\mathdefault{10^{82}}$ -->
      <g style="fill: #262626" transform="translate(27.65375 182.441168) scale(0.11 -0.11)">
       <defs>
        <path id="DejaVuSans-38" d="M 2034 2216 
Q 1584 2216 1326 1975 
Q 1069 1734 1069 1313 
Q 1069 891 1326 650 
Q 1584 409 2034 409 
Q 2484 409 2743 651 
Q 3003 894 3003 1313 
Q 3003 1734 2745 1975 
Q 2488 2216 2034 2216 
z
M 1403 2484 
Q 997 2584 770 2862 
Q 544 3141 544 3541 
Q 544 4100 942 4425 
Q 1341 4750 2034 4750 
Q 2731 4750 3128 4425 
Q 3525 4100 3525 3541 
Q 3525 3141 3298 2862 
Q 3072 2584 2669 2484 
Q 3125 2378 3379 2068 
Q 3634 1759 3634 1313 
Q 3634 634 3220 271 
Q 2806 -91 2034 -91 
Q 1263 -91 848 271 
Q 434 634 434 1313 
Q 434 1759 690 2068 
Q 947 2378 1403 2484 
z
M 1172 3481 
Q 1172 3119 1398 2916 
Q 1625 2713 2034 2713 
Q 2441 2713 2670 2916 
Q 2900 3119 2900 3481 
Q 2900 3844 2670 4047 
Q 2441 4250 2034 4250 
Q 1625 4250 1398 4047 
Q 1172 3844 1172 3481 
z
" transform="scale(0.015625)"/>
       </defs>
       <use xlink:href="#DejaVuSans-31" transform="translate(0 0.765625)"/>
       <use xlink:href="#DejaVuSans-30" transform="translate(63.623047 0.765625)"/>
       <use xlink:href="#DejaVuSans-38" transform="translate(128.203125 39.046875) scale(0.7)"/>
       <use xlink:href="#DejaVuSans-32" transform="translate(172.739258 39.046875) scale(0.7)"/>
      </g>
     </g>
    </g>
    <g id="ytick_6">
     <g id="line2d_13">
      <path d="M 61.46375 139.151688 
L 699.368594 139.151688 
" clip-path="url(#p87d5d9cd0d)" style="fill: none; stroke: #cccccc; stroke-opacity: 0.3; stroke-linecap: round"/>
     </g>
     <g id="text_14">
      <!-- $\mathdefault{10^{101}}$ -->
      <g style="fill: #262626" transform="translate(22.81375 143.330829) scale(0.11 -0.11)">
       <use xlink:href="#DejaVuSans-31" transform="translate(0 0.765625)"/>
       <use xlink:href="#DejaVuSans-30" transform="translate(63.623047 0.765625)"/>
       <use xlink:href="#DejaVuSans-31" transform="translate(128.203125 39.046875) scale(0.7)"/>
       <use xlink:href="#DejaVuSans-30" transform="translate(172.739258 39.046875) scale(0.7)"/>
       <use xlink:href="#DejaVuSans-31" transform="translate(217.275391 39.046875) scale(0.7)"/>
      </g>
     </g>
    </g>
    <g id="ytick_7">
     <g id="line2d_14">
      <path d="M 61.46375 100.041349 
L 699.368594 100.041349 
" clip-path="url(#p87d5d9cd0d)" style="fill: none; stroke: #cccccc; stroke-opacity: 0.3; stroke-linecap: round"/>
     </g>
     <g id="text_15">
      <!-- $\mathdefault{10^{120}}$ -->
      <g style="fill: #262626" transform="translate(22.81375 104.220489) scale(0.11 -0.11)">
       <use xlink:href="#DejaVuSans-31" transform="translate(0 0.765625)"/>
       <use xlink:href="#DejaVuSans-30" transform="translate(63.623047 0.765625)"/>
       <use xlink:href="#DejaVuSans-31" transform="translate(128.203125 39.046875) scale(0.7)"/>
       <use xlink:href="#DejaVuSans-32" transform="translate(172.739258 39.046875) scale(0.7)"/>
       <use xlink:href="#DejaVuSans-30" transform="translate(217.275391 39.046875) scale(0.7)"/>
      </g>
     </g>
    </g>
    <g id="ytick_8">
     <g id="line2d_15">
      <path d="M 61.46375 60.93101 
L 699.368594 60.93101 
" clip-path="url(#p87d5d9cd0d)" style="fill: none; stroke: #cccccc; stroke-opacity: 0.3; stroke-linecap: round"/>
     </g>
     <g id="text_16">
      <!-- $\mathdefault{10^{139}}$ -->
      <g style="fill: #262626" transform="translate(22.81375 65.11015) scale(0.11 -0.11)">
       <defs>
        <path id="DejaVuSans-39" d="M 703 97 
L 703 672 
Q 941 559 1184 500 
Q 1428 441 1663 441 
Q 2288 441 2617 861 
Q 2947 1281 2994 2138 
Q 2813 1869 2534 1725 
Q 2256 1581 1919 1581 
Q 1219 1581 811 2004 
Q 403 2428 403 3163 
Q 403 3881 828 4315 
Q 1253 4750 1959 4750 
Q 2769 4750 3195 4129 
Q 3622 3509 3622 2328 
Q 3622 1225 3098 567 
Q 2575 -91 1691 -91 
Q 1453 -91 1209 -44 
Q 966 3 703 97 
z
M 1959 2075 
Q 2384 2075 2632 2365 
Q 2881 2656 2881 3163 
Q 2881 3666 2632 3958 
Q 2384 4250 1959 4250 
Q 1534 4250 1286 3958 
Q 1038 3666 1038 3163 
Q 1038 2656 1286 2365 
Q 1534 2075 1959 2075 
z
" transform="scale(0.015625)"/>
       </defs>
       <use xlink:href="#DejaVuSans-31" transform="translate(0 0.765625)"/>
       <use xlink:href="#DejaVuSans-30" transform="translate(63.623047 0.765625)"/>
       <use xlink:href="#DejaVuSans-31" transform="translate(128.203125 39.046875) scale(0.7)"/>
       <use xlink:href="#DejaVuSans-33" transform="translate(172.739258 39.046875) scale(0.7)"/>
       <use xlink:href="#DejaVuSans-39" transform="translate(217.275391 39.046875) scale(0.7)"/>
      </g>
     </g>
    </g>
    <g id="text_17">
     <!-- $\Delta\omega$ -->
     <g style="fill: #262626" transform="translate(16.318125 207.15) rotate(-90) scale(0.12 -0.12)">
      <defs>
       <path id="DejaVuSans-394" d="M 2188 4044 
L 906 525 
L 3472 525 
L 2188 4044 
z
M 50 0 
L 1831 4666 
L 2547 4666 
L 4325 0 
L 50 0 
z
" transform="scale(0.015625)"/>
      </defs>
      <use xlink:href="#DejaVuSans-394" transform="translate(0 0.09375)"/>
      <use xlink:href="#DejaVuSans-Oblique-3c9" transform="translate(68.408203 0.09375)"/>
     </g>
    </g>
   </g>
   <g id="line2d_16">
    <path d="M 90.459425 38.288182 
L 102.294394 354.964465 
L 114.129363 355.274199 
L 125.964333 355.353449 
L 137.799302 355.370532 
L 149.634271 355.364601 
L 161.46924 355.348126 
L 173.30421 355.325021 
L 185.139179 355.296173 
L 196.974148 355.26181 
L 208.809118 355.222265 
L 220.644087 355.17809 
L 232.479056 355.13 
L 244.314025 355.078794 
L 256.148995 355.02527 
L 267.983964 354.970152 
L 279.818933 354.914058 
L 291.653902 354.857495 
L 303.488872 354.800893 
L 315.323841 354.74465 
L 327.15881 354.689155 
L 338.99378 354.63477 
L 350.828749 354.581771 
L 362.663718 354.530269 
L 374.498687 354.480139 
L 386.333657 354.431024 
L 398.168626 354.382399 
L 410.003595 354.333696 
L 421.838565 354.284441 
L 433.673534 354.234326 
L 445.508503 354.183204 
L 457.343472 354.130985 
L 469.178442 354.077466 
L 481.013411 354.022196 
L 492.84838 353.964423 
L 504.68335 353.903174 
L 516.518319 353.837453 
L 528.353288 353.766452 
L 540.188257 353.6897 
L 552.023227 353.607 
L 563.858196 353.518087 
L 575.693165 353.421976 
L 587.528134 353.316057 
L 599.363104 353.195077 
L 611.198073 353.049932 
L 623.033042 352.86549 
L 634.868012 352.614892 
L 646.702981 352.240721 
L 658.53795 351.575055 
L 670.372919 351.030607 
" clip-path="url(#p87d5d9cd0d)" style="fill: none; stroke: #463480; stroke-width: 1.5; stroke-linecap: round"/>
   </g>
   <g id="line2d_17">
    <path d="M 61.46375 355.496708 
L 699.368594 355.496708 
" clip-path="url(#p87d5d9cd0d)" style="fill: none; stroke-dasharray: 3.7,1.6; stroke-dashoffset: 0; stroke: #463480; stroke-opacity: 0.6"/>
   </g>
   <g id="line2d_18">
    <path d="M 90.459425 38.288182 
L 102.294394 356.283417 
L 114.129363 356.236929 
L 125.964333 356.167824 
L 137.799302 356.0743 
L 149.634271 355.96202 
L 161.46924 355.84334 
L 173.30421 355.728037 
L 185.139179 355.621778 
L 196.974148 355.525923 
L 208.809118 355.437753 
L 220.644087 355.354107 
L 232.479056 355.274029 
L 244.314025 355.197409 
L 256.148995 355.124305 
L 267.983964 355.054919 
L 279.818933 354.988842 
L 291.653902 354.925974 
L 303.488872 354.866725 
L 315.323841 354.809449 
L 327.15881 354.751201 
L 338.99378 354.691351 
L 350.828749 354.631592 
L 362.663718 354.57448 
L 374.498687 354.521059 
L 386.333657 354.469517 
L 398.168626 354.420299 
L 410.003595 354.371254 
L 421.838565 354.318296 
L 433.673534 354.26093 
L 445.508503 354.203996 
L 457.343472 354.150533 
L 469.178442 354.09904 
L 481.013411 354.050065 
L 492.84838 354.004586 
L 504.68335 353.956926 
L 516.518319 353.901846 
L 528.353288 353.842263 
L 540.188257 353.779227 
L 552.023227 353.705115 
L 563.858196 353.61732 
L 575.693165 353.528538 
L 587.528134 353.450013 
L 599.363104 353.36342 
L 611.198073 353.229412 
L 623.033042 353.033559 
L 634.868012 352.822505 
L 646.702981 352.617604 
L 658.53795 352.257155 
L 670.372919 351.549667 
" clip-path="url(#p87d5d9cd0d)" style="fill: none; stroke: #3e4c8a; stroke-width: 1.5; stroke-linecap: round"/>
   </g>
   <g id="line2d_19">
    <path d="M 61.46375 356.341178 
L 699.368594 356.341178 
" clip-path="url(#p87d5d9cd0d)" style="fill: none; stroke-dasharray: 3.7,1.6; stroke-dashoffset: 0; stroke: #3e4c8a; stroke-opacity: 0.6"/>
   </g>
   <g id="line2d_20">
    <path d="M 90.459425 38.288182 
L 102.294394 356.680721 
L 114.129363 356.568543 
L 125.964333 356.405775 
L 137.799302 356.224114 
L 149.634271 356.059028 
L 161.46924 355.91636 
L 173.30421 355.787632 
L 185.139179 355.66928 
L 196.974148 355.562057 
L 208.809118 355.465111 
L 220.644087 355.37427 
L 232.479056 355.290704 
L 244.314025 355.213806 
L 256.148995 355.139473 
L 267.983964 355.067075 
L 279.818933 354.999224 
L 291.653902 354.937372 
L 303.488872 354.878127 
L 315.323841 354.819029 
L 327.15881 354.759938 
L 338.99378 354.703112 
L 350.828749 354.651809 
L 362.663718 354.596991 
L 374.498687 354.542196 
L 386.333657 354.500996 
L 398.168626 354.457457 
L 410.003595 354.401677 
L 421.838565 354.346956 
L 433.673534 354.283565 
L 445.508503 354.222099 
L 457.343472 354.179739 
L 469.178442 354.139568 
L 481.013411 354.091892 
L 492.84838 354.038818 
L 504.68335 353.972604 
L 516.518319 353.913119 
L 528.353288 353.863529 
L 540.188257 353.798018 
L 552.023227 353.725307 
L 563.858196 353.651232 
L 575.693165 353.57997 
L 587.528134 353.447452 
L 599.363104 353.353739 
L 611.198073 353.271836 
L 623.033042 353.085246 
L 634.868012 352.894534 
L 646.702981 352.668177 
L 658.53795 352.511851 
L 670.372919 351.928995 
" clip-path="url(#p87d5d9cd0d)" style="fill: none; stroke: #34618d; stroke-width: 1.5; stroke-linecap: round"/>
   </g>
   <g id="line2d_21">
    <path d="M 61.46375 356.759154 
L 699.368594 356.759154 
" clip-path="url(#p87d5d9cd0d)" style="fill: none; stroke-dasharray: 3.7,1.6; stroke-dashoffset: 0; stroke: #34618d; stroke-opacity: 0.6"/>
   </g>
   <g id="line2d_22">
    <path d="M 90.459425 38.288182 
L 102.294394 356.925364 
L 114.129363 356.733036 
L 125.964333 356.487098 
L 137.799302 356.273505 
L 149.634271 356.095239 
L 161.46924 355.938401 
L 173.30421 355.801815 
L 185.139179 355.679697 
L 196.974148 355.570248 
L 208.809118 355.472373 
L 220.644087 355.380641 
L 232.479056 355.296619 
L 244.314025 355.218576 
L 256.148995 355.143126 
L 267.983964 355.070907 
L 279.818933 355.005375 
L 291.653902 354.940455 
L 303.488872 354.879122 
L 315.323841 354.821003 
L 327.15881 354.766687 
L 338.99378 354.715013 
L 350.828749 354.669073 
L 362.663718 354.622434 
L 374.498687 354.569944 
L 386.333657 354.501468 
L 398.168626 354.453923 
L 410.003595 354.408832 
L 421.838565 354.351647 
L 433.673534 354.308483 
L 445.508503 354.260901 
L 457.343472 354.214939 
L 469.178442 354.145421 
L 481.013411 354.082117 
L 492.84838 354.048256 
L 504.68335 353.990122 
L 516.518319 353.930016 
L 528.353288 353.869506 
L 540.188257 353.814539 
L 552.023227 353.737999 
L 563.858196 353.663917 
L 575.693165 353.592495 
L 587.528134 353.514977 
L 599.363104 353.36622 
L 611.198073 353.314823 
L 623.033042 353.110445 
L 634.868012 352.933048 
L 646.702981 352.718614 
L 658.53795 352.555662 
L 670.372919 352.051463 
" clip-path="url(#p87d5d9cd0d)" style="fill: none; stroke: #2b748e; stroke-width: 1.5; stroke-linecap: round"/>
   </g>
   <g id="line2d_23">
    <path d="M 61.46375 357.041686 
L 699.368594 357.041686 
" clip-path="url(#p87d5d9cd0d)" style="fill: none; stroke-dasharray: 3.7,1.6; stroke-dashoffset: 0; stroke: #2b748e; stroke-opacity: 0.6"/>
   </g>
   <g id="line2d_24">
    <path d="M 90.459425 38.288182 
L 102.294394 357.095921 
L 114.129363 356.813605 
L 125.964333 356.526946 
L 137.799302 356.299045 
L 149.634271 356.106462 
L 161.46924 355.946472 
L 173.30421 355.805928 
L 185.139179 355.684864 
L 196.974148 355.575229 
L 208.809118 355.47526 
L 220.644087 355.381699 
L 232.479056 355.300119 
L 244.314025 355.222111 
L 256.148995 355.143571 
L 267.983964 355.072775 
L 279.818933 355.007462 
L 291.653902 354.944725 
L 303.488872 354.881656 
L 315.323841 354.831519 
L 327.15881 354.774734 
L 338.99378 354.71932 
L 350.828749 354.670248 
L 362.663718 354.613005 
L 374.498687 354.57 
L 386.333657 354.532711 
L 398.168626 354.450888 
L 410.003595 354.407875 
L 421.838565 354.346825 
L 433.673534 354.321387 
L 445.508503 354.260392 
L 457.343472 354.194883 
L 469.178442 354.159867 
L 481.013411 354.115902 
L 492.84838 354.050085 
L 504.68335 353.994824 
L 516.518319 353.939746 
L 528.353288 353.88068 
L 540.188257 353.831875 
L 552.023227 353.758397 
L 563.858196 353.710007 
L 575.693165 353.596109 
L 587.528134 353.524259 
L 599.363104 353.398742 
L 611.198073 353.341925 
L 623.033042 353.1592 
L 634.868012 352.979084 
L 646.702981 352.794004 
L 658.53795 352.61555 
L 670.372919 352.020691 
" clip-path="url(#p87d5d9cd0d)" style="fill: none; stroke: #24878e; stroke-width: 1.5; stroke-linecap: round"/>
   </g>
   <g id="line2d_25">
    <path d="M 61.46375 357.255681 
L 699.368594 357.255681 
" clip-path="url(#p87d5d9cd0d)" style="fill: none; stroke-dasharray: 3.7,1.6; stroke-dashoffset: 0; stroke: #24878e; stroke-opacity: 0.6"/>
   </g>
   <g id="line2d_26">
    <path d="M 90.459425 38.288182 
L 102.294394 357.204821 
L 114.129363 356.857223 
L 125.964333 356.550494 
L 137.799302 356.309523 
L 149.634271 356.113539 
L 161.46924 355.947739 
L 173.30421 355.809223 
L 185.139179 355.684604 
L 196.974148 355.57493 
L 208.809118 355.472831 
L 220.644087 355.382919 
L 232.479056 355.300121 
L 244.314025 355.215126 
L 256.148995 355.142283 
L 267.983964 355.075129 
L 279.818933 355.007822 
L 291.653902 354.955842 
L 303.488872 354.894346 
L 315.323841 354.829061 
L 327.15881 354.785889 
L 338.99378 354.739983 
L 350.828749 354.691896 
L 362.663718 354.638496 
L 374.498687 354.600888 
L 386.333657 354.577971 
L 398.168626 354.48874 
L 410.003595 354.470122 
L 421.838565 354.419754 
L 433.673534 354.340786 
L 445.508503 354.312768 
L 457.343472 354.285813 
L 469.178442 354.203424 
L 481.013411 354.170269 
L 492.84838 354.119832 
L 504.68335 354.056902 
L 516.518319 354.010563 
L 528.353288 353.957416 
L 540.188257 353.898368 
L 552.023227 353.846918 
L 563.858196 353.815799 
L 575.693165 353.711852 
L 587.528134 353.656501 
L 599.363104 353.570423 
L 611.198073 353.396508 
L 623.033042 353.320291 
L 634.868012 353.14188 
L 646.702981 353.01536 
L 658.53795 352.854916 
L 670.372919 352.386836 
" clip-path="url(#p87d5d9cd0d)" style="fill: none; stroke: #1f998a; stroke-width: 1.5; stroke-linecap: round"/>
   </g>
   <g id="line2d_27">
    <path d="M 61.46375 357.41061 
L 699.368594 357.41061 
" clip-path="url(#p87d5d9cd0d)" style="fill: none; stroke-dasharray: 3.7,1.6; stroke-dashoffset: 0; stroke: #1f998a; stroke-opacity: 0.6"/>
   </g>
   <g id="line2d_28">
    <path d="M 90.459425 38.288182 
L 102.294394 357.27215 
L 114.129363 356.885408 
L 125.964333 356.561855 
L 137.799302 356.313473 
L 149.634271 356.113431 
L 161.46924 355.944102 
L 173.30421 355.806064 
L 185.139179 355.68062 
L 196.974148 355.572029 
L 208.809118 355.468755 
L 220.644087 355.380408 
L 232.479056 355.30038 
L 244.314025 355.211035 
L 256.148995 355.140656 
L 267.983964 355.078087 
L 279.818933 355.011267 
L 291.653902 354.970224 
L 303.488872 354.91293 
L 315.323841 354.84437 
L 327.15881 354.812502 
L 338.99378 354.774997 
L 350.828749 354.735861 
L 362.663718 354.684176 
L 374.498687 354.658589 
L 386.333657 354.653856 
L 398.168626 354.548053 
L 410.003595 354.553936 
L 421.838565 354.511449 
L 433.673534 354.416436 
L 445.508503 354.404785 
L 457.343472 354.397096 
L 469.178442 354.299752 
L 481.013411 354.283802 
L 492.84838 354.241601 
L 504.68335 354.178528 
L 516.518319 354.145115 
L 528.353288 354.105591 
L 540.188257 354.050415 
L 552.023227 354.01593 
L 563.858196 354.015232 
L 575.693165 353.901275 
L 587.528134 353.859129 
L 599.363104 353.781474 
L 611.198073 353.602669 
L 623.033042 353.564425 
L 634.868012 353.399866 
L 646.702981 353.351127 
L 658.53795 353.23706 
L 670.372919 352.837526 
" clip-path="url(#p87d5d9cd0d)" style="fill: none; stroke: #25ac82; stroke-width: 1.5; stroke-linecap: round"/>
   </g>
   <g id="line2d_29">
    <path d="M 61.46375 357.514171 
L 699.368594 357.514171 
" clip-path="url(#p87d5d9cd0d)" style="fill: none; stroke-dasharray: 3.7,1.6; stroke-dashoffset: 0; stroke: #25ac82; stroke-opacity: 0.6"/>
   </g>
   <g id="line2d_30">
    <path d="M 90.459425 38.288182 
L 102.294394 357.319894 
L 114.129363 356.90262 
L 125.964333 356.567701 
L 137.799302 356.313918 
L 149.634271 356.110772 
L 161.46924 355.938339 
L 173.30421 355.801709 
L 185.139179 355.676116 
L 196.974148 355.569513 
L 208.809118 355.465446 
L 220.644087 355.379232 
L 232.479056 355.302895 
L 244.314025 355.208614 
L 256.148995 355.141299 
L 267.983964 355.084542 
L 279.818933 355.01794 
L 291.653902 354.9892 
L 303.488872 354.937948 
L 315.323841 354.865687 
L 327.15881 354.844414 
L 338.99378 354.814925 
L 350.828749 354.785299 
L 362.663718 354.734702 
L 374.498687 354.720817 
L 386.333657 354.730276 
L 398.168626 354.611015 
L 410.003595 354.639336 
L 421.838565 354.604987 
L 433.673534 354.494267 
L 445.508503 354.495523 
L 457.343472 354.504666 
L 469.178442 354.39254 
L 481.013411 354.391922 
L 492.84838 354.356833 
L 504.68335 354.29076 
L 516.518319 354.268021 
L 528.353288 354.242035 
L 540.188257 354.184993 
L 552.023227 354.164691 
L 563.858196 354.190073 
L 575.693165 354.06569 
L 587.528134 354.029061 
L 599.363104 353.956594 
L 611.198073 353.776325 
L 623.033042 353.76749 
L 634.868012 353.607479 
L 646.702981 353.617374 
L 658.53795 353.524966 
L 670.372919 353.167079 
" clip-path="url(#p87d5d9cd0d)" style="fill: none; stroke: #40bd72; stroke-width: 1.5; stroke-linecap: round"/>
   </g>
   <g id="line2d_31">
    <path d="M 61.46375 357.592145 
L 699.368594 357.592145 
" clip-path="url(#p87d5d9cd0d)" style="fill: none; stroke-dasharray: 3.7,1.6; stroke-dashoffset: 0; stroke: #40bd72; stroke-opacity: 0.6"/>
   </g>
   <g id="line2d_32">
    <path d="M 90.459425 38.288182 
L 102.294394 357.354351 
L 114.129363 356.912935 
L 125.964333 356.570237 
L 137.799302 356.31231 
L 149.634271 356.106701 
L 161.46924 355.931489 
L 173.30421 355.79704 
L 185.139179 355.671877 
L 196.974148 355.567859 
L 208.809118 355.463405 
L 220.644087 355.37971 
L 232.479056 355.30754 
L 244.314025 355.208238 
L 256.148995 355.144153 
L 267.983964 355.093809 
L 279.818933 355.027084 
L 291.653902 355.010695 
L 303.488872 354.96661 
L 315.323841 354.890861 
L 327.15881 354.878054 
L 338.99378 354.855433 
L 350.828749 354.834641 
L 362.663718 354.784539 
L 374.498687 354.781325 
L 386.333657 354.800241 
L 398.168626 354.67122 
L 410.003595 354.718313 
L 421.838565 354.691287 
L 433.673534 354.56699 
L 445.508503 354.577341 
L 457.343472 354.600417 
L 469.178442 354.474828 
L 481.013411 354.487554 
L 492.84838 354.458468 
L 504.68335 354.387484 
L 516.518319 354.373497 
L 528.353288 354.360903 
L 540.188257 354.298057 
L 552.023227 354.289686 
L 563.858196 354.337039 
L 575.693165 354.203435 
L 587.528134 354.168254 
L 599.363104 354.099914 
L 611.198073 353.920396 
L 623.033042 353.934986 
L 634.868012 353.773592 
L 646.702981 353.827801 
L 658.53795 353.745882 
L 670.372919 353.417315 
" clip-path="url(#p87d5d9cd0d)" style="fill: none; stroke: #69cd5b; stroke-width: 1.5; stroke-linecap: round"/>
   </g>
   <g id="line2d_33">
    <path d="M 61.46375 357.651818 
L 699.368594 357.651818 
" clip-path="url(#p87d5d9cd0d)" style="fill: none; stroke-dasharray: 3.7,1.6; stroke-dashoffset: 0; stroke: #69cd5b; stroke-opacity: 0.6"/>
   </g>
   <g id="line2d_34">
    <path d="M 90.459425 38.288182 
L 102.294394 357.379552 
L 114.129363 356.918761 
L 125.964333 356.570712 
L 137.799302 356.309504 
L 149.634271 356.101919 
L 161.46924 355.924198 
L 173.30421 355.792551 
L 185.139179 355.668263 
L 196.974148 355.567133 
L 208.809118 355.462654 
L 220.644087 355.3817 
L 232.479056 355.313806 
L 244.314025 355.209762 
L 256.148995 355.148725 
L 267.983964 355.104884 
L 279.818933 355.037743 
L 291.653902 355.032938 
L 303.488872 354.99647 
L 315.323841 354.917862 
L 327.15881 354.911019 
L 338.99378 354.893942 
L 350.828749 354.880791 
L 362.663718 354.830759 
L 374.498687 354.837093 
L 386.333657 354.861508 
L 398.168626 354.725841 
L 410.003595 354.78814 
L 421.838565 354.767323 
L 433.673534 354.631934 
L 445.508503 354.648264 
L 457.343472 354.682841 
L 469.178442 354.545294 
L 481.013411 354.56977 
L 492.84838 354.545758 
L 504.68335 354.468845 
L 516.518319 354.462192 
L 528.353288 354.462706 
L 540.188257 354.391712 
L 552.023227 354.393592 
L 563.858196 354.45937 
L 575.693165 354.317968 
L 587.528134 354.282346 
L 599.363104 354.217822 
L 611.198073 354.040228 
L 623.033042 354.073929 
L 634.868012 353.907792 
L 646.702981 353.995889 
L 658.53795 353.919011 
L 670.372919 353.612919 
" clip-path="url(#p87d5d9cd0d)" style="fill: none; stroke: #9bd93c; stroke-width: 1.5; stroke-linecap: round"/>
   </g>
   <g id="line2d_35">
    <path d="M 61.46375 357.698186 
L 699.368594 357.698186 
" clip-path="url(#p87d5d9cd0d)" style="fill: none; stroke-dasharray: 3.7,1.6; stroke-dashoffset: 0; stroke: #9bd93c; stroke-opacity: 0.6"/>
   </g>
   <g id="patch_3">
    <path d="M 61.46375 373.62 
L 61.46375 22.32 
" style="fill: none; stroke: #cccccc; stroke-width: 1.25; stroke-linejoin: miter; stroke-linecap: square"/>
   </g>
   <g id="patch_4">
    <path d="M 699.368594 373.62 
L 699.368594 22.32 
" style="fill: none; stroke: #cccccc; stroke-width: 1.25; stroke-linejoin: miter; stroke-linecap: square"/>
   </g>
   <g id="patch_5">
    <path d="M 61.46375 373.62 
L 699.368594 373.62 
" style="fill: none; stroke: #cccccc; stroke-width: 1.25; stroke-linejoin: miter; stroke-linecap: square"/>
   </g>
   <g id="patch_6">
    <path d="M 61.46375 22.32 
L 699.368594 22.32 
" style="fill: none; stroke: #cccccc; stroke-width: 1.25; stroke-linejoin: miter; stroke-linecap: square"/>
   </g>
   <g id="text_18">
    <!-- Cavity-Enhanced TMSV MZI ($\mathcal{F} = 500.0$) -->
    <g style="fill: #262626" transform="translate(262.876172 16.32) scale(0.12 -0.12)">
     <defs>
      <path id="DejaVuSans-43" d="M 4122 4306 
L 4122 3641 
Q 3803 3938 3442 4084 
Q 3081 4231 2675 4231 
Q 1875 4231 1450 3742 
Q 1025 3253 1025 2328 
Q 1025 1406 1450 917 
Q 1875 428 2675 428 
Q 3081 428 3442 575 
Q 3803 722 4122 1019 
L 4122 359 
Q 3791 134 3420 21 
Q 3050 -91 2638 -91 
Q 1578 -91 968 557 
Q 359 1206 359 2328 
Q 359 3453 968 4101 
Q 1578 4750 2638 4750 
Q 3056 4750 3426 4639 
Q 3797 4528 4122 4306 
z
" transform="scale(0.015625)"/>
      <path id="DejaVuSans-61" d="M 2194 1759 
Q 1497 1759 1228 1600 
Q 959 1441 959 1056 
Q 959 750 1161 570 
Q 1363 391 1709 391 
Q 2188 391 2477 730 
Q 2766 1069 2766 1631 
L 2766 1759 
L 2194 1759 
z
M 3341 1997 
L 3341 0 
L 2766 0 
L 2766 531 
Q 2569 213 2275 61 
Q 1981 -91 1556 -91 
Q 1019 -91 701 211 
Q 384 513 384 1019 
Q 384 1609 779 1909 
Q 1175 2209 1959 2209 
L 2766 2209 
L 2766 2266 
Q 2766 2663 2505 2880 
Q 2244 3097 1772 3097 
Q 1472 3097 1187 3025 
Q 903 2953 641 2809 
L 641 3341 
Q 956 3463 1253 3523 
Q 1550 3584 1831 3584 
Q 2591 3584 2966 3190 
Q 3341 2797 3341 1997 
z
" transform="scale(0.015625)"/>
      <path id="DejaVuSans-76" d="M 191 3500 
L 800 3500 
L 1894 563 
L 2988 3500 
L 3597 3500 
L 2284 0 
L 1503 0 
L 191 3500 
z
" transform="scale(0.015625)"/>
      <path id="DejaVuSans-69" d="M 603 3500 
L 1178 3500 
L 1178 0 
L 603 0 
L 603 3500 
z
M 603 4863 
L 1178 4863 
L 1178 4134 
L 603 4134 
L 603 4863 
z
" transform="scale(0.015625)"/>
      <path id="DejaVuSans-74" d="M 1172 4494 
L 1172 3500 
L 2356 3500 
L 2356 3053 
L 1172 3053 
L 1172 1153 
Q 1172 725 1289 603 
Q 1406 481 1766 481 
L 2356 481 
L 2356 0 
L 1766 0 
Q 1100 0 847 248 
Q 594 497 594 1153 
L 594 3053 
L 172 3053 
L 172 3500 
L 594 3500 
L 594 4494 
L 1172 4494 
z
" transform="scale(0.015625)"/>
      <path id="DejaVuSans-79" d="M 2059 -325 
Q 1816 -950 1584 -1140 
Q 1353 -1331 966 -1331 
L 506 -1331 
L 506 -850 
L 844 -850 
Q 1081 -850 1212 -737 
Q 1344 -625 1503 -206 
L 1606 56 
L 191 3500 
L 800 3500 
L 1894 763 
L 2988 3500 
L 3597 3500 
L 2059 -325 
z
" transform="scale(0.015625)"/>
      <path id="DejaVuSans-2d" d="M 313 2009 
L 1997 2009 
L 1997 1497 
L 313 1497 
L 313 2009 
z
" transform="scale(0.015625)"/>
      <path id="DejaVuSans-45" d="M 628 4666 
L 3578 4666 
L 3578 4134 
L 1259 4134 
L 1259 2753 
L 3481 2753 
L 3481 2222 
L 1259 2222 
L 1259 531 
L 3634 531 
L 3634 0 
L 628 0 
L 628 4666 
z
" transform="scale(0.015625)"/>
      <path id="DejaVuSans-6e" d="M 3513 2113 
L 3513 0 
L 2938 0 
L 2938 2094 
Q 2938 2591 2744 2837 
Q 2550 3084 2163 3084 
Q 1697 3084 1428 2787 
Q 1159 2491 1159 1978 
L 1159 0 
L 581 0 
L 581 3500 
L 1159 3500 
L 1159 2956 
Q 1366 3272 1645 3428 
Q 1925 3584 2291 3584 
Q 2894 3584 3203 3211 
Q 3513 2838 3513 2113 
z
" transform="scale(0.015625)"/>
      <path id="DejaVuSans-68" d="M 3513 2113 
L 3513 0 
L 2938 0 
L 2938 2094 
Q 2938 2591 2744 2837 
Q 2550 3084 2163 3084 
Q 1697 3084 1428 2787 
Q 1159 2491 1159 1978 
L 1159 0 
L 581 0 
L 581 4863 
L 1159 4863 
L 1159 2956 
Q 1366 3272 1645 3428 
Q 1925 3584 2291 3584 
Q 2894 3584 3203 3211 
Q 3513 2838 3513 2113 
z
" transform="scale(0.015625)"/>
      <path id="DejaVuSans-63" d="M 3122 3366 
L 3122 2828 
Q 2878 2963 2633 3030 
Q 2388 3097 2138 3097 
Q 1578 3097 1268 2742 
Q 959 2388 959 1747 
Q 959 1106 1268 751 
Q 1578 397 2138 397 
Q 2388 397 2633 464 
Q 2878 531 3122 666 
L 3122 134 
Q 2881 22 2623 -34 
Q 2366 -91 2075 -91 
Q 1284 -91 818 406 
Q 353 903 353 1747 
Q 353 2603 823 3093 
Q 1294 3584 2113 3584 
Q 2378 3584 2631 3529 
Q 2884 3475 3122 3366 
z
" transform="scale(0.015625)"/>
      <path id="DejaVuSans-65" d="M 3597 1894 
L 3597 1613 
L 953 1613 
Q 991 1019 1311 708 
Q 1631 397 2203 397 
Q 2534 397 2845 478 
Q 3156 559 3463 722 
L 3463 178 
Q 3153 47 2828 -22 
Q 2503 -91 2169 -91 
Q 1331 -91 842 396 
Q 353 884 353 1716 
Q 353 2575 817 3079 
Q 1281 3584 2069 3584 
Q 2775 3584 3186 3129 
Q 3597 2675 3597 1894 
z
M 3022 2063 
Q 3016 2534 2758 2815 
Q 2500 3097 2075 3097 
Q 1594 3097 1305 2825 
Q 1016 2553 972 2059 
L 3022 2063 
z
" transform="scale(0.015625)"/>
      <path id="DejaVuSans-64" d="M 2906 2969 
L 2906 4863 
L 3481 4863 
L 3481 0 
L 2906 0 
L 2906 525 
Q 2725 213 2448 61 
Q 2172 -91 1784 -91 
Q 1150 -91 751 415 
Q 353 922 353 1747 
Q 353 2572 751 3078 
Q 1150 3584 1784 3584 
Q 2172 3584 2448 3432 
Q 2725 3281 2906 2969 
z
M 947 1747 
Q 947 1113 1208 752 
Q 1469 391 1925 391 
Q 2381 391 2643 752 
Q 2906 1113 2906 1747 
Q 2906 2381 2643 2742 
Q 2381 3103 1925 3103 
Q 1469 3103 1208 2742 
Q 947 2381 947 1747 
z
" transform="scale(0.015625)"/>
      <path id="DejaVuSans-20" transform="scale(0.015625)"/>
      <path id="DejaVuSans-54" d="M -19 4666 
L 3928 4666 
L 3928 4134 
L 2272 4134 
L 2272 0 
L 1638 0 
L 1638 4134 
L -19 4134 
L -19 4666 
z
" transform="scale(0.015625)"/>
      <path id="DejaVuSans-4d" d="M 628 4666 
L 1569 4666 
L 2759 1491 
L 3956 4666 
L 4897 4666 
L 4897 0 
L 4281 0 
L 4281 4097 
L 3078 897 
L 2444 897 
L 1241 4097 
L 1241 0 
L 628 0 
L 628 4666 
z
" transform="scale(0.015625)"/>
      <path id="DejaVuSans-53" d="M 3425 4513 
L 3425 3897 
Q 3066 4069 2747 4153 
Q 2428 4238 2131 4238 
Q 1616 4238 1336 4038 
Q 1056 3838 1056 3469 
Q 1056 3159 1242 3001 
Q 1428 2844 1947 2747 
L 2328 2669 
Q 3034 2534 3370 2195 
Q 3706 1856 3706 1288 
Q 3706 609 3251 259 
Q 2797 -91 1919 -91 
Q 1588 -91 1214 -16 
Q 841 59 441 206 
L 441 856 
Q 825 641 1194 531 
Q 1563 422 1919 422 
Q 2459 422 2753 634 
Q 3047 847 3047 1241 
Q 3047 1584 2836 1778 
Q 2625 1972 2144 2069 
L 1759 2144 
Q 1053 2284 737 2584 
Q 422 2884 422 3419 
Q 422 4038 858 4394 
Q 1294 4750 2059 4750 
Q 2388 4750 2728 4690 
Q 3069 4631 3425 4513 
z
" transform="scale(0.015625)"/>
      <path id="DejaVuSans-56" d="M 1831 0 
L 50 4666 
L 709 4666 
L 2188 738 
L 3669 4666 
L 4325 4666 
L 2547 0 
L 1831 0 
z
" transform="scale(0.015625)"/>
      <path id="DejaVuSans-5a" d="M 359 4666 
L 4025 4666 
L 4025 4184 
L 1075 531 
L 4097 531 
L 4097 0 
L 288 0 
L 288 481 
L 3238 4134 
L 359 4134 
L 359 4666 
z
" transform="scale(0.015625)"/>
      <path id="DejaVuSans-49" d="M 628 4666 
L 1259 4666 
L 1259 0 
L 628 0 
L 628 4666 
z
" transform="scale(0.015625)"/>
      <path id="DejaVuSans-28" d="M 1984 4856 
Q 1566 4138 1362 3434 
Q 1159 2731 1159 2009 
Q 1159 1288 1364 580 
Q 1569 -128 1984 -844 
L 1484 -844 
Q 1016 -109 783 600 
Q 550 1309 550 2009 
Q 550 2706 781 3412 
Q 1013 4119 1484 4856 
L 1984 4856 
z
" transform="scale(0.015625)"/>
      <path id="STIXNonUnicode-Italic-e232" d="M 378 3418 
L 275 3533 
Q 730 3955 1174 4096 
Q 1619 4237 2163 4237 
Q 2714 4237 3110 4208 
Q 3507 4179 3849 4099 
Q 4192 4019 4368 3868 
Q 4544 3718 4544 3488 
Q 4544 3270 4429 3123 
Q 4314 2976 4109 2976 
Q 3962 2976 3853 3062 
Q 3744 3149 3744 3277 
Q 3744 3398 3792 3465 
Q 3840 3533 3897 3549 
Q 3955 3565 4000 3593 
Q 4045 3622 4045 3680 
Q 4045 3808 3696 3894 
Q 3347 3981 2893 3981 
Q 2694 3981 2608 3920 
Q 2522 3859 2464 3667 
L 2099 2413 
L 3494 2413 
L 3411 2157 
L 2029 2157 
L 1747 1203 
Q 1626 787 1491 537 
Q 1357 288 1174 173 
Q 992 58 829 29 
Q 666 0 384 0 
L 435 154 
Q 608 154 726 288 
Q 845 422 934 742 
L 1690 3334 
Q 1754 3558 1754 3667 
Q 1754 3776 1690 3827 
Q 1626 3878 1459 3878 
Q 858 3878 378 3418 
z
" transform="scale(0.015625)"/>
      <path id="DejaVuSans-3d" d="M 678 2906 
L 4684 2906 
L 4684 2381 
L 678 2381 
L 678 2906 
z
M 678 1631 
L 4684 1631 
L 4684 1100 
L 678 1100 
L 678 1631 
z
" transform="scale(0.015625)"/>
      <path id="DejaVuSans-29" d="M 513 4856 
L 1013 4856 
Q 1481 4119 1714 3412 
Q 1947 2706 1947 2009 
Q 1947 1309 1714 600 
Q 1481 -109 1013 -844 
L 513 -844 
Q 928 -128 1133 580 
Q 1338 1288 1338 2009 
Q 1338 2731 1133 3434 
Q 928 4138 513 4856 
z
" transform="scale(0.015625)"/>
     </defs>
     <use xlink:href="#DejaVuSans-43" transform="translate(0 0.015625)"/>
     <use xlink:href="#DejaVuSans-61" transform="translate(69.824219 0.015625)"/>
     <use xlink:href="#DejaVuSans-76" transform="translate(131.103516 0.015625)"/>
     <use xlink:href="#DejaVuSans-69" transform="translate(190.283203 0.015625)"/>
     <use xlink:href="#DejaVuSans-74" transform="translate(218.066406 0.015625)"/>
     <use xlink:href="#DejaVuSans-79" transform="translate(257.275391 0.015625)"/>
     <use xlink:href="#DejaVuSans-2d" transform="translate(316.455078 0.015625)"/>
     <use xlink:href="#DejaVuSans-45" transform="translate(352.539062 0.015625)"/>
     <use xlink:href="#DejaVuSans-6e" transform="translate(415.722656 0.015625)"/>
     <use xlink:href="#DejaVuSans-68" transform="translate(479.101562 0.015625)"/>
     <use xlink:href="#DejaVuSans-61" transform="translate(542.480469 0.015625)"/>
     <use xlink:href="#DejaVuSans-6e" transform="translate(603.759766 0.015625)"/>
     <use xlink:href="#DejaVuSans-63" transform="translate(667.138672 0.015625)"/>
     <use xlink:href="#DejaVuSans-65" transform="translate(722.119141 0.015625)"/>
     <use xlink:href="#DejaVuSans-64" transform="translate(783.642578 0.015625)"/>
     <use xlink:href="#DejaVuSans-20" transform="translate(847.119141 0.015625)"/>
     <use xlink:href="#DejaVuSans-54" transform="translate(878.90625 0.015625)"/>
     <use xlink:href="#DejaVuSans-4d" transform="translate(939.990234 0.015625)"/>
     <use xlink:href="#DejaVuSans-53" transform="translate(1026.269531 0.015625)"/>
     <use xlink:href="#DejaVuSans-56" transform="translate(1089.746094 0.015625)"/>
     <use xlink:href="#DejaVuSans-20" transform="translate(1158.154297 0.015625)"/>
     <use xlink:href="#DejaVuSans-4d" transform="translate(1189.941406 0.015625)"/>
     <use xlink:href="#DejaVuSans-5a" transform="translate(1276.220703 0.015625)"/>
     <use xlink:href="#DejaVuSans-49" transform="translate(1344.726562 0.015625)"/>
     <use xlink:href="#DejaVuSans-20" transform="translate(1374.21875 0.015625)"/>
     <use xlink:href="#DejaVuSans-28" transform="translate(1406.005859 0.015625)"/>
     <use xlink:href="#STIXNonUnicode-Italic-e232" transform="translate(1445.019531 0.015625)"/>
     <use xlink:href="#DejaVuSans-3d" transform="translate(1529.70195 0.015625)"/>
     <use xlink:href="#DejaVuSans-35" transform="translate(1632.973434 0.015625)"/>
     <use xlink:href="#DejaVuSans-30" transform="translate(1696.596481 0.015625)"/>
     <use xlink:href="#DejaVuSans-30" transform="translate(1760.219528 0.015625)"/>
     <use xlink:href="#DejaVuSans-2e" transform="translate(1823.842575 0.015625)"/>
     <use xlink:href="#DejaVuSans-30" transform="translate(1855.629684 0.015625)"/>
     <use xlink:href="#DejaVuSans-29" transform="translate(1919.252731 0.015625)"/>
    </g>
   </g>
   <g id="legend_1">
    <g id="patch_7">
     <path d="M 617.608594 146.145 
L 693.768594 146.145 
Q 695.368594 146.145 695.368594 144.545 
L 695.368594 27.92 
Q 695.368594 26.32 693.768594 26.32 
L 617.608594 26.32 
Q 616.008594 26.32 616.008594 27.92 
L 616.008594 144.545 
Q 616.008594 146.145 617.608594 146.145 
z
" style="fill: #ffffff; opacity: 0.8; stroke: #cccccc; stroke-linejoin: miter"/>
    </g>
    <g id="line2d_36">
     <path d="M 619.208594 32.79875 
L 627.208594 32.79875 
L 635.208594 32.79875 
" style="fill: none; stroke: #463480; stroke-width: 1.5; stroke-linecap: round"/>
    </g>
    <g id="text_19">
     <!-- $\langle N\rangle$=2  $\Delta\omega_{\mathrm{C}}$ -->
     <g style="fill: #262626" transform="translate(641.608594 35.59875) scale(0.08 -0.08)">
      <defs>
       <path id="DejaVuSans-27e8" d="M 572 2006 
L 1453 4856 
L 1984 4856 
L 1103 2006 
L 1984 -844 
L 1453 -844 
L 572 2006 
z
" transform="scale(0.015625)"/>
       <path id="DejaVuSans-Oblique-4e" d="M 1081 4666 
L 1931 4666 
L 3219 666 
L 4000 4666 
L 4616 4666 
L 3706 0 
L 2853 0 
L 1569 4025 
L 788 0 
L 172 0 
L 1081 4666 
z
" transform="scale(0.015625)"/>
       <path id="DejaVuSans-27e9" d="M 1925 2006 
L 1044 -844 
L 513 -844 
L 1394 2006 
L 513 4856 
L 1044 4856 
L 1925 2006 
z
" transform="scale(0.015625)"/>
      </defs>
      <use xlink:href="#DejaVuSans-27e8" transform="translate(0 0.125)"/>
      <use xlink:href="#DejaVuSans-Oblique-4e" transform="translate(39.013672 0.125)"/>
      <use xlink:href="#DejaVuSans-27e9" transform="translate(113.818359 0.125)"/>
      <use xlink:href="#DejaVuSans-3d" transform="translate(152.832031 0.125)"/>
      <use xlink:href="#DejaVuSans-32" transform="translate(236.621094 0.125)"/>
      <use xlink:href="#DejaVuSans-20" transform="translate(300.244141 0.125)"/>
      <use xlink:href="#DejaVuSans-20" transform="translate(332.03125 0.125)"/>
      <use xlink:href="#DejaVuSans-394" transform="translate(363.818359 0.125)"/>
      <use xlink:href="#DejaVuSans-Oblique-3c9" transform="translate(432.226562 0.125)"/>
      <use xlink:href="#DejaVuSans-43" transform="translate(515.966797 -16.28125) scale(0.7)"/>
     </g>
    </g>
    <g id="line2d_37">
     <path d="M 619.208594 44.54125 
L 627.208594 44.54125 
L 635.208594 44.54125 
" style="fill: none; stroke: #3e4c8a; stroke-width: 1.5; stroke-linecap: round"/>
    </g>
    <g id="text_20">
     <!-- $\langle N\rangle$=6  $\Delta\omega_{\mathrm{C}}$ -->
     <g style="fill: #262626" transform="translate(641.608594 47.34125) scale(0.08 -0.08)">
      <use xlink:href="#DejaVuSans-27e8" transform="translate(0 0.125)"/>
      <use xlink:href="#DejaVuSans-Oblique-4e" transform="translate(39.013672 0.125)"/>
      <use xlink:href="#DejaVuSans-27e9" transform="translate(113.818359 0.125)"/>
      <use xlink:href="#DejaVuSans-3d" transform="translate(152.832031 0.125)"/>
      <use xlink:href="#DejaVuSans-36" transform="translate(236.621094 0.125)"/>
      <use xlink:href="#DejaVuSans-20" transform="translate(300.244141 0.125)"/>
      <use xlink:href="#DejaVuSans-20" transform="translate(332.03125 0.125)"/>
      <use xlink:href="#DejaVuSans-394" transform="translate(363.818359 0.125)"/>
      <use xlink:href="#DejaVuSans-Oblique-3c9" transform="translate(432.226562 0.125)"/>
      <use xlink:href="#DejaVuSans-43" transform="translate(515.966797 -16.28125) scale(0.7)"/>
     </g>
    </g>
    <g id="line2d_38">
     <path d="M 619.208594 56.28375 
L 627.208594 56.28375 
L 635.208594 56.28375 
" style="fill: none; stroke: #34618d; stroke-width: 1.5; stroke-linecap: round"/>
    </g>
    <g id="text_21">
     <!-- $\langle N\rangle$=10  $\Delta\omega_{\mathrm{C}}$ -->
     <g style="fill: #262626" transform="translate(641.608594 59.08375) scale(0.08 -0.08)">
      <use xlink:href="#DejaVuSans-27e8" transform="translate(0 0.125)"/>
      <use xlink:href="#DejaVuSans-Oblique-4e" transform="translate(39.013672 0.125)"/>
      <use xlink:href="#DejaVuSans-27e9" transform="translate(113.818359 0.125)"/>
      <use xlink:href="#DejaVuSans-3d" transform="translate(152.832031 0.125)"/>
      <use xlink:href="#DejaVuSans-31" transform="translate(236.621094 0.125)"/>
      <use xlink:href="#DejaVuSans-30" transform="translate(300.244141 0.125)"/>
      <use xlink:href="#DejaVuSans-20" transform="translate(363.867188 0.125)"/>
      <use xlink:href="#DejaVuSans-20" transform="translate(395.654297 0.125)"/>
      <use xlink:href="#DejaVuSans-394" transform="translate(427.441406 0.125)"/>
      <use xlink:href="#DejaVuSans-Oblique-3c9" transform="translate(495.849609 0.125)"/>
      <use xlink:href="#DejaVuSans-43" transform="translate(579.589844 -16.28125) scale(0.7)"/>
     </g>
    </g>
    <g id="line2d_39">
     <path d="M 619.208594 68.02625 
L 627.208594 68.02625 
L 635.208594 68.02625 
" style="fill: none; stroke: #2b748e; stroke-width: 1.5; stroke-linecap: round"/>
    </g>
    <g id="text_22">
     <!-- $\langle N\rangle$=14  $\Delta\omega_{\mathrm{C}}$ -->
     <g style="fill: #262626" transform="translate(641.608594 70.82625) scale(0.08 -0.08)">
      <use xlink:href="#DejaVuSans-27e8" transform="translate(0 0.125)"/>
      <use xlink:href="#DejaVuSans-Oblique-4e" transform="translate(39.013672 0.125)"/>
      <use xlink:href="#DejaVuSans-27e9" transform="translate(113.818359 0.125)"/>
      <use xlink:href="#DejaVuSans-3d" transform="translate(152.832031 0.125)"/>
      <use xlink:href="#DejaVuSans-31" transform="translate(236.621094 0.125)"/>
      <use xlink:href="#DejaVuSans-34" transform="translate(300.244141 0.125)"/>
      <use xlink:href="#DejaVuSans-20" transform="translate(363.867188 0.125)"/>
      <use xlink:href="#DejaVuSans-20" transform="translate(395.654297 0.125)"/>
      <use xlink:href="#DejaVuSans-394" transform="translate(427.441406 0.125)"/>
      <use xlink:href="#DejaVuSans-Oblique-3c9" transform="translate(495.849609 0.125)"/>
      <use xlink:href="#DejaVuSans-43" transform="translate(579.589844 -16.28125) scale(0.7)"/>
     </g>
    </g>
    <g id="line2d_40">
     <path d="M 619.208594 79.76875 
L 627.208594 79.76875 
L 635.208594 79.76875 
" style="fill: none; stroke: #24878e; stroke-width: 1.5; stroke-linecap: round"/>
    </g>
    <g id="text_23">
     <!-- $\langle N\rangle$=18  $\Delta\omega_{\mathrm{C}}$ -->
     <g style="fill: #262626" transform="translate(641.608594 82.56875) scale(0.08 -0.08)">
      <use xlink:href="#DejaVuSans-27e8" transform="translate(0 0.125)"/>
      <use xlink:href="#DejaVuSans-Oblique-4e" transform="translate(39.013672 0.125)"/>
      <use xlink:href="#DejaVuSans-27e9" transform="translate(113.818359 0.125)"/>
      <use xlink:href="#DejaVuSans-3d" transform="translate(152.832031 0.125)"/>
      <use xlink:href="#DejaVuSans-31" transform="translate(236.621094 0.125)"/>
      <use xlink:href="#DejaVuSans-38" transform="translate(300.244141 0.125)"/>
      <use xlink:href="#DejaVuSans-20" transform="translate(363.867188 0.125)"/>
      <use xlink:href="#DejaVuSans-20" transform="translate(395.654297 0.125)"/>
      <use xlink:href="#DejaVuSans-394" transform="translate(427.441406 0.125)"/>
      <use xlink:href="#DejaVuSans-Oblique-3c9" transform="translate(495.849609 0.125)"/>
      <use xlink:href="#DejaVuSans-43" transform="translate(579.589844 -16.28125) scale(0.7)"/>
     </g>
    </g>
    <g id="line2d_41">
     <path d="M 619.208594 91.51125 
L 627.208594 91.51125 
L 635.208594 91.51125 
" style="fill: none; stroke: #1f998a; stroke-width: 1.5; stroke-linecap: round"/>
    </g>
    <g id="text_24">
     <!-- $\langle N\rangle$=22  $\Delta\omega_{\mathrm{C}}$ -->
     <g style="fill: #262626" transform="translate(641.608594 94.31125) scale(0.08 -0.08)">
      <use xlink:href="#DejaVuSans-27e8" transform="translate(0 0.125)"/>
      <use xlink:href="#DejaVuSans-Oblique-4e" transform="translate(39.013672 0.125)"/>
      <use xlink:href="#DejaVuSans-27e9" transform="translate(113.818359 0.125)"/>
      <use xlink:href="#DejaVuSans-3d" transform="translate(152.832031 0.125)"/>
      <use xlink:href="#DejaVuSans-32" transform="translate(236.621094 0.125)"/>
      <use xlink:href="#DejaVuSans-32" transform="translate(300.244141 0.125)"/>
      <use xlink:href="#DejaVuSans-20" transform="translate(363.867188 0.125)"/>
      <use xlink:href="#DejaVuSans-20" transform="translate(395.654297 0.125)"/>
      <use xlink:href="#DejaVuSans-394" transform="translate(427.441406 0.125)"/>
      <use xlink:href="#DejaVuSans-Oblique-3c9" transform="translate(495.849609 0.125)"/>
      <use xlink:href="#DejaVuSans-43" transform="translate(579.589844 -16.28125) scale(0.7)"/>
     </g>
    </g>
    <g id="line2d_42">
     <path d="M 619.208594 103.25375 
L 627.208594 103.25375 
L 635.208594 103.25375 
" style="fill: none; stroke: #25ac82; stroke-width: 1.5; stroke-linecap: round"/>
    </g>
    <g id="text_25">
     <!-- $\langle N\rangle$=26  $\Delta\omega_{\mathrm{C}}$ -->
     <g style="fill: #262626" transform="translate(641.608594 106.05375) scale(0.08 -0.08)">
      <use xlink:href="#DejaVuSans-27e8" transform="translate(0 0.125)"/>
      <use xlink:href="#DejaVuSans-Oblique-4e" transform="translate(39.013672 0.125)"/>
      <use xlink:href="#DejaVuSans-27e9" transform="translate(113.818359 0.125)"/>
      <use xlink:href="#DejaVuSans-3d" transform="translate(152.832031 0.125)"/>
      <use xlink:href="#DejaVuSans-32" transform="translate(236.621094 0.125)"/>
      <use xlink:href="#DejaVuSans-36" transform="translate(300.244141 0.125)"/>
      <use xlink:href="#DejaVuSans-20" transform="translate(363.867188 0.125)"/>
      <use xlink:href="#DejaVuSans-20" transform="translate(395.654297 0.125)"/>
      <use xlink:href="#DejaVuSans-394" transform="translate(427.441406 0.125)"/>
      <use xlink:href="#DejaVuSans-Oblique-3c9" transform="translate(495.849609 0.125)"/>
      <use xlink:href="#DejaVuSans-43" transform="translate(579.589844 -16.28125) scale(0.7)"/>
     </g>
    </g>
    <g id="line2d_43">
     <path d="M 619.208594 114.99625 
L 627.208594 114.99625 
L 635.208594 114.99625 
" style="fill: none; stroke: #40bd72; stroke-width: 1.5; stroke-linecap: round"/>
    </g>
    <g id="text_26">
     <!-- $\langle N\rangle$=30  $\Delta\omega_{\mathrm{C}}$ -->
     <g style="fill: #262626" transform="translate(641.608594 117.79625) scale(0.08 -0.08)">
      <use xlink:href="#DejaVuSans-27e8" transform="translate(0 0.125)"/>
      <use xlink:href="#DejaVuSans-Oblique-4e" transform="translate(39.013672 0.125)"/>
      <use xlink:href="#DejaVuSans-27e9" transform="translate(113.818359 0.125)"/>
      <use xlink:href="#DejaVuSans-3d" transform="translate(152.832031 0.125)"/>
      <use xlink:href="#DejaVuSans-33" transform="translate(236.621094 0.125)"/>
      <use xlink:href="#DejaVuSans-30" transform="translate(300.244141 0.125)"/>
      <use xlink:href="#DejaVuSans-20" transform="translate(363.867188 0.125)"/>
      <use xlink:href="#DejaVuSans-20" transform="translate(395.654297 0.125)"/>
      <use xlink:href="#DejaVuSans-394" transform="translate(427.441406 0.125)"/>
      <use xlink:href="#DejaVuSans-Oblique-3c9" transform="translate(495.849609 0.125)"/>
      <use xlink:href="#DejaVuSans-43" transform="translate(579.589844 -16.28125) scale(0.7)"/>
     </g>
    </g>
    <g id="line2d_44">
     <path d="M 619.208594 126.73875 
L 627.208594 126.73875 
L 635.208594 126.73875 
" style="fill: none; stroke: #69cd5b; stroke-width: 1.5; stroke-linecap: round"/>
    </g>
    <g id="text_27">
     <!-- $\langle N\rangle$=34  $\Delta\omega_{\mathrm{C}}$ -->
     <g style="fill: #262626" transform="translate(641.608594 129.53875) scale(0.08 -0.08)">
      <use xlink:href="#DejaVuSans-27e8" transform="translate(0 0.125)"/>
      <use xlink:href="#DejaVuSans-Oblique-4e" transform="translate(39.013672 0.125)"/>
      <use xlink:href="#DejaVuSans-27e9" transform="translate(113.818359 0.125)"/>
      <use xlink:href="#DejaVuSans-3d" transform="translate(152.832031 0.125)"/>
      <use xlink:href="#DejaVuSans-33" transform="translate(236.621094 0.125)"/>
      <use xlink:href="#DejaVuSans-34" transform="translate(300.244141 0.125)"/>
      <use xlink:href="#DejaVuSans-20" transform="translate(363.867188 0.125)"/>
      <use xlink:href="#DejaVuSans-20" transform="translate(395.654297 0.125)"/>
      <use xlink:href="#DejaVuSans-394" transform="translate(427.441406 0.125)"/>
      <use xlink:href="#DejaVuSans-Oblique-3c9" transform="translate(495.849609 0.125)"/>
      <use xlink:href="#DejaVuSans-43" transform="translate(579.589844 -16.28125) scale(0.7)"/>
     </g>
    </g>
    <g id="line2d_45">
     <path d="M 619.208594 138.48125 
L 627.208594 138.48125 
L 635.208594 138.48125 
" style="fill: none; stroke: #9bd93c; stroke-width: 1.5; stroke-linecap: round"/>
    </g>
    <g id="text_28">
     <!-- $\langle N\rangle$=38  $\Delta\omega_{\mathrm{C}}$ -->
     <g style="fill: #262626" transform="translate(641.608594 141.28125) scale(0.08 -0.08)">
      <use xlink:href="#DejaVuSans-27e8" transform="translate(0 0.125)"/>
      <use xlink:href="#DejaVuSans-Oblique-4e" transform="translate(39.013672 0.125)"/>
      <use xlink:href="#DejaVuSans-27e9" transform="translate(113.818359 0.125)"/>
      <use xlink:href="#DejaVuSans-3d" transform="translate(152.832031 0.125)"/>
      <use xlink:href="#DejaVuSans-33" transform="translate(236.621094 0.125)"/>
      <use xlink:href="#DejaVuSans-38" transform="translate(300.244141 0.125)"/>
      <use xlink:href="#DejaVuSans-20" transform="translate(363.867188 0.125)"/>
      <use xlink:href="#DejaVuSans-20" transform="translate(395.654297 0.125)"/>
      <use xlink:href="#DejaVuSans-394" transform="translate(427.441406 0.125)"/>
      <use xlink:href="#DejaVuSans-Oblique-3c9" transform="translate(495.849609 0.125)"/>
      <use xlink:href="#DejaVuSans-43" transform="translate(579.589844 -16.28125) scale(0.7)"/>
     </g>
    </g>
   </g>
  </g>
 </g>
 <defs>
  <clipPath id="p87d5d9cd0d">
   <rect x="61.46375" y="22.32" width="637.904844" height="351.3"/>
  </clipPath>
 </defs>
</svg>
