<?xml version="1.0" encoding="utf-8" standalone="no"?>
<!DOCTYPE svg PUBLIC "-//W3C//DTD SVG 1.1//EN"
  "http://www.w3.org/Graphics/SVG/1.1/DTD/svg11.dtd">
<svg xmlns:xlink="http://www.w3.org/1999/xlink" width="706.568594pt" height="416.579687pt" viewBox="0 0 706.568594 416.579687" xmlns="http://www.w3.org/2000/svg" version="1.1">
 <metadata>
  <rdf:RDF xmlns:dc="http://purl.org/dc/elements/1.1/" xmlns:cc="http://creativecommons.org/ns#" xmlns:rdf="http://www.w3.org/1999/02/22-rdf-syntax-ns#">
   <cc:Work>
    <dc:type rdf:resource="http://purl.org/dc/dcmitype/StillImage"/>
    <dc:date>2026-06-29T14:49:08.210129</dc:date>
    <dc:format>image/svg+xml</dc:format>
    <dc:creator>
     <cc:Agent>
      <dc:title>Matplotlib v3.10.9, https://matplotlib.org/</dc:title>
     </cc:Agent>
    </dc:creator>
   </cc:Work>
  </rdf:RDF>
 </metadata>
 <defs>
  <style type="text/css">*{stroke-linejoin: round; stroke-linecap: butt}</style>
 </defs>
 <g id="figure_1">
  <g id="patch_1">
   <path d="M 0 416.579687 
L 706.568594 416.579687 
L 706.568594 0 
L 0 0 
z
" style="fill: #ffffff"/>
  </g>
  <g id="axes_1">
   <g id="patch_2">
    <path d="M 61.46375 373.62 
L 699.368594 373.62 
L 699.368594 22.32 
L 61.46375 22.32 
z
" style="fill: #ffffff"/>
   </g>
   <g id="matplotlib.axis_1">
    <g id="xtick_1">
     <g id="line2d_1">
      <path d="M 90.459425 373.62 
L 90.459425 22.32 
" clip-path="url(#p897a307ba0)" style="fill: none; stroke: #cccccc; stroke-opacity: 0.3; stroke-linecap: round"/>
     </g>
     <g id="text_1">
      <!-- 0.000 -->
      <g style="fill: #262626" transform="translate(74.713956 391.478281) scale(0.11 -0.11)">
       <defs>
        <path id="DejaVuSans-30" d="M 2034 4250 
Q 1547 4250 1301 3770 
Q 1056 3291 1056 2328 
Q 1056 1369 1301 889 
Q 1547 409 2034 409 
Q 2525 409 2770 889 
Q 3016 1369 3016 2328 
Q 3016 3291 2770 3770 
Q 2525 4250 2034 4250 
z
M 2034 4750 
Q 2819 4750 3233 4129 
Q 3647 3509 3647 2328 
Q 3647 1150 3233 529 
Q 2819 -91 2034 -91 
Q 1250 -91 836 529 
Q 422 1150 422 2328 
Q 422 3509 836 4129 
Q 1250 4750 2034 4750 
z
" transform="scale(0.015625)"/>
        <path id="DejaVuSans-2e" d="M 684 794 
L 1344 794 
L 1344 0 
L 684 0 
L 684 794 
z
" transform="scale(0.015625)"/>
       </defs>
       <use xlink:href="#DejaVuSans-30"/>
       <use xlink:href="#DejaVuSans-2e" transform="translate(63.623047 0)"/>
       <use xlink:href="#DejaVuSans-30" transform="translate(95.410156 0)"/>
       <use xlink:href="#DejaVuSans-30" transform="translate(159.033203 0)"/>
       <use xlink:href="#DejaVuSans-30" transform="translate(222.65625 0)"/>
      </g>
     </g>
    </g>
    <g id="xtick_2">
     <g id="line2d_2">
      <path d="M 164.296304 373.62 
L 164.296304 22.32 
" clip-path="url(#p897a307ba0)" style="fill: none; stroke: #cccccc; stroke-opacity: 0.3; stroke-linecap: round"/>
     </g>
     <g id="text_2">
      <!-- 0.001 -->
      <g style="fill: #262626" transform="translate(148.550835 391.478281) scale(0.11 -0.11)">
       <defs>
        <path id="DejaVuSans-31" d="M 794 531 
L 1825 531 
L 1825 4091 
L 703 3866 
L 703 4441 
L 1819 4666 
L 2450 4666 
L 2450 531 
L 3481 531 
L 3481 0 
L 794 0 
L 794 531 
z
" transform="scale(0.015625)"/>
       </defs>
       <use xlink:href="#DejaVuSans-30"/>
       <use xlink:href="#DejaVuSans-2e" transform="translate(63.623047 0)"/>
       <use xlink:href="#DejaVuSans-30" transform="translate(95.410156 0)"/>
       <use xlink:href="#DejaVuSans-30" transform="translate(159.033203 0)"/>
       <use xlink:href="#DejaVuSans-31" transform="translate(222.65625 0)"/>
      </g>
     </g>
    </g>
    <g id="xtick_3">
     <g id="line2d_3">
      <path d="M 238.133184 373.62 
L 238.133184 22.32 
" clip-path="url(#p897a307ba0)" style="fill: none; stroke: #cccccc; stroke-opacity: 0.3; stroke-linecap: round"/>
     </g>
     <g id="text_3">
      <!-- 0.002 -->
      <g style="fill: #262626" transform="translate(222.387715 391.478281) scale(0.11 -0.11)">
       <defs>
        <path id="DejaVuSans-32" d="M 1228 531 
L 3431 531 
L 3431 0 
L 469 0 
L 469 531 
Q 828 903 1448 1529 
Q 2069 2156 2228 2338 
Q 2531 2678 2651 2914 
Q 2772 3150 2772 3378 
Q 2772 3750 2511 3984 
Q 2250 4219 1831 4219 
Q 1534 4219 1204 4116 
Q 875 4013 500 3803 
L 500 4441 
Q 881 4594 1212 4672 
Q 1544 4750 1819 4750 
Q 2544 4750 2975 4387 
Q 3406 4025 3406 3419 
Q 3406 3131 3298 2873 
Q 3191 2616 2906 2266 
Q 2828 2175 2409 1742 
Q 1991 1309 1228 531 
z
" transform="scale(0.015625)"/>
       </defs>
       <use xlink:href="#DejaVuSans-30"/>
       <use xlink:href="#DejaVuSans-2e" transform="translate(63.623047 0)"/>
       <use xlink:href="#DejaVuSans-30" transform="translate(95.410156 0)"/>
       <use xlink:href="#DejaVuSans-30" transform="translate(159.033203 0)"/>
       <use xlink:href="#DejaVuSans-32" transform="translate(222.65625 0)"/>
      </g>
     </g>
    </g>
    <g id="xtick_4">
     <g id="line2d_4">
      <path d="M 311.970063 373.62 
L 311.970063 22.32 
" clip-path="url(#p897a307ba0)" style="fill: none; stroke: #cccccc; stroke-opacity: 0.3; stroke-linecap: round"/>
     </g>
     <g id="text_4">
      <!-- 0.003 -->
      <g style="fill: #262626" transform="translate(296.224594 391.478281) scale(0.11 -0.11)">
       <defs>
        <path id="DejaVuSans-33" d="M 2597 2516 
Q 3050 2419 3304 2112 
Q 3559 1806 3559 1356 
Q 3559 666 3084 287 
Q 2609 -91 1734 -91 
Q 1441 -91 1130 -33 
Q 819 25 488 141 
L 488 750 
Q 750 597 1062 519 
Q 1375 441 1716 441 
Q 2309 441 2620 675 
Q 2931 909 2931 1356 
Q 2931 1769 2642 2001 
Q 2353 2234 1838 2234 
L 1294 2234 
L 1294 2753 
L 1863 2753 
Q 2328 2753 2575 2939 
Q 2822 3125 2822 3475 
Q 2822 3834 2567 4026 
Q 2313 4219 1838 4219 
Q 1578 4219 1281 4162 
Q 984 4106 628 3988 
L 628 4550 
Q 988 4650 1302 4700 
Q 1616 4750 1894 4750 
Q 2613 4750 3031 4423 
Q 3450 4097 3450 3541 
Q 3450 3153 3228 2886 
Q 3006 2619 2597 2516 
z
" transform="scale(0.015625)"/>
       </defs>
       <use xlink:href="#DejaVuSans-30"/>
       <use xlink:href="#DejaVuSans-2e" transform="translate(63.623047 0)"/>
       <use xlink:href="#DejaVuSans-30" transform="translate(95.410156 0)"/>
       <use xlink:href="#DejaVuSans-30" transform="translate(159.033203 0)"/>
       <use xlink:href="#DejaVuSans-33" transform="translate(222.65625 0)"/>
      </g>
     </g>
    </g>
    <g id="xtick_5">
     <g id="line2d_5">
      <path d="M 385.806942 373.62 
L 385.806942 22.32 
" clip-path="url(#p897a307ba0)" style="fill: none; stroke: #cccccc; stroke-opacity: 0.3; stroke-linecap: round"/>
     </g>
     <g id="text_5">
      <!-- 0.004 -->
      <g style="fill: #262626" transform="translate(370.061474 391.478281) scale(0.11 -0.11)">
       <defs>
        <path id="DejaVuSans-34" d="M 2419 4116 
L 825 1625 
L 2419 1625 
L 2419 4116 
z
M 2253 4666 
L 3047 4666 
L 3047 1625 
L 3713 1625 
L 3713 1100 
L 3047 1100 
L 3047 0 
L 2419 0 
L 2419 1100 
L 313 1100 
L 313 1709 
L 2253 4666 
z
" transform="scale(0.015625)"/>
       </defs>
       <use xlink:href="#DejaVuSans-30"/>
       <use xlink:href="#DejaVuSans-2e" transform="translate(63.623047 0)"/>
       <use xlink:href="#DejaVuSans-30" transform="translate(95.410156 0)"/>
       <use xlink:href="#DejaVuSans-30" transform="translate(159.033203 0)"/>
       <use xlink:href="#DejaVuSans-34" transform="translate(222.65625 0)"/>
      </g>
     </g>
    </g>
    <g id="xtick_6">
     <g id="line2d_6">
      <path d="M 459.643822 373.62 
L 459.643822 22.32 
" clip-path="url(#p897a307ba0)" style="fill: none; stroke: #cccccc; stroke-opacity: 0.3; stroke-linecap: round"/>
     </g>
     <g id="text_6">
      <!-- 0.005 -->
      <g style="fill: #262626" transform="translate(443.898353 391.478281) scale(0.11 -0.11)">
       <defs>
        <path id="DejaVuSans-35" d="M 691 4666 
L 3169 4666 
L 3169 4134 
L 1269 4134 
L 1269 2991 
Q 1406 3038 1543 3061 
Q 1681 3084 1819 3084 
Q 2600 3084 3056 2656 
Q 3513 2228 3513 1497 
Q 3513 744 3044 326 
Q 2575 -91 1722 -91 
Q 1428 -91 1123 -41 
Q 819 9 494 109 
L 494 744 
Q 775 591 1075 516 
Q 1375 441 1709 441 
Q 2250 441 2565 725 
Q 2881 1009 2881 1497 
Q 2881 1984 2565 2268 
Q 2250 2553 1709 2553 
Q 1456 2553 1204 2497 
Q 953 2441 691 2322 
L 691 4666 
z
" transform="scale(0.015625)"/>
       </defs>
       <use xlink:href="#DejaVuSans-30"/>
       <use xlink:href="#DejaVuSans-2e" transform="translate(63.623047 0)"/>
       <use xlink:href="#DejaVuSans-30" transform="translate(95.410156 0)"/>
       <use xlink:href="#DejaVuSans-30" transform="translate(159.033203 0)"/>
       <use xlink:href="#DejaVuSans-35" transform="translate(222.65625 0)"/>
      </g>
     </g>
    </g>
    <g id="xtick_7">
     <g id="line2d_7">
      <path d="M 533.480701 373.62 
L 533.480701 22.32 
" clip-path="url(#p897a307ba0)" style="fill: none; stroke: #cccccc; stroke-opacity: 0.3; stroke-linecap: round"/>
     </g>
     <g id="text_7">
      <!-- 0.006 -->
      <g style="fill: #262626" transform="translate(517.735232 391.478281) scale(0.11 -0.11)">
       <defs>
        <path id="DejaVuSans-36" d="M 2113 2584 
Q 1688 2584 1439 2293 
Q 1191 2003 1191 1497 
Q 1191 994 1439 701 
Q 1688 409 2113 409 
Q 2538 409 2786 701 
Q 3034 994 3034 1497 
Q 3034 2003 2786 2293 
Q 2538 2584 2113 2584 
z
M 3366 4563 
L 3366 3988 
Q 3128 4100 2886 4159 
Q 2644 4219 2406 4219 
Q 1781 4219 1451 3797 
Q 1122 3375 1075 2522 
Q 1259 2794 1537 2939 
Q 1816 3084 2150 3084 
Q 2853 3084 3261 2657 
Q 3669 2231 3669 1497 
Q 3669 778 3244 343 
Q 2819 -91 2113 -91 
Q 1303 -91 875 529 
Q 447 1150 447 2328 
Q 447 3434 972 4092 
Q 1497 4750 2381 4750 
Q 2619 4750 2861 4703 
Q 3103 4656 3366 4563 
z
" transform="scale(0.015625)"/>
       </defs>
       <use xlink:href="#DejaVuSans-30"/>
       <use xlink:href="#DejaVuSans-2e" transform="translate(63.623047 0)"/>
       <use xlink:href="#DejaVuSans-30" transform="translate(95.410156 0)"/>
       <use xlink:href="#DejaVuSans-30" transform="translate(159.033203 0)"/>
       <use xlink:href="#DejaVuSans-36" transform="translate(222.65625 0)"/>
      </g>
     </g>
    </g>
    <g id="xtick_8">
     <g id="line2d_8">
      <path d="M 607.31758 373.62 
L 607.31758 22.32 
" clip-path="url(#p897a307ba0)" style="fill: none; stroke: #cccccc; stroke-opacity: 0.3; stroke-linecap: round"/>
     </g>
     <g id="text_8">
      <!-- 0.007 -->
      <g style="fill: #262626" transform="translate(591.572112 391.478281) scale(0.11 -0.11)">
       <defs>
        <path id="DejaVuSans-37" d="M 525 4666 
L 3525 4666 
L 3525 4397 
L 1831 0 
L 1172 0 
L 2766 4134 
L 525 4134 
L 525 4666 
z
" transform="scale(0.015625)"/>
       </defs>
       <use xlink:href="#DejaVuSans-30"/>
       <use xlink:href="#DejaVuSans-2e" transform="translate(63.623047 0)"/>
       <use xlink:href="#DejaVuSans-30" transform="translate(95.410156 0)"/>
       <use xlink:href="#DejaVuSans-30" transform="translate(159.033203 0)"/>
       <use xlink:href="#DejaVuSans-37" transform="translate(222.65625 0)"/>
      </g>
     </g>
    </g>
    <g id="xtick_9">
     <g id="line2d_9">
      <path d="M 681.15446 373.62 
L 681.15446 22.32 
" clip-path="url(#p897a307ba0)" style="fill: none; stroke: #cccccc; stroke-opacity: 0.3; stroke-linecap: round"/>
     </g>
     <g id="text_9">
      <!-- 0.008 -->
      <g style="fill: #262626" transform="translate(665.408991 391.478281) scale(0.11 -0.11)">
       <defs>
        <path id="DejaVuSans-38" d="M 2034 2216 
Q 1584 2216 1326 1975 
Q 1069 1734 1069 1313 
Q 1069 891 1326 650 
Q 1584 409 2034 409 
Q 2484 409 2743 651 
Q 3003 894 3003 1313 
Q 3003 1734 2745 1975 
Q 2488 2216 2034 2216 
z
M 1403 2484 
Q 997 2584 770 2862 
Q 544 3141 544 3541 
Q 544 4100 942 4425 
Q 1341 4750 2034 4750 
Q 2731 4750 3128 4425 
Q 3525 4100 3525 3541 
Q 3525 3141 3298 2862 
Q 3072 2584 2669 2484 
Q 3125 2378 3379 2068 
Q 3634 1759 3634 1313 
Q 3634 634 3220 271 
Q 2806 -91 2034 -91 
Q 1263 -91 848 271 
Q 434 634 434 1313 
Q 434 1759 690 2068 
Q 947 2378 1403 2484 
z
M 1172 3481 
Q 1172 3119 1398 2916 
Q 1625 2713 2034 2713 
Q 2441 2713 2670 2916 
Q 2900 3119 2900 3481 
Q 2900 3844 2670 4047 
Q 2441 4250 2034 4250 
Q 1625 4250 1398 4047 
Q 1172 3844 1172 3481 
z
" transform="scale(0.015625)"/>
       </defs>
       <use xlink:href="#DejaVuSans-30"/>
       <use xlink:href="#DejaVuSans-2e" transform="translate(63.623047 0)"/>
       <use xlink:href="#DejaVuSans-30" transform="translate(95.410156 0)"/>
       <use xlink:href="#DejaVuSans-30" transform="translate(159.033203 0)"/>
       <use xlink:href="#DejaVuSans-38" transform="translate(222.65625 0)"/>
      </g>
     </g>
    </g>
    <g id="text_10">
     <!-- $\omega$ -->
     <g style="fill: #262626" transform="translate(375.376172 406.884062) scale(0.12 -0.12)">
      <defs>
       <path id="DejaVuSans-Oblique-3c9" d="M 1369 -91 
Q 72 -91 434 1766 
Q 575 2500 1256 3500 
L 1875 3500 
Q 1231 2500 1088 1750 
Q 819 397 1519 397 
Q 2166 397 2478 2078 
L 3009 2078 
Q 2669 388 3316 397 
Q 4013 403 4275 1750 
Q 4419 2500 4169 3500 
L 4788 3500 
Q 5075 2500 4934 1766 
Q 4578 -94 3278 -91 
Q 2428 -88 2503 844 
Q 2194 -91 1369 -91 
z
" transform="scale(0.015625)"/>
      </defs>
      <use xlink:href="#DejaVuSans-Oblique-3c9" transform="translate(0 0.3125)"/>
     </g>
    </g>
   </g>
   <g id="matplotlib.axis_2">
    <g id="ytick_1">
     <g id="line2d_10">
      <path d="M 61.46375 335.321313 
L 699.368594 335.321313 
" clip-path="url(#p897a307ba0)" style="fill: none; stroke: #cccccc; stroke-opacity: 0.3; stroke-linecap: round"/>
     </g>
     <g id="text_11">
      <!-- $\mathdefault{10^{7}}$ -->
      <g style="fill: #262626" transform="translate(32.60375 339.500454) scale(0.11 -0.11)">
       <use xlink:href="#DejaVuSans-31" transform="translate(0 0.684375)"/>
       <use xlink:href="#DejaVuSans-30" transform="translate(63.623047 0.684375)"/>
       <use xlink:href="#DejaVuSans-37" transform="translate(128.203125 38.965625) scale(0.7)"/>
      </g>
     </g>
    </g>
    <g id="ytick_2">
     <g id="line2d_11">
      <path d="M 61.46375 295.855373 
L 699.368594 295.855373 
" clip-path="url(#p897a307ba0)" style="fill: none; stroke: #cccccc; stroke-opacity: 0.3; stroke-linecap: round"/>
     </g>
     <g id="text_12">
      <!-- $\mathdefault{10^{26}}$ -->
      <g style="fill: #262626" transform="translate(27.65375 300.034513) scale(0.11 -0.11)">
       <use xlink:href="#DejaVuSans-31" transform="translate(0 0.765625)"/>
       <use xlink:href="#DejaVuSans-30" transform="translate(63.623047 0.765625)"/>
       <use xlink:href="#DejaVuSans-32" transform="translate(128.203125 39.046875) scale(0.7)"/>
       <use xlink:href="#DejaVuSans-36" transform="translate(172.739258 39.046875) scale(0.7)"/>
      </g>
     </g>
    </g>
    <g id="ytick_3">
     <g id="line2d_12">
      <path d="M 61.46375 256.389432 
L 699.368594 256.389432 
" clip-path="url(#p897a307ba0)" style="fill: none; stroke: #cccccc; stroke-opacity: 0.3; stroke-linecap: round"/>
     </g>
     <g id="text_13">
      <!-- $\mathdefault{10^{45}}$ -->
      <g style="fill: #262626" transform="translate(27.65375 260.568573) scale(0.11 -0.11)">
       <use xlink:href="#DejaVuSans-31" transform="translate(0 0.684375)"/>
       <use xlink:href="#DejaVuSans-30" transform="translate(63.623047 0.684375)"/>
       <use xlink:href="#DejaVuSans-34" transform="translate(128.203125 38.965625) scale(0.7)"/>
       <use xlink:href="#DejaVuSans-35" transform="translate(172.739258 38.965625) scale(0.7)"/>
      </g>
     </g>
    </g>
    <g id="ytick_4">
     <g id="line2d_13">
      <path d="M 61.46375 216.923492 
L 699.368594 216.923492 
" clip-path="url(#p897a307ba0)" style="fill: none; stroke: #cccccc; stroke-opacity: 0.3; stroke-linecap: round"/>
     </g>
     <g id="text_14">
      <!-- $\mathdefault{10^{64}}$ -->
      <g style="fill: #262626" transform="translate(27.65375 221.102632) scale(0.11 -0.11)">
       <use xlink:href="#DejaVuSans-31" transform="translate(0 0.765625)"/>
       <use xlink:href="#DejaVuSans-30" transform="translate(63.623047 0.765625)"/>
       <use xlink:href="#DejaVuSans-36" transform="translate(128.203125 39.046875) scale(0.7)"/>
       <use xlink:href="#DejaVuSans-34" transform="translate(172.739258 39.046875) scale(0.7)"/>
      </g>
     </g>
    </g>
    <g id="ytick_5">
     <g id="line2d_14">
      <path d="M 61.46375 177.457551 
L 699.368594 177.457551 
" clip-path="url(#p897a307ba0)" style="fill: none; stroke: #cccccc; stroke-opacity: 0.3; stroke-linecap: round"/>
     </g>
     <g id="text_15">
      <!-- $\mathdefault{10^{83}}$ -->
      <g style="fill: #262626" transform="translate(27.65375 181.636692) scale(0.11 -0.11)">
       <use xlink:href="#DejaVuSans-31" transform="translate(0 0.765625)"/>
       <use xlink:href="#DejaVuSans-30" transform="translate(63.623047 0.765625)"/>
       <use xlink:href="#DejaVuSans-38" transform="translate(128.203125 39.046875) scale(0.7)"/>
       <use xlink:href="#DejaVuSans-33" transform="translate(172.739258 39.046875) scale(0.7)"/>
      </g>
     </g>
    </g>
    <g id="ytick_6">
     <g id="line2d_15">
      <path d="M 61.46375 137.991611 
L 699.368594 137.991611 
" clip-path="url(#p897a307ba0)" style="fill: none; stroke: #cccccc; stroke-opacity: 0.3; stroke-linecap: round"/>
     </g>
     <g id="text_16">
      <!-- $\mathdefault{10^{102}}$ -->
      <g style="fill: #262626" transform="translate(22.81375 142.170751) scale(0.11 -0.11)">
       <use xlink:href="#DejaVuSans-31" transform="translate(0 0.765625)"/>
       <use xlink:href="#DejaVuSans-30" transform="translate(63.623047 0.765625)"/>
       <use xlink:href="#DejaVuSans-31" transform="translate(128.203125 39.046875) scale(0.7)"/>
       <use xlink:href="#DejaVuSans-30" transform="translate(172.739258 39.046875) scale(0.7)"/>
       <use xlink:href="#DejaVuSans-32" transform="translate(217.275391 39.046875) scale(0.7)"/>
      </g>
     </g>
    </g>
    <g id="ytick_7">
     <g id="line2d_16">
      <path d="M 61.46375 98.52567 
L 699.368594 98.52567 
" clip-path="url(#p897a307ba0)" style="fill: none; stroke: #cccccc; stroke-opacity: 0.3; stroke-linecap: round"/>
     </g>
     <g id="text_17">
      <!-- $\mathdefault{10^{121}}$ -->
      <g style="fill: #262626" transform="translate(22.81375 102.704811) scale(0.11 -0.11)">
       <use xlink:href="#DejaVuSans-31" transform="translate(0 0.765625)"/>
       <use xlink:href="#DejaVuSans-30" transform="translate(63.623047 0.765625)"/>
       <use xlink:href="#DejaVuSans-31" transform="translate(128.203125 39.046875) scale(0.7)"/>
       <use xlink:href="#DejaVuSans-32" transform="translate(172.739258 39.046875) scale(0.7)"/>
       <use xlink:href="#DejaVuSans-31" transform="translate(217.275391 39.046875) scale(0.7)"/>
      </g>
     </g>
    </g>
    <g id="ytick_8">
     <g id="line2d_17">
      <path d="M 61.46375 59.059729 
L 699.368594 59.059729 
" clip-path="url(#p897a307ba0)" style="fill: none; stroke: #cccccc; stroke-opacity: 0.3; stroke-linecap: round"/>
     </g>
     <g id="text_18">
      <!-- $\mathdefault{10^{140}}$ -->
      <g style="fill: #262626" transform="translate(22.81375 63.23887) scale(0.11 -0.11)">
       <use xlink:href="#DejaVuSans-31" transform="translate(0 0.765625)"/>
       <use xlink:href="#DejaVuSans-30" transform="translate(63.623047 0.765625)"/>
       <use xlink:href="#DejaVuSans-31" transform="translate(128.203125 39.046875) scale(0.7)"/>
       <use xlink:href="#DejaVuSans-34" transform="translate(172.739258 39.046875) scale(0.7)"/>
       <use xlink:href="#DejaVuSans-30" transform="translate(217.275391 39.046875) scale(0.7)"/>
      </g>
     </g>
    </g>
    <g id="text_19">
     <!-- $\Delta\omega$ -->
     <g style="fill: #262626" transform="translate(16.318125 207.15) rotate(-90) scale(0.12 -0.12)">
      <defs>
       <path id="DejaVuSans-394" d="M 2188 4044 
L 906 525 
L 3472 525 
L 2188 4044 
z
M 50 0 
L 1831 4666 
L 2547 4666 
L 4325 0 
L 50 0 
z
" transform="scale(0.015625)"/>
      </defs>
      <use xlink:href="#DejaVuSans-394" transform="translate(0 0.09375)"/>
      <use xlink:href="#DejaVuSans-Oblique-3c9" transform="translate(68.408203 0.09375)"/>
     </g>
    </g>
   </g>
   <g id="line2d_18">
    <path d="M 90.459425 38.288182 
L 102.294394 354.940171 
L 114.129363 355.252719 
L 125.964333 355.332684 
L 137.799302 355.349911 
L 149.634271 355.343913 
L 161.46924 355.327275 
L 173.30421 355.303947 
L 185.139179 355.274828 
L 196.974148 355.240145 
L 208.809118 355.200234 
L 220.644087 355.15565 
L 232.479056 355.107117 
L 244.314025 355.05544 
L 256.148995 355.001423 
L 267.983964 354.945799 
L 279.818933 354.88919 
L 291.653902 354.832108 
L 303.488872 354.774988 
L 315.323841 354.71823 
L 327.15881 354.662227 
L 338.99378 354.607345 
L 350.828749 354.553863 
L 362.663718 354.501891 
L 374.498687 354.451306 
L 386.333657 354.401745 
L 398.168626 354.352678 
L 410.003595 354.303533 
L 421.838565 354.25383 
L 433.673534 354.20326 
L 445.508503 354.151676 
L 457.343472 354.098983 
L 469.178442 354.04498 
L 481.013411 353.989211 
L 492.84838 353.930916 
L 504.68335 353.869114 
L 516.518319 353.802798 
L 528.353288 353.731154 
L 540.188257 353.653706 
L 552.023227 353.570256 
L 563.858196 353.48054 
L 575.693165 353.383563 
L 587.528134 353.276692 
L 599.363104 353.154628 
L 611.198073 353.008179 
L 623.033042 352.822077 
L 634.868012 352.569215 
L 646.702981 352.191652 
L 658.53795 351.519928 
L 670.372919 350.970475 
" clip-path="url(#p897a307ba0)" style="fill: none; stroke: #463480; stroke-width: 1.5; stroke-linecap: round"/>
   </g>
   <g id="line2d_19">
    <path d="M 61.46375 355.477113 
L 699.368594 355.477113 
" clip-path="url(#p897a307ba0)" style="fill: none; stroke-dasharray: 3.7,1.6; stroke-dashoffset: 0; stroke: #463480; stroke-opacity: 0.6"/>
   </g>
   <g id="line2d_20">
    <path d="M 90.459425 38.288182 
L 102.294394 356.271877 
L 114.129363 356.224734 
L 125.964333 356.15479 
L 137.799302 356.06029 
L 149.634271 355.946882 
L 161.46924 355.827033 
L 173.30421 355.710623 
L 185.139179 355.603369 
L 196.974148 355.506635 
L 208.809118 355.417665 
L 220.644087 355.333253 
L 232.479056 355.252439 
L 244.314025 355.175115 
L 256.148995 355.101342 
L 267.983964 355.031327 
L 279.818933 354.964651 
L 291.653902 354.90121 
L 303.488872 354.841421 
L 315.323841 354.783628 
L 327.15881 354.724856 
L 338.99378 354.664465 
L 350.828749 354.604163 
L 362.663718 354.546522 
L 374.498687 354.492611 
L 386.333657 354.440601 
L 398.168626 354.390944 
L 410.003595 354.341465 
L 421.838565 354.288026 
L 433.673534 354.230126 
L 445.508503 354.172668 
L 457.343472 354.118725 
L 469.178442 354.066763 
L 481.013411 354.017347 
L 492.84838 353.971485 
L 504.68335 353.923422 
L 516.518319 353.86785 
L 528.353288 353.807743 
L 540.188257 353.744176 
L 552.023227 353.669418 
L 563.858196 353.580818 
L 575.693165 353.491236 
L 587.528134 353.412072 
L 599.363104 353.324793 
L 611.198073 353.189582 
L 623.033042 352.991853 
L 634.868012 352.778958 
L 646.702981 352.572655 
L 658.53795 352.209341 
L 670.372919 351.495246 
" clip-path="url(#p897a307ba0)" style="fill: none; stroke: #3e4c8a; stroke-width: 1.5; stroke-linecap: round"/>
   </g>
   <g id="line2d_21">
    <path d="M 61.46375 356.329261 
L 699.368594 356.329261 
" clip-path="url(#p897a307ba0)" style="fill: none; stroke-dasharray: 3.7,1.6; stroke-dashoffset: 0; stroke: #3e4c8a; stroke-opacity: 0.6"/>
   </g>
   <g id="line2d_22">
    <path d="M 90.459425 38.288182 
L 102.294394 356.673912 
L 114.129363 356.559778 
L 125.964333 356.395038 
L 137.799302 356.211377 
L 149.634271 356.044656 
L 161.46924 355.900682 
L 173.30421 355.770757 
L 185.139179 355.651293 
L 196.974148 355.543082 
L 208.809118 355.445269 
L 220.644087 355.353592 
L 232.479056 355.269252 
L 244.314025 355.191667 
L 256.148995 355.11667 
L 267.983964 355.043606 
L 279.818933 354.975128 
L 291.653902 354.912724 
L 303.488872 354.852962 
L 315.323841 354.793336 
L 327.15881 354.733714 
L 338.99378 354.676376 
L 350.828749 354.624625 
L 362.663718 354.56932 
L 374.498687 354.514002 
L 386.333657 354.472454 
L 398.168626 354.428552 
L 410.003595 354.372244 
L 421.838565 354.317058 
L 433.673534 354.253029 
L 445.508503 354.190939 
L 457.343472 354.148245 
L 469.178442 354.107753 
L 481.013411 354.059665 
L 492.84838 354.006187 
L 504.68335 353.939388 
L 516.518319 353.879411 
L 528.353288 353.829511 
L 540.188257 353.763448 
L 552.023227 353.69016 
L 563.858196 353.615448 
L 575.693165 353.543779 
L 587.528134 353.409819 
L 599.363104 353.31547 
L 611.198073 353.23315 
L 623.033042 353.044618 
L 634.868012 352.852702 
L 646.702981 352.624341 
L 658.53795 352.468421 
L 670.372919 351.880326 
" clip-path="url(#p897a307ba0)" style="fill: none; stroke: #34618d; stroke-width: 1.5; stroke-linecap: round"/>
   </g>
   <g id="line2d_23">
    <path d="M 61.46375 356.751038 
L 699.368594 356.751038 
" clip-path="url(#p897a307ba0)" style="fill: none; stroke-dasharray: 3.7,1.6; stroke-dashoffset: 0; stroke: #34618d; stroke-opacity: 0.6"/>
   </g>
   <g id="line2d_24">
    <path d="M 90.459425 38.288182 
L 102.294394 356.921736 
L 114.129363 356.725992 
L 125.964333 356.4769 
L 137.799302 356.261163 
L 149.634271 356.081215 
L 161.46924 355.922872 
L 173.30421 355.785056 
L 185.139179 355.66181 
L 196.974148 355.551341 
L 208.809118 355.4526 
L 220.644087 355.360019 
L 232.479056 355.275234 
L 244.314025 355.196503 
L 256.148995 355.120365 
L 267.983964 355.047481 
L 279.818933 354.981389 
L 291.653902 354.915885 
L 303.488872 354.854015 
L 315.323841 354.795373 
L 327.15881 354.740591 
L 338.99378 354.688504 
L 350.828749 354.642176 
L 362.663718 354.595113 
L 374.498687 354.542246 
L 386.333657 354.473086 
L 398.168626 354.42507 
L 410.003595 354.379654 
L 421.838565 354.321842 
L 433.673534 354.27836 
L 445.508503 354.230282 
L 457.343472 354.18399 
L 469.178442 354.113792 
L 481.013411 354.049896 
L 492.84838 354.015974 
L 504.68335 353.957324 
L 516.518319 353.896897 
L 528.353288 353.83594 
L 540.188257 353.780732 
L 552.023227 353.703645 
L 563.858196 353.629067 
L 575.693165 353.556998 
L 587.528134 353.479264 
L 599.363104 353.328515 
L 611.198073 353.277789 
L 623.033042 353.071067 
L 634.868012 352.89283 
L 646.702981 352.677648 
L 658.53795 352.515462 
L 670.372919 352.008045 
" clip-path="url(#p897a307ba0)" style="fill: none; stroke: #2b748e; stroke-width: 1.5; stroke-linecap: round"/>
   </g>
   <g id="line2d_25">
    <path d="M 61.46375 357.036139 
L 699.368594 357.036139 
" clip-path="url(#p897a307ba0)" style="fill: none; stroke-dasharray: 3.7,1.6; stroke-dashoffset: 0; stroke: #2b748e; stroke-opacity: 0.6"/>
   </g>
   <g id="line2d_26">
    <path d="M 90.459425 38.288182 
L 102.294394 357.09464 
L 114.129363 356.807127 
L 125.964333 356.517027 
L 137.799302 356.286931 
L 149.634271 356.092468 
L 161.46924 355.931047 
L 173.30421 355.789168 
L 185.139179 355.667034 
L 196.974148 355.556386 
L 208.809118 355.455532 
L 220.644087 355.361083 
L 232.479056 355.278787 
L 244.314025 355.200108 
L 256.148995 355.120838 
L 267.983964 355.049412 
L 279.818933 354.983526 
L 291.653902 354.920305 
L 303.488872 354.856619 
L 315.323841 354.806152 
L 327.15881 354.748919 
L 338.99378 354.69303 
L 350.828749 354.643629 
L 362.663718 354.585858 
L 374.498687 354.542484 
L 386.333657 354.505096 
L 398.168626 354.42229 
L 410.003595 354.378962 
L 421.838565 354.317063 
L 433.673534 354.291742 
L 445.508503 354.229994 
L 457.343472 354.163824 
L 469.178442 354.128639 
L 481.013411 354.08444 
L 492.84838 354.018082 
L 504.68335 353.962405 
L 516.518319 353.907186 
L 528.353288 353.847971 
L 540.188257 353.799036 
L 552.023227 353.725241 
L 563.858196 353.677072 
L 575.693165 353.561711 
L 587.528134 353.48952 
L 599.363104 353.362672 
L 611.198073 353.306901 
L 623.033042 353.122068 
L 634.868012 352.941445 
L 646.702981 352.756469 
L 658.53795 352.578518 
L 670.372919 351.983404 
" clip-path="url(#p897a307ba0)" style="fill: none; stroke: #24878e; stroke-width: 1.5; stroke-linecap: round"/>
   </g>
   <g id="line2d_27">
    <path d="M 61.46375 357.252079 
L 699.368594 357.252079 
" clip-path="url(#p897a307ba0)" style="fill: none; stroke-dasharray: 3.7,1.6; stroke-dashoffset: 0; stroke: #24878e; stroke-opacity: 0.6"/>
   </g>
   <g id="line2d_28">
    <path d="M 90.459425 38.288182 
L 102.294394 357.205306 
L 114.129363 356.850974 
L 125.964333 356.540888 
L 137.799302 356.297487 
L 149.634271 356.099696 
L 161.46924 355.932307 
L 173.30421 355.79256 
L 185.139179 355.666787 
L 196.974148 355.556136 
L 208.809118 355.453066 
L 220.644087 355.362369 
L 232.479056 355.278871 
L 244.314025 355.193073 
L 256.148995 355.119576 
L 267.983964 355.051892 
L 279.818933 354.983952 
L 291.653902 354.931671 
L 303.488872 354.869745 
L 315.323841 354.803807 
L 327.15881 354.760397 
L 338.99378 354.714149 
L 350.828749 354.665802 
L 362.663718 354.612008 
L 374.498687 354.574228 
L 386.333657 354.551314 
L 398.168626 354.460937 
L 410.003595 354.442251 
L 421.838565 354.391434 
L 433.673534 354.311693 
L 445.508503 354.28319 
L 457.343472 354.256235 
L 469.178442 354.172946 
L 481.013411 354.139821 
L 492.84838 354.089134 
L 504.68335 354.025975 
L 516.518319 353.979623 
L 528.353288 353.926533 
L 540.188257 353.867329 
L 552.023227 353.816111 
L 563.858196 353.785926 
L 575.693165 353.680526 
L 587.528134 353.625178 
L 599.363104 353.538358 
L 611.198073 353.361949 
L 623.033042 353.286948 
L 634.868012 353.107599 
L 646.702981 352.982182 
L 658.53795 352.822579 
L 670.372919 352.354843 
" clip-path="url(#p897a307ba0)" style="fill: none; stroke: #1f998a; stroke-width: 1.5; stroke-linecap: round"/>
   </g>
   <g id="line2d_29">
    <path d="M 61.46375 357.408417 
L 699.368594 357.408417 
" clip-path="url(#p897a307ba0)" style="fill: none; stroke-dasharray: 3.7,1.6; stroke-dashoffset: 0; stroke: #1f998a; stroke-opacity: 0.6"/>
   </g>
   <g id="line2d_30">
    <path d="M 90.459425 38.288182 
L 102.294394 357.273933 
L 114.129363 356.879496 
L 125.964333 356.552522 
L 137.799302 356.301576 
L 149.634271 356.099688 
L 161.46924 355.92869 
L 173.30421 355.789455 
L 185.139179 355.662838 
L 196.974148 355.553284 
L 208.809118 355.449008 
L 220.644087 355.35991 
L 232.479056 355.279254 
L 244.314025 355.189038 
L 256.148995 355.118032 
L 267.983964 355.055037 
L 279.818933 354.987559 
L 291.653902 354.946448 
L 303.488872 354.888867 
L 315.323841 354.819572 
L 327.15881 354.787642 
L 338.99378 354.749887 
L 350.828749 354.710684 
L 362.663718 354.658665 
L 374.498687 354.633135 
L 386.333657 354.628577 
L 398.168626 354.521383 
L 410.003595 354.527455 
L 421.838565 354.484662 
L 433.673534 354.388728 
L 445.508503 354.376577 
L 457.343472 354.369156 
L 469.178442 354.270697 
L 481.013411 354.255103 
L 492.84838 354.212859 
L 504.68335 354.149691 
L 516.518319 354.116505 
L 528.353288 354.077455 
L 540.188257 354.022134 
L 552.023227 353.988218 
L 563.858196 353.989207 
L 575.693165 353.873583 
L 587.528134 353.83134 
L 599.363104 353.752863 
L 611.198073 353.571389 
L 623.033042 353.534981 
L 634.868012 353.369549 
L 646.702981 353.322456 
L 658.53795 353.209035 
L 670.372919 352.809261 
" clip-path="url(#p897a307ba0)" style="fill: none; stroke: #25ac82; stroke-width: 1.5; stroke-linecap: round"/>
   </g>
   <g id="line2d_31">
    <path d="M 61.46375 357.51292 
L 699.368594 357.51292 
" clip-path="url(#p897a307ba0)" style="fill: none; stroke-dasharray: 3.7,1.6; stroke-dashoffset: 0; stroke: #25ac82; stroke-opacity: 0.6"/>
   </g>
   <g id="line2d_32">
    <path d="M 90.459425 38.288182 
L 102.294394 357.322669 
L 114.129363 356.896986 
L 125.964333 356.558634 
L 137.799302 356.302158 
L 149.634271 356.097131 
L 161.46924 355.922948 
L 173.30421 355.785174 
L 185.139179 355.658394 
L 196.974148 355.550844 
L 208.809118 355.445746 
L 220.644087 355.358825 
L 232.479056 355.281946 
L 244.314025 355.186719 
L 256.148995 355.118805 
L 267.983964 355.061745 
L 279.818933 354.994445 
L 291.653902 354.965893 
L 303.488872 354.914521 
L 315.323841 354.841431 
L 327.15881 354.820236 
L 338.99378 354.790571 
L 350.828749 354.761055 
L 362.663718 354.710168 
L 374.498687 354.696575 
L 386.333657 354.706264 
L 398.168626 354.585458 
L 410.003595 354.61418 
L 421.838565 354.579677 
L 433.673534 354.467914 
L 445.508503 354.468636 
L 457.343472 354.47825 
L 469.178442 354.36481 
L 481.013411 354.364832 
L 492.84838 354.329895 
L 504.68335 354.263758 
L 516.518319 354.241397 
L 528.353288 354.216277 
L 540.188257 354.158962 
L 552.023227 354.139414 
L 563.858196 354.167106 
L 575.693165 354.041013 
L 587.528134 354.004042 
L 599.363104 353.930687 
L 611.198073 353.747722 
L 623.033042 353.741031 
L 634.868012 353.580058 
L 646.702981 353.591849 
L 658.53795 353.499938 
L 670.372919 353.141388 
" clip-path="url(#p897a307ba0)" style="fill: none; stroke: #40bd72; stroke-width: 1.5; stroke-linecap: round"/>
   </g>
   <g id="line2d_33">
    <path d="M 61.46375 357.591603 
L 699.368594 357.591603 
" clip-path="url(#p897a307ba0)" style="fill: none; stroke-dasharray: 3.7,1.6; stroke-dashoffset: 0; stroke: #40bd72; stroke-opacity: 0.6"/>
   </g>
   <g id="line2d_34">
    <path d="M 90.459425 38.288182 
L 102.294394 357.357897 
L 114.129363 356.907543 
L 125.964333 356.561428 
L 137.799302 356.300689 
L 149.634271 356.093169 
L 161.46924 355.916127 
L 173.30421 355.780602 
L 185.139179 355.654244 
L 196.974148 355.549291 
L 208.809118 355.443784 
L 220.644087 355.359429 
L 232.479056 355.286808 
L 244.314025 355.186491 
L 256.148995 355.121826 
L 267.983964 355.071305 
L 279.818933 355.003831 
L 291.653902 354.987884 
L 303.488872 354.943844 
L 315.323841 354.867179 
L 327.15881 354.854534 
L 338.99378 354.83179 
L 350.828749 354.811249 
L 362.663718 354.760887 
L 374.498687 354.758189 
L 386.333657 354.777299 
L 398.168626 354.646655 
L 410.003595 354.694312 
L 421.838565 354.667269 
L 433.673534 354.541838 
L 445.508503 354.551618 
L 457.343472 354.575313 
L 469.178442 354.448229 
L 481.013411 354.461842 
L 492.84838 354.433087 
L 504.68335 354.361987 
L 516.518319 354.348463 
L 528.353288 354.337099 
L 540.188257 354.273784 
L 552.023227 354.266255 
L 563.858196 354.316433 
L 575.693165 354.181179 
L 587.528134 354.145384 
L 599.363104 354.07612 
L 611.198073 353.893932 
L 623.033042 353.910794 
L 634.868012 353.748285 
L 646.702981 353.804543 
L 658.53795 353.723034 
L 670.372919 353.393473 
" clip-path="url(#p897a307ba0)" style="fill: none; stroke: #69cd5b; stroke-width: 1.5; stroke-linecap: round"/>
   </g>
   <g id="line2d_35">
    <path d="M 61.46375 357.651818 
L 699.368594 357.651818 
" clip-path="url(#p897a307ba0)" style="fill: none; stroke-dasharray: 3.7,1.6; stroke-dashoffset: 0; stroke: #69cd5b; stroke-opacity: 0.6"/>
   </g>
   <g id="line2d_36">
    <path d="M 90.459425 38.288182 
L 102.294394 357.383704 
L 114.129363 356.913587 
L 125.964333 356.562151 
L 137.799302 356.298025 
L 149.634271 356.088499 
L 161.46924 355.908874 
L 173.30421 355.776232 
L 185.139179 355.650744 
L 196.974148 355.548683 
L 208.809118 355.443138 
L 220.644087 355.361571 
L 232.479056 355.293312 
L 244.314025 355.188199 
L 256.148995 355.126589 
L 267.983964 355.082687 
L 279.818933 355.014742 
L 291.653902 355.010612 
L 303.488872 354.974338 
L 315.323841 354.894742 
L 327.15881 354.888095 
L 338.99378 354.870935 
L 350.828749 354.858137 
L 362.663718 354.807862 
L 374.498687 354.814922 
L 386.333657 354.839439 
L 398.168626 354.702121 
L 410.003595 354.765114 
L 421.838565 354.744392 
L 433.673534 354.607803 
L 445.508503 354.623533 
L 457.343472 354.658836 
L 469.178442 354.51963 
L 481.013411 354.545214 
L 492.84838 354.521686 
L 504.68335 354.444558 
L 516.518319 354.438412 
L 528.353288 354.440489 
L 540.188257 354.368805 
L 552.023227 354.371557 
L 563.858196 354.440589 
L 575.693165 354.297643 
L 587.528134 354.261156 
L 599.363104 354.195694 
L 611.198073 354.015461 
L 623.033042 354.051469 
L 634.868012 353.884042 
L 646.702981 353.974318 
L 658.53795 353.897801 
L 670.372919 353.590448 
" clip-path="url(#p897a307ba0)" style="fill: none; stroke: #9bd93c; stroke-width: 1.5; stroke-linecap: round"/>
   </g>
   <g id="line2d_37">
    <path d="M 61.46375 357.698608 
L 699.368594 357.698608 
" clip-path="url(#p897a307ba0)" style="fill: none; stroke-dasharray: 3.7,1.6; stroke-dashoffset: 0; stroke: #9bd93c; stroke-opacity: 0.6"/>
   </g>
   <g id="patch_3">
    <path d="M 61.46375 373.62 
L 61.46375 22.32 
" style="fill: none; stroke: #cccccc; stroke-width: 1.25; stroke-linejoin: miter; stroke-linecap: square"/>
   </g>
   <g id="patch_4">
    <path d="M 699.368594 373.62 
L 699.368594 22.32 
" style="fill: none; stroke: #cccccc; stroke-width: 1.25; stroke-linejoin: miter; stroke-linecap: square"/>
   </g>
   <g id="patch_5">
    <path d="M 61.46375 373.62 
L 699.368594 373.62 
" style="fill: none; stroke: #cccccc; stroke-width: 1.25; stroke-linejoin: miter; stroke-linecap: square"/>
   </g>
   <g id="patch_6">
    <path d="M 61.46375 22.32 
L 699.368594 22.32 
" style="fill: none; stroke: #cccccc; stroke-width: 1.25; stroke-linejoin: miter; stroke-linecap: square"/>
   </g>
   <g id="text_20">
    <!-- Cavity-Enhanced TMSV MZI ($\mathcal{F} = 20.0$) -->
    <g style="fill: #262626" transform="translate(266.716172 16.32) scale(0.12 -0.12)">
     <defs>
      <path id="DejaVuSans-43" d="M 4122 4306 
L 4122 3641 
Q 3803 3938 3442 4084 
Q 3081 4231 2675 4231 
Q 1875 4231 1450 3742 
Q 1025 3253 1025 2328 
Q 1025 1406 1450 917 
Q 1875 428 2675 428 
Q 3081 428 3442 575 
Q 3803 722 4122 1019 
L 4122 359 
Q 3791 134 3420 21 
Q 3050 -91 2638 -91 
Q 1578 -91 968 557 
Q 359 1206 359 2328 
Q 359 3453 968 4101 
Q 1578 4750 2638 4750 
Q 3056 4750 3426 4639 
Q 3797 4528 4122 4306 
z
" transform="scale(0.015625)"/>
      <path id="DejaVuSans-61" d="M 2194 1759 
Q 1497 1759 1228 1600 
Q 959 1441 959 1056 
Q 959 750 1161 570 
Q 1363 391 1709 391 
Q 2188 391 2477 730 
Q 2766 1069 2766 1631 
L 2766 1759 
L 2194 1759 
z
M 3341 1997 
L 3341 0 
L 2766 0 
L 2766 531 
Q 2569 213 2275 61 
Q 1981 -91 1556 -91 
Q 1019 -91 701 211 
Q 384 513 384 1019 
Q 384 1609 779 1909 
Q 1175 2209 1959 2209 
L 2766 2209 
L 2766 2266 
Q 2766 2663 2505 2880 
Q 2244 3097 1772 3097 
Q 1472 3097 1187 3025 
Q 903 2953 641 2809 
L 641 3341 
Q 956 3463 1253 3523 
Q 1550 3584 1831 3584 
Q 2591 3584 2966 3190 
Q 3341 2797 3341 1997 
z
" transform="scale(0.015625)"/>
      <path id="DejaVuSans-76" d="M 191 3500 
L 800 3500 
L 1894 563 
L 2988 3500 
L 3597 3500 
L 2284 0 
L 1503 0 
L 191 3500 
z
" transform="scale(0.015625)"/>
      <path id="DejaVuSans-69" d="M 603 3500 
L 1178 3500 
L 1178 0 
L 603 0 
L 603 3500 
z
M 603 4863 
L 1178 4863 
L 1178 4134 
L 603 4134 
L 603 4863 
z
" transform="scale(0.015625)"/>
      <path id="DejaVuSans-74" d="M 1172 4494 
L 1172 3500 
L 2356 3500 
L 2356 3053 
L 1172 3053 
L 1172 1153 
Q 1172 725 1289 603 
Q 1406 481 1766 481 
L 2356 481 
L 2356 0 
L 1766 0 
Q 1100 0 847 248 
Q 594 497 594 1153 
L 594 3053 
L 172 3053 
L 172 3500 
L 594 3500 
L 594 4494 
L 1172 4494 
z
" transform="scale(0.015625)"/>
      <path id="DejaVuSans-79" d="M 2059 -325 
Q 1816 -950 1584 -1140 
Q 1353 -1331 966 -1331 
L 506 -1331 
L 506 -850 
L 844 -850 
Q 1081 -850 1212 -737 
Q 1344 -625 1503 -206 
L 1606 56 
L 191 3500 
L 800 3500 
L 1894 763 
L 2988 3500 
L 3597 3500 
L 2059 -325 
z
" transform="scale(0.015625)"/>
      <path id="DejaVuSans-2d" d="M 313 2009 
L 1997 2009 
L 1997 1497 
L 313 1497 
L 313 2009 
z
" transform="scale(0.015625)"/>
      <path id="DejaVuSans-45" d="M 628 4666 
L 3578 4666 
L 3578 4134 
L 1259 4134 
L 1259 2753 
L 3481 2753 
L 3481 2222 
L 1259 2222 
L 1259 531 
L 3634 531 
L 3634 0 
L 628 0 
L 628 4666 
z
" transform="scale(0.015625)"/>
      <path id="DejaVuSans-6e" d="M 3513 2113 
L 3513 0 
L 2938 0 
L 2938 2094 
Q 2938 2591 2744 2837 
Q 2550 3084 2163 3084 
Q 1697 3084 1428 2787 
Q 1159 2491 1159 1978 
L 1159 0 
L 581 0 
L 581 3500 
L 1159 3500 
L 1159 2956 
Q 1366 3272 1645 3428 
Q 1925 3584 2291 3584 
Q 2894 3584 3203 3211 
Q 3513 2838 3513 2113 
z
" transform="scale(0.015625)"/>
      <path id="DejaVuSans-68" d="M 3513 2113 
L 3513 0 
L 2938 0 
L 2938 2094 
Q 2938 2591 2744 2837 
Q 2550 3084 2163 3084 
Q 1697 3084 1428 2787 
Q 1159 2491 1159 1978 
L 1159 0 
L 581 0 
L 581 4863 
L 1159 4863 
L 1159 2956 
Q 1366 3272 1645 3428 
Q 1925 3584 2291 3584 
Q 2894 3584 3203 3211 
Q 3513 2838 3513 2113 
z
" transform="scale(0.015625)"/>
      <path id="DejaVuSans-63" d="M 3122 3366 
L 3122 2828 
Q 2878 2963 2633 3030 
Q 2388 3097 2138 3097 
Q 1578 3097 1268 2742 
Q 959 2388 959 1747 
Q 959 1106 1268 751 
Q 1578 397 2138 397 
Q 2388 397 2633 464 
Q 2878 531 3122 666 
L 3122 134 
Q 2881 22 2623 -34 
Q 2366 -91 2075 -91 
Q 1284 -91 818 406 
Q 353 903 353 1747 
Q 353 2603 823 3093 
Q 1294 3584 2113 3584 
Q 2378 3584 2631 3529 
Q 2884 3475 3122 3366 
z
" transform="scale(0.015625)"/>
      <path id="DejaVuSans-65" d="M 3597 1894 
L 3597 1613 
L 953 1613 
Q 991 1019 1311 708 
Q 1631 397 2203 397 
Q 2534 397 2845 478 
Q 3156 559 3463 722 
L 3463 178 
Q 3153 47 2828 -22 
Q 2503 -91 2169 -91 
Q 1331 -91 842 396 
Q 353 884 353 1716 
Q 353 2575 817 3079 
Q 1281 3584 2069 3584 
Q 2775 3584 3186 3129 
Q 3597 2675 3597 1894 
z
M 3022 2063 
Q 3016 2534 2758 2815 
Q 2500 3097 2075 3097 
Q 1594 3097 1305 2825 
Q 1016 2553 972 2059 
L 3022 2063 
z
" transform="scale(0.015625)"/>
      <path id="DejaVuSans-64" d="M 2906 2969 
L 2906 4863 
L 3481 4863 
L 3481 0 
L 2906 0 
L 2906 525 
Q 2725 213 2448 61 
Q 2172 -91 1784 -91 
Q 1150 -91 751 415 
Q 353 922 353 1747 
Q 353 2572 751 3078 
Q 1150 3584 1784 3584 
Q 2172 3584 2448 3432 
Q 2725 3281 2906 2969 
z
M 947 1747 
Q 947 1113 1208 752 
Q 1469 391 1925 391 
Q 2381 391 2643 752 
Q 2906 1113 2906 1747 
Q 2906 2381 2643 2742 
Q 2381 3103 1925 3103 
Q 1469 3103 1208 2742 
Q 947 2381 947 1747 
z
" transform="scale(0.015625)"/>
      <path id="DejaVuSans-20" transform="scale(0.015625)"/>
      <path id="DejaVuSans-54" d="M -19 4666 
L 3928 4666 
L 3928 4134 
L 2272 4134 
L 2272 0 
L 1638 0 
L 1638 4134 
L -19 4134 
L -19 4666 
z
" transform="scale(0.015625)"/>
      <path id="DejaVuSans-4d" d="M 628 4666 
L 1569 4666 
L 2759 1491 
L 3956 4666 
L 4897 4666 
L 4897 0 
L 4281 0 
L 4281 4097 
L 3078 897 
L 2444 897 
L 1241 4097 
L 1241 0 
L 628 0 
L 628 4666 
z
" transform="scale(0.015625)"/>
      <path id="DejaVuSans-53" d="M 3425 4513 
L 3425 3897 
Q 3066 4069 2747 4153 
Q 2428 4238 2131 4238 
Q 1616 4238 1336 4038 
Q 1056 3838 1056 3469 
Q 1056 3159 1242 3001 
Q 1428 2844 1947 2747 
L 2328 2669 
Q 3034 2534 3370 2195 
Q 3706 1856 3706 1288 
Q 3706 609 3251 259 
Q 2797 -91 1919 -91 
Q 1588 -91 1214 -16 
Q 841 59 441 206 
L 441 856 
Q 825 641 1194 531 
Q 1563 422 1919 422 
Q 2459 422 2753 634 
Q 3047 847 3047 1241 
Q 3047 1584 2836 1778 
Q 2625 1972 2144 2069 
L 1759 2144 
Q 1053 2284 737 2584 
Q 422 2884 422 3419 
Q 422 4038 858 4394 
Q 1294 4750 2059 4750 
Q 2388 4750 2728 4690 
Q 3069 4631 3425 4513 
z
" transform="scale(0.015625)"/>
      <path id="DejaVuSans-56" d="M 1831 0 
L 50 4666 
L 709 4666 
L 2188 738 
L 3669 4666 
L 4325 4666 
L 2547 0 
L 1831 0 
z
" transform="scale(0.015625)"/>
      <path id="DejaVuSans-5a" d="M 359 4666 
L 4025 4666 
L 4025 4184 
L 1075 531 
L 4097 531 
L 4097 0 
L 288 0 
L 288 481 
L 3238 4134 
L 359 4134 
L 359 4666 
z
" transform="scale(0.015625)"/>
      <path id="DejaVuSans-49" d="M 628 4666 
L 1259 4666 
L 1259 0 
L 628 0 
L 628 4666 
z
" transform="scale(0.015625)"/>
      <path id="DejaVuSans-28" d="M 1984 4856 
Q 1566 4138 1362 3434 
Q 1159 2731 1159 2009 
Q 1159 1288 1364 580 
Q 1569 -128 1984 -844 
L 1484 -844 
Q 1016 -109 783 600 
Q 550 1309 550 2009 
Q 550 2706 781 3412 
Q 1013 4119 1484 4856 
L 1984 4856 
z
" transform="scale(0.015625)"/>
      <path id="STIXNonUnicode-Italic-e232" d="M 378 3418 
L 275 3533 
Q 730 3955 1174 4096 
Q 1619 4237 2163 4237 
Q 2714 4237 3110 4208 
Q 3507 4179 3849 4099 
Q 4192 4019 4368 3868 
Q 4544 3718 4544 3488 
Q 4544 3270 4429 3123 
Q 4314 2976 4109 2976 
Q 3962 2976 3853 3062 
Q 3744 3149 3744 3277 
Q 3744 3398 3792 3465 
Q 3840 3533 3897 3549 
Q 3955 3565 4000 3593 
Q 4045 3622 4045 3680 
Q 4045 3808 3696 3894 
Q 3347 3981 2893 3981 
Q 2694 3981 2608 3920 
Q 2522 3859 2464 3667 
L 2099 2413 
L 3494 2413 
L 3411 2157 
L 2029 2157 
L 1747 1203 
Q 1626 787 1491 537 
Q 1357 288 1174 173 
Q 992 58 829 29 
Q 666 0 384 0 
L 435 154 
Q 608 154 726 288 
Q 845 422 934 742 
L 1690 3334 
Q 1754 3558 1754 3667 
Q 1754 3776 1690 3827 
Q 1626 3878 1459 3878 
Q 858 3878 378 3418 
z
" transform="scale(0.015625)"/>
      <path id="DejaVuSans-3d" d="M 678 2906 
L 4684 2906 
L 4684 2381 
L 678 2381 
L 678 2906 
z
M 678 1631 
L 4684 1631 
L 4684 1100 
L 678 1100 
L 678 1631 
z
" transform="scale(0.015625)"/>
      <path id="DejaVuSans-29" d="M 513 4856 
L 1013 4856 
Q 1481 4119 1714 3412 
Q 1947 2706 1947 2009 
Q 1947 1309 1714 600 
Q 1481 -109 1013 -844 
L 513 -844 
Q 928 -128 1133 580 
Q 1338 1288 1338 2009 
Q 1338 2731 1133 3434 
Q 928 4138 513 4856 
z
" transform="scale(0.015625)"/>
     </defs>
     <use xlink:href="#DejaVuSans-43" transform="translate(0 0.015625)"/>
     <use xlink:href="#DejaVuSans-61" transform="translate(69.824219 0.015625)"/>
     <use xlink:href="#DejaVuSans-76" transform="translate(131.103516 0.015625)"/>
     <use xlink:href="#DejaVuSans-69" transform="translate(190.283203 0.015625)"/>
     <use xlink:href="#DejaVuSans-74" transform="translate(218.066406 0.015625)"/>
     <use xlink:href="#DejaVuSans-79" transform="translate(257.275391 0.015625)"/>
     <use xlink:href="#DejaVuSans-2d" transform="translate(316.455078 0.015625)"/>
     <use xlink:href="#DejaVuSans-45" transform="translate(352.539062 0.015625)"/>
     <use xlink:href="#DejaVuSans-6e" transform="translate(415.722656 0.015625)"/>
     <use xlink:href="#DejaVuSans-68" transform="translate(479.101562 0.015625)"/>
     <use xlink:href="#DejaVuSans-61" transform="translate(542.480469 0.015625)"/>
     <use xlink:href="#DejaVuSans-6e" transform="translate(603.759766 0.015625)"/>
     <use xlink:href="#DejaVuSans-63" transform="translate(667.138672 0.015625)"/>
     <use xlink:href="#DejaVuSans-65" transform="translate(722.119141 0.015625)"/>
     <use xlink:href="#DejaVuSans-64" transform="translate(783.642578 0.015625)"/>
     <use xlink:href="#DejaVuSans-20" transform="translate(847.119141 0.015625)"/>
     <use xlink:href="#DejaVuSans-54" transform="translate(878.90625 0.015625)"/>
     <use xlink:href="#DejaVuSans-4d" transform="translate(939.990234 0.015625)"/>
     <use xlink:href="#DejaVuSans-53" transform="translate(1026.269531 0.015625)"/>
     <use xlink:href="#DejaVuSans-56" transform="translate(1089.746094 0.015625)"/>
     <use xlink:href="#DejaVuSans-20" transform="translate(1158.154297 0.015625)"/>
     <use xlink:href="#DejaVuSans-4d" transform="translate(1189.941406 0.015625)"/>
     <use xlink:href="#DejaVuSans-5a" transform="translate(1276.220703 0.015625)"/>
     <use xlink:href="#DejaVuSans-49" transform="translate(1344.726562 0.015625)"/>
     <use xlink:href="#DejaVuSans-20" transform="translate(1374.21875 0.015625)"/>
     <use xlink:href="#DejaVuSans-28" transform="translate(1406.005859 0.015625)"/>
     <use xlink:href="#STIXNonUnicode-Italic-e232" transform="translate(1445.019531 0.015625)"/>
     <use xlink:href="#DejaVuSans-3d" transform="translate(1529.70195 0.015625)"/>
     <use xlink:href="#DejaVuSans-32" transform="translate(1632.973434 0.015625)"/>
     <use xlink:href="#DejaVuSans-30" transform="translate(1696.596481 0.015625)"/>
     <use xlink:href="#DejaVuSans-2e" transform="translate(1760.219528 0.015625)"/>
     <use xlink:href="#DejaVuSans-30" transform="translate(1792.006638 0.015625)"/>
     <use xlink:href="#DejaVuSans-29" transform="translate(1855.629684 0.015625)"/>
    </g>
   </g>
   <g id="legend_1">
    <g id="patch_7">
     <path d="M 617.608594 146.145 
L 693.768594 146.145 
Q 695.368594 146.145 695.368594 144.545 
L 695.368594 27.92 
Q 695.368594 26.32 693.768594 26.32 
L 617.608594 26.32 
Q 616.008594 26.32 616.008594 27.92 
L 616.008594 144.545 
Q 616.008594 146.145 617.608594 146.145 
z
" style="fill: #ffffff; opacity: 0.8; stroke: #cccccc; stroke-linejoin: miter"/>
    </g>
    <g id="line2d_38">
     <path d="M 619.208594 32.79875 
L 627.208594 32.79875 
L 635.208594 32.79875 
" style="fill: none; stroke: #463480; stroke-width: 1.5; stroke-linecap: round"/>
    </g>
    <g id="text_21">
     <!-- $\langle N\rangle$=2  $\Delta\omega_{\mathrm{C}}$ -->
     <g style="fill: #262626" transform="translate(641.608594 35.59875) scale(0.08 -0.08)">
      <defs>
       <path id="DejaVuSans-27e8" d="M 572 2006 
L 1453 4856 
L 1984 4856 
L 1103 2006 
L 1984 -844 
L 1453 -844 
L 572 2006 
z
" transform="scale(0.015625)"/>
       <path id="DejaVuSans-Oblique-4e" d="M 1081 4666 
L 1931 4666 
L 3219 666 
L 4000 4666 
L 4616 4666 
L 3706 0 
L 2853 0 
L 1569 4025 
L 788 0 
L 172 0 
L 1081 4666 
z
" transform="scale(0.015625)"/>
       <path id="DejaVuSans-27e9" d="M 1925 2006 
L 1044 -844 
L 513 -844 
L 1394 2006 
L 513 4856 
L 1044 4856 
L 1925 2006 
z
" transform="scale(0.015625)"/>
      </defs>
      <use xlink:href="#DejaVuSans-27e8" transform="translate(0 0.125)"/>
      <use xlink:href="#DejaVuSans-Oblique-4e" transform="translate(39.013672 0.125)"/>
      <use xlink:href="#DejaVuSans-27e9" transform="translate(113.818359 0.125)"/>
      <use xlink:href="#DejaVuSans-3d" transform="translate(152.832031 0.125)"/>
      <use xlink:href="#DejaVuSans-32" transform="translate(236.621094 0.125)"/>
      <use xlink:href="#DejaVuSans-20" transform="translate(300.244141 0.125)"/>
      <use xlink:href="#DejaVuSans-20" transform="translate(332.03125 0.125)"/>
      <use xlink:href="#DejaVuSans-394" transform="translate(363.818359 0.125)"/>
      <use xlink:href="#DejaVuSans-Oblique-3c9" transform="translate(432.226562 0.125)"/>
      <use xlink:href="#DejaVuSans-43" transform="translate(515.966797 -16.28125) scale(0.7)"/>
     </g>
    </g>
    <g id="line2d_39">
     <path d="M 619.208594 44.54125 
L 627.208594 44.54125 
L 635.208594 44.54125 
" style="fill: none; stroke: #3e4c8a; stroke-width: 1.5; stroke-linecap: round"/>
    </g>
    <g id="text_22">
     <!-- $\langle N\rangle$=6  $\Delta\omega_{\mathrm{C}}$ -->
     <g style="fill: #262626" transform="translate(641.608594 47.34125) scale(0.08 -0.08)">
      <use xlink:href="#DejaVuSans-27e8" transform="translate(0 0.125)"/>
      <use xlink:href="#DejaVuSans-Oblique-4e" transform="translate(39.013672 0.125)"/>
      <use xlink:href="#DejaVuSans-27e9" transform="translate(113.818359 0.125)"/>
      <use xlink:href="#DejaVuSans-3d" transform="translate(152.832031 0.125)"/>
      <use xlink:href="#DejaVuSans-36" transform="translate(236.621094 0.125)"/>
      <use xlink:href="#DejaVuSans-20" transform="translate(300.244141 0.125)"/>
      <use xlink:href="#DejaVuSans-20" transform="translate(332.03125 0.125)"/>
      <use xlink:href="#DejaVuSans-394" transform="translate(363.818359 0.125)"/>
      <use xlink:href="#DejaVuSans-Oblique-3c9" transform="translate(432.226562 0.125)"/>
      <use xlink:href="#DejaVuSans-43" transform="translate(515.966797 -16.28125) scale(0.7)"/>
     </g>
    </g>
    <g id="line2d_40">
     <path d="M 619.208594 56.28375 
L 627.208594 56.28375 
L 635.208594 56.28375 
" style="fill: none; stroke: #34618d; stroke-width: 1.5; stroke-linecap: round"/>
    </g>
    <g id="text_23">
     <!-- $\langle N\rangle$=10  $\Delta\omega_{\mathrm{C}}$ -->
     <g style="fill: #262626" transform="translate(641.608594 59.08375) scale(0.08 -0.08)">
      <use xlink:href="#DejaVuSans-27e8" transform="translate(0 0.125)"/>
      <use xlink:href="#DejaVuSans-Oblique-4e" transform="translate(39.013672 0.125)"/>
      <use xlink:href="#DejaVuSans-27e9" transform="translate(113.818359 0.125)"/>
      <use xlink:href="#DejaVuSans-3d" transform="translate(152.832031 0.125)"/>
      <use xlink:href="#DejaVuSans-31" transform="translate(236.621094 0.125)"/>
      <use xlink:href="#DejaVuSans-30" transform="translate(300.244141 0.125)"/>
      <use xlink:href="#DejaVuSans-20" transform="translate(363.867188 0.125)"/>
      <use xlink:href="#DejaVuSans-20" transform="translate(395.654297 0.125)"/>
      <use xlink:href="#DejaVuSans-394" transform="translate(427.441406 0.125)"/>
      <use xlink:href="#DejaVuSans-Oblique-3c9" transform="translate(495.849609 0.125)"/>
      <use xlink:href="#DejaVuSans-43" transform="translate(579.589844 -16.28125) scale(0.7)"/>
     </g>
    </g>
    <g id="line2d_41">
     <path d="M 619.208594 68.02625 
L 627.208594 68.02625 
L 635.208594 68.02625 
" style="fill: none; stroke: #2b748e; stroke-width: 1.5; stroke-linecap: round"/>
    </g>
    <g id="text_24">
     <!-- $\langle N\rangle$=14  $\Delta\omega_{\mathrm{C}}$ -->
     <g style="fill: #262626" transform="translate(641.608594 70.82625) scale(0.08 -0.08)">
      <use xlink:href="#DejaVuSans-27e8" transform="translate(0 0.125)"/>
      <use xlink:href="#DejaVuSans-Oblique-4e" transform="translate(39.013672 0.125)"/>
      <use xlink:href="#DejaVuSans-27e9" transform="translate(113.818359 0.125)"/>
      <use xlink:href="#DejaVuSans-3d" transform="translate(152.832031 0.125)"/>
      <use xlink:href="#DejaVuSans-31" transform="translate(236.621094 0.125)"/>
      <use xlink:href="#DejaVuSans-34" transform="translate(300.244141 0.125)"/>
      <use xlink:href="#DejaVuSans-20" transform="translate(363.867188 0.125)"/>
      <use xlink:href="#DejaVuSans-20" transform="translate(395.654297 0.125)"/>
      <use xlink:href="#DejaVuSans-394" transform="translate(427.441406 0.125)"/>
      <use xlink:href="#DejaVuSans-Oblique-3c9" transform="translate(495.849609 0.125)"/>
      <use xlink:href="#DejaVuSans-43" transform="translate(579.589844 -16.28125) scale(0.7)"/>
     </g>
    </g>
    <g id="line2d_42">
     <path d="M 619.208594 79.76875 
L 627.208594 79.76875 
L 635.208594 79.76875 
" style="fill: none; stroke: #24878e; stroke-width: 1.5; stroke-linecap: round"/>
    </g>
    <g id="text_25">
     <!-- $\langle N\rangle$=18  $\Delta\omega_{\mathrm{C}}$ -->
     <g style="fill: #262626" transform="translate(641.608594 82.56875) scale(0.08 -0.08)">
      <use xlink:href="#DejaVuSans-27e8" transform="translate(0 0.125)"/>
      <use xlink:href="#DejaVuSans-Oblique-4e" transform="translate(39.013672 0.125)"/>
      <use xlink:href="#DejaVuSans-27e9" transform="translate(113.818359 0.125)"/>
      <use xlink:href="#DejaVuSans-3d" transform="translate(152.832031 0.125)"/>
      <use xlink:href="#DejaVuSans-31" transform="translate(236.621094 0.125)"/>
      <use xlink:href="#DejaVuSans-38" transform="translate(300.244141 0.125)"/>
      <use xlink:href="#DejaVuSans-20" transform="translate(363.867188 0.125)"/>
      <use xlink:href="#DejaVuSans-20" transform="translate(395.654297 0.125)"/>
      <use xlink:href="#DejaVuSans-394" transform="translate(427.441406 0.125)"/>
      <use xlink:href="#DejaVuSans-Oblique-3c9" transform="translate(495.849609 0.125)"/>
      <use xlink:href="#DejaVuSans-43" transform="translate(579.589844 -16.28125) scale(0.7)"/>
     </g>
    </g>
    <g id="line2d_43">
     <path d="M 619.208594 91.51125 
L 627.208594 91.51125 
L 635.208594 91.51125 
" style="fill: none; stroke: #1f998a; stroke-width: 1.5; stroke-linecap: round"/>
    </g>
    <g id="text_26">
     <!-- $\langle N\rangle$=22  $\Delta\omega_{\mathrm{C}}$ -->
     <g style="fill: #262626" transform="translate(641.608594 94.31125) scale(0.08 -0.08)">
      <use xlink:href="#DejaVuSans-27e8" transform="translate(0 0.125)"/>
      <use xlink:href="#DejaVuSans-Oblique-4e" transform="translate(39.013672 0.125)"/>
      <use xlink:href="#DejaVuSans-27e9" transform="translate(113.818359 0.125)"/>
      <use xlink:href="#DejaVuSans-3d" transform="translate(152.832031 0.125)"/>
      <use xlink:href="#DejaVuSans-32" transform="translate(236.621094 0.125)"/>
      <use xlink:href="#DejaVuSans-32" transform="translate(300.244141 0.125)"/>
      <use xlink:href="#DejaVuSans-20" transform="translate(363.867188 0.125)"/>
      <use xlink:href="#DejaVuSans-20" transform="translate(395.654297 0.125)"/>
      <use xlink:href="#DejaVuSans-394" transform="translate(427.441406 0.125)"/>
      <use xlink:href="#DejaVuSans-Oblique-3c9" transform="translate(495.849609 0.125)"/>
      <use xlink:href="#DejaVuSans-43" transform="translate(579.589844 -16.28125) scale(0.7)"/>
     </g>
    </g>
    <g id="line2d_44">
     <path d="M 619.208594 103.25375 
L 627.208594 103.25375 
L 635.208594 103.25375 
" style="fill: none; stroke: #25ac82; stroke-width: 1.5; stroke-linecap: round"/>
    </g>
    <g id="text_27">
     <!-- $\langle N\rangle$=26  $\Delta\omega_{\mathrm{C}}$ -->
     <g style="fill: #262626" transform="translate(641.608594 106.05375) scale(0.08 -0.08)">
      <use xlink:href="#DejaVuSans-27e8" transform="translate(0 0.125)"/>
      <use xlink:href="#DejaVuSans-Oblique-4e" transform="translate(39.013672 0.125)"/>
      <use xlink:href="#DejaVuSans-27e9" transform="translate(113.818359 0.125)"/>
      <use xlink:href="#DejaVuSans-3d" transform="translate(152.832031 0.125)"/>
      <use xlink:href="#DejaVuSans-32" transform="translate(236.621094 0.125)"/>
      <use xlink:href="#DejaVuSans-36" transform="translate(300.244141 0.125)"/>
      <use xlink:href="#DejaVuSans-20" transform="translate(363.867188 0.125)"/>
      <use xlink:href="#DejaVuSans-20" transform="translate(395.654297 0.125)"/>
      <use xlink:href="#DejaVuSans-394" transform="translate(427.441406 0.125)"/>
      <use xlink:href="#DejaVuSans-Oblique-3c9" transform="translate(495.849609 0.125)"/>
      <use xlink:href="#DejaVuSans-43" transform="translate(579.589844 -16.28125) scale(0.7)"/>
     </g>
    </g>
    <g id="line2d_45">
     <path d="M 619.208594 114.99625 
L 627.208594 114.99625 
L 635.208594 114.99625 
" style="fill: none; stroke: #40bd72; stroke-width: 1.5; stroke-linecap: round"/>
    </g>
    <g id="text_28">
     <!-- $\langle N\rangle$=30  $\Delta\omega_{\mathrm{C}}$ -->
     <g style="fill: #262626" transform="translate(641.608594 117.79625) scale(0.08 -0.08)">
      <use xlink:href="#DejaVuSans-27e8" transform="translate(0 0.125)"/>
      <use xlink:href="#DejaVuSans-Oblique-4e" transform="translate(39.013672 0.125)"/>
      <use xlink:href="#DejaVuSans-27e9" transform="translate(113.818359 0.125)"/>
      <use xlink:href="#DejaVuSans-3d" transform="translate(152.832031 0.125)"/>
      <use xlink:href="#DejaVuSans-33" transform="translate(236.621094 0.125)"/>
      <use xlink:href="#DejaVuSans-30" transform="translate(300.244141 0.125)"/>
      <use xlink:href="#DejaVuSans-20" transform="translate(363.867188 0.125)"/>
      <use xlink:href="#DejaVuSans-20" transform="translate(395.654297 0.125)"/>
      <use xlink:href="#DejaVuSans-394" transform="translate(427.441406 0.125)"/>
      <use xlink:href="#DejaVuSans-Oblique-3c9" transform="translate(495.849609 0.125)"/>
      <use xlink:href="#DejaVuSans-43" transform="translate(579.589844 -16.28125) scale(0.7)"/>
     </g>
    </g>
    <g id="line2d_46">
     <path d="M 619.208594 126.73875 
L 627.208594 126.73875 
L 635.208594 126.73875 
" style="fill: none; stroke: #69cd5b; stroke-width: 1.5; stroke-linecap: round"/>
    </g>
    <g id="text_29">
     <!-- $\langle N\rangle$=34  $\Delta\omega_{\mathrm{C}}$ -->
     <g style="fill: #262626" transform="translate(641.608594 129.53875) scale(0.08 -0.08)">
      <use xlink:href="#DejaVuSans-27e8" transform="translate(0 0.125)"/>
      <use xlink:href="#DejaVuSans-Oblique-4e" transform="translate(39.013672 0.125)"/>
      <use xlink:href="#DejaVuSans-27e9" transform="translate(113.818359 0.125)"/>
      <use xlink:href="#DejaVuSans-3d" transform="translate(152.832031 0.125)"/>
      <use xlink:href="#DejaVuSans-33" transform="translate(236.621094 0.125)"/>
      <use xlink:href="#DejaVuSans-34" transform="translate(300.244141 0.125)"/>
      <use xlink:href="#DejaVuSans-20" transform="translate(363.867188 0.125)"/>
      <use xlink:href="#DejaVuSans-20" transform="translate(395.654297 0.125)"/>
      <use xlink:href="#DejaVuSans-394" transform="translate(427.441406 0.125)"/>
      <use xlink:href="#DejaVuSans-Oblique-3c9" transform="translate(495.849609 0.125)"/>
      <use xlink:href="#DejaVuSans-43" transform="translate(579.589844 -16.28125) scale(0.7)"/>
     </g>
    </g>
    <g id="line2d_47">
     <path d="M 619.208594 138.48125 
L 627.208594 138.48125 
L 635.208594 138.48125 
" style="fill: none; stroke: #9bd93c; stroke-width: 1.5; stroke-linecap: round"/>
    </g>
    <g id="text_30">
     <!-- $\langle N\rangle$=38  $\Delta\omega_{\mathrm{C}}$ -->
     <g style="fill: #262626" transform="translate(641.608594 141.28125) scale(0.08 -0.08)">
      <use xlink:href="#DejaVuSans-27e8" transform="translate(0 0.125)"/>
      <use xlink:href="#DejaVuSans-Oblique-4e" transform="translate(39.013672 0.125)"/>
      <use xlink:href="#DejaVuSans-27e9" transform="translate(113.818359 0.125)"/>
      <use xlink:href="#DejaVuSans-3d" transform="translate(152.832031 0.125)"/>
      <use xlink:href="#DejaVuSans-33" transform="translate(236.621094 0.125)"/>
      <use xlink:href="#DejaVuSans-38" transform="translate(300.244141 0.125)"/>
      <use xlink:href="#DejaVuSans-20" transform="translate(363.867188 0.125)"/>
      <use xlink:href="#DejaVuSans-20" transform="translate(395.654297 0.125)"/>
      <use xlink:href="#DejaVuSans-394" transform="translate(427.441406 0.125)"/>
      <use xlink:href="#DejaVuSans-Oblique-3c9" transform="translate(495.849609 0.125)"/>
      <use xlink:href="#DejaVuSans-43" transform="translate(579.589844 -16.28125) scale(0.7)"/>
     </g>
    </g>
   </g>
  </g>
 </g>
 <defs>
  <clipPath id="p897a307ba0">
   <rect x="61.46375" y="22.32" width="637.904844" height="351.3"/>
  </clipPath>
 </defs>
</svg>
