<?xml version="1.0" encoding="utf-8" standalone="no"?>
<!DOCTYPE svg PUBLIC "-//W3C//DTD SVG 1.1//EN"
  "http://www.w3.org/Graphics/SVG/1.1/DTD/svg11.dtd">
<svg xmlns:xlink="http://www.w3.org/1999/xlink" width="706.748594pt" height="416.579687pt" viewBox="0 0 706.748594 416.579687" xmlns="http://www.w3.org/2000/svg" version="1.1">
 <metadata>
  <rdf:RDF xmlns:dc="http://purl.org/dc/elements/1.1/" xmlns:cc="http://creativecommons.org/ns#" xmlns:rdf="http://www.w3.org/1999/02/22-rdf-syntax-ns#">
   <cc:Work>
    <dc:type rdf:resource="http://purl.org/dc/dcmitype/StillImage"/>
    <dc:date>2026-06-29T14:49:07.831698</dc:date>
    <dc:format>image/svg+xml</dc:format>
    <dc:creator>
     <cc:Agent>
      <dc:title>Matplotlib v3.10.9, https://matplotlib.org/</dc:title>
     </cc:Agent>
    </dc:creator>
   </cc:Work>
  </rdf:RDF>
 </metadata>
 <defs>
  <style type="text/css">*{stroke-linejoin: round; stroke-linecap: butt}</style>
 </defs>
 <g id="figure_1">
  <g id="patch_1">
   <path d="M 0 416.579687 
L 706.748594 416.579687 
L 706.748594 0 
L 0 0 
z
" style="fill: #ffffff"/>
  </g>
  <g id="axes_1">
   <g id="patch_2">
    <path d="M 61.46375 373.62 
L 699.548594 373.62 
L 699.548594 22.32 
L 61.46375 22.32 
z
" style="fill: #ffffff"/>
   </g>
   <g id="matplotlib.axis_1">
    <g id="xtick_1">
     <g id="line2d_1">
      <path d="M 90.467607 373.62 
L 90.467607 22.32 
" clip-path="url(#pff03e663bd)" style="fill: none; stroke: #cccccc; stroke-opacity: 0.3; stroke-linecap: round"/>
     </g>
     <g id="text_1">
      <!-- 0.000 -->
      <g style="fill: #262626" transform="translate(74.722138 391.478281) scale(0.11 -0.11)">
       <defs>
        <path id="DejaVuSans-30" d="M 2034 4250 
Q 1547 4250 1301 3770 
Q 1056 3291 1056 2328 
Q 1056 1369 1301 889 
Q 1547 409 2034 409 
Q 2525 409 2770 889 
Q 3016 1369 3016 2328 
Q 3016 3291 2770 3770 
Q 2525 4250 2034 4250 
z
M 2034 4750 
Q 2819 4750 3233 4129 
Q 3647 3509 3647 2328 
Q 3647 1150 3233 529 
Q 2819 -91 2034 -91 
Q 1250 -91 836 529 
Q 422 1150 422 2328 
Q 422 3509 836 4129 
Q 1250 4750 2034 4750 
z
" transform="scale(0.015625)"/>
        <path id="DejaVuSans-2e" d="M 684 794 
L 1344 794 
L 1344 0 
L 684 0 
L 684 794 
z
" transform="scale(0.015625)"/>
       </defs>
       <use xlink:href="#DejaVuSans-30"/>
       <use xlink:href="#DejaVuSans-2e" transform="translate(63.623047 0)"/>
       <use xlink:href="#DejaVuSans-30" transform="translate(95.410156 0)"/>
       <use xlink:href="#DejaVuSans-30" transform="translate(159.033203 0)"/>
       <use xlink:href="#DejaVuSans-30" transform="translate(222.65625 0)"/>
      </g>
     </g>
    </g>
    <g id="xtick_2">
     <g id="line2d_2">
      <path d="M 182.789749 373.62 
L 182.789749 22.32 
" clip-path="url(#pff03e663bd)" style="fill: none; stroke: #cccccc; stroke-opacity: 0.3; stroke-linecap: round"/>
     </g>
     <g id="text_2">
      <!-- 0.005 -->
      <g style="fill: #262626" transform="translate(167.044281 391.478281) scale(0.11 -0.11)">
       <defs>
        <path id="DejaVuSans-35" d="M 691 4666 
L 3169 4666 
L 3169 4134 
L 1269 4134 
L 1269 2991 
Q 1406 3038 1543 3061 
Q 1681 3084 1819 3084 
Q 2600 3084 3056 2656 
Q 3513 2228 3513 1497 
Q 3513 744 3044 326 
Q 2575 -91 1722 -91 
Q 1428 -91 1123 -41 
Q 819 9 494 109 
L 494 744 
Q 775 591 1075 516 
Q 1375 441 1709 441 
Q 2250 441 2565 725 
Q 2881 1009 2881 1497 
Q 2881 1984 2565 2268 
Q 2250 2553 1709 2553 
Q 1456 2553 1204 2497 
Q 953 2441 691 2322 
L 691 4666 
z
" transform="scale(0.015625)"/>
       </defs>
       <use xlink:href="#DejaVuSans-30"/>
       <use xlink:href="#DejaVuSans-2e" transform="translate(63.623047 0)"/>
       <use xlink:href="#DejaVuSans-30" transform="translate(95.410156 0)"/>
       <use xlink:href="#DejaVuSans-30" transform="translate(159.033203 0)"/>
       <use xlink:href="#DejaVuSans-35" transform="translate(222.65625 0)"/>
      </g>
     </g>
    </g>
    <g id="xtick_3">
     <g id="line2d_3">
      <path d="M 275.111892 373.62 
L 275.111892 22.32 
" clip-path="url(#pff03e663bd)" style="fill: none; stroke: #cccccc; stroke-opacity: 0.3; stroke-linecap: round"/>
     </g>
     <g id="text_3">
      <!-- 0.010 -->
      <g style="fill: #262626" transform="translate(259.366423 391.478281) scale(0.11 -0.11)">
       <defs>
        <path id="DejaVuSans-31" d="M 794 531 
L 1825 531 
L 1825 4091 
L 703 3866 
L 703 4441 
L 1819 4666 
L 2450 4666 
L 2450 531 
L 3481 531 
L 3481 0 
L 794 0 
L 794 531 
z
" transform="scale(0.015625)"/>
       </defs>
       <use xlink:href="#DejaVuSans-30"/>
       <use xlink:href="#DejaVuSans-2e" transform="translate(63.623047 0)"/>
       <use xlink:href="#DejaVuSans-30" transform="translate(95.410156 0)"/>
       <use xlink:href="#DejaVuSans-31" transform="translate(159.033203 0)"/>
       <use xlink:href="#DejaVuSans-30" transform="translate(222.65625 0)"/>
      </g>
     </g>
    </g>
    <g id="xtick_4">
     <g id="line2d_4">
      <path d="M 367.434035 373.62 
L 367.434035 22.32 
" clip-path="url(#pff03e663bd)" style="fill: none; stroke: #cccccc; stroke-opacity: 0.3; stroke-linecap: round"/>
     </g>
     <g id="text_4">
      <!-- 0.015 -->
      <g style="fill: #262626" transform="translate(351.688566 391.478281) scale(0.11 -0.11)">
       <use xlink:href="#DejaVuSans-30"/>
       <use xlink:href="#DejaVuSans-2e" transform="translate(63.623047 0)"/>
       <use xlink:href="#DejaVuSans-30" transform="translate(95.410156 0)"/>
       <use xlink:href="#DejaVuSans-31" transform="translate(159.033203 0)"/>
       <use xlink:href="#DejaVuSans-35" transform="translate(222.65625 0)"/>
      </g>
     </g>
    </g>
    <g id="xtick_5">
     <g id="line2d_5">
      <path d="M 459.756178 373.62 
L 459.756178 22.32 
" clip-path="url(#pff03e663bd)" style="fill: none; stroke: #cccccc; stroke-opacity: 0.3; stroke-linecap: round"/>
     </g>
     <g id="text_5">
      <!-- 0.020 -->
      <g style="fill: #262626" transform="translate(444.010709 391.478281) scale(0.11 -0.11)">
       <defs>
        <path id="DejaVuSans-32" d="M 1228 531 
L 3431 531 
L 3431 0 
L 469 0 
L 469 531 
Q 828 903 1448 1529 
Q 2069 2156 2228 2338 
Q 2531 2678 2651 2914 
Q 2772 3150 2772 3378 
Q 2772 3750 2511 3984 
Q 2250 4219 1831 4219 
Q 1534 4219 1204 4116 
Q 875 4013 500 3803 
L 500 4441 
Q 881 4594 1212 4672 
Q 1544 4750 1819 4750 
Q 2544 4750 2975 4387 
Q 3406 4025 3406 3419 
Q 3406 3131 3298 2873 
Q 3191 2616 2906 2266 
Q 2828 2175 2409 1742 
Q 1991 1309 1228 531 
z
" transform="scale(0.015625)"/>
       </defs>
       <use xlink:href="#DejaVuSans-30"/>
       <use xlink:href="#DejaVuSans-2e" transform="translate(63.623047 0)"/>
       <use xlink:href="#DejaVuSans-30" transform="translate(95.410156 0)"/>
       <use xlink:href="#DejaVuSans-32" transform="translate(159.033203 0)"/>
       <use xlink:href="#DejaVuSans-30" transform="translate(222.65625 0)"/>
      </g>
     </g>
    </g>
    <g id="xtick_6">
     <g id="line2d_6">
      <path d="M 552.07832 373.62 
L 552.07832 22.32 
" clip-path="url(#pff03e663bd)" style="fill: none; stroke: #cccccc; stroke-opacity: 0.3; stroke-linecap: round"/>
     </g>
     <g id="text_6">
      <!-- 0.025 -->
      <g style="fill: #262626" transform="translate(536.332852 391.478281) scale(0.11 -0.11)">
       <use xlink:href="#DejaVuSans-30"/>
       <use xlink:href="#DejaVuSans-2e" transform="translate(63.623047 0)"/>
       <use xlink:href="#DejaVuSans-30" transform="translate(95.410156 0)"/>
       <use xlink:href="#DejaVuSans-32" transform="translate(159.033203 0)"/>
       <use xlink:href="#DejaVuSans-35" transform="translate(222.65625 0)"/>
      </g>
     </g>
    </g>
    <g id="xtick_7">
     <g id="line2d_7">
      <path d="M 644.400463 373.62 
L 644.400463 22.32 
" clip-path="url(#pff03e663bd)" style="fill: none; stroke: #cccccc; stroke-opacity: 0.3; stroke-linecap: round"/>
     </g>
     <g id="text_7">
      <!-- 0.030 -->
      <g style="fill: #262626" transform="translate(628.654994 391.478281) scale(0.11 -0.11)">
       <defs>
        <path id="DejaVuSans-33" d="M 2597 2516 
Q 3050 2419 3304 2112 
Q 3559 1806 3559 1356 
Q 3559 666 3084 287 
Q 2609 -91 1734 -91 
Q 1441 -91 1130 -33 
Q 819 25 488 141 
L 488 750 
Q 750 597 1062 519 
Q 1375 441 1716 441 
Q 2309 441 2620 675 
Q 2931 909 2931 1356 
Q 2931 1769 2642 2001 
Q 2353 2234 1838 2234 
L 1294 2234 
L 1294 2753 
L 1863 2753 
Q 2328 2753 2575 2939 
Q 2822 3125 2822 3475 
Q 2822 3834 2567 4026 
Q 2313 4219 1838 4219 
Q 1578 4219 1281 4162 
Q 984 4106 628 3988 
L 628 4550 
Q 988 4650 1302 4700 
Q 1616 4750 1894 4750 
Q 2613 4750 3031 4423 
Q 3450 4097 3450 3541 
Q 3450 3153 3228 2886 
Q 3006 2619 2597 2516 
z
" transform="scale(0.015625)"/>
       </defs>
       <use xlink:href="#DejaVuSans-30"/>
       <use xlink:href="#DejaVuSans-2e" transform="translate(63.623047 0)"/>
       <use xlink:href="#DejaVuSans-30" transform="translate(95.410156 0)"/>
       <use xlink:href="#DejaVuSans-33" transform="translate(159.033203 0)"/>
       <use xlink:href="#DejaVuSans-30" transform="translate(222.65625 0)"/>
      </g>
     </g>
    </g>
    <g id="text_8">
     <!-- $\omega$ -->
     <g style="fill: #262626" transform="translate(375.466172 406.884062) scale(0.12 -0.12)">
      <defs>
       <path id="DejaVuSans-Oblique-3c9" d="M 1369 -91 
Q 72 -91 434 1766 
Q 575 2500 1256 3500 
L 1875 3500 
Q 1231 2500 1088 1750 
Q 819 397 1519 397 
Q 2166 397 2478 2078 
L 3009 2078 
Q 2669 388 3316 397 
Q 4013 403 4275 1750 
Q 4419 2500 4169 3500 
L 4788 3500 
Q 5075 2500 4934 1766 
Q 4578 -94 3278 -91 
Q 2428 -88 2503 844 
Q 2194 -91 1369 -91 
z
" transform="scale(0.015625)"/>
      </defs>
      <use xlink:href="#DejaVuSans-Oblique-3c9" transform="translate(0 0.3125)"/>
     </g>
    </g>
   </g>
   <g id="matplotlib.axis_2">
    <g id="ytick_1">
     <g id="line2d_8">
      <path d="M 61.46375 334.403695 
L 699.548594 334.403695 
" clip-path="url(#pff03e663bd)" style="fill: none; stroke: #cccccc; stroke-opacity: 0.3; stroke-linecap: round"/>
     </g>
     <g id="text_9">
      <!-- $\mathdefault{10^{8}}$ -->
      <g style="fill: #262626" transform="translate(32.60375 338.582835) scale(0.11 -0.11)">
       <defs>
        <path id="DejaVuSans-38" d="M 2034 2216 
Q 1584 2216 1326 1975 
Q 1069 1734 1069 1313 
Q 1069 891 1326 650 
Q 1584 409 2034 409 
Q 2484 409 2743 651 
Q 3003 894 3003 1313 
Q 3003 1734 2745 1975 
Q 2488 2216 2034 2216 
z
M 1403 2484 
Q 997 2584 770 2862 
Q 544 3141 544 3541 
Q 544 4100 942 4425 
Q 1341 4750 2034 4750 
Q 2731 4750 3128 4425 
Q 3525 4100 3525 3541 
Q 3525 3141 3298 2862 
Q 3072 2584 2669 2484 
Q 3125 2378 3379 2068 
Q 3634 1759 3634 1313 
Q 3634 634 3220 271 
Q 2806 -91 2034 -91 
Q 1263 -91 848 271 
Q 434 634 434 1313 
Q 434 1759 690 2068 
Q 947 2378 1403 2484 
z
M 1172 3481 
Q 1172 3119 1398 2916 
Q 1625 2713 2034 2713 
Q 2441 2713 2670 2916 
Q 2900 3119 2900 3481 
Q 2900 3844 2670 4047 
Q 2441 4250 2034 4250 
Q 1625 4250 1398 4047 
Q 1172 3844 1172 3481 
z
" transform="scale(0.015625)"/>
       </defs>
       <use xlink:href="#DejaVuSans-31" transform="translate(0 0.765625)"/>
       <use xlink:href="#DejaVuSans-30" transform="translate(63.623047 0.765625)"/>
       <use xlink:href="#DejaVuSans-38" transform="translate(128.203125 39.046875) scale(0.7)"/>
      </g>
     </g>
    </g>
    <g id="ytick_2">
     <g id="line2d_9">
      <path d="M 61.46375 294.782605 
L 699.548594 294.782605 
" clip-path="url(#pff03e663bd)" style="fill: none; stroke: #cccccc; stroke-opacity: 0.3; stroke-linecap: round"/>
     </g>
     <g id="text_10">
      <!-- $\mathdefault{10^{27}}$ -->
      <g style="fill: #262626" transform="translate(27.65375 298.961746) scale(0.11 -0.11)">
       <defs>
        <path id="DejaVuSans-37" d="M 525 4666 
L 3525 4666 
L 3525 4397 
L 1831 0 
L 1172 0 
L 2766 4134 
L 525 4134 
L 525 4666 
z
" transform="scale(0.015625)"/>
       </defs>
       <use xlink:href="#DejaVuSans-31" transform="translate(0 0.765625)"/>
       <use xlink:href="#DejaVuSans-30" transform="translate(63.623047 0.765625)"/>
       <use xlink:href="#DejaVuSans-32" transform="translate(128.203125 39.046875) scale(0.7)"/>
       <use xlink:href="#DejaVuSans-37" transform="translate(172.739258 39.046875) scale(0.7)"/>
      </g>
     </g>
    </g>
    <g id="ytick_3">
     <g id="line2d_10">
      <path d="M 61.46375 255.161515 
L 699.548594 255.161515 
" clip-path="url(#pff03e663bd)" style="fill: none; stroke: #cccccc; stroke-opacity: 0.3; stroke-linecap: round"/>
     </g>
     <g id="text_11">
      <!-- $\mathdefault{10^{46}}$ -->
      <g style="fill: #262626" transform="translate(27.65375 259.340656) scale(0.11 -0.11)">
       <defs>
        <path id="DejaVuSans-34" d="M 2419 4116 
L 825 1625 
L 2419 1625 
L 2419 4116 
z
M 2253 4666 
L 3047 4666 
L 3047 1625 
L 3713 1625 
L 3713 1100 
L 3047 1100 
L 3047 0 
L 2419 0 
L 2419 1100 
L 313 1100 
L 313 1709 
L 2253 4666 
z
" transform="scale(0.015625)"/>
        <path id="DejaVuSans-36" d="M 2113 2584 
Q 1688 2584 1439 2293 
Q 1191 2003 1191 1497 
Q 1191 994 1439 701 
Q 1688 409 2113 409 
Q 2538 409 2786 701 
Q 3034 994 3034 1497 
Q 3034 2003 2786 2293 
Q 2538 2584 2113 2584 
z
M 3366 4563 
L 3366 3988 
Q 3128 4100 2886 4159 
Q 2644 4219 2406 4219 
Q 1781 4219 1451 3797 
Q 1122 3375 1075 2522 
Q 1259 2794 1537 2939 
Q 1816 3084 2150 3084 
Q 2853 3084 3261 2657 
Q 3669 2231 3669 1497 
Q 3669 778 3244 343 
Q 2819 -91 2113 -91 
Q 1303 -91 875 529 
Q 447 1150 447 2328 
Q 447 3434 972 4092 
Q 1497 4750 2381 4750 
Q 2619 4750 2861 4703 
Q 3103 4656 3366 4563 
z
" transform="scale(0.015625)"/>
       </defs>
       <use xlink:href="#DejaVuSans-31" transform="translate(0 0.765625)"/>
       <use xlink:href="#DejaVuSans-30" transform="translate(63.623047 0.765625)"/>
       <use xlink:href="#DejaVuSans-34" transform="translate(128.203125 39.046875) scale(0.7)"/>
       <use xlink:href="#DejaVuSans-36" transform="translate(172.739258 39.046875) scale(0.7)"/>
      </g>
     </g>
    </g>
    <g id="ytick_4">
     <g id="line2d_11">
      <path d="M 61.46375 215.540425 
L 699.548594 215.540425 
" clip-path="url(#pff03e663bd)" style="fill: none; stroke: #cccccc; stroke-opacity: 0.3; stroke-linecap: round"/>
     </g>
     <g id="text_12">
      <!-- $\mathdefault{10^{65}}$ -->
      <g style="fill: #262626" transform="translate(27.65375 219.719566) scale(0.11 -0.11)">
       <use xlink:href="#DejaVuSans-31" transform="translate(0 0.765625)"/>
       <use xlink:href="#DejaVuSans-30" transform="translate(63.623047 0.765625)"/>
       <use xlink:href="#DejaVuSans-36" transform="translate(128.203125 39.046875) scale(0.7)"/>
       <use xlink:href="#DejaVuSans-35" transform="translate(172.739258 39.046875) scale(0.7)"/>
      </g>
     </g>
    </g>
    <g id="ytick_5">
     <g id="line2d_12">
      <path d="M 61.46375 175.919336 
L 699.548594 175.919336 
" clip-path="url(#pff03e663bd)" style="fill: none; stroke: #cccccc; stroke-opacity: 0.3; stroke-linecap: round"/>
     </g>
     <g id="text_13">
      <!-- $\mathdefault{10^{84}}$ -->
      <g style="fill: #262626" transform="translate(27.65375 180.098476) scale(0.11 -0.11)">
       <use xlink:href="#DejaVuSans-31" transform="translate(0 0.765625)"/>
       <use xlink:href="#DejaVuSans-30" transform="translate(63.623047 0.765625)"/>
       <use xlink:href="#DejaVuSans-38" transform="translate(128.203125 39.046875) scale(0.7)"/>
       <use xlink:href="#DejaVuSans-34" transform="translate(172.739258 39.046875) scale(0.7)"/>
      </g>
     </g>
    </g>
    <g id="ytick_6">
     <g id="line2d_13">
      <path d="M 61.46375 136.298246 
L 699.548594 136.298246 
" clip-path="url(#pff03e663bd)" style="fill: none; stroke: #cccccc; stroke-opacity: 0.3; stroke-linecap: round"/>
     </g>
     <g id="text_14">
      <!-- $\mathdefault{10^{103}}$ -->
      <g style="fill: #262626" transform="translate(22.81375 140.477387) scale(0.11 -0.11)">
       <use xlink:href="#DejaVuSans-31" transform="translate(0 0.765625)"/>
       <use xlink:href="#DejaVuSans-30" transform="translate(63.623047 0.765625)"/>
       <use xlink:href="#DejaVuSans-31" transform="translate(128.203125 39.046875) scale(0.7)"/>
       <use xlink:href="#DejaVuSans-30" transform="translate(172.739258 39.046875) scale(0.7)"/>
       <use xlink:href="#DejaVuSans-33" transform="translate(217.275391 39.046875) scale(0.7)"/>
      </g>
     </g>
    </g>
    <g id="ytick_7">
     <g id="line2d_14">
      <path d="M 61.46375 96.677156 
L 699.548594 96.677156 
" clip-path="url(#pff03e663bd)" style="fill: none; stroke: #cccccc; stroke-opacity: 0.3; stroke-linecap: round"/>
     </g>
     <g id="text_15">
      <!-- $\mathdefault{10^{122}}$ -->
      <g style="fill: #262626" transform="translate(22.81375 100.856297) scale(0.11 -0.11)">
       <use xlink:href="#DejaVuSans-31" transform="translate(0 0.765625)"/>
       <use xlink:href="#DejaVuSans-30" transform="translate(63.623047 0.765625)"/>
       <use xlink:href="#DejaVuSans-31" transform="translate(128.203125 39.046875) scale(0.7)"/>
       <use xlink:href="#DejaVuSans-32" transform="translate(172.739258 39.046875) scale(0.7)"/>
       <use xlink:href="#DejaVuSans-32" transform="translate(217.275391 39.046875) scale(0.7)"/>
      </g>
     </g>
    </g>
    <g id="ytick_8">
     <g id="line2d_15">
      <path d="M 61.46375 57.056066 
L 699.548594 57.056066 
" clip-path="url(#pff03e663bd)" style="fill: none; stroke: #cccccc; stroke-opacity: 0.3; stroke-linecap: round"/>
     </g>
     <g id="text_16">
      <!-- $\mathdefault{10^{141}}$ -->
      <g style="fill: #262626" transform="translate(22.81375 61.235207) scale(0.11 -0.11)">
       <use xlink:href="#DejaVuSans-31" transform="translate(0 0.684375)"/>
       <use xlink:href="#DejaVuSans-30" transform="translate(63.623047 0.684375)"/>
       <use xlink:href="#DejaVuSans-31" transform="translate(128.203125 38.965625) scale(0.7)"/>
       <use xlink:href="#DejaVuSans-34" transform="translate(172.739258 38.965625) scale(0.7)"/>
       <use xlink:href="#DejaVuSans-31" transform="translate(217.275391 38.965625) scale(0.7)"/>
      </g>
     </g>
    </g>
    <g id="text_17">
     <!-- $\Delta\omega$ -->
     <g style="fill: #262626" transform="translate(16.318125 207.15) rotate(-90) scale(0.12 -0.12)">
      <defs>
       <path id="DejaVuSans-394" d="M 2188 4044 
L 906 525 
L 3472 525 
L 2188 4044 
z
M 50 0 
L 1831 4666 
L 2547 4666 
L 4325 0 
L 50 0 
z
" transform="scale(0.015625)"/>
      </defs>
      <use xlink:href="#DejaVuSans-394" transform="translate(0 0.09375)"/>
      <use xlink:href="#DejaVuSans-Oblique-3c9" transform="translate(68.408203 0.09375)"/>
     </g>
    </g>
   </g>
   <g id="line2d_16">
    <path d="M 90.467607 38.288182 
L 102.305915 354.929511 
L 114.144224 355.243288 
L 125.982533 355.323567 
L 137.820842 355.340862 
L 149.659151 355.33484 
L 161.497459 355.318137 
L 173.335768 355.294718 
L 185.174077 355.265483 
L 197.012386 355.230664 
L 208.850695 355.190596 
L 220.689003 355.145837 
L 232.527312 355.097113 
L 244.365621 355.045233 
L 256.20393 354.991003 
L 268.042239 354.935161 
L 279.880547 354.87833 
L 291.718856 354.821023 
L 303.557165 354.763678 
L 315.395474 354.706698 
L 327.233782 354.650475 
L 339.072091 354.595377 
L 350.9104 354.541685 
L 362.748709 354.489508 
L 374.587018 354.438724 
L 386.425326 354.388968 
L 398.263635 354.339708 
L 410.101944 354.29037 
L 421.940253 354.240472 
L 433.778562 354.189703 
L 445.61687 354.137916 
L 457.455179 354.085016 
L 469.293488 354.030801 
L 481.131797 353.974813 
L 492.970106 353.916288 
L 504.808414 353.854244 
L 516.646723 353.787666 
L 528.485032 353.715741 
L 540.323341 353.637989 
L 552.16165 353.554211 
L 563.999958 353.464142 
L 575.838267 353.366784 
L 587.676576 353.259493 
L 599.514885 353.136949 
L 611.353194 352.989924 
L 623.191502 352.803091 
L 635.029811 352.549235 
L 646.86812 352.170187 
L 658.706429 351.495822 
L 670.544738 350.944209 
" clip-path="url(#pff03e663bd)" style="fill: none; stroke: #463480; stroke-width: 1.5; stroke-linecap: round"/>
   </g>
   <g id="line2d_17">
    <path d="M 61.46375 355.468564 
L 699.548594 355.468564 
" clip-path="url(#pff03e663bd)" style="fill: none; stroke-dasharray: 3.7,1.6; stroke-dashoffset: 0; stroke: #463480; stroke-opacity: 0.6"/>
   </g>
   <g id="line2d_18">
    <path d="M 90.467607 38.288182 
L 102.305915 356.266454 
L 114.144224 356.219125 
L 125.982533 356.148905 
L 137.820842 356.054034 
L 149.659151 355.94018 
L 161.497459 355.819859 
L 173.335768 355.702992 
L 185.174077 355.595316 
L 197.012386 355.498202 
L 208.850695 355.408882 
L 220.689003 355.324138 
L 232.527312 355.243006 
L 244.365621 355.165379 
L 256.20393 355.091316 
L 268.042239 355.021025 
L 279.880547 354.954087 
L 291.718856 354.890397 
L 303.557165 354.830372 
L 315.395474 354.772352 
L 327.233782 354.713349 
L 339.072091 354.652721 
L 350.9104 354.592182 
L 362.748709 354.534315 
L 374.587018 354.480191 
L 386.425326 354.427977 
L 398.263635 354.378125 
L 410.101944 354.328451 
L 421.940253 354.274802 
L 433.778562 354.216675 
L 445.61687 354.158991 
L 457.455179 354.104835 
L 469.293488 354.052669 
L 481.131797 354.003059 
L 492.970106 353.957017 
L 504.808414 353.908765 
L 516.646723 353.852974 
L 528.485032 353.792631 
L 540.323341 353.728815 
L 552.16165 353.653763 
L 563.999958 353.564814 
L 575.838267 353.47488 
L 587.676576 353.395405 
L 599.514885 353.307783 
L 611.353194 353.172041 
L 623.191502 352.973534 
L 635.029811 352.759802 
L 646.86812 352.552689 
L 658.706429 352.187947 
L 670.544738 351.471045 
" clip-path="url(#pff03e663bd)" style="fill: none; stroke: #3e4c8a; stroke-width: 1.5; stroke-linecap: round"/>
   </g>
   <g id="line2d_19">
    <path d="M 61.46375 356.324062 
L 699.548594 356.324062 
" clip-path="url(#pff03e663bd)" style="fill: none; stroke-dasharray: 3.7,1.6; stroke-dashoffset: 0; stroke: #3e4c8a; stroke-opacity: 0.6"/>
   </g>
   <g id="line2d_20">
    <path d="M 90.467607 38.288182 
L 102.305915 356.670071 
L 114.144224 356.555487 
L 125.982533 356.390098 
L 137.820842 356.205715 
L 149.659151 356.038338 
L 161.497459 355.893798 
L 173.335768 355.763362 
L 185.174077 355.643429 
L 197.012386 355.534792 
L 208.850695 355.436594 
L 220.689003 355.344557 
L 232.527312 355.259886 
L 244.365621 355.181996 
L 256.20393 355.106704 
L 268.042239 355.033353 
L 279.880547 354.964605 
L 291.718856 354.901956 
L 303.557165 354.841959 
L 315.395474 354.782099 
L 327.233782 354.722243 
L 339.072091 354.664679 
L 350.9104 354.612724 
L 362.748709 354.557202 
L 374.587018 354.501667 
L 386.425326 354.459955 
L 398.263635 354.415881 
L 410.101944 354.359352 
L 421.940253 354.303949 
L 433.778562 354.239668 
L 445.61687 354.177334 
L 457.455179 354.134471 
L 469.293488 354.093821 
L 481.131797 354.045544 
L 492.970106 353.991856 
L 504.808414 353.924794 
L 516.646723 353.864582 
L 528.485032 353.814485 
L 540.323341 353.748163 
L 552.16165 353.674587 
L 563.999958 353.599581 
L 575.838267 353.527631 
L 587.676576 353.393144 
L 599.514885 353.298425 
L 611.353194 353.215781 
L 623.191502 353.026508 
L 635.029811 352.833838 
L 646.86812 352.604579 
L 658.706429 352.448049 
L 670.544738 351.857642 
" clip-path="url(#pff03e663bd)" style="fill: none; stroke: #34618d; stroke-width: 1.5; stroke-linecap: round"/>
   </g>
   <g id="line2d_21">
    <path d="M 61.46375 356.747496 
L 699.548594 356.747496 
" clip-path="url(#pff03e663bd)" style="fill: none; stroke-dasharray: 3.7,1.6; stroke-dashoffset: 0; stroke: #34618d; stroke-opacity: 0.6"/>
   </g>
   <g id="line2d_22">
    <path d="M 90.467607 38.288182 
L 102.305915 356.91887 
L 114.144224 356.722355 
L 125.982533 356.472282 
L 137.820842 356.255697 
L 149.659151 356.075041 
L 161.497459 355.916075 
L 173.335768 355.777717 
L 185.174077 355.653987 
L 197.012386 355.543083 
L 208.850695 355.443954 
L 220.689003 355.351009 
L 232.527312 355.265891 
L 244.365621 355.18685 
L 256.20393 355.110413 
L 268.042239 355.037242 
L 279.880547 354.970891 
L 291.718856 354.90513 
L 303.557165 354.843016 
L 315.395474 354.784144 
L 327.233782 354.729146 
L 339.072091 354.676855 
L 350.9104 354.630345 
L 362.748709 354.583097 
L 374.587018 354.530022 
L 386.425326 354.46059 
L 398.263635 354.412385 
L 410.101944 354.366791 
L 421.940253 354.308751 
L 433.778562 354.265099 
L 445.61687 354.216832 
L 457.455179 354.170358 
L 469.293488 354.099884 
L 481.131797 354.035736 
L 492.970106 354.001682 
L 504.808414 353.942801 
L 516.646723 353.882137 
L 528.485032 353.82094 
L 540.323341 353.765516 
L 552.16165 353.688125 
L 563.999958 353.613255 
L 575.838267 353.540903 
L 587.676576 353.462864 
L 599.514885 353.311521 
L 611.353194 353.260598 
L 623.191502 353.053062 
L 635.029811 352.874125 
L 646.86812 352.6581 
L 658.706429 352.495279 
L 670.544738 351.985869 
" clip-path="url(#pff03e663bd)" style="fill: none; stroke: #2b748e; stroke-width: 1.5; stroke-linecap: round"/>
   </g>
   <g id="line2d_23">
    <path d="M 61.46375 357.033718 
L 699.548594 357.033718 
" clip-path="url(#pff03e663bd)" style="fill: none; stroke-dasharray: 3.7,1.6; stroke-dashoffset: 0; stroke: #2b748e; stroke-opacity: 0.6"/>
   </g>
   <g id="line2d_24">
    <path d="M 90.467607 38.288182 
L 102.305915 357.092455 
L 114.144224 356.803808 
L 125.982533 356.512566 
L 137.820842 356.281565 
L 149.659151 356.086338 
L 161.497459 355.924282 
L 173.335768 355.781845 
L 185.174077 355.659231 
L 197.012386 355.548148 
L 208.850695 355.446898 
L 220.689003 355.352078 
L 232.527312 355.269458 
L 244.365621 355.19047 
L 256.20393 355.110888 
L 268.042239 355.039181 
L 279.880547 354.973036 
L 291.718856 354.909567 
L 303.557165 354.845631 
L 315.395474 354.794965 
L 327.233782 354.737507 
L 339.072091 354.681398 
L 350.9104 354.631804 
L 362.748709 354.573806 
L 374.587018 354.530261 
L 386.425326 354.492727 
L 398.263635 354.409595 
L 410.101944 354.366096 
L 421.940253 354.303954 
L 433.778562 354.278533 
L 445.61687 354.216543 
L 457.455179 354.150113 
L 469.293488 354.11479 
L 481.131797 354.070417 
L 492.970106 354.003798 
L 504.808414 353.947903 
L 516.646723 353.892467 
L 528.485032 353.833019 
L 540.323341 353.783892 
L 552.16165 353.709808 
L 563.999958 353.661451 
L 575.838267 353.545636 
L 587.676576 353.473162 
L 599.514885 353.345814 
L 611.353194 353.289827 
L 623.191502 353.104266 
L 635.029811 352.922935 
L 646.86812 352.737234 
L 658.706429 352.558587 
L 670.544738 351.961142 
" clip-path="url(#pff03e663bd)" style="fill: none; stroke: #24878e; stroke-width: 1.5; stroke-linecap: round"/>
   </g>
   <g id="line2d_25">
    <path d="M 61.46375 357.250507 
L 699.548594 357.250507 
" clip-path="url(#pff03e663bd)" style="fill: none; stroke-dasharray: 3.7,1.6; stroke-dashoffset: 0; stroke: #24878e; stroke-opacity: 0.6"/>
   </g>
   <g id="line2d_26">
    <path d="M 90.467607 38.288182 
L 102.305915 357.203558 
L 114.144224 356.847827 
L 125.982533 356.536521 
L 137.820842 356.292163 
L 149.659151 356.093594 
L 161.497459 355.925547 
L 173.335768 355.785251 
L 185.174077 355.658984 
L 197.012386 355.547897 
L 208.850695 355.444423 
L 220.689003 355.353369 
L 232.527312 355.269543 
L 244.365621 355.183407 
L 256.20393 355.109621 
L 268.042239 355.041672 
L 279.880547 354.973464 
L 291.718856 354.920979 
L 303.557165 354.858809 
L 315.395474 354.792612 
L 327.233782 354.749031 
L 339.072091 354.702602 
L 350.9104 354.654065 
L 362.748709 354.600059 
L 374.587018 354.562131 
L 386.425326 354.539127 
L 398.263635 354.448395 
L 410.101944 354.429636 
L 421.940253 354.378618 
L 433.778562 354.298564 
L 445.61687 354.269948 
L 457.455179 354.242887 
L 469.293488 354.159271 
L 481.131797 354.126016 
L 492.970106 354.07513 
L 504.808414 354.011724 
L 516.646723 353.96519 
L 528.485032 353.911892 
L 540.323341 353.852456 
L 552.16165 353.801038 
L 563.999958 353.770736 
L 575.838267 353.664921 
L 587.676576 353.609356 
L 599.514885 353.522195 
L 611.353194 353.345091 
L 623.191502 353.269798 
L 635.029811 353.089745 
L 646.86812 352.963839 
L 658.706429 352.803611 
L 670.544738 352.334043 
" clip-path="url(#pff03e663bd)" style="fill: none; stroke: #1f998a; stroke-width: 1.5; stroke-linecap: round"/>
   </g>
   <g id="line2d_27">
    <path d="M 61.46375 357.40746 
L 699.548594 357.40746 
" clip-path="url(#pff03e663bd)" style="fill: none; stroke-dasharray: 3.7,1.6; stroke-dashoffset: 0; stroke: #1f998a; stroke-opacity: 0.6"/>
   </g>
   <g id="line2d_28">
    <path d="M 90.467607 38.288182 
L 102.305915 357.272455 
L 114.144224 356.876462 
L 125.982533 356.548201 
L 137.820842 356.296268 
L 149.659151 356.093587 
L 161.497459 355.921917 
L 173.335768 355.782134 
L 185.174077 355.65502 
L 197.012386 355.545035 
L 208.850695 355.440348 
L 220.689003 355.3509 
L 232.527312 355.269927 
L 244.365621 355.179356 
L 256.20393 355.108071 
L 268.042239 355.04483 
L 279.880547 354.977086 
L 291.718856 354.935814 
L 303.557165 354.878007 
L 315.395474 354.808439 
L 327.233782 354.776384 
L 339.072091 354.738481 
L 350.9104 354.699123 
L 362.748709 354.6469 
L 374.587018 354.621271 
L 386.425326 354.616695 
L 398.263635 354.509079 
L 410.101944 354.515175 
L 421.940253 354.472214 
L 433.778562 354.375902 
L 445.61687 354.363703 
L 457.455179 354.356254 
L 469.293488 354.257408 
L 481.131797 354.241753 
L 492.970106 354.199343 
L 504.808414 354.135928 
L 516.646723 354.102611 
L 528.485032 354.063409 
L 540.323341 354.007872 
L 552.16165 353.973824 
L 563.999958 353.974819 
L 575.838267 353.85874 
L 587.676576 353.816331 
L 599.514885 353.737545 
L 611.353194 353.555356 
L 623.191502 353.518809 
L 635.029811 353.352727 
L 646.86812 353.305452 
L 658.706429 353.191588 
L 670.544738 352.790247 
" clip-path="url(#pff03e663bd)" style="fill: none; stroke: #25ac82; stroke-width: 1.5; stroke-linecap: round"/>
   </g>
   <g id="line2d_29">
    <path d="M 61.46375 357.512374 
L 699.548594 357.512374 
" clip-path="url(#pff03e663bd)" style="fill: none; stroke-dasharray: 3.7,1.6; stroke-dashoffset: 0; stroke: #25ac82; stroke-opacity: 0.6"/>
   </g>
   <g id="line2d_30">
    <path d="M 90.467607 38.288182 
L 102.305915 357.321384 
L 114.144224 356.89402 
L 125.982533 356.554337 
L 137.820842 356.296853 
L 149.659151 356.09102 
L 161.497459 355.916152 
L 173.335768 355.777836 
L 185.174077 355.650558 
L 197.012386 355.542585 
L 208.850695 355.437074 
L 220.689003 355.349811 
L 232.527312 355.27263 
L 244.365621 355.177029 
L 256.20393 355.108847 
L 268.042239 355.051564 
L 279.880547 354.983999 
L 291.718856 354.955336 
L 303.557165 354.903762 
L 315.395474 354.830385 
L 327.233782 354.809107 
L 339.072091 354.779325 
L 350.9104 354.749693 
L 362.748709 354.698607 
L 374.587018 354.684961 
L 386.425326 354.694688 
L 398.263635 354.573407 
L 410.101944 354.602242 
L 421.940253 354.567603 
L 433.778562 354.455401 
L 445.61687 354.456125 
L 457.455179 354.465777 
L 469.293488 354.351891 
L 481.131797 354.351914 
L 492.970106 354.316841 
L 504.808414 354.250444 
L 516.646723 354.227996 
L 528.485032 354.202779 
L 540.323341 354.14524 
L 552.16165 354.125616 
L 563.999958 354.15342 
L 575.838267 354.02683 
L 587.676576 353.989714 
L 599.514885 353.91607 
L 611.353194 353.732384 
L 623.191502 353.72567 
L 635.029811 353.564065 
L 646.86812 353.575905 
L 658.706429 353.483635 
L 670.544738 353.123679 
" clip-path="url(#pff03e663bd)" style="fill: none; stroke: #40bd72; stroke-width: 1.5; stroke-linecap: round"/>
   </g>
   <g id="line2d_31">
    <path d="M 61.46375 357.591366 
L 699.548594 357.591366 
" clip-path="url(#pff03e663bd)" style="fill: none; stroke-dasharray: 3.7,1.6; stroke-dashoffset: 0; stroke: #40bd72; stroke-opacity: 0.6"/>
   </g>
   <g id="line2d_32">
    <path d="M 90.467607 38.288182 
L 102.305915 357.356751 
L 114.144224 356.904619 
L 125.982533 356.557143 
L 137.820842 356.295378 
L 149.659151 356.087042 
L 161.497459 355.909305 
L 173.335768 355.773247 
L 185.174077 355.646391 
L 197.012386 355.541026 
L 208.850695 355.435104 
L 220.689003 355.350417 
L 232.527312 355.277511 
L 244.365621 355.1768 
L 256.20393 355.111881 
L 268.042239 355.061161 
L 279.880547 354.993422 
L 291.718856 354.977414 
L 303.557165 354.9332 
L 315.395474 354.856235 
L 327.233782 354.84354 
L 339.072091 354.820707 
L 350.9104 354.800086 
L 362.748709 354.749526 
L 374.587018 354.746818 
L 386.425326 354.766003 
L 398.263635 354.634845 
L 410.101944 354.68269 
L 421.940253 354.655541 
L 433.778562 354.529616 
L 445.61687 354.539434 
L 457.455179 354.563222 
L 469.293488 354.435638 
L 481.131797 354.449307 
L 492.970106 354.420439 
L 504.808414 354.34906 
L 516.646723 354.335484 
L 528.485032 354.324078 
L 540.323341 354.260513 
L 552.16165 354.252956 
L 563.999958 354.303335 
L 575.838267 354.167549 
L 587.676576 354.131613 
L 599.514885 354.062076 
L 611.353194 353.87917 
L 623.191502 353.896101 
L 635.029811 353.732954 
L 646.86812 353.789436 
L 658.706429 353.707608 
L 670.544738 353.376755 
" clip-path="url(#pff03e663bd)" style="fill: none; stroke: #69cd5b; stroke-width: 1.5; stroke-linecap: round"/>
   </g>
   <g id="line2d_33">
    <path d="M 61.46375 357.651818 
L 699.548594 357.651818 
" clip-path="url(#pff03e663bd)" style="fill: none; stroke-dasharray: 3.7,1.6; stroke-dashoffset: 0; stroke: #69cd5b; stroke-opacity: 0.6"/>
   </g>
   <g id="line2d_34">
    <path d="M 90.467607 38.288182 
L 102.305915 357.38266 
L 114.144224 356.910688 
L 125.982533 356.557869 
L 137.820842 356.292704 
L 149.659151 356.082354 
L 161.497459 355.902022 
L 173.335768 355.76886 
L 185.174077 355.642878 
L 197.012386 355.540416 
L 208.850695 355.434456 
L 220.689003 355.352568 
L 232.527312 355.284041 
L 244.365621 355.178515 
L 256.20393 355.116662 
L 268.042239 355.072589 
L 279.880547 355.004376 
L 291.718856 355.000231 
L 303.557165 354.963815 
L 315.395474 354.883906 
L 327.233782 354.877233 
L 339.072091 354.860006 
L 350.9104 354.847159 
L 362.748709 354.796686 
L 374.587018 354.803774 
L 386.425326 354.828388 
L 398.263635 354.69053 
L 410.101944 354.75377 
L 421.940253 354.732968 
L 433.778562 354.595841 
L 445.61687 354.611632 
L 457.455179 354.647075 
L 469.293488 354.50732 
L 481.131797 354.533007 
L 492.970106 354.509387 
L 504.808414 354.431957 
L 516.646723 354.425787 
L 528.485032 354.427875 
L 540.323341 354.355909 
L 552.16165 354.358673 
L 563.999958 354.427981 
L 575.838267 354.284473 
L 587.676576 354.247841 
L 599.514885 354.182121 
L 611.353194 354.001178 
L 623.191502 354.03733 
L 635.029811 353.869246 
L 646.86812 353.959879 
L 658.706429 353.883062 
L 670.544738 353.574504 
" clip-path="url(#pff03e663bd)" style="fill: none; stroke: #9bd93c; stroke-width: 1.5; stroke-linecap: round"/>
   </g>
   <g id="line2d_35">
    <path d="M 61.46375 357.698792 
L 699.548594 357.698792 
" clip-path="url(#pff03e663bd)" style="fill: none; stroke-dasharray: 3.7,1.6; stroke-dashoffset: 0; stroke: #9bd93c; stroke-opacity: 0.6"/>
   </g>
   <g id="patch_3">
    <path d="M 61.46375 373.62 
L 61.46375 22.32 
" style="fill: none; stroke: #cccccc; stroke-width: 1.25; stroke-linejoin: miter; stroke-linecap: square"/>
   </g>
   <g id="patch_4">
    <path d="M 699.548594 373.62 
L 699.548594 22.32 
" style="fill: none; stroke: #cccccc; stroke-width: 1.25; stroke-linejoin: miter; stroke-linecap: square"/>
   </g>
   <g id="patch_5">
    <path d="M 61.46375 373.62 
L 699.548594 373.62 
" style="fill: none; stroke: #cccccc; stroke-width: 1.25; stroke-linejoin: miter; stroke-linecap: square"/>
   </g>
   <g id="patch_6">
    <path d="M 61.46375 22.32 
L 699.548594 22.32 
" style="fill: none; stroke: #cccccc; stroke-width: 1.25; stroke-linejoin: miter; stroke-linecap: square"/>
   </g>
   <g id="text_18">
    <!-- Cavity-Enhanced TMSV MZI ($\mathcal{F} = 5.0$) -->
    <g style="fill: #262626" transform="translate(270.586172 16.32) scale(0.12 -0.12)">
     <defs>
      <path id="DejaVuSans-43" d="M 4122 4306 
L 4122 3641 
Q 3803 3938 3442 4084 
Q 3081 4231 2675 4231 
Q 1875 4231 1450 3742 
Q 1025 3253 1025 2328 
Q 1025 1406 1450 917 
Q 1875 428 2675 428 
Q 3081 428 3442 575 
Q 3803 722 4122 1019 
L 4122 359 
Q 3791 134 3420 21 
Q 3050 -91 2638 -91 
Q 1578 -91 968 557 
Q 359 1206 359 2328 
Q 359 3453 968 4101 
Q 1578 4750 2638 4750 
Q 3056 4750 3426 4639 
Q 3797 4528 4122 4306 
z
" transform="scale(0.015625)"/>
      <path id="DejaVuSans-61" d="M 2194 1759 
Q 1497 1759 1228 1600 
Q 959 1441 959 1056 
Q 959 750 1161 570 
Q 1363 391 1709 391 
Q 2188 391 2477 730 
Q 2766 1069 2766 1631 
L 2766 1759 
L 2194 1759 
z
M 3341 1997 
L 3341 0 
L 2766 0 
L 2766 531 
Q 2569 213 2275 61 
Q 1981 -91 1556 -91 
Q 1019 -91 701 211 
Q 384 513 384 1019 
Q 384 1609 779 1909 
Q 1175 2209 1959 2209 
L 2766 2209 
L 2766 2266 
Q 2766 2663 2505 2880 
Q 2244 3097 1772 3097 
Q 1472 3097 1187 3025 
Q 903 2953 641 2809 
L 641 3341 
Q 956 3463 1253 3523 
Q 1550 3584 1831 3584 
Q 2591 3584 2966 3190 
Q 3341 2797 3341 1997 
z
" transform="scale(0.015625)"/>
      <path id="DejaVuSans-76" d="M 191 3500 
L 800 3500 
L 1894 563 
L 2988 3500 
L 3597 3500 
L 2284 0 
L 1503 0 
L 191 3500 
z
" transform="scale(0.015625)"/>
      <path id="DejaVuSans-69" d="M 603 3500 
L 1178 3500 
L 1178 0 
L 603 0 
L 603 3500 
z
M 603 4863 
L 1178 4863 
L 1178 4134 
L 603 4134 
L 603 4863 
z
" transform="scale(0.015625)"/>
      <path id="DejaVuSans-74" d="M 1172 4494 
L 1172 3500 
L 2356 3500 
L 2356 3053 
L 1172 3053 
L 1172 1153 
Q 1172 725 1289 603 
Q 1406 481 1766 481 
L 2356 481 
L 2356 0 
L 1766 0 
Q 1100 0 847 248 
Q 594 497 594 1153 
L 594 3053 
L 172 3053 
L 172 3500 
L 594 3500 
L 594 4494 
L 1172 4494 
z
" transform="scale(0.015625)"/>
      <path id="DejaVuSans-79" d="M 2059 -325 
Q 1816 -950 1584 -1140 
Q 1353 -1331 966 -1331 
L 506 -1331 
L 506 -850 
L 844 -850 
Q 1081 -850 1212 -737 
Q 1344 -625 1503 -206 
L 1606 56 
L 191 3500 
L 800 3500 
L 1894 763 
L 2988 3500 
L 3597 3500 
L 2059 -325 
z
" transform="scale(0.015625)"/>
      <path id="DejaVuSans-2d" d="M 313 2009 
L 1997 2009 
L 1997 1497 
L 313 1497 
L 313 2009 
z
" transform="scale(0.015625)"/>
      <path id="DejaVuSans-45" d="M 628 4666 
L 3578 4666 
L 3578 4134 
L 1259 4134 
L 1259 2753 
L 3481 2753 
L 3481 2222 
L 1259 2222 
L 1259 531 
L 3634 531 
L 3634 0 
L 628 0 
L 628 4666 
z
" transform="scale(0.015625)"/>
      <path id="DejaVuSans-6e" d="M 3513 2113 
L 3513 0 
L 2938 0 
L 2938 2094 
Q 2938 2591 2744 2837 
Q 2550 3084 2163 3084 
Q 1697 3084 1428 2787 
Q 1159 2491 1159 1978 
L 1159 0 
L 581 0 
L 581 3500 
L 1159 3500 
L 1159 2956 
Q 1366 3272 1645 3428 
Q 1925 3584 2291 3584 
Q 2894 3584 3203 3211 
Q 3513 2838 3513 2113 
z
" transform="scale(0.015625)"/>
      <path id="DejaVuSans-68" d="M 3513 2113 
L 3513 0 
L 2938 0 
L 2938 2094 
Q 2938 2591 2744 2837 
Q 2550 3084 2163 3084 
Q 1697 3084 1428 2787 
Q 1159 2491 1159 1978 
L 1159 0 
L 581 0 
L 581 4863 
L 1159 4863 
L 1159 2956 
Q 1366 3272 1645 3428 
Q 1925 3584 2291 3584 
Q 2894 3584 3203 3211 
Q 3513 2838 3513 2113 
z
" transform="scale(0.015625)"/>
      <path id="DejaVuSans-63" d="M 3122 3366 
L 3122 2828 
Q 2878 2963 2633 3030 
Q 2388 3097 2138 3097 
Q 1578 3097 1268 2742 
Q 959 2388 959 1747 
Q 959 1106 1268 751 
Q 1578 397 2138 397 
Q 2388 397 2633 464 
Q 2878 531 3122 666 
L 3122 134 
Q 2881 22 2623 -34 
Q 2366 -91 2075 -91 
Q 1284 -91 818 406 
Q 353 903 353 1747 
Q 353 2603 823 3093 
Q 1294 3584 2113 3584 
Q 2378 3584 2631 3529 
Q 2884 3475 3122 3366 
z
" transform="scale(0.015625)"/>
      <path id="DejaVuSans-65" d="M 3597 1894 
L 3597 1613 
L 953 1613 
Q 991 1019 1311 708 
Q 1631 397 2203 397 
Q 2534 397 2845 478 
Q 3156 559 3463 722 
L 3463 178 
Q 3153 47 2828 -22 
Q 2503 -91 2169 -91 
Q 1331 -91 842 396 
Q 353 884 353 1716 
Q 353 2575 817 3079 
Q 1281 3584 2069 3584 
Q 2775 3584 3186 3129 
Q 3597 2675 3597 1894 
z
M 3022 2063 
Q 3016 2534 2758 2815 
Q 2500 3097 2075 3097 
Q 1594 3097 1305 2825 
Q 1016 2553 972 2059 
L 3022 2063 
z
" transform="scale(0.015625)"/>
      <path id="DejaVuSans-64" d="M 2906 2969 
L 2906 4863 
L 3481 4863 
L 3481 0 
L 2906 0 
L 2906 525 
Q 2725 213 2448 61 
Q 2172 -91 1784 -91 
Q 1150 -91 751 415 
Q 353 922 353 1747 
Q 353 2572 751 3078 
Q 1150 3584 1784 3584 
Q 2172 3584 2448 3432 
Q 2725 3281 2906 2969 
z
M 947 1747 
Q 947 1113 1208 752 
Q 1469 391 1925 391 
Q 2381 391 2643 752 
Q 2906 1113 2906 1747 
Q 2906 2381 2643 2742 
Q 2381 3103 1925 3103 
Q 1469 3103 1208 2742 
Q 947 2381 947 1747 
z
" transform="scale(0.015625)"/>
      <path id="DejaVuSans-20" transform="scale(0.015625)"/>
      <path id="DejaVuSans-54" d="M -19 4666 
L 3928 4666 
L 3928 4134 
L 2272 4134 
L 2272 0 
L 1638 0 
L 1638 4134 
L -19 4134 
L -19 4666 
z
" transform="scale(0.015625)"/>
      <path id="DejaVuSans-4d" d="M 628 4666 
L 1569 4666 
L 2759 1491 
L 3956 4666 
L 4897 4666 
L 4897 0 
L 4281 0 
L 4281 4097 
L 3078 897 
L 2444 897 
L 1241 4097 
L 1241 0 
L 628 0 
L 628 4666 
z
" transform="scale(0.015625)"/>
      <path id="DejaVuSans-53" d="M 3425 4513 
L 3425 3897 
Q 3066 4069 2747 4153 
Q 2428 4238 2131 4238 
Q 1616 4238 1336 4038 
Q 1056 3838 1056 3469 
Q 1056 3159 1242 3001 
Q 1428 2844 1947 2747 
L 2328 2669 
Q 3034 2534 3370 2195 
Q 3706 1856 3706 1288 
Q 3706 609 3251 259 
Q 2797 -91 1919 -91 
Q 1588 -91 1214 -16 
Q 841 59 441 206 
L 441 856 
Q 825 641 1194 531 
Q 1563 422 1919 422 
Q 2459 422 2753 634 
Q 3047 847 3047 1241 
Q 3047 1584 2836 1778 
Q 2625 1972 2144 2069 
L 1759 2144 
Q 1053 2284 737 2584 
Q 422 2884 422 3419 
Q 422 4038 858 4394 
Q 1294 4750 2059 4750 
Q 2388 4750 2728 4690 
Q 3069 4631 3425 4513 
z
" transform="scale(0.015625)"/>
      <path id="DejaVuSans-56" d="M 1831 0 
L 50 4666 
L 709 4666 
L 2188 738 
L 3669 4666 
L 4325 4666 
L 2547 0 
L 1831 0 
z
" transform="scale(0.015625)"/>
      <path id="DejaVuSans-5a" d="M 359 4666 
L 4025 4666 
L 4025 4184 
L 1075 531 
L 4097 531 
L 4097 0 
L 288 0 
L 288 481 
L 3238 4134 
L 359 4134 
L 359 4666 
z
" transform="scale(0.015625)"/>
      <path id="DejaVuSans-49" d="M 628 4666 
L 1259 4666 
L 1259 0 
L 628 0 
L 628 4666 
z
" transform="scale(0.015625)"/>
      <path id="DejaVuSans-28" d="M 1984 4856 
Q 1566 4138 1362 3434 
Q 1159 2731 1159 2009 
Q 1159 1288 1364 580 
Q 1569 -128 1984 -844 
L 1484 -844 
Q 1016 -109 783 600 
Q 550 1309 550 2009 
Q 550 2706 781 3412 
Q 1013 4119 1484 4856 
L 1984 4856 
z
" transform="scale(0.015625)"/>
      <path id="STIXNonUnicode-Italic-e232" d="M 378 3418 
L 275 3533 
Q 730 3955 1174 4096 
Q 1619 4237 2163 4237 
Q 2714 4237 3110 4208 
Q 3507 4179 3849 4099 
Q 4192 4019 4368 3868 
Q 4544 3718 4544 3488 
Q 4544 3270 4429 3123 
Q 4314 2976 4109 2976 
Q 3962 2976 3853 3062 
Q 3744 3149 3744 3277 
Q 3744 3398 3792 3465 
Q 3840 3533 3897 3549 
Q 3955 3565 4000 3593 
Q 4045 3622 4045 3680 
Q 4045 3808 3696 3894 
Q 3347 3981 2893 3981 
Q 2694 3981 2608 3920 
Q 2522 3859 2464 3667 
L 2099 2413 
L 3494 2413 
L 3411 2157 
L 2029 2157 
L 1747 1203 
Q 1626 787 1491 537 
Q 1357 288 1174 173 
Q 992 58 829 29 
Q 666 0 384 0 
L 435 154 
Q 608 154 726 288 
Q 845 422 934 742 
L 1690 3334 
Q 1754 3558 1754 3667 
Q 1754 3776 1690 3827 
Q 1626 3878 1459 3878 
Q 858 3878 378 3418 
z
" transform="scale(0.015625)"/>
      <path id="DejaVuSans-3d" d="M 678 2906 
L 4684 2906 
L 4684 2381 
L 678 2381 
L 678 2906 
z
M 678 1631 
L 4684 1631 
L 4684 1100 
L 678 1100 
L 678 1631 
z
" transform="scale(0.015625)"/>
      <path id="DejaVuSans-29" d="M 513 4856 
L 1013 4856 
Q 1481 4119 1714 3412 
Q 1947 2706 1947 2009 
Q 1947 1309 1714 600 
Q 1481 -109 1013 -844 
L 513 -844 
Q 928 -128 1133 580 
Q 1338 1288 1338 2009 
Q 1338 2731 1133 3434 
Q 928 4138 513 4856 
z
" transform="scale(0.015625)"/>
     </defs>
     <use xlink:href="#DejaVuSans-43" transform="translate(0 0.015625)"/>
     <use xlink:href="#DejaVuSans-61" transform="translate(69.824219 0.015625)"/>
     <use xlink:href="#DejaVuSans-76" transform="translate(131.103516 0.015625)"/>
     <use xlink:href="#DejaVuSans-69" transform="translate(190.283203 0.015625)"/>
     <use xlink:href="#DejaVuSans-74" transform="translate(218.066406 0.015625)"/>
     <use xlink:href="#DejaVuSans-79" transform="translate(257.275391 0.015625)"/>
     <use xlink:href="#DejaVuSans-2d" transform="translate(316.455078 0.015625)"/>
     <use xlink:href="#DejaVuSans-45" transform="translate(352.539062 0.015625)"/>
     <use xlink:href="#DejaVuSans-6e" transform="translate(415.722656 0.015625)"/>
     <use xlink:href="#DejaVuSans-68" transform="translate(479.101562 0.015625)"/>
     <use xlink:href="#DejaVuSans-61" transform="translate(542.480469 0.015625)"/>
     <use xlink:href="#DejaVuSans-6e" transform="translate(603.759766 0.015625)"/>
     <use xlink:href="#DejaVuSans-63" transform="translate(667.138672 0.015625)"/>
     <use xlink:href="#DejaVuSans-65" transform="translate(722.119141 0.015625)"/>
     <use xlink:href="#DejaVuSans-64" transform="translate(783.642578 0.015625)"/>
     <use xlink:href="#DejaVuSans-20" transform="translate(847.119141 0.015625)"/>
     <use xlink:href="#DejaVuSans-54" transform="translate(878.90625 0.015625)"/>
     <use xlink:href="#DejaVuSans-4d" transform="translate(939.990234 0.015625)"/>
     <use xlink:href="#DejaVuSans-53" transform="translate(1026.269531 0.015625)"/>
     <use xlink:href="#DejaVuSans-56" transform="translate(1089.746094 0.015625)"/>
     <use xlink:href="#DejaVuSans-20" transform="translate(1158.154297 0.015625)"/>
     <use xlink:href="#DejaVuSans-4d" transform="translate(1189.941406 0.015625)"/>
     <use xlink:href="#DejaVuSans-5a" transform="translate(1276.220703 0.015625)"/>
     <use xlink:href="#DejaVuSans-49" transform="translate(1344.726562 0.015625)"/>
     <use xlink:href="#DejaVuSans-20" transform="translate(1374.21875 0.015625)"/>
     <use xlink:href="#DejaVuSans-28" transform="translate(1406.005859 0.015625)"/>
     <use xlink:href="#STIXNonUnicode-Italic-e232" transform="translate(1445.019531 0.015625)"/>
     <use xlink:href="#DejaVuSans-3d" transform="translate(1529.70195 0.015625)"/>
     <use xlink:href="#DejaVuSans-35" transform="translate(1632.973434 0.015625)"/>
     <use xlink:href="#DejaVuSans-2e" transform="translate(1696.596481 0.015625)"/>
     <use xlink:href="#DejaVuSans-30" transform="translate(1728.383591 0.015625)"/>
     <use xlink:href="#DejaVuSans-29" transform="translate(1792.006638 0.015625)"/>
    </g>
   </g>
   <g id="legend_1">
    <g id="patch_7">
     <path d="M 617.788594 146.145 
L 693.948594 146.145 
Q 695.548594 146.145 695.548594 144.545 
L 695.548594 27.92 
Q 695.548594 26.32 693.948594 26.32 
L 617.788594 26.32 
Q 616.188594 26.32 616.188594 27.92 
L 616.188594 144.545 
Q 616.188594 146.145 617.788594 146.145 
z
" style="fill: #ffffff; opacity: 0.8; stroke: #cccccc; stroke-linejoin: miter"/>
    </g>
    <g id="line2d_36">
     <path d="M 619.388594 32.79875 
L 627.388594 32.79875 
L 635.388594 32.79875 
" style="fill: none; stroke: #463480; stroke-width: 1.5; stroke-linecap: round"/>
    </g>
    <g id="text_19">
     <!-- $\langle N\rangle$=2  $\Delta\omega_{\mathrm{C}}$ -->
     <g style="fill: #262626" transform="translate(641.788594 35.59875) scale(0.08 -0.08)">
      <defs>
       <path id="DejaVuSans-27e8" d="M 572 2006 
L 1453 4856 
L 1984 4856 
L 1103 2006 
L 1984 -844 
L 1453 -844 
L 572 2006 
z
" transform="scale(0.015625)"/>
       <path id="DejaVuSans-Oblique-4e" d="M 1081 4666 
L 1931 4666 
L 3219 666 
L 4000 4666 
L 4616 4666 
L 3706 0 
L 2853 0 
L 1569 4025 
L 788 0 
L 172 0 
L 1081 4666 
z
" transform="scale(0.015625)"/>
       <path id="DejaVuSans-27e9" d="M 1925 2006 
L 1044 -844 
L 513 -844 
L 1394 2006 
L 513 4856 
L 1044 4856 
L 1925 2006 
z
" transform="scale(0.015625)"/>
      </defs>
      <use xlink:href="#DejaVuSans-27e8" transform="translate(0 0.125)"/>
      <use xlink:href="#DejaVuSans-Oblique-4e" transform="translate(39.013672 0.125)"/>
      <use xlink:href="#DejaVuSans-27e9" transform="translate(113.818359 0.125)"/>
      <use xlink:href="#DejaVuSans-3d" transform="translate(152.832031 0.125)"/>
      <use xlink:href="#DejaVuSans-32" transform="translate(236.621094 0.125)"/>
      <use xlink:href="#DejaVuSans-20" transform="translate(300.244141 0.125)"/>
      <use xlink:href="#DejaVuSans-20" transform="translate(332.03125 0.125)"/>
      <use xlink:href="#DejaVuSans-394" transform="translate(363.818359 0.125)"/>
      <use xlink:href="#DejaVuSans-Oblique-3c9" transform="translate(432.226562 0.125)"/>
      <use xlink:href="#DejaVuSans-43" transform="translate(515.966797 -16.28125) scale(0.7)"/>
     </g>
    </g>
    <g id="line2d_37">
     <path d="M 619.388594 44.54125 
L 627.388594 44.54125 
L 635.388594 44.54125 
" style="fill: none; stroke: #3e4c8a; stroke-width: 1.5; stroke-linecap: round"/>
    </g>
    <g id="text_20">
     <!-- $\langle N\rangle$=6  $\Delta\omega_{\mathrm{C}}$ -->
     <g style="fill: #262626" transform="translate(641.788594 47.34125) scale(0.08 -0.08)">
      <use xlink:href="#DejaVuSans-27e8" transform="translate(0 0.125)"/>
      <use xlink:href="#DejaVuSans-Oblique-4e" transform="translate(39.013672 0.125)"/>
      <use xlink:href="#DejaVuSans-27e9" transform="translate(113.818359 0.125)"/>
      <use xlink:href="#DejaVuSans-3d" transform="translate(152.832031 0.125)"/>
      <use xlink:href="#DejaVuSans-36" transform="translate(236.621094 0.125)"/>
      <use xlink:href="#DejaVuSans-20" transform="translate(300.244141 0.125)"/>
      <use xlink:href="#DejaVuSans-20" transform="translate(332.03125 0.125)"/>
      <use xlink:href="#DejaVuSans-394" transform="translate(363.818359 0.125)"/>
      <use xlink:href="#DejaVuSans-Oblique-3c9" transform="translate(432.226562 0.125)"/>
      <use xlink:href="#DejaVuSans-43" transform="translate(515.966797 -16.28125) scale(0.7)"/>
     </g>
    </g>
    <g id="line2d_38">
     <path d="M 619.388594 56.28375 
L 627.388594 56.28375 
L 635.388594 56.28375 
" style="fill: none; stroke: #34618d; stroke-width: 1.5; stroke-linecap: round"/>
    </g>
    <g id="text_21">
     <!-- $\langle N\rangle$=10  $\Delta\omega_{\mathrm{C}}$ -->
     <g style="fill: #262626" transform="translate(641.788594 59.08375) scale(0.08 -0.08)">
      <use xlink:href="#DejaVuSans-27e8" transform="translate(0 0.125)"/>
      <use xlink:href="#DejaVuSans-Oblique-4e" transform="translate(39.013672 0.125)"/>
      <use xlink:href="#DejaVuSans-27e9" transform="translate(113.818359 0.125)"/>
      <use xlink:href="#DejaVuSans-3d" transform="translate(152.832031 0.125)"/>
      <use xlink:href="#DejaVuSans-31" transform="translate(236.621094 0.125)"/>
      <use xlink:href="#DejaVuSans-30" transform="translate(300.244141 0.125)"/>
      <use xlink:href="#DejaVuSans-20" transform="translate(363.867188 0.125)"/>
      <use xlink:href="#DejaVuSans-20" transform="translate(395.654297 0.125)"/>
      <use xlink:href="#DejaVuSans-394" transform="translate(427.441406 0.125)"/>
      <use xlink:href="#DejaVuSans-Oblique-3c9" transform="translate(495.849609 0.125)"/>
      <use xlink:href="#DejaVuSans-43" transform="translate(579.589844 -16.28125) scale(0.7)"/>
     </g>
    </g>
    <g id="line2d_39">
     <path d="M 619.388594 68.02625 
L 627.388594 68.02625 
L 635.388594 68.02625 
" style="fill: none; stroke: #2b748e; stroke-width: 1.5; stroke-linecap: round"/>
    </g>
    <g id="text_22">
     <!-- $\langle N\rangle$=14  $\Delta\omega_{\mathrm{C}}$ -->
     <g style="fill: #262626" transform="translate(641.788594 70.82625) scale(0.08 -0.08)">
      <use xlink:href="#DejaVuSans-27e8" transform="translate(0 0.125)"/>
      <use xlink:href="#DejaVuSans-Oblique-4e" transform="translate(39.013672 0.125)"/>
      <use xlink:href="#DejaVuSans-27e9" transform="translate(113.818359 0.125)"/>
      <use xlink:href="#DejaVuSans-3d" transform="translate(152.832031 0.125)"/>
      <use xlink:href="#DejaVuSans-31" transform="translate(236.621094 0.125)"/>
      <use xlink:href="#DejaVuSans-34" transform="translate(300.244141 0.125)"/>
      <use xlink:href="#DejaVuSans-20" transform="translate(363.867188 0.125)"/>
      <use xlink:href="#DejaVuSans-20" transform="translate(395.654297 0.125)"/>
      <use xlink:href="#DejaVuSans-394" transform="translate(427.441406 0.125)"/>
      <use xlink:href="#DejaVuSans-Oblique-3c9" transform="translate(495.849609 0.125)"/>
      <use xlink:href="#DejaVuSans-43" transform="translate(579.589844 -16.28125) scale(0.7)"/>
     </g>
    </g>
    <g id="line2d_40">
     <path d="M 619.388594 79.76875 
L 627.388594 79.76875 
L 635.388594 79.76875 
" style="fill: none; stroke: #24878e; stroke-width: 1.5; stroke-linecap: round"/>
    </g>
    <g id="text_23">
     <!-- $\langle N\rangle$=18  $\Delta\omega_{\mathrm{C}}$ -->
     <g style="fill: #262626" transform="translate(641.788594 82.56875) scale(0.08 -0.08)">
      <use xlink:href="#DejaVuSans-27e8" transform="translate(0 0.125)"/>
      <use xlink:href="#DejaVuSans-Oblique-4e" transform="translate(39.013672 0.125)"/>
      <use xlink:href="#DejaVuSans-27e9" transform="translate(113.818359 0.125)"/>
      <use xlink:href="#DejaVuSans-3d" transform="translate(152.832031 0.125)"/>
      <use xlink:href="#DejaVuSans-31" transform="translate(236.621094 0.125)"/>
      <use xlink:href="#DejaVuSans-38" transform="translate(300.244141 0.125)"/>
      <use xlink:href="#DejaVuSans-20" transform="translate(363.867188 0.125)"/>
      <use xlink:href="#DejaVuSans-20" transform="translate(395.654297 0.125)"/>
      <use xlink:href="#DejaVuSans-394" transform="translate(427.441406 0.125)"/>
      <use xlink:href="#DejaVuSans-Oblique-3c9" transform="translate(495.849609 0.125)"/>
      <use xlink:href="#DejaVuSans-43" transform="translate(579.589844 -16.28125) scale(0.7)"/>
     </g>
    </g>
    <g id="line2d_41">
     <path d="M 619.388594 91.51125 
L 627.388594 91.51125 
L 635.388594 91.51125 
" style="fill: none; stroke: #1f998a; stroke-width: 1.5; stroke-linecap: round"/>
    </g>
    <g id="text_24">
     <!-- $\langle N\rangle$=22  $\Delta\omega_{\mathrm{C}}$ -->
     <g style="fill: #262626" transform="translate(641.788594 94.31125) scale(0.08 -0.08)">
      <use xlink:href="#DejaVuSans-27e8" transform="translate(0 0.125)"/>
      <use xlink:href="#DejaVuSans-Oblique-4e" transform="translate(39.013672 0.125)"/>
      <use xlink:href="#DejaVuSans-27e9" transform="translate(113.818359 0.125)"/>
      <use xlink:href="#DejaVuSans-3d" transform="translate(152.832031 0.125)"/>
      <use xlink:href="#DejaVuSans-32" transform="translate(236.621094 0.125)"/>
      <use xlink:href="#DejaVuSans-32" transform="translate(300.244141 0.125)"/>
      <use xlink:href="#DejaVuSans-20" transform="translate(363.867188 0.125)"/>
      <use xlink:href="#DejaVuSans-20" transform="translate(395.654297 0.125)"/>
      <use xlink:href="#DejaVuSans-394" transform="translate(427.441406 0.125)"/>
      <use xlink:href="#DejaVuSans-Oblique-3c9" transform="translate(495.849609 0.125)"/>
      <use xlink:href="#DejaVuSans-43" transform="translate(579.589844 -16.28125) scale(0.7)"/>
     </g>
    </g>
    <g id="line2d_42">
     <path d="M 619.388594 103.25375 
L 627.388594 103.25375 
L 635.388594 103.25375 
" style="fill: none; stroke: #25ac82; stroke-width: 1.5; stroke-linecap: round"/>
    </g>
    <g id="text_25">
     <!-- $\langle N\rangle$=26  $\Delta\omega_{\mathrm{C}}$ -->
     <g style="fill: #262626" transform="translate(641.788594 106.05375) scale(0.08 -0.08)">
      <use xlink:href="#DejaVuSans-27e8" transform="translate(0 0.125)"/>
      <use xlink:href="#DejaVuSans-Oblique-4e" transform="translate(39.013672 0.125)"/>
      <use xlink:href="#DejaVuSans-27e9" transform="translate(113.818359 0.125)"/>
      <use xlink:href="#DejaVuSans-3d" transform="translate(152.832031 0.125)"/>
      <use xlink:href="#DejaVuSans-32" transform="translate(236.621094 0.125)"/>
      <use xlink:href="#DejaVuSans-36" transform="translate(300.244141 0.125)"/>
      <use xlink:href="#DejaVuSans-20" transform="translate(363.867188 0.125)"/>
      <use xlink:href="#DejaVuSans-20" transform="translate(395.654297 0.125)"/>
      <use xlink:href="#DejaVuSans-394" transform="translate(427.441406 0.125)"/>
      <use xlink:href="#DejaVuSans-Oblique-3c9" transform="translate(495.849609 0.125)"/>
      <use xlink:href="#DejaVuSans-43" transform="translate(579.589844 -16.28125) scale(0.7)"/>
     </g>
    </g>
    <g id="line2d_43">
     <path d="M 619.388594 114.99625 
L 627.388594 114.99625 
L 635.388594 114.99625 
" style="fill: none; stroke: #40bd72; stroke-width: 1.5; stroke-linecap: round"/>
    </g>
    <g id="text_26">
     <!-- $\langle N\rangle$=30  $\Delta\omega_{\mathrm{C}}$ -->
     <g style="fill: #262626" transform="translate(641.788594 117.79625) scale(0.08 -0.08)">
      <use xlink:href="#DejaVuSans-27e8" transform="translate(0 0.125)"/>
      <use xlink:href="#DejaVuSans-Oblique-4e" transform="translate(39.013672 0.125)"/>
      <use xlink:href="#DejaVuSans-27e9" transform="translate(113.818359 0.125)"/>
      <use xlink:href="#DejaVuSans-3d" transform="translate(152.832031 0.125)"/>
      <use xlink:href="#DejaVuSans-33" transform="translate(236.621094 0.125)"/>
      <use xlink:href="#DejaVuSans-30" transform="translate(300.244141 0.125)"/>
      <use xlink:href="#DejaVuSans-20" transform="translate(363.867188 0.125)"/>
      <use xlink:href="#DejaVuSans-20" transform="translate(395.654297 0.125)"/>
      <use xlink:href="#DejaVuSans-394" transform="translate(427.441406 0.125)"/>
      <use xlink:href="#DejaVuSans-Oblique-3c9" transform="translate(495.849609 0.125)"/>
      <use xlink:href="#DejaVuSans-43" transform="translate(579.589844 -16.28125) scale(0.7)"/>
     </g>
    </g>
    <g id="line2d_44">
     <path d="M 619.388594 126.73875 
L 627.388594 126.73875 
L 635.388594 126.73875 
" style="fill: none; stroke: #69cd5b; stroke-width: 1.5; stroke-linecap: round"/>
    </g>
    <g id="text_27">
     <!-- $\langle N\rangle$=34  $\Delta\omega_{\mathrm{C}}$ -->
     <g style="fill: #262626" transform="translate(641.788594 129.53875) scale(0.08 -0.08)">
      <use xlink:href="#DejaVuSans-27e8" transform="translate(0 0.125)"/>
      <use xlink:href="#DejaVuSans-Oblique-4e" transform="translate(39.013672 0.125)"/>
      <use xlink:href="#DejaVuSans-27e9" transform="translate(113.818359 0.125)"/>
      <use xlink:href="#DejaVuSans-3d" transform="translate(152.832031 0.125)"/>
      <use xlink:href="#DejaVuSans-33" transform="translate(236.621094 0.125)"/>
      <use xlink:href="#DejaVuSans-34" transform="translate(300.244141 0.125)"/>
      <use xlink:href="#DejaVuSans-20" transform="translate(363.867188 0.125)"/>
      <use xlink:href="#DejaVuSans-20" transform="translate(395.654297 0.125)"/>
      <use xlink:href="#DejaVuSans-394" transform="translate(427.441406 0.125)"/>
      <use xlink:href="#DejaVuSans-Oblique-3c9" transform="translate(495.849609 0.125)"/>
      <use xlink:href="#DejaVuSans-43" transform="translate(579.589844 -16.28125) scale(0.7)"/>
     </g>
    </g>
    <g id="line2d_45">
     <path d="M 619.388594 138.48125 
L 627.388594 138.48125 
L 635.388594 138.48125 
" style="fill: none; stroke: #9bd93c; stroke-width: 1.5; stroke-linecap: round"/>
    </g>
    <g id="text_28">
     <!-- $\langle N\rangle$=38  $\Delta\omega_{\mathrm{C}}$ -->
     <g style="fill: #262626" transform="translate(641.788594 141.28125) scale(0.08 -0.08)">
      <use xlink:href="#DejaVuSans-27e8" transform="translate(0 0.125)"/>
      <use xlink:href="#DejaVuSans-Oblique-4e" transform="translate(39.013672 0.125)"/>
      <use xlink:href="#DejaVuSans-27e9" transform="translate(113.818359 0.125)"/>
      <use xlink:href="#DejaVuSans-3d" transform="translate(152.832031 0.125)"/>
      <use xlink:href="#DejaVuSans-33" transform="translate(236.621094 0.125)"/>
      <use xlink:href="#DejaVuSans-38" transform="translate(300.244141 0.125)"/>
      <use xlink:href="#DejaVuSans-20" transform="translate(363.867188 0.125)"/>
      <use xlink:href="#DejaVuSans-20" transform="translate(395.654297 0.125)"/>
      <use xlink:href="#DejaVuSans-394" transform="translate(427.441406 0.125)"/>
      <use xlink:href="#DejaVuSans-Oblique-3c9" transform="translate(495.849609 0.125)"/>
      <use xlink:href="#DejaVuSans-43" transform="translate(579.589844 -16.28125) scale(0.7)"/>
     </g>
    </g>
   </g>
  </g>
 </g>
 <defs>
  <clipPath id="pff03e663bd">
   <rect x="61.46375" y="22.32" width="638.084844" height="351.3"/>
  </clipPath>
 </defs>
</svg>
