<?xml version="1.0" encoding="utf-8" standalone="no"?>
<!DOCTYPE svg PUBLIC "-//W3C//DTD SVG 1.1//EN"
  "http://www.w3.org/Graphics/SVG/1.1/DTD/svg11.dtd">
<svg xmlns:xlink="http://www.w3.org/1999/xlink" width="703.440979pt" height="413.769813pt" viewBox="0 0 703.440979 413.769813" xmlns="http://www.w3.org/2000/svg" version="1.1">
 <metadata>
  <rdf:RDF xmlns:dc="http://purl.org/dc/elements/1.1/" xmlns:cc="http://creativecommons.org/ns#" xmlns:rdf="http://www.w3.org/1999/02/22-rdf-syntax-ns#">
   <cc:Work>
    <dc:type rdf:resource="http://purl.org/dc/dcmitype/StillImage"/>
    <dc:date>2026-05-25T15:45:00.366512</dc:date>
    <dc:format>image/svg+xml</dc:format>
    <dc:creator>
     <cc:Agent>
      <dc:title>Matplotlib v3.10.9, https://matplotlib.org/</dc:title>
     </cc:Agent>
    </dc:creator>
   </cc:Work>
  </rdf:RDF>
 </metadata>
 <defs>
  <style type="text/css">*{stroke-linejoin: round; stroke-linecap: butt}</style>
 </defs>
 <g id="figure_1">
  <g id="patch_1">
   <path d="M 0 413.769813 
L 703.440979 413.769813 
L 703.440979 0 
L 0 0 
z
" style="fill: #ffffff"/>
  </g>
  <g id="axes_1">
   <g id="patch_2">
    <path d="M 53.02 370.810125 
L 696.240979 370.810125 
L 696.240979 22.318125 
L 53.02 22.318125 
z
" style="fill: #ffffff"/>
   </g>
   <g id="matplotlib.axis_1">
    <g id="xtick_1">
     <g id="line2d_1">
      <path d="M 82.257317 370.810125 
L 82.257317 22.318125 
" clip-path="url(#p271cb76d4a)" style="fill: none; stroke: #cccccc; stroke-opacity: 0.3; stroke-linecap: round"/>
     </g>
     <g id="text_1">
      <!-- $\mathdefault{10^{-2}}$ -->
      <g style="fill: #262626" transform="translate(69.332317 388.668406) scale(0.11 -0.11)">
       <defs>
        <path id="DejaVuSans-31" d="M 794 531 
L 1825 531 
L 1825 4091 
L 703 3866 
L 703 4441 
L 1819 4666 
L 2450 4666 
L 2450 531 
L 3481 531 
L 3481 0 
L 794 0 
L 794 531 
z
" transform="scale(0.015625)"/>
        <path id="DejaVuSans-30" d="M 2034 4250 
Q 1547 4250 1301 3770 
Q 1056 3291 1056 2328 
Q 1056 1369 1301 889 
Q 1547 409 2034 409 
Q 2525 409 2770 889 
Q 3016 1369 3016 2328 
Q 3016 3291 2770 3770 
Q 2525 4250 2034 4250 
z
M 2034 4750 
Q 2819 4750 3233 4129 
Q 3647 3509 3647 2328 
Q 3647 1150 3233 529 
Q 2819 -91 2034 -91 
Q 1250 -91 836 529 
Q 422 1150 422 2328 
Q 422 3509 836 4129 
Q 1250 4750 2034 4750 
z
" transform="scale(0.015625)"/>
        <path id="DejaVuSans-2212" d="M 678 2272 
L 4684 2272 
L 4684 1741 
L 678 1741 
L 678 2272 
z
" transform="scale(0.015625)"/>
        <path id="DejaVuSans-32" d="M 1228 531 
L 3431 531 
L 3431 0 
L 469 0 
L 469 531 
Q 828 903 1448 1529 
Q 2069 2156 2228 2338 
Q 2531 2678 2651 2914 
Q 2772 3150 2772 3378 
Q 2772 3750 2511 3984 
Q 2250 4219 1831 4219 
Q 1534 4219 1204 4116 
Q 875 4013 500 3803 
L 500 4441 
Q 881 4594 1212 4672 
Q 1544 4750 1819 4750 
Q 2544 4750 2975 4387 
Q 3406 4025 3406 3419 
Q 3406 3131 3298 2873 
Q 3191 2616 2906 2266 
Q 2828 2175 2409 1742 
Q 1991 1309 1228 531 
z
" transform="scale(0.015625)"/>
       </defs>
       <use xlink:href="#DejaVuSans-31" transform="translate(0 0.765625)"/>
       <use xlink:href="#DejaVuSans-30" transform="translate(63.623047 0.765625)"/>
       <use xlink:href="#DejaVuSans-2212" transform="translate(128.203125 39.046875) scale(0.7)"/>
       <use xlink:href="#DejaVuSans-32" transform="translate(186.855469 39.046875) scale(0.7)"/>
      </g>
     </g>
    </g>
    <g id="xtick_2">
     <g id="line2d_2">
      <path d="M 374.630489 370.810125 
L 374.630489 22.318125 
" clip-path="url(#p271cb76d4a)" style="fill: none; stroke: #cccccc; stroke-opacity: 0.3; stroke-linecap: round"/>
     </g>
     <g id="text_2">
      <!-- $\mathdefault{10^{-1}}$ -->
      <g style="fill: #262626" transform="translate(361.705489 388.668406) scale(0.11 -0.11)">
       <use xlink:href="#DejaVuSans-31" transform="translate(0 0.684375)"/>
       <use xlink:href="#DejaVuSans-30" transform="translate(63.623047 0.684375)"/>
       <use xlink:href="#DejaVuSans-2212" transform="translate(128.203125 38.965625) scale(0.7)"/>
       <use xlink:href="#DejaVuSans-31" transform="translate(186.855469 38.965625) scale(0.7)"/>
      </g>
     </g>
    </g>
    <g id="xtick_3">
     <g id="line2d_3">
      <path d="M 667.003662 370.810125 
L 667.003662 22.318125 
" clip-path="url(#p271cb76d4a)" style="fill: none; stroke: #cccccc; stroke-opacity: 0.3; stroke-linecap: round"/>
     </g>
     <g id="text_3">
      <!-- $\mathdefault{10^{0}}$ -->
      <g style="fill: #262626" transform="translate(657.323662 388.668406) scale(0.11 -0.11)">
       <use xlink:href="#DejaVuSans-31" transform="translate(0 0.765625)"/>
       <use xlink:href="#DejaVuSans-30" transform="translate(63.623047 0.765625)"/>
       <use xlink:href="#DejaVuSans-30" transform="translate(128.203125 39.046875) scale(0.7)"/>
      </g>
     </g>
    </g>
    <g id="xtick_4"/>
    <g id="xtick_5"/>
    <g id="xtick_6"/>
    <g id="xtick_7"/>
    <g id="xtick_8"/>
    <g id="xtick_9"/>
    <g id="xtick_10"/>
    <g id="xtick_11"/>
    <g id="xtick_12"/>
    <g id="xtick_13"/>
    <g id="xtick_14"/>
    <g id="xtick_15"/>
    <g id="xtick_16"/>
    <g id="xtick_17"/>
    <g id="xtick_18"/>
    <g id="xtick_19"/>
    <g id="xtick_20"/>
    <g id="xtick_21"/>
    <g id="text_4">
     <!-- $\gamma_\phi$ -->
     <g style="fill: #262626" transform="translate(368.090489 402.849812) scale(0.12 -0.12)">
      <defs>
       <path id="DejaVuSans-Oblique-3b3" d="M 1491 2950 
L 1838 788 
L 3456 3500 
L 4066 3500 
L 1972 0 
L 1713 -1331 
L 1138 -1331 
L 1397 0 
L 988 2613 
Q 925 3006 628 3006 
L 475 3006 
L 569 3500 
L 788 3500 
Q 1403 3500 1491 2950 
z
" transform="scale(0.015625)"/>
       <path id="DejaVuSans-Oblique-3d5" d="M 2991 4863 
L 2738 3572 
Q 3363 3572 3684 3094 
Q 4016 2606 3850 1747 
Q 3681 888 3159 400 
Q 2653 -78 2028 -78 
L 1784 -1331 
L 1213 -1331 
L 1456 -78 
Q 834 -78 509 400 
Q 178 888 347 1747 
Q 513 2606 1034 3094 
Q 1544 3572 2166 3572 
L 2419 4863 
L 2991 4863 
z
M 2128 434 
Q 2481 434 2784 756 
Q 3116 1116 3244 1747 
Q 3369 2372 3169 2738 
Q 2991 3059 2638 3059 
L 2128 434 
z
M 1556 434 
L 2066 3059 
Q 1716 3059 1413 2738 
Q 1072 2372 953 1747 
Q 834 1116 1028 756 
Q 1203 434 1556 434 
z
" transform="scale(0.015625)"/>
      </defs>
      <use xlink:href="#DejaVuSans-Oblique-3b3" transform="translate(0 0.3125)"/>
      <use xlink:href="#DejaVuSans-Oblique-3d5" transform="translate(59.179688 -16.09375) scale(0.7)"/>
     </g>
    </g>
   </g>
   <g id="matplotlib.axis_2">
    <g id="ytick_1">
     <g id="line2d_4">
      <path d="M 53.02 354.96958 
L 696.240979 354.96958 
" clip-path="url(#p271cb76d4a)" style="fill: none; stroke: #cccccc; stroke-opacity: 0.3; stroke-linecap: round"/>
     </g>
     <g id="text_5">
      <!-- $\mathdefault{10^{0}}$ -->
      <g style="fill: #262626" transform="translate(24.16 359.14872) scale(0.11 -0.11)">
       <use xlink:href="#DejaVuSans-31" transform="translate(0 0.765625)"/>
       <use xlink:href="#DejaVuSans-30" transform="translate(63.623047 0.765625)"/>
       <use xlink:href="#DejaVuSans-30" transform="translate(128.203125 39.046875) scale(0.7)"/>
      </g>
     </g>
    </g>
    <g id="ytick_2">
     <g id="line2d_5">
      <path d="M 53.02 115.326928 
L 696.240979 115.326928 
" clip-path="url(#p271cb76d4a)" style="fill: none; stroke: #cccccc; stroke-opacity: 0.3; stroke-linecap: round"/>
     </g>
     <g id="text_6">
      <!-- $\mathdefault{10^{1}}$ -->
      <g style="fill: #262626" transform="translate(24.16 119.506069) scale(0.11 -0.11)">
       <use xlink:href="#DejaVuSans-31" transform="translate(0 0.684375)"/>
       <use xlink:href="#DejaVuSans-30" transform="translate(63.623047 0.684375)"/>
       <use xlink:href="#DejaVuSans-31" transform="translate(128.203125 38.965625) scale(0.7)"/>
      </g>
     </g>
    </g>
    <g id="ytick_3"/>
    <g id="ytick_4"/>
    <g id="ytick_5"/>
    <g id="ytick_6"/>
    <g id="ytick_7"/>
    <g id="ytick_8"/>
    <g id="ytick_9"/>
    <g id="ytick_10"/>
    <g id="ytick_11"/>
    <g id="ytick_12"/>
    <g id="text_7">
     <!-- $\Delta\theta_{\mathrm{fixed}} / \Delta\theta_{\mathrm{reopt}}$ -->
     <g style="fill: #262626" transform="translate(16.44 236.044125) rotate(-90) scale(0.12 -0.12)">
      <defs>
       <path id="DejaVuSans-394" d="M 2188 4044 
L 906 525 
L 3472 525 
L 2188 4044 
z
M 50 0 
L 1831 4666 
L 2547 4666 
L 4325 0 
L 50 0 
z
" transform="scale(0.015625)"/>
       <path id="DejaVuSans-Oblique-3b8" d="M 2913 2219 
L 925 2219 
Q 791 1284 928 888 
Q 1100 400 1566 400 
Q 2034 400 2391 891 
Q 2703 1322 2913 2219 
z
M 3009 2750 
Q 3094 3638 2984 3950 
Q 2813 4444 2353 4444 
Q 1875 4444 1525 3956 
Q 1250 3563 1034 2750 
L 3009 2750 
z
M 2444 4913 
Q 3194 4913 3494 4250 
Q 3794 3591 3566 2422 
Q 3341 1256 2781 594 
Q 2225 -72 1475 -72 
Q 722 -72 425 594 
Q 128 1256 353 2422 
Q 581 3591 1134 4250 
Q 1691 4913 2444 4913 
z
" transform="scale(0.015625)"/>
       <path id="DejaVuSans-66" d="M 2375 4863 
L 2375 4384 
L 1825 4384 
Q 1516 4384 1395 4259 
Q 1275 4134 1275 3809 
L 1275 3500 
L 2222 3500 
L 2222 3053 
L 1275 3053 
L 1275 0 
L 697 0 
L 697 3053 
L 147 3053 
L 147 3500 
L 697 3500 
L 697 3744 
Q 697 4328 969 4595 
Q 1241 4863 1831 4863 
L 2375 4863 
z
" transform="scale(0.015625)"/>
       <path id="DejaVuSans-69" d="M 603 3500 
L 1178 3500 
L 1178 0 
L 603 0 
L 603 3500 
z
M 603 4863 
L 1178 4863 
L 1178 4134 
L 603 4134 
L 603 4863 
z
" transform="scale(0.015625)"/>
       <path id="DejaVuSans-78" d="M 3513 3500 
L 2247 1797 
L 3578 0 
L 2900 0 
L 1881 1375 
L 863 0 
L 184 0 
L 1544 1831 
L 300 3500 
L 978 3500 
L 1906 2253 
L 2834 3500 
L 3513 3500 
z
" transform="scale(0.015625)"/>
       <path id="DejaVuSans-65" d="M 3597 1894 
L 3597 1613 
L 953 1613 
Q 991 1019 1311 708 
Q 1631 397 2203 397 
Q 2534 397 2845 478 
Q 3156 559 3463 722 
L 3463 178 
Q 3153 47 2828 -22 
Q 2503 -91 2169 -91 
Q 1331 -91 842 396 
Q 353 884 353 1716 
Q 353 2575 817 3079 
Q 1281 3584 2069 3584 
Q 2775 3584 3186 3129 
Q 3597 2675 3597 1894 
z
M 3022 2063 
Q 3016 2534 2758 2815 
Q 2500 3097 2075 3097 
Q 1594 3097 1305 2825 
Q 1016 2553 972 2059 
L 3022 2063 
z
" transform="scale(0.015625)"/>
       <path id="DejaVuSans-64" d="M 2906 2969 
L 2906 4863 
L 3481 4863 
L 3481 0 
L 2906 0 
L 2906 525 
Q 2725 213 2448 61 
Q 2172 -91 1784 -91 
Q 1150 -91 751 415 
Q 353 922 353 1747 
Q 353 2572 751 3078 
Q 1150 3584 1784 3584 
Q 2172 3584 2448 3432 
Q 2725 3281 2906 2969 
z
M 947 1747 
Q 947 1113 1208 752 
Q 1469 391 1925 391 
Q 2381 391 2643 752 
Q 2906 1113 2906 1747 
Q 2906 2381 2643 2742 
Q 2381 3103 1925 3103 
Q 1469 3103 1208 2742 
Q 947 2381 947 1747 
z
" transform="scale(0.015625)"/>
       <path id="DejaVuSans-2f" d="M 1625 4666 
L 2156 4666 
L 531 -594 
L 0 -594 
L 1625 4666 
z
" transform="scale(0.015625)"/>
       <path id="DejaVuSans-72" d="M 2631 2963 
Q 2534 3019 2420 3045 
Q 2306 3072 2169 3072 
Q 1681 3072 1420 2755 
Q 1159 2438 1159 1844 
L 1159 0 
L 581 0 
L 581 3500 
L 1159 3500 
L 1159 2956 
Q 1341 3275 1631 3429 
Q 1922 3584 2338 3584 
Q 2397 3584 2469 3576 
Q 2541 3569 2628 3553 
L 2631 2963 
z
" transform="scale(0.015625)"/>
       <path id="DejaVuSans-6f" d="M 1959 3097 
Q 1497 3097 1228 2736 
Q 959 2375 959 1747 
Q 959 1119 1226 758 
Q 1494 397 1959 397 
Q 2419 397 2687 759 
Q 2956 1122 2956 1747 
Q 2956 2369 2687 2733 
Q 2419 3097 1959 3097 
z
M 1959 3584 
Q 2709 3584 3137 3096 
Q 3566 2609 3566 1747 
Q 3566 888 3137 398 
Q 2709 -91 1959 -91 
Q 1206 -91 779 398 
Q 353 888 353 1747 
Q 353 2609 779 3096 
Q 1206 3584 1959 3584 
z
" transform="scale(0.015625)"/>
       <path id="DejaVuSans-70" d="M 1159 525 
L 1159 -1331 
L 581 -1331 
L 581 3500 
L 1159 3500 
L 1159 2969 
Q 1341 3281 1617 3432 
Q 1894 3584 2278 3584 
Q 2916 3584 3314 3078 
Q 3713 2572 3713 1747 
Q 3713 922 3314 415 
Q 2916 -91 2278 -91 
Q 1894 -91 1617 61 
Q 1341 213 1159 525 
z
M 3116 1747 
Q 3116 2381 2855 2742 
Q 2594 3103 2138 3103 
Q 1681 3103 1420 2742 
Q 1159 2381 1159 1747 
Q 1159 1113 1420 752 
Q 1681 391 2138 391 
Q 2594 391 2855 752 
Q 3116 1113 3116 1747 
z
" transform="scale(0.015625)"/>
       <path id="DejaVuSans-74" d="M 1172 4494 
L 1172 3500 
L 2356 3500 
L 2356 3053 
L 1172 3053 
L 1172 1153 
Q 1172 725 1289 603 
Q 1406 481 1766 481 
L 2356 481 
L 2356 0 
L 1766 0 
Q 1100 0 847 248 
Q 594 497 594 1153 
L 594 3053 
L 172 3053 
L 172 3500 
L 594 3500 
L 594 4494 
L 1172 4494 
z
" transform="scale(0.015625)"/>
      </defs>
      <use xlink:href="#DejaVuSans-394" transform="translate(0 0.234375)"/>
      <use xlink:href="#DejaVuSans-Oblique-3b8" transform="translate(68.408203 0.234375)"/>
      <use xlink:href="#DejaVuSans-66" transform="translate(129.589844 -16.171875) scale(0.7)"/>
      <use xlink:href="#DejaVuSans-69" transform="translate(154.233398 -16.171875) scale(0.7)"/>
      <use xlink:href="#DejaVuSans-78" transform="translate(173.681641 -16.171875) scale(0.7)"/>
      <use xlink:href="#DejaVuSans-65" transform="translate(215.107422 -16.171875) scale(0.7)"/>
      <use xlink:href="#DejaVuSans-64" transform="translate(258.173828 -16.171875) scale(0.7)"/>
      <use xlink:href="#DejaVuSans-2f" transform="translate(305.341797 0.234375)"/>
      <use xlink:href="#DejaVuSans-394" transform="translate(339.033203 0.234375)"/>
      <use xlink:href="#DejaVuSans-Oblique-3b8" transform="translate(407.441406 0.234375)"/>
      <use xlink:href="#DejaVuSans-72" transform="translate(468.623047 -16.171875) scale(0.7)"/>
      <use xlink:href="#DejaVuSans-65" transform="translate(497.402344 -16.171875) scale(0.7)"/>
      <use xlink:href="#DejaVuSans-6f" transform="translate(540.46875 -16.171875) scale(0.7)"/>
      <use xlink:href="#DejaVuSans-70" transform="translate(583.295898 -16.171875) scale(0.7)"/>
      <use xlink:href="#DejaVuSans-74" transform="translate(627.729492 -16.171875) scale(0.7)"/>
     </g>
    </g>
   </g>
   <g id="line2d_6">
    <path d="M 82.257317 354.769346 
L 101.120103 354.717598 
L 119.982888 354.64266 
L 138.845673 354.529509 
L 157.708458 354.489518 
L 176.571244 354.269685 
L 195.434029 354.198247 
L 214.296814 353.860566 
L 233.1596 353.964863 
L 252.022385 353.396563 
L 270.88517 353.116476 
L 289.747956 353.408612 
L 308.610741 353.185482 
L 327.473526 352.075151 
L 346.336311 352.75599 
L 365.199097 351.429165 
L 384.061882 350.878219 
L 402.924667 350.451317 
L 421.787453 350.015854 
L 440.650238 349.925425 
L 459.513023 349.140586 
L 478.375809 351.955964 
L 497.238594 349.551368 
L 516.101379 351.961018 
L 534.964165 346.912132 
L 553.82695 350.78098 
L 572.689735 349.16436 
L 591.55252 343.131759 
L 610.415306 339.938769 
L 629.278091 336.274814 
L 648.140876 332.197454 
L 667.003662 327.370247 
" clip-path="url(#p271cb76d4a)" style="fill: none; stroke: #440154; stroke-width: 1.5; stroke-linecap: round"/>
    <defs>
     <path id="m3779221f2e" d="M 0 2.5 
C 0.663008 2.5 1.29895 2.236584 1.767767 1.767767 
C 2.236584 1.29895 2.5 0.663008 2.5 0 
C 2.5 -0.663008 2.236584 -1.29895 1.767767 -1.767767 
C 1.29895 -2.236584 0.663008 -2.5 0 -2.5 
C -0.663008 -2.5 -1.29895 -2.236584 -1.767767 -1.767767 
C -2.236584 -1.29895 -2.5 -0.663008 -2.5 0 
C -2.5 0.663008 -2.236584 1.29895 -1.767767 1.767767 
C -1.29895 2.236584 -0.663008 2.5 0 2.5 
z
" style="stroke: #440154"/>
    </defs>
    <g clip-path="url(#p271cb76d4a)">
     <use xlink:href="#m3779221f2e" x="82.257317" y="354.769346" style="fill: #440154; stroke: #440154"/>
     <use xlink:href="#m3779221f2e" x="101.120103" y="354.717598" style="fill: #440154; stroke: #440154"/>
     <use xlink:href="#m3779221f2e" x="119.982888" y="354.64266" style="fill: #440154; stroke: #440154"/>
     <use xlink:href="#m3779221f2e" x="138.845673" y="354.529509" style="fill: #440154; stroke: #440154"/>
     <use xlink:href="#m3779221f2e" x="157.708458" y="354.489518" style="fill: #440154; stroke: #440154"/>
     <use xlink:href="#m3779221f2e" x="176.571244" y="354.269685" style="fill: #440154; stroke: #440154"/>
     <use xlink:href="#m3779221f2e" x="195.434029" y="354.198247" style="fill: #440154; stroke: #440154"/>
     <use xlink:href="#m3779221f2e" x="214.296814" y="353.860566" style="fill: #440154; stroke: #440154"/>
     <use xlink:href="#m3779221f2e" x="233.1596" y="353.964863" style="fill: #440154; stroke: #440154"/>
     <use xlink:href="#m3779221f2e" x="252.022385" y="353.396563" style="fill: #440154; stroke: #440154"/>
     <use xlink:href="#m3779221f2e" x="270.88517" y="353.116476" style="fill: #440154; stroke: #440154"/>
     <use xlink:href="#m3779221f2e" x="289.747956" y="353.408612" style="fill: #440154; stroke: #440154"/>
     <use xlink:href="#m3779221f2e" x="308.610741" y="353.185482" style="fill: #440154; stroke: #440154"/>
     <use xlink:href="#m3779221f2e" x="327.473526" y="352.075151" style="fill: #440154; stroke: #440154"/>
     <use xlink:href="#m3779221f2e" x="346.336311" y="352.75599" style="fill: #440154; stroke: #440154"/>
     <use xlink:href="#m3779221f2e" x="365.199097" y="351.429165" style="fill: #440154; stroke: #440154"/>
     <use xlink:href="#m3779221f2e" x="384.061882" y="350.878219" style="fill: #440154; stroke: #440154"/>
     <use xlink:href="#m3779221f2e" x="402.924667" y="350.451317" style="fill: #440154; stroke: #440154"/>
     <use xlink:href="#m3779221f2e" x="421.787453" y="350.015854" style="fill: #440154; stroke: #440154"/>
     <use xlink:href="#m3779221f2e" x="440.650238" y="349.925425" style="fill: #440154; stroke: #440154"/>
     <use xlink:href="#m3779221f2e" x="459.513023" y="349.140586" style="fill: #440154; stroke: #440154"/>
     <use xlink:href="#m3779221f2e" x="478.375809" y="351.955964" style="fill: #440154; stroke: #440154"/>
     <use xlink:href="#m3779221f2e" x="497.238594" y="349.551368" style="fill: #440154; stroke: #440154"/>
     <use xlink:href="#m3779221f2e" x="516.101379" y="351.961018" style="fill: #440154; stroke: #440154"/>
     <use xlink:href="#m3779221f2e" x="534.964165" y="346.912132" style="fill: #440154; stroke: #440154"/>
     <use xlink:href="#m3779221f2e" x="553.82695" y="350.78098" style="fill: #440154; stroke: #440154"/>
     <use xlink:href="#m3779221f2e" x="572.689735" y="349.16436" style="fill: #440154; stroke: #440154"/>
     <use xlink:href="#m3779221f2e" x="591.55252" y="343.131759" style="fill: #440154; stroke: #440154"/>
     <use xlink:href="#m3779221f2e" x="610.415306" y="339.938769" style="fill: #440154; stroke: #440154"/>
     <use xlink:href="#m3779221f2e" x="629.278091" y="336.274814" style="fill: #440154; stroke: #440154"/>
     <use xlink:href="#m3779221f2e" x="648.140876" y="332.197454" style="fill: #440154; stroke: #440154"/>
     <use xlink:href="#m3779221f2e" x="667.003662" y="327.370247" style="fill: #440154; stroke: #440154"/>
    </g>
   </g>
   <g id="line2d_7">
    <path d="M 82.257317 349.433983 
L 101.120103 353.30753 
L 119.982888 347.639581 
L 138.845673 346.83356 
L 157.708458 352.621124 
L 176.571244 346.071447 
L 195.434029 347.002592 
L 214.296814 348.139817 
L 233.1596 343.781264 
L 252.022385 340.239537 
L 270.88517 337.491288 
L 289.747956 338.596543 
L 308.610741 335.534499 
L 327.473526 335.096583 
L 346.336311 332.447309 
L 365.199097 332.882358 
L 384.061882 329.979588 
L 402.924667 328.287367 
L 421.787453 327.014799 
L 440.650238 324.677934 
L 459.513023 322.783548 
L 478.375809 320.521104 
L 497.238594 317.20782 
L 516.101379 313.132148 
L 534.964165 303.949364 
L 553.82695 301.729258 
L 572.689735 281.600637 
L 591.55252 262.274132 
L 610.415306 239.255497 
L 629.278091 210.077932 
L 648.140876 172.919851 
L 667.003662 125.508534 
" clip-path="url(#p271cb76d4a)" style="fill: none; stroke: #21918c; stroke-width: 1.5; stroke-linecap: round"/>
    <defs>
     <path id="me882f844e2" d="M 0 2.5 
C 0.663008 2.5 1.29895 2.236584 1.767767 1.767767 
C 2.236584 1.29895 2.5 0.663008 2.5 0 
C 2.5 -0.663008 2.236584 -1.29895 1.767767 -1.767767 
C 1.29895 -2.236584 0.663008 -2.5 0 -2.5 
C -0.663008 -2.5 -1.29895 -2.236584 -1.767767 -1.767767 
C -2.236584 -1.29895 -2.5 -0.663008 -2.5 0 
C -2.5 0.663008 -2.236584 1.29895 -1.767767 1.767767 
C -1.29895 2.236584 -0.663008 2.5 0 2.5 
z
" style="stroke: #21918c"/>
    </defs>
    <g clip-path="url(#p271cb76d4a)">
     <use xlink:href="#me882f844e2" x="82.257317" y="349.433983" style="fill: #21918c; stroke: #21918c"/>
     <use xlink:href="#me882f844e2" x="101.120103" y="353.30753" style="fill: #21918c; stroke: #21918c"/>
     <use xlink:href="#me882f844e2" x="119.982888" y="347.639581" style="fill: #21918c; stroke: #21918c"/>
     <use xlink:href="#me882f844e2" x="138.845673" y="346.83356" style="fill: #21918c; stroke: #21918c"/>
     <use xlink:href="#me882f844e2" x="157.708458" y="352.621124" style="fill: #21918c; stroke: #21918c"/>
     <use xlink:href="#me882f844e2" x="176.571244" y="346.071447" style="fill: #21918c; stroke: #21918c"/>
     <use xlink:href="#me882f844e2" x="195.434029" y="347.002592" style="fill: #21918c; stroke: #21918c"/>
     <use xlink:href="#me882f844e2" x="214.296814" y="348.139817" style="fill: #21918c; stroke: #21918c"/>
     <use xlink:href="#me882f844e2" x="233.1596" y="343.781264" style="fill: #21918c; stroke: #21918c"/>
     <use xlink:href="#me882f844e2" x="252.022385" y="340.239537" style="fill: #21918c; stroke: #21918c"/>
     <use xlink:href="#me882f844e2" x="270.88517" y="337.491288" style="fill: #21918c; stroke: #21918c"/>
     <use xlink:href="#me882f844e2" x="289.747956" y="338.596543" style="fill: #21918c; stroke: #21918c"/>
     <use xlink:href="#me882f844e2" x="308.610741" y="335.534499" style="fill: #21918c; stroke: #21918c"/>
     <use xlink:href="#me882f844e2" x="327.473526" y="335.096583" style="fill: #21918c; stroke: #21918c"/>
     <use xlink:href="#me882f844e2" x="346.336311" y="332.447309" style="fill: #21918c; stroke: #21918c"/>
     <use xlink:href="#me882f844e2" x="365.199097" y="332.882358" style="fill: #21918c; stroke: #21918c"/>
     <use xlink:href="#me882f844e2" x="384.061882" y="329.979588" style="fill: #21918c; stroke: #21918c"/>
     <use xlink:href="#me882f844e2" x="402.924667" y="328.287367" style="fill: #21918c; stroke: #21918c"/>
     <use xlink:href="#me882f844e2" x="421.787453" y="327.014799" style="fill: #21918c; stroke: #21918c"/>
     <use xlink:href="#me882f844e2" x="440.650238" y="324.677934" style="fill: #21918c; stroke: #21918c"/>
     <use xlink:href="#me882f844e2" x="459.513023" y="322.783548" style="fill: #21918c; stroke: #21918c"/>
     <use xlink:href="#me882f844e2" x="478.375809" y="320.521104" style="fill: #21918c; stroke: #21918c"/>
     <use xlink:href="#me882f844e2" x="497.238594" y="317.20782" style="fill: #21918c; stroke: #21918c"/>
     <use xlink:href="#me882f844e2" x="516.101379" y="313.132148" style="fill: #21918c; stroke: #21918c"/>
     <use xlink:href="#me882f844e2" x="534.964165" y="303.949364" style="fill: #21918c; stroke: #21918c"/>
     <use xlink:href="#me882f844e2" x="553.82695" y="301.729258" style="fill: #21918c; stroke: #21918c"/>
     <use xlink:href="#me882f844e2" x="572.689735" y="281.600637" style="fill: #21918c; stroke: #21918c"/>
     <use xlink:href="#me882f844e2" x="591.55252" y="262.274132" style="fill: #21918c; stroke: #21918c"/>
     <use xlink:href="#me882f844e2" x="610.415306" y="239.255497" style="fill: #21918c; stroke: #21918c"/>
     <use xlink:href="#me882f844e2" x="629.278091" y="210.077932" style="fill: #21918c; stroke: #21918c"/>
     <use xlink:href="#me882f844e2" x="648.140876" y="172.919851" style="fill: #21918c; stroke: #21918c"/>
     <use xlink:href="#me882f844e2" x="667.003662" y="125.508534" style="fill: #21918c; stroke: #21918c"/>
    </g>
   </g>
   <g id="line2d_8">
    <path d="M 82.257317 352.8192 
L 101.120103 354.231002 
L 119.982888 352.607648 
L 138.845673 353.606296 
L 157.708458 351.137382 
L 176.571244 351.878337 
L 195.434029 350.450393 
L 214.296814 349.422224 
L 233.1596 351.251843 
L 252.022385 350.547346 
L 270.88517 349.745474 
L 289.747956 347.048445 
L 308.610741 345.690302 
L 327.473526 347.311941 
L 346.336311 344.14332 
L 365.199097 344.410603 
L 384.061882 340.71776 
L 402.924667 337.115001 
L 421.787453 334.835173 
L 440.650238 333.102822 
L 459.513023 328.146001 
L 478.375809 324.187647 
L 497.238594 318.392678 
L 516.101379 313.020141 
L 534.964165 303.109904 
L 553.82695 294.204352 
L 572.689735 282.392709 
L 591.55252 264.712871 
L 610.415306 240.066524 
L 629.278091 203.730103 
L 648.140876 147.081982 
L 667.003662 38.15867 
" clip-path="url(#p271cb76d4a)" style="fill: none; stroke: #fde725; stroke-width: 1.5; stroke-linecap: round"/>
    <defs>
     <path id="mc9acaeaf2b" d="M 0 2.5 
C 0.663008 2.5 1.29895 2.236584 1.767767 1.767767 
C 2.236584 1.29895 2.5 0.663008 2.5 0 
C 2.5 -0.663008 2.236584 -1.29895 1.767767 -1.767767 
C 1.29895 -2.236584 0.663008 -2.5 0 -2.5 
C -0.663008 -2.5 -1.29895 -2.236584 -1.767767 -1.767767 
C -2.236584 -1.29895 -2.5 -0.663008 -2.5 0 
C -2.5 0.663008 -2.236584 1.29895 -1.767767 1.767767 
C -1.29895 2.236584 -0.663008 2.5 0 2.5 
z
" style="stroke: #fde725"/>
    </defs>
    <g clip-path="url(#p271cb76d4a)">
     <use xlink:href="#mc9acaeaf2b" x="82.257317" y="352.8192" style="fill: #fde725; stroke: #fde725"/>
     <use xlink:href="#mc9acaeaf2b" x="101.120103" y="354.231002" style="fill: #fde725; stroke: #fde725"/>
     <use xlink:href="#mc9acaeaf2b" x="119.982888" y="352.607648" style="fill: #fde725; stroke: #fde725"/>
     <use xlink:href="#mc9acaeaf2b" x="138.845673" y="353.606296" style="fill: #fde725; stroke: #fde725"/>
     <use xlink:href="#mc9acaeaf2b" x="157.708458" y="351.137382" style="fill: #fde725; stroke: #fde725"/>
     <use xlink:href="#mc9acaeaf2b" x="176.571244" y="351.878337" style="fill: #fde725; stroke: #fde725"/>
     <use xlink:href="#mc9acaeaf2b" x="195.434029" y="350.450393" style="fill: #fde725; stroke: #fde725"/>
     <use xlink:href="#mc9acaeaf2b" x="214.296814" y="349.422224" style="fill: #fde725; stroke: #fde725"/>
     <use xlink:href="#mc9acaeaf2b" x="233.1596" y="351.251843" style="fill: #fde725; stroke: #fde725"/>
     <use xlink:href="#mc9acaeaf2b" x="252.022385" y="350.547346" style="fill: #fde725; stroke: #fde725"/>
     <use xlink:href="#mc9acaeaf2b" x="270.88517" y="349.745474" style="fill: #fde725; stroke: #fde725"/>
     <use xlink:href="#mc9acaeaf2b" x="289.747956" y="347.048445" style="fill: #fde725; stroke: #fde725"/>
     <use xlink:href="#mc9acaeaf2b" x="308.610741" y="345.690302" style="fill: #fde725; stroke: #fde725"/>
     <use xlink:href="#mc9acaeaf2b" x="327.473526" y="347.311941" style="fill: #fde725; stroke: #fde725"/>
     <use xlink:href="#mc9acaeaf2b" x="346.336311" y="344.14332" style="fill: #fde725; stroke: #fde725"/>
     <use xlink:href="#mc9acaeaf2b" x="365.199097" y="344.410603" style="fill: #fde725; stroke: #fde725"/>
     <use xlink:href="#mc9acaeaf2b" x="384.061882" y="340.71776" style="fill: #fde725; stroke: #fde725"/>
     <use xlink:href="#mc9acaeaf2b" x="402.924667" y="337.115001" style="fill: #fde725; stroke: #fde725"/>
     <use xlink:href="#mc9acaeaf2b" x="421.787453" y="334.835173" style="fill: #fde725; stroke: #fde725"/>
     <use xlink:href="#mc9acaeaf2b" x="440.650238" y="333.102822" style="fill: #fde725; stroke: #fde725"/>
     <use xlink:href="#mc9acaeaf2b" x="459.513023" y="328.146001" style="fill: #fde725; stroke: #fde725"/>
     <use xlink:href="#mc9acaeaf2b" x="478.375809" y="324.187647" style="fill: #fde725; stroke: #fde725"/>
     <use xlink:href="#mc9acaeaf2b" x="497.238594" y="318.392678" style="fill: #fde725; stroke: #fde725"/>
     <use xlink:href="#mc9acaeaf2b" x="516.101379" y="313.020141" style="fill: #fde725; stroke: #fde725"/>
     <use xlink:href="#mc9acaeaf2b" x="534.964165" y="303.109904" style="fill: #fde725; stroke: #fde725"/>
     <use xlink:href="#mc9acaeaf2b" x="553.82695" y="294.204352" style="fill: #fde725; stroke: #fde725"/>
     <use xlink:href="#mc9acaeaf2b" x="572.689735" y="282.392709" style="fill: #fde725; stroke: #fde725"/>
     <use xlink:href="#mc9acaeaf2b" x="591.55252" y="264.712871" style="fill: #fde725; stroke: #fde725"/>
     <use xlink:href="#mc9acaeaf2b" x="610.415306" y="240.066524" style="fill: #fde725; stroke: #fde725"/>
     <use xlink:href="#mc9acaeaf2b" x="629.278091" y="203.730103" style="fill: #fde725; stroke: #fde725"/>
     <use xlink:href="#mc9acaeaf2b" x="648.140876" y="147.081982" style="fill: #fde725; stroke: #fde725"/>
     <use xlink:href="#mc9acaeaf2b" x="667.003662" y="38.15867" style="fill: #fde725; stroke: #fde725"/>
    </g>
   </g>
   <g id="line2d_9">
    <path d="M 53.02 354.96958 
L 696.240979 354.96958 
" clip-path="url(#p271cb76d4a)" style="fill: none; stroke-dasharray: 5.55,2.4; stroke-dashoffset: 0; stroke: #808080; stroke-opacity: 0.7; stroke-width: 1.5"/>
   </g>
   <g id="patch_3">
    <path d="M 53.02 370.810125 
L 53.02 22.318125 
" style="fill: none; stroke: #cccccc; stroke-width: 1.25; stroke-linejoin: miter; stroke-linecap: square"/>
   </g>
   <g id="patch_4">
    <path d="M 696.240979 370.810125 
L 696.240979 22.318125 
" style="fill: none; stroke: #cccccc; stroke-width: 1.25; stroke-linejoin: miter; stroke-linecap: square"/>
   </g>
   <g id="patch_5">
    <path d="M 53.02 370.810125 
L 696.240979 370.810125 
" style="fill: none; stroke: #cccccc; stroke-width: 1.25; stroke-linejoin: miter; stroke-linecap: square"/>
   </g>
   <g id="patch_6">
    <path d="M 53.02 22.318125 
L 696.240979 22.318125 
" style="fill: none; stroke: #cccccc; stroke-width: 1.25; stroke-linejoin: miter; stroke-linecap: square"/>
   </g>
   <g id="text_8">
    <!-- Re-optimisation benefit: improvement ratio vs phase diffusion rate -->
    <g style="fill: #262626" transform="translate(174.130177 16.318125) scale(0.12 -0.12)">
     <defs>
      <path id="DejaVuSans-52" d="M 2841 2188 
Q 3044 2119 3236 1894 
Q 3428 1669 3622 1275 
L 4263 0 
L 3584 0 
L 2988 1197 
Q 2756 1666 2539 1819 
Q 2322 1972 1947 1972 
L 1259 1972 
L 1259 0 
L 628 0 
L 628 4666 
L 2053 4666 
Q 2853 4666 3247 4331 
Q 3641 3997 3641 3322 
Q 3641 2881 3436 2590 
Q 3231 2300 2841 2188 
z
M 1259 4147 
L 1259 2491 
L 2053 2491 
Q 2509 2491 2742 2702 
Q 2975 2913 2975 3322 
Q 2975 3731 2742 3939 
Q 2509 4147 2053 4147 
L 1259 4147 
z
" transform="scale(0.015625)"/>
      <path id="DejaVuSans-2d" d="M 313 2009 
L 1997 2009 
L 1997 1497 
L 313 1497 
L 313 2009 
z
" transform="scale(0.015625)"/>
      <path id="DejaVuSans-6d" d="M 3328 2828 
Q 3544 3216 3844 3400 
Q 4144 3584 4550 3584 
Q 5097 3584 5394 3201 
Q 5691 2819 5691 2113 
L 5691 0 
L 5113 0 
L 5113 2094 
Q 5113 2597 4934 2840 
Q 4756 3084 4391 3084 
Q 3944 3084 3684 2787 
Q 3425 2491 3425 1978 
L 3425 0 
L 2847 0 
L 2847 2094 
Q 2847 2600 2669 2842 
Q 2491 3084 2119 3084 
Q 1678 3084 1418 2786 
Q 1159 2488 1159 1978 
L 1159 0 
L 581 0 
L 581 3500 
L 1159 3500 
L 1159 2956 
Q 1356 3278 1631 3431 
Q 1906 3584 2284 3584 
Q 2666 3584 2933 3390 
Q 3200 3197 3328 2828 
z
" transform="scale(0.015625)"/>
      <path id="DejaVuSans-73" d="M 2834 3397 
L 2834 2853 
Q 2591 2978 2328 3040 
Q 2066 3103 1784 3103 
Q 1356 3103 1142 2972 
Q 928 2841 928 2578 
Q 928 2378 1081 2264 
Q 1234 2150 1697 2047 
L 1894 2003 
Q 2506 1872 2764 1633 
Q 3022 1394 3022 966 
Q 3022 478 2636 193 
Q 2250 -91 1575 -91 
Q 1294 -91 989 -36 
Q 684 19 347 128 
L 347 722 
Q 666 556 975 473 
Q 1284 391 1588 391 
Q 1994 391 2212 530 
Q 2431 669 2431 922 
Q 2431 1156 2273 1281 
Q 2116 1406 1581 1522 
L 1381 1569 
Q 847 1681 609 1914 
Q 372 2147 372 2553 
Q 372 3047 722 3315 
Q 1072 3584 1716 3584 
Q 2034 3584 2315 3537 
Q 2597 3491 2834 3397 
z
" transform="scale(0.015625)"/>
      <path id="DejaVuSans-61" d="M 2194 1759 
Q 1497 1759 1228 1600 
Q 959 1441 959 1056 
Q 959 750 1161 570 
Q 1363 391 1709 391 
Q 2188 391 2477 730 
Q 2766 1069 2766 1631 
L 2766 1759 
L 2194 1759 
z
M 3341 1997 
L 3341 0 
L 2766 0 
L 2766 531 
Q 2569 213 2275 61 
Q 1981 -91 1556 -91 
Q 1019 -91 701 211 
Q 384 513 384 1019 
Q 384 1609 779 1909 
Q 1175 2209 1959 2209 
L 2766 2209 
L 2766 2266 
Q 2766 2663 2505 2880 
Q 2244 3097 1772 3097 
Q 1472 3097 1187 3025 
Q 903 2953 641 2809 
L 641 3341 
Q 956 3463 1253 3523 
Q 1550 3584 1831 3584 
Q 2591 3584 2966 3190 
Q 3341 2797 3341 1997 
z
" transform="scale(0.015625)"/>
      <path id="DejaVuSans-6e" d="M 3513 2113 
L 3513 0 
L 2938 0 
L 2938 2094 
Q 2938 2591 2744 2837 
Q 2550 3084 2163 3084 
Q 1697 3084 1428 2787 
Q 1159 2491 1159 1978 
L 1159 0 
L 581 0 
L 581 3500 
L 1159 3500 
L 1159 2956 
Q 1366 3272 1645 3428 
Q 1925 3584 2291 3584 
Q 2894 3584 3203 3211 
Q 3513 2838 3513 2113 
z
" transform="scale(0.015625)"/>
      <path id="DejaVuSans-20" transform="scale(0.015625)"/>
      <path id="DejaVuSans-62" d="M 3116 1747 
Q 3116 2381 2855 2742 
Q 2594 3103 2138 3103 
Q 1681 3103 1420 2742 
Q 1159 2381 1159 1747 
Q 1159 1113 1420 752 
Q 1681 391 2138 391 
Q 2594 391 2855 752 
Q 3116 1113 3116 1747 
z
M 1159 2969 
Q 1341 3281 1617 3432 
Q 1894 3584 2278 3584 
Q 2916 3584 3314 3078 
Q 3713 2572 3713 1747 
Q 3713 922 3314 415 
Q 2916 -91 2278 -91 
Q 1894 -91 1617 61 
Q 1341 213 1159 525 
L 1159 0 
L 581 0 
L 581 4863 
L 1159 4863 
L 1159 2969 
z
" transform="scale(0.015625)"/>
      <path id="DejaVuSans-3a" d="M 750 794 
L 1409 794 
L 1409 0 
L 750 0 
L 750 794 
z
M 750 3309 
L 1409 3309 
L 1409 2516 
L 750 2516 
L 750 3309 
z
" transform="scale(0.015625)"/>
      <path id="DejaVuSans-76" d="M 191 3500 
L 800 3500 
L 1894 563 
L 2988 3500 
L 3597 3500 
L 2284 0 
L 1503 0 
L 191 3500 
z
" transform="scale(0.015625)"/>
      <path id="DejaVuSans-68" d="M 3513 2113 
L 3513 0 
L 2938 0 
L 2938 2094 
Q 2938 2591 2744 2837 
Q 2550 3084 2163 3084 
Q 1697 3084 1428 2787 
Q 1159 2491 1159 1978 
L 1159 0 
L 581 0 
L 581 4863 
L 1159 4863 
L 1159 2956 
Q 1366 3272 1645 3428 
Q 1925 3584 2291 3584 
Q 2894 3584 3203 3211 
Q 3513 2838 3513 2113 
z
" transform="scale(0.015625)"/>
      <path id="DejaVuSans-75" d="M 544 1381 
L 544 3500 
L 1119 3500 
L 1119 1403 
Q 1119 906 1312 657 
Q 1506 409 1894 409 
Q 2359 409 2629 706 
Q 2900 1003 2900 1516 
L 2900 3500 
L 3475 3500 
L 3475 0 
L 2900 0 
L 2900 538 
Q 2691 219 2414 64 
Q 2138 -91 1772 -91 
Q 1169 -91 856 284 
Q 544 659 544 1381 
z
M 1991 3584 
L 1991 3584 
z
" transform="scale(0.015625)"/>
     </defs>
     <use xlink:href="#DejaVuSans-52"/>
     <use xlink:href="#DejaVuSans-65" transform="translate(64.982422 0)"/>
     <use xlink:href="#DejaVuSans-2d" transform="translate(126.505859 0)"/>
     <use xlink:href="#DejaVuSans-6f" transform="translate(164.464844 0)"/>
     <use xlink:href="#DejaVuSans-70" transform="translate(225.646484 0)"/>
     <use xlink:href="#DejaVuSans-74" transform="translate(289.123047 0)"/>
     <use xlink:href="#DejaVuSans-69" transform="translate(328.332031 0)"/>
     <use xlink:href="#DejaVuSans-6d" transform="translate(356.115234 0)"/>
     <use xlink:href="#DejaVuSans-69" transform="translate(453.527344 0)"/>
     <use xlink:href="#DejaVuSans-73" transform="translate(481.310547 0)"/>
     <use xlink:href="#DejaVuSans-61" transform="translate(533.410156 0)"/>
     <use xlink:href="#DejaVuSans-74" transform="translate(594.689453 0)"/>
     <use xlink:href="#DejaVuSans-69" transform="translate(633.898438 0)"/>
     <use xlink:href="#DejaVuSans-6f" transform="translate(661.681641 0)"/>
     <use xlink:href="#DejaVuSans-6e" transform="translate(722.863281 0)"/>
     <use xlink:href="#DejaVuSans-20" transform="translate(786.242188 0)"/>
     <use xlink:href="#DejaVuSans-62" transform="translate(818.029297 0)"/>
     <use xlink:href="#DejaVuSans-65" transform="translate(881.505859 0)"/>
     <use xlink:href="#DejaVuSans-6e" transform="translate(943.029297 0)"/>
     <use xlink:href="#DejaVuSans-65" transform="translate(1006.408203 0)"/>
     <use xlink:href="#DejaVuSans-66" transform="translate(1067.931641 0)"/>
     <use xlink:href="#DejaVuSans-69" transform="translate(1103.136719 0)"/>
     <use xlink:href="#DejaVuSans-74" transform="translate(1130.919922 0)"/>
     <use xlink:href="#DejaVuSans-3a" transform="translate(1170.128906 0)"/>
     <use xlink:href="#DejaVuSans-20" transform="translate(1203.820312 0)"/>
     <use xlink:href="#DejaVuSans-69" transform="translate(1235.607422 0)"/>
     <use xlink:href="#DejaVuSans-6d" transform="translate(1263.390625 0)"/>
     <use xlink:href="#DejaVuSans-70" transform="translate(1360.802734 0)"/>
     <use xlink:href="#DejaVuSans-72" transform="translate(1424.279297 0)"/>
     <use xlink:href="#DejaVuSans-6f" transform="translate(1463.142578 0)"/>
     <use xlink:href="#DejaVuSans-76" transform="translate(1524.324219 0)"/>
     <use xlink:href="#DejaVuSans-65" transform="translate(1583.503906 0)"/>
     <use xlink:href="#DejaVuSans-6d" transform="translate(1645.027344 0)"/>
     <use xlink:href="#DejaVuSans-65" transform="translate(1742.439453 0)"/>
     <use xlink:href="#DejaVuSans-6e" transform="translate(1803.962891 0)"/>
     <use xlink:href="#DejaVuSans-74" transform="translate(1867.341797 0)"/>
     <use xlink:href="#DejaVuSans-20" transform="translate(1906.550781 0)"/>
     <use xlink:href="#DejaVuSans-72" transform="translate(1938.337891 0)"/>
     <use xlink:href="#DejaVuSans-61" transform="translate(1979.451172 0)"/>
     <use xlink:href="#DejaVuSans-74" transform="translate(2040.730469 0)"/>
     <use xlink:href="#DejaVuSans-69" transform="translate(2079.939453 0)"/>
     <use xlink:href="#DejaVuSans-6f" transform="translate(2107.722656 0)"/>
     <use xlink:href="#DejaVuSans-20" transform="translate(2168.904297 0)"/>
     <use xlink:href="#DejaVuSans-76" transform="translate(2200.691406 0)"/>
     <use xlink:href="#DejaVuSans-73" transform="translate(2259.871094 0)"/>
     <use xlink:href="#DejaVuSans-20" transform="translate(2311.970703 0)"/>
     <use xlink:href="#DejaVuSans-70" transform="translate(2343.757812 0)"/>
     <use xlink:href="#DejaVuSans-68" transform="translate(2407.234375 0)"/>
     <use xlink:href="#DejaVuSans-61" transform="translate(2470.613281 0)"/>
     <use xlink:href="#DejaVuSans-73" transform="translate(2531.892578 0)"/>
     <use xlink:href="#DejaVuSans-65" transform="translate(2583.992188 0)"/>
     <use xlink:href="#DejaVuSans-20" transform="translate(2645.515625 0)"/>
     <use xlink:href="#DejaVuSans-64" transform="translate(2677.302734 0)"/>
     <use xlink:href="#DejaVuSans-69" transform="translate(2740.779297 0)"/>
     <use xlink:href="#DejaVuSans-66" transform="translate(2768.5625 0)"/>
     <use xlink:href="#DejaVuSans-66" transform="translate(2803.767578 0)"/>
     <use xlink:href="#DejaVuSans-75" transform="translate(2838.972656 0)"/>
     <use xlink:href="#DejaVuSans-73" transform="translate(2902.351562 0)"/>
     <use xlink:href="#DejaVuSans-69" transform="translate(2954.451172 0)"/>
     <use xlink:href="#DejaVuSans-6f" transform="translate(2982.234375 0)"/>
     <use xlink:href="#DejaVuSans-6e" transform="translate(3043.416016 0)"/>
     <use xlink:href="#DejaVuSans-20" transform="translate(3106.794922 0)"/>
     <use xlink:href="#DejaVuSans-72" transform="translate(3138.582031 0)"/>
     <use xlink:href="#DejaVuSans-61" transform="translate(3179.695312 0)"/>
     <use xlink:href="#DejaVuSans-74" transform="translate(3240.974609 0)"/>
     <use xlink:href="#DejaVuSans-65" transform="translate(3280.183594 0)"/>
    </g>
   </g>
   <g id="legend_1">
    <g id="patch_7">
     <path d="M 59.32 83.369062 
L 155.35 83.369062 
Q 157.15 83.369062 157.15 81.569062 
L 157.15 28.618125 
Q 157.15 26.818125 155.35 26.818125 
L 59.32 26.818125 
Q 57.52 26.818125 57.52 28.618125 
L 57.52 81.569062 
Q 57.52 83.369062 59.32 83.369062 
z
" style="fill: #ffffff; opacity: 0.8; stroke: #cccccc; stroke-linejoin: miter"/>
    </g>
    <g id="line2d_10">
     <path d="M 61.12 34.106719 
L 70.12 34.106719 
L 79.12 34.106719 
" style="fill: none; stroke: #440154; stroke-width: 1.5; stroke-linecap: round"/>
     <g>
      <use xlink:href="#m3779221f2e" x="70.12" y="34.106719" style="fill: #440154; stroke: #440154"/>
     </g>
    </g>
    <g id="text_9">
     <!-- $\theta$ = 0.2 -->
     <g style="fill: #262626" transform="translate(86.32 37.256719) scale(0.09 -0.09)">
      <defs>
       <path id="DejaVuSans-3d" d="M 678 2906 
L 4684 2906 
L 4684 2381 
L 678 2381 
L 678 2906 
z
M 678 1631 
L 4684 1631 
L 4684 1100 
L 678 1100 
L 678 1631 
z
" transform="scale(0.015625)"/>
       <path id="DejaVuSans-2e" d="M 684 794 
L 1344 794 
L 1344 0 
L 684 0 
L 684 794 
z
" transform="scale(0.015625)"/>
      </defs>
      <use xlink:href="#DejaVuSans-Oblique-3b8" transform="translate(0 0.234375)"/>
      <use xlink:href="#DejaVuSans-20" transform="translate(61.181641 0.234375)"/>
      <use xlink:href="#DejaVuSans-3d" transform="translate(92.96875 0.234375)"/>
      <use xlink:href="#DejaVuSans-20" transform="translate(176.757812 0.234375)"/>
      <use xlink:href="#DejaVuSans-30" transform="translate(208.544922 0.234375)"/>
      <use xlink:href="#DejaVuSans-2e" transform="translate(272.167969 0.234375)"/>
      <use xlink:href="#DejaVuSans-32" transform="translate(298.455078 0.234375)"/>
     </g>
    </g>
    <g id="line2d_11">
     <path d="M 61.12 47.317031 
L 70.12 47.317031 
L 79.12 47.317031 
" style="fill: none; stroke: #21918c; stroke-width: 1.5; stroke-linecap: round"/>
     <g>
      <use xlink:href="#me882f844e2" x="70.12" y="47.317031" style="fill: #21918c; stroke: #21918c"/>
     </g>
    </g>
    <g id="text_10">
     <!-- $\theta$ = 1.0 -->
     <g style="fill: #262626" transform="translate(86.32 50.467031) scale(0.09 -0.09)">
      <use xlink:href="#DejaVuSans-Oblique-3b8" transform="translate(0 0.234375)"/>
      <use xlink:href="#DejaVuSans-20" transform="translate(61.181641 0.234375)"/>
      <use xlink:href="#DejaVuSans-3d" transform="translate(92.96875 0.234375)"/>
      <use xlink:href="#DejaVuSans-20" transform="translate(176.757812 0.234375)"/>
      <use xlink:href="#DejaVuSans-31" transform="translate(208.544922 0.234375)"/>
      <use xlink:href="#DejaVuSans-2e" transform="translate(272.167969 0.234375)"/>
      <use xlink:href="#DejaVuSans-30" transform="translate(303.955078 0.234375)"/>
     </g>
    </g>
    <g id="line2d_12">
     <path d="M 61.12 60.527344 
L 70.12 60.527344 
L 79.12 60.527344 
" style="fill: none; stroke: #fde725; stroke-width: 1.5; stroke-linecap: round"/>
     <g>
      <use xlink:href="#mc9acaeaf2b" x="70.12" y="60.527344" style="fill: #fde725; stroke: #fde725"/>
     </g>
    </g>
    <g id="text_11">
     <!-- $\theta$ = 2.0 -->
     <g style="fill: #262626" transform="translate(86.32 63.677344) scale(0.09 -0.09)">
      <use xlink:href="#DejaVuSans-Oblique-3b8" transform="translate(0 0.234375)"/>
      <use xlink:href="#DejaVuSans-20" transform="translate(61.181641 0.234375)"/>
      <use xlink:href="#DejaVuSans-3d" transform="translate(92.96875 0.234375)"/>
      <use xlink:href="#DejaVuSans-20" transform="translate(176.757812 0.234375)"/>
      <use xlink:href="#DejaVuSans-32" transform="translate(208.544922 0.234375)"/>
      <use xlink:href="#DejaVuSans-2e" transform="translate(272.167969 0.234375)"/>
      <use xlink:href="#DejaVuSans-30" transform="translate(303.955078 0.234375)"/>
     </g>
    </g>
    <g id="line2d_13">
     <path d="M 61.12 73.829062 
L 70.12 73.829062 
L 79.12 73.829062 
" style="fill: none; stroke-dasharray: 5.55,2.4; stroke-dashoffset: 0; stroke: #808080; stroke-opacity: 0.7; stroke-width: 1.5"/>
    </g>
    <g id="text_12">
     <!-- $\Delta\theta_{\mathrm{fixed}} = \Delta\theta_{\mathrm{reopt}}$ -->
     <g style="fill: #262626" transform="translate(86.32 76.979062) scale(0.09 -0.09)">
      <use xlink:href="#DejaVuSans-394" transform="translate(0 0.234375)"/>
      <use xlink:href="#DejaVuSans-Oblique-3b8" transform="translate(68.408203 0.234375)"/>
      <use xlink:href="#DejaVuSans-66" transform="translate(129.589844 -16.171875) scale(0.7)"/>
      <use xlink:href="#DejaVuSans-69" transform="translate(154.233398 -16.171875) scale(0.7)"/>
      <use xlink:href="#DejaVuSans-78" transform="translate(173.681641 -16.171875) scale(0.7)"/>
      <use xlink:href="#DejaVuSans-65" transform="translate(215.107422 -16.171875) scale(0.7)"/>
      <use xlink:href="#DejaVuSans-64" transform="translate(258.173828 -16.171875) scale(0.7)"/>
      <use xlink:href="#DejaVuSans-3d" transform="translate(324.824219 0.234375)"/>
      <use xlink:href="#DejaVuSans-394" transform="translate(428.095703 0.234375)"/>
      <use xlink:href="#DejaVuSans-Oblique-3b8" transform="translate(496.503906 0.234375)"/>
      <use xlink:href="#DejaVuSans-72" transform="translate(557.685547 -16.171875) scale(0.7)"/>
      <use xlink:href="#DejaVuSans-65" transform="translate(586.464844 -16.171875) scale(0.7)"/>
      <use xlink:href="#DejaVuSans-6f" transform="translate(629.53125 -16.171875) scale(0.7)"/>
      <use xlink:href="#DejaVuSans-70" transform="translate(672.358398 -16.171875) scale(0.7)"/>
      <use xlink:href="#DejaVuSans-74" transform="translate(716.791992 -16.171875) scale(0.7)"/>
     </g>
    </g>
   </g>
  </g>
 </g>
 <defs>
  <clipPath id="p271cb76d4a">
   <rect x="53.02" y="22.318125" width="643.220979" height="348.492"/>
  </clipPath>
 </defs>
</svg>
