<?xml version="1.0" encoding="utf-8" standalone="no"?>
<!DOCTYPE svg PUBLIC "-//W3C//DTD SVG 1.1//EN"
  "http://www.w3.org/Graphics/SVG/1.1/DTD/svg11.dtd">
<svg xmlns:xlink="http://www.w3.org/1999/xlink" width="562.901202pt" height="412.500063pt" viewBox="0 0 562.901202 412.500063" xmlns="http://www.w3.org/2000/svg" version="1.1">
 <metadata>
  <rdf:RDF xmlns:dc="http://purl.org/dc/elements/1.1/" xmlns:cc="http://creativecommons.org/ns#" xmlns:rdf="http://www.w3.org/1999/02/22-rdf-syntax-ns#">
   <cc:Work>
    <dc:type rdf:resource="http://purl.org/dc/dcmitype/StillImage"/>
    <dc:date>2026-06-01T15:53:40.187145</dc:date>
    <dc:format>image/svg+xml</dc:format>
    <dc:creator>
     <cc:Agent>
      <dc:title>Matplotlib v3.10.9, https://matplotlib.org/</dc:title>
     </cc:Agent>
    </dc:creator>
   </cc:Work>
  </rdf:RDF>
 </metadata>
 <defs>
  <style type="text/css">*{stroke-linejoin: round; stroke-linecap: butt}</style>
 </defs>
 <g id="figure_1">
  <g id="patch_1">
   <path d="M 0 412.500063 
L 562.901202 412.500063 
L 562.901202 0 
L 0 0 
z
" style="fill: #ffffff"/>
  </g>
  <g id="axes_1">
   <g id="patch_2">
    <path d="M 58.16375 369.514125 
L 555.701202 369.514125 
L 555.701202 22.318125 
L 58.16375 22.318125 
z
" style="fill: #ffffff"/>
   </g>
   <g id="matplotlib.axis_1">
    <g id="xtick_1">
     <g id="line2d_1">
      <path d="M 80.779089 369.514125 
L 80.779089 22.318125 
" clip-path="url(#pc9238a9e45)" style="fill: none; stroke: #cccccc; stroke-opacity: 0.3; stroke-linecap: round"/>
     </g>
     <g id="text_1">
      <!-- $\mathdefault{10^{0}}$ -->
      <g style="fill: #262626" transform="translate(71.099089 387.372406) scale(0.11 -0.11)">
       <defs>
        <path id="DejaVuSans-31" d="M 794 531 
L 1825 531 
L 1825 4091 
L 703 3866 
L 703 4441 
L 1819 4666 
L 2450 4666 
L 2450 531 
L 3481 531 
L 3481 0 
L 794 0 
L 794 531 
z
" transform="scale(0.015625)"/>
        <path id="DejaVuSans-30" d="M 2034 4250 
Q 1547 4250 1301 3770 
Q 1056 3291 1056 2328 
Q 1056 1369 1301 889 
Q 1547 409 2034 409 
Q 2525 409 2770 889 
Q 3016 1369 3016 2328 
Q 3016 3291 2770 3770 
Q 2525 4250 2034 4250 
z
M 2034 4750 
Q 2819 4750 3233 4129 
Q 3647 3509 3647 2328 
Q 3647 1150 3233 529 
Q 2819 -91 2034 -91 
Q 1250 -91 836 529 
Q 422 1150 422 2328 
Q 422 3509 836 4129 
Q 1250 4750 2034 4750 
z
" transform="scale(0.015625)"/>
       </defs>
       <use xlink:href="#DejaVuSans-31" transform="translate(0 0.765625)"/>
       <use xlink:href="#DejaVuSans-30" transform="translate(63.623047 0.765625)"/>
       <use xlink:href="#DejaVuSans-30" transform="translate(128.203125 39.046875) scale(0.7)"/>
      </g>
     </g>
    </g>
    <g id="xtick_2">
     <g id="line2d_2">
      <path d="M 363.107326 369.514125 
L 363.107326 22.318125 
" clip-path="url(#pc9238a9e45)" style="fill: none; stroke: #cccccc; stroke-opacity: 0.3; stroke-linecap: round"/>
     </g>
     <g id="text_2">
      <!-- $\mathdefault{10^{1}}$ -->
      <g style="fill: #262626" transform="translate(353.427326 387.372406) scale(0.11 -0.11)">
       <use xlink:href="#DejaVuSans-31" transform="translate(0 0.684375)"/>
       <use xlink:href="#DejaVuSans-30" transform="translate(63.623047 0.684375)"/>
       <use xlink:href="#DejaVuSans-31" transform="translate(128.203125 38.965625) scale(0.7)"/>
      </g>
     </g>
    </g>
    <g id="xtick_3">
     <g id="line2d_3">
      <path d="M 67.860457 369.514125 
L 67.860457 22.318125 
" clip-path="url(#pc9238a9e45)" style="fill: none; stroke: #cccccc; stroke-opacity: 0.3; stroke-linecap: round"/>
     </g>
    </g>
    <g id="xtick_4">
     <g id="line2d_4">
      <path d="M 165.768357 369.514125 
L 165.768357 22.318125 
" clip-path="url(#pc9238a9e45)" style="fill: none; stroke: #cccccc; stroke-opacity: 0.3; stroke-linecap: round"/>
     </g>
    </g>
    <g id="xtick_5">
     <g id="line2d_5">
      <path d="M 215.483892 369.514125 
L 215.483892 22.318125 
" clip-path="url(#pc9238a9e45)" style="fill: none; stroke: #cccccc; stroke-opacity: 0.3; stroke-linecap: round"/>
     </g>
    </g>
    <g id="xtick_6">
     <g id="line2d_6">
      <path d="M 250.757625 369.514125 
L 250.757625 22.318125 
" clip-path="url(#pc9238a9e45)" style="fill: none; stroke: #cccccc; stroke-opacity: 0.3; stroke-linecap: round"/>
     </g>
    </g>
    <g id="xtick_7">
     <g id="line2d_7">
      <path d="M 278.118058 369.514125 
L 278.118058 22.318125 
" clip-path="url(#pc9238a9e45)" style="fill: none; stroke: #cccccc; stroke-opacity: 0.3; stroke-linecap: round"/>
     </g>
    </g>
    <g id="xtick_8">
     <g id="line2d_8">
      <path d="M 300.47316 369.514125 
L 300.47316 22.318125 
" clip-path="url(#pc9238a9e45)" style="fill: none; stroke: #cccccc; stroke-opacity: 0.3; stroke-linecap: round"/>
     </g>
    </g>
    <g id="xtick_9">
     <g id="line2d_9">
      <path d="M 319.374129 369.514125 
L 319.374129 22.318125 
" clip-path="url(#pc9238a9e45)" style="fill: none; stroke: #cccccc; stroke-opacity: 0.3; stroke-linecap: round"/>
     </g>
    </g>
    <g id="xtick_10">
     <g id="line2d_10">
      <path d="M 335.746893 369.514125 
L 335.746893 22.318125 
" clip-path="url(#pc9238a9e45)" style="fill: none; stroke: #cccccc; stroke-opacity: 0.3; stroke-linecap: round"/>
     </g>
    </g>
    <g id="xtick_11">
     <g id="line2d_11">
      <path d="M 350.188695 369.514125 
L 350.188695 22.318125 
" clip-path="url(#pc9238a9e45)" style="fill: none; stroke: #cccccc; stroke-opacity: 0.3; stroke-linecap: round"/>
     </g>
    </g>
    <g id="xtick_12">
     <g id="line2d_12">
      <path d="M 448.096595 369.514125 
L 448.096595 22.318125 
" clip-path="url(#pc9238a9e45)" style="fill: none; stroke: #cccccc; stroke-opacity: 0.3; stroke-linecap: round"/>
     </g>
    </g>
    <g id="xtick_13">
     <g id="line2d_13">
      <path d="M 497.81213 369.514125 
L 497.81213 22.318125 
" clip-path="url(#pc9238a9e45)" style="fill: none; stroke: #cccccc; stroke-opacity: 0.3; stroke-linecap: round"/>
     </g>
    </g>
    <g id="xtick_14">
     <g id="line2d_14">
      <path d="M 533.085863 369.514125 
L 533.085863 22.318125 
" clip-path="url(#pc9238a9e45)" style="fill: none; stroke: #cccccc; stroke-opacity: 0.3; stroke-linecap: round"/>
     </g>
    </g>
    <g id="text_3">
     <!-- Total photon number $N$ -->
     <g style="fill: #262626" transform="translate(237.152476 402.780063) scale(0.12 -0.12)">
      <defs>
       <path id="DejaVuSans-54" d="M -19 4666 
L 3928 4666 
L 3928 4134 
L 2272 4134 
L 2272 0 
L 1638 0 
L 1638 4134 
L -19 4134 
L -19 4666 
z
" transform="scale(0.015625)"/>
       <path id="DejaVuSans-6f" d="M 1959 3097 
Q 1497 3097 1228 2736 
Q 959 2375 959 1747 
Q 959 1119 1226 758 
Q 1494 397 1959 397 
Q 2419 397 2687 759 
Q 2956 1122 2956 1747 
Q 2956 2369 2687 2733 
Q 2419 3097 1959 3097 
z
M 1959 3584 
Q 2709 3584 3137 3096 
Q 3566 2609 3566 1747 
Q 3566 888 3137 398 
Q 2709 -91 1959 -91 
Q 1206 -91 779 398 
Q 353 888 353 1747 
Q 353 2609 779 3096 
Q 1206 3584 1959 3584 
z
" transform="scale(0.015625)"/>
       <path id="DejaVuSans-74" d="M 1172 4494 
L 1172 3500 
L 2356 3500 
L 2356 3053 
L 1172 3053 
L 1172 1153 
Q 1172 725 1289 603 
Q 1406 481 1766 481 
L 2356 481 
L 2356 0 
L 1766 0 
Q 1100 0 847 248 
Q 594 497 594 1153 
L 594 3053 
L 172 3053 
L 172 3500 
L 594 3500 
L 594 4494 
L 1172 4494 
z
" transform="scale(0.015625)"/>
       <path id="DejaVuSans-61" d="M 2194 1759 
Q 1497 1759 1228 1600 
Q 959 1441 959 1056 
Q 959 750 1161 570 
Q 1363 391 1709 391 
Q 2188 391 2477 730 
Q 2766 1069 2766 1631 
L 2766 1759 
L 2194 1759 
z
M 3341 1997 
L 3341 0 
L 2766 0 
L 2766 531 
Q 2569 213 2275 61 
Q 1981 -91 1556 -91 
Q 1019 -91 701 211 
Q 384 513 384 1019 
Q 384 1609 779 1909 
Q 1175 2209 1959 2209 
L 2766 2209 
L 2766 2266 
Q 2766 2663 2505 2880 
Q 2244 3097 1772 3097 
Q 1472 3097 1187 3025 
Q 903 2953 641 2809 
L 641 3341 
Q 956 3463 1253 3523 
Q 1550 3584 1831 3584 
Q 2591 3584 2966 3190 
Q 3341 2797 3341 1997 
z
" transform="scale(0.015625)"/>
       <path id="DejaVuSans-6c" d="M 603 4863 
L 1178 4863 
L 1178 0 
L 603 0 
L 603 4863 
z
" transform="scale(0.015625)"/>
       <path id="DejaVuSans-20" transform="scale(0.015625)"/>
       <path id="DejaVuSans-70" d="M 1159 525 
L 1159 -1331 
L 581 -1331 
L 581 3500 
L 1159 3500 
L 1159 2969 
Q 1341 3281 1617 3432 
Q 1894 3584 2278 3584 
Q 2916 3584 3314 3078 
Q 3713 2572 3713 1747 
Q 3713 922 3314 415 
Q 2916 -91 2278 -91 
Q 1894 -91 1617 61 
Q 1341 213 1159 525 
z
M 3116 1747 
Q 3116 2381 2855 2742 
Q 2594 3103 2138 3103 
Q 1681 3103 1420 2742 
Q 1159 2381 1159 1747 
Q 1159 1113 1420 752 
Q 1681 391 2138 391 
Q 2594 391 2855 752 
Q 3116 1113 3116 1747 
z
" transform="scale(0.015625)"/>
       <path id="DejaVuSans-68" d="M 3513 2113 
L 3513 0 
L 2938 0 
L 2938 2094 
Q 2938 2591 2744 2837 
Q 2550 3084 2163 3084 
Q 1697 3084 1428 2787 
Q 1159 2491 1159 1978 
L 1159 0 
L 581 0 
L 581 4863 
L 1159 4863 
L 1159 2956 
Q 1366 3272 1645 3428 
Q 1925 3584 2291 3584 
Q 2894 3584 3203 3211 
Q 3513 2838 3513 2113 
z
" transform="scale(0.015625)"/>
       <path id="DejaVuSans-6e" d="M 3513 2113 
L 3513 0 
L 2938 0 
L 2938 2094 
Q 2938 2591 2744 2837 
Q 2550 3084 2163 3084 
Q 1697 3084 1428 2787 
Q 1159 2491 1159 1978 
L 1159 0 
L 581 0 
L 581 3500 
L 1159 3500 
L 1159 2956 
Q 1366 3272 1645 3428 
Q 1925 3584 2291 3584 
Q 2894 3584 3203 3211 
Q 3513 2838 3513 2113 
z
" transform="scale(0.015625)"/>
       <path id="DejaVuSans-75" d="M 544 1381 
L 544 3500 
L 1119 3500 
L 1119 1403 
Q 1119 906 1312 657 
Q 1506 409 1894 409 
Q 2359 409 2629 706 
Q 2900 1003 2900 1516 
L 2900 3500 
L 3475 3500 
L 3475 0 
L 2900 0 
L 2900 538 
Q 2691 219 2414 64 
Q 2138 -91 1772 -91 
Q 1169 -91 856 284 
Q 544 659 544 1381 
z
M 1991 3584 
L 1991 3584 
z
" transform="scale(0.015625)"/>
       <path id="DejaVuSans-6d" d="M 3328 2828 
Q 3544 3216 3844 3400 
Q 4144 3584 4550 3584 
Q 5097 3584 5394 3201 
Q 5691 2819 5691 2113 
L 5691 0 
L 5113 0 
L 5113 2094 
Q 5113 2597 4934 2840 
Q 4756 3084 4391 3084 
Q 3944 3084 3684 2787 
Q 3425 2491 3425 1978 
L 3425 0 
L 2847 0 
L 2847 2094 
Q 2847 2600 2669 2842 
Q 2491 3084 2119 3084 
Q 1678 3084 1418 2786 
Q 1159 2488 1159 1978 
L 1159 0 
L 581 0 
L 581 3500 
L 1159 3500 
L 1159 2956 
Q 1356 3278 1631 3431 
Q 1906 3584 2284 3584 
Q 2666 3584 2933 3390 
Q 3200 3197 3328 2828 
z
" transform="scale(0.015625)"/>
       <path id="DejaVuSans-62" d="M 3116 1747 
Q 3116 2381 2855 2742 
Q 2594 3103 2138 3103 
Q 1681 3103 1420 2742 
Q 1159 2381 1159 1747 
Q 1159 1113 1420 752 
Q 1681 391 2138 391 
Q 2594 391 2855 752 
Q 3116 1113 3116 1747 
z
M 1159 2969 
Q 1341 3281 1617 3432 
Q 1894 3584 2278 3584 
Q 2916 3584 3314 3078 
Q 3713 2572 3713 1747 
Q 3713 922 3314 415 
Q 2916 -91 2278 -91 
Q 1894 -91 1617 61 
Q 1341 213 1159 525 
L 1159 0 
L 581 0 
L 581 4863 
L 1159 4863 
L 1159 2969 
z
" transform="scale(0.015625)"/>
       <path id="DejaVuSans-65" d="M 3597 1894 
L 3597 1613 
L 953 1613 
Q 991 1019 1311 708 
Q 1631 397 2203 397 
Q 2534 397 2845 478 
Q 3156 559 3463 722 
L 3463 178 
Q 3153 47 2828 -22 
Q 2503 -91 2169 -91 
Q 1331 -91 842 396 
Q 353 884 353 1716 
Q 353 2575 817 3079 
Q 1281 3584 2069 3584 
Q 2775 3584 3186 3129 
Q 3597 2675 3597 1894 
z
M 3022 2063 
Q 3016 2534 2758 2815 
Q 2500 3097 2075 3097 
Q 1594 3097 1305 2825 
Q 1016 2553 972 2059 
L 3022 2063 
z
" transform="scale(0.015625)"/>
       <path id="DejaVuSans-72" d="M 2631 2963 
Q 2534 3019 2420 3045 
Q 2306 3072 2169 3072 
Q 1681 3072 1420 2755 
Q 1159 2438 1159 1844 
L 1159 0 
L 581 0 
L 581 3500 
L 1159 3500 
L 1159 2956 
Q 1341 3275 1631 3429 
Q 1922 3584 2338 3584 
Q 2397 3584 2469 3576 
Q 2541 3569 2628 3553 
L 2631 2963 
z
" transform="scale(0.015625)"/>
       <path id="DejaVuSans-Oblique-4e" d="M 1081 4666 
L 1931 4666 
L 3219 666 
L 4000 4666 
L 4616 4666 
L 3706 0 
L 2853 0 
L 1569 4025 
L 788 0 
L 172 0 
L 1081 4666 
z
" transform="scale(0.015625)"/>
      </defs>
      <use xlink:href="#DejaVuSans-54" transform="translate(0 0.015625)"/>
      <use xlink:href="#DejaVuSans-6f" transform="translate(61.083984 0.015625)"/>
      <use xlink:href="#DejaVuSans-74" transform="translate(122.265625 0.015625)"/>
      <use xlink:href="#DejaVuSans-61" transform="translate(161.474609 0.015625)"/>
      <use xlink:href="#DejaVuSans-6c" transform="translate(222.753906 0.015625)"/>
      <use xlink:href="#DejaVuSans-20" transform="translate(250.537109 0.015625)"/>
      <use xlink:href="#DejaVuSans-70" transform="translate(282.324219 0.015625)"/>
      <use xlink:href="#DejaVuSans-68" transform="translate(345.800781 0.015625)"/>
      <use xlink:href="#DejaVuSans-6f" transform="translate(409.179688 0.015625)"/>
      <use xlink:href="#DejaVuSans-74" transform="translate(470.361328 0.015625)"/>
      <use xlink:href="#DejaVuSans-6f" transform="translate(509.570312 0.015625)"/>
      <use xlink:href="#DejaVuSans-6e" transform="translate(570.751953 0.015625)"/>
      <use xlink:href="#DejaVuSans-20" transform="translate(634.130859 0.015625)"/>
      <use xlink:href="#DejaVuSans-6e" transform="translate(665.917969 0.015625)"/>
      <use xlink:href="#DejaVuSans-75" transform="translate(729.296875 0.015625)"/>
      <use xlink:href="#DejaVuSans-6d" transform="translate(792.675781 0.015625)"/>
      <use xlink:href="#DejaVuSans-62" transform="translate(890.087891 0.015625)"/>
      <use xlink:href="#DejaVuSans-65" transform="translate(953.564453 0.015625)"/>
      <use xlink:href="#DejaVuSans-72" transform="translate(1015.087891 0.015625)"/>
      <use xlink:href="#DejaVuSans-20" transform="translate(1056.201172 0.015625)"/>
      <use xlink:href="#DejaVuSans-Oblique-4e" transform="translate(1087.988281 0.015625)"/>
     </g>
    </g>
   </g>
   <g id="matplotlib.axis_2">
    <g id="ytick_1">
     <g id="line2d_15">
      <path d="M 58.16375 235.116558 
L 555.701202 235.116558 
" clip-path="url(#pc9238a9e45)" style="fill: none; stroke: #cccccc; stroke-opacity: 0.3; stroke-linecap: round"/>
     </g>
     <g id="text_4">
      <!-- $\mathdefault{10^{-2}}$ -->
      <g style="fill: #262626" transform="translate(22.81375 239.295698) scale(0.11 -0.11)">
       <defs>
        <path id="DejaVuSans-2212" d="M 678 2272 
L 4684 2272 
L 4684 1741 
L 678 1741 
L 678 2272 
z
" transform="scale(0.015625)"/>
        <path id="DejaVuSans-32" d="M 1228 531 
L 3431 531 
L 3431 0 
L 469 0 
L 469 531 
Q 828 903 1448 1529 
Q 2069 2156 2228 2338 
Q 2531 2678 2651 2914 
Q 2772 3150 2772 3378 
Q 2772 3750 2511 3984 
Q 2250 4219 1831 4219 
Q 1534 4219 1204 4116 
Q 875 4013 500 3803 
L 500 4441 
Q 881 4594 1212 4672 
Q 1544 4750 1819 4750 
Q 2544 4750 2975 4387 
Q 3406 4025 3406 3419 
Q 3406 3131 3298 2873 
Q 3191 2616 2906 2266 
Q 2828 2175 2409 1742 
Q 1991 1309 1228 531 
z
" transform="scale(0.015625)"/>
       </defs>
       <use xlink:href="#DejaVuSans-31" transform="translate(0 0.765625)"/>
       <use xlink:href="#DejaVuSans-30" transform="translate(63.623047 0.765625)"/>
       <use xlink:href="#DejaVuSans-2212" transform="translate(128.203125 39.046875) scale(0.7)"/>
       <use xlink:href="#DejaVuSans-32" transform="translate(186.855469 39.046875) scale(0.7)"/>
      </g>
     </g>
    </g>
    <g id="ytick_2">
     <g id="line2d_16">
      <path d="M 58.16375 38.099761 
L 555.701202 38.099761 
" clip-path="url(#pc9238a9e45)" style="fill: none; stroke: #cccccc; stroke-opacity: 0.3; stroke-linecap: round"/>
     </g>
     <g id="text_5">
      <!-- $\mathdefault{10^{-1}}$ -->
      <g style="fill: #262626" transform="translate(22.81375 42.278902) scale(0.11 -0.11)">
       <use xlink:href="#DejaVuSans-31" transform="translate(0 0.684375)"/>
       <use xlink:href="#DejaVuSans-30" transform="translate(63.623047 0.684375)"/>
       <use xlink:href="#DejaVuSans-2212" transform="translate(128.203125 38.965625) scale(0.7)"/>
       <use xlink:href="#DejaVuSans-31" transform="translate(186.855469 38.965625) scale(0.7)"/>
      </g>
     </g>
    </g>
    <g id="ytick_3">
     <g id="line2d_17">
      <path d="M 58.16375 338.132453 
L 555.701202 338.132453 
" clip-path="url(#pc9238a9e45)" style="fill: none; stroke: #cccccc; stroke-opacity: 0.3; stroke-linecap: round"/>
     </g>
    </g>
    <g id="ytick_4">
     <g id="line2d_18">
      <path d="M 58.16375 313.517424 
L 555.701202 313.517424 
" clip-path="url(#pc9238a9e45)" style="fill: none; stroke: #cccccc; stroke-opacity: 0.3; stroke-linecap: round"/>
     </g>
    </g>
    <g id="ytick_5">
     <g id="line2d_19">
      <path d="M 58.16375 294.424523 
L 555.701202 294.424523 
" clip-path="url(#pc9238a9e45)" style="fill: none; stroke: #cccccc; stroke-opacity: 0.3; stroke-linecap: round"/>
     </g>
    </g>
    <g id="ytick_6">
     <g id="line2d_20">
      <path d="M 58.16375 278.824488 
L 555.701202 278.824488 
" clip-path="url(#pc9238a9e45)" style="fill: none; stroke: #cccccc; stroke-opacity: 0.3; stroke-linecap: round"/>
     </g>
    </g>
    <g id="ytick_7">
     <g id="line2d_21">
      <path d="M 58.16375 265.634846 
L 555.701202 265.634846 
" clip-path="url(#pc9238a9e45)" style="fill: none; stroke: #cccccc; stroke-opacity: 0.3; stroke-linecap: round"/>
     </g>
    </g>
    <g id="ytick_8">
     <g id="line2d_22">
      <path d="M 58.16375 254.209458 
L 555.701202 254.209458 
" clip-path="url(#pc9238a9e45)" style="fill: none; stroke: #cccccc; stroke-opacity: 0.3; stroke-linecap: round"/>
     </g>
    </g>
    <g id="ytick_9">
     <g id="line2d_23">
      <path d="M 58.16375 244.131552 
L 555.701202 244.131552 
" clip-path="url(#pc9238a9e45)" style="fill: none; stroke: #cccccc; stroke-opacity: 0.3; stroke-linecap: round"/>
     </g>
    </g>
    <g id="ytick_10">
     <g id="line2d_24">
      <path d="M 58.16375 175.808592 
L 555.701202 175.808592 
" clip-path="url(#pc9238a9e45)" style="fill: none; stroke: #cccccc; stroke-opacity: 0.3; stroke-linecap: round"/>
     </g>
    </g>
    <g id="ytick_11">
     <g id="line2d_25">
      <path d="M 58.16375 141.115657 
L 555.701202 141.115657 
" clip-path="url(#pc9238a9e45)" style="fill: none; stroke: #cccccc; stroke-opacity: 0.3; stroke-linecap: round"/>
     </g>
    </g>
    <g id="ytick_12">
     <g id="line2d_26">
      <path d="M 58.16375 116.500627 
L 555.701202 116.500627 
" clip-path="url(#pc9238a9e45)" style="fill: none; stroke: #cccccc; stroke-opacity: 0.3; stroke-linecap: round"/>
     </g>
    </g>
    <g id="ytick_13">
     <g id="line2d_27">
      <path d="M 58.16375 97.407727 
L 555.701202 97.407727 
" clip-path="url(#pc9238a9e45)" style="fill: none; stroke: #cccccc; stroke-opacity: 0.3; stroke-linecap: round"/>
     </g>
    </g>
    <g id="ytick_14">
     <g id="line2d_28">
      <path d="M 58.16375 81.807691 
L 555.701202 81.807691 
" clip-path="url(#pc9238a9e45)" style="fill: none; stroke: #cccccc; stroke-opacity: 0.3; stroke-linecap: round"/>
     </g>
    </g>
    <g id="ytick_15">
     <g id="line2d_29">
      <path d="M 58.16375 68.618049 
L 555.701202 68.618049 
" clip-path="url(#pc9238a9e45)" style="fill: none; stroke: #cccccc; stroke-opacity: 0.3; stroke-linecap: round"/>
     </g>
    </g>
    <g id="ytick_16">
     <g id="line2d_30">
      <path d="M 58.16375 57.192662 
L 555.701202 57.192662 
" clip-path="url(#pc9238a9e45)" style="fill: none; stroke: #cccccc; stroke-opacity: 0.3; stroke-linecap: round"/>
     </g>
    </g>
    <g id="ytick_17">
     <g id="line2d_31">
      <path d="M 58.16375 47.114756 
L 555.701202 47.114756 
" clip-path="url(#pc9238a9e45)" style="fill: none; stroke: #cccccc; stroke-opacity: 0.3; stroke-linecap: round"/>
     </g>
    </g>
    <g id="text_6">
     <!-- $\Delta\theta$ -->
     <g style="fill: #262626" transform="translate(16.318125 203.716125) rotate(-90) scale(0.12 -0.12)">
      <defs>
       <path id="DejaVuSans-394" d="M 2188 4044 
L 906 525 
L 3472 525 
L 2188 4044 
z
M 50 0 
L 1831 4666 
L 2547 4666 
L 4325 0 
L 50 0 
z
" transform="scale(0.015625)"/>
       <path id="DejaVuSans-Oblique-3b8" d="M 2913 2219 
L 925 2219 
Q 791 1284 928 888 
Q 1100 400 1566 400 
Q 2034 400 2391 891 
Q 2703 1322 2913 2219 
z
M 3009 2750 
Q 3094 3638 2984 3950 
Q 2813 4444 2353 4444 
Q 1875 4444 1525 3956 
Q 1250 3563 1034 2750 
L 3009 2750 
z
M 2444 4913 
Q 3194 4913 3494 4250 
Q 3794 3591 3566 2422 
Q 3341 1256 2781 594 
Q 2225 -72 1475 -72 
Q 722 -72 425 594 
Q 128 1256 353 2422 
Q 581 3591 1134 4250 
Q 1691 4913 2444 4913 
z
" transform="scale(0.015625)"/>
      </defs>
      <use xlink:href="#DejaVuSans-394" transform="translate(0 0.234375)"/>
      <use xlink:href="#DejaVuSans-Oblique-3b8" transform="translate(68.408203 0.234375)"/>
     </g>
    </g>
   </g>
   <g id="line2d_32">
    <path d="M 80.779089 38.099761 
L 89.42179 44.130888 
L 98.064491 50.162014 
L 106.707192 56.193141 
L 115.349893 62.224267 
L 123.992594 68.255393 
L 132.635296 74.28652 
L 141.277997 80.317646 
L 149.920698 86.348773 
L 158.563399 92.379899 
L 167.2061 98.411026 
L 175.848801 104.442152 
L 184.491503 110.473278 
L 193.134204 116.504405 
L 201.776905 122.535531 
L 210.419606 128.566658 
L 219.062307 134.597784 
L 227.705008 140.628911 
L 236.34771 146.660037 
L 244.990411 152.691163 
L 253.633112 158.72229 
L 262.275813 164.753416 
L 270.918514 170.784543 
L 279.561215 176.815669 
L 288.203916 182.846796 
L 296.846618 188.877922 
L 305.489319 194.909048 
L 314.13202 200.940175 
L 322.774721 206.971301 
L 331.417422 213.002428 
L 340.060123 219.033554 
L 348.702825 225.06468 
L 357.345526 231.095807 
L 365.988227 237.126933 
L 374.630928 243.15806 
L 383.273629 249.189186 
L 391.91633 255.220313 
L 400.559031 261.251439 
L 409.201733 267.282565 
L 417.844434 273.313692 
L 426.487135 279.344818 
L 435.129836 285.375945 
L 443.772537 291.407071 
L 452.415238 297.438198 
L 461.05794 303.469324 
L 469.700641 309.50045 
L 478.343342 315.531577 
L 486.986043 321.562703 
L 495.628744 327.59383 
L 504.271445 333.624956 
" clip-path="url(#pc9238a9e45)" style="fill: none; stroke-dasharray: 5.55,2.4; stroke-dashoffset: 0; stroke: #1a1a1a; stroke-opacity: 0.4; stroke-width: 1.5"/>
   </g>
   <g id="line2d_33">
    <path d="M 80.779089 38.099761 
L 89.42179 41.115325 
L 98.064491 44.130888 
L 106.707192 47.146451 
L 115.349893 50.162014 
L 123.992594 53.177577 
L 132.635296 56.193141 
L 141.277997 59.208704 
L 149.920698 62.224267 
L 158.563399 65.23983 
L 167.2061 68.255393 
L 175.848801 71.270957 
L 184.491503 74.28652 
L 193.134204 77.302083 
L 201.776905 80.317646 
L 210.419606 83.33321 
L 219.062307 86.348773 
L 227.705008 89.364336 
L 236.34771 92.379899 
L 244.990411 95.395462 
L 253.633112 98.411026 
L 262.275813 101.426589 
L 270.918514 104.442152 
L 279.561215 107.457715 
L 288.203916 110.473278 
L 296.846618 113.488842 
L 305.489319 116.504405 
L 314.13202 119.519968 
L 322.774721 122.535531 
L 331.417422 125.551094 
L 340.060123 128.566658 
L 348.702825 131.582221 
L 357.345526 134.597784 
L 365.988227 137.613347 
L 374.630928 140.628911 
L 383.273629 143.644474 
L 391.91633 146.660037 
L 400.559031 149.6756 
L 409.201733 152.691163 
L 417.844434 155.706727 
L 426.487135 158.72229 
L 435.129836 161.737853 
L 443.772537 164.753416 
L 452.415238 167.768979 
L 461.05794 170.784543 
L 469.700641 173.800106 
L 478.343342 176.815669 
L 486.986043 179.831232 
L 495.628744 182.846796 
L 504.271445 185.862359 
" clip-path="url(#pc9238a9e45)" style="fill: none; stroke-dasharray: 1.5,2.475; stroke-dashoffset: 0; stroke: #1a1a1a; stroke-opacity: 0.4; stroke-width: 1.5"/>
   </g>
   <g id="line2d_34">
    <path d="M 80.779089 38.099761 
L 165.768357 97.407727 
L 215.483892 132.100663 
L 250.757625 156.715692 
L 278.118058 175.808592 
L 300.47316 191.408628 
L 319.374129 204.59827 
L 335.746893 216.023658 
L 350.188695 226.101564 
L 363.107326 235.116558 
L 374.79365 243.271612 
L 385.462428 250.716593 
L 395.276752 257.565312 
L 404.363397 263.906235 
L 412.822861 269.809494 
L 420.736161 275.331623 
L 428.169564 280.518866 
L 435.177963 285.409529 
L 441.807339 290.035699 
L 448.096595 294.424523 
L 454.078932 298.599171 
L 459.782919 302.579577 
L 465.233309 306.383017 
L 470.451696 310.024559 
L 475.457028 313.517424 
L 480.266021 316.873277 
L 484.893498 320.102465 
L 489.352665 323.214201 
L 493.655338 326.21673 
L 497.81213 329.117459 
L 501.832608 331.923065 
L 505.72543 334.639588 
L 509.498453 337.272513 
L 513.158833 339.826831 
L 516.713099 342.307101 
L 520.167231 344.717494 
L 523.526718 347.061841 
L 526.796608 349.343665 
L 529.981555 351.566213 
L 533.085863 353.732489 
" clip-path="url(#pc9238a9e45)" style="fill: none; stroke-dasharray: 5.55,2.4; stroke-dashoffset: 0; stroke: #4c72b0; stroke-opacity: 0.5; stroke-width: 1.5"/>
   </g>
   <g id="line2d_35">
    <path d="M 80.779089 38.099761 
L 165.768357 97.407727 
L 215.483892 132.100663 
L 250.757625 156.715692 
L 278.118058 175.808592 
L 300.47316 191.408628 
L 319.374129 204.59827 
L 335.746893 216.023657 
L 350.188695 226.101564 
L 363.107326 235.116558 
L 374.79365 243.271612 
L 385.462428 250.716593 
L 395.276752 257.565312 
L 404.363397 263.906235 
L 412.822861 269.809493 
L 420.736161 275.331623 
L 428.169564 280.518866 
L 435.177963 285.409529 
L 441.807339 290.035699 
L 448.096595 294.424523 
L 454.078932 298.59917 
L 459.782919 302.579577 
L 465.233309 306.383017 
L 470.451696 310.024558 
L 475.457028 313.517423 
L 480.266021 316.873277 
L 484.893498 320.102464 
L 489.352665 323.2142 
L 493.655338 326.216729 
L 497.81213 329.117458 
L 501.832608 331.923063 
L 505.72543 334.639587 
L 509.498453 337.272512 
L 513.158833 339.82683 
L 516.713099 342.307099 
L 520.167231 344.717493 
L 523.526718 347.061839 
L 526.796608 349.343663 
L 529.981555 351.566211 
L 533.085863 353.732486 
" clip-path="url(#pc9238a9e45)" style="fill: none; stroke: #4c72b0; stroke-width: 1.5; stroke-linecap: round"/>
    <defs>
     <path id="m86891992d2" d="M 0 3 
C 0.795609 3 1.55874 2.683901 2.12132 2.12132 
C 2.683901 1.55874 3 0.795609 3 0 
C 3 -0.795609 2.683901 -1.55874 2.12132 -2.12132 
C 1.55874 -2.683901 0.795609 -3 0 -3 
C -0.795609 -3 -1.55874 -2.683901 -2.12132 -2.12132 
C -2.683901 -1.55874 -3 -0.795609 -3 0 
C -3 0.795609 -2.683901 1.55874 -2.12132 2.12132 
C -1.55874 2.683901 -0.795609 3 0 3 
z
" style="stroke: #4c72b0"/>
    </defs>
    <g clip-path="url(#pc9238a9e45)">
     <use xlink:href="#m86891992d2" x="80.779089" y="38.099761" style="fill: #4c72b0; stroke: #4c72b0"/>
     <use xlink:href="#m86891992d2" x="165.768357" y="97.407727" style="fill: #4c72b0; stroke: #4c72b0"/>
     <use xlink:href="#m86891992d2" x="215.483892" y="132.100663" style="fill: #4c72b0; stroke: #4c72b0"/>
     <use xlink:href="#m86891992d2" x="250.757625" y="156.715692" style="fill: #4c72b0; stroke: #4c72b0"/>
     <use xlink:href="#m86891992d2" x="278.118058" y="175.808592" style="fill: #4c72b0; stroke: #4c72b0"/>
     <use xlink:href="#m86891992d2" x="300.47316" y="191.408628" style="fill: #4c72b0; stroke: #4c72b0"/>
     <use xlink:href="#m86891992d2" x="319.374129" y="204.59827" style="fill: #4c72b0; stroke: #4c72b0"/>
     <use xlink:href="#m86891992d2" x="335.746893" y="216.023657" style="fill: #4c72b0; stroke: #4c72b0"/>
     <use xlink:href="#m86891992d2" x="350.188695" y="226.101564" style="fill: #4c72b0; stroke: #4c72b0"/>
     <use xlink:href="#m86891992d2" x="363.107326" y="235.116558" style="fill: #4c72b0; stroke: #4c72b0"/>
     <use xlink:href="#m86891992d2" x="374.79365" y="243.271612" style="fill: #4c72b0; stroke: #4c72b0"/>
     <use xlink:href="#m86891992d2" x="385.462428" y="250.716593" style="fill: #4c72b0; stroke: #4c72b0"/>
     <use xlink:href="#m86891992d2" x="395.276752" y="257.565312" style="fill: #4c72b0; stroke: #4c72b0"/>
     <use xlink:href="#m86891992d2" x="404.363397" y="263.906235" style="fill: #4c72b0; stroke: #4c72b0"/>
     <use xlink:href="#m86891992d2" x="412.822861" y="269.809493" style="fill: #4c72b0; stroke: #4c72b0"/>
     <use xlink:href="#m86891992d2" x="420.736161" y="275.331623" style="fill: #4c72b0; stroke: #4c72b0"/>
     <use xlink:href="#m86891992d2" x="428.169564" y="280.518866" style="fill: #4c72b0; stroke: #4c72b0"/>
     <use xlink:href="#m86891992d2" x="435.177963" y="285.409529" style="fill: #4c72b0; stroke: #4c72b0"/>
     <use xlink:href="#m86891992d2" x="441.807339" y="290.035699" style="fill: #4c72b0; stroke: #4c72b0"/>
     <use xlink:href="#m86891992d2" x="448.096595" y="294.424523" style="fill: #4c72b0; stroke: #4c72b0"/>
     <use xlink:href="#m86891992d2" x="454.078932" y="298.59917" style="fill: #4c72b0; stroke: #4c72b0"/>
     <use xlink:href="#m86891992d2" x="459.782919" y="302.579577" style="fill: #4c72b0; stroke: #4c72b0"/>
     <use xlink:href="#m86891992d2" x="465.233309" y="306.383017" style="fill: #4c72b0; stroke: #4c72b0"/>
     <use xlink:href="#m86891992d2" x="470.451696" y="310.024558" style="fill: #4c72b0; stroke: #4c72b0"/>
     <use xlink:href="#m86891992d2" x="475.457028" y="313.517423" style="fill: #4c72b0; stroke: #4c72b0"/>
     <use xlink:href="#m86891992d2" x="480.266021" y="316.873277" style="fill: #4c72b0; stroke: #4c72b0"/>
     <use xlink:href="#m86891992d2" x="484.893498" y="320.102464" style="fill: #4c72b0; stroke: #4c72b0"/>
     <use xlink:href="#m86891992d2" x="489.352665" y="323.2142" style="fill: #4c72b0; stroke: #4c72b0"/>
     <use xlink:href="#m86891992d2" x="493.655338" y="326.216729" style="fill: #4c72b0; stroke: #4c72b0"/>
     <use xlink:href="#m86891992d2" x="497.81213" y="329.117458" style="fill: #4c72b0; stroke: #4c72b0"/>
     <use xlink:href="#m86891992d2" x="501.832608" y="331.923063" style="fill: #4c72b0; stroke: #4c72b0"/>
     <use xlink:href="#m86891992d2" x="505.72543" y="334.639587" style="fill: #4c72b0; stroke: #4c72b0"/>
     <use xlink:href="#m86891992d2" x="509.498453" y="337.272512" style="fill: #4c72b0; stroke: #4c72b0"/>
     <use xlink:href="#m86891992d2" x="513.158833" y="339.82683" style="fill: #4c72b0; stroke: #4c72b0"/>
     <use xlink:href="#m86891992d2" x="516.713099" y="342.307099" style="fill: #4c72b0; stroke: #4c72b0"/>
     <use xlink:href="#m86891992d2" x="520.167231" y="344.717493" style="fill: #4c72b0; stroke: #4c72b0"/>
     <use xlink:href="#m86891992d2" x="523.526718" y="347.061839" style="fill: #4c72b0; stroke: #4c72b0"/>
     <use xlink:href="#m86891992d2" x="526.796608" y="349.343663" style="fill: #4c72b0; stroke: #4c72b0"/>
     <use xlink:href="#m86891992d2" x="529.981555" y="351.566211" style="fill: #4c72b0; stroke: #4c72b0"/>
     <use xlink:href="#m86891992d2" x="533.085863" y="353.732486" style="fill: #4c72b0; stroke: #4c72b0"/>
    </g>
   </g>
   <g id="line2d_36">
    <path d="M 250.757625 156.715693 
L 278.118058 175.808593 
L 300.47316 191.408628 
L 319.374129 204.59827 
L 335.746893 216.023658 
L 350.188695 226.101564 
L 363.107326 235.116558 
L 374.79365 243.271612 
L 385.462428 250.716593 
L 395.276752 257.565312 
L 404.363397 263.906235 
L 412.822861 269.809493 
L 420.736161 275.331622 
L 428.169564 280.518865 
L 435.177963 285.409528 
L 441.807339 290.035698 
L 448.096595 294.424522 
L 454.078932 298.59917 
L 459.782919 302.579576 
L 465.233309 306.383016 
L 470.451696 310.024558 
L 475.457028 313.517422 
L 480.266021 316.873276 
L 484.893498 320.102464 
L 489.352665 323.214199 
L 493.655338 326.216729 
L 497.81213 329.117458 
L 501.832608 331.923063 
L 505.72543 334.639587 
L 509.498453 337.272512 
L 513.158833 339.82683 
L 516.713099 342.3071 
L 520.167231 344.717493 
L 523.526718 347.06184 
L 526.796608 349.343663 
L 529.981555 351.566212 
L 533.085863 353.732487 
" clip-path="url(#pc9238a9e45)" style="fill: none; stroke-dasharray: 5.55,2.4; stroke-dashoffset: 0; stroke: #4c72b0; stroke-opacity: 0.7; stroke-width: 1.5"/>
   </g>
   <g id="line2d_37">
    <path d="M 165.768357 97.407727 
L 250.757625 144.408177 
L 300.47316 174.06216 
L 335.746893 195.916125 
L 363.107326 213.262593 
L 385.462428 227.657432 
L 404.363397 239.964946 
L 420.736161 250.716593 
L 435.177963 260.263043 
L 448.096595 268.848068 
L 459.782919 276.648085 
L 470.451696 283.794935 
L 480.266021 290.389756 
L 489.352665 296.511847 
L 497.81213 302.224541 
L 505.72543 307.579227 
L 513.158833 312.61818 
L 520.167231 317.376597 
L 526.796608 321.884094 
L 533.085863 326.16583 
" clip-path="url(#pc9238a9e45)" style="fill: none; stroke-dasharray: 5.55,2.4; stroke-dashoffset: 0; stroke: #dd8452; stroke-opacity: 0.5; stroke-width: 1.5"/>
   </g>
   <g id="line2d_38">
    <path d="M 165.768357 97.407727 
L 250.757625 144.408177 
L 300.47316 174.06216 
L 335.746893 195.916125 
L 363.107326 213.262599 
L 385.462428 227.657432 
L 404.363397 239.964947 
L 420.736161 250.716594 
L 435.177963 260.263043 
L 448.096595 268.848068 
L 459.782919 276.648087 
L 470.451696 283.794936 
L 480.266021 290.389767 
L 489.352665 296.511851 
L 497.81213 302.224544 
L 505.72543 307.579232 
L 513.158833 312.618183 
L 520.167231 317.376599 
L 526.796608 321.884094 
L 533.085863 326.165829 
" clip-path="url(#pc9238a9e45)" style="fill: none; stroke: #dd8452; stroke-width: 1.5; stroke-linecap: round"/>
    <defs>
     <path id="m96e1c7cc72" d="M -3 3 
L 3 3 
L 3 -3 
L -3 -3 
z
" style="stroke: #dd8452; stroke-linejoin: miter"/>
    </defs>
    <g clip-path="url(#pc9238a9e45)">
     <use xlink:href="#m96e1c7cc72" x="165.768357" y="97.407727" style="fill: #dd8452; stroke: #dd8452; stroke-linejoin: miter"/>
     <use xlink:href="#m96e1c7cc72" x="250.757625" y="144.408177" style="fill: #dd8452; stroke: #dd8452; stroke-linejoin: miter"/>
     <use xlink:href="#m96e1c7cc72" x="300.47316" y="174.06216" style="fill: #dd8452; stroke: #dd8452; stroke-linejoin: miter"/>
     <use xlink:href="#m96e1c7cc72" x="335.746893" y="195.916125" style="fill: #dd8452; stroke: #dd8452; stroke-linejoin: miter"/>
     <use xlink:href="#m96e1c7cc72" x="363.107326" y="213.262599" style="fill: #dd8452; stroke: #dd8452; stroke-linejoin: miter"/>
     <use xlink:href="#m96e1c7cc72" x="385.462428" y="227.657432" style="fill: #dd8452; stroke: #dd8452; stroke-linejoin: miter"/>
     <use xlink:href="#m96e1c7cc72" x="404.363397" y="239.964947" style="fill: #dd8452; stroke: #dd8452; stroke-linejoin: miter"/>
     <use xlink:href="#m96e1c7cc72" x="420.736161" y="250.716594" style="fill: #dd8452; stroke: #dd8452; stroke-linejoin: miter"/>
     <use xlink:href="#m96e1c7cc72" x="435.177963" y="260.263043" style="fill: #dd8452; stroke: #dd8452; stroke-linejoin: miter"/>
     <use xlink:href="#m96e1c7cc72" x="448.096595" y="268.848068" style="fill: #dd8452; stroke: #dd8452; stroke-linejoin: miter"/>
     <use xlink:href="#m96e1c7cc72" x="459.782919" y="276.648087" style="fill: #dd8452; stroke: #dd8452; stroke-linejoin: miter"/>
     <use xlink:href="#m96e1c7cc72" x="470.451696" y="283.794936" style="fill: #dd8452; stroke: #dd8452; stroke-linejoin: miter"/>
     <use xlink:href="#m96e1c7cc72" x="480.266021" y="290.389767" style="fill: #dd8452; stroke: #dd8452; stroke-linejoin: miter"/>
     <use xlink:href="#m96e1c7cc72" x="489.352665" y="296.511851" style="fill: #dd8452; stroke: #dd8452; stroke-linejoin: miter"/>
     <use xlink:href="#m96e1c7cc72" x="497.81213" y="302.224544" style="fill: #dd8452; stroke: #dd8452; stroke-linejoin: miter"/>
     <use xlink:href="#m96e1c7cc72" x="505.72543" y="307.579232" style="fill: #dd8452; stroke: #dd8452; stroke-linejoin: miter"/>
     <use xlink:href="#m96e1c7cc72" x="513.158833" y="312.618183" style="fill: #dd8452; stroke: #dd8452; stroke-linejoin: miter"/>
     <use xlink:href="#m96e1c7cc72" x="520.167231" y="317.376599" style="fill: #dd8452; stroke: #dd8452; stroke-linejoin: miter"/>
     <use xlink:href="#m96e1c7cc72" x="526.796608" y="321.884094" style="fill: #dd8452; stroke: #dd8452; stroke-linejoin: miter"/>
     <use xlink:href="#m96e1c7cc72" x="533.085863" y="326.165829" style="fill: #dd8452; stroke: #dd8452; stroke-linejoin: miter"/>
    </g>
   </g>
   <g id="line2d_39">
    <path d="M 250.757625 141.323278 
L 300.47316 173.647663 
L 335.746893 196.582179 
L 363.107326 214.371571 
L 385.462428 228.906564 
L 404.363397 241.195724 
L 420.736161 251.84108 
L 435.177963 261.230948 
L 448.096595 269.630472 
L 459.782919 277.228766 
L 470.451696 284.165465 
L 480.266021 290.546609 
L 489.352665 296.454625 
L 497.81213 301.954857 
L 505.72543 307.099981 
L 513.158833 311.933081 
L 520.167231 316.489849 
L 526.796608 320.800183 
L 533.085863 324.889373 
" clip-path="url(#pc9238a9e45)" style="fill: none; stroke-dasharray: 5.55,2.4; stroke-dashoffset: 0; stroke: #dd8452; stroke-opacity: 0.7; stroke-width: 1.5"/>
   </g>
   <g id="patch_3">
    <path d="M 58.16375 369.514125 
L 58.16375 22.318125 
" style="fill: none; stroke: #cccccc; stroke-width: 1.25; stroke-linejoin: miter; stroke-linecap: square"/>
   </g>
   <g id="patch_4">
    <path d="M 555.701202 369.514125 
L 555.701202 22.318125 
" style="fill: none; stroke: #cccccc; stroke-width: 1.25; stroke-linejoin: miter; stroke-linecap: square"/>
   </g>
   <g id="patch_5">
    <path d="M 58.16375 369.514125 
L 555.701202 369.514125 
" style="fill: none; stroke: #cccccc; stroke-width: 1.25; stroke-linejoin: miter; stroke-linecap: square"/>
   </g>
   <g id="patch_6">
    <path d="M 58.16375 22.318125 
L 555.701202 22.318125 
" style="fill: none; stroke: #cccccc; stroke-width: 1.25; stroke-linejoin: miter; stroke-linecap: square"/>
   </g>
   <g id="text_7">
    <!-- Phase Sensitivity Scaling in Standard MZI -->
    <g style="fill: #262626" transform="translate(182.693101 16.318125) scale(0.12 -0.12)">
     <defs>
      <path id="DejaVuSans-50" d="M 1259 4147 
L 1259 2394 
L 2053 2394 
Q 2494 2394 2734 2622 
Q 2975 2850 2975 3272 
Q 2975 3691 2734 3919 
Q 2494 4147 2053 4147 
L 1259 4147 
z
M 628 4666 
L 2053 4666 
Q 2838 4666 3239 4311 
Q 3641 3956 3641 3272 
Q 3641 2581 3239 2228 
Q 2838 1875 2053 1875 
L 1259 1875 
L 1259 0 
L 628 0 
L 628 4666 
z
" transform="scale(0.015625)"/>
      <path id="DejaVuSans-73" d="M 2834 3397 
L 2834 2853 
Q 2591 2978 2328 3040 
Q 2066 3103 1784 3103 
Q 1356 3103 1142 2972 
Q 928 2841 928 2578 
Q 928 2378 1081 2264 
Q 1234 2150 1697 2047 
L 1894 2003 
Q 2506 1872 2764 1633 
Q 3022 1394 3022 966 
Q 3022 478 2636 193 
Q 2250 -91 1575 -91 
Q 1294 -91 989 -36 
Q 684 19 347 128 
L 347 722 
Q 666 556 975 473 
Q 1284 391 1588 391 
Q 1994 391 2212 530 
Q 2431 669 2431 922 
Q 2431 1156 2273 1281 
Q 2116 1406 1581 1522 
L 1381 1569 
Q 847 1681 609 1914 
Q 372 2147 372 2553 
Q 372 3047 722 3315 
Q 1072 3584 1716 3584 
Q 2034 3584 2315 3537 
Q 2597 3491 2834 3397 
z
" transform="scale(0.015625)"/>
      <path id="DejaVuSans-53" d="M 3425 4513 
L 3425 3897 
Q 3066 4069 2747 4153 
Q 2428 4238 2131 4238 
Q 1616 4238 1336 4038 
Q 1056 3838 1056 3469 
Q 1056 3159 1242 3001 
Q 1428 2844 1947 2747 
L 2328 2669 
Q 3034 2534 3370 2195 
Q 3706 1856 3706 1288 
Q 3706 609 3251 259 
Q 2797 -91 1919 -91 
Q 1588 -91 1214 -16 
Q 841 59 441 206 
L 441 856 
Q 825 641 1194 531 
Q 1563 422 1919 422 
Q 2459 422 2753 634 
Q 3047 847 3047 1241 
Q 3047 1584 2836 1778 
Q 2625 1972 2144 2069 
L 1759 2144 
Q 1053 2284 737 2584 
Q 422 2884 422 3419 
Q 422 4038 858 4394 
Q 1294 4750 2059 4750 
Q 2388 4750 2728 4690 
Q 3069 4631 3425 4513 
z
" transform="scale(0.015625)"/>
      <path id="DejaVuSans-69" d="M 603 3500 
L 1178 3500 
L 1178 0 
L 603 0 
L 603 3500 
z
M 603 4863 
L 1178 4863 
L 1178 4134 
L 603 4134 
L 603 4863 
z
" transform="scale(0.015625)"/>
      <path id="DejaVuSans-76" d="M 191 3500 
L 800 3500 
L 1894 563 
L 2988 3500 
L 3597 3500 
L 2284 0 
L 1503 0 
L 191 3500 
z
" transform="scale(0.015625)"/>
      <path id="DejaVuSans-79" d="M 2059 -325 
Q 1816 -950 1584 -1140 
Q 1353 -1331 966 -1331 
L 506 -1331 
L 506 -850 
L 844 -850 
Q 1081 -850 1212 -737 
Q 1344 -625 1503 -206 
L 1606 56 
L 191 3500 
L 800 3500 
L 1894 763 
L 2988 3500 
L 3597 3500 
L 2059 -325 
z
" transform="scale(0.015625)"/>
      <path id="DejaVuSans-63" d="M 3122 3366 
L 3122 2828 
Q 2878 2963 2633 3030 
Q 2388 3097 2138 3097 
Q 1578 3097 1268 2742 
Q 959 2388 959 1747 
Q 959 1106 1268 751 
Q 1578 397 2138 397 
Q 2388 397 2633 464 
Q 2878 531 3122 666 
L 3122 134 
Q 2881 22 2623 -34 
Q 2366 -91 2075 -91 
Q 1284 -91 818 406 
Q 353 903 353 1747 
Q 353 2603 823 3093 
Q 1294 3584 2113 3584 
Q 2378 3584 2631 3529 
Q 2884 3475 3122 3366 
z
" transform="scale(0.015625)"/>
      <path id="DejaVuSans-67" d="M 2906 1791 
Q 2906 2416 2648 2759 
Q 2391 3103 1925 3103 
Q 1463 3103 1205 2759 
Q 947 2416 947 1791 
Q 947 1169 1205 825 
Q 1463 481 1925 481 
Q 2391 481 2648 825 
Q 2906 1169 2906 1791 
z
M 3481 434 
Q 3481 -459 3084 -895 
Q 2688 -1331 1869 -1331 
Q 1566 -1331 1297 -1286 
Q 1028 -1241 775 -1147 
L 775 -588 
Q 1028 -725 1275 -790 
Q 1522 -856 1778 -856 
Q 2344 -856 2625 -561 
Q 2906 -266 2906 331 
L 2906 616 
Q 2728 306 2450 153 
Q 2172 0 1784 0 
Q 1141 0 747 490 
Q 353 981 353 1791 
Q 353 2603 747 3093 
Q 1141 3584 1784 3584 
Q 2172 3584 2450 3431 
Q 2728 3278 2906 2969 
L 2906 3500 
L 3481 3500 
L 3481 434 
z
" transform="scale(0.015625)"/>
      <path id="DejaVuSans-64" d="M 2906 2969 
L 2906 4863 
L 3481 4863 
L 3481 0 
L 2906 0 
L 2906 525 
Q 2725 213 2448 61 
Q 2172 -91 1784 -91 
Q 1150 -91 751 415 
Q 353 922 353 1747 
Q 353 2572 751 3078 
Q 1150 3584 1784 3584 
Q 2172 3584 2448 3432 
Q 2725 3281 2906 2969 
z
M 947 1747 
Q 947 1113 1208 752 
Q 1469 391 1925 391 
Q 2381 391 2643 752 
Q 2906 1113 2906 1747 
Q 2906 2381 2643 2742 
Q 2381 3103 1925 3103 
Q 1469 3103 1208 2742 
Q 947 2381 947 1747 
z
" transform="scale(0.015625)"/>
      <path id="DejaVuSans-4d" d="M 628 4666 
L 1569 4666 
L 2759 1491 
L 3956 4666 
L 4897 4666 
L 4897 0 
L 4281 0 
L 4281 4097 
L 3078 897 
L 2444 897 
L 1241 4097 
L 1241 0 
L 628 0 
L 628 4666 
z
" transform="scale(0.015625)"/>
      <path id="DejaVuSans-5a" d="M 359 4666 
L 4025 4666 
L 4025 4184 
L 1075 531 
L 4097 531 
L 4097 0 
L 288 0 
L 288 481 
L 3238 4134 
L 359 4134 
L 359 4666 
z
" transform="scale(0.015625)"/>
      <path id="DejaVuSans-49" d="M 628 4666 
L 1259 4666 
L 1259 0 
L 628 0 
L 628 4666 
z
" transform="scale(0.015625)"/>
     </defs>
     <use xlink:href="#DejaVuSans-50"/>
     <use xlink:href="#DejaVuSans-68" transform="translate(60.302734 0)"/>
     <use xlink:href="#DejaVuSans-61" transform="translate(123.681641 0)"/>
     <use xlink:href="#DejaVuSans-73" transform="translate(184.960938 0)"/>
     <use xlink:href="#DejaVuSans-65" transform="translate(237.060547 0)"/>
     <use xlink:href="#DejaVuSans-20" transform="translate(298.583984 0)"/>
     <use xlink:href="#DejaVuSans-53" transform="translate(330.371094 0)"/>
     <use xlink:href="#DejaVuSans-65" transform="translate(393.847656 0)"/>
     <use xlink:href="#DejaVuSans-6e" transform="translate(455.371094 0)"/>
     <use xlink:href="#DejaVuSans-73" transform="translate(518.75 0)"/>
     <use xlink:href="#DejaVuSans-69" transform="translate(570.849609 0)"/>
     <use xlink:href="#DejaVuSans-74" transform="translate(598.632812 0)"/>
     <use xlink:href="#DejaVuSans-69" transform="translate(637.841797 0)"/>
     <use xlink:href="#DejaVuSans-76" transform="translate(665.625 0)"/>
     <use xlink:href="#DejaVuSans-69" transform="translate(724.804688 0)"/>
     <use xlink:href="#DejaVuSans-74" transform="translate(752.587891 0)"/>
     <use xlink:href="#DejaVuSans-79" transform="translate(791.796875 0)"/>
     <use xlink:href="#DejaVuSans-20" transform="translate(850.976562 0)"/>
     <use xlink:href="#DejaVuSans-53" transform="translate(882.763672 0)"/>
     <use xlink:href="#DejaVuSans-63" transform="translate(946.240234 0)"/>
     <use xlink:href="#DejaVuSans-61" transform="translate(1001.220703 0)"/>
     <use xlink:href="#DejaVuSans-6c" transform="translate(1062.5 0)"/>
     <use xlink:href="#DejaVuSans-69" transform="translate(1090.283203 0)"/>
     <use xlink:href="#DejaVuSans-6e" transform="translate(1118.066406 0)"/>
     <use xlink:href="#DejaVuSans-67" transform="translate(1181.445312 0)"/>
     <use xlink:href="#DejaVuSans-20" transform="translate(1244.921875 0)"/>
     <use xlink:href="#DejaVuSans-69" transform="translate(1276.708984 0)"/>
     <use xlink:href="#DejaVuSans-6e" transform="translate(1304.492188 0)"/>
     <use xlink:href="#DejaVuSans-20" transform="translate(1367.871094 0)"/>
     <use xlink:href="#DejaVuSans-53" transform="translate(1399.658203 0)"/>
     <use xlink:href="#DejaVuSans-74" transform="translate(1463.134766 0)"/>
     <use xlink:href="#DejaVuSans-61" transform="translate(1502.34375 0)"/>
     <use xlink:href="#DejaVuSans-6e" transform="translate(1563.623047 0)"/>
     <use xlink:href="#DejaVuSans-64" transform="translate(1627.001953 0)"/>
     <use xlink:href="#DejaVuSans-61" transform="translate(1690.478516 0)"/>
     <use xlink:href="#DejaVuSans-72" transform="translate(1751.757812 0)"/>
     <use xlink:href="#DejaVuSans-64" transform="translate(1791.121094 0)"/>
     <use xlink:href="#DejaVuSans-20" transform="translate(1854.597656 0)"/>
     <use xlink:href="#DejaVuSans-4d" transform="translate(1886.384766 0)"/>
     <use xlink:href="#DejaVuSans-5a" transform="translate(1972.664062 0)"/>
     <use xlink:href="#DejaVuSans-49" transform="translate(2041.169922 0)"/>
    </g>
   </g>
   <g id="legend_1">
    <g id="patch_7">
     <path d="M 419.261202 137.67 
L 549.401202 137.67 
Q 551.201202 137.67 551.201202 135.87 
L 551.201202 28.618125 
Q 551.201202 26.818125 549.401202 26.818125 
L 419.261202 26.818125 
Q 417.461202 26.818125 417.461202 28.618125 
L 417.461202 135.87 
Q 417.461202 137.67 419.261202 137.67 
z
" style="fill: #ffffff; opacity: 0.8; stroke: #cccccc; stroke-linejoin: miter"/>
    </g>
    <g id="line2d_40">
     <path d="M 421.061202 34.108125 
L 430.061202 34.108125 
L 439.061202 34.108125 
" style="fill: none; stroke-dasharray: 5.55,2.4; stroke-dashoffset: 0; stroke: #1a1a1a; stroke-opacity: 0.4; stroke-width: 1.5"/>
    </g>
    <g id="text_8">
     <!-- $\propto 1/N$ (Heisenberg) -->
     <g style="fill: #262626" transform="translate(446.261202 37.258125) scale(0.09 -0.09)">
      <defs>
       <path id="DejaVuSans-221d" d="M 1647 1134 
Q 2163 1134 2472 1884 
Q 2075 2703 1647 2703 
Q 1334 2703 1175 2478 
Q 1006 2238 1006 1919 
Q 1006 1569 1175 1353 
Q 1350 1134 1647 1134 
z
M 3884 1128 
L 3884 716 
L 3644 716 
Q 3416 716 3247 809 
Q 3078 894 2916 1091 
Q 2819 1203 2666 1466 
Q 2456 1091 2272 925 
Q 2044 725 1681 725 
Q 1259 725 981 1041 
Q 688 1372 688 1919 
Q 688 2444 981 2800 
Q 1241 3116 1688 3116 
Q 1916 3116 2084 3022 
Q 2281 2919 2416 2741 
Q 2541 2581 2666 2366 
Q 2875 2741 3059 2906 
Q 3288 3106 3650 3106 
L 3884 3106 
L 3884 2697 
L 3684 2697 
Q 3222 2697 2859 1947 
Q 3256 1128 3684 1128 
L 3884 1128 
z
" transform="scale(0.015625)"/>
       <path id="DejaVuSans-2f" d="M 1625 4666 
L 2156 4666 
L 531 -594 
L 0 -594 
L 1625 4666 
z
" transform="scale(0.015625)"/>
       <path id="DejaVuSans-28" d="M 1984 4856 
Q 1566 4138 1362 3434 
Q 1159 2731 1159 2009 
Q 1159 1288 1364 580 
Q 1569 -128 1984 -844 
L 1484 -844 
Q 1016 -109 783 600 
Q 550 1309 550 2009 
Q 550 2706 781 3412 
Q 1013 4119 1484 4856 
L 1984 4856 
z
" transform="scale(0.015625)"/>
       <path id="DejaVuSans-48" d="M 628 4666 
L 1259 4666 
L 1259 2753 
L 3553 2753 
L 3553 4666 
L 4184 4666 
L 4184 0 
L 3553 0 
L 3553 2222 
L 1259 2222 
L 1259 0 
L 628 0 
L 628 4666 
z
" transform="scale(0.015625)"/>
       <path id="DejaVuSans-29" d="M 513 4856 
L 1013 4856 
Q 1481 4119 1714 3412 
Q 1947 2706 1947 2009 
Q 1947 1309 1714 600 
Q 1481 -109 1013 -844 
L 513 -844 
Q 928 -128 1133 580 
Q 1338 1288 1338 2009 
Q 1338 2731 1133 3434 
Q 928 4138 513 4856 
z
" transform="scale(0.015625)"/>
      </defs>
      <use xlink:href="#DejaVuSans-221d" transform="translate(19.482422 0.015625)"/>
      <use xlink:href="#DejaVuSans-31" transform="translate(110.400391 0.015625)"/>
      <use xlink:href="#DejaVuSans-2f" transform="translate(174.023438 0.015625)"/>
      <use xlink:href="#DejaVuSans-Oblique-4e" transform="translate(207.714844 0.015625)"/>
      <use xlink:href="#DejaVuSans-20" transform="translate(282.519531 0.015625)"/>
      <use xlink:href="#DejaVuSans-28" transform="translate(314.306641 0.015625)"/>
      <use xlink:href="#DejaVuSans-48" transform="translate(353.320312 0.015625)"/>
      <use xlink:href="#DejaVuSans-65" transform="translate(428.515625 0.015625)"/>
      <use xlink:href="#DejaVuSans-69" transform="translate(490.039062 0.015625)"/>
      <use xlink:href="#DejaVuSans-73" transform="translate(517.822266 0.015625)"/>
      <use xlink:href="#DejaVuSans-65" transform="translate(569.921875 0.015625)"/>
      <use xlink:href="#DejaVuSans-6e" transform="translate(631.445312 0.015625)"/>
      <use xlink:href="#DejaVuSans-62" transform="translate(694.824219 0.015625)"/>
      <use xlink:href="#DejaVuSans-65" transform="translate(758.300781 0.015625)"/>
      <use xlink:href="#DejaVuSans-72" transform="translate(819.824219 0.015625)"/>
      <use xlink:href="#DejaVuSans-67" transform="translate(860.9375 0.015625)"/>
      <use xlink:href="#DejaVuSans-29" transform="translate(924.414062 0.015625)"/>
     </g>
    </g>
    <g id="line2d_41">
     <path d="M 421.061202 49.786406 
L 430.061202 49.786406 
L 439.061202 49.786406 
" style="fill: none; stroke-dasharray: 1.5,2.475; stroke-dashoffset: 0; stroke: #1a1a1a; stroke-opacity: 0.4; stroke-width: 1.5"/>
    </g>
    <g id="text_9">
     <!-- $\propto 1/\sqrt{N}$ (SQL) -->
     <g style="fill: #262626" transform="translate(446.261202 52.936406) scale(0.09 -0.09)">
      <defs>
       <path id="STIXSizeOneSym-Regular-221a" d="M 6970 9933 
L 3373 -1888 
L 3104 -1888 
L 1626 2918 
Q 1555 3149 1465 3251 
Q 1376 3354 1229 3354 
Q 1011 3354 794 3181 
L 717 3309 
L 1766 4115 
L 1926 4115 
L 3379 -602 
L 3405 -602 
L 6605 9933 
L 6970 9933 
z
" transform="scale(0.015625)"/>
       <path id="DejaVuSans-51" d="M 2522 4238 
Q 1834 4238 1429 3725 
Q 1025 3213 1025 2328 
Q 1025 1447 1429 934 
Q 1834 422 2522 422 
Q 3209 422 3611 934 
Q 4013 1447 4013 2328 
Q 4013 3213 3611 3725 
Q 3209 4238 2522 4238 
z
M 3406 84 
L 4238 -825 
L 3475 -825 
L 2784 -78 
Q 2681 -84 2626 -87 
Q 2572 -91 2522 -91 
Q 1538 -91 948 567 
Q 359 1225 359 2328 
Q 359 3434 948 4092 
Q 1538 4750 2522 4750 
Q 3503 4750 4090 4092 
Q 4678 3434 4678 2328 
Q 4678 1516 4351 937 
Q 4025 359 3406 84 
z
" transform="scale(0.015625)"/>
       <path id="DejaVuSans-4c" d="M 628 4666 
L 1259 4666 
L 1259 531 
L 3531 531 
L 3531 0 
L 628 0 
L 628 4666 
z
" transform="scale(0.015625)"/>
      </defs>
      <use xlink:href="#DejaVuSans-221d" transform="translate(19.482422 0.578125)"/>
      <use xlink:href="#DejaVuSans-31" transform="translate(110.400391 0.578125)"/>
      <use xlink:href="#DejaVuSans-2f" transform="translate(174.023438 0.578125)"/>
      <use xlink:href="#STIXSizeOneSym-Regular-221a" transform="translate(207.714844 17.09375) scale(0.563912)"/>
      <use xlink:href="#DejaVuSans-Oblique-4e" transform="translate(279.803207 0.84375)"/>
      <use xlink:href="#DejaVuSans-20" transform="translate(367.107895 0.578125)"/>
      <use xlink:href="#DejaVuSans-28" transform="translate(398.895004 0.578125)"/>
      <use xlink:href="#DejaVuSans-53" transform="translate(437.908676 0.578125)"/>
      <use xlink:href="#DejaVuSans-51" transform="translate(501.385239 0.578125)"/>
      <use xlink:href="#DejaVuSans-4c" transform="translate(580.096176 0.578125)"/>
      <use xlink:href="#DejaVuSans-29" transform="translate(635.809067 0.578125)"/>
      <path d="M 267.303207 97.5 
L 267.303207 103.75 
L 367.107895 103.75 
L 367.107895 97.5 
L 267.303207 97.5 
z
"/>
     </g>
    </g>
    <g id="line2d_42">
     <path d="M 421.061202 62.996719 
L 430.061202 62.996719 
L 439.061202 62.996719 
" style="fill: none; stroke-dasharray: 5.55,2.4; stroke-dashoffset: 0; stroke: #4c72b0; stroke-opacity: 0.5; stroke-width: 1.5"/>
    </g>
    <g id="text_10">
     <!-- NOON QFI bound -->
     <g style="fill: #262626" transform="translate(446.261202 66.146719) scale(0.09 -0.09)">
      <defs>
       <path id="DejaVuSans-4e" d="M 628 4666 
L 1478 4666 
L 3547 763 
L 3547 4666 
L 4159 4666 
L 4159 0 
L 3309 0 
L 1241 3903 
L 1241 0 
L 628 0 
L 628 4666 
z
" transform="scale(0.015625)"/>
       <path id="DejaVuSans-4f" d="M 2522 4238 
Q 1834 4238 1429 3725 
Q 1025 3213 1025 2328 
Q 1025 1447 1429 934 
Q 1834 422 2522 422 
Q 3209 422 3611 934 
Q 4013 1447 4013 2328 
Q 4013 3213 3611 3725 
Q 3209 4238 2522 4238 
z
M 2522 4750 
Q 3503 4750 4090 4092 
Q 4678 3434 4678 2328 
Q 4678 1225 4090 567 
Q 3503 -91 2522 -91 
Q 1538 -91 948 565 
Q 359 1222 359 2328 
Q 359 3434 948 4092 
Q 1538 4750 2522 4750 
z
" transform="scale(0.015625)"/>
       <path id="DejaVuSans-46" d="M 628 4666 
L 3309 4666 
L 3309 4134 
L 1259 4134 
L 1259 2759 
L 3109 2759 
L 3109 2228 
L 1259 2228 
L 1259 0 
L 628 0 
L 628 4666 
z
" transform="scale(0.015625)"/>
      </defs>
      <use xlink:href="#DejaVuSans-4e"/>
      <use xlink:href="#DejaVuSans-4f" transform="translate(74.804688 0)"/>
      <use xlink:href="#DejaVuSans-4f" transform="translate(153.515625 0)"/>
      <use xlink:href="#DejaVuSans-4e" transform="translate(232.226562 0)"/>
      <use xlink:href="#DejaVuSans-20" transform="translate(307.03125 0)"/>
      <use xlink:href="#DejaVuSans-51" transform="translate(338.818359 0)"/>
      <use xlink:href="#DejaVuSans-46" transform="translate(417.529297 0)"/>
      <use xlink:href="#DejaVuSans-49" transform="translate(475.048828 0)"/>
      <use xlink:href="#DejaVuSans-20" transform="translate(504.541016 0)"/>
      <use xlink:href="#DejaVuSans-62" transform="translate(536.328125 0)"/>
      <use xlink:href="#DejaVuSans-6f" transform="translate(599.804688 0)"/>
      <use xlink:href="#DejaVuSans-75" transform="translate(660.986328 0)"/>
      <use xlink:href="#DejaVuSans-6e" transform="translate(724.365234 0)"/>
      <use xlink:href="#DejaVuSans-64" transform="translate(787.744141 0)"/>
     </g>
    </g>
    <g id="line2d_43">
     <path d="M 421.061202 76.207031 
L 430.061202 76.207031 
L 439.061202 76.207031 
" style="fill: none; stroke: #4c72b0; stroke-width: 1.5; stroke-linecap: round"/>
     <g>
      <use xlink:href="#m86891992d2" x="430.061202" y="76.207031" style="fill: #4c72b0; stroke: #4c72b0"/>
     </g>
    </g>
    <g id="text_11">
     <!-- NOON best $\Delta\theta_{\mathrm{C}}$ -->
     <g style="fill: #262626" transform="translate(446.261202 79.357031) scale(0.09 -0.09)">
      <defs>
       <path id="DejaVuSans-43" d="M 4122 4306 
L 4122 3641 
Q 3803 3938 3442 4084 
Q 3081 4231 2675 4231 
Q 1875 4231 1450 3742 
Q 1025 3253 1025 2328 
Q 1025 1406 1450 917 
Q 1875 428 2675 428 
Q 3081 428 3442 575 
Q 3803 722 4122 1019 
L 4122 359 
Q 3791 134 3420 21 
Q 3050 -91 2638 -91 
Q 1578 -91 968 557 
Q 359 1206 359 2328 
Q 359 3453 968 4101 
Q 1578 4750 2638 4750 
Q 3056 4750 3426 4639 
Q 3797 4528 4122 4306 
z
" transform="scale(0.015625)"/>
      </defs>
      <use xlink:href="#DejaVuSans-4e" transform="translate(0 0.234375)"/>
      <use xlink:href="#DejaVuSans-4f" transform="translate(74.804688 0.234375)"/>
      <use xlink:href="#DejaVuSans-4f" transform="translate(153.515625 0.234375)"/>
      <use xlink:href="#DejaVuSans-4e" transform="translate(232.226562 0.234375)"/>
      <use xlink:href="#DejaVuSans-20" transform="translate(307.03125 0.234375)"/>
      <use xlink:href="#DejaVuSans-62" transform="translate(338.818359 0.234375)"/>
      <use xlink:href="#DejaVuSans-65" transform="translate(402.294922 0.234375)"/>
      <use xlink:href="#DejaVuSans-73" transform="translate(463.818359 0.234375)"/>
      <use xlink:href="#DejaVuSans-74" transform="translate(515.917969 0.234375)"/>
      <use xlink:href="#DejaVuSans-20" transform="translate(555.126953 0.234375)"/>
      <use xlink:href="#DejaVuSans-394" transform="translate(586.914062 0.234375)"/>
      <use xlink:href="#DejaVuSans-Oblique-3b8" transform="translate(655.322266 0.234375)"/>
      <use xlink:href="#DejaVuSans-43" transform="translate(716.503906 -16.171875) scale(0.7)"/>
     </g>
    </g>
    <g id="line2d_44">
     <path d="M 421.061202 89.417344 
L 430.061202 89.417344 
L 439.061202 89.417344 
" style="fill: none; stroke-dasharray: 5.55,2.4; stroke-dashoffset: 0; stroke: #4c72b0; stroke-opacity: 0.7; stroke-width: 1.5"/>
    </g>
    <g id="text_12">
     <!-- NOON: $\alpha = -1.000$ -->
     <g style="fill: #262626" transform="translate(446.261202 92.567344) scale(0.09 -0.09)">
      <defs>
       <path id="DejaVuSans-3a" d="M 750 794 
L 1409 794 
L 1409 0 
L 750 0 
L 750 794 
z
M 750 3309 
L 1409 3309 
L 1409 2516 
L 750 2516 
L 750 3309 
z
" transform="scale(0.015625)"/>
       <path id="DejaVuSans-Oblique-3b1" d="M 2619 1628 
L 2622 2350 
Q 2625 3088 2069 3091 
Q 1653 3094 1394 2747 
Q 1069 2319 959 1747 
Q 825 1059 994 731 
Q 1169 397 1547 397 
Q 1966 397 2319 1063 
L 2619 1628 
z
M 2166 3578 
Q 3141 3594 3128 2584 
Q 3128 2584 3616 3500 
L 4128 3500 
L 3119 1603 
L 3109 919 
Q 3109 766 3194 638 
Q 3291 488 3391 488 
L 3669 488 
L 3575 0 
L 3228 0 
Q 2934 0 2722 263 
Q 2622 394 2619 669 
Q 2416 334 2066 50 
Q 1900 -81 1453 -78 
Q 722 -72 456 397 
Q 184 884 353 1747 
Q 534 2675 1009 3097 
Q 1544 3569 2166 3578 
z
" transform="scale(0.015625)"/>
       <path id="DejaVuSans-3d" d="M 678 2906 
L 4684 2906 
L 4684 2381 
L 678 2381 
L 678 2906 
z
M 678 1631 
L 4684 1631 
L 4684 1100 
L 678 1100 
L 678 1631 
z
" transform="scale(0.015625)"/>
       <path id="DejaVuSans-2e" d="M 684 794 
L 1344 794 
L 1344 0 
L 684 0 
L 684 794 
z
" transform="scale(0.015625)"/>
      </defs>
      <use xlink:href="#DejaVuSans-4e" transform="translate(0 0.78125)"/>
      <use xlink:href="#DejaVuSans-4f" transform="translate(74.804688 0.78125)"/>
      <use xlink:href="#DejaVuSans-4f" transform="translate(153.515625 0.78125)"/>
      <use xlink:href="#DejaVuSans-4e" transform="translate(232.226562 0.78125)"/>
      <use xlink:href="#DejaVuSans-3a" transform="translate(307.03125 0.78125)"/>
      <use xlink:href="#DejaVuSans-20" transform="translate(340.722656 0.78125)"/>
      <use xlink:href="#DejaVuSans-Oblique-3b1" transform="translate(372.509766 0.78125)"/>
      <use xlink:href="#DejaVuSans-3d" transform="translate(457.910156 0.78125)"/>
      <use xlink:href="#DejaVuSans-2212" transform="translate(561.181641 0.78125)"/>
      <use xlink:href="#DejaVuSans-31" transform="translate(644.970703 0.78125)"/>
      <use xlink:href="#DejaVuSans-2e" transform="translate(708.59375 0.78125)"/>
      <use xlink:href="#DejaVuSans-30" transform="translate(740.380859 0.78125)"/>
      <use xlink:href="#DejaVuSans-30" transform="translate(804.003906 0.78125)"/>
      <use xlink:href="#DejaVuSans-30" transform="translate(867.626953 0.78125)"/>
     </g>
    </g>
    <g id="line2d_45">
     <path d="M 421.061202 102.627656 
L 430.061202 102.627656 
L 439.061202 102.627656 
" style="fill: none; stroke-dasharray: 5.55,2.4; stroke-dashoffset: 0; stroke: #dd8452; stroke-opacity: 0.5; stroke-width: 1.5"/>
    </g>
    <g id="text_13">
     <!-- Twin-Fock QFI bound -->
     <g style="fill: #262626" transform="translate(446.261202 105.777656) scale(0.09 -0.09)">
      <defs>
       <path id="DejaVuSans-77" d="M 269 3500 
L 844 3500 
L 1563 769 
L 2278 3500 
L 2956 3500 
L 3675 769 
L 4391 3500 
L 4966 3500 
L 4050 0 
L 3372 0 
L 2619 2869 
L 1863 0 
L 1184 0 
L 269 3500 
z
" transform="scale(0.015625)"/>
       <path id="DejaVuSans-2d" d="M 313 2009 
L 1997 2009 
L 1997 1497 
L 313 1497 
L 313 2009 
z
" transform="scale(0.015625)"/>
       <path id="DejaVuSans-6b" d="M 581 4863 
L 1159 4863 
L 1159 1991 
L 2875 3500 
L 3609 3500 
L 1753 1863 
L 3688 0 
L 2938 0 
L 1159 1709 
L 1159 0 
L 581 0 
L 581 4863 
z
" transform="scale(0.015625)"/>
      </defs>
      <use xlink:href="#DejaVuSans-54"/>
      <use xlink:href="#DejaVuSans-77" transform="translate(44.583984 0)"/>
      <use xlink:href="#DejaVuSans-69" transform="translate(126.371094 0)"/>
      <use xlink:href="#DejaVuSans-6e" transform="translate(154.154297 0)"/>
      <use xlink:href="#DejaVuSans-2d" transform="translate(217.533203 0)"/>
      <use xlink:href="#DejaVuSans-46" transform="translate(253.617188 0)"/>
      <use xlink:href="#DejaVuSans-6f" transform="translate(307.511719 0)"/>
      <use xlink:href="#DejaVuSans-63" transform="translate(368.693359 0)"/>
      <use xlink:href="#DejaVuSans-6b" transform="translate(423.673828 0)"/>
      <use xlink:href="#DejaVuSans-20" transform="translate(481.583984 0)"/>
      <use xlink:href="#DejaVuSans-51" transform="translate(513.371094 0)"/>
      <use xlink:href="#DejaVuSans-46" transform="translate(592.082031 0)"/>
      <use xlink:href="#DejaVuSans-49" transform="translate(649.601562 0)"/>
      <use xlink:href="#DejaVuSans-20" transform="translate(679.09375 0)"/>
      <use xlink:href="#DejaVuSans-62" transform="translate(710.880859 0)"/>
      <use xlink:href="#DejaVuSans-6f" transform="translate(774.357422 0)"/>
      <use xlink:href="#DejaVuSans-75" transform="translate(835.539062 0)"/>
      <use xlink:href="#DejaVuSans-6e" transform="translate(898.917969 0)"/>
      <use xlink:href="#DejaVuSans-64" transform="translate(962.296875 0)"/>
     </g>
    </g>
    <g id="line2d_46">
     <path d="M 421.061202 115.837969 
L 430.061202 115.837969 
L 439.061202 115.837969 
" style="fill: none; stroke: #dd8452; stroke-width: 1.5; stroke-linecap: round"/>
     <g>
      <use xlink:href="#m96e1c7cc72" x="430.061202" y="115.837969" style="fill: #dd8452; stroke: #dd8452; stroke-linejoin: miter"/>
     </g>
    </g>
    <g id="text_14">
     <!-- Twin-Fock best $\Delta\theta_{\mathrm{C}}$ -->
     <g style="fill: #262626" transform="translate(446.261202 118.987969) scale(0.09 -0.09)">
      <use xlink:href="#DejaVuSans-54" transform="translate(0 0.234375)"/>
      <use xlink:href="#DejaVuSans-77" transform="translate(61.083984 0.234375)"/>
      <use xlink:href="#DejaVuSans-69" transform="translate(142.871094 0.234375)"/>
      <use xlink:href="#DejaVuSans-6e" transform="translate(170.654297 0.234375)"/>
      <use xlink:href="#DejaVuSans-2d" transform="translate(234.033203 0.234375)"/>
      <use xlink:href="#DejaVuSans-46" transform="translate(270.117188 0.234375)"/>
      <use xlink:href="#DejaVuSans-6f" transform="translate(327.636719 0.234375)"/>
      <use xlink:href="#DejaVuSans-63" transform="translate(388.818359 0.234375)"/>
      <use xlink:href="#DejaVuSans-6b" transform="translate(443.798828 0.234375)"/>
      <use xlink:href="#DejaVuSans-20" transform="translate(501.708984 0.234375)"/>
      <use xlink:href="#DejaVuSans-62" transform="translate(533.496094 0.234375)"/>
      <use xlink:href="#DejaVuSans-65" transform="translate(596.972656 0.234375)"/>
      <use xlink:href="#DejaVuSans-73" transform="translate(658.496094 0.234375)"/>
      <use xlink:href="#DejaVuSans-74" transform="translate(710.595703 0.234375)"/>
      <use xlink:href="#DejaVuSans-20" transform="translate(749.804688 0.234375)"/>
      <use xlink:href="#DejaVuSans-394" transform="translate(781.591797 0.234375)"/>
      <use xlink:href="#DejaVuSans-Oblique-3b8" transform="translate(850 0.234375)"/>
      <use xlink:href="#DejaVuSans-43" transform="translate(911.181641 -16.171875) scale(0.7)"/>
     </g>
    </g>
    <g id="line2d_47">
     <path d="M 421.061202 129.048281 
L 430.061202 129.048281 
L 439.061202 129.048281 
" style="fill: none; stroke-dasharray: 5.55,2.4; stroke-dashoffset: 0; stroke: #dd8452; stroke-opacity: 0.7; stroke-width: 1.5"/>
    </g>
    <g id="text_15">
     <!-- Twin-Fock: $\alpha = -0.932$ -->
     <g style="fill: #262626" transform="translate(446.261202 132.198281) scale(0.09 -0.09)">
      <defs>
       <path id="DejaVuSans-39" d="M 703 97 
L 703 672 
Q 941 559 1184 500 
Q 1428 441 1663 441 
Q 2288 441 2617 861 
Q 2947 1281 2994 2138 
Q 2813 1869 2534 1725 
Q 2256 1581 1919 1581 
Q 1219 1581 811 2004 
Q 403 2428 403 3163 
Q 403 3881 828 4315 
Q 1253 4750 1959 4750 
Q 2769 4750 3195 4129 
Q 3622 3509 3622 2328 
Q 3622 1225 3098 567 
Q 2575 -91 1691 -91 
Q 1453 -91 1209 -44 
Q 966 3 703 97 
z
M 1959 2075 
Q 2384 2075 2632 2365 
Q 2881 2656 2881 3163 
Q 2881 3666 2632 3958 
Q 2384 4250 1959 4250 
Q 1534 4250 1286 3958 
Q 1038 3666 1038 3163 
Q 1038 2656 1286 2365 
Q 1534 2075 1959 2075 
z
" transform="scale(0.015625)"/>
       <path id="DejaVuSans-33" d="M 2597 2516 
Q 3050 2419 3304 2112 
Q 3559 1806 3559 1356 
Q 3559 666 3084 287 
Q 2609 -91 1734 -91 
Q 1441 -91 1130 -33 
Q 819 25 488 141 
L 488 750 
Q 750 597 1062 519 
Q 1375 441 1716 441 
Q 2309 441 2620 675 
Q 2931 909 2931 1356 
Q 2931 1769 2642 2001 
Q 2353 2234 1838 2234 
L 1294 2234 
L 1294 2753 
L 1863 2753 
Q 2328 2753 2575 2939 
Q 2822 3125 2822 3475 
Q 2822 3834 2567 4026 
Q 2313 4219 1838 4219 
Q 1578 4219 1281 4162 
Q 984 4106 628 3988 
L 628 4550 
Q 988 4650 1302 4700 
Q 1616 4750 1894 4750 
Q 2613 4750 3031 4423 
Q 3450 4097 3450 3541 
Q 3450 3153 3228 2886 
Q 3006 2619 2597 2516 
z
" transform="scale(0.015625)"/>
      </defs>
      <use xlink:href="#DejaVuSans-54" transform="translate(0 0.015625)"/>
      <use xlink:href="#DejaVuSans-77" transform="translate(61.083984 0.015625)"/>
      <use xlink:href="#DejaVuSans-69" transform="translate(142.871094 0.015625)"/>
      <use xlink:href="#DejaVuSans-6e" transform="translate(170.654297 0.015625)"/>
      <use xlink:href="#DejaVuSans-2d" transform="translate(234.033203 0.015625)"/>
      <use xlink:href="#DejaVuSans-46" transform="translate(270.117188 0.015625)"/>
      <use xlink:href="#DejaVuSans-6f" transform="translate(327.636719 0.015625)"/>
      <use xlink:href="#DejaVuSans-63" transform="translate(388.818359 0.015625)"/>
      <use xlink:href="#DejaVuSans-6b" transform="translate(443.798828 0.015625)"/>
      <use xlink:href="#DejaVuSans-3a" transform="translate(501.708984 0.015625)"/>
      <use xlink:href="#DejaVuSans-20" transform="translate(535.400391 0.015625)"/>
      <use xlink:href="#DejaVuSans-Oblique-3b1" transform="translate(567.1875 0.015625)"/>
      <use xlink:href="#DejaVuSans-3d" transform="translate(652.587891 0.015625)"/>
      <use xlink:href="#DejaVuSans-2212" transform="translate(755.859375 0.015625)"/>
      <use xlink:href="#DejaVuSans-30" transform="translate(839.648438 0.015625)"/>
      <use xlink:href="#DejaVuSans-2e" transform="translate(903.271484 0.015625)"/>
      <use xlink:href="#DejaVuSans-39" transform="translate(935.058594 0.015625)"/>
      <use xlink:href="#DejaVuSans-33" transform="translate(998.681641 0.015625)"/>
      <use xlink:href="#DejaVuSans-32" transform="translate(1062.304688 0.015625)"/>
     </g>
    </g>
   </g>
  </g>
 </g>
 <defs>
  <clipPath id="pc9238a9e45">
   <rect x="58.16375" y="22.318125" width="497.537452" height="347.196"/>
  </clipPath>
 </defs>
</svg>
