<?xml version="1.0" encoding="utf-8" standalone="no"?>
<!DOCTYPE svg PUBLIC "-//W3C//DTD SVG 1.1//EN"
  "http://www.w3.org/Graphics/SVG/1.1/DTD/svg11.dtd">
<svg xmlns:xlink="http://www.w3.org/1999/xlink" width="854.278071pt" height="562.58425pt" viewBox="0 0 854.278071 562.58425" xmlns="http://www.w3.org/2000/svg" version="1.1">
 <metadata>
  <rdf:RDF xmlns:dc="http://purl.org/dc/elements/1.1/" xmlns:cc="http://creativecommons.org/ns#" xmlns:rdf="http://www.w3.org/1999/02/22-rdf-syntax-ns#">
   <cc:Work>
    <dc:type rdf:resource="http://purl.org/dc/dcmitype/StillImage"/>
    <dc:date>2026-06-15T12:16:25.864512</dc:date>
    <dc:format>image/svg+xml</dc:format>
    <dc:creator>
     <cc:Agent>
      <dc:title>Matplotlib v3.10.9, https://matplotlib.org/</dc:title>
     </cc:Agent>
    </dc:creator>
   </cc:Work>
  </rdf:RDF>
 </metadata>
 <defs>
  <style type="text/css">*{stroke-linejoin: round; stroke-linecap: butt}</style>
 </defs>
 <g id="figure_1">
  <g id="patch_1">
   <path d="M 0 562.58425 
L 854.278071 562.58425 
L 854.278071 0 
L 0 0 
z
" style="fill: #ffffff"/>
  </g>
  <g id="axes_1">
   <g id="patch_2">
    <path d="M 51.378125 525.028 
L 296.53944 525.028 
L 296.53944 25.2 
L 51.378125 25.2 
z
" style="fill: #ffffff"/>
   </g>
   <g id="matplotlib.axis_1">
    <g id="xtick_1">
     <g id="line2d_1">
      <defs>
       <path id="m2a744c28ae" d="M 0 0 
L 0 3.5 
" style="stroke: #000000; stroke-width: 0.8"/>
      </defs>
      <g>
       <use xlink:href="#m2a744c28ae" x="95.646856" y="525.028" style="stroke: #000000; stroke-width: 0.8"/>
      </g>
     </g>
     <g id="text_1">
      <!-- $\mathdefault{10^{0}}$ -->
      <g transform="translate(86.846856 539.626437) scale(0.1 -0.1)">
       <defs>
        <path id="DejaVuSans-31" d="M 794 531 
L 1825 531 
L 1825 4091 
L 703 3866 
L 703 4441 
L 1819 4666 
L 2450 4666 
L 2450 531 
L 3481 531 
L 3481 0 
L 794 0 
L 794 531 
z
" transform="scale(0.015625)"/>
        <path id="DejaVuSans-30" d="M 2034 4250 
Q 1547 4250 1301 3770 
Q 1056 3291 1056 2328 
Q 1056 1369 1301 889 
Q 1547 409 2034 409 
Q 2525 409 2770 889 
Q 3016 1369 3016 2328 
Q 3016 3291 2770 3770 
Q 2525 4250 2034 4250 
z
M 2034 4750 
Q 2819 4750 3233 4129 
Q 3647 3509 3647 2328 
Q 3647 1150 3233 529 
Q 2819 -91 2034 -91 
Q 1250 -91 836 529 
Q 422 1150 422 2328 
Q 422 3509 836 4129 
Q 1250 4750 2034 4750 
z
" transform="scale(0.015625)"/>
       </defs>
       <use xlink:href="#DejaVuSans-31" transform="translate(0 0.765625)"/>
       <use xlink:href="#DejaVuSans-30" transform="translate(63.623047 0.765625)"/>
       <use xlink:href="#DejaVuSans-30" transform="translate(128.203125 39.046875) scale(0.7)"/>
      </g>
     </g>
    </g>
    <g id="xtick_2">
     <g id="line2d_2">
      <g>
       <use xlink:href="#m2a744c28ae" x="242.704396" y="525.028" style="stroke: #000000; stroke-width: 0.8"/>
      </g>
     </g>
     <g id="text_2">
      <!-- $\mathdefault{10^{1}}$ -->
      <g transform="translate(233.904396 539.626437) scale(0.1 -0.1)">
       <use xlink:href="#DejaVuSans-31" transform="translate(0 0.684375)"/>
       <use xlink:href="#DejaVuSans-30" transform="translate(63.623047 0.684375)"/>
       <use xlink:href="#DejaVuSans-31" transform="translate(128.203125 38.965625) scale(0.7)"/>
      </g>
     </g>
    </g>
    <g id="xtick_3">
     <g id="line2d_3">
      <defs>
       <path id="mc4ac617ce7" d="M 0 0 
L 0 2 
" style="stroke: #000000; stroke-width: 0.6"/>
      </defs>
      <g>
       <use xlink:href="#mc4ac617ce7" x="51.378125" y="525.028" style="stroke: #000000; stroke-width: 0.6"/>
      </g>
     </g>
    </g>
    <g id="xtick_4">
     <g id="line2d_4">
      <g>
       <use xlink:href="#mc4ac617ce7" x="63.022324" y="525.028" style="stroke: #000000; stroke-width: 0.6"/>
      </g>
     </g>
    </g>
    <g id="xtick_5">
     <g id="line2d_5">
      <g>
       <use xlink:href="#mc4ac617ce7" x="72.867355" y="525.028" style="stroke: #000000; stroke-width: 0.6"/>
      </g>
     </g>
    </g>
    <g id="xtick_6">
     <g id="line2d_6">
      <g>
       <use xlink:href="#mc4ac617ce7" x="81.395508" y="525.028" style="stroke: #000000; stroke-width: 0.6"/>
      </g>
     </g>
    </g>
    <g id="xtick_7">
     <g id="line2d_7">
      <g>
       <use xlink:href="#mc4ac617ce7" x="88.917872" y="525.028" style="stroke: #000000; stroke-width: 0.6"/>
      </g>
     </g>
    </g>
    <g id="xtick_8">
     <g id="line2d_8">
      <g>
       <use xlink:href="#mc4ac617ce7" x="139.915586" y="525.028" style="stroke: #000000; stroke-width: 0.6"/>
      </g>
     </g>
    </g>
    <g id="xtick_9">
     <g id="line2d_9">
      <g>
       <use xlink:href="#mc4ac617ce7" x="165.811134" y="525.028" style="stroke: #000000; stroke-width: 0.6"/>
      </g>
     </g>
    </g>
    <g id="xtick_10">
     <g id="line2d_10">
      <g>
       <use xlink:href="#mc4ac617ce7" x="184.184317" y="525.028" style="stroke: #000000; stroke-width: 0.6"/>
      </g>
     </g>
    </g>
    <g id="xtick_11">
     <g id="line2d_11">
      <g>
       <use xlink:href="#mc4ac617ce7" x="198.435665" y="525.028" style="stroke: #000000; stroke-width: 0.6"/>
      </g>
     </g>
    </g>
    <g id="xtick_12">
     <g id="line2d_12">
      <g>
       <use xlink:href="#mc4ac617ce7" x="210.079865" y="525.028" style="stroke: #000000; stroke-width: 0.6"/>
      </g>
     </g>
    </g>
    <g id="xtick_13">
     <g id="line2d_13">
      <g>
       <use xlink:href="#mc4ac617ce7" x="219.924895" y="525.028" style="stroke: #000000; stroke-width: 0.6"/>
      </g>
     </g>
    </g>
    <g id="xtick_14">
     <g id="line2d_14">
      <g>
       <use xlink:href="#mc4ac617ce7" x="228.453048" y="525.028" style="stroke: #000000; stroke-width: 0.6"/>
      </g>
     </g>
    </g>
    <g id="xtick_15">
     <g id="line2d_15">
      <g>
       <use xlink:href="#mc4ac617ce7" x="235.975412" y="525.028" style="stroke: #000000; stroke-width: 0.6"/>
      </g>
     </g>
    </g>
    <g id="xtick_16">
     <g id="line2d_16">
      <g>
       <use xlink:href="#mc4ac617ce7" x="286.973127" y="525.028" style="stroke: #000000; stroke-width: 0.6"/>
      </g>
     </g>
    </g>
    <g id="text_3">
     <!-- $N$ -->
     <g transform="translate(170.208783 553.304562) scale(0.1 -0.1)">
      <defs>
       <path id="DejaVuSans-Oblique-4e" d="M 1081 4666 
L 1931 4666 
L 3219 666 
L 4000 4666 
L 4616 4666 
L 3706 0 
L 2853 0 
L 1569 4025 
L 788 0 
L 172 0 
L 1081 4666 
z
" transform="scale(0.015625)"/>
      </defs>
      <use xlink:href="#DejaVuSans-Oblique-4e" transform="translate(0 0.09375)"/>
     </g>
    </g>
   </g>
   <g id="matplotlib.axis_2">
    <g id="ytick_1">
     <g id="line2d_17">
      <defs>
       <path id="ma334ad5028" d="M 0 0 
L -3.5 0 
" style="stroke: #000000; stroke-width: 0.8"/>
      </defs>
      <g>
       <use xlink:href="#ma334ad5028" x="51.378125" y="442.800016" style="stroke: #000000; stroke-width: 0.8"/>
      </g>
     </g>
     <g id="text_4">
      <!-- $\mathdefault{10^{-1}}$ -->
      <g transform="translate(20.878125 446.599235) scale(0.1 -0.1)">
       <defs>
        <path id="DejaVuSans-2212" d="M 678 2272 
L 4684 2272 
L 4684 1741 
L 678 1741 
L 678 2272 
z
" transform="scale(0.015625)"/>
       </defs>
       <use xlink:href="#DejaVuSans-31" transform="translate(0 0.684375)"/>
       <use xlink:href="#DejaVuSans-30" transform="translate(63.623047 0.684375)"/>
       <use xlink:href="#DejaVuSans-2212" transform="translate(128.203125 38.965625) scale(0.7)"/>
       <use xlink:href="#DejaVuSans-31" transform="translate(186.855469 38.965625) scale(0.7)"/>
      </g>
     </g>
    </g>
    <g id="ytick_2">
     <g id="line2d_18">
      <g>
       <use xlink:href="#ma334ad5028" x="51.378125" y="351.320912" style="stroke: #000000; stroke-width: 0.8"/>
      </g>
     </g>
     <g id="text_5">
      <!-- $\mathdefault{10^{1}}$ -->
      <g transform="translate(26.778125 355.120131) scale(0.1 -0.1)">
       <use xlink:href="#DejaVuSans-31" transform="translate(0 0.684375)"/>
       <use xlink:href="#DejaVuSans-30" transform="translate(63.623047 0.684375)"/>
       <use xlink:href="#DejaVuSans-31" transform="translate(128.203125 38.965625) scale(0.7)"/>
      </g>
     </g>
    </g>
    <g id="ytick_3">
     <g id="line2d_19">
      <g>
       <use xlink:href="#ma334ad5028" x="51.378125" y="259.841808" style="stroke: #000000; stroke-width: 0.8"/>
      </g>
     </g>
     <g id="text_6">
      <!-- $\mathdefault{10^{3}}$ -->
      <g transform="translate(26.778125 263.641026) scale(0.1 -0.1)">
       <defs>
        <path id="DejaVuSans-33" d="M 2597 2516 
Q 3050 2419 3304 2112 
Q 3559 1806 3559 1356 
Q 3559 666 3084 287 
Q 2609 -91 1734 -91 
Q 1441 -91 1130 -33 
Q 819 25 488 141 
L 488 750 
Q 750 597 1062 519 
Q 1375 441 1716 441 
Q 2309 441 2620 675 
Q 2931 909 2931 1356 
Q 2931 1769 2642 2001 
Q 2353 2234 1838 2234 
L 1294 2234 
L 1294 2753 
L 1863 2753 
Q 2328 2753 2575 2939 
Q 2822 3125 2822 3475 
Q 2822 3834 2567 4026 
Q 2313 4219 1838 4219 
Q 1578 4219 1281 4162 
Q 984 4106 628 3988 
L 628 4550 
Q 988 4650 1302 4700 
Q 1616 4750 1894 4750 
Q 2613 4750 3031 4423 
Q 3450 4097 3450 3541 
Q 3450 3153 3228 2886 
Q 3006 2619 2597 2516 
z
" transform="scale(0.015625)"/>
       </defs>
       <use xlink:href="#DejaVuSans-31" transform="translate(0 0.765625)"/>
       <use xlink:href="#DejaVuSans-30" transform="translate(63.623047 0.765625)"/>
       <use xlink:href="#DejaVuSans-33" transform="translate(128.203125 39.046875) scale(0.7)"/>
      </g>
     </g>
    </g>
    <g id="ytick_4">
     <g id="line2d_20">
      <g>
       <use xlink:href="#ma334ad5028" x="51.378125" y="168.362704" style="stroke: #000000; stroke-width: 0.8"/>
      </g>
     </g>
     <g id="text_7">
      <!-- $\mathdefault{10^{5}}$ -->
      <g transform="translate(26.778125 172.161922) scale(0.1 -0.1)">
       <defs>
        <path id="DejaVuSans-35" d="M 691 4666 
L 3169 4666 
L 3169 4134 
L 1269 4134 
L 1269 2991 
Q 1406 3038 1543 3061 
Q 1681 3084 1819 3084 
Q 2600 3084 3056 2656 
Q 3513 2228 3513 1497 
Q 3513 744 3044 326 
Q 2575 -91 1722 -91 
Q 1428 -91 1123 -41 
Q 819 9 494 109 
L 494 744 
Q 775 591 1075 516 
Q 1375 441 1709 441 
Q 2250 441 2565 725 
Q 2881 1009 2881 1497 
Q 2881 1984 2565 2268 
Q 2250 2553 1709 2553 
Q 1456 2553 1204 2497 
Q 953 2441 691 2322 
L 691 4666 
z
" transform="scale(0.015625)"/>
       </defs>
       <use xlink:href="#DejaVuSans-31" transform="translate(0 0.684375)"/>
       <use xlink:href="#DejaVuSans-30" transform="translate(63.623047 0.684375)"/>
       <use xlink:href="#DejaVuSans-35" transform="translate(128.203125 38.965625) scale(0.7)"/>
      </g>
     </g>
    </g>
    <g id="ytick_5">
     <g id="line2d_21">
      <g>
       <use xlink:href="#ma334ad5028" x="51.378125" y="76.883599" style="stroke: #000000; stroke-width: 0.8"/>
      </g>
     </g>
     <g id="text_8">
      <!-- $\mathdefault{10^{7}}$ -->
      <g transform="translate(26.778125 80.682818) scale(0.1 -0.1)">
       <defs>
        <path id="DejaVuSans-37" d="M 525 4666 
L 3525 4666 
L 3525 4397 
L 1831 0 
L 1172 0 
L 2766 4134 
L 525 4134 
L 525 4666 
z
" transform="scale(0.015625)"/>
       </defs>
       <use xlink:href="#DejaVuSans-31" transform="translate(0 0.684375)"/>
       <use xlink:href="#DejaVuSans-30" transform="translate(63.623047 0.684375)"/>
       <use xlink:href="#DejaVuSans-37" transform="translate(128.203125 38.965625) scale(0.7)"/>
      </g>
     </g>
    </g>
    <g id="text_9">
     <!-- $\Delta\omega_{\mathrm{lin}}$ -->
     <g transform="translate(14.798438 287.064) rotate(-90) scale(0.1 -0.1)">
      <defs>
       <path id="DejaVuSans-394" d="M 2188 4044 
L 906 525 
L 3472 525 
L 2188 4044 
z
M 50 0 
L 1831 4666 
L 2547 4666 
L 4325 0 
L 50 0 
z
" transform="scale(0.015625)"/>
       <path id="DejaVuSans-Oblique-3c9" d="M 1369 -91 
Q 72 -91 434 1766 
Q 575 2500 1256 3500 
L 1875 3500 
Q 1231 2500 1088 1750 
Q 819 397 1519 397 
Q 2166 397 2478 2078 
L 3009 2078 
Q 2669 388 3316 397 
Q 4013 403 4275 1750 
Q 4419 2500 4169 3500 
L 4788 3500 
Q 5075 2500 4934 1766 
Q 4578 -94 3278 -91 
Q 2428 -88 2503 844 
Q 2194 -91 1369 -91 
z
" transform="scale(0.015625)"/>
       <path id="DejaVuSans-6c" d="M 603 4863 
L 1178 4863 
L 1178 0 
L 603 0 
L 603 4863 
z
" transform="scale(0.015625)"/>
       <path id="DejaVuSans-69" d="M 603 3500 
L 1178 3500 
L 1178 0 
L 603 0 
L 603 3500 
z
M 603 4863 
L 1178 4863 
L 1178 4134 
L 603 4134 
L 603 4863 
z
" transform="scale(0.015625)"/>
       <path id="DejaVuSans-6e" d="M 3513 2113 
L 3513 0 
L 2938 0 
L 2938 2094 
Q 2938 2591 2744 2837 
Q 2550 3084 2163 3084 
Q 1697 3084 1428 2787 
Q 1159 2491 1159 1978 
L 1159 0 
L 581 0 
L 581 3500 
L 1159 3500 
L 1159 2956 
Q 1366 3272 1645 3428 
Q 1925 3584 2291 3584 
Q 2894 3584 3203 3211 
Q 3513 2838 3513 2113 
z
" transform="scale(0.015625)"/>
      </defs>
      <use xlink:href="#DejaVuSans-394" transform="translate(0 0.09375)"/>
      <use xlink:href="#DejaVuSans-Oblique-3c9" transform="translate(68.408203 0.09375)"/>
      <use xlink:href="#DejaVuSans-6c" transform="translate(152.148438 -16.3125) scale(0.7)"/>
      <use xlink:href="#DejaVuSans-69" transform="translate(171.59668 -16.3125) scale(0.7)"/>
      <use xlink:href="#DejaVuSans-6e" transform="translate(191.044922 -16.3125) scale(0.7)"/>
     </g>
    </g>
   </g>
   <g id="line2d_22">
    <path d="M 95.646856 450.277976 
L 139.915586 451.552369 
L 165.811134 453.711673 
L 184.184317 460.467622 
L 198.435665 458.785304 
L 228.453048 466.338896 
L 242.704396 468.093864 
L 268.599944 469.69696 
L 286.973127 471.305997 
" clip-path="url(#pbaa4d1f695)" style="fill: none; stroke: #414487; stroke-width: 1.2; stroke-linecap: square"/>
    <defs>
     <path id="m588d139f4c" d="M 0 2.5 
C 0.663008 2.5 1.29895 2.236584 1.767767 1.767767 
C 2.236584 1.29895 2.5 0.663008 2.5 0 
C 2.5 -0.663008 2.236584 -1.29895 1.767767 -1.767767 
C 1.29895 -2.236584 0.663008 -2.5 0 -2.5 
C -0.663008 -2.5 -1.29895 -2.236584 -1.767767 -1.767767 
C -2.236584 -1.29895 -2.5 -0.663008 -2.5 0 
C -2.5 0.663008 -2.236584 1.29895 -1.767767 1.767767 
C -1.29895 2.236584 -0.663008 2.5 0 2.5 
z
" style="stroke: #414487"/>
    </defs>
    <g clip-path="url(#pbaa4d1f695)">
     <use xlink:href="#m588d139f4c" x="95.646856" y="450.277976" style="fill: #414487; stroke: #414487"/>
     <use xlink:href="#m588d139f4c" x="139.915586" y="451.552369" style="fill: #414487; stroke: #414487"/>
     <use xlink:href="#m588d139f4c" x="165.811134" y="453.711673" style="fill: #414487; stroke: #414487"/>
     <use xlink:href="#m588d139f4c" x="184.184317" y="460.467622" style="fill: #414487; stroke: #414487"/>
     <use xlink:href="#m588d139f4c" x="198.435665" y="458.785304" style="fill: #414487; stroke: #414487"/>
     <use xlink:href="#m588d139f4c" x="228.453048" y="466.338896" style="fill: #414487; stroke: #414487"/>
     <use xlink:href="#m588d139f4c" x="242.704396" y="468.093864" style="fill: #414487; stroke: #414487"/>
     <use xlink:href="#m588d139f4c" x="268.599944" y="469.69696" style="fill: #414487; stroke: #414487"/>
     <use xlink:href="#m588d139f4c" x="286.973127" y="471.305997" style="fill: #414487; stroke: #414487"/>
    </g>
   </g>
   <g id="line2d_23">
    <path d="M 95.646856 441.663228 
L 139.915586 448.487828 
L 165.811134 452.466864 
L 184.184317 457.128822 
L 198.435665 459.425112 
L 228.453048 463.453481 
L 242.704396 465.319292 
L 268.599944 469.536896 
L 286.973127 472.737101 
" clip-path="url(#pbaa4d1f695)" style="fill: none; stroke: #2c728e; stroke-width: 1.2; stroke-linecap: square"/>
    <defs>
     <path id="mca094fbe1b" d="M 0 2.5 
C 0.663008 2.5 1.29895 2.236584 1.767767 1.767767 
C 2.236584 1.29895 2.5 0.663008 2.5 0 
C 2.5 -0.663008 2.236584 -1.29895 1.767767 -1.767767 
C 1.29895 -2.236584 0.663008 -2.5 0 -2.5 
C -0.663008 -2.5 -1.29895 -2.236584 -1.767767 -1.767767 
C -2.236584 -1.29895 -2.5 -0.663008 -2.5 0 
C -2.5 0.663008 -2.236584 1.29895 -1.767767 1.767767 
C -1.29895 2.236584 -0.663008 2.5 0 2.5 
z
" style="stroke: #2c728e"/>
    </defs>
    <g clip-path="url(#pbaa4d1f695)">
     <use xlink:href="#mca094fbe1b" x="95.646856" y="441.663228" style="fill: #2c728e; stroke: #2c728e"/>
     <use xlink:href="#mca094fbe1b" x="139.915586" y="448.487828" style="fill: #2c728e; stroke: #2c728e"/>
     <use xlink:href="#mca094fbe1b" x="165.811134" y="452.466864" style="fill: #2c728e; stroke: #2c728e"/>
     <use xlink:href="#mca094fbe1b" x="184.184317" y="457.128822" style="fill: #2c728e; stroke: #2c728e"/>
     <use xlink:href="#mca094fbe1b" x="198.435665" y="459.425112" style="fill: #2c728e; stroke: #2c728e"/>
     <use xlink:href="#mca094fbe1b" x="228.453048" y="463.453481" style="fill: #2c728e; stroke: #2c728e"/>
     <use xlink:href="#mca094fbe1b" x="242.704396" y="465.319292" style="fill: #2c728e; stroke: #2c728e"/>
     <use xlink:href="#mca094fbe1b" x="268.599944" y="469.536896" style="fill: #2c728e; stroke: #2c728e"/>
     <use xlink:href="#mca094fbe1b" x="286.973127" y="472.737101" style="fill: #2c728e; stroke: #2c728e"/>
    </g>
   </g>
   <g id="line2d_24">
    <path d="M 95.646856 442.800016 
L 139.915586 467.959215 
L 165.811134 453.711673 
L 184.184317 456.568994 
L 198.435665 458.785303 
L 228.453048 463.98131 
L 242.704396 466.583788 
L 268.599944 470.698331 
L 286.973127 473.539378 
" clip-path="url(#pbaa4d1f695)" style="fill: none; stroke: #1e9c89; stroke-width: 1.2; stroke-linecap: square"/>
    <defs>
     <path id="mf8c56d0f57" d="M 0 2.5 
C 0.663008 2.5 1.29895 2.236584 1.767767 1.767767 
C 2.236584 1.29895 2.5 0.663008 2.5 0 
C 2.5 -0.663008 2.236584 -1.29895 1.767767 -1.767767 
C 1.29895 -2.236584 0.663008 -2.5 0 -2.5 
C -0.663008 -2.5 -1.29895 -2.236584 -1.767767 -1.767767 
C -2.236584 -1.29895 -2.5 -0.663008 -2.5 0 
C -2.5 0.663008 -2.236584 1.29895 -1.767767 1.767767 
C -1.29895 2.236584 -0.663008 2.5 0 2.5 
z
" style="stroke: #1e9c89"/>
    </defs>
    <g clip-path="url(#pbaa4d1f695)">
     <use xlink:href="#mf8c56d0f57" x="95.646856" y="442.800016" style="fill: #1e9c89; stroke: #1e9c89"/>
     <use xlink:href="#mf8c56d0f57" x="139.915586" y="467.959215" style="fill: #1e9c89; stroke: #1e9c89"/>
     <use xlink:href="#mf8c56d0f57" x="165.811134" y="453.711673" style="fill: #1e9c89; stroke: #1e9c89"/>
     <use xlink:href="#mf8c56d0f57" x="184.184317" y="456.568994" style="fill: #1e9c89; stroke: #1e9c89"/>
     <use xlink:href="#mf8c56d0f57" x="198.435665" y="458.785303" style="fill: #1e9c89; stroke: #1e9c89"/>
     <use xlink:href="#mf8c56d0f57" x="228.453048" y="463.98131" style="fill: #1e9c89; stroke: #1e9c89"/>
     <use xlink:href="#mf8c56d0f57" x="242.704396" y="466.583788" style="fill: #1e9c89; stroke: #1e9c89"/>
     <use xlink:href="#mf8c56d0f57" x="268.599944" y="470.698331" style="fill: #1e9c89; stroke: #1e9c89"/>
     <use xlink:href="#mf8c56d0f57" x="286.973127" y="473.539378" style="fill: #1e9c89; stroke: #1e9c89"/>
    </g>
   </g>
   <g id="line2d_25">
    <path d="M 95.646856 456.839958 
L 139.915586 449.684503 
L 165.811134 453.710253 
L 184.184317 456.853131 
L 198.435665 458.789469 
L 228.453048 464.463717 
L 242.704396 465.248988 
L 268.599944 469.679486 
L 286.973127 472.554281 
" clip-path="url(#pbaa4d1f695)" style="fill: none; stroke: #50c46a; stroke-width: 1.2; stroke-linecap: square"/>
    <defs>
     <path id="me73bf56ce7" d="M 0 2.5 
C 0.663008 2.5 1.29895 2.236584 1.767767 1.767767 
C 2.236584 1.29895 2.5 0.663008 2.5 0 
C 2.5 -0.663008 2.236584 -1.29895 1.767767 -1.767767 
C 1.29895 -2.236584 0.663008 -2.5 0 -2.5 
C -0.663008 -2.5 -1.29895 -2.236584 -1.767767 -1.767767 
C -2.236584 -1.29895 -2.5 -0.663008 -2.5 0 
C -2.5 0.663008 -2.236584 1.29895 -1.767767 1.767767 
C -1.29895 2.236584 -0.663008 2.5 0 2.5 
z
" style="stroke: #50c46a"/>
    </defs>
    <g clip-path="url(#pbaa4d1f695)">
     <use xlink:href="#me73bf56ce7" x="95.646856" y="456.839958" style="fill: #50c46a; stroke: #50c46a"/>
     <use xlink:href="#me73bf56ce7" x="139.915586" y="449.684503" style="fill: #50c46a; stroke: #50c46a"/>
     <use xlink:href="#me73bf56ce7" x="165.811134" y="453.710253" style="fill: #50c46a; stroke: #50c46a"/>
     <use xlink:href="#me73bf56ce7" x="184.184317" y="456.853131" style="fill: #50c46a; stroke: #50c46a"/>
     <use xlink:href="#me73bf56ce7" x="198.435665" y="458.789469" style="fill: #50c46a; stroke: #50c46a"/>
     <use xlink:href="#me73bf56ce7" x="228.453048" y="464.463717" style="fill: #50c46a; stroke: #50c46a"/>
     <use xlink:href="#me73bf56ce7" x="242.704396" y="465.248988" style="fill: #50c46a; stroke: #50c46a"/>
     <use xlink:href="#me73bf56ce7" x="268.599944" y="469.679486" style="fill: #50c46a; stroke: #50c46a"/>
     <use xlink:href="#me73bf56ce7" x="286.973127" y="472.554281" style="fill: #50c46a; stroke: #50c46a"/>
    </g>
   </g>
   <g id="line2d_26">
    <path d="M 95.646856 454.549665 
L 139.915586 450.061922 
L 165.811134 453.711673 
L 184.184317 455.552295 
L 198.435665 457.764494 
L 228.453048 462.530665 
L 242.704396 465.669792 
L 268.599944 470.229216 
L 286.973127 472.568224 
" clip-path="url(#pbaa4d1f695)" style="fill: none; stroke: #bddf26; stroke-width: 1.2; stroke-linecap: square"/>
    <defs>
     <path id="m5fe16719d0" d="M 0 2.5 
C 0.663008 2.5 1.29895 2.236584 1.767767 1.767767 
C 2.236584 1.29895 2.5 0.663008 2.5 0 
C 2.5 -0.663008 2.236584 -1.29895 1.767767 -1.767767 
C 1.29895 -2.236584 0.663008 -2.5 0 -2.5 
C -0.663008 -2.5 -1.29895 -2.236584 -1.767767 -1.767767 
C -2.236584 -1.29895 -2.5 -0.663008 -2.5 0 
C -2.5 0.663008 -2.236584 1.29895 -1.767767 1.767767 
C -1.29895 2.236584 -0.663008 2.5 0 2.5 
z
" style="stroke: #bddf26"/>
    </defs>
    <g clip-path="url(#pbaa4d1f695)">
     <use xlink:href="#m5fe16719d0" x="95.646856" y="454.549665" style="fill: #bddf26; stroke: #bddf26"/>
     <use xlink:href="#m5fe16719d0" x="139.915586" y="450.061922" style="fill: #bddf26; stroke: #bddf26"/>
     <use xlink:href="#m5fe16719d0" x="165.811134" y="453.711673" style="fill: #bddf26; stroke: #bddf26"/>
     <use xlink:href="#m5fe16719d0" x="184.184317" y="455.552295" style="fill: #bddf26; stroke: #bddf26"/>
     <use xlink:href="#m5fe16719d0" x="198.435665" y="457.764494" style="fill: #bddf26; stroke: #bddf26"/>
     <use xlink:href="#m5fe16719d0" x="228.453048" y="462.530665" style="fill: #bddf26; stroke: #bddf26"/>
     <use xlink:href="#m5fe16719d0" x="242.704396" y="465.669792" style="fill: #bddf26; stroke: #bddf26"/>
     <use xlink:href="#m5fe16719d0" x="268.599944" y="470.229216" style="fill: #bddf26; stroke: #bddf26"/>
     <use xlink:href="#m5fe16719d0" x="286.973127" y="472.568224" style="fill: #bddf26; stroke: #bddf26"/>
    </g>
   </g>
   <g id="line2d_27">
    <path d="M 95.646856 442.800016 
L 106.859524 444.543764 
L 116.394524 446.026607 
L 124.689162 447.316555 
L 132.029311 448.458064 
L 138.612148 449.481799 
L 144.57943 450.409806 
L 150.036497 451.258467 
L 155.063768 452.040287 
L 159.724027 452.765031 
L 164.067236 453.440469 
L 168.1338 454.072884 
L 171.95686 454.66743 
L 175.563938 455.228388 
L 178.978139 455.75935 
L 182.219046 456.263363 
L 185.303405 456.743029 
L 188.245644 457.200594 
L 191.058287 457.638005 
L 193.75227 458.056961 
L 196.3372 458.458959 
L 198.821565 458.845317 
L 201.212898 459.217207 
L 203.517914 459.575674 
L 205.742629 459.921652 
L 207.89245 460.255983 
L 209.972255 460.579426 
L 211.986462 460.892667 
L 213.939083 461.196331 
L 215.833772 461.490985 
L 217.673868 461.777149 
L 219.462429 462.055298 
L 221.202263 462.32587 
L 222.895955 462.589266 
L 224.54589 462.845857 
L 226.15427 463.095986 
L 227.72314 463.33997 
L 229.254392 463.578104 
L 230.749789 463.810662 
L 232.210972 464.037899 
L 233.639471 464.260053 
L 235.036716 464.477347 
L 236.404046 464.689988 
L 237.742716 464.898172 
L 239.053901 465.102082 
L 240.338708 465.30189 
L 241.598177 465.497758 
L 242.833289 465.689837 
L 244.044967 465.878272 
L 245.234084 466.063199 
L 246.401466 466.244745 
L 247.547892 466.423033 
L 248.674101 466.598176 
L 249.780795 466.770284 
L 250.868638 466.939461 
L 251.938261 467.105804 
L 252.990265 467.269408 
L 254.025221 467.43036 
L 255.043673 467.588745 
L 256.046138 467.744644 
L 257.033111 467.898134 
L 258.005064 468.049288 
L 258.962446 468.198176 
L 259.905688 468.344866 
L 260.835202 468.48942 
L 261.751382 468.6319 
L 262.654605 468.772366 
L 263.545231 468.910872 
L 264.423609 469.047474 
L 265.290069 469.182222 
L 266.144932 469.315167 
L 266.988503 469.446355 
L 267.821077 469.575834 
L 268.642937 469.703646 
L 269.454355 469.829834 
L 270.255593 469.95444 
L 271.046903 470.077501 
L 271.828529 470.199056 
L 272.600705 470.319142 
L 273.363656 470.437793 
L 274.117601 470.555043 
L 274.862748 470.670925 
L 275.599302 470.785471 
L 276.327459 470.898711 
L 277.047406 471.010674 
L 277.759329 471.121389 
L 278.463403 471.230884 
L 279.1598 471.339185 
L 279.848685 471.446317 
L 280.530218 471.552307 
L 281.204556 471.657177 
L 281.871848 471.760951 
L 282.53224 471.863653 
L 283.185873 471.965303 
L 283.832884 472.065923 
L 284.473407 472.165535 
L 285.107569 472.264157 
L 285.735496 472.36181 
L 286.357309 472.458511 
L 286.973127 472.554281 
" clip-path="url(#pbaa4d1f695)" style="fill: none; stroke-dasharray: 4.44,1.92; stroke-dashoffset: 0; stroke: #000000; stroke-opacity: 0.7; stroke-width: 1.2"/>
   </g>
   <g id="line2d_28">
    <path d="M 95.646856 442.800016 
L 106.859524 446.287511 
L 116.394524 449.253198 
L 124.689162 451.833093 
L 132.029311 454.116112 
L 138.612148 456.163583 
L 144.57943 458.019596 
L 150.036497 459.716917 
L 155.063768 461.280557 
L 159.724027 462.730046 
L 164.067236 464.080921 
L 168.1338 465.345751 
L 171.95686 466.534844 
L 175.563938 467.65676 
L 178.978139 468.718684 
L 182.219046 469.726709 
L 185.303405 470.686042 
L 188.245644 471.601172 
L 191.058287 472.475993 
L 193.75227 473.313907 
L 196.3372 474.117902 
L 198.821565 474.890618 
L 201.212898 475.634398 
L 203.517914 476.351331 
L 205.742629 477.043288 
L 207.89245 477.71195 
L 209.972255 478.358836 
L 211.986462 478.985318 
L 213.939083 479.592645 
L 215.833772 480.181953 
L 217.673868 480.754281 
L 219.462429 481.31058 
L 221.202263 481.851724 
L 222.895955 482.378516 
L 224.54589 482.891698 
L 226.15427 483.391955 
L 227.72314 483.879923 
L 229.254392 484.356191 
L 230.749789 484.821307 
L 232.210972 485.275781 
L 233.639471 485.720089 
L 235.036716 486.154677 
L 236.404046 486.57996 
L 237.742716 486.996329 
L 239.053901 487.404149 
L 240.338708 487.803764 
L 241.598177 488.195499 
L 242.833289 488.579658 
L 244.044967 488.956528 
L 245.234084 489.326381 
L 246.401466 489.689474 
L 247.547892 490.046049 
L 248.674101 490.396336 
L 249.780795 490.740552 
L 250.868638 491.078906 
L 251.938261 491.411593 
L 252.990265 491.738799 
L 254.025221 492.060703 
L 255.043673 492.377474 
L 256.046138 492.689273 
L 257.033111 492.996252 
L 258.005064 493.29856 
L 258.962446 493.596337 
L 259.905688 493.889715 
L 260.835202 494.178823 
L 261.751382 494.463784 
L 262.654605 494.744715 
L 263.545231 495.021728 
L 264.423609 495.294931 
L 265.290069 495.564428 
L 266.144932 495.830317 
L 266.988503 496.092695 
L 267.821077 496.351651 
L 268.642937 496.607276 
L 269.454355 496.859653 
L 270.255593 497.108863 
L 271.046903 497.354986 
L 271.828529 497.598096 
L 272.600705 497.838267 
L 273.363656 498.075569 
L 274.117601 498.31007 
L 274.862748 498.541834 
L 275.599302 498.770926 
L 276.327459 498.997405 
L 277.047406 499.221332 
L 277.759329 499.442763 
L 278.463403 499.661752 
L 279.1598 499.878353 
L 279.848685 500.092618 
L 280.530218 500.304597 
L 281.204556 500.514337 
L 281.871848 500.721886 
L 282.53224 500.927289 
L 283.185873 501.13059 
L 283.832884 501.331831 
L 284.473407 501.531053 
L 285.107569 501.728298 
L 285.735496 501.923603 
L 286.357309 502.117007 
L 286.973127 502.308545 
" clip-path="url(#pbaa4d1f695)" style="fill: none; stroke-dasharray: 1,1.65; stroke-dashoffset: 0; stroke: #000000; stroke-opacity: 0.5"/>
   </g>
   <g id="patch_3">
    <path d="M 51.378125 525.028 
L 51.378125 25.2 
" style="fill: none; stroke: #000000; stroke-width: 0.8; stroke-linejoin: miter; stroke-linecap: square"/>
   </g>
   <g id="patch_4">
    <path d="M 296.53944 525.028 
L 296.53944 25.2 
" style="fill: none; stroke: #000000; stroke-width: 0.8; stroke-linejoin: miter; stroke-linecap: square"/>
   </g>
   <g id="patch_5">
    <path d="M 51.378125 525.028 
L 296.53944 525.028 
" style="fill: none; stroke: #000000; stroke-width: 0.8; stroke-linejoin: miter; stroke-linecap: square"/>
   </g>
   <g id="patch_6">
    <path d="M 51.378125 25.2 
L 296.53944 25.2 
" style="fill: none; stroke: #000000; stroke-width: 0.8; stroke-linejoin: miter; stroke-linecap: square"/>
   </g>
   <g id="text_10">
    <!-- Linear $J_z^S$ -->
    <g transform="translate(148.338783 19.2) scale(0.12 -0.12)">
     <defs>
      <path id="DejaVuSans-4c" d="M 628 4666 
L 1259 4666 
L 1259 531 
L 3531 531 
L 3531 0 
L 628 0 
L 628 4666 
z
" transform="scale(0.015625)"/>
      <path id="DejaVuSans-65" d="M 3597 1894 
L 3597 1613 
L 953 1613 
Q 991 1019 1311 708 
Q 1631 397 2203 397 
Q 2534 397 2845 478 
Q 3156 559 3463 722 
L 3463 178 
Q 3153 47 2828 -22 
Q 2503 -91 2169 -91 
Q 1331 -91 842 396 
Q 353 884 353 1716 
Q 353 2575 817 3079 
Q 1281 3584 2069 3584 
Q 2775 3584 3186 3129 
Q 3597 2675 3597 1894 
z
M 3022 2063 
Q 3016 2534 2758 2815 
Q 2500 3097 2075 3097 
Q 1594 3097 1305 2825 
Q 1016 2553 972 2059 
L 3022 2063 
z
" transform="scale(0.015625)"/>
      <path id="DejaVuSans-61" d="M 2194 1759 
Q 1497 1759 1228 1600 
Q 959 1441 959 1056 
Q 959 750 1161 570 
Q 1363 391 1709 391 
Q 2188 391 2477 730 
Q 2766 1069 2766 1631 
L 2766 1759 
L 2194 1759 
z
M 3341 1997 
L 3341 0 
L 2766 0 
L 2766 531 
Q 2569 213 2275 61 
Q 1981 -91 1556 -91 
Q 1019 -91 701 211 
Q 384 513 384 1019 
Q 384 1609 779 1909 
Q 1175 2209 1959 2209 
L 2766 2209 
L 2766 2266 
Q 2766 2663 2505 2880 
Q 2244 3097 1772 3097 
Q 1472 3097 1187 3025 
Q 903 2953 641 2809 
L 641 3341 
Q 956 3463 1253 3523 
Q 1550 3584 1831 3584 
Q 2591 3584 2966 3190 
Q 3341 2797 3341 1997 
z
" transform="scale(0.015625)"/>
      <path id="DejaVuSans-72" d="M 2631 2963 
Q 2534 3019 2420 3045 
Q 2306 3072 2169 3072 
Q 1681 3072 1420 2755 
Q 1159 2438 1159 1844 
L 1159 0 
L 581 0 
L 581 3500 
L 1159 3500 
L 1159 2956 
Q 1341 3275 1631 3429 
Q 1922 3584 2338 3584 
Q 2397 3584 2469 3576 
Q 2541 3569 2628 3553 
L 2631 2963 
z
" transform="scale(0.015625)"/>
      <path id="DejaVuSans-20" transform="scale(0.015625)"/>
      <path id="DejaVuSans-Oblique-4a" d="M 1069 4666 
L 1703 4666 
L 856 325 
Q 691 -522 298 -901 
Q -94 -1281 -800 -1281 
L -1050 -1281 
L -947 -750 
L -750 -750 
Q -328 -750 -109 -509 
Q 109 -269 225 325 
L 1069 4666 
z
" transform="scale(0.015625)"/>
      <path id="DejaVuSans-Oblique-53" d="M 3859 4513 
L 3738 3897 
Q 3422 4066 3111 4152 
Q 2800 4238 2509 4238 
Q 1944 4238 1609 3991 
Q 1275 3744 1275 3334 
Q 1275 3109 1398 2989 
Q 1522 2869 2034 2731 
L 2413 2638 
Q 3053 2472 3303 2217 
Q 3553 1963 3553 1503 
Q 3553 797 2998 353 
Q 2444 -91 1538 -91 
Q 1166 -91 791 -17 
Q 416 56 38 206 
L 166 856 
Q 513 641 861 531 
Q 1209 422 1556 422 
Q 2147 422 2503 684 
Q 2859 947 2859 1369 
Q 2859 1650 2717 1795 
Q 2575 1941 2106 2059 
L 1728 2156 
Q 1081 2325 845 2545 
Q 609 2766 609 3163 
Q 609 3859 1145 4304 
Q 1681 4750 2541 4750 
Q 2875 4750 3203 4690 
Q 3531 4631 3859 4513 
z
" transform="scale(0.015625)"/>
      <path id="DejaVuSans-Oblique-7a" d="M 744 3500 
L 3475 3500 
L 3372 2975 
L 738 459 
L 2913 459 
L 2822 0 
L -19 0 
L 84 525 
L 2719 3041 
L 653 3041 
L 744 3500 
z
" transform="scale(0.015625)"/>
     </defs>
     <use xlink:href="#DejaVuSans-4c" transform="translate(0 0.765625)"/>
     <use xlink:href="#DejaVuSans-69" transform="translate(55.712891 0.765625)"/>
     <use xlink:href="#DejaVuSans-6e" transform="translate(83.496094 0.765625)"/>
     <use xlink:href="#DejaVuSans-65" transform="translate(146.875 0.765625)"/>
     <use xlink:href="#DejaVuSans-61" transform="translate(208.398438 0.765625)"/>
     <use xlink:href="#DejaVuSans-72" transform="translate(269.677734 0.765625)"/>
     <use xlink:href="#DejaVuSans-20" transform="translate(310.791016 0.765625)"/>
     <use xlink:href="#DejaVuSans-Oblique-4a" transform="translate(342.578125 0.765625)"/>
     <use xlink:href="#DejaVuSans-Oblique-53" transform="translate(379.087083 39.046875) scale(0.7)"/>
     <use xlink:href="#DejaVuSans-Oblique-7a" transform="translate(372.070312 -26.578125) scale(0.7)"/>
    </g>
   </g>
   <g id="legend_1">
    <g id="patch_7">
     <path d="M 243.61944 115.900937 
L 291.63944 115.900937 
Q 293.03944 115.900937 293.03944 114.500937 
L 293.03944 30.1 
Q 293.03944 28.7 291.63944 28.7 
L 243.61944 28.7 
Q 242.21944 28.7 242.21944 30.1 
L 242.21944 114.500937 
Q 242.21944 115.900937 243.61944 115.900937 
z
" style="fill: #ffffff; opacity: 0.8; stroke: #cccccc; stroke-linejoin: miter"/>
    </g>
    <g id="text_11">
     <!-- $\omega$ -->
     <g transform="translate(263.42944 39.098437) scale(0.1 -0.1)">
      <use xlink:href="#DejaVuSans-Oblique-3c9" transform="translate(0 0.3125)"/>
     </g>
    </g>
    <g id="line2d_29">
     <path d="M 245.01944 47.547031 
L 252.01944 47.547031 
L 259.01944 47.547031 
" style="fill: none; stroke: #414487; stroke-width: 1.2; stroke-linecap: square"/>
     <g>
      <use xlink:href="#m588d139f4c" x="252.01944" y="47.547031" style="fill: #414487; stroke: #414487"/>
     </g>
    </g>
    <g id="text_12">
     <!-- $\omega=0.1$ -->
     <g transform="translate(264.61944 49.997031) scale(0.07 -0.07)">
      <defs>
       <path id="DejaVuSans-3d" d="M 678 2906 
L 4684 2906 
L 4684 2381 
L 678 2381 
L 678 2906 
z
M 678 1631 
L 4684 1631 
L 4684 1100 
L 678 1100 
L 678 1631 
z
" transform="scale(0.015625)"/>
       <path id="DejaVuSans-2e" d="M 684 794 
L 1344 794 
L 1344 0 
L 684 0 
L 684 794 
z
" transform="scale(0.015625)"/>
      </defs>
      <use xlink:href="#DejaVuSans-Oblique-3c9" transform="translate(0 0.78125)"/>
      <use xlink:href="#DejaVuSans-3d" transform="translate(103.222656 0.78125)"/>
      <use xlink:href="#DejaVuSans-30" transform="translate(206.494141 0.78125)"/>
      <use xlink:href="#DejaVuSans-2e" transform="translate(270.117188 0.78125)"/>
      <use xlink:href="#DejaVuSans-31" transform="translate(301.904297 0.78125)"/>
     </g>
    </g>
    <g id="line2d_30">
     <path d="M 245.01944 57.821719 
L 252.01944 57.821719 
L 259.01944 57.821719 
" style="fill: none; stroke: #2c728e; stroke-width: 1.2; stroke-linecap: square"/>
     <g>
      <use xlink:href="#mca094fbe1b" x="252.01944" y="57.821719" style="fill: #2c728e; stroke: #2c728e"/>
     </g>
    </g>
    <g id="text_13">
     <!-- $\omega=0.2$ -->
     <g transform="translate(264.61944 60.271719) scale(0.07 -0.07)">
      <defs>
       <path id="DejaVuSans-32" d="M 1228 531 
L 3431 531 
L 3431 0 
L 469 0 
L 469 531 
Q 828 903 1448 1529 
Q 2069 2156 2228 2338 
Q 2531 2678 2651 2914 
Q 2772 3150 2772 3378 
Q 2772 3750 2511 3984 
Q 2250 4219 1831 4219 
Q 1534 4219 1204 4116 
Q 875 4013 500 3803 
L 500 4441 
Q 881 4594 1212 4672 
Q 1544 4750 1819 4750 
Q 2544 4750 2975 4387 
Q 3406 4025 3406 3419 
Q 3406 3131 3298 2873 
Q 3191 2616 2906 2266 
Q 2828 2175 2409 1742 
Q 1991 1309 1228 531 
z
" transform="scale(0.015625)"/>
      </defs>
      <use xlink:href="#DejaVuSans-Oblique-3c9" transform="translate(0 0.78125)"/>
      <use xlink:href="#DejaVuSans-3d" transform="translate(103.222656 0.78125)"/>
      <use xlink:href="#DejaVuSans-30" transform="translate(206.494141 0.78125)"/>
      <use xlink:href="#DejaVuSans-2e" transform="translate(270.117188 0.78125)"/>
      <use xlink:href="#DejaVuSans-32" transform="translate(296.404297 0.78125)"/>
     </g>
    </g>
    <g id="line2d_31">
     <path d="M 245.01944 68.096406 
L 252.01944 68.096406 
L 259.01944 68.096406 
" style="fill: none; stroke: #1e9c89; stroke-width: 1.2; stroke-linecap: square"/>
     <g>
      <use xlink:href="#mf8c56d0f57" x="252.01944" y="68.096406" style="fill: #1e9c89; stroke: #1e9c89"/>
     </g>
    </g>
    <g id="text_14">
     <!-- $\omega=0.5$ -->
     <g transform="translate(264.61944 70.546406) scale(0.07 -0.07)">
      <use xlink:href="#DejaVuSans-Oblique-3c9" transform="translate(0 0.78125)"/>
      <use xlink:href="#DejaVuSans-3d" transform="translate(103.222656 0.78125)"/>
      <use xlink:href="#DejaVuSans-30" transform="translate(206.494141 0.78125)"/>
      <use xlink:href="#DejaVuSans-2e" transform="translate(270.117188 0.78125)"/>
      <use xlink:href="#DejaVuSans-35" transform="translate(301.904297 0.78125)"/>
     </g>
    </g>
    <g id="line2d_32">
     <path d="M 245.01944 78.371094 
L 252.01944 78.371094 
L 259.01944 78.371094 
" style="fill: none; stroke: #50c46a; stroke-width: 1.2; stroke-linecap: square"/>
     <g>
      <use xlink:href="#me73bf56ce7" x="252.01944" y="78.371094" style="fill: #50c46a; stroke: #50c46a"/>
     </g>
    </g>
    <g id="text_15">
     <!-- $\omega=1.0$ -->
     <g transform="translate(264.61944 80.821094) scale(0.07 -0.07)">
      <use xlink:href="#DejaVuSans-Oblique-3c9" transform="translate(0 0.78125)"/>
      <use xlink:href="#DejaVuSans-3d" transform="translate(103.222656 0.78125)"/>
      <use xlink:href="#DejaVuSans-31" transform="translate(206.494141 0.78125)"/>
      <use xlink:href="#DejaVuSans-2e" transform="translate(270.117188 0.78125)"/>
      <use xlink:href="#DejaVuSans-30" transform="translate(301.904297 0.78125)"/>
     </g>
    </g>
    <g id="line2d_33">
     <path d="M 245.01944 88.645781 
L 252.01944 88.645781 
L 259.01944 88.645781 
" style="fill: none; stroke: #bddf26; stroke-width: 1.2; stroke-linecap: square"/>
     <g>
      <use xlink:href="#m5fe16719d0" x="252.01944" y="88.645781" style="fill: #bddf26; stroke: #bddf26"/>
     </g>
    </g>
    <g id="text_16">
     <!-- $\omega=2.0$ -->
     <g transform="translate(264.61944 91.095781) scale(0.07 -0.07)">
      <use xlink:href="#DejaVuSans-Oblique-3c9" transform="translate(0 0.78125)"/>
      <use xlink:href="#DejaVuSans-3d" transform="translate(103.222656 0.78125)"/>
      <use xlink:href="#DejaVuSans-32" transform="translate(206.494141 0.78125)"/>
      <use xlink:href="#DejaVuSans-2e" transform="translate(270.117188 0.78125)"/>
      <use xlink:href="#DejaVuSans-30" transform="translate(301.904297 0.78125)"/>
     </g>
    </g>
    <g id="line2d_34">
     <path d="M 245.01944 98.920469 
L 252.01944 98.920469 
L 259.01944 98.920469 
" style="fill: none; stroke-dasharray: 4.44,1.92; stroke-dashoffset: 0; stroke: #000000; stroke-opacity: 0.7; stroke-width: 1.2"/>
    </g>
    <g id="text_17">
     <!-- SQL -->
     <g transform="translate(264.61944 101.370469) scale(0.07 -0.07)">
      <defs>
       <path id="DejaVuSans-53" d="M 3425 4513 
L 3425 3897 
Q 3066 4069 2747 4153 
Q 2428 4238 2131 4238 
Q 1616 4238 1336 4038 
Q 1056 3838 1056 3469 
Q 1056 3159 1242 3001 
Q 1428 2844 1947 2747 
L 2328 2669 
Q 3034 2534 3370 2195 
Q 3706 1856 3706 1288 
Q 3706 609 3251 259 
Q 2797 -91 1919 -91 
Q 1588 -91 1214 -16 
Q 841 59 441 206 
L 441 856 
Q 825 641 1194 531 
Q 1563 422 1919 422 
Q 2459 422 2753 634 
Q 3047 847 3047 1241 
Q 3047 1584 2836 1778 
Q 2625 1972 2144 2069 
L 1759 2144 
Q 1053 2284 737 2584 
Q 422 2884 422 3419 
Q 422 4038 858 4394 
Q 1294 4750 2059 4750 
Q 2388 4750 2728 4690 
Q 3069 4631 3425 4513 
z
" transform="scale(0.015625)"/>
       <path id="DejaVuSans-51" d="M 2522 4238 
Q 1834 4238 1429 3725 
Q 1025 3213 1025 2328 
Q 1025 1447 1429 934 
Q 1834 422 2522 422 
Q 3209 422 3611 934 
Q 4013 1447 4013 2328 
Q 4013 3213 3611 3725 
Q 3209 4238 2522 4238 
z
M 3406 84 
L 4238 -825 
L 3475 -825 
L 2784 -78 
Q 2681 -84 2626 -87 
Q 2572 -91 2522 -91 
Q 1538 -91 948 567 
Q 359 1225 359 2328 
Q 359 3434 948 4092 
Q 1538 4750 2522 4750 
Q 3503 4750 4090 4092 
Q 4678 3434 4678 2328 
Q 4678 1516 4351 937 
Q 4025 359 3406 84 
z
" transform="scale(0.015625)"/>
      </defs>
      <use xlink:href="#DejaVuSans-53"/>
      <use xlink:href="#DejaVuSans-51" transform="translate(63.476562 0)"/>
      <use xlink:href="#DejaVuSans-4c" transform="translate(142.1875 0)"/>
     </g>
    </g>
    <g id="line2d_35">
     <path d="M 245.01944 109.195156 
L 252.01944 109.195156 
L 259.01944 109.195156 
" style="fill: none; stroke-dasharray: 1,1.65; stroke-dashoffset: 0; stroke: #000000; stroke-opacity: 0.5"/>
    </g>
    <g id="text_18">
     <!-- HL -->
     <g transform="translate(264.61944 111.645156) scale(0.07 -0.07)">
      <defs>
       <path id="DejaVuSans-48" d="M 628 4666 
L 1259 4666 
L 1259 2753 
L 3553 2753 
L 3553 4666 
L 4184 4666 
L 4184 0 
L 3553 0 
L 3553 2222 
L 1259 2222 
L 1259 0 
L 628 0 
L 628 4666 
z
" transform="scale(0.015625)"/>
      </defs>
      <use xlink:href="#DejaVuSans-48"/>
      <use xlink:href="#DejaVuSans-4c" transform="translate(75.195312 0)"/>
     </g>
    </g>
   </g>
  </g>
  <g id="axes_2">
   <g id="patch_8">
    <path d="M 326.64744 525.028 
L 571.808756 525.028 
L 571.808756 25.2 
L 326.64744 25.2 
z
" style="fill: #ffffff"/>
   </g>
   <g id="matplotlib.axis_3">
    <g id="xtick_17">
     <g id="line2d_36">
      <g>
       <use xlink:href="#m2a744c28ae" x="370.916171" y="525.028" style="stroke: #000000; stroke-width: 0.8"/>
      </g>
     </g>
     <g id="text_19">
      <!-- $\mathdefault{10^{0}}$ -->
      <g transform="translate(362.116171 539.626437) scale(0.1 -0.1)">
       <use xlink:href="#DejaVuSans-31" transform="translate(0 0.765625)"/>
       <use xlink:href="#DejaVuSans-30" transform="translate(63.623047 0.765625)"/>
       <use xlink:href="#DejaVuSans-30" transform="translate(128.203125 39.046875) scale(0.7)"/>
      </g>
     </g>
    </g>
    <g id="xtick_18">
     <g id="line2d_37">
      <g>
       <use xlink:href="#m2a744c28ae" x="517.973711" y="525.028" style="stroke: #000000; stroke-width: 0.8"/>
      </g>
     </g>
     <g id="text_20">
      <!-- $\mathdefault{10^{1}}$ -->
      <g transform="translate(509.173711 539.626437) scale(0.1 -0.1)">
       <use xlink:href="#DejaVuSans-31" transform="translate(0 0.684375)"/>
       <use xlink:href="#DejaVuSans-30" transform="translate(63.623047 0.684375)"/>
       <use xlink:href="#DejaVuSans-31" transform="translate(128.203125 38.965625) scale(0.7)"/>
      </g>
     </g>
    </g>
    <g id="xtick_19">
     <g id="line2d_38">
      <g>
       <use xlink:href="#mc4ac617ce7" x="326.64744" y="525.028" style="stroke: #000000; stroke-width: 0.6"/>
      </g>
     </g>
    </g>
    <g id="xtick_20">
     <g id="line2d_39">
      <g>
       <use xlink:href="#mc4ac617ce7" x="338.29164" y="525.028" style="stroke: #000000; stroke-width: 0.6"/>
      </g>
     </g>
    </g>
    <g id="xtick_21">
     <g id="line2d_40">
      <g>
       <use xlink:href="#mc4ac617ce7" x="348.13667" y="525.028" style="stroke: #000000; stroke-width: 0.6"/>
      </g>
     </g>
    </g>
    <g id="xtick_22">
     <g id="line2d_41">
      <g>
       <use xlink:href="#mc4ac617ce7" x="356.664823" y="525.028" style="stroke: #000000; stroke-width: 0.6"/>
      </g>
     </g>
    </g>
    <g id="xtick_23">
     <g id="line2d_42">
      <g>
       <use xlink:href="#mc4ac617ce7" x="364.187187" y="525.028" style="stroke: #000000; stroke-width: 0.6"/>
      </g>
     </g>
    </g>
    <g id="xtick_24">
     <g id="line2d_43">
      <g>
       <use xlink:href="#mc4ac617ce7" x="415.184902" y="525.028" style="stroke: #000000; stroke-width: 0.6"/>
      </g>
     </g>
    </g>
    <g id="xtick_25">
     <g id="line2d_44">
      <g>
       <use xlink:href="#mc4ac617ce7" x="441.080449" y="525.028" style="stroke: #000000; stroke-width: 0.6"/>
      </g>
     </g>
    </g>
    <g id="xtick_26">
     <g id="line2d_45">
      <g>
       <use xlink:href="#mc4ac617ce7" x="459.453633" y="525.028" style="stroke: #000000; stroke-width: 0.6"/>
      </g>
     </g>
    </g>
    <g id="xtick_27">
     <g id="line2d_46">
      <g>
       <use xlink:href="#mc4ac617ce7" x="473.704981" y="525.028" style="stroke: #000000; stroke-width: 0.6"/>
      </g>
     </g>
    </g>
    <g id="xtick_28">
     <g id="line2d_47">
      <g>
       <use xlink:href="#mc4ac617ce7" x="485.34918" y="525.028" style="stroke: #000000; stroke-width: 0.6"/>
      </g>
     </g>
    </g>
    <g id="xtick_29">
     <g id="line2d_48">
      <g>
       <use xlink:href="#mc4ac617ce7" x="495.19421" y="525.028" style="stroke: #000000; stroke-width: 0.6"/>
      </g>
     </g>
    </g>
    <g id="xtick_30">
     <g id="line2d_49">
      <g>
       <use xlink:href="#mc4ac617ce7" x="503.722363" y="525.028" style="stroke: #000000; stroke-width: 0.6"/>
      </g>
     </g>
    </g>
    <g id="xtick_31">
     <g id="line2d_50">
      <g>
       <use xlink:href="#mc4ac617ce7" x="511.244727" y="525.028" style="stroke: #000000; stroke-width: 0.6"/>
      </g>
     </g>
    </g>
    <g id="xtick_32">
     <g id="line2d_51">
      <g>
       <use xlink:href="#mc4ac617ce7" x="562.242442" y="525.028" style="stroke: #000000; stroke-width: 0.6"/>
      </g>
     </g>
    </g>
    <g id="text_21">
     <!-- $N$ -->
     <g transform="translate(445.478098 553.304562) scale(0.1 -0.1)">
      <use xlink:href="#DejaVuSans-Oblique-4e" transform="translate(0 0.09375)"/>
     </g>
    </g>
   </g>
   <g id="matplotlib.axis_4">
    <g id="ytick_6">
     <g id="line2d_52">
      <g>
       <use xlink:href="#ma334ad5028" x="326.64744" y="442.800016" style="stroke: #000000; stroke-width: 0.8"/>
      </g>
     </g>
    </g>
    <g id="ytick_7">
     <g id="line2d_53">
      <g>
       <use xlink:href="#ma334ad5028" x="326.64744" y="351.320912" style="stroke: #000000; stroke-width: 0.8"/>
      </g>
     </g>
    </g>
    <g id="ytick_8">
     <g id="line2d_54">
      <g>
       <use xlink:href="#ma334ad5028" x="326.64744" y="259.841808" style="stroke: #000000; stroke-width: 0.8"/>
      </g>
     </g>
    </g>
    <g id="ytick_9">
     <g id="line2d_55">
      <g>
       <use xlink:href="#ma334ad5028" x="326.64744" y="168.362704" style="stroke: #000000; stroke-width: 0.8"/>
      </g>
     </g>
    </g>
    <g id="ytick_10">
     <g id="line2d_56">
      <g>
       <use xlink:href="#ma334ad5028" x="326.64744" y="76.883599" style="stroke: #000000; stroke-width: 0.8"/>
      </g>
     </g>
    </g>
    <g id="text_22">
     <!-- $\Delta\omega_{\Pi}$ -->
     <g transform="translate(317.067753 285.514) rotate(-90) scale(0.1 -0.1)">
      <defs>
       <path id="DejaVuSans-3a0" d="M 4184 4666 
L 4184 0 
L 3553 0 
L 3553 4134 
L 1259 4134 
L 1259 0 
L 628 0 
L 628 4666 
L 4184 4666 
z
" transform="scale(0.015625)"/>
      </defs>
      <use xlink:href="#DejaVuSans-394" transform="translate(0 0.09375)"/>
      <use xlink:href="#DejaVuSans-Oblique-3c9" transform="translate(68.408203 0.09375)"/>
      <use xlink:href="#DejaVuSans-3a0" transform="translate(152.148438 -16.3125) scale(0.7)"/>
     </g>
    </g>
   </g>
   <g id="line2d_57">
    <path d="M 415.184902 442.706608 
L 459.453633 430.917651 
L 503.722363 395.770876 
L 517.973711 375.834363 
L 562.242442 266.730013 
" clip-path="url(#p9d84bb6b81)" style="fill: none; stroke: #414487; stroke-width: 1.2; stroke-linecap: square"/>
    <g clip-path="url(#p9d84bb6b81)">
     <use xlink:href="#m588d139f4c" x="415.184902" y="442.706608" style="fill: #414487; stroke: #414487"/>
     <use xlink:href="#m588d139f4c" x="459.453633" y="430.917651" style="fill: #414487; stroke: #414487"/>
     <use xlink:href="#m588d139f4c" x="503.722363" y="395.770876" style="fill: #414487; stroke: #414487"/>
     <use xlink:href="#m588d139f4c" x="517.973711" y="375.834363" style="fill: #414487; stroke: #414487"/>
     <use xlink:href="#m588d139f4c" x="562.242442" y="266.730013" style="fill: #414487; stroke: #414487"/>
    </g>
   </g>
   <g id="line2d_58">
    <path d="M 415.184902 438.716774 
L 459.453633 416.762624 
L 503.722363 360.309753 
L 517.973711 339.122062 
L 562.242442 224.055024 
" clip-path="url(#p9d84bb6b81)" style="fill: none; stroke: #2c728e; stroke-width: 1.2; stroke-linecap: square"/>
    <g clip-path="url(#p9d84bb6b81)">
     <use xlink:href="#mca094fbe1b" x="415.184902" y="438.716774" style="fill: #2c728e; stroke: #2c728e"/>
     <use xlink:href="#mca094fbe1b" x="459.453633" y="416.762624" style="fill: #2c728e; stroke: #2c728e"/>
     <use xlink:href="#mca094fbe1b" x="503.722363" y="360.309753" style="fill: #2c728e; stroke: #2c728e"/>
     <use xlink:href="#mca094fbe1b" x="517.973711" y="339.122062" style="fill: #2c728e; stroke: #2c728e"/>
     <use xlink:href="#mca094fbe1b" x="562.242442" y="224.055024" style="fill: #2c728e; stroke: #2c728e"/>
    </g>
   </g>
   <g id="line2d_59">
    <path d="M 415.184902 439.392361 
L 459.453633 394.419359 
L 503.722363 308.284924 
L 517.973711 259.724436 
L 562.242442 47.919455 
" clip-path="url(#p9d84bb6b81)" style="fill: none; stroke: #1e9c89; stroke-width: 1.2; stroke-linecap: square"/>
    <g clip-path="url(#p9d84bb6b81)">
     <use xlink:href="#mf8c56d0f57" x="415.184902" y="439.392361" style="fill: #1e9c89; stroke: #1e9c89"/>
     <use xlink:href="#mf8c56d0f57" x="459.453633" y="394.419359" style="fill: #1e9c89; stroke: #1e9c89"/>
     <use xlink:href="#mf8c56d0f57" x="503.722363" y="308.284924" style="fill: #1e9c89; stroke: #1e9c89"/>
     <use xlink:href="#mf8c56d0f57" x="517.973711" y="259.724436" style="fill: #1e9c89; stroke: #1e9c89"/>
     <use xlink:href="#mf8c56d0f57" x="562.242442" y="47.919455" style="fill: #1e9c89; stroke: #1e9c89"/>
    </g>
   </g>
   <g id="line2d_60">
    <path d="M 415.184902 447.789695 
L 459.453633 450.875398 
L 503.722363 449.431708 
L 517.973711 444.02882 
L 562.242442 424.002019 
" clip-path="url(#p9d84bb6b81)" style="fill: none; stroke: #50c46a; stroke-width: 1.2; stroke-linecap: square"/>
    <g clip-path="url(#p9d84bb6b81)">
     <use xlink:href="#me73bf56ce7" x="415.184902" y="447.789695" style="fill: #50c46a; stroke: #50c46a"/>
     <use xlink:href="#me73bf56ce7" x="459.453633" y="450.875398" style="fill: #50c46a; stroke: #50c46a"/>
     <use xlink:href="#me73bf56ce7" x="503.722363" y="449.431708" style="fill: #50c46a; stroke: #50c46a"/>
     <use xlink:href="#me73bf56ce7" x="517.973711" y="444.02882" style="fill: #50c46a; stroke: #50c46a"/>
     <use xlink:href="#me73bf56ce7" x="562.242442" y="424.002019" style="fill: #50c46a; stroke: #50c46a"/>
    </g>
   </g>
   <g id="line2d_61">
    <path d="M 415.184902 437.617897 
L 459.453633 413.500565 
L 503.722363 354.433224 
L 517.973711 326.492215 
L 562.242442 162.237535 
" clip-path="url(#p9d84bb6b81)" style="fill: none; stroke: #bddf26; stroke-width: 1.2; stroke-linecap: square"/>
    <g clip-path="url(#p9d84bb6b81)">
     <use xlink:href="#m5fe16719d0" x="415.184902" y="437.617897" style="fill: #bddf26; stroke: #bddf26"/>
     <use xlink:href="#m5fe16719d0" x="459.453633" y="413.500565" style="fill: #bddf26; stroke: #bddf26"/>
     <use xlink:href="#m5fe16719d0" x="503.722363" y="354.433224" style="fill: #bddf26; stroke: #bddf26"/>
     <use xlink:href="#m5fe16719d0" x="517.973711" y="326.492215" style="fill: #bddf26; stroke: #bddf26"/>
     <use xlink:href="#m5fe16719d0" x="562.242442" y="162.237535" style="fill: #bddf26; stroke: #bddf26"/>
    </g>
   </g>
   <g id="line2d_62">
    <path d="M 370.916171 442.800016 
L 382.12884 444.543764 
L 391.663839 446.026607 
L 399.958477 447.316555 
L 407.298626 448.458064 
L 413.881463 449.481799 
L 419.848745 450.409806 
L 425.305813 451.258467 
L 430.333083 452.040287 
L 434.993343 452.765031 
L 439.336552 453.440469 
L 443.403115 454.072884 
L 447.226176 454.66743 
L 450.833254 455.228388 
L 454.247454 455.75935 
L 457.488361 456.263363 
L 460.57272 456.743029 
L 463.51496 457.200594 
L 466.327603 457.638005 
L 469.021585 458.056961 
L 471.606516 458.458959 
L 474.090881 458.845317 
L 476.482213 459.217207 
L 478.787229 459.575674 
L 481.011944 459.921652 
L 483.161765 460.255983 
L 485.24157 460.579426 
L 487.255778 460.892667 
L 489.208398 461.196331 
L 491.103087 461.490985 
L 492.943183 461.777149 
L 494.731744 462.055298 
L 496.471578 462.32587 
L 498.16527 462.589266 
L 499.815205 462.845857 
L 501.423586 463.095986 
L 502.992455 463.33997 
L 504.523707 463.578104 
L 506.019104 463.810662 
L 507.480287 464.037899 
L 508.908786 464.260053 
L 510.306031 464.477347 
L 511.673362 464.689988 
L 513.012031 464.898172 
L 514.323216 465.102082 
L 515.608023 465.30189 
L 516.867493 465.497758 
L 518.102604 465.689837 
L 519.314282 465.878272 
L 520.5034 466.063199 
L 521.670781 466.244745 
L 522.817207 466.423033 
L 523.943417 466.598176 
L 525.05011 466.770284 
L 526.137953 466.939461 
L 527.207576 467.105804 
L 528.259581 467.269408 
L 529.294536 467.43036 
L 530.312988 467.588745 
L 531.315453 467.744644 
L 532.302426 467.898134 
L 533.274379 468.049288 
L 534.231761 468.198176 
L 535.175004 468.344866 
L 536.104518 468.48942 
L 537.020697 468.6319 
L 537.92392 468.772366 
L 538.814547 468.910872 
L 539.692924 469.047474 
L 540.559385 469.182222 
L 541.414247 469.315167 
L 542.257818 469.446355 
L 543.090392 469.575834 
L 543.912252 469.703646 
L 544.72367 469.829834 
L 545.524908 469.95444 
L 546.316219 470.077501 
L 547.097845 470.199056 
L 547.87002 470.319142 
L 548.632972 470.437793 
L 549.386916 470.555043 
L 550.132064 470.670925 
L 550.868618 470.785471 
L 551.596774 470.898711 
L 552.316722 471.010674 
L 553.028644 471.121389 
L 553.732718 471.230884 
L 554.429115 471.339185 
L 555.118 471.446317 
L 555.799534 471.552307 
L 556.473871 471.657177 
L 557.141163 471.760951 
L 557.801555 471.863653 
L 558.455188 471.965303 
L 559.1022 472.065923 
L 559.742722 472.165535 
L 560.376884 472.264157 
L 561.004811 472.36181 
L 561.626625 472.458511 
L 562.242442 472.554281 
" clip-path="url(#p9d84bb6b81)" style="fill: none; stroke-dasharray: 4.44,1.92; stroke-dashoffset: 0; stroke: #000000; stroke-opacity: 0.7; stroke-width: 1.2"/>
   </g>
   <g id="line2d_63">
    <path d="M 370.916171 442.800016 
L 382.12884 446.287511 
L 391.663839 449.253198 
L 399.958477 451.833093 
L 407.298626 454.116112 
L 413.881463 456.163583 
L 419.848745 458.019596 
L 425.305813 459.716917 
L 430.333083 461.280557 
L 434.993343 462.730046 
L 439.336552 464.080921 
L 443.403115 465.345751 
L 447.226176 466.534844 
L 450.833254 467.65676 
L 454.247454 468.718684 
L 457.488361 469.726709 
L 460.57272 470.686042 
L 463.51496 471.601172 
L 466.327603 472.475993 
L 469.021585 473.313907 
L 471.606516 474.117902 
L 474.090881 474.890618 
L 476.482213 475.634398 
L 478.787229 476.351331 
L 481.011944 477.043288 
L 483.161765 477.71195 
L 485.24157 478.358836 
L 487.255778 478.985318 
L 489.208398 479.592645 
L 491.103087 480.181953 
L 492.943183 480.754281 
L 494.731744 481.31058 
L 496.471578 481.851724 
L 498.16527 482.378516 
L 499.815205 482.891698 
L 501.423586 483.391955 
L 502.992455 483.879923 
L 504.523707 484.356191 
L 506.019104 484.821307 
L 507.480287 485.275781 
L 508.908786 485.720089 
L 510.306031 486.154677 
L 511.673362 486.57996 
L 513.012031 486.996329 
L 514.323216 487.404149 
L 515.608023 487.803764 
L 516.867493 488.195499 
L 518.102604 488.579658 
L 519.314282 488.956528 
L 520.5034 489.326381 
L 521.670781 489.689474 
L 522.817207 490.046049 
L 523.943417 490.396336 
L 525.05011 490.740552 
L 526.137953 491.078906 
L 527.207576 491.411593 
L 528.259581 491.738799 
L 529.294536 492.060703 
L 530.312988 492.377474 
L 531.315453 492.689273 
L 532.302426 492.996252 
L 533.274379 493.29856 
L 534.231761 493.596337 
L 535.175004 493.889715 
L 536.104518 494.178823 
L 537.020697 494.463784 
L 537.92392 494.744715 
L 538.814547 495.021728 
L 539.692924 495.294931 
L 540.559385 495.564428 
L 541.414247 495.830317 
L 542.257818 496.092695 
L 543.090392 496.351651 
L 543.912252 496.607276 
L 544.72367 496.859653 
L 545.524908 497.108863 
L 546.316219 497.354986 
L 547.097845 497.598096 
L 547.87002 497.838267 
L 548.632972 498.075569 
L 549.386916 498.31007 
L 550.132064 498.541834 
L 550.868618 498.770926 
L 551.596774 498.997405 
L 552.316722 499.221332 
L 553.028644 499.442763 
L 553.732718 499.661752 
L 554.429115 499.878353 
L 555.118 500.092618 
L 555.799534 500.304597 
L 556.473871 500.514337 
L 557.141163 500.721886 
L 557.801555 500.927289 
L 558.455188 501.13059 
L 559.1022 501.331831 
L 559.742722 501.531053 
L 560.376884 501.728298 
L 561.004811 501.923603 
L 561.626625 502.117007 
L 562.242442 502.308545 
" clip-path="url(#p9d84bb6b81)" style="fill: none; stroke-dasharray: 1,1.65; stroke-dashoffset: 0; stroke: #000000; stroke-opacity: 0.5"/>
   </g>
   <g id="patch_9">
    <path d="M 326.64744 525.028 
L 326.64744 25.2 
" style="fill: none; stroke: #000000; stroke-width: 0.8; stroke-linejoin: miter; stroke-linecap: square"/>
   </g>
   <g id="patch_10">
    <path d="M 571.808756 525.028 
L 571.808756 25.2 
" style="fill: none; stroke: #000000; stroke-width: 0.8; stroke-linejoin: miter; stroke-linecap: square"/>
   </g>
   <g id="patch_11">
    <path d="M 326.64744 525.028 
L 571.808756 525.028 
" style="fill: none; stroke: #000000; stroke-width: 0.8; stroke-linejoin: miter; stroke-linecap: square"/>
   </g>
   <g id="patch_12">
    <path d="M 326.64744 25.2 
L 571.808756 25.2 
" style="fill: none; stroke: #000000; stroke-width: 0.8; stroke-linejoin: miter; stroke-linecap: square"/>
   </g>
   <g id="text_23">
    <!-- Parity $\Pi_S$ -->
    <g transform="translate(422.588098 19.2) scale(0.12 -0.12)">
     <defs>
      <path id="DejaVuSans-50" d="M 1259 4147 
L 1259 2394 
L 2053 2394 
Q 2494 2394 2734 2622 
Q 2975 2850 2975 3272 
Q 2975 3691 2734 3919 
Q 2494 4147 2053 4147 
L 1259 4147 
z
M 628 4666 
L 2053 4666 
Q 2838 4666 3239 4311 
Q 3641 3956 3641 3272 
Q 3641 2581 3239 2228 
Q 2838 1875 2053 1875 
L 1259 1875 
L 1259 0 
L 628 0 
L 628 4666 
z
" transform="scale(0.015625)"/>
      <path id="DejaVuSans-74" d="M 1172 4494 
L 1172 3500 
L 2356 3500 
L 2356 3053 
L 1172 3053 
L 1172 1153 
Q 1172 725 1289 603 
Q 1406 481 1766 481 
L 2356 481 
L 2356 0 
L 1766 0 
Q 1100 0 847 248 
Q 594 497 594 1153 
L 594 3053 
L 172 3053 
L 172 3500 
L 594 3500 
L 594 4494 
L 1172 4494 
z
" transform="scale(0.015625)"/>
      <path id="DejaVuSans-79" d="M 2059 -325 
Q 1816 -950 1584 -1140 
Q 1353 -1331 966 -1331 
L 506 -1331 
L 506 -850 
L 844 -850 
Q 1081 -850 1212 -737 
Q 1344 -625 1503 -206 
L 1606 56 
L 191 3500 
L 800 3500 
L 1894 763 
L 2988 3500 
L 3597 3500 
L 2059 -325 
z
" transform="scale(0.015625)"/>
     </defs>
     <use xlink:href="#DejaVuSans-50" transform="translate(0 0.015625)"/>
     <use xlink:href="#DejaVuSans-61" transform="translate(60.302734 0.015625)"/>
     <use xlink:href="#DejaVuSans-72" transform="translate(121.582031 0.015625)"/>
     <use xlink:href="#DejaVuSans-69" transform="translate(162.695312 0.015625)"/>
     <use xlink:href="#DejaVuSans-74" transform="translate(190.478516 0.015625)"/>
     <use xlink:href="#DejaVuSans-79" transform="translate(229.6875 0.015625)"/>
     <use xlink:href="#DejaVuSans-20" transform="translate(288.867188 0.015625)"/>
     <use xlink:href="#DejaVuSans-3a0" transform="translate(320.654297 0.015625)"/>
     <use xlink:href="#DejaVuSans-Oblique-53" transform="translate(396.806641 -16.390625) scale(0.7)"/>
    </g>
   </g>
   <g id="legend_2">
    <g id="patch_13">
     <path d="M 331.54744 115.900937 
L 379.56744 115.900937 
Q 380.96744 115.900937 380.96744 114.500937 
L 380.96744 30.1 
Q 380.96744 28.7 379.56744 28.7 
L 331.54744 28.7 
Q 330.14744 28.7 330.14744 30.1 
L 330.14744 114.500937 
Q 330.14744 115.900937 331.54744 115.900937 
z
" style="fill: #ffffff; opacity: 0.8; stroke: #cccccc; stroke-linejoin: miter"/>
    </g>
    <g id="text_24">
     <!-- $\omega$ -->
     <g transform="translate(351.35744 39.098437) scale(0.1 -0.1)">
      <use xlink:href="#DejaVuSans-Oblique-3c9" transform="translate(0 0.3125)"/>
     </g>
    </g>
    <g id="line2d_64">
     <path d="M 332.94744 47.547031 
L 339.94744 47.547031 
L 346.94744 47.547031 
" style="fill: none; stroke: #414487; stroke-width: 1.2; stroke-linecap: square"/>
     <g>
      <use xlink:href="#m588d139f4c" x="339.94744" y="47.547031" style="fill: #414487; stroke: #414487"/>
     </g>
    </g>
    <g id="text_25">
     <!-- $\omega=0.1$ -->
     <g transform="translate(352.54744 49.997031) scale(0.07 -0.07)">
      <use xlink:href="#DejaVuSans-Oblique-3c9" transform="translate(0 0.78125)"/>
      <use xlink:href="#DejaVuSans-3d" transform="translate(103.222656 0.78125)"/>
      <use xlink:href="#DejaVuSans-30" transform="translate(206.494141 0.78125)"/>
      <use xlink:href="#DejaVuSans-2e" transform="translate(270.117188 0.78125)"/>
      <use xlink:href="#DejaVuSans-31" transform="translate(301.904297 0.78125)"/>
     </g>
    </g>
    <g id="line2d_65">
     <path d="M 332.94744 57.821719 
L 339.94744 57.821719 
L 346.94744 57.821719 
" style="fill: none; stroke: #2c728e; stroke-width: 1.2; stroke-linecap: square"/>
     <g>
      <use xlink:href="#mca094fbe1b" x="339.94744" y="57.821719" style="fill: #2c728e; stroke: #2c728e"/>
     </g>
    </g>
    <g id="text_26">
     <!-- $\omega=0.2$ -->
     <g transform="translate(352.54744 60.271719) scale(0.07 -0.07)">
      <use xlink:href="#DejaVuSans-Oblique-3c9" transform="translate(0 0.78125)"/>
      <use xlink:href="#DejaVuSans-3d" transform="translate(103.222656 0.78125)"/>
      <use xlink:href="#DejaVuSans-30" transform="translate(206.494141 0.78125)"/>
      <use xlink:href="#DejaVuSans-2e" transform="translate(270.117188 0.78125)"/>
      <use xlink:href="#DejaVuSans-32" transform="translate(296.404297 0.78125)"/>
     </g>
    </g>
    <g id="line2d_66">
     <path d="M 332.94744 68.096406 
L 339.94744 68.096406 
L 346.94744 68.096406 
" style="fill: none; stroke: #1e9c89; stroke-width: 1.2; stroke-linecap: square"/>
     <g>
      <use xlink:href="#mf8c56d0f57" x="339.94744" y="68.096406" style="fill: #1e9c89; stroke: #1e9c89"/>
     </g>
    </g>
    <g id="text_27">
     <!-- $\omega=0.5$ -->
     <g transform="translate(352.54744 70.546406) scale(0.07 -0.07)">
      <use xlink:href="#DejaVuSans-Oblique-3c9" transform="translate(0 0.78125)"/>
      <use xlink:href="#DejaVuSans-3d" transform="translate(103.222656 0.78125)"/>
      <use xlink:href="#DejaVuSans-30" transform="translate(206.494141 0.78125)"/>
      <use xlink:href="#DejaVuSans-2e" transform="translate(270.117188 0.78125)"/>
      <use xlink:href="#DejaVuSans-35" transform="translate(301.904297 0.78125)"/>
     </g>
    </g>
    <g id="line2d_67">
     <path d="M 332.94744 78.371094 
L 339.94744 78.371094 
L 346.94744 78.371094 
" style="fill: none; stroke: #50c46a; stroke-width: 1.2; stroke-linecap: square"/>
     <g>
      <use xlink:href="#me73bf56ce7" x="339.94744" y="78.371094" style="fill: #50c46a; stroke: #50c46a"/>
     </g>
    </g>
    <g id="text_28">
     <!-- $\omega=1.0$ -->
     <g transform="translate(352.54744 80.821094) scale(0.07 -0.07)">
      <use xlink:href="#DejaVuSans-Oblique-3c9" transform="translate(0 0.78125)"/>
      <use xlink:href="#DejaVuSans-3d" transform="translate(103.222656 0.78125)"/>
      <use xlink:href="#DejaVuSans-31" transform="translate(206.494141 0.78125)"/>
      <use xlink:href="#DejaVuSans-2e" transform="translate(270.117188 0.78125)"/>
      <use xlink:href="#DejaVuSans-30" transform="translate(301.904297 0.78125)"/>
     </g>
    </g>
    <g id="line2d_68">
     <path d="M 332.94744 88.645781 
L 339.94744 88.645781 
L 346.94744 88.645781 
" style="fill: none; stroke: #bddf26; stroke-width: 1.2; stroke-linecap: square"/>
     <g>
      <use xlink:href="#m5fe16719d0" x="339.94744" y="88.645781" style="fill: #bddf26; stroke: #bddf26"/>
     </g>
    </g>
    <g id="text_29">
     <!-- $\omega=2.0$ -->
     <g transform="translate(352.54744 91.095781) scale(0.07 -0.07)">
      <use xlink:href="#DejaVuSans-Oblique-3c9" transform="translate(0 0.78125)"/>
      <use xlink:href="#DejaVuSans-3d" transform="translate(103.222656 0.78125)"/>
      <use xlink:href="#DejaVuSans-32" transform="translate(206.494141 0.78125)"/>
      <use xlink:href="#DejaVuSans-2e" transform="translate(270.117188 0.78125)"/>
      <use xlink:href="#DejaVuSans-30" transform="translate(301.904297 0.78125)"/>
     </g>
    </g>
    <g id="line2d_69">
     <path d="M 332.94744 98.920469 
L 339.94744 98.920469 
L 346.94744 98.920469 
" style="fill: none; stroke-dasharray: 4.44,1.92; stroke-dashoffset: 0; stroke: #000000; stroke-opacity: 0.7; stroke-width: 1.2"/>
    </g>
    <g id="text_30">
     <!-- SQL -->
     <g transform="translate(352.54744 101.370469) scale(0.07 -0.07)">
      <use xlink:href="#DejaVuSans-53"/>
      <use xlink:href="#DejaVuSans-51" transform="translate(63.476562 0)"/>
      <use xlink:href="#DejaVuSans-4c" transform="translate(142.1875 0)"/>
     </g>
    </g>
    <g id="line2d_70">
     <path d="M 332.94744 109.195156 
L 339.94744 109.195156 
L 346.94744 109.195156 
" style="fill: none; stroke-dasharray: 1,1.65; stroke-dashoffset: 0; stroke: #000000; stroke-opacity: 0.5"/>
    </g>
    <g id="text_31">
     <!-- HL -->
     <g transform="translate(352.54744 111.645156) scale(0.07 -0.07)">
      <use xlink:href="#DejaVuSans-48"/>
      <use xlink:href="#DejaVuSans-4c" transform="translate(75.195312 0)"/>
     </g>
    </g>
   </g>
  </g>
  <g id="axes_3">
   <g id="patch_14">
    <path d="M 601.916756 525.028 
L 847.078071 525.028 
L 847.078071 25.2 
L 601.916756 25.2 
z
" style="fill: #ffffff"/>
   </g>
   <g id="matplotlib.axis_5">
    <g id="xtick_33">
     <g id="line2d_71">
      <g>
       <use xlink:href="#m2a744c28ae" x="646.185486" y="525.028" style="stroke: #000000; stroke-width: 0.8"/>
      </g>
     </g>
     <g id="text_32">
      <!-- $\mathdefault{10^{0}}$ -->
      <g transform="translate(637.385486 539.626437) scale(0.1 -0.1)">
       <use xlink:href="#DejaVuSans-31" transform="translate(0 0.765625)"/>
       <use xlink:href="#DejaVuSans-30" transform="translate(63.623047 0.765625)"/>
       <use xlink:href="#DejaVuSans-30" transform="translate(128.203125 39.046875) scale(0.7)"/>
      </g>
     </g>
    </g>
    <g id="xtick_34">
     <g id="line2d_72">
      <g>
       <use xlink:href="#m2a744c28ae" x="793.243027" y="525.028" style="stroke: #000000; stroke-width: 0.8"/>
      </g>
     </g>
     <g id="text_33">
      <!-- $\mathdefault{10^{1}}$ -->
      <g transform="translate(784.443027 539.626437) scale(0.1 -0.1)">
       <use xlink:href="#DejaVuSans-31" transform="translate(0 0.684375)"/>
       <use xlink:href="#DejaVuSans-30" transform="translate(63.623047 0.684375)"/>
       <use xlink:href="#DejaVuSans-31" transform="translate(128.203125 38.965625) scale(0.7)"/>
      </g>
     </g>
    </g>
    <g id="xtick_35">
     <g id="line2d_73">
      <g>
       <use xlink:href="#mc4ac617ce7" x="601.916756" y="525.028" style="stroke: #000000; stroke-width: 0.6"/>
      </g>
     </g>
    </g>
    <g id="xtick_36">
     <g id="line2d_74">
      <g>
       <use xlink:href="#mc4ac617ce7" x="613.560955" y="525.028" style="stroke: #000000; stroke-width: 0.6"/>
      </g>
     </g>
    </g>
    <g id="xtick_37">
     <g id="line2d_75">
      <g>
       <use xlink:href="#mc4ac617ce7" x="623.405985" y="525.028" style="stroke: #000000; stroke-width: 0.6"/>
      </g>
     </g>
    </g>
    <g id="xtick_38">
     <g id="line2d_76">
      <g>
       <use xlink:href="#mc4ac617ce7" x="631.934138" y="525.028" style="stroke: #000000; stroke-width: 0.6"/>
      </g>
     </g>
    </g>
    <g id="xtick_39">
     <g id="line2d_77">
      <g>
       <use xlink:href="#mc4ac617ce7" x="639.456502" y="525.028" style="stroke: #000000; stroke-width: 0.6"/>
      </g>
     </g>
    </g>
    <g id="xtick_40">
     <g id="line2d_78">
      <g>
       <use xlink:href="#mc4ac617ce7" x="690.454217" y="525.028" style="stroke: #000000; stroke-width: 0.6"/>
      </g>
     </g>
    </g>
    <g id="xtick_41">
     <g id="line2d_79">
      <g>
       <use xlink:href="#mc4ac617ce7" x="716.349765" y="525.028" style="stroke: #000000; stroke-width: 0.6"/>
      </g>
     </g>
    </g>
    <g id="xtick_42">
     <g id="line2d_80">
      <g>
       <use xlink:href="#mc4ac617ce7" x="734.722948" y="525.028" style="stroke: #000000; stroke-width: 0.6"/>
      </g>
     </g>
    </g>
    <g id="xtick_43">
     <g id="line2d_81">
      <g>
       <use xlink:href="#mc4ac617ce7" x="748.974296" y="525.028" style="stroke: #000000; stroke-width: 0.6"/>
      </g>
     </g>
    </g>
    <g id="xtick_44">
     <g id="line2d_82">
      <g>
       <use xlink:href="#mc4ac617ce7" x="760.618495" y="525.028" style="stroke: #000000; stroke-width: 0.6"/>
      </g>
     </g>
    </g>
    <g id="xtick_45">
     <g id="line2d_83">
      <g>
       <use xlink:href="#mc4ac617ce7" x="770.463526" y="525.028" style="stroke: #000000; stroke-width: 0.6"/>
      </g>
     </g>
    </g>
    <g id="xtick_46">
     <g id="line2d_84">
      <g>
       <use xlink:href="#mc4ac617ce7" x="778.991679" y="525.028" style="stroke: #000000; stroke-width: 0.6"/>
      </g>
     </g>
    </g>
    <g id="xtick_47">
     <g id="line2d_85">
      <g>
       <use xlink:href="#mc4ac617ce7" x="786.514043" y="525.028" style="stroke: #000000; stroke-width: 0.6"/>
      </g>
     </g>
    </g>
    <g id="xtick_48">
     <g id="line2d_86">
      <g>
       <use xlink:href="#mc4ac617ce7" x="837.511758" y="525.028" style="stroke: #000000; stroke-width: 0.6"/>
      </g>
     </g>
    </g>
    <g id="text_34">
     <!-- $N$ -->
     <g transform="translate(720.747413 553.304562) scale(0.1 -0.1)">
      <use xlink:href="#DejaVuSans-Oblique-4e" transform="translate(0 0.09375)"/>
     </g>
    </g>
   </g>
   <g id="matplotlib.axis_6">
    <g id="ytick_11">
     <g id="line2d_87">
      <g>
       <use xlink:href="#ma334ad5028" x="601.916756" y="442.800016" style="stroke: #000000; stroke-width: 0.8"/>
      </g>
     </g>
    </g>
    <g id="ytick_12">
     <g id="line2d_88">
      <g>
       <use xlink:href="#ma334ad5028" x="601.916756" y="351.320912" style="stroke: #000000; stroke-width: 0.8"/>
      </g>
     </g>
    </g>
    <g id="ytick_13">
     <g id="line2d_89">
      <g>
       <use xlink:href="#ma334ad5028" x="601.916756" y="259.841808" style="stroke: #000000; stroke-width: 0.8"/>
      </g>
     </g>
    </g>
    <g id="ytick_14">
     <g id="line2d_90">
      <g>
       <use xlink:href="#ma334ad5028" x="601.916756" y="168.362704" style="stroke: #000000; stroke-width: 0.8"/>
      </g>
     </g>
    </g>
    <g id="ytick_15">
     <g id="line2d_91">
      <g>
       <use xlink:href="#ma334ad5028" x="601.916756" y="76.883599" style="stroke: #000000; stroke-width: 0.8"/>
      </g>
     </g>
    </g>
    <g id="text_35">
     <!-- $\Delta\omega_{\mathrm{CFI}}$ -->
     <g transform="translate(592.337068 288.364) rotate(-90) scale(0.1 -0.1)">
      <defs>
       <path id="DejaVuSans-43" d="M 4122 4306 
L 4122 3641 
Q 3803 3938 3442 4084 
Q 3081 4231 2675 4231 
Q 1875 4231 1450 3742 
Q 1025 3253 1025 2328 
Q 1025 1406 1450 917 
Q 1875 428 2675 428 
Q 3081 428 3442 575 
Q 3803 722 4122 1019 
L 4122 359 
Q 3791 134 3420 21 
Q 3050 -91 2638 -91 
Q 1578 -91 968 557 
Q 359 1206 359 2328 
Q 359 3453 968 4101 
Q 1578 4750 2638 4750 
Q 3056 4750 3426 4639 
Q 3797 4528 4122 4306 
z
" transform="scale(0.015625)"/>
       <path id="DejaVuSans-46" d="M 628 4666 
L 3309 4666 
L 3309 4134 
L 1259 4134 
L 1259 2759 
L 3109 2759 
L 3109 2228 
L 1259 2228 
L 1259 0 
L 628 0 
L 628 4666 
z
" transform="scale(0.015625)"/>
       <path id="DejaVuSans-49" d="M 628 4666 
L 1259 4666 
L 1259 0 
L 628 0 
L 628 4666 
z
" transform="scale(0.015625)"/>
      </defs>
      <use xlink:href="#DejaVuSans-394" transform="translate(0 0.09375)"/>
      <use xlink:href="#DejaVuSans-Oblique-3c9" transform="translate(68.408203 0.09375)"/>
      <use xlink:href="#DejaVuSans-43" transform="translate(152.148438 -16.3125) scale(0.7)"/>
      <use xlink:href="#DejaVuSans-46" transform="translate(201.025391 -16.3125) scale(0.7)"/>
      <use xlink:href="#DejaVuSans-49" transform="translate(241.289062 -16.3125) scale(0.7)"/>
     </g>
    </g>
   </g>
   <g id="line2d_92">
    <path d="M 646.185486 450.277976 
L 690.454217 451.552372 
L 716.349765 453.711673 
L 734.722948 460.472444 
L 748.974296 458.785304 
L 778.991679 466.345812 
L 793.243027 468.097916 
L 819.138574 469.69696 
L 837.511758 471.306188 
" clip-path="url(#pffea70cf55)" style="fill: none; stroke: #414487; stroke-width: 1.2; stroke-linecap: square"/>
    <g clip-path="url(#pffea70cf55)">
     <use xlink:href="#m588d139f4c" x="646.185486" y="450.277976" style="fill: #414487; stroke: #414487"/>
     <use xlink:href="#m588d139f4c" x="690.454217" y="451.552372" style="fill: #414487; stroke: #414487"/>
     <use xlink:href="#m588d139f4c" x="716.349765" y="453.711673" style="fill: #414487; stroke: #414487"/>
     <use xlink:href="#m588d139f4c" x="734.722948" y="460.472444" style="fill: #414487; stroke: #414487"/>
     <use xlink:href="#m588d139f4c" x="748.974296" y="458.785304" style="fill: #414487; stroke: #414487"/>
     <use xlink:href="#m588d139f4c" x="778.991679" y="466.345812" style="fill: #414487; stroke: #414487"/>
     <use xlink:href="#m588d139f4c" x="793.243027" y="468.097916" style="fill: #414487; stroke: #414487"/>
     <use xlink:href="#m588d139f4c" x="819.138574" y="469.69696" style="fill: #414487; stroke: #414487"/>
     <use xlink:href="#m588d139f4c" x="837.511758" y="471.306188" style="fill: #414487; stroke: #414487"/>
    </g>
   </g>
   <g id="line2d_93">
    <path d="M 646.185486 441.663228 
L 690.454217 448.491901 
L 716.349765 452.477718 
L 734.722948 457.128822 
L 748.974296 459.425112 
L 778.991679 463.453481 
L 793.243027 465.320645 
L 819.138574 469.537086 
L 837.511758 472.753179 
" clip-path="url(#pffea70cf55)" style="fill: none; stroke: #2c728e; stroke-width: 1.2; stroke-linecap: square"/>
    <g clip-path="url(#pffea70cf55)">
     <use xlink:href="#mca094fbe1b" x="646.185486" y="441.663228" style="fill: #2c728e; stroke: #2c728e"/>
     <use xlink:href="#mca094fbe1b" x="690.454217" y="448.491901" style="fill: #2c728e; stroke: #2c728e"/>
     <use xlink:href="#mca094fbe1b" x="716.349765" y="452.477718" style="fill: #2c728e; stroke: #2c728e"/>
     <use xlink:href="#mca094fbe1b" x="734.722948" y="457.128822" style="fill: #2c728e; stroke: #2c728e"/>
     <use xlink:href="#mca094fbe1b" x="748.974296" y="459.425112" style="fill: #2c728e; stroke: #2c728e"/>
     <use xlink:href="#mca094fbe1b" x="778.991679" y="463.453481" style="fill: #2c728e; stroke: #2c728e"/>
     <use xlink:href="#mca094fbe1b" x="793.243027" y="465.320645" style="fill: #2c728e; stroke: #2c728e"/>
     <use xlink:href="#mca094fbe1b" x="819.138574" y="469.537086" style="fill: #2c728e; stroke: #2c728e"/>
     <use xlink:href="#mca094fbe1b" x="837.511758" y="472.753179" style="fill: #2c728e; stroke: #2c728e"/>
    </g>
   </g>
   <g id="line2d_94">
    <path d="M 646.185486 442.800016 
L 690.454217 467.959514 
L 716.349765 453.711673 
L 734.722948 456.568994 
L 748.974296 458.785303 
L 778.991679 463.98131 
L 793.243027 466.583794 
L 819.138574 470.698384 
L 837.511758 473.539518 
" clip-path="url(#pffea70cf55)" style="fill: none; stroke: #1e9c89; stroke-width: 1.2; stroke-linecap: square"/>
    <g clip-path="url(#pffea70cf55)">
     <use xlink:href="#mf8c56d0f57" x="646.185486" y="442.800016" style="fill: #1e9c89; stroke: #1e9c89"/>
     <use xlink:href="#mf8c56d0f57" x="690.454217" y="467.959514" style="fill: #1e9c89; stroke: #1e9c89"/>
     <use xlink:href="#mf8c56d0f57" x="716.349765" y="453.711673" style="fill: #1e9c89; stroke: #1e9c89"/>
     <use xlink:href="#mf8c56d0f57" x="734.722948" y="456.568994" style="fill: #1e9c89; stroke: #1e9c89"/>
     <use xlink:href="#mf8c56d0f57" x="748.974296" y="458.785303" style="fill: #1e9c89; stroke: #1e9c89"/>
     <use xlink:href="#mf8c56d0f57" x="778.991679" y="463.98131" style="fill: #1e9c89; stroke: #1e9c89"/>
     <use xlink:href="#mf8c56d0f57" x="793.243027" y="466.583794" style="fill: #1e9c89; stroke: #1e9c89"/>
     <use xlink:href="#mf8c56d0f57" x="819.138574" y="470.698384" style="fill: #1e9c89; stroke: #1e9c89"/>
     <use xlink:href="#mf8c56d0f57" x="837.511758" y="473.539518" style="fill: #1e9c89; stroke: #1e9c89"/>
    </g>
   </g>
   <g id="line2d_95">
    <path d="M 646.185486 456.839958 
L 690.454217 449.684503 
L 716.349765 453.710253 
L 734.722948 456.853131 
L 748.974296 458.789469 
L 778.991679 464.463815 
L 793.243027 465.251725 
L 819.138574 469.679486 
L 837.511758 472.554281 
" clip-path="url(#pffea70cf55)" style="fill: none; stroke: #50c46a; stroke-width: 1.2; stroke-linecap: square"/>
    <g clip-path="url(#pffea70cf55)">
     <use xlink:href="#me73bf56ce7" x="646.185486" y="456.839958" style="fill: #50c46a; stroke: #50c46a"/>
     <use xlink:href="#me73bf56ce7" x="690.454217" y="449.684503" style="fill: #50c46a; stroke: #50c46a"/>
     <use xlink:href="#me73bf56ce7" x="716.349765" y="453.710253" style="fill: #50c46a; stroke: #50c46a"/>
     <use xlink:href="#me73bf56ce7" x="734.722948" y="456.853131" style="fill: #50c46a; stroke: #50c46a"/>
     <use xlink:href="#me73bf56ce7" x="748.974296" y="458.789469" style="fill: #50c46a; stroke: #50c46a"/>
     <use xlink:href="#me73bf56ce7" x="778.991679" y="464.463815" style="fill: #50c46a; stroke: #50c46a"/>
     <use xlink:href="#me73bf56ce7" x="793.243027" y="465.251725" style="fill: #50c46a; stroke: #50c46a"/>
     <use xlink:href="#me73bf56ce7" x="819.138574" y="469.679486" style="fill: #50c46a; stroke: #50c46a"/>
     <use xlink:href="#me73bf56ce7" x="837.511758" y="472.554281" style="fill: #50c46a; stroke: #50c46a"/>
    </g>
   </g>
   <g id="line2d_96">
    <path d="M 646.185486 454.549665 
L 690.454217 450.061922 
L 716.349765 453.711673 
L 734.722948 455.552303 
L 748.974296 457.764533 
L 778.991679 462.530853 
L 793.243027 465.669792 
L 819.138574 470.229235 
L 837.511758 472.568224 
" clip-path="url(#pffea70cf55)" style="fill: none; stroke: #bddf26; stroke-width: 1.2; stroke-linecap: square"/>
    <g clip-path="url(#pffea70cf55)">
     <use xlink:href="#m5fe16719d0" x="646.185486" y="454.549665" style="fill: #bddf26; stroke: #bddf26"/>
     <use xlink:href="#m5fe16719d0" x="690.454217" y="450.061922" style="fill: #bddf26; stroke: #bddf26"/>
     <use xlink:href="#m5fe16719d0" x="716.349765" y="453.711673" style="fill: #bddf26; stroke: #bddf26"/>
     <use xlink:href="#m5fe16719d0" x="734.722948" y="455.552303" style="fill: #bddf26; stroke: #bddf26"/>
     <use xlink:href="#m5fe16719d0" x="748.974296" y="457.764533" style="fill: #bddf26; stroke: #bddf26"/>
     <use xlink:href="#m5fe16719d0" x="778.991679" y="462.530853" style="fill: #bddf26; stroke: #bddf26"/>
     <use xlink:href="#m5fe16719d0" x="793.243027" y="465.669792" style="fill: #bddf26; stroke: #bddf26"/>
     <use xlink:href="#m5fe16719d0" x="819.138574" y="470.229235" style="fill: #bddf26; stroke: #bddf26"/>
     <use xlink:href="#m5fe16719d0" x="837.511758" y="472.568224" style="fill: #bddf26; stroke: #bddf26"/>
    </g>
   </g>
   <g id="line2d_97">
    <path d="M 646.185486 442.800016 
L 657.398155 444.543764 
L 666.933154 446.026607 
L 675.227792 447.316555 
L 682.567942 448.458064 
L 689.150779 449.481799 
L 695.118061 450.409806 
L 700.575128 451.258467 
L 705.602398 452.040287 
L 710.262658 452.765031 
L 714.605867 453.440469 
L 718.672431 454.072884 
L 722.495491 454.66743 
L 726.102569 455.228388 
L 729.51677 455.75935 
L 732.757677 456.263363 
L 735.842035 456.743029 
L 738.784275 457.200594 
L 741.596918 457.638005 
L 744.290901 458.056961 
L 746.875831 458.458959 
L 749.360196 458.845317 
L 751.751528 459.217207 
L 754.056544 459.575674 
L 756.281259 459.921652 
L 758.43108 460.255983 
L 760.510886 460.579426 
L 762.525093 460.892667 
L 764.477714 461.196331 
L 766.372403 461.490985 
L 768.212499 461.777149 
L 770.00106 462.055298 
L 771.740894 462.32587 
L 773.434586 462.589266 
L 775.08452 462.845857 
L 776.692901 463.095986 
L 778.26177 463.33997 
L 779.793023 463.578104 
L 781.28842 463.810662 
L 782.749602 464.037899 
L 784.178101 464.260053 
L 785.575347 464.477347 
L 786.942677 464.689988 
L 788.281346 464.898172 
L 789.592532 465.102082 
L 790.877339 465.30189 
L 792.136808 465.497758 
L 793.371919 465.689837 
L 794.583598 465.878272 
L 795.772715 466.063199 
L 796.940097 466.244745 
L 798.086522 466.423033 
L 799.212732 466.598176 
L 800.319426 466.770284 
L 801.407268 466.939461 
L 802.476892 467.105804 
L 803.528896 467.269408 
L 804.563852 467.43036 
L 805.582303 467.588745 
L 806.584769 467.744644 
L 807.571742 467.898134 
L 808.543694 468.049288 
L 809.501077 468.198176 
L 810.444319 468.344866 
L 811.373833 468.48942 
L 812.290013 468.6319 
L 813.193235 468.772366 
L 814.083862 468.910872 
L 814.96224 469.047474 
L 815.8287 469.182222 
L 816.683563 469.315167 
L 817.527134 469.446355 
L 818.359708 469.575834 
L 819.181567 469.703646 
L 819.992985 469.829834 
L 820.794224 469.95444 
L 821.585534 470.077501 
L 822.36716 470.199056 
L 823.139336 470.319142 
L 823.902287 470.437793 
L 824.656231 470.555043 
L 825.401379 470.670925 
L 826.137933 470.785471 
L 826.866089 470.898711 
L 827.586037 471.010674 
L 828.29796 471.121389 
L 829.002034 471.230884 
L 829.69843 471.339185 
L 830.387315 471.446317 
L 831.068849 471.552307 
L 831.743187 471.657177 
L 832.410479 471.760951 
L 833.070871 471.863653 
L 833.724504 471.965303 
L 834.371515 472.065923 
L 835.012037 472.165535 
L 835.646199 472.264157 
L 836.274126 472.36181 
L 836.89594 472.458511 
L 837.511758 472.554281 
" clip-path="url(#pffea70cf55)" style="fill: none; stroke-dasharray: 4.44,1.92; stroke-dashoffset: 0; stroke: #000000; stroke-opacity: 0.7; stroke-width: 1.2"/>
   </g>
   <g id="line2d_98">
    <path d="M 646.185486 442.800016 
L 657.398155 446.287511 
L 666.933154 449.253198 
L 675.227792 451.833093 
L 682.567942 454.116112 
L 689.150779 456.163583 
L 695.118061 458.019596 
L 700.575128 459.716917 
L 705.602398 461.280557 
L 710.262658 462.730046 
L 714.605867 464.080921 
L 718.672431 465.345751 
L 722.495491 466.534844 
L 726.102569 467.65676 
L 729.51677 468.718684 
L 732.757677 469.726709 
L 735.842035 470.686042 
L 738.784275 471.601172 
L 741.596918 472.475993 
L 744.290901 473.313907 
L 746.875831 474.117902 
L 749.360196 474.890618 
L 751.751528 475.634398 
L 754.056544 476.351331 
L 756.281259 477.043288 
L 758.43108 477.71195 
L 760.510886 478.358836 
L 762.525093 478.985318 
L 764.477714 479.592645 
L 766.372403 480.181953 
L 768.212499 480.754281 
L 770.00106 481.31058 
L 771.740894 481.851724 
L 773.434586 482.378516 
L 775.08452 482.891698 
L 776.692901 483.391955 
L 778.26177 483.879923 
L 779.793023 484.356191 
L 781.28842 484.821307 
L 782.749602 485.275781 
L 784.178101 485.720089 
L 785.575347 486.154677 
L 786.942677 486.57996 
L 788.281346 486.996329 
L 789.592532 487.404149 
L 790.877339 487.803764 
L 792.136808 488.195499 
L 793.371919 488.579658 
L 794.583598 488.956528 
L 795.772715 489.326381 
L 796.940097 489.689474 
L 798.086522 490.046049 
L 799.212732 490.396336 
L 800.319426 490.740552 
L 801.407268 491.078906 
L 802.476892 491.411593 
L 803.528896 491.738799 
L 804.563852 492.060703 
L 805.582303 492.377474 
L 806.584769 492.689273 
L 807.571742 492.996252 
L 808.543694 493.29856 
L 809.501077 493.596337 
L 810.444319 493.889715 
L 811.373833 494.178823 
L 812.290013 494.463784 
L 813.193235 494.744715 
L 814.083862 495.021728 
L 814.96224 495.294931 
L 815.8287 495.564428 
L 816.683563 495.830317 
L 817.527134 496.092695 
L 818.359708 496.351651 
L 819.181567 496.607276 
L 819.992985 496.859653 
L 820.794224 497.108863 
L 821.585534 497.354986 
L 822.36716 497.598096 
L 823.139336 497.838267 
L 823.902287 498.075569 
L 824.656231 498.31007 
L 825.401379 498.541834 
L 826.137933 498.770926 
L 826.866089 498.997405 
L 827.586037 499.221332 
L 828.29796 499.442763 
L 829.002034 499.661752 
L 829.69843 499.878353 
L 830.387315 500.092618 
L 831.068849 500.304597 
L 831.743187 500.514337 
L 832.410479 500.721886 
L 833.070871 500.927289 
L 833.724504 501.13059 
L 834.371515 501.331831 
L 835.012037 501.531053 
L 835.646199 501.728298 
L 836.274126 501.923603 
L 836.89594 502.117007 
L 837.511758 502.308545 
" clip-path="url(#pffea70cf55)" style="fill: none; stroke-dasharray: 1,1.65; stroke-dashoffset: 0; stroke: #000000; stroke-opacity: 0.5"/>
   </g>
   <g id="patch_15">
    <path d="M 601.916756 525.028 
L 601.916756 25.2 
" style="fill: none; stroke: #000000; stroke-width: 0.8; stroke-linejoin: miter; stroke-linecap: square"/>
   </g>
   <g id="patch_16">
    <path d="M 847.078071 525.028 
L 847.078071 25.2 
" style="fill: none; stroke: #000000; stroke-width: 0.8; stroke-linejoin: miter; stroke-linecap: square"/>
   </g>
   <g id="patch_17">
    <path d="M 601.916756 525.028 
L 847.078071 525.028 
" style="fill: none; stroke: #000000; stroke-width: 0.8; stroke-linejoin: miter; stroke-linecap: square"/>
   </g>
   <g id="patch_18">
    <path d="M 601.916756 25.2 
L 847.078071 25.2 
" style="fill: none; stroke: #000000; stroke-width: 0.8; stroke-linejoin: miter; stroke-linecap: square"/>
   </g>
   <g id="text_36">
    <!-- CFI $F_C^{(S)}$ -->
    <g transform="translate(703.197413 19.2) scale(0.12 -0.12)">
     <defs>
      <path id="DejaVuSans-Oblique-46" d="M 1081 4666 
L 3756 4666 
L 3653 4134 
L 1606 4134 
L 1338 2759 
L 3188 2759 
L 3084 2228 
L 1234 2228 
L 800 0 
L 172 0 
L 1081 4666 
z
" transform="scale(0.015625)"/>
      <path id="DejaVuSans-28" d="M 1984 4856 
Q 1566 4138 1362 3434 
Q 1159 2731 1159 2009 
Q 1159 1288 1364 580 
Q 1569 -128 1984 -844 
L 1484 -844 
Q 1016 -109 783 600 
Q 550 1309 550 2009 
Q 550 2706 781 3412 
Q 1013 4119 1484 4856 
L 1984 4856 
z
" transform="scale(0.015625)"/>
      <path id="DejaVuSans-29" d="M 513 4856 
L 1013 4856 
Q 1481 4119 1714 3412 
Q 1947 2706 1947 2009 
Q 1947 1309 1714 600 
Q 1481 -109 1013 -844 
L 513 -844 
Q 928 -128 1133 580 
Q 1338 1288 1338 2009 
Q 1338 2731 1133 3434 
Q 928 4138 513 4856 
z
" transform="scale(0.015625)"/>
      <path id="DejaVuSans-Oblique-43" d="M 4447 4306 
L 4319 3641 
Q 4019 3944 3683 4091 
Q 3347 4238 2956 4238 
Q 2422 4238 2017 3981 
Q 1613 3725 1319 3200 
Q 1131 2863 1032 2486 
Q 934 2109 934 1728 
Q 934 1091 1264 756 
Q 1594 422 2222 422 
Q 2656 422 3056 561 
Q 3456 700 3834 978 
L 3688 231 
Q 3316 72 2936 -9 
Q 2556 -91 2175 -91 
Q 1278 -91 773 396 
Q 269 884 269 1753 
Q 269 2309 461 2846 
Q 653 3384 1013 3828 
Q 1394 4300 1883 4525 
Q 2372 4750 3022 4750 
Q 3422 4750 3780 4639 
Q 4138 4528 4447 4306 
z
" transform="scale(0.015625)"/>
     </defs>
     <use xlink:href="#DejaVuSans-43" transform="translate(0 0.546875)"/>
     <use xlink:href="#DejaVuSans-46" transform="translate(69.824219 0.546875)"/>
     <use xlink:href="#DejaVuSans-49" transform="translate(127.34375 0.546875)"/>
     <use xlink:href="#DejaVuSans-20" transform="translate(156.835938 0.546875)"/>
     <use xlink:href="#DejaVuSans-Oblique-46" transform="translate(188.623047 0.546875)"/>
     <use xlink:href="#DejaVuSans-28" transform="translate(253.159349 46.8875) scale(0.7)"/>
     <use xlink:href="#DejaVuSans-Oblique-53" transform="translate(280.468919 46.8875) scale(0.7)"/>
     <use xlink:href="#DejaVuSans-29" transform="translate(324.902513 46.8875) scale(0.7)"/>
     <use xlink:href="#DejaVuSans-Oblique-43" transform="translate(246.142578 -26.796875) scale(0.7)"/>
    </g>
   </g>
   <g id="legend_3">
    <g id="patch_19">
     <path d="M 794.158071 115.900937 
L 842.178071 115.900937 
Q 843.578071 115.900937 843.578071 114.500937 
L 843.578071 30.1 
Q 843.578071 28.7 842.178071 28.7 
L 794.158071 28.7 
Q 792.758071 28.7 792.758071 30.1 
L 792.758071 114.500937 
Q 792.758071 115.900937 794.158071 115.900937 
z
" style="fill: #ffffff; opacity: 0.8; stroke: #cccccc; stroke-linejoin: miter"/>
    </g>
    <g id="text_37">
     <!-- $\omega$ -->
     <g transform="translate(813.968071 39.098437) scale(0.1 -0.1)">
      <use xlink:href="#DejaVuSans-Oblique-3c9" transform="translate(0 0.3125)"/>
     </g>
    </g>
    <g id="line2d_99">
     <path d="M 795.558071 47.547031 
L 802.558071 47.547031 
L 809.558071 47.547031 
" style="fill: none; stroke: #414487; stroke-width: 1.2; stroke-linecap: square"/>
     <g>
      <use xlink:href="#m588d139f4c" x="802.558071" y="47.547031" style="fill: #414487; stroke: #414487"/>
     </g>
    </g>
    <g id="text_38">
     <!-- $\omega=0.1$ -->
     <g transform="translate(815.158071 49.997031) scale(0.07 -0.07)">
      <use xlink:href="#DejaVuSans-Oblique-3c9" transform="translate(0 0.78125)"/>
      <use xlink:href="#DejaVuSans-3d" transform="translate(103.222656 0.78125)"/>
      <use xlink:href="#DejaVuSans-30" transform="translate(206.494141 0.78125)"/>
      <use xlink:href="#DejaVuSans-2e" transform="translate(270.117188 0.78125)"/>
      <use xlink:href="#DejaVuSans-31" transform="translate(301.904297 0.78125)"/>
     </g>
    </g>
    <g id="line2d_100">
     <path d="M 795.558071 57.821719 
L 802.558071 57.821719 
L 809.558071 57.821719 
" style="fill: none; stroke: #2c728e; stroke-width: 1.2; stroke-linecap: square"/>
     <g>
      <use xlink:href="#mca094fbe1b" x="802.558071" y="57.821719" style="fill: #2c728e; stroke: #2c728e"/>
     </g>
    </g>
    <g id="text_39">
     <!-- $\omega=0.2$ -->
     <g transform="translate(815.158071 60.271719) scale(0.07 -0.07)">
      <use xlink:href="#DejaVuSans-Oblique-3c9" transform="translate(0 0.78125)"/>
      <use xlink:href="#DejaVuSans-3d" transform="translate(103.222656 0.78125)"/>
      <use xlink:href="#DejaVuSans-30" transform="translate(206.494141 0.78125)"/>
      <use xlink:href="#DejaVuSans-2e" transform="translate(270.117188 0.78125)"/>
      <use xlink:href="#DejaVuSans-32" transform="translate(296.404297 0.78125)"/>
     </g>
    </g>
    <g id="line2d_101">
     <path d="M 795.558071 68.096406 
L 802.558071 68.096406 
L 809.558071 68.096406 
" style="fill: none; stroke: #1e9c89; stroke-width: 1.2; stroke-linecap: square"/>
     <g>
      <use xlink:href="#mf8c56d0f57" x="802.558071" y="68.096406" style="fill: #1e9c89; stroke: #1e9c89"/>
     </g>
    </g>
    <g id="text_40">
     <!-- $\omega=0.5$ -->
     <g transform="translate(815.158071 70.546406) scale(0.07 -0.07)">
      <use xlink:href="#DejaVuSans-Oblique-3c9" transform="translate(0 0.78125)"/>
      <use xlink:href="#DejaVuSans-3d" transform="translate(103.222656 0.78125)"/>
      <use xlink:href="#DejaVuSans-30" transform="translate(206.494141 0.78125)"/>
      <use xlink:href="#DejaVuSans-2e" transform="translate(270.117188 0.78125)"/>
      <use xlink:href="#DejaVuSans-35" transform="translate(301.904297 0.78125)"/>
     </g>
    </g>
    <g id="line2d_102">
     <path d="M 795.558071 78.371094 
L 802.558071 78.371094 
L 809.558071 78.371094 
" style="fill: none; stroke: #50c46a; stroke-width: 1.2; stroke-linecap: square"/>
     <g>
      <use xlink:href="#me73bf56ce7" x="802.558071" y="78.371094" style="fill: #50c46a; stroke: #50c46a"/>
     </g>
    </g>
    <g id="text_41">
     <!-- $\omega=1.0$ -->
     <g transform="translate(815.158071 80.821094) scale(0.07 -0.07)">
      <use xlink:href="#DejaVuSans-Oblique-3c9" transform="translate(0 0.78125)"/>
      <use xlink:href="#DejaVuSans-3d" transform="translate(103.222656 0.78125)"/>
      <use xlink:href="#DejaVuSans-31" transform="translate(206.494141 0.78125)"/>
      <use xlink:href="#DejaVuSans-2e" transform="translate(270.117188 0.78125)"/>
      <use xlink:href="#DejaVuSans-30" transform="translate(301.904297 0.78125)"/>
     </g>
    </g>
    <g id="line2d_103">
     <path d="M 795.558071 88.645781 
L 802.558071 88.645781 
L 809.558071 88.645781 
" style="fill: none; stroke: #bddf26; stroke-width: 1.2; stroke-linecap: square"/>
     <g>
      <use xlink:href="#m5fe16719d0" x="802.558071" y="88.645781" style="fill: #bddf26; stroke: #bddf26"/>
     </g>
    </g>
    <g id="text_42">
     <!-- $\omega=2.0$ -->
     <g transform="translate(815.158071 91.095781) scale(0.07 -0.07)">
      <use xlink:href="#DejaVuSans-Oblique-3c9" transform="translate(0 0.78125)"/>
      <use xlink:href="#DejaVuSans-3d" transform="translate(103.222656 0.78125)"/>
      <use xlink:href="#DejaVuSans-32" transform="translate(206.494141 0.78125)"/>
      <use xlink:href="#DejaVuSans-2e" transform="translate(270.117188 0.78125)"/>
      <use xlink:href="#DejaVuSans-30" transform="translate(301.904297 0.78125)"/>
     </g>
    </g>
    <g id="line2d_104">
     <path d="M 795.558071 98.920469 
L 802.558071 98.920469 
L 809.558071 98.920469 
" style="fill: none; stroke-dasharray: 4.44,1.92; stroke-dashoffset: 0; stroke: #000000; stroke-opacity: 0.7; stroke-width: 1.2"/>
    </g>
    <g id="text_43">
     <!-- SQL -->
     <g transform="translate(815.158071 101.370469) scale(0.07 -0.07)">
      <use xlink:href="#DejaVuSans-53"/>
      <use xlink:href="#DejaVuSans-51" transform="translate(63.476562 0)"/>
      <use xlink:href="#DejaVuSans-4c" transform="translate(142.1875 0)"/>
     </g>
    </g>
    <g id="line2d_105">
     <path d="M 795.558071 109.195156 
L 802.558071 109.195156 
L 809.558071 109.195156 
" style="fill: none; stroke-dasharray: 1,1.65; stroke-dashoffset: 0; stroke: #000000; stroke-opacity: 0.5"/>
    </g>
    <g id="text_44">
     <!-- HL -->
     <g transform="translate(815.158071 111.645156) scale(0.07 -0.07)">
      <use xlink:href="#DejaVuSans-48"/>
      <use xlink:href="#DejaVuSans-4c" transform="translate(75.195312 0)"/>
     </g>
    </g>
   </g>
  </g>
 </g>
 <defs>
  <clipPath id="pbaa4d1f695">
   <rect x="51.378125" y="25.2" width="245.161315" height="499.828"/>
  </clipPath>
  <clipPath id="p9d84bb6b81">
   <rect x="326.64744" y="25.2" width="245.161315" height="499.828"/>
  </clipPath>
  <clipPath id="pffea70cf55">
   <rect x="601.916756" y="25.2" width="245.161315" height="499.828"/>
  </clipPath>
 </defs>
</svg>
