<?xml version="1.0" encoding="utf-8" standalone="no"?>
<!DOCTYPE svg PUBLIC "-//W3C//DTD SVG 1.1//EN"
  "http://www.w3.org/Graphics/SVG/1.1/DTD/svg11.dtd">
<svg xmlns:xlink="http://www.w3.org/1999/xlink" width="711.061696pt" height="419.537844pt" viewBox="0 0 711.061696 419.537844" xmlns="http://www.w3.org/2000/svg" version="1.1">
 <metadata>
  <rdf:RDF xmlns:dc="http://purl.org/dc/elements/1.1/" xmlns:cc="http://creativecommons.org/ns#" xmlns:rdf="http://www.w3.org/1999/02/22-rdf-syntax-ns#">
   <cc:Work>
    <dc:type rdf:resource="http://purl.org/dc/dcmitype/StillImage"/>
    <dc:date>2026-06-15T12:16:28.367993</dc:date>
    <dc:format>image/svg+xml</dc:format>
    <dc:creator>
     <cc:Agent>
      <dc:title>Matplotlib v3.10.9, https://matplotlib.org/</dc:title>
     </cc:Agent>
    </dc:creator>
   </cc:Work>
  </rdf:RDF>
 </metadata>
 <defs>
  <style type="text/css">*{stroke-linejoin: round; stroke-linecap: butt}</style>
 </defs>
 <g id="figure_1">
  <g id="patch_1">
   <path d="M 0 419.537844 
L 711.061696 419.537844 
L 711.061696 0 
L 0 0 
z
" style="fill: #ffffff"/>
  </g>
  <g id="axes_1">
   <g id="patch_2">
    <path d="M 53.31375 380.045969 
L 703.861696 380.045969 
L 703.861696 23.077969 
L 53.31375 23.077969 
z
" style="fill: #ffffff"/>
   </g>
   <g id="matplotlib.axis_1">
    <g id="xtick_1">
     <g id="line2d_1">
      <path d="M 170.783065 380.045969 
L 170.783065 23.077969 
" clip-path="url(#p494c32ff4f)" style="fill: none; stroke: #b0b0b0; stroke-opacity: 0.3; stroke-width: 0.8; stroke-linecap: square"/>
     </g>
     <g id="line2d_2">
      <defs>
       <path id="m3337142bc1" d="M 0 0 
L 0 3.5 
" style="stroke: #000000; stroke-width: 0.8"/>
      </defs>
      <g>
       <use xlink:href="#m3337142bc1" x="170.783065" y="380.045969" style="stroke: #000000; stroke-width: 0.8"/>
      </g>
     </g>
     <g id="text_1">
      <!-- $\mathdefault{10^{0}}$ -->
      <g transform="translate(161.983065 394.644406) scale(0.1 -0.1)">
       <defs>
        <path id="DejaVuSans-31" d="M 794 531 
L 1825 531 
L 1825 4091 
L 703 3866 
L 703 4441 
L 1819 4666 
L 2450 4666 
L 2450 531 
L 3481 531 
L 3481 0 
L 794 0 
L 794 531 
z
" transform="scale(0.015625)"/>
        <path id="DejaVuSans-30" d="M 2034 4250 
Q 1547 4250 1301 3770 
Q 1056 3291 1056 2328 
Q 1056 1369 1301 889 
Q 1547 409 2034 409 
Q 2525 409 2770 889 
Q 3016 1369 3016 2328 
Q 3016 3291 2770 3770 
Q 2525 4250 2034 4250 
z
M 2034 4750 
Q 2819 4750 3233 4129 
Q 3647 3509 3647 2328 
Q 3647 1150 3233 529 
Q 2819 -91 2034 -91 
Q 1250 -91 836 529 
Q 422 1150 422 2328 
Q 422 3509 836 4129 
Q 1250 4750 2034 4750 
z
" transform="scale(0.015625)"/>
       </defs>
       <use xlink:href="#DejaVuSans-31" transform="translate(0 0.765625)"/>
       <use xlink:href="#DejaVuSans-30" transform="translate(63.623047 0.765625)"/>
       <use xlink:href="#DejaVuSans-30" transform="translate(128.203125 39.046875) scale(0.7)"/>
      </g>
     </g>
    </g>
    <g id="xtick_2">
     <g id="line2d_3">
      <path d="M 561.007684 380.045969 
L 561.007684 23.077969 
" clip-path="url(#p494c32ff4f)" style="fill: none; stroke: #b0b0b0; stroke-opacity: 0.3; stroke-width: 0.8; stroke-linecap: square"/>
     </g>
     <g id="line2d_4">
      <g>
       <use xlink:href="#m3337142bc1" x="561.007684" y="380.045969" style="stroke: #000000; stroke-width: 0.8"/>
      </g>
     </g>
     <g id="text_2">
      <!-- $\mathdefault{10^{1}}$ -->
      <g transform="translate(552.207684 394.644406) scale(0.1 -0.1)">
       <use xlink:href="#DejaVuSans-31" transform="translate(0 0.684375)"/>
       <use xlink:href="#DejaVuSans-30" transform="translate(63.623047 0.684375)"/>
       <use xlink:href="#DejaVuSans-31" transform="translate(128.203125 38.965625) scale(0.7)"/>
      </g>
     </g>
    </g>
    <g id="xtick_3">
     <g id="line2d_5">
      <path d="M 53.31375 380.045969 
L 53.31375 23.077969 
" clip-path="url(#p494c32ff4f)" style="fill: none; stroke: #b0b0b0; stroke-opacity: 0.3; stroke-width: 0.8; stroke-linecap: square"/>
     </g>
     <g id="line2d_6">
      <defs>
       <path id="m2e006a34fd" d="M 0 0 
L 0 2 
" style="stroke: #000000; stroke-width: 0.6"/>
      </defs>
      <g>
       <use xlink:href="#m2e006a34fd" x="53.31375" y="380.045969" style="stroke: #000000; stroke-width: 0.6"/>
      </g>
     </g>
    </g>
    <g id="xtick_4">
     <g id="line2d_7">
      <path d="M 84.212222 380.045969 
L 84.212222 23.077969 
" clip-path="url(#p494c32ff4f)" style="fill: none; stroke: #b0b0b0; stroke-opacity: 0.3; stroke-width: 0.8; stroke-linecap: square"/>
     </g>
     <g id="line2d_8">
      <g>
       <use xlink:href="#m2e006a34fd" x="84.212222" y="380.045969" style="stroke: #000000; stroke-width: 0.6"/>
      </g>
     </g>
    </g>
    <g id="xtick_5">
     <g id="line2d_9">
      <path d="M 110.336507 380.045969 
L 110.336507 23.077969 
" clip-path="url(#p494c32ff4f)" style="fill: none; stroke: #b0b0b0; stroke-opacity: 0.3; stroke-width: 0.8; stroke-linecap: square"/>
     </g>
     <g id="line2d_10">
      <g>
       <use xlink:href="#m2e006a34fd" x="110.336507" y="380.045969" style="stroke: #000000; stroke-width: 0.6"/>
      </g>
     </g>
    </g>
    <g id="xtick_6">
     <g id="line2d_11">
      <path d="M 132.966392 380.045969 
L 132.966392 23.077969 
" clip-path="url(#p494c32ff4f)" style="fill: none; stroke: #b0b0b0; stroke-opacity: 0.3; stroke-width: 0.8; stroke-linecap: square"/>
     </g>
     <g id="line2d_12">
      <g>
       <use xlink:href="#m2e006a34fd" x="132.966392" y="380.045969" style="stroke: #000000; stroke-width: 0.6"/>
      </g>
     </g>
    </g>
    <g id="xtick_7">
     <g id="line2d_13">
      <path d="M 152.927366 380.045969 
L 152.927366 23.077969 
" clip-path="url(#p494c32ff4f)" style="fill: none; stroke: #b0b0b0; stroke-opacity: 0.3; stroke-width: 0.8; stroke-linecap: square"/>
     </g>
     <g id="line2d_14">
      <g>
       <use xlink:href="#m2e006a34fd" x="152.927366" y="380.045969" style="stroke: #000000; stroke-width: 0.6"/>
      </g>
     </g>
    </g>
    <g id="xtick_8">
     <g id="line2d_15">
      <path d="M 288.252381 380.045969 
L 288.252381 23.077969 
" clip-path="url(#p494c32ff4f)" style="fill: none; stroke: #b0b0b0; stroke-opacity: 0.3; stroke-width: 0.8; stroke-linecap: square"/>
     </g>
     <g id="line2d_16">
      <g>
       <use xlink:href="#m2e006a34fd" x="288.252381" y="380.045969" style="stroke: #000000; stroke-width: 0.6"/>
      </g>
     </g>
    </g>
    <g id="xtick_9">
     <g id="line2d_17">
      <path d="M 356.967525 380.045969 
L 356.967525 23.077969 
" clip-path="url(#p494c32ff4f)" style="fill: none; stroke: #b0b0b0; stroke-opacity: 0.3; stroke-width: 0.8; stroke-linecap: square"/>
     </g>
     <g id="line2d_18">
      <g>
       <use xlink:href="#m2e006a34fd" x="356.967525" y="380.045969" style="stroke: #000000; stroke-width: 0.6"/>
      </g>
     </g>
    </g>
    <g id="xtick_10">
     <g id="line2d_19">
      <path d="M 405.721696 380.045969 
L 405.721696 23.077969 
" clip-path="url(#p494c32ff4f)" style="fill: none; stroke: #b0b0b0; stroke-opacity: 0.3; stroke-width: 0.8; stroke-linecap: square"/>
     </g>
     <g id="line2d_20">
      <g>
       <use xlink:href="#m2e006a34fd" x="405.721696" y="380.045969" style="stroke: #000000; stroke-width: 0.6"/>
      </g>
     </g>
    </g>
    <g id="xtick_11">
     <g id="line2d_21">
      <path d="M 443.538369 380.045969 
L 443.538369 23.077969 
" clip-path="url(#p494c32ff4f)" style="fill: none; stroke: #b0b0b0; stroke-opacity: 0.3; stroke-width: 0.8; stroke-linecap: square"/>
     </g>
     <g id="line2d_22">
      <g>
       <use xlink:href="#m2e006a34fd" x="443.538369" y="380.045969" style="stroke: #000000; stroke-width: 0.6"/>
      </g>
     </g>
    </g>
    <g id="xtick_12">
     <g id="line2d_23">
      <path d="M 474.43684 380.045969 
L 474.43684 23.077969 
" clip-path="url(#p494c32ff4f)" style="fill: none; stroke: #b0b0b0; stroke-opacity: 0.3; stroke-width: 0.8; stroke-linecap: square"/>
     </g>
     <g id="line2d_24">
      <g>
       <use xlink:href="#m2e006a34fd" x="474.43684" y="380.045969" style="stroke: #000000; stroke-width: 0.6"/>
      </g>
     </g>
    </g>
    <g id="xtick_13">
     <g id="line2d_25">
      <path d="M 500.561126 380.045969 
L 500.561126 23.077969 
" clip-path="url(#p494c32ff4f)" style="fill: none; stroke: #b0b0b0; stroke-opacity: 0.3; stroke-width: 0.8; stroke-linecap: square"/>
     </g>
     <g id="line2d_26">
      <g>
       <use xlink:href="#m2e006a34fd" x="500.561126" y="380.045969" style="stroke: #000000; stroke-width: 0.6"/>
      </g>
     </g>
    </g>
    <g id="xtick_14">
     <g id="line2d_27">
      <path d="M 523.191011 380.045969 
L 523.191011 23.077969 
" clip-path="url(#p494c32ff4f)" style="fill: none; stroke: #b0b0b0; stroke-opacity: 0.3; stroke-width: 0.8; stroke-linecap: square"/>
     </g>
     <g id="line2d_28">
      <g>
       <use xlink:href="#m2e006a34fd" x="523.191011" y="380.045969" style="stroke: #000000; stroke-width: 0.6"/>
      </g>
     </g>
    </g>
    <g id="xtick_15">
     <g id="line2d_29">
      <path d="M 543.151985 380.045969 
L 543.151985 23.077969 
" clip-path="url(#p494c32ff4f)" style="fill: none; stroke: #b0b0b0; stroke-opacity: 0.3; stroke-width: 0.8; stroke-linecap: square"/>
     </g>
     <g id="line2d_30">
      <g>
       <use xlink:href="#m2e006a34fd" x="543.151985" y="380.045969" style="stroke: #000000; stroke-width: 0.6"/>
      </g>
     </g>
    </g>
    <g id="xtick_16">
     <g id="line2d_31">
      <path d="M 678.476999 380.045969 
L 678.476999 23.077969 
" clip-path="url(#p494c32ff4f)" style="fill: none; stroke: #b0b0b0; stroke-opacity: 0.3; stroke-width: 0.8; stroke-linecap: square"/>
     </g>
     <g id="line2d_32">
      <g>
       <use xlink:href="#m2e006a34fd" x="678.476999" y="380.045969" style="stroke: #000000; stroke-width: 0.6"/>
      </g>
     </g>
    </g>
    <g id="text_3">
     <!-- $ -->
     <g transform="translate(374.770223 409.842219) scale(0.12 -0.12)">
      <defs>
       <path id="DejaVuSans-24" d="M 2163 -941 
L 1850 -941 
L 1847 0 
Q 1519 6 1191 76 
Q 863 147 531 288 
L 531 850 
Q 850 650 1176 548 
Q 1503 447 1850 444 
L 1850 1869 
Q 1159 1981 845 2250 
Q 531 2519 531 2988 
Q 531 3497 872 3790 
Q 1213 4084 1850 4128 
L 1850 4863 
L 2163 4863 
L 2163 4138 
Q 2453 4125 2725 4076 
Q 2997 4028 3256 3944 
L 3256 3397 
Q 2997 3528 2723 3600 
Q 2450 3672 2163 3684 
L 2163 2350 
Q 2872 2241 3206 1959 
Q 3541 1678 3541 1191 
Q 3541 663 3186 358 
Q 2831 53 2163 6 
L 2163 -941 
z
M 1850 2406 
L 1850 3688 
Q 1488 3647 1297 3481 
Q 1106 3316 1106 3041 
Q 1106 2772 1282 2622 
Q 1459 2472 1850 2406 
z
M 2163 1806 
L 2163 453 
Q 2559 506 2761 678 
Q 2963 850 2963 1131 
Q 2963 1406 2770 1568 
Q 2578 1731 2163 1806 
z
" transform="scale(0.015625)"/>
      </defs>
      <use xlink:href="#DejaVuSans-24"/>
     </g>
    </g>
   </g>
   <g id="matplotlib.axis_2">
    <g id="ytick_1">
     <g id="line2d_33">
      <path d="M 53.31375 288.734134 
L 703.861696 288.734134 
" clip-path="url(#p494c32ff4f)" style="fill: none; stroke: #b0b0b0; stroke-opacity: 0.3; stroke-width: 0.8; stroke-linecap: square"/>
     </g>
     <g id="line2d_34">
      <defs>
       <path id="m98a4758d3e" d="M 0 0 
L -3.5 0 
" style="stroke: #000000; stroke-width: 0.8"/>
      </defs>
      <g>
       <use xlink:href="#m98a4758d3e" x="53.31375" y="288.734134" style="stroke: #000000; stroke-width: 0.8"/>
      </g>
     </g>
     <g id="text_4">
      <!-- $\mathdefault{10^{-2}}$ -->
      <g transform="translate(22.81375 292.533353) scale(0.1 -0.1)">
       <defs>
        <path id="DejaVuSans-2212" d="M 678 2272 
L 4684 2272 
L 4684 1741 
L 678 1741 
L 678 2272 
z
" transform="scale(0.015625)"/>
        <path id="DejaVuSans-32" d="M 1228 531 
L 3431 531 
L 3431 0 
L 469 0 
L 469 531 
Q 828 903 1448 1529 
Q 2069 2156 2228 2338 
Q 2531 2678 2651 2914 
Q 2772 3150 2772 3378 
Q 2772 3750 2511 3984 
Q 2250 4219 1831 4219 
Q 1534 4219 1204 4116 
Q 875 4013 500 3803 
L 500 4441 
Q 881 4594 1212 4672 
Q 1544 4750 1819 4750 
Q 2544 4750 2975 4387 
Q 3406 4025 3406 3419 
Q 3406 3131 3298 2873 
Q 3191 2616 2906 2266 
Q 2828 2175 2409 1742 
Q 1991 1309 1228 531 
z
" transform="scale(0.015625)"/>
       </defs>
       <use xlink:href="#DejaVuSans-31" transform="translate(0 0.765625)"/>
       <use xlink:href="#DejaVuSans-30" transform="translate(63.623047 0.765625)"/>
       <use xlink:href="#DejaVuSans-2212" transform="translate(128.203125 39.046875) scale(0.7)"/>
       <use xlink:href="#DejaVuSans-32" transform="translate(186.855469 39.046875) scale(0.7)"/>
      </g>
     </g>
    </g>
    <g id="ytick_2">
     <g id="line2d_35">
      <path d="M 53.31375 39.303787 
L 703.861696 39.303787 
" clip-path="url(#p494c32ff4f)" style="fill: none; stroke: #b0b0b0; stroke-opacity: 0.3; stroke-width: 0.8; stroke-linecap: square"/>
     </g>
     <g id="line2d_36">
      <g>
       <use xlink:href="#m98a4758d3e" x="53.31375" y="39.303787" style="stroke: #000000; stroke-width: 0.8"/>
      </g>
     </g>
     <g id="text_5">
      <!-- $\mathdefault{10^{-1}}$ -->
      <g transform="translate(22.81375 43.103006) scale(0.1 -0.1)">
       <use xlink:href="#DejaVuSans-31" transform="translate(0 0.684375)"/>
       <use xlink:href="#DejaVuSans-30" transform="translate(63.623047 0.684375)"/>
       <use xlink:href="#DejaVuSans-2212" transform="translate(128.203125 38.965625) scale(0.7)"/>
       <use xlink:href="#DejaVuSans-31" transform="translate(186.855469 38.965625) scale(0.7)"/>
      </g>
     </g>
    </g>
    <g id="ytick_3">
     <g id="line2d_37">
      <path d="M 53.31375 363.820151 
L 703.861696 363.820151 
" clip-path="url(#p494c32ff4f)" style="fill: none; stroke: #b0b0b0; stroke-opacity: 0.3; stroke-width: 0.8; stroke-linecap: square"/>
     </g>
     <g id="line2d_38">
      <defs>
       <path id="mf20fc92a22" d="M 0 0 
L -2 0 
" style="stroke: #000000; stroke-width: 0.6"/>
      </defs>
      <g>
       <use xlink:href="#mf20fc92a22" x="53.31375" y="363.820151" style="stroke: #000000; stroke-width: 0.6"/>
      </g>
     </g>
    </g>
    <g id="ytick_4">
     <g id="line2d_39">
      <path d="M 53.31375 344.069945 
L 703.861696 344.069945 
" clip-path="url(#p494c32ff4f)" style="fill: none; stroke: #b0b0b0; stroke-opacity: 0.3; stroke-width: 0.8; stroke-linecap: square"/>
     </g>
     <g id="line2d_40">
      <g>
       <use xlink:href="#mf20fc92a22" x="53.31375" y="344.069945" style="stroke: #000000; stroke-width: 0.6"/>
      </g>
     </g>
    </g>
    <g id="ytick_5">
     <g id="line2d_41">
      <path d="M 53.31375 327.371384 
L 703.861696 327.371384 
" clip-path="url(#p494c32ff4f)" style="fill: none; stroke: #b0b0b0; stroke-opacity: 0.3; stroke-width: 0.8; stroke-linecap: square"/>
     </g>
     <g id="line2d_42">
      <g>
       <use xlink:href="#mf20fc92a22" x="53.31375" y="327.371384" style="stroke: #000000; stroke-width: 0.6"/>
      </g>
     </g>
    </g>
    <g id="ytick_6">
     <g id="line2d_43">
      <path d="M 53.31375 312.906432 
L 703.861696 312.906432 
" clip-path="url(#p494c32ff4f)" style="fill: none; stroke: #b0b0b0; stroke-opacity: 0.3; stroke-width: 0.8; stroke-linecap: square"/>
     </g>
     <g id="line2d_44">
      <g>
       <use xlink:href="#mf20fc92a22" x="53.31375" y="312.906432" style="stroke: #000000; stroke-width: 0.6"/>
      </g>
     </g>
    </g>
    <g id="ytick_7">
     <g id="line2d_45">
      <path d="M 53.31375 300.147441 
L 703.861696 300.147441 
" clip-path="url(#p494c32ff4f)" style="fill: none; stroke: #b0b0b0; stroke-opacity: 0.3; stroke-width: 0.8; stroke-linecap: square"/>
     </g>
     <g id="line2d_46">
      <g>
       <use xlink:href="#mf20fc92a22" x="53.31375" y="300.147441" style="stroke: #000000; stroke-width: 0.6"/>
      </g>
     </g>
    </g>
    <g id="ytick_8">
     <g id="line2d_47">
      <path d="M 53.31375 213.648118 
L 703.861696 213.648118 
" clip-path="url(#p494c32ff4f)" style="fill: none; stroke: #b0b0b0; stroke-opacity: 0.3; stroke-width: 0.8; stroke-linecap: square"/>
     </g>
     <g id="line2d_48">
      <g>
       <use xlink:href="#mf20fc92a22" x="53.31375" y="213.648118" style="stroke: #000000; stroke-width: 0.6"/>
      </g>
     </g>
    </g>
    <g id="ytick_9">
     <g id="line2d_49">
      <path d="M 53.31375 169.725614 
L 703.861696 169.725614 
" clip-path="url(#p494c32ff4f)" style="fill: none; stroke: #b0b0b0; stroke-opacity: 0.3; stroke-width: 0.8; stroke-linecap: square"/>
     </g>
     <g id="line2d_50">
      <g>
       <use xlink:href="#mf20fc92a22" x="53.31375" y="169.725614" style="stroke: #000000; stroke-width: 0.6"/>
      </g>
     </g>
    </g>
    <g id="ytick_10">
     <g id="line2d_51">
      <path d="M 53.31375 138.562101 
L 703.861696 138.562101 
" clip-path="url(#p494c32ff4f)" style="fill: none; stroke: #b0b0b0; stroke-opacity: 0.3; stroke-width: 0.8; stroke-linecap: square"/>
     </g>
     <g id="line2d_52">
      <g>
       <use xlink:href="#mf20fc92a22" x="53.31375" y="138.562101" style="stroke: #000000; stroke-width: 0.6"/>
      </g>
     </g>
    </g>
    <g id="ytick_11">
     <g id="line2d_53">
      <path d="M 53.31375 114.389803 
L 703.861696 114.389803 
" clip-path="url(#p494c32ff4f)" style="fill: none; stroke: #b0b0b0; stroke-opacity: 0.3; stroke-width: 0.8; stroke-linecap: square"/>
     </g>
     <g id="line2d_54">
      <g>
       <use xlink:href="#mf20fc92a22" x="53.31375" y="114.389803" style="stroke: #000000; stroke-width: 0.6"/>
      </g>
     </g>
    </g>
    <g id="ytick_12">
     <g id="line2d_55">
      <path d="M 53.31375 94.639598 
L 703.861696 94.639598 
" clip-path="url(#p494c32ff4f)" style="fill: none; stroke: #b0b0b0; stroke-opacity: 0.3; stroke-width: 0.8; stroke-linecap: square"/>
     </g>
     <g id="line2d_56">
      <g>
       <use xlink:href="#mf20fc92a22" x="53.31375" y="94.639598" style="stroke: #000000; stroke-width: 0.6"/>
      </g>
     </g>
    </g>
    <g id="ytick_13">
     <g id="line2d_57">
      <path d="M 53.31375 77.941037 
L 703.861696 77.941037 
" clip-path="url(#p494c32ff4f)" style="fill: none; stroke: #b0b0b0; stroke-opacity: 0.3; stroke-width: 0.8; stroke-linecap: square"/>
     </g>
     <g id="line2d_58">
      <g>
       <use xlink:href="#mf20fc92a22" x="53.31375" y="77.941037" style="stroke: #000000; stroke-width: 0.6"/>
      </g>
     </g>
    </g>
    <g id="ytick_14">
     <g id="line2d_59">
      <path d="M 53.31375 63.476085 
L 703.861696 63.476085 
" clip-path="url(#p494c32ff4f)" style="fill: none; stroke: #b0b0b0; stroke-opacity: 0.3; stroke-width: 0.8; stroke-linecap: square"/>
     </g>
     <g id="line2d_60">
      <g>
       <use xlink:href="#mf20fc92a22" x="53.31375" y="63.476085" style="stroke: #000000; stroke-width: 0.6"/>
      </g>
     </g>
    </g>
    <g id="ytick_15">
     <g id="line2d_61">
      <path d="M 53.31375 50.717094 
L 703.861696 50.717094 
" clip-path="url(#p494c32ff4f)" style="fill: none; stroke: #b0b0b0; stroke-opacity: 0.3; stroke-width: 0.8; stroke-linecap: square"/>
     </g>
     <g id="line2d_62">
      <g>
       <use xlink:href="#mf20fc92a22" x="53.31375" y="50.717094" style="stroke: #000000; stroke-width: 0.6"/>
      </g>
     </g>
    </g>
    <g id="text_6">
     <!-- $\Delta\omega$ -->
     <g transform="translate(16.318125 210.741969) rotate(-90) scale(0.12 -0.12)">
      <defs>
       <path id="DejaVuSans-394" d="M 2188 4044 
L 906 525 
L 3472 525 
L 2188 4044 
z
M 50 0 
L 1831 4666 
L 2547 4666 
L 4325 0 
L 50 0 
z
" transform="scale(0.015625)"/>
       <path id="DejaVuSans-Oblique-3c9" d="M 1369 -91 
Q 72 -91 434 1766 
Q 575 2500 1256 3500 
L 1875 3500 
Q 1231 2500 1088 1750 
Q 819 397 1519 397 
Q 2166 397 2478 2078 
L 3009 2078 
Q 2669 388 3316 397 
Q 4013 403 4275 1750 
Q 4419 2500 4169 3500 
L 4788 3500 
Q 5075 2500 4934 1766 
Q 4578 -94 3278 -91 
Q 2428 -88 2503 844 
Q 2194 -91 1369 -91 
z
" transform="scale(0.015625)"/>
      </defs>
      <use xlink:href="#DejaVuSans-394" transform="translate(0 0.09375)"/>
      <use xlink:href="#DejaVuSans-Oblique-3c9" transform="translate(68.408203 0.09375)"/>
     </g>
    </g>
   </g>
   <g id="line2d_63">
    <defs>
     <path id="m5f49c1d132" d="M 0 3 
C 0.795609 3 1.55874 2.683901 2.12132 2.12132 
C 2.683901 1.55874 3 0.795609 3 0 
C 3 -0.795609 2.683901 -1.55874 2.12132 -2.12132 
C 1.55874 -2.683901 0.795609 -3 0 -3 
C -0.795609 -3 -1.55874 -2.683901 -2.12132 -2.12132 
C -2.683901 -1.55874 -3 -0.795609 -3 0 
C -3 0.795609 -2.683901 1.55874 -2.12132 2.12132 
C -1.55874 2.683901 -0.795609 3 0 3 
z
" style="stroke: #2ca02c"/>
    </defs>
    <g clip-path="url(#p494c32ff4f)">
     <use xlink:href="#m5f49c1d132" x="170.783065" y="211.718059" style="fill: #2ca02c; stroke: #2ca02c"/>
     <use xlink:href="#m5f49c1d132" x="288.252381" y="197.459218" style="fill: #2ca02c; stroke: #2ca02c"/>
     <use xlink:href="#m5f49c1d132" x="356.967525" y="210.518615" style="fill: #2ca02c; stroke: #2ca02c"/>
     <use xlink:href="#m5f49c1d132" x="405.721696" y="201.984402" style="fill: #2ca02c; stroke: #2ca02c"/>
     <use xlink:href="#m5f49c1d132" x="443.538369" y="203.9505" style="fill: #2ca02c; stroke: #2ca02c"/>
     <use xlink:href="#m5f49c1d132" x="474.43684" y="209.395559" style="fill: #2ca02c; stroke: #2ca02c"/>
     <use xlink:href="#m5f49c1d132" x="500.561126" y="209.013295" style="fill: #2ca02c; stroke: #2ca02c"/>
     <use xlink:href="#m5f49c1d132" x="523.191011" y="214.160624" style="fill: #2ca02c; stroke: #2ca02c"/>
     <use xlink:href="#m5f49c1d132" x="543.151985" y="215.048681" style="fill: #2ca02c; stroke: #2ca02c"/>
     <use xlink:href="#m5f49c1d132" x="561.007684" y="219.266953" style="fill: #2ca02c; stroke: #2ca02c"/>
    </g>
   </g>
   <g id="line2d_64">
    <path d="M 170.783065 202.875857 
L 185.529092 203.243141 
L 199.094122 203.58101 
L 211.653378 203.893828 
L 223.345765 204.185054 
L 234.283263 204.457478 
L 244.557463 204.713381 
L 254.244237 204.954653 
L 263.407138 205.182876 
L 272.099936 205.399391 
L 280.368522 205.605339 
L 288.252381 205.801705 
L 295.785727 205.989341 
L 302.998407 206.168989 
L 309.916609 206.341303 
L 316.563437 206.506858 
L 322.959381 206.666164 
L 329.122693 206.819676 
L 335.069703 206.9678 
L 340.81508 207.110902 
L 346.37205 207.249311 
L 351.752578 207.383326 
L 356.967525 207.513216 
L 362.026778 207.639229 
L 366.939366 207.761589 
L 371.713552 207.880501 
L 376.356922 207.996155 
L 380.876453 208.108724 
L 385.278581 208.21837 
L 389.569251 208.325239 
L 393.753967 208.429469 
L 397.837837 208.531187 
L 401.825607 208.630512 
L 405.721696 208.727553 
L 409.530225 208.822414 
L 413.255043 208.915189 
L 416.899751 209.005969 
L 420.467723 209.094837 
L 423.962123 209.181874 
L 427.385924 209.267151 
L 430.741923 209.35074 
L 434.032752 209.432706 
L 437.260896 209.513111 
L 440.428696 209.592012 
L 443.538369 209.669466 
L 446.592008 209.745524 
L 449.591598 209.820236 
L 452.539018 209.893648 
L 455.436053 209.965806 
L 458.284396 210.03675 
L 461.085656 210.106522 
L 463.841365 210.17516 
L 466.552982 210.242699 
L 469.221894 210.309174 
L 471.849425 210.374619 
L 474.43684 210.439065 
L 476.985345 210.502541 
L 479.496094 210.565077 
L 481.970187 210.6267 
L 484.408681 210.687437 
L 486.812585 210.747312 
L 489.182867 210.806349 
L 491.520454 210.864572 
L 493.826237 210.922003 
L 496.101068 210.978663 
L 498.345769 211.034572 
L 500.561126 211.089751 
L 502.747897 211.144218 
L 504.90681 211.197991 
L 507.038566 211.251087 
L 509.143841 211.303524 
L 511.223283 211.355317 
L 513.277519 211.406483 
L 515.307153 211.457035 
L 517.312766 211.50699 
L 519.294922 211.55636 
L 521.254163 211.60516 
L 523.191011 211.653401 
L 525.105974 211.701098 
L 526.99954 211.748262 
L 528.872182 211.794904 
L 530.724358 211.841037 
L 532.55651 211.886671 
L 534.369066 211.931817 
L 536.162442 211.976485 
L 537.937038 212.020686 
L 539.693244 212.064428 
L 541.431438 212.107722 
L 543.151985 212.150576 
L 544.855239 212.193 
L 546.541546 212.235001 
L 548.211238 212.276589 
L 549.86464 212.31777 
L 551.502068 212.358554 
L 553.123825 212.398948 
L 554.730211 212.438959 
L 556.321513 212.478594 
L 557.898012 212.51786 
L 559.45998 212.556765 
L 561.007684 212.595314 
" clip-path="url(#p494c32ff4f)" style="fill: none; stroke: #2ca02c; stroke-opacity: 0.4; stroke-width: 1.5; stroke-linecap: square"/>
   </g>
   <g id="line2d_65">
    <path d="M 170.783065 200.484252 
L 185.529092 199.530226 
L 199.094122 198.652607 
L 211.653378 197.840059 
L 223.345765 197.083595 
L 234.283263 196.37597 
L 244.557463 195.711258 
L 254.244237 195.084552 
L 263.407138 194.491738 
L 272.099936 193.929339 
L 280.368522 193.394385 
L 288.252381 192.884321 
L 295.785727 192.396935 
L 302.998407 191.930295 
L 309.916609 191.482707 
L 316.563437 191.052677 
L 322.959381 190.638877 
L 329.122693 190.240128 
L 335.069703 189.855374 
L 340.81508 189.483664 
L 346.37205 189.124144 
L 351.752578 188.776039 
L 356.967525 188.438647 
L 362.026778 188.111328 
L 366.939366 187.793497 
L 371.713552 187.484621 
L 376.356922 187.184208 
L 380.876453 186.891807 
L 385.278581 186.607002 
L 389.569251 186.329408 
L 393.753967 186.058669 
L 397.837837 185.794454 
L 401.825607 185.536457 
L 405.721696 185.284391 
L 409.530225 185.03799 
L 413.255043 184.797005 
L 416.899751 184.561202 
L 420.467723 184.330365 
L 423.962123 184.104287 
L 427.385924 183.882777 
L 430.741923 183.665653 
L 434.032752 183.452746 
L 437.260896 183.243894 
L 440.428696 183.038947 
L 443.538369 182.83776 
L 446.592008 182.640198 
L 449.591598 182.446133 
L 452.539018 182.255443 
L 455.436053 182.068013 
L 458.284396 181.883734 
L 461.085656 181.7025 
L 463.841365 181.524213 
L 466.552982 181.34878 
L 469.221894 181.176109 
L 471.849425 181.006115 
L 474.43684 180.838716 
L 476.985345 180.673835 
L 479.496094 180.511397 
L 481.970187 180.35133 
L 484.408681 180.193567 
L 486.812585 180.038041 
L 489.182867 179.88469 
L 491.520454 179.733455 
L 493.826237 179.584278 
L 496.101068 179.437102 
L 498.345769 179.291877 
L 500.561126 179.148549 
L 502.747897 179.007072 
L 504.90681 178.867396 
L 507.038566 178.729477 
L 509.143841 178.593272 
L 511.223283 178.458738 
L 513.277519 178.325835 
L 515.307153 178.194523 
L 517.312766 178.064766 
L 519.294922 177.936526 
L 521.254163 177.809769 
L 523.191011 177.68446 
L 525.105974 177.560568 
L 526.99954 177.438059 
L 528.872182 177.316905 
L 530.724358 177.197074 
L 532.55651 177.078539 
L 534.369066 176.961272 
L 536.162442 176.845246 
L 537.937038 176.730434 
L 539.693244 176.616813 
L 541.431438 176.504356 
L 543.151985 176.393042 
L 544.855239 176.282846 
L 546.541546 176.173747 
L 548.211238 176.065723 
L 549.86464 175.958752 
L 551.502068 175.852815 
L 553.123825 175.747892 
L 554.730211 175.643964 
L 556.321513 175.541011 
L 557.898012 175.439016 
L 559.45998 175.337961 
L 561.007684 175.237829 
" clip-path="url(#p494c32ff4f)" style="fill: none; stroke: #1f77b4; stroke-opacity: 0.3; stroke-width: 1.5; stroke-linecap: square"/>
   </g>
   <g id="line2d_66">
    <defs>
     <path id="mfa59254295" d="M -3 3 
L 3 3 
L 3 -3 
L -3 -3 
z
" style="stroke: #2ca02c; stroke-linejoin: miter"/>
    </defs>
    <g clip-path="url(#p494c32ff4f)">
     <use xlink:href="#mfa59254295" x="170.783065" y="162.838684" style="fill: #2ca02c; stroke: #2ca02c; stroke-linejoin: miter"/>
     <use xlink:href="#mfa59254295" x="288.252381" y="182.300737" style="fill: #2ca02c; stroke: #2ca02c; stroke-linejoin: miter"/>
     <use xlink:href="#mfa59254295" x="356.967525" y="186.187172" style="fill: #2ca02c; stroke: #2ca02c; stroke-linejoin: miter"/>
     <use xlink:href="#mfa59254295" x="405.721696" y="200.081006" style="fill: #2ca02c; stroke: #2ca02c; stroke-linejoin: miter"/>
     <use xlink:href="#mfa59254295" x="443.538369" y="196.233423" style="fill: #2ca02c; stroke: #2ca02c; stroke-linejoin: miter"/>
     <use xlink:href="#mfa59254295" x="474.43684" y="204.237237" style="fill: #2ca02c; stroke: #2ca02c; stroke-linejoin: miter"/>
     <use xlink:href="#mfa59254295" x="500.561126" y="201.457968" style="fill: #2ca02c; stroke: #2ca02c; stroke-linejoin: miter"/>
     <use xlink:href="#mfa59254295" x="523.191011" y="208.0072" style="fill: #2ca02c; stroke: #2ca02c; stroke-linejoin: miter"/>
     <use xlink:href="#mfa59254295" x="543.151985" y="207.737872" style="fill: #2ca02c; stroke: #2ca02c; stroke-linejoin: miter"/>
     <use xlink:href="#mfa59254295" x="561.007684" y="213.743219" style="fill: #2ca02c; stroke: #2ca02c; stroke-linejoin: miter"/>
    </g>
   </g>
   <g id="line2d_67">
    <path d="M 170.783065 165.521845 
L 185.529092 167.293859 
L 199.094122 168.923953 
L 211.653378 170.433185 
L 223.345765 171.838247 
L 234.283263 173.152594 
L 244.557463 174.387233 
L 254.244237 175.551282 
L 263.407138 176.652378 
L 272.099936 177.696982 
L 280.368522 178.690609 
L 288.252381 179.638003 
L 295.785727 180.543277 
L 302.998407 181.410017 
L 309.916609 182.24137 
L 316.563437 183.040112 
L 322.959381 183.808705 
L 329.122693 184.549344 
L 335.069703 185.263989 
L 340.81508 185.954405 
L 346.37205 186.62218 
L 351.752578 187.268752 
L 356.967525 187.895426 
L 362.026778 188.503391 
L 366.939366 189.093731 
L 371.713552 189.66744 
L 376.356922 190.225429 
L 380.876453 190.768536 
L 385.278581 191.297535 
L 389.569251 191.81314 
L 393.753967 192.316013 
L 397.837837 192.806767 
L 401.825607 193.285973 
L 405.721696 193.754161 
L 409.530225 194.211828 
L 413.255043 194.659435 
L 416.899751 195.097416 
L 420.467723 195.526175 
L 423.962123 195.946093 
L 427.385924 196.357528 
L 430.741923 196.760815 
L 434.032752 197.15627 
L 437.260896 197.544192 
L 440.428696 197.924863 
L 443.538369 198.298549 
L 446.592008 198.665502 
L 449.591598 199.025959 
L 452.539018 199.380147 
L 455.436053 199.728281 
L 458.284396 200.070563 
L 461.085656 200.407188 
L 463.841365 200.738338 
L 466.552982 201.06419 
L 469.221894 201.38491 
L 471.849425 201.700658 
L 474.43684 202.011585 
L 476.985345 202.317836 
L 479.496094 202.61955 
L 481.970187 202.916859 
L 484.408681 203.20989 
L 486.812585 203.498764 
L 489.182867 203.783598 
L 491.520454 204.064504 
L 493.826237 204.341587 
L 496.101068 204.614951 
L 498.345769 204.884694 
L 500.561126 205.150911 
L 502.747897 205.413693 
L 504.90681 205.673127 
L 507.038566 205.929298 
L 509.143841 206.182287 
L 511.223283 206.432171 
L 513.277519 206.679026 
L 515.307153 206.922925 
L 517.312766 207.163937 
L 519.294922 207.402131 
L 521.254163 207.637571 
L 523.191011 207.87032 
L 525.105974 208.100439 
L 526.99954 208.327986 
L 528.872182 208.55302 
L 530.724358 208.775594 
L 532.55651 208.995761 
L 534.369066 209.213574 
L 536.162442 209.429082 
L 537.937038 209.642333 
L 539.693244 209.853375 
L 541.431438 210.062252 
L 543.151985 210.269008 
L 544.855239 210.473686 
L 546.541546 210.676328 
L 548.211238 210.876973 
L 549.86464 211.07566 
L 551.502068 211.272428 
L 553.123825 211.467313 
L 554.730211 211.660351 
L 556.321513 211.851576 
L 557.898012 212.041022 
L 559.45998 212.228722 
L 561.007684 212.414708 
" clip-path="url(#p494c32ff4f)" style="fill: none; stroke-dasharray: 5.55,2.4; stroke-dashoffset: 0; stroke: #2ca02c; stroke-opacity: 0.4; stroke-width: 1.5"/>
   </g>
   <g id="line2d_68">
    <path d="M 170.783065 174.641576 
L 185.529092 174.245804 
L 199.094122 173.881729 
L 211.653378 173.544649 
L 223.345765 173.230835 
L 234.283263 172.937281 
L 244.557463 172.66153 
L 254.244237 172.401544 
L 263.407138 172.155619 
L 272.099936 171.922312 
L 280.368522 171.700389 
L 288.252381 171.488793 
L 295.785727 171.286604 
L 302.998407 171.093021 
L 309.916609 170.907342 
L 316.563437 170.728947 
L 322.959381 170.557285 
L 329.122693 170.391866 
L 335.069703 170.232253 
L 340.81508 170.078052 
L 346.37205 169.928907 
L 351.752578 169.784498 
L 356.967525 169.644533 
L 362.026778 169.508747 
L 366.939366 169.376897 
L 371.713552 169.248762 
L 376.356922 169.124137 
L 380.876453 169.002837 
L 385.278581 168.884687 
L 389.569251 168.769529 
L 393.753967 168.657214 
L 397.837837 168.547607 
L 401.825607 168.440578 
L 405.721696 168.33601 
L 409.530225 168.233792 
L 413.255043 168.133821 
L 416.899751 168.036 
L 420.467723 167.940239 
L 423.962123 167.846452 
L 427.385924 167.75456 
L 430.741923 167.664487 
L 434.032752 167.576164 
L 437.260896 167.489523 
L 440.428696 167.404502 
L 443.538369 167.321041 
L 446.592008 167.239084 
L 449.591598 167.158577 
L 452.539018 167.079471 
L 455.436053 167.001717 
L 458.284396 166.925269 
L 461.085656 166.850086 
L 463.841365 166.776125 
L 466.552982 166.703347 
L 469.221894 166.631716 
L 471.849425 166.561195 
L 474.43684 166.491751 
L 476.985345 166.423351 
L 479.496094 166.355964 
L 481.970187 166.289562 
L 484.408681 166.224114 
L 486.812585 166.159595 
L 489.182867 166.095979 
L 491.520454 166.03324 
L 493.826237 165.971355 
L 496.101068 165.9103 
L 498.345769 165.850054 
L 500.561126 165.790596 
L 502.747897 165.731904 
L 504.90681 165.673961 
L 507.038566 165.616746 
L 509.143841 165.560242 
L 511.223283 165.504432 
L 513.277519 165.449298 
L 515.307153 165.394824 
L 517.312766 165.340995 
L 519.294922 165.287795 
L 521.254163 165.235211 
L 523.191011 165.183228 
L 525.105974 165.131832 
L 526.99954 165.08101 
L 528.872182 165.030749 
L 530.724358 164.981039 
L 532.55651 164.931865 
L 534.369066 164.883217 
L 536.162442 164.835085 
L 537.937038 164.787456 
L 539.693244 164.740321 
L 541.431438 164.693669 
L 543.151985 164.647491 
L 544.855239 164.601777 
L 546.541546 164.556518 
L 548.211238 164.511705 
L 549.86464 164.467329 
L 551.502068 164.423381 
L 553.123825 164.379855 
L 554.730211 164.336741 
L 556.321513 164.294031 
L 557.898012 164.251719 
L 559.45998 164.209797 
L 561.007684 164.168258 
" clip-path="url(#p494c32ff4f)" style="fill: none; stroke-dasharray: 5.55,2.4; stroke-dashoffset: 0; stroke: #1f77b4; stroke-opacity: 0.3; stroke-width: 1.5"/>
   </g>
   <g id="line2d_69">
    <path d="M 170.783065 39.303787 
L 200.536449 48.812921 
L 225.838051 56.899274 
L 247.848293 63.933712 
L 267.32575 70.158677 
L 284.79364 75.741387 
L 300.628125 80.802064 
L 315.108729 85.430042 
L 328.448845 89.693522 
L 340.81508 93.645751 
L 352.340005 97.329099 
L 363.130837 100.777832 
L 373.27552 104.020057 
L 382.847085 107.079114 
L 391.906839 109.974597 
L 400.506749 112.723115 
L 408.691251 115.338868 
L 416.498633 117.834095 
L 423.962123 120.219415 
L 431.110742 122.504102 
L 437.969986 124.696306 
L 444.562374 126.803223 
L 450.907895 128.831241 
L 457.024372 130.786058 
L 462.927765 132.672773 
L 468.632424 134.495973 
L 474.151293 136.259795 
L 479.496094 137.967985 
L 484.677472 139.623945 
L 489.705125 141.230775 
L 494.587912 142.791306 
L 499.333949 144.308132 
L 503.950687 145.783634 
L 508.444984 147.220005 
L 512.823169 148.619265 
L 517.091089 149.983286 
L 521.254163 151.313798 
L 525.317418 152.612408 
L 529.28553 153.88061 
L 533.162852 155.119796 
L 536.953446 156.331264 
L 540.661108 157.516227 
L 544.289388 158.675819 
L 547.841614 159.811105 
L 551.320911 160.923083 
L 554.730211 162.01269 
L 558.072276 163.080809 
L 561.349707 164.128271 
L 564.564956 165.155859 
L 567.72034 166.164315 
L 570.818046 167.154337 
L 573.860145 168.126587 
L 576.848599 169.081692 
L 579.785266 170.020246 
L 582.671912 170.942814 
L 585.510212 171.84993 
L 588.301758 172.742104 
L 591.048066 173.619819 
L 593.750578 174.483538 
L 596.410671 175.333699 
L 599.029654 176.170722 
L 601.608779 176.995006 
L 604.149241 177.806934 
L 606.652182 178.60687 
L 609.118695 179.395164 
L 611.549824 180.172149 
L 613.946571 180.938146 
L 616.309894 181.69346 
L 618.640713 182.438386 
L 620.93991 183.173206 
L 623.208331 183.898189 
L 625.446789 184.613597 
L 627.656066 185.319679 
L 629.836913 186.016674 
L 631.990052 186.704813 
L 634.116178 187.38432 
L 636.21596 188.055407 
L 638.290045 188.718281 
L 640.339052 189.373141 
L 642.363581 190.020177 
L 644.36421 190.659575 
L 646.341498 191.291513 
L 648.295981 191.916163 
L 650.22818 192.533691 
L 652.138598 193.144257 
L 654.027721 193.748018 
L 655.896017 194.345122 
L 657.743941 194.935716 
L 659.571932 195.519939 
L 661.380416 196.097928 
L 663.169805 196.669814 
L 664.940498 197.235724 
L 666.692881 197.795783 
L 668.42733 198.35011 
L 670.144207 198.898821 
L 671.843865 199.44203 
L 673.526647 199.979844 
L 675.192883 200.51237 
L 676.842896 201.039712 
L 678.476999 201.561969 
" clip-path="url(#p494c32ff4f)" style="fill: none; stroke-dasharray: 4.44,1.92; stroke-dashoffset: 0; stroke: #000000; stroke-opacity: 0.7; stroke-width: 1.2"/>
   </g>
   <g id="line2d_70">
    <path d="M 170.783065 39.303787 
L 200.536449 58.322056 
L 225.838051 74.49476 
L 247.848293 88.563637 
L 267.32575 101.013567 
L 284.79364 112.178987 
L 300.628125 122.30034 
L 315.108729 131.556297 
L 328.448845 140.083257 
L 340.81508 147.987715 
L 352.340005 155.354411 
L 363.130837 162.251877 
L 373.27552 168.736326 
L 382.847085 174.85444 
L 391.906839 180.645406 
L 400.506749 186.142442 
L 408.691251 191.37395 
L 416.498633 196.364404 
L 423.962123 201.135043 
L 431.110742 205.704418 
L 437.969986 210.088825 
L 444.562374 214.302659 
L 450.907895 218.358696 
L 457.024372 222.268329 
L 462.927765 226.041759 
L 468.632424 229.688159 
L 474.151293 233.215802 
L 479.496094 236.632182 
L 484.677472 239.944103 
L 489.705125 243.157763 
L 494.587912 246.278825 
L 499.333949 249.312477 
L 503.950687 252.263481 
L 508.444984 255.136222 
L 512.823169 257.934744 
L 517.091089 260.662785 
L 521.254163 263.323809 
L 525.317418 265.921029 
L 529.28553 268.457433 
L 533.162852 270.935805 
L 536.953446 273.358741 
L 540.661108 275.728667 
L 544.289388 278.047852 
L 547.841614 280.318424 
L 551.320911 282.542379 
L 554.730211 284.721593 
L 558.072276 286.857831 
L 561.349707 288.952754 
L 564.564956 291.007932 
L 567.72034 293.024843 
L 570.818046 295.004886 
L 573.860145 296.949387 
L 576.848599 298.859597 
L 579.785266 300.736706 
L 582.671912 302.581841 
L 585.510212 304.396073 
L 588.301758 306.18042 
L 591.048066 307.935852 
L 593.750578 309.663289 
L 596.410671 311.363612 
L 599.029654 313.037657 
L 601.608779 314.686226 
L 604.149241 316.310082 
L 606.652182 317.909954 
L 609.118695 319.486541 
L 611.549824 321.040511 
L 613.946571 322.572504 
L 616.309894 324.083133 
L 618.640713 325.572985 
L 620.93991 327.042624 
L 623.208331 328.492592 
L 625.446789 329.923407 
L 627.656066 331.33557 
L 629.836913 332.729561 
L 631.990052 334.10584 
L 634.116178 335.464853 
L 636.21596 336.807027 
L 638.290045 338.132776 
L 640.339052 339.442495 
L 642.363581 340.736567 
L 644.36421 342.015363 
L 646.341498 343.279239 
L 648.295981 344.528539 
L 650.22818 345.763594 
L 652.138598 346.984728 
L 654.027721 348.192249 
L 655.896017 349.386458 
L 657.743941 350.567645 
L 659.571932 351.736091 
L 661.380416 352.892068 
L 663.169805 354.03584 
L 664.940498 355.167662 
L 666.692881 356.287779 
L 668.42733 357.396433 
L 670.144207 358.493856 
L 671.843865 359.580272 
L 673.526647 360.655901 
L 675.192883 361.720954 
L 676.842896 362.775637 
L 678.476999 363.820151 
" clip-path="url(#p494c32ff4f)" style="fill: none; stroke-dasharray: 1,1.65; stroke-dashoffset: 0; stroke: #000000; stroke-opacity: 0.5"/>
   </g>
   <g id="patch_3">
    <path d="M 53.31375 380.045969 
L 53.31375 23.077969 
" style="fill: none; stroke: #000000; stroke-width: 0.8; stroke-linejoin: miter; stroke-linecap: square"/>
   </g>
   <g id="patch_4">
    <path d="M 703.861696 380.045969 
L 703.861696 23.077969 
" style="fill: none; stroke: #000000; stroke-width: 0.8; stroke-linejoin: miter; stroke-linecap: square"/>
   </g>
   <g id="patch_5">
    <path d="M 53.31375 380.045969 
L 703.861696 380.045969 
" style="fill: none; stroke: #000000; stroke-width: 0.8; stroke-linejoin: miter; stroke-linecap: square"/>
   </g>
   <g id="patch_6">
    <path d="M 53.31375 23.077969 
L 703.861696 23.077969 
" style="fill: none; stroke: #000000; stroke-width: 0.8; stroke-linejoin: miter; stroke-linecap: square"/>
   </g>
   <g id="text_7">
    <!-- Scaling exponents for best sensitivity per protocol -->
    <g transform="translate(215.235614 17.077969) scale(0.13 -0.13)">
     <defs>
      <path id="DejaVuSans-53" d="M 3425 4513 
L 3425 3897 
Q 3066 4069 2747 4153 
Q 2428 4238 2131 4238 
Q 1616 4238 1336 4038 
Q 1056 3838 1056 3469 
Q 1056 3159 1242 3001 
Q 1428 2844 1947 2747 
L 2328 2669 
Q 3034 2534 3370 2195 
Q 3706 1856 3706 1288 
Q 3706 609 3251 259 
Q 2797 -91 1919 -91 
Q 1588 -91 1214 -16 
Q 841 59 441 206 
L 441 856 
Q 825 641 1194 531 
Q 1563 422 1919 422 
Q 2459 422 2753 634 
Q 3047 847 3047 1241 
Q 3047 1584 2836 1778 
Q 2625 1972 2144 2069 
L 1759 2144 
Q 1053 2284 737 2584 
Q 422 2884 422 3419 
Q 422 4038 858 4394 
Q 1294 4750 2059 4750 
Q 2388 4750 2728 4690 
Q 3069 4631 3425 4513 
z
" transform="scale(0.015625)"/>
      <path id="DejaVuSans-63" d="M 3122 3366 
L 3122 2828 
Q 2878 2963 2633 3030 
Q 2388 3097 2138 3097 
Q 1578 3097 1268 2742 
Q 959 2388 959 1747 
Q 959 1106 1268 751 
Q 1578 397 2138 397 
Q 2388 397 2633 464 
Q 2878 531 3122 666 
L 3122 134 
Q 2881 22 2623 -34 
Q 2366 -91 2075 -91 
Q 1284 -91 818 406 
Q 353 903 353 1747 
Q 353 2603 823 3093 
Q 1294 3584 2113 3584 
Q 2378 3584 2631 3529 
Q 2884 3475 3122 3366 
z
" transform="scale(0.015625)"/>
      <path id="DejaVuSans-61" d="M 2194 1759 
Q 1497 1759 1228 1600 
Q 959 1441 959 1056 
Q 959 750 1161 570 
Q 1363 391 1709 391 
Q 2188 391 2477 730 
Q 2766 1069 2766 1631 
L 2766 1759 
L 2194 1759 
z
M 3341 1997 
L 3341 0 
L 2766 0 
L 2766 531 
Q 2569 213 2275 61 
Q 1981 -91 1556 -91 
Q 1019 -91 701 211 
Q 384 513 384 1019 
Q 384 1609 779 1909 
Q 1175 2209 1959 2209 
L 2766 2209 
L 2766 2266 
Q 2766 2663 2505 2880 
Q 2244 3097 1772 3097 
Q 1472 3097 1187 3025 
Q 903 2953 641 2809 
L 641 3341 
Q 956 3463 1253 3523 
Q 1550 3584 1831 3584 
Q 2591 3584 2966 3190 
Q 3341 2797 3341 1997 
z
" transform="scale(0.015625)"/>
      <path id="DejaVuSans-6c" d="M 603 4863 
L 1178 4863 
L 1178 0 
L 603 0 
L 603 4863 
z
" transform="scale(0.015625)"/>
      <path id="DejaVuSans-69" d="M 603 3500 
L 1178 3500 
L 1178 0 
L 603 0 
L 603 3500 
z
M 603 4863 
L 1178 4863 
L 1178 4134 
L 603 4134 
L 603 4863 
z
" transform="scale(0.015625)"/>
      <path id="DejaVuSans-6e" d="M 3513 2113 
L 3513 0 
L 2938 0 
L 2938 2094 
Q 2938 2591 2744 2837 
Q 2550 3084 2163 3084 
Q 1697 3084 1428 2787 
Q 1159 2491 1159 1978 
L 1159 0 
L 581 0 
L 581 3500 
L 1159 3500 
L 1159 2956 
Q 1366 3272 1645 3428 
Q 1925 3584 2291 3584 
Q 2894 3584 3203 3211 
Q 3513 2838 3513 2113 
z
" transform="scale(0.015625)"/>
      <path id="DejaVuSans-67" d="M 2906 1791 
Q 2906 2416 2648 2759 
Q 2391 3103 1925 3103 
Q 1463 3103 1205 2759 
Q 947 2416 947 1791 
Q 947 1169 1205 825 
Q 1463 481 1925 481 
Q 2391 481 2648 825 
Q 2906 1169 2906 1791 
z
M 3481 434 
Q 3481 -459 3084 -895 
Q 2688 -1331 1869 -1331 
Q 1566 -1331 1297 -1286 
Q 1028 -1241 775 -1147 
L 775 -588 
Q 1028 -725 1275 -790 
Q 1522 -856 1778 -856 
Q 2344 -856 2625 -561 
Q 2906 -266 2906 331 
L 2906 616 
Q 2728 306 2450 153 
Q 2172 0 1784 0 
Q 1141 0 747 490 
Q 353 981 353 1791 
Q 353 2603 747 3093 
Q 1141 3584 1784 3584 
Q 2172 3584 2450 3431 
Q 2728 3278 2906 2969 
L 2906 3500 
L 3481 3500 
L 3481 434 
z
" transform="scale(0.015625)"/>
      <path id="DejaVuSans-20" transform="scale(0.015625)"/>
      <path id="DejaVuSans-65" d="M 3597 1894 
L 3597 1613 
L 953 1613 
Q 991 1019 1311 708 
Q 1631 397 2203 397 
Q 2534 397 2845 478 
Q 3156 559 3463 722 
L 3463 178 
Q 3153 47 2828 -22 
Q 2503 -91 2169 -91 
Q 1331 -91 842 396 
Q 353 884 353 1716 
Q 353 2575 817 3079 
Q 1281 3584 2069 3584 
Q 2775 3584 3186 3129 
Q 3597 2675 3597 1894 
z
M 3022 2063 
Q 3016 2534 2758 2815 
Q 2500 3097 2075 3097 
Q 1594 3097 1305 2825 
Q 1016 2553 972 2059 
L 3022 2063 
z
" transform="scale(0.015625)"/>
      <path id="DejaVuSans-78" d="M 3513 3500 
L 2247 1797 
L 3578 0 
L 2900 0 
L 1881 1375 
L 863 0 
L 184 0 
L 1544 1831 
L 300 3500 
L 978 3500 
L 1906 2253 
L 2834 3500 
L 3513 3500 
z
" transform="scale(0.015625)"/>
      <path id="DejaVuSans-70" d="M 1159 525 
L 1159 -1331 
L 581 -1331 
L 581 3500 
L 1159 3500 
L 1159 2969 
Q 1341 3281 1617 3432 
Q 1894 3584 2278 3584 
Q 2916 3584 3314 3078 
Q 3713 2572 3713 1747 
Q 3713 922 3314 415 
Q 2916 -91 2278 -91 
Q 1894 -91 1617 61 
Q 1341 213 1159 525 
z
M 3116 1747 
Q 3116 2381 2855 2742 
Q 2594 3103 2138 3103 
Q 1681 3103 1420 2742 
Q 1159 2381 1159 1747 
Q 1159 1113 1420 752 
Q 1681 391 2138 391 
Q 2594 391 2855 752 
Q 3116 1113 3116 1747 
z
" transform="scale(0.015625)"/>
      <path id="DejaVuSans-6f" d="M 1959 3097 
Q 1497 3097 1228 2736 
Q 959 2375 959 1747 
Q 959 1119 1226 758 
Q 1494 397 1959 397 
Q 2419 397 2687 759 
Q 2956 1122 2956 1747 
Q 2956 2369 2687 2733 
Q 2419 3097 1959 3097 
z
M 1959 3584 
Q 2709 3584 3137 3096 
Q 3566 2609 3566 1747 
Q 3566 888 3137 398 
Q 2709 -91 1959 -91 
Q 1206 -91 779 398 
Q 353 888 353 1747 
Q 353 2609 779 3096 
Q 1206 3584 1959 3584 
z
" transform="scale(0.015625)"/>
      <path id="DejaVuSans-74" d="M 1172 4494 
L 1172 3500 
L 2356 3500 
L 2356 3053 
L 1172 3053 
L 1172 1153 
Q 1172 725 1289 603 
Q 1406 481 1766 481 
L 2356 481 
L 2356 0 
L 1766 0 
Q 1100 0 847 248 
Q 594 497 594 1153 
L 594 3053 
L 172 3053 
L 172 3500 
L 594 3500 
L 594 4494 
L 1172 4494 
z
" transform="scale(0.015625)"/>
      <path id="DejaVuSans-73" d="M 2834 3397 
L 2834 2853 
Q 2591 2978 2328 3040 
Q 2066 3103 1784 3103 
Q 1356 3103 1142 2972 
Q 928 2841 928 2578 
Q 928 2378 1081 2264 
Q 1234 2150 1697 2047 
L 1894 2003 
Q 2506 1872 2764 1633 
Q 3022 1394 3022 966 
Q 3022 478 2636 193 
Q 2250 -91 1575 -91 
Q 1294 -91 989 -36 
Q 684 19 347 128 
L 347 722 
Q 666 556 975 473 
Q 1284 391 1588 391 
Q 1994 391 2212 530 
Q 2431 669 2431 922 
Q 2431 1156 2273 1281 
Q 2116 1406 1581 1522 
L 1381 1569 
Q 847 1681 609 1914 
Q 372 2147 372 2553 
Q 372 3047 722 3315 
Q 1072 3584 1716 3584 
Q 2034 3584 2315 3537 
Q 2597 3491 2834 3397 
z
" transform="scale(0.015625)"/>
      <path id="DejaVuSans-66" d="M 2375 4863 
L 2375 4384 
L 1825 4384 
Q 1516 4384 1395 4259 
Q 1275 4134 1275 3809 
L 1275 3500 
L 2222 3500 
L 2222 3053 
L 1275 3053 
L 1275 0 
L 697 0 
L 697 3053 
L 147 3053 
L 147 3500 
L 697 3500 
L 697 3744 
Q 697 4328 969 4595 
Q 1241 4863 1831 4863 
L 2375 4863 
z
" transform="scale(0.015625)"/>
      <path id="DejaVuSans-72" d="M 2631 2963 
Q 2534 3019 2420 3045 
Q 2306 3072 2169 3072 
Q 1681 3072 1420 2755 
Q 1159 2438 1159 1844 
L 1159 0 
L 581 0 
L 581 3500 
L 1159 3500 
L 1159 2956 
Q 1341 3275 1631 3429 
Q 1922 3584 2338 3584 
Q 2397 3584 2469 3576 
Q 2541 3569 2628 3553 
L 2631 2963 
z
" transform="scale(0.015625)"/>
      <path id="DejaVuSans-62" d="M 3116 1747 
Q 3116 2381 2855 2742 
Q 2594 3103 2138 3103 
Q 1681 3103 1420 2742 
Q 1159 2381 1159 1747 
Q 1159 1113 1420 752 
Q 1681 391 2138 391 
Q 2594 391 2855 752 
Q 3116 1113 3116 1747 
z
M 1159 2969 
Q 1341 3281 1617 3432 
Q 1894 3584 2278 3584 
Q 2916 3584 3314 3078 
Q 3713 2572 3713 1747 
Q 3713 922 3314 415 
Q 2916 -91 2278 -91 
Q 1894 -91 1617 61 
Q 1341 213 1159 525 
L 1159 0 
L 581 0 
L 581 4863 
L 1159 4863 
L 1159 2969 
z
" transform="scale(0.015625)"/>
      <path id="DejaVuSans-76" d="M 191 3500 
L 800 3500 
L 1894 563 
L 2988 3500 
L 3597 3500 
L 2284 0 
L 1503 0 
L 191 3500 
z
" transform="scale(0.015625)"/>
      <path id="DejaVuSans-79" d="M 2059 -325 
Q 1816 -950 1584 -1140 
Q 1353 -1331 966 -1331 
L 506 -1331 
L 506 -850 
L 844 -850 
Q 1081 -850 1212 -737 
Q 1344 -625 1503 -206 
L 1606 56 
L 191 3500 
L 800 3500 
L 1894 763 
L 2988 3500 
L 3597 3500 
L 2059 -325 
z
" transform="scale(0.015625)"/>
     </defs>
     <use xlink:href="#DejaVuSans-53"/>
     <use xlink:href="#DejaVuSans-63" transform="translate(63.476562 0)"/>
     <use xlink:href="#DejaVuSans-61" transform="translate(118.457031 0)"/>
     <use xlink:href="#DejaVuSans-6c" transform="translate(179.736328 0)"/>
     <use xlink:href="#DejaVuSans-69" transform="translate(207.519531 0)"/>
     <use xlink:href="#DejaVuSans-6e" transform="translate(235.302734 0)"/>
     <use xlink:href="#DejaVuSans-67" transform="translate(298.681641 0)"/>
     <use xlink:href="#DejaVuSans-20" transform="translate(362.158203 0)"/>
     <use xlink:href="#DejaVuSans-65" transform="translate(393.945312 0)"/>
     <use xlink:href="#DejaVuSans-78" transform="translate(453.71875 0)"/>
     <use xlink:href="#DejaVuSans-70" transform="translate(512.898438 0)"/>
     <use xlink:href="#DejaVuSans-6f" transform="translate(576.375 0)"/>
     <use xlink:href="#DejaVuSans-6e" transform="translate(637.556641 0)"/>
     <use xlink:href="#DejaVuSans-65" transform="translate(700.935547 0)"/>
     <use xlink:href="#DejaVuSans-6e" transform="translate(762.458984 0)"/>
     <use xlink:href="#DejaVuSans-74" transform="translate(825.837891 0)"/>
     <use xlink:href="#DejaVuSans-73" transform="translate(865.046875 0)"/>
     <use xlink:href="#DejaVuSans-20" transform="translate(917.146484 0)"/>
     <use xlink:href="#DejaVuSans-66" transform="translate(948.933594 0)"/>
     <use xlink:href="#DejaVuSans-6f" transform="translate(984.138672 0)"/>
     <use xlink:href="#DejaVuSans-72" transform="translate(1045.320312 0)"/>
     <use xlink:href="#DejaVuSans-20" transform="translate(1086.433594 0)"/>
     <use xlink:href="#DejaVuSans-62" transform="translate(1118.220703 0)"/>
     <use xlink:href="#DejaVuSans-65" transform="translate(1181.697266 0)"/>
     <use xlink:href="#DejaVuSans-73" transform="translate(1243.220703 0)"/>
     <use xlink:href="#DejaVuSans-74" transform="translate(1295.320312 0)"/>
     <use xlink:href="#DejaVuSans-20" transform="translate(1334.529297 0)"/>
     <use xlink:href="#DejaVuSans-73" transform="translate(1366.316406 0)"/>
     <use xlink:href="#DejaVuSans-65" transform="translate(1418.416016 0)"/>
     <use xlink:href="#DejaVuSans-6e" transform="translate(1479.939453 0)"/>
     <use xlink:href="#DejaVuSans-73" transform="translate(1543.318359 0)"/>
     <use xlink:href="#DejaVuSans-69" transform="translate(1595.417969 0)"/>
     <use xlink:href="#DejaVuSans-74" transform="translate(1623.201172 0)"/>
     <use xlink:href="#DejaVuSans-69" transform="translate(1662.410156 0)"/>
     <use xlink:href="#DejaVuSans-76" transform="translate(1690.193359 0)"/>
     <use xlink:href="#DejaVuSans-69" transform="translate(1749.373047 0)"/>
     <use xlink:href="#DejaVuSans-74" transform="translate(1777.15625 0)"/>
     <use xlink:href="#DejaVuSans-79" transform="translate(1816.365234 0)"/>
     <use xlink:href="#DejaVuSans-20" transform="translate(1875.544922 0)"/>
     <use xlink:href="#DejaVuSans-70" transform="translate(1907.332031 0)"/>
     <use xlink:href="#DejaVuSans-65" transform="translate(1970.808594 0)"/>
     <use xlink:href="#DejaVuSans-72" transform="translate(2032.332031 0)"/>
     <use xlink:href="#DejaVuSans-20" transform="translate(2073.445312 0)"/>
     <use xlink:href="#DejaVuSans-70" transform="translate(2105.232422 0)"/>
     <use xlink:href="#DejaVuSans-72" transform="translate(2168.708984 0)"/>
     <use xlink:href="#DejaVuSans-6f" transform="translate(2207.572266 0)"/>
     <use xlink:href="#DejaVuSans-74" transform="translate(2268.753906 0)"/>
     <use xlink:href="#DejaVuSans-6f" transform="translate(2307.962891 0)"/>
     <use xlink:href="#DejaVuSans-63" transform="translate(2369.144531 0)"/>
     <use xlink:href="#DejaVuSans-6f" transform="translate(2424.125 0)"/>
     <use xlink:href="#DejaVuSans-6c" transform="translate(2485.306641 0)"/>
    </g>
   </g>
   <g id="legend_1">
    <g id="patch_7">
     <path d="M 433.941696 76.447969 
L 698.261696 76.447969 
Q 699.861696 76.447969 699.861696 74.847969 
L 699.861696 28.677969 
Q 699.861696 27.077969 698.261696 27.077969 
L 433.941696 27.077969 
Q 432.341696 27.077969 432.341696 28.677969 
L 432.341696 74.847969 
Q 432.341696 76.447969 433.941696 76.447969 
z
" style="fill: #ffffff; opacity: 0.8; stroke: #cccccc; stroke-linejoin: miter"/>
    </g>
    <g id="line2d_71">
     <g>
      <use xlink:href="#m5f49c1d132" x="443.541696" y="33.556719" style="fill: #2ca02c; stroke: #2ca02c"/>
     </g>
    </g>
    <g id="text_8">
     <!-- $\omega=0.2$ CFI -->
     <g transform="translate(457.941696 36.356719) scale(0.08 -0.08)">
      <defs>
       <path id="DejaVuSans-3d" d="M 678 2906 
L 4684 2906 
L 4684 2381 
L 678 2381 
L 678 2906 
z
M 678 1631 
L 4684 1631 
L 4684 1100 
L 678 1100 
L 678 1631 
z
" transform="scale(0.015625)"/>
       <path id="DejaVuSans-2e" d="M 684 794 
L 1344 794 
L 1344 0 
L 684 0 
L 684 794 
z
" transform="scale(0.015625)"/>
       <path id="DejaVuSans-43" d="M 4122 4306 
L 4122 3641 
Q 3803 3938 3442 4084 
Q 3081 4231 2675 4231 
Q 1875 4231 1450 3742 
Q 1025 3253 1025 2328 
Q 1025 1406 1450 917 
Q 1875 428 2675 428 
Q 3081 428 3442 575 
Q 3803 722 4122 1019 
L 4122 359 
Q 3791 134 3420 21 
Q 3050 -91 2638 -91 
Q 1578 -91 968 557 
Q 359 1206 359 2328 
Q 359 3453 968 4101 
Q 1578 4750 2638 4750 
Q 3056 4750 3426 4639 
Q 3797 4528 4122 4306 
z
" transform="scale(0.015625)"/>
       <path id="DejaVuSans-46" d="M 628 4666 
L 3309 4666 
L 3309 4134 
L 1259 4134 
L 1259 2759 
L 3109 2759 
L 3109 2228 
L 1259 2228 
L 1259 0 
L 628 0 
L 628 4666 
z
" transform="scale(0.015625)"/>
       <path id="DejaVuSans-49" d="M 628 4666 
L 1259 4666 
L 1259 0 
L 628 0 
L 628 4666 
z
" transform="scale(0.015625)"/>
      </defs>
      <use xlink:href="#DejaVuSans-Oblique-3c9" transform="translate(0 0.78125)"/>
      <use xlink:href="#DejaVuSans-3d" transform="translate(103.222656 0.78125)"/>
      <use xlink:href="#DejaVuSans-30" transform="translate(206.494141 0.78125)"/>
      <use xlink:href="#DejaVuSans-2e" transform="translate(270.117188 0.78125)"/>
      <use xlink:href="#DejaVuSans-32" transform="translate(296.404297 0.78125)"/>
      <use xlink:href="#DejaVuSans-20" transform="translate(360.027344 0.78125)"/>
      <use xlink:href="#DejaVuSans-43" transform="translate(391.814453 0.78125)"/>
      <use xlink:href="#DejaVuSans-46" transform="translate(461.638672 0.78125)"/>
      <use xlink:href="#DejaVuSans-49" transform="translate(519.158203 0.78125)"/>
     </g>
    </g>
    <g id="line2d_72">
     <path d="M 435.541696 45.299219 
L 443.541696 45.299219 
L 451.541696 45.299219 
" style="fill: none; stroke: #2ca02c; stroke-opacity: 0.4; stroke-width: 1.5; stroke-linecap: square"/>
    </g>
    <g id="text_9">
     <!-- $\alpha=-0.039$ (CFI, $\omega=0.2$) -->
     <g transform="translate(457.941696 48.099219) scale(0.08 -0.08)">
      <defs>
       <path id="DejaVuSans-Oblique-3b1" d="M 2619 1628 
L 2622 2350 
Q 2625 3088 2069 3091 
Q 1653 3094 1394 2747 
Q 1069 2319 959 1747 
Q 825 1059 994 731 
Q 1169 397 1547 397 
Q 1966 397 2319 1063 
L 2619 1628 
z
M 2166 3578 
Q 3141 3594 3128 2584 
Q 3128 2584 3616 3500 
L 4128 3500 
L 3119 1603 
L 3109 919 
Q 3109 766 3194 638 
Q 3291 488 3391 488 
L 3669 488 
L 3575 0 
L 3228 0 
Q 2934 0 2722 263 
Q 2622 394 2619 669 
Q 2416 334 2066 50 
Q 1900 -81 1453 -78 
Q 722 -72 456 397 
Q 184 884 353 1747 
Q 534 2675 1009 3097 
Q 1544 3569 2166 3578 
z
" transform="scale(0.015625)"/>
       <path id="DejaVuSans-33" d="M 2597 2516 
Q 3050 2419 3304 2112 
Q 3559 1806 3559 1356 
Q 3559 666 3084 287 
Q 2609 -91 1734 -91 
Q 1441 -91 1130 -33 
Q 819 25 488 141 
L 488 750 
Q 750 597 1062 519 
Q 1375 441 1716 441 
Q 2309 441 2620 675 
Q 2931 909 2931 1356 
Q 2931 1769 2642 2001 
Q 2353 2234 1838 2234 
L 1294 2234 
L 1294 2753 
L 1863 2753 
Q 2328 2753 2575 2939 
Q 2822 3125 2822 3475 
Q 2822 3834 2567 4026 
Q 2313 4219 1838 4219 
Q 1578 4219 1281 4162 
Q 984 4106 628 3988 
L 628 4550 
Q 988 4650 1302 4700 
Q 1616 4750 1894 4750 
Q 2613 4750 3031 4423 
Q 3450 4097 3450 3541 
Q 3450 3153 3228 2886 
Q 3006 2619 2597 2516 
z
" transform="scale(0.015625)"/>
       <path id="DejaVuSans-39" d="M 703 97 
L 703 672 
Q 941 559 1184 500 
Q 1428 441 1663 441 
Q 2288 441 2617 861 
Q 2947 1281 2994 2138 
Q 2813 1869 2534 1725 
Q 2256 1581 1919 1581 
Q 1219 1581 811 2004 
Q 403 2428 403 3163 
Q 403 3881 828 4315 
Q 1253 4750 1959 4750 
Q 2769 4750 3195 4129 
Q 3622 3509 3622 2328 
Q 3622 1225 3098 567 
Q 2575 -91 1691 -91 
Q 1453 -91 1209 -44 
Q 966 3 703 97 
z
M 1959 2075 
Q 2384 2075 2632 2365 
Q 2881 2656 2881 3163 
Q 2881 3666 2632 3958 
Q 2384 4250 1959 4250 
Q 1534 4250 1286 3958 
Q 1038 3666 1038 3163 
Q 1038 2656 1286 2365 
Q 1534 2075 1959 2075 
z
" transform="scale(0.015625)"/>
       <path id="DejaVuSans-28" d="M 1984 4856 
Q 1566 4138 1362 3434 
Q 1159 2731 1159 2009 
Q 1159 1288 1364 580 
Q 1569 -128 1984 -844 
L 1484 -844 
Q 1016 -109 783 600 
Q 550 1309 550 2009 
Q 550 2706 781 3412 
Q 1013 4119 1484 4856 
L 1984 4856 
z
" transform="scale(0.015625)"/>
       <path id="DejaVuSans-2c" d="M 750 794 
L 1409 794 
L 1409 256 
L 897 -744 
L 494 -744 
L 750 256 
L 750 794 
z
" transform="scale(0.015625)"/>
       <path id="DejaVuSans-29" d="M 513 4856 
L 1013 4856 
Q 1481 4119 1714 3412 
Q 1947 2706 1947 2009 
Q 1947 1309 1714 600 
Q 1481 -109 1013 -844 
L 513 -844 
Q 928 -128 1133 580 
Q 1338 1288 1338 2009 
Q 1338 2731 1133 3434 
Q 928 4138 513 4856 
z
" transform="scale(0.015625)"/>
      </defs>
      <use xlink:href="#DejaVuSans-Oblique-3b1" transform="translate(0 0.125)"/>
      <use xlink:href="#DejaVuSans-3d" transform="translate(85.400391 0.125)"/>
      <use xlink:href="#DejaVuSans-2212" transform="translate(188.671875 0.125)"/>
      <use xlink:href="#DejaVuSans-30" transform="translate(272.460938 0.125)"/>
      <use xlink:href="#DejaVuSans-2e" transform="translate(336.083984 0.125)"/>
      <use xlink:href="#DejaVuSans-30" transform="translate(367.871094 0.125)"/>
      <use xlink:href="#DejaVuSans-33" transform="translate(431.494141 0.125)"/>
      <use xlink:href="#DejaVuSans-39" transform="translate(495.117188 0.125)"/>
      <use xlink:href="#DejaVuSans-20" transform="translate(558.740234 0.125)"/>
      <use xlink:href="#DejaVuSans-28" transform="translate(590.527344 0.125)"/>
      <use xlink:href="#DejaVuSans-43" transform="translate(629.541016 0.125)"/>
      <use xlink:href="#DejaVuSans-46" transform="translate(699.365234 0.125)"/>
      <use xlink:href="#DejaVuSans-49" transform="translate(756.884766 0.125)"/>
      <use xlink:href="#DejaVuSans-2c" transform="translate(786.376953 0.125)"/>
      <use xlink:href="#DejaVuSans-20" transform="translate(818.164062 0.125)"/>
      <use xlink:href="#DejaVuSans-Oblique-3c9" transform="translate(849.951172 0.125)"/>
      <use xlink:href="#DejaVuSans-3d" transform="translate(953.173828 0.125)"/>
      <use xlink:href="#DejaVuSans-30" transform="translate(1056.445312 0.125)"/>
      <use xlink:href="#DejaVuSans-2e" transform="translate(1120.068359 0.125)"/>
      <use xlink:href="#DejaVuSans-32" transform="translate(1146.355469 0.125)"/>
      <use xlink:href="#DejaVuSans-29" transform="translate(1209.978516 0.125)"/>
     </g>
    </g>
    <g id="line2d_73">
     <path d="M 435.541696 57.041719 
L 443.541696 57.041719 
L 451.541696 57.041719 
" style="fill: none; stroke: #1f77b4; stroke-opacity: 0.3; stroke-width: 1.5; stroke-linecap: square"/>
    </g>
    <g id="text_10">
     <!-- $\alpha=0.101$ (lin, $\omega=0.2$) -->
     <g transform="translate(457.941696 59.841719) scale(0.08 -0.08)">
      <use xlink:href="#DejaVuSans-Oblique-3b1" transform="translate(0 0.015625)"/>
      <use xlink:href="#DejaVuSans-3d" transform="translate(85.400391 0.015625)"/>
      <use xlink:href="#DejaVuSans-30" transform="translate(188.671875 0.015625)"/>
      <use xlink:href="#DejaVuSans-2e" transform="translate(252.294922 0.015625)"/>
      <use xlink:href="#DejaVuSans-31" transform="translate(284.082031 0.015625)"/>
      <use xlink:href="#DejaVuSans-30" transform="translate(347.705078 0.015625)"/>
      <use xlink:href="#DejaVuSans-31" transform="translate(411.328125 0.015625)"/>
      <use xlink:href="#DejaVuSans-20" transform="translate(474.951172 0.015625)"/>
      <use xlink:href="#DejaVuSans-28" transform="translate(506.738281 0.015625)"/>
      <use xlink:href="#DejaVuSans-6c" transform="translate(545.751953 0.015625)"/>
      <use xlink:href="#DejaVuSans-69" transform="translate(573.535156 0.015625)"/>
      <use xlink:href="#DejaVuSans-6e" transform="translate(601.318359 0.015625)"/>
      <use xlink:href="#DejaVuSans-2c" transform="translate(664.697266 0.015625)"/>
      <use xlink:href="#DejaVuSans-20" transform="translate(696.484375 0.015625)"/>
      <use xlink:href="#DejaVuSans-Oblique-3c9" transform="translate(728.271484 0.015625)"/>
      <use xlink:href="#DejaVuSans-3d" transform="translate(831.494141 0.015625)"/>
      <use xlink:href="#DejaVuSans-30" transform="translate(934.765625 0.015625)"/>
      <use xlink:href="#DejaVuSans-2e" transform="translate(998.388672 0.015625)"/>
      <use xlink:href="#DejaVuSans-32" transform="translate(1024.675781 0.015625)"/>
      <use xlink:href="#DejaVuSans-29" transform="translate(1088.298828 0.015625)"/>
     </g>
    </g>
    <g id="line2d_74">
     <g>
      <use xlink:href="#mfa59254295" x="443.541696" y="68.784219" style="fill: #2ca02c; stroke: #2ca02c; stroke-linejoin: miter"/>
     </g>
    </g>
    <g id="text_11">
     <!-- $\omega=1.0$ CFI -->
     <g transform="translate(457.941696 71.584219) scale(0.08 -0.08)">
      <use xlink:href="#DejaVuSans-Oblique-3c9" transform="translate(0 0.78125)"/>
      <use xlink:href="#DejaVuSans-3d" transform="translate(103.222656 0.78125)"/>
      <use xlink:href="#DejaVuSans-31" transform="translate(206.494141 0.78125)"/>
      <use xlink:href="#DejaVuSans-2e" transform="translate(270.117188 0.78125)"/>
      <use xlink:href="#DejaVuSans-30" transform="translate(301.904297 0.78125)"/>
      <use xlink:href="#DejaVuSans-20" transform="translate(365.527344 0.78125)"/>
      <use xlink:href="#DejaVuSans-43" transform="translate(397.314453 0.78125)"/>
      <use xlink:href="#DejaVuSans-46" transform="translate(467.138672 0.78125)"/>
      <use xlink:href="#DejaVuSans-49" transform="translate(524.658203 0.78125)"/>
     </g>
    </g>
    <g id="line2d_75">
     <path d="M 573.861696 33.556719 
L 581.861696 33.556719 
L 589.861696 33.556719 
" style="fill: none; stroke-dasharray: 5.55,2.4; stroke-dashoffset: 0; stroke: #2ca02c; stroke-opacity: 0.4; stroke-width: 1.5"/>
    </g>
    <g id="text_12">
     <!-- $\alpha=-0.188$ (CFI, $\omega=1.0$) -->
     <g transform="translate(596.261696 36.356719) scale(0.08 -0.08)">
      <defs>
       <path id="DejaVuSans-38" d="M 2034 2216 
Q 1584 2216 1326 1975 
Q 1069 1734 1069 1313 
Q 1069 891 1326 650 
Q 1584 409 2034 409 
Q 2484 409 2743 651 
Q 3003 894 3003 1313 
Q 3003 1734 2745 1975 
Q 2488 2216 2034 2216 
z
M 1403 2484 
Q 997 2584 770 2862 
Q 544 3141 544 3541 
Q 544 4100 942 4425 
Q 1341 4750 2034 4750 
Q 2731 4750 3128 4425 
Q 3525 4100 3525 3541 
Q 3525 3141 3298 2862 
Q 3072 2584 2669 2484 
Q 3125 2378 3379 2068 
Q 3634 1759 3634 1313 
Q 3634 634 3220 271 
Q 2806 -91 2034 -91 
Q 1263 -91 848 271 
Q 434 634 434 1313 
Q 434 1759 690 2068 
Q 947 2378 1403 2484 
z
M 1172 3481 
Q 1172 3119 1398 2916 
Q 1625 2713 2034 2713 
Q 2441 2713 2670 2916 
Q 2900 3119 2900 3481 
Q 2900 3844 2670 4047 
Q 2441 4250 2034 4250 
Q 1625 4250 1398 4047 
Q 1172 3844 1172 3481 
z
" transform="scale(0.015625)"/>
      </defs>
      <use xlink:href="#DejaVuSans-Oblique-3b1" transform="translate(0 0.125)"/>
      <use xlink:href="#DejaVuSans-3d" transform="translate(85.400391 0.125)"/>
      <use xlink:href="#DejaVuSans-2212" transform="translate(188.671875 0.125)"/>
      <use xlink:href="#DejaVuSans-30" transform="translate(272.460938 0.125)"/>
      <use xlink:href="#DejaVuSans-2e" transform="translate(336.083984 0.125)"/>
      <use xlink:href="#DejaVuSans-31" transform="translate(367.871094 0.125)"/>
      <use xlink:href="#DejaVuSans-38" transform="translate(431.494141 0.125)"/>
      <use xlink:href="#DejaVuSans-38" transform="translate(495.117188 0.125)"/>
      <use xlink:href="#DejaVuSans-20" transform="translate(558.740234 0.125)"/>
      <use xlink:href="#DejaVuSans-28" transform="translate(590.527344 0.125)"/>
      <use xlink:href="#DejaVuSans-43" transform="translate(629.541016 0.125)"/>
      <use xlink:href="#DejaVuSans-46" transform="translate(699.365234 0.125)"/>
      <use xlink:href="#DejaVuSans-49" transform="translate(756.884766 0.125)"/>
      <use xlink:href="#DejaVuSans-2c" transform="translate(786.376953 0.125)"/>
      <use xlink:href="#DejaVuSans-20" transform="translate(818.164062 0.125)"/>
      <use xlink:href="#DejaVuSans-Oblique-3c9" transform="translate(849.951172 0.125)"/>
      <use xlink:href="#DejaVuSans-3d" transform="translate(953.173828 0.125)"/>
      <use xlink:href="#DejaVuSans-31" transform="translate(1056.445312 0.125)"/>
      <use xlink:href="#DejaVuSans-2e" transform="translate(1120.068359 0.125)"/>
      <use xlink:href="#DejaVuSans-30" transform="translate(1151.855469 0.125)"/>
      <use xlink:href="#DejaVuSans-29" transform="translate(1215.478516 0.125)"/>
     </g>
    </g>
    <g id="line2d_76">
     <path d="M 573.861696 45.299219 
L 581.861696 45.299219 
L 589.861696 45.299219 
" style="fill: none; stroke-dasharray: 5.55,2.4; stroke-dashoffset: 0; stroke: #1f77b4; stroke-opacity: 0.3; stroke-width: 1.5"/>
    </g>
    <g id="text_13">
     <!-- $\alpha=0.042$ (lin, $\omega=1.0$) -->
     <g transform="translate(596.261696 48.099219) scale(0.08 -0.08)">
      <defs>
       <path id="DejaVuSans-34" d="M 2419 4116 
L 825 1625 
L 2419 1625 
L 2419 4116 
z
M 2253 4666 
L 3047 4666 
L 3047 1625 
L 3713 1625 
L 3713 1100 
L 3047 1100 
L 3047 0 
L 2419 0 
L 2419 1100 
L 313 1100 
L 313 1709 
L 2253 4666 
z
" transform="scale(0.015625)"/>
      </defs>
      <use xlink:href="#DejaVuSans-Oblique-3b1" transform="translate(0 0.015625)"/>
      <use xlink:href="#DejaVuSans-3d" transform="translate(85.400391 0.015625)"/>
      <use xlink:href="#DejaVuSans-30" transform="translate(188.671875 0.015625)"/>
      <use xlink:href="#DejaVuSans-2e" transform="translate(252.294922 0.015625)"/>
      <use xlink:href="#DejaVuSans-30" transform="translate(284.082031 0.015625)"/>
      <use xlink:href="#DejaVuSans-34" transform="translate(347.705078 0.015625)"/>
      <use xlink:href="#DejaVuSans-32" transform="translate(411.328125 0.015625)"/>
      <use xlink:href="#DejaVuSans-20" transform="translate(474.951172 0.015625)"/>
      <use xlink:href="#DejaVuSans-28" transform="translate(506.738281 0.015625)"/>
      <use xlink:href="#DejaVuSans-6c" transform="translate(545.751953 0.015625)"/>
      <use xlink:href="#DejaVuSans-69" transform="translate(573.535156 0.015625)"/>
      <use xlink:href="#DejaVuSans-6e" transform="translate(601.318359 0.015625)"/>
      <use xlink:href="#DejaVuSans-2c" transform="translate(664.697266 0.015625)"/>
      <use xlink:href="#DejaVuSans-20" transform="translate(696.484375 0.015625)"/>
      <use xlink:href="#DejaVuSans-Oblique-3c9" transform="translate(728.271484 0.015625)"/>
      <use xlink:href="#DejaVuSans-3d" transform="translate(831.494141 0.015625)"/>
      <use xlink:href="#DejaVuSans-31" transform="translate(934.765625 0.015625)"/>
      <use xlink:href="#DejaVuSans-2e" transform="translate(998.388672 0.015625)"/>
      <use xlink:href="#DejaVuSans-30" transform="translate(1030.175781 0.015625)"/>
      <use xlink:href="#DejaVuSans-29" transform="translate(1093.798828 0.015625)"/>
     </g>
    </g>
    <g id="line2d_77">
     <path d="M 573.861696 57.041719 
L 581.861696 57.041719 
L 589.861696 57.041719 
" style="fill: none; stroke-dasharray: 4.44,1.92; stroke-dashoffset: 0; stroke: #000000; stroke-opacity: 0.7; stroke-width: 1.2"/>
    </g>
    <g id="text_14">
     <!-- SQL (α=-0.5) -->
     <g transform="translate(596.261696 59.841719) scale(0.08 -0.08)">
      <defs>
       <path id="DejaVuSans-51" d="M 2522 4238 
Q 1834 4238 1429 3725 
Q 1025 3213 1025 2328 
Q 1025 1447 1429 934 
Q 1834 422 2522 422 
Q 3209 422 3611 934 
Q 4013 1447 4013 2328 
Q 4013 3213 3611 3725 
Q 3209 4238 2522 4238 
z
M 3406 84 
L 4238 -825 
L 3475 -825 
L 2784 -78 
Q 2681 -84 2626 -87 
Q 2572 -91 2522 -91 
Q 1538 -91 948 567 
Q 359 1225 359 2328 
Q 359 3434 948 4092 
Q 1538 4750 2522 4750 
Q 3503 4750 4090 4092 
Q 4678 3434 4678 2328 
Q 4678 1516 4351 937 
Q 4025 359 3406 84 
z
" transform="scale(0.015625)"/>
       <path id="DejaVuSans-4c" d="M 628 4666 
L 1259 4666 
L 1259 531 
L 3531 531 
L 3531 0 
L 628 0 
L 628 4666 
z
" transform="scale(0.015625)"/>
       <path id="DejaVuSans-3b1" d="M 2644 1628 
L 2506 2350 
Q 2366 3091 1809 3091 
Q 1391 3091 1200 2747 
Q 959 2316 959 1747 
Q 959 1059 1194 731 
Q 1431 397 1809 397 
Q 2228 397 2453 1063 
L 2644 1628 
z
M 2966 2584 
L 3275 3500 
L 3788 3500 
L 3147 1603 
L 3272 919 
Q 3300 766 3409 638 
Q 3538 488 3638 488 
L 3913 488 
L 3913 0 
L 3569 0 
Q 3275 0 3013 263 
Q 2884 394 2831 669 
Q 2688 322 2394 50 
Q 2256 -78 1809 -78 
Q 1075 -78 719 397 
Q 353 888 353 1747 
Q 353 2666 750 3097 
Q 1191 3578 1809 3578 
Q 2781 3578 2966 2584 
z
" transform="scale(0.015625)"/>
       <path id="DejaVuSans-2d" d="M 313 2009 
L 1997 2009 
L 1997 1497 
L 313 1497 
L 313 2009 
z
" transform="scale(0.015625)"/>
       <path id="DejaVuSans-35" d="M 691 4666 
L 3169 4666 
L 3169 4134 
L 1269 4134 
L 1269 2991 
Q 1406 3038 1543 3061 
Q 1681 3084 1819 3084 
Q 2600 3084 3056 2656 
Q 3513 2228 3513 1497 
Q 3513 744 3044 326 
Q 2575 -91 1722 -91 
Q 1428 -91 1123 -41 
Q 819 9 494 109 
L 494 744 
Q 775 591 1075 516 
Q 1375 441 1709 441 
Q 2250 441 2565 725 
Q 2881 1009 2881 1497 
Q 2881 1984 2565 2268 
Q 2250 2553 1709 2553 
Q 1456 2553 1204 2497 
Q 953 2441 691 2322 
L 691 4666 
z
" transform="scale(0.015625)"/>
      </defs>
      <use xlink:href="#DejaVuSans-53"/>
      <use xlink:href="#DejaVuSans-51" transform="translate(63.476562 0)"/>
      <use xlink:href="#DejaVuSans-4c" transform="translate(142.1875 0)"/>
      <use xlink:href="#DejaVuSans-20" transform="translate(197.900391 0)"/>
      <use xlink:href="#DejaVuSans-28" transform="translate(229.6875 0)"/>
      <use xlink:href="#DejaVuSans-3b1" transform="translate(268.701172 0)"/>
      <use xlink:href="#DejaVuSans-3d" transform="translate(334.619141 0)"/>
      <use xlink:href="#DejaVuSans-2d" transform="translate(418.408203 0)"/>
      <use xlink:href="#DejaVuSans-30" transform="translate(454.492188 0)"/>
      <use xlink:href="#DejaVuSans-2e" transform="translate(518.115234 0)"/>
      <use xlink:href="#DejaVuSans-35" transform="translate(549.902344 0)"/>
      <use xlink:href="#DejaVuSans-29" transform="translate(613.525391 0)"/>
     </g>
    </g>
    <g id="line2d_78">
     <path d="M 573.861696 68.784219 
L 581.861696 68.784219 
L 589.861696 68.784219 
" style="fill: none; stroke-dasharray: 1,1.65; stroke-dashoffset: 0; stroke: #000000; stroke-opacity: 0.5"/>
    </g>
    <g id="text_15">
     <!-- HL (α=-1.0) -->
     <g transform="translate(596.261696 71.584219) scale(0.08 -0.08)">
      <defs>
       <path id="DejaVuSans-48" d="M 628 4666 
L 1259 4666 
L 1259 2753 
L 3553 2753 
L 3553 4666 
L 4184 4666 
L 4184 0 
L 3553 0 
L 3553 2222 
L 1259 2222 
L 1259 0 
L 628 0 
L 628 4666 
z
" transform="scale(0.015625)"/>
      </defs>
      <use xlink:href="#DejaVuSans-48"/>
      <use xlink:href="#DejaVuSans-4c" transform="translate(75.195312 0)"/>
      <use xlink:href="#DejaVuSans-20" transform="translate(130.908203 0)"/>
      <use xlink:href="#DejaVuSans-28" transform="translate(162.695312 0)"/>
      <use xlink:href="#DejaVuSans-3b1" transform="translate(201.708984 0)"/>
      <use xlink:href="#DejaVuSans-3d" transform="translate(267.626953 0)"/>
      <use xlink:href="#DejaVuSans-2d" transform="translate(351.416016 0)"/>
      <use xlink:href="#DejaVuSans-31" transform="translate(387.5 0)"/>
      <use xlink:href="#DejaVuSans-2e" transform="translate(451.123047 0)"/>
      <use xlink:href="#DejaVuSans-30" transform="translate(482.910156 0)"/>
      <use xlink:href="#DejaVuSans-29" transform="translate(546.533203 0)"/>
     </g>
    </g>
   </g>
  </g>
 </g>
 <defs>
  <clipPath id="p494c32ff4f">
   <rect x="53.31375" y="23.077969" width="650.547946" height="356.968"/>
  </clipPath>
 </defs>
</svg>
