<?xml version="1.0" encoding="utf-8" standalone="no"?>
<!DOCTYPE svg PUBLIC "-//W3C//DTD SVG 1.1//EN"
  "http://www.w3.org/Graphics/SVG/1.1/DTD/svg11.dtd">
<svg xmlns:xlink="http://www.w3.org/1999/xlink" width="710.0125pt" height="423.034375pt" viewBox="0 0 710.0125 423.034375" xmlns="http://www.w3.org/2000/svg" version="1.1">
 <metadata>
  <rdf:RDF xmlns:dc="http://purl.org/dc/elements/1.1/" xmlns:cc="http://creativecommons.org/ns#" xmlns:rdf="http://www.w3.org/1999/02/22-rdf-syntax-ns#">
   <cc:Work>
    <dc:type rdf:resource="http://purl.org/dc/dcmitype/StillImage"/>
    <dc:date>2026-06-15T12:16:26.887777</dc:date>
    <dc:format>image/svg+xml</dc:format>
    <dc:creator>
     <cc:Agent>
      <dc:title>Matplotlib v3.10.9, https://matplotlib.org/</dc:title>
     </cc:Agent>
    </dc:creator>
   </cc:Work>
  </rdf:RDF>
 </metadata>
 <defs>
  <style type="text/css">*{stroke-linejoin: round; stroke-linecap: butt}</style>
 </defs>
 <g id="figure_1">
  <g id="patch_1">
   <path d="M -0 423.034375 
L 710.0125 423.034375 
L 710.0125 0 
L -0 0 
z
" style="fill: #ffffff"/>
  </g>
  <g id="axes_1">
   <g id="patch_2">
    <path d="M 34.7625 385.478125 
L 702.8125 385.478125 
L 702.8125 22.318125 
L 34.7625 22.318125 
z
" style="fill: #ffffff"/>
   </g>
   <g id="matplotlib.axis_1">
    <g id="xtick_1">
     <g id="line2d_1">
      <defs>
       <path id="m3b1803c829" d="M 0 0 
L 0 3.5 
" style="stroke: #000000; stroke-width: 0.8"/>
      </defs>
      <g>
       <use xlink:href="#m3b1803c829" x="135.473555" y="385.478125" style="stroke: #000000; stroke-width: 0.8"/>
      </g>
     </g>
     <g id="text_1">
      <!-- 2 -->
      <g transform="translate(132.292305 400.076562) scale(0.1 -0.1)">
       <defs>
        <path id="DejaVuSans-32" d="M 1228 531 
L 3431 531 
L 3431 0 
L 469 0 
L 469 531 
Q 828 903 1448 1529 
Q 2069 2156 2228 2338 
Q 2531 2678 2651 2914 
Q 2772 3150 2772 3378 
Q 2772 3750 2511 3984 
Q 2250 4219 1831 4219 
Q 1534 4219 1204 4116 
Q 875 4013 500 3803 
L 500 4441 
Q 881 4594 1212 4672 
Q 1544 4750 1819 4750 
Q 2544 4750 2975 4387 
Q 3406 4025 3406 3419 
Q 3406 3131 3298 2873 
Q 3191 2616 2906 2266 
Q 2828 2175 2409 1742 
Q 1991 1309 1228 531 
z
" transform="scale(0.015625)"/>
       </defs>
       <use xlink:href="#DejaVuSans-32"/>
      </g>
     </g>
    </g>
    <g id="xtick_2">
     <g id="line2d_2">
      <g>
       <use xlink:href="#m3b1803c829" x="269.754962" y="385.478125" style="stroke: #000000; stroke-width: 0.8"/>
      </g>
     </g>
     <g id="text_2">
      <!-- 4 -->
      <g transform="translate(266.573712 400.076562) scale(0.1 -0.1)">
       <defs>
        <path id="DejaVuSans-34" d="M 2419 4116 
L 825 1625 
L 2419 1625 
L 2419 4116 
z
M 2253 4666 
L 3047 4666 
L 3047 1625 
L 3713 1625 
L 3713 1100 
L 3047 1100 
L 3047 0 
L 2419 0 
L 2419 1100 
L 313 1100 
L 313 1709 
L 2253 4666 
z
" transform="scale(0.015625)"/>
       </defs>
       <use xlink:href="#DejaVuSans-34"/>
      </g>
     </g>
    </g>
    <g id="xtick_3">
     <g id="line2d_3">
      <g>
       <use xlink:href="#m3b1803c829" x="404.036369" y="385.478125" style="stroke: #000000; stroke-width: 0.8"/>
      </g>
     </g>
     <g id="text_3">
      <!-- 6 -->
      <g transform="translate(400.855119 400.076562) scale(0.1 -0.1)">
       <defs>
        <path id="DejaVuSans-36" d="M 2113 2584 
Q 1688 2584 1439 2293 
Q 1191 2003 1191 1497 
Q 1191 994 1439 701 
Q 1688 409 2113 409 
Q 2538 409 2786 701 
Q 3034 994 3034 1497 
Q 3034 2003 2786 2293 
Q 2538 2584 2113 2584 
z
M 3366 4563 
L 3366 3988 
Q 3128 4100 2886 4159 
Q 2644 4219 2406 4219 
Q 1781 4219 1451 3797 
Q 1122 3375 1075 2522 
Q 1259 2794 1537 2939 
Q 1816 3084 2150 3084 
Q 2853 3084 3261 2657 
Q 3669 2231 3669 1497 
Q 3669 778 3244 343 
Q 2819 -91 2113 -91 
Q 1303 -91 875 529 
Q 447 1150 447 2328 
Q 447 3434 972 4092 
Q 1497 4750 2381 4750 
Q 2619 4750 2861 4703 
Q 3103 4656 3366 4563 
z
" transform="scale(0.015625)"/>
       </defs>
       <use xlink:href="#DejaVuSans-36"/>
      </g>
     </g>
    </g>
    <g id="xtick_4">
     <g id="line2d_4">
      <g>
       <use xlink:href="#m3b1803c829" x="538.317776" y="385.478125" style="stroke: #000000; stroke-width: 0.8"/>
      </g>
     </g>
     <g id="text_4">
      <!-- 8 -->
      <g transform="translate(535.136526 400.076562) scale(0.1 -0.1)">
       <defs>
        <path id="DejaVuSans-38" d="M 2034 2216 
Q 1584 2216 1326 1975 
Q 1069 1734 1069 1313 
Q 1069 891 1326 650 
Q 1584 409 2034 409 
Q 2484 409 2743 651 
Q 3003 894 3003 1313 
Q 3003 1734 2745 1975 
Q 2488 2216 2034 2216 
z
M 1403 2484 
Q 997 2584 770 2862 
Q 544 3141 544 3541 
Q 544 4100 942 4425 
Q 1341 4750 2034 4750 
Q 2731 4750 3128 4425 
Q 3525 4100 3525 3541 
Q 3525 3141 3298 2862 
Q 3072 2584 2669 2484 
Q 3125 2378 3379 2068 
Q 3634 1759 3634 1313 
Q 3634 634 3220 271 
Q 2806 -91 2034 -91 
Q 1263 -91 848 271 
Q 434 634 434 1313 
Q 434 1759 690 2068 
Q 947 2378 1403 2484 
z
M 1172 3481 
Q 1172 3119 1398 2916 
Q 1625 2713 2034 2713 
Q 2441 2713 2670 2916 
Q 2900 3119 2900 3481 
Q 2900 3844 2670 4047 
Q 2441 4250 2034 4250 
Q 1625 4250 1398 4047 
Q 1172 3844 1172 3481 
z
" transform="scale(0.015625)"/>
       </defs>
       <use xlink:href="#DejaVuSans-38"/>
      </g>
     </g>
    </g>
    <g id="xtick_5">
     <g id="line2d_5">
      <g>
       <use xlink:href="#m3b1803c829" x="672.599183" y="385.478125" style="stroke: #000000; stroke-width: 0.8"/>
      </g>
     </g>
     <g id="text_5">
      <!-- 10 -->
      <g transform="translate(666.236683 400.076562) scale(0.1 -0.1)">
       <defs>
        <path id="DejaVuSans-31" d="M 794 531 
L 1825 531 
L 1825 4091 
L 703 3866 
L 703 4441 
L 1819 4666 
L 2450 4666 
L 2450 531 
L 3481 531 
L 3481 0 
L 794 0 
L 794 531 
z
" transform="scale(0.015625)"/>
        <path id="DejaVuSans-30" d="M 2034 4250 
Q 1547 4250 1301 3770 
Q 1056 3291 1056 2328 
Q 1056 1369 1301 889 
Q 1547 409 2034 409 
Q 2525 409 2770 889 
Q 3016 1369 3016 2328 
Q 3016 3291 2770 3770 
Q 2525 4250 2034 4250 
z
M 2034 4750 
Q 2819 4750 3233 4129 
Q 3647 3509 3647 2328 
Q 3647 1150 3233 529 
Q 2819 -91 2034 -91 
Q 1250 -91 836 529 
Q 422 1150 422 2328 
Q 422 3509 836 4129 
Q 1250 4750 2034 4750 
z
" transform="scale(0.015625)"/>
       </defs>
       <use xlink:href="#DejaVuSans-31"/>
       <use xlink:href="#DejaVuSans-30" transform="translate(63.623047 0)"/>
      </g>
     </g>
    </g>
    <g id="text_6">
     <!-- $N$ -->
     <g transform="translate(365.0375 413.754687) scale(0.1 -0.1)">
      <defs>
       <path id="DejaVuSans-Oblique-4e" d="M 1081 4666 
L 1931 4666 
L 3219 666 
L 4000 4666 
L 4616 4666 
L 3706 0 
L 2853 0 
L 1569 4025 
L 788 0 
L 172 0 
L 1081 4666 
z
" transform="scale(0.015625)"/>
      </defs>
      <use xlink:href="#DejaVuSans-Oblique-4e" transform="translate(0 0.09375)"/>
     </g>
    </g>
   </g>
   <g id="matplotlib.axis_2">
    <g id="ytick_1">
     <g id="line2d_6">
      <defs>
       <path id="m996dccc7dc" d="M 0 0 
L -3.5 0 
" style="stroke: #000000; stroke-width: 0.8"/>
      </defs>
      <g>
       <use xlink:href="#m996dccc7dc" x="34.7625" y="369.665076" style="stroke: #000000; stroke-width: 0.8"/>
      </g>
     </g>
     <g id="text_7">
      <!-- 0 -->
      <g transform="translate(21.4 373.464294) scale(0.1 -0.1)">
       <use xlink:href="#DejaVuSans-30"/>
      </g>
     </g>
    </g>
    <g id="ytick_2">
     <g id="line2d_7">
      <g>
       <use xlink:href="#m996dccc7dc" x="34.7625" y="302.307654" style="stroke: #000000; stroke-width: 0.8"/>
      </g>
     </g>
     <g id="text_8">
      <!-- 1 -->
      <g transform="translate(21.4 306.106873) scale(0.1 -0.1)">
       <use xlink:href="#DejaVuSans-31"/>
      </g>
     </g>
    </g>
    <g id="ytick_3">
     <g id="line2d_8">
      <g>
       <use xlink:href="#m996dccc7dc" x="34.7625" y="234.950233" style="stroke: #000000; stroke-width: 0.8"/>
      </g>
     </g>
     <g id="text_9">
      <!-- 2 -->
      <g transform="translate(21.4 238.749451) scale(0.1 -0.1)">
       <use xlink:href="#DejaVuSans-32"/>
      </g>
     </g>
    </g>
    <g id="ytick_4">
     <g id="line2d_9">
      <g>
       <use xlink:href="#m996dccc7dc" x="34.7625" y="167.592811" style="stroke: #000000; stroke-width: 0.8"/>
      </g>
     </g>
     <g id="text_10">
      <!-- 3 -->
      <g transform="translate(21.4 171.39203) scale(0.1 -0.1)">
       <defs>
        <path id="DejaVuSans-33" d="M 2597 2516 
Q 3050 2419 3304 2112 
Q 3559 1806 3559 1356 
Q 3559 666 3084 287 
Q 2609 -91 1734 -91 
Q 1441 -91 1130 -33 
Q 819 25 488 141 
L 488 750 
Q 750 597 1062 519 
Q 1375 441 1716 441 
Q 2309 441 2620 675 
Q 2931 909 2931 1356 
Q 2931 1769 2642 2001 
Q 2353 2234 1838 2234 
L 1294 2234 
L 1294 2753 
L 1863 2753 
Q 2328 2753 2575 2939 
Q 2822 3125 2822 3475 
Q 2822 3834 2567 4026 
Q 2313 4219 1838 4219 
Q 1578 4219 1281 4162 
Q 984 4106 628 3988 
L 628 4550 
Q 988 4650 1302 4700 
Q 1616 4750 1894 4750 
Q 2613 4750 3031 4423 
Q 3450 4097 3450 3541 
Q 3450 3153 3228 2886 
Q 3006 2619 2597 2516 
z
" transform="scale(0.015625)"/>
       </defs>
       <use xlink:href="#DejaVuSans-33"/>
      </g>
     </g>
    </g>
    <g id="ytick_5">
     <g id="line2d_10">
      <g>
       <use xlink:href="#m996dccc7dc" x="34.7625" y="100.23539" style="stroke: #000000; stroke-width: 0.8"/>
      </g>
     </g>
     <g id="text_11">
      <!-- 4 -->
      <g transform="translate(21.4 104.034609) scale(0.1 -0.1)">
       <use xlink:href="#DejaVuSans-34"/>
      </g>
     </g>
    </g>
    <g id="ytick_6">
     <g id="line2d_11">
      <g>
       <use xlink:href="#m996dccc7dc" x="34.7625" y="32.877968" style="stroke: #000000; stroke-width: 0.8"/>
      </g>
     </g>
     <g id="text_12">
      <!-- 5 -->
      <g transform="translate(21.4 36.677187) scale(0.1 -0.1)">
       <defs>
        <path id="DejaVuSans-35" d="M 691 4666 
L 3169 4666 
L 3169 4134 
L 1269 4134 
L 1269 2991 
Q 1406 3038 1543 3061 
Q 1681 3084 1819 3084 
Q 2600 3084 3056 2656 
Q 3513 2228 3513 1497 
Q 3513 744 3044 326 
Q 2575 -91 1722 -91 
Q 1428 -91 1123 -41 
Q 819 9 494 109 
L 494 744 
Q 775 591 1075 516 
Q 1375 441 1709 441 
Q 2250 441 2565 725 
Q 2881 1009 2881 1497 
Q 2881 1984 2565 2268 
Q 2250 2553 1709 2553 
Q 1456 2553 1204 2497 
Q 953 2441 691 2322 
L 691 4666 
z
" transform="scale(0.015625)"/>
       </defs>
       <use xlink:href="#DejaVuSans-35"/>
      </g>
     </g>
    </g>
    <g id="text_13">
     <!-- $R(N) = \Delta\omega_{\mathrm{SQL}} / \Delta\omega$ -->
     <g transform="translate(14.8 245.148125) rotate(-90) scale(0.1 -0.1)">
      <defs>
       <path id="DejaVuSans-Oblique-52" d="M 1613 4147 
L 1294 2491 
L 2106 2491 
Q 2584 2491 2879 2755 
Q 3175 3019 3175 3444 
Q 3175 3784 2976 3965 
Q 2778 4147 2406 4147 
L 1613 4147 
z
M 2772 2241 
Q 2972 2194 3105 2009 
Q 3238 1825 3413 1275 
L 3809 0 
L 3144 0 
L 2778 1197 
Q 2638 1659 2453 1815 
Q 2269 1972 1888 1972 
L 1191 1972 
L 806 0 
L 172 0 
L 1081 4666 
L 2503 4666 
Q 3150 4666 3495 4373 
Q 3841 4081 3841 3531 
Q 3841 3044 3547 2687 
Q 3253 2331 2772 2241 
z
" transform="scale(0.015625)"/>
       <path id="DejaVuSans-28" d="M 1984 4856 
Q 1566 4138 1362 3434 
Q 1159 2731 1159 2009 
Q 1159 1288 1364 580 
Q 1569 -128 1984 -844 
L 1484 -844 
Q 1016 -109 783 600 
Q 550 1309 550 2009 
Q 550 2706 781 3412 
Q 1013 4119 1484 4856 
L 1984 4856 
z
" transform="scale(0.015625)"/>
       <path id="DejaVuSans-29" d="M 513 4856 
L 1013 4856 
Q 1481 4119 1714 3412 
Q 1947 2706 1947 2009 
Q 1947 1309 1714 600 
Q 1481 -109 1013 -844 
L 513 -844 
Q 928 -128 1133 580 
Q 1338 1288 1338 2009 
Q 1338 2731 1133 3434 
Q 928 4138 513 4856 
z
" transform="scale(0.015625)"/>
       <path id="DejaVuSans-3d" d="M 678 2906 
L 4684 2906 
L 4684 2381 
L 678 2381 
L 678 2906 
z
M 678 1631 
L 4684 1631 
L 4684 1100 
L 678 1100 
L 678 1631 
z
" transform="scale(0.015625)"/>
       <path id="DejaVuSans-394" d="M 2188 4044 
L 906 525 
L 3472 525 
L 2188 4044 
z
M 50 0 
L 1831 4666 
L 2547 4666 
L 4325 0 
L 50 0 
z
" transform="scale(0.015625)"/>
       <path id="DejaVuSans-Oblique-3c9" d="M 1369 -91 
Q 72 -91 434 1766 
Q 575 2500 1256 3500 
L 1875 3500 
Q 1231 2500 1088 1750 
Q 819 397 1519 397 
Q 2166 397 2478 2078 
L 3009 2078 
Q 2669 388 3316 397 
Q 4013 403 4275 1750 
Q 4419 2500 4169 3500 
L 4788 3500 
Q 5075 2500 4934 1766 
Q 4578 -94 3278 -91 
Q 2428 -88 2503 844 
Q 2194 -91 1369 -91 
z
" transform="scale(0.015625)"/>
       <path id="DejaVuSans-53" d="M 3425 4513 
L 3425 3897 
Q 3066 4069 2747 4153 
Q 2428 4238 2131 4238 
Q 1616 4238 1336 4038 
Q 1056 3838 1056 3469 
Q 1056 3159 1242 3001 
Q 1428 2844 1947 2747 
L 2328 2669 
Q 3034 2534 3370 2195 
Q 3706 1856 3706 1288 
Q 3706 609 3251 259 
Q 2797 -91 1919 -91 
Q 1588 -91 1214 -16 
Q 841 59 441 206 
L 441 856 
Q 825 641 1194 531 
Q 1563 422 1919 422 
Q 2459 422 2753 634 
Q 3047 847 3047 1241 
Q 3047 1584 2836 1778 
Q 2625 1972 2144 2069 
L 1759 2144 
Q 1053 2284 737 2584 
Q 422 2884 422 3419 
Q 422 4038 858 4394 
Q 1294 4750 2059 4750 
Q 2388 4750 2728 4690 
Q 3069 4631 3425 4513 
z
" transform="scale(0.015625)"/>
       <path id="DejaVuSans-51" d="M 2522 4238 
Q 1834 4238 1429 3725 
Q 1025 3213 1025 2328 
Q 1025 1447 1429 934 
Q 1834 422 2522 422 
Q 3209 422 3611 934 
Q 4013 1447 4013 2328 
Q 4013 3213 3611 3725 
Q 3209 4238 2522 4238 
z
M 3406 84 
L 4238 -825 
L 3475 -825 
L 2784 -78 
Q 2681 -84 2626 -87 
Q 2572 -91 2522 -91 
Q 1538 -91 948 567 
Q 359 1225 359 2328 
Q 359 3434 948 4092 
Q 1538 4750 2522 4750 
Q 3503 4750 4090 4092 
Q 4678 3434 4678 2328 
Q 4678 1516 4351 937 
Q 4025 359 3406 84 
z
" transform="scale(0.015625)"/>
       <path id="DejaVuSans-4c" d="M 628 4666 
L 1259 4666 
L 1259 531 
L 3531 531 
L 3531 0 
L 628 0 
L 628 4666 
z
" transform="scale(0.015625)"/>
       <path id="DejaVuSans-2f" d="M 1625 4666 
L 2156 4666 
L 531 -594 
L 0 -594 
L 1625 4666 
z
" transform="scale(0.015625)"/>
      </defs>
      <use xlink:href="#DejaVuSans-Oblique-52" transform="translate(0 0.125)"/>
      <use xlink:href="#DejaVuSans-28" transform="translate(69.482422 0.125)"/>
      <use xlink:href="#DejaVuSans-Oblique-4e" transform="translate(108.496094 0.125)"/>
      <use xlink:href="#DejaVuSans-29" transform="translate(183.300781 0.125)"/>
      <use xlink:href="#DejaVuSans-3d" transform="translate(241.796875 0.125)"/>
      <use xlink:href="#DejaVuSans-394" transform="translate(345.068359 0.125)"/>
      <use xlink:href="#DejaVuSans-Oblique-3c9" transform="translate(413.476562 0.125)"/>
      <use xlink:href="#DejaVuSans-53" transform="translate(497.216797 -16.28125) scale(0.7)"/>
      <use xlink:href="#DejaVuSans-51" transform="translate(541.650391 -16.28125) scale(0.7)"/>
      <use xlink:href="#DejaVuSans-4c" transform="translate(596.748047 -16.28125) scale(0.7)"/>
      <use xlink:href="#DejaVuSans-2f" transform="translate(638.481445 0.125)"/>
      <use xlink:href="#DejaVuSans-394" transform="translate(672.172852 0.125)"/>
      <use xlink:href="#DejaVuSans-Oblique-3c9" transform="translate(740.581055 0.125)"/>
     </g>
    </g>
   </g>
   <g id="line2d_12">
    <path d="M 68.332852 38.825398 
L 68.332852 38.825398 
L 135.473555 274.983992 
L 135.473555 190.856065 
L 135.473555 273.947821 
L 202.614259 206.935193 
L 202.614259 251.045861 
L 269.754962 366.472039 
L 269.754962 249.44578 
L 269.754962 298.889962 
L 336.895666 361.277371 
L 336.895666 262.152446 
L 404.036369 275.421723 
L 404.036369 367.552082 
L 404.036369 357.951466 
L 471.177073 281.495293 
L 471.177073 362.644441 
L 538.317776 283.332208 
L 538.317776 356.06962 
L 538.317776 366.032068 
L 605.45848 284.79643 
L 605.45848 365.616158 
L 672.599183 364.812062 
L 672.599183 285.997175 
L 672.599183 347.676226 
" clip-path="url(#pedaae7cb64)" style="fill: none; stroke: #414487; stroke-linecap: square"/>
    <defs>
     <path id="m1511653297" d="M 0 2 
C 0.530406 2 1.03916 1.789267 1.414214 1.414214 
C 1.789267 1.03916 2 0.530406 2 0 
C 2 -0.530406 1.789267 -1.03916 1.414214 -1.414214 
C 1.03916 -1.789267 0.530406 -2 0 -2 
C -0.530406 -2 -1.03916 -1.789267 -1.414214 -1.414214 
C -1.789267 -1.03916 -2 -0.530406 -2 0 
C -2 0.530406 -1.789267 1.03916 -1.414214 1.414214 
C -1.03916 1.789267 -0.530406 2 0 2 
z
" style="stroke: #414487"/>
    </defs>
    <g clip-path="url(#pedaae7cb64)">
     <use xlink:href="#m1511653297" x="68.332852" y="38.825398" style="fill: #414487; stroke: #414487"/>
     <use xlink:href="#m1511653297" x="68.332852" y="38.825398" style="fill: #414487; stroke: #414487"/>
     <use xlink:href="#m1511653297" x="135.473555" y="274.983992" style="fill: #414487; stroke: #414487"/>
     <use xlink:href="#m1511653297" x="135.473555" y="190.856065" style="fill: #414487; stroke: #414487"/>
     <use xlink:href="#m1511653297" x="135.473555" y="273.947821" style="fill: #414487; stroke: #414487"/>
     <use xlink:href="#m1511653297" x="202.614259" y="206.935193" style="fill: #414487; stroke: #414487"/>
     <use xlink:href="#m1511653297" x="202.614259" y="251.045861" style="fill: #414487; stroke: #414487"/>
     <use xlink:href="#m1511653297" x="269.754962" y="366.472039" style="fill: #414487; stroke: #414487"/>
     <use xlink:href="#m1511653297" x="269.754962" y="249.44578" style="fill: #414487; stroke: #414487"/>
     <use xlink:href="#m1511653297" x="269.754962" y="298.889962" style="fill: #414487; stroke: #414487"/>
     <use xlink:href="#m1511653297" x="336.895666" y="361.277371" style="fill: #414487; stroke: #414487"/>
     <use xlink:href="#m1511653297" x="336.895666" y="262.152446" style="fill: #414487; stroke: #414487"/>
     <use xlink:href="#m1511653297" x="404.036369" y="275.421723" style="fill: #414487; stroke: #414487"/>
     <use xlink:href="#m1511653297" x="404.036369" y="367.552082" style="fill: #414487; stroke: #414487"/>
     <use xlink:href="#m1511653297" x="404.036369" y="357.951466" style="fill: #414487; stroke: #414487"/>
     <use xlink:href="#m1511653297" x="471.177073" y="281.495293" style="fill: #414487; stroke: #414487"/>
     <use xlink:href="#m1511653297" x="471.177073" y="362.644441" style="fill: #414487; stroke: #414487"/>
     <use xlink:href="#m1511653297" x="538.317776" y="283.332208" style="fill: #414487; stroke: #414487"/>
     <use xlink:href="#m1511653297" x="538.317776" y="356.06962" style="fill: #414487; stroke: #414487"/>
     <use xlink:href="#m1511653297" x="538.317776" y="366.032068" style="fill: #414487; stroke: #414487"/>
     <use xlink:href="#m1511653297" x="605.45848" y="284.79643" style="fill: #414487; stroke: #414487"/>
     <use xlink:href="#m1511653297" x="605.45848" y="365.616158" style="fill: #414487; stroke: #414487"/>
     <use xlink:href="#m1511653297" x="672.599183" y="364.812062" style="fill: #414487; stroke: #414487"/>
     <use xlink:href="#m1511653297" x="672.599183" y="285.997175" style="fill: #414487; stroke: #414487"/>
     <use xlink:href="#m1511653297" x="672.599183" y="347.676226" style="fill: #414487; stroke: #414487"/>
    </g>
   </g>
   <g id="line2d_13">
    <path d="M 135.473555 184.841936 
L 135.473555 255.646656 
L 135.473555 185.421955 
L 269.754962 230.171266 
L 269.754962 341.807527 
L 269.754962 327.183588 
L 404.036369 362.998597 
L 404.036369 251.496171 
L 404.036369 255.499118 
L 538.317776 368.369373 
L 538.317776 271.292235 
L 538.317776 266.870545 
L 672.599183 279.079661 
L 672.599183 368.970852 
L 672.599183 342.544028 
" clip-path="url(#pedaae7cb64)" style="fill: none; stroke-dasharray: 3.7,1.6; stroke-dashoffset: 0; stroke: #414487"/>
    <g clip-path="url(#pedaae7cb64)">
     <use xlink:href="#m1511653297" x="135.473555" y="184.841936" style="fill: #414487; stroke: #414487"/>
     <use xlink:href="#m1511653297" x="135.473555" y="255.646656" style="fill: #414487; stroke: #414487"/>
     <use xlink:href="#m1511653297" x="135.473555" y="185.421955" style="fill: #414487; stroke: #414487"/>
     <use xlink:href="#m1511653297" x="269.754962" y="230.171266" style="fill: #414487; stroke: #414487"/>
     <use xlink:href="#m1511653297" x="269.754962" y="341.807527" style="fill: #414487; stroke: #414487"/>
     <use xlink:href="#m1511653297" x="269.754962" y="327.183588" style="fill: #414487; stroke: #414487"/>
     <use xlink:href="#m1511653297" x="404.036369" y="362.998597" style="fill: #414487; stroke: #414487"/>
     <use xlink:href="#m1511653297" x="404.036369" y="251.496171" style="fill: #414487; stroke: #414487"/>
     <use xlink:href="#m1511653297" x="404.036369" y="255.499118" style="fill: #414487; stroke: #414487"/>
     <use xlink:href="#m1511653297" x="538.317776" y="368.369373" style="fill: #414487; stroke: #414487"/>
     <use xlink:href="#m1511653297" x="538.317776" y="271.292235" style="fill: #414487; stroke: #414487"/>
     <use xlink:href="#m1511653297" x="538.317776" y="266.870545" style="fill: #414487; stroke: #414487"/>
     <use xlink:href="#m1511653297" x="672.599183" y="279.079661" style="fill: #414487; stroke: #414487"/>
     <use xlink:href="#m1511653297" x="672.599183" y="368.970852" style="fill: #414487; stroke: #414487"/>
     <use xlink:href="#m1511653297" x="672.599183" y="342.544028" style="fill: #414487; stroke: #414487"/>
    </g>
   </g>
   <g id="line2d_14">
    <path d="M 68.332852 38.825398 
L 68.332852 38.825398 
L 135.473555 164.682925 
L 135.473555 190.791029 
L 135.473555 164.578624 
L 202.614259 200.647616 
L 202.614259 180.757998 
L 269.754962 225.590164 
L 269.754962 240.621814 
L 269.754962 218.460808 
L 336.895666 231.946858 
L 336.895666 241.001571 
L 404.036369 262.655151 
L 404.036369 239.729347 
L 404.036369 237.465291 
L 471.177073 280.766104 
L 471.177073 247.703 
L 538.317776 282.706547 
L 538.317776 250.02817 
L 538.317776 252.812038 
L 605.45848 284.247859 
L 605.45848 255.941829 
L 672.599183 263.985098 
L 672.599183 285.508025 
L 672.599183 257.493679 
" clip-path="url(#pedaae7cb64)" style="fill: none; stroke-dasharray: 1,1.65; stroke-dashoffset: 0; stroke: #414487"/>
    <g clip-path="url(#pedaae7cb64)">
     <use xlink:href="#m1511653297" x="68.332852" y="38.825398" style="fill: #414487; stroke: #414487"/>
     <use xlink:href="#m1511653297" x="68.332852" y="38.825398" style="fill: #414487; stroke: #414487"/>
     <use xlink:href="#m1511653297" x="135.473555" y="164.682925" style="fill: #414487; stroke: #414487"/>
     <use xlink:href="#m1511653297" x="135.473555" y="190.791029" style="fill: #414487; stroke: #414487"/>
     <use xlink:href="#m1511653297" x="135.473555" y="164.578624" style="fill: #414487; stroke: #414487"/>
     <use xlink:href="#m1511653297" x="202.614259" y="200.647616" style="fill: #414487; stroke: #414487"/>
     <use xlink:href="#m1511653297" x="202.614259" y="180.757998" style="fill: #414487; stroke: #414487"/>
     <use xlink:href="#m1511653297" x="269.754962" y="225.590164" style="fill: #414487; stroke: #414487"/>
     <use xlink:href="#m1511653297" x="269.754962" y="240.621814" style="fill: #414487; stroke: #414487"/>
     <use xlink:href="#m1511653297" x="269.754962" y="218.460808" style="fill: #414487; stroke: #414487"/>
     <use xlink:href="#m1511653297" x="336.895666" y="231.946858" style="fill: #414487; stroke: #414487"/>
     <use xlink:href="#m1511653297" x="336.895666" y="241.001571" style="fill: #414487; stroke: #414487"/>
     <use xlink:href="#m1511653297" x="404.036369" y="262.655151" style="fill: #414487; stroke: #414487"/>
     <use xlink:href="#m1511653297" x="404.036369" y="239.729347" style="fill: #414487; stroke: #414487"/>
     <use xlink:href="#m1511653297" x="404.036369" y="237.465291" style="fill: #414487; stroke: #414487"/>
     <use xlink:href="#m1511653297" x="471.177073" y="280.766104" style="fill: #414487; stroke: #414487"/>
     <use xlink:href="#m1511653297" x="471.177073" y="247.703" style="fill: #414487; stroke: #414487"/>
     <use xlink:href="#m1511653297" x="538.317776" y="282.706547" style="fill: #414487; stroke: #414487"/>
     <use xlink:href="#m1511653297" x="538.317776" y="250.02817" style="fill: #414487; stroke: #414487"/>
     <use xlink:href="#m1511653297" x="538.317776" y="252.812038" style="fill: #414487; stroke: #414487"/>
     <use xlink:href="#m1511653297" x="605.45848" y="284.247859" style="fill: #414487; stroke: #414487"/>
     <use xlink:href="#m1511653297" x="605.45848" y="255.941829" style="fill: #414487; stroke: #414487"/>
     <use xlink:href="#m1511653297" x="672.599183" y="263.985098" style="fill: #414487; stroke: #414487"/>
     <use xlink:href="#m1511653297" x="672.599183" y="285.508025" style="fill: #414487; stroke: #414487"/>
     <use xlink:href="#m1511653297" x="672.599183" y="257.493679" style="fill: #414487; stroke: #414487"/>
    </g>
   </g>
   <g id="line2d_15">
    <path d="M 68.332852 158.970399 
L 68.332852 158.970399 
L 135.473555 236.214892 
L 135.473555 191.366435 
L 135.473555 235.360268 
L 202.614259 240.881996 
L 202.614259 225.041468 
L 269.754962 331.748071 
L 269.754962 291.658971 
L 269.754962 238.758568 
L 336.895666 327.309414 
L 336.895666 282.139558 
L 404.036369 293.939682 
L 404.036369 343.055099 
L 404.036369 352.161459 
L 471.177073 294.685605 
L 471.177073 332.870672 
L 538.317776 295.285414 
L 538.317776 339.93906 
L 538.317776 350.208853 
L 605.45848 295.781076 
L 605.45848 361.41853 
L 672.599183 362.873026 
L 672.599183 296.199266 
L 672.599183 347.167014 
" clip-path="url(#pedaae7cb64)" style="fill: none; stroke: #bddf26; stroke-linecap: square"/>
    <defs>
     <path id="mf601851e8a" d="M 0 2 
C 0.530406 2 1.03916 1.789267 1.414214 1.414214 
C 1.789267 1.03916 2 0.530406 2 0 
C 2 -0.530406 1.789267 -1.03916 1.414214 -1.414214 
C 1.03916 -1.789267 0.530406 -2 0 -2 
C -0.530406 -2 -1.03916 -1.789267 -1.414214 -1.414214 
C -1.789267 -1.03916 -2 -0.530406 -2 0 
C -2 0.530406 -1.789267 1.03916 -1.414214 1.414214 
C -1.03916 1.789267 -0.530406 2 0 2 
z
" style="stroke: #bddf26"/>
    </defs>
    <g clip-path="url(#pedaae7cb64)">
     <use xlink:href="#mf601851e8a" x="68.332852" y="158.970399" style="fill: #bddf26; stroke: #bddf26"/>
     <use xlink:href="#mf601851e8a" x="68.332852" y="158.970399" style="fill: #bddf26; stroke: #bddf26"/>
     <use xlink:href="#mf601851e8a" x="135.473555" y="236.214892" style="fill: #bddf26; stroke: #bddf26"/>
     <use xlink:href="#mf601851e8a" x="135.473555" y="191.366435" style="fill: #bddf26; stroke: #bddf26"/>
     <use xlink:href="#mf601851e8a" x="135.473555" y="235.360268" style="fill: #bddf26; stroke: #bddf26"/>
     <use xlink:href="#mf601851e8a" x="202.614259" y="240.881996" style="fill: #bddf26; stroke: #bddf26"/>
     <use xlink:href="#mf601851e8a" x="202.614259" y="225.041468" style="fill: #bddf26; stroke: #bddf26"/>
     <use xlink:href="#mf601851e8a" x="269.754962" y="331.748071" style="fill: #bddf26; stroke: #bddf26"/>
     <use xlink:href="#mf601851e8a" x="269.754962" y="291.658971" style="fill: #bddf26; stroke: #bddf26"/>
     <use xlink:href="#mf601851e8a" x="269.754962" y="238.758568" style="fill: #bddf26; stroke: #bddf26"/>
     <use xlink:href="#mf601851e8a" x="336.895666" y="327.309414" style="fill: #bddf26; stroke: #bddf26"/>
     <use xlink:href="#mf601851e8a" x="336.895666" y="282.139558" style="fill: #bddf26; stroke: #bddf26"/>
     <use xlink:href="#mf601851e8a" x="404.036369" y="293.939682" style="fill: #bddf26; stroke: #bddf26"/>
     <use xlink:href="#mf601851e8a" x="404.036369" y="343.055099" style="fill: #bddf26; stroke: #bddf26"/>
     <use xlink:href="#mf601851e8a" x="404.036369" y="352.161459" style="fill: #bddf26; stroke: #bddf26"/>
     <use xlink:href="#mf601851e8a" x="471.177073" y="294.685605" style="fill: #bddf26; stroke: #bddf26"/>
     <use xlink:href="#mf601851e8a" x="471.177073" y="332.870672" style="fill: #bddf26; stroke: #bddf26"/>
     <use xlink:href="#mf601851e8a" x="538.317776" y="295.285414" style="fill: #bddf26; stroke: #bddf26"/>
     <use xlink:href="#mf601851e8a" x="538.317776" y="339.93906" style="fill: #bddf26; stroke: #bddf26"/>
     <use xlink:href="#mf601851e8a" x="538.317776" y="350.208853" style="fill: #bddf26; stroke: #bddf26"/>
     <use xlink:href="#mf601851e8a" x="605.45848" y="295.781076" style="fill: #bddf26; stroke: #bddf26"/>
     <use xlink:href="#mf601851e8a" x="605.45848" y="361.41853" style="fill: #bddf26; stroke: #bddf26"/>
     <use xlink:href="#mf601851e8a" x="672.599183" y="362.873026" style="fill: #bddf26; stroke: #bddf26"/>
     <use xlink:href="#mf601851e8a" x="672.599183" y="296.199266" style="fill: #bddf26; stroke: #bddf26"/>
     <use xlink:href="#mf601851e8a" x="672.599183" y="347.167014" style="fill: #bddf26; stroke: #bddf26"/>
    </g>
   </g>
   <g id="line2d_16">
    <path d="M 135.473555 203.473565 
L 135.473555 211.446796 
L 135.473555 203.663241 
L 269.754962 229.180011 
L 269.754962 310.744452 
L 269.754962 241.973743 
L 404.036369 324.100988 
L 404.036369 260.888165 
L 404.036369 276.173524 
L 538.317776 334.42179 
L 538.317776 332.367999 
L 538.317776 273.309006 
L 672.599183 282.684995 
L 672.599183 342.564168 
L 672.599183 343.414891 
" clip-path="url(#pedaae7cb64)" style="fill: none; stroke-dasharray: 3.7,1.6; stroke-dashoffset: 0; stroke: #bddf26"/>
    <g clip-path="url(#pedaae7cb64)">
     <use xlink:href="#mf601851e8a" x="135.473555" y="203.473565" style="fill: #bddf26; stroke: #bddf26"/>
     <use xlink:href="#mf601851e8a" x="135.473555" y="211.446796" style="fill: #bddf26; stroke: #bddf26"/>
     <use xlink:href="#mf601851e8a" x="135.473555" y="203.663241" style="fill: #bddf26; stroke: #bddf26"/>
     <use xlink:href="#mf601851e8a" x="269.754962" y="229.180011" style="fill: #bddf26; stroke: #bddf26"/>
     <use xlink:href="#mf601851e8a" x="269.754962" y="310.744452" style="fill: #bddf26; stroke: #bddf26"/>
     <use xlink:href="#mf601851e8a" x="269.754962" y="241.973743" style="fill: #bddf26; stroke: #bddf26"/>
     <use xlink:href="#mf601851e8a" x="404.036369" y="324.100988" style="fill: #bddf26; stroke: #bddf26"/>
     <use xlink:href="#mf601851e8a" x="404.036369" y="260.888165" style="fill: #bddf26; stroke: #bddf26"/>
     <use xlink:href="#mf601851e8a" x="404.036369" y="276.173524" style="fill: #bddf26; stroke: #bddf26"/>
     <use xlink:href="#mf601851e8a" x="538.317776" y="334.42179" style="fill: #bddf26; stroke: #bddf26"/>
     <use xlink:href="#mf601851e8a" x="538.317776" y="332.367999" style="fill: #bddf26; stroke: #bddf26"/>
     <use xlink:href="#mf601851e8a" x="538.317776" y="273.309006" style="fill: #bddf26; stroke: #bddf26"/>
     <use xlink:href="#mf601851e8a" x="672.599183" y="282.684995" style="fill: #bddf26; stroke: #bddf26"/>
     <use xlink:href="#mf601851e8a" x="672.599183" y="342.564168" style="fill: #bddf26; stroke: #bddf26"/>
     <use xlink:href="#mf601851e8a" x="672.599183" y="343.414891" style="fill: #bddf26; stroke: #bddf26"/>
    </g>
   </g>
   <g id="line2d_17">
    <path d="M 68.332852 158.970399 
L 68.332852 158.970399 
L 135.473555 191.557558 
L 135.473555 191.36564 
L 135.473555 191.359645 
L 202.614259 240.789762 
L 202.614259 218.761273 
L 269.754962 223.63533 
L 269.754962 291.133416 
L 269.754962 221.094408 
L 336.895666 241.416489 
L 336.895666 273.834076 
L 404.036369 293.643823 
L 404.036369 256.702744 
L 404.036369 243.612902 
L 471.177073 294.459385 
L 471.177073 255.919509 
L 538.317776 295.109179 
L 538.317776 256.634676 
L 538.317776 267.594765 
L 605.45848 295.641601 
L 605.45848 263.363616 
L 672.599183 266.404678 
L 672.599183 296.087419 
L 672.599183 263.070101 
" clip-path="url(#pedaae7cb64)" style="fill: none; stroke-dasharray: 1,1.65; stroke-dashoffset: 0; stroke: #bddf26"/>
    <g clip-path="url(#pedaae7cb64)">
     <use xlink:href="#mf601851e8a" x="68.332852" y="158.970399" style="fill: #bddf26; stroke: #bddf26"/>
     <use xlink:href="#mf601851e8a" x="68.332852" y="158.970399" style="fill: #bddf26; stroke: #bddf26"/>
     <use xlink:href="#mf601851e8a" x="135.473555" y="191.557558" style="fill: #bddf26; stroke: #bddf26"/>
     <use xlink:href="#mf601851e8a" x="135.473555" y="191.36564" style="fill: #bddf26; stroke: #bddf26"/>
     <use xlink:href="#mf601851e8a" x="135.473555" y="191.359645" style="fill: #bddf26; stroke: #bddf26"/>
     <use xlink:href="#mf601851e8a" x="202.614259" y="240.789762" style="fill: #bddf26; stroke: #bddf26"/>
     <use xlink:href="#mf601851e8a" x="202.614259" y="218.761273" style="fill: #bddf26; stroke: #bddf26"/>
     <use xlink:href="#mf601851e8a" x="269.754962" y="223.63533" style="fill: #bddf26; stroke: #bddf26"/>
     <use xlink:href="#mf601851e8a" x="269.754962" y="291.133416" style="fill: #bddf26; stroke: #bddf26"/>
     <use xlink:href="#mf601851e8a" x="269.754962" y="221.094408" style="fill: #bddf26; stroke: #bddf26"/>
     <use xlink:href="#mf601851e8a" x="336.895666" y="241.416489" style="fill: #bddf26; stroke: #bddf26"/>
     <use xlink:href="#mf601851e8a" x="336.895666" y="273.834076" style="fill: #bddf26; stroke: #bddf26"/>
     <use xlink:href="#mf601851e8a" x="404.036369" y="293.643823" style="fill: #bddf26; stroke: #bddf26"/>
     <use xlink:href="#mf601851e8a" x="404.036369" y="256.702744" style="fill: #bddf26; stroke: #bddf26"/>
     <use xlink:href="#mf601851e8a" x="404.036369" y="243.612902" style="fill: #bddf26; stroke: #bddf26"/>
     <use xlink:href="#mf601851e8a" x="471.177073" y="294.459385" style="fill: #bddf26; stroke: #bddf26"/>
     <use xlink:href="#mf601851e8a" x="471.177073" y="255.919509" style="fill: #bddf26; stroke: #bddf26"/>
     <use xlink:href="#mf601851e8a" x="538.317776" y="295.109179" style="fill: #bddf26; stroke: #bddf26"/>
     <use xlink:href="#mf601851e8a" x="538.317776" y="256.634676" style="fill: #bddf26; stroke: #bddf26"/>
     <use xlink:href="#mf601851e8a" x="538.317776" y="267.594765" style="fill: #bddf26; stroke: #bddf26"/>
     <use xlink:href="#mf601851e8a" x="605.45848" y="295.641601" style="fill: #bddf26; stroke: #bddf26"/>
     <use xlink:href="#mf601851e8a" x="605.45848" y="263.363616" style="fill: #bddf26; stroke: #bddf26"/>
     <use xlink:href="#mf601851e8a" x="672.599183" y="266.404678" style="fill: #bddf26; stroke: #bddf26"/>
     <use xlink:href="#mf601851e8a" x="672.599183" y="296.087419" style="fill: #bddf26; stroke: #bddf26"/>
     <use xlink:href="#mf601851e8a" x="672.599183" y="263.070101" style="fill: #bddf26; stroke: #bddf26"/>
    </g>
   </g>
   <g id="line2d_18">
    <path d="M 34.7625 302.307654 
L 702.8125 302.307654 
" clip-path="url(#pedaae7cb64)" style="fill: none; stroke-dasharray: 5.55,2.4; stroke-dashoffset: 0; stroke: #808080; stroke-opacity: 0.7; stroke-width: 1.5"/>
   </g>
   <g id="patch_3">
    <path d="M 34.7625 385.478125 
L 34.7625 22.318125 
" style="fill: none; stroke: #000000; stroke-width: 0.8; stroke-linejoin: miter; stroke-linecap: square"/>
   </g>
   <g id="patch_4">
    <path d="M 702.8125 385.478125 
L 702.8125 22.318125 
" style="fill: none; stroke: #000000; stroke-width: 0.8; stroke-linejoin: miter; stroke-linecap: square"/>
   </g>
   <g id="patch_5">
    <path d="M 34.7625 385.478125 
L 702.8125 385.478125 
" style="fill: none; stroke: #000000; stroke-width: 0.8; stroke-linejoin: miter; stroke-linecap: square"/>
   </g>
   <g id="patch_6">
    <path d="M 34.7625 22.318125 
L 702.8125 22.318125 
" style="fill: none; stroke: #000000; stroke-width: 0.8; stroke-linejoin: miter; stroke-linecap: square"/>
   </g>
   <g id="text_14">
    <!-- SQL-violation ratio comparison -->
    <g transform="translate(276.603125 16.318125) scale(0.12 -0.12)">
     <defs>
      <path id="DejaVuSans-2d" d="M 313 2009 
L 1997 2009 
L 1997 1497 
L 313 1497 
L 313 2009 
z
" transform="scale(0.015625)"/>
      <path id="DejaVuSans-76" d="M 191 3500 
L 800 3500 
L 1894 563 
L 2988 3500 
L 3597 3500 
L 2284 0 
L 1503 0 
L 191 3500 
z
" transform="scale(0.015625)"/>
      <path id="DejaVuSans-69" d="M 603 3500 
L 1178 3500 
L 1178 0 
L 603 0 
L 603 3500 
z
M 603 4863 
L 1178 4863 
L 1178 4134 
L 603 4134 
L 603 4863 
z
" transform="scale(0.015625)"/>
      <path id="DejaVuSans-6f" d="M 1959 3097 
Q 1497 3097 1228 2736 
Q 959 2375 959 1747 
Q 959 1119 1226 758 
Q 1494 397 1959 397 
Q 2419 397 2687 759 
Q 2956 1122 2956 1747 
Q 2956 2369 2687 2733 
Q 2419 3097 1959 3097 
z
M 1959 3584 
Q 2709 3584 3137 3096 
Q 3566 2609 3566 1747 
Q 3566 888 3137 398 
Q 2709 -91 1959 -91 
Q 1206 -91 779 398 
Q 353 888 353 1747 
Q 353 2609 779 3096 
Q 1206 3584 1959 3584 
z
" transform="scale(0.015625)"/>
      <path id="DejaVuSans-6c" d="M 603 4863 
L 1178 4863 
L 1178 0 
L 603 0 
L 603 4863 
z
" transform="scale(0.015625)"/>
      <path id="DejaVuSans-61" d="M 2194 1759 
Q 1497 1759 1228 1600 
Q 959 1441 959 1056 
Q 959 750 1161 570 
Q 1363 391 1709 391 
Q 2188 391 2477 730 
Q 2766 1069 2766 1631 
L 2766 1759 
L 2194 1759 
z
M 3341 1997 
L 3341 0 
L 2766 0 
L 2766 531 
Q 2569 213 2275 61 
Q 1981 -91 1556 -91 
Q 1019 -91 701 211 
Q 384 513 384 1019 
Q 384 1609 779 1909 
Q 1175 2209 1959 2209 
L 2766 2209 
L 2766 2266 
Q 2766 2663 2505 2880 
Q 2244 3097 1772 3097 
Q 1472 3097 1187 3025 
Q 903 2953 641 2809 
L 641 3341 
Q 956 3463 1253 3523 
Q 1550 3584 1831 3584 
Q 2591 3584 2966 3190 
Q 3341 2797 3341 1997 
z
" transform="scale(0.015625)"/>
      <path id="DejaVuSans-74" d="M 1172 4494 
L 1172 3500 
L 2356 3500 
L 2356 3053 
L 1172 3053 
L 1172 1153 
Q 1172 725 1289 603 
Q 1406 481 1766 481 
L 2356 481 
L 2356 0 
L 1766 0 
Q 1100 0 847 248 
Q 594 497 594 1153 
L 594 3053 
L 172 3053 
L 172 3500 
L 594 3500 
L 594 4494 
L 1172 4494 
z
" transform="scale(0.015625)"/>
      <path id="DejaVuSans-6e" d="M 3513 2113 
L 3513 0 
L 2938 0 
L 2938 2094 
Q 2938 2591 2744 2837 
Q 2550 3084 2163 3084 
Q 1697 3084 1428 2787 
Q 1159 2491 1159 1978 
L 1159 0 
L 581 0 
L 581 3500 
L 1159 3500 
L 1159 2956 
Q 1366 3272 1645 3428 
Q 1925 3584 2291 3584 
Q 2894 3584 3203 3211 
Q 3513 2838 3513 2113 
z
" transform="scale(0.015625)"/>
      <path id="DejaVuSans-20" transform="scale(0.015625)"/>
      <path id="DejaVuSans-72" d="M 2631 2963 
Q 2534 3019 2420 3045 
Q 2306 3072 2169 3072 
Q 1681 3072 1420 2755 
Q 1159 2438 1159 1844 
L 1159 0 
L 581 0 
L 581 3500 
L 1159 3500 
L 1159 2956 
Q 1341 3275 1631 3429 
Q 1922 3584 2338 3584 
Q 2397 3584 2469 3576 
Q 2541 3569 2628 3553 
L 2631 2963 
z
" transform="scale(0.015625)"/>
      <path id="DejaVuSans-63" d="M 3122 3366 
L 3122 2828 
Q 2878 2963 2633 3030 
Q 2388 3097 2138 3097 
Q 1578 3097 1268 2742 
Q 959 2388 959 1747 
Q 959 1106 1268 751 
Q 1578 397 2138 397 
Q 2388 397 2633 464 
Q 2878 531 3122 666 
L 3122 134 
Q 2881 22 2623 -34 
Q 2366 -91 2075 -91 
Q 1284 -91 818 406 
Q 353 903 353 1747 
Q 353 2603 823 3093 
Q 1294 3584 2113 3584 
Q 2378 3584 2631 3529 
Q 2884 3475 3122 3366 
z
" transform="scale(0.015625)"/>
      <path id="DejaVuSans-6d" d="M 3328 2828 
Q 3544 3216 3844 3400 
Q 4144 3584 4550 3584 
Q 5097 3584 5394 3201 
Q 5691 2819 5691 2113 
L 5691 0 
L 5113 0 
L 5113 2094 
Q 5113 2597 4934 2840 
Q 4756 3084 4391 3084 
Q 3944 3084 3684 2787 
Q 3425 2491 3425 1978 
L 3425 0 
L 2847 0 
L 2847 2094 
Q 2847 2600 2669 2842 
Q 2491 3084 2119 3084 
Q 1678 3084 1418 2786 
Q 1159 2488 1159 1978 
L 1159 0 
L 581 0 
L 581 3500 
L 1159 3500 
L 1159 2956 
Q 1356 3278 1631 3431 
Q 1906 3584 2284 3584 
Q 2666 3584 2933 3390 
Q 3200 3197 3328 2828 
z
" transform="scale(0.015625)"/>
      <path id="DejaVuSans-70" d="M 1159 525 
L 1159 -1331 
L 581 -1331 
L 581 3500 
L 1159 3500 
L 1159 2969 
Q 1341 3281 1617 3432 
Q 1894 3584 2278 3584 
Q 2916 3584 3314 3078 
Q 3713 2572 3713 1747 
Q 3713 922 3314 415 
Q 2916 -91 2278 -91 
Q 1894 -91 1617 61 
Q 1341 213 1159 525 
z
M 3116 1747 
Q 3116 2381 2855 2742 
Q 2594 3103 2138 3103 
Q 1681 3103 1420 2742 
Q 1159 2381 1159 1747 
Q 1159 1113 1420 752 
Q 1681 391 2138 391 
Q 2594 391 2855 752 
Q 3116 1113 3116 1747 
z
" transform="scale(0.015625)"/>
      <path id="DejaVuSans-73" d="M 2834 3397 
L 2834 2853 
Q 2591 2978 2328 3040 
Q 2066 3103 1784 3103 
Q 1356 3103 1142 2972 
Q 928 2841 928 2578 
Q 928 2378 1081 2264 
Q 1234 2150 1697 2047 
L 1894 2003 
Q 2506 1872 2764 1633 
Q 3022 1394 3022 966 
Q 3022 478 2636 193 
Q 2250 -91 1575 -91 
Q 1294 -91 989 -36 
Q 684 19 347 128 
L 347 722 
Q 666 556 975 473 
Q 1284 391 1588 391 
Q 1994 391 2212 530 
Q 2431 669 2431 922 
Q 2431 1156 2273 1281 
Q 2116 1406 1581 1522 
L 1381 1569 
Q 847 1681 609 1914 
Q 372 2147 372 2553 
Q 372 3047 722 3315 
Q 1072 3584 1716 3584 
Q 2034 3584 2315 3537 
Q 2597 3491 2834 3397 
z
" transform="scale(0.015625)"/>
     </defs>
     <use xlink:href="#DejaVuSans-53"/>
     <use xlink:href="#DejaVuSans-51" transform="translate(63.476562 0)"/>
     <use xlink:href="#DejaVuSans-4c" transform="translate(142.1875 0)"/>
     <use xlink:href="#DejaVuSans-2d" transform="translate(196.150391 0)"/>
     <use xlink:href="#DejaVuSans-76" transform="translate(229.609375 0)"/>
     <use xlink:href="#DejaVuSans-69" transform="translate(288.789062 0)"/>
     <use xlink:href="#DejaVuSans-6f" transform="translate(316.572266 0)"/>
     <use xlink:href="#DejaVuSans-6c" transform="translate(377.753906 0)"/>
     <use xlink:href="#DejaVuSans-61" transform="translate(405.537109 0)"/>
     <use xlink:href="#DejaVuSans-74" transform="translate(466.816406 0)"/>
     <use xlink:href="#DejaVuSans-69" transform="translate(506.025391 0)"/>
     <use xlink:href="#DejaVuSans-6f" transform="translate(533.808594 0)"/>
     <use xlink:href="#DejaVuSans-6e" transform="translate(594.990234 0)"/>
     <use xlink:href="#DejaVuSans-20" transform="translate(658.369141 0)"/>
     <use xlink:href="#DejaVuSans-72" transform="translate(690.15625 0)"/>
     <use xlink:href="#DejaVuSans-61" transform="translate(731.269531 0)"/>
     <use xlink:href="#DejaVuSans-74" transform="translate(792.548828 0)"/>
     <use xlink:href="#DejaVuSans-69" transform="translate(831.757812 0)"/>
     <use xlink:href="#DejaVuSans-6f" transform="translate(859.541016 0)"/>
     <use xlink:href="#DejaVuSans-20" transform="translate(920.722656 0)"/>
     <use xlink:href="#DejaVuSans-63" transform="translate(952.509766 0)"/>
     <use xlink:href="#DejaVuSans-6f" transform="translate(1007.490234 0)"/>
     <use xlink:href="#DejaVuSans-6d" transform="translate(1068.671875 0)"/>
     <use xlink:href="#DejaVuSans-70" transform="translate(1166.083984 0)"/>
     <use xlink:href="#DejaVuSans-61" transform="translate(1229.560547 0)"/>
     <use xlink:href="#DejaVuSans-72" transform="translate(1290.839844 0)"/>
     <use xlink:href="#DejaVuSans-69" transform="translate(1331.953125 0)"/>
     <use xlink:href="#DejaVuSans-73" transform="translate(1359.736328 0)"/>
     <use xlink:href="#DejaVuSans-6f" transform="translate(1411.835938 0)"/>
     <use xlink:href="#DejaVuSans-6e" transform="translate(1473.017578 0)"/>
    </g>
   </g>
   <g id="legend_1">
    <g id="patch_7">
     <path d="M 556.6525 69.016875 
L 697.9125 69.016875 
Q 699.3125 69.016875 699.3125 67.616875 
L 699.3125 27.218125 
Q 699.3125 25.818125 697.9125 25.818125 
L 556.6525 25.818125 
Q 555.2525 25.818125 555.2525 27.218125 
L 555.2525 67.616875 
Q 555.2525 69.016875 556.6525 69.016875 
z
" style="fill: #ffffff; opacity: 0.8; stroke: #cccccc; stroke-linejoin: miter"/>
    </g>
    <g id="line2d_19">
     <path d="M 558.0525 31.487031 
L 565.0525 31.487031 
L 572.0525 31.487031 
" style="fill: none; stroke: #414487; stroke-linecap: square"/>
     <g>
      <use xlink:href="#m1511653297" x="565.0525" y="31.487031" style="fill: #414487; stroke: #414487"/>
     </g>
    </g>
    <g id="text_15">
     <!-- $\omega=0.2$, $R_{\mathrm{lin}}$ -->
     <g transform="translate(577.6525 33.937031) scale(0.07 -0.07)">
      <defs>
       <path id="DejaVuSans-2e" d="M 684 794 
L 1344 794 
L 1344 0 
L 684 0 
L 684 794 
z
" transform="scale(0.015625)"/>
       <path id="DejaVuSans-2c" d="M 750 794 
L 1409 794 
L 1409 256 
L 897 -744 
L 494 -744 
L 750 256 
L 750 794 
z
" transform="scale(0.015625)"/>
      </defs>
      <use xlink:href="#DejaVuSans-Oblique-3c9" transform="translate(0 0.78125)"/>
      <use xlink:href="#DejaVuSans-3d" transform="translate(103.222656 0.78125)"/>
      <use xlink:href="#DejaVuSans-30" transform="translate(206.494141 0.78125)"/>
      <use xlink:href="#DejaVuSans-2e" transform="translate(270.117188 0.78125)"/>
      <use xlink:href="#DejaVuSans-32" transform="translate(296.404297 0.78125)"/>
      <use xlink:href="#DejaVuSans-2c" transform="translate(360.027344 0.78125)"/>
      <use xlink:href="#DejaVuSans-20" transform="translate(391.814453 0.78125)"/>
      <use xlink:href="#DejaVuSans-Oblique-52" transform="translate(423.601562 0.78125)"/>
      <use xlink:href="#DejaVuSans-6c" transform="translate(493.083984 -15.625) scale(0.7)"/>
      <use xlink:href="#DejaVuSans-69" transform="translate(512.532227 -15.625) scale(0.7)"/>
      <use xlink:href="#DejaVuSans-6e" transform="translate(531.980469 -15.625) scale(0.7)"/>
     </g>
    </g>
    <g id="line2d_20">
     <path d="M 558.0525 41.761719 
L 565.0525 41.761719 
L 572.0525 41.761719 
" style="fill: none; stroke-dasharray: 3.7,1.6; stroke-dashoffset: 0; stroke: #414487"/>
     <g>
      <use xlink:href="#m1511653297" x="565.0525" y="41.761719" style="fill: #414487; stroke: #414487"/>
     </g>
    </g>
    <g id="text_16">
     <!-- $\omega=0.2$, $R_{\Pi}$ -->
     <g transform="translate(577.6525 44.211719) scale(0.07 -0.07)">
      <defs>
       <path id="DejaVuSans-3a0" d="M 4184 4666 
L 4184 0 
L 3553 0 
L 3553 4134 
L 1259 4134 
L 1259 0 
L 628 0 
L 628 4666 
L 4184 4666 
z
" transform="scale(0.015625)"/>
      </defs>
      <use xlink:href="#DejaVuSans-Oblique-3c9" transform="translate(0 0.78125)"/>
      <use xlink:href="#DejaVuSans-3d" transform="translate(103.222656 0.78125)"/>
      <use xlink:href="#DejaVuSans-30" transform="translate(206.494141 0.78125)"/>
      <use xlink:href="#DejaVuSans-2e" transform="translate(270.117188 0.78125)"/>
      <use xlink:href="#DejaVuSans-32" transform="translate(296.404297 0.78125)"/>
      <use xlink:href="#DejaVuSans-2c" transform="translate(360.027344 0.78125)"/>
      <use xlink:href="#DejaVuSans-20" transform="translate(391.814453 0.78125)"/>
      <use xlink:href="#DejaVuSans-Oblique-52" transform="translate(423.601562 0.78125)"/>
      <use xlink:href="#DejaVuSans-3a0" transform="translate(493.083984 -15.625) scale(0.7)"/>
     </g>
    </g>
    <g id="line2d_21">
     <path d="M 558.0525 52.036406 
L 565.0525 52.036406 
L 572.0525 52.036406 
" style="fill: none; stroke-dasharray: 1,1.65; stroke-dashoffset: 0; stroke: #414487"/>
     <g>
      <use xlink:href="#m1511653297" x="565.0525" y="52.036406" style="fill: #414487; stroke: #414487"/>
     </g>
    </g>
    <g id="text_17">
     <!-- $\omega=0.2$, $R_{\mathrm{CFI}}$ -->
     <g transform="translate(577.6525 54.486406) scale(0.07 -0.07)">
      <defs>
       <path id="DejaVuSans-43" d="M 4122 4306 
L 4122 3641 
Q 3803 3938 3442 4084 
Q 3081 4231 2675 4231 
Q 1875 4231 1450 3742 
Q 1025 3253 1025 2328 
Q 1025 1406 1450 917 
Q 1875 428 2675 428 
Q 3081 428 3442 575 
Q 3803 722 4122 1019 
L 4122 359 
Q 3791 134 3420 21 
Q 3050 -91 2638 -91 
Q 1578 -91 968 557 
Q 359 1206 359 2328 
Q 359 3453 968 4101 
Q 1578 4750 2638 4750 
Q 3056 4750 3426 4639 
Q 3797 4528 4122 4306 
z
" transform="scale(0.015625)"/>
       <path id="DejaVuSans-46" d="M 628 4666 
L 3309 4666 
L 3309 4134 
L 1259 4134 
L 1259 2759 
L 3109 2759 
L 3109 2228 
L 1259 2228 
L 1259 0 
L 628 0 
L 628 4666 
z
" transform="scale(0.015625)"/>
       <path id="DejaVuSans-49" d="M 628 4666 
L 1259 4666 
L 1259 0 
L 628 0 
L 628 4666 
z
" transform="scale(0.015625)"/>
      </defs>
      <use xlink:href="#DejaVuSans-Oblique-3c9" transform="translate(0 0.78125)"/>
      <use xlink:href="#DejaVuSans-3d" transform="translate(103.222656 0.78125)"/>
      <use xlink:href="#DejaVuSans-30" transform="translate(206.494141 0.78125)"/>
      <use xlink:href="#DejaVuSans-2e" transform="translate(270.117188 0.78125)"/>
      <use xlink:href="#DejaVuSans-32" transform="translate(296.404297 0.78125)"/>
      <use xlink:href="#DejaVuSans-2c" transform="translate(360.027344 0.78125)"/>
      <use xlink:href="#DejaVuSans-20" transform="translate(391.814453 0.78125)"/>
      <use xlink:href="#DejaVuSans-Oblique-52" transform="translate(423.601562 0.78125)"/>
      <use xlink:href="#DejaVuSans-43" transform="translate(493.083984 -15.625) scale(0.7)"/>
      <use xlink:href="#DejaVuSans-46" transform="translate(541.960938 -15.625) scale(0.7)"/>
      <use xlink:href="#DejaVuSans-49" transform="translate(582.224609 -15.625) scale(0.7)"/>
     </g>
    </g>
    <g id="line2d_22">
     <path d="M 558.0525 62.311094 
L 565.0525 62.311094 
L 572.0525 62.311094 
" style="fill: none; stroke: #bddf26; stroke-linecap: square"/>
     <g>
      <use xlink:href="#mf601851e8a" x="565.0525" y="62.311094" style="fill: #bddf26; stroke: #bddf26"/>
     </g>
    </g>
    <g id="text_18">
     <!-- $\omega=1.0$, $R_{\mathrm{lin}}$ -->
     <g transform="translate(577.6525 64.761094) scale(0.07 -0.07)">
      <use xlink:href="#DejaVuSans-Oblique-3c9" transform="translate(0 0.78125)"/>
      <use xlink:href="#DejaVuSans-3d" transform="translate(103.222656 0.78125)"/>
      <use xlink:href="#DejaVuSans-31" transform="translate(206.494141 0.78125)"/>
      <use xlink:href="#DejaVuSans-2e" transform="translate(270.117188 0.78125)"/>
      <use xlink:href="#DejaVuSans-30" transform="translate(301.904297 0.78125)"/>
      <use xlink:href="#DejaVuSans-2c" transform="translate(365.527344 0.78125)"/>
      <use xlink:href="#DejaVuSans-20" transform="translate(397.314453 0.78125)"/>
      <use xlink:href="#DejaVuSans-Oblique-52" transform="translate(429.101562 0.78125)"/>
      <use xlink:href="#DejaVuSans-6c" transform="translate(498.583984 -15.625) scale(0.7)"/>
      <use xlink:href="#DejaVuSans-69" transform="translate(518.032227 -15.625) scale(0.7)"/>
      <use xlink:href="#DejaVuSans-6e" transform="translate(537.480469 -15.625) scale(0.7)"/>
     </g>
    </g>
    <g id="line2d_23">
     <path d="M 634.0725 31.487031 
L 641.0725 31.487031 
L 648.0725 31.487031 
" style="fill: none; stroke-dasharray: 3.7,1.6; stroke-dashoffset: 0; stroke: #bddf26"/>
     <g>
      <use xlink:href="#mf601851e8a" x="641.0725" y="31.487031" style="fill: #bddf26; stroke: #bddf26"/>
     </g>
    </g>
    <g id="text_19">
     <!-- $\omega=1.0$, $R_{\Pi}$ -->
     <g transform="translate(653.6725 33.937031) scale(0.07 -0.07)">
      <use xlink:href="#DejaVuSans-Oblique-3c9" transform="translate(0 0.78125)"/>
      <use xlink:href="#DejaVuSans-3d" transform="translate(103.222656 0.78125)"/>
      <use xlink:href="#DejaVuSans-31" transform="translate(206.494141 0.78125)"/>
      <use xlink:href="#DejaVuSans-2e" transform="translate(270.117188 0.78125)"/>
      <use xlink:href="#DejaVuSans-30" transform="translate(301.904297 0.78125)"/>
      <use xlink:href="#DejaVuSans-2c" transform="translate(365.527344 0.78125)"/>
      <use xlink:href="#DejaVuSans-20" transform="translate(397.314453 0.78125)"/>
      <use xlink:href="#DejaVuSans-Oblique-52" transform="translate(429.101562 0.78125)"/>
      <use xlink:href="#DejaVuSans-3a0" transform="translate(498.583984 -15.625) scale(0.7)"/>
     </g>
    </g>
    <g id="line2d_24">
     <path d="M 634.0725 41.761719 
L 641.0725 41.761719 
L 648.0725 41.761719 
" style="fill: none; stroke-dasharray: 1,1.65; stroke-dashoffset: 0; stroke: #bddf26"/>
     <g>
      <use xlink:href="#mf601851e8a" x="641.0725" y="41.761719" style="fill: #bddf26; stroke: #bddf26"/>
     </g>
    </g>
    <g id="text_20">
     <!-- $\omega=1.0$, $R_{\mathrm{CFI}}$ -->
     <g transform="translate(653.6725 44.211719) scale(0.07 -0.07)">
      <use xlink:href="#DejaVuSans-Oblique-3c9" transform="translate(0 0.78125)"/>
      <use xlink:href="#DejaVuSans-3d" transform="translate(103.222656 0.78125)"/>
      <use xlink:href="#DejaVuSans-31" transform="translate(206.494141 0.78125)"/>
      <use xlink:href="#DejaVuSans-2e" transform="translate(270.117188 0.78125)"/>
      <use xlink:href="#DejaVuSans-30" transform="translate(301.904297 0.78125)"/>
      <use xlink:href="#DejaVuSans-2c" transform="translate(365.527344 0.78125)"/>
      <use xlink:href="#DejaVuSans-20" transform="translate(397.314453 0.78125)"/>
      <use xlink:href="#DejaVuSans-Oblique-52" transform="translate(429.101562 0.78125)"/>
      <use xlink:href="#DejaVuSans-43" transform="translate(498.583984 -15.625) scale(0.7)"/>
      <use xlink:href="#DejaVuSans-46" transform="translate(547.460938 -15.625) scale(0.7)"/>
      <use xlink:href="#DejaVuSans-49" transform="translate(587.724609 -15.625) scale(0.7)"/>
     </g>
    </g>
    <g id="line2d_25">
     <path d="M 634.0725 52.036406 
L 641.0725 52.036406 
L 648.0725 52.036406 
" style="fill: none; stroke-dasharray: 5.55,2.4; stroke-dashoffset: 0; stroke: #808080; stroke-opacity: 0.7; stroke-width: 1.5"/>
    </g>
    <g id="text_21">
     <!-- SQL (R=1) -->
     <g transform="translate(653.6725 54.486406) scale(0.07 -0.07)">
      <defs>
       <path id="DejaVuSans-52" d="M 2841 2188 
Q 3044 2119 3236 1894 
Q 3428 1669 3622 1275 
L 4263 0 
L 3584 0 
L 2988 1197 
Q 2756 1666 2539 1819 
Q 2322 1972 1947 1972 
L 1259 1972 
L 1259 0 
L 628 0 
L 628 4666 
L 2053 4666 
Q 2853 4666 3247 4331 
Q 3641 3997 3641 3322 
Q 3641 2881 3436 2590 
Q 3231 2300 2841 2188 
z
M 1259 4147 
L 1259 2491 
L 2053 2491 
Q 2509 2491 2742 2702 
Q 2975 2913 2975 3322 
Q 2975 3731 2742 3939 
Q 2509 4147 2053 4147 
L 1259 4147 
z
" transform="scale(0.015625)"/>
      </defs>
      <use xlink:href="#DejaVuSans-53"/>
      <use xlink:href="#DejaVuSans-51" transform="translate(63.476562 0)"/>
      <use xlink:href="#DejaVuSans-4c" transform="translate(142.1875 0)"/>
      <use xlink:href="#DejaVuSans-20" transform="translate(197.900391 0)"/>
      <use xlink:href="#DejaVuSans-28" transform="translate(229.6875 0)"/>
      <use xlink:href="#DejaVuSans-52" transform="translate(268.701172 0)"/>
      <use xlink:href="#DejaVuSans-3d" transform="translate(338.183594 0)"/>
      <use xlink:href="#DejaVuSans-31" transform="translate(421.972656 0)"/>
      <use xlink:href="#DejaVuSans-29" transform="translate(485.595703 0)"/>
     </g>
    </g>
   </g>
  </g>
 </g>
 <defs>
  <clipPath id="pedaae7cb64">
   <rect x="34.7625" y="22.318125" width="668.05" height="363.16"/>
  </clipPath>
 </defs>
</svg>
