<?xml version="1.0" encoding="utf-8" standalone="no"?>
<!DOCTYPE svg PUBLIC "-//W3C//DTD SVG 1.1//EN"
  "http://www.w3.org/Graphics/SVG/1.1/DTD/svg11.dtd">
<svg xmlns:xlink="http://www.w3.org/1999/xlink" width="711.061696pt" height="419.537844pt" viewBox="0 0 711.061696 419.537844" xmlns="http://www.w3.org/2000/svg" version="1.1">
 <metadata>
  <rdf:RDF xmlns:dc="http://purl.org/dc/elements/1.1/" xmlns:cc="http://creativecommons.org/ns#" xmlns:rdf="http://www.w3.org/1999/02/22-rdf-syntax-ns#">
   <cc:Work>
    <dc:type rdf:resource="http://purl.org/dc/dcmitype/StillImage"/>
    <dc:date>2026-06-15T12:16:28.655752</dc:date>
    <dc:format>image/svg+xml</dc:format>
    <dc:creator>
     <cc:Agent>
      <dc:title>Matplotlib v3.10.9, https://matplotlib.org/</dc:title>
     </cc:Agent>
    </dc:creator>
   </cc:Work>
  </rdf:RDF>
 </metadata>
 <defs>
  <style type="text/css">*{stroke-linejoin: round; stroke-linecap: butt}</style>
 </defs>
 <g id="figure_1">
  <g id="patch_1">
   <path d="M 0 419.537844 
L 711.061696 419.537844 
L 711.061696 0 
L 0 0 
z
" style="fill: #ffffff"/>
  </g>
  <g id="axes_1">
   <g id="patch_2">
    <path d="M 53.31375 380.045969 
L 703.861696 380.045969 
L 703.861696 23.077969 
L 53.31375 23.077969 
z
" style="fill: #ffffff"/>
   </g>
   <g id="matplotlib.axis_1">
    <g id="xtick_1">
     <g id="line2d_1">
      <path d="M 170.783065 380.045969 
L 170.783065 23.077969 
" clip-path="url(#p21d813a7e1)" style="fill: none; stroke: #b0b0b0; stroke-opacity: 0.3; stroke-width: 0.8; stroke-linecap: square"/>
     </g>
     <g id="line2d_2">
      <defs>
       <path id="mf615e2b7e8" d="M 0 0 
L 0 3.5 
" style="stroke: #000000; stroke-width: 0.8"/>
      </defs>
      <g>
       <use xlink:href="#mf615e2b7e8" x="170.783065" y="380.045969" style="stroke: #000000; stroke-width: 0.8"/>
      </g>
     </g>
     <g id="text_1">
      <!-- $\mathdefault{10^{0}}$ -->
      <g transform="translate(161.983065 394.644406) scale(0.1 -0.1)">
       <defs>
        <path id="DejaVuSans-31" d="M 794 531 
L 1825 531 
L 1825 4091 
L 703 3866 
L 703 4441 
L 1819 4666 
L 2450 4666 
L 2450 531 
L 3481 531 
L 3481 0 
L 794 0 
L 794 531 
z
" transform="scale(0.015625)"/>
        <path id="DejaVuSans-30" d="M 2034 4250 
Q 1547 4250 1301 3770 
Q 1056 3291 1056 2328 
Q 1056 1369 1301 889 
Q 1547 409 2034 409 
Q 2525 409 2770 889 
Q 3016 1369 3016 2328 
Q 3016 3291 2770 3770 
Q 2525 4250 2034 4250 
z
M 2034 4750 
Q 2819 4750 3233 4129 
Q 3647 3509 3647 2328 
Q 3647 1150 3233 529 
Q 2819 -91 2034 -91 
Q 1250 -91 836 529 
Q 422 1150 422 2328 
Q 422 3509 836 4129 
Q 1250 4750 2034 4750 
z
" transform="scale(0.015625)"/>
       </defs>
       <use xlink:href="#DejaVuSans-31" transform="translate(0 0.765625)"/>
       <use xlink:href="#DejaVuSans-30" transform="translate(63.623047 0.765625)"/>
       <use xlink:href="#DejaVuSans-30" transform="translate(128.203125 39.046875) scale(0.7)"/>
      </g>
     </g>
    </g>
    <g id="xtick_2">
     <g id="line2d_3">
      <path d="M 561.007684 380.045969 
L 561.007684 23.077969 
" clip-path="url(#p21d813a7e1)" style="fill: none; stroke: #b0b0b0; stroke-opacity: 0.3; stroke-width: 0.8; stroke-linecap: square"/>
     </g>
     <g id="line2d_4">
      <g>
       <use xlink:href="#mf615e2b7e8" x="561.007684" y="380.045969" style="stroke: #000000; stroke-width: 0.8"/>
      </g>
     </g>
     <g id="text_2">
      <!-- $\mathdefault{10^{1}}$ -->
      <g transform="translate(552.207684 394.644406) scale(0.1 -0.1)">
       <use xlink:href="#DejaVuSans-31" transform="translate(0 0.684375)"/>
       <use xlink:href="#DejaVuSans-30" transform="translate(63.623047 0.684375)"/>
       <use xlink:href="#DejaVuSans-31" transform="translate(128.203125 38.965625) scale(0.7)"/>
      </g>
     </g>
    </g>
    <g id="xtick_3">
     <g id="line2d_5">
      <path d="M 53.31375 380.045969 
L 53.31375 23.077969 
" clip-path="url(#p21d813a7e1)" style="fill: none; stroke: #b0b0b0; stroke-opacity: 0.3; stroke-width: 0.8; stroke-linecap: square"/>
     </g>
     <g id="line2d_6">
      <defs>
       <path id="m8a521da1d2" d="M 0 0 
L 0 2 
" style="stroke: #000000; stroke-width: 0.6"/>
      </defs>
      <g>
       <use xlink:href="#m8a521da1d2" x="53.31375" y="380.045969" style="stroke: #000000; stroke-width: 0.6"/>
      </g>
     </g>
    </g>
    <g id="xtick_4">
     <g id="line2d_7">
      <path d="M 84.212222 380.045969 
L 84.212222 23.077969 
" clip-path="url(#p21d813a7e1)" style="fill: none; stroke: #b0b0b0; stroke-opacity: 0.3; stroke-width: 0.8; stroke-linecap: square"/>
     </g>
     <g id="line2d_8">
      <g>
       <use xlink:href="#m8a521da1d2" x="84.212222" y="380.045969" style="stroke: #000000; stroke-width: 0.6"/>
      </g>
     </g>
    </g>
    <g id="xtick_5">
     <g id="line2d_9">
      <path d="M 110.336507 380.045969 
L 110.336507 23.077969 
" clip-path="url(#p21d813a7e1)" style="fill: none; stroke: #b0b0b0; stroke-opacity: 0.3; stroke-width: 0.8; stroke-linecap: square"/>
     </g>
     <g id="line2d_10">
      <g>
       <use xlink:href="#m8a521da1d2" x="110.336507" y="380.045969" style="stroke: #000000; stroke-width: 0.6"/>
      </g>
     </g>
    </g>
    <g id="xtick_6">
     <g id="line2d_11">
      <path d="M 132.966392 380.045969 
L 132.966392 23.077969 
" clip-path="url(#p21d813a7e1)" style="fill: none; stroke: #b0b0b0; stroke-opacity: 0.3; stroke-width: 0.8; stroke-linecap: square"/>
     </g>
     <g id="line2d_12">
      <g>
       <use xlink:href="#m8a521da1d2" x="132.966392" y="380.045969" style="stroke: #000000; stroke-width: 0.6"/>
      </g>
     </g>
    </g>
    <g id="xtick_7">
     <g id="line2d_13">
      <path d="M 152.927366 380.045969 
L 152.927366 23.077969 
" clip-path="url(#p21d813a7e1)" style="fill: none; stroke: #b0b0b0; stroke-opacity: 0.3; stroke-width: 0.8; stroke-linecap: square"/>
     </g>
     <g id="line2d_14">
      <g>
       <use xlink:href="#m8a521da1d2" x="152.927366" y="380.045969" style="stroke: #000000; stroke-width: 0.6"/>
      </g>
     </g>
    </g>
    <g id="xtick_8">
     <g id="line2d_15">
      <path d="M 288.252381 380.045969 
L 288.252381 23.077969 
" clip-path="url(#p21d813a7e1)" style="fill: none; stroke: #b0b0b0; stroke-opacity: 0.3; stroke-width: 0.8; stroke-linecap: square"/>
     </g>
     <g id="line2d_16">
      <g>
       <use xlink:href="#m8a521da1d2" x="288.252381" y="380.045969" style="stroke: #000000; stroke-width: 0.6"/>
      </g>
     </g>
    </g>
    <g id="xtick_9">
     <g id="line2d_17">
      <path d="M 356.967525 380.045969 
L 356.967525 23.077969 
" clip-path="url(#p21d813a7e1)" style="fill: none; stroke: #b0b0b0; stroke-opacity: 0.3; stroke-width: 0.8; stroke-linecap: square"/>
     </g>
     <g id="line2d_18">
      <g>
       <use xlink:href="#m8a521da1d2" x="356.967525" y="380.045969" style="stroke: #000000; stroke-width: 0.6"/>
      </g>
     </g>
    </g>
    <g id="xtick_10">
     <g id="line2d_19">
      <path d="M 405.721696 380.045969 
L 405.721696 23.077969 
" clip-path="url(#p21d813a7e1)" style="fill: none; stroke: #b0b0b0; stroke-opacity: 0.3; stroke-width: 0.8; stroke-linecap: square"/>
     </g>
     <g id="line2d_20">
      <g>
       <use xlink:href="#m8a521da1d2" x="405.721696" y="380.045969" style="stroke: #000000; stroke-width: 0.6"/>
      </g>
     </g>
    </g>
    <g id="xtick_11">
     <g id="line2d_21">
      <path d="M 443.538369 380.045969 
L 443.538369 23.077969 
" clip-path="url(#p21d813a7e1)" style="fill: none; stroke: #b0b0b0; stroke-opacity: 0.3; stroke-width: 0.8; stroke-linecap: square"/>
     </g>
     <g id="line2d_22">
      <g>
       <use xlink:href="#m8a521da1d2" x="443.538369" y="380.045969" style="stroke: #000000; stroke-width: 0.6"/>
      </g>
     </g>
    </g>
    <g id="xtick_12">
     <g id="line2d_23">
      <path d="M 474.43684 380.045969 
L 474.43684 23.077969 
" clip-path="url(#p21d813a7e1)" style="fill: none; stroke: #b0b0b0; stroke-opacity: 0.3; stroke-width: 0.8; stroke-linecap: square"/>
     </g>
     <g id="line2d_24">
      <g>
       <use xlink:href="#m8a521da1d2" x="474.43684" y="380.045969" style="stroke: #000000; stroke-width: 0.6"/>
      </g>
     </g>
    </g>
    <g id="xtick_13">
     <g id="line2d_25">
      <path d="M 500.561126 380.045969 
L 500.561126 23.077969 
" clip-path="url(#p21d813a7e1)" style="fill: none; stroke: #b0b0b0; stroke-opacity: 0.3; stroke-width: 0.8; stroke-linecap: square"/>
     </g>
     <g id="line2d_26">
      <g>
       <use xlink:href="#m8a521da1d2" x="500.561126" y="380.045969" style="stroke: #000000; stroke-width: 0.6"/>
      </g>
     </g>
    </g>
    <g id="xtick_14">
     <g id="line2d_27">
      <path d="M 523.191011 380.045969 
L 523.191011 23.077969 
" clip-path="url(#p21d813a7e1)" style="fill: none; stroke: #b0b0b0; stroke-opacity: 0.3; stroke-width: 0.8; stroke-linecap: square"/>
     </g>
     <g id="line2d_28">
      <g>
       <use xlink:href="#m8a521da1d2" x="523.191011" y="380.045969" style="stroke: #000000; stroke-width: 0.6"/>
      </g>
     </g>
    </g>
    <g id="xtick_15">
     <g id="line2d_29">
      <path d="M 543.151985 380.045969 
L 543.151985 23.077969 
" clip-path="url(#p21d813a7e1)" style="fill: none; stroke: #b0b0b0; stroke-opacity: 0.3; stroke-width: 0.8; stroke-linecap: square"/>
     </g>
     <g id="line2d_30">
      <g>
       <use xlink:href="#m8a521da1d2" x="543.151985" y="380.045969" style="stroke: #000000; stroke-width: 0.6"/>
      </g>
     </g>
    </g>
    <g id="xtick_16">
     <g id="line2d_31">
      <path d="M 678.476999 380.045969 
L 678.476999 23.077969 
" clip-path="url(#p21d813a7e1)" style="fill: none; stroke: #b0b0b0; stroke-opacity: 0.3; stroke-width: 0.8; stroke-linecap: square"/>
     </g>
     <g id="line2d_32">
      <g>
       <use xlink:href="#m8a521da1d2" x="678.476999" y="380.045969" style="stroke: #000000; stroke-width: 0.6"/>
      </g>
     </g>
    </g>
    <g id="text_3">
     <!-- $ -->
     <g transform="translate(374.770223 409.842219) scale(0.12 -0.12)">
      <defs>
       <path id="DejaVuSans-24" d="M 2163 -941 
L 1850 -941 
L 1847 0 
Q 1519 6 1191 76 
Q 863 147 531 288 
L 531 850 
Q 850 650 1176 548 
Q 1503 447 1850 444 
L 1850 1869 
Q 1159 1981 845 2250 
Q 531 2519 531 2988 
Q 531 3497 872 3790 
Q 1213 4084 1850 4128 
L 1850 4863 
L 2163 4863 
L 2163 4138 
Q 2453 4125 2725 4076 
Q 2997 4028 3256 3944 
L 3256 3397 
Q 2997 3528 2723 3600 
Q 2450 3672 2163 3684 
L 2163 2350 
Q 2872 2241 3206 1959 
Q 3541 1678 3541 1191 
Q 3541 663 3186 358 
Q 2831 53 2163 6 
L 2163 -941 
z
M 1850 2406 
L 1850 3688 
Q 1488 3647 1297 3481 
Q 1106 3316 1106 3041 
Q 1106 2772 1282 2622 
Q 1459 2472 1850 2406 
z
M 2163 1806 
L 2163 453 
Q 2559 506 2761 678 
Q 2963 850 2963 1131 
Q 2963 1406 2770 1568 
Q 2578 1731 2163 1806 
z
" transform="scale(0.015625)"/>
      </defs>
      <use xlink:href="#DejaVuSans-24"/>
     </g>
    </g>
   </g>
   <g id="matplotlib.axis_2">
    <g id="ytick_1">
     <g id="line2d_33">
      <path d="M 53.31375 288.734134 
L 703.861696 288.734134 
" clip-path="url(#p21d813a7e1)" style="fill: none; stroke: #b0b0b0; stroke-opacity: 0.3; stroke-width: 0.8; stroke-linecap: square"/>
     </g>
     <g id="line2d_34">
      <defs>
       <path id="m3b2fe14f38" d="M 0 0 
L -3.5 0 
" style="stroke: #000000; stroke-width: 0.8"/>
      </defs>
      <g>
       <use xlink:href="#m3b2fe14f38" x="53.31375" y="288.734134" style="stroke: #000000; stroke-width: 0.8"/>
      </g>
     </g>
     <g id="text_4">
      <!-- $\mathdefault{10^{-2}}$ -->
      <g transform="translate(22.81375 292.533353) scale(0.1 -0.1)">
       <defs>
        <path id="DejaVuSans-2212" d="M 678 2272 
L 4684 2272 
L 4684 1741 
L 678 1741 
L 678 2272 
z
" transform="scale(0.015625)"/>
        <path id="DejaVuSans-32" d="M 1228 531 
L 3431 531 
L 3431 0 
L 469 0 
L 469 531 
Q 828 903 1448 1529 
Q 2069 2156 2228 2338 
Q 2531 2678 2651 2914 
Q 2772 3150 2772 3378 
Q 2772 3750 2511 3984 
Q 2250 4219 1831 4219 
Q 1534 4219 1204 4116 
Q 875 4013 500 3803 
L 500 4441 
Q 881 4594 1212 4672 
Q 1544 4750 1819 4750 
Q 2544 4750 2975 4387 
Q 3406 4025 3406 3419 
Q 3406 3131 3298 2873 
Q 3191 2616 2906 2266 
Q 2828 2175 2409 1742 
Q 1991 1309 1228 531 
z
" transform="scale(0.015625)"/>
       </defs>
       <use xlink:href="#DejaVuSans-31" transform="translate(0 0.765625)"/>
       <use xlink:href="#DejaVuSans-30" transform="translate(63.623047 0.765625)"/>
       <use xlink:href="#DejaVuSans-2212" transform="translate(128.203125 39.046875) scale(0.7)"/>
       <use xlink:href="#DejaVuSans-32" transform="translate(186.855469 39.046875) scale(0.7)"/>
      </g>
     </g>
    </g>
    <g id="ytick_2">
     <g id="line2d_35">
      <path d="M 53.31375 39.303787 
L 703.861696 39.303787 
" clip-path="url(#p21d813a7e1)" style="fill: none; stroke: #b0b0b0; stroke-opacity: 0.3; stroke-width: 0.8; stroke-linecap: square"/>
     </g>
     <g id="line2d_36">
      <g>
       <use xlink:href="#m3b2fe14f38" x="53.31375" y="39.303787" style="stroke: #000000; stroke-width: 0.8"/>
      </g>
     </g>
     <g id="text_5">
      <!-- $\mathdefault{10^{-1}}$ -->
      <g transform="translate(22.81375 43.103006) scale(0.1 -0.1)">
       <use xlink:href="#DejaVuSans-31" transform="translate(0 0.684375)"/>
       <use xlink:href="#DejaVuSans-30" transform="translate(63.623047 0.684375)"/>
       <use xlink:href="#DejaVuSans-2212" transform="translate(128.203125 38.965625) scale(0.7)"/>
       <use xlink:href="#DejaVuSans-31" transform="translate(186.855469 38.965625) scale(0.7)"/>
      </g>
     </g>
    </g>
    <g id="ytick_3">
     <g id="line2d_37">
      <path d="M 53.31375 363.820151 
L 703.861696 363.820151 
" clip-path="url(#p21d813a7e1)" style="fill: none; stroke: #b0b0b0; stroke-opacity: 0.3; stroke-width: 0.8; stroke-linecap: square"/>
     </g>
     <g id="line2d_38">
      <defs>
       <path id="m3b24e5e8c2" d="M 0 0 
L -2 0 
" style="stroke: #000000; stroke-width: 0.6"/>
      </defs>
      <g>
       <use xlink:href="#m3b24e5e8c2" x="53.31375" y="363.820151" style="stroke: #000000; stroke-width: 0.6"/>
      </g>
     </g>
    </g>
    <g id="ytick_4">
     <g id="line2d_39">
      <path d="M 53.31375 344.069945 
L 703.861696 344.069945 
" clip-path="url(#p21d813a7e1)" style="fill: none; stroke: #b0b0b0; stroke-opacity: 0.3; stroke-width: 0.8; stroke-linecap: square"/>
     </g>
     <g id="line2d_40">
      <g>
       <use xlink:href="#m3b24e5e8c2" x="53.31375" y="344.069945" style="stroke: #000000; stroke-width: 0.6"/>
      </g>
     </g>
    </g>
    <g id="ytick_5">
     <g id="line2d_41">
      <path d="M 53.31375 327.371384 
L 703.861696 327.371384 
" clip-path="url(#p21d813a7e1)" style="fill: none; stroke: #b0b0b0; stroke-opacity: 0.3; stroke-width: 0.8; stroke-linecap: square"/>
     </g>
     <g id="line2d_42">
      <g>
       <use xlink:href="#m3b24e5e8c2" x="53.31375" y="327.371384" style="stroke: #000000; stroke-width: 0.6"/>
      </g>
     </g>
    </g>
    <g id="ytick_6">
     <g id="line2d_43">
      <path d="M 53.31375 312.906432 
L 703.861696 312.906432 
" clip-path="url(#p21d813a7e1)" style="fill: none; stroke: #b0b0b0; stroke-opacity: 0.3; stroke-width: 0.8; stroke-linecap: square"/>
     </g>
     <g id="line2d_44">
      <g>
       <use xlink:href="#m3b24e5e8c2" x="53.31375" y="312.906432" style="stroke: #000000; stroke-width: 0.6"/>
      </g>
     </g>
    </g>
    <g id="ytick_7">
     <g id="line2d_45">
      <path d="M 53.31375 300.147441 
L 703.861696 300.147441 
" clip-path="url(#p21d813a7e1)" style="fill: none; stroke: #b0b0b0; stroke-opacity: 0.3; stroke-width: 0.8; stroke-linecap: square"/>
     </g>
     <g id="line2d_46">
      <g>
       <use xlink:href="#m3b24e5e8c2" x="53.31375" y="300.147441" style="stroke: #000000; stroke-width: 0.6"/>
      </g>
     </g>
    </g>
    <g id="ytick_8">
     <g id="line2d_47">
      <path d="M 53.31375 213.648118 
L 703.861696 213.648118 
" clip-path="url(#p21d813a7e1)" style="fill: none; stroke: #b0b0b0; stroke-opacity: 0.3; stroke-width: 0.8; stroke-linecap: square"/>
     </g>
     <g id="line2d_48">
      <g>
       <use xlink:href="#m3b24e5e8c2" x="53.31375" y="213.648118" style="stroke: #000000; stroke-width: 0.6"/>
      </g>
     </g>
    </g>
    <g id="ytick_9">
     <g id="line2d_49">
      <path d="M 53.31375 169.725614 
L 703.861696 169.725614 
" clip-path="url(#p21d813a7e1)" style="fill: none; stroke: #b0b0b0; stroke-opacity: 0.3; stroke-width: 0.8; stroke-linecap: square"/>
     </g>
     <g id="line2d_50">
      <g>
       <use xlink:href="#m3b24e5e8c2" x="53.31375" y="169.725614" style="stroke: #000000; stroke-width: 0.6"/>
      </g>
     </g>
    </g>
    <g id="ytick_10">
     <g id="line2d_51">
      <path d="M 53.31375 138.562101 
L 703.861696 138.562101 
" clip-path="url(#p21d813a7e1)" style="fill: none; stroke: #b0b0b0; stroke-opacity: 0.3; stroke-width: 0.8; stroke-linecap: square"/>
     </g>
     <g id="line2d_52">
      <g>
       <use xlink:href="#m3b24e5e8c2" x="53.31375" y="138.562101" style="stroke: #000000; stroke-width: 0.6"/>
      </g>
     </g>
    </g>
    <g id="ytick_11">
     <g id="line2d_53">
      <path d="M 53.31375 114.389803 
L 703.861696 114.389803 
" clip-path="url(#p21d813a7e1)" style="fill: none; stroke: #b0b0b0; stroke-opacity: 0.3; stroke-width: 0.8; stroke-linecap: square"/>
     </g>
     <g id="line2d_54">
      <g>
       <use xlink:href="#m3b24e5e8c2" x="53.31375" y="114.389803" style="stroke: #000000; stroke-width: 0.6"/>
      </g>
     </g>
    </g>
    <g id="ytick_12">
     <g id="line2d_55">
      <path d="M 53.31375 94.639598 
L 703.861696 94.639598 
" clip-path="url(#p21d813a7e1)" style="fill: none; stroke: #b0b0b0; stroke-opacity: 0.3; stroke-width: 0.8; stroke-linecap: square"/>
     </g>
     <g id="line2d_56">
      <g>
       <use xlink:href="#m3b24e5e8c2" x="53.31375" y="94.639598" style="stroke: #000000; stroke-width: 0.6"/>
      </g>
     </g>
    </g>
    <g id="ytick_13">
     <g id="line2d_57">
      <path d="M 53.31375 77.941037 
L 703.861696 77.941037 
" clip-path="url(#p21d813a7e1)" style="fill: none; stroke: #b0b0b0; stroke-opacity: 0.3; stroke-width: 0.8; stroke-linecap: square"/>
     </g>
     <g id="line2d_58">
      <g>
       <use xlink:href="#m3b24e5e8c2" x="53.31375" y="77.941037" style="stroke: #000000; stroke-width: 0.6"/>
      </g>
     </g>
    </g>
    <g id="ytick_14">
     <g id="line2d_59">
      <path d="M 53.31375 63.476085 
L 703.861696 63.476085 
" clip-path="url(#p21d813a7e1)" style="fill: none; stroke: #b0b0b0; stroke-opacity: 0.3; stroke-width: 0.8; stroke-linecap: square"/>
     </g>
     <g id="line2d_60">
      <g>
       <use xlink:href="#m3b24e5e8c2" x="53.31375" y="63.476085" style="stroke: #000000; stroke-width: 0.6"/>
      </g>
     </g>
    </g>
    <g id="ytick_15">
     <g id="line2d_61">
      <path d="M 53.31375 50.717094 
L 703.861696 50.717094 
" clip-path="url(#p21d813a7e1)" style="fill: none; stroke: #b0b0b0; stroke-opacity: 0.3; stroke-width: 0.8; stroke-linecap: square"/>
     </g>
     <g id="line2d_62">
      <g>
       <use xlink:href="#m3b24e5e8c2" x="53.31375" y="50.717094" style="stroke: #000000; stroke-width: 0.6"/>
      </g>
     </g>
    </g>
    <g id="text_6">
     <!-- $\Delta\omega$ -->
     <g transform="translate(16.318125 210.741969) rotate(-90) scale(0.12 -0.12)">
      <defs>
       <path id="DejaVuSans-394" d="M 2188 4044 
L 906 525 
L 3472 525 
L 2188 4044 
z
M 50 0 
L 1831 4666 
L 2547 4666 
L 4325 0 
L 50 0 
z
" transform="scale(0.015625)"/>
       <path id="DejaVuSans-Oblique-3c9" d="M 1369 -91 
Q 72 -91 434 1766 
Q 575 2500 1256 3500 
L 1875 3500 
Q 1231 2500 1088 1750 
Q 819 397 1519 397 
Q 2166 397 2478 2078 
L 3009 2078 
Q 2669 388 3316 397 
Q 4013 403 4275 1750 
Q 4419 2500 4169 3500 
L 4788 3500 
Q 5075 2500 4934 1766 
Q 4578 -94 3278 -91 
Q 2428 -88 2503 844 
Q 2194 -91 1369 -91 
z
" transform="scale(0.015625)"/>
      </defs>
      <use xlink:href="#DejaVuSans-394" transform="translate(0 0.09375)"/>
      <use xlink:href="#DejaVuSans-Oblique-3c9" transform="translate(68.408203 0.09375)"/>
     </g>
    </g>
   </g>
   <g id="line2d_63">
    <path d="M 170.783065 252.486695 
L 288.252381 253.646208 
L 356.967525 255.406291 
L 405.721696 256.793894 
L 443.538369 257.899696 
L 523.191011 261.594241 
L 561.007684 263.780484 
L 629.722829 268.734935 
L 678.476999 273.217739 
" clip-path="url(#p21d813a7e1)" style="fill: none; stroke: #9467bd; stroke-width: 1.5; stroke-linecap: square"/>
    <defs>
     <path id="m8eeb32c774" d="M 0 3.5 
C 0.928211 3.5 1.81853 3.131218 2.474874 2.474874 
C 3.131218 1.81853 3.5 0.928211 3.5 0 
C 3.5 -0.928211 3.131218 -1.81853 2.474874 -2.474874 
C 1.81853 -3.131218 0.928211 -3.5 0 -3.5 
C -0.928211 -3.5 -1.81853 -3.131218 -2.474874 -2.474874 
C -3.131218 -1.81853 -3.5 -0.928211 -3.5 0 
C -3.5 0.928211 -3.131218 1.81853 -2.474874 2.474874 
C -1.81853 3.131218 -0.928211 3.5 0 3.5 
z
" style="stroke: #9467bd"/>
    </defs>
    <g clip-path="url(#p21d813a7e1)">
     <use xlink:href="#m8eeb32c774" x="170.783065" y="252.486695" style="fill: #9467bd; stroke: #9467bd"/>
     <use xlink:href="#m8eeb32c774" x="288.252381" y="253.646208" style="fill: #9467bd; stroke: #9467bd"/>
     <use xlink:href="#m8eeb32c774" x="356.967525" y="255.406291" style="fill: #9467bd; stroke: #9467bd"/>
     <use xlink:href="#m8eeb32c774" x="405.721696" y="256.793894" style="fill: #9467bd; stroke: #9467bd"/>
     <use xlink:href="#m8eeb32c774" x="443.538369" y="257.899696" style="fill: #9467bd; stroke: #9467bd"/>
     <use xlink:href="#m8eeb32c774" x="523.191011" y="261.594241" style="fill: #9467bd; stroke: #9467bd"/>
     <use xlink:href="#m8eeb32c774" x="561.007684" y="263.780484" style="fill: #9467bd; stroke: #9467bd"/>
     <use xlink:href="#m8eeb32c774" x="629.722829" y="268.734935" style="fill: #9467bd; stroke: #9467bd"/>
     <use xlink:href="#m8eeb32c774" x="678.476999" y="273.217739" style="fill: #9467bd; stroke: #9467bd"/>
    </g>
   </g>
   <g id="line2d_64">
    <defs>
     <path id="m1bb8221196" d="M 0 3 
C 0.795609 3 1.55874 2.683901 2.12132 2.12132 
C 2.683901 1.55874 3 0.795609 3 0 
C 3 -0.795609 2.683901 -1.55874 2.12132 -2.12132 
C 1.55874 -2.683901 0.795609 -3 0 -3 
C -0.795609 -3 -1.55874 -2.683901 -2.12132 -2.12132 
C -2.683901 -1.55874 -3 -0.795609 -3 0 
C -3 0.795609 -2.683901 1.55874 -2.12132 2.12132 
C -1.55874 2.683901 -0.795609 3 0 3 
z
" style="stroke: #2ca02c; stroke-opacity: 0.7"/>
    </defs>
    <g clip-path="url(#p21d813a7e1)">
     <use xlink:href="#m1bb8221196" x="170.783065" y="211.718059" style="fill: #2ca02c; fill-opacity: 0.7; stroke: #2ca02c; stroke-opacity: 0.7"/>
     <use xlink:href="#m1bb8221196" x="288.252381" y="197.459218" style="fill: #2ca02c; fill-opacity: 0.7; stroke: #2ca02c; stroke-opacity: 0.7"/>
     <use xlink:href="#m1bb8221196" x="356.967525" y="210.518615" style="fill: #2ca02c; fill-opacity: 0.7; stroke: #2ca02c; stroke-opacity: 0.7"/>
     <use xlink:href="#m1bb8221196" x="405.721696" y="201.984402" style="fill: #2ca02c; fill-opacity: 0.7; stroke: #2ca02c; stroke-opacity: 0.7"/>
     <use xlink:href="#m1bb8221196" x="443.538369" y="203.9505" style="fill: #2ca02c; fill-opacity: 0.7; stroke: #2ca02c; stroke-opacity: 0.7"/>
     <use xlink:href="#m1bb8221196" x="474.43684" y="209.395559" style="fill: #2ca02c; fill-opacity: 0.7; stroke: #2ca02c; stroke-opacity: 0.7"/>
     <use xlink:href="#m1bb8221196" x="500.561126" y="209.013295" style="fill: #2ca02c; fill-opacity: 0.7; stroke: #2ca02c; stroke-opacity: 0.7"/>
     <use xlink:href="#m1bb8221196" x="523.191011" y="214.160624" style="fill: #2ca02c; fill-opacity: 0.7; stroke: #2ca02c; stroke-opacity: 0.7"/>
     <use xlink:href="#m1bb8221196" x="543.151985" y="215.048681" style="fill: #2ca02c; fill-opacity: 0.7; stroke: #2ca02c; stroke-opacity: 0.7"/>
     <use xlink:href="#m1bb8221196" x="561.007684" y="219.266953" style="fill: #2ca02c; fill-opacity: 0.7; stroke: #2ca02c; stroke-opacity: 0.7"/>
    </g>
   </g>
   <g id="line2d_65"/>
   <g id="line2d_66">
    <defs>
     <path id="m4b26946866" d="M -3 3 
L 3 3 
L 3 -3 
L -3 -3 
z
" style="stroke: #2ca02c; stroke-opacity: 0.7; stroke-linejoin: miter"/>
    </defs>
    <g clip-path="url(#p21d813a7e1)">
     <use xlink:href="#m4b26946866" x="170.783065" y="162.838684" style="fill: #2ca02c; fill-opacity: 0.7; stroke: #2ca02c; stroke-opacity: 0.7; stroke-linejoin: miter"/>
     <use xlink:href="#m4b26946866" x="288.252381" y="182.300737" style="fill: #2ca02c; fill-opacity: 0.7; stroke: #2ca02c; stroke-opacity: 0.7; stroke-linejoin: miter"/>
     <use xlink:href="#m4b26946866" x="356.967525" y="186.187172" style="fill: #2ca02c; fill-opacity: 0.7; stroke: #2ca02c; stroke-opacity: 0.7; stroke-linejoin: miter"/>
     <use xlink:href="#m4b26946866" x="405.721696" y="200.081006" style="fill: #2ca02c; fill-opacity: 0.7; stroke: #2ca02c; stroke-opacity: 0.7; stroke-linejoin: miter"/>
     <use xlink:href="#m4b26946866" x="443.538369" y="196.233423" style="fill: #2ca02c; fill-opacity: 0.7; stroke: #2ca02c; stroke-opacity: 0.7; stroke-linejoin: miter"/>
     <use xlink:href="#m4b26946866" x="474.43684" y="204.237237" style="fill: #2ca02c; fill-opacity: 0.7; stroke: #2ca02c; stroke-opacity: 0.7; stroke-linejoin: miter"/>
     <use xlink:href="#m4b26946866" x="500.561126" y="201.457968" style="fill: #2ca02c; fill-opacity: 0.7; stroke: #2ca02c; stroke-opacity: 0.7; stroke-linejoin: miter"/>
     <use xlink:href="#m4b26946866" x="523.191011" y="208.0072" style="fill: #2ca02c; fill-opacity: 0.7; stroke: #2ca02c; stroke-opacity: 0.7; stroke-linejoin: miter"/>
     <use xlink:href="#m4b26946866" x="543.151985" y="207.737872" style="fill: #2ca02c; fill-opacity: 0.7; stroke: #2ca02c; stroke-opacity: 0.7; stroke-linejoin: miter"/>
     <use xlink:href="#m4b26946866" x="561.007684" y="213.743219" style="fill: #2ca02c; fill-opacity: 0.7; stroke: #2ca02c; stroke-opacity: 0.7; stroke-linejoin: miter"/>
    </g>
   </g>
   <g id="line2d_67">
    <path d="M 170.783065 39.303787 
L 200.536449 48.812921 
L 225.838051 56.899274 
L 247.848293 63.933712 
L 267.32575 70.158677 
L 284.79364 75.741387 
L 300.628125 80.802064 
L 315.108729 85.430042 
L 328.448845 89.693522 
L 340.81508 93.645751 
L 352.340005 97.329099 
L 363.130837 100.777832 
L 373.27552 104.020057 
L 382.847085 107.079114 
L 391.906839 109.974597 
L 400.506749 112.723115 
L 408.691251 115.338868 
L 416.498633 117.834095 
L 423.962123 120.219415 
L 431.110742 122.504102 
L 437.969986 124.696306 
L 444.562374 126.803223 
L 450.907895 128.831241 
L 457.024372 130.786058 
L 462.927765 132.672773 
L 468.632424 134.495973 
L 474.151293 136.259795 
L 479.496094 137.967985 
L 484.677472 139.623945 
L 489.705125 141.230775 
L 494.587912 142.791306 
L 499.333949 144.308132 
L 503.950687 145.783634 
L 508.444984 147.220005 
L 512.823169 148.619265 
L 517.091089 149.983286 
L 521.254163 151.313798 
L 525.317418 152.612408 
L 529.28553 153.88061 
L 533.162852 155.119796 
L 536.953446 156.331264 
L 540.661108 157.516227 
L 544.289388 158.675819 
L 547.841614 159.811105 
L 551.320911 160.923083 
L 554.730211 162.01269 
L 558.072276 163.080809 
L 561.349707 164.128271 
L 564.564956 165.155859 
L 567.72034 166.164315 
L 570.818046 167.154337 
L 573.860145 168.126587 
L 576.848599 169.081692 
L 579.785266 170.020246 
L 582.671912 170.942814 
L 585.510212 171.84993 
L 588.301758 172.742104 
L 591.048066 173.619819 
L 593.750578 174.483538 
L 596.410671 175.333699 
L 599.029654 176.170722 
L 601.608779 176.995006 
L 604.149241 177.806934 
L 606.652182 178.60687 
L 609.118695 179.395164 
L 611.549824 180.172149 
L 613.946571 180.938146 
L 616.309894 181.69346 
L 618.640713 182.438386 
L 620.93991 183.173206 
L 623.208331 183.898189 
L 625.446789 184.613597 
L 627.656066 185.319679 
L 629.836913 186.016674 
L 631.990052 186.704813 
L 634.116178 187.38432 
L 636.21596 188.055407 
L 638.290045 188.718281 
L 640.339052 189.373141 
L 642.363581 190.020177 
L 644.36421 190.659575 
L 646.341498 191.291513 
L 648.295981 191.916163 
L 650.22818 192.533691 
L 652.138598 193.144257 
L 654.027721 193.748018 
L 655.896017 194.345122 
L 657.743941 194.935716 
L 659.571932 195.519939 
L 661.380416 196.097928 
L 663.169805 196.669814 
L 664.940498 197.235724 
L 666.692881 197.795783 
L 668.42733 198.35011 
L 670.144207 198.898821 
L 671.843865 199.44203 
L 673.526647 199.979844 
L 675.192883 200.51237 
L 676.842896 201.039712 
L 678.476999 201.561969 
" clip-path="url(#p21d813a7e1)" style="fill: none; stroke-dasharray: 4.44,1.92; stroke-dashoffset: 0; stroke: #000000; stroke-opacity: 0.7; stroke-width: 1.2"/>
   </g>
   <g id="line2d_68">
    <path d="M 170.783065 39.303787 
L 200.536449 58.322056 
L 225.838051 74.49476 
L 247.848293 88.563637 
L 267.32575 101.013567 
L 284.79364 112.178987 
L 300.628125 122.30034 
L 315.108729 131.556297 
L 328.448845 140.083257 
L 340.81508 147.987715 
L 352.340005 155.354411 
L 363.130837 162.251877 
L 373.27552 168.736326 
L 382.847085 174.85444 
L 391.906839 180.645406 
L 400.506749 186.142442 
L 408.691251 191.37395 
L 416.498633 196.364404 
L 423.962123 201.135043 
L 431.110742 205.704418 
L 437.969986 210.088825 
L 444.562374 214.302659 
L 450.907895 218.358696 
L 457.024372 222.268329 
L 462.927765 226.041759 
L 468.632424 229.688159 
L 474.151293 233.215802 
L 479.496094 236.632182 
L 484.677472 239.944103 
L 489.705125 243.157763 
L 494.587912 246.278825 
L 499.333949 249.312477 
L 503.950687 252.263481 
L 508.444984 255.136222 
L 512.823169 257.934744 
L 517.091089 260.662785 
L 521.254163 263.323809 
L 525.317418 265.921029 
L 529.28553 268.457433 
L 533.162852 270.935805 
L 536.953446 273.358741 
L 540.661108 275.728667 
L 544.289388 278.047852 
L 547.841614 280.318424 
L 551.320911 282.542379 
L 554.730211 284.721593 
L 558.072276 286.857831 
L 561.349707 288.952754 
L 564.564956 291.007932 
L 567.72034 293.024843 
L 570.818046 295.004886 
L 573.860145 296.949387 
L 576.848599 298.859597 
L 579.785266 300.736706 
L 582.671912 302.581841 
L 585.510212 304.396073 
L 588.301758 306.18042 
L 591.048066 307.935852 
L 593.750578 309.663289 
L 596.410671 311.363612 
L 599.029654 313.037657 
L 601.608779 314.686226 
L 604.149241 316.310082 
L 606.652182 317.909954 
L 609.118695 319.486541 
L 611.549824 321.040511 
L 613.946571 322.572504 
L 616.309894 324.083133 
L 618.640713 325.572985 
L 620.93991 327.042624 
L 623.208331 328.492592 
L 625.446789 329.923407 
L 627.656066 331.33557 
L 629.836913 332.729561 
L 631.990052 334.10584 
L 634.116178 335.464853 
L 636.21596 336.807027 
L 638.290045 338.132776 
L 640.339052 339.442495 
L 642.363581 340.736567 
L 644.36421 342.015363 
L 646.341498 343.279239 
L 648.295981 344.528539 
L 650.22818 345.763594 
L 652.138598 346.984728 
L 654.027721 348.192249 
L 655.896017 349.386458 
L 657.743941 350.567645 
L 659.571932 351.736091 
L 661.380416 352.892068 
L 663.169805 354.03584 
L 664.940498 355.167662 
L 666.692881 356.287779 
L 668.42733 357.396433 
L 670.144207 358.493856 
L 671.843865 359.580272 
L 673.526647 360.655901 
L 675.192883 361.720954 
L 676.842896 362.775637 
L 678.476999 363.820151 
" clip-path="url(#p21d813a7e1)" style="fill: none; stroke-dasharray: 1,1.65; stroke-dashoffset: 0; stroke: #000000; stroke-opacity: 0.5"/>
   </g>
   <g id="patch_3">
    <path d="M 53.31375 380.045969 
L 53.31375 23.077969 
" style="fill: none; stroke: #000000; stroke-width: 0.8; stroke-linejoin: miter; stroke-linecap: square"/>
   </g>
   <g id="patch_4">
    <path d="M 703.861696 380.045969 
L 703.861696 23.077969 
" style="fill: none; stroke: #000000; stroke-width: 0.8; stroke-linejoin: miter; stroke-linecap: square"/>
   </g>
   <g id="patch_5">
    <path d="M 53.31375 380.045969 
L 703.861696 380.045969 
" style="fill: none; stroke: #000000; stroke-width: 0.8; stroke-linejoin: miter; stroke-linecap: square"/>
   </g>
   <g id="patch_6">
    <path d="M 53.31375 23.077969 
L 703.861696 23.077969 
" style="fill: none; stroke: #000000; stroke-width: 0.8; stroke-linejoin: miter; stroke-linecap: square"/>
   </g>
   <g id="text_7">
    <!-- S-only CFI vs joint measurement comparison -->
    <g transform="translate(232.934911 17.077969) scale(0.13 -0.13)">
     <defs>
      <path id="DejaVuSans-53" d="M 3425 4513 
L 3425 3897 
Q 3066 4069 2747 4153 
Q 2428 4238 2131 4238 
Q 1616 4238 1336 4038 
Q 1056 3838 1056 3469 
Q 1056 3159 1242 3001 
Q 1428 2844 1947 2747 
L 2328 2669 
Q 3034 2534 3370 2195 
Q 3706 1856 3706 1288 
Q 3706 609 3251 259 
Q 2797 -91 1919 -91 
Q 1588 -91 1214 -16 
Q 841 59 441 206 
L 441 856 
Q 825 641 1194 531 
Q 1563 422 1919 422 
Q 2459 422 2753 634 
Q 3047 847 3047 1241 
Q 3047 1584 2836 1778 
Q 2625 1972 2144 2069 
L 1759 2144 
Q 1053 2284 737 2584 
Q 422 2884 422 3419 
Q 422 4038 858 4394 
Q 1294 4750 2059 4750 
Q 2388 4750 2728 4690 
Q 3069 4631 3425 4513 
z
" transform="scale(0.015625)"/>
      <path id="DejaVuSans-2d" d="M 313 2009 
L 1997 2009 
L 1997 1497 
L 313 1497 
L 313 2009 
z
" transform="scale(0.015625)"/>
      <path id="DejaVuSans-6f" d="M 1959 3097 
Q 1497 3097 1228 2736 
Q 959 2375 959 1747 
Q 959 1119 1226 758 
Q 1494 397 1959 397 
Q 2419 397 2687 759 
Q 2956 1122 2956 1747 
Q 2956 2369 2687 2733 
Q 2419 3097 1959 3097 
z
M 1959 3584 
Q 2709 3584 3137 3096 
Q 3566 2609 3566 1747 
Q 3566 888 3137 398 
Q 2709 -91 1959 -91 
Q 1206 -91 779 398 
Q 353 888 353 1747 
Q 353 2609 779 3096 
Q 1206 3584 1959 3584 
z
" transform="scale(0.015625)"/>
      <path id="DejaVuSans-6e" d="M 3513 2113 
L 3513 0 
L 2938 0 
L 2938 2094 
Q 2938 2591 2744 2837 
Q 2550 3084 2163 3084 
Q 1697 3084 1428 2787 
Q 1159 2491 1159 1978 
L 1159 0 
L 581 0 
L 581 3500 
L 1159 3500 
L 1159 2956 
Q 1366 3272 1645 3428 
Q 1925 3584 2291 3584 
Q 2894 3584 3203 3211 
Q 3513 2838 3513 2113 
z
" transform="scale(0.015625)"/>
      <path id="DejaVuSans-6c" d="M 603 4863 
L 1178 4863 
L 1178 0 
L 603 0 
L 603 4863 
z
" transform="scale(0.015625)"/>
      <path id="DejaVuSans-79" d="M 2059 -325 
Q 1816 -950 1584 -1140 
Q 1353 -1331 966 -1331 
L 506 -1331 
L 506 -850 
L 844 -850 
Q 1081 -850 1212 -737 
Q 1344 -625 1503 -206 
L 1606 56 
L 191 3500 
L 800 3500 
L 1894 763 
L 2988 3500 
L 3597 3500 
L 2059 -325 
z
" transform="scale(0.015625)"/>
      <path id="DejaVuSans-20" transform="scale(0.015625)"/>
      <path id="DejaVuSans-43" d="M 4122 4306 
L 4122 3641 
Q 3803 3938 3442 4084 
Q 3081 4231 2675 4231 
Q 1875 4231 1450 3742 
Q 1025 3253 1025 2328 
Q 1025 1406 1450 917 
Q 1875 428 2675 428 
Q 3081 428 3442 575 
Q 3803 722 4122 1019 
L 4122 359 
Q 3791 134 3420 21 
Q 3050 -91 2638 -91 
Q 1578 -91 968 557 
Q 359 1206 359 2328 
Q 359 3453 968 4101 
Q 1578 4750 2638 4750 
Q 3056 4750 3426 4639 
Q 3797 4528 4122 4306 
z
" transform="scale(0.015625)"/>
      <path id="DejaVuSans-46" d="M 628 4666 
L 3309 4666 
L 3309 4134 
L 1259 4134 
L 1259 2759 
L 3109 2759 
L 3109 2228 
L 1259 2228 
L 1259 0 
L 628 0 
L 628 4666 
z
" transform="scale(0.015625)"/>
      <path id="DejaVuSans-49" d="M 628 4666 
L 1259 4666 
L 1259 0 
L 628 0 
L 628 4666 
z
" transform="scale(0.015625)"/>
      <path id="DejaVuSans-76" d="M 191 3500 
L 800 3500 
L 1894 563 
L 2988 3500 
L 3597 3500 
L 2284 0 
L 1503 0 
L 191 3500 
z
" transform="scale(0.015625)"/>
      <path id="DejaVuSans-73" d="M 2834 3397 
L 2834 2853 
Q 2591 2978 2328 3040 
Q 2066 3103 1784 3103 
Q 1356 3103 1142 2972 
Q 928 2841 928 2578 
Q 928 2378 1081 2264 
Q 1234 2150 1697 2047 
L 1894 2003 
Q 2506 1872 2764 1633 
Q 3022 1394 3022 966 
Q 3022 478 2636 193 
Q 2250 -91 1575 -91 
Q 1294 -91 989 -36 
Q 684 19 347 128 
L 347 722 
Q 666 556 975 473 
Q 1284 391 1588 391 
Q 1994 391 2212 530 
Q 2431 669 2431 922 
Q 2431 1156 2273 1281 
Q 2116 1406 1581 1522 
L 1381 1569 
Q 847 1681 609 1914 
Q 372 2147 372 2553 
Q 372 3047 722 3315 
Q 1072 3584 1716 3584 
Q 2034 3584 2315 3537 
Q 2597 3491 2834 3397 
z
" transform="scale(0.015625)"/>
      <path id="DejaVuSans-6a" d="M 603 3500 
L 1178 3500 
L 1178 -63 
Q 1178 -731 923 -1031 
Q 669 -1331 103 -1331 
L -116 -1331 
L -116 -844 
L 38 -844 
Q 366 -844 484 -692 
Q 603 -541 603 -63 
L 603 3500 
z
M 603 4863 
L 1178 4863 
L 1178 4134 
L 603 4134 
L 603 4863 
z
" transform="scale(0.015625)"/>
      <path id="DejaVuSans-69" d="M 603 3500 
L 1178 3500 
L 1178 0 
L 603 0 
L 603 3500 
z
M 603 4863 
L 1178 4863 
L 1178 4134 
L 603 4134 
L 603 4863 
z
" transform="scale(0.015625)"/>
      <path id="DejaVuSans-74" d="M 1172 4494 
L 1172 3500 
L 2356 3500 
L 2356 3053 
L 1172 3053 
L 1172 1153 
Q 1172 725 1289 603 
Q 1406 481 1766 481 
L 2356 481 
L 2356 0 
L 1766 0 
Q 1100 0 847 248 
Q 594 497 594 1153 
L 594 3053 
L 172 3053 
L 172 3500 
L 594 3500 
L 594 4494 
L 1172 4494 
z
" transform="scale(0.015625)"/>
      <path id="DejaVuSans-6d" d="M 3328 2828 
Q 3544 3216 3844 3400 
Q 4144 3584 4550 3584 
Q 5097 3584 5394 3201 
Q 5691 2819 5691 2113 
L 5691 0 
L 5113 0 
L 5113 2094 
Q 5113 2597 4934 2840 
Q 4756 3084 4391 3084 
Q 3944 3084 3684 2787 
Q 3425 2491 3425 1978 
L 3425 0 
L 2847 0 
L 2847 2094 
Q 2847 2600 2669 2842 
Q 2491 3084 2119 3084 
Q 1678 3084 1418 2786 
Q 1159 2488 1159 1978 
L 1159 0 
L 581 0 
L 581 3500 
L 1159 3500 
L 1159 2956 
Q 1356 3278 1631 3431 
Q 1906 3584 2284 3584 
Q 2666 3584 2933 3390 
Q 3200 3197 3328 2828 
z
" transform="scale(0.015625)"/>
      <path id="DejaVuSans-65" d="M 3597 1894 
L 3597 1613 
L 953 1613 
Q 991 1019 1311 708 
Q 1631 397 2203 397 
Q 2534 397 2845 478 
Q 3156 559 3463 722 
L 3463 178 
Q 3153 47 2828 -22 
Q 2503 -91 2169 -91 
Q 1331 -91 842 396 
Q 353 884 353 1716 
Q 353 2575 817 3079 
Q 1281 3584 2069 3584 
Q 2775 3584 3186 3129 
Q 3597 2675 3597 1894 
z
M 3022 2063 
Q 3016 2534 2758 2815 
Q 2500 3097 2075 3097 
Q 1594 3097 1305 2825 
Q 1016 2553 972 2059 
L 3022 2063 
z
" transform="scale(0.015625)"/>
      <path id="DejaVuSans-61" d="M 2194 1759 
Q 1497 1759 1228 1600 
Q 959 1441 959 1056 
Q 959 750 1161 570 
Q 1363 391 1709 391 
Q 2188 391 2477 730 
Q 2766 1069 2766 1631 
L 2766 1759 
L 2194 1759 
z
M 3341 1997 
L 3341 0 
L 2766 0 
L 2766 531 
Q 2569 213 2275 61 
Q 1981 -91 1556 -91 
Q 1019 -91 701 211 
Q 384 513 384 1019 
Q 384 1609 779 1909 
Q 1175 2209 1959 2209 
L 2766 2209 
L 2766 2266 
Q 2766 2663 2505 2880 
Q 2244 3097 1772 3097 
Q 1472 3097 1187 3025 
Q 903 2953 641 2809 
L 641 3341 
Q 956 3463 1253 3523 
Q 1550 3584 1831 3584 
Q 2591 3584 2966 3190 
Q 3341 2797 3341 1997 
z
" transform="scale(0.015625)"/>
      <path id="DejaVuSans-75" d="M 544 1381 
L 544 3500 
L 1119 3500 
L 1119 1403 
Q 1119 906 1312 657 
Q 1506 409 1894 409 
Q 2359 409 2629 706 
Q 2900 1003 2900 1516 
L 2900 3500 
L 3475 3500 
L 3475 0 
L 2900 0 
L 2900 538 
Q 2691 219 2414 64 
Q 2138 -91 1772 -91 
Q 1169 -91 856 284 
Q 544 659 544 1381 
z
M 1991 3584 
L 1991 3584 
z
" transform="scale(0.015625)"/>
      <path id="DejaVuSans-72" d="M 2631 2963 
Q 2534 3019 2420 3045 
Q 2306 3072 2169 3072 
Q 1681 3072 1420 2755 
Q 1159 2438 1159 1844 
L 1159 0 
L 581 0 
L 581 3500 
L 1159 3500 
L 1159 2956 
Q 1341 3275 1631 3429 
Q 1922 3584 2338 3584 
Q 2397 3584 2469 3576 
Q 2541 3569 2628 3553 
L 2631 2963 
z
" transform="scale(0.015625)"/>
      <path id="DejaVuSans-63" d="M 3122 3366 
L 3122 2828 
Q 2878 2963 2633 3030 
Q 2388 3097 2138 3097 
Q 1578 3097 1268 2742 
Q 959 2388 959 1747 
Q 959 1106 1268 751 
Q 1578 397 2138 397 
Q 2388 397 2633 464 
Q 2878 531 3122 666 
L 3122 134 
Q 2881 22 2623 -34 
Q 2366 -91 2075 -91 
Q 1284 -91 818 406 
Q 353 903 353 1747 
Q 353 2603 823 3093 
Q 1294 3584 2113 3584 
Q 2378 3584 2631 3529 
Q 2884 3475 3122 3366 
z
" transform="scale(0.015625)"/>
      <path id="DejaVuSans-70" d="M 1159 525 
L 1159 -1331 
L 581 -1331 
L 581 3500 
L 1159 3500 
L 1159 2969 
Q 1341 3281 1617 3432 
Q 1894 3584 2278 3584 
Q 2916 3584 3314 3078 
Q 3713 2572 3713 1747 
Q 3713 922 3314 415 
Q 2916 -91 2278 -91 
Q 1894 -91 1617 61 
Q 1341 213 1159 525 
z
M 3116 1747 
Q 3116 2381 2855 2742 
Q 2594 3103 2138 3103 
Q 1681 3103 1420 2742 
Q 1159 2381 1159 1747 
Q 1159 1113 1420 752 
Q 1681 391 2138 391 
Q 2594 391 2855 752 
Q 3116 1113 3116 1747 
z
" transform="scale(0.015625)"/>
     </defs>
     <use xlink:href="#DejaVuSans-53"/>
     <use xlink:href="#DejaVuSans-2d" transform="translate(63.476562 0)"/>
     <use xlink:href="#DejaVuSans-6f" transform="translate(101.435547 0)"/>
     <use xlink:href="#DejaVuSans-6e" transform="translate(162.617188 0)"/>
     <use xlink:href="#DejaVuSans-6c" transform="translate(225.996094 0)"/>
     <use xlink:href="#DejaVuSans-79" transform="translate(253.779297 0)"/>
     <use xlink:href="#DejaVuSans-20" transform="translate(312.958984 0)"/>
     <use xlink:href="#DejaVuSans-43" transform="translate(344.746094 0)"/>
     <use xlink:href="#DejaVuSans-46" transform="translate(414.570312 0)"/>
     <use xlink:href="#DejaVuSans-49" transform="translate(472.089844 0)"/>
     <use xlink:href="#DejaVuSans-20" transform="translate(501.582031 0)"/>
     <use xlink:href="#DejaVuSans-76" transform="translate(533.369141 0)"/>
     <use xlink:href="#DejaVuSans-73" transform="translate(592.548828 0)"/>
     <use xlink:href="#DejaVuSans-20" transform="translate(644.648438 0)"/>
     <use xlink:href="#DejaVuSans-6a" transform="translate(676.435547 0)"/>
     <use xlink:href="#DejaVuSans-6f" transform="translate(704.21875 0)"/>
     <use xlink:href="#DejaVuSans-69" transform="translate(765.400391 0)"/>
     <use xlink:href="#DejaVuSans-6e" transform="translate(793.183594 0)"/>
     <use xlink:href="#DejaVuSans-74" transform="translate(856.5625 0)"/>
     <use xlink:href="#DejaVuSans-20" transform="translate(895.771484 0)"/>
     <use xlink:href="#DejaVuSans-6d" transform="translate(927.558594 0)"/>
     <use xlink:href="#DejaVuSans-65" transform="translate(1024.970703 0)"/>
     <use xlink:href="#DejaVuSans-61" transform="translate(1086.494141 0)"/>
     <use xlink:href="#DejaVuSans-73" transform="translate(1147.773438 0)"/>
     <use xlink:href="#DejaVuSans-75" transform="translate(1199.873047 0)"/>
     <use xlink:href="#DejaVuSans-72" transform="translate(1263.251953 0)"/>
     <use xlink:href="#DejaVuSans-65" transform="translate(1302.115234 0)"/>
     <use xlink:href="#DejaVuSans-6d" transform="translate(1363.638672 0)"/>
     <use xlink:href="#DejaVuSans-65" transform="translate(1461.050781 0)"/>
     <use xlink:href="#DejaVuSans-6e" transform="translate(1522.574219 0)"/>
     <use xlink:href="#DejaVuSans-74" transform="translate(1585.953125 0)"/>
     <use xlink:href="#DejaVuSans-20" transform="translate(1625.162109 0)"/>
     <use xlink:href="#DejaVuSans-63" transform="translate(1656.949219 0)"/>
     <use xlink:href="#DejaVuSans-6f" transform="translate(1711.929688 0)"/>
     <use xlink:href="#DejaVuSans-6d" transform="translate(1773.111328 0)"/>
     <use xlink:href="#DejaVuSans-70" transform="translate(1870.523438 0)"/>
     <use xlink:href="#DejaVuSans-61" transform="translate(1934 0)"/>
     <use xlink:href="#DejaVuSans-72" transform="translate(1995.279297 0)"/>
     <use xlink:href="#DejaVuSans-69" transform="translate(2036.392578 0)"/>
     <use xlink:href="#DejaVuSans-73" transform="translate(2064.175781 0)"/>
     <use xlink:href="#DejaVuSans-6f" transform="translate(2116.275391 0)"/>
     <use xlink:href="#DejaVuSans-6e" transform="translate(2177.457031 0)"/>
    </g>
   </g>
   <g id="legend_1">
    <g id="patch_7">
     <path d="M 481.381696 67.157969 
L 698.261696 67.157969 
Q 699.861696 67.157969 699.861696 65.557969 
L 699.861696 28.677969 
Q 699.861696 27.077969 698.261696 27.077969 
L 481.381696 27.077969 
Q 479.781696 27.077969 479.781696 28.677969 
L 479.781696 65.557969 
Q 479.781696 67.157969 481.381696 67.157969 
z
" style="fill: #ffffff; opacity: 0.8; stroke: #cccccc; stroke-linejoin: miter"/>
    </g>
    <g id="line2d_69">
     <path d="M 482.981696 34.757969 
L 490.981696 34.757969 
L 498.981696 34.757969 
" style="fill: none; stroke: #9467bd; stroke-width: 1.5; stroke-linecap: square"/>
     <g>
      <use xlink:href="#m8eeb32c774" x="490.981696" y="34.757969" style="fill: #9467bd; stroke: #9467bd"/>
     </g>
    </g>
    <g id="text_8">
     <!-- Joint M($\psi^*$), $\omega=0.2$ -->
     <g transform="translate(505.381696 37.557969) scale(0.08 -0.08)">
      <defs>
       <path id="DejaVuSans-4a" d="M 628 4666 
L 1259 4666 
L 1259 325 
Q 1259 -519 939 -900 
Q 619 -1281 -91 -1281 
L -331 -1281 
L -331 -750 
L -134 -750 
Q 284 -750 456 -515 
Q 628 -281 628 325 
L 628 4666 
z
" transform="scale(0.015625)"/>
       <path id="DejaVuSans-4d" d="M 628 4666 
L 1569 4666 
L 2759 1491 
L 3956 4666 
L 4897 4666 
L 4897 0 
L 4281 0 
L 4281 4097 
L 3078 897 
L 2444 897 
L 1241 4097 
L 1241 0 
L 628 0 
L 628 4666 
z
" transform="scale(0.015625)"/>
       <path id="DejaVuSans-28" d="M 1984 4856 
Q 1566 4138 1362 3434 
Q 1159 2731 1159 2009 
Q 1159 1288 1364 580 
Q 1569 -128 1984 -844 
L 1484 -844 
Q 1016 -109 783 600 
Q 550 1309 550 2009 
Q 550 2706 781 3412 
Q 1013 4119 1484 4856 
L 1984 4856 
z
" transform="scale(0.015625)"/>
       <path id="DejaVuSans-Oblique-3c8" d="M 1591 -78 
Q 891 38 616 341 
Q 278 713 425 1472 
L 819 3500 
L 1400 3500 
L 1009 1494 
Q 900 922 1119 684 
Q 1313 478 1691 434 
L 2284 3500 
L 2856 3500 
L 2263 438 
Q 2681 481 2928 688 
Q 3247 950 3353 1497 
L 3741 3500 
L 4322 3500 
L 3928 1475 
Q 3775 688 3300 344 
Q 2872 34 2163 -75 
L 1919 -1331 
L 1347 -1331 
L 1591 -78 
z
" transform="scale(0.015625)"/>
       <path id="DejaVuSans-2a" d="M 3009 3897 
L 1888 3291 
L 3009 2681 
L 2828 2375 
L 1778 3009 
L 1778 1831 
L 1422 1831 
L 1422 3009 
L 372 2375 
L 191 2681 
L 1313 3291 
L 191 3897 
L 372 4206 
L 1422 3572 
L 1422 4750 
L 1778 4750 
L 1778 3572 
L 2828 4206 
L 3009 3897 
z
" transform="scale(0.015625)"/>
       <path id="DejaVuSans-29" d="M 513 4856 
L 1013 4856 
Q 1481 4119 1714 3412 
Q 1947 2706 1947 2009 
Q 1947 1309 1714 600 
Q 1481 -109 1013 -844 
L 513 -844 
Q 928 -128 1133 580 
Q 1338 1288 1338 2009 
Q 1338 2731 1133 3434 
Q 928 4138 513 4856 
z
" transform="scale(0.015625)"/>
       <path id="DejaVuSans-2c" d="M 750 794 
L 1409 794 
L 1409 256 
L 897 -744 
L 494 -744 
L 750 256 
L 750 794 
z
" transform="scale(0.015625)"/>
       <path id="DejaVuSans-3d" d="M 678 2906 
L 4684 2906 
L 4684 2381 
L 678 2381 
L 678 2906 
z
M 678 1631 
L 4684 1631 
L 4684 1100 
L 678 1100 
L 678 1631 
z
" transform="scale(0.015625)"/>
       <path id="DejaVuSans-2e" d="M 684 794 
L 1344 794 
L 1344 0 
L 684 0 
L 684 794 
z
" transform="scale(0.015625)"/>
      </defs>
      <use xlink:href="#DejaVuSans-4a" transform="translate(0 0.765625)"/>
      <use xlink:href="#DejaVuSans-6f" transform="translate(29.492188 0.765625)"/>
      <use xlink:href="#DejaVuSans-69" transform="translate(90.673828 0.765625)"/>
      <use xlink:href="#DejaVuSans-6e" transform="translate(118.457031 0.765625)"/>
      <use xlink:href="#DejaVuSans-74" transform="translate(181.835938 0.765625)"/>
      <use xlink:href="#DejaVuSans-20" transform="translate(221.044922 0.765625)"/>
      <use xlink:href="#DejaVuSans-4d" transform="translate(252.832031 0.765625)"/>
      <use xlink:href="#DejaVuSans-28" transform="translate(339.111328 0.765625)"/>
      <use xlink:href="#DejaVuSans-Oblique-3c8" transform="translate(378.125 0.765625)"/>
      <use xlink:href="#DejaVuSans-2a" transform="translate(462.195638 39.046875) scale(0.7)"/>
      <use xlink:href="#DejaVuSans-29" transform="translate(513.567708 0.765625)"/>
      <use xlink:href="#DejaVuSans-2c" transform="translate(552.58138 0.765625)"/>
      <use xlink:href="#DejaVuSans-20" transform="translate(584.36849 0.765625)"/>
      <use xlink:href="#DejaVuSans-Oblique-3c9" transform="translate(616.155599 0.765625)"/>
      <use xlink:href="#DejaVuSans-3d" transform="translate(719.378255 0.765625)"/>
      <use xlink:href="#DejaVuSans-30" transform="translate(822.64974 0.765625)"/>
      <use xlink:href="#DejaVuSans-2e" transform="translate(886.272786 0.765625)"/>
      <use xlink:href="#DejaVuSans-32" transform="translate(912.559896 0.765625)"/>
     </g>
    </g>
    <g id="line2d_70">
     <g>
      <use xlink:href="#m1bb8221196" x="490.981696" y="46.517969" style="fill: #2ca02c; fill-opacity: 0.7; stroke: #2ca02c; stroke-opacity: 0.7"/>
     </g>
    </g>
    <g id="text_9">
     <!-- S-only CFI, $\omega=0.2$ -->
     <g transform="translate(505.381696 49.317969) scale(0.08 -0.08)">
      <use xlink:href="#DejaVuSans-53" transform="translate(0 0.015625)"/>
      <use xlink:href="#DejaVuSans-2d" transform="translate(63.476562 0.015625)"/>
      <use xlink:href="#DejaVuSans-6f" transform="translate(99.560547 0.015625)"/>
      <use xlink:href="#DejaVuSans-6e" transform="translate(160.742188 0.015625)"/>
      <use xlink:href="#DejaVuSans-6c" transform="translate(224.121094 0.015625)"/>
      <use xlink:href="#DejaVuSans-79" transform="translate(251.904297 0.015625)"/>
      <use xlink:href="#DejaVuSans-20" transform="translate(311.083984 0.015625)"/>
      <use xlink:href="#DejaVuSans-43" transform="translate(342.871094 0.015625)"/>
      <use xlink:href="#DejaVuSans-46" transform="translate(412.695312 0.015625)"/>
      <use xlink:href="#DejaVuSans-49" transform="translate(470.214844 0.015625)"/>
      <use xlink:href="#DejaVuSans-2c" transform="translate(499.707031 0.015625)"/>
      <use xlink:href="#DejaVuSans-20" transform="translate(531.494141 0.015625)"/>
      <use xlink:href="#DejaVuSans-Oblique-3c9" transform="translate(563.28125 0.015625)"/>
      <use xlink:href="#DejaVuSans-3d" transform="translate(666.503906 0.015625)"/>
      <use xlink:href="#DejaVuSans-30" transform="translate(769.775391 0.015625)"/>
      <use xlink:href="#DejaVuSans-2e" transform="translate(833.398438 0.015625)"/>
      <use xlink:href="#DejaVuSans-32" transform="translate(859.685547 0.015625)"/>
     </g>
    </g>
    <g id="line2d_71">
     <path d="M 482.981696 59.477969 
L 490.981696 59.477969 
L 498.981696 59.477969 
" style="fill: none; stroke: #8c564b; stroke-width: 1.5; stroke-linecap: square"/>
     <defs>
      <path id="m3cba13d382" d="M -3.5 3.5 
L 3.5 3.5 
L 3.5 -3.5 
L -3.5 -3.5 
z
" style="stroke: #8c564b; stroke-linejoin: miter"/>
     </defs>
     <g>
      <use xlink:href="#m3cba13d382" x="490.981696" y="59.477969" style="fill: #8c564b; stroke: #8c564b; stroke-linejoin: miter"/>
     </g>
    </g>
    <g id="text_10">
     <!-- Joint M($\psi^*$), $\omega=1.0$ -->
     <g transform="translate(505.381696 62.277969) scale(0.08 -0.08)">
      <use xlink:href="#DejaVuSans-4a" transform="translate(0 0.765625)"/>
      <use xlink:href="#DejaVuSans-6f" transform="translate(29.492188 0.765625)"/>
      <use xlink:href="#DejaVuSans-69" transform="translate(90.673828 0.765625)"/>
      <use xlink:href="#DejaVuSans-6e" transform="translate(118.457031 0.765625)"/>
      <use xlink:href="#DejaVuSans-74" transform="translate(181.835938 0.765625)"/>
      <use xlink:href="#DejaVuSans-20" transform="translate(221.044922 0.765625)"/>
      <use xlink:href="#DejaVuSans-4d" transform="translate(252.832031 0.765625)"/>
      <use xlink:href="#DejaVuSans-28" transform="translate(339.111328 0.765625)"/>
      <use xlink:href="#DejaVuSans-Oblique-3c8" transform="translate(378.125 0.765625)"/>
      <use xlink:href="#DejaVuSans-2a" transform="translate(462.195638 39.046875) scale(0.7)"/>
      <use xlink:href="#DejaVuSans-29" transform="translate(513.567708 0.765625)"/>
      <use xlink:href="#DejaVuSans-2c" transform="translate(552.58138 0.765625)"/>
      <use xlink:href="#DejaVuSans-20" transform="translate(584.36849 0.765625)"/>
      <use xlink:href="#DejaVuSans-Oblique-3c9" transform="translate(616.155599 0.765625)"/>
      <use xlink:href="#DejaVuSans-3d" transform="translate(719.378255 0.765625)"/>
      <use xlink:href="#DejaVuSans-31" transform="translate(822.64974 0.765625)"/>
      <use xlink:href="#DejaVuSans-2e" transform="translate(886.272786 0.765625)"/>
      <use xlink:href="#DejaVuSans-30" transform="translate(918.059896 0.765625)"/>
     </g>
    </g>
    <g id="line2d_72">
     <g>
      <use xlink:href="#m4b26946866" x="607.941696" y="34.757969" style="fill: #2ca02c; fill-opacity: 0.7; stroke: #2ca02c; stroke-opacity: 0.7; stroke-linejoin: miter"/>
     </g>
    </g>
    <g id="text_11">
     <!-- S-only CFI, $\omega=1.0$ -->
     <g transform="translate(622.341696 37.557969) scale(0.08 -0.08)">
      <use xlink:href="#DejaVuSans-53" transform="translate(0 0.015625)"/>
      <use xlink:href="#DejaVuSans-2d" transform="translate(63.476562 0.015625)"/>
      <use xlink:href="#DejaVuSans-6f" transform="translate(99.560547 0.015625)"/>
      <use xlink:href="#DejaVuSans-6e" transform="translate(160.742188 0.015625)"/>
      <use xlink:href="#DejaVuSans-6c" transform="translate(224.121094 0.015625)"/>
      <use xlink:href="#DejaVuSans-79" transform="translate(251.904297 0.015625)"/>
      <use xlink:href="#DejaVuSans-20" transform="translate(311.083984 0.015625)"/>
      <use xlink:href="#DejaVuSans-43" transform="translate(342.871094 0.015625)"/>
      <use xlink:href="#DejaVuSans-46" transform="translate(412.695312 0.015625)"/>
      <use xlink:href="#DejaVuSans-49" transform="translate(470.214844 0.015625)"/>
      <use xlink:href="#DejaVuSans-2c" transform="translate(499.707031 0.015625)"/>
      <use xlink:href="#DejaVuSans-20" transform="translate(531.494141 0.015625)"/>
      <use xlink:href="#DejaVuSans-Oblique-3c9" transform="translate(563.28125 0.015625)"/>
      <use xlink:href="#DejaVuSans-3d" transform="translate(666.503906 0.015625)"/>
      <use xlink:href="#DejaVuSans-31" transform="translate(769.775391 0.015625)"/>
      <use xlink:href="#DejaVuSans-2e" transform="translate(833.398438 0.015625)"/>
      <use xlink:href="#DejaVuSans-30" transform="translate(865.185547 0.015625)"/>
     </g>
    </g>
    <g id="line2d_73">
     <path d="M 599.941696 46.516719 
L 607.941696 46.516719 
L 615.941696 46.516719 
" style="fill: none; stroke-dasharray: 4.44,1.92; stroke-dashoffset: 0; stroke: #000000; stroke-opacity: 0.7; stroke-width: 1.2"/>
    </g>
    <g id="text_12">
     <!-- SQL -->
     <g transform="translate(622.341696 49.316719) scale(0.08 -0.08)">
      <defs>
       <path id="DejaVuSans-51" d="M 2522 4238 
Q 1834 4238 1429 3725 
Q 1025 3213 1025 2328 
Q 1025 1447 1429 934 
Q 1834 422 2522 422 
Q 3209 422 3611 934 
Q 4013 1447 4013 2328 
Q 4013 3213 3611 3725 
Q 3209 4238 2522 4238 
z
M 3406 84 
L 4238 -825 
L 3475 -825 
L 2784 -78 
Q 2681 -84 2626 -87 
Q 2572 -91 2522 -91 
Q 1538 -91 948 567 
Q 359 1225 359 2328 
Q 359 3434 948 4092 
Q 1538 4750 2522 4750 
Q 3503 4750 4090 4092 
Q 4678 3434 4678 2328 
Q 4678 1516 4351 937 
Q 4025 359 3406 84 
z
" transform="scale(0.015625)"/>
       <path id="DejaVuSans-4c" d="M 628 4666 
L 1259 4666 
L 1259 531 
L 3531 531 
L 3531 0 
L 628 0 
L 628 4666 
z
" transform="scale(0.015625)"/>
      </defs>
      <use xlink:href="#DejaVuSans-53"/>
      <use xlink:href="#DejaVuSans-51" transform="translate(63.476562 0)"/>
      <use xlink:href="#DejaVuSans-4c" transform="translate(142.1875 0)"/>
     </g>
    </g>
    <g id="line2d_74">
     <path d="M 599.941696 58.259219 
L 607.941696 58.259219 
L 615.941696 58.259219 
" style="fill: none; stroke-dasharray: 1,1.65; stroke-dashoffset: 0; stroke: #000000; stroke-opacity: 0.5"/>
    </g>
    <g id="text_13">
     <!-- HL -->
     <g transform="translate(622.341696 61.059219) scale(0.08 -0.08)">
      <defs>
       <path id="DejaVuSans-48" d="M 628 4666 
L 1259 4666 
L 1259 2753 
L 3553 2753 
L 3553 4666 
L 4184 4666 
L 4184 0 
L 3553 0 
L 3553 2222 
L 1259 2222 
L 1259 0 
L 628 0 
L 628 4666 
z
" transform="scale(0.015625)"/>
      </defs>
      <use xlink:href="#DejaVuSans-48"/>
      <use xlink:href="#DejaVuSans-4c" transform="translate(75.195312 0)"/>
     </g>
    </g>
   </g>
  </g>
 </g>
 <defs>
  <clipPath id="p21d813a7e1">
   <rect x="53.31375" y="23.077969" width="650.547946" height="356.968"/>
  </clipPath>
 </defs>
</svg>
