<?xml version="1.0" encoding="utf-8" standalone="no"?>
<!DOCTYPE svg PUBLIC "-//W3C//DTD SVG 1.1//EN"
  "http://www.w3.org/Graphics/SVG/1.1/DTD/svg11.dtd">
<svg xmlns:xlink="http://www.w3.org/1999/xlink" width="992.455452pt" height="350.075687pt" viewBox="0 0 992.455452 350.075687" xmlns="http://www.w3.org/2000/svg" version="1.1">
 <metadata>
  <rdf:RDF xmlns:dc="http://purl.org/dc/elements/1.1/" xmlns:cc="http://creativecommons.org/ns#" xmlns:rdf="http://www.w3.org/1999/02/22-rdf-syntax-ns#">
   <cc:Work>
    <dc:type rdf:resource="http://purl.org/dc/dcmitype/StillImage"/>
    <dc:date>2026-06-19T11:31:11.116888</dc:date>
    <dc:format>image/svg+xml</dc:format>
    <dc:creator>
     <cc:Agent>
      <dc:title>Matplotlib v3.10.9, https://matplotlib.org/</dc:title>
     </cc:Agent>
    </dc:creator>
   </cc:Work>
  </rdf:RDF>
 </metadata>
 <defs>
  <style type="text/css">*{stroke-linejoin: round; stroke-linecap: butt}</style>
 </defs>
 <g id="figure_1">
  <g id="patch_1">
   <path d="M 0 350.075687 
L 992.455452 350.075687 
L 992.455452 0 
L 0 0 
z
" style="fill: #ffffff"/>
  </g>
  <g id="axes_1">
   <g id="patch_2">
    <path d="M 60.83 307.116 
L 490.955465 307.116 
L 490.955465 55.68 
L 60.83 55.68 
z
" style="fill: #ffffff"/>
   </g>
   <g id="matplotlib.axis_1">
    <g id="xtick_1">
     <g id="line2d_1">
      <path d="M 80.381158 307.116 
L 80.381158 55.68 
" clip-path="url(#pa9a6fbff99)" style="fill: none; stroke: #cccccc; stroke-linecap: round"/>
     </g>
     <g id="text_1">
      <!-- $\mathdefault{10^{0}}$ -->
      <g style="fill: #262626" transform="translate(70.701158 324.974281) scale(0.11 -0.11)">
       <defs>
        <path id="DejaVuSans-31" d="M 794 531 
L 1825 531 
L 1825 4091 
L 703 3866 
L 703 4441 
L 1819 4666 
L 2450 4666 
L 2450 531 
L 3481 531 
L 3481 0 
L 794 0 
L 794 531 
z
" transform="scale(0.015625)"/>
        <path id="DejaVuSans-30" d="M 2034 4250 
Q 1547 4250 1301 3770 
Q 1056 3291 1056 2328 
Q 1056 1369 1301 889 
Q 1547 409 2034 409 
Q 2525 409 2770 889 
Q 3016 1369 3016 2328 
Q 3016 3291 2770 3770 
Q 2525 4250 2034 4250 
z
M 2034 4750 
Q 2819 4750 3233 4129 
Q 3647 3509 3647 2328 
Q 3647 1150 3233 529 
Q 2819 -91 2034 -91 
Q 1250 -91 836 529 
Q 422 1150 422 2328 
Q 422 3509 836 4129 
Q 1250 4750 2034 4750 
z
" transform="scale(0.015625)"/>
       </defs>
       <use xlink:href="#DejaVuSans-31" transform="translate(0 0.765625)"/>
       <use xlink:href="#DejaVuSans-30" transform="translate(63.623047 0.765625)"/>
       <use xlink:href="#DejaVuSans-30" transform="translate(128.203125 39.046875) scale(0.7)"/>
      </g>
     </g>
    </g>
    <g id="xtick_2">
     <g id="text_2">
      <!-- $\mathdefault{2\times10^{0}}$ -->
      <g style="fill: #262626" transform="translate(190.812208 322.874281) scale(0.11 -0.11)">
       <defs>
        <path id="DejaVuSans-32" d="M 1228 531 
L 3431 531 
L 3431 0 
L 469 0 
L 469 531 
Q 828 903 1448 1529 
Q 2069 2156 2228 2338 
Q 2531 2678 2651 2914 
Q 2772 3150 2772 3378 
Q 2772 3750 2511 3984 
Q 2250 4219 1831 4219 
Q 1534 4219 1204 4116 
Q 875 4013 500 3803 
L 500 4441 
Q 881 4594 1212 4672 
Q 1544 4750 1819 4750 
Q 2544 4750 2975 4387 
Q 3406 4025 3406 3419 
Q 3406 3131 3298 2873 
Q 3191 2616 2906 2266 
Q 2828 2175 2409 1742 
Q 1991 1309 1228 531 
z
" transform="scale(0.015625)"/>
        <path id="DejaVuSans-d7" d="M 4488 3438 
L 3059 2003 
L 4488 575 
L 4116 197 
L 2681 1631 
L 1247 197 
L 878 575 
L 2303 2003 
L 878 3438 
L 1247 3816 
L 2681 2381 
L 4116 3816 
L 4488 3438 
z
" transform="scale(0.015625)"/>
       </defs>
       <use xlink:href="#DejaVuSans-32" transform="translate(0 0.765625)"/>
       <use xlink:href="#DejaVuSans-d7" transform="translate(83.105469 0.765625)"/>
       <use xlink:href="#DejaVuSans-31" transform="translate(186.376953 0.765625)"/>
       <use xlink:href="#DejaVuSans-30" transform="translate(250 0.765625)"/>
       <use xlink:href="#DejaVuSans-30" transform="translate(314.580078 39.046875) scale(0.7)"/>
      </g>
     </g>
    </g>
    <g id="xtick_3">
     <g id="text_3">
      <!-- $\mathdefault{3\times10^{0}}$ -->
      <g style="fill: #262626" transform="translate(267.056834 322.874281) scale(0.11 -0.11)">
       <defs>
        <path id="DejaVuSans-33" d="M 2597 2516 
Q 3050 2419 3304 2112 
Q 3559 1806 3559 1356 
Q 3559 666 3084 287 
Q 2609 -91 1734 -91 
Q 1441 -91 1130 -33 
Q 819 25 488 141 
L 488 750 
Q 750 597 1062 519 
Q 1375 441 1716 441 
Q 2309 441 2620 675 
Q 2931 909 2931 1356 
Q 2931 1769 2642 2001 
Q 2353 2234 1838 2234 
L 1294 2234 
L 1294 2753 
L 1863 2753 
Q 2328 2753 2575 2939 
Q 2822 3125 2822 3475 
Q 2822 3834 2567 4026 
Q 2313 4219 1838 4219 
Q 1578 4219 1281 4162 
Q 984 4106 628 3988 
L 628 4550 
Q 988 4650 1302 4700 
Q 1616 4750 1894 4750 
Q 2613 4750 3031 4423 
Q 3450 4097 3450 3541 
Q 3450 3153 3228 2886 
Q 3006 2619 2597 2516 
z
" transform="scale(0.015625)"/>
       </defs>
       <use xlink:href="#DejaVuSans-33" transform="translate(0 0.765625)"/>
       <use xlink:href="#DejaVuSans-d7" transform="translate(83.105469 0.765625)"/>
       <use xlink:href="#DejaVuSans-31" transform="translate(186.376953 0.765625)"/>
       <use xlink:href="#DejaVuSans-30" transform="translate(250 0.765625)"/>
       <use xlink:href="#DejaVuSans-30" transform="translate(314.580078 39.046875) scale(0.7)"/>
      </g>
     </g>
    </g>
    <g id="xtick_4">
     <g id="text_4">
      <!-- $\mathdefault{4\times10^{0}}$ -->
      <g style="fill: #262626" transform="translate(321.153258 322.874281) scale(0.11 -0.11)">
       <defs>
        <path id="DejaVuSans-34" d="M 2419 4116 
L 825 1625 
L 2419 1625 
L 2419 4116 
z
M 2253 4666 
L 3047 4666 
L 3047 1625 
L 3713 1625 
L 3713 1100 
L 3047 1100 
L 3047 0 
L 2419 0 
L 2419 1100 
L 313 1100 
L 313 1709 
L 2253 4666 
z
" transform="scale(0.015625)"/>
       </defs>
       <use xlink:href="#DejaVuSans-34" transform="translate(0 0.765625)"/>
       <use xlink:href="#DejaVuSans-d7" transform="translate(83.105469 0.765625)"/>
       <use xlink:href="#DejaVuSans-31" transform="translate(186.376953 0.765625)"/>
       <use xlink:href="#DejaVuSans-30" transform="translate(250 0.765625)"/>
       <use xlink:href="#DejaVuSans-30" transform="translate(314.580078 39.046875) scale(0.7)"/>
      </g>
     </g>
    </g>
    <g id="xtick_5"/>
    <g id="xtick_6">
     <g id="text_5">
      <!-- $\mathdefault{6\times10^{0}}$ -->
      <g style="fill: #262626" transform="translate(397.397884 322.874281) scale(0.11 -0.11)">
       <defs>
        <path id="DejaVuSans-36" d="M 2113 2584 
Q 1688 2584 1439 2293 
Q 1191 2003 1191 1497 
Q 1191 994 1439 701 
Q 1688 409 2113 409 
Q 2538 409 2786 701 
Q 3034 994 3034 1497 
Q 3034 2003 2786 2293 
Q 2538 2584 2113 2584 
z
M 3366 4563 
L 3366 3988 
Q 3128 4100 2886 4159 
Q 2644 4219 2406 4219 
Q 1781 4219 1451 3797 
Q 1122 3375 1075 2522 
Q 1259 2794 1537 2939 
Q 1816 3084 2150 3084 
Q 2853 3084 3261 2657 
Q 3669 2231 3669 1497 
Q 3669 778 3244 343 
Q 2819 -91 2113 -91 
Q 1303 -91 875 529 
Q 447 1150 447 2328 
Q 447 3434 972 4092 
Q 1497 4750 2381 4750 
Q 2619 4750 2861 4703 
Q 3103 4656 3366 4563 
z
" transform="scale(0.015625)"/>
       </defs>
       <use xlink:href="#DejaVuSans-36" transform="translate(0 0.765625)"/>
       <use xlink:href="#DejaVuSans-d7" transform="translate(83.105469 0.765625)"/>
       <use xlink:href="#DejaVuSans-31" transform="translate(186.376953 0.765625)"/>
       <use xlink:href="#DejaVuSans-30" transform="translate(250 0.765625)"/>
       <use xlink:href="#DejaVuSans-30" transform="translate(314.580078 39.046875) scale(0.7)"/>
      </g>
     </g>
    </g>
    <g id="xtick_7"/>
    <g id="xtick_8"/>
    <g id="text_6">
     <!-- $N$ -->
     <g style="fill: #262626" transform="translate(271.392733 340.380062) scale(0.12 -0.12)">
      <defs>
       <path id="DejaVuSans-Oblique-4e" d="M 1081 4666 
L 1931 4666 
L 3219 666 
L 4000 4666 
L 4616 4666 
L 3706 0 
L 2853 0 
L 1569 4025 
L 788 0 
L 172 0 
L 1081 4666 
z
" transform="scale(0.015625)"/>
      </defs>
      <use xlink:href="#DejaVuSans-Oblique-4e" transform="translate(0 0.09375)"/>
     </g>
    </g>
   </g>
   <g id="matplotlib.axis_2">
    <g id="ytick_1">
     <g id="line2d_2">
      <path d="M 60.83 279.944928 
L 490.955465 279.944928 
" clip-path="url(#pa9a6fbff99)" style="fill: none; stroke: #cccccc; stroke-linecap: round"/>
     </g>
     <g id="text_7">
      <!-- $\mathdefault{10^{-1}}$ -->
      <g style="fill: #262626" transform="translate(25.48 284.124069) scale(0.11 -0.11)">
       <defs>
        <path id="DejaVuSans-2212" d="M 678 2272 
L 4684 2272 
L 4684 1741 
L 678 1741 
L 678 2272 
z
" transform="scale(0.015625)"/>
       </defs>
       <use xlink:href="#DejaVuSans-31" transform="translate(0 0.684375)"/>
       <use xlink:href="#DejaVuSans-30" transform="translate(63.623047 0.684375)"/>
       <use xlink:href="#DejaVuSans-2212" transform="translate(128.203125 38.965625) scale(0.7)"/>
       <use xlink:href="#DejaVuSans-31" transform="translate(186.855469 38.965625) scale(0.7)"/>
      </g>
     </g>
    </g>
    <g id="ytick_2">
     <g id="line2d_3">
      <path d="M 60.83 168.722262 
L 490.955465 168.722262 
" clip-path="url(#pa9a6fbff99)" style="fill: none; stroke: #cccccc; stroke-linecap: round"/>
     </g>
     <g id="text_8">
      <!-- $\mathdefault{10^{0}}$ -->
      <g style="fill: #262626" transform="translate(31.97 172.901402) scale(0.11 -0.11)">
       <use xlink:href="#DejaVuSans-31" transform="translate(0 0.765625)"/>
       <use xlink:href="#DejaVuSans-30" transform="translate(63.623047 0.765625)"/>
       <use xlink:href="#DejaVuSans-30" transform="translate(128.203125 39.046875) scale(0.7)"/>
      </g>
     </g>
    </g>
    <g id="ytick_3">
     <g id="line2d_4">
      <path d="M 60.83 57.499595 
L 490.955465 57.499595 
" clip-path="url(#pa9a6fbff99)" style="fill: none; stroke: #cccccc; stroke-linecap: round"/>
     </g>
     <g id="text_9">
      <!-- $\mathdefault{10^{1}}$ -->
      <g style="fill: #262626" transform="translate(31.97 61.678736) scale(0.11 -0.11)">
       <use xlink:href="#DejaVuSans-31" transform="translate(0 0.684375)"/>
       <use xlink:href="#DejaVuSans-30" transform="translate(63.623047 0.684375)"/>
       <use xlink:href="#DejaVuSans-31" transform="translate(128.203125 38.965625) scale(0.7)"/>
      </g>
     </g>
    </g>
    <g id="ytick_4"/>
    <g id="ytick_5"/>
    <g id="ytick_6"/>
    <g id="ytick_7"/>
    <g id="ytick_8"/>
    <g id="ytick_9"/>
    <g id="ytick_10"/>
    <g id="ytick_11"/>
    <g id="ytick_12"/>
    <g id="ytick_13"/>
    <g id="ytick_14"/>
    <g id="ytick_15"/>
    <g id="ytick_16"/>
    <g id="ytick_17"/>
    <g id="ytick_18"/>
    <g id="ytick_19"/>
    <g id="ytick_20"/>
    <g id="ytick_21"/>
    <g id="ytick_22"/>
    <g id="ytick_23"/>
    <g id="text_10">
     <!-- $\mathrm{Var}(J_z^S)$ -->
     <g style="fill: #262626" transform="translate(18.12 201.378) rotate(-90) scale(0.12 -0.12)">
      <defs>
       <path id="DejaVuSans-56" d="M 1831 0 
L 50 4666 
L 709 4666 
L 2188 738 
L 3669 4666 
L 4325 4666 
L 2547 0 
L 1831 0 
z
" transform="scale(0.015625)"/>
       <path id="DejaVuSans-61" d="M 2194 1759 
Q 1497 1759 1228 1600 
Q 959 1441 959 1056 
Q 959 750 1161 570 
Q 1363 391 1709 391 
Q 2188 391 2477 730 
Q 2766 1069 2766 1631 
L 2766 1759 
L 2194 1759 
z
M 3341 1997 
L 3341 0 
L 2766 0 
L 2766 531 
Q 2569 213 2275 61 
Q 1981 -91 1556 -91 
Q 1019 -91 701 211 
Q 384 513 384 1019 
Q 384 1609 779 1909 
Q 1175 2209 1959 2209 
L 2766 2209 
L 2766 2266 
Q 2766 2663 2505 2880 
Q 2244 3097 1772 3097 
Q 1472 3097 1187 3025 
Q 903 2953 641 2809 
L 641 3341 
Q 956 3463 1253 3523 
Q 1550 3584 1831 3584 
Q 2591 3584 2966 3190 
Q 3341 2797 3341 1997 
z
" transform="scale(0.015625)"/>
       <path id="DejaVuSans-72" d="M 2631 2963 
Q 2534 3019 2420 3045 
Q 2306 3072 2169 3072 
Q 1681 3072 1420 2755 
Q 1159 2438 1159 1844 
L 1159 0 
L 581 0 
L 581 3500 
L 1159 3500 
L 1159 2956 
Q 1341 3275 1631 3429 
Q 1922 3584 2338 3584 
Q 2397 3584 2469 3576 
Q 2541 3569 2628 3553 
L 2631 2963 
z
" transform="scale(0.015625)"/>
       <path id="DejaVuSans-28" d="M 1984 4856 
Q 1566 4138 1362 3434 
Q 1159 2731 1159 2009 
Q 1159 1288 1364 580 
Q 1569 -128 1984 -844 
L 1484 -844 
Q 1016 -109 783 600 
Q 550 1309 550 2009 
Q 550 2706 781 3412 
Q 1013 4119 1484 4856 
L 1984 4856 
z
" transform="scale(0.015625)"/>
       <path id="DejaVuSans-Oblique-4a" d="M 1069 4666 
L 1703 4666 
L 856 325 
Q 691 -522 298 -901 
Q -94 -1281 -800 -1281 
L -1050 -1281 
L -947 -750 
L -750 -750 
Q -328 -750 -109 -509 
Q 109 -269 225 325 
L 1069 4666 
z
" transform="scale(0.015625)"/>
       <path id="DejaVuSans-Oblique-53" d="M 3859 4513 
L 3738 3897 
Q 3422 4066 3111 4152 
Q 2800 4238 2509 4238 
Q 1944 4238 1609 3991 
Q 1275 3744 1275 3334 
Q 1275 3109 1398 2989 
Q 1522 2869 2034 2731 
L 2413 2638 
Q 3053 2472 3303 2217 
Q 3553 1963 3553 1503 
Q 3553 797 2998 353 
Q 2444 -91 1538 -91 
Q 1166 -91 791 -17 
Q 416 56 38 206 
L 166 856 
Q 513 641 861 531 
Q 1209 422 1556 422 
Q 2147 422 2503 684 
Q 2859 947 2859 1369 
Q 2859 1650 2717 1795 
Q 2575 1941 2106 2059 
L 1728 2156 
Q 1081 2325 845 2545 
Q 609 2766 609 3163 
Q 609 3859 1145 4304 
Q 1681 4750 2541 4750 
Q 2875 4750 3203 4690 
Q 3531 4631 3859 4513 
z
" transform="scale(0.015625)"/>
       <path id="DejaVuSans-Oblique-7a" d="M 744 3500 
L 3475 3500 
L 3372 2975 
L 738 459 
L 2913 459 
L 2822 0 
L -19 0 
L 84 525 
L 2719 3041 
L 653 3041 
L 744 3500 
z
" transform="scale(0.015625)"/>
       <path id="DejaVuSans-29" d="M 513 4856 
L 1013 4856 
Q 1481 4119 1714 3412 
Q 1947 2706 1947 2009 
Q 1947 1309 1714 600 
Q 1481 -109 1013 -844 
L 513 -844 
Q 928 -128 1133 580 
Q 1338 1288 1338 2009 
Q 1338 2731 1133 3434 
Q 928 4138 513 4856 
z
" transform="scale(0.015625)"/>
      </defs>
      <use xlink:href="#DejaVuSans-56" transform="translate(0 0.765625)"/>
      <use xlink:href="#DejaVuSans-61" transform="translate(68.408203 0.765625)"/>
      <use xlink:href="#DejaVuSans-72" transform="translate(129.6875 0.765625)"/>
      <use xlink:href="#DejaVuSans-28" transform="translate(170.800781 0.765625)"/>
      <use xlink:href="#DejaVuSans-Oblique-4a" transform="translate(209.814453 0.765625)"/>
      <use xlink:href="#DejaVuSans-Oblique-53" transform="translate(246.323411 39.046875) scale(0.7)"/>
      <use xlink:href="#DejaVuSans-Oblique-7a" transform="translate(239.306641 -26.578125) scale(0.7)"/>
      <use xlink:href="#DejaVuSans-29" transform="translate(293.49138 0.765625)"/>
     </g>
    </g>
   </g>
   <g id="line2d_5">
    <path d="M 80.381158 239.390608 
L 210.722208 228.05531 
L 286.966834 203.655573 
L 341.063258 160.010143 
L 383.023704 118.609504 
L 417.307884 148.11146 
L 446.294746 91.275888 
L 471.404308 133.593181 
" clip-path="url(#pa9a6fbff99)" style="fill: none; stroke: #414487; stroke-width: 1.5; stroke-linecap: round"/>
    <defs>
     <path id="m1b05aa280c" d="M 0 3 
C 0.795609 3 1.55874 2.683901 2.12132 2.12132 
C 2.683901 1.55874 3 0.795609 3 0 
C 3 -0.795609 2.683901 -1.55874 2.12132 -2.12132 
C 1.55874 -2.683901 0.795609 -3 0 -3 
C -0.795609 -3 -1.55874 -2.683901 -2.12132 -2.12132 
C -2.683901 -1.55874 -3 -0.795609 -3 0 
C -3 0.795609 -2.683901 1.55874 -2.12132 2.12132 
C -1.55874 2.683901 -0.795609 3 0 3 
z
" style="stroke: #414487"/>
    </defs>
    <g clip-path="url(#pa9a6fbff99)">
     <use xlink:href="#m1b05aa280c" x="80.381158" y="239.390608" style="fill: #414487; stroke: #414487"/>
     <use xlink:href="#m1b05aa280c" x="210.722208" y="228.05531" style="fill: #414487; stroke: #414487"/>
     <use xlink:href="#m1b05aa280c" x="286.966834" y="203.655573" style="fill: #414487; stroke: #414487"/>
     <use xlink:href="#m1b05aa280c" x="341.063258" y="160.010143" style="fill: #414487; stroke: #414487"/>
     <use xlink:href="#m1b05aa280c" x="383.023704" y="118.609504" style="fill: #414487; stroke: #414487"/>
     <use xlink:href="#m1b05aa280c" x="417.307884" y="148.11146" style="fill: #414487; stroke: #414487"/>
     <use xlink:href="#m1b05aa280c" x="446.294746" y="91.275888" style="fill: #414487; stroke: #414487"/>
     <use xlink:href="#m1b05aa280c" x="471.404308" y="133.593181" style="fill: #414487; stroke: #414487"/>
    </g>
   </g>
   <g id="line2d_6">
    <path d="M 80.381158 253.426116 
L 210.722208 230.242554 
L 286.966834 186.497986 
L 341.063258 160.408932 
L 383.023704 113.347096 
L 417.307884 131.729035 
L 446.294746 79.128561 
L 471.404308 67.108909 
" clip-path="url(#pa9a6fbff99)" style="fill: none; stroke: #2c728e; stroke-width: 1.5; stroke-linecap: round"/>
    <defs>
     <path id="m9a6ff09380" d="M 0 3 
C 0.795609 3 1.55874 2.683901 2.12132 2.12132 
C 2.683901 1.55874 3 0.795609 3 0 
C 3 -0.795609 2.683901 -1.55874 2.12132 -2.12132 
C 1.55874 -2.683901 0.795609 -3 0 -3 
C -0.795609 -3 -1.55874 -2.683901 -2.12132 -2.12132 
C -2.683901 -1.55874 -3 -0.795609 -3 0 
C -3 0.795609 -2.683901 1.55874 -2.12132 2.12132 
C -1.55874 2.683901 -0.795609 3 0 3 
z
" style="stroke: #2c728e"/>
    </defs>
    <g clip-path="url(#pa9a6fbff99)">
     <use xlink:href="#m9a6ff09380" x="80.381158" y="253.426116" style="fill: #2c728e; stroke: #2c728e"/>
     <use xlink:href="#m9a6ff09380" x="210.722208" y="230.242554" style="fill: #2c728e; stroke: #2c728e"/>
     <use xlink:href="#m9a6ff09380" x="286.966834" y="186.497986" style="fill: #2c728e; stroke: #2c728e"/>
     <use xlink:href="#m9a6ff09380" x="341.063258" y="160.408932" style="fill: #2c728e; stroke: #2c728e"/>
     <use xlink:href="#m9a6ff09380" x="383.023704" y="113.347096" style="fill: #2c728e; stroke: #2c728e"/>
     <use xlink:href="#m9a6ff09380" x="417.307884" y="131.729035" style="fill: #2c728e; stroke: #2c728e"/>
     <use xlink:href="#m9a6ff09380" x="446.294746" y="79.128561" style="fill: #2c728e; stroke: #2c728e"/>
     <use xlink:href="#m9a6ff09380" x="471.404308" y="67.108909" style="fill: #2c728e; stroke: #2c728e"/>
    </g>
   </g>
   <g id="line2d_7">
    <path d="M 80.381158 244.862434 
L 210.722208 216.996718 
L 286.966834 176.266815 
L 341.063258 168.656035 
L 383.023704 136.108147 
L 417.307884 112.422686 
L 446.294746 80.338046 
L 471.404308 98.555564 
" clip-path="url(#pa9a6fbff99)" style="fill: none; stroke: #1e9c89; stroke-width: 1.5; stroke-linecap: round"/>
    <defs>
     <path id="me765144c92" d="M 0 3 
C 0.795609 3 1.55874 2.683901 2.12132 2.12132 
C 2.683901 1.55874 3 0.795609 3 0 
C 3 -0.795609 2.683901 -1.55874 2.12132 -2.12132 
C 1.55874 -2.683901 0.795609 -3 0 -3 
C -0.795609 -3 -1.55874 -2.683901 -2.12132 -2.12132 
C -2.683901 -1.55874 -3 -0.795609 -3 0 
C -3 0.795609 -2.683901 1.55874 -2.12132 2.12132 
C -1.55874 2.683901 -0.795609 3 0 3 
z
" style="stroke: #1e9c89"/>
    </defs>
    <g clip-path="url(#pa9a6fbff99)">
     <use xlink:href="#me765144c92" x="80.381158" y="244.862434" style="fill: #1e9c89; stroke: #1e9c89"/>
     <use xlink:href="#me765144c92" x="210.722208" y="216.996718" style="fill: #1e9c89; stroke: #1e9c89"/>
     <use xlink:href="#me765144c92" x="286.966834" y="176.266815" style="fill: #1e9c89; stroke: #1e9c89"/>
     <use xlink:href="#me765144c92" x="341.063258" y="168.656035" style="fill: #1e9c89; stroke: #1e9c89"/>
     <use xlink:href="#me765144c92" x="383.023704" y="136.108147" style="fill: #1e9c89; stroke: #1e9c89"/>
     <use xlink:href="#me765144c92" x="417.307884" y="112.422686" style="fill: #1e9c89; stroke: #1e9c89"/>
     <use xlink:href="#me765144c92" x="446.294746" y="80.338046" style="fill: #1e9c89; stroke: #1e9c89"/>
     <use xlink:href="#me765144c92" x="471.404308" y="98.555564" style="fill: #1e9c89; stroke: #1e9c89"/>
    </g>
   </g>
   <g id="line2d_8">
    <path d="M 80.381158 295.687091 
L 210.722208 273.332538 
L 286.966834 177.4029 
L 341.063258 182.384461 
L 383.023704 133.524132 
L 417.307884 111.587969 
L 446.294746 97.003104 
L 471.404308 84.892905 
" clip-path="url(#pa9a6fbff99)" style="fill: none; stroke: #50c46a; stroke-width: 1.5; stroke-linecap: round"/>
    <defs>
     <path id="m4a259c8d69" d="M 0 3 
C 0.795609 3 1.55874 2.683901 2.12132 2.12132 
C 2.683901 1.55874 3 0.795609 3 0 
C 3 -0.795609 2.683901 -1.55874 2.12132 -2.12132 
C 1.55874 -2.683901 0.795609 -3 0 -3 
C -0.795609 -3 -1.55874 -2.683901 -2.12132 -2.12132 
C -2.683901 -1.55874 -3 -0.795609 -3 0 
C -3 0.795609 -2.683901 1.55874 -2.12132 2.12132 
C -1.55874 2.683901 -0.795609 3 0 3 
z
" style="stroke: #50c46a"/>
    </defs>
    <g clip-path="url(#pa9a6fbff99)">
     <use xlink:href="#m4a259c8d69" x="80.381158" y="295.687091" style="fill: #50c46a; stroke: #50c46a"/>
     <use xlink:href="#m4a259c8d69" x="210.722208" y="273.332538" style="fill: #50c46a; stroke: #50c46a"/>
     <use xlink:href="#m4a259c8d69" x="286.966834" y="177.4029" style="fill: #50c46a; stroke: #50c46a"/>
     <use xlink:href="#m4a259c8d69" x="341.063258" y="182.384461" style="fill: #50c46a; stroke: #50c46a"/>
     <use xlink:href="#m4a259c8d69" x="383.023704" y="133.524132" style="fill: #50c46a; stroke: #50c46a"/>
     <use xlink:href="#m4a259c8d69" x="417.307884" y="111.587969" style="fill: #50c46a; stroke: #50c46a"/>
     <use xlink:href="#m4a259c8d69" x="446.294746" y="97.003104" style="fill: #50c46a; stroke: #50c46a"/>
     <use xlink:href="#m4a259c8d69" x="471.404308" y="84.892905" style="fill: #50c46a; stroke: #50c46a"/>
    </g>
   </g>
   <g id="line2d_9">
    <path d="M 80.381158 244.822605 
L 210.722208 214.136922 
L 286.966834 195.659549 
L 341.063258 173.028435 
L 383.023704 130.393822 
L 417.307884 103.243825 
L 446.294746 99.536461 
L 471.404308 85.749157 
" clip-path="url(#pa9a6fbff99)" style="fill: none; stroke: #bddf26; stroke-width: 1.5; stroke-linecap: round"/>
    <defs>
     <path id="m652d7ce4be" d="M 0 3 
C 0.795609 3 1.55874 2.683901 2.12132 2.12132 
C 2.683901 1.55874 3 0.795609 3 0 
C 3 -0.795609 2.683901 -1.55874 2.12132 -2.12132 
C 1.55874 -2.683901 0.795609 -3 0 -3 
C -0.795609 -3 -1.55874 -2.683901 -2.12132 -2.12132 
C -2.683901 -1.55874 -3 -0.795609 -3 0 
C -3 0.795609 -2.683901 1.55874 -2.12132 2.12132 
C -1.55874 2.683901 -0.795609 3 0 3 
z
" style="stroke: #bddf26"/>
    </defs>
    <g clip-path="url(#pa9a6fbff99)">
     <use xlink:href="#m652d7ce4be" x="80.381158" y="244.822605" style="fill: #bddf26; stroke: #bddf26"/>
     <use xlink:href="#m652d7ce4be" x="210.722208" y="214.136922" style="fill: #bddf26; stroke: #bddf26"/>
     <use xlink:href="#m652d7ce4be" x="286.966834" y="195.659549" style="fill: #bddf26; stroke: #bddf26"/>
     <use xlink:href="#m652d7ce4be" x="341.063258" y="173.028435" style="fill: #bddf26; stroke: #bddf26"/>
     <use xlink:href="#m652d7ce4be" x="383.023704" y="130.393822" style="fill: #bddf26; stroke: #bddf26"/>
     <use xlink:href="#m652d7ce4be" x="417.307884" y="103.243825" style="fill: #bddf26; stroke: #bddf26"/>
     <use xlink:href="#m652d7ce4be" x="446.294746" y="99.536461" style="fill: #bddf26; stroke: #bddf26"/>
     <use xlink:href="#m652d7ce4be" x="471.404308" y="85.749157" style="fill: #bddf26; stroke: #bddf26"/>
    </g>
   </g>
   <g id="patch_3">
    <path d="M 60.83 307.116 
L 60.83 55.68 
" style="fill: none; stroke: #cccccc; stroke-width: 1.25; stroke-linejoin: miter; stroke-linecap: square"/>
   </g>
   <g id="patch_4">
    <path d="M 490.955465 307.116 
L 490.955465 55.68 
" style="fill: none; stroke: #cccccc; stroke-width: 1.25; stroke-linejoin: miter; stroke-linecap: square"/>
   </g>
   <g id="patch_5">
    <path d="M 60.83 307.116 
L 490.955465 307.116 
" style="fill: none; stroke: #cccccc; stroke-width: 1.25; stroke-linejoin: miter; stroke-linecap: square"/>
   </g>
   <g id="patch_6">
    <path d="M 60.83 55.68 
L 490.955465 55.68 
" style="fill: none; stroke: #cccccc; stroke-width: 1.25; stroke-linejoin: miter; stroke-linecap: square"/>
   </g>
   <g id="text_11">
    <!-- Measurement variance -->
    <g style="fill: #262626" transform="translate(206.965858 49.68) scale(0.12 -0.12)">
     <defs>
      <path id="DejaVuSans-4d" d="M 628 4666 
L 1569 4666 
L 2759 1491 
L 3956 4666 
L 4897 4666 
L 4897 0 
L 4281 0 
L 4281 4097 
L 3078 897 
L 2444 897 
L 1241 4097 
L 1241 0 
L 628 0 
L 628 4666 
z
" transform="scale(0.015625)"/>
      <path id="DejaVuSans-65" d="M 3597 1894 
L 3597 1613 
L 953 1613 
Q 991 1019 1311 708 
Q 1631 397 2203 397 
Q 2534 397 2845 478 
Q 3156 559 3463 722 
L 3463 178 
Q 3153 47 2828 -22 
Q 2503 -91 2169 -91 
Q 1331 -91 842 396 
Q 353 884 353 1716 
Q 353 2575 817 3079 
Q 1281 3584 2069 3584 
Q 2775 3584 3186 3129 
Q 3597 2675 3597 1894 
z
M 3022 2063 
Q 3016 2534 2758 2815 
Q 2500 3097 2075 3097 
Q 1594 3097 1305 2825 
Q 1016 2553 972 2059 
L 3022 2063 
z
" transform="scale(0.015625)"/>
      <path id="DejaVuSans-73" d="M 2834 3397 
L 2834 2853 
Q 2591 2978 2328 3040 
Q 2066 3103 1784 3103 
Q 1356 3103 1142 2972 
Q 928 2841 928 2578 
Q 928 2378 1081 2264 
Q 1234 2150 1697 2047 
L 1894 2003 
Q 2506 1872 2764 1633 
Q 3022 1394 3022 966 
Q 3022 478 2636 193 
Q 2250 -91 1575 -91 
Q 1294 -91 989 -36 
Q 684 19 347 128 
L 347 722 
Q 666 556 975 473 
Q 1284 391 1588 391 
Q 1994 391 2212 530 
Q 2431 669 2431 922 
Q 2431 1156 2273 1281 
Q 2116 1406 1581 1522 
L 1381 1569 
Q 847 1681 609 1914 
Q 372 2147 372 2553 
Q 372 3047 722 3315 
Q 1072 3584 1716 3584 
Q 2034 3584 2315 3537 
Q 2597 3491 2834 3397 
z
" transform="scale(0.015625)"/>
      <path id="DejaVuSans-75" d="M 544 1381 
L 544 3500 
L 1119 3500 
L 1119 1403 
Q 1119 906 1312 657 
Q 1506 409 1894 409 
Q 2359 409 2629 706 
Q 2900 1003 2900 1516 
L 2900 3500 
L 3475 3500 
L 3475 0 
L 2900 0 
L 2900 538 
Q 2691 219 2414 64 
Q 2138 -91 1772 -91 
Q 1169 -91 856 284 
Q 544 659 544 1381 
z
M 1991 3584 
L 1991 3584 
z
" transform="scale(0.015625)"/>
      <path id="DejaVuSans-6d" d="M 3328 2828 
Q 3544 3216 3844 3400 
Q 4144 3584 4550 3584 
Q 5097 3584 5394 3201 
Q 5691 2819 5691 2113 
L 5691 0 
L 5113 0 
L 5113 2094 
Q 5113 2597 4934 2840 
Q 4756 3084 4391 3084 
Q 3944 3084 3684 2787 
Q 3425 2491 3425 1978 
L 3425 0 
L 2847 0 
L 2847 2094 
Q 2847 2600 2669 2842 
Q 2491 3084 2119 3084 
Q 1678 3084 1418 2786 
Q 1159 2488 1159 1978 
L 1159 0 
L 581 0 
L 581 3500 
L 1159 3500 
L 1159 2956 
Q 1356 3278 1631 3431 
Q 1906 3584 2284 3584 
Q 2666 3584 2933 3390 
Q 3200 3197 3328 2828 
z
" transform="scale(0.015625)"/>
      <path id="DejaVuSans-6e" d="M 3513 2113 
L 3513 0 
L 2938 0 
L 2938 2094 
Q 2938 2591 2744 2837 
Q 2550 3084 2163 3084 
Q 1697 3084 1428 2787 
Q 1159 2491 1159 1978 
L 1159 0 
L 581 0 
L 581 3500 
L 1159 3500 
L 1159 2956 
Q 1366 3272 1645 3428 
Q 1925 3584 2291 3584 
Q 2894 3584 3203 3211 
Q 3513 2838 3513 2113 
z
" transform="scale(0.015625)"/>
      <path id="DejaVuSans-74" d="M 1172 4494 
L 1172 3500 
L 2356 3500 
L 2356 3053 
L 1172 3053 
L 1172 1153 
Q 1172 725 1289 603 
Q 1406 481 1766 481 
L 2356 481 
L 2356 0 
L 1766 0 
Q 1100 0 847 248 
Q 594 497 594 1153 
L 594 3053 
L 172 3053 
L 172 3500 
L 594 3500 
L 594 4494 
L 1172 4494 
z
" transform="scale(0.015625)"/>
      <path id="DejaVuSans-20" transform="scale(0.015625)"/>
      <path id="DejaVuSans-76" d="M 191 3500 
L 800 3500 
L 1894 563 
L 2988 3500 
L 3597 3500 
L 2284 0 
L 1503 0 
L 191 3500 
z
" transform="scale(0.015625)"/>
      <path id="DejaVuSans-69" d="M 603 3500 
L 1178 3500 
L 1178 0 
L 603 0 
L 603 3500 
z
M 603 4863 
L 1178 4863 
L 1178 4134 
L 603 4134 
L 603 4863 
z
" transform="scale(0.015625)"/>
      <path id="DejaVuSans-63" d="M 3122 3366 
L 3122 2828 
Q 2878 2963 2633 3030 
Q 2388 3097 2138 3097 
Q 1578 3097 1268 2742 
Q 959 2388 959 1747 
Q 959 1106 1268 751 
Q 1578 397 2138 397 
Q 2388 397 2633 464 
Q 2878 531 3122 666 
L 3122 134 
Q 2881 22 2623 -34 
Q 2366 -91 2075 -91 
Q 1284 -91 818 406 
Q 353 903 353 1747 
Q 353 2603 823 3093 
Q 1294 3584 2113 3584 
Q 2378 3584 2631 3529 
Q 2884 3475 3122 3366 
z
" transform="scale(0.015625)"/>
     </defs>
     <use xlink:href="#DejaVuSans-4d"/>
     <use xlink:href="#DejaVuSans-65" transform="translate(86.279297 0)"/>
     <use xlink:href="#DejaVuSans-61" transform="translate(147.802734 0)"/>
     <use xlink:href="#DejaVuSans-73" transform="translate(209.082031 0)"/>
     <use xlink:href="#DejaVuSans-75" transform="translate(261.181641 0)"/>
     <use xlink:href="#DejaVuSans-72" transform="translate(324.560547 0)"/>
     <use xlink:href="#DejaVuSans-65" transform="translate(363.423828 0)"/>
     <use xlink:href="#DejaVuSans-6d" transform="translate(424.947266 0)"/>
     <use xlink:href="#DejaVuSans-65" transform="translate(522.359375 0)"/>
     <use xlink:href="#DejaVuSans-6e" transform="translate(583.882812 0)"/>
     <use xlink:href="#DejaVuSans-74" transform="translate(647.261719 0)"/>
     <use xlink:href="#DejaVuSans-20" transform="translate(686.470703 0)"/>
     <use xlink:href="#DejaVuSans-76" transform="translate(718.257812 0)"/>
     <use xlink:href="#DejaVuSans-61" transform="translate(777.4375 0)"/>
     <use xlink:href="#DejaVuSans-72" transform="translate(838.716797 0)"/>
     <use xlink:href="#DejaVuSans-69" transform="translate(879.830078 0)"/>
     <use xlink:href="#DejaVuSans-61" transform="translate(907.613281 0)"/>
     <use xlink:href="#DejaVuSans-6e" transform="translate(968.892578 0)"/>
     <use xlink:href="#DejaVuSans-63" transform="translate(1032.271484 0)"/>
     <use xlink:href="#DejaVuSans-65" transform="translate(1087.251953 0)"/>
    </g>
   </g>
   <g id="legend_1">
    <g id="patch_7">
     <path d="M 66.43 120.7925 
L 121.31 120.7925 
Q 122.91 120.7925 122.91 119.1925 
L 122.91 61.28 
Q 122.91 59.68 121.31 59.68 
L 66.43 59.68 
Q 64.83 59.68 64.83 61.28 
L 64.83 119.1925 
Q 64.83 120.7925 66.43 120.7925 
z
" style="fill: #ffffff; opacity: 0.8; stroke: #cccccc; stroke-linejoin: miter"/>
    </g>
    <g id="line2d_10">
     <path d="M 68.03 66.15875 
L 76.03 66.15875 
L 84.03 66.15875 
" style="fill: none; stroke: #414487; stroke-width: 1.5; stroke-linecap: round"/>
     <g>
      <use xlink:href="#m1b05aa280c" x="76.03" y="66.15875" style="fill: #414487; stroke: #414487"/>
     </g>
    </g>
    <g id="text_12">
     <!-- $\omega=0.1$ -->
     <g style="fill: #262626" transform="translate(90.43 68.95875) scale(0.08 -0.08)">
      <defs>
       <path id="DejaVuSans-Oblique-3c9" d="M 1369 -91 
Q 72 -91 434 1766 
Q 575 2500 1256 3500 
L 1875 3500 
Q 1231 2500 1088 1750 
Q 819 397 1519 397 
Q 2166 397 2478 2078 
L 3009 2078 
Q 2669 388 3316 397 
Q 4013 403 4275 1750 
Q 4419 2500 4169 3500 
L 4788 3500 
Q 5075 2500 4934 1766 
Q 4578 -94 3278 -91 
Q 2428 -88 2503 844 
Q 2194 -91 1369 -91 
z
" transform="scale(0.015625)"/>
       <path id="DejaVuSans-3d" d="M 678 2906 
L 4684 2906 
L 4684 2381 
L 678 2381 
L 678 2906 
z
M 678 1631 
L 4684 1631 
L 4684 1100 
L 678 1100 
L 678 1631 
z
" transform="scale(0.015625)"/>
       <path id="DejaVuSans-2e" d="M 684 794 
L 1344 794 
L 1344 0 
L 684 0 
L 684 794 
z
" transform="scale(0.015625)"/>
      </defs>
      <use xlink:href="#DejaVuSans-Oblique-3c9" transform="translate(0 0.78125)"/>
      <use xlink:href="#DejaVuSans-3d" transform="translate(103.222656 0.78125)"/>
      <use xlink:href="#DejaVuSans-30" transform="translate(206.494141 0.78125)"/>
      <use xlink:href="#DejaVuSans-2e" transform="translate(270.117188 0.78125)"/>
      <use xlink:href="#DejaVuSans-31" transform="translate(301.904297 0.78125)"/>
     </g>
    </g>
    <g id="line2d_11">
     <path d="M 68.03 77.90125 
L 76.03 77.90125 
L 84.03 77.90125 
" style="fill: none; stroke: #2c728e; stroke-width: 1.5; stroke-linecap: round"/>
     <g>
      <use xlink:href="#m9a6ff09380" x="76.03" y="77.90125" style="fill: #2c728e; stroke: #2c728e"/>
     </g>
    </g>
    <g id="text_13">
     <!-- $\omega=0.2$ -->
     <g style="fill: #262626" transform="translate(90.43 80.70125) scale(0.08 -0.08)">
      <use xlink:href="#DejaVuSans-Oblique-3c9" transform="translate(0 0.78125)"/>
      <use xlink:href="#DejaVuSans-3d" transform="translate(103.222656 0.78125)"/>
      <use xlink:href="#DejaVuSans-30" transform="translate(206.494141 0.78125)"/>
      <use xlink:href="#DejaVuSans-2e" transform="translate(270.117188 0.78125)"/>
      <use xlink:href="#DejaVuSans-32" transform="translate(296.404297 0.78125)"/>
     </g>
    </g>
    <g id="line2d_12">
     <path d="M 68.03 89.64375 
L 76.03 89.64375 
L 84.03 89.64375 
" style="fill: none; stroke: #1e9c89; stroke-width: 1.5; stroke-linecap: round"/>
     <g>
      <use xlink:href="#me765144c92" x="76.03" y="89.64375" style="fill: #1e9c89; stroke: #1e9c89"/>
     </g>
    </g>
    <g id="text_14">
     <!-- $\omega=0.5$ -->
     <g style="fill: #262626" transform="translate(90.43 92.44375) scale(0.08 -0.08)">
      <defs>
       <path id="DejaVuSans-35" d="M 691 4666 
L 3169 4666 
L 3169 4134 
L 1269 4134 
L 1269 2991 
Q 1406 3038 1543 3061 
Q 1681 3084 1819 3084 
Q 2600 3084 3056 2656 
Q 3513 2228 3513 1497 
Q 3513 744 3044 326 
Q 2575 -91 1722 -91 
Q 1428 -91 1123 -41 
Q 819 9 494 109 
L 494 744 
Q 775 591 1075 516 
Q 1375 441 1709 441 
Q 2250 441 2565 725 
Q 2881 1009 2881 1497 
Q 2881 1984 2565 2268 
Q 2250 2553 1709 2553 
Q 1456 2553 1204 2497 
Q 953 2441 691 2322 
L 691 4666 
z
" transform="scale(0.015625)"/>
      </defs>
      <use xlink:href="#DejaVuSans-Oblique-3c9" transform="translate(0 0.78125)"/>
      <use xlink:href="#DejaVuSans-3d" transform="translate(103.222656 0.78125)"/>
      <use xlink:href="#DejaVuSans-30" transform="translate(206.494141 0.78125)"/>
      <use xlink:href="#DejaVuSans-2e" transform="translate(270.117188 0.78125)"/>
      <use xlink:href="#DejaVuSans-35" transform="translate(301.904297 0.78125)"/>
     </g>
    </g>
    <g id="line2d_13">
     <path d="M 68.03 101.38625 
L 76.03 101.38625 
L 84.03 101.38625 
" style="fill: none; stroke: #50c46a; stroke-width: 1.5; stroke-linecap: round"/>
     <g>
      <use xlink:href="#m4a259c8d69" x="76.03" y="101.38625" style="fill: #50c46a; stroke: #50c46a"/>
     </g>
    </g>
    <g id="text_15">
     <!-- $\omega=1.0$ -->
     <g style="fill: #262626" transform="translate(90.43 104.18625) scale(0.08 -0.08)">
      <use xlink:href="#DejaVuSans-Oblique-3c9" transform="translate(0 0.78125)"/>
      <use xlink:href="#DejaVuSans-3d" transform="translate(103.222656 0.78125)"/>
      <use xlink:href="#DejaVuSans-31" transform="translate(206.494141 0.78125)"/>
      <use xlink:href="#DejaVuSans-2e" transform="translate(270.117188 0.78125)"/>
      <use xlink:href="#DejaVuSans-30" transform="translate(301.904297 0.78125)"/>
     </g>
    </g>
    <g id="line2d_14">
     <path d="M 68.03 113.12875 
L 76.03 113.12875 
L 84.03 113.12875 
" style="fill: none; stroke: #bddf26; stroke-width: 1.5; stroke-linecap: round"/>
     <g>
      <use xlink:href="#m652d7ce4be" x="76.03" y="113.12875" style="fill: #bddf26; stroke: #bddf26"/>
     </g>
    </g>
    <g id="text_16">
     <!-- $\omega=2.0$ -->
     <g style="fill: #262626" transform="translate(90.43 115.92875) scale(0.08 -0.08)">
      <use xlink:href="#DejaVuSans-Oblique-3c9" transform="translate(0 0.78125)"/>
      <use xlink:href="#DejaVuSans-3d" transform="translate(103.222656 0.78125)"/>
      <use xlink:href="#DejaVuSans-32" transform="translate(206.494141 0.78125)"/>
      <use xlink:href="#DejaVuSans-2e" transform="translate(270.117188 0.78125)"/>
      <use xlink:href="#DejaVuSans-30" transform="translate(301.904297 0.78125)"/>
     </g>
    </g>
   </g>
  </g>
  <g id="axes_2">
   <g id="patch_8">
    <path d="M 555.129986 307.116 
L 985.255452 307.116 
L 985.255452 55.68 
L 555.129986 55.68 
z
" style="fill: #ffffff"/>
   </g>
   <g id="matplotlib.axis_3">
    <g id="xtick_9">
     <g id="line2d_15">
      <path d="M 574.681144 307.116 
L 574.681144 55.68 
" clip-path="url(#p477c1e96df)" style="fill: none; stroke: #cccccc; stroke-linecap: round"/>
     </g>
     <g id="text_17">
      <!-- $\mathdefault{10^{0}}$ -->
      <g style="fill: #262626" transform="translate(565.001144 324.974281) scale(0.11 -0.11)">
       <use xlink:href="#DejaVuSans-31" transform="translate(0 0.765625)"/>
       <use xlink:href="#DejaVuSans-30" transform="translate(63.623047 0.765625)"/>
       <use xlink:href="#DejaVuSans-30" transform="translate(128.203125 39.046875) scale(0.7)"/>
      </g>
     </g>
    </g>
    <g id="xtick_10">
     <g id="text_18">
      <!-- $\mathdefault{2\times10^{0}}$ -->
      <g style="fill: #262626" transform="translate(685.112194 322.874281) scale(0.11 -0.11)">
       <use xlink:href="#DejaVuSans-32" transform="translate(0 0.765625)"/>
       <use xlink:href="#DejaVuSans-d7" transform="translate(83.105469 0.765625)"/>
       <use xlink:href="#DejaVuSans-31" transform="translate(186.376953 0.765625)"/>
       <use xlink:href="#DejaVuSans-30" transform="translate(250 0.765625)"/>
       <use xlink:href="#DejaVuSans-30" transform="translate(314.580078 39.046875) scale(0.7)"/>
      </g>
     </g>
    </g>
    <g id="xtick_11">
     <g id="text_19">
      <!-- $\mathdefault{3\times10^{0}}$ -->
      <g style="fill: #262626" transform="translate(761.356821 322.874281) scale(0.11 -0.11)">
       <use xlink:href="#DejaVuSans-33" transform="translate(0 0.765625)"/>
       <use xlink:href="#DejaVuSans-d7" transform="translate(83.105469 0.765625)"/>
       <use xlink:href="#DejaVuSans-31" transform="translate(186.376953 0.765625)"/>
       <use xlink:href="#DejaVuSans-30" transform="translate(250 0.765625)"/>
       <use xlink:href="#DejaVuSans-30" transform="translate(314.580078 39.046875) scale(0.7)"/>
      </g>
     </g>
    </g>
    <g id="xtick_12">
     <g id="text_20">
      <!-- $\mathdefault{4\times10^{0}}$ -->
      <g style="fill: #262626" transform="translate(815.453244 322.874281) scale(0.11 -0.11)">
       <use xlink:href="#DejaVuSans-34" transform="translate(0 0.765625)"/>
       <use xlink:href="#DejaVuSans-d7" transform="translate(83.105469 0.765625)"/>
       <use xlink:href="#DejaVuSans-31" transform="translate(186.376953 0.765625)"/>
       <use xlink:href="#DejaVuSans-30" transform="translate(250 0.765625)"/>
       <use xlink:href="#DejaVuSans-30" transform="translate(314.580078 39.046875) scale(0.7)"/>
      </g>
     </g>
    </g>
    <g id="xtick_13"/>
    <g id="xtick_14">
     <g id="text_21">
      <!-- $\mathdefault{6\times10^{0}}$ -->
      <g style="fill: #262626" transform="translate(891.697871 322.874281) scale(0.11 -0.11)">
       <use xlink:href="#DejaVuSans-36" transform="translate(0 0.765625)"/>
       <use xlink:href="#DejaVuSans-d7" transform="translate(83.105469 0.765625)"/>
       <use xlink:href="#DejaVuSans-31" transform="translate(186.376953 0.765625)"/>
       <use xlink:href="#DejaVuSans-30" transform="translate(250 0.765625)"/>
       <use xlink:href="#DejaVuSans-30" transform="translate(314.580078 39.046875) scale(0.7)"/>
      </g>
     </g>
    </g>
    <g id="xtick_15"/>
    <g id="xtick_16"/>
    <g id="text_22">
     <!-- $N$ -->
     <g style="fill: #262626" transform="translate(765.692719 340.380062) scale(0.12 -0.12)">
      <use xlink:href="#DejaVuSans-Oblique-4e" transform="translate(0 0.09375)"/>
     </g>
    </g>
   </g>
   <g id="matplotlib.axis_4">
    <g id="ytick_24">
     <g id="line2d_16">
      <path d="M 555.129986 286.176343 
L 985.255452 286.176343 
" clip-path="url(#p477c1e96df)" style="fill: none; stroke: #cccccc; stroke-linecap: round"/>
     </g>
     <g id="text_23">
      <!-- $\mathdefault{10^{1}}$ -->
      <g style="fill: #262626" transform="translate(526.269986 290.355484) scale(0.11 -0.11)">
       <use xlink:href="#DejaVuSans-31" transform="translate(0 0.684375)"/>
       <use xlink:href="#DejaVuSans-30" transform="translate(63.623047 0.684375)"/>
       <use xlink:href="#DejaVuSans-31" transform="translate(128.203125 38.965625) scale(0.7)"/>
      </g>
     </g>
    </g>
    <g id="ytick_25">
     <g id="line2d_17">
      <path d="M 555.129986 145.407551 
L 985.255452 145.407551 
" clip-path="url(#p477c1e96df)" style="fill: none; stroke: #cccccc; stroke-linecap: round"/>
     </g>
     <g id="text_24">
      <!-- $\mathdefault{10^{2}}$ -->
      <g style="fill: #262626" transform="translate(526.269986 149.586692) scale(0.11 -0.11)">
       <use xlink:href="#DejaVuSans-31" transform="translate(0 0.765625)"/>
       <use xlink:href="#DejaVuSans-30" transform="translate(63.623047 0.765625)"/>
       <use xlink:href="#DejaVuSans-32" transform="translate(128.203125 39.046875) scale(0.7)"/>
      </g>
     </g>
    </g>
    <g id="ytick_26"/>
    <g id="ytick_27"/>
    <g id="ytick_28"/>
    <g id="ytick_29"/>
    <g id="ytick_30"/>
    <g id="ytick_31"/>
    <g id="ytick_32"/>
    <g id="ytick_33"/>
    <g id="ytick_34"/>
    <g id="ytick_35"/>
    <g id="ytick_36"/>
    <g id="ytick_37"/>
    <g id="ytick_38"/>
    <g id="text_25">
     <!-- $|\partial\langle J_z^S\rangle/\partial\omega|$ -->
     <g style="fill: #262626" transform="translate(518.909986 208.398) rotate(-90) scale(0.12 -0.12)">
      <defs>
       <path id="DejaVuSans-7c" d="M 1344 4891 
L 1344 -1509 
L 813 -1509 
L 813 4891 
L 1344 4891 
z
" transform="scale(0.015625)"/>
       <path id="DejaVuSans-2202" d="M 1366 -91 
Q 925 -91 638 175 
Q 297 491 297 1063 
Q 297 1656 597 2119 
Q 906 2594 1463 2594 
Q 1828 2594 2116 2366 
Q 2284 2231 2400 2006 
Q 2441 2259 2441 2547 
Q 2441 2969 2341 3213 
Q 2119 3753 1531 3753 
Q 1309 3753 966 3616 
L 966 4141 
Q 1328 4238 1653 4238 
Q 2491 4238 2847 3469 
Q 3013 3106 3013 2566 
Q 3013 2213 2934 1803 
Q 2738 778 2228 291 
Q 1828 -91 1366 -91 
z
M 831 969 
Q 831 656 969 488 
Q 1116 309 1341 309 
Q 1541 309 1700 450 
Q 1925 644 2091 959 
Q 2228 1219 2297 1497 
Q 2019 2169 1538 2169 
Q 1125 2169 944 1625 
Q 831 1288 831 969 
z
" transform="scale(0.015625)"/>
       <path id="DejaVuSans-27e8" d="M 572 2006 
L 1453 4856 
L 1984 4856 
L 1103 2006 
L 1984 -844 
L 1453 -844 
L 572 2006 
z
" transform="scale(0.015625)"/>
       <path id="DejaVuSans-27e9" d="M 1925 2006 
L 1044 -844 
L 513 -844 
L 1394 2006 
L 513 4856 
L 1044 4856 
L 1925 2006 
z
" transform="scale(0.015625)"/>
       <path id="DejaVuSans-2f" d="M 1625 4666 
L 2156 4666 
L 531 -594 
L 0 -594 
L 1625 4666 
z
" transform="scale(0.015625)"/>
      </defs>
      <use xlink:href="#DejaVuSans-7c" transform="translate(0 0.765625)"/>
      <use xlink:href="#DejaVuSans-2202" transform="translate(33.691406 0.765625)"/>
      <use xlink:href="#DejaVuSans-27e8" transform="translate(85.400391 0.765625)"/>
      <use xlink:href="#DejaVuSans-Oblique-4a" transform="translate(124.414062 0.765625)"/>
      <use xlink:href="#DejaVuSans-Oblique-53" transform="translate(160.923021 39.046875) scale(0.7)"/>
      <use xlink:href="#DejaVuSans-Oblique-7a" transform="translate(153.90625 -26.578125) scale(0.7)"/>
      <use xlink:href="#DejaVuSans-27e9" transform="translate(208.09099 0.765625)"/>
      <use xlink:href="#DejaVuSans-2f" transform="translate(247.104661 0.765625)"/>
      <use xlink:href="#DejaVuSans-2202" transform="translate(280.796068 0.765625)"/>
      <use xlink:href="#DejaVuSans-Oblique-3c9" transform="translate(332.505052 0.765625)"/>
      <use xlink:href="#DejaVuSans-7c" transform="translate(416.245286 0.765625)"/>
     </g>
    </g>
   </g>
   <g id="line2d_18">
    <path d="M 574.681144 235.246368 
L 705.022194 208.627119 
L 781.266821 177.98125 
L 835.363244 169.600599 
L 877.32369 107.407531 
L 911.607871 149.453343 
L 940.594732 86.534374 
L 965.704294 129.245489 
" clip-path="url(#p477c1e96df)" style="fill: none; stroke: #414487; stroke-width: 1.5; stroke-linecap: round"/>
    <g clip-path="url(#p477c1e96df)">
     <use xlink:href="#m1b05aa280c" x="574.681144" y="235.246368" style="fill: #414487; stroke: #414487"/>
     <use xlink:href="#m1b05aa280c" x="705.022194" y="208.627119" style="fill: #414487; stroke: #414487"/>
     <use xlink:href="#m1b05aa280c" x="781.266821" y="177.98125" style="fill: #414487; stroke: #414487"/>
     <use xlink:href="#m1b05aa280c" x="835.363244" y="169.600599" style="fill: #414487; stroke: #414487"/>
     <use xlink:href="#m1b05aa280c" x="877.32369" y="107.407531" style="fill: #414487; stroke: #414487"/>
     <use xlink:href="#m1b05aa280c" x="911.607871" y="149.453343" style="fill: #414487; stroke: #414487"/>
     <use xlink:href="#m1b05aa280c" x="940.594732" y="86.534374" style="fill: #414487; stroke: #414487"/>
     <use xlink:href="#m1b05aa280c" x="965.704294" y="129.245489" style="fill: #414487; stroke: #414487"/>
    </g>
   </g>
   <g id="line2d_19">
    <path d="M 574.681144 244.327326 
L 705.022194 216.719858 
L 781.266821 159.334384 
L 835.363244 145.861892 
L 877.32369 97.725781 
L 911.607871 110.999341 
L 940.594732 67.108909 
L 965.704294 77.452775 
" clip-path="url(#p477c1e96df)" style="fill: none; stroke: #2c728e; stroke-width: 1.5; stroke-linecap: round"/>
    <g clip-path="url(#p477c1e96df)">
     <use xlink:href="#m9a6ff09380" x="574.681144" y="244.327326" style="fill: #2c728e; stroke: #2c728e"/>
     <use xlink:href="#m9a6ff09380" x="705.022194" y="216.719858" style="fill: #2c728e; stroke: #2c728e"/>
     <use xlink:href="#m9a6ff09380" x="781.266821" y="159.334384" style="fill: #2c728e; stroke: #2c728e"/>
     <use xlink:href="#m9a6ff09380" x="835.363244" y="145.861892" style="fill: #2c728e; stroke: #2c728e"/>
     <use xlink:href="#m9a6ff09380" x="877.32369" y="97.725781" style="fill: #2c728e; stroke: #2c728e"/>
     <use xlink:href="#m9a6ff09380" x="911.607871" y="110.999341" style="fill: #2c728e; stroke: #2c728e"/>
     <use xlink:href="#m9a6ff09380" x="940.594732" y="67.108909" style="fill: #2c728e; stroke: #2c728e"/>
     <use xlink:href="#m9a6ff09380" x="965.704294" y="77.452775" style="fill: #2c728e; stroke: #2c728e"/>
    </g>
   </g>
   <g id="line2d_20">
    <path d="M 574.681144 250.022863 
L 705.022194 206.623762 
L 781.266821 178.260464 
L 835.363244 145.912441 
L 877.32369 130.126792 
L 911.607871 101.815301 
L 940.594732 103.968603 
L 965.704294 83.804027 
" clip-path="url(#p477c1e96df)" style="fill: none; stroke: #1e9c89; stroke-width: 1.5; stroke-linecap: round"/>
    <g clip-path="url(#p477c1e96df)">
     <use xlink:href="#me765144c92" x="574.681144" y="250.022863" style="fill: #1e9c89; stroke: #1e9c89"/>
     <use xlink:href="#me765144c92" x="705.022194" y="206.623762" style="fill: #1e9c89; stroke: #1e9c89"/>
     <use xlink:href="#me765144c92" x="781.266821" y="178.260464" style="fill: #1e9c89; stroke: #1e9c89"/>
     <use xlink:href="#me765144c92" x="835.363244" y="145.912441" style="fill: #1e9c89; stroke: #1e9c89"/>
     <use xlink:href="#me765144c92" x="877.32369" y="130.126792" style="fill: #1e9c89; stroke: #1e9c89"/>
     <use xlink:href="#me765144c92" x="911.607871" y="101.815301" style="fill: #1e9c89; stroke: #1e9c89"/>
     <use xlink:href="#me765144c92" x="940.594732" y="103.968603" style="fill: #1e9c89; stroke: #1e9c89"/>
     <use xlink:href="#me765144c92" x="965.704294" y="83.804027" style="fill: #1e9c89; stroke: #1e9c89"/>
    </g>
   </g>
   <g id="line2d_21">
    <path d="M 574.681144 295.687091 
L 705.022194 247.113739 
L 781.266821 184.74443 
L 835.363244 165.789172 
L 877.32369 137.972222 
L 911.607871 126.840253 
L 940.594732 111.662399 
L 965.704294 75.579023 
" clip-path="url(#p477c1e96df)" style="fill: none; stroke: #50c46a; stroke-width: 1.5; stroke-linecap: round"/>
    <g clip-path="url(#p477c1e96df)">
     <use xlink:href="#m4a259c8d69" x="574.681144" y="295.687091" style="fill: #50c46a; stroke: #50c46a"/>
     <use xlink:href="#m4a259c8d69" x="705.022194" y="247.113739" style="fill: #50c46a; stroke: #50c46a"/>
     <use xlink:href="#m4a259c8d69" x="781.266821" y="184.74443" style="fill: #50c46a; stroke: #50c46a"/>
     <use xlink:href="#m4a259c8d69" x="835.363244" y="165.789172" style="fill: #50c46a; stroke: #50c46a"/>
     <use xlink:href="#m4a259c8d69" x="877.32369" y="137.972222" style="fill: #50c46a; stroke: #50c46a"/>
     <use xlink:href="#m4a259c8d69" x="911.607871" y="126.840253" style="fill: #50c46a; stroke: #50c46a"/>
     <use xlink:href="#m4a259c8d69" x="940.594732" y="111.662399" style="fill: #50c46a; stroke: #50c46a"/>
     <use xlink:href="#m4a259c8d69" x="965.704294" y="75.579023" style="fill: #50c46a; stroke: #50c46a"/>
    </g>
   </g>
   <g id="line2d_22">
    <path d="M 574.681144 287.151696 
L 705.022194 234.788348 
L 781.266821 195.954411 
L 835.363244 164.898518 
L 877.32369 186.417245 
L 911.607871 161.217054 
L 940.594732 151.726927 
L 965.704294 125.526786 
" clip-path="url(#p477c1e96df)" style="fill: none; stroke: #bddf26; stroke-width: 1.5; stroke-linecap: round"/>
    <g clip-path="url(#p477c1e96df)">
     <use xlink:href="#m652d7ce4be" x="574.681144" y="287.151696" style="fill: #bddf26; stroke: #bddf26"/>
     <use xlink:href="#m652d7ce4be" x="705.022194" y="234.788348" style="fill: #bddf26; stroke: #bddf26"/>
     <use xlink:href="#m652d7ce4be" x="781.266821" y="195.954411" style="fill: #bddf26; stroke: #bddf26"/>
     <use xlink:href="#m652d7ce4be" x="835.363244" y="164.898518" style="fill: #bddf26; stroke: #bddf26"/>
     <use xlink:href="#m652d7ce4be" x="877.32369" y="186.417245" style="fill: #bddf26; stroke: #bddf26"/>
     <use xlink:href="#m652d7ce4be" x="911.607871" y="161.217054" style="fill: #bddf26; stroke: #bddf26"/>
     <use xlink:href="#m652d7ce4be" x="940.594732" y="151.726927" style="fill: #bddf26; stroke: #bddf26"/>
     <use xlink:href="#m652d7ce4be" x="965.704294" y="125.526786" style="fill: #bddf26; stroke: #bddf26"/>
    </g>
   </g>
   <g id="patch_9">
    <path d="M 555.129986 307.116 
L 555.129986 55.68 
" style="fill: none; stroke: #cccccc; stroke-width: 1.25; stroke-linejoin: miter; stroke-linecap: square"/>
   </g>
   <g id="patch_10">
    <path d="M 985.255452 307.116 
L 985.255452 55.68 
" style="fill: none; stroke: #cccccc; stroke-width: 1.25; stroke-linejoin: miter; stroke-linecap: square"/>
   </g>
   <g id="patch_11">
    <path d="M 555.129986 307.116 
L 985.255452 307.116 
" style="fill: none; stroke: #cccccc; stroke-width: 1.25; stroke-linejoin: miter; stroke-linecap: square"/>
   </g>
   <g id="patch_12">
    <path d="M 555.129986 55.68 
L 985.255452 55.68 
" style="fill: none; stroke: #cccccc; stroke-width: 1.25; stroke-linejoin: miter; stroke-linecap: square"/>
   </g>
   <g id="text_26">
    <!-- Signal derivative -->
    <g style="fill: #262626" transform="translate(719.729906 49.68) scale(0.12 -0.12)">
     <defs>
      <path id="DejaVuSans-53" d="M 3425 4513 
L 3425 3897 
Q 3066 4069 2747 4153 
Q 2428 4238 2131 4238 
Q 1616 4238 1336 4038 
Q 1056 3838 1056 3469 
Q 1056 3159 1242 3001 
Q 1428 2844 1947 2747 
L 2328 2669 
Q 3034 2534 3370 2195 
Q 3706 1856 3706 1288 
Q 3706 609 3251 259 
Q 2797 -91 1919 -91 
Q 1588 -91 1214 -16 
Q 841 59 441 206 
L 441 856 
Q 825 641 1194 531 
Q 1563 422 1919 422 
Q 2459 422 2753 634 
Q 3047 847 3047 1241 
Q 3047 1584 2836 1778 
Q 2625 1972 2144 2069 
L 1759 2144 
Q 1053 2284 737 2584 
Q 422 2884 422 3419 
Q 422 4038 858 4394 
Q 1294 4750 2059 4750 
Q 2388 4750 2728 4690 
Q 3069 4631 3425 4513 
z
" transform="scale(0.015625)"/>
      <path id="DejaVuSans-67" d="M 2906 1791 
Q 2906 2416 2648 2759 
Q 2391 3103 1925 3103 
Q 1463 3103 1205 2759 
Q 947 2416 947 1791 
Q 947 1169 1205 825 
Q 1463 481 1925 481 
Q 2391 481 2648 825 
Q 2906 1169 2906 1791 
z
M 3481 434 
Q 3481 -459 3084 -895 
Q 2688 -1331 1869 -1331 
Q 1566 -1331 1297 -1286 
Q 1028 -1241 775 -1147 
L 775 -588 
Q 1028 -725 1275 -790 
Q 1522 -856 1778 -856 
Q 2344 -856 2625 -561 
Q 2906 -266 2906 331 
L 2906 616 
Q 2728 306 2450 153 
Q 2172 0 1784 0 
Q 1141 0 747 490 
Q 353 981 353 1791 
Q 353 2603 747 3093 
Q 1141 3584 1784 3584 
Q 2172 3584 2450 3431 
Q 2728 3278 2906 2969 
L 2906 3500 
L 3481 3500 
L 3481 434 
z
" transform="scale(0.015625)"/>
      <path id="DejaVuSans-6c" d="M 603 4863 
L 1178 4863 
L 1178 0 
L 603 0 
L 603 4863 
z
" transform="scale(0.015625)"/>
      <path id="DejaVuSans-64" d="M 2906 2969 
L 2906 4863 
L 3481 4863 
L 3481 0 
L 2906 0 
L 2906 525 
Q 2725 213 2448 61 
Q 2172 -91 1784 -91 
Q 1150 -91 751 415 
Q 353 922 353 1747 
Q 353 2572 751 3078 
Q 1150 3584 1784 3584 
Q 2172 3584 2448 3432 
Q 2725 3281 2906 2969 
z
M 947 1747 
Q 947 1113 1208 752 
Q 1469 391 1925 391 
Q 2381 391 2643 752 
Q 2906 1113 2906 1747 
Q 2906 2381 2643 2742 
Q 2381 3103 1925 3103 
Q 1469 3103 1208 2742 
Q 947 2381 947 1747 
z
" transform="scale(0.015625)"/>
     </defs>
     <use xlink:href="#DejaVuSans-53"/>
     <use xlink:href="#DejaVuSans-69" transform="translate(63.476562 0)"/>
     <use xlink:href="#DejaVuSans-67" transform="translate(91.259766 0)"/>
     <use xlink:href="#DejaVuSans-6e" transform="translate(154.736328 0)"/>
     <use xlink:href="#DejaVuSans-61" transform="translate(218.115234 0)"/>
     <use xlink:href="#DejaVuSans-6c" transform="translate(279.394531 0)"/>
     <use xlink:href="#DejaVuSans-20" transform="translate(307.177734 0)"/>
     <use xlink:href="#DejaVuSans-64" transform="translate(338.964844 0)"/>
     <use xlink:href="#DejaVuSans-65" transform="translate(402.441406 0)"/>
     <use xlink:href="#DejaVuSans-72" transform="translate(463.964844 0)"/>
     <use xlink:href="#DejaVuSans-69" transform="translate(505.078125 0)"/>
     <use xlink:href="#DejaVuSans-76" transform="translate(532.861328 0)"/>
     <use xlink:href="#DejaVuSans-61" transform="translate(592.041016 0)"/>
     <use xlink:href="#DejaVuSans-74" transform="translate(653.320312 0)"/>
     <use xlink:href="#DejaVuSans-69" transform="translate(692.529297 0)"/>
     <use xlink:href="#DejaVuSans-76" transform="translate(720.3125 0)"/>
     <use xlink:href="#DejaVuSans-65" transform="translate(779.492188 0)"/>
    </g>
   </g>
   <g id="legend_2">
    <g id="patch_13">
     <path d="M 560.729986 73.8225 
L 615.609986 73.8225 
Q 617.209986 73.8225 617.209986 72.2225 
L 617.209986 61.28 
Q 617.209986 59.68 615.609986 59.68 
L 560.729986 59.68 
Q 559.129986 59.68 559.129986 61.28 
L 559.129986 72.2225 
Q 559.129986 73.8225 560.729986 73.8225 
z
" style="fill: #ffffff; opacity: 0.8; stroke: #cccccc; stroke-linejoin: miter"/>
    </g>
    <g id="line2d_23">
     <path d="M 562.329986 66.15875 
L 570.329986 66.15875 
L 578.329986 66.15875 
" style="fill: none; stroke: #414487; stroke-width: 1.5; stroke-linecap: round"/>
     <g>
      <use xlink:href="#m1b05aa280c" x="570.329986" y="66.15875" style="fill: #414487; stroke: #414487"/>
     </g>
    </g>
    <g id="text_27">
     <!-- $\omega=0.1$ -->
     <g style="fill: #262626" transform="translate(584.729986 68.95875) scale(0.08 -0.08)">
      <use xlink:href="#DejaVuSans-Oblique-3c9" transform="translate(0 0.78125)"/>
      <use xlink:href="#DejaVuSans-3d" transform="translate(103.222656 0.78125)"/>
      <use xlink:href="#DejaVuSans-30" transform="translate(206.494141 0.78125)"/>
      <use xlink:href="#DejaVuSans-2e" transform="translate(270.117188 0.78125)"/>
      <use xlink:href="#DejaVuSans-31" transform="translate(301.904297 0.78125)"/>
     </g>
    </g>
   </g>
  </g>
  <g id="text_28">
   <!-- Variance and derivative scaling (diagnostic) -->
   <g style="fill: #262626" transform="translate(336.332952 18.14175) scale(0.144 -0.144)">
    <defs>
     <path id="DejaVuSans-6f" d="M 1959 3097 
Q 1497 3097 1228 2736 
Q 959 2375 959 1747 
Q 959 1119 1226 758 
Q 1494 397 1959 397 
Q 2419 397 2687 759 
Q 2956 1122 2956 1747 
Q 2956 2369 2687 2733 
Q 2419 3097 1959 3097 
z
M 1959 3584 
Q 2709 3584 3137 3096 
Q 3566 2609 3566 1747 
Q 3566 888 3137 398 
Q 2709 -91 1959 -91 
Q 1206 -91 779 398 
Q 353 888 353 1747 
Q 353 2609 779 3096 
Q 1206 3584 1959 3584 
z
" transform="scale(0.015625)"/>
    </defs>
    <use xlink:href="#DejaVuSans-56"/>
    <use xlink:href="#DejaVuSans-61" transform="translate(60.658203 0)"/>
    <use xlink:href="#DejaVuSans-72" transform="translate(121.9375 0)"/>
    <use xlink:href="#DejaVuSans-69" transform="translate(163.050781 0)"/>
    <use xlink:href="#DejaVuSans-61" transform="translate(190.833984 0)"/>
    <use xlink:href="#DejaVuSans-6e" transform="translate(252.113281 0)"/>
    <use xlink:href="#DejaVuSans-63" transform="translate(315.492188 0)"/>
    <use xlink:href="#DejaVuSans-65" transform="translate(370.472656 0)"/>
    <use xlink:href="#DejaVuSans-20" transform="translate(431.996094 0)"/>
    <use xlink:href="#DejaVuSans-61" transform="translate(463.783203 0)"/>
    <use xlink:href="#DejaVuSans-6e" transform="translate(525.0625 0)"/>
    <use xlink:href="#DejaVuSans-64" transform="translate(588.441406 0)"/>
    <use xlink:href="#DejaVuSans-20" transform="translate(651.917969 0)"/>
    <use xlink:href="#DejaVuSans-64" transform="translate(683.705078 0)"/>
    <use xlink:href="#DejaVuSans-65" transform="translate(747.181641 0)"/>
    <use xlink:href="#DejaVuSans-72" transform="translate(808.705078 0)"/>
    <use xlink:href="#DejaVuSans-69" transform="translate(849.818359 0)"/>
    <use xlink:href="#DejaVuSans-76" transform="translate(877.601562 0)"/>
    <use xlink:href="#DejaVuSans-61" transform="translate(936.78125 0)"/>
    <use xlink:href="#DejaVuSans-74" transform="translate(998.060547 0)"/>
    <use xlink:href="#DejaVuSans-69" transform="translate(1037.269531 0)"/>
    <use xlink:href="#DejaVuSans-76" transform="translate(1065.052734 0)"/>
    <use xlink:href="#DejaVuSans-65" transform="translate(1124.232422 0)"/>
    <use xlink:href="#DejaVuSans-20" transform="translate(1185.755859 0)"/>
    <use xlink:href="#DejaVuSans-73" transform="translate(1217.542969 0)"/>
    <use xlink:href="#DejaVuSans-63" transform="translate(1269.642578 0)"/>
    <use xlink:href="#DejaVuSans-61" transform="translate(1324.623047 0)"/>
    <use xlink:href="#DejaVuSans-6c" transform="translate(1385.902344 0)"/>
    <use xlink:href="#DejaVuSans-69" transform="translate(1413.685547 0)"/>
    <use xlink:href="#DejaVuSans-6e" transform="translate(1441.46875 0)"/>
    <use xlink:href="#DejaVuSans-67" transform="translate(1504.847656 0)"/>
    <use xlink:href="#DejaVuSans-20" transform="translate(1568.324219 0)"/>
    <use xlink:href="#DejaVuSans-28" transform="translate(1600.111328 0)"/>
    <use xlink:href="#DejaVuSans-64" transform="translate(1639.125 0)"/>
    <use xlink:href="#DejaVuSans-69" transform="translate(1702.601562 0)"/>
    <use xlink:href="#DejaVuSans-61" transform="translate(1730.384766 0)"/>
    <use xlink:href="#DejaVuSans-67" transform="translate(1791.664062 0)"/>
    <use xlink:href="#DejaVuSans-6e" transform="translate(1855.140625 0)"/>
    <use xlink:href="#DejaVuSans-6f" transform="translate(1918.519531 0)"/>
    <use xlink:href="#DejaVuSans-73" transform="translate(1979.701172 0)"/>
    <use xlink:href="#DejaVuSans-74" transform="translate(2031.800781 0)"/>
    <use xlink:href="#DejaVuSans-69" transform="translate(2071.009766 0)"/>
    <use xlink:href="#DejaVuSans-63" transform="translate(2098.792969 0)"/>
    <use xlink:href="#DejaVuSans-29" transform="translate(2153.773438 0)"/>
   </g>
  </g>
 </g>
 <defs>
  <clipPath id="pa9a6fbff99">
   <rect x="60.83" y="55.68" width="430.125465" height="251.436"/>
  </clipPath>
  <clipPath id="p477c1e96df">
   <rect x="555.129986" y="55.68" width="430.125465" height="251.436"/>
  </clipPath>
 </defs>
</svg>
