<?xml version="1.0" encoding="utf-8" standalone="no"?>
<!DOCTYPE svg PUBLIC "-//W3C//DTD SVG 1.1//EN"
  "http://www.w3.org/Graphics/SVG/1.1/DTD/svg11.dtd">
<svg xmlns:xlink="http://www.w3.org/1999/xlink" width="702.995094pt" height="413.745437pt" viewBox="0 0 702.995094 413.745437" xmlns="http://www.w3.org/2000/svg" version="1.1">
 <metadata>
  <rdf:RDF xmlns:dc="http://purl.org/dc/elements/1.1/" xmlns:cc="http://creativecommons.org/ns#" xmlns:rdf="http://www.w3.org/1999/02/22-rdf-syntax-ns#">
   <cc:Work>
    <dc:type rdf:resource="http://purl.org/dc/dcmitype/StillImage"/>
    <dc:date>2026-05-23T19:23:34.374408</dc:date>
    <dc:format>image/svg+xml</dc:format>
    <dc:creator>
     <cc:Agent>
      <dc:title>Matplotlib v3.10.9, https://matplotlib.org/</dc:title>
     </cc:Agent>
    </dc:creator>
   </cc:Work>
  </rdf:RDF>
 </metadata>
 <defs>
  <style type="text/css">*{stroke-linejoin: round; stroke-linecap: butt}</style>
 </defs>
 <g id="figure_1">
  <g id="patch_1">
   <path d="M 0 413.745437 
L 702.995094 413.745437 
L 702.995094 0 
L 0 0 
z
" style="fill: #ffffff"/>
  </g>
  <g id="axes_1">
   <g id="patch_2">
    <path d="M 56.805937 370.78575 
L 643.119937 370.78575 
L 643.119937 35.90175 
L 56.805937 35.90175 
z
" style="fill: #ffffff"/>
   </g>
   <g id="matplotlib.axis_1">
    <g id="xtick_1">
     <g id="line2d_1">
      <path d="M 142.68021 370.78575 
L 142.68021 35.90175 
" clip-path="url(#p5b71e7ac44)" style="fill: none; stroke: #cccccc; stroke-linecap: round"/>
     </g>
     <g id="text_1">
      <!-- 1 -->
      <g style="fill: #262626" transform="translate(139.180835 388.644031) scale(0.11 -0.11)">
       <defs>
        <path id="DejaVuSans-31" d="M 794 531 
L 1825 531 
L 1825 4091 
L 703 3866 
L 703 4441 
L 1819 4666 
L 2450 4666 
L 2450 531 
L 3481 531 
L 3481 0 
L 794 0 
L 794 531 
z
" transform="scale(0.015625)"/>
       </defs>
       <use xlink:href="#DejaVuSans-31"/>
      </g>
     </g>
    </g>
    <g id="xtick_2">
     <g id="line2d_2">
      <path d="M 261.127483 370.78575 
L 261.127483 35.90175 
" clip-path="url(#p5b71e7ac44)" style="fill: none; stroke: #cccccc; stroke-linecap: round"/>
     </g>
     <g id="text_2">
      <!-- 2 -->
      <g style="fill: #262626" transform="translate(257.628108 388.644031) scale(0.11 -0.11)">
       <defs>
        <path id="DejaVuSans-32" d="M 1228 531 
L 3431 531 
L 3431 0 
L 469 0 
L 469 531 
Q 828 903 1448 1529 
Q 2069 2156 2228 2338 
Q 2531 2678 2651 2914 
Q 2772 3150 2772 3378 
Q 2772 3750 2511 3984 
Q 2250 4219 1831 4219 
Q 1534 4219 1204 4116 
Q 875 4013 500 3803 
L 500 4441 
Q 881 4594 1212 4672 
Q 1544 4750 1819 4750 
Q 2544 4750 2975 4387 
Q 3406 4025 3406 3419 
Q 3406 3131 3298 2873 
Q 3191 2616 2906 2266 
Q 2828 2175 2409 1742 
Q 1991 1309 1228 531 
z
" transform="scale(0.015625)"/>
       </defs>
       <use xlink:href="#DejaVuSans-32"/>
      </g>
     </g>
    </g>
    <g id="xtick_3">
     <g id="line2d_3">
      <path d="M 379.574756 370.78575 
L 379.574756 35.90175 
" clip-path="url(#p5b71e7ac44)" style="fill: none; stroke: #cccccc; stroke-linecap: round"/>
     </g>
     <g id="text_3">
      <!-- 3 -->
      <g style="fill: #262626" transform="translate(376.075381 388.644031) scale(0.11 -0.11)">
       <defs>
        <path id="DejaVuSans-33" d="M 2597 2516 
Q 3050 2419 3304 2112 
Q 3559 1806 3559 1356 
Q 3559 666 3084 287 
Q 2609 -91 1734 -91 
Q 1441 -91 1130 -33 
Q 819 25 488 141 
L 488 750 
Q 750 597 1062 519 
Q 1375 441 1716 441 
Q 2309 441 2620 675 
Q 2931 909 2931 1356 
Q 2931 1769 2642 2001 
Q 2353 2234 1838 2234 
L 1294 2234 
L 1294 2753 
L 1863 2753 
Q 2328 2753 2575 2939 
Q 2822 3125 2822 3475 
Q 2822 3834 2567 4026 
Q 2313 4219 1838 4219 
Q 1578 4219 1281 4162 
Q 984 4106 628 3988 
L 628 4550 
Q 988 4650 1302 4700 
Q 1616 4750 1894 4750 
Q 2613 4750 3031 4423 
Q 3450 4097 3450 3541 
Q 3450 3153 3228 2886 
Q 3006 2619 2597 2516 
z
" transform="scale(0.015625)"/>
       </defs>
       <use xlink:href="#DejaVuSans-33"/>
      </g>
     </g>
    </g>
    <g id="xtick_4">
     <g id="line2d_4">
      <path d="M 498.022028 370.78575 
L 498.022028 35.90175 
" clip-path="url(#p5b71e7ac44)" style="fill: none; stroke: #cccccc; stroke-linecap: round"/>
     </g>
     <g id="text_4">
      <!-- 4 -->
      <g style="fill: #262626" transform="translate(494.522653 388.644031) scale(0.11 -0.11)">
       <defs>
        <path id="DejaVuSans-34" d="M 2419 4116 
L 825 1625 
L 2419 1625 
L 2419 4116 
z
M 2253 4666 
L 3047 4666 
L 3047 1625 
L 3713 1625 
L 3713 1100 
L 3047 1100 
L 3047 0 
L 2419 0 
L 2419 1100 
L 313 1100 
L 313 1709 
L 2253 4666 
z
" transform="scale(0.015625)"/>
       </defs>
       <use xlink:href="#DejaVuSans-34"/>
      </g>
     </g>
    </g>
    <g id="xtick_5">
     <g id="line2d_5">
      <path d="M 616.469301 370.78575 
L 616.469301 35.90175 
" clip-path="url(#p5b71e7ac44)" style="fill: none; stroke: #cccccc; stroke-linecap: round"/>
     </g>
     <g id="text_5">
      <!-- 5 -->
      <g style="fill: #262626" transform="translate(612.969926 388.644031) scale(0.11 -0.11)">
       <defs>
        <path id="DejaVuSans-35" d="M 691 4666 
L 3169 4666 
L 3169 4134 
L 1269 4134 
L 1269 2991 
Q 1406 3038 1543 3061 
Q 1681 3084 1819 3084 
Q 2600 3084 3056 2656 
Q 3513 2228 3513 1497 
Q 3513 744 3044 326 
Q 2575 -91 1722 -91 
Q 1428 -91 1123 -41 
Q 819 9 494 109 
L 494 744 
Q 775 591 1075 516 
Q 1375 441 1709 441 
Q 2250 441 2565 725 
Q 2881 1009 2881 1497 
Q 2881 1984 2565 2268 
Q 2250 2553 1709 2553 
Q 1456 2553 1204 2497 
Q 953 2441 691 2322 
L 691 4666 
z
" transform="scale(0.015625)"/>
       </defs>
       <use xlink:href="#DejaVuSans-35"/>
      </g>
     </g>
    </g>
    <g id="text_6">
     <!-- $\theta$ -->
     <g style="fill: #262626" transform="translate(346.242937 404.049812) scale(0.12 -0.12)">
      <defs>
       <path id="DejaVuSans-Oblique-3b8" d="M 2913 2219 
L 925 2219 
Q 791 1284 928 888 
Q 1100 400 1566 400 
Q 2034 400 2391 891 
Q 2703 1322 2913 2219 
z
M 3009 2750 
Q 3094 3638 2984 3950 
Q 2813 4444 2353 4444 
Q 1875 4444 1525 3956 
Q 1250 3563 1034 2750 
L 3009 2750 
z
M 2444 4913 
Q 3194 4913 3494 4250 
Q 3794 3591 3566 2422 
Q 3341 1256 2781 594 
Q 2225 -72 1475 -72 
Q 722 -72 425 594 
Q 128 1256 353 2422 
Q 581 3591 1134 4250 
Q 1691 4913 2444 4913 
z
" transform="scale(0.015625)"/>
      </defs>
      <use xlink:href="#DejaVuSans-Oblique-3b8" transform="translate(0 0.234375)"/>
     </g>
    </g>
   </g>
   <g id="matplotlib.axis_2">
    <g id="ytick_1">
     <g id="line2d_6">
      <path d="M 56.805937 305.931141 
L 643.119937 305.931141 
" clip-path="url(#p5b71e7ac44)" style="fill: none; stroke: #cccccc; stroke-linecap: round"/>
     </g>
     <g id="line2d_7">
      <defs>
       <path id="md95886122e" d="M 0 0 
L -6 0 
" style="stroke: #262626; stroke-width: 1.25"/>
      </defs>
      <g>
       <use xlink:href="#md95886122e" x="56.805937" y="305.931141" style="fill: #262626; stroke: #262626; stroke-width: 1.25"/>
      </g>
     </g>
     <g id="text_7">
      <!-- 0.06 -->
      <g style="fill: #262626" transform="translate(22.81375 310.110281) scale(0.11 -0.11)">
       <defs>
        <path id="DejaVuSans-30" d="M 2034 4250 
Q 1547 4250 1301 3770 
Q 1056 3291 1056 2328 
Q 1056 1369 1301 889 
Q 1547 409 2034 409 
Q 2525 409 2770 889 
Q 3016 1369 3016 2328 
Q 3016 3291 2770 3770 
Q 2525 4250 2034 4250 
z
M 2034 4750 
Q 2819 4750 3233 4129 
Q 3647 3509 3647 2328 
Q 3647 1150 3233 529 
Q 2819 -91 2034 -91 
Q 1250 -91 836 529 
Q 422 1150 422 2328 
Q 422 3509 836 4129 
Q 1250 4750 2034 4750 
z
" transform="scale(0.015625)"/>
        <path id="DejaVuSans-2e" d="M 684 794 
L 1344 794 
L 1344 0 
L 684 0 
L 684 794 
z
" transform="scale(0.015625)"/>
        <path id="DejaVuSans-36" d="M 2113 2584 
Q 1688 2584 1439 2293 
Q 1191 2003 1191 1497 
Q 1191 994 1439 701 
Q 1688 409 2113 409 
Q 2538 409 2786 701 
Q 3034 994 3034 1497 
Q 3034 2003 2786 2293 
Q 2538 2584 2113 2584 
z
M 3366 4563 
L 3366 3988 
Q 3128 4100 2886 4159 
Q 2644 4219 2406 4219 
Q 1781 4219 1451 3797 
Q 1122 3375 1075 2522 
Q 1259 2794 1537 2939 
Q 1816 3084 2150 3084 
Q 2853 3084 3261 2657 
Q 3669 2231 3669 1497 
Q 3669 778 3244 343 
Q 2819 -91 2113 -91 
Q 1303 -91 875 529 
Q 447 1150 447 2328 
Q 447 3434 972 4092 
Q 1497 4750 2381 4750 
Q 2619 4750 2861 4703 
Q 3103 4656 3366 4563 
z
" transform="scale(0.015625)"/>
       </defs>
       <use xlink:href="#DejaVuSans-30"/>
       <use xlink:href="#DejaVuSans-2e" transform="translate(63.623047 0)"/>
       <use xlink:href="#DejaVuSans-30" transform="translate(95.410156 0)"/>
       <use xlink:href="#DejaVuSans-36" transform="translate(159.033203 0)"/>
      </g>
     </g>
    </g>
    <g id="ytick_2">
     <g id="line2d_8">
      <path d="M 56.805937 240.961211 
L 643.119937 240.961211 
" clip-path="url(#p5b71e7ac44)" style="fill: none; stroke: #cccccc; stroke-linecap: round"/>
     </g>
     <g id="line2d_9">
      <g>
       <use xlink:href="#md95886122e" x="56.805937" y="240.961211" style="fill: #262626; stroke: #262626; stroke-width: 1.25"/>
      </g>
     </g>
     <g id="text_8">
      <!-- 0.08 -->
      <g style="fill: #262626" transform="translate(22.81375 245.140352) scale(0.11 -0.11)">
       <defs>
        <path id="DejaVuSans-38" d="M 2034 2216 
Q 1584 2216 1326 1975 
Q 1069 1734 1069 1313 
Q 1069 891 1326 650 
Q 1584 409 2034 409 
Q 2484 409 2743 651 
Q 3003 894 3003 1313 
Q 3003 1734 2745 1975 
Q 2488 2216 2034 2216 
z
M 1403 2484 
Q 997 2584 770 2862 
Q 544 3141 544 3541 
Q 544 4100 942 4425 
Q 1341 4750 2034 4750 
Q 2731 4750 3128 4425 
Q 3525 4100 3525 3541 
Q 3525 3141 3298 2862 
Q 3072 2584 2669 2484 
Q 3125 2378 3379 2068 
Q 3634 1759 3634 1313 
Q 3634 634 3220 271 
Q 2806 -91 2034 -91 
Q 1263 -91 848 271 
Q 434 634 434 1313 
Q 434 1759 690 2068 
Q 947 2378 1403 2484 
z
M 1172 3481 
Q 1172 3119 1398 2916 
Q 1625 2713 2034 2713 
Q 2441 2713 2670 2916 
Q 2900 3119 2900 3481 
Q 2900 3844 2670 4047 
Q 2441 4250 2034 4250 
Q 1625 4250 1398 4047 
Q 1172 3844 1172 3481 
z
" transform="scale(0.015625)"/>
       </defs>
       <use xlink:href="#DejaVuSans-30"/>
       <use xlink:href="#DejaVuSans-2e" transform="translate(63.623047 0)"/>
       <use xlink:href="#DejaVuSans-30" transform="translate(95.410156 0)"/>
       <use xlink:href="#DejaVuSans-38" transform="translate(159.033203 0)"/>
      </g>
     </g>
    </g>
    <g id="ytick_3">
     <g id="line2d_10">
      <path d="M 56.805937 175.991282 
L 643.119937 175.991282 
" clip-path="url(#p5b71e7ac44)" style="fill: none; stroke: #cccccc; stroke-linecap: round"/>
     </g>
     <g id="line2d_11">
      <g>
       <use xlink:href="#md95886122e" x="56.805937" y="175.991282" style="fill: #262626; stroke: #262626; stroke-width: 1.25"/>
      </g>
     </g>
     <g id="text_9">
      <!-- 0.10 -->
      <g style="fill: #262626" transform="translate(22.81375 180.170423) scale(0.11 -0.11)">
       <use xlink:href="#DejaVuSans-30"/>
       <use xlink:href="#DejaVuSans-2e" transform="translate(63.623047 0)"/>
       <use xlink:href="#DejaVuSans-31" transform="translate(95.410156 0)"/>
       <use xlink:href="#DejaVuSans-30" transform="translate(159.033203 0)"/>
      </g>
     </g>
    </g>
    <g id="ytick_4">
     <g id="line2d_12">
      <path d="M 56.805937 111.021353 
L 643.119937 111.021353 
" clip-path="url(#p5b71e7ac44)" style="fill: none; stroke: #cccccc; stroke-linecap: round"/>
     </g>
     <g id="line2d_13">
      <g>
       <use xlink:href="#md95886122e" x="56.805937" y="111.021353" style="fill: #262626; stroke: #262626; stroke-width: 1.25"/>
      </g>
     </g>
     <g id="text_10">
      <!-- 0.12 -->
      <g style="fill: #262626" transform="translate(22.81375 115.200493) scale(0.11 -0.11)">
       <use xlink:href="#DejaVuSans-30"/>
       <use xlink:href="#DejaVuSans-2e" transform="translate(63.623047 0)"/>
       <use xlink:href="#DejaVuSans-31" transform="translate(95.410156 0)"/>
       <use xlink:href="#DejaVuSans-32" transform="translate(159.033203 0)"/>
      </g>
     </g>
    </g>
    <g id="ytick_5">
     <g id="line2d_14">
      <path d="M 56.805937 46.051424 
L 643.119937 46.051424 
" clip-path="url(#p5b71e7ac44)" style="fill: none; stroke: #cccccc; stroke-linecap: round"/>
     </g>
     <g id="line2d_15">
      <g>
       <use xlink:href="#md95886122e" x="56.805937" y="46.051424" style="fill: #262626; stroke: #262626; stroke-width: 1.25"/>
      </g>
     </g>
     <g id="text_11">
      <!-- 0.14 -->
      <g style="fill: #262626" transform="translate(22.81375 50.230564) scale(0.11 -0.11)">
       <use xlink:href="#DejaVuSans-30"/>
       <use xlink:href="#DejaVuSans-2e" transform="translate(63.623047 0)"/>
       <use xlink:href="#DejaVuSans-31" transform="translate(95.410156 0)"/>
       <use xlink:href="#DejaVuSans-34" transform="translate(159.033203 0)"/>
      </g>
     </g>
    </g>
    <g id="text_12">
     <!-- $\Delta\theta$ -->
     <g style="fill: #262626" transform="translate(16.318125 211.14375) rotate(-90) scale(0.12 -0.12)">
      <defs>
       <path id="DejaVuSans-394" d="M 2188 4044 
L 906 525 
L 3472 525 
L 2188 4044 
z
M 50 0 
L 1831 4666 
L 2547 4666 
L 4325 0 
L 50 0 
z
" transform="scale(0.015625)"/>
      </defs>
      <use xlink:href="#DejaVuSans-394" transform="translate(0 0.234375)"/>
      <use xlink:href="#DejaVuSans-Oblique-3b8" transform="translate(68.408203 0.234375)"/>
     </g>
    </g>
   </g>
   <g id="line2d_16">
    <path d="M 56.805937 355.56375 
L 643.119937 355.56375 
" clip-path="url(#p5b71e7ac44)" style="fill: none; stroke-dasharray: 5.55,2.4; stroke-dashoffset: 0; stroke: #808080; stroke-opacity: 0.7; stroke-width: 1.5"/>
   </g>
   <g id="line2d_17">
    <path d="M 83.456574 202.21796 
L 142.68021 294.221485 
L 201.903847 51.12375 
L 261.127483 228.462369 
L 320.351119 208.413651 
L 379.574756 275.444649 
L 438.798392 197.821504 
L 498.022028 258.410489 
L 557.245665 241.483446 
L 616.469301 266.851914 
" clip-path="url(#p5b71e7ac44)" style="fill: none; stroke: #4c72b0; stroke-width: 1.8; stroke-linecap: round"/>
    <defs>
     <path id="mfdd1da0b9c" d="M 0 3.5 
C 0.928211 3.5 1.81853 3.131218 2.474874 2.474874 
C 3.131218 1.81853 3.5 0.928211 3.5 0 
C 3.5 -0.928211 3.131218 -1.81853 2.474874 -2.474874 
C 1.81853 -3.131218 0.928211 -3.5 0 -3.5 
C -0.928211 -3.5 -1.81853 -3.131218 -2.474874 -2.474874 
C -3.131218 -1.81853 -3.5 -0.928211 -3.5 0 
C -3.5 0.928211 -3.131218 1.81853 -2.474874 2.474874 
C -1.81853 3.131218 -0.928211 3.5 0 3.5 
z
" style="stroke: #4c72b0"/>
    </defs>
    <g clip-path="url(#p5b71e7ac44)">
     <use xlink:href="#mfdd1da0b9c" x="83.456574" y="202.21796" style="fill: #4c72b0; stroke: #4c72b0"/>
     <use xlink:href="#mfdd1da0b9c" x="142.68021" y="294.221485" style="fill: #4c72b0; stroke: #4c72b0"/>
     <use xlink:href="#mfdd1da0b9c" x="201.903847" y="51.12375" style="fill: #4c72b0; stroke: #4c72b0"/>
     <use xlink:href="#mfdd1da0b9c" x="261.127483" y="228.462369" style="fill: #4c72b0; stroke: #4c72b0"/>
     <use xlink:href="#mfdd1da0b9c" x="320.351119" y="208.413651" style="fill: #4c72b0; stroke: #4c72b0"/>
     <use xlink:href="#mfdd1da0b9c" x="379.574756" y="275.444649" style="fill: #4c72b0; stroke: #4c72b0"/>
     <use xlink:href="#mfdd1da0b9c" x="438.798392" y="197.821504" style="fill: #4c72b0; stroke: #4c72b0"/>
     <use xlink:href="#mfdd1da0b9c" x="498.022028" y="258.410489" style="fill: #4c72b0; stroke: #4c72b0"/>
     <use xlink:href="#mfdd1da0b9c" x="557.245665" y="241.483446" style="fill: #4c72b0; stroke: #4c72b0"/>
     <use xlink:href="#mfdd1da0b9c" x="616.469301" y="266.851914" style="fill: #4c72b0; stroke: #4c72b0"/>
    </g>
   </g>
   <g id="patch_3">
    <path d="M 56.805937 370.78575 
L 56.805937 35.90175 
" style="fill: none; stroke: #cccccc; stroke-width: 1.25; stroke-linejoin: miter; stroke-linecap: square"/>
   </g>
   <g id="patch_4">
    <path d="M 643.119937 370.78575 
L 643.119937 35.90175 
" style="fill: none; stroke: #cccccc; stroke-width: 1.25; stroke-linejoin: miter; stroke-linecap: square"/>
   </g>
   <g id="patch_5">
    <path d="M 56.805937 370.78575 
L 643.119937 370.78575 
" style="fill: none; stroke: #cccccc; stroke-width: 1.25; stroke-linejoin: miter; stroke-linecap: square"/>
   </g>
   <g id="patch_6">
    <path d="M 56.805937 35.90175 
L 643.119937 35.90175 
" style="fill: none; stroke: #cccccc; stroke-width: 1.25; stroke-linejoin: miter; stroke-linecap: square"/>
   </g>
   <g id="patch_7">
    <path d="M 316.999839 235.470115 
Q 230.788281 264.526207 145.848098 293.153804 
" style="fill: none; stroke: #000000; stroke-width: 1.2; stroke-linecap: round"/>
    <path d="M 150.277365 293.771534 
L 145.848098 293.153804 
L 148.999842 289.981028 
" style="fill: none; stroke: #000000; stroke-width: 1.2; stroke-linecap: round"/>
   </g>
   <g id="text_13">
    <g id="patch_8">
     <path d="M 237.438028 234.331243 
L 449.838028 234.331243 
Q 452.838028 234.331243 452.838028 231.331243 
L 452.838028 221.653118 
Q 452.838028 218.653118 449.838028 218.653118 
L 237.438028 218.653118 
Q 234.438028 218.653118 234.438028 221.653118 
L 234.438028 231.331243 
Q 234.438028 234.331243 237.438028 234.331243 
z
" style="fill: #ffffff; stroke: #808080; stroke-linejoin: miter"/>
    </g>
    <!-- Best: $\Delta\theta$=0.06360 (1.422$\times$SQL) at $\theta$=1.00 -->
    <g style="fill: #262626" transform="translate(237.438028 229.251556) scale(0.1 -0.1)">
     <defs>
      <path id="DejaVuSans-42" d="M 1259 2228 
L 1259 519 
L 2272 519 
Q 2781 519 3026 730 
Q 3272 941 3272 1375 
Q 3272 1813 3026 2020 
Q 2781 2228 2272 2228 
L 1259 2228 
z
M 1259 4147 
L 1259 2741 
L 2194 2741 
Q 2656 2741 2882 2914 
Q 3109 3088 3109 3444 
Q 3109 3797 2882 3972 
Q 2656 4147 2194 4147 
L 1259 4147 
z
M 628 4666 
L 2241 4666 
Q 2963 4666 3353 4366 
Q 3744 4066 3744 3513 
Q 3744 3084 3544 2831 
Q 3344 2578 2956 2516 
Q 3422 2416 3680 2098 
Q 3938 1781 3938 1306 
Q 3938 681 3513 340 
Q 3088 0 2303 0 
L 628 0 
L 628 4666 
z
" transform="scale(0.015625)"/>
      <path id="DejaVuSans-65" d="M 3597 1894 
L 3597 1613 
L 953 1613 
Q 991 1019 1311 708 
Q 1631 397 2203 397 
Q 2534 397 2845 478 
Q 3156 559 3463 722 
L 3463 178 
Q 3153 47 2828 -22 
Q 2503 -91 2169 -91 
Q 1331 -91 842 396 
Q 353 884 353 1716 
Q 353 2575 817 3079 
Q 1281 3584 2069 3584 
Q 2775 3584 3186 3129 
Q 3597 2675 3597 1894 
z
M 3022 2063 
Q 3016 2534 2758 2815 
Q 2500 3097 2075 3097 
Q 1594 3097 1305 2825 
Q 1016 2553 972 2059 
L 3022 2063 
z
" transform="scale(0.015625)"/>
      <path id="DejaVuSans-73" d="M 2834 3397 
L 2834 2853 
Q 2591 2978 2328 3040 
Q 2066 3103 1784 3103 
Q 1356 3103 1142 2972 
Q 928 2841 928 2578 
Q 928 2378 1081 2264 
Q 1234 2150 1697 2047 
L 1894 2003 
Q 2506 1872 2764 1633 
Q 3022 1394 3022 966 
Q 3022 478 2636 193 
Q 2250 -91 1575 -91 
Q 1294 -91 989 -36 
Q 684 19 347 128 
L 347 722 
Q 666 556 975 473 
Q 1284 391 1588 391 
Q 1994 391 2212 530 
Q 2431 669 2431 922 
Q 2431 1156 2273 1281 
Q 2116 1406 1581 1522 
L 1381 1569 
Q 847 1681 609 1914 
Q 372 2147 372 2553 
Q 372 3047 722 3315 
Q 1072 3584 1716 3584 
Q 2034 3584 2315 3537 
Q 2597 3491 2834 3397 
z
" transform="scale(0.015625)"/>
      <path id="DejaVuSans-74" d="M 1172 4494 
L 1172 3500 
L 2356 3500 
L 2356 3053 
L 1172 3053 
L 1172 1153 
Q 1172 725 1289 603 
Q 1406 481 1766 481 
L 2356 481 
L 2356 0 
L 1766 0 
Q 1100 0 847 248 
Q 594 497 594 1153 
L 594 3053 
L 172 3053 
L 172 3500 
L 594 3500 
L 594 4494 
L 1172 4494 
z
" transform="scale(0.015625)"/>
      <path id="DejaVuSans-3a" d="M 750 794 
L 1409 794 
L 1409 0 
L 750 0 
L 750 794 
z
M 750 3309 
L 1409 3309 
L 1409 2516 
L 750 2516 
L 750 3309 
z
" transform="scale(0.015625)"/>
      <path id="DejaVuSans-20" transform="scale(0.015625)"/>
      <path id="DejaVuSans-3d" d="M 678 2906 
L 4684 2906 
L 4684 2381 
L 678 2381 
L 678 2906 
z
M 678 1631 
L 4684 1631 
L 4684 1100 
L 678 1100 
L 678 1631 
z
" transform="scale(0.015625)"/>
      <path id="DejaVuSans-28" d="M 1984 4856 
Q 1566 4138 1362 3434 
Q 1159 2731 1159 2009 
Q 1159 1288 1364 580 
Q 1569 -128 1984 -844 
L 1484 -844 
Q 1016 -109 783 600 
Q 550 1309 550 2009 
Q 550 2706 781 3412 
Q 1013 4119 1484 4856 
L 1984 4856 
z
" transform="scale(0.015625)"/>
      <path id="DejaVuSans-d7" d="M 4488 3438 
L 3059 2003 
L 4488 575 
L 4116 197 
L 2681 1631 
L 1247 197 
L 878 575 
L 2303 2003 
L 878 3438 
L 1247 3816 
L 2681 2381 
L 4116 3816 
L 4488 3438 
z
" transform="scale(0.015625)"/>
      <path id="DejaVuSans-53" d="M 3425 4513 
L 3425 3897 
Q 3066 4069 2747 4153 
Q 2428 4238 2131 4238 
Q 1616 4238 1336 4038 
Q 1056 3838 1056 3469 
Q 1056 3159 1242 3001 
Q 1428 2844 1947 2747 
L 2328 2669 
Q 3034 2534 3370 2195 
Q 3706 1856 3706 1288 
Q 3706 609 3251 259 
Q 2797 -91 1919 -91 
Q 1588 -91 1214 -16 
Q 841 59 441 206 
L 441 856 
Q 825 641 1194 531 
Q 1563 422 1919 422 
Q 2459 422 2753 634 
Q 3047 847 3047 1241 
Q 3047 1584 2836 1778 
Q 2625 1972 2144 2069 
L 1759 2144 
Q 1053 2284 737 2584 
Q 422 2884 422 3419 
Q 422 4038 858 4394 
Q 1294 4750 2059 4750 
Q 2388 4750 2728 4690 
Q 3069 4631 3425 4513 
z
" transform="scale(0.015625)"/>
      <path id="DejaVuSans-51" d="M 2522 4238 
Q 1834 4238 1429 3725 
Q 1025 3213 1025 2328 
Q 1025 1447 1429 934 
Q 1834 422 2522 422 
Q 3209 422 3611 934 
Q 4013 1447 4013 2328 
Q 4013 3213 3611 3725 
Q 3209 4238 2522 4238 
z
M 3406 84 
L 4238 -825 
L 3475 -825 
L 2784 -78 
Q 2681 -84 2626 -87 
Q 2572 -91 2522 -91 
Q 1538 -91 948 567 
Q 359 1225 359 2328 
Q 359 3434 948 4092 
Q 1538 4750 2522 4750 
Q 3503 4750 4090 4092 
Q 4678 3434 4678 2328 
Q 4678 1516 4351 937 
Q 4025 359 3406 84 
z
" transform="scale(0.015625)"/>
      <path id="DejaVuSans-4c" d="M 628 4666 
L 1259 4666 
L 1259 531 
L 3531 531 
L 3531 0 
L 628 0 
L 628 4666 
z
" transform="scale(0.015625)"/>
      <path id="DejaVuSans-29" d="M 513 4856 
L 1013 4856 
Q 1481 4119 1714 3412 
Q 1947 2706 1947 2009 
Q 1947 1309 1714 600 
Q 1481 -109 1013 -844 
L 513 -844 
Q 928 -128 1133 580 
Q 1338 1288 1338 2009 
Q 1338 2731 1133 3434 
Q 928 4138 513 4856 
z
" transform="scale(0.015625)"/>
      <path id="DejaVuSans-61" d="M 2194 1759 
Q 1497 1759 1228 1600 
Q 959 1441 959 1056 
Q 959 750 1161 570 
Q 1363 391 1709 391 
Q 2188 391 2477 730 
Q 2766 1069 2766 1631 
L 2766 1759 
L 2194 1759 
z
M 3341 1997 
L 3341 0 
L 2766 0 
L 2766 531 
Q 2569 213 2275 61 
Q 1981 -91 1556 -91 
Q 1019 -91 701 211 
Q 384 513 384 1019 
Q 384 1609 779 1909 
Q 1175 2209 1959 2209 
L 2766 2209 
L 2766 2266 
Q 2766 2663 2505 2880 
Q 2244 3097 1772 3097 
Q 1472 3097 1187 3025 
Q 903 2953 641 2809 
L 641 3341 
Q 956 3463 1253 3523 
Q 1550 3584 1831 3584 
Q 2591 3584 2966 3190 
Q 3341 2797 3341 1997 
z
" transform="scale(0.015625)"/>
     </defs>
     <use xlink:href="#DejaVuSans-42" transform="translate(0 0.234375)"/>
     <use xlink:href="#DejaVuSans-65" transform="translate(68.603516 0.234375)"/>
     <use xlink:href="#DejaVuSans-73" transform="translate(130.126953 0.234375)"/>
     <use xlink:href="#DejaVuSans-74" transform="translate(182.226562 0.234375)"/>
     <use xlink:href="#DejaVuSans-3a" transform="translate(221.435547 0.234375)"/>
     <use xlink:href="#DejaVuSans-20" transform="translate(255.126953 0.234375)"/>
     <use xlink:href="#DejaVuSans-394" transform="translate(286.914062 0.234375)"/>
     <use xlink:href="#DejaVuSans-Oblique-3b8" transform="translate(355.322266 0.234375)"/>
     <use xlink:href="#DejaVuSans-3d" transform="translate(416.503906 0.234375)"/>
     <use xlink:href="#DejaVuSans-30" transform="translate(500.292969 0.234375)"/>
     <use xlink:href="#DejaVuSans-2e" transform="translate(563.916016 0.234375)"/>
     <use xlink:href="#DejaVuSans-30" transform="translate(595.703125 0.234375)"/>
     <use xlink:href="#DejaVuSans-36" transform="translate(659.326172 0.234375)"/>
     <use xlink:href="#DejaVuSans-33" transform="translate(722.949219 0.234375)"/>
     <use xlink:href="#DejaVuSans-36" transform="translate(786.572266 0.234375)"/>
     <use xlink:href="#DejaVuSans-30" transform="translate(850.195312 0.234375)"/>
     <use xlink:href="#DejaVuSans-20" transform="translate(913.818359 0.234375)"/>
     <use xlink:href="#DejaVuSans-28" transform="translate(945.605469 0.234375)"/>
     <use xlink:href="#DejaVuSans-31" transform="translate(984.619141 0.234375)"/>
     <use xlink:href="#DejaVuSans-2e" transform="translate(1048.242188 0.234375)"/>
     <use xlink:href="#DejaVuSans-34" transform="translate(1080.029297 0.234375)"/>
     <use xlink:href="#DejaVuSans-32" transform="translate(1143.652344 0.234375)"/>
     <use xlink:href="#DejaVuSans-32" transform="translate(1207.275391 0.234375)"/>
     <use xlink:href="#DejaVuSans-d7" transform="translate(1270.898438 0.234375)"/>
     <use xlink:href="#DejaVuSans-53" transform="translate(1354.6875 0.234375)"/>
     <use xlink:href="#DejaVuSans-51" transform="translate(1418.164062 0.234375)"/>
     <use xlink:href="#DejaVuSans-4c" transform="translate(1496.875 0.234375)"/>
     <use xlink:href="#DejaVuSans-29" transform="translate(1552.587891 0.234375)"/>
     <use xlink:href="#DejaVuSans-20" transform="translate(1591.601562 0.234375)"/>
     <use xlink:href="#DejaVuSans-61" transform="translate(1623.388672 0.234375)"/>
     <use xlink:href="#DejaVuSans-74" transform="translate(1684.667969 0.234375)"/>
     <use xlink:href="#DejaVuSans-20" transform="translate(1723.876953 0.234375)"/>
     <use xlink:href="#DejaVuSans-Oblique-3b8" transform="translate(1755.664062 0.234375)"/>
     <use xlink:href="#DejaVuSans-3d" transform="translate(1816.845703 0.234375)"/>
     <use xlink:href="#DejaVuSans-31" transform="translate(1900.634766 0.234375)"/>
     <use xlink:href="#DejaVuSans-2e" transform="translate(1964.257812 0.234375)"/>
     <use xlink:href="#DejaVuSans-30" transform="translate(1996.044922 0.234375)"/>
     <use xlink:href="#DejaVuSans-30" transform="translate(2059.667969 0.234375)"/>
    </g>
   </g>
   <g id="text_14">
    <!-- 4-Parameter Sensitivity vs $\theta$ at $N=5$: -->
    <g style="fill: #262626" transform="translate(237.642937 16.44) scale(0.12 -0.12)">
     <defs>
      <path id="DejaVuSans-2d" d="M 313 2009 
L 1997 2009 
L 1997 1497 
L 313 1497 
L 313 2009 
z
" transform="scale(0.015625)"/>
      <path id="DejaVuSans-50" d="M 1259 4147 
L 1259 2394 
L 2053 2394 
Q 2494 2394 2734 2622 
Q 2975 2850 2975 3272 
Q 2975 3691 2734 3919 
Q 2494 4147 2053 4147 
L 1259 4147 
z
M 628 4666 
L 2053 4666 
Q 2838 4666 3239 4311 
Q 3641 3956 3641 3272 
Q 3641 2581 3239 2228 
Q 2838 1875 2053 1875 
L 1259 1875 
L 1259 0 
L 628 0 
L 628 4666 
z
" transform="scale(0.015625)"/>
      <path id="DejaVuSans-72" d="M 2631 2963 
Q 2534 3019 2420 3045 
Q 2306 3072 2169 3072 
Q 1681 3072 1420 2755 
Q 1159 2438 1159 1844 
L 1159 0 
L 581 0 
L 581 3500 
L 1159 3500 
L 1159 2956 
Q 1341 3275 1631 3429 
Q 1922 3584 2338 3584 
Q 2397 3584 2469 3576 
Q 2541 3569 2628 3553 
L 2631 2963 
z
" transform="scale(0.015625)"/>
      <path id="DejaVuSans-6d" d="M 3328 2828 
Q 3544 3216 3844 3400 
Q 4144 3584 4550 3584 
Q 5097 3584 5394 3201 
Q 5691 2819 5691 2113 
L 5691 0 
L 5113 0 
L 5113 2094 
Q 5113 2597 4934 2840 
Q 4756 3084 4391 3084 
Q 3944 3084 3684 2787 
Q 3425 2491 3425 1978 
L 3425 0 
L 2847 0 
L 2847 2094 
Q 2847 2600 2669 2842 
Q 2491 3084 2119 3084 
Q 1678 3084 1418 2786 
Q 1159 2488 1159 1978 
L 1159 0 
L 581 0 
L 581 3500 
L 1159 3500 
L 1159 2956 
Q 1356 3278 1631 3431 
Q 1906 3584 2284 3584 
Q 2666 3584 2933 3390 
Q 3200 3197 3328 2828 
z
" transform="scale(0.015625)"/>
      <path id="DejaVuSans-6e" d="M 3513 2113 
L 3513 0 
L 2938 0 
L 2938 2094 
Q 2938 2591 2744 2837 
Q 2550 3084 2163 3084 
Q 1697 3084 1428 2787 
Q 1159 2491 1159 1978 
L 1159 0 
L 581 0 
L 581 3500 
L 1159 3500 
L 1159 2956 
Q 1366 3272 1645 3428 
Q 1925 3584 2291 3584 
Q 2894 3584 3203 3211 
Q 3513 2838 3513 2113 
z
" transform="scale(0.015625)"/>
      <path id="DejaVuSans-69" d="M 603 3500 
L 1178 3500 
L 1178 0 
L 603 0 
L 603 3500 
z
M 603 4863 
L 1178 4863 
L 1178 4134 
L 603 4134 
L 603 4863 
z
" transform="scale(0.015625)"/>
      <path id="DejaVuSans-76" d="M 191 3500 
L 800 3500 
L 1894 563 
L 2988 3500 
L 3597 3500 
L 2284 0 
L 1503 0 
L 191 3500 
z
" transform="scale(0.015625)"/>
      <path id="DejaVuSans-79" d="M 2059 -325 
Q 1816 -950 1584 -1140 
Q 1353 -1331 966 -1331 
L 506 -1331 
L 506 -850 
L 844 -850 
Q 1081 -850 1212 -737 
Q 1344 -625 1503 -206 
L 1606 56 
L 191 3500 
L 800 3500 
L 1894 763 
L 2988 3500 
L 3597 3500 
L 2059 -325 
z
" transform="scale(0.015625)"/>
      <path id="DejaVuSans-Oblique-4e" d="M 1081 4666 
L 1931 4666 
L 3219 666 
L 4000 4666 
L 4616 4666 
L 3706 0 
L 2853 0 
L 1569 4025 
L 788 0 
L 172 0 
L 1081 4666 
z
" transform="scale(0.015625)"/>
     </defs>
     <use xlink:href="#DejaVuSans-34" transform="translate(0 0.234375)"/>
     <use xlink:href="#DejaVuSans-2d" transform="translate(63.623047 0.234375)"/>
     <use xlink:href="#DejaVuSans-50" transform="translate(99.707031 0.234375)"/>
     <use xlink:href="#DejaVuSans-61" transform="translate(160.009766 0.234375)"/>
     <use xlink:href="#DejaVuSans-72" transform="translate(221.289062 0.234375)"/>
     <use xlink:href="#DejaVuSans-61" transform="translate(262.402344 0.234375)"/>
     <use xlink:href="#DejaVuSans-6d" transform="translate(323.681641 0.234375)"/>
     <use xlink:href="#DejaVuSans-65" transform="translate(421.09375 0.234375)"/>
     <use xlink:href="#DejaVuSans-74" transform="translate(482.617188 0.234375)"/>
     <use xlink:href="#DejaVuSans-65" transform="translate(521.826172 0.234375)"/>
     <use xlink:href="#DejaVuSans-72" transform="translate(583.349609 0.234375)"/>
     <use xlink:href="#DejaVuSans-20" transform="translate(624.462891 0.234375)"/>
     <use xlink:href="#DejaVuSans-53" transform="translate(656.25 0.234375)"/>
     <use xlink:href="#DejaVuSans-65" transform="translate(719.726562 0.234375)"/>
     <use xlink:href="#DejaVuSans-6e" transform="translate(781.25 0.234375)"/>
     <use xlink:href="#DejaVuSans-73" transform="translate(844.628906 0.234375)"/>
     <use xlink:href="#DejaVuSans-69" transform="translate(896.728516 0.234375)"/>
     <use xlink:href="#DejaVuSans-74" transform="translate(924.511719 0.234375)"/>
     <use xlink:href="#DejaVuSans-69" transform="translate(963.720703 0.234375)"/>
     <use xlink:href="#DejaVuSans-76" transform="translate(991.503906 0.234375)"/>
     <use xlink:href="#DejaVuSans-69" transform="translate(1050.683594 0.234375)"/>
     <use xlink:href="#DejaVuSans-74" transform="translate(1078.466797 0.234375)"/>
     <use xlink:href="#DejaVuSans-79" transform="translate(1117.675781 0.234375)"/>
     <use xlink:href="#DejaVuSans-20" transform="translate(1176.855469 0.234375)"/>
     <use xlink:href="#DejaVuSans-76" transform="translate(1208.642578 0.234375)"/>
     <use xlink:href="#DejaVuSans-73" transform="translate(1267.822266 0.234375)"/>
     <use xlink:href="#DejaVuSans-20" transform="translate(1319.921875 0.234375)"/>
     <use xlink:href="#DejaVuSans-Oblique-3b8" transform="translate(1351.708984 0.234375)"/>
     <use xlink:href="#DejaVuSans-20" transform="translate(1412.890625 0.234375)"/>
     <use xlink:href="#DejaVuSans-61" transform="translate(1444.677734 0.234375)"/>
     <use xlink:href="#DejaVuSans-74" transform="translate(1505.957031 0.234375)"/>
     <use xlink:href="#DejaVuSans-20" transform="translate(1545.166016 0.234375)"/>
     <use xlink:href="#DejaVuSans-Oblique-4e" transform="translate(1576.953125 0.234375)"/>
     <use xlink:href="#DejaVuSans-3d" transform="translate(1671.240234 0.234375)"/>
     <use xlink:href="#DejaVuSans-35" transform="translate(1774.511719 0.234375)"/>
     <use xlink:href="#DejaVuSans-3a" transform="translate(1838.134766 0.234375)"/>
    </g>
    <!-- dual MZI -->
    <g style="fill: #262626" transform="translate(324.043875 29.90175) scale(0.12 -0.12)">
     <defs>
      <path id="DejaVuSans-64" d="M 2906 2969 
L 2906 4863 
L 3481 4863 
L 3481 0 
L 2906 0 
L 2906 525 
Q 2725 213 2448 61 
Q 2172 -91 1784 -91 
Q 1150 -91 751 415 
Q 353 922 353 1747 
Q 353 2572 751 3078 
Q 1150 3584 1784 3584 
Q 2172 3584 2448 3432 
Q 2725 3281 2906 2969 
z
M 947 1747 
Q 947 1113 1208 752 
Q 1469 391 1925 391 
Q 2381 391 2643 752 
Q 2906 1113 2906 1747 
Q 2906 2381 2643 2742 
Q 2381 3103 1925 3103 
Q 1469 3103 1208 2742 
Q 947 2381 947 1747 
z
" transform="scale(0.015625)"/>
      <path id="DejaVuSans-75" d="M 544 1381 
L 544 3500 
L 1119 3500 
L 1119 1403 
Q 1119 906 1312 657 
Q 1506 409 1894 409 
Q 2359 409 2629 706 
Q 2900 1003 2900 1516 
L 2900 3500 
L 3475 3500 
L 3475 0 
L 2900 0 
L 2900 538 
Q 2691 219 2414 64 
Q 2138 -91 1772 -91 
Q 1169 -91 856 284 
Q 544 659 544 1381 
z
M 1991 3584 
L 1991 3584 
z
" transform="scale(0.015625)"/>
      <path id="DejaVuSans-6c" d="M 603 4863 
L 1178 4863 
L 1178 0 
L 603 0 
L 603 4863 
z
" transform="scale(0.015625)"/>
      <path id="DejaVuSans-4d" d="M 628 4666 
L 1569 4666 
L 2759 1491 
L 3956 4666 
L 4897 4666 
L 4897 0 
L 4281 0 
L 4281 4097 
L 3078 897 
L 2444 897 
L 1241 4097 
L 1241 0 
L 628 0 
L 628 4666 
z
" transform="scale(0.015625)"/>
      <path id="DejaVuSans-5a" d="M 359 4666 
L 4025 4666 
L 4025 4184 
L 1075 531 
L 4097 531 
L 4097 0 
L 288 0 
L 288 481 
L 3238 4134 
L 359 4134 
L 359 4666 
z
" transform="scale(0.015625)"/>
      <path id="DejaVuSans-49" d="M 628 4666 
L 1259 4666 
L 1259 0 
L 628 0 
L 628 4666 
z
" transform="scale(0.015625)"/>
     </defs>
     <use xlink:href="#DejaVuSans-64"/>
     <use xlink:href="#DejaVuSans-75" transform="translate(63.476562 0)"/>
     <use xlink:href="#DejaVuSans-61" transform="translate(126.855469 0)"/>
     <use xlink:href="#DejaVuSans-6c" transform="translate(188.134766 0)"/>
     <use xlink:href="#DejaVuSans-20" transform="translate(215.917969 0)"/>
     <use xlink:href="#DejaVuSans-4d" transform="translate(247.705078 0)"/>
     <use xlink:href="#DejaVuSans-5a" transform="translate(333.984375 0)"/>
     <use xlink:href="#DejaVuSans-49" transform="translate(402.490234 0)"/>
    </g>
   </g>
  </g>
  <g id="axes_2">
   <g id="matplotlib.axis_3">
    <g id="ytick_6">
     <g id="line2d_18">
      <path d="M 56.805937 356.472123 
L 643.119937 356.472123 
" clip-path="url(#p5b71e7ac44)" style="fill: none; stroke: #cccccc; stroke-linecap: round"/>
     </g>
     <g id="line2d_19">
      <defs>
       <path id="m611fc0d034" d="M 0 0 
L 6 0 
" style="stroke: #262626; stroke-width: 1.25"/>
      </defs>
      <g>
       <use xlink:href="#m611fc0d034" x="643.119937" y="356.472123" style="fill: #262626; stroke: #262626; stroke-width: 1.25"/>
      </g>
     </g>
     <g id="text_15">
      <!-- −20 -->
      <g style="fill: #262626" transform="translate(652.619937 360.651263) scale(0.11 -0.11)">
       <defs>
        <path id="DejaVuSans-2212" d="M 678 2272 
L 4684 2272 
L 4684 1741 
L 678 1741 
L 678 2272 
z
" transform="scale(0.015625)"/>
       </defs>
       <use xlink:href="#DejaVuSans-2212"/>
       <use xlink:href="#DejaVuSans-32" transform="translate(83.789062 0)"/>
       <use xlink:href="#DejaVuSans-30" transform="translate(147.412109 0)"/>
      </g>
     </g>
    </g>
    <g id="ytick_7">
     <g id="line2d_20">
      <path d="M 56.805937 318.303569 
L 643.119937 318.303569 
" clip-path="url(#p5b71e7ac44)" style="fill: none; stroke: #cccccc; stroke-linecap: round"/>
     </g>
     <g id="line2d_21">
      <g>
       <use xlink:href="#m611fc0d034" x="643.119937" y="318.303569" style="fill: #262626; stroke: #262626; stroke-width: 1.25"/>
      </g>
     </g>
     <g id="text_16">
      <!-- −15 -->
      <g style="fill: #262626" transform="translate(652.619937 322.48271) scale(0.11 -0.11)">
       <use xlink:href="#DejaVuSans-2212"/>
       <use xlink:href="#DejaVuSans-31" transform="translate(83.789062 0)"/>
       <use xlink:href="#DejaVuSans-35" transform="translate(147.412109 0)"/>
      </g>
     </g>
    </g>
    <g id="ytick_8">
     <g id="line2d_22">
      <path d="M 56.805937 280.135015 
L 643.119937 280.135015 
" clip-path="url(#p5b71e7ac44)" style="fill: none; stroke: #cccccc; stroke-linecap: round"/>
     </g>
     <g id="line2d_23">
      <g>
       <use xlink:href="#m611fc0d034" x="643.119937" y="280.135015" style="fill: #262626; stroke: #262626; stroke-width: 1.25"/>
      </g>
     </g>
     <g id="text_17">
      <!-- −10 -->
      <g style="fill: #262626" transform="translate(652.619937 284.314156) scale(0.11 -0.11)">
       <use xlink:href="#DejaVuSans-2212"/>
       <use xlink:href="#DejaVuSans-31" transform="translate(83.789062 0)"/>
       <use xlink:href="#DejaVuSans-30" transform="translate(147.412109 0)"/>
      </g>
     </g>
    </g>
    <g id="ytick_9">
     <g id="line2d_24">
      <path d="M 56.805937 241.966462 
L 643.119937 241.966462 
" clip-path="url(#p5b71e7ac44)" style="fill: none; stroke: #cccccc; stroke-linecap: round"/>
     </g>
     <g id="line2d_25">
      <g>
       <use xlink:href="#m611fc0d034" x="643.119937" y="241.966462" style="fill: #262626; stroke: #262626; stroke-width: 1.25"/>
      </g>
     </g>
     <g id="text_18">
      <!-- −5 -->
      <g style="fill: #262626" transform="translate(652.619937 246.145602) scale(0.11 -0.11)">
       <use xlink:href="#DejaVuSans-2212"/>
       <use xlink:href="#DejaVuSans-35" transform="translate(83.789062 0)"/>
      </g>
     </g>
    </g>
    <g id="ytick_10">
     <g id="line2d_26">
      <path d="M 56.805937 203.797908 
L 643.119937 203.797908 
" clip-path="url(#p5b71e7ac44)" style="fill: none; stroke: #cccccc; stroke-linecap: round"/>
     </g>
     <g id="line2d_27">
      <g>
       <use xlink:href="#m611fc0d034" x="643.119937" y="203.797908" style="fill: #262626; stroke: #262626; stroke-width: 1.25"/>
      </g>
     </g>
     <g id="text_19">
      <!-- 0 -->
      <g style="fill: #262626" transform="translate(652.619937 207.977048) scale(0.11 -0.11)">
       <use xlink:href="#DejaVuSans-30"/>
      </g>
     </g>
    </g>
    <g id="ytick_11">
     <g id="line2d_28">
      <path d="M 56.805937 165.629354 
L 643.119937 165.629354 
" clip-path="url(#p5b71e7ac44)" style="fill: none; stroke: #cccccc; stroke-linecap: round"/>
     </g>
     <g id="line2d_29">
      <g>
       <use xlink:href="#m611fc0d034" x="643.119937" y="165.629354" style="fill: #262626; stroke: #262626; stroke-width: 1.25"/>
      </g>
     </g>
     <g id="text_20">
      <!-- 5 -->
      <g style="fill: #262626" transform="translate(652.619937 169.808495) scale(0.11 -0.11)">
       <use xlink:href="#DejaVuSans-35"/>
      </g>
     </g>
    </g>
    <g id="ytick_12">
     <g id="line2d_30">
      <path d="M 56.805937 127.4608 
L 643.119937 127.4608 
" clip-path="url(#p5b71e7ac44)" style="fill: none; stroke: #cccccc; stroke-linecap: round"/>
     </g>
     <g id="line2d_31">
      <g>
       <use xlink:href="#m611fc0d034" x="643.119937" y="127.4608" style="fill: #262626; stroke: #262626; stroke-width: 1.25"/>
      </g>
     </g>
     <g id="text_21">
      <!-- 10 -->
      <g style="fill: #262626" transform="translate(652.619937 131.639941) scale(0.11 -0.11)">
       <use xlink:href="#DejaVuSans-31"/>
       <use xlink:href="#DejaVuSans-30" transform="translate(63.623047 0)"/>
      </g>
     </g>
    </g>
    <g id="ytick_13">
     <g id="line2d_32">
      <path d="M 56.805937 89.292246 
L 643.119937 89.292246 
" clip-path="url(#p5b71e7ac44)" style="fill: none; stroke: #cccccc; stroke-linecap: round"/>
     </g>
     <g id="line2d_33">
      <g>
       <use xlink:href="#m611fc0d034" x="643.119937" y="89.292246" style="fill: #262626; stroke: #262626; stroke-width: 1.25"/>
      </g>
     </g>
     <g id="text_22">
      <!-- 15 -->
      <g style="fill: #262626" transform="translate(652.619937 93.471387) scale(0.11 -0.11)">
       <use xlink:href="#DejaVuSans-31"/>
       <use xlink:href="#DejaVuSans-35" transform="translate(63.623047 0)"/>
      </g>
     </g>
    </g>
    <g id="ytick_14">
     <g id="line2d_34">
      <path d="M 56.805937 51.123693 
L 643.119937 51.123693 
" clip-path="url(#p5b71e7ac44)" style="fill: none; stroke: #cccccc; stroke-linecap: round"/>
     </g>
     <g id="line2d_35">
      <g>
       <use xlink:href="#m611fc0d034" x="643.119937" y="51.123693" style="fill: #262626; stroke: #262626; stroke-width: 1.25"/>
      </g>
     </g>
     <g id="text_23">
      <!-- 20 -->
      <g style="fill: #262626" transform="translate(652.619937 55.302833) scale(0.11 -0.11)">
       <use xlink:href="#DejaVuSans-32"/>
       <use xlink:href="#DejaVuSans-30" transform="translate(63.623047 0)"/>
      </g>
     </g>
    </g>
    <g id="text_24">
     <!-- $\alpha_{ij}^*$ -->
     <g style="fill: #262626" transform="translate(690.755094 211.50375) rotate(-90) scale(0.12 -0.12)">
      <defs>
       <path id="DejaVuSans-Oblique-3b1" d="M 2619 1628 
L 2622 2350 
Q 2625 3088 2069 3091 
Q 1653 3094 1394 2747 
Q 1069 2319 959 1747 
Q 825 1059 994 731 
Q 1169 397 1547 397 
Q 1966 397 2319 1063 
L 2619 1628 
z
M 2166 3578 
Q 3141 3594 3128 2584 
Q 3128 2584 3616 3500 
L 4128 3500 
L 3119 1603 
L 3109 919 
Q 3109 766 3194 638 
Q 3291 488 3391 488 
L 3669 488 
L 3575 0 
L 3228 0 
Q 2934 0 2722 263 
Q 2622 394 2619 669 
Q 2416 334 2066 50 
Q 1900 -81 1453 -78 
Q 722 -72 456 397 
Q 184 884 353 1747 
Q 534 2675 1009 3097 
Q 1544 3569 2166 3578 
z
" transform="scale(0.015625)"/>
       <path id="DejaVuSans-2a" d="M 3009 3897 
L 1888 3291 
L 3009 2681 
L 2828 2375 
L 1778 3009 
L 1778 1831 
L 1422 1831 
L 1422 3009 
L 372 2375 
L 191 2681 
L 1313 3291 
L 191 3897 
L 372 4206 
L 1422 3572 
L 1422 4750 
L 1778 4750 
L 1778 3572 
L 2828 4206 
L 3009 3897 
z
" transform="scale(0.015625)"/>
       <path id="DejaVuSans-Oblique-69" d="M 1172 4863 
L 1747 4863 
L 1606 4134 
L 1031 4134 
L 1172 4863 
z
M 909 3500 
L 1484 3500 
L 800 0 
L 225 0 
L 909 3500 
z
" transform="scale(0.015625)"/>
       <path id="DejaVuSans-Oblique-6a" d="M 928 3500 
L 1503 3500 
L 813 -63 
L 809 -78 
Q 694 -675 544 -897 
Q 403 -1106 132 -1218 
Q -138 -1331 -506 -1331 
L -722 -1331 
L -628 -844 
L -481 -844 
Q -144 -844 -1 -703 
Q 141 -563 238 -63 
L 928 3500 
z
M 1197 4863 
L 1772 4863 
L 1631 4134 
L 1056 4134 
L 1197 4863 
z
" transform="scale(0.015625)"/>
      </defs>
      <use xlink:href="#DejaVuSans-Oblique-3b1" transform="translate(0 0.701562)"/>
      <use xlink:href="#DejaVuSans-2a" transform="translate(84.227435 39.046875) scale(0.7)"/>
      <use xlink:href="#DejaVuSans-Oblique-69" transform="translate(65.917969 -26.642188) scale(0.7)"/>
      <use xlink:href="#DejaVuSans-Oblique-6a" transform="translate(85.366211 -26.642188) scale(0.7)"/>
     </g>
    </g>
   </g>
   <g id="line2d_36">
    <path d="M 83.456574 265.636125 
L 142.68021 173.454179 
L 201.903847 210.972759 
L 261.127483 304.192265 
L 320.351119 278.275752 
L 379.574756 280.947764 
L 438.798392 196.818807 
L 498.022028 295.181401 
L 557.245665 140.062716 
L 616.469301 264.22129 
" clip-path="url(#p5b71e7ac44)" style="fill: none; stroke: #dd8452; stroke-opacity: 0.6; stroke-linecap: round"/>
    <defs>
     <path id="mcfa52689c0" d="M -2.5 2.5 
L 2.5 2.5 
L 2.5 -2.5 
L -2.5 -2.5 
z
" style="stroke: #dd8452; stroke-opacity: 0.6; stroke-linejoin: miter"/>
    </defs>
    <g clip-path="url(#p5b71e7ac44)">
     <use xlink:href="#mcfa52689c0" x="83.456574" y="265.636125" style="fill: #dd8452; fill-opacity: 0.6; stroke: #dd8452; stroke-opacity: 0.6; stroke-linejoin: miter"/>
     <use xlink:href="#mcfa52689c0" x="142.68021" y="173.454179" style="fill: #dd8452; fill-opacity: 0.6; stroke: #dd8452; stroke-opacity: 0.6; stroke-linejoin: miter"/>
     <use xlink:href="#mcfa52689c0" x="201.903847" y="210.972759" style="fill: #dd8452; fill-opacity: 0.6; stroke: #dd8452; stroke-opacity: 0.6; stroke-linejoin: miter"/>
     <use xlink:href="#mcfa52689c0" x="261.127483" y="304.192265" style="fill: #dd8452; fill-opacity: 0.6; stroke: #dd8452; stroke-opacity: 0.6; stroke-linejoin: miter"/>
     <use xlink:href="#mcfa52689c0" x="320.351119" y="278.275752" style="fill: #dd8452; fill-opacity: 0.6; stroke: #dd8452; stroke-opacity: 0.6; stroke-linejoin: miter"/>
     <use xlink:href="#mcfa52689c0" x="379.574756" y="280.947764" style="fill: #dd8452; fill-opacity: 0.6; stroke: #dd8452; stroke-opacity: 0.6; stroke-linejoin: miter"/>
     <use xlink:href="#mcfa52689c0" x="438.798392" y="196.818807" style="fill: #dd8452; fill-opacity: 0.6; stroke: #dd8452; stroke-opacity: 0.6; stroke-linejoin: miter"/>
     <use xlink:href="#mcfa52689c0" x="498.022028" y="295.181401" style="fill: #dd8452; fill-opacity: 0.6; stroke: #dd8452; stroke-opacity: 0.6; stroke-linejoin: miter"/>
     <use xlink:href="#mcfa52689c0" x="557.245665" y="140.062716" style="fill: #dd8452; fill-opacity: 0.6; stroke: #dd8452; stroke-opacity: 0.6; stroke-linejoin: miter"/>
     <use xlink:href="#mcfa52689c0" x="616.469301" y="264.22129" style="fill: #dd8452; fill-opacity: 0.6; stroke: #dd8452; stroke-opacity: 0.6; stroke-linejoin: miter"/>
    </g>
   </g>
   <g id="line2d_37">
    <path d="M 83.456574 250.331045 
L 142.68021 256.621932 
L 201.903847 210.642504 
L 261.127483 147.438883 
L 320.351119 160.25963 
L 379.574756 269.44023 
L 438.798392 255.346958 
L 498.022028 280.773963 
L 557.245665 136.766229 
L 616.469301 87.131824 
" clip-path="url(#p5b71e7ac44)" style="fill: none; stroke: #55a868; stroke-opacity: 0.6; stroke-linecap: round"/>
    <defs>
     <path id="mcf6fc5ba54" d="M -0 3.535534 
L 2.12132 0 
L -0 -3.535534 
L -2.12132 -0 
z
" style="stroke: #55a868; stroke-opacity: 0.6; stroke-linejoin: miter"/>
    </defs>
    <g clip-path="url(#p5b71e7ac44)">
     <use xlink:href="#mcf6fc5ba54" x="83.456574" y="250.331045" style="fill: #55a868; fill-opacity: 0.6; stroke: #55a868; stroke-opacity: 0.6; stroke-linejoin: miter"/>
     <use xlink:href="#mcf6fc5ba54" x="142.68021" y="256.621932" style="fill: #55a868; fill-opacity: 0.6; stroke: #55a868; stroke-opacity: 0.6; stroke-linejoin: miter"/>
     <use xlink:href="#mcf6fc5ba54" x="201.903847" y="210.642504" style="fill: #55a868; fill-opacity: 0.6; stroke: #55a868; stroke-opacity: 0.6; stroke-linejoin: miter"/>
     <use xlink:href="#mcf6fc5ba54" x="261.127483" y="147.438883" style="fill: #55a868; fill-opacity: 0.6; stroke: #55a868; stroke-opacity: 0.6; stroke-linejoin: miter"/>
     <use xlink:href="#mcf6fc5ba54" x="320.351119" y="160.25963" style="fill: #55a868; fill-opacity: 0.6; stroke: #55a868; stroke-opacity: 0.6; stroke-linejoin: miter"/>
     <use xlink:href="#mcf6fc5ba54" x="379.574756" y="269.44023" style="fill: #55a868; fill-opacity: 0.6; stroke: #55a868; stroke-opacity: 0.6; stroke-linejoin: miter"/>
     <use xlink:href="#mcf6fc5ba54" x="438.798392" y="255.346958" style="fill: #55a868; fill-opacity: 0.6; stroke: #55a868; stroke-opacity: 0.6; stroke-linejoin: miter"/>
     <use xlink:href="#mcf6fc5ba54" x="498.022028" y="280.773963" style="fill: #55a868; fill-opacity: 0.6; stroke: #55a868; stroke-opacity: 0.6; stroke-linejoin: miter"/>
     <use xlink:href="#mcf6fc5ba54" x="557.245665" y="136.766229" style="fill: #55a868; fill-opacity: 0.6; stroke: #55a868; stroke-opacity: 0.6; stroke-linejoin: miter"/>
     <use xlink:href="#mcf6fc5ba54" x="616.469301" y="87.131824" style="fill: #55a868; fill-opacity: 0.6; stroke: #55a868; stroke-opacity: 0.6; stroke-linejoin: miter"/>
    </g>
   </g>
   <g id="line2d_38">
    <path d="M 83.456574 301.66353 
L 142.68021 266.641992 
L 201.903847 260.617928 
L 261.127483 122.177238 
L 320.351119 153.788292 
L 379.574756 247.598994 
L 438.798392 355.56375 
L 498.022028 298.620209 
L 557.245665 182.85022 
L 616.469301 51.12375 
" clip-path="url(#p5b71e7ac44)" style="fill: none; stroke: #c44e52; stroke-opacity: 0.6; stroke-linecap: round"/>
    <defs>
     <path id="m4134271476" d="M 0 -2.5 
L -2.5 2.5 
L 2.5 2.5 
z
" style="stroke: #c44e52; stroke-opacity: 0.6; stroke-linejoin: miter"/>
    </defs>
    <g clip-path="url(#p5b71e7ac44)">
     <use xlink:href="#m4134271476" x="83.456574" y="301.66353" style="fill: #c44e52; fill-opacity: 0.6; stroke: #c44e52; stroke-opacity: 0.6; stroke-linejoin: miter"/>
     <use xlink:href="#m4134271476" x="142.68021" y="266.641992" style="fill: #c44e52; fill-opacity: 0.6; stroke: #c44e52; stroke-opacity: 0.6; stroke-linejoin: miter"/>
     <use xlink:href="#m4134271476" x="201.903847" y="260.617928" style="fill: #c44e52; fill-opacity: 0.6; stroke: #c44e52; stroke-opacity: 0.6; stroke-linejoin: miter"/>
     <use xlink:href="#m4134271476" x="261.127483" y="122.177238" style="fill: #c44e52; fill-opacity: 0.6; stroke: #c44e52; stroke-opacity: 0.6; stroke-linejoin: miter"/>
     <use xlink:href="#m4134271476" x="320.351119" y="153.788292" style="fill: #c44e52; fill-opacity: 0.6; stroke: #c44e52; stroke-opacity: 0.6; stroke-linejoin: miter"/>
     <use xlink:href="#m4134271476" x="379.574756" y="247.598994" style="fill: #c44e52; fill-opacity: 0.6; stroke: #c44e52; stroke-opacity: 0.6; stroke-linejoin: miter"/>
     <use xlink:href="#m4134271476" x="438.798392" y="355.56375" style="fill: #c44e52; fill-opacity: 0.6; stroke: #c44e52; stroke-opacity: 0.6; stroke-linejoin: miter"/>
     <use xlink:href="#m4134271476" x="498.022028" y="298.620209" style="fill: #c44e52; fill-opacity: 0.6; stroke: #c44e52; stroke-opacity: 0.6; stroke-linejoin: miter"/>
     <use xlink:href="#m4134271476" x="557.245665" y="182.85022" style="fill: #c44e52; fill-opacity: 0.6; stroke: #c44e52; stroke-opacity: 0.6; stroke-linejoin: miter"/>
     <use xlink:href="#m4134271476" x="616.469301" y="51.12375" style="fill: #c44e52; fill-opacity: 0.6; stroke: #c44e52; stroke-opacity: 0.6; stroke-linejoin: miter"/>
    </g>
   </g>
   <g id="line2d_39">
    <path d="M 83.456574 72.219788 
L 142.68021 245.215518 
L 201.903847 242.747846 
L 261.127483 69.07256 
L 320.351119 51.285457 
L 379.574756 95.664404 
L 438.798392 329.028022 
L 498.022028 128.336937 
L 557.245665 298.568177 
L 616.469301 163.122655 
" clip-path="url(#p5b71e7ac44)" style="fill: none; stroke: #8172b3; stroke-opacity: 0.6; stroke-linecap: round"/>
    <defs>
     <path id="m23bd1e11d7" d="M -0 2.5 
L 2.5 -2.5 
L -2.5 -2.5 
z
" style="stroke: #8172b3; stroke-opacity: 0.6; stroke-linejoin: miter"/>
    </defs>
    <g clip-path="url(#p5b71e7ac44)">
     <use xlink:href="#m23bd1e11d7" x="83.456574" y="72.219788" style="fill: #8172b3; fill-opacity: 0.6; stroke: #8172b3; stroke-opacity: 0.6; stroke-linejoin: miter"/>
     <use xlink:href="#m23bd1e11d7" x="142.68021" y="245.215518" style="fill: #8172b3; fill-opacity: 0.6; stroke: #8172b3; stroke-opacity: 0.6; stroke-linejoin: miter"/>
     <use xlink:href="#m23bd1e11d7" x="201.903847" y="242.747846" style="fill: #8172b3; fill-opacity: 0.6; stroke: #8172b3; stroke-opacity: 0.6; stroke-linejoin: miter"/>
     <use xlink:href="#m23bd1e11d7" x="261.127483" y="69.07256" style="fill: #8172b3; fill-opacity: 0.6; stroke: #8172b3; stroke-opacity: 0.6; stroke-linejoin: miter"/>
     <use xlink:href="#m23bd1e11d7" x="320.351119" y="51.285457" style="fill: #8172b3; fill-opacity: 0.6; stroke: #8172b3; stroke-opacity: 0.6; stroke-linejoin: miter"/>
     <use xlink:href="#m23bd1e11d7" x="379.574756" y="95.664404" style="fill: #8172b3; fill-opacity: 0.6; stroke: #8172b3; stroke-opacity: 0.6; stroke-linejoin: miter"/>
     <use xlink:href="#m23bd1e11d7" x="438.798392" y="329.028022" style="fill: #8172b3; fill-opacity: 0.6; stroke: #8172b3; stroke-opacity: 0.6; stroke-linejoin: miter"/>
     <use xlink:href="#m23bd1e11d7" x="498.022028" y="128.336937" style="fill: #8172b3; fill-opacity: 0.6; stroke: #8172b3; stroke-opacity: 0.6; stroke-linejoin: miter"/>
     <use xlink:href="#m23bd1e11d7" x="557.245665" y="298.568177" style="fill: #8172b3; fill-opacity: 0.6; stroke: #8172b3; stroke-opacity: 0.6; stroke-linejoin: miter"/>
     <use xlink:href="#m23bd1e11d7" x="616.469301" y="163.122655" style="fill: #8172b3; fill-opacity: 0.6; stroke: #8172b3; stroke-opacity: 0.6; stroke-linejoin: miter"/>
    </g>
   </g>
   <g id="patch_9">
    <path d="M 56.805937 370.78575 
L 56.805937 35.90175 
" style="fill: none; stroke: #cccccc; stroke-width: 1.25; stroke-linejoin: miter; stroke-linecap: square"/>
   </g>
   <g id="patch_10">
    <path d="M 643.119937 370.78575 
L 643.119937 35.90175 
" style="fill: none; stroke: #cccccc; stroke-width: 1.25; stroke-linejoin: miter; stroke-linecap: square"/>
   </g>
   <g id="patch_11">
    <path d="M 56.805937 370.78575 
L 643.119937 370.78575 
" style="fill: none; stroke: #cccccc; stroke-width: 1.25; stroke-linejoin: miter; stroke-linecap: square"/>
   </g>
   <g id="patch_12">
    <path d="M 56.805937 35.90175 
L 643.119937 35.90175 
" style="fill: none; stroke: #cccccc; stroke-width: 1.25; stroke-linejoin: miter; stroke-linecap: square"/>
   </g>
   <g id="legend_1">
    <g id="patch_13">
     <path d="M 594.339937 103.94175 
L 636.819938 103.94175 
Q 638.619937 103.94175 638.619937 102.14175 
L 638.619937 42.20175 
Q 638.619937 40.40175 636.819938 40.40175 
L 594.339937 40.40175 
Q 592.539937 40.40175 592.539937 42.20175 
L 592.539937 102.14175 
Q 592.539937 103.94175 594.339937 103.94175 
z
" style="fill: #ffffff; opacity: 0.8; stroke: #cccccc; stroke-linejoin: miter"/>
    </g>
    <g id="line2d_40">
     <path d="M 596.139937 49.04175 
L 605.139937 49.04175 
L 614.139937 49.04175 
" style="fill: none; stroke: #dd8452; stroke-opacity: 0.6; stroke-linecap: round"/>
     <g>
      <use xlink:href="#mcfa52689c0" x="605.139937" y="49.04175" style="fill: #dd8452; fill-opacity: 0.6; stroke: #dd8452; stroke-opacity: 0.6; stroke-linejoin: miter"/>
     </g>
    </g>
    <g id="text_25">
     <!-- $\alpha_{xx}^*$ -->
     <g style="fill: #262626" transform="translate(621.339938 52.19175) scale(0.09 -0.09)">
      <defs>
       <path id="DejaVuSans-Oblique-78" d="M 3841 3500 
L 2234 1784 
L 3219 0 
L 2559 0 
L 1819 1388 
L 531 0 
L -166 0 
L 1556 1844 
L 641 3500 
L 1300 3500 
L 1972 2234 
L 3144 3500 
L 3841 3500 
z
" transform="scale(0.015625)"/>
      </defs>
      <use xlink:href="#DejaVuSans-Oblique-3b1" transform="translate(0 0.765625)"/>
      <use xlink:href="#DejaVuSans-2a" transform="translate(84.227435 39.046875) scale(0.7)"/>
      <use xlink:href="#DejaVuSans-Oblique-78" transform="translate(65.917969 -26.578125) scale(0.7)"/>
      <use xlink:href="#DejaVuSans-Oblique-78" transform="translate(107.34375 -26.578125) scale(0.7)"/>
     </g>
    </g>
    <g id="line2d_41">
     <path d="M 596.139937 64.25175 
L 605.139937 64.25175 
L 614.139937 64.25175 
" style="fill: none; stroke: #55a868; stroke-opacity: 0.6; stroke-linecap: round"/>
     <g>
      <use xlink:href="#mcf6fc5ba54" x="605.139937" y="64.25175" style="fill: #55a868; fill-opacity: 0.6; stroke: #55a868; stroke-opacity: 0.6; stroke-linejoin: miter"/>
     </g>
    </g>
    <g id="text_26">
     <!-- $\alpha_{xz}^*$ -->
     <g style="fill: #262626" transform="translate(621.339938 67.40175) scale(0.09 -0.09)">
      <defs>
       <path id="DejaVuSans-Oblique-7a" d="M 744 3500 
L 3475 3500 
L 3372 2975 
L 738 459 
L 2913 459 
L 2822 0 
L -19 0 
L 84 525 
L 2719 3041 
L 653 3041 
L 744 3500 
z
" transform="scale(0.015625)"/>
      </defs>
      <use xlink:href="#DejaVuSans-Oblique-3b1" transform="translate(0 0.765625)"/>
      <use xlink:href="#DejaVuSans-2a" transform="translate(84.227435 39.046875) scale(0.7)"/>
      <use xlink:href="#DejaVuSans-Oblique-78" transform="translate(65.917969 -26.578125) scale(0.7)"/>
      <use xlink:href="#DejaVuSans-Oblique-7a" transform="translate(107.34375 -26.578125) scale(0.7)"/>
     </g>
    </g>
    <g id="line2d_42">
     <path d="M 596.139937 79.46175 
L 605.139937 79.46175 
L 614.139937 79.46175 
" style="fill: none; stroke: #c44e52; stroke-opacity: 0.6; stroke-linecap: round"/>
     <g>
      <use xlink:href="#m4134271476" x="605.139937" y="79.46175" style="fill: #c44e52; fill-opacity: 0.6; stroke: #c44e52; stroke-opacity: 0.6; stroke-linejoin: miter"/>
     </g>
    </g>
    <g id="text_27">
     <!-- $\alpha_{zx}^*$ -->
     <g style="fill: #262626" transform="translate(621.339938 82.61175) scale(0.09 -0.09)">
      <use xlink:href="#DejaVuSans-Oblique-3b1" transform="translate(0 0.765625)"/>
      <use xlink:href="#DejaVuSans-2a" transform="translate(84.227435 39.046875) scale(0.7)"/>
      <use xlink:href="#DejaVuSans-Oblique-7a" transform="translate(65.917969 -26.578125) scale(0.7)"/>
      <use xlink:href="#DejaVuSans-Oblique-78" transform="translate(102.661133 -26.578125) scale(0.7)"/>
     </g>
    </g>
    <g id="line2d_43">
     <path d="M 596.139937 94.67175 
L 605.139937 94.67175 
L 614.139937 94.67175 
" style="fill: none; stroke: #8172b3; stroke-opacity: 0.6; stroke-linecap: round"/>
     <g>
      <use xlink:href="#m23bd1e11d7" x="605.139937" y="94.67175" style="fill: #8172b3; fill-opacity: 0.6; stroke: #8172b3; stroke-opacity: 0.6; stroke-linejoin: miter"/>
     </g>
    </g>
    <g id="text_28">
     <!-- $\alpha_{zz}^*$ -->
     <g style="fill: #262626" transform="translate(621.339938 97.82175) scale(0.09 -0.09)">
      <use xlink:href="#DejaVuSans-Oblique-3b1" transform="translate(0 0.765625)"/>
      <use xlink:href="#DejaVuSans-2a" transform="translate(84.227435 39.046875) scale(0.7)"/>
      <use xlink:href="#DejaVuSans-Oblique-7a" transform="translate(65.917969 -26.578125) scale(0.7)"/>
      <use xlink:href="#DejaVuSans-Oblique-7a" transform="translate(102.661133 -26.578125) scale(0.7)"/>
     </g>
    </g>
   </g>
  </g>
 </g>
 <defs>
  <clipPath id="p5b71e7ac44">
   <rect x="56.805937" y="35.90175" width="586.314" height="334.884"/>
  </clipPath>
 </defs>
</svg>
