<?xml version="1.0" encoding="utf-8" standalone="no"?>
<!DOCTYPE svg PUBLIC "-//W3C//DTD SVG 1.1//EN"
  "http://www.w3.org/Graphics/SVG/1.1/DTD/svg11.dtd">
<svg xmlns:xlink="http://www.w3.org/1999/xlink" width="562.901202pt" height="408.227688pt" viewBox="0 0 562.901202 408.227688" xmlns="http://www.w3.org/2000/svg" version="1.1">
 <metadata>
  <rdf:RDF xmlns:dc="http://purl.org/dc/elements/1.1/" xmlns:cc="http://creativecommons.org/ns#" xmlns:rdf="http://www.w3.org/1999/02/22-rdf-syntax-ns#">
   <cc:Work>
    <dc:type rdf:resource="http://purl.org/dc/dcmitype/StillImage"/>
    <dc:date>2026-05-23T19:23:35.109847</dc:date>
    <dc:format>image/svg+xml</dc:format>
    <dc:creator>
     <cc:Agent>
      <dc:title>Matplotlib v3.10.9, https://matplotlib.org/</dc:title>
     </cc:Agent>
    </dc:creator>
   </cc:Work>
  </rdf:RDF>
 </metadata>
 <defs>
  <style type="text/css">*{stroke-linejoin: round; stroke-linecap: butt}</style>
 </defs>
 <g id="figure_1">
  <g id="patch_1">
   <path d="M 0 408.227688 
L 562.901202 408.227688 
L 562.901202 0 
L 0 0 
z
" style="fill: #ffffff"/>
  </g>
  <g id="axes_1">
   <g id="patch_2">
    <path d="M 58.16375 365.24175 
L 555.701202 365.24175 
L 555.701202 35.90175 
L 58.16375 35.90175 
z
" style="fill: #ffffff"/>
   </g>
   <g id="matplotlib.axis_1">
    <g id="xtick_1">
     <g id="line2d_1">
      <path d="M 80.779089 365.24175 
L 80.779089 35.90175 
" clip-path="url(#pf054e0c965)" style="fill: none; stroke: #cccccc; stroke-opacity: 0.3; stroke-linecap: round"/>
     </g>
     <g id="text_1">
      <!-- $\mathdefault{10^{0}}$ -->
      <g style="fill: #262626" transform="translate(71.099089 383.100031) scale(0.11 -0.11)">
       <defs>
        <path id="DejaVuSans-31" d="M 794 531 
L 1825 531 
L 1825 4091 
L 703 3866 
L 703 4441 
L 1819 4666 
L 2450 4666 
L 2450 531 
L 3481 531 
L 3481 0 
L 794 0 
L 794 531 
z
" transform="scale(0.015625)"/>
        <path id="DejaVuSans-30" d="M 2034 4250 
Q 1547 4250 1301 3770 
Q 1056 3291 1056 2328 
Q 1056 1369 1301 889 
Q 1547 409 2034 409 
Q 2525 409 2770 889 
Q 3016 1369 3016 2328 
Q 3016 3291 2770 3770 
Q 2525 4250 2034 4250 
z
M 2034 4750 
Q 2819 4750 3233 4129 
Q 3647 3509 3647 2328 
Q 3647 1150 3233 529 
Q 2819 -91 2034 -91 
Q 1250 -91 836 529 
Q 422 1150 422 2328 
Q 422 3509 836 4129 
Q 1250 4750 2034 4750 
z
" transform="scale(0.015625)"/>
       </defs>
       <use xlink:href="#DejaVuSans-31" transform="translate(0 0.765625)"/>
       <use xlink:href="#DejaVuSans-30" transform="translate(63.623047 0.765625)"/>
       <use xlink:href="#DejaVuSans-30" transform="translate(128.203125 39.046875) scale(0.7)"/>
      </g>
     </g>
    </g>
    <g id="xtick_2">
     <g id="line2d_2">
      <path d="M 533.085863 365.24175 
L 533.085863 35.90175 
" clip-path="url(#pf054e0c965)" style="fill: none; stroke: #cccccc; stroke-opacity: 0.3; stroke-linecap: round"/>
     </g>
     <g id="text_2">
      <!-- $\mathdefault{10^{1}}$ -->
      <g style="fill: #262626" transform="translate(523.405863 383.100031) scale(0.11 -0.11)">
       <use xlink:href="#DejaVuSans-31" transform="translate(0 0.684375)"/>
       <use xlink:href="#DejaVuSans-30" transform="translate(63.623047 0.684375)"/>
       <use xlink:href="#DejaVuSans-31" transform="translate(128.203125 38.965625) scale(0.7)"/>
      </g>
     </g>
    </g>
    <g id="xtick_3">
     <g id="line2d_3">
      <path d="M 60.082666 365.24175 
L 60.082666 35.90175 
" clip-path="url(#pf054e0c965)" style="fill: none; stroke: #cccccc; stroke-opacity: 0.3; stroke-linecap: round"/>
     </g>
    </g>
    <g id="xtick_4">
     <g id="line2d_4">
      <path d="M 216.936995 365.24175 
L 216.936995 35.90175 
" clip-path="url(#pf054e0c965)" style="fill: none; stroke: #cccccc; stroke-opacity: 0.3; stroke-linecap: round"/>
     </g>
    </g>
    <g id="xtick_5">
     <g id="line2d_5">
      <path d="M 296.584264 365.24175 
L 296.584264 35.90175 
" clip-path="url(#pf054e0c965)" style="fill: none; stroke: #cccccc; stroke-opacity: 0.3; stroke-linecap: round"/>
     </g>
    </g>
    <g id="xtick_6">
     <g id="line2d_6">
      <path d="M 353.094901 365.24175 
L 353.094901 35.90175 
" clip-path="url(#pf054e0c965)" style="fill: none; stroke: #cccccc; stroke-opacity: 0.3; stroke-linecap: round"/>
     </g>
    </g>
    <g id="xtick_7">
     <g id="line2d_7">
      <path d="M 396.927957 365.24175 
L 396.927957 35.90175 
" clip-path="url(#pf054e0c965)" style="fill: none; stroke: #cccccc; stroke-opacity: 0.3; stroke-linecap: round"/>
     </g>
    </g>
    <g id="xtick_8">
     <g id="line2d_8">
      <path d="M 432.742171 365.24175 
L 432.742171 35.90175 
" clip-path="url(#pf054e0c965)" style="fill: none; stroke: #cccccc; stroke-opacity: 0.3; stroke-linecap: round"/>
     </g>
    </g>
    <g id="xtick_9">
     <g id="line2d_9">
      <path d="M 463.022657 365.24175 
L 463.022657 35.90175 
" clip-path="url(#pf054e0c965)" style="fill: none; stroke: #cccccc; stroke-opacity: 0.3; stroke-linecap: round"/>
     </g>
    </g>
    <g id="xtick_10">
     <g id="line2d_10">
      <path d="M 489.252807 365.24175 
L 489.252807 35.90175 
" clip-path="url(#pf054e0c965)" style="fill: none; stroke: #cccccc; stroke-opacity: 0.3; stroke-linecap: round"/>
     </g>
    </g>
    <g id="xtick_11">
     <g id="line2d_11">
      <path d="M 512.38944 365.24175 
L 512.38944 35.90175 
" clip-path="url(#pf054e0c965)" style="fill: none; stroke: #cccccc; stroke-opacity: 0.3; stroke-linecap: round"/>
     </g>
    </g>
    <g id="text_3">
     <!-- $N$ (particles per subsystem) -->
     <g style="fill: #262626" transform="translate(223.832476 398.507687) scale(0.12 -0.12)">
      <defs>
       <path id="DejaVuSans-Oblique-4e" d="M 1081 4666 
L 1931 4666 
L 3219 666 
L 4000 4666 
L 4616 4666 
L 3706 0 
L 2853 0 
L 1569 4025 
L 788 0 
L 172 0 
L 1081 4666 
z
" transform="scale(0.015625)"/>
       <path id="DejaVuSans-20" transform="scale(0.015625)"/>
       <path id="DejaVuSans-28" d="M 1984 4856 
Q 1566 4138 1362 3434 
Q 1159 2731 1159 2009 
Q 1159 1288 1364 580 
Q 1569 -128 1984 -844 
L 1484 -844 
Q 1016 -109 783 600 
Q 550 1309 550 2009 
Q 550 2706 781 3412 
Q 1013 4119 1484 4856 
L 1984 4856 
z
" transform="scale(0.015625)"/>
       <path id="DejaVuSans-70" d="M 1159 525 
L 1159 -1331 
L 581 -1331 
L 581 3500 
L 1159 3500 
L 1159 2969 
Q 1341 3281 1617 3432 
Q 1894 3584 2278 3584 
Q 2916 3584 3314 3078 
Q 3713 2572 3713 1747 
Q 3713 922 3314 415 
Q 2916 -91 2278 -91 
Q 1894 -91 1617 61 
Q 1341 213 1159 525 
z
M 3116 1747 
Q 3116 2381 2855 2742 
Q 2594 3103 2138 3103 
Q 1681 3103 1420 2742 
Q 1159 2381 1159 1747 
Q 1159 1113 1420 752 
Q 1681 391 2138 391 
Q 2594 391 2855 752 
Q 3116 1113 3116 1747 
z
" transform="scale(0.015625)"/>
       <path id="DejaVuSans-61" d="M 2194 1759 
Q 1497 1759 1228 1600 
Q 959 1441 959 1056 
Q 959 750 1161 570 
Q 1363 391 1709 391 
Q 2188 391 2477 730 
Q 2766 1069 2766 1631 
L 2766 1759 
L 2194 1759 
z
M 3341 1997 
L 3341 0 
L 2766 0 
L 2766 531 
Q 2569 213 2275 61 
Q 1981 -91 1556 -91 
Q 1019 -91 701 211 
Q 384 513 384 1019 
Q 384 1609 779 1909 
Q 1175 2209 1959 2209 
L 2766 2209 
L 2766 2266 
Q 2766 2663 2505 2880 
Q 2244 3097 1772 3097 
Q 1472 3097 1187 3025 
Q 903 2953 641 2809 
L 641 3341 
Q 956 3463 1253 3523 
Q 1550 3584 1831 3584 
Q 2591 3584 2966 3190 
Q 3341 2797 3341 1997 
z
" transform="scale(0.015625)"/>
       <path id="DejaVuSans-72" d="M 2631 2963 
Q 2534 3019 2420 3045 
Q 2306 3072 2169 3072 
Q 1681 3072 1420 2755 
Q 1159 2438 1159 1844 
L 1159 0 
L 581 0 
L 581 3500 
L 1159 3500 
L 1159 2956 
Q 1341 3275 1631 3429 
Q 1922 3584 2338 3584 
Q 2397 3584 2469 3576 
Q 2541 3569 2628 3553 
L 2631 2963 
z
" transform="scale(0.015625)"/>
       <path id="DejaVuSans-74" d="M 1172 4494 
L 1172 3500 
L 2356 3500 
L 2356 3053 
L 1172 3053 
L 1172 1153 
Q 1172 725 1289 603 
Q 1406 481 1766 481 
L 2356 481 
L 2356 0 
L 1766 0 
Q 1100 0 847 248 
Q 594 497 594 1153 
L 594 3053 
L 172 3053 
L 172 3500 
L 594 3500 
L 594 4494 
L 1172 4494 
z
" transform="scale(0.015625)"/>
       <path id="DejaVuSans-69" d="M 603 3500 
L 1178 3500 
L 1178 0 
L 603 0 
L 603 3500 
z
M 603 4863 
L 1178 4863 
L 1178 4134 
L 603 4134 
L 603 4863 
z
" transform="scale(0.015625)"/>
       <path id="DejaVuSans-63" d="M 3122 3366 
L 3122 2828 
Q 2878 2963 2633 3030 
Q 2388 3097 2138 3097 
Q 1578 3097 1268 2742 
Q 959 2388 959 1747 
Q 959 1106 1268 751 
Q 1578 397 2138 397 
Q 2388 397 2633 464 
Q 2878 531 3122 666 
L 3122 134 
Q 2881 22 2623 -34 
Q 2366 -91 2075 -91 
Q 1284 -91 818 406 
Q 353 903 353 1747 
Q 353 2603 823 3093 
Q 1294 3584 2113 3584 
Q 2378 3584 2631 3529 
Q 2884 3475 3122 3366 
z
" transform="scale(0.015625)"/>
       <path id="DejaVuSans-6c" d="M 603 4863 
L 1178 4863 
L 1178 0 
L 603 0 
L 603 4863 
z
" transform="scale(0.015625)"/>
       <path id="DejaVuSans-65" d="M 3597 1894 
L 3597 1613 
L 953 1613 
Q 991 1019 1311 708 
Q 1631 397 2203 397 
Q 2534 397 2845 478 
Q 3156 559 3463 722 
L 3463 178 
Q 3153 47 2828 -22 
Q 2503 -91 2169 -91 
Q 1331 -91 842 396 
Q 353 884 353 1716 
Q 353 2575 817 3079 
Q 1281 3584 2069 3584 
Q 2775 3584 3186 3129 
Q 3597 2675 3597 1894 
z
M 3022 2063 
Q 3016 2534 2758 2815 
Q 2500 3097 2075 3097 
Q 1594 3097 1305 2825 
Q 1016 2553 972 2059 
L 3022 2063 
z
" transform="scale(0.015625)"/>
       <path id="DejaVuSans-73" d="M 2834 3397 
L 2834 2853 
Q 2591 2978 2328 3040 
Q 2066 3103 1784 3103 
Q 1356 3103 1142 2972 
Q 928 2841 928 2578 
Q 928 2378 1081 2264 
Q 1234 2150 1697 2047 
L 1894 2003 
Q 2506 1872 2764 1633 
Q 3022 1394 3022 966 
Q 3022 478 2636 193 
Q 2250 -91 1575 -91 
Q 1294 -91 989 -36 
Q 684 19 347 128 
L 347 722 
Q 666 556 975 473 
Q 1284 391 1588 391 
Q 1994 391 2212 530 
Q 2431 669 2431 922 
Q 2431 1156 2273 1281 
Q 2116 1406 1581 1522 
L 1381 1569 
Q 847 1681 609 1914 
Q 372 2147 372 2553 
Q 372 3047 722 3315 
Q 1072 3584 1716 3584 
Q 2034 3584 2315 3537 
Q 2597 3491 2834 3397 
z
" transform="scale(0.015625)"/>
       <path id="DejaVuSans-75" d="M 544 1381 
L 544 3500 
L 1119 3500 
L 1119 1403 
Q 1119 906 1312 657 
Q 1506 409 1894 409 
Q 2359 409 2629 706 
Q 2900 1003 2900 1516 
L 2900 3500 
L 3475 3500 
L 3475 0 
L 2900 0 
L 2900 538 
Q 2691 219 2414 64 
Q 2138 -91 1772 -91 
Q 1169 -91 856 284 
Q 544 659 544 1381 
z
M 1991 3584 
L 1991 3584 
z
" transform="scale(0.015625)"/>
       <path id="DejaVuSans-62" d="M 3116 1747 
Q 3116 2381 2855 2742 
Q 2594 3103 2138 3103 
Q 1681 3103 1420 2742 
Q 1159 2381 1159 1747 
Q 1159 1113 1420 752 
Q 1681 391 2138 391 
Q 2594 391 2855 752 
Q 3116 1113 3116 1747 
z
M 1159 2969 
Q 1341 3281 1617 3432 
Q 1894 3584 2278 3584 
Q 2916 3584 3314 3078 
Q 3713 2572 3713 1747 
Q 3713 922 3314 415 
Q 2916 -91 2278 -91 
Q 1894 -91 1617 61 
Q 1341 213 1159 525 
L 1159 0 
L 581 0 
L 581 4863 
L 1159 4863 
L 1159 2969 
z
" transform="scale(0.015625)"/>
       <path id="DejaVuSans-79" d="M 2059 -325 
Q 1816 -950 1584 -1140 
Q 1353 -1331 966 -1331 
L 506 -1331 
L 506 -850 
L 844 -850 
Q 1081 -850 1212 -737 
Q 1344 -625 1503 -206 
L 1606 56 
L 191 3500 
L 800 3500 
L 1894 763 
L 2988 3500 
L 3597 3500 
L 2059 -325 
z
" transform="scale(0.015625)"/>
       <path id="DejaVuSans-6d" d="M 3328 2828 
Q 3544 3216 3844 3400 
Q 4144 3584 4550 3584 
Q 5097 3584 5394 3201 
Q 5691 2819 5691 2113 
L 5691 0 
L 5113 0 
L 5113 2094 
Q 5113 2597 4934 2840 
Q 4756 3084 4391 3084 
Q 3944 3084 3684 2787 
Q 3425 2491 3425 1978 
L 3425 0 
L 2847 0 
L 2847 2094 
Q 2847 2600 2669 2842 
Q 2491 3084 2119 3084 
Q 1678 3084 1418 2786 
Q 1159 2488 1159 1978 
L 1159 0 
L 581 0 
L 581 3500 
L 1159 3500 
L 1159 2956 
Q 1356 3278 1631 3431 
Q 1906 3584 2284 3584 
Q 2666 3584 2933 3390 
Q 3200 3197 3328 2828 
z
" transform="scale(0.015625)"/>
       <path id="DejaVuSans-29" d="M 513 4856 
L 1013 4856 
Q 1481 4119 1714 3412 
Q 1947 2706 1947 2009 
Q 1947 1309 1714 600 
Q 1481 -109 1013 -844 
L 513 -844 
Q 928 -128 1133 580 
Q 1338 1288 1338 2009 
Q 1338 2731 1133 3434 
Q 928 4138 513 4856 
z
" transform="scale(0.015625)"/>
      </defs>
      <use xlink:href="#DejaVuSans-Oblique-4e" transform="translate(0 0.015625)"/>
      <use xlink:href="#DejaVuSans-20" transform="translate(74.804688 0.015625)"/>
      <use xlink:href="#DejaVuSans-28" transform="translate(106.591797 0.015625)"/>
      <use xlink:href="#DejaVuSans-70" transform="translate(145.605469 0.015625)"/>
      <use xlink:href="#DejaVuSans-61" transform="translate(209.082031 0.015625)"/>
      <use xlink:href="#DejaVuSans-72" transform="translate(270.361328 0.015625)"/>
      <use xlink:href="#DejaVuSans-74" transform="translate(311.474609 0.015625)"/>
      <use xlink:href="#DejaVuSans-69" transform="translate(350.683594 0.015625)"/>
      <use xlink:href="#DejaVuSans-63" transform="translate(378.466797 0.015625)"/>
      <use xlink:href="#DejaVuSans-6c" transform="translate(433.447266 0.015625)"/>
      <use xlink:href="#DejaVuSans-65" transform="translate(461.230469 0.015625)"/>
      <use xlink:href="#DejaVuSans-73" transform="translate(522.753906 0.015625)"/>
      <use xlink:href="#DejaVuSans-20" transform="translate(574.853516 0.015625)"/>
      <use xlink:href="#DejaVuSans-70" transform="translate(606.640625 0.015625)"/>
      <use xlink:href="#DejaVuSans-65" transform="translate(670.117188 0.015625)"/>
      <use xlink:href="#DejaVuSans-72" transform="translate(731.640625 0.015625)"/>
      <use xlink:href="#DejaVuSans-20" transform="translate(772.753906 0.015625)"/>
      <use xlink:href="#DejaVuSans-73" transform="translate(804.541016 0.015625)"/>
      <use xlink:href="#DejaVuSans-75" transform="translate(856.640625 0.015625)"/>
      <use xlink:href="#DejaVuSans-62" transform="translate(920.019531 0.015625)"/>
      <use xlink:href="#DejaVuSans-73" transform="translate(983.496094 0.015625)"/>
      <use xlink:href="#DejaVuSans-79" transform="translate(1035.595703 0.015625)"/>
      <use xlink:href="#DejaVuSans-73" transform="translate(1094.775391 0.015625)"/>
      <use xlink:href="#DejaVuSans-74" transform="translate(1146.875 0.015625)"/>
      <use xlink:href="#DejaVuSans-65" transform="translate(1186.083984 0.015625)"/>
      <use xlink:href="#DejaVuSans-6d" transform="translate(1247.607422 0.015625)"/>
      <use xlink:href="#DejaVuSans-29" transform="translate(1345.019531 0.015625)"/>
     </g>
    </g>
   </g>
   <g id="matplotlib.axis_2">
    <g id="ytick_1">
     <g id="line2d_12">
      <path d="M 58.16375 350.27175 
L 555.701202 350.27175 
" clip-path="url(#pf054e0c965)" style="fill: none; stroke: #cccccc; stroke-opacity: 0.3; stroke-linecap: round"/>
     </g>
     <g id="text_4">
      <!-- $\mathdefault{10^{-2}}$ -->
      <g style="fill: #262626" transform="translate(22.81375 354.450891) scale(0.11 -0.11)">
       <defs>
        <path id="DejaVuSans-2212" d="M 678 2272 
L 4684 2272 
L 4684 1741 
L 678 1741 
L 678 2272 
z
" transform="scale(0.015625)"/>
        <path id="DejaVuSans-32" d="M 1228 531 
L 3431 531 
L 3431 0 
L 469 0 
L 469 531 
Q 828 903 1448 1529 
Q 2069 2156 2228 2338 
Q 2531 2678 2651 2914 
Q 2772 3150 2772 3378 
Q 2772 3750 2511 3984 
Q 2250 4219 1831 4219 
Q 1534 4219 1204 4116 
Q 875 4013 500 3803 
L 500 4441 
Q 881 4594 1212 4672 
Q 1544 4750 1819 4750 
Q 2544 4750 2975 4387 
Q 3406 4025 3406 3419 
Q 3406 3131 3298 2873 
Q 3191 2616 2906 2266 
Q 2828 2175 2409 1742 
Q 1991 1309 1228 531 
z
" transform="scale(0.015625)"/>
       </defs>
       <use xlink:href="#DejaVuSans-31" transform="translate(0 0.765625)"/>
       <use xlink:href="#DejaVuSans-30" transform="translate(63.623047 0.765625)"/>
       <use xlink:href="#DejaVuSans-2212" transform="translate(128.203125 39.046875) scale(0.7)"/>
       <use xlink:href="#DejaVuSans-32" transform="translate(186.855469 39.046875) scale(0.7)"/>
      </g>
     </g>
    </g>
    <g id="ytick_2">
     <g id="line2d_13">
      <path d="M 58.16375 80.942109 
L 555.701202 80.942109 
" clip-path="url(#pf054e0c965)" style="fill: none; stroke: #cccccc; stroke-opacity: 0.3; stroke-linecap: round"/>
     </g>
     <g id="text_5">
      <!-- $\mathdefault{10^{-1}}$ -->
      <g style="fill: #262626" transform="translate(22.81375 85.12125) scale(0.11 -0.11)">
       <use xlink:href="#DejaVuSans-31" transform="translate(0 0.684375)"/>
       <use xlink:href="#DejaVuSans-30" transform="translate(63.623047 0.684375)"/>
       <use xlink:href="#DejaVuSans-2212" transform="translate(128.203125 38.965625) scale(0.7)"/>
       <use xlink:href="#DejaVuSans-31" transform="translate(186.855469 38.965625) scale(0.7)"/>
      </g>
     </g>
    </g>
    <g id="ytick_3">
     <g id="line2d_14">
      <path d="M 58.16375 362.595598 
L 555.701202 362.595598 
" clip-path="url(#pf054e0c965)" style="fill: none; stroke: #cccccc; stroke-opacity: 0.3; stroke-linecap: round"/>
     </g>
    </g>
    <g id="ytick_4">
     <g id="line2d_15">
      <path d="M 58.16375 269.195449 
L 555.701202 269.195449 
" clip-path="url(#pf054e0c965)" style="fill: none; stroke: #cccccc; stroke-opacity: 0.3; stroke-linecap: round"/>
     </g>
    </g>
    <g id="ytick_5">
     <g id="line2d_16">
      <path d="M 58.16375 221.768854 
L 555.701202 221.768854 
" clip-path="url(#pf054e0c965)" style="fill: none; stroke: #cccccc; stroke-opacity: 0.3; stroke-linecap: round"/>
     </g>
    </g>
    <g id="ytick_6">
     <g id="line2d_17">
      <path d="M 58.16375 188.119149 
L 555.701202 188.119149 
" clip-path="url(#pf054e0c965)" style="fill: none; stroke: #cccccc; stroke-opacity: 0.3; stroke-linecap: round"/>
     </g>
    </g>
    <g id="ytick_7">
     <g id="line2d_18">
      <path d="M 58.16375 162.01841 
L 555.701202 162.01841 
" clip-path="url(#pf054e0c965)" style="fill: none; stroke: #cccccc; stroke-opacity: 0.3; stroke-linecap: round"/>
     </g>
    </g>
    <g id="ytick_8">
     <g id="line2d_19">
      <path d="M 58.16375 140.692553 
L 555.701202 140.692553 
" clip-path="url(#pf054e0c965)" style="fill: none; stroke: #cccccc; stroke-opacity: 0.3; stroke-linecap: round"/>
     </g>
    </g>
    <g id="ytick_9">
     <g id="line2d_20">
      <path d="M 58.16375 122.661798 
L 555.701202 122.661798 
" clip-path="url(#pf054e0c965)" style="fill: none; stroke: #cccccc; stroke-opacity: 0.3; stroke-linecap: round"/>
     </g>
    </g>
    <g id="ytick_10">
     <g id="line2d_21">
      <path d="M 58.16375 107.042848 
L 555.701202 107.042848 
" clip-path="url(#pf054e0c965)" style="fill: none; stroke: #cccccc; stroke-opacity: 0.3; stroke-linecap: round"/>
     </g>
    </g>
    <g id="ytick_11">
     <g id="line2d_22">
      <path d="M 58.16375 93.265958 
L 555.701202 93.265958 
" clip-path="url(#pf054e0c965)" style="fill: none; stroke: #cccccc; stroke-opacity: 0.3; stroke-linecap: round"/>
     </g>
    </g>
    <g id="text_6">
     <!-- $\Delta\theta$ -->
     <g style="fill: #262626" transform="translate(16.318125 208.37175) rotate(-90) scale(0.12 -0.12)">
      <defs>
       <path id="DejaVuSans-394" d="M 2188 4044 
L 906 525 
L 3472 525 
L 2188 4044 
z
M 50 0 
L 1831 4666 
L 2547 4666 
L 4325 0 
L 50 0 
z
" transform="scale(0.015625)"/>
       <path id="DejaVuSans-Oblique-3b8" d="M 2913 2219 
L 925 2219 
Q 791 1284 928 888 
Q 1100 400 1566 400 
Q 2034 400 2391 891 
Q 2703 1322 2913 2219 
z
M 3009 2750 
Q 3094 3638 2984 3950 
Q 2813 4444 2353 4444 
Q 1875 4444 1525 3956 
Q 1250 3563 1034 2750 
L 3009 2750 
z
M 2444 4913 
Q 3194 4913 3494 4250 
Q 3794 3591 3566 2422 
Q 3341 1256 2781 594 
Q 2225 -72 1475 -72 
Q 722 -72 425 594 
Q 128 1256 353 2422 
Q 581 3591 1134 4250 
Q 1691 4913 2444 4913 
z
" transform="scale(0.015625)"/>
      </defs>
      <use xlink:href="#DejaVuSans-394" transform="translate(0 0.234375)"/>
      <use xlink:href="#DejaVuSans-Oblique-3b8" transform="translate(68.408203 0.234375)"/>
     </g>
    </g>
   </g>
   <g id="line2d_23">
    <path d="M 80.779089 80.942109 
L 85.347844 82.30236 
L 89.916599 83.662611 
L 94.485355 85.022861 
L 99.05411 86.383112 
L 103.622865 87.743363 
L 108.19162 89.103614 
L 112.760376 90.463864 
L 117.329131 91.824115 
L 121.897886 93.184366 
L 126.466642 94.544616 
L 131.035397 95.904867 
L 135.604152 97.265118 
L 140.172908 98.625368 
L 144.741663 99.985619 
L 149.310418 101.34587 
L 153.879173 102.706121 
L 158.447929 104.066371 
L 163.016684 105.426622 
L 167.585439 106.786873 
L 172.154195 108.147123 
L 176.72295 109.507374 
L 181.291705 110.867625 
L 185.86046 112.227876 
L 190.429216 113.588126 
L 194.997971 114.948377 
L 199.566726 116.308628 
L 204.135482 117.668878 
L 208.704237 119.029129 
L 213.272992 120.38938 
L 217.841748 121.749631 
L 222.410503 123.109881 
L 226.979258 124.470132 
L 231.548013 125.830383 
L 236.116769 127.190633 
L 240.685524 128.550884 
L 245.254279 129.911135 
L 249.823035 131.271386 
L 254.39179 132.631636 
L 258.960545 133.991887 
L 263.5293 135.352138 
L 268.098056 136.712388 
L 272.666811 138.072639 
L 277.235566 139.43289 
L 281.804322 140.793141 
L 286.373077 142.153391 
L 290.941832 143.513642 
L 295.510588 144.873893 
L 300.079343 146.234143 
L 304.648098 147.594394 
L 309.216853 148.954645 
L 313.785609 150.314896 
L 318.354364 151.675146 
L 322.923119 153.035397 
L 327.491875 154.395648 
L 332.06063 155.755898 
L 336.629385 157.116149 
L 341.19814 158.4764 
L 345.766896 159.83665 
L 350.335651 161.196901 
L 354.904406 162.557152 
L 359.473162 163.917403 
L 364.041917 165.277653 
L 368.610672 166.637904 
L 373.179428 167.998155 
L 377.748183 169.358405 
L 382.316938 170.718656 
L 386.885693 172.078907 
L 391.454449 173.439158 
L 396.023204 174.799408 
L 400.591959 176.159659 
L 405.160715 177.51991 
L 409.72947 178.88016 
L 414.298225 180.240411 
L 418.86698 181.600662 
L 423.435736 182.960913 
L 428.004491 184.321163 
L 432.573246 185.681414 
L 437.142002 187.041665 
L 441.710757 188.401915 
L 446.279512 189.762166 
L 450.848268 191.122417 
L 455.417023 192.482668 
L 459.985778 193.842918 
L 464.554533 195.203169 
L 469.123289 196.56342 
L 473.692044 197.92367 
L 478.260799 199.283921 
L 482.829555 200.644172 
L 487.39831 202.004423 
L 491.967065 203.364673 
L 496.53582 204.724924 
L 501.104576 206.085175 
L 505.673331 207.445425 
L 510.242086 208.805676 
L 514.810842 210.165927 
L 519.379597 211.526177 
L 523.948352 212.886428 
L 528.517108 214.246679 
L 533.085863 215.60693 
" clip-path="url(#pf054e0c965)" style="fill: none; stroke-dasharray: 5.55,2.4; stroke-dashoffset: 0; stroke: #808080; stroke-opacity: 0.7; stroke-width: 1.5"/>
   </g>
   <g id="line2d_24">
    <path d="M 80.779089 80.942109 
L 85.347844 83.662611 
L 89.916599 86.383112 
L 94.485355 89.103614 
L 99.05411 91.824115 
L 103.622865 94.544616 
L 108.19162 97.265118 
L 112.760376 99.985619 
L 117.329131 102.706121 
L 121.897886 105.426622 
L 126.466642 108.147123 
L 131.035397 110.867625 
L 135.604152 113.588126 
L 140.172908 116.308628 
L 144.741663 119.029129 
L 149.310418 121.749631 
L 153.879173 124.470132 
L 158.447929 127.190633 
L 163.016684 129.911135 
L 167.585439 132.631636 
L 172.154195 135.352138 
L 176.72295 138.072639 
L 181.291705 140.793141 
L 185.86046 143.513642 
L 190.429216 146.234143 
L 194.997971 148.954645 
L 199.566726 151.675146 
L 204.135482 154.395648 
L 208.704237 157.116149 
L 213.272992 159.83665 
L 217.841748 162.557152 
L 222.410503 165.277653 
L 226.979258 167.998155 
L 231.548013 170.718656 
L 236.116769 173.439158 
L 240.685524 176.159659 
L 245.254279 178.88016 
L 249.823035 181.600662 
L 254.39179 184.321163 
L 258.960545 187.041665 
L 263.5293 189.762166 
L 268.098056 192.482668 
L 272.666811 195.203169 
L 277.235566 197.92367 
L 281.804322 200.644172 
L 286.373077 203.364673 
L 290.941832 206.085175 
L 295.510588 208.805676 
L 300.079343 211.526177 
L 304.648098 214.246679 
L 309.216853 216.96718 
L 313.785609 219.687682 
L 318.354364 222.408183 
L 322.923119 225.128685 
L 327.491875 227.849186 
L 332.06063 230.569687 
L 336.629385 233.290189 
L 341.19814 236.01069 
L 345.766896 238.731192 
L 350.335651 241.451693 
L 354.904406 244.172195 
L 359.473162 246.892696 
L 364.041917 249.613197 
L 368.610672 252.333699 
L 373.179428 255.0542 
L 377.748183 257.774702 
L 382.316938 260.495203 
L 386.885693 263.215705 
L 391.454449 265.936206 
L 396.023204 268.656707 
L 400.591959 271.377209 
L 405.160715 274.09771 
L 409.72947 276.818212 
L 414.298225 279.538713 
L 418.86698 282.259214 
L 423.435736 284.979716 
L 428.004491 287.700217 
L 432.573246 290.420719 
L 437.142002 293.14122 
L 441.710757 295.861722 
L 446.279512 298.582223 
L 450.848268 301.302724 
L 455.417023 304.023226 
L 459.985778 306.743727 
L 464.554533 309.464229 
L 469.123289 312.18473 
L 473.692044 314.905232 
L 478.260799 317.625733 
L 482.829555 320.346234 
L 487.39831 323.066736 
L 491.967065 325.787237 
L 496.53582 328.507739 
L 501.104576 331.22824 
L 505.673331 333.948741 
L 510.242086 336.669243 
L 514.810842 339.389744 
L 519.379597 342.110246 
L 523.948352 344.830747 
L 528.517108 347.551249 
L 533.085863 350.27175 
" clip-path="url(#pf054e0c965)" style="fill: none; stroke-dasharray: 1.5,2.475; stroke-dashoffset: 0; stroke: #808080; stroke-opacity: 0.5; stroke-width: 1.5"/>
   </g>
   <g id="line2d_25">
    <path d="M 80.779089 90.885429 
L 216.936995 105.734471 
L 296.584264 119.863678 
L 353.094901 135.135921 
L 396.927957 119.318063 
L 432.742171 116.746049 
L 463.022657 123.853087 
L 489.252807 97.652261 
L 512.38944 109.719253 
L 533.085863 50.87175 
" clip-path="url(#pf054e0c965)" style="fill: none; stroke: #4c72b0; stroke-width: 1.8; stroke-linecap: round"/>
    <defs>
     <path id="m2c6a6f6c38" d="M 0 4 
C 1.060812 4 2.078319 3.578535 2.828427 2.828427 
C 3.578535 2.078319 4 1.060812 4 0 
C 4 -1.060812 3.578535 -2.078319 2.828427 -2.828427 
C 2.078319 -3.578535 1.060812 -4 0 -4 
C -1.060812 -4 -2.078319 -3.578535 -2.828427 -2.828427 
C -3.578535 -2.078319 -4 -1.060812 -4 0 
C -4 1.060812 -3.578535 2.078319 -2.828427 2.828427 
C -2.078319 3.578535 -1.060812 4 0 4 
z
" style="stroke: #4c72b0"/>
    </defs>
    <g clip-path="url(#pf054e0c965)">
     <use xlink:href="#m2c6a6f6c38" x="80.779089" y="90.885429" style="fill: #4c72b0; stroke: #4c72b0"/>
     <use xlink:href="#m2c6a6f6c38" x="216.936995" y="105.734471" style="fill: #4c72b0; stroke: #4c72b0"/>
     <use xlink:href="#m2c6a6f6c38" x="296.584264" y="119.863678" style="fill: #4c72b0; stroke: #4c72b0"/>
     <use xlink:href="#m2c6a6f6c38" x="353.094901" y="135.135921" style="fill: #4c72b0; stroke: #4c72b0"/>
     <use xlink:href="#m2c6a6f6c38" x="396.927957" y="119.318063" style="fill: #4c72b0; stroke: #4c72b0"/>
     <use xlink:href="#m2c6a6f6c38" x="432.742171" y="116.746049" style="fill: #4c72b0; stroke: #4c72b0"/>
     <use xlink:href="#m2c6a6f6c38" x="463.022657" y="123.853087" style="fill: #4c72b0; stroke: #4c72b0"/>
     <use xlink:href="#m2c6a6f6c38" x="489.252807" y="97.652261" style="fill: #4c72b0; stroke: #4c72b0"/>
     <use xlink:href="#m2c6a6f6c38" x="512.38944" y="109.719253" style="fill: #4c72b0; stroke: #4c72b0"/>
     <use xlink:href="#m2c6a6f6c38" x="533.085863" y="50.87175" style="fill: #4c72b0; stroke: #4c72b0"/>
    </g>
   </g>
   <g id="patch_3">
    <path d="M 58.16375 365.24175 
L 58.16375 35.90175 
" style="fill: none; stroke: #cccccc; stroke-width: 1.25; stroke-linejoin: miter; stroke-linecap: square"/>
   </g>
   <g id="patch_4">
    <path d="M 555.701202 365.24175 
L 555.701202 35.90175 
" style="fill: none; stroke: #cccccc; stroke-width: 1.25; stroke-linejoin: miter; stroke-linecap: square"/>
   </g>
   <g id="patch_5">
    <path d="M 58.16375 365.24175 
L 555.701202 365.24175 
" style="fill: none; stroke: #cccccc; stroke-width: 1.25; stroke-linejoin: miter; stroke-linecap: square"/>
   </g>
   <g id="patch_6">
    <path d="M 58.16375 35.90175 
L 555.701202 35.90175 
" style="fill: none; stroke: #cccccc; stroke-width: 1.25; stroke-linejoin: miter; stroke-linecap: square"/>
   </g>
   <g id="text_7">
    <!-- N-Scaling at $\theta=5.00$: -->
    <g style="fill: #262626" transform="translate(242.252476 16.44) scale(0.12 -0.12)">
     <defs>
      <path id="DejaVuSans-4e" d="M 628 4666 
L 1478 4666 
L 3547 763 
L 3547 4666 
L 4159 4666 
L 4159 0 
L 3309 0 
L 1241 3903 
L 1241 0 
L 628 0 
L 628 4666 
z
" transform="scale(0.015625)"/>
      <path id="DejaVuSans-2d" d="M 313 2009 
L 1997 2009 
L 1997 1497 
L 313 1497 
L 313 2009 
z
" transform="scale(0.015625)"/>
      <path id="DejaVuSans-53" d="M 3425 4513 
L 3425 3897 
Q 3066 4069 2747 4153 
Q 2428 4238 2131 4238 
Q 1616 4238 1336 4038 
Q 1056 3838 1056 3469 
Q 1056 3159 1242 3001 
Q 1428 2844 1947 2747 
L 2328 2669 
Q 3034 2534 3370 2195 
Q 3706 1856 3706 1288 
Q 3706 609 3251 259 
Q 2797 -91 1919 -91 
Q 1588 -91 1214 -16 
Q 841 59 441 206 
L 441 856 
Q 825 641 1194 531 
Q 1563 422 1919 422 
Q 2459 422 2753 634 
Q 3047 847 3047 1241 
Q 3047 1584 2836 1778 
Q 2625 1972 2144 2069 
L 1759 2144 
Q 1053 2284 737 2584 
Q 422 2884 422 3419 
Q 422 4038 858 4394 
Q 1294 4750 2059 4750 
Q 2388 4750 2728 4690 
Q 3069 4631 3425 4513 
z
" transform="scale(0.015625)"/>
      <path id="DejaVuSans-6e" d="M 3513 2113 
L 3513 0 
L 2938 0 
L 2938 2094 
Q 2938 2591 2744 2837 
Q 2550 3084 2163 3084 
Q 1697 3084 1428 2787 
Q 1159 2491 1159 1978 
L 1159 0 
L 581 0 
L 581 3500 
L 1159 3500 
L 1159 2956 
Q 1366 3272 1645 3428 
Q 1925 3584 2291 3584 
Q 2894 3584 3203 3211 
Q 3513 2838 3513 2113 
z
" transform="scale(0.015625)"/>
      <path id="DejaVuSans-67" d="M 2906 1791 
Q 2906 2416 2648 2759 
Q 2391 3103 1925 3103 
Q 1463 3103 1205 2759 
Q 947 2416 947 1791 
Q 947 1169 1205 825 
Q 1463 481 1925 481 
Q 2391 481 2648 825 
Q 2906 1169 2906 1791 
z
M 3481 434 
Q 3481 -459 3084 -895 
Q 2688 -1331 1869 -1331 
Q 1566 -1331 1297 -1286 
Q 1028 -1241 775 -1147 
L 775 -588 
Q 1028 -725 1275 -790 
Q 1522 -856 1778 -856 
Q 2344 -856 2625 -561 
Q 2906 -266 2906 331 
L 2906 616 
Q 2728 306 2450 153 
Q 2172 0 1784 0 
Q 1141 0 747 490 
Q 353 981 353 1791 
Q 353 2603 747 3093 
Q 1141 3584 1784 3584 
Q 2172 3584 2450 3431 
Q 2728 3278 2906 2969 
L 2906 3500 
L 3481 3500 
L 3481 434 
z
" transform="scale(0.015625)"/>
      <path id="DejaVuSans-3d" d="M 678 2906 
L 4684 2906 
L 4684 2381 
L 678 2381 
L 678 2906 
z
M 678 1631 
L 4684 1631 
L 4684 1100 
L 678 1100 
L 678 1631 
z
" transform="scale(0.015625)"/>
      <path id="DejaVuSans-35" d="M 691 4666 
L 3169 4666 
L 3169 4134 
L 1269 4134 
L 1269 2991 
Q 1406 3038 1543 3061 
Q 1681 3084 1819 3084 
Q 2600 3084 3056 2656 
Q 3513 2228 3513 1497 
Q 3513 744 3044 326 
Q 2575 -91 1722 -91 
Q 1428 -91 1123 -41 
Q 819 9 494 109 
L 494 744 
Q 775 591 1075 516 
Q 1375 441 1709 441 
Q 2250 441 2565 725 
Q 2881 1009 2881 1497 
Q 2881 1984 2565 2268 
Q 2250 2553 1709 2553 
Q 1456 2553 1204 2497 
Q 953 2441 691 2322 
L 691 4666 
z
" transform="scale(0.015625)"/>
      <path id="DejaVuSans-2e" d="M 684 794 
L 1344 794 
L 1344 0 
L 684 0 
L 684 794 
z
" transform="scale(0.015625)"/>
      <path id="DejaVuSans-3a" d="M 750 794 
L 1409 794 
L 1409 0 
L 750 0 
L 750 794 
z
M 750 3309 
L 1409 3309 
L 1409 2516 
L 750 2516 
L 750 3309 
z
" transform="scale(0.015625)"/>
     </defs>
     <use xlink:href="#DejaVuSans-4e" transform="translate(0 0.234375)"/>
     <use xlink:href="#DejaVuSans-2d" transform="translate(74.804688 0.234375)"/>
     <use xlink:href="#DejaVuSans-53" transform="translate(110.888672 0.234375)"/>
     <use xlink:href="#DejaVuSans-63" transform="translate(174.365234 0.234375)"/>
     <use xlink:href="#DejaVuSans-61" transform="translate(229.345703 0.234375)"/>
     <use xlink:href="#DejaVuSans-6c" transform="translate(290.625 0.234375)"/>
     <use xlink:href="#DejaVuSans-69" transform="translate(318.408203 0.234375)"/>
     <use xlink:href="#DejaVuSans-6e" transform="translate(346.191406 0.234375)"/>
     <use xlink:href="#DejaVuSans-67" transform="translate(409.570312 0.234375)"/>
     <use xlink:href="#DejaVuSans-20" transform="translate(473.046875 0.234375)"/>
     <use xlink:href="#DejaVuSans-61" transform="translate(504.833984 0.234375)"/>
     <use xlink:href="#DejaVuSans-74" transform="translate(566.113281 0.234375)"/>
     <use xlink:href="#DejaVuSans-20" transform="translate(605.322266 0.234375)"/>
     <use xlink:href="#DejaVuSans-Oblique-3b8" transform="translate(637.109375 0.234375)"/>
     <use xlink:href="#DejaVuSans-3d" transform="translate(717.773438 0.234375)"/>
     <use xlink:href="#DejaVuSans-35" transform="translate(821.044922 0.234375)"/>
     <use xlink:href="#DejaVuSans-2e" transform="translate(884.667969 0.234375)"/>
     <use xlink:href="#DejaVuSans-30" transform="translate(916.455078 0.234375)"/>
     <use xlink:href="#DejaVuSans-30" transform="translate(980.078125 0.234375)"/>
     <use xlink:href="#DejaVuSans-3a" transform="translate(1043.701172 0.234375)"/>
    </g>
    <!-- dual MZI -->
    <g style="fill: #262626" transform="translate(281.013413 29.90175) scale(0.12 -0.12)">
     <defs>
      <path id="DejaVuSans-64" d="M 2906 2969 
L 2906 4863 
L 3481 4863 
L 3481 0 
L 2906 0 
L 2906 525 
Q 2725 213 2448 61 
Q 2172 -91 1784 -91 
Q 1150 -91 751 415 
Q 353 922 353 1747 
Q 353 2572 751 3078 
Q 1150 3584 1784 3584 
Q 2172 3584 2448 3432 
Q 2725 3281 2906 2969 
z
M 947 1747 
Q 947 1113 1208 752 
Q 1469 391 1925 391 
Q 2381 391 2643 752 
Q 2906 1113 2906 1747 
Q 2906 2381 2643 2742 
Q 2381 3103 1925 3103 
Q 1469 3103 1208 2742 
Q 947 2381 947 1747 
z
" transform="scale(0.015625)"/>
      <path id="DejaVuSans-4d" d="M 628 4666 
L 1569 4666 
L 2759 1491 
L 3956 4666 
L 4897 4666 
L 4897 0 
L 4281 0 
L 4281 4097 
L 3078 897 
L 2444 897 
L 1241 4097 
L 1241 0 
L 628 0 
L 628 4666 
z
" transform="scale(0.015625)"/>
      <path id="DejaVuSans-5a" d="M 359 4666 
L 4025 4666 
L 4025 4184 
L 1075 531 
L 4097 531 
L 4097 0 
L 288 0 
L 288 481 
L 3238 4134 
L 359 4134 
L 359 4666 
z
" transform="scale(0.015625)"/>
      <path id="DejaVuSans-49" d="M 628 4666 
L 1259 4666 
L 1259 0 
L 628 0 
L 628 4666 
z
" transform="scale(0.015625)"/>
     </defs>
     <use xlink:href="#DejaVuSans-64"/>
     <use xlink:href="#DejaVuSans-75" transform="translate(63.476562 0)"/>
     <use xlink:href="#DejaVuSans-61" transform="translate(126.855469 0)"/>
     <use xlink:href="#DejaVuSans-6c" transform="translate(188.134766 0)"/>
     <use xlink:href="#DejaVuSans-20" transform="translate(215.917969 0)"/>
     <use xlink:href="#DejaVuSans-4d" transform="translate(247.705078 0)"/>
     <use xlink:href="#DejaVuSans-5a" transform="translate(333.984375 0)"/>
     <use xlink:href="#DejaVuSans-49" transform="translate(402.490234 0)"/>
    </g>
   </g>
   <g id="legend_1">
    <g id="patch_7">
     <path d="M 65.16375 360.24175 
L 170.36375 360.24175 
Q 172.36375 360.24175 172.36375 358.24175 
L 172.36375 314.0855 
Q 172.36375 312.0855 170.36375 312.0855 
L 65.16375 312.0855 
Q 63.16375 312.0855 63.16375 314.0855 
L 63.16375 358.24175 
Q 63.16375 360.24175 65.16375 360.24175 
z
" style="fill: #ffffff; opacity: 0.8; stroke: #cccccc; stroke-linejoin: miter"/>
    </g>
    <g id="line2d_26">
     <path d="M 67.16375 320.183938 
L 77.16375 320.183938 
L 87.16375 320.183938 
" style="fill: none; stroke-dasharray: 5.55,2.4; stroke-dashoffset: 0; stroke: #808080; stroke-opacity: 0.7; stroke-width: 1.5"/>
    </g>
    <g id="text_8">
     <!-- SQL -->
     <g style="fill: #262626" transform="translate(95.16375 323.683938) scale(0.1 -0.1)">
      <defs>
       <path id="DejaVuSans-51" d="M 2522 4238 
Q 1834 4238 1429 3725 
Q 1025 3213 1025 2328 
Q 1025 1447 1429 934 
Q 1834 422 2522 422 
Q 3209 422 3611 934 
Q 4013 1447 4013 2328 
Q 4013 3213 3611 3725 
Q 3209 4238 2522 4238 
z
M 3406 84 
L 4238 -825 
L 3475 -825 
L 2784 -78 
Q 2681 -84 2626 -87 
Q 2572 -91 2522 -91 
Q 1538 -91 948 567 
Q 359 1225 359 2328 
Q 359 3434 948 4092 
Q 1538 4750 2522 4750 
Q 3503 4750 4090 4092 
Q 4678 3434 4678 2328 
Q 4678 1516 4351 937 
Q 4025 359 3406 84 
z
" transform="scale(0.015625)"/>
       <path id="DejaVuSans-4c" d="M 628 4666 
L 1259 4666 
L 1259 531 
L 3531 531 
L 3531 0 
L 628 0 
L 628 4666 
z
" transform="scale(0.015625)"/>
      </defs>
      <use xlink:href="#DejaVuSans-53"/>
      <use xlink:href="#DejaVuSans-51" transform="translate(63.476562 0)"/>
      <use xlink:href="#DejaVuSans-4c" transform="translate(142.1875 0)"/>
     </g>
    </g>
    <g id="line2d_27">
     <path d="M 67.16375 334.862062 
L 77.16375 334.862062 
L 87.16375 334.862062 
" style="fill: none; stroke-dasharray: 1.5,2.475; stroke-dashoffset: 0; stroke: #808080; stroke-opacity: 0.5; stroke-width: 1.5"/>
    </g>
    <g id="text_9">
     <!-- HL -->
     <g style="fill: #262626" transform="translate(95.16375 338.362062) scale(0.1 -0.1)">
      <defs>
       <path id="DejaVuSans-48" d="M 628 4666 
L 1259 4666 
L 1259 2753 
L 3553 2753 
L 3553 4666 
L 4184 4666 
L 4184 0 
L 3553 0 
L 3553 2222 
L 1259 2222 
L 1259 0 
L 628 0 
L 628 4666 
z
" transform="scale(0.015625)"/>
      </defs>
      <use xlink:href="#DejaVuSans-48"/>
      <use xlink:href="#DejaVuSans-4c" transform="translate(75.195312 0)"/>
     </g>
    </g>
    <g id="line2d_28">
     <path d="M 67.16375 349.64175 
L 77.16375 349.64175 
L 87.16375 349.64175 
" style="fill: none; stroke: #4c72b0; stroke-width: 1.8; stroke-linecap: round"/>
     <g>
      <use xlink:href="#m2c6a6f6c38" x="77.16375" y="349.64175" style="fill: #4c72b0; stroke: #4c72b0"/>
     </g>
    </g>
    <g id="text_10">
     <!-- $\Delta\theta_{\mathrm{opt}}(\theta=5.00)$ -->
     <g style="fill: #262626" transform="translate(95.16375 353.14175) scale(0.1 -0.1)">
      <defs>
       <path id="DejaVuSans-6f" d="M 1959 3097 
Q 1497 3097 1228 2736 
Q 959 2375 959 1747 
Q 959 1119 1226 758 
Q 1494 397 1959 397 
Q 2419 397 2687 759 
Q 2956 1122 2956 1747 
Q 2956 2369 2687 2733 
Q 2419 3097 1959 3097 
z
M 1959 3584 
Q 2709 3584 3137 3096 
Q 3566 2609 3566 1747 
Q 3566 888 3137 398 
Q 2709 -91 1959 -91 
Q 1206 -91 779 398 
Q 353 888 353 1747 
Q 353 2609 779 3096 
Q 1206 3584 1959 3584 
z
" transform="scale(0.015625)"/>
      </defs>
      <use xlink:href="#DejaVuSans-394" transform="translate(0 0.234375)"/>
      <use xlink:href="#DejaVuSans-Oblique-3b8" transform="translate(68.408203 0.234375)"/>
      <use xlink:href="#DejaVuSans-6f" transform="translate(129.589844 -16.171875) scale(0.7)"/>
      <use xlink:href="#DejaVuSans-70" transform="translate(172.416992 -16.171875) scale(0.7)"/>
      <use xlink:href="#DejaVuSans-74" transform="translate(216.850586 -16.171875) scale(0.7)"/>
      <use xlink:href="#DejaVuSans-28" transform="translate(247.03125 0.234375)"/>
      <use xlink:href="#DejaVuSans-Oblique-3b8" transform="translate(286.044922 0.234375)"/>
      <use xlink:href="#DejaVuSans-3d" transform="translate(366.708984 0.234375)"/>
      <use xlink:href="#DejaVuSans-35" transform="translate(469.980469 0.234375)"/>
      <use xlink:href="#DejaVuSans-2e" transform="translate(533.603516 0.234375)"/>
      <use xlink:href="#DejaVuSans-30" transform="translate(565.390625 0.234375)"/>
      <use xlink:href="#DejaVuSans-30" transform="translate(629.013672 0.234375)"/>
      <use xlink:href="#DejaVuSans-29" transform="translate(692.636719 0.234375)"/>
     </g>
    </g>
   </g>
  </g>
 </g>
 <defs>
  <clipPath id="pf054e0c965">
   <rect x="58.16375" y="35.90175" width="497.537452" height="329.34"/>
  </clipPath>
 </defs>
</svg>
