<?xml version="1.0" encoding="utf-8" standalone="no"?>
<!DOCTYPE svg PUBLIC "-//W3C//DTD SVG 1.1//EN"
  "http://www.w3.org/Graphics/SVG/1.1/DTD/svg11.dtd">
<svg xmlns:xlink="http://www.w3.org/1999/xlink" width="851.134896pt" height="564.833156pt" viewBox="0 0 851.134896 564.833156" xmlns="http://www.w3.org/2000/svg" version="1.1">
 <metadata>
  <rdf:RDF xmlns:dc="http://purl.org/dc/elements/1.1/" xmlns:cc="http://creativecommons.org/ns#" xmlns:rdf="http://www.w3.org/1999/02/22-rdf-syntax-ns#">
   <cc:Work>
    <dc:type rdf:resource="http://purl.org/dc/dcmitype/StillImage"/>
    <dc:date>2026-06-29T05:35:48.410573</dc:date>
    <dc:format>image/svg+xml</dc:format>
    <dc:creator>
     <cc:Agent>
      <dc:title>Matplotlib v3.10.9, https://matplotlib.org/</dc:title>
     </cc:Agent>
    </dc:creator>
   </cc:Work>
  </rdf:RDF>
 </metadata>
 <defs>
  <style type="text/css">*{stroke-linejoin: round; stroke-linecap: butt}</style>
 </defs>
 <g id="figure_1">
  <g id="patch_1">
   <path d="M 0 564.833156 
L 851.134896 564.833156 
L 851.134896 0 
L 0 0 
z
" style="fill: #ffffff"/>
  </g>
  <g id="axes_1">
   <g id="patch_2">
    <path d="M 49.491563 523.405656 
L 827.471181 523.405656 
L 827.471181 24.597656 
L 49.491563 24.597656 
z
" style="fill: #ffffff"/>
   </g>
   <g id="matplotlib.axis_1">
    <g id="xtick_1">
     <g id="line2d_1">
      <path d="M 74.705766 523.405656 
L 74.705766 24.597656 
" clip-path="url(#p7141a20e0b)" style="fill: none; stroke: #b0b0b0; stroke-opacity: 0.3; stroke-width: 0.8; stroke-linecap: square"/>
     </g>
     <g id="line2d_2">
      <defs>
       <path id="m0cc2a77ce5" d="M 0 0 
L 0 3.5 
" style="stroke: #000000; stroke-width: 0.8"/>
      </defs>
      <g>
       <use xlink:href="#m0cc2a77ce5" x="74.705766" y="523.405656" style="stroke: #000000; stroke-width: 0.8"/>
      </g>
     </g>
     <g id="text_1">
      <!-- $\mathdefault{10^{0}}$ -->
      <g transform="translate(65.905766 538.004094) scale(0.1 -0.1)">
       <defs>
        <path id="DejaVuSans-31" d="M 794 531 
L 1825 531 
L 1825 4091 
L 703 3866 
L 703 4441 
L 1819 4666 
L 2450 4666 
L 2450 531 
L 3481 531 
L 3481 0 
L 794 0 
L 794 531 
z
" transform="scale(0.015625)"/>
        <path id="DejaVuSans-30" d="M 2034 4250 
Q 1547 4250 1301 3770 
Q 1056 3291 1056 2328 
Q 1056 1369 1301 889 
Q 1547 409 2034 409 
Q 2525 409 2770 889 
Q 3016 1369 3016 2328 
Q 3016 3291 2770 3770 
Q 2525 4250 2034 4250 
z
M 2034 4750 
Q 2819 4750 3233 4129 
Q 3647 3509 3647 2328 
Q 3647 1150 3233 529 
Q 2819 -91 2034 -91 
Q 1250 -91 836 529 
Q 422 1150 422 2328 
Q 422 3509 836 4129 
Q 1250 4750 2034 4750 
z
" transform="scale(0.015625)"/>
       </defs>
       <use xlink:href="#DejaVuSans-31" transform="translate(0 0.765625)"/>
       <use xlink:href="#DejaVuSans-30" transform="translate(63.623047 0.765625)"/>
       <use xlink:href="#DejaVuSans-30" transform="translate(128.203125 39.046875) scale(0.7)"/>
      </g>
     </g>
    </g>
    <g id="xtick_2">
     <g id="line2d_3">
      <path d="M 625.745669 523.405656 
L 625.745669 24.597656 
" clip-path="url(#p7141a20e0b)" style="fill: none; stroke: #b0b0b0; stroke-opacity: 0.3; stroke-width: 0.8; stroke-linecap: square"/>
     </g>
     <g id="line2d_4">
      <g>
       <use xlink:href="#m0cc2a77ce5" x="625.745669" y="523.405656" style="stroke: #000000; stroke-width: 0.8"/>
      </g>
     </g>
     <g id="text_2">
      <!-- $\mathdefault{10^{1}}$ -->
      <g transform="translate(616.945669 538.004094) scale(0.1 -0.1)">
       <use xlink:href="#DejaVuSans-31" transform="translate(0 0.684375)"/>
       <use xlink:href="#DejaVuSans-30" transform="translate(63.623047 0.684375)"/>
       <use xlink:href="#DejaVuSans-31" transform="translate(128.203125 38.965625) scale(0.7)"/>
      </g>
     </g>
    </g>
    <g id="xtick_3">
     <g id="line2d_5">
      <defs>
       <path id="m6125280e15" d="M 0 0 
L 0 2 
" style="stroke: #000000; stroke-width: 0.6"/>
      </defs>
      <g>
       <use xlink:href="#m6125280e15" x="49.491563" y="523.405656" style="stroke: #000000; stroke-width: 0.6"/>
      </g>
     </g>
    </g>
    <g id="xtick_4">
     <g id="line2d_6">
      <g>
       <use xlink:href="#m6125280e15" x="240.585305" y="523.405656" style="stroke: #000000; stroke-width: 0.6"/>
      </g>
     </g>
    </g>
    <g id="xtick_5">
     <g id="line2d_7">
      <g>
       <use xlink:href="#m6125280e15" x="337.618616" y="523.405656" style="stroke: #000000; stroke-width: 0.6"/>
      </g>
     </g>
    </g>
    <g id="xtick_6">
     <g id="line2d_8">
      <g>
       <use xlink:href="#m6125280e15" x="406.464845" y="523.405656" style="stroke: #000000; stroke-width: 0.6"/>
      </g>
     </g>
    </g>
    <g id="xtick_7">
     <g id="line2d_9">
      <g>
       <use xlink:href="#m6125280e15" x="459.866129" y="523.405656" style="stroke: #000000; stroke-width: 0.6"/>
      </g>
     </g>
    </g>
    <g id="xtick_8">
     <g id="line2d_10">
      <g>
       <use xlink:href="#m6125280e15" x="503.498155" y="523.405656" style="stroke: #000000; stroke-width: 0.6"/>
      </g>
     </g>
    </g>
    <g id="xtick_9">
     <g id="line2d_11">
      <g>
       <use xlink:href="#m6125280e15" x="540.388508" y="523.405656" style="stroke: #000000; stroke-width: 0.6"/>
      </g>
     </g>
    </g>
    <g id="xtick_10">
     <g id="line2d_12">
      <g>
       <use xlink:href="#m6125280e15" x="572.344385" y="523.405656" style="stroke: #000000; stroke-width: 0.6"/>
      </g>
     </g>
    </g>
    <g id="xtick_11">
     <g id="line2d_13">
      <g>
       <use xlink:href="#m6125280e15" x="600.531466" y="523.405656" style="stroke: #000000; stroke-width: 0.6"/>
      </g>
     </g>
    </g>
    <g id="xtick_12">
     <g id="line2d_14">
      <g>
       <use xlink:href="#m6125280e15" x="791.625209" y="523.405656" style="stroke: #000000; stroke-width: 0.6"/>
      </g>
     </g>
    </g>
    <g id="text_3">
     <!-- N (system particles) -->
     <g transform="translate(367.97934 554.721594) scale(0.14 -0.14)">
      <defs>
       <path id="DejaVuSans-4e" d="M 628 4666 
L 1478 4666 
L 3547 763 
L 3547 4666 
L 4159 4666 
L 4159 0 
L 3309 0 
L 1241 3903 
L 1241 0 
L 628 0 
L 628 4666 
z
" transform="scale(0.015625)"/>
       <path id="DejaVuSans-20" transform="scale(0.015625)"/>
       <path id="DejaVuSans-28" d="M 1984 4856 
Q 1566 4138 1362 3434 
Q 1159 2731 1159 2009 
Q 1159 1288 1364 580 
Q 1569 -128 1984 -844 
L 1484 -844 
Q 1016 -109 783 600 
Q 550 1309 550 2009 
Q 550 2706 781 3412 
Q 1013 4119 1484 4856 
L 1984 4856 
z
" transform="scale(0.015625)"/>
       <path id="DejaVuSans-73" d="M 2834 3397 
L 2834 2853 
Q 2591 2978 2328 3040 
Q 2066 3103 1784 3103 
Q 1356 3103 1142 2972 
Q 928 2841 928 2578 
Q 928 2378 1081 2264 
Q 1234 2150 1697 2047 
L 1894 2003 
Q 2506 1872 2764 1633 
Q 3022 1394 3022 966 
Q 3022 478 2636 193 
Q 2250 -91 1575 -91 
Q 1294 -91 989 -36 
Q 684 19 347 128 
L 347 722 
Q 666 556 975 473 
Q 1284 391 1588 391 
Q 1994 391 2212 530 
Q 2431 669 2431 922 
Q 2431 1156 2273 1281 
Q 2116 1406 1581 1522 
L 1381 1569 
Q 847 1681 609 1914 
Q 372 2147 372 2553 
Q 372 3047 722 3315 
Q 1072 3584 1716 3584 
Q 2034 3584 2315 3537 
Q 2597 3491 2834 3397 
z
" transform="scale(0.015625)"/>
       <path id="DejaVuSans-79" d="M 2059 -325 
Q 1816 -950 1584 -1140 
Q 1353 -1331 966 -1331 
L 506 -1331 
L 506 -850 
L 844 -850 
Q 1081 -850 1212 -737 
Q 1344 -625 1503 -206 
L 1606 56 
L 191 3500 
L 800 3500 
L 1894 763 
L 2988 3500 
L 3597 3500 
L 2059 -325 
z
" transform="scale(0.015625)"/>
       <path id="DejaVuSans-74" d="M 1172 4494 
L 1172 3500 
L 2356 3500 
L 2356 3053 
L 1172 3053 
L 1172 1153 
Q 1172 725 1289 603 
Q 1406 481 1766 481 
L 2356 481 
L 2356 0 
L 1766 0 
Q 1100 0 847 248 
Q 594 497 594 1153 
L 594 3053 
L 172 3053 
L 172 3500 
L 594 3500 
L 594 4494 
L 1172 4494 
z
" transform="scale(0.015625)"/>
       <path id="DejaVuSans-65" d="M 3597 1894 
L 3597 1613 
L 953 1613 
Q 991 1019 1311 708 
Q 1631 397 2203 397 
Q 2534 397 2845 478 
Q 3156 559 3463 722 
L 3463 178 
Q 3153 47 2828 -22 
Q 2503 -91 2169 -91 
Q 1331 -91 842 396 
Q 353 884 353 1716 
Q 353 2575 817 3079 
Q 1281 3584 2069 3584 
Q 2775 3584 3186 3129 
Q 3597 2675 3597 1894 
z
M 3022 2063 
Q 3016 2534 2758 2815 
Q 2500 3097 2075 3097 
Q 1594 3097 1305 2825 
Q 1016 2553 972 2059 
L 3022 2063 
z
" transform="scale(0.015625)"/>
       <path id="DejaVuSans-6d" d="M 3328 2828 
Q 3544 3216 3844 3400 
Q 4144 3584 4550 3584 
Q 5097 3584 5394 3201 
Q 5691 2819 5691 2113 
L 5691 0 
L 5113 0 
L 5113 2094 
Q 5113 2597 4934 2840 
Q 4756 3084 4391 3084 
Q 3944 3084 3684 2787 
Q 3425 2491 3425 1978 
L 3425 0 
L 2847 0 
L 2847 2094 
Q 2847 2600 2669 2842 
Q 2491 3084 2119 3084 
Q 1678 3084 1418 2786 
Q 1159 2488 1159 1978 
L 1159 0 
L 581 0 
L 581 3500 
L 1159 3500 
L 1159 2956 
Q 1356 3278 1631 3431 
Q 1906 3584 2284 3584 
Q 2666 3584 2933 3390 
Q 3200 3197 3328 2828 
z
" transform="scale(0.015625)"/>
       <path id="DejaVuSans-70" d="M 1159 525 
L 1159 -1331 
L 581 -1331 
L 581 3500 
L 1159 3500 
L 1159 2969 
Q 1341 3281 1617 3432 
Q 1894 3584 2278 3584 
Q 2916 3584 3314 3078 
Q 3713 2572 3713 1747 
Q 3713 922 3314 415 
Q 2916 -91 2278 -91 
Q 1894 -91 1617 61 
Q 1341 213 1159 525 
z
M 3116 1747 
Q 3116 2381 2855 2742 
Q 2594 3103 2138 3103 
Q 1681 3103 1420 2742 
Q 1159 2381 1159 1747 
Q 1159 1113 1420 752 
Q 1681 391 2138 391 
Q 2594 391 2855 752 
Q 3116 1113 3116 1747 
z
" transform="scale(0.015625)"/>
       <path id="DejaVuSans-61" d="M 2194 1759 
Q 1497 1759 1228 1600 
Q 959 1441 959 1056 
Q 959 750 1161 570 
Q 1363 391 1709 391 
Q 2188 391 2477 730 
Q 2766 1069 2766 1631 
L 2766 1759 
L 2194 1759 
z
M 3341 1997 
L 3341 0 
L 2766 0 
L 2766 531 
Q 2569 213 2275 61 
Q 1981 -91 1556 -91 
Q 1019 -91 701 211 
Q 384 513 384 1019 
Q 384 1609 779 1909 
Q 1175 2209 1959 2209 
L 2766 2209 
L 2766 2266 
Q 2766 2663 2505 2880 
Q 2244 3097 1772 3097 
Q 1472 3097 1187 3025 
Q 903 2953 641 2809 
L 641 3341 
Q 956 3463 1253 3523 
Q 1550 3584 1831 3584 
Q 2591 3584 2966 3190 
Q 3341 2797 3341 1997 
z
" transform="scale(0.015625)"/>
       <path id="DejaVuSans-72" d="M 2631 2963 
Q 2534 3019 2420 3045 
Q 2306 3072 2169 3072 
Q 1681 3072 1420 2755 
Q 1159 2438 1159 1844 
L 1159 0 
L 581 0 
L 581 3500 
L 1159 3500 
L 1159 2956 
Q 1341 3275 1631 3429 
Q 1922 3584 2338 3584 
Q 2397 3584 2469 3576 
Q 2541 3569 2628 3553 
L 2631 2963 
z
" transform="scale(0.015625)"/>
       <path id="DejaVuSans-69" d="M 603 3500 
L 1178 3500 
L 1178 0 
L 603 0 
L 603 3500 
z
M 603 4863 
L 1178 4863 
L 1178 4134 
L 603 4134 
L 603 4863 
z
" transform="scale(0.015625)"/>
       <path id="DejaVuSans-63" d="M 3122 3366 
L 3122 2828 
Q 2878 2963 2633 3030 
Q 2388 3097 2138 3097 
Q 1578 3097 1268 2742 
Q 959 2388 959 1747 
Q 959 1106 1268 751 
Q 1578 397 2138 397 
Q 2388 397 2633 464 
Q 2878 531 3122 666 
L 3122 134 
Q 2881 22 2623 -34 
Q 2366 -91 2075 -91 
Q 1284 -91 818 406 
Q 353 903 353 1747 
Q 353 2603 823 3093 
Q 1294 3584 2113 3584 
Q 2378 3584 2631 3529 
Q 2884 3475 3122 3366 
z
" transform="scale(0.015625)"/>
       <path id="DejaVuSans-6c" d="M 603 4863 
L 1178 4863 
L 1178 0 
L 603 0 
L 603 4863 
z
" transform="scale(0.015625)"/>
       <path id="DejaVuSans-29" d="M 513 4856 
L 1013 4856 
Q 1481 4119 1714 3412 
Q 1947 2706 1947 2009 
Q 1947 1309 1714 600 
Q 1481 -109 1013 -844 
L 513 -844 
Q 928 -128 1133 580 
Q 1338 1288 1338 2009 
Q 1338 2731 1133 3434 
Q 928 4138 513 4856 
z
" transform="scale(0.015625)"/>
      </defs>
      <use xlink:href="#DejaVuSans-4e"/>
      <use xlink:href="#DejaVuSans-20" transform="translate(74.804688 0)"/>
      <use xlink:href="#DejaVuSans-28" transform="translate(106.591797 0)"/>
      <use xlink:href="#DejaVuSans-73" transform="translate(145.605469 0)"/>
      <use xlink:href="#DejaVuSans-79" transform="translate(197.705078 0)"/>
      <use xlink:href="#DejaVuSans-73" transform="translate(256.884766 0)"/>
      <use xlink:href="#DejaVuSans-74" transform="translate(308.984375 0)"/>
      <use xlink:href="#DejaVuSans-65" transform="translate(348.193359 0)"/>
      <use xlink:href="#DejaVuSans-6d" transform="translate(409.716797 0)"/>
      <use xlink:href="#DejaVuSans-20" transform="translate(507.128906 0)"/>
      <use xlink:href="#DejaVuSans-70" transform="translate(538.916016 0)"/>
      <use xlink:href="#DejaVuSans-61" transform="translate(602.392578 0)"/>
      <use xlink:href="#DejaVuSans-72" transform="translate(663.671875 0)"/>
      <use xlink:href="#DejaVuSans-74" transform="translate(704.785156 0)"/>
      <use xlink:href="#DejaVuSans-69" transform="translate(743.994141 0)"/>
      <use xlink:href="#DejaVuSans-63" transform="translate(771.777344 0)"/>
      <use xlink:href="#DejaVuSans-6c" transform="translate(826.757812 0)"/>
      <use xlink:href="#DejaVuSans-65" transform="translate(854.541016 0)"/>
      <use xlink:href="#DejaVuSans-73" transform="translate(916.064453 0)"/>
      <use xlink:href="#DejaVuSans-29" transform="translate(968.164062 0)"/>
     </g>
    </g>
   </g>
   <g id="matplotlib.axis_2">
    <g id="ytick_1">
     <g id="line2d_15">
      <path d="M 49.491563 352.751213 
L 827.471181 352.751213 
" clip-path="url(#p7141a20e0b)" style="fill: none; stroke: #b0b0b0; stroke-opacity: 0.3; stroke-width: 0.8; stroke-linecap: square"/>
     </g>
     <g id="line2d_16">
      <defs>
       <path id="mc2e4bf73ff" d="M 0 0 
L -3.5 0 
" style="stroke: #000000; stroke-width: 0.8"/>
      </defs>
      <g>
       <use xlink:href="#mc2e4bf73ff" x="49.491563" y="352.751213" style="stroke: #000000; stroke-width: 0.8"/>
      </g>
     </g>
     <g id="text_4">
      <!-- $\mathdefault{10^{0}}$ -->
      <g transform="translate(24.891563 356.550432) scale(0.1 -0.1)">
       <use xlink:href="#DejaVuSans-31" transform="translate(0 0.765625)"/>
       <use xlink:href="#DejaVuSans-30" transform="translate(63.623047 0.765625)"/>
       <use xlink:href="#DejaVuSans-30" transform="translate(128.203125 39.046875) scale(0.7)"/>
      </g>
     </g>
    </g>
    <g id="ytick_2">
     <g id="line2d_17">
      <defs>
       <path id="md33404202a" d="M 0 0 
L -2 0 
" style="stroke: #000000; stroke-width: 0.6"/>
      </defs>
      <g>
       <use xlink:href="#md33404202a" x="49.491563" y="492.606182" style="stroke: #000000; stroke-width: 0.6"/>
      </g>
     </g>
    </g>
    <g id="ytick_3">
     <g id="line2d_18">
      <g>
       <use xlink:href="#md33404202a" x="49.491563" y="458.547413" style="stroke: #000000; stroke-width: 0.6"/>
      </g>
     </g>
    </g>
    <g id="ytick_4">
     <g id="line2d_19">
      <g>
       <use xlink:href="#md33404202a" x="49.491563" y="430.719372" style="stroke: #000000; stroke-width: 0.6"/>
      </g>
     </g>
    </g>
    <g id="ytick_5">
     <g id="line2d_20">
      <g>
       <use xlink:href="#md33404202a" x="49.491563" y="407.191099" style="stroke: #000000; stroke-width: 0.6"/>
      </g>
     </g>
    </g>
    <g id="ytick_6">
     <g id="line2d_21">
      <g>
       <use xlink:href="#md33404202a" x="49.491563" y="386.809982" style="stroke: #000000; stroke-width: 0.6"/>
      </g>
     </g>
    </g>
    <g id="ytick_7">
     <g id="line2d_22">
      <g>
       <use xlink:href="#md33404202a" x="49.491563" y="368.832563" style="stroke: #000000; stroke-width: 0.6"/>
      </g>
     </g>
    </g>
    <g id="ytick_8">
     <g id="line2d_23">
      <g>
       <use xlink:href="#md33404202a" x="49.491563" y="246.955014" style="stroke: #000000; stroke-width: 0.6"/>
      </g>
     </g>
    </g>
    <g id="ytick_9">
     <g id="line2d_24">
      <g>
       <use xlink:href="#md33404202a" x="49.491563" y="185.068204" style="stroke: #000000; stroke-width: 0.6"/>
      </g>
     </g>
    </g>
    <g id="ytick_10">
     <g id="line2d_25">
      <g>
       <use xlink:href="#md33404202a" x="49.491563" y="141.158814" style="stroke: #000000; stroke-width: 0.6"/>
      </g>
     </g>
    </g>
    <g id="ytick_11">
     <g id="line2d_26">
      <g>
       <use xlink:href="#md33404202a" x="49.491563" y="107.100045" style="stroke: #000000; stroke-width: 0.6"/>
      </g>
     </g>
    </g>
    <g id="ytick_12">
     <g id="line2d_27">
      <g>
       <use xlink:href="#md33404202a" x="49.491563" y="79.272004" style="stroke: #000000; stroke-width: 0.6"/>
      </g>
     </g>
    </g>
    <g id="ytick_13">
     <g id="line2d_28">
      <g>
       <use xlink:href="#md33404202a" x="49.491563" y="55.743731" style="stroke: #000000; stroke-width: 0.6"/>
      </g>
     </g>
    </g>
    <g id="ytick_14">
     <g id="line2d_29">
      <g>
       <use xlink:href="#md33404202a" x="49.491563" y="35.362614" style="stroke: #000000; stroke-width: 0.6"/>
      </g>
     </g>
    </g>
    <g id="text_5">
     <!-- R = Δω_SQL / Δω -->
     <g transform="translate(17.590625 334.642437) rotate(-90) scale(0.14 -0.14)">
      <defs>
       <path id="DejaVuSans-52" d="M 2841 2188 
Q 3044 2119 3236 1894 
Q 3428 1669 3622 1275 
L 4263 0 
L 3584 0 
L 2988 1197 
Q 2756 1666 2539 1819 
Q 2322 1972 1947 1972 
L 1259 1972 
L 1259 0 
L 628 0 
L 628 4666 
L 2053 4666 
Q 2853 4666 3247 4331 
Q 3641 3997 3641 3322 
Q 3641 2881 3436 2590 
Q 3231 2300 2841 2188 
z
M 1259 4147 
L 1259 2491 
L 2053 2491 
Q 2509 2491 2742 2702 
Q 2975 2913 2975 3322 
Q 2975 3731 2742 3939 
Q 2509 4147 2053 4147 
L 1259 4147 
z
" transform="scale(0.015625)"/>
       <path id="DejaVuSans-3d" d="M 678 2906 
L 4684 2906 
L 4684 2381 
L 678 2381 
L 678 2906 
z
M 678 1631 
L 4684 1631 
L 4684 1100 
L 678 1100 
L 678 1631 
z
" transform="scale(0.015625)"/>
       <path id="DejaVuSans-394" d="M 2188 4044 
L 906 525 
L 3472 525 
L 2188 4044 
z
M 50 0 
L 1831 4666 
L 2547 4666 
L 4325 0 
L 50 0 
z
" transform="scale(0.015625)"/>
       <path id="DejaVuSans-3c9" d="M 1719 -91 
Q 422 -91 422 1766 
Q 422 2500 906 3500 
L 1525 3500 
Q 1078 2500 1078 1750 
Q 1078 397 1772 397 
Q 2406 397 2406 2078 
L 2938 2078 
Q 2938 397 3572 397 
Q 4266 397 4266 1750 
Q 4266 2500 3819 3500 
L 4438 3500 
Q 4922 2500 4922 1766 
Q 4922 -91 3625 -91 
Q 2775 -91 2672 844 
Q 2544 -91 1719 -91 
z
" transform="scale(0.015625)"/>
       <path id="DejaVuSans-5f" d="M 3263 -1063 
L 3263 -1509 
L -63 -1509 
L -63 -1063 
L 3263 -1063 
z
" transform="scale(0.015625)"/>
       <path id="DejaVuSans-53" d="M 3425 4513 
L 3425 3897 
Q 3066 4069 2747 4153 
Q 2428 4238 2131 4238 
Q 1616 4238 1336 4038 
Q 1056 3838 1056 3469 
Q 1056 3159 1242 3001 
Q 1428 2844 1947 2747 
L 2328 2669 
Q 3034 2534 3370 2195 
Q 3706 1856 3706 1288 
Q 3706 609 3251 259 
Q 2797 -91 1919 -91 
Q 1588 -91 1214 -16 
Q 841 59 441 206 
L 441 856 
Q 825 641 1194 531 
Q 1563 422 1919 422 
Q 2459 422 2753 634 
Q 3047 847 3047 1241 
Q 3047 1584 2836 1778 
Q 2625 1972 2144 2069 
L 1759 2144 
Q 1053 2284 737 2584 
Q 422 2884 422 3419 
Q 422 4038 858 4394 
Q 1294 4750 2059 4750 
Q 2388 4750 2728 4690 
Q 3069 4631 3425 4513 
z
" transform="scale(0.015625)"/>
       <path id="DejaVuSans-51" d="M 2522 4238 
Q 1834 4238 1429 3725 
Q 1025 3213 1025 2328 
Q 1025 1447 1429 934 
Q 1834 422 2522 422 
Q 3209 422 3611 934 
Q 4013 1447 4013 2328 
Q 4013 3213 3611 3725 
Q 3209 4238 2522 4238 
z
M 3406 84 
L 4238 -825 
L 3475 -825 
L 2784 -78 
Q 2681 -84 2626 -87 
Q 2572 -91 2522 -91 
Q 1538 -91 948 567 
Q 359 1225 359 2328 
Q 359 3434 948 4092 
Q 1538 4750 2522 4750 
Q 3503 4750 4090 4092 
Q 4678 3434 4678 2328 
Q 4678 1516 4351 937 
Q 4025 359 3406 84 
z
" transform="scale(0.015625)"/>
       <path id="DejaVuSans-4c" d="M 628 4666 
L 1259 4666 
L 1259 531 
L 3531 531 
L 3531 0 
L 628 0 
L 628 4666 
z
" transform="scale(0.015625)"/>
       <path id="DejaVuSans-2f" d="M 1625 4666 
L 2156 4666 
L 531 -594 
L 0 -594 
L 1625 4666 
z
" transform="scale(0.015625)"/>
      </defs>
      <use xlink:href="#DejaVuSans-52"/>
      <use xlink:href="#DejaVuSans-20" transform="translate(69.482422 0)"/>
      <use xlink:href="#DejaVuSans-3d" transform="translate(101.269531 0)"/>
      <use xlink:href="#DejaVuSans-20" transform="translate(185.058594 0)"/>
      <use xlink:href="#DejaVuSans-394" transform="translate(216.845703 0)"/>
      <use xlink:href="#DejaVuSans-3c9" transform="translate(285.253906 0)"/>
      <use xlink:href="#DejaVuSans-5f" transform="translate(368.994141 0)"/>
      <use xlink:href="#DejaVuSans-53" transform="translate(418.994141 0)"/>
      <use xlink:href="#DejaVuSans-51" transform="translate(482.470703 0)"/>
      <use xlink:href="#DejaVuSans-4c" transform="translate(561.181641 0)"/>
      <use xlink:href="#DejaVuSans-20" transform="translate(616.894531 0)"/>
      <use xlink:href="#DejaVuSans-2f" transform="translate(648.681641 0)"/>
      <use xlink:href="#DejaVuSans-20" transform="translate(682.373047 0)"/>
      <use xlink:href="#DejaVuSans-394" transform="translate(714.160156 0)"/>
      <use xlink:href="#DejaVuSans-3c9" transform="translate(782.568359 0)"/>
     </g>
    </g>
   </g>
   <g id="line2d_30">
    <path d="M 74.705766 52.066094 
L 240.585305 102.898682 
L 337.618616 132.039747 
L 406.464845 152.158312 
L 459.866129 167.367577 
L 503.498155 179.846413 
L 540.388508 191.925296 
L 572.344385 198.263832 
L 600.531466 205.670306 
L 625.745669 214.037708 
L 648.55469 222.101892 
L 669.377695 202.802468 
L 688.533003 228.908113 
L 706.268048 232.17478 
L 722.778979 254.070643 
L 738.223924 239.735341 
L 752.73222 228.456055 
L 766.411005 282.302671 
L 779.350026 255.038335 
L 791.625209 255.880788 
" clip-path="url(#p7141a20e0b)" style="fill: none; stroke: #1f77b4; stroke-width: 2; stroke-linecap: square"/>
    <defs>
     <path id="m49b41547f0" d="M 0 3 
C 0.795609 3 1.55874 2.683901 2.12132 2.12132 
C 2.683901 1.55874 3 0.795609 3 0 
C 3 -0.795609 2.683901 -1.55874 2.12132 -2.12132 
C 1.55874 -2.683901 0.795609 -3 0 -3 
C -0.795609 -3 -1.55874 -2.683901 -2.12132 -2.12132 
C -2.683901 -1.55874 -3 -0.795609 -3 0 
C -3 0.795609 -2.683901 1.55874 -2.12132 2.12132 
C -1.55874 2.683901 -0.795609 3 0 3 
z
" style="stroke: #1f77b4"/>
    </defs>
    <g clip-path="url(#p7141a20e0b)">
     <use xlink:href="#m49b41547f0" x="74.705766" y="52.066094" style="fill: #1f77b4; stroke: #1f77b4"/>
     <use xlink:href="#m49b41547f0" x="240.585305" y="102.898682" style="fill: #1f77b4; stroke: #1f77b4"/>
     <use xlink:href="#m49b41547f0" x="337.618616" y="132.039747" style="fill: #1f77b4; stroke: #1f77b4"/>
     <use xlink:href="#m49b41547f0" x="406.464845" y="152.158312" style="fill: #1f77b4; stroke: #1f77b4"/>
     <use xlink:href="#m49b41547f0" x="459.866129" y="167.367577" style="fill: #1f77b4; stroke: #1f77b4"/>
     <use xlink:href="#m49b41547f0" x="503.498155" y="179.846413" style="fill: #1f77b4; stroke: #1f77b4"/>
     <use xlink:href="#m49b41547f0" x="540.388508" y="191.925296" style="fill: #1f77b4; stroke: #1f77b4"/>
     <use xlink:href="#m49b41547f0" x="572.344385" y="198.263832" style="fill: #1f77b4; stroke: #1f77b4"/>
     <use xlink:href="#m49b41547f0" x="600.531466" y="205.670306" style="fill: #1f77b4; stroke: #1f77b4"/>
     <use xlink:href="#m49b41547f0" x="625.745669" y="214.037708" style="fill: #1f77b4; stroke: #1f77b4"/>
     <use xlink:href="#m49b41547f0" x="648.55469" y="222.101892" style="fill: #1f77b4; stroke: #1f77b4"/>
     <use xlink:href="#m49b41547f0" x="669.377695" y="202.802468" style="fill: #1f77b4; stroke: #1f77b4"/>
     <use xlink:href="#m49b41547f0" x="688.533003" y="228.908113" style="fill: #1f77b4; stroke: #1f77b4"/>
     <use xlink:href="#m49b41547f0" x="706.268048" y="232.17478" style="fill: #1f77b4; stroke: #1f77b4"/>
     <use xlink:href="#m49b41547f0" x="722.778979" y="254.070643" style="fill: #1f77b4; stroke: #1f77b4"/>
     <use xlink:href="#m49b41547f0" x="738.223924" y="239.735341" style="fill: #1f77b4; stroke: #1f77b4"/>
     <use xlink:href="#m49b41547f0" x="752.73222" y="228.456055" style="fill: #1f77b4; stroke: #1f77b4"/>
     <use xlink:href="#m49b41547f0" x="766.411005" y="282.302671" style="fill: #1f77b4; stroke: #1f77b4"/>
     <use xlink:href="#m49b41547f0" x="779.350026" y="255.038335" style="fill: #1f77b4; stroke: #1f77b4"/>
     <use xlink:href="#m49b41547f0" x="791.625209" y="255.880788" style="fill: #1f77b4; stroke: #1f77b4"/>
    </g>
   </g>
   <g id="line2d_31">
    <path d="M 74.705766 51.626729 
L 240.585305 102.515237 
L 337.618616 131.167312 
L 406.464845 151.560358 
L 459.866129 166.141649 
L 572.344385 197.367674 
L 625.745669 211.681688 
L 722.778979 254.384468 
L 791.625209 250.892085 
" clip-path="url(#p7141a20e0b)" style="fill: none; stroke-dasharray: 5.55,2.4; stroke-dashoffset: 0; stroke: #1f77b4; stroke-opacity: 0.6; stroke-width: 1.5"/>
    <defs>
     <path id="me724ac2357" d="M -2.5 2.5 
L 2.5 2.5 
L 2.5 -2.5 
L -2.5 -2.5 
z
" style="stroke: #1f77b4; stroke-opacity: 0.6; stroke-linejoin: miter"/>
    </defs>
    <g clip-path="url(#p7141a20e0b)">
     <use xlink:href="#me724ac2357" x="74.705766" y="51.626729" style="fill: #1f77b4; fill-opacity: 0.6; stroke: #1f77b4; stroke-opacity: 0.6; stroke-linejoin: miter"/>
     <use xlink:href="#me724ac2357" x="240.585305" y="102.515237" style="fill: #1f77b4; fill-opacity: 0.6; stroke: #1f77b4; stroke-opacity: 0.6; stroke-linejoin: miter"/>
     <use xlink:href="#me724ac2357" x="337.618616" y="131.167312" style="fill: #1f77b4; fill-opacity: 0.6; stroke: #1f77b4; stroke-opacity: 0.6; stroke-linejoin: miter"/>
     <use xlink:href="#me724ac2357" x="406.464845" y="151.560358" style="fill: #1f77b4; fill-opacity: 0.6; stroke: #1f77b4; stroke-opacity: 0.6; stroke-linejoin: miter"/>
     <use xlink:href="#me724ac2357" x="459.866129" y="166.141649" style="fill: #1f77b4; fill-opacity: 0.6; stroke: #1f77b4; stroke-opacity: 0.6; stroke-linejoin: miter"/>
     <use xlink:href="#me724ac2357" x="572.344385" y="197.367674" style="fill: #1f77b4; fill-opacity: 0.6; stroke: #1f77b4; stroke-opacity: 0.6; stroke-linejoin: miter"/>
     <use xlink:href="#me724ac2357" x="625.745669" y="211.681688" style="fill: #1f77b4; fill-opacity: 0.6; stroke: #1f77b4; stroke-opacity: 0.6; stroke-linejoin: miter"/>
     <use xlink:href="#me724ac2357" x="722.778979" y="254.384468" style="fill: #1f77b4; fill-opacity: 0.6; stroke: #1f77b4; stroke-opacity: 0.6; stroke-linejoin: miter"/>
     <use xlink:href="#me724ac2357" x="791.625209" y="250.892085" style="fill: #1f77b4; fill-opacity: 0.6; stroke: #1f77b4; stroke-opacity: 0.6; stroke-linejoin: miter"/>
    </g>
   </g>
   <g id="line2d_32">
    <path d="M 74.705766 52.482984 
L 240.585305 103.423917 
L 337.618616 133.390698 
L 406.464845 153.260243 
L 459.866129 168.652998 
L 572.344385 201.548896 
L 625.745669 215.994192 
L 722.778979 259.941216 
L 791.625209 259.277674 
" clip-path="url(#p7141a20e0b)" style="fill: none; stroke-dasharray: 5.55,2.4; stroke-dashoffset: 0; stroke: #1f77b4; stroke-opacity: 0.6; stroke-width: 1.5"/>
    <defs>
     <path id="m16cf440bf0" d="M 0 -2.5 
L -2.5 2.5 
L 2.5 2.5 
z
" style="stroke: #1f77b4; stroke-opacity: 0.6; stroke-linejoin: miter"/>
    </defs>
    <g clip-path="url(#p7141a20e0b)">
     <use xlink:href="#m16cf440bf0" x="74.705766" y="52.482984" style="fill: #1f77b4; fill-opacity: 0.6; stroke: #1f77b4; stroke-opacity: 0.6; stroke-linejoin: miter"/>
     <use xlink:href="#m16cf440bf0" x="240.585305" y="103.423917" style="fill: #1f77b4; fill-opacity: 0.6; stroke: #1f77b4; stroke-opacity: 0.6; stroke-linejoin: miter"/>
     <use xlink:href="#m16cf440bf0" x="337.618616" y="133.390698" style="fill: #1f77b4; fill-opacity: 0.6; stroke: #1f77b4; stroke-opacity: 0.6; stroke-linejoin: miter"/>
     <use xlink:href="#m16cf440bf0" x="406.464845" y="153.260243" style="fill: #1f77b4; fill-opacity: 0.6; stroke: #1f77b4; stroke-opacity: 0.6; stroke-linejoin: miter"/>
     <use xlink:href="#m16cf440bf0" x="459.866129" y="168.652998" style="fill: #1f77b4; fill-opacity: 0.6; stroke: #1f77b4; stroke-opacity: 0.6; stroke-linejoin: miter"/>
     <use xlink:href="#m16cf440bf0" x="572.344385" y="201.548896" style="fill: #1f77b4; fill-opacity: 0.6; stroke: #1f77b4; stroke-opacity: 0.6; stroke-linejoin: miter"/>
     <use xlink:href="#m16cf440bf0" x="625.745669" y="215.994192" style="fill: #1f77b4; fill-opacity: 0.6; stroke: #1f77b4; stroke-opacity: 0.6; stroke-linejoin: miter"/>
     <use xlink:href="#m16cf440bf0" x="722.778979" y="259.941216" style="fill: #1f77b4; fill-opacity: 0.6; stroke: #1f77b4; stroke-opacity: 0.6; stroke-linejoin: miter"/>
     <use xlink:href="#m16cf440bf0" x="791.625209" y="259.277674" style="fill: #1f77b4; fill-opacity: 0.6; stroke: #1f77b4; stroke-opacity: 0.6; stroke-linejoin: miter"/>
    </g>
   </g>
   <g id="line2d_33">
    <path d="M 74.705766 52.690609 
L 240.585305 71.919792 
L 337.618616 72.066735 
L 406.464845 70.487898 
L 459.866129 70.097764 
L 503.498155 70.472226 
L 540.388508 103.830953 
L 572.344385 218.081493 
" clip-path="url(#p7141a20e0b)" style="fill: none; stroke: #2ca02c; stroke-width: 2; stroke-linecap: square"/>
    <defs>
     <path id="m390244eeb8" d="M 0 3 
C 0.795609 3 1.55874 2.683901 2.12132 2.12132 
C 2.683901 1.55874 3 0.795609 3 0 
C 3 -0.795609 2.683901 -1.55874 2.12132 -2.12132 
C 1.55874 -2.683901 0.795609 -3 0 -3 
C -0.795609 -3 -1.55874 -2.683901 -2.12132 -2.12132 
C -2.683901 -1.55874 -3 -0.795609 -3 0 
C -3 0.795609 -2.683901 1.55874 -2.12132 2.12132 
C -1.55874 2.683901 -0.795609 3 0 3 
z
" style="stroke: #2ca02c"/>
    </defs>
    <g clip-path="url(#p7141a20e0b)">
     <use xlink:href="#m390244eeb8" x="74.705766" y="52.690609" style="fill: #2ca02c; stroke: #2ca02c"/>
     <use xlink:href="#m390244eeb8" x="240.585305" y="71.919792" style="fill: #2ca02c; stroke: #2ca02c"/>
     <use xlink:href="#m390244eeb8" x="337.618616" y="72.066735" style="fill: #2ca02c; stroke: #2ca02c"/>
     <use xlink:href="#m390244eeb8" x="406.464845" y="70.487898" style="fill: #2ca02c; stroke: #2ca02c"/>
     <use xlink:href="#m390244eeb8" x="459.866129" y="70.097764" style="fill: #2ca02c; stroke: #2ca02c"/>
     <use xlink:href="#m390244eeb8" x="503.498155" y="70.472226" style="fill: #2ca02c; stroke: #2ca02c"/>
     <use xlink:href="#m390244eeb8" x="540.388508" y="103.830953" style="fill: #2ca02c; stroke: #2ca02c"/>
     <use xlink:href="#m390244eeb8" x="572.344385" y="218.081493" style="fill: #2ca02c; stroke: #2ca02c"/>
    </g>
   </g>
   <g id="line2d_34">
    <path d="M 74.705766 51.626836 
L 240.585305 53.523158 
L 337.618616 52.685089 
L 406.464845 70.183448 
L 459.866129 65.959927 
L 503.498155 47.270747 
L 540.388508 82.419589 
L 572.344385 58.730279 
" clip-path="url(#p7141a20e0b)" style="fill: none; stroke-dasharray: 5.55,2.4; stroke-dashoffset: 0; stroke: #2ca02c; stroke-opacity: 0.6; stroke-width: 1.5"/>
    <defs>
     <path id="m0ffd0c19c4" d="M -2.5 2.5 
L 2.5 2.5 
L 2.5 -2.5 
L -2.5 -2.5 
z
" style="stroke: #2ca02c; stroke-opacity: 0.6; stroke-linejoin: miter"/>
    </defs>
    <g clip-path="url(#p7141a20e0b)">
     <use xlink:href="#m0ffd0c19c4" x="74.705766" y="51.626836" style="fill: #2ca02c; fill-opacity: 0.6; stroke: #2ca02c; stroke-opacity: 0.6; stroke-linejoin: miter"/>
     <use xlink:href="#m0ffd0c19c4" x="240.585305" y="53.523158" style="fill: #2ca02c; fill-opacity: 0.6; stroke: #2ca02c; stroke-opacity: 0.6; stroke-linejoin: miter"/>
     <use xlink:href="#m0ffd0c19c4" x="337.618616" y="52.685089" style="fill: #2ca02c; fill-opacity: 0.6; stroke: #2ca02c; stroke-opacity: 0.6; stroke-linejoin: miter"/>
     <use xlink:href="#m0ffd0c19c4" x="406.464845" y="70.183448" style="fill: #2ca02c; fill-opacity: 0.6; stroke: #2ca02c; stroke-opacity: 0.6; stroke-linejoin: miter"/>
     <use xlink:href="#m0ffd0c19c4" x="459.866129" y="65.959927" style="fill: #2ca02c; fill-opacity: 0.6; stroke: #2ca02c; stroke-opacity: 0.6; stroke-linejoin: miter"/>
     <use xlink:href="#m0ffd0c19c4" x="503.498155" y="47.270747" style="fill: #2ca02c; fill-opacity: 0.6; stroke: #2ca02c; stroke-opacity: 0.6; stroke-linejoin: miter"/>
     <use xlink:href="#m0ffd0c19c4" x="540.388508" y="82.419589" style="fill: #2ca02c; fill-opacity: 0.6; stroke: #2ca02c; stroke-opacity: 0.6; stroke-linejoin: miter"/>
     <use xlink:href="#m0ffd0c19c4" x="572.344385" y="58.730279" style="fill: #2ca02c; fill-opacity: 0.6; stroke: #2ca02c; stroke-opacity: 0.6; stroke-linejoin: miter"/>
    </g>
   </g>
   <g id="line2d_35">
    <path d="M 74.705766 56.104323 
L 240.585305 96.349436 
L 337.618616 87.067359 
L 406.464845 79.282815 
L 459.866129 86.17056 
L 503.498155 103.362408 
L 540.388508 133.166105 
" clip-path="url(#p7141a20e0b)" style="fill: none; stroke-dasharray: 5.55,2.4; stroke-dashoffset: 0; stroke: #2ca02c; stroke-opacity: 0.6; stroke-width: 1.5"/>
    <defs>
     <path id="mb91c664e34" d="M 0 -2.5 
L -2.5 2.5 
L 2.5 2.5 
z
" style="stroke: #2ca02c; stroke-opacity: 0.6; stroke-linejoin: miter"/>
    </defs>
    <g clip-path="url(#p7141a20e0b)">
     <use xlink:href="#mb91c664e34" x="74.705766" y="56.104323" style="fill: #2ca02c; fill-opacity: 0.6; stroke: #2ca02c; stroke-opacity: 0.6; stroke-linejoin: miter"/>
     <use xlink:href="#mb91c664e34" x="240.585305" y="96.349436" style="fill: #2ca02c; fill-opacity: 0.6; stroke: #2ca02c; stroke-opacity: 0.6; stroke-linejoin: miter"/>
     <use xlink:href="#mb91c664e34" x="337.618616" y="87.067359" style="fill: #2ca02c; fill-opacity: 0.6; stroke: #2ca02c; stroke-opacity: 0.6; stroke-linejoin: miter"/>
     <use xlink:href="#mb91c664e34" x="406.464845" y="79.282815" style="fill: #2ca02c; fill-opacity: 0.6; stroke: #2ca02c; stroke-opacity: 0.6; stroke-linejoin: miter"/>
     <use xlink:href="#mb91c664e34" x="459.866129" y="86.17056" style="fill: #2ca02c; fill-opacity: 0.6; stroke: #2ca02c; stroke-opacity: 0.6; stroke-linejoin: miter"/>
     <use xlink:href="#mb91c664e34" x="503.498155" y="103.362408" style="fill: #2ca02c; fill-opacity: 0.6; stroke: #2ca02c; stroke-opacity: 0.6; stroke-linejoin: miter"/>
     <use xlink:href="#mb91c664e34" x="540.388508" y="133.166105" style="fill: #2ca02c; fill-opacity: 0.6; stroke: #2ca02c; stroke-opacity: 0.6; stroke-linejoin: miter"/>
    </g>
   </g>
   <g id="line2d_36">
    <path d="M 74.705766 172.065935 
L 240.585305 285.373043 
L 337.618616 340.531338 
L 406.464845 500.732565 
L 459.866129 357.655615 
L 503.498155 382.889923 
L 540.388508 352.751213 
L 572.344385 425.008163 
L 600.531466 317.479317 
L 625.745669 352.751213 
L 648.55469 352.751213 
L 669.377695 352.751213 
L 688.533003 352.751213 
L 706.268048 352.751213 
L 722.778979 352.751213 
L 738.223924 337.892848 
L 752.73222 328.698104 
L 766.411005 339.139325 
L 779.350026 352.751213 
L 791.625209 352.751213 
" clip-path="url(#p7141a20e0b)" style="fill: none; stroke-dasharray: 1,1.65; stroke-dashoffset: 0; stroke: #ff7f0e; stroke-opacity: 0.5"/>
    <defs>
     <path id="m6ab2c9af4a" d="M -0 2.828427 
L 1.697056 0 
L 0 -2.828427 
L -1.697056 -0 
z
" style="stroke: #ff7f0e; stroke-opacity: 0.5; stroke-linejoin: miter"/>
    </defs>
    <g clip-path="url(#p7141a20e0b)">
     <use xlink:href="#m6ab2c9af4a" x="74.705766" y="172.065935" style="fill: #ff7f0e; fill-opacity: 0.5; stroke: #ff7f0e; stroke-opacity: 0.5; stroke-linejoin: miter"/>
     <use xlink:href="#m6ab2c9af4a" x="240.585305" y="285.373043" style="fill: #ff7f0e; fill-opacity: 0.5; stroke: #ff7f0e; stroke-opacity: 0.5; stroke-linejoin: miter"/>
     <use xlink:href="#m6ab2c9af4a" x="337.618616" y="340.531338" style="fill: #ff7f0e; fill-opacity: 0.5; stroke: #ff7f0e; stroke-opacity: 0.5; stroke-linejoin: miter"/>
     <use xlink:href="#m6ab2c9af4a" x="406.464845" y="500.732565" style="fill: #ff7f0e; fill-opacity: 0.5; stroke: #ff7f0e; stroke-opacity: 0.5; stroke-linejoin: miter"/>
     <use xlink:href="#m6ab2c9af4a" x="459.866129" y="357.655615" style="fill: #ff7f0e; fill-opacity: 0.5; stroke: #ff7f0e; stroke-opacity: 0.5; stroke-linejoin: miter"/>
     <use xlink:href="#m6ab2c9af4a" x="503.498155" y="382.889923" style="fill: #ff7f0e; fill-opacity: 0.5; stroke: #ff7f0e; stroke-opacity: 0.5; stroke-linejoin: miter"/>
     <use xlink:href="#m6ab2c9af4a" x="540.388508" y="352.751213" style="fill: #ff7f0e; fill-opacity: 0.5; stroke: #ff7f0e; stroke-opacity: 0.5; stroke-linejoin: miter"/>
     <use xlink:href="#m6ab2c9af4a" x="572.344385" y="425.008163" style="fill: #ff7f0e; fill-opacity: 0.5; stroke: #ff7f0e; stroke-opacity: 0.5; stroke-linejoin: miter"/>
     <use xlink:href="#m6ab2c9af4a" x="600.531466" y="317.479317" style="fill: #ff7f0e; fill-opacity: 0.5; stroke: #ff7f0e; stroke-opacity: 0.5; stroke-linejoin: miter"/>
     <use xlink:href="#m6ab2c9af4a" x="625.745669" y="352.751213" style="fill: #ff7f0e; fill-opacity: 0.5; stroke: #ff7f0e; stroke-opacity: 0.5; stroke-linejoin: miter"/>
     <use xlink:href="#m6ab2c9af4a" x="648.55469" y="352.751213" style="fill: #ff7f0e; fill-opacity: 0.5; stroke: #ff7f0e; stroke-opacity: 0.5; stroke-linejoin: miter"/>
     <use xlink:href="#m6ab2c9af4a" x="669.377695" y="352.751213" style="fill: #ff7f0e; fill-opacity: 0.5; stroke: #ff7f0e; stroke-opacity: 0.5; stroke-linejoin: miter"/>
     <use xlink:href="#m6ab2c9af4a" x="688.533003" y="352.751213" style="fill: #ff7f0e; fill-opacity: 0.5; stroke: #ff7f0e; stroke-opacity: 0.5; stroke-linejoin: miter"/>
     <use xlink:href="#m6ab2c9af4a" x="706.268048" y="352.751213" style="fill: #ff7f0e; fill-opacity: 0.5; stroke: #ff7f0e; stroke-opacity: 0.5; stroke-linejoin: miter"/>
     <use xlink:href="#m6ab2c9af4a" x="722.778979" y="352.751213" style="fill: #ff7f0e; fill-opacity: 0.5; stroke: #ff7f0e; stroke-opacity: 0.5; stroke-linejoin: miter"/>
     <use xlink:href="#m6ab2c9af4a" x="738.223924" y="337.892848" style="fill: #ff7f0e; fill-opacity: 0.5; stroke: #ff7f0e; stroke-opacity: 0.5; stroke-linejoin: miter"/>
     <use xlink:href="#m6ab2c9af4a" x="752.73222" y="328.698104" style="fill: #ff7f0e; fill-opacity: 0.5; stroke: #ff7f0e; stroke-opacity: 0.5; stroke-linejoin: miter"/>
     <use xlink:href="#m6ab2c9af4a" x="766.411005" y="339.139325" style="fill: #ff7f0e; fill-opacity: 0.5; stroke: #ff7f0e; stroke-opacity: 0.5; stroke-linejoin: miter"/>
     <use xlink:href="#m6ab2c9af4a" x="779.350026" y="352.751213" style="fill: #ff7f0e; fill-opacity: 0.5; stroke: #ff7f0e; stroke-opacity: 0.5; stroke-linejoin: miter"/>
     <use xlink:href="#m6ab2c9af4a" x="791.625209" y="352.751213" style="fill: #ff7f0e; fill-opacity: 0.5; stroke: #ff7f0e; stroke-opacity: 0.5; stroke-linejoin: miter"/>
    </g>
   </g>
   <g id="line2d_37">
    <path d="M 49.491563 352.751213 
L 827.471181 352.751213 
" clip-path="url(#p7141a20e0b)" style="fill: none; stroke-dasharray: 2,3.3; stroke-dashoffset: 0; stroke: #808080; stroke-opacity: 0.5; stroke-width: 2"/>
   </g>
   <g id="line2d_38">
    <path d="M 49.491563 117.195072 
L 827.471181 117.195072 
" clip-path="url(#p7141a20e0b)" style="fill: none; stroke-dasharray: 5.55,2.4; stroke-dashoffset: 0; stroke: #800080; stroke-opacity: 0.3; stroke-width: 1.5"/>
   </g>
   <g id="patch_3">
    <path d="M 49.491563 523.405656 
L 49.491563 24.597656 
" style="fill: none; stroke: #000000; stroke-width: 0.8; stroke-linejoin: miter; stroke-linecap: square"/>
   </g>
   <g id="patch_4">
    <path d="M 827.471181 523.405656 
L 827.471181 24.597656 
" style="fill: none; stroke: #000000; stroke-width: 0.8; stroke-linejoin: miter; stroke-linecap: square"/>
   </g>
   <g id="patch_5">
    <path d="M 49.491563 523.405656 
L 827.471181 523.405656 
" style="fill: none; stroke: #000000; stroke-width: 0.8; stroke-linejoin: miter; stroke-linecap: square"/>
   </g>
   <g id="patch_6">
    <path d="M 49.491563 24.597656 
L 827.471181 24.597656 
" style="fill: none; stroke: #000000; stroke-width: 0.8; stroke-linejoin: miter; stroke-linecap: square"/>
   </g>
   <g id="text_6">
    <!-- R(20)=1.89 -->
    <g style="fill: #1f77b4" transform="translate(791.625209 255.880788) scale(0.09 -0.09)">
     <defs>
      <path id="DejaVuSans-32" d="M 1228 531 
L 3431 531 
L 3431 0 
L 469 0 
L 469 531 
Q 828 903 1448 1529 
Q 2069 2156 2228 2338 
Q 2531 2678 2651 2914 
Q 2772 3150 2772 3378 
Q 2772 3750 2511 3984 
Q 2250 4219 1831 4219 
Q 1534 4219 1204 4116 
Q 875 4013 500 3803 
L 500 4441 
Q 881 4594 1212 4672 
Q 1544 4750 1819 4750 
Q 2544 4750 2975 4387 
Q 3406 4025 3406 3419 
Q 3406 3131 3298 2873 
Q 3191 2616 2906 2266 
Q 2828 2175 2409 1742 
Q 1991 1309 1228 531 
z
" transform="scale(0.015625)"/>
      <path id="DejaVuSans-2e" d="M 684 794 
L 1344 794 
L 1344 0 
L 684 0 
L 684 794 
z
" transform="scale(0.015625)"/>
      <path id="DejaVuSans-38" d="M 2034 2216 
Q 1584 2216 1326 1975 
Q 1069 1734 1069 1313 
Q 1069 891 1326 650 
Q 1584 409 2034 409 
Q 2484 409 2743 651 
Q 3003 894 3003 1313 
Q 3003 1734 2745 1975 
Q 2488 2216 2034 2216 
z
M 1403 2484 
Q 997 2584 770 2862 
Q 544 3141 544 3541 
Q 544 4100 942 4425 
Q 1341 4750 2034 4750 
Q 2731 4750 3128 4425 
Q 3525 4100 3525 3541 
Q 3525 3141 3298 2862 
Q 3072 2584 2669 2484 
Q 3125 2378 3379 2068 
Q 3634 1759 3634 1313 
Q 3634 634 3220 271 
Q 2806 -91 2034 -91 
Q 1263 -91 848 271 
Q 434 634 434 1313 
Q 434 1759 690 2068 
Q 947 2378 1403 2484 
z
M 1172 3481 
Q 1172 3119 1398 2916 
Q 1625 2713 2034 2713 
Q 2441 2713 2670 2916 
Q 2900 3119 2900 3481 
Q 2900 3844 2670 4047 
Q 2441 4250 2034 4250 
Q 1625 4250 1398 4047 
Q 1172 3844 1172 3481 
z
" transform="scale(0.015625)"/>
      <path id="DejaVuSans-39" d="M 703 97 
L 703 672 
Q 941 559 1184 500 
Q 1428 441 1663 441 
Q 2288 441 2617 861 
Q 2947 1281 2994 2138 
Q 2813 1869 2534 1725 
Q 2256 1581 1919 1581 
Q 1219 1581 811 2004 
Q 403 2428 403 3163 
Q 403 3881 828 4315 
Q 1253 4750 1959 4750 
Q 2769 4750 3195 4129 
Q 3622 3509 3622 2328 
Q 3622 1225 3098 567 
Q 2575 -91 1691 -91 
Q 1453 -91 1209 -44 
Q 966 3 703 97 
z
M 1959 2075 
Q 2384 2075 2632 2365 
Q 2881 2656 2881 3163 
Q 2881 3666 2632 3958 
Q 2384 4250 1959 4250 
Q 1534 4250 1286 3958 
Q 1038 3666 1038 3163 
Q 1038 2656 1286 2365 
Q 1534 2075 1959 2075 
z
" transform="scale(0.015625)"/>
     </defs>
     <use xlink:href="#DejaVuSans-52"/>
     <use xlink:href="#DejaVuSans-28" transform="translate(69.482422 0)"/>
     <use xlink:href="#DejaVuSans-32" transform="translate(108.496094 0)"/>
     <use xlink:href="#DejaVuSans-30" transform="translate(172.119141 0)"/>
     <use xlink:href="#DejaVuSans-29" transform="translate(235.742188 0)"/>
     <use xlink:href="#DejaVuSans-3d" transform="translate(274.755859 0)"/>
     <use xlink:href="#DejaVuSans-31" transform="translate(358.544922 0)"/>
     <use xlink:href="#DejaVuSans-2e" transform="translate(422.167969 0)"/>
     <use xlink:href="#DejaVuSans-38" transform="translate(453.955078 0)"/>
     <use xlink:href="#DejaVuSans-39" transform="translate(517.578125 0)"/>
    </g>
   </g>
   <g id="text_7">
    <!-- Combined Protocol: Free-Ancilla + Joint Measurement -->
    <g transform="translate(238.056762 18.597656) scale(0.15 -0.15)">
     <defs>
      <path id="DejaVuSans-43" d="M 4122 4306 
L 4122 3641 
Q 3803 3938 3442 4084 
Q 3081 4231 2675 4231 
Q 1875 4231 1450 3742 
Q 1025 3253 1025 2328 
Q 1025 1406 1450 917 
Q 1875 428 2675 428 
Q 3081 428 3442 575 
Q 3803 722 4122 1019 
L 4122 359 
Q 3791 134 3420 21 
Q 3050 -91 2638 -91 
Q 1578 -91 968 557 
Q 359 1206 359 2328 
Q 359 3453 968 4101 
Q 1578 4750 2638 4750 
Q 3056 4750 3426 4639 
Q 3797 4528 4122 4306 
z
" transform="scale(0.015625)"/>
      <path id="DejaVuSans-6f" d="M 1959 3097 
Q 1497 3097 1228 2736 
Q 959 2375 959 1747 
Q 959 1119 1226 758 
Q 1494 397 1959 397 
Q 2419 397 2687 759 
Q 2956 1122 2956 1747 
Q 2956 2369 2687 2733 
Q 2419 3097 1959 3097 
z
M 1959 3584 
Q 2709 3584 3137 3096 
Q 3566 2609 3566 1747 
Q 3566 888 3137 398 
Q 2709 -91 1959 -91 
Q 1206 -91 779 398 
Q 353 888 353 1747 
Q 353 2609 779 3096 
Q 1206 3584 1959 3584 
z
" transform="scale(0.015625)"/>
      <path id="DejaVuSans-62" d="M 3116 1747 
Q 3116 2381 2855 2742 
Q 2594 3103 2138 3103 
Q 1681 3103 1420 2742 
Q 1159 2381 1159 1747 
Q 1159 1113 1420 752 
Q 1681 391 2138 391 
Q 2594 391 2855 752 
Q 3116 1113 3116 1747 
z
M 1159 2969 
Q 1341 3281 1617 3432 
Q 1894 3584 2278 3584 
Q 2916 3584 3314 3078 
Q 3713 2572 3713 1747 
Q 3713 922 3314 415 
Q 2916 -91 2278 -91 
Q 1894 -91 1617 61 
Q 1341 213 1159 525 
L 1159 0 
L 581 0 
L 581 4863 
L 1159 4863 
L 1159 2969 
z
" transform="scale(0.015625)"/>
      <path id="DejaVuSans-6e" d="M 3513 2113 
L 3513 0 
L 2938 0 
L 2938 2094 
Q 2938 2591 2744 2837 
Q 2550 3084 2163 3084 
Q 1697 3084 1428 2787 
Q 1159 2491 1159 1978 
L 1159 0 
L 581 0 
L 581 3500 
L 1159 3500 
L 1159 2956 
Q 1366 3272 1645 3428 
Q 1925 3584 2291 3584 
Q 2894 3584 3203 3211 
Q 3513 2838 3513 2113 
z
" transform="scale(0.015625)"/>
      <path id="DejaVuSans-64" d="M 2906 2969 
L 2906 4863 
L 3481 4863 
L 3481 0 
L 2906 0 
L 2906 525 
Q 2725 213 2448 61 
Q 2172 -91 1784 -91 
Q 1150 -91 751 415 
Q 353 922 353 1747 
Q 353 2572 751 3078 
Q 1150 3584 1784 3584 
Q 2172 3584 2448 3432 
Q 2725 3281 2906 2969 
z
M 947 1747 
Q 947 1113 1208 752 
Q 1469 391 1925 391 
Q 2381 391 2643 752 
Q 2906 1113 2906 1747 
Q 2906 2381 2643 2742 
Q 2381 3103 1925 3103 
Q 1469 3103 1208 2742 
Q 947 2381 947 1747 
z
" transform="scale(0.015625)"/>
      <path id="DejaVuSans-50" d="M 1259 4147 
L 1259 2394 
L 2053 2394 
Q 2494 2394 2734 2622 
Q 2975 2850 2975 3272 
Q 2975 3691 2734 3919 
Q 2494 4147 2053 4147 
L 1259 4147 
z
M 628 4666 
L 2053 4666 
Q 2838 4666 3239 4311 
Q 3641 3956 3641 3272 
Q 3641 2581 3239 2228 
Q 2838 1875 2053 1875 
L 1259 1875 
L 1259 0 
L 628 0 
L 628 4666 
z
" transform="scale(0.015625)"/>
      <path id="DejaVuSans-3a" d="M 750 794 
L 1409 794 
L 1409 0 
L 750 0 
L 750 794 
z
M 750 3309 
L 1409 3309 
L 1409 2516 
L 750 2516 
L 750 3309 
z
" transform="scale(0.015625)"/>
      <path id="DejaVuSans-46" d="M 628 4666 
L 3309 4666 
L 3309 4134 
L 1259 4134 
L 1259 2759 
L 3109 2759 
L 3109 2228 
L 1259 2228 
L 1259 0 
L 628 0 
L 628 4666 
z
" transform="scale(0.015625)"/>
      <path id="DejaVuSans-2d" d="M 313 2009 
L 1997 2009 
L 1997 1497 
L 313 1497 
L 313 2009 
z
" transform="scale(0.015625)"/>
      <path id="DejaVuSans-41" d="M 2188 4044 
L 1331 1722 
L 3047 1722 
L 2188 4044 
z
M 1831 4666 
L 2547 4666 
L 4325 0 
L 3669 0 
L 3244 1197 
L 1141 1197 
L 716 0 
L 50 0 
L 1831 4666 
z
" transform="scale(0.015625)"/>
      <path id="DejaVuSans-2b" d="M 2944 4013 
L 2944 2272 
L 4684 2272 
L 4684 1741 
L 2944 1741 
L 2944 0 
L 2419 0 
L 2419 1741 
L 678 1741 
L 678 2272 
L 2419 2272 
L 2419 4013 
L 2944 4013 
z
" transform="scale(0.015625)"/>
      <path id="DejaVuSans-4a" d="M 628 4666 
L 1259 4666 
L 1259 325 
Q 1259 -519 939 -900 
Q 619 -1281 -91 -1281 
L -331 -1281 
L -331 -750 
L -134 -750 
Q 284 -750 456 -515 
Q 628 -281 628 325 
L 628 4666 
z
" transform="scale(0.015625)"/>
      <path id="DejaVuSans-4d" d="M 628 4666 
L 1569 4666 
L 2759 1491 
L 3956 4666 
L 4897 4666 
L 4897 0 
L 4281 0 
L 4281 4097 
L 3078 897 
L 2444 897 
L 1241 4097 
L 1241 0 
L 628 0 
L 628 4666 
z
" transform="scale(0.015625)"/>
      <path id="DejaVuSans-75" d="M 544 1381 
L 544 3500 
L 1119 3500 
L 1119 1403 
Q 1119 906 1312 657 
Q 1506 409 1894 409 
Q 2359 409 2629 706 
Q 2900 1003 2900 1516 
L 2900 3500 
L 3475 3500 
L 3475 0 
L 2900 0 
L 2900 538 
Q 2691 219 2414 64 
Q 2138 -91 1772 -91 
Q 1169 -91 856 284 
Q 544 659 544 1381 
z
M 1991 3584 
L 1991 3584 
z
" transform="scale(0.015625)"/>
     </defs>
     <use xlink:href="#DejaVuSans-43"/>
     <use xlink:href="#DejaVuSans-6f" transform="translate(69.824219 0)"/>
     <use xlink:href="#DejaVuSans-6d" transform="translate(131.005859 0)"/>
     <use xlink:href="#DejaVuSans-62" transform="translate(228.417969 0)"/>
     <use xlink:href="#DejaVuSans-69" transform="translate(291.894531 0)"/>
     <use xlink:href="#DejaVuSans-6e" transform="translate(319.677734 0)"/>
     <use xlink:href="#DejaVuSans-65" transform="translate(383.056641 0)"/>
     <use xlink:href="#DejaVuSans-64" transform="translate(444.580078 0)"/>
     <use xlink:href="#DejaVuSans-20" transform="translate(508.056641 0)"/>
     <use xlink:href="#DejaVuSans-50" transform="translate(539.84375 0)"/>
     <use xlink:href="#DejaVuSans-72" transform="translate(598.396484 0)"/>
     <use xlink:href="#DejaVuSans-6f" transform="translate(637.259766 0)"/>
     <use xlink:href="#DejaVuSans-74" transform="translate(698.441406 0)"/>
     <use xlink:href="#DejaVuSans-6f" transform="translate(737.650391 0)"/>
     <use xlink:href="#DejaVuSans-63" transform="translate(798.832031 0)"/>
     <use xlink:href="#DejaVuSans-6f" transform="translate(853.8125 0)"/>
     <use xlink:href="#DejaVuSans-6c" transform="translate(914.994141 0)"/>
     <use xlink:href="#DejaVuSans-3a" transform="translate(942.777344 0)"/>
     <use xlink:href="#DejaVuSans-20" transform="translate(976.46875 0)"/>
     <use xlink:href="#DejaVuSans-46" transform="translate(1008.255859 0)"/>
     <use xlink:href="#DejaVuSans-72" transform="translate(1058.525391 0)"/>
     <use xlink:href="#DejaVuSans-65" transform="translate(1097.388672 0)"/>
     <use xlink:href="#DejaVuSans-65" transform="translate(1158.912109 0)"/>
     <use xlink:href="#DejaVuSans-2d" transform="translate(1220.435547 0)"/>
     <use xlink:href="#DejaVuSans-41" transform="translate(1254.269531 0)"/>
     <use xlink:href="#DejaVuSans-6e" transform="translate(1322.677734 0)"/>
     <use xlink:href="#DejaVuSans-63" transform="translate(1386.056641 0)"/>
     <use xlink:href="#DejaVuSans-69" transform="translate(1441.037109 0)"/>
     <use xlink:href="#DejaVuSans-6c" transform="translate(1468.820312 0)"/>
     <use xlink:href="#DejaVuSans-6c" transform="translate(1496.603516 0)"/>
     <use xlink:href="#DejaVuSans-61" transform="translate(1524.386719 0)"/>
     <use xlink:href="#DejaVuSans-20" transform="translate(1585.666016 0)"/>
     <use xlink:href="#DejaVuSans-2b" transform="translate(1617.453125 0)"/>
     <use xlink:href="#DejaVuSans-20" transform="translate(1701.242188 0)"/>
     <use xlink:href="#DejaVuSans-4a" transform="translate(1733.029297 0)"/>
     <use xlink:href="#DejaVuSans-6f" transform="translate(1762.521484 0)"/>
     <use xlink:href="#DejaVuSans-69" transform="translate(1823.703125 0)"/>
     <use xlink:href="#DejaVuSans-6e" transform="translate(1851.486328 0)"/>
     <use xlink:href="#DejaVuSans-74" transform="translate(1914.865234 0)"/>
     <use xlink:href="#DejaVuSans-20" transform="translate(1954.074219 0)"/>
     <use xlink:href="#DejaVuSans-4d" transform="translate(1985.861328 0)"/>
     <use xlink:href="#DejaVuSans-65" transform="translate(2072.140625 0)"/>
     <use xlink:href="#DejaVuSans-61" transform="translate(2133.664062 0)"/>
     <use xlink:href="#DejaVuSans-73" transform="translate(2194.943359 0)"/>
     <use xlink:href="#DejaVuSans-75" transform="translate(2247.042969 0)"/>
     <use xlink:href="#DejaVuSans-72" transform="translate(2310.421875 0)"/>
     <use xlink:href="#DejaVuSans-65" transform="translate(2349.285156 0)"/>
     <use xlink:href="#DejaVuSans-6d" transform="translate(2410.808594 0)"/>
     <use xlink:href="#DejaVuSans-65" transform="translate(2508.220703 0)"/>
     <use xlink:href="#DejaVuSans-6e" transform="translate(2569.744141 0)"/>
     <use xlink:href="#DejaVuSans-74" transform="translate(2633.123047 0)"/>
    </g>
   </g>
   <g id="legend_1">
    <g id="patch_7">
     <path d="M 55.791563 518.905656 
L 378.054844 518.905656 
Q 379.854844 518.905656 379.854844 517.105656 
L 379.854844 451.954094 
Q 379.854844 450.154094 378.054844 450.154094 
L 55.791563 450.154094 
Q 53.991563 450.154094 53.991563 451.954094 
L 53.991563 517.105656 
Q 53.991563 518.905656 55.791563 518.905656 
z
" style="fill: #ffffff; opacity: 0.8; stroke: #cccccc; stroke-linejoin: miter"/>
    </g>
    <g id="line2d_39">
     <path d="M 57.591563 457.442687 
L 66.591563 457.442687 
L 75.591563 457.442687 
" style="fill: none; stroke: #1f77b4; stroke-width: 2; stroke-linecap: square"/>
     <g>
      <use xlink:href="#m49b41547f0" x="66.591563" y="457.442687" style="fill: #1f77b4; stroke: #1f77b4"/>
     </g>
    </g>
    <g id="text_8">
     <!-- J/2 + free A + joint M, ω=0.2 -->
     <g transform="translate(82.791563 460.592687) scale(0.09 -0.09)">
      <defs>
       <path id="DejaVuSans-66" d="M 2375 4863 
L 2375 4384 
L 1825 4384 
Q 1516 4384 1395 4259 
Q 1275 4134 1275 3809 
L 1275 3500 
L 2222 3500 
L 2222 3053 
L 1275 3053 
L 1275 0 
L 697 0 
L 697 3053 
L 147 3053 
L 147 3500 
L 697 3500 
L 697 3744 
Q 697 4328 969 4595 
Q 1241 4863 1831 4863 
L 2375 4863 
z
" transform="scale(0.015625)"/>
       <path id="DejaVuSans-6a" d="M 603 3500 
L 1178 3500 
L 1178 -63 
Q 1178 -731 923 -1031 
Q 669 -1331 103 -1331 
L -116 -1331 
L -116 -844 
L 38 -844 
Q 366 -844 484 -692 
Q 603 -541 603 -63 
L 603 3500 
z
M 603 4863 
L 1178 4863 
L 1178 4134 
L 603 4134 
L 603 4863 
z
" transform="scale(0.015625)"/>
       <path id="DejaVuSans-2c" d="M 750 794 
L 1409 794 
L 1409 256 
L 897 -744 
L 494 -744 
L 750 256 
L 750 794 
z
" transform="scale(0.015625)"/>
      </defs>
      <use xlink:href="#DejaVuSans-4a"/>
      <use xlink:href="#DejaVuSans-2f" transform="translate(29.492188 0)"/>
      <use xlink:href="#DejaVuSans-32" transform="translate(63.183594 0)"/>
      <use xlink:href="#DejaVuSans-20" transform="translate(126.806641 0)"/>
      <use xlink:href="#DejaVuSans-2b" transform="translate(158.59375 0)"/>
      <use xlink:href="#DejaVuSans-20" transform="translate(242.382812 0)"/>
      <use xlink:href="#DejaVuSans-66" transform="translate(274.169922 0)"/>
      <use xlink:href="#DejaVuSans-72" transform="translate(309.375 0)"/>
      <use xlink:href="#DejaVuSans-65" transform="translate(348.238281 0)"/>
      <use xlink:href="#DejaVuSans-65" transform="translate(409.761719 0)"/>
      <use xlink:href="#DejaVuSans-20" transform="translate(471.285156 0)"/>
      <use xlink:href="#DejaVuSans-41" transform="translate(503.072266 0)"/>
      <use xlink:href="#DejaVuSans-20" transform="translate(571.480469 0)"/>
      <use xlink:href="#DejaVuSans-2b" transform="translate(603.267578 0)"/>
      <use xlink:href="#DejaVuSans-20" transform="translate(687.056641 0)"/>
      <use xlink:href="#DejaVuSans-6a" transform="translate(718.84375 0)"/>
      <use xlink:href="#DejaVuSans-6f" transform="translate(746.626953 0)"/>
      <use xlink:href="#DejaVuSans-69" transform="translate(807.808594 0)"/>
      <use xlink:href="#DejaVuSans-6e" transform="translate(835.591797 0)"/>
      <use xlink:href="#DejaVuSans-74" transform="translate(898.970703 0)"/>
      <use xlink:href="#DejaVuSans-20" transform="translate(938.179688 0)"/>
      <use xlink:href="#DejaVuSans-4d" transform="translate(969.966797 0)"/>
      <use xlink:href="#DejaVuSans-2c" transform="translate(1056.246094 0)"/>
      <use xlink:href="#DejaVuSans-20" transform="translate(1088.033203 0)"/>
      <use xlink:href="#DejaVuSans-3c9" transform="translate(1119.820312 0)"/>
      <use xlink:href="#DejaVuSans-3d" transform="translate(1203.560547 0)"/>
      <use xlink:href="#DejaVuSans-30" transform="translate(1287.349609 0)"/>
      <use xlink:href="#DejaVuSans-2e" transform="translate(1350.972656 0)"/>
      <use xlink:href="#DejaVuSans-32" transform="translate(1382.759766 0)"/>
     </g>
    </g>
    <g id="line2d_40">
     <path d="M 57.591563 470.653 
L 66.591563 470.653 
L 75.591563 470.653 
" style="fill: none; stroke-dasharray: 5.55,2.4; stroke-dashoffset: 0; stroke: #1f77b4; stroke-opacity: 0.6; stroke-width: 1.5"/>
     <g>
      <use xlink:href="#me724ac2357" x="66.591563" y="470.653" style="fill: #1f77b4; fill-opacity: 0.6; stroke: #1f77b4; stroke-opacity: 0.6; stroke-linejoin: miter"/>
     </g>
    </g>
    <g id="text_9">
     <!-- J/2, ω=0.1 -->
     <g transform="translate(82.791563 473.803) scale(0.09 -0.09)">
      <use xlink:href="#DejaVuSans-4a"/>
      <use xlink:href="#DejaVuSans-2f" transform="translate(29.492188 0)"/>
      <use xlink:href="#DejaVuSans-32" transform="translate(63.183594 0)"/>
      <use xlink:href="#DejaVuSans-2c" transform="translate(126.806641 0)"/>
      <use xlink:href="#DejaVuSans-20" transform="translate(158.59375 0)"/>
      <use xlink:href="#DejaVuSans-3c9" transform="translate(190.380859 0)"/>
      <use xlink:href="#DejaVuSans-3d" transform="translate(274.121094 0)"/>
      <use xlink:href="#DejaVuSans-30" transform="translate(357.910156 0)"/>
      <use xlink:href="#DejaVuSans-2e" transform="translate(421.533203 0)"/>
      <use xlink:href="#DejaVuSans-31" transform="translate(453.320312 0)"/>
     </g>
    </g>
    <g id="line2d_41">
     <path d="M 57.591563 483.863312 
L 66.591563 483.863312 
L 75.591563 483.863312 
" style="fill: none; stroke-dasharray: 5.55,2.4; stroke-dashoffset: 0; stroke: #1f77b4; stroke-opacity: 0.6; stroke-width: 1.5"/>
     <g>
      <use xlink:href="#m16cf440bf0" x="66.591563" y="483.863312" style="fill: #1f77b4; fill-opacity: 0.6; stroke: #1f77b4; stroke-opacity: 0.6; stroke-linejoin: miter"/>
     </g>
    </g>
    <g id="text_10">
     <!-- J/2, ω=0.5 -->
     <g transform="translate(82.791563 487.013312) scale(0.09 -0.09)">
      <defs>
       <path id="DejaVuSans-35" d="M 691 4666 
L 3169 4666 
L 3169 4134 
L 1269 4134 
L 1269 2991 
Q 1406 3038 1543 3061 
Q 1681 3084 1819 3084 
Q 2600 3084 3056 2656 
Q 3513 2228 3513 1497 
Q 3513 744 3044 326 
Q 2575 -91 1722 -91 
Q 1428 -91 1123 -41 
Q 819 9 494 109 
L 494 744 
Q 775 591 1075 516 
Q 1375 441 1709 441 
Q 2250 441 2565 725 
Q 2881 1009 2881 1497 
Q 2881 1984 2565 2268 
Q 2250 2553 1709 2553 
Q 1456 2553 1204 2497 
Q 953 2441 691 2322 
L 691 4666 
z
" transform="scale(0.015625)"/>
      </defs>
      <use xlink:href="#DejaVuSans-4a"/>
      <use xlink:href="#DejaVuSans-2f" transform="translate(29.492188 0)"/>
      <use xlink:href="#DejaVuSans-32" transform="translate(63.183594 0)"/>
      <use xlink:href="#DejaVuSans-2c" transform="translate(126.806641 0)"/>
      <use xlink:href="#DejaVuSans-20" transform="translate(158.59375 0)"/>
      <use xlink:href="#DejaVuSans-3c9" transform="translate(190.380859 0)"/>
      <use xlink:href="#DejaVuSans-3d" transform="translate(274.121094 0)"/>
      <use xlink:href="#DejaVuSans-30" transform="translate(357.910156 0)"/>
      <use xlink:href="#DejaVuSans-2e" transform="translate(421.533203 0)"/>
      <use xlink:href="#DejaVuSans-35" transform="translate(453.320312 0)"/>
     </g>
    </g>
    <g id="line2d_42">
     <path d="M 57.591563 497.073625 
L 66.591563 497.073625 
L 75.591563 497.073625 
" style="fill: none; stroke: #2ca02c; stroke-width: 2; stroke-linecap: square"/>
     <g>
      <use xlink:href="#m390244eeb8" x="66.591563" y="497.073625" style="fill: #2ca02c; stroke: #2ca02c"/>
     </g>
    </g>
    <g id="text_11">
     <!-- J/2 + free CSS + joint M, ω=0.2 -->
     <g transform="translate(82.791563 500.223625) scale(0.09 -0.09)">
      <use xlink:href="#DejaVuSans-4a"/>
      <use xlink:href="#DejaVuSans-2f" transform="translate(29.492188 0)"/>
      <use xlink:href="#DejaVuSans-32" transform="translate(63.183594 0)"/>
      <use xlink:href="#DejaVuSans-20" transform="translate(126.806641 0)"/>
      <use xlink:href="#DejaVuSans-2b" transform="translate(158.59375 0)"/>
      <use xlink:href="#DejaVuSans-20" transform="translate(242.382812 0)"/>
      <use xlink:href="#DejaVuSans-66" transform="translate(274.169922 0)"/>
      <use xlink:href="#DejaVuSans-72" transform="translate(309.375 0)"/>
      <use xlink:href="#DejaVuSans-65" transform="translate(348.238281 0)"/>
      <use xlink:href="#DejaVuSans-65" transform="translate(409.761719 0)"/>
      <use xlink:href="#DejaVuSans-20" transform="translate(471.285156 0)"/>
      <use xlink:href="#DejaVuSans-43" transform="translate(503.072266 0)"/>
      <use xlink:href="#DejaVuSans-53" transform="translate(572.896484 0)"/>
      <use xlink:href="#DejaVuSans-53" transform="translate(636.373047 0)"/>
      <use xlink:href="#DejaVuSans-20" transform="translate(699.849609 0)"/>
      <use xlink:href="#DejaVuSans-2b" transform="translate(731.636719 0)"/>
      <use xlink:href="#DejaVuSans-20" transform="translate(815.425781 0)"/>
      <use xlink:href="#DejaVuSans-6a" transform="translate(847.212891 0)"/>
      <use xlink:href="#DejaVuSans-6f" transform="translate(874.996094 0)"/>
      <use xlink:href="#DejaVuSans-69" transform="translate(936.177734 0)"/>
      <use xlink:href="#DejaVuSans-6e" transform="translate(963.960938 0)"/>
      <use xlink:href="#DejaVuSans-74" transform="translate(1027.339844 0)"/>
      <use xlink:href="#DejaVuSans-20" transform="translate(1066.548828 0)"/>
      <use xlink:href="#DejaVuSans-4d" transform="translate(1098.335938 0)"/>
      <use xlink:href="#DejaVuSans-2c" transform="translate(1184.615234 0)"/>
      <use xlink:href="#DejaVuSans-20" transform="translate(1216.402344 0)"/>
      <use xlink:href="#DejaVuSans-3c9" transform="translate(1248.189453 0)"/>
      <use xlink:href="#DejaVuSans-3d" transform="translate(1331.929688 0)"/>
      <use xlink:href="#DejaVuSans-30" transform="translate(1415.71875 0)"/>
      <use xlink:href="#DejaVuSans-2e" transform="translate(1479.341797 0)"/>
      <use xlink:href="#DejaVuSans-32" transform="translate(1511.128906 0)"/>
     </g>
    </g>
    <g id="line2d_43">
     <path d="M 57.591563 510.283937 
L 66.591563 510.283937 
L 75.591563 510.283937 
" style="fill: none; stroke-dasharray: 5.55,2.4; stroke-dashoffset: 0; stroke: #2ca02c; stroke-opacity: 0.6; stroke-width: 1.5"/>
     <g>
      <use xlink:href="#m0ffd0c19c4" x="66.591563" y="510.283937" style="fill: #2ca02c; fill-opacity: 0.6; stroke: #2ca02c; stroke-opacity: 0.6; stroke-linejoin: miter"/>
     </g>
    </g>
    <g id="text_12">
     <!-- J/2, ω=0.1 -->
     <g transform="translate(82.791563 513.433937) scale(0.09 -0.09)">
      <use xlink:href="#DejaVuSans-4a"/>
      <use xlink:href="#DejaVuSans-2f" transform="translate(29.492188 0)"/>
      <use xlink:href="#DejaVuSans-32" transform="translate(63.183594 0)"/>
      <use xlink:href="#DejaVuSans-2c" transform="translate(126.806641 0)"/>
      <use xlink:href="#DejaVuSans-20" transform="translate(158.59375 0)"/>
      <use xlink:href="#DejaVuSans-3c9" transform="translate(190.380859 0)"/>
      <use xlink:href="#DejaVuSans-3d" transform="translate(274.121094 0)"/>
      <use xlink:href="#DejaVuSans-30" transform="translate(357.910156 0)"/>
      <use xlink:href="#DejaVuSans-2e" transform="translate(421.533203 0)"/>
      <use xlink:href="#DejaVuSans-31" transform="translate(453.320312 0)"/>
     </g>
    </g>
    <g id="line2d_44">
     <path d="M 242.519062 457.442687 
L 251.519062 457.442687 
L 260.519063 457.442687 
" style="fill: none; stroke-dasharray: 5.55,2.4; stroke-dashoffset: 0; stroke: #2ca02c; stroke-opacity: 0.6; stroke-width: 1.5"/>
     <g>
      <use xlink:href="#mb91c664e34" x="251.519062" y="457.442687" style="fill: #2ca02c; fill-opacity: 0.6; stroke: #2ca02c; stroke-opacity: 0.6; stroke-linejoin: miter"/>
     </g>
    </g>
    <g id="text_13">
     <!-- J/2, ω=0.5 -->
     <g transform="translate(267.719063 460.592687) scale(0.09 -0.09)">
      <use xlink:href="#DejaVuSans-4a"/>
      <use xlink:href="#DejaVuSans-2f" transform="translate(29.492188 0)"/>
      <use xlink:href="#DejaVuSans-32" transform="translate(63.183594 0)"/>
      <use xlink:href="#DejaVuSans-2c" transform="translate(126.806641 0)"/>
      <use xlink:href="#DejaVuSans-20" transform="translate(158.59375 0)"/>
      <use xlink:href="#DejaVuSans-3c9" transform="translate(190.380859 0)"/>
      <use xlink:href="#DejaVuSans-3d" transform="translate(274.121094 0)"/>
      <use xlink:href="#DejaVuSans-30" transform="translate(357.910156 0)"/>
      <use xlink:href="#DejaVuSans-2e" transform="translate(421.533203 0)"/>
      <use xlink:href="#DejaVuSans-35" transform="translate(453.320312 0)"/>
     </g>
    </g>
    <g id="line2d_45">
     <path d="M 242.519062 470.653 
L 251.519062 470.653 
L 260.519063 470.653 
" style="fill: none; stroke-dasharray: 1,1.65; stroke-dashoffset: 0; stroke: #ff7f0e; stroke-opacity: 0.5"/>
     <g>
      <use xlink:href="#m6ab2c9af4a" x="251.519062" y="470.653" style="fill: #ff7f0e; fill-opacity: 0.5; stroke: #ff7f0e; stroke-opacity: 0.5; stroke-linejoin: miter"/>
     </g>
    </g>
    <g id="text_14">
     <!-- S-only (fixed A), ω=0.2 -->
     <g transform="translate(267.719063 473.803) scale(0.09 -0.09)">
      <defs>
       <path id="DejaVuSans-78" d="M 3513 3500 
L 2247 1797 
L 3578 0 
L 2900 0 
L 1881 1375 
L 863 0 
L 184 0 
L 1544 1831 
L 300 3500 
L 978 3500 
L 1906 2253 
L 2834 3500 
L 3513 3500 
z
" transform="scale(0.015625)"/>
      </defs>
      <use xlink:href="#DejaVuSans-53"/>
      <use xlink:href="#DejaVuSans-2d" transform="translate(63.476562 0)"/>
      <use xlink:href="#DejaVuSans-6f" transform="translate(101.435547 0)"/>
      <use xlink:href="#DejaVuSans-6e" transform="translate(162.617188 0)"/>
      <use xlink:href="#DejaVuSans-6c" transform="translate(225.996094 0)"/>
      <use xlink:href="#DejaVuSans-79" transform="translate(253.779297 0)"/>
      <use xlink:href="#DejaVuSans-20" transform="translate(312.958984 0)"/>
      <use xlink:href="#DejaVuSans-28" transform="translate(344.746094 0)"/>
      <use xlink:href="#DejaVuSans-66" transform="translate(383.759766 0)"/>
      <use xlink:href="#DejaVuSans-69" transform="translate(418.964844 0)"/>
      <use xlink:href="#DejaVuSans-78" transform="translate(446.748047 0)"/>
      <use xlink:href="#DejaVuSans-65" transform="translate(502.802734 0)"/>
      <use xlink:href="#DejaVuSans-64" transform="translate(564.326172 0)"/>
      <use xlink:href="#DejaVuSans-20" transform="translate(627.802734 0)"/>
      <use xlink:href="#DejaVuSans-41" transform="translate(659.589844 0)"/>
      <use xlink:href="#DejaVuSans-29" transform="translate(727.998047 0)"/>
      <use xlink:href="#DejaVuSans-2c" transform="translate(767.011719 0)"/>
      <use xlink:href="#DejaVuSans-20" transform="translate(798.798828 0)"/>
      <use xlink:href="#DejaVuSans-3c9" transform="translate(830.585938 0)"/>
      <use xlink:href="#DejaVuSans-3d" transform="translate(914.326172 0)"/>
      <use xlink:href="#DejaVuSans-30" transform="translate(998.115234 0)"/>
      <use xlink:href="#DejaVuSans-2e" transform="translate(1061.738281 0)"/>
      <use xlink:href="#DejaVuSans-32" transform="translate(1093.525391 0)"/>
     </g>
    </g>
    <g id="line2d_46">
     <path d="M 242.519062 483.863312 
L 251.519062 483.863312 
L 260.519063 483.863312 
" style="fill: none; stroke-dasharray: 2,3.3; stroke-dashoffset: 0; stroke: #808080; stroke-opacity: 0.5; stroke-width: 2"/>
    </g>
    <g id="text_15">
     <!-- SQL -->
     <g transform="translate(267.719063 487.013312) scale(0.09 -0.09)">
      <use xlink:href="#DejaVuSans-53"/>
      <use xlink:href="#DejaVuSans-51" transform="translate(63.476562 0)"/>
      <use xlink:href="#DejaVuSans-4c" transform="translate(142.1875 0)"/>
     </g>
    </g>
    <g id="line2d_47">
     <path d="M 242.519062 497.073625 
L 251.519062 497.073625 
L 260.519063 497.073625 
" style="fill: none; stroke-dasharray: 5.55,2.4; stroke-dashoffset: 0; stroke: #800080; stroke-opacity: 0.3; stroke-width: 1.5"/>
    </g>
    <g id="text_16">
     <!-- #20260612 (J/2, S-only) -->
     <g transform="translate(267.719063 500.223625) scale(0.09 -0.09)">
      <defs>
       <path id="DejaVuSans-23" d="M 3272 2816 
L 2363 2816 
L 2100 1772 
L 3016 1772 
L 3272 2816 
z
M 2803 4594 
L 2478 3297 
L 3391 3297 
L 3719 4594 
L 4219 4594 
L 3897 3297 
L 4872 3297 
L 4872 2816 
L 3775 2816 
L 3519 1772 
L 4513 1772 
L 4513 1294 
L 3397 1294 
L 3072 0 
L 2572 0 
L 2894 1294 
L 1978 1294 
L 1656 0 
L 1153 0 
L 1478 1294 
L 494 1294 
L 494 1772 
L 1594 1772 
L 1856 2816 
L 850 2816 
L 850 3297 
L 1978 3297 
L 2297 4594 
L 2803 4594 
z
" transform="scale(0.015625)"/>
       <path id="DejaVuSans-36" d="M 2113 2584 
Q 1688 2584 1439 2293 
Q 1191 2003 1191 1497 
Q 1191 994 1439 701 
Q 1688 409 2113 409 
Q 2538 409 2786 701 
Q 3034 994 3034 1497 
Q 3034 2003 2786 2293 
Q 2538 2584 2113 2584 
z
M 3366 4563 
L 3366 3988 
Q 3128 4100 2886 4159 
Q 2644 4219 2406 4219 
Q 1781 4219 1451 3797 
Q 1122 3375 1075 2522 
Q 1259 2794 1537 2939 
Q 1816 3084 2150 3084 
Q 2853 3084 3261 2657 
Q 3669 2231 3669 1497 
Q 3669 778 3244 343 
Q 2819 -91 2113 -91 
Q 1303 -91 875 529 
Q 447 1150 447 2328 
Q 447 3434 972 4092 
Q 1497 4750 2381 4750 
Q 2619 4750 2861 4703 
Q 3103 4656 3366 4563 
z
" transform="scale(0.015625)"/>
      </defs>
      <use xlink:href="#DejaVuSans-23"/>
      <use xlink:href="#DejaVuSans-32" transform="translate(83.789062 0)"/>
      <use xlink:href="#DejaVuSans-30" transform="translate(147.412109 0)"/>
      <use xlink:href="#DejaVuSans-32" transform="translate(211.035156 0)"/>
      <use xlink:href="#DejaVuSans-36" transform="translate(274.658203 0)"/>
      <use xlink:href="#DejaVuSans-30" transform="translate(338.28125 0)"/>
      <use xlink:href="#DejaVuSans-36" transform="translate(401.904297 0)"/>
      <use xlink:href="#DejaVuSans-31" transform="translate(465.527344 0)"/>
      <use xlink:href="#DejaVuSans-32" transform="translate(529.150391 0)"/>
      <use xlink:href="#DejaVuSans-20" transform="translate(592.773438 0)"/>
      <use xlink:href="#DejaVuSans-28" transform="translate(624.560547 0)"/>
      <use xlink:href="#DejaVuSans-4a" transform="translate(663.574219 0)"/>
      <use xlink:href="#DejaVuSans-2f" transform="translate(693.066406 0)"/>
      <use xlink:href="#DejaVuSans-32" transform="translate(726.757812 0)"/>
      <use xlink:href="#DejaVuSans-2c" transform="translate(790.380859 0)"/>
      <use xlink:href="#DejaVuSans-20" transform="translate(822.167969 0)"/>
      <use xlink:href="#DejaVuSans-53" transform="translate(853.955078 0)"/>
      <use xlink:href="#DejaVuSans-2d" transform="translate(917.431641 0)"/>
      <use xlink:href="#DejaVuSans-6f" transform="translate(955.390625 0)"/>
      <use xlink:href="#DejaVuSans-6e" transform="translate(1016.572266 0)"/>
      <use xlink:href="#DejaVuSans-6c" transform="translate(1079.951172 0)"/>
      <use xlink:href="#DejaVuSans-79" transform="translate(1107.734375 0)"/>
      <use xlink:href="#DejaVuSans-29" transform="translate(1166.914062 0)"/>
     </g>
    </g>
   </g>
  </g>
 </g>
 <defs>
  <clipPath id="p7141a20e0b">
   <rect x="49.491563" y="24.597656" width="777.979618" height="498.808"/>
  </clipPath>
 </defs>
</svg>
