<?xml version="1.0" encoding="utf-8" standalone="no"?>
<!DOCTYPE svg PUBLIC "-//W3C//DTD SVG 1.1//EN"
  "http://www.w3.org/Graphics/SVG/1.1/DTD/svg11.dtd">
<svg xmlns:xlink="http://www.w3.org/1999/xlink" width="527.263594pt" height="469.082415pt" viewBox="0 0 527.263594 469.082415" xmlns="http://www.w3.org/2000/svg" version="1.1">
 <metadata>
  <rdf:RDF xmlns:dc="http://purl.org/dc/elements/1.1/" xmlns:cc="http://creativecommons.org/ns#" xmlns:rdf="http://www.w3.org/1999/02/22-rdf-syntax-ns#">
   <cc:Work>
    <dc:type rdf:resource="http://purl.org/dc/dcmitype/StillImage"/>
    <dc:date>2026-05-28T23:21:59.938539</dc:date>
    <dc:format>image/svg+xml</dc:format>
    <dc:creator>
     <cc:Agent>
      <dc:title>Matplotlib v3.10.9, https://matplotlib.org/</dc:title>
     </cc:Agent>
    </dc:creator>
   </cc:Work>
  </rdf:RDF>
 </metadata>
 <defs>
  <style type="text/css">*{stroke-linejoin: round; stroke-linecap: butt}</style>
 </defs>
 <g id="figure_1">
  <g id="patch_1">
   <path d="M 0 469.082415 
L 527.263594 469.082415 
L 527.263594 0 
L 0 0 
z
" style="fill: #ffffff"/>
  </g>
  <g id="axes_1">
   <g id="patch_2">
    <path d="M 94.01375 299.64 
L 459.41375 299.64 
L 459.41375 22.44 
L 94.01375 22.44 
z
" style="fill: #ffffff"/>
   </g>
   <g id="matplotlib.axis_1">
    <g id="xtick_1">
     <g id="line2d_1">
      <path d="M 110.622841 299.64 
L 110.622841 22.44 
" clip-path="url(#pa30854ef85)" style="fill: none; stroke: #cccccc; stroke-linecap: round"/>
     </g>
     <g id="text_1">
      <!-- 0 -->
      <g style="fill: #262626" transform="translate(107.123466 317.498281) scale(0.11 -0.11)">
       <defs>
        <path id="DejaVuSans-30" d="M 2034 4250 
Q 1547 4250 1301 3770 
Q 1056 3291 1056 2328 
Q 1056 1369 1301 889 
Q 1547 409 2034 409 
Q 2525 409 2770 889 
Q 3016 1369 3016 2328 
Q 3016 3291 2770 3770 
Q 2525 4250 2034 4250 
z
M 2034 4750 
Q 2819 4750 3233 4129 
Q 3647 3509 3647 2328 
Q 3647 1150 3233 529 
Q 2819 -91 2034 -91 
Q 1250 -91 836 529 
Q 422 1150 422 2328 
Q 422 3509 836 4129 
Q 1250 4750 2034 4750 
z
" transform="scale(0.015625)"/>
       </defs>
       <use xlink:href="#DejaVuSans-30"/>
      </g>
     </g>
    </g>
    <g id="xtick_2">
     <g id="line2d_2">
      <path d="M 165.986477 299.64 
L 165.986477 22.44 
" clip-path="url(#pa30854ef85)" style="fill: none; stroke: #cccccc; stroke-linecap: round"/>
     </g>
     <g id="text_2">
      <!-- 2 -->
      <g style="fill: #262626" transform="translate(162.487102 317.498281) scale(0.11 -0.11)">
       <defs>
        <path id="DejaVuSans-32" d="M 1228 531 
L 3431 531 
L 3431 0 
L 469 0 
L 469 531 
Q 828 903 1448 1529 
Q 2069 2156 2228 2338 
Q 2531 2678 2651 2914 
Q 2772 3150 2772 3378 
Q 2772 3750 2511 3984 
Q 2250 4219 1831 4219 
Q 1534 4219 1204 4116 
Q 875 4013 500 3803 
L 500 4441 
Q 881 4594 1212 4672 
Q 1544 4750 1819 4750 
Q 2544 4750 2975 4387 
Q 3406 4025 3406 3419 
Q 3406 3131 3298 2873 
Q 3191 2616 2906 2266 
Q 2828 2175 2409 1742 
Q 1991 1309 1228 531 
z
" transform="scale(0.015625)"/>
       </defs>
       <use xlink:href="#DejaVuSans-32"/>
      </g>
     </g>
    </g>
    <g id="xtick_3">
     <g id="line2d_3">
      <path d="M 221.350114 299.64 
L 221.350114 22.44 
" clip-path="url(#pa30854ef85)" style="fill: none; stroke: #cccccc; stroke-linecap: round"/>
     </g>
     <g id="text_3">
      <!-- 4 -->
      <g style="fill: #262626" transform="translate(217.850739 317.498281) scale(0.11 -0.11)">
       <defs>
        <path id="DejaVuSans-34" d="M 2419 4116 
L 825 1625 
L 2419 1625 
L 2419 4116 
z
M 2253 4666 
L 3047 4666 
L 3047 1625 
L 3713 1625 
L 3713 1100 
L 3047 1100 
L 3047 0 
L 2419 0 
L 2419 1100 
L 313 1100 
L 313 1709 
L 2253 4666 
z
" transform="scale(0.015625)"/>
       </defs>
       <use xlink:href="#DejaVuSans-34"/>
      </g>
     </g>
    </g>
    <g id="xtick_4">
     <g id="line2d_4">
      <path d="M 276.71375 299.64 
L 276.71375 22.44 
" clip-path="url(#pa30854ef85)" style="fill: none; stroke: #cccccc; stroke-linecap: round"/>
     </g>
     <g id="text_4">
      <!-- 6 -->
      <g style="fill: #262626" transform="translate(273.214375 317.498281) scale(0.11 -0.11)">
       <defs>
        <path id="DejaVuSans-36" d="M 2113 2584 
Q 1688 2584 1439 2293 
Q 1191 2003 1191 1497 
Q 1191 994 1439 701 
Q 1688 409 2113 409 
Q 2538 409 2786 701 
Q 3034 994 3034 1497 
Q 3034 2003 2786 2293 
Q 2538 2584 2113 2584 
z
M 3366 4563 
L 3366 3988 
Q 3128 4100 2886 4159 
Q 2644 4219 2406 4219 
Q 1781 4219 1451 3797 
Q 1122 3375 1075 2522 
Q 1259 2794 1537 2939 
Q 1816 3084 2150 3084 
Q 2853 3084 3261 2657 
Q 3669 2231 3669 1497 
Q 3669 778 3244 343 
Q 2819 -91 2113 -91 
Q 1303 -91 875 529 
Q 447 1150 447 2328 
Q 447 3434 972 4092 
Q 1497 4750 2381 4750 
Q 2619 4750 2861 4703 
Q 3103 4656 3366 4563 
z
" transform="scale(0.015625)"/>
       </defs>
       <use xlink:href="#DejaVuSans-36"/>
      </g>
     </g>
    </g>
    <g id="xtick_5">
     <g id="line2d_5">
      <path d="M 332.077386 299.64 
L 332.077386 22.44 
" clip-path="url(#pa30854ef85)" style="fill: none; stroke: #cccccc; stroke-linecap: round"/>
     </g>
     <g id="text_5">
      <!-- 8 -->
      <g style="fill: #262626" transform="translate(328.578011 317.498281) scale(0.11 -0.11)">
       <defs>
        <path id="DejaVuSans-38" d="M 2034 2216 
Q 1584 2216 1326 1975 
Q 1069 1734 1069 1313 
Q 1069 891 1326 650 
Q 1584 409 2034 409 
Q 2484 409 2743 651 
Q 3003 894 3003 1313 
Q 3003 1734 2745 1975 
Q 2488 2216 2034 2216 
z
M 1403 2484 
Q 997 2584 770 2862 
Q 544 3141 544 3541 
Q 544 4100 942 4425 
Q 1341 4750 2034 4750 
Q 2731 4750 3128 4425 
Q 3525 4100 3525 3541 
Q 3525 3141 3298 2862 
Q 3072 2584 2669 2484 
Q 3125 2378 3379 2068 
Q 3634 1759 3634 1313 
Q 3634 634 3220 271 
Q 2806 -91 2034 -91 
Q 1263 -91 848 271 
Q 434 634 434 1313 
Q 434 1759 690 2068 
Q 947 2378 1403 2484 
z
M 1172 3481 
Q 1172 3119 1398 2916 
Q 1625 2713 2034 2713 
Q 2441 2713 2670 2916 
Q 2900 3119 2900 3481 
Q 2900 3844 2670 4047 
Q 2441 4250 2034 4250 
Q 1625 4250 1398 4047 
Q 1172 3844 1172 3481 
z
" transform="scale(0.015625)"/>
       </defs>
       <use xlink:href="#DejaVuSans-38"/>
      </g>
     </g>
    </g>
    <g id="xtick_6">
     <g id="line2d_6">
      <path d="M 387.441023 299.64 
L 387.441023 22.44 
" clip-path="url(#pa30854ef85)" style="fill: none; stroke: #cccccc; stroke-linecap: round"/>
     </g>
     <g id="text_6">
      <!-- 10 -->
      <g style="fill: #262626" transform="translate(380.442273 317.498281) scale(0.11 -0.11)">
       <defs>
        <path id="DejaVuSans-31" d="M 794 531 
L 1825 531 
L 1825 4091 
L 703 3866 
L 703 4441 
L 1819 4666 
L 2450 4666 
L 2450 531 
L 3481 531 
L 3481 0 
L 794 0 
L 794 531 
z
" transform="scale(0.015625)"/>
       </defs>
       <use xlink:href="#DejaVuSans-31"/>
       <use xlink:href="#DejaVuSans-30" transform="translate(63.623047 0)"/>
      </g>
     </g>
    </g>
    <g id="xtick_7">
     <g id="line2d_7">
      <path d="M 442.804659 299.64 
L 442.804659 22.44 
" clip-path="url(#pa30854ef85)" style="fill: none; stroke: #cccccc; stroke-linecap: round"/>
     </g>
     <g id="text_7">
      <!-- 12 -->
      <g style="fill: #262626" transform="translate(435.805909 317.498281) scale(0.11 -0.11)">
       <use xlink:href="#DejaVuSans-31"/>
       <use xlink:href="#DejaVuSans-32" transform="translate(63.623047 0)"/>
      </g>
     </g>
    </g>
    <g id="text_8">
     <!-- $M$ (ancilla particles) -->
     <g style="fill: #262626" transform="translate(217.79375 332.905938) scale(0.12 -0.12)">
      <defs>
       <path id="DejaVuSans-Oblique-4d" d="M 1081 4666 
L 2028 4666 
L 2572 1522 
L 4378 4666 
L 5350 4666 
L 4441 0 
L 3828 0 
L 4622 4091 
L 2791 897 
L 2175 897 
L 1581 4103 
L 788 0 
L 172 0 
L 1081 4666 
z
" transform="scale(0.015625)"/>
       <path id="DejaVuSans-20" transform="scale(0.015625)"/>
       <path id="DejaVuSans-28" d="M 1984 4856 
Q 1566 4138 1362 3434 
Q 1159 2731 1159 2009 
Q 1159 1288 1364 580 
Q 1569 -128 1984 -844 
L 1484 -844 
Q 1016 -109 783 600 
Q 550 1309 550 2009 
Q 550 2706 781 3412 
Q 1013 4119 1484 4856 
L 1984 4856 
z
" transform="scale(0.015625)"/>
       <path id="DejaVuSans-61" d="M 2194 1759 
Q 1497 1759 1228 1600 
Q 959 1441 959 1056 
Q 959 750 1161 570 
Q 1363 391 1709 391 
Q 2188 391 2477 730 
Q 2766 1069 2766 1631 
L 2766 1759 
L 2194 1759 
z
M 3341 1997 
L 3341 0 
L 2766 0 
L 2766 531 
Q 2569 213 2275 61 
Q 1981 -91 1556 -91 
Q 1019 -91 701 211 
Q 384 513 384 1019 
Q 384 1609 779 1909 
Q 1175 2209 1959 2209 
L 2766 2209 
L 2766 2266 
Q 2766 2663 2505 2880 
Q 2244 3097 1772 3097 
Q 1472 3097 1187 3025 
Q 903 2953 641 2809 
L 641 3341 
Q 956 3463 1253 3523 
Q 1550 3584 1831 3584 
Q 2591 3584 2966 3190 
Q 3341 2797 3341 1997 
z
" transform="scale(0.015625)"/>
       <path id="DejaVuSans-6e" d="M 3513 2113 
L 3513 0 
L 2938 0 
L 2938 2094 
Q 2938 2591 2744 2837 
Q 2550 3084 2163 3084 
Q 1697 3084 1428 2787 
Q 1159 2491 1159 1978 
L 1159 0 
L 581 0 
L 581 3500 
L 1159 3500 
L 1159 2956 
Q 1366 3272 1645 3428 
Q 1925 3584 2291 3584 
Q 2894 3584 3203 3211 
Q 3513 2838 3513 2113 
z
" transform="scale(0.015625)"/>
       <path id="DejaVuSans-63" d="M 3122 3366 
L 3122 2828 
Q 2878 2963 2633 3030 
Q 2388 3097 2138 3097 
Q 1578 3097 1268 2742 
Q 959 2388 959 1747 
Q 959 1106 1268 751 
Q 1578 397 2138 397 
Q 2388 397 2633 464 
Q 2878 531 3122 666 
L 3122 134 
Q 2881 22 2623 -34 
Q 2366 -91 2075 -91 
Q 1284 -91 818 406 
Q 353 903 353 1747 
Q 353 2603 823 3093 
Q 1294 3584 2113 3584 
Q 2378 3584 2631 3529 
Q 2884 3475 3122 3366 
z
" transform="scale(0.015625)"/>
       <path id="DejaVuSans-69" d="M 603 3500 
L 1178 3500 
L 1178 0 
L 603 0 
L 603 3500 
z
M 603 4863 
L 1178 4863 
L 1178 4134 
L 603 4134 
L 603 4863 
z
" transform="scale(0.015625)"/>
       <path id="DejaVuSans-6c" d="M 603 4863 
L 1178 4863 
L 1178 0 
L 603 0 
L 603 4863 
z
" transform="scale(0.015625)"/>
       <path id="DejaVuSans-70" d="M 1159 525 
L 1159 -1331 
L 581 -1331 
L 581 3500 
L 1159 3500 
L 1159 2969 
Q 1341 3281 1617 3432 
Q 1894 3584 2278 3584 
Q 2916 3584 3314 3078 
Q 3713 2572 3713 1747 
Q 3713 922 3314 415 
Q 2916 -91 2278 -91 
Q 1894 -91 1617 61 
Q 1341 213 1159 525 
z
M 3116 1747 
Q 3116 2381 2855 2742 
Q 2594 3103 2138 3103 
Q 1681 3103 1420 2742 
Q 1159 2381 1159 1747 
Q 1159 1113 1420 752 
Q 1681 391 2138 391 
Q 2594 391 2855 752 
Q 3116 1113 3116 1747 
z
" transform="scale(0.015625)"/>
       <path id="DejaVuSans-72" d="M 2631 2963 
Q 2534 3019 2420 3045 
Q 2306 3072 2169 3072 
Q 1681 3072 1420 2755 
Q 1159 2438 1159 1844 
L 1159 0 
L 581 0 
L 581 3500 
L 1159 3500 
L 1159 2956 
Q 1341 3275 1631 3429 
Q 1922 3584 2338 3584 
Q 2397 3584 2469 3576 
Q 2541 3569 2628 3553 
L 2631 2963 
z
" transform="scale(0.015625)"/>
       <path id="DejaVuSans-74" d="M 1172 4494 
L 1172 3500 
L 2356 3500 
L 2356 3053 
L 1172 3053 
L 1172 1153 
Q 1172 725 1289 603 
Q 1406 481 1766 481 
L 2356 481 
L 2356 0 
L 1766 0 
Q 1100 0 847 248 
Q 594 497 594 1153 
L 594 3053 
L 172 3053 
L 172 3500 
L 594 3500 
L 594 4494 
L 1172 4494 
z
" transform="scale(0.015625)"/>
       <path id="DejaVuSans-65" d="M 3597 1894 
L 3597 1613 
L 953 1613 
Q 991 1019 1311 708 
Q 1631 397 2203 397 
Q 2534 397 2845 478 
Q 3156 559 3463 722 
L 3463 178 
Q 3153 47 2828 -22 
Q 2503 -91 2169 -91 
Q 1331 -91 842 396 
Q 353 884 353 1716 
Q 353 2575 817 3079 
Q 1281 3584 2069 3584 
Q 2775 3584 3186 3129 
Q 3597 2675 3597 1894 
z
M 3022 2063 
Q 3016 2534 2758 2815 
Q 2500 3097 2075 3097 
Q 1594 3097 1305 2825 
Q 1016 2553 972 2059 
L 3022 2063 
z
" transform="scale(0.015625)"/>
       <path id="DejaVuSans-73" d="M 2834 3397 
L 2834 2853 
Q 2591 2978 2328 3040 
Q 2066 3103 1784 3103 
Q 1356 3103 1142 2972 
Q 928 2841 928 2578 
Q 928 2378 1081 2264 
Q 1234 2150 1697 2047 
L 1894 2003 
Q 2506 1872 2764 1633 
Q 3022 1394 3022 966 
Q 3022 478 2636 193 
Q 2250 -91 1575 -91 
Q 1294 -91 989 -36 
Q 684 19 347 128 
L 347 722 
Q 666 556 975 473 
Q 1284 391 1588 391 
Q 1994 391 2212 530 
Q 2431 669 2431 922 
Q 2431 1156 2273 1281 
Q 2116 1406 1581 1522 
L 1381 1569 
Q 847 1681 609 1914 
Q 372 2147 372 2553 
Q 372 3047 722 3315 
Q 1072 3584 1716 3584 
Q 2034 3584 2315 3537 
Q 2597 3491 2834 3397 
z
" transform="scale(0.015625)"/>
       <path id="DejaVuSans-29" d="M 513 4856 
L 1013 4856 
Q 1481 4119 1714 3412 
Q 1947 2706 1947 2009 
Q 1947 1309 1714 600 
Q 1481 -109 1013 -844 
L 513 -844 
Q 928 -128 1133 580 
Q 1338 1288 1338 2009 
Q 1338 2731 1133 3434 
Q 928 4138 513 4856 
z
" transform="scale(0.015625)"/>
      </defs>
      <use xlink:href="#DejaVuSans-Oblique-4d" transform="translate(0 0.015625)"/>
      <use xlink:href="#DejaVuSans-20" transform="translate(86.279297 0.015625)"/>
      <use xlink:href="#DejaVuSans-28" transform="translate(118.066406 0.015625)"/>
      <use xlink:href="#DejaVuSans-61" transform="translate(157.080078 0.015625)"/>
      <use xlink:href="#DejaVuSans-6e" transform="translate(218.359375 0.015625)"/>
      <use xlink:href="#DejaVuSans-63" transform="translate(281.738281 0.015625)"/>
      <use xlink:href="#DejaVuSans-69" transform="translate(336.71875 0.015625)"/>
      <use xlink:href="#DejaVuSans-6c" transform="translate(364.501953 0.015625)"/>
      <use xlink:href="#DejaVuSans-6c" transform="translate(392.285156 0.015625)"/>
      <use xlink:href="#DejaVuSans-61" transform="translate(420.068359 0.015625)"/>
      <use xlink:href="#DejaVuSans-20" transform="translate(481.347656 0.015625)"/>
      <use xlink:href="#DejaVuSans-70" transform="translate(513.134766 0.015625)"/>
      <use xlink:href="#DejaVuSans-61" transform="translate(576.611328 0.015625)"/>
      <use xlink:href="#DejaVuSans-72" transform="translate(637.890625 0.015625)"/>
      <use xlink:href="#DejaVuSans-74" transform="translate(679.003906 0.015625)"/>
      <use xlink:href="#DejaVuSans-69" transform="translate(718.212891 0.015625)"/>
      <use xlink:href="#DejaVuSans-63" transform="translate(745.996094 0.015625)"/>
      <use xlink:href="#DejaVuSans-6c" transform="translate(800.976562 0.015625)"/>
      <use xlink:href="#DejaVuSans-65" transform="translate(828.759766 0.015625)"/>
      <use xlink:href="#DejaVuSans-73" transform="translate(890.283203 0.015625)"/>
      <use xlink:href="#DejaVuSans-29" transform="translate(942.382812 0.015625)"/>
     </g>
    </g>
   </g>
   <g id="matplotlib.axis_2">
    <g id="ytick_1">
     <g id="line2d_8">
      <defs>
       <path id="m156170e99d" d="M 0 0 
L -4 0 
" style="stroke: #262626"/>
      </defs>
      <g>
       <use xlink:href="#m156170e99d" x="94.01375" y="259.319182" style="fill: #262626; stroke: #262626"/>
      </g>
     </g>
     <g id="text_9">
      <!-- $\mathdefault{2.47\times10^{-2}}$ -->
      <g style="fill: #262626" transform="translate(22.81375 263.498323) scale(0.11 -0.11)">
       <defs>
        <path id="DejaVuSans-2e" d="M 684 794 
L 1344 794 
L 1344 0 
L 684 0 
L 684 794 
z
" transform="scale(0.015625)"/>
        <path id="DejaVuSans-37" d="M 525 4666 
L 3525 4666 
L 3525 4397 
L 1831 0 
L 1172 0 
L 2766 4134 
L 525 4134 
L 525 4666 
z
" transform="scale(0.015625)"/>
        <path id="DejaVuSans-d7" d="M 4488 3438 
L 3059 2003 
L 4488 575 
L 4116 197 
L 2681 1631 
L 1247 197 
L 878 575 
L 2303 2003 
L 878 3438 
L 1247 3816 
L 2681 2381 
L 4116 3816 
L 4488 3438 
z
" transform="scale(0.015625)"/>
        <path id="DejaVuSans-2212" d="M 678 2272 
L 4684 2272 
L 4684 1741 
L 678 1741 
L 678 2272 
z
" transform="scale(0.015625)"/>
       </defs>
       <use xlink:href="#DejaVuSans-32" transform="translate(0 0.765625)"/>
       <use xlink:href="#DejaVuSans-2e" transform="translate(63.623047 0.765625)"/>
       <use xlink:href="#DejaVuSans-34" transform="translate(95.410156 0.765625)"/>
       <use xlink:href="#DejaVuSans-37" transform="translate(159.033203 0.765625)"/>
       <use xlink:href="#DejaVuSans-d7" transform="translate(242.138672 0.765625)"/>
       <use xlink:href="#DejaVuSans-31" transform="translate(345.410156 0.765625)"/>
       <use xlink:href="#DejaVuSans-30" transform="translate(409.033203 0.765625)"/>
       <use xlink:href="#DejaVuSans-2212" transform="translate(473.613281 39.046875) scale(0.7)"/>
       <use xlink:href="#DejaVuSans-32" transform="translate(532.265625 39.046875) scale(0.7)"/>
      </g>
     </g>
    </g>
    <g id="ytick_2">
     <g id="line2d_9">
      <g>
       <use xlink:href="#m156170e99d" x="94.01375" y="215.860402" style="fill: #262626; stroke: #262626"/>
      </g>
     </g>
     <g id="text_10">
      <!-- $\mathdefault{2.48\times10^{-2}}$ -->
      <g style="fill: #262626" transform="translate(22.81375 220.039542) scale(0.11 -0.11)">
       <use xlink:href="#DejaVuSans-32" transform="translate(0 0.765625)"/>
       <use xlink:href="#DejaVuSans-2e" transform="translate(63.623047 0.765625)"/>
       <use xlink:href="#DejaVuSans-34" transform="translate(95.410156 0.765625)"/>
       <use xlink:href="#DejaVuSans-38" transform="translate(159.033203 0.765625)"/>
       <use xlink:href="#DejaVuSans-d7" transform="translate(242.138672 0.765625)"/>
       <use xlink:href="#DejaVuSans-31" transform="translate(345.410156 0.765625)"/>
       <use xlink:href="#DejaVuSans-30" transform="translate(409.033203 0.765625)"/>
       <use xlink:href="#DejaVuSans-2212" transform="translate(473.613281 39.046875) scale(0.7)"/>
       <use xlink:href="#DejaVuSans-32" transform="translate(532.265625 39.046875) scale(0.7)"/>
      </g>
     </g>
    </g>
    <g id="ytick_3">
     <g id="line2d_10">
      <g>
       <use xlink:href="#m156170e99d" x="94.01375" y="172.576506" style="fill: #262626; stroke: #262626"/>
      </g>
     </g>
     <g id="text_11">
      <!-- $\mathdefault{2.49\times10^{-2}}$ -->
      <g style="fill: #262626" transform="translate(22.81375 176.755647) scale(0.11 -0.11)">
       <defs>
        <path id="DejaVuSans-39" d="M 703 97 
L 703 672 
Q 941 559 1184 500 
Q 1428 441 1663 441 
Q 2288 441 2617 861 
Q 2947 1281 2994 2138 
Q 2813 1869 2534 1725 
Q 2256 1581 1919 1581 
Q 1219 1581 811 2004 
Q 403 2428 403 3163 
Q 403 3881 828 4315 
Q 1253 4750 1959 4750 
Q 2769 4750 3195 4129 
Q 3622 3509 3622 2328 
Q 3622 1225 3098 567 
Q 2575 -91 1691 -91 
Q 1453 -91 1209 -44 
Q 966 3 703 97 
z
M 1959 2075 
Q 2384 2075 2632 2365 
Q 2881 2656 2881 3163 
Q 2881 3666 2632 3958 
Q 2384 4250 1959 4250 
Q 1534 4250 1286 3958 
Q 1038 3666 1038 3163 
Q 1038 2656 1286 2365 
Q 1534 2075 1959 2075 
z
" transform="scale(0.015625)"/>
       </defs>
       <use xlink:href="#DejaVuSans-32" transform="translate(0 0.765625)"/>
       <use xlink:href="#DejaVuSans-2e" transform="translate(63.623047 0.765625)"/>
       <use xlink:href="#DejaVuSans-34" transform="translate(95.410156 0.765625)"/>
       <use xlink:href="#DejaVuSans-39" transform="translate(159.033203 0.765625)"/>
       <use xlink:href="#DejaVuSans-d7" transform="translate(242.138672 0.765625)"/>
       <use xlink:href="#DejaVuSans-31" transform="translate(345.410156 0.765625)"/>
       <use xlink:href="#DejaVuSans-30" transform="translate(409.033203 0.765625)"/>
       <use xlink:href="#DejaVuSans-2212" transform="translate(473.613281 39.046875) scale(0.7)"/>
       <use xlink:href="#DejaVuSans-32" transform="translate(532.265625 39.046875) scale(0.7)"/>
      </g>
     </g>
    </g>
    <g id="ytick_4">
     <g id="line2d_11">
      <g>
       <use xlink:href="#m156170e99d" x="94.01375" y="129.466093" style="fill: #262626; stroke: #262626"/>
      </g>
     </g>
     <g id="text_12">
      <!-- $\mathdefault{2.5\times10^{-2}}$ -->
      <g style="fill: #262626" transform="translate(29.85375 133.645234) scale(0.11 -0.11)">
       <defs>
        <path id="DejaVuSans-35" d="M 691 4666 
L 3169 4666 
L 3169 4134 
L 1269 4134 
L 1269 2991 
Q 1406 3038 1543 3061 
Q 1681 3084 1819 3084 
Q 2600 3084 3056 2656 
Q 3513 2228 3513 1497 
Q 3513 744 3044 326 
Q 2575 -91 1722 -91 
Q 1428 -91 1123 -41 
Q 819 9 494 109 
L 494 744 
Q 775 591 1075 516 
Q 1375 441 1709 441 
Q 2250 441 2565 725 
Q 2881 1009 2881 1497 
Q 2881 1984 2565 2268 
Q 2250 2553 1709 2553 
Q 1456 2553 1204 2497 
Q 953 2441 691 2322 
L 691 4666 
z
" transform="scale(0.015625)"/>
       </defs>
       <use xlink:href="#DejaVuSans-32" transform="translate(0 0.765625)"/>
       <use xlink:href="#DejaVuSans-2e" transform="translate(63.623047 0.765625)"/>
       <use xlink:href="#DejaVuSans-35" transform="translate(95.410156 0.765625)"/>
       <use xlink:href="#DejaVuSans-d7" transform="translate(178.515625 0.765625)"/>
       <use xlink:href="#DejaVuSans-31" transform="translate(281.787109 0.765625)"/>
       <use xlink:href="#DejaVuSans-30" transform="translate(345.410156 0.765625)"/>
       <use xlink:href="#DejaVuSans-2212" transform="translate(409.990234 39.046875) scale(0.7)"/>
       <use xlink:href="#DejaVuSans-32" transform="translate(468.642578 39.046875) scale(0.7)"/>
      </g>
     </g>
    </g>
    <g id="ytick_5">
     <g id="line2d_12">
      <g>
       <use xlink:href="#m156170e99d" x="94.01375" y="86.527779" style="fill: #262626; stroke: #262626"/>
      </g>
     </g>
     <g id="text_13">
      <!-- $\mathdefault{2.51\times10^{-2}}$ -->
      <g style="fill: #262626" transform="translate(22.81375 90.706919) scale(0.11 -0.11)">
       <use xlink:href="#DejaVuSans-32" transform="translate(0 0.765625)"/>
       <use xlink:href="#DejaVuSans-2e" transform="translate(63.623047 0.765625)"/>
       <use xlink:href="#DejaVuSans-35" transform="translate(95.410156 0.765625)"/>
       <use xlink:href="#DejaVuSans-31" transform="translate(159.033203 0.765625)"/>
       <use xlink:href="#DejaVuSans-d7" transform="translate(242.138672 0.765625)"/>
       <use xlink:href="#DejaVuSans-31" transform="translate(345.410156 0.765625)"/>
       <use xlink:href="#DejaVuSans-30" transform="translate(409.033203 0.765625)"/>
       <use xlink:href="#DejaVuSans-2212" transform="translate(473.613281 39.046875) scale(0.7)"/>
       <use xlink:href="#DejaVuSans-32" transform="translate(532.265625 39.046875) scale(0.7)"/>
      </g>
     </g>
    </g>
    <g id="ytick_6">
     <g id="line2d_13">
      <g>
       <use xlink:href="#m156170e99d" x="94.01375" y="43.760193" style="fill: #262626; stroke: #262626"/>
      </g>
     </g>
     <g id="text_14">
      <!-- $\mathdefault{2.52\times10^{-2}}$ -->
      <g style="fill: #262626" transform="translate(22.81375 47.939334) scale(0.11 -0.11)">
       <use xlink:href="#DejaVuSans-32" transform="translate(0 0.765625)"/>
       <use xlink:href="#DejaVuSans-2e" transform="translate(63.623047 0.765625)"/>
       <use xlink:href="#DejaVuSans-35" transform="translate(95.410156 0.765625)"/>
       <use xlink:href="#DejaVuSans-32" transform="translate(159.033203 0.765625)"/>
       <use xlink:href="#DejaVuSans-d7" transform="translate(242.138672 0.765625)"/>
       <use xlink:href="#DejaVuSans-31" transform="translate(345.410156 0.765625)"/>
       <use xlink:href="#DejaVuSans-30" transform="translate(409.033203 0.765625)"/>
       <use xlink:href="#DejaVuSans-2212" transform="translate(473.613281 39.046875) scale(0.7)"/>
       <use xlink:href="#DejaVuSans-32" transform="translate(532.265625 39.046875) scale(0.7)"/>
      </g>
     </g>
    </g>
    <g id="text_15">
     <!-- $\Delta\theta$ -->
     <g style="fill: #262626" transform="translate(16.318125 168.84) rotate(-90) scale(0.12 -0.12)">
      <defs>
       <path id="DejaVuSans-394" d="M 2188 4044 
L 906 525 
L 3472 525 
L 2188 4044 
z
M 50 0 
L 1831 4666 
L 2547 4666 
L 4325 0 
L 50 0 
z
" transform="scale(0.015625)"/>
       <path id="DejaVuSans-Oblique-3b8" d="M 2913 2219 
L 925 2219 
Q 791 1284 928 888 
Q 1100 400 1566 400 
Q 2034 400 2391 891 
Q 2703 1322 2913 2219 
z
M 3009 2750 
Q 3094 3638 2984 3950 
Q 2813 4444 2353 4444 
Q 1875 4444 1525 3956 
Q 1250 3563 1034 2750 
L 3009 2750 
z
M 2444 4913 
Q 3194 4913 3494 4250 
Q 3794 3591 3566 2422 
Q 3341 1256 2781 594 
Q 2225 -72 1475 -72 
Q 722 -72 425 594 
Q 128 1256 353 2422 
Q 581 3591 1134 4250 
Q 1691 4913 2444 4913 
z
" transform="scale(0.015625)"/>
      </defs>
      <use xlink:href="#DejaVuSans-394" transform="translate(0 0.234375)"/>
      <use xlink:href="#DejaVuSans-Oblique-3b8" transform="translate(68.408203 0.234375)"/>
     </g>
    </g>
   </g>
   <g id="line2d_14">
    <path d="M 110.622841 129.466093 
L 138.304659 167.508976 
L 165.986477 129.469341 
L 193.668295 142.45169 
L 221.350114 129.468623 
L 276.71375 129.466092 
L 332.077386 191.538251 
L 442.804659 144.47514 
" clip-path="url(#pa30854ef85)" style="fill: none; stroke: #4c72b0; stroke-width: 2; stroke-linecap: round"/>
    <defs>
     <path id="me8330ca4fe" d="M 0 3 
C 0.795609 3 1.55874 2.683901 2.12132 2.12132 
C 2.683901 1.55874 3 0.795609 3 0 
C 3 -0.795609 2.683901 -1.55874 2.12132 -2.12132 
C 1.55874 -2.683901 0.795609 -3 0 -3 
C -0.795609 -3 -1.55874 -2.683901 -2.12132 -2.12132 
C -2.683901 -1.55874 -3 -0.795609 -3 0 
C -3 0.795609 -2.683901 1.55874 -2.12132 2.12132 
C -1.55874 2.683901 -0.795609 3 0 3 
z
" style="stroke: #4c72b0"/>
    </defs>
    <g clip-path="url(#pa30854ef85)">
     <use xlink:href="#me8330ca4fe" x="110.622841" y="129.466093" style="fill: #4c72b0; stroke: #4c72b0"/>
     <use xlink:href="#me8330ca4fe" x="138.304659" y="167.508976" style="fill: #4c72b0; stroke: #4c72b0"/>
     <use xlink:href="#me8330ca4fe" x="165.986477" y="129.469341" style="fill: #4c72b0; stroke: #4c72b0"/>
     <use xlink:href="#me8330ca4fe" x="193.668295" y="142.45169" style="fill: #4c72b0; stroke: #4c72b0"/>
     <use xlink:href="#me8330ca4fe" x="221.350114" y="129.468623" style="fill: #4c72b0; stroke: #4c72b0"/>
     <use xlink:href="#me8330ca4fe" x="276.71375" y="129.466092" style="fill: #4c72b0; stroke: #4c72b0"/>
     <use xlink:href="#me8330ca4fe" x="332.077386" y="191.538251" style="fill: #4c72b0; stroke: #4c72b0"/>
     <use xlink:href="#me8330ca4fe" x="442.804659" y="144.47514" style="fill: #4c72b0; stroke: #4c72b0"/>
    </g>
   </g>
   <g id="line2d_15">
    <path d="M 94.01375 129.466093 
L 459.41375 129.466093 
" clip-path="url(#pa30854ef85)" style="fill: none; stroke-dasharray: 1.5,2.475; stroke-dashoffset: 0; stroke: #55a868; stroke-opacity: 0.6; stroke-width: 1.5"/>
   </g>
   <g id="patch_3">
    <path d="M 94.01375 299.64 
L 94.01375 22.44 
" style="fill: none; stroke: #cccccc; stroke-width: 1.25; stroke-linejoin: miter; stroke-linecap: square"/>
   </g>
   <g id="patch_4">
    <path d="M 459.41375 299.64 
L 459.41375 22.44 
" style="fill: none; stroke: #cccccc; stroke-width: 1.25; stroke-linejoin: miter; stroke-linecap: square"/>
   </g>
   <g id="patch_5">
    <path d="M 94.01375 299.64 
L 459.41375 299.64 
" style="fill: none; stroke: #cccccc; stroke-width: 1.25; stroke-linejoin: miter; stroke-linecap: square"/>
   </g>
   <g id="patch_6">
    <path d="M 94.01375 22.44 
L 459.41375 22.44 
" style="fill: none; stroke: #cccccc; stroke-width: 1.25; stroke-linejoin: miter; stroke-linecap: square"/>
   </g>
   <g id="patch_7">
    <path d="M 276.226223 447.789098 
Q 207.706337 308.545013 139.680089 170.304084 
" style="fill: none; stroke: #808080; stroke-linecap: round"/>
    <path d="M 139.651681 174.77613 
L 139.680089 170.304084 
L 143.240681 173.010038 
" style="fill: none; stroke: #808080; stroke-linecap: round"/>
   </g>
   <g id="text_16">
    <!-- $\Delta\theta$ improvement: 0.4\% -->
    <g style="fill: #262626" transform="translate(221.350114 459.782415) scale(0.1 -0.1)">
     <defs>
      <path id="DejaVuSans-6d" d="M 3328 2828 
Q 3544 3216 3844 3400 
Q 4144 3584 4550 3584 
Q 5097 3584 5394 3201 
Q 5691 2819 5691 2113 
L 5691 0 
L 5113 0 
L 5113 2094 
Q 5113 2597 4934 2840 
Q 4756 3084 4391 3084 
Q 3944 3084 3684 2787 
Q 3425 2491 3425 1978 
L 3425 0 
L 2847 0 
L 2847 2094 
Q 2847 2600 2669 2842 
Q 2491 3084 2119 3084 
Q 1678 3084 1418 2786 
Q 1159 2488 1159 1978 
L 1159 0 
L 581 0 
L 581 3500 
L 1159 3500 
L 1159 2956 
Q 1356 3278 1631 3431 
Q 1906 3584 2284 3584 
Q 2666 3584 2933 3390 
Q 3200 3197 3328 2828 
z
" transform="scale(0.015625)"/>
      <path id="DejaVuSans-6f" d="M 1959 3097 
Q 1497 3097 1228 2736 
Q 959 2375 959 1747 
Q 959 1119 1226 758 
Q 1494 397 1959 397 
Q 2419 397 2687 759 
Q 2956 1122 2956 1747 
Q 2956 2369 2687 2733 
Q 2419 3097 1959 3097 
z
M 1959 3584 
Q 2709 3584 3137 3096 
Q 3566 2609 3566 1747 
Q 3566 888 3137 398 
Q 2709 -91 1959 -91 
Q 1206 -91 779 398 
Q 353 888 353 1747 
Q 353 2609 779 3096 
Q 1206 3584 1959 3584 
z
" transform="scale(0.015625)"/>
      <path id="DejaVuSans-76" d="M 191 3500 
L 800 3500 
L 1894 563 
L 2988 3500 
L 3597 3500 
L 2284 0 
L 1503 0 
L 191 3500 
z
" transform="scale(0.015625)"/>
      <path id="DejaVuSans-3a" d="M 750 794 
L 1409 794 
L 1409 0 
L 750 0 
L 750 794 
z
M 750 3309 
L 1409 3309 
L 1409 2516 
L 750 2516 
L 750 3309 
z
" transform="scale(0.015625)"/>
      <path id="DejaVuSans-5c" d="M 531 4666 
L 2156 -594 
L 1625 -594 
L 0 4666 
L 531 4666 
z
" transform="scale(0.015625)"/>
      <path id="DejaVuSans-25" d="M 4653 2053 
Q 4381 2053 4226 1822 
Q 4072 1591 4072 1178 
Q 4072 772 4226 539 
Q 4381 306 4653 306 
Q 4919 306 5073 539 
Q 5228 772 5228 1178 
Q 5228 1588 5073 1820 
Q 4919 2053 4653 2053 
z
M 4653 2450 
Q 5147 2450 5437 2106 
Q 5728 1763 5728 1178 
Q 5728 594 5436 251 
Q 5144 -91 4653 -91 
Q 4153 -91 3862 251 
Q 3572 594 3572 1178 
Q 3572 1766 3864 2108 
Q 4156 2450 4653 2450 
z
M 1428 4353 
Q 1159 4353 1004 4120 
Q 850 3888 850 3481 
Q 850 3069 1003 2837 
Q 1156 2606 1428 2606 
Q 1700 2606 1854 2837 
Q 2009 3069 2009 3481 
Q 2009 3884 1853 4118 
Q 1697 4353 1428 4353 
z
M 4250 4750 
L 4750 4750 
L 1831 -91 
L 1331 -91 
L 4250 4750 
z
M 1428 4750 
Q 1922 4750 2215 4408 
Q 2509 4066 2509 3481 
Q 2509 2891 2217 2550 
Q 1925 2209 1428 2209 
Q 931 2209 642 2551 
Q 353 2894 353 3481 
Q 353 4063 643 4406 
Q 934 4750 1428 4750 
z
" transform="scale(0.015625)"/>
     </defs>
     <use xlink:href="#DejaVuSans-394" transform="translate(0 0.234375)"/>
     <use xlink:href="#DejaVuSans-Oblique-3b8" transform="translate(68.408203 0.234375)"/>
     <use xlink:href="#DejaVuSans-20" transform="translate(129.589844 0.234375)"/>
     <use xlink:href="#DejaVuSans-69" transform="translate(161.376953 0.234375)"/>
     <use xlink:href="#DejaVuSans-6d" transform="translate(189.160156 0.234375)"/>
     <use xlink:href="#DejaVuSans-70" transform="translate(286.572266 0.234375)"/>
     <use xlink:href="#DejaVuSans-72" transform="translate(350.048828 0.234375)"/>
     <use xlink:href="#DejaVuSans-6f" transform="translate(391.162109 0.234375)"/>
     <use xlink:href="#DejaVuSans-76" transform="translate(452.34375 0.234375)"/>
     <use xlink:href="#DejaVuSans-65" transform="translate(511.523438 0.234375)"/>
     <use xlink:href="#DejaVuSans-6d" transform="translate(573.046875 0.234375)"/>
     <use xlink:href="#DejaVuSans-65" transform="translate(670.458984 0.234375)"/>
     <use xlink:href="#DejaVuSans-6e" transform="translate(731.982422 0.234375)"/>
     <use xlink:href="#DejaVuSans-74" transform="translate(795.361328 0.234375)"/>
     <use xlink:href="#DejaVuSans-3a" transform="translate(834.570312 0.234375)"/>
     <use xlink:href="#DejaVuSans-20" transform="translate(868.261719 0.234375)"/>
     <use xlink:href="#DejaVuSans-30" transform="translate(900.048828 0.234375)"/>
     <use xlink:href="#DejaVuSans-2e" transform="translate(963.671875 0.234375)"/>
     <use xlink:href="#DejaVuSans-34" transform="translate(995.458984 0.234375)"/>
     <use xlink:href="#DejaVuSans-5c" transform="translate(1059.082031 0.234375)"/>
     <use xlink:href="#DejaVuSans-25" transform="translate(1092.773438 0.234375)"/>
    </g>
   </g>
   <g id="text_17">
    <!-- M-scaling: $\Delta\theta$ vs ancilla size $M$ (N=4) -->
    <g style="fill: #262626" transform="translate(166.07375 16.44) scale(0.12 -0.12)">
     <defs>
      <path id="DejaVuSans-4d" d="M 628 4666 
L 1569 4666 
L 2759 1491 
L 3956 4666 
L 4897 4666 
L 4897 0 
L 4281 0 
L 4281 4097 
L 3078 897 
L 2444 897 
L 1241 4097 
L 1241 0 
L 628 0 
L 628 4666 
z
" transform="scale(0.015625)"/>
      <path id="DejaVuSans-2d" d="M 313 2009 
L 1997 2009 
L 1997 1497 
L 313 1497 
L 313 2009 
z
" transform="scale(0.015625)"/>
      <path id="DejaVuSans-67" d="M 2906 1791 
Q 2906 2416 2648 2759 
Q 2391 3103 1925 3103 
Q 1463 3103 1205 2759 
Q 947 2416 947 1791 
Q 947 1169 1205 825 
Q 1463 481 1925 481 
Q 2391 481 2648 825 
Q 2906 1169 2906 1791 
z
M 3481 434 
Q 3481 -459 3084 -895 
Q 2688 -1331 1869 -1331 
Q 1566 -1331 1297 -1286 
Q 1028 -1241 775 -1147 
L 775 -588 
Q 1028 -725 1275 -790 
Q 1522 -856 1778 -856 
Q 2344 -856 2625 -561 
Q 2906 -266 2906 331 
L 2906 616 
Q 2728 306 2450 153 
Q 2172 0 1784 0 
Q 1141 0 747 490 
Q 353 981 353 1791 
Q 353 2603 747 3093 
Q 1141 3584 1784 3584 
Q 2172 3584 2450 3431 
Q 2728 3278 2906 2969 
L 2906 3500 
L 3481 3500 
L 3481 434 
z
" transform="scale(0.015625)"/>
      <path id="DejaVuSans-7a" d="M 353 3500 
L 3084 3500 
L 3084 2975 
L 922 459 
L 3084 459 
L 3084 0 
L 275 0 
L 275 525 
L 2438 3041 
L 353 3041 
L 353 3500 
z
" transform="scale(0.015625)"/>
      <path id="DejaVuSans-4e" d="M 628 4666 
L 1478 4666 
L 3547 763 
L 3547 4666 
L 4159 4666 
L 4159 0 
L 3309 0 
L 1241 3903 
L 1241 0 
L 628 0 
L 628 4666 
z
" transform="scale(0.015625)"/>
      <path id="DejaVuSans-3d" d="M 678 2906 
L 4684 2906 
L 4684 2381 
L 678 2381 
L 678 2906 
z
M 678 1631 
L 4684 1631 
L 4684 1100 
L 678 1100 
L 678 1631 
z
" transform="scale(0.015625)"/>
     </defs>
     <use xlink:href="#DejaVuSans-4d" transform="translate(0 0.234375)"/>
     <use xlink:href="#DejaVuSans-2d" transform="translate(86.279297 0.234375)"/>
     <use xlink:href="#DejaVuSans-73" transform="translate(122.363281 0.234375)"/>
     <use xlink:href="#DejaVuSans-63" transform="translate(174.462891 0.234375)"/>
     <use xlink:href="#DejaVuSans-61" transform="translate(229.443359 0.234375)"/>
     <use xlink:href="#DejaVuSans-6c" transform="translate(290.722656 0.234375)"/>
     <use xlink:href="#DejaVuSans-69" transform="translate(318.505859 0.234375)"/>
     <use xlink:href="#DejaVuSans-6e" transform="translate(346.289062 0.234375)"/>
     <use xlink:href="#DejaVuSans-67" transform="translate(409.667969 0.234375)"/>
     <use xlink:href="#DejaVuSans-3a" transform="translate(473.144531 0.234375)"/>
     <use xlink:href="#DejaVuSans-20" transform="translate(506.835938 0.234375)"/>
     <use xlink:href="#DejaVuSans-394" transform="translate(538.623047 0.234375)"/>
     <use xlink:href="#DejaVuSans-Oblique-3b8" transform="translate(607.03125 0.234375)"/>
     <use xlink:href="#DejaVuSans-20" transform="translate(668.212891 0.234375)"/>
     <use xlink:href="#DejaVuSans-76" transform="translate(700 0.234375)"/>
     <use xlink:href="#DejaVuSans-73" transform="translate(759.179688 0.234375)"/>
     <use xlink:href="#DejaVuSans-20" transform="translate(811.279297 0.234375)"/>
     <use xlink:href="#DejaVuSans-61" transform="translate(843.066406 0.234375)"/>
     <use xlink:href="#DejaVuSans-6e" transform="translate(904.345703 0.234375)"/>
     <use xlink:href="#DejaVuSans-63" transform="translate(967.724609 0.234375)"/>
     <use xlink:href="#DejaVuSans-69" transform="translate(1022.705078 0.234375)"/>
     <use xlink:href="#DejaVuSans-6c" transform="translate(1050.488281 0.234375)"/>
     <use xlink:href="#DejaVuSans-6c" transform="translate(1078.271484 0.234375)"/>
     <use xlink:href="#DejaVuSans-61" transform="translate(1106.054688 0.234375)"/>
     <use xlink:href="#DejaVuSans-20" transform="translate(1167.333984 0.234375)"/>
     <use xlink:href="#DejaVuSans-73" transform="translate(1199.121094 0.234375)"/>
     <use xlink:href="#DejaVuSans-69" transform="translate(1251.220703 0.234375)"/>
     <use xlink:href="#DejaVuSans-7a" transform="translate(1279.003906 0.234375)"/>
     <use xlink:href="#DejaVuSans-65" transform="translate(1331.494141 0.234375)"/>
     <use xlink:href="#DejaVuSans-20" transform="translate(1393.017578 0.234375)"/>
     <use xlink:href="#DejaVuSans-Oblique-4d" transform="translate(1424.804688 0.234375)"/>
     <use xlink:href="#DejaVuSans-20" transform="translate(1511.083984 0.234375)"/>
     <use xlink:href="#DejaVuSans-28" transform="translate(1542.871094 0.234375)"/>
     <use xlink:href="#DejaVuSans-4e" transform="translate(1581.884766 0.234375)"/>
     <use xlink:href="#DejaVuSans-3d" transform="translate(1656.689453 0.234375)"/>
     <use xlink:href="#DejaVuSans-34" transform="translate(1740.478516 0.234375)"/>
     <use xlink:href="#DejaVuSans-29" transform="translate(1804.101562 0.234375)"/>
    </g>
   </g>
   <g id="legend_1">
    <g id="patch_8">
     <path d="M 348.45815 62.801974 
L 452.41655 62.801974 
Q 454.41575 62.801974 454.41575 60.802774 
L 454.41575 29.4372 
Q 454.41575 27.438 452.41655 27.438 
L 348.45815 27.438 
Q 346.45895 27.438 346.45895 29.4372 
L 346.45895 60.802774 
Q 346.45895 62.801974 348.45815 62.801974 
z
" style="fill: #ffffff; opacity: 0.8; stroke: #cccccc; stroke-linejoin: miter"/>
    </g>
    <g id="line2d_16">
     <path d="M 350.45735 35.533198 
L 360.45335 35.533198 
L 370.44935 35.533198 
" style="fill: none; stroke: #4c72b0; stroke-width: 2; stroke-linecap: round"/>
     <g>
      <use xlink:href="#me8330ca4fe" x="360.45335" y="35.533198" style="fill: #4c72b0; stroke: #4c72b0"/>
     </g>
    </g>
    <g id="text_18">
     <!-- $\Delta\theta$ (best) -->
     <g style="fill: #262626" transform="translate(378.44615 39.031798) scale(0.09996 -0.09996)">
      <defs>
       <path id="DejaVuSans-62" d="M 3116 1747 
Q 3116 2381 2855 2742 
Q 2594 3103 2138 3103 
Q 1681 3103 1420 2742 
Q 1159 2381 1159 1747 
Q 1159 1113 1420 752 
Q 1681 391 2138 391 
Q 2594 391 2855 752 
Q 3116 1113 3116 1747 
z
M 1159 2969 
Q 1341 3281 1617 3432 
Q 1894 3584 2278 3584 
Q 2916 3584 3314 3078 
Q 3713 2572 3713 1747 
Q 3713 922 3314 415 
Q 2916 -91 2278 -91 
Q 1894 -91 1617 61 
Q 1341 213 1159 525 
L 1159 0 
L 581 0 
L 581 4863 
L 1159 4863 
L 1159 2969 
z
" transform="scale(0.015625)"/>
      </defs>
      <use xlink:href="#DejaVuSans-394" transform="translate(0 0.234375)"/>
      <use xlink:href="#DejaVuSans-Oblique-3b8" transform="translate(68.408203 0.234375)"/>
      <use xlink:href="#DejaVuSans-20" transform="translate(129.589844 0.234375)"/>
      <use xlink:href="#DejaVuSans-28" transform="translate(161.376953 0.234375)"/>
      <use xlink:href="#DejaVuSans-62" transform="translate(200.390625 0.234375)"/>
      <use xlink:href="#DejaVuSans-65" transform="translate(263.867188 0.234375)"/>
      <use xlink:href="#DejaVuSans-73" transform="translate(325.390625 0.234375)"/>
      <use xlink:href="#DejaVuSans-74" transform="translate(377.490234 0.234375)"/>
      <use xlink:href="#DejaVuSans-29" transform="translate(416.699219 0.234375)"/>
     </g>
    </g>
    <g id="line2d_17">
     <path d="M 350.45735 53.226118 
L 360.45335 53.226118 
L 370.44935 53.226118 
" style="fill: none; stroke-dasharray: 1.5,2.475; stroke-dashoffset: 0; stroke: #55a868; stroke-opacity: 0.6; stroke-width: 1.5"/>
    </g>
    <g id="text_19">
     <!-- SQL: $1/(\sqrt{4}\,T_H)$ -->
     <g style="fill: #262626" transform="translate(378.44615 56.724718) scale(0.09996 -0.09996)">
      <defs>
       <path id="DejaVuSans-53" d="M 3425 4513 
L 3425 3897 
Q 3066 4069 2747 4153 
Q 2428 4238 2131 4238 
Q 1616 4238 1336 4038 
Q 1056 3838 1056 3469 
Q 1056 3159 1242 3001 
Q 1428 2844 1947 2747 
L 2328 2669 
Q 3034 2534 3370 2195 
Q 3706 1856 3706 1288 
Q 3706 609 3251 259 
Q 2797 -91 1919 -91 
Q 1588 -91 1214 -16 
Q 841 59 441 206 
L 441 856 
Q 825 641 1194 531 
Q 1563 422 1919 422 
Q 2459 422 2753 634 
Q 3047 847 3047 1241 
Q 3047 1584 2836 1778 
Q 2625 1972 2144 2069 
L 1759 2144 
Q 1053 2284 737 2584 
Q 422 2884 422 3419 
Q 422 4038 858 4394 
Q 1294 4750 2059 4750 
Q 2388 4750 2728 4690 
Q 3069 4631 3425 4513 
z
" transform="scale(0.015625)"/>
       <path id="DejaVuSans-51" d="M 2522 4238 
Q 1834 4238 1429 3725 
Q 1025 3213 1025 2328 
Q 1025 1447 1429 934 
Q 1834 422 2522 422 
Q 3209 422 3611 934 
Q 4013 1447 4013 2328 
Q 4013 3213 3611 3725 
Q 3209 4238 2522 4238 
z
M 3406 84 
L 4238 -825 
L 3475 -825 
L 2784 -78 
Q 2681 -84 2626 -87 
Q 2572 -91 2522 -91 
Q 1538 -91 948 567 
Q 359 1225 359 2328 
Q 359 3434 948 4092 
Q 1538 4750 2522 4750 
Q 3503 4750 4090 4092 
Q 4678 3434 4678 2328 
Q 4678 1516 4351 937 
Q 4025 359 3406 84 
z
" transform="scale(0.015625)"/>
       <path id="DejaVuSans-4c" d="M 628 4666 
L 1259 4666 
L 1259 531 
L 3531 531 
L 3531 0 
L 628 0 
L 628 4666 
z
" transform="scale(0.015625)"/>
       <path id="DejaVuSans-2f" d="M 1625 4666 
L 2156 4666 
L 531 -594 
L 0 -594 
L 1625 4666 
z
" transform="scale(0.015625)"/>
       <path id="STIXSizeOneSym-Regular-221a" d="M 6970 9933 
L 3373 -1888 
L 3104 -1888 
L 1626 2918 
Q 1555 3149 1465 3251 
Q 1376 3354 1229 3354 
Q 1011 3354 794 3181 
L 717 3309 
L 1766 4115 
L 1926 4115 
L 3379 -602 
L 3405 -602 
L 6605 9933 
L 6970 9933 
z
" transform="scale(0.015625)"/>
       <path id="DejaVuSans-Oblique-54" d="M 378 4666 
L 4325 4666 
L 4225 4134 
L 2559 4134 
L 1759 0 
L 1125 0 
L 1925 4134 
L 275 4134 
L 378 4666 
z
" transform="scale(0.015625)"/>
       <path id="DejaVuSans-Oblique-48" d="M 1081 4666 
L 1716 4666 
L 1344 2753 
L 3634 2753 
L 4006 4666 
L 4641 4666 
L 3731 0 
L 3097 0 
L 3531 2222 
L 1241 2222 
L 806 0 
L 172 0 
L 1081 4666 
z
" transform="scale(0.015625)"/>
      </defs>
      <use xlink:href="#DejaVuSans-53" transform="translate(0 0.578125)"/>
      <use xlink:href="#DejaVuSans-51" transform="translate(63.476562 0.578125)"/>
      <use xlink:href="#DejaVuSans-4c" transform="translate(142.1875 0.578125)"/>
      <use xlink:href="#DejaVuSans-3a" transform="translate(197.900391 0.578125)"/>
      <use xlink:href="#DejaVuSans-20" transform="translate(231.591797 0.578125)"/>
      <use xlink:href="#DejaVuSans-31" transform="translate(263.378906 0.578125)"/>
      <use xlink:href="#DejaVuSans-2f" transform="translate(327.001953 0.578125)"/>
      <use xlink:href="#DejaVuSans-28" transform="translate(360.693359 0.578125)"/>
      <use xlink:href="#STIXSizeOneSym-Regular-221a" transform="translate(399.707031 17.09375) scale(0.563912)"/>
      <use xlink:href="#DejaVuSans-34" transform="translate(471.795395 0.84375)"/>
      <use xlink:href="#DejaVuSans-Oblique-54" transform="translate(564.154118 0.578125)"/>
      <use xlink:href="#DejaVuSans-Oblique-48" transform="translate(625.238102 -15.828125) scale(0.7)"/>
      <use xlink:href="#DejaVuSans-29" transform="translate(680.609196 0.578125)"/>
      <path d="M 459.295395 97.5 
L 459.295395 103.75 
L 547.918442 103.75 
L 547.918442 97.5 
L 459.295395 97.5 
z
"/>
     </g>
    </g>
   </g>
  </g>
  <g id="axes_2">
   <g id="matplotlib.axis_3">
    <g id="ytick_7">
     <g id="line2d_18">
      <path d="M 94.01375 287.04 
L 459.41375 287.04 
" clip-path="url(#pa30854ef85)" style="fill: none; stroke: #cccccc; stroke-linecap: round"/>
     </g>
     <g id="line2d_19">
      <defs>
       <path id="m202a72b164" d="M 0 0 
L 6 0 
" style="stroke: #262626; stroke-width: 1.25"/>
      </defs>
      <g>
       <use xlink:href="#m202a72b164" x="459.41375" y="287.04" style="fill: #262626; stroke: #262626; stroke-width: 1.25"/>
      </g>
     </g>
     <g id="text_20">
      <!-- −1.00 -->
      <g style="fill: #262626" transform="translate(468.91375 291.219141) scale(0.11 -0.11)">
       <use xlink:href="#DejaVuSans-2212"/>
       <use xlink:href="#DejaVuSans-31" transform="translate(83.789062 0)"/>
       <use xlink:href="#DejaVuSans-2e" transform="translate(147.412109 0)"/>
       <use xlink:href="#DejaVuSans-30" transform="translate(179.199219 0)"/>
       <use xlink:href="#DejaVuSans-30" transform="translate(242.822266 0)"/>
      </g>
     </g>
    </g>
    <g id="ytick_8">
     <g id="line2d_20">
      <path d="M 94.01375 255.54 
L 459.41375 255.54 
" clip-path="url(#pa30854ef85)" style="fill: none; stroke: #cccccc; stroke-linecap: round"/>
     </g>
     <g id="line2d_21">
      <g>
       <use xlink:href="#m202a72b164" x="459.41375" y="255.54" style="fill: #262626; stroke: #262626; stroke-width: 1.25"/>
      </g>
     </g>
     <g id="text_21">
      <!-- −0.75 -->
      <g style="fill: #262626" transform="translate(468.91375 259.719141) scale(0.11 -0.11)">
       <use xlink:href="#DejaVuSans-2212"/>
       <use xlink:href="#DejaVuSans-30" transform="translate(83.789062 0)"/>
       <use xlink:href="#DejaVuSans-2e" transform="translate(147.412109 0)"/>
       <use xlink:href="#DejaVuSans-37" transform="translate(179.199219 0)"/>
       <use xlink:href="#DejaVuSans-35" transform="translate(242.822266 0)"/>
      </g>
     </g>
    </g>
    <g id="ytick_9">
     <g id="line2d_22">
      <path d="M 94.01375 224.04 
L 459.41375 224.04 
" clip-path="url(#pa30854ef85)" style="fill: none; stroke: #cccccc; stroke-linecap: round"/>
     </g>
     <g id="line2d_23">
      <g>
       <use xlink:href="#m202a72b164" x="459.41375" y="224.04" style="fill: #262626; stroke: #262626; stroke-width: 1.25"/>
      </g>
     </g>
     <g id="text_22">
      <!-- −0.50 -->
      <g style="fill: #262626" transform="translate(468.91375 228.219141) scale(0.11 -0.11)">
       <use xlink:href="#DejaVuSans-2212"/>
       <use xlink:href="#DejaVuSans-30" transform="translate(83.789062 0)"/>
       <use xlink:href="#DejaVuSans-2e" transform="translate(147.412109 0)"/>
       <use xlink:href="#DejaVuSans-35" transform="translate(179.199219 0)"/>
       <use xlink:href="#DejaVuSans-30" transform="translate(242.822266 0)"/>
      </g>
     </g>
    </g>
    <g id="ytick_10">
     <g id="line2d_24">
      <path d="M 94.01375 192.54 
L 459.41375 192.54 
" clip-path="url(#pa30854ef85)" style="fill: none; stroke: #cccccc; stroke-linecap: round"/>
     </g>
     <g id="line2d_25">
      <g>
       <use xlink:href="#m202a72b164" x="459.41375" y="192.54" style="fill: #262626; stroke: #262626; stroke-width: 1.25"/>
      </g>
     </g>
     <g id="text_23">
      <!-- −0.25 -->
      <g style="fill: #262626" transform="translate(468.91375 196.719141) scale(0.11 -0.11)">
       <use xlink:href="#DejaVuSans-2212"/>
       <use xlink:href="#DejaVuSans-30" transform="translate(83.789062 0)"/>
       <use xlink:href="#DejaVuSans-2e" transform="translate(147.412109 0)"/>
       <use xlink:href="#DejaVuSans-32" transform="translate(179.199219 0)"/>
       <use xlink:href="#DejaVuSans-35" transform="translate(242.822266 0)"/>
      </g>
     </g>
    </g>
    <g id="ytick_11">
     <g id="line2d_26">
      <path d="M 94.01375 161.04 
L 459.41375 161.04 
" clip-path="url(#pa30854ef85)" style="fill: none; stroke: #cccccc; stroke-linecap: round"/>
     </g>
     <g id="line2d_27">
      <g>
       <use xlink:href="#m202a72b164" x="459.41375" y="161.04" style="fill: #262626; stroke: #262626; stroke-width: 1.25"/>
      </g>
     </g>
     <g id="text_24">
      <!-- 0.00 -->
      <g style="fill: #262626" transform="translate(468.91375 165.219141) scale(0.11 -0.11)">
       <use xlink:href="#DejaVuSans-30"/>
       <use xlink:href="#DejaVuSans-2e" transform="translate(63.623047 0)"/>
       <use xlink:href="#DejaVuSans-30" transform="translate(95.410156 0)"/>
       <use xlink:href="#DejaVuSans-30" transform="translate(159.033203 0)"/>
      </g>
     </g>
    </g>
    <g id="ytick_12">
     <g id="line2d_28">
      <path d="M 94.01375 129.54 
L 459.41375 129.54 
" clip-path="url(#pa30854ef85)" style="fill: none; stroke: #cccccc; stroke-linecap: round"/>
     </g>
     <g id="line2d_29">
      <g>
       <use xlink:href="#m202a72b164" x="459.41375" y="129.54" style="fill: #262626; stroke: #262626; stroke-width: 1.25"/>
      </g>
     </g>
     <g id="text_25">
      <!-- 0.25 -->
      <g style="fill: #262626" transform="translate(468.91375 133.719141) scale(0.11 -0.11)">
       <use xlink:href="#DejaVuSans-30"/>
       <use xlink:href="#DejaVuSans-2e" transform="translate(63.623047 0)"/>
       <use xlink:href="#DejaVuSans-32" transform="translate(95.410156 0)"/>
       <use xlink:href="#DejaVuSans-35" transform="translate(159.033203 0)"/>
      </g>
     </g>
    </g>
    <g id="ytick_13">
     <g id="line2d_30">
      <path d="M 94.01375 98.04 
L 459.41375 98.04 
" clip-path="url(#pa30854ef85)" style="fill: none; stroke: #cccccc; stroke-linecap: round"/>
     </g>
     <g id="line2d_31">
      <g>
       <use xlink:href="#m202a72b164" x="459.41375" y="98.04" style="fill: #262626; stroke: #262626; stroke-width: 1.25"/>
      </g>
     </g>
     <g id="text_26">
      <!-- 0.50 -->
      <g style="fill: #262626" transform="translate(468.91375 102.219141) scale(0.11 -0.11)">
       <use xlink:href="#DejaVuSans-30"/>
       <use xlink:href="#DejaVuSans-2e" transform="translate(63.623047 0)"/>
       <use xlink:href="#DejaVuSans-35" transform="translate(95.410156 0)"/>
       <use xlink:href="#DejaVuSans-30" transform="translate(159.033203 0)"/>
      </g>
     </g>
    </g>
    <g id="ytick_14">
     <g id="line2d_32">
      <path d="M 94.01375 66.54 
L 459.41375 66.54 
" clip-path="url(#pa30854ef85)" style="fill: none; stroke: #cccccc; stroke-linecap: round"/>
     </g>
     <g id="line2d_33">
      <g>
       <use xlink:href="#m202a72b164" x="459.41375" y="66.54" style="fill: #262626; stroke: #262626; stroke-width: 1.25"/>
      </g>
     </g>
     <g id="text_27">
      <!-- 0.75 -->
      <g style="fill: #262626" transform="translate(468.91375 70.719141) scale(0.11 -0.11)">
       <use xlink:href="#DejaVuSans-30"/>
       <use xlink:href="#DejaVuSans-2e" transform="translate(63.623047 0)"/>
       <use xlink:href="#DejaVuSans-37" transform="translate(95.410156 0)"/>
       <use xlink:href="#DejaVuSans-35" transform="translate(159.033203 0)"/>
      </g>
     </g>
    </g>
    <g id="ytick_15">
     <g id="line2d_34">
      <path d="M 94.01375 35.04 
L 459.41375 35.04 
" clip-path="url(#pa30854ef85)" style="fill: none; stroke: #cccccc; stroke-linecap: round"/>
     </g>
     <g id="line2d_35">
      <g>
       <use xlink:href="#m202a72b164" x="459.41375" y="35.04" style="fill: #262626; stroke: #262626; stroke-width: 1.25"/>
      </g>
     </g>
     <g id="text_28">
      <!-- 1.00 -->
      <g style="fill: #262626" transform="translate(468.91375 39.219141) scale(0.11 -0.11)">
       <use xlink:href="#DejaVuSans-31"/>
       <use xlink:href="#DejaVuSans-2e" transform="translate(63.623047 0)"/>
       <use xlink:href="#DejaVuSans-30" transform="translate(95.410156 0)"/>
       <use xlink:href="#DejaVuSans-30" transform="translate(159.033203 0)"/>
      </g>
     </g>
    </g>
    <g id="text_29">
     <!-- Optimal weight $a^*, b^*$ -->
     <g style="fill: #262626" transform="translate(517.543594 227.94) rotate(-90) scale(0.12 -0.12)">
      <defs>
       <path id="DejaVuSans-4f" d="M 2522 4238 
Q 1834 4238 1429 3725 
Q 1025 3213 1025 2328 
Q 1025 1447 1429 934 
Q 1834 422 2522 422 
Q 3209 422 3611 934 
Q 4013 1447 4013 2328 
Q 4013 3213 3611 3725 
Q 3209 4238 2522 4238 
z
M 2522 4750 
Q 3503 4750 4090 4092 
Q 4678 3434 4678 2328 
Q 4678 1225 4090 567 
Q 3503 -91 2522 -91 
Q 1538 -91 948 565 
Q 359 1222 359 2328 
Q 359 3434 948 4092 
Q 1538 4750 2522 4750 
z
" transform="scale(0.015625)"/>
       <path id="DejaVuSans-77" d="M 269 3500 
L 844 3500 
L 1563 769 
L 2278 3500 
L 2956 3500 
L 3675 769 
L 4391 3500 
L 4966 3500 
L 4050 0 
L 3372 0 
L 2619 2869 
L 1863 0 
L 1184 0 
L 269 3500 
z
" transform="scale(0.015625)"/>
       <path id="DejaVuSans-68" d="M 3513 2113 
L 3513 0 
L 2938 0 
L 2938 2094 
Q 2938 2591 2744 2837 
Q 2550 3084 2163 3084 
Q 1697 3084 1428 2787 
Q 1159 2491 1159 1978 
L 1159 0 
L 581 0 
L 581 4863 
L 1159 4863 
L 1159 2956 
Q 1366 3272 1645 3428 
Q 1925 3584 2291 3584 
Q 2894 3584 3203 3211 
Q 3513 2838 3513 2113 
z
" transform="scale(0.015625)"/>
       <path id="DejaVuSans-Oblique-61" d="M 3438 1997 
L 3047 0 
L 2472 0 
L 2578 531 
Q 2325 219 2001 64 
Q 1678 -91 1281 -91 
Q 834 -91 548 182 
Q 263 456 263 884 
Q 263 1497 752 1853 
Q 1241 2209 2100 2209 
L 2900 2209 
L 2931 2363 
Q 2938 2388 2941 2417 
Q 2944 2447 2944 2509 
Q 2944 2788 2717 2942 
Q 2491 3097 2081 3097 
Q 1800 3097 1504 3025 
Q 1209 2953 897 2809 
L 997 3341 
Q 1322 3463 1633 3523 
Q 1944 3584 2234 3584 
Q 2853 3584 3176 3315 
Q 3500 3047 3500 2534 
Q 3500 2431 3484 2292 
Q 3469 2153 3438 1997 
z
M 2816 1759 
L 2241 1759 
Q 1534 1759 1195 1570 
Q 856 1381 856 984 
Q 856 709 1029 553 
Q 1203 397 1509 397 
Q 1978 397 2328 733 
Q 2678 1069 2791 1631 
L 2816 1759 
z
" transform="scale(0.015625)"/>
       <path id="DejaVuSans-2a" d="M 3009 3897 
L 1888 3291 
L 3009 2681 
L 2828 2375 
L 1778 3009 
L 1778 1831 
L 1422 1831 
L 1422 3009 
L 372 2375 
L 191 2681 
L 1313 3291 
L 191 3897 
L 372 4206 
L 1422 3572 
L 1422 4750 
L 1778 4750 
L 1778 3572 
L 2828 4206 
L 3009 3897 
z
" transform="scale(0.015625)"/>
       <path id="DejaVuSans-2c" d="M 750 794 
L 1409 794 
L 1409 256 
L 897 -744 
L 494 -744 
L 750 256 
L 750 794 
z
" transform="scale(0.015625)"/>
       <path id="DejaVuSans-Oblique-62" d="M 3169 2138 
Q 3169 2591 2961 2847 
Q 2753 3103 2388 3103 
Q 2122 3103 1889 2973 
Q 1656 2844 1484 2597 
Q 1303 2338 1198 1995 
Q 1094 1653 1094 1313 
Q 1094 881 1298 636 
Q 1503 391 1863 391 
Q 2134 391 2365 517 
Q 2597 644 2772 891 
Q 2950 1147 3059 1487 
Q 3169 1828 3169 2138 
z
M 1381 2969 
Q 1594 3256 1914 3420 
Q 2234 3584 2584 3584 
Q 3122 3584 3439 3221 
Q 3756 2859 3756 2241 
Q 3756 1734 3570 1259 
Q 3384 784 3041 416 
Q 2816 172 2522 40 
Q 2228 -91 1906 -91 
Q 1566 -91 1316 65 
Q 1066 222 909 531 
L 806 0 
L 231 0 
L 1178 4863 
L 1753 4863 
L 1381 2969 
z
" transform="scale(0.015625)"/>
      </defs>
      <use xlink:href="#DejaVuSans-4f" transform="translate(0 0.765625)"/>
      <use xlink:href="#DejaVuSans-70" transform="translate(78.710938 0.765625)"/>
      <use xlink:href="#DejaVuSans-74" transform="translate(142.1875 0.765625)"/>
      <use xlink:href="#DejaVuSans-69" transform="translate(181.396484 0.765625)"/>
      <use xlink:href="#DejaVuSans-6d" transform="translate(209.179688 0.765625)"/>
      <use xlink:href="#DejaVuSans-61" transform="translate(306.591797 0.765625)"/>
      <use xlink:href="#DejaVuSans-6c" transform="translate(367.871094 0.765625)"/>
      <use xlink:href="#DejaVuSans-20" transform="translate(395.654297 0.765625)"/>
      <use xlink:href="#DejaVuSans-77" transform="translate(427.441406 0.765625)"/>
      <use xlink:href="#DejaVuSans-65" transform="translate(509.228516 0.765625)"/>
      <use xlink:href="#DejaVuSans-69" transform="translate(570.751953 0.765625)"/>
      <use xlink:href="#DejaVuSans-67" transform="translate(598.535156 0.765625)"/>
      <use xlink:href="#DejaVuSans-68" transform="translate(662.011719 0.765625)"/>
      <use xlink:href="#DejaVuSans-74" transform="translate(725.390625 0.765625)"/>
      <use xlink:href="#DejaVuSans-20" transform="translate(764.599609 0.765625)"/>
      <use xlink:href="#DejaVuSans-Oblique-61" transform="translate(796.386719 0.765625)"/>
      <use xlink:href="#DejaVuSans-2a" transform="translate(875.953607 39.046875) scale(0.7)"/>
      <use xlink:href="#DejaVuSans-2c" transform="translate(927.325677 0.765625)"/>
      <use xlink:href="#DejaVuSans-Oblique-62" transform="translate(978.595208 0.765625)"/>
      <use xlink:href="#DejaVuSans-2a" transform="translate(1063.157174 39.046875) scale(0.7)"/>
     </g>
    </g>
   </g>
   <g id="line2d_36">
    <path d="M 110.622841 275.090125 
L 138.304659 76.085586 
L 165.986477 287.04 
L 193.668295 70.69918 
L 221.350114 35.04 
L 276.71375 287.04 
L 332.077386 286.087889 
L 442.804659 35.146052 
" clip-path="url(#pa30854ef85)" style="fill: none; stroke-dasharray: 5.55,2.4; stroke-dashoffset: 0; stroke: #c44e52; stroke-opacity: 0.6; stroke-width: 1.5"/>
    <defs>
     <path id="m754fa70550" d="M -2 2 
L 2 2 
L 2 -2 
L -2 -2 
z
" style="stroke: #c44e52; stroke-opacity: 0.6; stroke-linejoin: miter"/>
    </defs>
    <g clip-path="url(#pa30854ef85)">
     <use xlink:href="#m754fa70550" x="110.622841" y="275.090125" style="fill: #c44e52; fill-opacity: 0.6; stroke: #c44e52; stroke-opacity: 0.6; stroke-linejoin: miter"/>
     <use xlink:href="#m754fa70550" x="138.304659" y="76.085586" style="fill: #c44e52; fill-opacity: 0.6; stroke: #c44e52; stroke-opacity: 0.6; stroke-linejoin: miter"/>
     <use xlink:href="#m754fa70550" x="165.986477" y="287.04" style="fill: #c44e52; fill-opacity: 0.6; stroke: #c44e52; stroke-opacity: 0.6; stroke-linejoin: miter"/>
     <use xlink:href="#m754fa70550" x="193.668295" y="70.69918" style="fill: #c44e52; fill-opacity: 0.6; stroke: #c44e52; stroke-opacity: 0.6; stroke-linejoin: miter"/>
     <use xlink:href="#m754fa70550" x="221.350114" y="35.04" style="fill: #c44e52; fill-opacity: 0.6; stroke: #c44e52; stroke-opacity: 0.6; stroke-linejoin: miter"/>
     <use xlink:href="#m754fa70550" x="276.71375" y="287.04" style="fill: #c44e52; fill-opacity: 0.6; stroke: #c44e52; stroke-opacity: 0.6; stroke-linejoin: miter"/>
     <use xlink:href="#m754fa70550" x="332.077386" y="286.087889" style="fill: #c44e52; fill-opacity: 0.6; stroke: #c44e52; stroke-opacity: 0.6; stroke-linejoin: miter"/>
     <use xlink:href="#m754fa70550" x="442.804659" y="35.146052" style="fill: #c44e52; fill-opacity: 0.6; stroke: #c44e52; stroke-opacity: 0.6; stroke-linejoin: miter"/>
    </g>
   </g>
   <g id="line2d_37">
    <path d="M 110.622841 214.599024 
L 138.304659 254.092392 
L 165.986477 161.035502 
L 193.668295 73.207567 
L 221.350114 161.039209 
L 276.71375 161.039897 
L 332.077386 145.57955 
L 442.804659 155.871461 
" clip-path="url(#pa30854ef85)" style="fill: none; stroke-dasharray: 5.55,2.4; stroke-dashoffset: 0; stroke: #8172b3; stroke-opacity: 0.6; stroke-width: 1.5"/>
    <defs>
     <path id="md92a53a4b7" d="M 0 -2 
L -2 2 
L 2 2 
z
" style="stroke: #8172b3; stroke-opacity: 0.6; stroke-linejoin: miter"/>
    </defs>
    <g clip-path="url(#pa30854ef85)">
     <use xlink:href="#md92a53a4b7" x="110.622841" y="214.599024" style="fill: #8172b3; fill-opacity: 0.6; stroke: #8172b3; stroke-opacity: 0.6; stroke-linejoin: miter"/>
     <use xlink:href="#md92a53a4b7" x="138.304659" y="254.092392" style="fill: #8172b3; fill-opacity: 0.6; stroke: #8172b3; stroke-opacity: 0.6; stroke-linejoin: miter"/>
     <use xlink:href="#md92a53a4b7" x="165.986477" y="161.035502" style="fill: #8172b3; fill-opacity: 0.6; stroke: #8172b3; stroke-opacity: 0.6; stroke-linejoin: miter"/>
     <use xlink:href="#md92a53a4b7" x="193.668295" y="73.207567" style="fill: #8172b3; fill-opacity: 0.6; stroke: #8172b3; stroke-opacity: 0.6; stroke-linejoin: miter"/>
     <use xlink:href="#md92a53a4b7" x="221.350114" y="161.039209" style="fill: #8172b3; fill-opacity: 0.6; stroke: #8172b3; stroke-opacity: 0.6; stroke-linejoin: miter"/>
     <use xlink:href="#md92a53a4b7" x="276.71375" y="161.039897" style="fill: #8172b3; fill-opacity: 0.6; stroke: #8172b3; stroke-opacity: 0.6; stroke-linejoin: miter"/>
     <use xlink:href="#md92a53a4b7" x="332.077386" y="145.57955" style="fill: #8172b3; fill-opacity: 0.6; stroke: #8172b3; stroke-opacity: 0.6; stroke-linejoin: miter"/>
     <use xlink:href="#md92a53a4b7" x="442.804659" y="155.871461" style="fill: #8172b3; fill-opacity: 0.6; stroke: #8172b3; stroke-opacity: 0.6; stroke-linejoin: miter"/>
    </g>
   </g>
   <g id="patch_9">
    <path d="M 94.01375 299.64 
L 94.01375 22.44 
" style="fill: none; stroke: #cccccc; stroke-width: 1.25; stroke-linejoin: miter; stroke-linecap: square"/>
   </g>
   <g id="patch_10">
    <path d="M 459.41375 299.64 
L 459.41375 22.44 
" style="fill: none; stroke: #cccccc; stroke-width: 1.25; stroke-linejoin: miter; stroke-linecap: square"/>
   </g>
   <g id="patch_11">
    <path d="M 94.01375 299.64 
L 459.41375 299.64 
" style="fill: none; stroke: #cccccc; stroke-width: 1.25; stroke-linejoin: miter; stroke-linecap: square"/>
   </g>
   <g id="patch_12">
    <path d="M 94.01375 22.44 
L 459.41375 22.44 
" style="fill: none; stroke: #cccccc; stroke-width: 1.25; stroke-linejoin: miter; stroke-linecap: square"/>
   </g>
   <g id="legend_2">
    <g id="patch_13">
     <path d="M 406.83479 294.642 
L 452.41655 294.642 
Q 454.41575 294.642 454.41575 292.6428 
L 454.41575 264.297893 
Q 454.41575 262.298693 452.41655 262.298693 
L 406.83479 262.298693 
Q 404.83559 262.298693 404.83559 264.297893 
L 404.83559 292.6428 
Q 404.83559 294.642 406.83479 294.642 
z
" style="fill: #ffffff; opacity: 0.8; stroke: #cccccc; stroke-linejoin: miter"/>
    </g>
    <g id="line2d_38">
     <path d="M 408.83399 270.393891 
L 418.82999 270.393891 
L 428.82599 270.393891 
" style="fill: none; stroke-dasharray: 5.55,2.4; stroke-dashoffset: 0; stroke: #c44e52; stroke-opacity: 0.6; stroke-width: 1.5"/>
     <g>
      <use xlink:href="#m754fa70550" x="418.82999" y="270.393891" style="fill: #c44e52; fill-opacity: 0.6; stroke: #c44e52; stroke-opacity: 0.6; stroke-linejoin: miter"/>
     </g>
    </g>
    <g id="text_30">
     <!-- $a^*$ -->
     <g style="fill: #262626" transform="translate(436.82279 273.892491) scale(0.09996 -0.09996)">
      <use xlink:href="#DejaVuSans-Oblique-61" transform="translate(0 0.765625)"/>
      <use xlink:href="#DejaVuSans-2a" transform="translate(79.566888 39.046875) scale(0.7)"/>
     </g>
    </g>
    <g id="line2d_39">
     <path d="M 408.83399 285.066144 
L 418.82999 285.066144 
L 428.82599 285.066144 
" style="fill: none; stroke-dasharray: 5.55,2.4; stroke-dashoffset: 0; stroke: #8172b3; stroke-opacity: 0.6; stroke-width: 1.5"/>
     <g>
      <use xlink:href="#md92a53a4b7" x="418.82999" y="285.066144" style="fill: #8172b3; fill-opacity: 0.6; stroke: #8172b3; stroke-opacity: 0.6; stroke-linejoin: miter"/>
     </g>
    </g>
    <g id="text_31">
     <!-- $b^*$ -->
     <g style="fill: #262626" transform="translate(436.82279 288.564744) scale(0.09996 -0.09996)">
      <use xlink:href="#DejaVuSans-Oblique-62" transform="translate(0 0.765625)"/>
      <use xlink:href="#DejaVuSans-2a" transform="translate(84.561966 39.046875) scale(0.7)"/>
     </g>
    </g>
   </g>
  </g>
 </g>
 <defs>
  <clipPath id="pa30854ef85">
   <rect x="94.01375" y="22.44" width="365.4" height="277.2"/>
  </clipPath>
 </defs>
</svg>
