<?xml version="1.0" encoding="utf-8" standalone="no"?>
<!DOCTYPE svg PUBLIC "-//W3C//DTD SVG 1.1//EN"
  "http://www.w3.org/Graphics/SVG/1.1/DTD/svg11.dtd">
<svg xmlns:xlink="http://www.w3.org/1999/xlink" width="563.240156pt" height="344.579687pt" viewBox="0 0 563.240156 344.579687" xmlns="http://www.w3.org/2000/svg" version="1.1">
 <metadata>
  <rdf:RDF xmlns:dc="http://purl.org/dc/elements/1.1/" xmlns:cc="http://creativecommons.org/ns#" xmlns:rdf="http://www.w3.org/1999/02/22-rdf-syntax-ns#">
   <cc:Work>
    <dc:type rdf:resource="http://purl.org/dc/dcmitype/StillImage"/>
    <dc:date>2026-07-11T00:18:55.848146</dc:date>
    <dc:format>image/svg+xml</dc:format>
    <dc:creator>
     <cc:Agent>
      <dc:title>Matplotlib v3.10.9, https://matplotlib.org/</dc:title>
     </cc:Agent>
    </dc:creator>
   </cc:Work>
  </rdf:RDF>
 </metadata>
 <defs>
  <style type="text/css">*{stroke-linejoin: round; stroke-linecap: butt}</style>
 </defs>
 <g id="figure_1">
  <g id="patch_1">
   <path d="M 0 344.579687 
L 563.240156 344.579687 
L 563.240156 0 
L 0 0 
z
" style="fill: #ffffff"/>
  </g>
  <g id="axes_1">
   <g id="patch_2">
    <path d="M 48.530156 301.62 
L 556.040156 301.62 
L 556.040156 22.32 
L 48.530156 22.32 
z
" style="fill: #ffffff"/>
   </g>
   <g id="matplotlib.axis_1">
    <g id="xtick_1">
     <g id="line2d_1">
      <path d="M 70.674198 301.62 
L 70.674198 22.32 
" clip-path="url(#p082ce301a4)" style="fill: none; stroke: #cccccc; stroke-linecap: round"/>
     </g>
     <g id="text_1">
      <!-- 0 -->
      <g style="fill: #262626" transform="translate(67.174823 319.478281) scale(0.11 -0.11)">
       <defs>
        <path id="DejaVuSans-30" d="M 2034 4250 
Q 1547 4250 1301 3770 
Q 1056 3291 1056 2328 
Q 1056 1369 1301 889 
Q 1547 409 2034 409 
Q 2525 409 2770 889 
Q 3016 1369 3016 2328 
Q 3016 3291 2770 3770 
Q 2525 4250 2034 4250 
z
M 2034 4750 
Q 2819 4750 3233 4129 
Q 3647 3509 3647 2328 
Q 3647 1150 3233 529 
Q 2819 -91 2034 -91 
Q 1250 -91 836 529 
Q 422 1150 422 2328 
Q 422 3509 836 4129 
Q 1250 4750 2034 4750 
z
" transform="scale(0.015625)"/>
       </defs>
       <use xlink:href="#DejaVuSans-30"/>
      </g>
     </g>
    </g>
    <g id="xtick_2">
     <g id="line2d_2">
      <path d="M 163.133662 301.62 
L 163.133662 22.32 
" clip-path="url(#p082ce301a4)" style="fill: none; stroke: #cccccc; stroke-linecap: round"/>
     </g>
     <g id="text_2">
      <!-- 1 -->
      <g style="fill: #262626" transform="translate(159.634287 319.478281) scale(0.11 -0.11)">
       <defs>
        <path id="DejaVuSans-31" d="M 794 531 
L 1825 531 
L 1825 4091 
L 703 3866 
L 703 4441 
L 1819 4666 
L 2450 4666 
L 2450 531 
L 3481 531 
L 3481 0 
L 794 0 
L 794 531 
z
" transform="scale(0.015625)"/>
       </defs>
       <use xlink:href="#DejaVuSans-31"/>
      </g>
     </g>
    </g>
    <g id="xtick_3">
     <g id="line2d_3">
      <path d="M 255.593127 301.62 
L 255.593127 22.32 
" clip-path="url(#p082ce301a4)" style="fill: none; stroke: #cccccc; stroke-linecap: round"/>
     </g>
     <g id="text_3">
      <!-- 2 -->
      <g style="fill: #262626" transform="translate(252.093752 319.478281) scale(0.11 -0.11)">
       <defs>
        <path id="DejaVuSans-32" d="M 1228 531 
L 3431 531 
L 3431 0 
L 469 0 
L 469 531 
Q 828 903 1448 1529 
Q 2069 2156 2228 2338 
Q 2531 2678 2651 2914 
Q 2772 3150 2772 3378 
Q 2772 3750 2511 3984 
Q 2250 4219 1831 4219 
Q 1534 4219 1204 4116 
Q 875 4013 500 3803 
L 500 4441 
Q 881 4594 1212 4672 
Q 1544 4750 1819 4750 
Q 2544 4750 2975 4387 
Q 3406 4025 3406 3419 
Q 3406 3131 3298 2873 
Q 3191 2616 2906 2266 
Q 2828 2175 2409 1742 
Q 1991 1309 1228 531 
z
" transform="scale(0.015625)"/>
       </defs>
       <use xlink:href="#DejaVuSans-32"/>
      </g>
     </g>
    </g>
    <g id="xtick_4">
     <g id="line2d_4">
      <path d="M 348.052591 301.62 
L 348.052591 22.32 
" clip-path="url(#p082ce301a4)" style="fill: none; stroke: #cccccc; stroke-linecap: round"/>
     </g>
     <g id="text_4">
      <!-- 3 -->
      <g style="fill: #262626" transform="translate(344.553216 319.478281) scale(0.11 -0.11)">
       <defs>
        <path id="DejaVuSans-33" d="M 2597 2516 
Q 3050 2419 3304 2112 
Q 3559 1806 3559 1356 
Q 3559 666 3084 287 
Q 2609 -91 1734 -91 
Q 1441 -91 1130 -33 
Q 819 25 488 141 
L 488 750 
Q 750 597 1062 519 
Q 1375 441 1716 441 
Q 2309 441 2620 675 
Q 2931 909 2931 1356 
Q 2931 1769 2642 2001 
Q 2353 2234 1838 2234 
L 1294 2234 
L 1294 2753 
L 1863 2753 
Q 2328 2753 2575 2939 
Q 2822 3125 2822 3475 
Q 2822 3834 2567 4026 
Q 2313 4219 1838 4219 
Q 1578 4219 1281 4162 
Q 984 4106 628 3988 
L 628 4550 
Q 988 4650 1302 4700 
Q 1616 4750 1894 4750 
Q 2613 4750 3031 4423 
Q 3450 4097 3450 3541 
Q 3450 3153 3228 2886 
Q 3006 2619 2597 2516 
z
" transform="scale(0.015625)"/>
       </defs>
       <use xlink:href="#DejaVuSans-33"/>
      </g>
     </g>
    </g>
    <g id="xtick_5">
     <g id="line2d_5">
      <path d="M 440.512056 301.62 
L 440.512056 22.32 
" clip-path="url(#p082ce301a4)" style="fill: none; stroke: #cccccc; stroke-linecap: round"/>
     </g>
     <g id="text_5">
      <!-- 4 -->
      <g style="fill: #262626" transform="translate(437.012681 319.478281) scale(0.11 -0.11)">
       <defs>
        <path id="DejaVuSans-34" d="M 2419 4116 
L 825 1625 
L 2419 1625 
L 2419 4116 
z
M 2253 4666 
L 3047 4666 
L 3047 1625 
L 3713 1625 
L 3713 1100 
L 3047 1100 
L 3047 0 
L 2419 0 
L 2419 1100 
L 313 1100 
L 313 1709 
L 2253 4666 
z
" transform="scale(0.015625)"/>
       </defs>
       <use xlink:href="#DejaVuSans-34"/>
      </g>
     </g>
    </g>
    <g id="xtick_6">
     <g id="line2d_6">
      <path d="M 532.97152 301.62 
L 532.97152 22.32 
" clip-path="url(#p082ce301a4)" style="fill: none; stroke: #cccccc; stroke-linecap: round"/>
     </g>
     <g id="text_6">
      <!-- 5 -->
      <g style="fill: #262626" transform="translate(529.472145 319.478281) scale(0.11 -0.11)">
       <defs>
        <path id="DejaVuSans-35" d="M 691 4666 
L 3169 4666 
L 3169 4134 
L 1269 4134 
L 1269 2991 
Q 1406 3038 1543 3061 
Q 1681 3084 1819 3084 
Q 2600 3084 3056 2656 
Q 3513 2228 3513 1497 
Q 3513 744 3044 326 
Q 2575 -91 1722 -91 
Q 1428 -91 1123 -41 
Q 819 9 494 109 
L 494 744 
Q 775 591 1075 516 
Q 1375 441 1709 441 
Q 2250 441 2565 725 
Q 2881 1009 2881 1497 
Q 2881 1984 2565 2268 
Q 2250 2553 1709 2553 
Q 1456 2553 1204 2497 
Q 953 2441 691 2322 
L 691 4666 
z
" transform="scale(0.015625)"/>
       </defs>
       <use xlink:href="#DejaVuSans-35"/>
      </g>
     </g>
    </g>
    <g id="text_7">
     <!-- $\omega$ -->
     <g style="fill: #262626" transform="translate(297.245156 334.884062) scale(0.12 -0.12)">
      <defs>
       <path id="DejaVuSans-Oblique-3c9" d="M 1369 -91 
Q 72 -91 434 1766 
Q 575 2500 1256 3500 
L 1875 3500 
Q 1231 2500 1088 1750 
Q 819 397 1519 397 
Q 2166 397 2478 2078 
L 3009 2078 
Q 2669 388 3316 397 
Q 4013 403 4275 1750 
Q 4419 2500 4169 3500 
L 4788 3500 
Q 5075 2500 4934 1766 
Q 4578 -94 3278 -91 
Q 2428 -88 2503 844 
Q 2194 -91 1369 -91 
z
" transform="scale(0.015625)"/>
      </defs>
      <use xlink:href="#DejaVuSans-Oblique-3c9" transform="translate(0 0.3125)"/>
     </g>
    </g>
   </g>
   <g id="matplotlib.axis_2">
    <g id="ytick_1">
     <g id="line2d_7">
      <path d="M 48.530156 263.533636 
L 556.040156 263.533636 
" clip-path="url(#p082ce301a4)" style="fill: none; stroke: #cccccc; stroke-linecap: round"/>
     </g>
     <g id="text_8">
      <!-- −4 -->
      <g style="fill: #262626" transform="translate(22.81375 267.712777) scale(0.11 -0.11)">
       <defs>
        <path id="DejaVuSans-2212" d="M 678 2272 
L 4684 2272 
L 4684 1741 
L 678 1741 
L 678 2272 
z
" transform="scale(0.015625)"/>
       </defs>
       <use xlink:href="#DejaVuSans-2212"/>
       <use xlink:href="#DejaVuSans-34" transform="translate(83.789062 0)"/>
      </g>
     </g>
    </g>
    <g id="ytick_2">
     <g id="line2d_8">
      <path d="M 48.530156 212.751818 
L 556.040156 212.751818 
" clip-path="url(#p082ce301a4)" style="fill: none; stroke: #cccccc; stroke-linecap: round"/>
     </g>
     <g id="text_9">
      <!-- −2 -->
      <g style="fill: #262626" transform="translate(22.81375 216.930959) scale(0.11 -0.11)">
       <use xlink:href="#DejaVuSans-2212"/>
       <use xlink:href="#DejaVuSans-32" transform="translate(83.789062 0)"/>
      </g>
     </g>
    </g>
    <g id="ytick_3">
     <g id="line2d_9">
      <path d="M 48.530156 161.97 
L 556.040156 161.97 
" clip-path="url(#p082ce301a4)" style="fill: none; stroke: #cccccc; stroke-linecap: round"/>
     </g>
     <g id="text_10">
      <!-- 0 -->
      <g style="fill: #262626" transform="translate(32.031406 166.149141) scale(0.11 -0.11)">
       <use xlink:href="#DejaVuSans-30"/>
      </g>
     </g>
    </g>
    <g id="ytick_4">
     <g id="line2d_10">
      <path d="M 48.530156 111.188182 
L 556.040156 111.188182 
" clip-path="url(#p082ce301a4)" style="fill: none; stroke: #cccccc; stroke-linecap: round"/>
     </g>
     <g id="text_11">
      <!-- 2 -->
      <g style="fill: #262626" transform="translate(32.031406 115.367322) scale(0.11 -0.11)">
       <use xlink:href="#DejaVuSans-32"/>
      </g>
     </g>
    </g>
    <g id="ytick_5">
     <g id="line2d_11">
      <path d="M 48.530156 60.406364 
L 556.040156 60.406364 
" clip-path="url(#p082ce301a4)" style="fill: none; stroke: #cccccc; stroke-linecap: round"/>
     </g>
     <g id="text_12">
      <!-- 4 -->
      <g style="fill: #262626" transform="translate(32.031406 64.585504) scale(0.11 -0.11)">
       <use xlink:href="#DejaVuSans-34"/>
      </g>
     </g>
    </g>
    <g id="text_13">
     <!-- Optimal parameter value -->
     <g style="fill: #262626" transform="translate(16.318125 237.58875) rotate(-90) scale(0.12 -0.12)">
      <defs>
       <path id="DejaVuSans-4f" d="M 2522 4238 
Q 1834 4238 1429 3725 
Q 1025 3213 1025 2328 
Q 1025 1447 1429 934 
Q 1834 422 2522 422 
Q 3209 422 3611 934 
Q 4013 1447 4013 2328 
Q 4013 3213 3611 3725 
Q 3209 4238 2522 4238 
z
M 2522 4750 
Q 3503 4750 4090 4092 
Q 4678 3434 4678 2328 
Q 4678 1225 4090 567 
Q 3503 -91 2522 -91 
Q 1538 -91 948 565 
Q 359 1222 359 2328 
Q 359 3434 948 4092 
Q 1538 4750 2522 4750 
z
" transform="scale(0.015625)"/>
       <path id="DejaVuSans-70" d="M 1159 525 
L 1159 -1331 
L 581 -1331 
L 581 3500 
L 1159 3500 
L 1159 2969 
Q 1341 3281 1617 3432 
Q 1894 3584 2278 3584 
Q 2916 3584 3314 3078 
Q 3713 2572 3713 1747 
Q 3713 922 3314 415 
Q 2916 -91 2278 -91 
Q 1894 -91 1617 61 
Q 1341 213 1159 525 
z
M 3116 1747 
Q 3116 2381 2855 2742 
Q 2594 3103 2138 3103 
Q 1681 3103 1420 2742 
Q 1159 2381 1159 1747 
Q 1159 1113 1420 752 
Q 1681 391 2138 391 
Q 2594 391 2855 752 
Q 3116 1113 3116 1747 
z
" transform="scale(0.015625)"/>
       <path id="DejaVuSans-74" d="M 1172 4494 
L 1172 3500 
L 2356 3500 
L 2356 3053 
L 1172 3053 
L 1172 1153 
Q 1172 725 1289 603 
Q 1406 481 1766 481 
L 2356 481 
L 2356 0 
L 1766 0 
Q 1100 0 847 248 
Q 594 497 594 1153 
L 594 3053 
L 172 3053 
L 172 3500 
L 594 3500 
L 594 4494 
L 1172 4494 
z
" transform="scale(0.015625)"/>
       <path id="DejaVuSans-69" d="M 603 3500 
L 1178 3500 
L 1178 0 
L 603 0 
L 603 3500 
z
M 603 4863 
L 1178 4863 
L 1178 4134 
L 603 4134 
L 603 4863 
z
" transform="scale(0.015625)"/>
       <path id="DejaVuSans-6d" d="M 3328 2828 
Q 3544 3216 3844 3400 
Q 4144 3584 4550 3584 
Q 5097 3584 5394 3201 
Q 5691 2819 5691 2113 
L 5691 0 
L 5113 0 
L 5113 2094 
Q 5113 2597 4934 2840 
Q 4756 3084 4391 3084 
Q 3944 3084 3684 2787 
Q 3425 2491 3425 1978 
L 3425 0 
L 2847 0 
L 2847 2094 
Q 2847 2600 2669 2842 
Q 2491 3084 2119 3084 
Q 1678 3084 1418 2786 
Q 1159 2488 1159 1978 
L 1159 0 
L 581 0 
L 581 3500 
L 1159 3500 
L 1159 2956 
Q 1356 3278 1631 3431 
Q 1906 3584 2284 3584 
Q 2666 3584 2933 3390 
Q 3200 3197 3328 2828 
z
" transform="scale(0.015625)"/>
       <path id="DejaVuSans-61" d="M 2194 1759 
Q 1497 1759 1228 1600 
Q 959 1441 959 1056 
Q 959 750 1161 570 
Q 1363 391 1709 391 
Q 2188 391 2477 730 
Q 2766 1069 2766 1631 
L 2766 1759 
L 2194 1759 
z
M 3341 1997 
L 3341 0 
L 2766 0 
L 2766 531 
Q 2569 213 2275 61 
Q 1981 -91 1556 -91 
Q 1019 -91 701 211 
Q 384 513 384 1019 
Q 384 1609 779 1909 
Q 1175 2209 1959 2209 
L 2766 2209 
L 2766 2266 
Q 2766 2663 2505 2880 
Q 2244 3097 1772 3097 
Q 1472 3097 1187 3025 
Q 903 2953 641 2809 
L 641 3341 
Q 956 3463 1253 3523 
Q 1550 3584 1831 3584 
Q 2591 3584 2966 3190 
Q 3341 2797 3341 1997 
z
" transform="scale(0.015625)"/>
       <path id="DejaVuSans-6c" d="M 603 4863 
L 1178 4863 
L 1178 0 
L 603 0 
L 603 4863 
z
" transform="scale(0.015625)"/>
       <path id="DejaVuSans-20" transform="scale(0.015625)"/>
       <path id="DejaVuSans-72" d="M 2631 2963 
Q 2534 3019 2420 3045 
Q 2306 3072 2169 3072 
Q 1681 3072 1420 2755 
Q 1159 2438 1159 1844 
L 1159 0 
L 581 0 
L 581 3500 
L 1159 3500 
L 1159 2956 
Q 1341 3275 1631 3429 
Q 1922 3584 2338 3584 
Q 2397 3584 2469 3576 
Q 2541 3569 2628 3553 
L 2631 2963 
z
" transform="scale(0.015625)"/>
       <path id="DejaVuSans-65" d="M 3597 1894 
L 3597 1613 
L 953 1613 
Q 991 1019 1311 708 
Q 1631 397 2203 397 
Q 2534 397 2845 478 
Q 3156 559 3463 722 
L 3463 178 
Q 3153 47 2828 -22 
Q 2503 -91 2169 -91 
Q 1331 -91 842 396 
Q 353 884 353 1716 
Q 353 2575 817 3079 
Q 1281 3584 2069 3584 
Q 2775 3584 3186 3129 
Q 3597 2675 3597 1894 
z
M 3022 2063 
Q 3016 2534 2758 2815 
Q 2500 3097 2075 3097 
Q 1594 3097 1305 2825 
Q 1016 2553 972 2059 
L 3022 2063 
z
" transform="scale(0.015625)"/>
       <path id="DejaVuSans-76" d="M 191 3500 
L 800 3500 
L 1894 563 
L 2988 3500 
L 3597 3500 
L 2284 0 
L 1503 0 
L 191 3500 
z
" transform="scale(0.015625)"/>
       <path id="DejaVuSans-75" d="M 544 1381 
L 544 3500 
L 1119 3500 
L 1119 1403 
Q 1119 906 1312 657 
Q 1506 409 1894 409 
Q 2359 409 2629 706 
Q 2900 1003 2900 1516 
L 2900 3500 
L 3475 3500 
L 3475 0 
L 2900 0 
L 2900 538 
Q 2691 219 2414 64 
Q 2138 -91 1772 -91 
Q 1169 -91 856 284 
Q 544 659 544 1381 
z
M 1991 3584 
L 1991 3584 
z
" transform="scale(0.015625)"/>
      </defs>
      <use xlink:href="#DejaVuSans-4f"/>
      <use xlink:href="#DejaVuSans-70" transform="translate(78.710938 0)"/>
      <use xlink:href="#DejaVuSans-74" transform="translate(142.1875 0)"/>
      <use xlink:href="#DejaVuSans-69" transform="translate(181.396484 0)"/>
      <use xlink:href="#DejaVuSans-6d" transform="translate(209.179688 0)"/>
      <use xlink:href="#DejaVuSans-61" transform="translate(306.591797 0)"/>
      <use xlink:href="#DejaVuSans-6c" transform="translate(367.871094 0)"/>
      <use xlink:href="#DejaVuSans-20" transform="translate(395.654297 0)"/>
      <use xlink:href="#DejaVuSans-70" transform="translate(427.441406 0)"/>
      <use xlink:href="#DejaVuSans-61" transform="translate(490.917969 0)"/>
      <use xlink:href="#DejaVuSans-72" transform="translate(552.197266 0)"/>
      <use xlink:href="#DejaVuSans-61" transform="translate(593.310547 0)"/>
      <use xlink:href="#DejaVuSans-6d" transform="translate(654.589844 0)"/>
      <use xlink:href="#DejaVuSans-65" transform="translate(752.001953 0)"/>
      <use xlink:href="#DejaVuSans-74" transform="translate(813.525391 0)"/>
      <use xlink:href="#DejaVuSans-65" transform="translate(852.734375 0)"/>
      <use xlink:href="#DejaVuSans-72" transform="translate(914.257812 0)"/>
      <use xlink:href="#DejaVuSans-20" transform="translate(955.371094 0)"/>
      <use xlink:href="#DejaVuSans-76" transform="translate(987.158203 0)"/>
      <use xlink:href="#DejaVuSans-61" transform="translate(1046.337891 0)"/>
      <use xlink:href="#DejaVuSans-6c" transform="translate(1107.617188 0)"/>
      <use xlink:href="#DejaVuSans-75" transform="translate(1135.400391 0)"/>
      <use xlink:href="#DejaVuSans-65" transform="translate(1198.779297 0)"/>
     </g>
    </g>
   </g>
   <g id="line2d_12">
    <path d="M 71.598793 45.488241 
L 72.523387 176.93016 
L 73.447982 160.656772 
L 74.372577 35.015455 
L 78.070955 35.015455 
L 78.99555 288.924545 
L 79.920144 288.924545 
L 80.844739 35.026548 
L 82.693928 35.015455 
L 83.618523 42.56568 
L 84.543118 35.033085 
L 85.467712 288.924545 
L 87.316902 288.924545 
L 88.241496 35.015455 
L 89.166091 288.924545 
L 90.090685 35.015455 
L 91.01528 35.015455 
L 91.939875 288.924545 
L 92.864469 35.015455 
L 93.789064 35.015455 
L 94.713659 288.924545 
L 95.638253 49.298778 
L 96.562848 288.924545 
L 97.487443 35.015455 
L 98.412037 269.211762 
L 99.336632 35.015455 
L 100.261227 41.668432 
L 101.185821 44.362578 
L 102.110416 35.015455 
L 103.035011 35.015455 
L 103.959605 286.971357 
L 104.8842 285.383096 
L 105.808794 35.015455 
L 107.657984 35.015455 
L 108.582578 288.918538 
L 109.507173 35.015455 
L 110.431768 280.580372 
L 111.356362 288.889598 
L 112.280957 288.924545 
L 113.205552 288.302845 
L 114.130146 35.015455 
L 115.979336 35.069258 
L 116.90393 288.924545 
L 117.828525 35.015455 
L 118.753119 288.924349 
L 119.677714 288.924545 
L 120.602309 35.015455 
L 121.526903 288.924545 
L 122.451498 35.015455 
L 123.376093 38.304807 
L 124.300687 288.924545 
L 125.225282 288.924545 
L 126.149877 35.282154 
L 127.074471 35.015455 
L 128.923661 35.015455 
L 129.848255 288.924545 
L 130.77285 35.042012 
L 131.697444 35.015455 
L 132.622039 288.924545 
L 133.546634 288.837084 
L 135.395823 288.924545 
L 136.320418 35.015455 
L 137.245012 288.924545 
L 138.169607 35.015455 
L 140.018796 35.015467 
L 140.943391 288.924545 
L 141.867986 35.054622 
L 142.79258 288.924545 
L 143.717175 35.078894 
L 144.641769 288.180568 
L 145.566364 35.015455 
L 147.415553 35.015455 
L 148.340148 288.924545 
L 149.264743 288.92454 
L 150.189337 36.491343 
L 151.113932 35.015455 
L 152.038527 35.015455 
L 152.963121 288.916695 
L 153.887716 35.757626 
L 154.812311 277.520541 
L 155.736905 282.009396 
L 156.6615 288.921659 
L 157.586094 44.484635 
L 158.510689 35.041753 
L 159.435284 288.924545 
L 160.359878 288.924545 
L 161.284473 286.500488 
L 162.209068 288.924545 
L 163.133662 288.924545 
L 164.058257 36.941198 
L 164.982852 281.758647 
L 165.907446 43.343532 
L 166.832041 35.015455 
L 167.756636 35.015455 
L 168.68123 288.909344 
L 169.605825 282.102472 
L 170.53042 288.924545 
L 171.455014 35.015455 
L 172.379609 45.54352 
L 173.304203 282.558485 
L 174.228798 278.529805 
L 175.153393 35.015455 
L 177.002582 35.033898 
L 177.927177 288.924545 
L 178.851771 37.461576 
L 179.776366 288.924545 
L 180.700961 35.015455 
L 181.625555 288.924545 
L 182.55015 36.839613 
L 183.474745 35.015455 
L 184.399339 35.015455 
L 185.323934 44.664228 
L 186.248528 35.461767 
L 187.173123 41.588992 
L 188.097718 288.924545 
L 189.022312 35.015455 
L 189.946907 288.924545 
L 191.796096 287.073764 
L 192.720691 35.015455 
L 195.494475 35.015455 
L 196.41907 46.504927 
L 197.343664 288.924545 
L 198.268259 35.015455 
L 199.192853 35.015455 
L 200.117448 288.924545 
L 201.042043 42.440595 
L 201.966637 288.924545 
L 202.891232 288.924545 
L 203.815827 35.015455 
L 204.740421 288.924545 
L 205.665016 281.602162 
L 206.589611 35.015455 
L 207.514205 288.924545 
L 208.4388 288.924545 
L 209.363395 35.015455 
L 210.287989 288.924545 
L 212.137178 288.924545 
L 213.061773 35.144995 
L 213.986368 35.015455 
L 214.910962 288.924545 
L 215.835557 43.728961 
L 216.760152 288.924545 
L 217.684746 282.354019 
L 218.609341 35.015455 
L 220.45853 35.017146 
L 221.383125 287.763244 
L 222.30772 282.42471 
L 223.232314 35.015455 
L 224.156909 288.924545 
L 225.081503 35.015455 
L 226.006098 44.4023 
L 226.930693 288.924545 
L 227.855287 288.924545 
L 228.779882 35.015455 
L 229.704477 288.912606 
L 230.629071 288.924545 
L 231.553666 35.015455 
L 232.478261 284.456817 
L 233.402855 35.015455 
L 234.32745 288.92307 
L 235.252045 35.016401 
L 236.176639 288.924545 
L 237.101234 35.015455 
L 238.025829 37.129762 
L 238.950423 288.924545 
L 239.875018 35.015455 
L 242.648802 35.015455 
L 243.573396 288.924545 
L 244.497991 288.108002 
L 245.422586 288.924545 
L 246.34718 283.941363 
L 247.271775 283.302341 
L 248.19637 288.924545 
L 249.120964 35.015455 
L 250.045559 44.068975 
L 250.970154 35.015455 
L 251.894748 288.924496 
L 252.819343 288.924545 
L 253.743937 35.015455 
L 254.668532 35.015455 
L 255.593127 288.924545 
L 256.517721 35.203996 
L 257.442316 35.035712 
L 258.366911 288.505114 
L 259.291505 288.924545 
L 260.2161 35.015455 
L 261.140695 35.807904 
L 262.065289 288.924545 
L 262.989884 36.010365 
L 263.914479 35.742949 
L 264.839073 283.136567 
L 265.763668 35.015455 
L 267.612857 35.015455 
L 268.537452 288.924545 
L 269.462046 35.015455 
L 270.386641 282.300273 
L 271.311236 35.015455 
L 272.23583 288.924545 
L 275.934209 288.924545 
L 276.858804 40.322013 
L 277.783398 35.015455 
L 278.707993 288.924545 
L 279.632587 288.924545 
L 280.557182 35.016307 
L 282.406371 35.015455 
L 283.330966 35.229426 
L 284.255561 286.870948 
L 285.180155 40.143849 
L 286.10475 288.876912 
L 287.953939 288.924545 
L 288.878534 35.015455 
L 290.727723 35.015455 
L 291.652318 284.977023 
L 292.576912 35.015455 
L 294.426102 35.015455 
L 295.350696 36.318633 
L 296.275291 35.015455 
L 297.199886 284.370638 
L 298.12448 288.716673 
L 299.049075 35.015455 
L 299.97367 288.924545 
L 300.898264 36.983757 
L 301.822859 35.015455 
L 302.747454 283.616353 
L 303.672048 35.215206 
L 304.596643 288.924545 
L 305.521238 288.921253 
L 306.445832 35.020452 
L 307.370427 288.924545 
L 308.295021 288.518212 
L 309.219616 35.015467 
L 311.9934 35.015455 
L 312.917995 288.924545 
L 313.842589 35.015455 
L 314.767184 35.015455 
L 315.691779 288.924545 
L 316.616373 288.924545 
L 317.540968 39.120759 
L 318.465563 35.015455 
L 319.390157 35.015455 
L 320.314752 288.924545 
L 321.239346 287.370033 
L 322.163941 35.015455 
L 323.088536 35.015455 
L 324.01313 288.924545 
L 324.937725 288.924545 
L 325.86232 41.001322 
L 326.786914 35.028605 
L 327.711509 288.917697 
L 328.636104 288.92454 
L 329.560698 35.231602 
L 332.334482 35.015455 
L 333.259077 288.924545 
L 334.183671 35.752728 
L 335.108266 288.924545 
L 336.032861 39.786802 
L 336.957455 288.924545 
L 337.88205 288.924545 
L 338.806645 35.016847 
L 339.731239 288.924545 
L 340.655834 35.015527 
L 341.580429 288.924545 
L 342.505023 35.015455 
L 343.429618 35.015455 
L 344.354213 288.924545 
L 345.278807 281.802699 
L 346.203402 35.015455 
L 348.977186 35.015674 
L 349.90178 38.357727 
L 350.826375 288.924545 
L 352.675564 288.924267 
L 353.600159 35.015455 
L 354.524754 288.924545 
L 355.449348 40.794516 
L 356.373943 35.015455 
L 357.298538 288.924545 
L 358.223132 35.109007 
L 359.147727 288.924545 
L 360.072321 288.924545 
L 360.996916 35.015455 
L 361.921511 288.924545 
L 362.846105 288.924545 
L 363.7707 35.015455 
L 364.695295 37.46006 
L 365.619889 39.570439 
L 366.544484 288.924545 
L 367.469079 35.015455 
L 368.393673 35.018688 
L 369.318268 44.698904 
L 370.242863 35.148238 
L 371.167457 288.924545 
L 372.092052 288.800971 
L 373.016647 35.028962 
L 373.941241 35.015455 
L 374.865836 288.331444 
L 375.79043 288.924545 
L 376.715025 285.00576 
L 377.63962 35.015455 
L 378.564214 288.866258 
L 379.488809 288.922118 
L 380.413404 35.015455 
L 381.337998 35.015455 
L 382.262593 287.631472 
L 383.187188 35.138772 
L 384.111782 35.015455 
L 385.036377 36.591499 
L 385.960972 35.015455 
L 387.810161 35.015455 
L 388.734755 288.820534 
L 389.65935 288.924545 
L 390.583945 288.871834 
L 391.508539 35.015455 
L 392.433134 287.164925 
L 393.357729 288.924545 
L 394.282323 35.030778 
L 395.206918 284.441486 
L 396.131513 35.015457 
L 397.056107 288.924545 
L 397.980702 38.886408 
L 398.905297 35.015455 
L 399.829891 288.924545 
L 400.754486 35.107426 
L 401.67908 35.015455 
L 402.603675 288.924545 
L 403.52827 35.223774 
L 404.452864 287.649045 
L 405.377459 288.924545 
L 406.302054 56.863128 
L 407.226648 288.924545 
L 408.151243 35.015455 
L 409.075838 35.0186 
L 410.000432 288.921927 
L 410.925027 37.436908 
L 411.849622 288.847243 
L 412.774216 288.071468 
L 413.698811 35.022017 
L 415.548 35.026896 
L 416.472595 288.924545 
L 417.397189 288.924545 
L 418.321784 35.015455 
L 419.246379 288.784675 
L 420.170973 35.015455 
L 421.095568 35.177998 
L 422.020163 288.678544 
L 422.944757 288.040187 
L 423.869352 288.924545 
L 424.793947 35.040863 
L 425.718541 35.015455 
L 426.643136 288.924545 
L 427.56773 283.526234 
L 428.492325 38.180281 
L 429.41692 35.023265 
L 430.341514 284.100377 
L 431.266109 288.764378 
L 432.190704 35.015455 
L 433.115298 288.923659 
L 434.039893 38.195502 
L 434.964488 35.128505 
L 435.889082 283.487883 
L 436.813677 281.941345 
L 437.738272 37.997398 
L 438.662866 288.623746 
L 439.587461 288.922084 
L 441.43665 288.924545 
L 442.361245 36.729476 
L 443.285839 35.457295 
L 444.210434 288.924545 
L 445.135029 35.039248 
L 446.059623 35.015455 
L 446.984218 287.027094 
L 447.908813 288.781304 
L 448.833407 288.456919 
L 449.758002 288.924545 
L 450.682597 35.218845 
L 451.607191 288.924545 
L 452.531786 36.059313 
L 453.456381 288.872587 
L 455.30557 288.924545 
L 456.230164 35.015455 
L 457.154759 288.924545 
L 459.003948 288.924545 
L 459.928543 35.015455 
L 460.853138 288.900092 
L 461.777732 35.015455 
L 462.702327 288.610127 
L 463.626922 35.052622 
L 464.551516 286.751663 
L 466.400706 288.924545 
L 470.099084 288.924545 
L 471.023679 39.204574 
L 471.948273 288.924545 
L 475.646652 288.924545 
L 476.571247 44.996085 
L 477.495841 35.073003 
L 479.345031 35.058046 
L 480.269625 288.924544 
L 481.19422 37.547898 
L 482.118814 35.015455 
L 483.043409 35.015455 
L 483.968004 288.924545 
L 484.892598 35.062996 
L 485.817193 35.527272 
L 486.741788 35.01735 
L 487.666382 288.582938 
L 488.590977 35.015455 
L 489.515572 288.924545 
L 490.440166 285.289511 
L 491.364761 38.909217 
L 492.289356 35.570929 
L 493.21395 288.924545 
L 494.138545 35.088588 
L 495.063139 288.711822 
L 495.987734 286.147501 
L 496.912329 35.015455 
L 497.836923 35.015456 
L 498.761518 288.92442 
L 499.686113 35.015455 
L 500.610707 288.924545 
L 502.459897 288.924545 
L 503.384491 35.015455 
L 504.309086 288.850211 
L 505.233681 288.911874 
L 506.158275 35.015455 
L 507.08287 288.924545 
L 508.007465 286.290919 
L 508.932059 35.598449 
L 509.856654 286.837452 
L 510.781248 41.96667 
L 511.705843 288.924545 
L 512.630438 288.733677 
L 513.555032 288.812303 
L 514.479627 35.219922 
L 515.404222 35.015455 
L 516.328816 35.032985 
L 517.253411 288.924545 
L 518.178006 35.021165 
L 520.95179 35.015455 
L 521.876384 288.924545 
L 522.800979 35.019439 
L 523.725573 288.924545 
L 524.650168 39.907791 
L 525.574763 288.924545 
L 526.499357 288.924545 
L 527.423952 35.015456 
L 528.348547 35.14394 
L 529.273141 35.982399 
L 530.197736 287.28478 
L 531.122331 288.924545 
L 532.046925 35.015455 
L 532.97152 35.097599 
L 532.97152 35.097599 
" clip-path="url(#p082ce301a4)" style="fill: none; stroke: #4c72b0; stroke-width: 1.5; stroke-linecap: round"/>
    <defs>
     <path id="m9e16a27484" d="M 0 2 
C 0.530406 2 1.03916 1.789267 1.414214 1.414214 
C 1.789267 1.03916 2 0.530406 2 0 
C 2 -0.530406 1.789267 -1.03916 1.414214 -1.414214 
C 1.03916 -1.789267 0.530406 -2 0 -2 
C -0.530406 -2 -1.03916 -1.789267 -1.414214 -1.414214 
C -1.789267 -1.03916 -2 -0.530406 -2 0 
C -2 0.530406 -1.789267 1.03916 -1.414214 1.414214 
C -1.03916 1.789267 -0.530406 2 0 2 
z
" style="stroke: #4c72b0"/>
    </defs>
    <g clip-path="url(#p082ce301a4)">
     <use xlink:href="#m9e16a27484" x="71.598793" y="45.488241" style="fill: #4c72b0; stroke: #4c72b0"/>
     <use xlink:href="#m9e16a27484" x="86.392307" y="288.924545" style="fill: #4c72b0; stroke: #4c72b0"/>
     <use xlink:href="#m9e16a27484" x="101.185821" y="44.362578" style="fill: #4c72b0; stroke: #4c72b0"/>
     <use xlink:href="#m9e16a27484" x="115.979336" y="35.069258" style="fill: #4c72b0; stroke: #4c72b0"/>
     <use xlink:href="#m9e16a27484" x="130.77285" y="35.042012" style="fill: #4c72b0; stroke: #4c72b0"/>
     <use xlink:href="#m9e16a27484" x="145.566364" y="35.015455" style="fill: #4c72b0; stroke: #4c72b0"/>
     <use xlink:href="#m9e16a27484" x="160.359878" y="288.924545" style="fill: #4c72b0; stroke: #4c72b0"/>
     <use xlink:href="#m9e16a27484" x="175.153393" y="35.015455" style="fill: #4c72b0; stroke: #4c72b0"/>
     <use xlink:href="#m9e16a27484" x="189.946907" y="288.924545" style="fill: #4c72b0; stroke: #4c72b0"/>
     <use xlink:href="#m9e16a27484" x="204.740421" y="288.924545" style="fill: #4c72b0; stroke: #4c72b0"/>
     <use xlink:href="#m9e16a27484" x="219.533936" y="35.015455" style="fill: #4c72b0; stroke: #4c72b0"/>
     <use xlink:href="#m9e16a27484" x="234.32745" y="288.92307" style="fill: #4c72b0; stroke: #4c72b0"/>
     <use xlink:href="#m9e16a27484" x="249.120964" y="35.015455" style="fill: #4c72b0; stroke: #4c72b0"/>
     <use xlink:href="#m9e16a27484" x="263.914479" y="35.742949" style="fill: #4c72b0; stroke: #4c72b0"/>
     <use xlink:href="#m9e16a27484" x="278.707993" y="288.924545" style="fill: #4c72b0; stroke: #4c72b0"/>
     <use xlink:href="#m9e16a27484" x="293.501507" y="35.015455" style="fill: #4c72b0; stroke: #4c72b0"/>
     <use xlink:href="#m9e16a27484" x="308.295021" y="288.518212" style="fill: #4c72b0; stroke: #4c72b0"/>
     <use xlink:href="#m9e16a27484" x="323.088536" y="35.015455" style="fill: #4c72b0; stroke: #4c72b0"/>
     <use xlink:href="#m9e16a27484" x="337.88205" y="288.924545" style="fill: #4c72b0; stroke: #4c72b0"/>
     <use xlink:href="#m9e16a27484" x="352.675564" y="288.924267" style="fill: #4c72b0; stroke: #4c72b0"/>
     <use xlink:href="#m9e16a27484" x="367.469079" y="35.015455" style="fill: #4c72b0; stroke: #4c72b0"/>
     <use xlink:href="#m9e16a27484" x="382.262593" y="287.631472" style="fill: #4c72b0; stroke: #4c72b0"/>
     <use xlink:href="#m9e16a27484" x="397.056107" y="288.924545" style="fill: #4c72b0; stroke: #4c72b0"/>
     <use xlink:href="#m9e16a27484" x="411.849622" y="288.847243" style="fill: #4c72b0; stroke: #4c72b0"/>
     <use xlink:href="#m9e16a27484" x="426.643136" y="288.924545" style="fill: #4c72b0; stroke: #4c72b0"/>
     <use xlink:href="#m9e16a27484" x="441.43665" y="288.924545" style="fill: #4c72b0; stroke: #4c72b0"/>
     <use xlink:href="#m9e16a27484" x="456.230164" y="35.015455" style="fill: #4c72b0; stroke: #4c72b0"/>
     <use xlink:href="#m9e16a27484" x="471.023679" y="39.204574" style="fill: #4c72b0; stroke: #4c72b0"/>
     <use xlink:href="#m9e16a27484" x="485.817193" y="35.527272" style="fill: #4c72b0; stroke: #4c72b0"/>
     <use xlink:href="#m9e16a27484" x="500.610707" y="288.924545" style="fill: #4c72b0; stroke: #4c72b0"/>
     <use xlink:href="#m9e16a27484" x="515.404222" y="35.015455" style="fill: #4c72b0; stroke: #4c72b0"/>
     <use xlink:href="#m9e16a27484" x="530.197736" y="287.28478" style="fill: #4c72b0; stroke: #4c72b0"/>
    </g>
   </g>
   <g id="line2d_13">
    <path d="M 71.598793 35.047529 
L 72.523387 35.015455 
L 73.447982 288.924545 
L 74.372577 164.625643 
L 75.297171 161.612271 
L 76.221766 59.31354 
L 77.14636 243.59144 
L 78.070955 70.634508 
L 78.99555 288.924545 
L 79.920144 287.719541 
L 80.844739 35.015455 
L 82.693928 35.015455 
L 83.618523 58.98927 
L 84.543118 288.924545 
L 85.467712 288.924545 
L 86.392307 35.015455 
L 87.316902 288.924545 
L 88.241496 42.752208 
L 89.166091 66.184112 
L 90.090685 254.338072 
L 91.01528 65.435662 
L 91.939875 249.86372 
L 92.864469 286.705454 
L 93.789064 41.152314 
L 94.713659 265.660932 
L 95.638253 150.67556 
L 96.562848 256.152249 
L 97.487443 76.146325 
L 98.412037 54.180277 
L 99.336632 279.053409 
L 100.261227 161.0225 
L 101.185821 162.655406 
L 102.110416 264.554965 
L 103.035011 257.258016 
L 103.959605 166.137839 
L 104.8842 163.01331 
L 105.808794 248.342727 
L 106.733389 174.377452 
L 107.657984 160.480437 
L 108.582578 87.012123 
L 109.507173 99.368021 
L 110.431768 161.329225 
L 111.356362 39.639874 
L 112.280957 258.328789 
L 113.205552 161.651774 
L 114.130146 198.522154 
L 115.054741 191.947087 
L 116.90393 162.690493 
L 117.828525 204.411192 
L 118.753119 210.137781 
L 119.677714 264.230529 
L 120.602309 75.22449 
L 121.526903 160.17379 
L 122.451498 197.504381 
L 123.376093 162.125127 
L 124.300687 142.821616 
L 125.225282 102.605987 
L 126.149877 162.695087 
L 127.074471 67.099233 
L 127.999066 62.642791 
L 128.923661 109.212342 
L 129.848255 253.065642 
L 130.77285 248.17657 
L 131.697444 52.934409 
L 132.622039 191.507374 
L 133.546634 101.090556 
L 134.471228 166.186839 
L 135.395823 97.746029 
L 136.320418 102.004282 
L 137.245012 199.829027 
L 138.169607 150.274954 
L 139.094202 177.592356 
L 140.018796 245.023464 
L 140.943391 196.069018 
L 141.867986 223.164747 
L 142.79258 263.664518 
L 143.717175 161.97 
L 144.641769 162.786843 
L 145.566364 106.905201 
L 146.490959 113.197816 
L 147.415553 190.257433 
L 148.340148 118.790303 
L 149.264743 161.516006 
L 150.189337 162.422686 
L 151.113932 94.458644 
L 152.038527 97.938372 
L 152.963121 154.930574 
L 153.887716 162.667964 
L 154.812311 162.836776 
L 155.736905 162.109274 
L 156.6615 207.140654 
L 157.586094 162.105173 
L 158.510689 161.835229 
L 159.435284 226.867713 
L 160.359878 161.796603 
L 161.284473 161.970001 
L 162.209068 168.271368 
L 163.133662 266.648981 
L 164.058257 161.482406 
L 164.982852 161.993438 
L 165.907446 161.952804 
L 166.832041 148.218257 
L 167.756636 161.826244 
L 168.68123 202.767038 
L 169.605825 160.902284 
L 170.53042 143.47174 
L 171.455014 204.784771 
L 172.379609 172.569939 
L 173.304203 162.026234 
L 175.153393 161.795772 
L 176.077987 161.356683 
L 177.002582 269.179961 
L 177.927177 284.158223 
L 178.851771 162.127502 
L 179.776366 163.069766 
L 180.700961 163.245042 
L 181.625555 160.66354 
L 182.55015 162.221226 
L 183.474745 162.187856 
L 184.399339 224.312291 
L 185.323934 161.875507 
L 186.248528 162.207171 
L 187.173123 163.04604 
L 188.097718 161.822364 
L 189.022312 120.365952 
L 189.946907 162.273905 
L 190.871502 162.158872 
L 191.796096 162.15769 
L 192.720691 90.156657 
L 193.645286 160.177218 
L 194.56988 220.983765 
L 195.494475 161.874876 
L 196.41907 162.13474 
L 197.343664 162.136252 
L 198.268259 140.202561 
L 199.192853 160.903499 
L 200.117448 162.142383 
L 201.042043 162.088841 
L 201.966637 193.013097 
L 202.891232 85.799574 
L 203.815827 161.552548 
L 204.740421 162.13356 
L 205.665016 160.994262 
L 206.589611 146.327299 
L 207.514205 192.052378 
L 208.4388 112.156151 
L 209.363395 161.812328 
L 210.287989 193.062487 
L 211.212584 110.777785 
L 212.137178 93.929471 
L 213.061773 161.664887 
L 213.986368 127.936169 
L 214.910962 224.234342 
L 215.835557 148.196566 
L 216.760152 163.581241 
L 217.684746 159.21566 
L 218.609341 211.148667 
L 219.533936 160.85033 
L 220.45853 198.985084 
L 221.383125 161.970001 
L 222.30772 162.867479 
L 223.232314 120.57532 
L 224.156909 162.857899 
L 225.081503 162.137698 
L 226.006098 164.484881 
L 226.930693 261.767245 
L 227.855287 227.430046 
L 228.779882 164.285456 
L 229.704477 193.461982 
L 230.629071 137.372056 
L 231.553666 162.676143 
L 232.478261 162.081467 
L 233.402855 162.147614 
L 234.32745 222.864957 
L 235.252045 226.88141 
L 237.101234 97.907946 
L 238.025829 89.199182 
L 238.950423 161.880155 
L 239.875018 209.235715 
L 240.799612 162.391793 
L 241.724207 40.714603 
L 242.648802 88.040467 
L 243.573396 161.256967 
L 244.497991 163.255459 
L 245.422586 162.621476 
L 246.34718 161.177331 
L 247.271775 162.74136 
L 248.19637 101.239967 
L 249.120964 162.714896 
L 250.045559 182.054182 
L 250.970154 206.785013 
L 251.894748 219.907801 
L 252.819343 161.291118 
L 253.743937 226.603255 
L 254.668532 124.226608 
L 255.593127 198.589612 
L 256.517721 207.161305 
L 257.442316 202.502001 
L 258.366911 162.258533 
L 259.291505 233.751567 
L 260.2161 201.438626 
L 261.140695 163.069507 
L 262.065289 210.96039 
L 262.989884 162.346639 
L 263.914479 185.801162 
L 264.839073 162.062821 
L 265.763668 209.729545 
L 266.688262 93.198794 
L 267.612857 162.114507 
L 268.537452 161.376655 
L 269.462046 162.097562 
L 270.386641 161.886771 
L 271.311236 162.065565 
L 272.23583 161.3299 
L 273.160425 151.499076 
L 274.08502 162.124656 
L 275.009614 162.096506 
L 275.934209 134.94804 
L 276.858804 161.914129 
L 277.783398 229.386955 
L 278.707993 162.484873 
L 279.632587 234.335809 
L 280.557182 89.236598 
L 282.406371 216.821594 
L 283.330966 194.315277 
L 284.255561 160.465533 
L 285.180155 161.916187 
L 286.10475 161.96746 
L 287.029345 174.279999 
L 287.953939 162.094108 
L 288.878534 162.454413 
L 289.803129 123.037923 
L 290.727723 228.833648 
L 292.576912 100.046213 
L 293.501507 161.841868 
L 294.426102 161.591936 
L 295.350696 161.916019 
L 296.275291 161.510608 
L 297.199886 162.55767 
L 298.12448 161.970001 
L 299.049075 140.092458 
L 299.97367 131.692664 
L 300.898264 161.399463 
L 301.822859 162.411255 
L 302.747454 162.018808 
L 303.672048 188.753521 
L 304.596643 200.150777 
L 305.521238 177.275286 
L 306.445832 165.799723 
L 307.370427 84.791611 
L 308.295021 120.616534 
L 309.219616 162.026795 
L 310.144211 162.181005 
L 311.068805 92.537368 
L 311.9934 161.547322 
L 312.917995 162.073608 
L 313.842589 161.542532 
L 314.767184 208.723097 
L 315.691779 109.851176 
L 316.616373 162.261837 
L 317.540968 161.935985 
L 318.465563 161.322115 
L 319.390157 147.875972 
L 320.314752 186.094827 
L 321.239346 161.97 
L 322.163941 62.078138 
L 323.088536 162.449795 
L 324.01313 161.989279 
L 324.937725 161.853395 
L 325.86232 162.479006 
L 326.786914 193.213411 
L 327.711509 231.914485 
L 328.636104 138.241855 
L 329.560698 161.47388 
L 330.485293 226.175221 
L 331.409888 160.909682 
L 332.334482 106.71531 
L 333.259077 161.906487 
L 334.183671 186.424644 
L 335.108266 162.050729 
L 336.032861 161.992464 
L 336.957455 160.957111 
L 337.88205 161.607313 
L 338.806645 92.015658 
L 339.731239 161.529469 
L 340.655834 217.46555 
L 342.505023 94.503746 
L 343.429618 160.424308 
L 344.354213 111.474786 
L 345.278807 161.97 
L 346.203402 191.337465 
L 347.127996 92.546012 
L 348.052591 280.262353 
L 348.977186 231.481738 
L 349.90178 161.984396 
L 350.826375 264.914234 
L 351.75097 162.072169 
L 352.675564 223.142081 
L 353.600159 226.083202 
L 354.524754 123.754312 
L 355.449348 164.41251 
L 356.373943 163.234478 
L 357.298538 189.837321 
L 358.223132 185.701262 
L 359.147727 165.812612 
L 360.072321 161.995605 
L 360.996916 162.315931 
L 361.921511 152.96564 
L 362.846105 234.407198 
L 363.7707 183.275212 
L 364.695295 161.962977 
L 365.619889 161.546493 
L 366.544484 161.834863 
L 367.469079 176.66835 
L 368.393673 162.146745 
L 369.318268 156.587021 
L 370.242863 141.907401 
L 371.167457 222.171028 
L 372.092052 216.622197 
L 373.016647 229.752132 
L 373.941241 161.563219 
L 374.865836 205.28222 
L 375.79043 122.767869 
L 377.63962 197.992705 
L 378.564214 123.152255 
L 379.488809 161.969999 
L 380.413404 128.733942 
L 381.337998 124.264808 
L 382.262593 159.145481 
L 383.187188 129.505043 
L 384.111782 120.475003 
L 385.036377 161.970001 
L 385.960972 161.866928 
L 386.885566 96.232135 
L 387.810161 174.624902 
L 388.734755 161.969999 
L 389.65935 198.91587 
L 390.583945 196.154583 
L 391.508539 95.069287 
L 392.433134 161.597515 
L 393.357729 162.27379 
L 394.282323 207.004252 
L 395.206918 161.976815 
L 396.131513 161.689693 
L 397.056107 193.049226 
L 397.980702 162.154853 
L 398.905297 162.074689 
L 399.829891 162.239999 
L 400.754486 113.723418 
L 401.67908 161.644521 
L 402.603675 161.708892 
L 403.52827 161.989463 
L 404.452864 182.619861 
L 405.377459 90.674039 
L 406.302054 161.97 
L 407.226648 209.429093 
L 408.151243 131.666114 
L 409.075838 253.649657 
L 410.000432 161.971595 
L 410.925027 161.620294 
L 411.849622 76.07474 
L 412.774216 161.969999 
L 413.698811 161.638891 
L 414.623405 161.716032 
L 415.548 81.466595 
L 416.472595 231.878188 
L 417.397189 120.015174 
L 418.321784 138.882505 
L 419.246379 216.884393 
L 420.170973 162.226544 
L 421.095568 184.807932 
L 422.020163 198.974847 
L 422.944757 160.772193 
L 423.869352 162.215182 
L 424.793947 114.182823 
L 425.718541 160.68528 
L 426.643136 117.749354 
L 427.56773 162.500012 
L 428.492325 162.787893 
L 429.41692 108.113293 
L 430.341514 161.960142 
L 431.266109 136.366985 
L 432.190704 161.873682 
L 433.115298 108.918371 
L 434.039893 161.946986 
L 434.964488 51.832933 
L 435.889082 161.970001 
L 436.813677 161.982087 
L 437.738272 161.648129 
L 438.662866 81.830709 
L 439.587461 207.983862 
L 440.512056 162.715205 
L 441.43665 162.052679 
L 442.361245 161.66427 
L 443.285839 161.965801 
L 444.210434 214.197995 
L 445.135029 174.810032 
L 446.059623 92.140992 
L 446.984218 161.98421 
L 447.908813 221.781648 
L 448.833407 130.728804 
L 449.758002 174.765593 
L 450.682597 161.940887 
L 451.607191 161.852341 
L 452.531786 161.646833 
L 453.456381 99.109021 
L 454.380975 198.309988 
L 455.30557 162.104488 
L 456.230164 193.522837 
L 457.154759 191.042712 
L 458.079354 94.428231 
L 459.003948 162.307418 
L 459.928543 161.892456 
L 460.853138 135.407676 
L 461.777732 199.441419 
L 462.702327 132.198385 
L 463.626922 144.921345 
L 464.551516 162.019739 
L 465.476111 162.252029 
L 466.400706 151.509685 
L 467.3253 156.879177 
L 468.249895 93.227363 
L 469.174489 146.265509 
L 470.099084 118.498839 
L 471.023679 161.989297 
L 471.948273 186.450879 
L 472.872868 175.964811 
L 473.797463 70.985261 
L 474.722057 161.876734 
L 475.646652 87.296537 
L 476.571247 161.970001 
L 477.495841 161.97 
L 478.420436 161.772049 
L 479.345031 211.679553 
L 480.269625 161.887289 
L 481.19422 152.511658 
L 482.118814 134.629066 
L 483.043409 161.891395 
L 483.968004 125.568049 
L 484.892598 207.613992 
L 485.817193 161.799543 
L 486.741788 161.456351 
L 487.666382 223.318974 
L 488.590977 219.879891 
L 489.515572 161.874394 
L 490.440166 161.749309 
L 491.364761 162.235005 
L 492.289356 66.671802 
L 493.21395 94.164933 
L 494.138545 89.661913 
L 495.063139 161.955815 
L 495.987734 162.230606 
L 496.912329 210.871509 
L 497.836923 161.870428 
L 498.761518 264.482352 
L 499.686113 162.060003 
L 500.610707 131.927926 
L 501.535302 275.058435 
L 502.459897 192.941002 
L 503.384491 161.877098 
L 504.309086 136.351556 
L 505.233681 184.478473 
L 506.158275 162.027636 
L 507.08287 162.128408 
L 508.007465 161.944864 
L 508.932059 185.298249 
L 509.856654 155.723399 
L 510.781248 161.720155 
L 511.705843 203.705289 
L 512.630438 97.983167 
L 513.555032 223.710526 
L 514.479627 181.561396 
L 515.404222 188.794413 
L 516.328816 139.614315 
L 517.253411 161.776468 
L 518.178006 178.105247 
L 519.1026 227.002939 
L 520.027195 161.995048 
L 520.95179 154.467322 
L 521.876384 163.637901 
L 522.800979 162.064791 
L 523.725573 168.711708 
L 524.650168 161.995484 
L 525.574763 162.123407 
L 526.499357 161.891683 
L 527.423952 162.050627 
L 528.348547 117.659383 
L 529.273141 151.587188 
L 530.197736 161.970001 
L 531.122331 210.553332 
L 532.046925 172.029198 
L 532.97152 222.702622 
L 532.97152 222.702622 
" clip-path="url(#p082ce301a4)" style="fill: none; stroke: #dd8452; stroke-width: 1.5; stroke-linecap: round"/>
    <defs>
     <path id="me050526bed" d="M -2 2 
L 2 2 
L 2 -2 
L -2 -2 
z
" style="stroke: #dd8452; stroke-linejoin: miter"/>
    </defs>
    <g clip-path="url(#p082ce301a4)">
     <use xlink:href="#me050526bed" x="71.598793" y="35.047529" style="fill: #dd8452; stroke: #dd8452; stroke-linejoin: miter"/>
     <use xlink:href="#me050526bed" x="86.392307" y="35.015455" style="fill: #dd8452; stroke: #dd8452; stroke-linejoin: miter"/>
     <use xlink:href="#me050526bed" x="101.185821" y="162.655406" style="fill: #dd8452; stroke: #dd8452; stroke-linejoin: miter"/>
     <use xlink:href="#me050526bed" x="115.979336" y="177.840438" style="fill: #dd8452; stroke: #dd8452; stroke-linejoin: miter"/>
     <use xlink:href="#me050526bed" x="130.77285" y="248.17657" style="fill: #dd8452; stroke: #dd8452; stroke-linejoin: miter"/>
     <use xlink:href="#me050526bed" x="145.566364" y="106.905201" style="fill: #dd8452; stroke: #dd8452; stroke-linejoin: miter"/>
     <use xlink:href="#me050526bed" x="160.359878" y="161.796603" style="fill: #dd8452; stroke: #dd8452; stroke-linejoin: miter"/>
     <use xlink:href="#me050526bed" x="175.153393" y="161.795772" style="fill: #dd8452; stroke: #dd8452; stroke-linejoin: miter"/>
     <use xlink:href="#me050526bed" x="189.946907" y="162.273905" style="fill: #dd8452; stroke: #dd8452; stroke-linejoin: miter"/>
     <use xlink:href="#me050526bed" x="204.740421" y="162.13356" style="fill: #dd8452; stroke: #dd8452; stroke-linejoin: miter"/>
     <use xlink:href="#me050526bed" x="219.533936" y="160.85033" style="fill: #dd8452; stroke: #dd8452; stroke-linejoin: miter"/>
     <use xlink:href="#me050526bed" x="234.32745" y="222.864957" style="fill: #dd8452; stroke: #dd8452; stroke-linejoin: miter"/>
     <use xlink:href="#me050526bed" x="249.120964" y="162.714896" style="fill: #dd8452; stroke: #dd8452; stroke-linejoin: miter"/>
     <use xlink:href="#me050526bed" x="263.914479" y="185.801162" style="fill: #dd8452; stroke: #dd8452; stroke-linejoin: miter"/>
     <use xlink:href="#me050526bed" x="278.707993" y="162.484873" style="fill: #dd8452; stroke: #dd8452; stroke-linejoin: miter"/>
     <use xlink:href="#me050526bed" x="293.501507" y="161.841868" style="fill: #dd8452; stroke: #dd8452; stroke-linejoin: miter"/>
     <use xlink:href="#me050526bed" x="308.295021" y="120.616534" style="fill: #dd8452; stroke: #dd8452; stroke-linejoin: miter"/>
     <use xlink:href="#me050526bed" x="323.088536" y="162.449795" style="fill: #dd8452; stroke: #dd8452; stroke-linejoin: miter"/>
     <use xlink:href="#me050526bed" x="337.88205" y="161.607313" style="fill: #dd8452; stroke: #dd8452; stroke-linejoin: miter"/>
     <use xlink:href="#me050526bed" x="352.675564" y="223.142081" style="fill: #dd8452; stroke: #dd8452; stroke-linejoin: miter"/>
     <use xlink:href="#me050526bed" x="367.469079" y="176.66835" style="fill: #dd8452; stroke: #dd8452; stroke-linejoin: miter"/>
     <use xlink:href="#me050526bed" x="382.262593" y="159.145481" style="fill: #dd8452; stroke: #dd8452; stroke-linejoin: miter"/>
     <use xlink:href="#me050526bed" x="397.056107" y="193.049226" style="fill: #dd8452; stroke: #dd8452; stroke-linejoin: miter"/>
     <use xlink:href="#me050526bed" x="411.849622" y="76.07474" style="fill: #dd8452; stroke: #dd8452; stroke-linejoin: miter"/>
     <use xlink:href="#me050526bed" x="426.643136" y="117.749354" style="fill: #dd8452; stroke: #dd8452; stroke-linejoin: miter"/>
     <use xlink:href="#me050526bed" x="441.43665" y="162.052679" style="fill: #dd8452; stroke: #dd8452; stroke-linejoin: miter"/>
     <use xlink:href="#me050526bed" x="456.230164" y="193.522837" style="fill: #dd8452; stroke: #dd8452; stroke-linejoin: miter"/>
     <use xlink:href="#me050526bed" x="471.023679" y="161.989297" style="fill: #dd8452; stroke: #dd8452; stroke-linejoin: miter"/>
     <use xlink:href="#me050526bed" x="485.817193" y="161.799543" style="fill: #dd8452; stroke: #dd8452; stroke-linejoin: miter"/>
     <use xlink:href="#me050526bed" x="500.610707" y="131.927926" style="fill: #dd8452; stroke: #dd8452; stroke-linejoin: miter"/>
     <use xlink:href="#me050526bed" x="515.404222" y="188.794413" style="fill: #dd8452; stroke: #dd8452; stroke-linejoin: miter"/>
     <use xlink:href="#me050526bed" x="530.197736" y="161.970001" style="fill: #dd8452; stroke: #dd8452; stroke-linejoin: miter"/>
    </g>
   </g>
   <g id="line2d_14">
    <path d="M 71.598793 35.015455 
L 72.523387 288.924545 
L 73.447982 288.924545 
L 74.372577 35.015455 
L 75.297171 288.924545 
L 76.221766 288.922541 
L 77.14636 43.546805 
L 78.070955 35.015455 
L 78.99555 241.18951 
L 79.920144 224.571832 
L 80.844739 90.987735 
L 81.769334 288.924545 
L 82.693928 285.264675 
L 83.618523 288.829557 
L 84.543118 277.614548 
L 85.467712 54.217224 
L 86.392307 261.829526 
L 87.316902 70.067162 
L 88.241496 75.800284 
L 89.166091 35.015455 
L 90.090685 38.715009 
L 91.01528 35.015455 
L 91.939875 39.823561 
L 92.864469 269.178907 
L 93.789064 59.680573 
L 94.713659 253.198077 
L 95.638253 288.924545 
L 96.562848 286.168739 
L 97.487443 281.858793 
L 98.412037 281.14122 
L 99.336632 56.115184 
L 100.261227 35.015455 
L 101.185821 288.924545 
L 102.110416 263.64753 
L 103.035011 37.17162 
L 103.959605 288.924545 
L 104.8842 288.924545 
L 105.808794 282.788324 
L 106.733389 288.924545 
L 107.657984 35.015455 
L 108.582578 35.015837 
L 109.507173 51.921674 
L 110.431768 285.665848 
L 111.356362 288.924545 
L 112.280957 39.504531 
L 113.205552 287.237686 
L 114.130146 288.508992 
L 115.054741 288.924545 
L 115.979336 288.924545 
L 116.90393 37.190178 
L 117.828525 58.947341 
L 118.753119 35.015455 
L 119.677714 39.859027 
L 120.602309 277.181632 
L 121.526903 42.345801 
L 122.451498 283.468319 
L 123.376093 44.63855 
L 124.300687 280.350499 
L 125.225282 35.203264 
L 126.149877 281.121595 
L 127.074471 279.309951 
L 127.999066 42.837586 
L 128.923661 38.048266 
L 129.848255 46.478626 
L 130.77285 48.499333 
L 131.697444 284.665823 
L 132.622039 44.888392 
L 133.546634 36.704876 
L 134.471228 47.599542 
L 135.395823 288.44974 
L 136.320418 36.980065 
L 137.245012 279.915367 
L 138.169607 36.214436 
L 139.094202 276.588519 
L 140.018796 273.029589 
L 140.943391 282.278039 
L 141.867986 37.874444 
L 142.79258 280.340549 
L 143.717175 277.569324 
L 144.641769 49.792367 
L 145.566364 35.682384 
L 146.490959 35.362564 
L 147.415553 47.225049 
L 148.340148 279.952894 
L 149.264743 50.012162 
L 150.189337 51.313573 
L 151.113932 36.231078 
L 152.038527 37.799718 
L 152.963121 273.663004 
L 153.887716 272.546711 
L 154.812311 40.938253 
L 155.736905 37.007174 
L 156.6615 44.257142 
L 157.586094 284.273964 
L 158.510689 273.016023 
L 159.435284 288.334411 
L 160.359878 282.562076 
L 161.284473 279.058141 
L 162.209068 51.049528 
L 163.133662 43.747056 
L 164.058257 53.137507 
L 164.982852 38.112972 
L 165.907446 39.314501 
L 166.832041 50.566866 
L 167.756636 37.951181 
L 168.68123 288.924545 
L 169.605825 286.021099 
L 170.53042 50.840972 
L 171.455014 288.798121 
L 172.379609 41.322338 
L 173.304203 286.017169 
L 174.228798 288.924545 
L 175.153393 35.341844 
L 176.077987 37.882606 
L 177.002582 280.854004 
L 177.927177 36.06609 
L 178.851771 269.78289 
L 179.776366 48.560729 
L 180.700961 285.558434 
L 181.625555 283.216606 
L 182.55015 269.968845 
L 183.474745 288.483399 
L 184.399339 38.085222 
L 185.323934 282.163327 
L 186.248528 271.137895 
L 187.173123 285.247549 
L 188.097718 276.808592 
L 189.022312 46.733744 
L 189.946907 52.652187 
L 191.796096 54.304499 
L 192.720691 35.015987 
L 193.645286 39.685083 
L 194.56988 282.152278 
L 195.494475 43.962573 
L 196.41907 279.900473 
L 197.343664 48.483857 
L 198.268259 288.924545 
L 199.192853 42.189397 
L 200.117448 35.679679 
L 201.042043 40.188317 
L 201.966637 288.924545 
L 202.891232 35.125291 
L 203.815827 52.891524 
L 204.740421 45.420152 
L 205.665016 283.830711 
L 206.589611 51.771885 
L 207.514205 284.914162 
L 208.4388 37.294297 
L 209.363395 37.573333 
L 210.287989 288.924545 
L 211.212584 44.515175 
L 212.137178 286.337626 
L 213.061773 53.263842 
L 213.986368 280.955304 
L 214.910962 40.376895 
L 215.835557 35.015455 
L 216.760152 43.327017 
L 217.684746 284.221957 
L 218.609341 41.481811 
L 219.533936 48.656506 
L 220.45853 288.924545 
L 221.383125 45.723899 
L 222.30772 39.711076 
L 223.232314 276.258193 
L 224.156909 41.335748 
L 225.081503 287.969306 
L 226.006098 281.327488 
L 226.930693 47.140662 
L 227.855287 287.433662 
L 228.779882 49.702256 
L 229.704477 35.015455 
L 230.629071 35.016155 
L 231.553666 284.337849 
L 232.478261 285.97214 
L 233.402855 287.884246 
L 234.32745 41.859374 
L 235.252045 288.924545 
L 236.176639 283.395968 
L 237.101234 38.07186 
L 238.025829 38.891966 
L 238.950423 278.885652 
L 239.875018 35.015455 
L 240.799612 35.015455 
L 241.724207 286.7771 
L 242.648802 287.190704 
L 243.573396 278.641134 
L 244.497991 288.924545 
L 245.422586 35.296209 
L 246.34718 285.329797 
L 247.271775 39.255847 
L 248.19637 281.878475 
L 249.120964 35.070989 
L 250.045559 41.057739 
L 250.970154 35.153379 
L 251.894748 260.654589 
L 252.819343 277.645662 
L 253.743937 40.425643 
L 254.668532 37.846939 
L 255.593127 38.820038 
L 256.517721 288.924545 
L 257.442316 288.924545 
L 258.366911 54.107082 
L 259.291505 286.456065 
L 260.2161 288.924545 
L 261.140695 35.015455 
L 262.065289 278.261116 
L 262.989884 35.739974 
L 263.914479 35.015455 
L 264.839073 39.589258 
L 265.763668 38.194425 
L 266.688262 288.924545 
L 267.612857 286.363784 
L 268.537452 279.6801 
L 269.462046 283.911363 
L 270.386641 40.557672 
L 271.311236 281.463878 
L 272.23583 274.656456 
L 273.160425 35.015455 
L 274.08502 35.228791 
L 275.009614 276.592727 
L 275.934209 35.015455 
L 276.858804 284.647214 
L 277.783398 284.87774 
L 278.707993 35.729629 
L 279.632587 287.372694 
L 280.557182 35.015455 
L 281.481777 35.015455 
L 282.406371 282.030933 
L 283.330966 35.015455 
L 284.255561 287.888909 
L 285.180155 284.756013 
L 286.10475 288.924545 
L 287.029345 287.310353 
L 287.953939 42.092146 
L 288.878534 275.642282 
L 289.803129 288.924545 
L 290.727723 288.924545 
L 291.652318 38.049595 
L 292.576912 288.924545 
L 293.501507 38.688983 
L 294.426102 273.943038 
L 295.350696 288.502128 
L 296.275291 36.964262 
L 297.199886 38.648019 
L 298.12448 36.505151 
L 299.049075 288.90744 
L 299.97367 288.849748 
L 300.898264 36.093988 
L 301.822859 280.65125 
L 302.747454 284.469611 
L 303.672048 35.015455 
L 304.596643 284.474403 
L 305.521238 35.015455 
L 306.445832 288.924545 
L 307.370427 35.692735 
L 308.295021 288.924545 
L 310.144211 288.924545 
L 311.068805 288.330908 
L 311.9934 36.051972 
L 312.917995 41.632647 
L 313.842589 38.023366 
L 314.767184 285.556247 
L 315.691779 35.015455 
L 316.616373 287.253248 
L 317.540968 285.595183 
L 318.465563 288.924545 
L 319.390157 44.583297 
L 320.314752 288.924537 
L 321.239346 282.112256 
L 322.163941 288.924545 
L 323.088536 284.972254 
L 324.01313 275.176056 
L 324.937725 287.228893 
L 325.86232 283.713814 
L 326.786914 35.015455 
L 327.711509 35.015455 
L 328.636104 288.924545 
L 329.560698 36.884092 
L 330.485293 35.015455 
L 331.409888 35.015455 
L 332.334482 288.912814 
L 333.259077 278.843418 
L 334.183671 35.015455 
L 335.108266 38.56797 
L 336.032861 39.084317 
L 336.957455 288.924545 
L 337.88205 286.802677 
L 338.806645 35.232967 
L 339.731239 276.800366 
L 340.655834 44.282919 
L 341.580429 35.015455 
L 342.505023 35.015455 
L 343.429618 288.922299 
L 344.354213 45.864163 
L 345.278807 288.922641 
L 346.203402 37.604882 
L 347.127996 39.230665 
L 348.052591 39.169442 
L 348.977186 35.015455 
L 349.90178 37.704588 
L 350.826375 277.723051 
L 351.75097 38.533193 
L 352.675564 261.625377 
L 353.600159 287.081059 
L 354.524754 288.924545 
L 355.449348 40.166022 
L 356.373943 281.19754 
L 357.298538 35.015455 
L 358.223132 288.924545 
L 359.147727 288.909832 
L 360.072321 35.015455 
L 360.996916 280.923815 
L 361.921511 36.718405 
L 362.846105 35.015455 
L 363.7707 39.677477 
L 364.695295 287.089042 
L 365.619889 38.937665 
L 366.544484 287.040208 
L 367.469079 35.015547 
L 368.393673 288.924545 
L 369.318268 279.97015 
L 370.242863 288.924545 
L 372.092052 288.924545 
L 373.016647 35.015455 
L 373.941241 39.615453 
L 374.865836 288.924545 
L 375.79043 288.924545 
L 376.715025 38.362344 
L 377.63962 288.924545 
L 378.564214 288.924545 
L 379.488809 35.609626 
L 380.413404 35.015979 
L 381.337998 35.015455 
L 382.262593 288.924545 
L 383.187188 288.924545 
L 384.111782 40.754289 
L 385.036377 45.297821 
L 385.960972 39.236897 
L 386.885566 35.015456 
L 387.810161 35.065204 
L 388.734755 251.666368 
L 389.65935 35.015455 
L 390.583945 288.924545 
L 391.508539 35.646869 
L 392.433134 287.728486 
L 393.357729 35.120556 
L 394.282323 35.015455 
L 395.206918 38.959659 
L 396.131513 37.315414 
L 397.056107 35.015554 
L 397.980702 285.596625 
L 398.905297 287.642662 
L 399.829891 40.218781 
L 400.754486 288.924545 
L 401.67908 41.664288 
L 402.603675 281.558698 
L 403.52827 35.015455 
L 404.452864 288.924545 
L 405.377459 36.898529 
L 406.302054 288.91401 
L 407.226648 46.684987 
L 408.151243 35.015455 
L 409.075838 272.700471 
L 410.000432 35.015455 
L 410.925027 36.909259 
L 411.849622 35.173301 
L 412.774216 35.015463 
L 413.698811 38.042285 
L 414.623405 38.739456 
L 415.548 35.029244 
L 416.472595 284.878902 
L 417.397189 35.089854 
L 418.321784 288.908405 
L 419.246379 288.924545 
L 420.170973 287.2417 
L 421.095568 35.015455 
L 422.020163 288.924545 
L 422.944757 288.924545 
L 423.869352 39.398129 
L 424.793947 288.924545 
L 425.718541 40.752095 
L 426.643136 288.918017 
L 427.56773 36.471384 
L 428.492325 287.205282 
L 429.41692 288.924545 
L 430.341514 284.581779 
L 431.266109 288.924545 
L 432.190704 36.46508 
L 433.115298 35.015455 
L 434.039893 286.203711 
L 434.964488 35.027313 
L 435.889082 35.080913 
L 436.813677 41.525008 
L 437.738272 37.512545 
L 438.662866 35.025142 
L 439.587461 35.015455 
L 440.512056 36.487963 
L 441.43665 42.957958 
L 442.361245 36.251905 
L 443.285839 37.960237 
L 444.210434 288.909324 
L 445.135029 35.015455 
L 446.059623 286.127057 
L 446.984218 36.454768 
L 447.908813 35.015455 
L 449.758002 35.015455 
L 450.682597 37.579055 
L 451.607191 35.600452 
L 452.531786 35.11206 
L 454.380975 35.015455 
L 455.30557 40.89521 
L 456.230164 288.924537 
L 457.154759 35.015455 
L 458.079354 288.901887 
L 459.003948 37.799581 
L 459.928543 288.295424 
L 460.853138 288.924545 
L 461.777732 35.015455 
L 462.702327 35.015455 
L 463.626922 288.724748 
L 464.551516 36.749218 
L 465.476111 35.679368 
L 466.400706 288.924545 
L 467.3253 288.924545 
L 468.249895 287.563168 
L 469.174489 288.924545 
L 470.099084 38.725721 
L 471.023679 285.165696 
L 471.948273 288.924367 
L 472.872868 288.924545 
L 473.797463 35.015457 
L 474.722057 286.71342 
L 475.646652 288.853533 
L 476.571247 35.028155 
L 477.495841 35.047167 
L 478.420436 36.911248 
L 479.345031 288.924545 
L 480.269625 283.217314 
L 481.19422 36.761503 
L 482.118814 35.015455 
L 483.043409 42.457085 
L 483.968004 35.016339 
L 484.892598 288.924545 
L 487.666382 288.924545 
L 488.590977 35.509852 
L 489.515572 287.803729 
L 490.440166 38.188471 
L 491.364761 285.452283 
L 492.289356 288.924544 
L 493.21395 37.202703 
L 494.138545 288.924545 
L 495.063139 288.924545 
L 495.987734 37.375428 
L 496.912329 37.148663 
L 497.836923 36.175506 
L 498.761518 46.586613 
L 499.686113 286.658939 
L 500.610707 37.098292 
L 501.535302 288.924545 
L 502.459897 35.015455 
L 503.384491 288.924545 
L 504.309086 35.015455 
L 505.233681 35.015455 
L 506.158275 277.794803 
L 507.08287 36.758164 
L 508.007465 286.687231 
L 508.932059 288.924545 
L 509.856654 287.402765 
L 510.781248 41.563476 
L 511.705843 288.924413 
L 512.630438 35.366078 
L 513.555032 288.924545 
L 514.479627 288.924545 
L 515.404222 36.978143 
L 516.328816 288.924545 
L 517.253411 288.491331 
L 518.178006 288.924545 
L 519.1026 35.015455 
L 520.027195 39.42214 
L 520.95179 288.924545 
L 521.876384 288.924545 
L 522.800979 287.656876 
L 523.725573 35.015455 
L 524.650168 284.415046 
L 525.574763 35.498236 
L 526.499357 285.570576 
L 527.423952 285.051632 
L 528.348547 288.924545 
L 529.273141 35.015455 
L 530.197736 35.34094 
L 531.122331 35.015455 
L 532.046925 35.015455 
L 532.97152 288.924545 
L 532.97152 288.924545 
" clip-path="url(#p082ce301a4)" style="fill: none; stroke: #55a868; stroke-width: 1.5; stroke-linecap: round"/>
    <defs>
     <path id="m332824563d" d="M 0 -2 
L -2 2 
L 2 2 
z
" style="stroke: #55a868; stroke-linejoin: miter"/>
    </defs>
    <g clip-path="url(#p082ce301a4)">
     <use xlink:href="#m332824563d" x="71.598793" y="35.015455" style="fill: #55a868; stroke: #55a868; stroke-linejoin: miter"/>
     <use xlink:href="#m332824563d" x="86.392307" y="261.829526" style="fill: #55a868; stroke: #55a868; stroke-linejoin: miter"/>
     <use xlink:href="#m332824563d" x="101.185821" y="288.924545" style="fill: #55a868; stroke: #55a868; stroke-linejoin: miter"/>
     <use xlink:href="#m332824563d" x="115.979336" y="288.924545" style="fill: #55a868; stroke: #55a868; stroke-linejoin: miter"/>
     <use xlink:href="#m332824563d" x="130.77285" y="48.499333" style="fill: #55a868; stroke: #55a868; stroke-linejoin: miter"/>
     <use xlink:href="#m332824563d" x="145.566364" y="35.682384" style="fill: #55a868; stroke: #55a868; stroke-linejoin: miter"/>
     <use xlink:href="#m332824563d" x="160.359878" y="282.562076" style="fill: #55a868; stroke: #55a868; stroke-linejoin: miter"/>
     <use xlink:href="#m332824563d" x="175.153393" y="35.341844" style="fill: #55a868; stroke: #55a868; stroke-linejoin: miter"/>
     <use xlink:href="#m332824563d" x="189.946907" y="52.652187" style="fill: #55a868; stroke: #55a868; stroke-linejoin: miter"/>
     <use xlink:href="#m332824563d" x="204.740421" y="45.420152" style="fill: #55a868; stroke: #55a868; stroke-linejoin: miter"/>
     <use xlink:href="#m332824563d" x="219.533936" y="48.656506" style="fill: #55a868; stroke: #55a868; stroke-linejoin: miter"/>
     <use xlink:href="#m332824563d" x="234.32745" y="41.859374" style="fill: #55a868; stroke: #55a868; stroke-linejoin: miter"/>
     <use xlink:href="#m332824563d" x="249.120964" y="35.070989" style="fill: #55a868; stroke: #55a868; stroke-linejoin: miter"/>
     <use xlink:href="#m332824563d" x="263.914479" y="35.015455" style="fill: #55a868; stroke: #55a868; stroke-linejoin: miter"/>
     <use xlink:href="#m332824563d" x="278.707993" y="35.729629" style="fill: #55a868; stroke: #55a868; stroke-linejoin: miter"/>
     <use xlink:href="#m332824563d" x="293.501507" y="38.688983" style="fill: #55a868; stroke: #55a868; stroke-linejoin: miter"/>
     <use xlink:href="#m332824563d" x="308.295021" y="288.924545" style="fill: #55a868; stroke: #55a868; stroke-linejoin: miter"/>
     <use xlink:href="#m332824563d" x="323.088536" y="284.972254" style="fill: #55a868; stroke: #55a868; stroke-linejoin: miter"/>
     <use xlink:href="#m332824563d" x="337.88205" y="286.802677" style="fill: #55a868; stroke: #55a868; stroke-linejoin: miter"/>
     <use xlink:href="#m332824563d" x="352.675564" y="261.625377" style="fill: #55a868; stroke: #55a868; stroke-linejoin: miter"/>
     <use xlink:href="#m332824563d" x="367.469079" y="35.015547" style="fill: #55a868; stroke: #55a868; stroke-linejoin: miter"/>
     <use xlink:href="#m332824563d" x="382.262593" y="288.924545" style="fill: #55a868; stroke: #55a868; stroke-linejoin: miter"/>
     <use xlink:href="#m332824563d" x="397.056107" y="35.015554" style="fill: #55a868; stroke: #55a868; stroke-linejoin: miter"/>
     <use xlink:href="#m332824563d" x="411.849622" y="35.173301" style="fill: #55a868; stroke: #55a868; stroke-linejoin: miter"/>
     <use xlink:href="#m332824563d" x="426.643136" y="288.918017" style="fill: #55a868; stroke: #55a868; stroke-linejoin: miter"/>
     <use xlink:href="#m332824563d" x="441.43665" y="42.957958" style="fill: #55a868; stroke: #55a868; stroke-linejoin: miter"/>
     <use xlink:href="#m332824563d" x="456.230164" y="288.924537" style="fill: #55a868; stroke: #55a868; stroke-linejoin: miter"/>
     <use xlink:href="#m332824563d" x="471.023679" y="285.165696" style="fill: #55a868; stroke: #55a868; stroke-linejoin: miter"/>
     <use xlink:href="#m332824563d" x="485.817193" y="288.891103" style="fill: #55a868; stroke: #55a868; stroke-linejoin: miter"/>
     <use xlink:href="#m332824563d" x="500.610707" y="37.098292" style="fill: #55a868; stroke: #55a868; stroke-linejoin: miter"/>
     <use xlink:href="#m332824563d" x="515.404222" y="36.978143" style="fill: #55a868; stroke: #55a868; stroke-linejoin: miter"/>
     <use xlink:href="#m332824563d" x="530.197736" y="35.34094" style="fill: #55a868; stroke: #55a868; stroke-linejoin: miter"/>
    </g>
   </g>
   <g id="line2d_15">
    <path d="M 71.598793 145.931887 
L 72.523387 146.06644 
L 73.447982 177.379343 
L 74.372577 141.438878 
L 75.297171 181.128303 
L 76.221766 184.50139 
L 77.14636 140.605057 
L 78.070955 188.306688 
L 78.99555 109.73745 
L 79.920144 116.799559 
L 80.844739 211.092735 
L 81.769334 258.224878 
L 82.693928 256.248728 
L 83.618523 111.136909 
L 84.543118 72.101258 
L 85.467712 78.168043 
L 86.392307 239.265855 
L 87.316902 44.619463 
L 88.241496 228.491499 
L 89.166091 235.918971 
L 90.090685 93.745296 
L 91.01528 236.011055 
L 91.939875 89.874139 
L 92.864469 63.523134 
L 93.789064 255.530497 
L 94.713659 75.874994 
L 95.638253 249.643867 
L 96.562848 70.010094 
L 97.487443 252.141273 
L 98.412037 69.448081 
L 99.336632 49.361194 
L 100.261227 232.226537 
L 101.185821 100.11377 
L 102.110416 45.300337 
L 103.035011 46.25276 
L 103.959605 75.135562 
L 104.8842 86.583813 
L 105.808794 43.928322 
L 106.733389 71.494543 
L 107.657984 242.012145 
L 108.582578 161.97 
L 109.507173 274.350999 
L 110.431768 226.102694 
L 111.356362 225.964011 
L 112.280957 35.110564 
L 113.205552 82.786899 
L 114.130146 62.260697 
L 115.054741 75.626181 
L 115.979336 85.238606 
L 116.90393 84.392986 
L 117.828525 37.564664 
L 118.753119 269.049214 
L 119.677714 35.015455 
L 120.602309 285.945815 
L 121.526903 264.814617 
L 122.451498 35.829644 
L 123.376093 68.795823 
L 124.300687 279.836929 
L 125.225282 288.924545 
L 126.149877 70.077723 
L 127.074471 288.924545 
L 128.923661 288.924545 
L 129.848255 35.015455 
L 130.77285 288.924545 
L 131.697444 288.924504 
L 132.622039 35.015455 
L 133.546634 288.924545 
L 134.471228 39.622743 
L 135.395823 288.924545 
L 136.320418 286.573044 
L 137.245012 35.015455 
L 138.169607 90.44749 
L 139.094202 288.924545 
L 140.018796 35.015455 
L 140.943391 261.161174 
L 141.867986 35.015455 
L 142.79258 288.924545 
L 144.641769 41.972326 
L 145.566364 260.079277 
L 146.490959 250.588033 
L 147.415553 35.461371 
L 148.340148 288.912939 
L 149.264743 288.924544 
L 150.189337 35.015455 
L 151.113932 287.366265 
L 152.038527 288.924537 
L 152.963121 288.913286 
L 153.887716 35.015455 
L 154.812311 288.924545 
L 155.736905 35.015455 
L 157.586094 35.015455 
L 158.510689 288.924544 
L 159.435284 272.483777 
L 160.359878 241.455582 
L 161.284473 161.97 
L 162.209068 35.015455 
L 163.133662 288.267113 
L 164.058257 288.924545 
L 164.982852 35.015455 
L 165.907446 288.924545 
L 166.832041 35.015475 
L 167.756636 232.979313 
L 168.68123 84.116079 
L 169.605825 35.015455 
L 170.53042 35.015455 
L 171.455014 82.405815 
L 172.379609 35.015455 
L 173.304203 288.924545 
L 174.228798 267.858123 
L 175.153393 227.90748 
L 176.077987 232.330875 
L 177.002582 288.924545 
L 178.851771 288.924545 
L 179.776366 58.238966 
L 180.700961 233.574731 
L 181.625555 85.191571 
L 182.55015 35.015455 
L 183.474745 96.049631 
L 184.399339 275.251233 
L 185.323934 35.015455 
L 186.248528 288.924545 
L 187.173123 288.924545 
L 188.097718 258.129478 
L 189.022312 36.3533 
L 189.946907 35.015455 
L 191.796096 35.015455 
L 192.720691 161.97 
L 193.645286 235.710656 
L 194.56988 35.015458 
L 195.494475 246.534018 
L 196.41907 35.015455 
L 197.343664 60.730092 
L 198.268259 94.294336 
L 199.192853 82.241563 
L 200.117448 95.98581 
L 201.042043 288.924545 
L 201.966637 91.514927 
L 202.891232 35.666018 
L 203.815827 35.015455 
L 204.740421 73.199268 
L 205.665016 35.015455 
L 206.589611 286.484074 
L 207.514205 241.580006 
L 208.4388 252.200283 
L 209.363395 231.152288 
L 210.287989 90.813058 
L 211.212584 287.198548 
L 212.137178 42.783391 
L 213.061773 35.015455 
L 213.986368 256.143604 
L 214.910962 284.255074 
L 215.835557 271.378503 
L 216.760152 244.296411 
L 217.684746 288.924545 
L 218.609341 57.311816 
L 219.533936 61.064129 
L 220.45853 88.453695 
L 221.383125 161.97 
L 222.30772 288.924545 
L 223.232314 288.269418 
L 224.156909 238.950608 
L 225.081503 95.80014 
L 226.006098 288.924545 
L 226.930693 35.015455 
L 227.855287 53.987667 
L 228.779882 56.597277 
L 229.704477 90.843065 
L 230.629071 93.540966 
L 231.553666 234.927132 
L 232.478261 288.924544 
L 233.402855 95.737682 
L 234.32745 35.015455 
L 235.252045 261.952874 
L 236.176639 236.795238 
L 237.101234 50.137799 
L 238.025829 288.924545 
L 238.950423 248.551636 
L 239.875018 81.126075 
L 240.799612 226.506922 
L 241.724207 35.015455 
L 242.648802 35.015887 
L 243.573396 74.54367 
L 244.497991 288.820021 
L 245.422586 226.950554 
L 246.34718 35.015455 
L 247.271775 288.924545 
L 248.19637 35.067434 
L 249.120964 226.541072 
L 250.045559 35.015455 
L 250.970154 240.82219 
L 251.894748 147.416942 
L 252.819343 71.46543 
L 253.743937 36.032286 
L 254.668532 242.964772 
L 255.593127 79.252102 
L 256.517721 240.232012 
L 257.442316 237.480733 
L 258.366911 288.924545 
L 259.291505 287.036728 
L 260.2161 87.61933 
L 261.140695 288.764843 
L 262.065289 37.347664 
L 262.989884 97.951378 
L 263.914479 228.70181 
L 264.839073 288.924545 
L 265.763668 72.166102 
L 266.688262 56.095847 
L 267.612857 93.325984 
L 268.537452 78.078914 
L 269.462046 88.559819 
L 270.386641 35.015455 
L 271.311236 82.969242 
L 272.23583 60.281606 
L 273.160425 96.971241 
L 274.08502 97.301288 
L 275.009614 255.522757 
L 275.934209 230.954145 
L 276.858804 35.015455 
L 277.783398 39.309738 
L 278.707993 227.459845 
L 279.632587 41.388479 
L 280.557182 274.54064 
L 281.481777 226.883815 
L 282.406371 274.749412 
L 283.330966 91.239072 
L 284.255561 35.015455 
L 285.180155 35.015455 
L 286.10475 97.691 
L 287.029345 94.109675 
L 287.953939 84.039085 
L 288.878534 259.216061 
L 289.803129 236.414039 
L 290.727723 59.964411 
L 291.652318 35.015455 
L 292.576912 66.939672 
L 293.501507 232.558044 
L 294.426102 57.729028 
L 295.350696 35.015455 
L 296.275291 94.490477 
L 297.199886 288.924545 
L 298.12448 161.97 
L 299.049075 161.97 
L 299.97367 91.696138 
L 300.898264 35.015455 
L 301.822859 242.890035 
L 302.747454 288.924545 
L 303.672048 230.39048 
L 304.596643 246.72274 
L 305.521238 96.255121 
L 306.445832 97.595073 
L 307.370427 288.681234 
L 308.295021 236.915874 
L 309.219616 161.967684 
L 310.144211 161.953687 
L 311.068805 271.211652 
L 311.9934 96.077806 
L 312.917995 85.26366 
L 313.842589 92.665239 
L 314.767184 250.530386 
L 315.691779 161.497296 
L 316.616373 228.908813 
L 317.540968 35.015455 
L 318.465563 161.865976 
L 319.390157 75.4346 
L 320.314752 229.792806 
L 321.239346 161.97 
L 322.163941 161.335946 
L 323.088536 233.022935 
L 324.01313 63.323293 
L 324.937725 228.890629 
L 325.86232 288.924544 
L 326.786914 232.378805 
L 327.711509 55.401505 
L 328.636104 229.677158 
L 329.560698 95.102998 
L 330.485293 259.375094 
L 331.409888 226.050441 
L 332.334482 249.042642 
L 333.259077 247.673158 
L 334.183671 95.235 
L 335.108266 91.752012 
L 336.032861 288.924544 
L 336.957455 162.012293 
L 337.88205 94.320449 
L 338.806645 161.97 
L 339.731239 69.659218 
L 340.655834 35.053327 
L 341.580429 161.966868 
L 342.505023 59.621116 
L 343.429618 226.165192 
L 344.354213 288.479288 
L 345.278807 161.97 
L 346.203402 236.611264 
L 347.127996 288.914748 
L 348.052591 134.935458 
L 348.977186 55.807099 
L 349.90178 288.924545 
L 350.826375 217.964697 
L 351.75097 91.859655 
L 352.675564 139.636412 
L 353.600159 266.474315 
L 354.524754 88.307346 
L 355.449348 288.924545 
L 356.373943 82.835727 
L 357.298538 231.393797 
L 358.223132 229.462245 
L 359.147727 288.924545 
L 360.072321 161.810409 
L 360.996916 241.893139 
L 361.921511 229.325677 
L 362.846105 272.949668 
L 363.7707 86.08863 
L 364.695295 35.015455 
L 365.619889 35.015455 
L 366.544484 229.126666 
L 367.469079 96.540841 
L 368.393673 226.106236 
L 369.318268 288.924545 
L 370.242863 95.590358 
L 371.167457 254.271019 
L 372.092052 76.019264 
L 373.016647 58.94739 
L 373.941241 89.762192 
L 374.865836 161.970081 
L 375.79043 161.965795 
L 376.715025 35.015455 
L 377.63962 160.815529 
L 378.564214 88.07261 
L 379.488809 161.97 
L 380.413404 90.875869 
L 381.337998 235.365289 
L 382.262593 224.215182 
L 383.187188 91.321112 
L 384.111782 71.306701 
L 385.036377 161.97 
L 385.960972 233.364053 
L 386.885566 162.006081 
L 387.810161 227.082285 
L 388.734755 165.567958 
L 389.65935 88.998182 
L 390.583945 233.535337 
L 391.508539 265.678908 
L 392.433134 35.015458 
L 393.357729 226.226378 
L 394.282323 239.933852 
L 395.206918 35.015455 
L 396.131513 94.124369 
L 397.056107 232.164429 
L 397.980702 288.924545 
L 398.905297 95.865402 
L 399.829891 235.351471 
L 400.754486 82.853134 
L 401.67908 85.440101 
L 402.603675 83.739948 
L 403.52827 161.976667 
L 404.452864 226.940312 
L 405.377459 43.923756 
L 406.302054 161.97 
L 407.226648 37.030922 
L 408.151243 231.84077 
L 409.075838 174.552285 
L 410.000432 161.837337 
L 410.925027 35.015455 
L 411.849622 161.969997 
L 412.774216 161.97 
L 413.698811 92.857105 
L 414.623405 91.559377 
L 415.548 161.97 
L 416.472595 288.839398 
L 417.397189 238.07528 
L 418.321784 94.601617 
L 419.246379 75.939794 
L 420.170973 228.728427 
L 421.095568 161.98233 
L 422.020163 234.526755 
L 422.944757 224.733641 
L 423.869352 233.643441 
L 424.793947 82.042441 
L 425.718541 87.464887 
L 426.643136 239.242802 
L 427.56773 220.404802 
L 428.492325 286.079271 
L 429.41692 76.768616 
L 430.341514 288.924545 
L 431.266109 94.101396 
L 432.190704 228.313595 
L 433.115298 161.970011 
L 434.039893 35.015456 
L 434.964488 161.969998 
L 435.889082 161.97 
L 436.813677 35.015456 
L 437.738272 35.015455 
L 438.662866 161.969997 
L 439.587461 240.452924 
L 440.512056 95.59986 
L 441.43665 82.426235 
L 442.361245 35.015455 
L 443.285839 230.120616 
L 444.210434 78.12419 
L 445.135029 226.946808 
L 446.059623 42.351128 
L 446.984218 35.015455 
L 447.908813 253.029238 
L 448.833407 92.529634 
L 449.758002 227.025812 
L 450.682597 229.846554 
L 451.607191 226.858827 
L 452.531786 99.353544 
L 453.456381 257.345989 
L 454.380975 89.554996 
L 455.30557 87.19202 
L 456.230164 91.653038 
L 457.154759 92.656743 
L 458.079354 59.777797 
L 459.003948 93.381174 
L 459.928543 227.009805 
L 460.853138 161.97004 
L 461.777732 235.496608 
L 462.702327 231.080955 
L 463.626922 161.970001 
L 464.551516 35.015457 
L 465.476111 288.924545 
L 466.400706 97.248495 
L 467.3253 161.696588 
L 468.249895 271.756306 
L 469.174489 227.479461 
L 470.099084 248.318162 
L 471.023679 35.015456 
L 471.948273 94.235361 
L 472.872868 162.171657 
L 473.797463 161.970005 
L 474.722057 229.561289 
L 475.646652 46.647439 
L 476.571247 161.97 
L 477.495841 161.97 
L 478.420436 94.905961 
L 479.345031 80.746269 
L 480.269625 236.284584 
L 481.19422 288.924544 
L 482.118814 230.621866 
L 483.043409 240.225162 
L 483.968004 234.606094 
L 484.892598 161.968947 
L 485.817193 162.372469 
L 486.741788 161.994951 
L 487.666382 254.535647 
L 488.590977 71.298339 
L 489.515572 227.727146 
L 490.440166 288.924543 
L 491.364761 288.924545 
L 493.21395 49.954919 
L 494.138545 51.771985 
L 495.063139 161.923625 
L 495.987734 288.924545 
L 496.912329 75.446821 
L 497.836923 227.785192 
L 498.761518 175.075235 
L 499.686113 94.302323 
L 500.610707 88.291373 
L 502.459897 232.004202 
L 503.384491 161.734089 
L 504.309086 229.953544 
L 505.233681 229.097202 
L 506.158275 73.563155 
L 507.08287 95.191327 
L 508.007465 288.924545 
L 508.932059 95.552192 
L 509.856654 35.015455 
L 510.781248 35.015458 
L 511.705843 163.404005 
L 512.630438 161.97 
L 513.555032 161.949911 
L 514.479627 228.006721 
L 515.404222 90.243055 
L 516.328816 94.942324 
L 517.253411 97.311681 
L 518.178006 96.411685 
L 520.027195 233.576728 
L 520.95179 162.276984 
L 521.876384 161.957915 
L 522.800979 95.999625 
L 523.725573 161.976768 
L 524.650168 35.015455 
L 525.574763 226.699864 
L 526.499357 231.563355 
L 527.423952 91.402383 
L 528.348547 239.057633 
L 529.273141 225.132412 
L 530.197736 161.97 
L 532.046925 162.96284 
L 532.97152 254.162398 
L 532.97152 254.162398 
" clip-path="url(#p082ce301a4)" style="fill: none; stroke: #c44e52; stroke-width: 1.5; stroke-linecap: round"/>
    <defs>
     <path id="mc51403b389" d="M -0 2.828427 
L 2.828427 0 
L 0 -2.828427 
L -2.828427 -0 
z
" style="stroke: #c44e52; stroke-linejoin: miter"/>
    </defs>
    <g clip-path="url(#p082ce301a4)">
     <use xlink:href="#mc51403b389" x="71.598793" y="145.931887" style="fill: #c44e52; stroke: #c44e52; stroke-linejoin: miter"/>
     <use xlink:href="#mc51403b389" x="86.392307" y="239.265855" style="fill: #c44e52; stroke: #c44e52; stroke-linejoin: miter"/>
     <use xlink:href="#mc51403b389" x="101.185821" y="100.11377" style="fill: #c44e52; stroke: #c44e52; stroke-linejoin: miter"/>
     <use xlink:href="#mc51403b389" x="115.979336" y="85.238606" style="fill: #c44e52; stroke: #c44e52; stroke-linejoin: miter"/>
     <use xlink:href="#mc51403b389" x="130.77285" y="288.924545" style="fill: #c44e52; stroke: #c44e52; stroke-linejoin: miter"/>
     <use xlink:href="#mc51403b389" x="145.566364" y="260.079277" style="fill: #c44e52; stroke: #c44e52; stroke-linejoin: miter"/>
     <use xlink:href="#mc51403b389" x="160.359878" y="241.455582" style="fill: #c44e52; stroke: #c44e52; stroke-linejoin: miter"/>
     <use xlink:href="#mc51403b389" x="175.153393" y="227.90748" style="fill: #c44e52; stroke: #c44e52; stroke-linejoin: miter"/>
     <use xlink:href="#mc51403b389" x="189.946907" y="35.015455" style="fill: #c44e52; stroke: #c44e52; stroke-linejoin: miter"/>
     <use xlink:href="#mc51403b389" x="204.740421" y="73.199268" style="fill: #c44e52; stroke: #c44e52; stroke-linejoin: miter"/>
     <use xlink:href="#mc51403b389" x="219.533936" y="61.064129" style="fill: #c44e52; stroke: #c44e52; stroke-linejoin: miter"/>
     <use xlink:href="#mc51403b389" x="234.32745" y="35.015455" style="fill: #c44e52; stroke: #c44e52; stroke-linejoin: miter"/>
     <use xlink:href="#mc51403b389" x="249.120964" y="226.541072" style="fill: #c44e52; stroke: #c44e52; stroke-linejoin: miter"/>
     <use xlink:href="#mc51403b389" x="263.914479" y="228.70181" style="fill: #c44e52; stroke: #c44e52; stroke-linejoin: miter"/>
     <use xlink:href="#mc51403b389" x="278.707993" y="227.459845" style="fill: #c44e52; stroke: #c44e52; stroke-linejoin: miter"/>
     <use xlink:href="#mc51403b389" x="293.501507" y="232.558044" style="fill: #c44e52; stroke: #c44e52; stroke-linejoin: miter"/>
     <use xlink:href="#mc51403b389" x="308.295021" y="236.915874" style="fill: #c44e52; stroke: #c44e52; stroke-linejoin: miter"/>
     <use xlink:href="#mc51403b389" x="323.088536" y="233.022935" style="fill: #c44e52; stroke: #c44e52; stroke-linejoin: miter"/>
     <use xlink:href="#mc51403b389" x="337.88205" y="94.320449" style="fill: #c44e52; stroke: #c44e52; stroke-linejoin: miter"/>
     <use xlink:href="#mc51403b389" x="352.675564" y="139.636412" style="fill: #c44e52; stroke: #c44e52; stroke-linejoin: miter"/>
     <use xlink:href="#mc51403b389" x="367.469079" y="96.540841" style="fill: #c44e52; stroke: #c44e52; stroke-linejoin: miter"/>
     <use xlink:href="#mc51403b389" x="382.262593" y="224.215182" style="fill: #c44e52; stroke: #c44e52; stroke-linejoin: miter"/>
     <use xlink:href="#mc51403b389" x="397.056107" y="232.164429" style="fill: #c44e52; stroke: #c44e52; stroke-linejoin: miter"/>
     <use xlink:href="#mc51403b389" x="411.849622" y="161.969997" style="fill: #c44e52; stroke: #c44e52; stroke-linejoin: miter"/>
     <use xlink:href="#mc51403b389" x="426.643136" y="239.242802" style="fill: #c44e52; stroke: #c44e52; stroke-linejoin: miter"/>
     <use xlink:href="#mc51403b389" x="441.43665" y="82.426235" style="fill: #c44e52; stroke: #c44e52; stroke-linejoin: miter"/>
     <use xlink:href="#mc51403b389" x="456.230164" y="91.653038" style="fill: #c44e52; stroke: #c44e52; stroke-linejoin: miter"/>
     <use xlink:href="#mc51403b389" x="471.023679" y="35.015456" style="fill: #c44e52; stroke: #c44e52; stroke-linejoin: miter"/>
     <use xlink:href="#mc51403b389" x="485.817193" y="162.372469" style="fill: #c44e52; stroke: #c44e52; stroke-linejoin: miter"/>
     <use xlink:href="#mc51403b389" x="500.610707" y="88.291373" style="fill: #c44e52; stroke: #c44e52; stroke-linejoin: miter"/>
     <use xlink:href="#mc51403b389" x="515.404222" y="90.243055" style="fill: #c44e52; stroke: #c44e52; stroke-linejoin: miter"/>
     <use xlink:href="#mc51403b389" x="530.197736" y="161.97" style="fill: #c44e52; stroke: #c44e52; stroke-linejoin: miter"/>
    </g>
   </g>
   <g id="patch_3">
    <path d="M 48.530156 301.62 
L 48.530156 22.32 
" style="fill: none; stroke: #cccccc; stroke-width: 1.25; stroke-linejoin: miter; stroke-linecap: square"/>
   </g>
   <g id="patch_4">
    <path d="M 556.040156 301.62 
L 556.040156 22.32 
" style="fill: none; stroke: #cccccc; stroke-width: 1.25; stroke-linejoin: miter; stroke-linecap: square"/>
   </g>
   <g id="patch_5">
    <path d="M 48.530156 301.62 
L 556.040156 301.62 
" style="fill: none; stroke: #cccccc; stroke-width: 1.25; stroke-linejoin: miter; stroke-linecap: square"/>
   </g>
   <g id="patch_6">
    <path d="M 48.530156 22.32 
L 556.040156 22.32 
" style="fill: none; stroke: #cccccc; stroke-width: 1.25; stroke-linejoin: miter; stroke-linecap: square"/>
   </g>
   <g id="text_14">
    <!-- Scenario B: Optimal drive and interaction parameters vs $\omega$ -->
    <g style="fill: #262626" transform="translate(125.585156 16.32) scale(0.12 -0.12)">
     <defs>
      <path id="DejaVuSans-53" d="M 3425 4513 
L 3425 3897 
Q 3066 4069 2747 4153 
Q 2428 4238 2131 4238 
Q 1616 4238 1336 4038 
Q 1056 3838 1056 3469 
Q 1056 3159 1242 3001 
Q 1428 2844 1947 2747 
L 2328 2669 
Q 3034 2534 3370 2195 
Q 3706 1856 3706 1288 
Q 3706 609 3251 259 
Q 2797 -91 1919 -91 
Q 1588 -91 1214 -16 
Q 841 59 441 206 
L 441 856 
Q 825 641 1194 531 
Q 1563 422 1919 422 
Q 2459 422 2753 634 
Q 3047 847 3047 1241 
Q 3047 1584 2836 1778 
Q 2625 1972 2144 2069 
L 1759 2144 
Q 1053 2284 737 2584 
Q 422 2884 422 3419 
Q 422 4038 858 4394 
Q 1294 4750 2059 4750 
Q 2388 4750 2728 4690 
Q 3069 4631 3425 4513 
z
" transform="scale(0.015625)"/>
      <path id="DejaVuSans-63" d="M 3122 3366 
L 3122 2828 
Q 2878 2963 2633 3030 
Q 2388 3097 2138 3097 
Q 1578 3097 1268 2742 
Q 959 2388 959 1747 
Q 959 1106 1268 751 
Q 1578 397 2138 397 
Q 2388 397 2633 464 
Q 2878 531 3122 666 
L 3122 134 
Q 2881 22 2623 -34 
Q 2366 -91 2075 -91 
Q 1284 -91 818 406 
Q 353 903 353 1747 
Q 353 2603 823 3093 
Q 1294 3584 2113 3584 
Q 2378 3584 2631 3529 
Q 2884 3475 3122 3366 
z
" transform="scale(0.015625)"/>
      <path id="DejaVuSans-6e" d="M 3513 2113 
L 3513 0 
L 2938 0 
L 2938 2094 
Q 2938 2591 2744 2837 
Q 2550 3084 2163 3084 
Q 1697 3084 1428 2787 
Q 1159 2491 1159 1978 
L 1159 0 
L 581 0 
L 581 3500 
L 1159 3500 
L 1159 2956 
Q 1366 3272 1645 3428 
Q 1925 3584 2291 3584 
Q 2894 3584 3203 3211 
Q 3513 2838 3513 2113 
z
" transform="scale(0.015625)"/>
      <path id="DejaVuSans-6f" d="M 1959 3097 
Q 1497 3097 1228 2736 
Q 959 2375 959 1747 
Q 959 1119 1226 758 
Q 1494 397 1959 397 
Q 2419 397 2687 759 
Q 2956 1122 2956 1747 
Q 2956 2369 2687 2733 
Q 2419 3097 1959 3097 
z
M 1959 3584 
Q 2709 3584 3137 3096 
Q 3566 2609 3566 1747 
Q 3566 888 3137 398 
Q 2709 -91 1959 -91 
Q 1206 -91 779 398 
Q 353 888 353 1747 
Q 353 2609 779 3096 
Q 1206 3584 1959 3584 
z
" transform="scale(0.015625)"/>
      <path id="DejaVuSans-42" d="M 1259 2228 
L 1259 519 
L 2272 519 
Q 2781 519 3026 730 
Q 3272 941 3272 1375 
Q 3272 1813 3026 2020 
Q 2781 2228 2272 2228 
L 1259 2228 
z
M 1259 4147 
L 1259 2741 
L 2194 2741 
Q 2656 2741 2882 2914 
Q 3109 3088 3109 3444 
Q 3109 3797 2882 3972 
Q 2656 4147 2194 4147 
L 1259 4147 
z
M 628 4666 
L 2241 4666 
Q 2963 4666 3353 4366 
Q 3744 4066 3744 3513 
Q 3744 3084 3544 2831 
Q 3344 2578 2956 2516 
Q 3422 2416 3680 2098 
Q 3938 1781 3938 1306 
Q 3938 681 3513 340 
Q 3088 0 2303 0 
L 628 0 
L 628 4666 
z
" transform="scale(0.015625)"/>
      <path id="DejaVuSans-3a" d="M 750 794 
L 1409 794 
L 1409 0 
L 750 0 
L 750 794 
z
M 750 3309 
L 1409 3309 
L 1409 2516 
L 750 2516 
L 750 3309 
z
" transform="scale(0.015625)"/>
      <path id="DejaVuSans-64" d="M 2906 2969 
L 2906 4863 
L 3481 4863 
L 3481 0 
L 2906 0 
L 2906 525 
Q 2725 213 2448 61 
Q 2172 -91 1784 -91 
Q 1150 -91 751 415 
Q 353 922 353 1747 
Q 353 2572 751 3078 
Q 1150 3584 1784 3584 
Q 2172 3584 2448 3432 
Q 2725 3281 2906 2969 
z
M 947 1747 
Q 947 1113 1208 752 
Q 1469 391 1925 391 
Q 2381 391 2643 752 
Q 2906 1113 2906 1747 
Q 2906 2381 2643 2742 
Q 2381 3103 1925 3103 
Q 1469 3103 1208 2742 
Q 947 2381 947 1747 
z
" transform="scale(0.015625)"/>
      <path id="DejaVuSans-73" d="M 2834 3397 
L 2834 2853 
Q 2591 2978 2328 3040 
Q 2066 3103 1784 3103 
Q 1356 3103 1142 2972 
Q 928 2841 928 2578 
Q 928 2378 1081 2264 
Q 1234 2150 1697 2047 
L 1894 2003 
Q 2506 1872 2764 1633 
Q 3022 1394 3022 966 
Q 3022 478 2636 193 
Q 2250 -91 1575 -91 
Q 1294 -91 989 -36 
Q 684 19 347 128 
L 347 722 
Q 666 556 975 473 
Q 1284 391 1588 391 
Q 1994 391 2212 530 
Q 2431 669 2431 922 
Q 2431 1156 2273 1281 
Q 2116 1406 1581 1522 
L 1381 1569 
Q 847 1681 609 1914 
Q 372 2147 372 2553 
Q 372 3047 722 3315 
Q 1072 3584 1716 3584 
Q 2034 3584 2315 3537 
Q 2597 3491 2834 3397 
z
" transform="scale(0.015625)"/>
     </defs>
     <use xlink:href="#DejaVuSans-53" transform="translate(0 0.015625)"/>
     <use xlink:href="#DejaVuSans-63" transform="translate(63.476562 0.015625)"/>
     <use xlink:href="#DejaVuSans-65" transform="translate(118.457031 0.015625)"/>
     <use xlink:href="#DejaVuSans-6e" transform="translate(179.980469 0.015625)"/>
     <use xlink:href="#DejaVuSans-61" transform="translate(243.359375 0.015625)"/>
     <use xlink:href="#DejaVuSans-72" transform="translate(304.638672 0.015625)"/>
     <use xlink:href="#DejaVuSans-69" transform="translate(345.751953 0.015625)"/>
     <use xlink:href="#DejaVuSans-6f" transform="translate(373.535156 0.015625)"/>
     <use xlink:href="#DejaVuSans-20" transform="translate(434.716797 0.015625)"/>
     <use xlink:href="#DejaVuSans-42" transform="translate(466.503906 0.015625)"/>
     <use xlink:href="#DejaVuSans-3a" transform="translate(535.107422 0.015625)"/>
     <use xlink:href="#DejaVuSans-20" transform="translate(568.798828 0.015625)"/>
     <use xlink:href="#DejaVuSans-4f" transform="translate(600.585938 0.015625)"/>
     <use xlink:href="#DejaVuSans-70" transform="translate(679.296875 0.015625)"/>
     <use xlink:href="#DejaVuSans-74" transform="translate(742.773438 0.015625)"/>
     <use xlink:href="#DejaVuSans-69" transform="translate(781.982422 0.015625)"/>
     <use xlink:href="#DejaVuSans-6d" transform="translate(809.765625 0.015625)"/>
     <use xlink:href="#DejaVuSans-61" transform="translate(907.177734 0.015625)"/>
     <use xlink:href="#DejaVuSans-6c" transform="translate(968.457031 0.015625)"/>
     <use xlink:href="#DejaVuSans-20" transform="translate(996.240234 0.015625)"/>
     <use xlink:href="#DejaVuSans-64" transform="translate(1028.027344 0.015625)"/>
     <use xlink:href="#DejaVuSans-72" transform="translate(1091.503906 0.015625)"/>
     <use xlink:href="#DejaVuSans-69" transform="translate(1132.617188 0.015625)"/>
     <use xlink:href="#DejaVuSans-76" transform="translate(1160.400391 0.015625)"/>
     <use xlink:href="#DejaVuSans-65" transform="translate(1219.580078 0.015625)"/>
     <use xlink:href="#DejaVuSans-20" transform="translate(1281.103516 0.015625)"/>
     <use xlink:href="#DejaVuSans-61" transform="translate(1312.890625 0.015625)"/>
     <use xlink:href="#DejaVuSans-6e" transform="translate(1374.169922 0.015625)"/>
     <use xlink:href="#DejaVuSans-64" transform="translate(1437.548828 0.015625)"/>
     <use xlink:href="#DejaVuSans-20" transform="translate(1501.025391 0.015625)"/>
     <use xlink:href="#DejaVuSans-69" transform="translate(1532.8125 0.015625)"/>
     <use xlink:href="#DejaVuSans-6e" transform="translate(1560.595703 0.015625)"/>
     <use xlink:href="#DejaVuSans-74" transform="translate(1623.974609 0.015625)"/>
     <use xlink:href="#DejaVuSans-65" transform="translate(1663.183594 0.015625)"/>
     <use xlink:href="#DejaVuSans-72" transform="translate(1724.707031 0.015625)"/>
     <use xlink:href="#DejaVuSans-61" transform="translate(1765.820312 0.015625)"/>
     <use xlink:href="#DejaVuSans-63" transform="translate(1827.099609 0.015625)"/>
     <use xlink:href="#DejaVuSans-74" transform="translate(1882.080078 0.015625)"/>
     <use xlink:href="#DejaVuSans-69" transform="translate(1921.289062 0.015625)"/>
     <use xlink:href="#DejaVuSans-6f" transform="translate(1949.072266 0.015625)"/>
     <use xlink:href="#DejaVuSans-6e" transform="translate(2010.253906 0.015625)"/>
     <use xlink:href="#DejaVuSans-20" transform="translate(2073.632812 0.015625)"/>
     <use xlink:href="#DejaVuSans-70" transform="translate(2105.419922 0.015625)"/>
     <use xlink:href="#DejaVuSans-61" transform="translate(2168.896484 0.015625)"/>
     <use xlink:href="#DejaVuSans-72" transform="translate(2230.175781 0.015625)"/>
     <use xlink:href="#DejaVuSans-61" transform="translate(2271.289062 0.015625)"/>
     <use xlink:href="#DejaVuSans-6d" transform="translate(2332.568359 0.015625)"/>
     <use xlink:href="#DejaVuSans-65" transform="translate(2429.980469 0.015625)"/>
     <use xlink:href="#DejaVuSans-74" transform="translate(2491.503906 0.015625)"/>
     <use xlink:href="#DejaVuSans-65" transform="translate(2530.712891 0.015625)"/>
     <use xlink:href="#DejaVuSans-72" transform="translate(2592.236328 0.015625)"/>
     <use xlink:href="#DejaVuSans-73" transform="translate(2633.349609 0.015625)"/>
     <use xlink:href="#DejaVuSans-20" transform="translate(2685.449219 0.015625)"/>
     <use xlink:href="#DejaVuSans-76" transform="translate(2717.236328 0.015625)"/>
     <use xlink:href="#DejaVuSans-73" transform="translate(2776.416016 0.015625)"/>
     <use xlink:href="#DejaVuSans-20" transform="translate(2828.515625 0.015625)"/>
     <use xlink:href="#DejaVuSans-Oblique-3c9" transform="translate(2860.302734 0.015625)"/>
    </g>
   </g>
   <g id="legend_1">
    <g id="patch_7">
     <path d="M 56.230156 201.57 
L 106.610156 201.57 
Q 108.810156 201.57 108.810156 199.37 
L 108.810156 124.57 
Q 108.810156 122.37 106.610156 122.37 
L 56.230156 122.37 
Q 54.030156 122.37 54.030156 124.57 
L 54.030156 199.37 
Q 54.030156 201.57 56.230156 201.57 
z
" style="fill: #ffffff; opacity: 0.8; stroke: #cccccc; stroke-linejoin: miter"/>
    </g>
    <g id="line2d_16">
     <path d="M 58.430156 132.93 
L 69.430156 132.93 
L 80.430156 132.93 
" style="fill: none; stroke: #4c72b0; stroke-width: 1.5; stroke-linecap: round"/>
     <g>
      <use xlink:href="#m9e16a27484" x="69.430156" y="132.93" style="fill: #4c72b0; stroke: #4c72b0"/>
     </g>
    </g>
    <g id="text_15">
     <!-- $a_x^*$ -->
     <g style="fill: #262626" transform="translate(89.230156 136.78) scale(0.11 -0.11)">
      <defs>
       <path id="DejaVuSans-Oblique-61" d="M 3438 1997 
L 3047 0 
L 2472 0 
L 2578 531 
Q 2325 219 2001 64 
Q 1678 -91 1281 -91 
Q 834 -91 548 182 
Q 263 456 263 884 
Q 263 1497 752 1853 
Q 1241 2209 2100 2209 
L 2900 2209 
L 2931 2363 
Q 2938 2388 2941 2417 
Q 2944 2447 2944 2509 
Q 2944 2788 2717 2942 
Q 2491 3097 2081 3097 
Q 1800 3097 1504 3025 
Q 1209 2953 897 2809 
L 997 3341 
Q 1322 3463 1633 3523 
Q 1944 3584 2234 3584 
Q 2853 3584 3176 3315 
Q 3500 3047 3500 2534 
Q 3500 2431 3484 2292 
Q 3469 2153 3438 1997 
z
M 2816 1759 
L 2241 1759 
Q 1534 1759 1195 1570 
Q 856 1381 856 984 
Q 856 709 1029 553 
Q 1203 397 1509 397 
Q 1978 397 2328 733 
Q 2678 1069 2791 1631 
L 2816 1759 
z
" transform="scale(0.015625)"/>
       <path id="DejaVuSans-2a" d="M 3009 3897 
L 1888 3291 
L 3009 2681 
L 2828 2375 
L 1778 3009 
L 1778 1831 
L 1422 1831 
L 1422 3009 
L 372 2375 
L 191 2681 
L 1313 3291 
L 191 3897 
L 372 4206 
L 1422 3572 
L 1422 4750 
L 1778 4750 
L 1778 3572 
L 2828 4206 
L 3009 3897 
z
" transform="scale(0.015625)"/>
       <path id="DejaVuSans-Oblique-78" d="M 3841 3500 
L 2234 1784 
L 3219 0 
L 2559 0 
L 1819 1388 
L 531 0 
L -166 0 
L 1556 1844 
L 641 3500 
L 1300 3500 
L 1972 2234 
L 3144 3500 
L 3841 3500 
z
" transform="scale(0.015625)"/>
      </defs>
      <use xlink:href="#DejaVuSans-Oblique-61" transform="translate(0 0.765625)"/>
      <use xlink:href="#DejaVuSans-2a" transform="translate(79.566888 39.046875) scale(0.7)"/>
      <use xlink:href="#DejaVuSans-Oblique-78" transform="translate(61.279297 -26.578125) scale(0.7)"/>
     </g>
    </g>
    <g id="line2d_17">
     <path d="M 58.430156 151.52 
L 69.430156 151.52 
L 80.430156 151.52 
" style="fill: none; stroke: #dd8452; stroke-width: 1.5; stroke-linecap: round"/>
     <g>
      <use xlink:href="#me050526bed" x="69.430156" y="151.52" style="fill: #dd8452; stroke: #dd8452; stroke-linejoin: miter"/>
     </g>
    </g>
    <g id="text_16">
     <!-- $a_y^*$ -->
     <g style="fill: #262626" transform="translate(89.230156 155.37) scale(0.11 -0.11)">
      <defs>
       <path id="DejaVuSans-Oblique-79" d="M 1588 -325 
Q 1188 -997 936 -1164 
Q 684 -1331 294 -1331 
L -159 -1331 
L -63 -850 
L 269 -850 
Q 509 -850 678 -719 
Q 847 -588 1056 -206 
L 1234 128 
L 459 3500 
L 1069 3500 
L 1650 819 
L 3256 3500 
L 3859 3500 
L 1588 -325 
z
" transform="scale(0.015625)"/>
      </defs>
      <use xlink:href="#DejaVuSans-Oblique-61" transform="translate(0 0.765625)"/>
      <use xlink:href="#DejaVuSans-2a" transform="translate(79.566888 39.046875) scale(0.7)"/>
      <use xlink:href="#DejaVuSans-Oblique-79" transform="translate(61.279297 -26.578125) scale(0.7)"/>
     </g>
    </g>
    <g id="line2d_18">
     <path d="M 58.430156 171.65 
L 69.430156 171.65 
L 80.430156 171.65 
" style="fill: none; stroke: #55a868; stroke-width: 1.5; stroke-linecap: round"/>
     <g>
      <use xlink:href="#m332824563d" x="69.430156" y="171.65" style="fill: #55a868; stroke: #55a868; stroke-linejoin: miter"/>
     </g>
    </g>
    <g id="text_17">
     <!-- $a_z^*$ -->
     <g style="fill: #262626" transform="translate(89.230156 175.5) scale(0.11 -0.11)">
      <defs>
       <path id="DejaVuSans-Oblique-7a" d="M 744 3500 
L 3475 3500 
L 3372 2975 
L 738 459 
L 2913 459 
L 2822 0 
L -19 0 
L 84 525 
L 2719 3041 
L 653 3041 
L 744 3500 
z
" transform="scale(0.015625)"/>
      </defs>
      <use xlink:href="#DejaVuSans-Oblique-61" transform="translate(0 0.765625)"/>
      <use xlink:href="#DejaVuSans-2a" transform="translate(79.566888 39.046875) scale(0.7)"/>
      <use xlink:href="#DejaVuSans-Oblique-7a" transform="translate(61.279297 -26.578125) scale(0.7)"/>
     </g>
    </g>
    <g id="line2d_19">
     <path d="M 58.430156 190.24 
L 69.430156 190.24 
L 80.430156 190.24 
" style="fill: none; stroke: #c44e52; stroke-width: 1.5; stroke-linecap: round"/>
     <g>
      <use xlink:href="#mc51403b389" x="69.430156" y="190.24" style="fill: #c44e52; stroke: #c44e52; stroke-linejoin: miter"/>
     </g>
    </g>
    <g id="text_18">
     <!-- $a_{zz}^*$ -->
     <g style="fill: #262626" transform="translate(89.230156 194.09) scale(0.11 -0.11)">
      <use xlink:href="#DejaVuSans-Oblique-61" transform="translate(0 0.765625)"/>
      <use xlink:href="#DejaVuSans-2a" transform="translate(79.566888 39.046875) scale(0.7)"/>
      <use xlink:href="#DejaVuSans-Oblique-7a" transform="translate(61.279297 -26.578125) scale(0.7)"/>
      <use xlink:href="#DejaVuSans-Oblique-7a" transform="translate(98.022461 -26.578125) scale(0.7)"/>
     </g>
    </g>
   </g>
  </g>
 </g>
 <defs>
  <clipPath id="p082ce301a4">
   <rect x="48.530156" y="22.32" width="507.51" height="279.3"/>
  </clipPath>
 </defs>
</svg>
