<?xml version="1.0" encoding="utf-8" standalone="no"?>
<!DOCTYPE svg PUBLIC "-//W3C//DTD SVG 1.1//EN"
  "http://www.w3.org/Graphics/SVG/1.1/DTD/svg11.dtd">
<svg xmlns:xlink="http://www.w3.org/1999/xlink" width="563.240156pt" height="272.867688pt" viewBox="0 0 563.240156 272.867688" xmlns="http://www.w3.org/2000/svg" version="1.1">
 <metadata>
  <rdf:RDF xmlns:dc="http://purl.org/dc/elements/1.1/" xmlns:cc="http://creativecommons.org/ns#" xmlns:rdf="http://www.w3.org/1999/02/22-rdf-syntax-ns#">
   <cc:Work>
    <dc:type rdf:resource="http://purl.org/dc/dcmitype/StillImage"/>
    <dc:date>2026-07-11T00:18:58.782482</dc:date>
    <dc:format>image/svg+xml</dc:format>
    <dc:creator>
     <cc:Agent>
      <dc:title>Matplotlib v3.10.9, https://matplotlib.org/</dc:title>
     </cc:Agent>
    </dc:creator>
   </cc:Work>
  </rdf:RDF>
 </metadata>
 <defs>
  <style type="text/css">*{stroke-linejoin: round; stroke-linecap: butt}</style>
 </defs>
 <g id="figure_1">
  <g id="patch_1">
   <path d="M 0 272.867688 
L 563.240156 272.867688 
L 563.240156 0 
L 0 0 
z
" style="fill: #ffffff"/>
  </g>
  <g id="axes_1">
   <g id="patch_2">
    <path d="M 48.530156 229.908 
L 556.040156 229.908 
L 556.040156 24.12 
L 48.530156 24.12 
z
" style="fill: #ffffff"/>
   </g>
   <g id="matplotlib.axis_1">
    <g id="xtick_1">
     <g id="line2d_1">
      <path d="M 70.674198 229.908 
L 70.674198 24.12 
" clip-path="url(#p237c39e59b)" style="fill: none; stroke: #cccccc; stroke-linecap: round"/>
     </g>
     <g id="text_1">
      <!-- 0 -->
      <g style="fill: #262626" transform="translate(67.174823 247.766281) scale(0.11 -0.11)">
       <defs>
        <path id="DejaVuSans-30" d="M 2034 4250 
Q 1547 4250 1301 3770 
Q 1056 3291 1056 2328 
Q 1056 1369 1301 889 
Q 1547 409 2034 409 
Q 2525 409 2770 889 
Q 3016 1369 3016 2328 
Q 3016 3291 2770 3770 
Q 2525 4250 2034 4250 
z
M 2034 4750 
Q 2819 4750 3233 4129 
Q 3647 3509 3647 2328 
Q 3647 1150 3233 529 
Q 2819 -91 2034 -91 
Q 1250 -91 836 529 
Q 422 1150 422 2328 
Q 422 3509 836 4129 
Q 1250 4750 2034 4750 
z
" transform="scale(0.015625)"/>
       </defs>
       <use xlink:href="#DejaVuSans-30"/>
      </g>
     </g>
    </g>
    <g id="xtick_2">
     <g id="line2d_2">
      <path d="M 163.133662 229.908 
L 163.133662 24.12 
" clip-path="url(#p237c39e59b)" style="fill: none; stroke: #cccccc; stroke-linecap: round"/>
     </g>
     <g id="text_2">
      <!-- 1 -->
      <g style="fill: #262626" transform="translate(159.634287 247.766281) scale(0.11 -0.11)">
       <defs>
        <path id="DejaVuSans-31" d="M 794 531 
L 1825 531 
L 1825 4091 
L 703 3866 
L 703 4441 
L 1819 4666 
L 2450 4666 
L 2450 531 
L 3481 531 
L 3481 0 
L 794 0 
L 794 531 
z
" transform="scale(0.015625)"/>
       </defs>
       <use xlink:href="#DejaVuSans-31"/>
      </g>
     </g>
    </g>
    <g id="xtick_3">
     <g id="line2d_3">
      <path d="M 255.593127 229.908 
L 255.593127 24.12 
" clip-path="url(#p237c39e59b)" style="fill: none; stroke: #cccccc; stroke-linecap: round"/>
     </g>
     <g id="text_3">
      <!-- 2 -->
      <g style="fill: #262626" transform="translate(252.093752 247.766281) scale(0.11 -0.11)">
       <defs>
        <path id="DejaVuSans-32" d="M 1228 531 
L 3431 531 
L 3431 0 
L 469 0 
L 469 531 
Q 828 903 1448 1529 
Q 2069 2156 2228 2338 
Q 2531 2678 2651 2914 
Q 2772 3150 2772 3378 
Q 2772 3750 2511 3984 
Q 2250 4219 1831 4219 
Q 1534 4219 1204 4116 
Q 875 4013 500 3803 
L 500 4441 
Q 881 4594 1212 4672 
Q 1544 4750 1819 4750 
Q 2544 4750 2975 4387 
Q 3406 4025 3406 3419 
Q 3406 3131 3298 2873 
Q 3191 2616 2906 2266 
Q 2828 2175 2409 1742 
Q 1991 1309 1228 531 
z
" transform="scale(0.015625)"/>
       </defs>
       <use xlink:href="#DejaVuSans-32"/>
      </g>
     </g>
    </g>
    <g id="xtick_4">
     <g id="line2d_4">
      <path d="M 348.052591 229.908 
L 348.052591 24.12 
" clip-path="url(#p237c39e59b)" style="fill: none; stroke: #cccccc; stroke-linecap: round"/>
     </g>
     <g id="text_4">
      <!-- 3 -->
      <g style="fill: #262626" transform="translate(344.553216 247.766281) scale(0.11 -0.11)">
       <defs>
        <path id="DejaVuSans-33" d="M 2597 2516 
Q 3050 2419 3304 2112 
Q 3559 1806 3559 1356 
Q 3559 666 3084 287 
Q 2609 -91 1734 -91 
Q 1441 -91 1130 -33 
Q 819 25 488 141 
L 488 750 
Q 750 597 1062 519 
Q 1375 441 1716 441 
Q 2309 441 2620 675 
Q 2931 909 2931 1356 
Q 2931 1769 2642 2001 
Q 2353 2234 1838 2234 
L 1294 2234 
L 1294 2753 
L 1863 2753 
Q 2328 2753 2575 2939 
Q 2822 3125 2822 3475 
Q 2822 3834 2567 4026 
Q 2313 4219 1838 4219 
Q 1578 4219 1281 4162 
Q 984 4106 628 3988 
L 628 4550 
Q 988 4650 1302 4700 
Q 1616 4750 1894 4750 
Q 2613 4750 3031 4423 
Q 3450 4097 3450 3541 
Q 3450 3153 3228 2886 
Q 3006 2619 2597 2516 
z
" transform="scale(0.015625)"/>
       </defs>
       <use xlink:href="#DejaVuSans-33"/>
      </g>
     </g>
    </g>
    <g id="xtick_5">
     <g id="line2d_5">
      <path d="M 440.512056 229.908 
L 440.512056 24.12 
" clip-path="url(#p237c39e59b)" style="fill: none; stroke: #cccccc; stroke-linecap: round"/>
     </g>
     <g id="text_5">
      <!-- 4 -->
      <g style="fill: #262626" transform="translate(437.012681 247.766281) scale(0.11 -0.11)">
       <defs>
        <path id="DejaVuSans-34" d="M 2419 4116 
L 825 1625 
L 2419 1625 
L 2419 4116 
z
M 2253 4666 
L 3047 4666 
L 3047 1625 
L 3713 1625 
L 3713 1100 
L 3047 1100 
L 3047 0 
L 2419 0 
L 2419 1100 
L 313 1100 
L 313 1709 
L 2253 4666 
z
" transform="scale(0.015625)"/>
       </defs>
       <use xlink:href="#DejaVuSans-34"/>
      </g>
     </g>
    </g>
    <g id="xtick_6">
     <g id="line2d_6">
      <path d="M 532.97152 229.908 
L 532.97152 24.12 
" clip-path="url(#p237c39e59b)" style="fill: none; stroke: #cccccc; stroke-linecap: round"/>
     </g>
     <g id="text_6">
      <!-- 5 -->
      <g style="fill: #262626" transform="translate(529.472145 247.766281) scale(0.11 -0.11)">
       <defs>
        <path id="DejaVuSans-35" d="M 691 4666 
L 3169 4666 
L 3169 4134 
L 1269 4134 
L 1269 2991 
Q 1406 3038 1543 3061 
Q 1681 3084 1819 3084 
Q 2600 3084 3056 2656 
Q 3513 2228 3513 1497 
Q 3513 744 3044 326 
Q 2575 -91 1722 -91 
Q 1428 -91 1123 -41 
Q 819 9 494 109 
L 494 744 
Q 775 591 1075 516 
Q 1375 441 1709 441 
Q 2250 441 2565 725 
Q 2881 1009 2881 1497 
Q 2881 1984 2565 2268 
Q 2250 2553 1709 2553 
Q 1456 2553 1204 2497 
Q 953 2441 691 2322 
L 691 4666 
z
" transform="scale(0.015625)"/>
       </defs>
       <use xlink:href="#DejaVuSans-35"/>
      </g>
     </g>
    </g>
    <g id="text_7">
     <!-- $\omega$ -->
     <g style="fill: #262626" transform="translate(297.245156 263.172063) scale(0.12 -0.12)">
      <defs>
       <path id="DejaVuSans-Oblique-3c9" d="M 1369 -91 
Q 72 -91 434 1766 
Q 575 2500 1256 3500 
L 1875 3500 
Q 1231 2500 1088 1750 
Q 819 397 1519 397 
Q 2166 397 2478 2078 
L 3009 2078 
Q 2669 388 3316 397 
Q 4013 403 4275 1750 
Q 4419 2500 4169 3500 
L 4788 3500 
Q 5075 2500 4934 1766 
Q 4578 -94 3278 -91 
Q 2428 -88 2503 844 
Q 2194 -91 1369 -91 
z
" transform="scale(0.015625)"/>
      </defs>
      <use xlink:href="#DejaVuSans-Oblique-3c9" transform="translate(0 0.3125)"/>
     </g>
    </g>
   </g>
   <g id="matplotlib.axis_2">
    <g id="ytick_1">
     <g id="line2d_7">
      <path d="M 48.530156 201.846 
L 556.040156 201.846 
" clip-path="url(#p237c39e59b)" style="fill: none; stroke: #cccccc; stroke-linecap: round"/>
     </g>
     <g id="text_8">
      <!-- −4 -->
      <g style="fill: #262626" transform="translate(22.81375 206.025141) scale(0.11 -0.11)">
       <defs>
        <path id="DejaVuSans-2212" d="M 678 2272 
L 4684 2272 
L 4684 1741 
L 678 1741 
L 678 2272 
z
" transform="scale(0.015625)"/>
       </defs>
       <use xlink:href="#DejaVuSans-2212"/>
       <use xlink:href="#DejaVuSans-34" transform="translate(83.789062 0)"/>
      </g>
     </g>
    </g>
    <g id="ytick_2">
     <g id="line2d_8">
      <path d="M 48.530156 164.43 
L 556.040156 164.43 
" clip-path="url(#p237c39e59b)" style="fill: none; stroke: #cccccc; stroke-linecap: round"/>
     </g>
     <g id="text_9">
      <!-- −2 -->
      <g style="fill: #262626" transform="translate(22.81375 168.609141) scale(0.11 -0.11)">
       <use xlink:href="#DejaVuSans-2212"/>
       <use xlink:href="#DejaVuSans-32" transform="translate(83.789062 0)"/>
      </g>
     </g>
    </g>
    <g id="ytick_3">
     <g id="line2d_9">
      <path d="M 48.530156 127.014 
L 556.040156 127.014 
" clip-path="url(#p237c39e59b)" style="fill: none; stroke: #cccccc; stroke-linecap: round"/>
     </g>
     <g id="text_10">
      <!-- 0 -->
      <g style="fill: #262626" transform="translate(32.031406 131.193141) scale(0.11 -0.11)">
       <use xlink:href="#DejaVuSans-30"/>
      </g>
     </g>
    </g>
    <g id="ytick_4">
     <g id="line2d_10">
      <path d="M 48.530156 89.598 
L 556.040156 89.598 
" clip-path="url(#p237c39e59b)" style="fill: none; stroke: #cccccc; stroke-linecap: round"/>
     </g>
     <g id="text_11">
      <!-- 2 -->
      <g style="fill: #262626" transform="translate(32.031406 93.777141) scale(0.11 -0.11)">
       <use xlink:href="#DejaVuSans-32"/>
      </g>
     </g>
    </g>
    <g id="ytick_5">
     <g id="line2d_11">
      <path d="M 48.530156 52.182 
L 556.040156 52.182 
" clip-path="url(#p237c39e59b)" style="fill: none; stroke: #cccccc; stroke-linecap: round"/>
     </g>
     <g id="text_12">
      <!-- 4 -->
      <g style="fill: #262626" transform="translate(32.031406 56.361141) scale(0.11 -0.11)">
       <use xlink:href="#DejaVuSans-34"/>
      </g>
     </g>
    </g>
    <g id="text_13">
     <!-- Optimal parameter value -->
     <g style="fill: #262626" transform="translate(16.318125 202.63275) rotate(-90) scale(0.12 -0.12)">
      <defs>
       <path id="DejaVuSans-4f" d="M 2522 4238 
Q 1834 4238 1429 3725 
Q 1025 3213 1025 2328 
Q 1025 1447 1429 934 
Q 1834 422 2522 422 
Q 3209 422 3611 934 
Q 4013 1447 4013 2328 
Q 4013 3213 3611 3725 
Q 3209 4238 2522 4238 
z
M 2522 4750 
Q 3503 4750 4090 4092 
Q 4678 3434 4678 2328 
Q 4678 1225 4090 567 
Q 3503 -91 2522 -91 
Q 1538 -91 948 565 
Q 359 1222 359 2328 
Q 359 3434 948 4092 
Q 1538 4750 2522 4750 
z
" transform="scale(0.015625)"/>
       <path id="DejaVuSans-70" d="M 1159 525 
L 1159 -1331 
L 581 -1331 
L 581 3500 
L 1159 3500 
L 1159 2969 
Q 1341 3281 1617 3432 
Q 1894 3584 2278 3584 
Q 2916 3584 3314 3078 
Q 3713 2572 3713 1747 
Q 3713 922 3314 415 
Q 2916 -91 2278 -91 
Q 1894 -91 1617 61 
Q 1341 213 1159 525 
z
M 3116 1747 
Q 3116 2381 2855 2742 
Q 2594 3103 2138 3103 
Q 1681 3103 1420 2742 
Q 1159 2381 1159 1747 
Q 1159 1113 1420 752 
Q 1681 391 2138 391 
Q 2594 391 2855 752 
Q 3116 1113 3116 1747 
z
" transform="scale(0.015625)"/>
       <path id="DejaVuSans-74" d="M 1172 4494 
L 1172 3500 
L 2356 3500 
L 2356 3053 
L 1172 3053 
L 1172 1153 
Q 1172 725 1289 603 
Q 1406 481 1766 481 
L 2356 481 
L 2356 0 
L 1766 0 
Q 1100 0 847 248 
Q 594 497 594 1153 
L 594 3053 
L 172 3053 
L 172 3500 
L 594 3500 
L 594 4494 
L 1172 4494 
z
" transform="scale(0.015625)"/>
       <path id="DejaVuSans-69" d="M 603 3500 
L 1178 3500 
L 1178 0 
L 603 0 
L 603 3500 
z
M 603 4863 
L 1178 4863 
L 1178 4134 
L 603 4134 
L 603 4863 
z
" transform="scale(0.015625)"/>
       <path id="DejaVuSans-6d" d="M 3328 2828 
Q 3544 3216 3844 3400 
Q 4144 3584 4550 3584 
Q 5097 3584 5394 3201 
Q 5691 2819 5691 2113 
L 5691 0 
L 5113 0 
L 5113 2094 
Q 5113 2597 4934 2840 
Q 4756 3084 4391 3084 
Q 3944 3084 3684 2787 
Q 3425 2491 3425 1978 
L 3425 0 
L 2847 0 
L 2847 2094 
Q 2847 2600 2669 2842 
Q 2491 3084 2119 3084 
Q 1678 3084 1418 2786 
Q 1159 2488 1159 1978 
L 1159 0 
L 581 0 
L 581 3500 
L 1159 3500 
L 1159 2956 
Q 1356 3278 1631 3431 
Q 1906 3584 2284 3584 
Q 2666 3584 2933 3390 
Q 3200 3197 3328 2828 
z
" transform="scale(0.015625)"/>
       <path id="DejaVuSans-61" d="M 2194 1759 
Q 1497 1759 1228 1600 
Q 959 1441 959 1056 
Q 959 750 1161 570 
Q 1363 391 1709 391 
Q 2188 391 2477 730 
Q 2766 1069 2766 1631 
L 2766 1759 
L 2194 1759 
z
M 3341 1997 
L 3341 0 
L 2766 0 
L 2766 531 
Q 2569 213 2275 61 
Q 1981 -91 1556 -91 
Q 1019 -91 701 211 
Q 384 513 384 1019 
Q 384 1609 779 1909 
Q 1175 2209 1959 2209 
L 2766 2209 
L 2766 2266 
Q 2766 2663 2505 2880 
Q 2244 3097 1772 3097 
Q 1472 3097 1187 3025 
Q 903 2953 641 2809 
L 641 3341 
Q 956 3463 1253 3523 
Q 1550 3584 1831 3584 
Q 2591 3584 2966 3190 
Q 3341 2797 3341 1997 
z
" transform="scale(0.015625)"/>
       <path id="DejaVuSans-6c" d="M 603 4863 
L 1178 4863 
L 1178 0 
L 603 0 
L 603 4863 
z
" transform="scale(0.015625)"/>
       <path id="DejaVuSans-20" transform="scale(0.015625)"/>
       <path id="DejaVuSans-72" d="M 2631 2963 
Q 2534 3019 2420 3045 
Q 2306 3072 2169 3072 
Q 1681 3072 1420 2755 
Q 1159 2438 1159 1844 
L 1159 0 
L 581 0 
L 581 3500 
L 1159 3500 
L 1159 2956 
Q 1341 3275 1631 3429 
Q 1922 3584 2338 3584 
Q 2397 3584 2469 3576 
Q 2541 3569 2628 3553 
L 2631 2963 
z
" transform="scale(0.015625)"/>
       <path id="DejaVuSans-65" d="M 3597 1894 
L 3597 1613 
L 953 1613 
Q 991 1019 1311 708 
Q 1631 397 2203 397 
Q 2534 397 2845 478 
Q 3156 559 3463 722 
L 3463 178 
Q 3153 47 2828 -22 
Q 2503 -91 2169 -91 
Q 1331 -91 842 396 
Q 353 884 353 1716 
Q 353 2575 817 3079 
Q 1281 3584 2069 3584 
Q 2775 3584 3186 3129 
Q 3597 2675 3597 1894 
z
M 3022 2063 
Q 3016 2534 2758 2815 
Q 2500 3097 2075 3097 
Q 1594 3097 1305 2825 
Q 1016 2553 972 2059 
L 3022 2063 
z
" transform="scale(0.015625)"/>
       <path id="DejaVuSans-76" d="M 191 3500 
L 800 3500 
L 1894 563 
L 2988 3500 
L 3597 3500 
L 2284 0 
L 1503 0 
L 191 3500 
z
" transform="scale(0.015625)"/>
       <path id="DejaVuSans-75" d="M 544 1381 
L 544 3500 
L 1119 3500 
L 1119 1403 
Q 1119 906 1312 657 
Q 1506 409 1894 409 
Q 2359 409 2629 706 
Q 2900 1003 2900 1516 
L 2900 3500 
L 3475 3500 
L 3475 0 
L 2900 0 
L 2900 538 
Q 2691 219 2414 64 
Q 2138 -91 1772 -91 
Q 1169 -91 856 284 
Q 544 659 544 1381 
z
M 1991 3584 
L 1991 3584 
z
" transform="scale(0.015625)"/>
      </defs>
      <use xlink:href="#DejaVuSans-4f"/>
      <use xlink:href="#DejaVuSans-70" transform="translate(78.710938 0)"/>
      <use xlink:href="#DejaVuSans-74" transform="translate(142.1875 0)"/>
      <use xlink:href="#DejaVuSans-69" transform="translate(181.396484 0)"/>
      <use xlink:href="#DejaVuSans-6d" transform="translate(209.179688 0)"/>
      <use xlink:href="#DejaVuSans-61" transform="translate(306.591797 0)"/>
      <use xlink:href="#DejaVuSans-6c" transform="translate(367.871094 0)"/>
      <use xlink:href="#DejaVuSans-20" transform="translate(395.654297 0)"/>
      <use xlink:href="#DejaVuSans-70" transform="translate(427.441406 0)"/>
      <use xlink:href="#DejaVuSans-61" transform="translate(490.917969 0)"/>
      <use xlink:href="#DejaVuSans-72" transform="translate(552.197266 0)"/>
      <use xlink:href="#DejaVuSans-61" transform="translate(593.310547 0)"/>
      <use xlink:href="#DejaVuSans-6d" transform="translate(654.589844 0)"/>
      <use xlink:href="#DejaVuSans-65" transform="translate(752.001953 0)"/>
      <use xlink:href="#DejaVuSans-74" transform="translate(813.525391 0)"/>
      <use xlink:href="#DejaVuSans-65" transform="translate(852.734375 0)"/>
      <use xlink:href="#DejaVuSans-72" transform="translate(914.257812 0)"/>
      <use xlink:href="#DejaVuSans-20" transform="translate(955.371094 0)"/>
      <use xlink:href="#DejaVuSans-76" transform="translate(987.158203 0)"/>
      <use xlink:href="#DejaVuSans-61" transform="translate(1046.337891 0)"/>
      <use xlink:href="#DejaVuSans-6c" transform="translate(1107.617188 0)"/>
      <use xlink:href="#DejaVuSans-75" transform="translate(1135.400391 0)"/>
      <use xlink:href="#DejaVuSans-65" transform="translate(1198.779297 0)"/>
     </g>
    </g>
   </g>
   <g id="patch_3">
    <path d="M 48.530156 220.554 
L 556.040156 220.554 
L 556.040156 201.846 
L 48.530156 201.846 
z
" clip-path="url(#p237c39e59b)" style="fill: #ff0000; opacity: 0.08; stroke: #ff0000; stroke-linejoin: miter"/>
   </g>
   <g id="patch_4">
    <path d="M 48.530156 52.182 
L 556.040156 52.182 
L 556.040156 33.474 
L 48.530156 33.474 
z
" clip-path="url(#p237c39e59b)" style="fill: #ff0000; opacity: 0.08; stroke: #ff0000; stroke-linejoin: miter"/>
   </g>
   <g id="line2d_12">
    <path d="M 71.598793 115.197132 
L 72.523387 115.29627 
L 73.447982 138.367591 
L 74.372577 111.886687 
L 75.297171 141.129821 
L 76.221766 143.615109 
L 77.14636 111.272328 
L 78.070955 146.418849 
L 78.99555 88.529102 
L 79.920144 93.732458 
L 80.844739 163.207589 
L 81.769334 197.934512 
L 82.693928 196.478485 
L 83.618523 89.560222 
L 84.543118 60.798788 
L 85.467712 65.26879 
L 86.392307 183.965519 
L 87.316902 40.550225 
L 88.241496 176.026984 
L 89.166091 181.499539 
L 90.090685 76.746097 
L 91.01528 181.567386 
L 91.939875 73.893831 
L 92.864469 54.478434 
L 93.789064 195.949294 
L 94.713659 63.579274 
L 95.638253 191.61203 
L 96.562848 59.25802 
L 97.487443 193.452116 
L 98.412037 58.84393 
L 99.336632 44.043929 
L 100.261227 178.778956 
L 101.185821 81.438383 
L 102.110416 41.051892 
L 103.035011 41.753637 
L 103.959605 63.034461 
L 104.8842 71.469522 
L 105.808794 40.040993 
L 106.733389 60.351761 
L 107.657984 185.988984 
L 108.582578 127.014 
L 109.507173 209.816223 
L 110.431768 174.266914 
L 111.356362 174.164732 
L 112.280957 33.544076 
L 113.205552 68.67196 
L 114.130146 53.548271 
L 115.054741 63.395948 
L 115.979336 70.478375 
L 116.90393 69.855322 
L 117.828525 35.352255 
L 118.753119 205.909873 
L 119.677714 33.474 
L 120.602309 218.359274 
L 121.526903 202.789826 
L 122.451498 34.073894 
L 123.376093 58.363346 
L 124.300687 213.858252 
L 125.225282 220.554 
L 126.149877 59.307849 
L 127.074471 220.554 
L 128.923661 220.554 
L 129.848255 33.474 
L 130.77285 220.554 
L 131.697444 220.553969 
L 132.622039 33.474 
L 133.546634 220.554 
L 134.471228 36.868647 
L 135.395823 220.554 
L 136.320418 218.821416 
L 137.245012 33.474 
L 138.169607 74.316276 
L 139.094202 220.554 
L 140.018796 33.474 
L 140.943391 200.097972 
L 141.867986 33.474 
L 142.79258 220.554 
L 144.641769 38.599817 
L 145.566364 199.300831 
L 146.490959 192.30769 
L 147.415553 33.802551 
L 148.340148 220.545449 
L 149.264743 220.553999 
L 150.189337 33.474 
L 151.113932 219.405861 
L 152.038527 220.553994 
L 152.963121 220.545704 
L 153.887716 33.474 
L 154.812311 220.554 
L 155.736905 33.474 
L 157.586094 33.474001 
L 158.510689 220.553999 
L 159.435284 208.440456 
L 160.359878 185.578908 
L 161.284473 127.014 
L 162.209068 33.474001 
L 163.133662 220.069604 
L 164.058257 220.554 
L 164.982852 33.474 
L 165.907446 220.554 
L 166.832041 33.474015 
L 167.756636 179.333601 
L 168.68123 69.651298 
L 169.605825 33.474 
L 170.53042 33.474 
L 171.455014 68.391177 
L 172.379609 33.474 
L 173.304203 220.554 
L 174.228798 205.032278 
L 175.153393 175.596678 
L 176.077987 178.855832 
L 177.002582 220.554 
L 178.851771 220.554 
L 179.776366 50.585063 
L 180.700961 179.772304 
L 181.625555 70.44372 
L 182.55015 33.474 
L 183.474745 78.443929 
L 184.399339 210.479515 
L 185.323934 33.474 
L 186.248528 220.554 
L 187.173123 220.554 
L 188.097718 197.864221 
L 189.022312 34.459724 
L 189.946907 33.474 
L 191.796096 33.474 
L 192.720691 127.014 
L 193.645286 181.346052 
L 194.56988 33.474002 
L 195.494475 189.320696 
L 196.41907 33.474 
L 197.343664 52.420523 
L 198.268259 77.150629 
L 199.192853 68.270156 
L 200.117448 78.396906 
L 201.042043 220.554 
L 201.966637 75.102763 
L 202.891232 33.953335 
L 203.815827 33.474 
L 204.740421 61.607801 
L 205.665016 33.474 
L 206.589611 218.755863 
L 207.514205 185.670584 
L 208.4388 193.495595 
L 209.363395 177.987451 
L 210.287989 74.585626 
L 211.212584 219.282287 
L 212.137178 39.197409 
L 213.061773 33.474 
L 213.986368 196.401031 
L 214.910962 217.113537 
L 215.835557 207.626091 
L 216.760152 187.672029 
L 217.684746 220.554 
L 218.609341 49.90194 
L 219.533936 52.666641 
L 220.45853 72.84725 
L 221.383125 127.014 
L 222.30772 220.554 
L 223.232314 220.071302 
L 224.156909 183.733246 
L 225.081503 78.260104 
L 226.006098 220.554 
L 226.930693 33.474 
L 227.855287 47.45271 
L 228.779882 49.375468 
L 229.704477 74.607736 
L 230.629071 76.595547 
L 231.553666 180.768752 
L 232.478261 220.553999 
L 233.402855 78.214085 
L 234.32745 33.474 
L 235.252045 200.681295 
L 236.176639 182.145171 
L 237.101234 44.61613 
L 238.025829 220.554 
L 238.950423 190.807275 
L 239.875018 67.448266 
L 240.799612 174.564749 
L 241.724207 33.474 
L 242.648802 33.474318 
L 243.573396 62.598356 
L 244.497991 220.476987 
L 245.422586 174.891616 
L 246.34718 33.474 
L 247.271775 220.554 
L 248.19637 33.512298 
L 249.120964 174.589911 
L 250.045559 33.474 
L 250.970154 185.112226 
L 251.894748 116.291319 
L 252.819343 60.33031 
L 253.743937 34.2232 
L 254.668532 186.690878 
L 255.593127 66.067524 
L 256.517721 184.677383 
L 257.442316 182.650243 
L 258.366911 220.554 
L 259.291505 219.163058 
L 260.2161 72.23249 
L 261.140695 220.436331 
L 262.065289 35.19237 
L 262.989884 79.845134 
L 263.914479 176.18194 
L 264.839073 220.554 
L 265.763668 60.846565 
L 266.688262 49.006015 
L 267.612857 76.437148 
L 268.537452 65.20312 
L 269.462046 72.925442 
L 270.386641 33.474 
L 271.311236 68.80631 
L 272.23583 52.090079 
L 273.160425 79.12297 
L 274.08502 79.366148 
L 275.009614 195.943591 
L 275.934209 177.841459 
L 276.858804 33.474 
L 277.783398 36.638024 
L 278.707993 175.266861 
L 279.632587 38.169639 
L 280.557182 209.955951 
L 281.481777 174.842443 
L 282.406371 210.109774 
L 283.330966 74.899513 
L 284.255561 33.474 
L 285.180155 33.474 
L 286.10475 79.653288 
L 287.029345 77.014571 
L 287.953939 69.594568 
L 288.878534 198.664814 
L 289.803129 181.864304 
L 290.727723 51.85637 
L 291.652318 33.474 
L 292.576912 56.995736 
L 293.501507 179.02321 
L 294.426102 50.209341 
L 295.350696 33.474 
L 296.275291 77.295145 
L 297.199886 220.554 
L 298.12448 127.014 
L 299.049075 127.014 
L 299.97367 75.236279 
L 300.898264 33.474 
L 301.822859 186.635812 
L 302.747454 220.554 
L 303.672048 177.426151 
L 304.596643 189.459746 
L 305.521238 78.595334 
L 306.445832 79.582609 
L 307.370427 220.374729 
L 308.295021 182.234056 
L 309.219616 127.012294 
L 310.144211 127.00198 
L 311.068805 207.503155 
L 311.9934 78.464688 
L 312.917995 70.496835 
L 313.842589 75.950312 
L 314.767184 192.265216 
L 315.691779 126.665712 
L 316.616373 176.33446 
L 317.540968 33.474 
L 318.465563 126.937355 
L 319.390157 63.254791 
L 320.314752 176.985785 
L 321.239346 127.014 
L 322.163941 126.54683 
L 323.088536 179.365741 
L 324.01313 54.331191 
L 324.937725 176.321062 
L 325.86232 220.553999 
L 326.786914 178.891147 
L 327.711509 48.494425 
L 328.636104 176.900576 
L 329.560698 77.74645 
L 330.485293 198.781989 
L 331.409888 174.228414 
L 332.334482 191.169048 
L 333.259077 190.160013 
L 334.183671 77.843709 
L 335.108266 75.277447 
L 336.032861 220.553999 
L 336.957455 127.045162 
L 337.88205 77.169869 
L 338.806645 127.014 
L 339.731239 58.999495 
L 340.655834 33.501905 
L 341.580429 127.011692 
L 342.505023 51.60343 
L 343.429618 174.312962 
L 344.354213 220.225935 
L 345.278807 127.014 
L 346.203402 182.009619 
L 347.127996 220.546782 
L 348.052591 107.094973 
L 348.977186 48.793266 
L 349.90178 220.553999 
L 350.826375 168.270844 
L 351.75097 75.356758 
L 352.675564 110.558632 
L 353.600159 204.01269 
L 354.524754 72.73942 
L 355.449348 220.554 
L 356.373943 68.707935 
L 357.298538 178.165394 
L 358.223132 176.742228 
L 359.147727 220.554 
L 360.072321 126.896414 
L 360.996916 185.9013 
L 361.921511 176.641605 
L 362.846105 208.783724 
L 363.7707 71.104672 
L 364.695295 33.474 
L 365.619889 33.474001 
L 366.544484 176.494974 
L 367.469079 78.805852 
L 368.393673 174.269524 
L 369.318268 220.554 
L 370.242863 78.105537 
L 371.167457 195.021311 
L 372.092052 63.685572 
L 373.016647 51.10703 
L 373.941241 73.811349 
L 374.865836 127.01406 
L 375.79043 127.010902 
L 376.715025 33.474001 
L 377.63962 126.163387 
L 378.564214 72.566466 
L 379.488809 127.014 
L 380.413404 74.631906 
L 381.337998 181.091586 
L 382.262593 172.876197 
L 383.187188 74.95996 
L 384.111782 60.21336 
L 385.036377 127.014 
L 385.960972 179.617077 
L 386.885566 127.040585 
L 387.810161 174.988676 
L 388.734755 129.664972 
L 389.65935 73.248427 
L 390.583945 179.743279 
L 391.508539 203.426634 
L 392.433134 33.474003 
L 393.357729 174.358044 
L 394.282323 184.457699 
L 395.206918 33.474 
L 396.131513 77.025398 
L 397.056107 178.733195 
L 397.980702 220.554 
L 398.905297 78.308189 
L 399.829891 181.081405 
L 400.754486 68.720761 
L 401.67908 70.626836 
L 402.603675 69.374165 
L 403.52827 127.018912 
L 404.452864 174.88407 
L 405.377459 40.037629 
L 406.302054 127.014 
L 407.226648 34.958995 
L 408.151243 178.494723 
L 409.075838 136.284617 
L 410.000432 126.916254 
L 410.925027 33.474 
L 411.849622 127.013998 
L 412.774216 127.014 
L 413.698811 76.091678 
L 414.623405 75.135513 
L 415.548 127.014 
L 416.472595 220.491264 
L 417.397189 183.088305 
L 418.321784 77.377033 
L 419.246379 63.627018 
L 420.170973 176.201551 
L 421.095568 127.023084 
L 422.020163 180.473755 
L 422.944757 173.258197 
L 423.869352 179.82293 
L 424.793947 68.123443 
L 425.718541 72.118696 
L 426.643136 183.948534 
L 427.56773 170.068712 
L 428.492325 218.457604 
L 429.41692 64.237693 
L 430.341514 220.554 
L 431.266109 77.008471 
L 432.190704 175.895904 
L 433.115298 127.014008 
L 434.039893 33.474001 
L 434.964488 127.013999 
L 435.889082 127.014 
L 436.813677 33.474001 
L 437.738272 33.474 
L 438.662866 127.013998 
L 439.587461 184.840151 
L 440.512056 78.112538 
L 441.43665 68.406223 
L 442.361245 33.474 
L 443.285839 177.227315 
L 444.210434 65.236479 
L 445.135029 174.888856 
L 446.059623 38.878918 
L 446.984218 33.474 
L 447.908813 194.106369 
L 448.833407 75.850398 
L 449.758002 174.947066 
L 450.682597 177.025387 
L 451.607191 174.824032 
L 452.531786 80.878249 
L 453.456381 197.286947 
L 454.380975 73.658687 
L 455.30557 71.917649 
L 456.230164 75.204523 
L 457.154759 75.944052 
L 458.079354 51.718873 
L 459.003948 76.477812 
L 459.928543 174.935272 
L 460.853138 127.01403 
L 461.777732 181.188341 
L 462.702327 177.934892 
L 463.626922 127.014001 
L 464.551516 33.474001 
L 465.476111 220.554 
L 466.400706 79.327251 
L 467.3253 126.81255 
L 468.249895 207.904456 
L 469.174489 175.281314 
L 470.099084 190.635251 
L 471.023679 33.474001 
L 471.948273 77.107176 
L 472.872868 127.162581 
L 473.797463 127.014003 
L 474.722057 176.815203 
L 475.646652 42.044436 
L 476.571247 127.014 
L 477.495841 127.014 
L 478.420436 77.601274 
L 479.345031 67.168425 
L 480.269625 181.768922 
L 481.19422 220.553999 
L 482.118814 177.596636 
L 483.043409 184.672336 
L 483.968004 180.532212 
L 484.892598 127.013224 
L 485.817193 127.310539 
L 486.741788 127.032384 
L 487.666382 195.216289 
L 488.590977 60.207198 
L 489.515572 175.463809 
L 490.440166 220.553998 
L 491.364761 220.554 
L 493.21395 44.481384 
L 494.138545 45.820197 
L 495.063139 126.979831 
L 495.987734 220.554 
L 496.912329 63.263796 
L 497.836923 175.506577 
L 498.761518 136.669926 
L 499.686113 77.156513 
L 500.610707 72.727651 
L 502.459897 178.61514 
L 503.384491 126.840181 
L 504.309086 177.104217 
L 505.233681 176.473264 
L 506.158275 61.875913 
L 507.08287 77.811531 
L 508.007465 220.553999 
L 508.932059 78.077416 
L 509.856654 33.474001 
L 510.781248 33.474002 
L 511.705843 128.070573 
L 512.630438 127.014 
L 513.555032 126.999198 
L 514.479627 175.669799 
L 515.404222 74.165648 
L 516.328816 77.628066 
L 517.253411 79.373806 
L 518.178006 78.71069 
L 520.027195 179.773775 
L 520.95179 127.240186 
L 521.876384 127.005096 
L 522.800979 78.407085 
L 523.725573 127.018987 
L 524.650168 33.474 
L 525.574763 174.706908 
L 526.499357 178.290325 
L 527.423952 75.01984 
L 528.348547 183.812102 
L 529.273141 173.552011 
L 530.197736 127.014 
L 532.046925 127.745523 
L 532.97152 194.94128 
L 532.97152 194.94128 
" clip-path="url(#p237c39e59b)" style="fill: none; stroke: #c44e52; stroke-width: 1.8; stroke-linecap: round"/>
    <defs>
     <path id="m26fdf881c0" d="M -0 2.828427 
L 2.828427 0 
L 0 -2.828427 
L -2.828427 -0 
z
" style="stroke: #c44e52; stroke-linejoin: miter"/>
    </defs>
    <g clip-path="url(#p237c39e59b)">
     <use xlink:href="#m26fdf881c0" x="71.598793" y="115.197132" style="fill: #c44e52; stroke: #c44e52; stroke-linejoin: miter"/>
     <use xlink:href="#m26fdf881c0" x="86.392307" y="183.965519" style="fill: #c44e52; stroke: #c44e52; stroke-linejoin: miter"/>
     <use xlink:href="#m26fdf881c0" x="101.185821" y="81.438383" style="fill: #c44e52; stroke: #c44e52; stroke-linejoin: miter"/>
     <use xlink:href="#m26fdf881c0" x="115.979336" y="70.478375" style="fill: #c44e52; stroke: #c44e52; stroke-linejoin: miter"/>
     <use xlink:href="#m26fdf881c0" x="130.77285" y="220.554" style="fill: #c44e52; stroke: #c44e52; stroke-linejoin: miter"/>
     <use xlink:href="#m26fdf881c0" x="145.566364" y="199.300831" style="fill: #c44e52; stroke: #c44e52; stroke-linejoin: miter"/>
     <use xlink:href="#m26fdf881c0" x="160.359878" y="185.578908" style="fill: #c44e52; stroke: #c44e52; stroke-linejoin: miter"/>
     <use xlink:href="#m26fdf881c0" x="175.153393" y="175.596678" style="fill: #c44e52; stroke: #c44e52; stroke-linejoin: miter"/>
     <use xlink:href="#m26fdf881c0" x="189.946907" y="33.474" style="fill: #c44e52; stroke: #c44e52; stroke-linejoin: miter"/>
     <use xlink:href="#m26fdf881c0" x="204.740421" y="61.607801" style="fill: #c44e52; stroke: #c44e52; stroke-linejoin: miter"/>
     <use xlink:href="#m26fdf881c0" x="219.533936" y="52.666641" style="fill: #c44e52; stroke: #c44e52; stroke-linejoin: miter"/>
     <use xlink:href="#m26fdf881c0" x="234.32745" y="33.474" style="fill: #c44e52; stroke: #c44e52; stroke-linejoin: miter"/>
     <use xlink:href="#m26fdf881c0" x="249.120964" y="174.589911" style="fill: #c44e52; stroke: #c44e52; stroke-linejoin: miter"/>
     <use xlink:href="#m26fdf881c0" x="263.914479" y="176.18194" style="fill: #c44e52; stroke: #c44e52; stroke-linejoin: miter"/>
     <use xlink:href="#m26fdf881c0" x="278.707993" y="175.266861" style="fill: #c44e52; stroke: #c44e52; stroke-linejoin: miter"/>
     <use xlink:href="#m26fdf881c0" x="293.501507" y="179.02321" style="fill: #c44e52; stroke: #c44e52; stroke-linejoin: miter"/>
     <use xlink:href="#m26fdf881c0" x="308.295021" y="182.234056" style="fill: #c44e52; stroke: #c44e52; stroke-linejoin: miter"/>
     <use xlink:href="#m26fdf881c0" x="323.088536" y="179.365741" style="fill: #c44e52; stroke: #c44e52; stroke-linejoin: miter"/>
     <use xlink:href="#m26fdf881c0" x="337.88205" y="77.169869" style="fill: #c44e52; stroke: #c44e52; stroke-linejoin: miter"/>
     <use xlink:href="#m26fdf881c0" x="352.675564" y="110.558632" style="fill: #c44e52; stroke: #c44e52; stroke-linejoin: miter"/>
     <use xlink:href="#m26fdf881c0" x="367.469079" y="78.805852" style="fill: #c44e52; stroke: #c44e52; stroke-linejoin: miter"/>
     <use xlink:href="#m26fdf881c0" x="382.262593" y="172.876197" style="fill: #c44e52; stroke: #c44e52; stroke-linejoin: miter"/>
     <use xlink:href="#m26fdf881c0" x="397.056107" y="178.733195" style="fill: #c44e52; stroke: #c44e52; stroke-linejoin: miter"/>
     <use xlink:href="#m26fdf881c0" x="411.849622" y="127.013998" style="fill: #c44e52; stroke: #c44e52; stroke-linejoin: miter"/>
     <use xlink:href="#m26fdf881c0" x="426.643136" y="183.948534" style="fill: #c44e52; stroke: #c44e52; stroke-linejoin: miter"/>
     <use xlink:href="#m26fdf881c0" x="441.43665" y="68.406223" style="fill: #c44e52; stroke: #c44e52; stroke-linejoin: miter"/>
     <use xlink:href="#m26fdf881c0" x="456.230164" y="75.204523" style="fill: #c44e52; stroke: #c44e52; stroke-linejoin: miter"/>
     <use xlink:href="#m26fdf881c0" x="471.023679" y="33.474001" style="fill: #c44e52; stroke: #c44e52; stroke-linejoin: miter"/>
     <use xlink:href="#m26fdf881c0" x="485.817193" y="127.310539" style="fill: #c44e52; stroke: #c44e52; stroke-linejoin: miter"/>
     <use xlink:href="#m26fdf881c0" x="500.610707" y="72.727651" style="fill: #c44e52; stroke: #c44e52; stroke-linejoin: miter"/>
     <use xlink:href="#m26fdf881c0" x="515.404222" y="74.165648" style="fill: #c44e52; stroke: #c44e52; stroke-linejoin: miter"/>
     <use xlink:href="#m26fdf881c0" x="530.197736" y="127.014" style="fill: #c44e52; stroke: #c44e52; stroke-linejoin: miter"/>
    </g>
   </g>
   <g id="line2d_13">
    <path d="M 48.530156 220.554 
L 556.040156 220.554 
" clip-path="url(#p237c39e59b)" style="fill: none; stroke-dasharray: 1,1.65; stroke-dashoffset: 0; stroke: #808080; stroke-opacity: 0.5"/>
   </g>
   <g id="line2d_14">
    <path d="M 48.530156 33.474 
L 556.040156 33.474 
" clip-path="url(#p237c39e59b)" style="fill: none; stroke-dasharray: 1,1.65; stroke-dashoffset: 0; stroke: #808080; stroke-opacity: 0.5"/>
   </g>
   <g id="patch_5">
    <path d="M 48.530156 229.908 
L 48.530156 24.12 
" style="fill: none; stroke: #cccccc; stroke-width: 1.25; stroke-linejoin: miter; stroke-linecap: square"/>
   </g>
   <g id="patch_6">
    <path d="M 556.040156 229.908 
L 556.040156 24.12 
" style="fill: none; stroke: #cccccc; stroke-width: 1.25; stroke-linejoin: miter; stroke-linecap: square"/>
   </g>
   <g id="patch_7">
    <path d="M 48.530156 229.908 
L 556.040156 229.908 
" style="fill: none; stroke: #cccccc; stroke-width: 1.25; stroke-linejoin: miter; stroke-linecap: square"/>
   </g>
   <g id="patch_8">
    <path d="M 48.530156 24.12 
L 556.040156 24.12 
" style="fill: none; stroke: #cccccc; stroke-width: 1.25; stroke-linejoin: miter; stroke-linecap: square"/>
   </g>
   <g id="text_14">
    <!-- Scenario B: Optimal $a_{zz}^*$ vs $\omega$  (121/500 bound-saturated) -->
    <g style="fill: #262626" transform="translate(131.465156 18.12) scale(0.12 -0.12)">
     <defs>
      <path id="DejaVuSans-53" d="M 3425 4513 
L 3425 3897 
Q 3066 4069 2747 4153 
Q 2428 4238 2131 4238 
Q 1616 4238 1336 4038 
Q 1056 3838 1056 3469 
Q 1056 3159 1242 3001 
Q 1428 2844 1947 2747 
L 2328 2669 
Q 3034 2534 3370 2195 
Q 3706 1856 3706 1288 
Q 3706 609 3251 259 
Q 2797 -91 1919 -91 
Q 1588 -91 1214 -16 
Q 841 59 441 206 
L 441 856 
Q 825 641 1194 531 
Q 1563 422 1919 422 
Q 2459 422 2753 634 
Q 3047 847 3047 1241 
Q 3047 1584 2836 1778 
Q 2625 1972 2144 2069 
L 1759 2144 
Q 1053 2284 737 2584 
Q 422 2884 422 3419 
Q 422 4038 858 4394 
Q 1294 4750 2059 4750 
Q 2388 4750 2728 4690 
Q 3069 4631 3425 4513 
z
" transform="scale(0.015625)"/>
      <path id="DejaVuSans-63" d="M 3122 3366 
L 3122 2828 
Q 2878 2963 2633 3030 
Q 2388 3097 2138 3097 
Q 1578 3097 1268 2742 
Q 959 2388 959 1747 
Q 959 1106 1268 751 
Q 1578 397 2138 397 
Q 2388 397 2633 464 
Q 2878 531 3122 666 
L 3122 134 
Q 2881 22 2623 -34 
Q 2366 -91 2075 -91 
Q 1284 -91 818 406 
Q 353 903 353 1747 
Q 353 2603 823 3093 
Q 1294 3584 2113 3584 
Q 2378 3584 2631 3529 
Q 2884 3475 3122 3366 
z
" transform="scale(0.015625)"/>
      <path id="DejaVuSans-6e" d="M 3513 2113 
L 3513 0 
L 2938 0 
L 2938 2094 
Q 2938 2591 2744 2837 
Q 2550 3084 2163 3084 
Q 1697 3084 1428 2787 
Q 1159 2491 1159 1978 
L 1159 0 
L 581 0 
L 581 3500 
L 1159 3500 
L 1159 2956 
Q 1366 3272 1645 3428 
Q 1925 3584 2291 3584 
Q 2894 3584 3203 3211 
Q 3513 2838 3513 2113 
z
" transform="scale(0.015625)"/>
      <path id="DejaVuSans-6f" d="M 1959 3097 
Q 1497 3097 1228 2736 
Q 959 2375 959 1747 
Q 959 1119 1226 758 
Q 1494 397 1959 397 
Q 2419 397 2687 759 
Q 2956 1122 2956 1747 
Q 2956 2369 2687 2733 
Q 2419 3097 1959 3097 
z
M 1959 3584 
Q 2709 3584 3137 3096 
Q 3566 2609 3566 1747 
Q 3566 888 3137 398 
Q 2709 -91 1959 -91 
Q 1206 -91 779 398 
Q 353 888 353 1747 
Q 353 2609 779 3096 
Q 1206 3584 1959 3584 
z
" transform="scale(0.015625)"/>
      <path id="DejaVuSans-42" d="M 1259 2228 
L 1259 519 
L 2272 519 
Q 2781 519 3026 730 
Q 3272 941 3272 1375 
Q 3272 1813 3026 2020 
Q 2781 2228 2272 2228 
L 1259 2228 
z
M 1259 4147 
L 1259 2741 
L 2194 2741 
Q 2656 2741 2882 2914 
Q 3109 3088 3109 3444 
Q 3109 3797 2882 3972 
Q 2656 4147 2194 4147 
L 1259 4147 
z
M 628 4666 
L 2241 4666 
Q 2963 4666 3353 4366 
Q 3744 4066 3744 3513 
Q 3744 3084 3544 2831 
Q 3344 2578 2956 2516 
Q 3422 2416 3680 2098 
Q 3938 1781 3938 1306 
Q 3938 681 3513 340 
Q 3088 0 2303 0 
L 628 0 
L 628 4666 
z
" transform="scale(0.015625)"/>
      <path id="DejaVuSans-3a" d="M 750 794 
L 1409 794 
L 1409 0 
L 750 0 
L 750 794 
z
M 750 3309 
L 1409 3309 
L 1409 2516 
L 750 2516 
L 750 3309 
z
" transform="scale(0.015625)"/>
      <path id="DejaVuSans-Oblique-61" d="M 3438 1997 
L 3047 0 
L 2472 0 
L 2578 531 
Q 2325 219 2001 64 
Q 1678 -91 1281 -91 
Q 834 -91 548 182 
Q 263 456 263 884 
Q 263 1497 752 1853 
Q 1241 2209 2100 2209 
L 2900 2209 
L 2931 2363 
Q 2938 2388 2941 2417 
Q 2944 2447 2944 2509 
Q 2944 2788 2717 2942 
Q 2491 3097 2081 3097 
Q 1800 3097 1504 3025 
Q 1209 2953 897 2809 
L 997 3341 
Q 1322 3463 1633 3523 
Q 1944 3584 2234 3584 
Q 2853 3584 3176 3315 
Q 3500 3047 3500 2534 
Q 3500 2431 3484 2292 
Q 3469 2153 3438 1997 
z
M 2816 1759 
L 2241 1759 
Q 1534 1759 1195 1570 
Q 856 1381 856 984 
Q 856 709 1029 553 
Q 1203 397 1509 397 
Q 1978 397 2328 733 
Q 2678 1069 2791 1631 
L 2816 1759 
z
" transform="scale(0.015625)"/>
      <path id="DejaVuSans-2a" d="M 3009 3897 
L 1888 3291 
L 3009 2681 
L 2828 2375 
L 1778 3009 
L 1778 1831 
L 1422 1831 
L 1422 3009 
L 372 2375 
L 191 2681 
L 1313 3291 
L 191 3897 
L 372 4206 
L 1422 3572 
L 1422 4750 
L 1778 4750 
L 1778 3572 
L 2828 4206 
L 3009 3897 
z
" transform="scale(0.015625)"/>
      <path id="DejaVuSans-Oblique-7a" d="M 744 3500 
L 3475 3500 
L 3372 2975 
L 738 459 
L 2913 459 
L 2822 0 
L -19 0 
L 84 525 
L 2719 3041 
L 653 3041 
L 744 3500 
z
" transform="scale(0.015625)"/>
      <path id="DejaVuSans-73" d="M 2834 3397 
L 2834 2853 
Q 2591 2978 2328 3040 
Q 2066 3103 1784 3103 
Q 1356 3103 1142 2972 
Q 928 2841 928 2578 
Q 928 2378 1081 2264 
Q 1234 2150 1697 2047 
L 1894 2003 
Q 2506 1872 2764 1633 
Q 3022 1394 3022 966 
Q 3022 478 2636 193 
Q 2250 -91 1575 -91 
Q 1294 -91 989 -36 
Q 684 19 347 128 
L 347 722 
Q 666 556 975 473 
Q 1284 391 1588 391 
Q 1994 391 2212 530 
Q 2431 669 2431 922 
Q 2431 1156 2273 1281 
Q 2116 1406 1581 1522 
L 1381 1569 
Q 847 1681 609 1914 
Q 372 2147 372 2553 
Q 372 3047 722 3315 
Q 1072 3584 1716 3584 
Q 2034 3584 2315 3537 
Q 2597 3491 2834 3397 
z
" transform="scale(0.015625)"/>
      <path id="DejaVuSans-28" d="M 1984 4856 
Q 1566 4138 1362 3434 
Q 1159 2731 1159 2009 
Q 1159 1288 1364 580 
Q 1569 -128 1984 -844 
L 1484 -844 
Q 1016 -109 783 600 
Q 550 1309 550 2009 
Q 550 2706 781 3412 
Q 1013 4119 1484 4856 
L 1984 4856 
z
" transform="scale(0.015625)"/>
      <path id="DejaVuSans-2f" d="M 1625 4666 
L 2156 4666 
L 531 -594 
L 0 -594 
L 1625 4666 
z
" transform="scale(0.015625)"/>
      <path id="DejaVuSans-62" d="M 3116 1747 
Q 3116 2381 2855 2742 
Q 2594 3103 2138 3103 
Q 1681 3103 1420 2742 
Q 1159 2381 1159 1747 
Q 1159 1113 1420 752 
Q 1681 391 2138 391 
Q 2594 391 2855 752 
Q 3116 1113 3116 1747 
z
M 1159 2969 
Q 1341 3281 1617 3432 
Q 1894 3584 2278 3584 
Q 2916 3584 3314 3078 
Q 3713 2572 3713 1747 
Q 3713 922 3314 415 
Q 2916 -91 2278 -91 
Q 1894 -91 1617 61 
Q 1341 213 1159 525 
L 1159 0 
L 581 0 
L 581 4863 
L 1159 4863 
L 1159 2969 
z
" transform="scale(0.015625)"/>
      <path id="DejaVuSans-64" d="M 2906 2969 
L 2906 4863 
L 3481 4863 
L 3481 0 
L 2906 0 
L 2906 525 
Q 2725 213 2448 61 
Q 2172 -91 1784 -91 
Q 1150 -91 751 415 
Q 353 922 353 1747 
Q 353 2572 751 3078 
Q 1150 3584 1784 3584 
Q 2172 3584 2448 3432 
Q 2725 3281 2906 2969 
z
M 947 1747 
Q 947 1113 1208 752 
Q 1469 391 1925 391 
Q 2381 391 2643 752 
Q 2906 1113 2906 1747 
Q 2906 2381 2643 2742 
Q 2381 3103 1925 3103 
Q 1469 3103 1208 2742 
Q 947 2381 947 1747 
z
" transform="scale(0.015625)"/>
      <path id="DejaVuSans-2d" d="M 313 2009 
L 1997 2009 
L 1997 1497 
L 313 1497 
L 313 2009 
z
" transform="scale(0.015625)"/>
      <path id="DejaVuSans-29" d="M 513 4856 
L 1013 4856 
Q 1481 4119 1714 3412 
Q 1947 2706 1947 2009 
Q 1947 1309 1714 600 
Q 1481 -109 1013 -844 
L 513 -844 
Q 928 -128 1133 580 
Q 1338 1288 1338 2009 
Q 1338 2731 1133 3434 
Q 928 4138 513 4856 
z
" transform="scale(0.015625)"/>
     </defs>
     <use xlink:href="#DejaVuSans-53" transform="translate(0 0.765625)"/>
     <use xlink:href="#DejaVuSans-63" transform="translate(63.476562 0.765625)"/>
     <use xlink:href="#DejaVuSans-65" transform="translate(118.457031 0.765625)"/>
     <use xlink:href="#DejaVuSans-6e" transform="translate(179.980469 0.765625)"/>
     <use xlink:href="#DejaVuSans-61" transform="translate(243.359375 0.765625)"/>
     <use xlink:href="#DejaVuSans-72" transform="translate(304.638672 0.765625)"/>
     <use xlink:href="#DejaVuSans-69" transform="translate(345.751953 0.765625)"/>
     <use xlink:href="#DejaVuSans-6f" transform="translate(373.535156 0.765625)"/>
     <use xlink:href="#DejaVuSans-20" transform="translate(434.716797 0.765625)"/>
     <use xlink:href="#DejaVuSans-42" transform="translate(466.503906 0.765625)"/>
     <use xlink:href="#DejaVuSans-3a" transform="translate(535.107422 0.765625)"/>
     <use xlink:href="#DejaVuSans-20" transform="translate(568.798828 0.765625)"/>
     <use xlink:href="#DejaVuSans-4f" transform="translate(600.585938 0.765625)"/>
     <use xlink:href="#DejaVuSans-70" transform="translate(679.296875 0.765625)"/>
     <use xlink:href="#DejaVuSans-74" transform="translate(742.773438 0.765625)"/>
     <use xlink:href="#DejaVuSans-69" transform="translate(781.982422 0.765625)"/>
     <use xlink:href="#DejaVuSans-6d" transform="translate(809.765625 0.765625)"/>
     <use xlink:href="#DejaVuSans-61" transform="translate(907.177734 0.765625)"/>
     <use xlink:href="#DejaVuSans-6c" transform="translate(968.457031 0.765625)"/>
     <use xlink:href="#DejaVuSans-20" transform="translate(996.240234 0.765625)"/>
     <use xlink:href="#DejaVuSans-Oblique-61" transform="translate(1028.027344 0.765625)"/>
     <use xlink:href="#DejaVuSans-2a" transform="translate(1107.594232 39.046875) scale(0.7)"/>
     <use xlink:href="#DejaVuSans-Oblique-7a" transform="translate(1089.306641 -26.578125) scale(0.7)"/>
     <use xlink:href="#DejaVuSans-Oblique-7a" transform="translate(1126.049805 -26.578125) scale(0.7)"/>
     <use xlink:href="#DejaVuSans-20" transform="translate(1165.527344 0.765625)"/>
     <use xlink:href="#DejaVuSans-76" transform="translate(1197.314453 0.765625)"/>
     <use xlink:href="#DejaVuSans-73" transform="translate(1256.494141 0.765625)"/>
     <use xlink:href="#DejaVuSans-20" transform="translate(1308.59375 0.765625)"/>
     <use xlink:href="#DejaVuSans-Oblique-3c9" transform="translate(1340.380859 0.765625)"/>
     <use xlink:href="#DejaVuSans-20" transform="translate(1424.121094 0.765625)"/>
     <use xlink:href="#DejaVuSans-20" transform="translate(1455.908203 0.765625)"/>
     <use xlink:href="#DejaVuSans-28" transform="translate(1487.695312 0.765625)"/>
     <use xlink:href="#DejaVuSans-31" transform="translate(1526.708984 0.765625)"/>
     <use xlink:href="#DejaVuSans-32" transform="translate(1590.332031 0.765625)"/>
     <use xlink:href="#DejaVuSans-31" transform="translate(1653.955078 0.765625)"/>
     <use xlink:href="#DejaVuSans-2f" transform="translate(1717.578125 0.765625)"/>
     <use xlink:href="#DejaVuSans-35" transform="translate(1751.269531 0.765625)"/>
     <use xlink:href="#DejaVuSans-30" transform="translate(1814.892578 0.765625)"/>
     <use xlink:href="#DejaVuSans-30" transform="translate(1878.515625 0.765625)"/>
     <use xlink:href="#DejaVuSans-20" transform="translate(1942.138672 0.765625)"/>
     <use xlink:href="#DejaVuSans-62" transform="translate(1973.925781 0.765625)"/>
     <use xlink:href="#DejaVuSans-6f" transform="translate(2037.402344 0.765625)"/>
     <use xlink:href="#DejaVuSans-75" transform="translate(2098.583984 0.765625)"/>
     <use xlink:href="#DejaVuSans-6e" transform="translate(2161.962891 0.765625)"/>
     <use xlink:href="#DejaVuSans-64" transform="translate(2225.341797 0.765625)"/>
     <use xlink:href="#DejaVuSans-2d" transform="translate(2288.818359 0.765625)"/>
     <use xlink:href="#DejaVuSans-73" transform="translate(2324.902344 0.765625)"/>
     <use xlink:href="#DejaVuSans-61" transform="translate(2377.001953 0.765625)"/>
     <use xlink:href="#DejaVuSans-74" transform="translate(2438.28125 0.765625)"/>
     <use xlink:href="#DejaVuSans-75" transform="translate(2477.490234 0.765625)"/>
     <use xlink:href="#DejaVuSans-72" transform="translate(2540.869141 0.765625)"/>
     <use xlink:href="#DejaVuSans-61" transform="translate(2581.982422 0.765625)"/>
     <use xlink:href="#DejaVuSans-74" transform="translate(2643.261719 0.765625)"/>
     <use xlink:href="#DejaVuSans-65" transform="translate(2682.470703 0.765625)"/>
     <use xlink:href="#DejaVuSans-64" transform="translate(2743.994141 0.765625)"/>
     <use xlink:href="#DejaVuSans-29" transform="translate(2807.470703 0.765625)"/>
    </g>
   </g>
   <g id="legend_1">
    <g id="patch_9">
     <path d="M 54.830156 149.179313 
L 134.668594 149.179313 
Q 136.468594 149.179313 136.468594 147.379313 
L 136.468594 106.648688 
Q 136.468594 104.848688 134.668594 104.848688 
L 54.830156 104.848688 
Q 53.030156 104.848688 53.030156 106.648688 
L 53.030156 147.379313 
Q 53.030156 149.179313 54.830156 149.179313 
z
" style="fill: #ffffff; opacity: 0.8; stroke: #cccccc; stroke-linejoin: miter"/>
    </g>
    <g id="line2d_15">
     <path d="M 56.630156 113.488688 
L 65.630156 113.488688 
L 74.630156 113.488688 
" style="fill: none; stroke: #c44e52; stroke-width: 1.8; stroke-linecap: round"/>
     <g>
      <use xlink:href="#m26fdf881c0" x="65.630156" y="113.488688" style="fill: #c44e52; stroke: #c44e52; stroke-linejoin: miter"/>
     </g>
    </g>
    <g id="text_15">
     <!-- $a_{zz}^*$ -->
     <g style="fill: #262626" transform="translate(81.830156 116.638688) scale(0.09 -0.09)">
      <use xlink:href="#DejaVuSans-Oblique-61" transform="translate(0 0.765625)"/>
      <use xlink:href="#DejaVuSans-2a" transform="translate(79.566888 39.046875) scale(0.7)"/>
      <use xlink:href="#DejaVuSans-Oblique-7a" transform="translate(61.279297 -26.578125) scale(0.7)"/>
      <use xlink:href="#DejaVuSans-Oblique-7a" transform="translate(98.022461 -26.578125) scale(0.7)"/>
     </g>
    </g>
    <g id="line2d_16">
     <path d="M 56.630156 127.347281 
L 65.630156 127.347281 
L 74.630156 127.347281 
" style="fill: none; stroke-dasharray: 1,1.65; stroke-dashoffset: 0; stroke: #808080; stroke-opacity: 0.5"/>
    </g>
    <g id="text_16">
     <!-- Bound = -5 -->
     <g style="fill: #262626" transform="translate(81.830156 130.497281) scale(0.09 -0.09)">
      <defs>
       <path id="DejaVuSans-3d" d="M 678 2906 
L 4684 2906 
L 4684 2381 
L 678 2381 
L 678 2906 
z
M 678 1631 
L 4684 1631 
L 4684 1100 
L 678 1100 
L 678 1631 
z
" transform="scale(0.015625)"/>
      </defs>
      <use xlink:href="#DejaVuSans-42"/>
      <use xlink:href="#DejaVuSans-6f" transform="translate(68.603516 0)"/>
      <use xlink:href="#DejaVuSans-75" transform="translate(129.785156 0)"/>
      <use xlink:href="#DejaVuSans-6e" transform="translate(193.164062 0)"/>
      <use xlink:href="#DejaVuSans-64" transform="translate(256.542969 0)"/>
      <use xlink:href="#DejaVuSans-20" transform="translate(320.019531 0)"/>
      <use xlink:href="#DejaVuSans-3d" transform="translate(351.806641 0)"/>
      <use xlink:href="#DejaVuSans-20" transform="translate(435.595703 0)"/>
      <use xlink:href="#DejaVuSans-2d" transform="translate(467.382812 0)"/>
      <use xlink:href="#DejaVuSans-35" transform="translate(503.466797 0)"/>
     </g>
    </g>
    <g id="line2d_17">
     <path d="M 56.630156 140.557594 
L 65.630156 140.557594 
L 74.630156 140.557594 
" style="fill: none; stroke-dasharray: 1,1.65; stroke-dashoffset: 0; stroke: #808080; stroke-opacity: 0.5"/>
    </g>
    <g id="text_17">
     <!-- Bound = 5 -->
     <g style="fill: #262626" transform="translate(81.830156 143.707594) scale(0.09 -0.09)">
      <use xlink:href="#DejaVuSans-42"/>
      <use xlink:href="#DejaVuSans-6f" transform="translate(68.603516 0)"/>
      <use xlink:href="#DejaVuSans-75" transform="translate(129.785156 0)"/>
      <use xlink:href="#DejaVuSans-6e" transform="translate(193.164062 0)"/>
      <use xlink:href="#DejaVuSans-64" transform="translate(256.542969 0)"/>
      <use xlink:href="#DejaVuSans-20" transform="translate(320.019531 0)"/>
      <use xlink:href="#DejaVuSans-3d" transform="translate(351.806641 0)"/>
      <use xlink:href="#DejaVuSans-20" transform="translate(435.595703 0)"/>
      <use xlink:href="#DejaVuSans-35" transform="translate(467.382812 0)"/>
     </g>
    </g>
   </g>
  </g>
 </g>
 <defs>
  <clipPath id="p237c39e59b">
   <rect x="48.530156" y="24.12" width="507.51" height="205.788"/>
  </clipPath>
 </defs>
</svg>
