<?xml version="1.0" encoding="utf-8" standalone="no"?>
<!DOCTYPE svg PUBLIC "-//W3C//DTD SVG 1.1//EN"
  "http://www.w3.org/Graphics/SVG/1.1/DTD/svg11.dtd">
<svg xmlns:xlink="http://www.w3.org/1999/xlink" width="563.240156pt" height="272.867688pt" viewBox="0 0 563.240156 272.867688" xmlns="http://www.w3.org/2000/svg" version="1.1">
 <metadata>
  <rdf:RDF xmlns:dc="http://purl.org/dc/elements/1.1/" xmlns:cc="http://creativecommons.org/ns#" xmlns:rdf="http://www.w3.org/1999/02/22-rdf-syntax-ns#">
   <cc:Work>
    <dc:type rdf:resource="http://purl.org/dc/dcmitype/StillImage"/>
    <dc:date>2026-07-11T00:18:57.938714</dc:date>
    <dc:format>image/svg+xml</dc:format>
    <dc:creator>
     <cc:Agent>
      <dc:title>Matplotlib v3.10.9, https://matplotlib.org/</dc:title>
     </cc:Agent>
    </dc:creator>
   </cc:Work>
  </rdf:RDF>
 </metadata>
 <defs>
  <style type="text/css">*{stroke-linejoin: round; stroke-linecap: butt}</style>
 </defs>
 <g id="figure_1">
  <g id="patch_1">
   <path d="M 0 272.867688 
L 563.240156 272.867688 
L 563.240156 0 
L 0 0 
z
" style="fill: #ffffff"/>
  </g>
  <g id="axes_1">
   <g id="patch_2">
    <path d="M 48.530156 229.908 
L 556.040156 229.908 
L 556.040156 24.12 
L 48.530156 24.12 
z
" style="fill: #ffffff"/>
   </g>
   <g id="matplotlib.axis_1">
    <g id="xtick_1">
     <g id="line2d_1">
      <path d="M 70.674198 229.908 
L 70.674198 24.12 
" clip-path="url(#p01b1444095)" style="fill: none; stroke: #cccccc; stroke-linecap: round"/>
     </g>
     <g id="text_1">
      <!-- 0 -->
      <g style="fill: #262626" transform="translate(67.174823 247.766281) scale(0.11 -0.11)">
       <defs>
        <path id="DejaVuSans-30" d="M 2034 4250 
Q 1547 4250 1301 3770 
Q 1056 3291 1056 2328 
Q 1056 1369 1301 889 
Q 1547 409 2034 409 
Q 2525 409 2770 889 
Q 3016 1369 3016 2328 
Q 3016 3291 2770 3770 
Q 2525 4250 2034 4250 
z
M 2034 4750 
Q 2819 4750 3233 4129 
Q 3647 3509 3647 2328 
Q 3647 1150 3233 529 
Q 2819 -91 2034 -91 
Q 1250 -91 836 529 
Q 422 1150 422 2328 
Q 422 3509 836 4129 
Q 1250 4750 2034 4750 
z
" transform="scale(0.015625)"/>
       </defs>
       <use xlink:href="#DejaVuSans-30"/>
      </g>
     </g>
    </g>
    <g id="xtick_2">
     <g id="line2d_2">
      <path d="M 163.133662 229.908 
L 163.133662 24.12 
" clip-path="url(#p01b1444095)" style="fill: none; stroke: #cccccc; stroke-linecap: round"/>
     </g>
     <g id="text_2">
      <!-- 1 -->
      <g style="fill: #262626" transform="translate(159.634287 247.766281) scale(0.11 -0.11)">
       <defs>
        <path id="DejaVuSans-31" d="M 794 531 
L 1825 531 
L 1825 4091 
L 703 3866 
L 703 4441 
L 1819 4666 
L 2450 4666 
L 2450 531 
L 3481 531 
L 3481 0 
L 794 0 
L 794 531 
z
" transform="scale(0.015625)"/>
       </defs>
       <use xlink:href="#DejaVuSans-31"/>
      </g>
     </g>
    </g>
    <g id="xtick_3">
     <g id="line2d_3">
      <path d="M 255.593127 229.908 
L 255.593127 24.12 
" clip-path="url(#p01b1444095)" style="fill: none; stroke: #cccccc; stroke-linecap: round"/>
     </g>
     <g id="text_3">
      <!-- 2 -->
      <g style="fill: #262626" transform="translate(252.093752 247.766281) scale(0.11 -0.11)">
       <defs>
        <path id="DejaVuSans-32" d="M 1228 531 
L 3431 531 
L 3431 0 
L 469 0 
L 469 531 
Q 828 903 1448 1529 
Q 2069 2156 2228 2338 
Q 2531 2678 2651 2914 
Q 2772 3150 2772 3378 
Q 2772 3750 2511 3984 
Q 2250 4219 1831 4219 
Q 1534 4219 1204 4116 
Q 875 4013 500 3803 
L 500 4441 
Q 881 4594 1212 4672 
Q 1544 4750 1819 4750 
Q 2544 4750 2975 4387 
Q 3406 4025 3406 3419 
Q 3406 3131 3298 2873 
Q 3191 2616 2906 2266 
Q 2828 2175 2409 1742 
Q 1991 1309 1228 531 
z
" transform="scale(0.015625)"/>
       </defs>
       <use xlink:href="#DejaVuSans-32"/>
      </g>
     </g>
    </g>
    <g id="xtick_4">
     <g id="line2d_4">
      <path d="M 348.052591 229.908 
L 348.052591 24.12 
" clip-path="url(#p01b1444095)" style="fill: none; stroke: #cccccc; stroke-linecap: round"/>
     </g>
     <g id="text_4">
      <!-- 3 -->
      <g style="fill: #262626" transform="translate(344.553216 247.766281) scale(0.11 -0.11)">
       <defs>
        <path id="DejaVuSans-33" d="M 2597 2516 
Q 3050 2419 3304 2112 
Q 3559 1806 3559 1356 
Q 3559 666 3084 287 
Q 2609 -91 1734 -91 
Q 1441 -91 1130 -33 
Q 819 25 488 141 
L 488 750 
Q 750 597 1062 519 
Q 1375 441 1716 441 
Q 2309 441 2620 675 
Q 2931 909 2931 1356 
Q 2931 1769 2642 2001 
Q 2353 2234 1838 2234 
L 1294 2234 
L 1294 2753 
L 1863 2753 
Q 2328 2753 2575 2939 
Q 2822 3125 2822 3475 
Q 2822 3834 2567 4026 
Q 2313 4219 1838 4219 
Q 1578 4219 1281 4162 
Q 984 4106 628 3988 
L 628 4550 
Q 988 4650 1302 4700 
Q 1616 4750 1894 4750 
Q 2613 4750 3031 4423 
Q 3450 4097 3450 3541 
Q 3450 3153 3228 2886 
Q 3006 2619 2597 2516 
z
" transform="scale(0.015625)"/>
       </defs>
       <use xlink:href="#DejaVuSans-33"/>
      </g>
     </g>
    </g>
    <g id="xtick_5">
     <g id="line2d_5">
      <path d="M 440.512056 229.908 
L 440.512056 24.12 
" clip-path="url(#p01b1444095)" style="fill: none; stroke: #cccccc; stroke-linecap: round"/>
     </g>
     <g id="text_5">
      <!-- 4 -->
      <g style="fill: #262626" transform="translate(437.012681 247.766281) scale(0.11 -0.11)">
       <defs>
        <path id="DejaVuSans-34" d="M 2419 4116 
L 825 1625 
L 2419 1625 
L 2419 4116 
z
M 2253 4666 
L 3047 4666 
L 3047 1625 
L 3713 1625 
L 3713 1100 
L 3047 1100 
L 3047 0 
L 2419 0 
L 2419 1100 
L 313 1100 
L 313 1709 
L 2253 4666 
z
" transform="scale(0.015625)"/>
       </defs>
       <use xlink:href="#DejaVuSans-34"/>
      </g>
     </g>
    </g>
    <g id="xtick_6">
     <g id="line2d_6">
      <path d="M 532.97152 229.908 
L 532.97152 24.12 
" clip-path="url(#p01b1444095)" style="fill: none; stroke: #cccccc; stroke-linecap: round"/>
     </g>
     <g id="text_6">
      <!-- 5 -->
      <g style="fill: #262626" transform="translate(529.472145 247.766281) scale(0.11 -0.11)">
       <defs>
        <path id="DejaVuSans-35" d="M 691 4666 
L 3169 4666 
L 3169 4134 
L 1269 4134 
L 1269 2991 
Q 1406 3038 1543 3061 
Q 1681 3084 1819 3084 
Q 2600 3084 3056 2656 
Q 3513 2228 3513 1497 
Q 3513 744 3044 326 
Q 2575 -91 1722 -91 
Q 1428 -91 1123 -41 
Q 819 9 494 109 
L 494 744 
Q 775 591 1075 516 
Q 1375 441 1709 441 
Q 2250 441 2565 725 
Q 2881 1009 2881 1497 
Q 2881 1984 2565 2268 
Q 2250 2553 1709 2553 
Q 1456 2553 1204 2497 
Q 953 2441 691 2322 
L 691 4666 
z
" transform="scale(0.015625)"/>
       </defs>
       <use xlink:href="#DejaVuSans-35"/>
      </g>
     </g>
    </g>
    <g id="text_7">
     <!-- $\omega$ -->
     <g style="fill: #262626" transform="translate(297.245156 263.172063) scale(0.12 -0.12)">
      <defs>
       <path id="DejaVuSans-Oblique-3c9" d="M 1369 -91 
Q 72 -91 434 1766 
Q 575 2500 1256 3500 
L 1875 3500 
Q 1231 2500 1088 1750 
Q 819 397 1519 397 
Q 2166 397 2478 2078 
L 3009 2078 
Q 2669 388 3316 397 
Q 4013 403 4275 1750 
Q 4419 2500 4169 3500 
L 4788 3500 
Q 5075 2500 4934 1766 
Q 4578 -94 3278 -91 
Q 2428 -88 2503 844 
Q 2194 -91 1369 -91 
z
" transform="scale(0.015625)"/>
      </defs>
      <use xlink:href="#DejaVuSans-Oblique-3c9" transform="translate(0 0.3125)"/>
     </g>
    </g>
   </g>
   <g id="matplotlib.axis_2">
    <g id="ytick_1">
     <g id="line2d_7">
      <path d="M 48.530156 201.846 
L 556.040156 201.846 
" clip-path="url(#p01b1444095)" style="fill: none; stroke: #cccccc; stroke-linecap: round"/>
     </g>
     <g id="text_8">
      <!-- −4 -->
      <g style="fill: #262626" transform="translate(22.81375 206.025141) scale(0.11 -0.11)">
       <defs>
        <path id="DejaVuSans-2212" d="M 678 2272 
L 4684 2272 
L 4684 1741 
L 678 1741 
L 678 2272 
z
" transform="scale(0.015625)"/>
       </defs>
       <use xlink:href="#DejaVuSans-2212"/>
       <use xlink:href="#DejaVuSans-34" transform="translate(83.789062 0)"/>
      </g>
     </g>
    </g>
    <g id="ytick_2">
     <g id="line2d_8">
      <path d="M 48.530156 164.43 
L 556.040156 164.43 
" clip-path="url(#p01b1444095)" style="fill: none; stroke: #cccccc; stroke-linecap: round"/>
     </g>
     <g id="text_9">
      <!-- −2 -->
      <g style="fill: #262626" transform="translate(22.81375 168.609141) scale(0.11 -0.11)">
       <use xlink:href="#DejaVuSans-2212"/>
       <use xlink:href="#DejaVuSans-32" transform="translate(83.789062 0)"/>
      </g>
     </g>
    </g>
    <g id="ytick_3">
     <g id="line2d_9">
      <path d="M 48.530156 127.014 
L 556.040156 127.014 
" clip-path="url(#p01b1444095)" style="fill: none; stroke: #cccccc; stroke-linecap: round"/>
     </g>
     <g id="text_10">
      <!-- 0 -->
      <g style="fill: #262626" transform="translate(32.031406 131.193141) scale(0.11 -0.11)">
       <use xlink:href="#DejaVuSans-30"/>
      </g>
     </g>
    </g>
    <g id="ytick_4">
     <g id="line2d_10">
      <path d="M 48.530156 89.598 
L 556.040156 89.598 
" clip-path="url(#p01b1444095)" style="fill: none; stroke: #cccccc; stroke-linecap: round"/>
     </g>
     <g id="text_11">
      <!-- 2 -->
      <g style="fill: #262626" transform="translate(32.031406 93.777141) scale(0.11 -0.11)">
       <use xlink:href="#DejaVuSans-32"/>
      </g>
     </g>
    </g>
    <g id="ytick_5">
     <g id="line2d_11">
      <path d="M 48.530156 52.182 
L 556.040156 52.182 
" clip-path="url(#p01b1444095)" style="fill: none; stroke: #cccccc; stroke-linecap: round"/>
     </g>
     <g id="text_12">
      <!-- 4 -->
      <g style="fill: #262626" transform="translate(32.031406 56.361141) scale(0.11 -0.11)">
       <use xlink:href="#DejaVuSans-34"/>
      </g>
     </g>
    </g>
    <g id="text_13">
     <!-- Optimal parameter value -->
     <g style="fill: #262626" transform="translate(16.318125 202.63275) rotate(-90) scale(0.12 -0.12)">
      <defs>
       <path id="DejaVuSans-4f" d="M 2522 4238 
Q 1834 4238 1429 3725 
Q 1025 3213 1025 2328 
Q 1025 1447 1429 934 
Q 1834 422 2522 422 
Q 3209 422 3611 934 
Q 4013 1447 4013 2328 
Q 4013 3213 3611 3725 
Q 3209 4238 2522 4238 
z
M 2522 4750 
Q 3503 4750 4090 4092 
Q 4678 3434 4678 2328 
Q 4678 1225 4090 567 
Q 3503 -91 2522 -91 
Q 1538 -91 948 565 
Q 359 1222 359 2328 
Q 359 3434 948 4092 
Q 1538 4750 2522 4750 
z
" transform="scale(0.015625)"/>
       <path id="DejaVuSans-70" d="M 1159 525 
L 1159 -1331 
L 581 -1331 
L 581 3500 
L 1159 3500 
L 1159 2969 
Q 1341 3281 1617 3432 
Q 1894 3584 2278 3584 
Q 2916 3584 3314 3078 
Q 3713 2572 3713 1747 
Q 3713 922 3314 415 
Q 2916 -91 2278 -91 
Q 1894 -91 1617 61 
Q 1341 213 1159 525 
z
M 3116 1747 
Q 3116 2381 2855 2742 
Q 2594 3103 2138 3103 
Q 1681 3103 1420 2742 
Q 1159 2381 1159 1747 
Q 1159 1113 1420 752 
Q 1681 391 2138 391 
Q 2594 391 2855 752 
Q 3116 1113 3116 1747 
z
" transform="scale(0.015625)"/>
       <path id="DejaVuSans-74" d="M 1172 4494 
L 1172 3500 
L 2356 3500 
L 2356 3053 
L 1172 3053 
L 1172 1153 
Q 1172 725 1289 603 
Q 1406 481 1766 481 
L 2356 481 
L 2356 0 
L 1766 0 
Q 1100 0 847 248 
Q 594 497 594 1153 
L 594 3053 
L 172 3053 
L 172 3500 
L 594 3500 
L 594 4494 
L 1172 4494 
z
" transform="scale(0.015625)"/>
       <path id="DejaVuSans-69" d="M 603 3500 
L 1178 3500 
L 1178 0 
L 603 0 
L 603 3500 
z
M 603 4863 
L 1178 4863 
L 1178 4134 
L 603 4134 
L 603 4863 
z
" transform="scale(0.015625)"/>
       <path id="DejaVuSans-6d" d="M 3328 2828 
Q 3544 3216 3844 3400 
Q 4144 3584 4550 3584 
Q 5097 3584 5394 3201 
Q 5691 2819 5691 2113 
L 5691 0 
L 5113 0 
L 5113 2094 
Q 5113 2597 4934 2840 
Q 4756 3084 4391 3084 
Q 3944 3084 3684 2787 
Q 3425 2491 3425 1978 
L 3425 0 
L 2847 0 
L 2847 2094 
Q 2847 2600 2669 2842 
Q 2491 3084 2119 3084 
Q 1678 3084 1418 2786 
Q 1159 2488 1159 1978 
L 1159 0 
L 581 0 
L 581 3500 
L 1159 3500 
L 1159 2956 
Q 1356 3278 1631 3431 
Q 1906 3584 2284 3584 
Q 2666 3584 2933 3390 
Q 3200 3197 3328 2828 
z
" transform="scale(0.015625)"/>
       <path id="DejaVuSans-61" d="M 2194 1759 
Q 1497 1759 1228 1600 
Q 959 1441 959 1056 
Q 959 750 1161 570 
Q 1363 391 1709 391 
Q 2188 391 2477 730 
Q 2766 1069 2766 1631 
L 2766 1759 
L 2194 1759 
z
M 3341 1997 
L 3341 0 
L 2766 0 
L 2766 531 
Q 2569 213 2275 61 
Q 1981 -91 1556 -91 
Q 1019 -91 701 211 
Q 384 513 384 1019 
Q 384 1609 779 1909 
Q 1175 2209 1959 2209 
L 2766 2209 
L 2766 2266 
Q 2766 2663 2505 2880 
Q 2244 3097 1772 3097 
Q 1472 3097 1187 3025 
Q 903 2953 641 2809 
L 641 3341 
Q 956 3463 1253 3523 
Q 1550 3584 1831 3584 
Q 2591 3584 2966 3190 
Q 3341 2797 3341 1997 
z
" transform="scale(0.015625)"/>
       <path id="DejaVuSans-6c" d="M 603 4863 
L 1178 4863 
L 1178 0 
L 603 0 
L 603 4863 
z
" transform="scale(0.015625)"/>
       <path id="DejaVuSans-20" transform="scale(0.015625)"/>
       <path id="DejaVuSans-72" d="M 2631 2963 
Q 2534 3019 2420 3045 
Q 2306 3072 2169 3072 
Q 1681 3072 1420 2755 
Q 1159 2438 1159 1844 
L 1159 0 
L 581 0 
L 581 3500 
L 1159 3500 
L 1159 2956 
Q 1341 3275 1631 3429 
Q 1922 3584 2338 3584 
Q 2397 3584 2469 3576 
Q 2541 3569 2628 3553 
L 2631 2963 
z
" transform="scale(0.015625)"/>
       <path id="DejaVuSans-65" d="M 3597 1894 
L 3597 1613 
L 953 1613 
Q 991 1019 1311 708 
Q 1631 397 2203 397 
Q 2534 397 2845 478 
Q 3156 559 3463 722 
L 3463 178 
Q 3153 47 2828 -22 
Q 2503 -91 2169 -91 
Q 1331 -91 842 396 
Q 353 884 353 1716 
Q 353 2575 817 3079 
Q 1281 3584 2069 3584 
Q 2775 3584 3186 3129 
Q 3597 2675 3597 1894 
z
M 3022 2063 
Q 3016 2534 2758 2815 
Q 2500 3097 2075 3097 
Q 1594 3097 1305 2825 
Q 1016 2553 972 2059 
L 3022 2063 
z
" transform="scale(0.015625)"/>
       <path id="DejaVuSans-76" d="M 191 3500 
L 800 3500 
L 1894 563 
L 2988 3500 
L 3597 3500 
L 2284 0 
L 1503 0 
L 191 3500 
z
" transform="scale(0.015625)"/>
       <path id="DejaVuSans-75" d="M 544 1381 
L 544 3500 
L 1119 3500 
L 1119 1403 
Q 1119 906 1312 657 
Q 1506 409 1894 409 
Q 2359 409 2629 706 
Q 2900 1003 2900 1516 
L 2900 3500 
L 3475 3500 
L 3475 0 
L 2900 0 
L 2900 538 
Q 2691 219 2414 64 
Q 2138 -91 1772 -91 
Q 1169 -91 856 284 
Q 544 659 544 1381 
z
M 1991 3584 
L 1991 3584 
z
" transform="scale(0.015625)"/>
      </defs>
      <use xlink:href="#DejaVuSans-4f"/>
      <use xlink:href="#DejaVuSans-70" transform="translate(78.710938 0)"/>
      <use xlink:href="#DejaVuSans-74" transform="translate(142.1875 0)"/>
      <use xlink:href="#DejaVuSans-69" transform="translate(181.396484 0)"/>
      <use xlink:href="#DejaVuSans-6d" transform="translate(209.179688 0)"/>
      <use xlink:href="#DejaVuSans-61" transform="translate(306.591797 0)"/>
      <use xlink:href="#DejaVuSans-6c" transform="translate(367.871094 0)"/>
      <use xlink:href="#DejaVuSans-20" transform="translate(395.654297 0)"/>
      <use xlink:href="#DejaVuSans-70" transform="translate(427.441406 0)"/>
      <use xlink:href="#DejaVuSans-61" transform="translate(490.917969 0)"/>
      <use xlink:href="#DejaVuSans-72" transform="translate(552.197266 0)"/>
      <use xlink:href="#DejaVuSans-61" transform="translate(593.310547 0)"/>
      <use xlink:href="#DejaVuSans-6d" transform="translate(654.589844 0)"/>
      <use xlink:href="#DejaVuSans-65" transform="translate(752.001953 0)"/>
      <use xlink:href="#DejaVuSans-74" transform="translate(813.525391 0)"/>
      <use xlink:href="#DejaVuSans-65" transform="translate(852.734375 0)"/>
      <use xlink:href="#DejaVuSans-72" transform="translate(914.257812 0)"/>
      <use xlink:href="#DejaVuSans-20" transform="translate(955.371094 0)"/>
      <use xlink:href="#DejaVuSans-76" transform="translate(987.158203 0)"/>
      <use xlink:href="#DejaVuSans-61" transform="translate(1046.337891 0)"/>
      <use xlink:href="#DejaVuSans-6c" transform="translate(1107.617188 0)"/>
      <use xlink:href="#DejaVuSans-75" transform="translate(1135.400391 0)"/>
      <use xlink:href="#DejaVuSans-65" transform="translate(1198.779297 0)"/>
     </g>
    </g>
   </g>
   <g id="patch_3">
    <path d="M 48.530156 220.554 
L 556.040156 220.554 
L 556.040156 201.846 
L 48.530156 201.846 
z
" clip-path="url(#p01b1444095)" style="fill: #ff0000; opacity: 0.08; stroke: #ff0000; stroke-linejoin: miter"/>
   </g>
   <g id="patch_4">
    <path d="M 48.530156 52.182 
L 556.040156 52.182 
L 556.040156 33.474 
L 48.530156 33.474 
z
" clip-path="url(#p01b1444095)" style="fill: #ff0000; opacity: 0.08; stroke: #ff0000; stroke-linejoin: miter"/>
   </g>
   <g id="line2d_12">
    <path d="M 71.598793 41.19034 
L 72.523387 138.036633 
L 73.447982 126.046415 
L 74.372577 33.474 
L 78.070955 33.474001 
L 78.99555 220.554 
L 79.920144 220.554 
L 80.844739 33.482174 
L 82.693928 33.474 
L 83.618523 39.037 
L 84.543118 33.48699 
L 85.467712 220.554 
L 87.316902 220.554 
L 88.241496 33.474 
L 89.166091 220.554 
L 90.090685 33.474 
L 91.01528 33.474 
L 91.939875 220.554 
L 92.864469 33.474 
L 93.789064 33.474 
L 94.713659 220.554 
L 95.638253 43.99794 
L 96.562848 220.554 
L 97.487443 33.474 
L 98.412037 206.029638 
L 99.336632 33.474 
L 100.261227 38.375908 
L 101.185821 40.360952 
L 102.110416 33.474 
L 103.035011 33.474 
L 103.959605 219.114892 
L 104.8842 217.944663 
L 105.808794 33.474 
L 107.657984 33.474 
L 108.582578 220.549574 
L 109.507173 33.474 
L 110.431768 214.40602 
L 111.356362 220.528251 
L 112.280957 220.554 
L 113.205552 220.095932 
L 114.130146 33.474 
L 115.979336 33.513642 
L 116.90393 220.554 
L 117.828525 33.474 
L 118.753119 220.553855 
L 119.677714 220.554 
L 120.602309 33.474 
L 121.526903 220.554 
L 122.451498 33.474 
L 123.376093 35.897592 
L 124.300687 220.554 
L 125.225282 220.554 
L 126.149877 33.670504 
L 127.074471 33.474 
L 128.923661 33.474 
L 129.848255 220.554 
L 130.77285 33.493567 
L 131.697444 33.474 
L 132.622039 220.554 
L 133.546634 220.489559 
L 135.395823 220.554 
L 136.320418 33.474 
L 137.245012 220.554 
L 138.169607 33.474 
L 140.018796 33.474009 
L 140.943391 220.554 
L 141.867986 33.502859 
L 142.79258 220.554 
L 143.717175 33.520742 
L 144.641769 220.005838 
L 145.566364 33.474 
L 147.415553 33.474 
L 148.340148 220.554 
L 149.264743 220.553996 
L 150.189337 34.561433 
L 151.113932 33.474 
L 152.038527 33.474 
L 152.963121 220.548216 
L 153.887716 34.020831 
L 154.812311 212.151539 
L 155.736905 215.458924 
L 156.6615 220.551874 
L 157.586094 40.450884 
L 158.510689 33.493377 
L 159.435284 220.554 
L 160.359878 220.554 
L 161.284473 218.767957 
L 162.209068 220.554 
L 163.133662 220.554 
L 164.058257 34.892886 
L 164.982852 215.274172 
L 165.907446 39.61012 
L 166.832041 33.474 
L 167.756636 33.474 
L 168.68123 220.5428 
L 169.605825 215.527502 
L 170.53042 220.554 
L 171.455014 33.474 
L 172.379609 41.23107 
L 173.304203 215.863492 
L 174.228798 212.895164 
L 175.153393 33.474 
L 177.002582 33.487589 
L 177.927177 220.554 
L 178.851771 35.2763 
L 179.776366 220.554 
L 180.700961 33.474 
L 181.625555 220.554 
L 182.55015 34.818038 
L 183.474745 33.474 
L 184.399339 33.474 
L 185.323934 40.583208 
L 186.248528 33.802843 
L 187.173123 38.317377 
L 188.097718 220.554 
L 189.022312 33.474 
L 189.946907 220.554 
L 191.796096 219.190346 
L 192.720691 33.474 
L 195.494475 33.474 
L 196.41907 41.939434 
L 197.343664 220.554 
L 198.268259 33.474 
L 199.192853 33.474 
L 200.117448 220.554 
L 201.042043 38.944837 
L 201.966637 220.554 
L 202.891232 220.554 
L 203.815827 33.474 
L 204.740421 220.554 
L 205.665016 215.158874 
L 206.589611 33.474 
L 207.514205 220.554 
L 208.4388 220.554 
L 209.363395 33.474 
L 210.287989 220.554 
L 212.137178 220.554 
L 213.061773 33.569445 
L 213.986368 33.474 
L 214.910962 220.554 
L 215.835557 39.894104 
L 216.760152 220.554 
L 217.684746 215.712841 
L 218.609341 33.474 
L 220.45853 33.475247 
L 221.383125 219.698354 
L 222.30772 215.764927 
L 223.232314 33.474 
L 224.156909 220.554 
L 225.081503 33.474 
L 226.006098 40.390219 
L 226.930693 220.554 
L 227.855287 220.554 
L 228.779882 33.474 
L 229.704477 220.545203 
L 230.629071 220.554 
L 231.553666 33.474 
L 232.478261 217.262182 
L 233.402855 33.474 
L 234.32745 220.552913 
L 235.252045 33.474697 
L 236.176639 220.554 
L 237.101234 33.474 
L 238.025829 35.03182 
L 238.950423 220.554 
L 239.875018 33.474 
L 242.648802 33.474 
L 243.573396 220.554 
L 244.497991 219.952371 
L 245.422586 220.554 
L 246.34718 216.882396 
L 247.271775 216.411564 
L 248.19637 220.554 
L 249.120964 33.474 
L 250.045559 40.144626 
L 250.970154 33.474 
L 251.894748 220.553964 
L 252.819343 220.554 
L 253.743937 33.474 
L 254.668532 33.474 
L 255.593127 220.554 
L 256.517721 33.612917 
L 257.442316 33.488925 
L 258.366911 220.244963 
L 259.291505 220.554 
L 260.2161 33.474 
L 261.140695 34.057876 
L 262.065289 220.554 
L 262.989884 34.207049 
L 263.914479 34.010017 
L 264.839073 216.289423 
L 265.763668 33.474 
L 267.612857 33.474 
L 268.537452 220.554 
L 269.462046 33.474 
L 270.386641 215.673242 
L 271.311236 33.474 
L 272.23583 220.554 
L 275.934209 220.554 
L 276.858804 37.383868 
L 277.783398 33.474 
L 278.707993 220.554 
L 279.632587 220.554 
L 280.557182 33.474628 
L 282.406371 33.474 
L 283.330966 33.631654 
L 284.255561 219.040911 
L 285.180155 37.252597 
L 286.10475 220.518904 
L 287.953939 220.554 
L 288.878534 33.474 
L 290.727723 33.474 
L 291.652318 217.645469 
L 292.576912 33.474 
L 294.426102 33.474 
L 295.350696 34.434181 
L 296.275291 33.474 
L 297.199886 217.198685 
L 298.12448 220.40084 
L 299.049075 33.474 
L 299.97367 220.554 
L 300.898264 34.924244 
L 301.822859 33.474 
L 302.747454 216.642928 
L 303.672048 33.621177 
L 304.596643 220.554 
L 305.521238 220.551574 
L 306.445832 33.477682 
L 307.370427 220.554 
L 308.295021 220.254614 
L 309.219616 33.474009 
L 311.9934 33.474 
L 312.917995 220.554 
L 313.842589 33.474 
L 314.767184 33.474 
L 315.691779 220.554 
L 316.616373 220.554 
L 317.540968 36.498785 
L 318.465563 33.474 
L 319.390157 33.474 
L 320.314752 220.554 
L 321.239346 219.408637 
L 322.163941 33.474 
L 323.088536 33.474 
L 324.01313 220.554 
L 324.937725 220.554 
L 325.86232 37.884382 
L 326.786914 33.483689 
L 327.711509 220.548954 
L 328.636104 220.553996 
L 329.560698 33.633257 
L 332.334482 33.474 
L 333.259077 220.554 
L 334.183671 34.017223 
L 335.108266 220.554 
L 336.032861 36.989524 
L 336.957455 220.554 
L 337.88205 220.554 
L 338.806645 33.475026 
L 339.731239 220.554 
L 340.655834 33.474053 
L 341.580429 220.554 
L 342.505023 33.474 
L 343.429618 33.474 
L 344.354213 220.554 
L 345.278807 215.30663 
L 346.203402 33.474 
L 348.977186 33.474162 
L 349.90178 35.936584 
L 350.826375 220.554 
L 352.675564 220.553795 
L 353.600159 33.474 
L 354.524754 220.554 
L 355.449348 37.732008 
L 356.373943 33.474 
L 357.298538 220.554 
L 358.223132 33.54293 
L 359.147727 220.554 
L 360.072321 220.554 
L 360.996916 33.474 
L 361.921511 220.554 
L 362.846105 220.554 
L 363.7707 33.474 
L 364.695295 35.275184 
L 365.619889 36.830109 
L 366.544484 220.554 
L 367.469079 33.474 
L 368.393673 33.476382 
L 369.318268 40.608757 
L 370.242863 33.571835 
L 371.167457 220.554 
L 372.092052 220.462951 
L 373.016647 33.483952 
L 373.941241 33.474 
L 374.865836 220.117003 
L 375.79043 220.554 
L 376.715025 217.666642 
L 377.63962 33.474 
L 378.564214 220.511054 
L 379.488809 220.552211 
L 380.413404 33.474 
L 381.337998 33.474 
L 382.262593 219.601265 
L 383.187188 33.56486 
L 384.111782 33.474 
L 385.036377 34.635228 
L 385.960972 33.474 
L 387.810161 33.474 
L 388.734755 220.477365 
L 389.65935 220.554 
L 390.583945 220.515162 
L 391.508539 33.474 
L 392.433134 219.257513 
L 393.357729 220.554 
L 394.282323 33.485291 
L 395.206918 217.250886 
L 396.131513 33.474002 
L 397.056107 220.554 
L 397.980702 36.326115 
L 398.905297 33.474 
L 399.829891 220.554 
L 400.754486 33.541764 
L 401.67908 33.474 
L 402.603675 220.554 
L 403.52827 33.62749 
L 404.452864 219.614213 
L 405.377459 220.554 
L 406.302054 49.571347 
L 407.226648 220.554 
L 408.151243 33.474 
L 409.075838 33.476317 
L 410.000432 220.552071 
L 410.925027 35.258125 
L 411.849622 220.497044 
L 412.774216 219.925454 
L 413.698811 33.478835 
L 415.548 33.48243 
L 416.472595 220.554 
L 417.397189 220.554 
L 418.321784 33.474 
L 419.246379 220.450943 
L 420.170973 33.474 
L 421.095568 33.593762 
L 422.020163 220.372746 
L 422.944757 219.902406 
L 423.869352 220.554 
L 424.793947 33.492721 
L 425.718541 33.474 
L 426.643136 220.554 
L 427.56773 216.576529 
L 428.492325 35.805841 
L 429.41692 33.479755 
L 430.341514 216.999557 
L 431.266109 220.435989 
L 432.190704 33.474 
L 433.115298 220.553347 
L 434.039893 35.817056 
L 434.964488 33.557296 
L 435.889082 216.548272 
L 436.813677 215.408784 
L 437.738272 35.671093 
L 438.662866 220.332371 
L 439.587461 220.552187 
L 441.43665 220.554 
L 442.361245 34.736889 
L 443.285839 33.799548 
L 444.210434 220.554 
L 445.135029 33.491531 
L 446.059623 33.474 
L 446.984218 219.155959 
L 447.908813 220.44846 
L 448.833407 220.209453 
L 449.758002 220.554 
L 450.682597 33.623858 
L 451.607191 220.554 
L 452.531786 34.243114 
L 453.456381 220.515717 
L 455.30557 220.554 
L 456.230164 33.474 
L 457.154759 220.554 
L 459.003948 220.554 
L 459.928543 33.474 
L 460.853138 220.535983 
L 461.777732 33.474 
L 462.702327 220.322337 
L 463.626922 33.501385 
L 464.551516 218.953022 
L 466.400706 220.554 
L 470.099084 220.554 
L 471.023679 36.56054 
L 471.948273 220.554 
L 475.646652 220.554 
L 476.571247 40.82772 
L 477.495841 33.516401 
L 479.345031 33.505382 
L 480.269625 220.553999 
L 481.19422 35.339902 
L 482.118814 33.474 
L 483.043409 33.474 
L 483.968004 220.554 
L 484.892598 33.509028 
L 485.817193 33.851107 
L 486.741788 33.475397 
L 487.666382 220.302304 
L 488.590977 33.474 
L 489.515572 220.554 
L 490.440166 217.87571 
L 491.364761 36.342921 
L 492.289356 33.883273 
L 493.21395 220.554 
L 494.138545 33.527885 
L 495.063139 220.397265 
L 495.987734 218.507876 
L 496.912329 33.474 
L 497.836923 33.474001 
L 498.761518 220.553907 
L 499.686113 33.474 
L 500.610707 220.554 
L 502.459897 220.554 
L 503.384491 33.474 
L 504.309086 220.49923 
L 505.233681 220.544664 
L 506.158275 33.474 
L 507.08287 220.554 
L 508.007465 218.613546 
L 508.932059 33.90355 
L 509.856654 219.016231 
L 510.781248 38.595649 
L 511.705843 220.554 
L 512.630438 220.413368 
L 513.555032 220.4713 
L 514.479627 33.624652 
L 515.404222 33.474 
L 516.328816 33.486916 
L 517.253411 220.553999 
L 518.178006 33.478207 
L 520.95179 33.474 
L 521.876384 220.553999 
L 522.800979 33.476936 
L 523.725573 220.554 
L 524.650168 37.078669 
L 525.574763 220.554 
L 526.499357 220.554 
L 527.423952 33.474001 
L 528.348547 33.568668 
L 529.273141 34.186444 
L 530.197736 219.345822 
L 531.122331 220.554 
L 532.046925 33.474 
L 532.97152 33.534524 
L 532.97152 33.534524 
" clip-path="url(#p01b1444095)" style="fill: none; stroke: #4c72b0; stroke-width: 1.8; stroke-linecap: round"/>
    <defs>
     <path id="m6cadfdfcab" d="M 0 2 
C 0.530406 2 1.03916 1.789267 1.414214 1.414214 
C 1.789267 1.03916 2 0.530406 2 0 
C 2 -0.530406 1.789267 -1.03916 1.414214 -1.414214 
C 1.03916 -1.789267 0.530406 -2 0 -2 
C -0.530406 -2 -1.03916 -1.789267 -1.414214 -1.414214 
C -1.789267 -1.03916 -2 -0.530406 -2 0 
C -2 0.530406 -1.789267 1.03916 -1.414214 1.414214 
C -1.03916 1.789267 -0.530406 2 0 2 
z
" style="stroke: #4c72b0"/>
    </defs>
    <g clip-path="url(#p01b1444095)">
     <use xlink:href="#m6cadfdfcab" x="71.598793" y="41.19034" style="fill: #4c72b0; stroke: #4c72b0"/>
     <use xlink:href="#m6cadfdfcab" x="86.392307" y="220.554" style="fill: #4c72b0; stroke: #4c72b0"/>
     <use xlink:href="#m6cadfdfcab" x="101.185821" y="40.360952" style="fill: #4c72b0; stroke: #4c72b0"/>
     <use xlink:href="#m6cadfdfcab" x="115.979336" y="33.513642" style="fill: #4c72b0; stroke: #4c72b0"/>
     <use xlink:href="#m6cadfdfcab" x="130.77285" y="33.493567" style="fill: #4c72b0; stroke: #4c72b0"/>
     <use xlink:href="#m6cadfdfcab" x="145.566364" y="33.474" style="fill: #4c72b0; stroke: #4c72b0"/>
     <use xlink:href="#m6cadfdfcab" x="160.359878" y="220.554" style="fill: #4c72b0; stroke: #4c72b0"/>
     <use xlink:href="#m6cadfdfcab" x="175.153393" y="33.474" style="fill: #4c72b0; stroke: #4c72b0"/>
     <use xlink:href="#m6cadfdfcab" x="189.946907" y="220.554" style="fill: #4c72b0; stroke: #4c72b0"/>
     <use xlink:href="#m6cadfdfcab" x="204.740421" y="220.554" style="fill: #4c72b0; stroke: #4c72b0"/>
     <use xlink:href="#m6cadfdfcab" x="219.533936" y="33.474" style="fill: #4c72b0; stroke: #4c72b0"/>
     <use xlink:href="#m6cadfdfcab" x="234.32745" y="220.552913" style="fill: #4c72b0; stroke: #4c72b0"/>
     <use xlink:href="#m6cadfdfcab" x="249.120964" y="33.474" style="fill: #4c72b0; stroke: #4c72b0"/>
     <use xlink:href="#m6cadfdfcab" x="263.914479" y="34.010017" style="fill: #4c72b0; stroke: #4c72b0"/>
     <use xlink:href="#m6cadfdfcab" x="278.707993" y="220.554" style="fill: #4c72b0; stroke: #4c72b0"/>
     <use xlink:href="#m6cadfdfcab" x="293.501507" y="33.474" style="fill: #4c72b0; stroke: #4c72b0"/>
     <use xlink:href="#m6cadfdfcab" x="308.295021" y="220.254614" style="fill: #4c72b0; stroke: #4c72b0"/>
     <use xlink:href="#m6cadfdfcab" x="323.088536" y="33.474" style="fill: #4c72b0; stroke: #4c72b0"/>
     <use xlink:href="#m6cadfdfcab" x="337.88205" y="220.554" style="fill: #4c72b0; stroke: #4c72b0"/>
     <use xlink:href="#m6cadfdfcab" x="352.675564" y="220.553795" style="fill: #4c72b0; stroke: #4c72b0"/>
     <use xlink:href="#m6cadfdfcab" x="367.469079" y="33.474" style="fill: #4c72b0; stroke: #4c72b0"/>
     <use xlink:href="#m6cadfdfcab" x="382.262593" y="219.601265" style="fill: #4c72b0; stroke: #4c72b0"/>
     <use xlink:href="#m6cadfdfcab" x="397.056107" y="220.554" style="fill: #4c72b0; stroke: #4c72b0"/>
     <use xlink:href="#m6cadfdfcab" x="411.849622" y="220.497044" style="fill: #4c72b0; stroke: #4c72b0"/>
     <use xlink:href="#m6cadfdfcab" x="426.643136" y="220.554" style="fill: #4c72b0; stroke: #4c72b0"/>
     <use xlink:href="#m6cadfdfcab" x="441.43665" y="220.554" style="fill: #4c72b0; stroke: #4c72b0"/>
     <use xlink:href="#m6cadfdfcab" x="456.230164" y="33.474" style="fill: #4c72b0; stroke: #4c72b0"/>
     <use xlink:href="#m6cadfdfcab" x="471.023679" y="36.56054" style="fill: #4c72b0; stroke: #4c72b0"/>
     <use xlink:href="#m6cadfdfcab" x="485.817193" y="33.851107" style="fill: #4c72b0; stroke: #4c72b0"/>
     <use xlink:href="#m6cadfdfcab" x="500.610707" y="220.554" style="fill: #4c72b0; stroke: #4c72b0"/>
     <use xlink:href="#m6cadfdfcab" x="515.404222" y="33.474" style="fill: #4c72b0; stroke: #4c72b0"/>
     <use xlink:href="#m6cadfdfcab" x="530.197736" y="219.345822" style="fill: #4c72b0; stroke: #4c72b0"/>
    </g>
   </g>
   <g id="line2d_13">
    <path d="M 48.530156 220.554 
L 556.040156 220.554 
" clip-path="url(#p01b1444095)" style="fill: none; stroke-dasharray: 1,1.65; stroke-dashoffset: 0; stroke: #808080; stroke-opacity: 0.5"/>
   </g>
   <g id="line2d_14">
    <path d="M 48.530156 33.474 
L 556.040156 33.474 
" clip-path="url(#p01b1444095)" style="fill: none; stroke-dasharray: 1,1.65; stroke-dashoffset: 0; stroke: #808080; stroke-opacity: 0.5"/>
   </g>
   <g id="patch_5">
    <path d="M 48.530156 229.908 
L 48.530156 24.12 
" style="fill: none; stroke: #cccccc; stroke-width: 1.25; stroke-linejoin: miter; stroke-linecap: square"/>
   </g>
   <g id="patch_6">
    <path d="M 556.040156 229.908 
L 556.040156 24.12 
" style="fill: none; stroke: #cccccc; stroke-width: 1.25; stroke-linejoin: miter; stroke-linecap: square"/>
   </g>
   <g id="patch_7">
    <path d="M 48.530156 229.908 
L 556.040156 229.908 
" style="fill: none; stroke: #cccccc; stroke-width: 1.25; stroke-linejoin: miter; stroke-linecap: square"/>
   </g>
   <g id="patch_8">
    <path d="M 48.530156 24.12 
L 556.040156 24.12 
" style="fill: none; stroke: #cccccc; stroke-width: 1.25; stroke-linejoin: miter; stroke-linecap: square"/>
   </g>
   <g id="text_14">
    <!-- Scenario B: Optimal $a_x^*$ vs $\omega$  (409/500 bound-saturated) -->
    <g style="fill: #262626" transform="translate(131.885156 18.12) scale(0.12 -0.12)">
     <defs>
      <path id="DejaVuSans-53" d="M 3425 4513 
L 3425 3897 
Q 3066 4069 2747 4153 
Q 2428 4238 2131 4238 
Q 1616 4238 1336 4038 
Q 1056 3838 1056 3469 
Q 1056 3159 1242 3001 
Q 1428 2844 1947 2747 
L 2328 2669 
Q 3034 2534 3370 2195 
Q 3706 1856 3706 1288 
Q 3706 609 3251 259 
Q 2797 -91 1919 -91 
Q 1588 -91 1214 -16 
Q 841 59 441 206 
L 441 856 
Q 825 641 1194 531 
Q 1563 422 1919 422 
Q 2459 422 2753 634 
Q 3047 847 3047 1241 
Q 3047 1584 2836 1778 
Q 2625 1972 2144 2069 
L 1759 2144 
Q 1053 2284 737 2584 
Q 422 2884 422 3419 
Q 422 4038 858 4394 
Q 1294 4750 2059 4750 
Q 2388 4750 2728 4690 
Q 3069 4631 3425 4513 
z
" transform="scale(0.015625)"/>
      <path id="DejaVuSans-63" d="M 3122 3366 
L 3122 2828 
Q 2878 2963 2633 3030 
Q 2388 3097 2138 3097 
Q 1578 3097 1268 2742 
Q 959 2388 959 1747 
Q 959 1106 1268 751 
Q 1578 397 2138 397 
Q 2388 397 2633 464 
Q 2878 531 3122 666 
L 3122 134 
Q 2881 22 2623 -34 
Q 2366 -91 2075 -91 
Q 1284 -91 818 406 
Q 353 903 353 1747 
Q 353 2603 823 3093 
Q 1294 3584 2113 3584 
Q 2378 3584 2631 3529 
Q 2884 3475 3122 3366 
z
" transform="scale(0.015625)"/>
      <path id="DejaVuSans-6e" d="M 3513 2113 
L 3513 0 
L 2938 0 
L 2938 2094 
Q 2938 2591 2744 2837 
Q 2550 3084 2163 3084 
Q 1697 3084 1428 2787 
Q 1159 2491 1159 1978 
L 1159 0 
L 581 0 
L 581 3500 
L 1159 3500 
L 1159 2956 
Q 1366 3272 1645 3428 
Q 1925 3584 2291 3584 
Q 2894 3584 3203 3211 
Q 3513 2838 3513 2113 
z
" transform="scale(0.015625)"/>
      <path id="DejaVuSans-6f" d="M 1959 3097 
Q 1497 3097 1228 2736 
Q 959 2375 959 1747 
Q 959 1119 1226 758 
Q 1494 397 1959 397 
Q 2419 397 2687 759 
Q 2956 1122 2956 1747 
Q 2956 2369 2687 2733 
Q 2419 3097 1959 3097 
z
M 1959 3584 
Q 2709 3584 3137 3096 
Q 3566 2609 3566 1747 
Q 3566 888 3137 398 
Q 2709 -91 1959 -91 
Q 1206 -91 779 398 
Q 353 888 353 1747 
Q 353 2609 779 3096 
Q 1206 3584 1959 3584 
z
" transform="scale(0.015625)"/>
      <path id="DejaVuSans-42" d="M 1259 2228 
L 1259 519 
L 2272 519 
Q 2781 519 3026 730 
Q 3272 941 3272 1375 
Q 3272 1813 3026 2020 
Q 2781 2228 2272 2228 
L 1259 2228 
z
M 1259 4147 
L 1259 2741 
L 2194 2741 
Q 2656 2741 2882 2914 
Q 3109 3088 3109 3444 
Q 3109 3797 2882 3972 
Q 2656 4147 2194 4147 
L 1259 4147 
z
M 628 4666 
L 2241 4666 
Q 2963 4666 3353 4366 
Q 3744 4066 3744 3513 
Q 3744 3084 3544 2831 
Q 3344 2578 2956 2516 
Q 3422 2416 3680 2098 
Q 3938 1781 3938 1306 
Q 3938 681 3513 340 
Q 3088 0 2303 0 
L 628 0 
L 628 4666 
z
" transform="scale(0.015625)"/>
      <path id="DejaVuSans-3a" d="M 750 794 
L 1409 794 
L 1409 0 
L 750 0 
L 750 794 
z
M 750 3309 
L 1409 3309 
L 1409 2516 
L 750 2516 
L 750 3309 
z
" transform="scale(0.015625)"/>
      <path id="DejaVuSans-Oblique-61" d="M 3438 1997 
L 3047 0 
L 2472 0 
L 2578 531 
Q 2325 219 2001 64 
Q 1678 -91 1281 -91 
Q 834 -91 548 182 
Q 263 456 263 884 
Q 263 1497 752 1853 
Q 1241 2209 2100 2209 
L 2900 2209 
L 2931 2363 
Q 2938 2388 2941 2417 
Q 2944 2447 2944 2509 
Q 2944 2788 2717 2942 
Q 2491 3097 2081 3097 
Q 1800 3097 1504 3025 
Q 1209 2953 897 2809 
L 997 3341 
Q 1322 3463 1633 3523 
Q 1944 3584 2234 3584 
Q 2853 3584 3176 3315 
Q 3500 3047 3500 2534 
Q 3500 2431 3484 2292 
Q 3469 2153 3438 1997 
z
M 2816 1759 
L 2241 1759 
Q 1534 1759 1195 1570 
Q 856 1381 856 984 
Q 856 709 1029 553 
Q 1203 397 1509 397 
Q 1978 397 2328 733 
Q 2678 1069 2791 1631 
L 2816 1759 
z
" transform="scale(0.015625)"/>
      <path id="DejaVuSans-2a" d="M 3009 3897 
L 1888 3291 
L 3009 2681 
L 2828 2375 
L 1778 3009 
L 1778 1831 
L 1422 1831 
L 1422 3009 
L 372 2375 
L 191 2681 
L 1313 3291 
L 191 3897 
L 372 4206 
L 1422 3572 
L 1422 4750 
L 1778 4750 
L 1778 3572 
L 2828 4206 
L 3009 3897 
z
" transform="scale(0.015625)"/>
      <path id="DejaVuSans-Oblique-78" d="M 3841 3500 
L 2234 1784 
L 3219 0 
L 2559 0 
L 1819 1388 
L 531 0 
L -166 0 
L 1556 1844 
L 641 3500 
L 1300 3500 
L 1972 2234 
L 3144 3500 
L 3841 3500 
z
" transform="scale(0.015625)"/>
      <path id="DejaVuSans-73" d="M 2834 3397 
L 2834 2853 
Q 2591 2978 2328 3040 
Q 2066 3103 1784 3103 
Q 1356 3103 1142 2972 
Q 928 2841 928 2578 
Q 928 2378 1081 2264 
Q 1234 2150 1697 2047 
L 1894 2003 
Q 2506 1872 2764 1633 
Q 3022 1394 3022 966 
Q 3022 478 2636 193 
Q 2250 -91 1575 -91 
Q 1294 -91 989 -36 
Q 684 19 347 128 
L 347 722 
Q 666 556 975 473 
Q 1284 391 1588 391 
Q 1994 391 2212 530 
Q 2431 669 2431 922 
Q 2431 1156 2273 1281 
Q 2116 1406 1581 1522 
L 1381 1569 
Q 847 1681 609 1914 
Q 372 2147 372 2553 
Q 372 3047 722 3315 
Q 1072 3584 1716 3584 
Q 2034 3584 2315 3537 
Q 2597 3491 2834 3397 
z
" transform="scale(0.015625)"/>
      <path id="DejaVuSans-28" d="M 1984 4856 
Q 1566 4138 1362 3434 
Q 1159 2731 1159 2009 
Q 1159 1288 1364 580 
Q 1569 -128 1984 -844 
L 1484 -844 
Q 1016 -109 783 600 
Q 550 1309 550 2009 
Q 550 2706 781 3412 
Q 1013 4119 1484 4856 
L 1984 4856 
z
" transform="scale(0.015625)"/>
      <path id="DejaVuSans-39" d="M 703 97 
L 703 672 
Q 941 559 1184 500 
Q 1428 441 1663 441 
Q 2288 441 2617 861 
Q 2947 1281 2994 2138 
Q 2813 1869 2534 1725 
Q 2256 1581 1919 1581 
Q 1219 1581 811 2004 
Q 403 2428 403 3163 
Q 403 3881 828 4315 
Q 1253 4750 1959 4750 
Q 2769 4750 3195 4129 
Q 3622 3509 3622 2328 
Q 3622 1225 3098 567 
Q 2575 -91 1691 -91 
Q 1453 -91 1209 -44 
Q 966 3 703 97 
z
M 1959 2075 
Q 2384 2075 2632 2365 
Q 2881 2656 2881 3163 
Q 2881 3666 2632 3958 
Q 2384 4250 1959 4250 
Q 1534 4250 1286 3958 
Q 1038 3666 1038 3163 
Q 1038 2656 1286 2365 
Q 1534 2075 1959 2075 
z
" transform="scale(0.015625)"/>
      <path id="DejaVuSans-2f" d="M 1625 4666 
L 2156 4666 
L 531 -594 
L 0 -594 
L 1625 4666 
z
" transform="scale(0.015625)"/>
      <path id="DejaVuSans-62" d="M 3116 1747 
Q 3116 2381 2855 2742 
Q 2594 3103 2138 3103 
Q 1681 3103 1420 2742 
Q 1159 2381 1159 1747 
Q 1159 1113 1420 752 
Q 1681 391 2138 391 
Q 2594 391 2855 752 
Q 3116 1113 3116 1747 
z
M 1159 2969 
Q 1341 3281 1617 3432 
Q 1894 3584 2278 3584 
Q 2916 3584 3314 3078 
Q 3713 2572 3713 1747 
Q 3713 922 3314 415 
Q 2916 -91 2278 -91 
Q 1894 -91 1617 61 
Q 1341 213 1159 525 
L 1159 0 
L 581 0 
L 581 4863 
L 1159 4863 
L 1159 2969 
z
" transform="scale(0.015625)"/>
      <path id="DejaVuSans-64" d="M 2906 2969 
L 2906 4863 
L 3481 4863 
L 3481 0 
L 2906 0 
L 2906 525 
Q 2725 213 2448 61 
Q 2172 -91 1784 -91 
Q 1150 -91 751 415 
Q 353 922 353 1747 
Q 353 2572 751 3078 
Q 1150 3584 1784 3584 
Q 2172 3584 2448 3432 
Q 2725 3281 2906 2969 
z
M 947 1747 
Q 947 1113 1208 752 
Q 1469 391 1925 391 
Q 2381 391 2643 752 
Q 2906 1113 2906 1747 
Q 2906 2381 2643 2742 
Q 2381 3103 1925 3103 
Q 1469 3103 1208 2742 
Q 947 2381 947 1747 
z
" transform="scale(0.015625)"/>
      <path id="DejaVuSans-2d" d="M 313 2009 
L 1997 2009 
L 1997 1497 
L 313 1497 
L 313 2009 
z
" transform="scale(0.015625)"/>
      <path id="DejaVuSans-29" d="M 513 4856 
L 1013 4856 
Q 1481 4119 1714 3412 
Q 1947 2706 1947 2009 
Q 1947 1309 1714 600 
Q 1481 -109 1013 -844 
L 513 -844 
Q 928 -128 1133 580 
Q 1338 1288 1338 2009 
Q 1338 2731 1133 3434 
Q 928 4138 513 4856 
z
" transform="scale(0.015625)"/>
     </defs>
     <use xlink:href="#DejaVuSans-53" transform="translate(0 0.765625)"/>
     <use xlink:href="#DejaVuSans-63" transform="translate(63.476562 0.765625)"/>
     <use xlink:href="#DejaVuSans-65" transform="translate(118.457031 0.765625)"/>
     <use xlink:href="#DejaVuSans-6e" transform="translate(179.980469 0.765625)"/>
     <use xlink:href="#DejaVuSans-61" transform="translate(243.359375 0.765625)"/>
     <use xlink:href="#DejaVuSans-72" transform="translate(304.638672 0.765625)"/>
     <use xlink:href="#DejaVuSans-69" transform="translate(345.751953 0.765625)"/>
     <use xlink:href="#DejaVuSans-6f" transform="translate(373.535156 0.765625)"/>
     <use xlink:href="#DejaVuSans-20" transform="translate(434.716797 0.765625)"/>
     <use xlink:href="#DejaVuSans-42" transform="translate(466.503906 0.765625)"/>
     <use xlink:href="#DejaVuSans-3a" transform="translate(535.107422 0.765625)"/>
     <use xlink:href="#DejaVuSans-20" transform="translate(568.798828 0.765625)"/>
     <use xlink:href="#DejaVuSans-4f" transform="translate(600.585938 0.765625)"/>
     <use xlink:href="#DejaVuSans-70" transform="translate(679.296875 0.765625)"/>
     <use xlink:href="#DejaVuSans-74" transform="translate(742.773438 0.765625)"/>
     <use xlink:href="#DejaVuSans-69" transform="translate(781.982422 0.765625)"/>
     <use xlink:href="#DejaVuSans-6d" transform="translate(809.765625 0.765625)"/>
     <use xlink:href="#DejaVuSans-61" transform="translate(907.177734 0.765625)"/>
     <use xlink:href="#DejaVuSans-6c" transform="translate(968.457031 0.765625)"/>
     <use xlink:href="#DejaVuSans-20" transform="translate(996.240234 0.765625)"/>
     <use xlink:href="#DejaVuSans-Oblique-61" transform="translate(1028.027344 0.765625)"/>
     <use xlink:href="#DejaVuSans-2a" transform="translate(1107.594232 39.046875) scale(0.7)"/>
     <use xlink:href="#DejaVuSans-Oblique-78" transform="translate(1089.306641 -26.578125) scale(0.7)"/>
     <use xlink:href="#DejaVuSans-20" transform="translate(1158.966302 0.765625)"/>
     <use xlink:href="#DejaVuSans-76" transform="translate(1190.753411 0.765625)"/>
     <use xlink:href="#DejaVuSans-73" transform="translate(1249.933099 0.765625)"/>
     <use xlink:href="#DejaVuSans-20" transform="translate(1302.032708 0.765625)"/>
     <use xlink:href="#DejaVuSans-Oblique-3c9" transform="translate(1333.819818 0.765625)"/>
     <use xlink:href="#DejaVuSans-20" transform="translate(1417.560052 0.765625)"/>
     <use xlink:href="#DejaVuSans-20" transform="translate(1449.347161 0.765625)"/>
     <use xlink:href="#DejaVuSans-28" transform="translate(1481.134271 0.765625)"/>
     <use xlink:href="#DejaVuSans-34" transform="translate(1520.147943 0.765625)"/>
     <use xlink:href="#DejaVuSans-30" transform="translate(1583.77099 0.765625)"/>
     <use xlink:href="#DejaVuSans-39" transform="translate(1647.394036 0.765625)"/>
     <use xlink:href="#DejaVuSans-2f" transform="translate(1711.017083 0.765625)"/>
     <use xlink:href="#DejaVuSans-35" transform="translate(1744.70849 0.765625)"/>
     <use xlink:href="#DejaVuSans-30" transform="translate(1808.331536 0.765625)"/>
     <use xlink:href="#DejaVuSans-30" transform="translate(1871.954583 0.765625)"/>
     <use xlink:href="#DejaVuSans-20" transform="translate(1935.57763 0.765625)"/>
     <use xlink:href="#DejaVuSans-62" transform="translate(1967.36474 0.765625)"/>
     <use xlink:href="#DejaVuSans-6f" transform="translate(2030.841302 0.765625)"/>
     <use xlink:href="#DejaVuSans-75" transform="translate(2092.022943 0.765625)"/>
     <use xlink:href="#DejaVuSans-6e" transform="translate(2155.401849 0.765625)"/>
     <use xlink:href="#DejaVuSans-64" transform="translate(2218.780755 0.765625)"/>
     <use xlink:href="#DejaVuSans-2d" transform="translate(2282.257318 0.765625)"/>
     <use xlink:href="#DejaVuSans-73" transform="translate(2318.341302 0.765625)"/>
     <use xlink:href="#DejaVuSans-61" transform="translate(2370.440911 0.765625)"/>
     <use xlink:href="#DejaVuSans-74" transform="translate(2431.720208 0.765625)"/>
     <use xlink:href="#DejaVuSans-75" transform="translate(2470.929193 0.765625)"/>
     <use xlink:href="#DejaVuSans-72" transform="translate(2534.308099 0.765625)"/>
     <use xlink:href="#DejaVuSans-61" transform="translate(2575.42138 0.765625)"/>
     <use xlink:href="#DejaVuSans-74" transform="translate(2636.700677 0.765625)"/>
     <use xlink:href="#DejaVuSans-65" transform="translate(2675.909661 0.765625)"/>
     <use xlink:href="#DejaVuSans-64" transform="translate(2737.433099 0.765625)"/>
     <use xlink:href="#DejaVuSans-29" transform="translate(2800.909661 0.765625)"/>
    </g>
   </g>
   <g id="legend_1">
    <g id="patch_9">
     <path d="M 469.901719 149.179313 
L 549.740156 149.179313 
Q 551.540156 149.179313 551.540156 147.379313 
L 551.540156 106.648688 
Q 551.540156 104.848688 549.740156 104.848688 
L 469.901719 104.848688 
Q 468.101719 104.848688 468.101719 106.648688 
L 468.101719 147.379313 
Q 468.101719 149.179313 469.901719 149.179313 
z
" style="fill: #ffffff; opacity: 0.8; stroke: #cccccc; stroke-linejoin: miter"/>
    </g>
    <g id="line2d_15">
     <path d="M 471.701719 113.488688 
L 480.701719 113.488688 
L 489.701719 113.488688 
" style="fill: none; stroke: #4c72b0; stroke-width: 1.8; stroke-linecap: round"/>
     <g>
      <use xlink:href="#m6cadfdfcab" x="480.701719" y="113.488688" style="fill: #4c72b0; stroke: #4c72b0"/>
     </g>
    </g>
    <g id="text_15">
     <!-- $a_x^*$ -->
     <g style="fill: #262626" transform="translate(496.901719 116.638688) scale(0.09 -0.09)">
      <use xlink:href="#DejaVuSans-Oblique-61" transform="translate(0 0.765625)"/>
      <use xlink:href="#DejaVuSans-2a" transform="translate(79.566888 39.046875) scale(0.7)"/>
      <use xlink:href="#DejaVuSans-Oblique-78" transform="translate(61.279297 -26.578125) scale(0.7)"/>
     </g>
    </g>
    <g id="line2d_16">
     <path d="M 471.701719 127.347281 
L 480.701719 127.347281 
L 489.701719 127.347281 
" style="fill: none; stroke-dasharray: 1,1.65; stroke-dashoffset: 0; stroke: #808080; stroke-opacity: 0.5"/>
    </g>
    <g id="text_16">
     <!-- Bound = -5 -->
     <g style="fill: #262626" transform="translate(496.901719 130.497281) scale(0.09 -0.09)">
      <defs>
       <path id="DejaVuSans-3d" d="M 678 2906 
L 4684 2906 
L 4684 2381 
L 678 2381 
L 678 2906 
z
M 678 1631 
L 4684 1631 
L 4684 1100 
L 678 1100 
L 678 1631 
z
" transform="scale(0.015625)"/>
      </defs>
      <use xlink:href="#DejaVuSans-42"/>
      <use xlink:href="#DejaVuSans-6f" transform="translate(68.603516 0)"/>
      <use xlink:href="#DejaVuSans-75" transform="translate(129.785156 0)"/>
      <use xlink:href="#DejaVuSans-6e" transform="translate(193.164062 0)"/>
      <use xlink:href="#DejaVuSans-64" transform="translate(256.542969 0)"/>
      <use xlink:href="#DejaVuSans-20" transform="translate(320.019531 0)"/>
      <use xlink:href="#DejaVuSans-3d" transform="translate(351.806641 0)"/>
      <use xlink:href="#DejaVuSans-20" transform="translate(435.595703 0)"/>
      <use xlink:href="#DejaVuSans-2d" transform="translate(467.382812 0)"/>
      <use xlink:href="#DejaVuSans-35" transform="translate(503.466797 0)"/>
     </g>
    </g>
    <g id="line2d_17">
     <path d="M 471.701719 140.557594 
L 480.701719 140.557594 
L 489.701719 140.557594 
" style="fill: none; stroke-dasharray: 1,1.65; stroke-dashoffset: 0; stroke: #808080; stroke-opacity: 0.5"/>
    </g>
    <g id="text_17">
     <!-- Bound = 5 -->
     <g style="fill: #262626" transform="translate(496.901719 143.707594) scale(0.09 -0.09)">
      <use xlink:href="#DejaVuSans-42"/>
      <use xlink:href="#DejaVuSans-6f" transform="translate(68.603516 0)"/>
      <use xlink:href="#DejaVuSans-75" transform="translate(129.785156 0)"/>
      <use xlink:href="#DejaVuSans-6e" transform="translate(193.164062 0)"/>
      <use xlink:href="#DejaVuSans-64" transform="translate(256.542969 0)"/>
      <use xlink:href="#DejaVuSans-20" transform="translate(320.019531 0)"/>
      <use xlink:href="#DejaVuSans-3d" transform="translate(351.806641 0)"/>
      <use xlink:href="#DejaVuSans-20" transform="translate(435.595703 0)"/>
      <use xlink:href="#DejaVuSans-35" transform="translate(467.382812 0)"/>
     </g>
    </g>
   </g>
  </g>
 </g>
 <defs>
  <clipPath id="p01b1444095">
   <rect x="48.530156" y="24.12" width="507.51" height="205.788"/>
  </clipPath>
 </defs>
</svg>
