<?xml version="1.0" encoding="utf-8" standalone="no"?>
<!DOCTYPE svg PUBLIC "-//W3C//DTD SVG 1.1//EN"
  "http://www.w3.org/Graphics/SVG/1.1/DTD/svg11.dtd">
<svg xmlns:xlink="http://www.w3.org/1999/xlink" width="560.289437pt" height="344.938847pt" viewBox="0 0 560.289437 344.938847" xmlns="http://www.w3.org/2000/svg" version="1.1">
 <metadata>
  <rdf:RDF xmlns:dc="http://purl.org/dc/elements/1.1/" xmlns:cc="http://creativecommons.org/ns#" xmlns:rdf="http://www.w3.org/1999/02/22-rdf-syntax-ns#">
   <cc:Work>
    <dc:type rdf:resource="http://purl.org/dc/dcmitype/StillImage"/>
    <dc:date>2026-07-11T00:18:56.341931</dc:date>
    <dc:format>image/svg+xml</dc:format>
    <dc:creator>
     <cc:Agent>
      <dc:title>Matplotlib v3.10.9, https://matplotlib.org/</dc:title>
     </cc:Agent>
    </dc:creator>
   </cc:Work>
  </rdf:RDF>
 </metadata>
 <defs>
  <style type="text/css">*{stroke-linejoin: round; stroke-linecap: butt}</style>
 </defs>
 <g id="figure_1">
  <g id="patch_1">
   <path d="M 0 344.938847 
L 560.289437 344.938847 
L 560.289437 0 
L 0 0 
z
" style="fill: #ffffff"/>
  </g>
  <g id="axes_1">
   <g id="patch_2">
    <path d="M 49.953437 301.979159 
L 553.089437 301.979159 
L 553.089437 41.530187 
L 49.953437 41.530187 
z
" style="fill: #ffffff"/>
   </g>
   <g id="matplotlib.axis_1">
    <g id="xtick_1">
     <g id="line2d_1">
      <path d="M 71.90663 301.979159 
L 71.90663 41.530187 
" clip-path="url(#p0719dfaf05)" style="fill: none; stroke: #cccccc; stroke-linecap: round"/>
     </g>
     <g id="text_1">
      <!-- 0 -->
      <g style="fill: #262626" transform="translate(68.407255 319.83744) scale(0.11 -0.11)">
       <defs>
        <path id="DejaVuSans-30" d="M 2034 4250 
Q 1547 4250 1301 3770 
Q 1056 3291 1056 2328 
Q 1056 1369 1301 889 
Q 1547 409 2034 409 
Q 2525 409 2770 889 
Q 3016 1369 3016 2328 
Q 3016 3291 2770 3770 
Q 2525 4250 2034 4250 
z
M 2034 4750 
Q 2819 4750 3233 4129 
Q 3647 3509 3647 2328 
Q 3647 1150 3233 529 
Q 2819 -91 2034 -91 
Q 1250 -91 836 529 
Q 422 1150 422 2328 
Q 422 3509 836 4129 
Q 1250 4750 2034 4750 
z
" transform="scale(0.015625)"/>
       </defs>
       <use xlink:href="#DejaVuSans-30"/>
      </g>
     </g>
    </g>
    <g id="xtick_2">
     <g id="line2d_2">
      <path d="M 163.569228 301.979159 
L 163.569228 41.530187 
" clip-path="url(#p0719dfaf05)" style="fill: none; stroke: #cccccc; stroke-linecap: round"/>
     </g>
     <g id="text_2">
      <!-- 1 -->
      <g style="fill: #262626" transform="translate(160.069853 319.83744) scale(0.11 -0.11)">
       <defs>
        <path id="DejaVuSans-31" d="M 794 531 
L 1825 531 
L 1825 4091 
L 703 3866 
L 703 4441 
L 1819 4666 
L 2450 4666 
L 2450 531 
L 3481 531 
L 3481 0 
L 794 0 
L 794 531 
z
" transform="scale(0.015625)"/>
       </defs>
       <use xlink:href="#DejaVuSans-31"/>
      </g>
     </g>
    </g>
    <g id="xtick_3">
     <g id="line2d_3">
      <path d="M 255.231826 301.979159 
L 255.231826 41.530187 
" clip-path="url(#p0719dfaf05)" style="fill: none; stroke: #cccccc; stroke-linecap: round"/>
     </g>
     <g id="text_3">
      <!-- 2 -->
      <g style="fill: #262626" transform="translate(251.732451 319.83744) scale(0.11 -0.11)">
       <defs>
        <path id="DejaVuSans-32" d="M 1228 531 
L 3431 531 
L 3431 0 
L 469 0 
L 469 531 
Q 828 903 1448 1529 
Q 2069 2156 2228 2338 
Q 2531 2678 2651 2914 
Q 2772 3150 2772 3378 
Q 2772 3750 2511 3984 
Q 2250 4219 1831 4219 
Q 1534 4219 1204 4116 
Q 875 4013 500 3803 
L 500 4441 
Q 881 4594 1212 4672 
Q 1544 4750 1819 4750 
Q 2544 4750 2975 4387 
Q 3406 4025 3406 3419 
Q 3406 3131 3298 2873 
Q 3191 2616 2906 2266 
Q 2828 2175 2409 1742 
Q 1991 1309 1228 531 
z
" transform="scale(0.015625)"/>
       </defs>
       <use xlink:href="#DejaVuSans-32"/>
      </g>
     </g>
    </g>
    <g id="xtick_4">
     <g id="line2d_4">
      <path d="M 346.894423 301.979159 
L 346.894423 41.530187 
" clip-path="url(#p0719dfaf05)" style="fill: none; stroke: #cccccc; stroke-linecap: round"/>
     </g>
     <g id="text_4">
      <!-- 3 -->
      <g style="fill: #262626" transform="translate(343.395048 319.83744) scale(0.11 -0.11)">
       <defs>
        <path id="DejaVuSans-33" d="M 2597 2516 
Q 3050 2419 3304 2112 
Q 3559 1806 3559 1356 
Q 3559 666 3084 287 
Q 2609 -91 1734 -91 
Q 1441 -91 1130 -33 
Q 819 25 488 141 
L 488 750 
Q 750 597 1062 519 
Q 1375 441 1716 441 
Q 2309 441 2620 675 
Q 2931 909 2931 1356 
Q 2931 1769 2642 2001 
Q 2353 2234 1838 2234 
L 1294 2234 
L 1294 2753 
L 1863 2753 
Q 2328 2753 2575 2939 
Q 2822 3125 2822 3475 
Q 2822 3834 2567 4026 
Q 2313 4219 1838 4219 
Q 1578 4219 1281 4162 
Q 984 4106 628 3988 
L 628 4550 
Q 988 4650 1302 4700 
Q 1616 4750 1894 4750 
Q 2613 4750 3031 4423 
Q 3450 4097 3450 3541 
Q 3450 3153 3228 2886 
Q 3006 2619 2597 2516 
z
" transform="scale(0.015625)"/>
       </defs>
       <use xlink:href="#DejaVuSans-33"/>
      </g>
     </g>
    </g>
    <g id="xtick_5">
     <g id="line2d_5">
      <path d="M 438.557021 301.979159 
L 438.557021 41.530187 
" clip-path="url(#p0719dfaf05)" style="fill: none; stroke: #cccccc; stroke-linecap: round"/>
     </g>
     <g id="text_5">
      <!-- 4 -->
      <g style="fill: #262626" transform="translate(435.057646 319.83744) scale(0.11 -0.11)">
       <defs>
        <path id="DejaVuSans-34" d="M 2419 4116 
L 825 1625 
L 2419 1625 
L 2419 4116 
z
M 2253 4666 
L 3047 4666 
L 3047 1625 
L 3713 1625 
L 3713 1100 
L 3047 1100 
L 3047 0 
L 2419 0 
L 2419 1100 
L 313 1100 
L 313 1709 
L 2253 4666 
z
" transform="scale(0.015625)"/>
       </defs>
       <use xlink:href="#DejaVuSans-34"/>
      </g>
     </g>
    </g>
    <g id="xtick_6">
     <g id="line2d_6">
      <path d="M 530.219619 301.979159 
L 530.219619 41.530187 
" clip-path="url(#p0719dfaf05)" style="fill: none; stroke: #cccccc; stroke-linecap: round"/>
     </g>
     <g id="text_6">
      <!-- 5 -->
      <g style="fill: #262626" transform="translate(526.720244 319.83744) scale(0.11 -0.11)">
       <defs>
        <path id="DejaVuSans-35" d="M 691 4666 
L 3169 4666 
L 3169 4134 
L 1269 4134 
L 1269 2991 
Q 1406 3038 1543 3061 
Q 1681 3084 1819 3084 
Q 2600 3084 3056 2656 
Q 3513 2228 3513 1497 
Q 3513 744 3044 326 
Q 2575 -91 1722 -91 
Q 1428 -91 1123 -41 
Q 819 9 494 109 
L 494 744 
Q 775 591 1075 516 
Q 1375 441 1709 441 
Q 2250 441 2565 725 
Q 2881 1009 2881 1497 
Q 2881 1984 2565 2268 
Q 2250 2553 1709 2553 
Q 1456 2553 1204 2497 
Q 953 2441 691 2322 
L 691 4666 
z
" transform="scale(0.015625)"/>
       </defs>
       <use xlink:href="#DejaVuSans-35"/>
      </g>
     </g>
    </g>
    <g id="text_7">
     <!-- $\omega$ -->
     <g style="fill: #262626" transform="translate(296.481437 335.243222) scale(0.12 -0.12)">
      <defs>
       <path id="DejaVuSans-Oblique-3c9" d="M 1369 -91 
Q 72 -91 434 1766 
Q 575 2500 1256 3500 
L 1875 3500 
Q 1231 2500 1088 1750 
Q 819 397 1519 397 
Q 2166 397 2478 2078 
L 3009 2078 
Q 2669 388 3316 397 
Q 4013 403 4275 1750 
Q 4419 2500 4169 3500 
L 4788 3500 
Q 5075 2500 4934 1766 
Q 4578 -94 3278 -91 
Q 2428 -88 2503 844 
Q 2194 -91 1369 -91 
z
" transform="scale(0.015625)"/>
      </defs>
      <use xlink:href="#DejaVuSans-Oblique-3c9" transform="translate(0 0.3125)"/>
     </g>
    </g>
   </g>
   <g id="matplotlib.axis_2">
    <g id="ytick_1">
     <g id="line2d_7">
      <path d="M 49.953437 269.951642 
L 553.089437 269.951642 
" clip-path="url(#p0719dfaf05)" style="fill: none; stroke: #cccccc; stroke-linecap: round"/>
     </g>
     <g id="text_8">
      <!-- 0.9 -->
      <g style="fill: #262626" transform="translate(22.96 274.130782) scale(0.11 -0.11)">
       <defs>
        <path id="DejaVuSans-2e" d="M 684 794 
L 1344 794 
L 1344 0 
L 684 0 
L 684 794 
z
" transform="scale(0.015625)"/>
        <path id="DejaVuSans-39" d="M 703 97 
L 703 672 
Q 941 559 1184 500 
Q 1428 441 1663 441 
Q 2288 441 2617 861 
Q 2947 1281 2994 2138 
Q 2813 1869 2534 1725 
Q 2256 1581 1919 1581 
Q 1219 1581 811 2004 
Q 403 2428 403 3163 
Q 403 3881 828 4315 
Q 1253 4750 1959 4750 
Q 2769 4750 3195 4129 
Q 3622 3509 3622 2328 
Q 3622 1225 3098 567 
Q 2575 -91 1691 -91 
Q 1453 -91 1209 -44 
Q 966 3 703 97 
z
M 1959 2075 
Q 2384 2075 2632 2365 
Q 2881 2656 2881 3163 
Q 2881 3666 2632 3958 
Q 2384 4250 1959 4250 
Q 1534 4250 1286 3958 
Q 1038 3666 1038 3163 
Q 1038 2656 1286 2365 
Q 1534 2075 1959 2075 
z
" transform="scale(0.015625)"/>
       </defs>
       <use xlink:href="#DejaVuSans-30"/>
       <use xlink:href="#DejaVuSans-2e" transform="translate(63.623047 0)"/>
       <use xlink:href="#DejaVuSans-39" transform="translate(95.410156 0)"/>
      </g>
     </g>
    </g>
    <g id="ytick_2">
     <g id="line2d_8">
      <path d="M 49.953437 221.738718 
L 553.089437 221.738718 
" clip-path="url(#p0719dfaf05)" style="fill: none; stroke: #cccccc; stroke-linecap: round"/>
     </g>
     <g id="text_9">
      <!-- 1.0 -->
      <g style="fill: #262626" transform="translate(22.96 225.917859) scale(0.11 -0.11)">
       <use xlink:href="#DejaVuSans-31"/>
       <use xlink:href="#DejaVuSans-2e" transform="translate(63.623047 0)"/>
       <use xlink:href="#DejaVuSans-30" transform="translate(95.410156 0)"/>
      </g>
     </g>
    </g>
    <g id="ytick_3">
     <g id="line2d_9">
      <path d="M 49.953437 173.525795 
L 553.089437 173.525795 
" clip-path="url(#p0719dfaf05)" style="fill: none; stroke: #cccccc; stroke-linecap: round"/>
     </g>
     <g id="text_10">
      <!-- 1.1 -->
      <g style="fill: #262626" transform="translate(22.96 177.704935) scale(0.11 -0.11)">
       <use xlink:href="#DejaVuSans-31"/>
       <use xlink:href="#DejaVuSans-2e" transform="translate(63.623047 0)"/>
       <use xlink:href="#DejaVuSans-31" transform="translate(95.410156 0)"/>
      </g>
     </g>
    </g>
    <g id="ytick_4">
     <g id="line2d_10">
      <path d="M 49.953437 125.312871 
L 553.089437 125.312871 
" clip-path="url(#p0719dfaf05)" style="fill: none; stroke: #cccccc; stroke-linecap: round"/>
     </g>
     <g id="text_11">
      <!-- 1.2 -->
      <g style="fill: #262626" transform="translate(22.96 129.492012) scale(0.11 -0.11)">
       <use xlink:href="#DejaVuSans-31"/>
       <use xlink:href="#DejaVuSans-2e" transform="translate(63.623047 0)"/>
       <use xlink:href="#DejaVuSans-32" transform="translate(95.410156 0)"/>
      </g>
     </g>
    </g>
    <g id="ytick_5">
     <g id="line2d_11">
      <path d="M 49.953437 77.099948 
L 553.089437 77.099948 
" clip-path="url(#p0719dfaf05)" style="fill: none; stroke: #cccccc; stroke-linecap: round"/>
     </g>
     <g id="text_12">
      <!-- 1.3 -->
      <g style="fill: #262626" transform="translate(22.96 81.279088) scale(0.11 -0.11)">
       <use xlink:href="#DejaVuSans-31"/>
       <use xlink:href="#DejaVuSans-2e" transform="translate(63.623047 0)"/>
       <use xlink:href="#DejaVuSans-33" transform="translate(95.410156 0)"/>
      </g>
     </g>
    </g>
    <g id="text_13">
     <!-- $\mathcal{R}_{\mathrm{compound}}$ -->
     <g style="fill: #262626" transform="translate(15.24 199.354673) rotate(-90) scale(0.12 -0.12)">
      <defs>
       <path id="STIXNonUnicode-Italic-e23e" d="M 5120 826 
L 5222 710 
Q 4531 -19 3994 -19 
Q 3674 -19 3466 147 
Q 3258 314 3171 528 
Q 3085 742 2944 1046 
Q 2803 1350 2643 1536 
Q 2586 1606 2368 1734 
Q 2150 1862 2118 1862 
L 2176 2010 
Q 2963 2086 3436 2464 
Q 3910 2842 3910 3219 
Q 3910 3654 3657 3811 
Q 3405 3968 2765 3968 
Q 2605 3968 2544 3917 
Q 2483 3866 2451 3750 
L 1709 1216 
Q 1645 998 1593 857 
Q 1542 717 1433 537 
Q 1325 358 1193 252 
Q 1062 147 848 73 
Q 634 0 358 0 
L 416 154 
Q 608 154 707 314 
Q 806 474 934 902 
L 1517 2918 
Q 1709 3565 1709 3661 
Q 1709 3891 1414 3891 
Q 1254 3891 1113 3859 
Q 973 3827 845 3760 
Q 717 3693 646 3648 
Q 576 3603 467 3520 
Q 358 3437 346 3424 
L 243 3546 
Q 486 3795 723 3942 
Q 960 4090 1270 4150 
Q 1581 4211 1801 4224 
Q 2022 4237 2483 4237 
Q 3341 4237 3814 4118 
Q 4288 4000 4432 3811 
Q 4576 3622 4576 3302 
Q 4576 3110 4509 2934 
Q 4442 2758 4275 2560 
Q 4109 2362 3773 2189 
Q 3437 2016 2957 1888 
L 2957 1862 
Q 3219 1760 3382 1568 
Q 3546 1376 3610 1177 
Q 3674 979 3731 796 
Q 3789 614 3897 496 
Q 4006 378 4205 378 
Q 4659 378 5120 826 
z
" transform="scale(0.015625)"/>
       <path id="DejaVuSans-63" d="M 3122 3366 
L 3122 2828 
Q 2878 2963 2633 3030 
Q 2388 3097 2138 3097 
Q 1578 3097 1268 2742 
Q 959 2388 959 1747 
Q 959 1106 1268 751 
Q 1578 397 2138 397 
Q 2388 397 2633 464 
Q 2878 531 3122 666 
L 3122 134 
Q 2881 22 2623 -34 
Q 2366 -91 2075 -91 
Q 1284 -91 818 406 
Q 353 903 353 1747 
Q 353 2603 823 3093 
Q 1294 3584 2113 3584 
Q 2378 3584 2631 3529 
Q 2884 3475 3122 3366 
z
" transform="scale(0.015625)"/>
       <path id="DejaVuSans-6f" d="M 1959 3097 
Q 1497 3097 1228 2736 
Q 959 2375 959 1747 
Q 959 1119 1226 758 
Q 1494 397 1959 397 
Q 2419 397 2687 759 
Q 2956 1122 2956 1747 
Q 2956 2369 2687 2733 
Q 2419 3097 1959 3097 
z
M 1959 3584 
Q 2709 3584 3137 3096 
Q 3566 2609 3566 1747 
Q 3566 888 3137 398 
Q 2709 -91 1959 -91 
Q 1206 -91 779 398 
Q 353 888 353 1747 
Q 353 2609 779 3096 
Q 1206 3584 1959 3584 
z
" transform="scale(0.015625)"/>
       <path id="DejaVuSans-6d" d="M 3328 2828 
Q 3544 3216 3844 3400 
Q 4144 3584 4550 3584 
Q 5097 3584 5394 3201 
Q 5691 2819 5691 2113 
L 5691 0 
L 5113 0 
L 5113 2094 
Q 5113 2597 4934 2840 
Q 4756 3084 4391 3084 
Q 3944 3084 3684 2787 
Q 3425 2491 3425 1978 
L 3425 0 
L 2847 0 
L 2847 2094 
Q 2847 2600 2669 2842 
Q 2491 3084 2119 3084 
Q 1678 3084 1418 2786 
Q 1159 2488 1159 1978 
L 1159 0 
L 581 0 
L 581 3500 
L 1159 3500 
L 1159 2956 
Q 1356 3278 1631 3431 
Q 1906 3584 2284 3584 
Q 2666 3584 2933 3390 
Q 3200 3197 3328 2828 
z
" transform="scale(0.015625)"/>
       <path id="DejaVuSans-70" d="M 1159 525 
L 1159 -1331 
L 581 -1331 
L 581 3500 
L 1159 3500 
L 1159 2969 
Q 1341 3281 1617 3432 
Q 1894 3584 2278 3584 
Q 2916 3584 3314 3078 
Q 3713 2572 3713 1747 
Q 3713 922 3314 415 
Q 2916 -91 2278 -91 
Q 1894 -91 1617 61 
Q 1341 213 1159 525 
z
M 3116 1747 
Q 3116 2381 2855 2742 
Q 2594 3103 2138 3103 
Q 1681 3103 1420 2742 
Q 1159 2381 1159 1747 
Q 1159 1113 1420 752 
Q 1681 391 2138 391 
Q 2594 391 2855 752 
Q 3116 1113 3116 1747 
z
" transform="scale(0.015625)"/>
       <path id="DejaVuSans-75" d="M 544 1381 
L 544 3500 
L 1119 3500 
L 1119 1403 
Q 1119 906 1312 657 
Q 1506 409 1894 409 
Q 2359 409 2629 706 
Q 2900 1003 2900 1516 
L 2900 3500 
L 3475 3500 
L 3475 0 
L 2900 0 
L 2900 538 
Q 2691 219 2414 64 
Q 2138 -91 1772 -91 
Q 1169 -91 856 284 
Q 544 659 544 1381 
z
M 1991 3584 
L 1991 3584 
z
" transform="scale(0.015625)"/>
       <path id="DejaVuSans-6e" d="M 3513 2113 
L 3513 0 
L 2938 0 
L 2938 2094 
Q 2938 2591 2744 2837 
Q 2550 3084 2163 3084 
Q 1697 3084 1428 2787 
Q 1159 2491 1159 1978 
L 1159 0 
L 581 0 
L 581 3500 
L 1159 3500 
L 1159 2956 
Q 1366 3272 1645 3428 
Q 1925 3584 2291 3584 
Q 2894 3584 3203 3211 
Q 3513 2838 3513 2113 
z
" transform="scale(0.015625)"/>
       <path id="DejaVuSans-64" d="M 2906 2969 
L 2906 4863 
L 3481 4863 
L 3481 0 
L 2906 0 
L 2906 525 
Q 2725 213 2448 61 
Q 2172 -91 1784 -91 
Q 1150 -91 751 415 
Q 353 922 353 1747 
Q 353 2572 751 3078 
Q 1150 3584 1784 3584 
Q 2172 3584 2448 3432 
Q 2725 3281 2906 2969 
z
M 947 1747 
Q 947 1113 1208 752 
Q 1469 391 1925 391 
Q 2381 391 2643 752 
Q 2906 1113 2906 1747 
Q 2906 2381 2643 2742 
Q 2381 3103 1925 3103 
Q 1469 3103 1208 2742 
Q 947 2381 947 1747 
z
" transform="scale(0.015625)"/>
      </defs>
      <use xlink:href="#STIXNonUnicode-Italic-e23e" transform="translate(0 0.796875)"/>
      <use xlink:href="#DejaVuSans-63" transform="translate(86.357025 -15.609375) scale(0.7)"/>
      <use xlink:href="#DejaVuSans-6f" transform="translate(124.843353 -15.609375) scale(0.7)"/>
      <use xlink:href="#DejaVuSans-6d" transform="translate(167.670502 -15.609375) scale(0.7)"/>
      <use xlink:href="#DejaVuSans-70" transform="translate(235.858978 -15.609375) scale(0.7)"/>
      <use xlink:href="#DejaVuSans-6f" transform="translate(280.292572 -15.609375) scale(0.7)"/>
      <use xlink:href="#DejaVuSans-75" transform="translate(323.11972 -15.609375) scale(0.7)"/>
      <use xlink:href="#DejaVuSans-6e" transform="translate(367.484955 -15.609375) scale(0.7)"/>
      <use xlink:href="#DejaVuSans-64" transform="translate(411.850189 -15.609375) scale(0.7)"/>
     </g>
    </g>
   </g>
   <g id="line2d_12">
    <path d="M 72.823256 53.368776 
L 73.739882 99.032299 
L 75.573134 178.071702 
L 76.48976 104.19787 
L 77.406386 85.276688 
L 79.239638 189.369942 
L 80.156264 147.26104 
L 81.072889 168.824573 
L 81.989515 179.358387 
L 82.906141 120.464897 
L 83.822767 96.234128 
L 84.739393 88.325715 
L 85.656019 172.117859 
L 86.572645 178.169399 
L 87.489271 181.915177 
L 88.405897 150.819401 
L 89.322523 174.901391 
L 90.239149 107.634558 
L 92.072401 139.324094 
L 92.989027 147.197213 
L 93.905653 157.830664 
L 94.822279 207.751958 
L 96.655531 182.734668 
L 97.572157 120.939782 
L 98.488783 135.029098 
L 99.405409 158.9435 
L 100.322035 133.213741 
L 101.238661 218.155825 
L 102.155287 219.852695 
L 103.988539 172.343006 
L 104.905165 133.584013 
L 105.821791 139.826143 
L 106.738417 203.716433 
L 107.655043 139.983109 
L 108.571669 164.441292 
L 109.488295 203.512857 
L 110.404921 220.861105 
L 111.321547 230.607681 
L 112.238173 237.799175 
L 113.154799 139.706302 
L 114.071425 184.200309 
L 114.988051 146.333483 
L 115.904677 158.798287 
L 116.821303 188.671504 
L 117.737929 195.209838 
L 118.654555 255.450307 
L 119.571181 209.174745 
L 120.487807 222.859637 
L 121.404433 162.357621 
L 122.321059 208.491959 
L 123.237685 201.922748 
L 124.154311 205.288595 
L 125.070936 226.492203 
L 125.987562 221.156034 
L 126.904188 196.989853 
L 127.820814 198.929185 
L 128.73744 225.733153 
L 129.654066 189.878361 
L 130.570692 207.723289 
L 131.487318 240.36298 
L 132.403944 160.851443 
L 134.237196 197.232255 
L 135.153822 198.535663 
L 136.070448 191.171606 
L 136.987074 207.933805 
L 137.9037 166.109736 
L 138.820326 184.348077 
L 139.736952 231.265335 
L 140.653578 191.599625 
L 141.570204 237.70395 
L 142.48683 197.076635 
L 143.403456 245.77714 
L 144.320082 211.638315 
L 145.236708 207.947195 
L 146.153334 242.031284 
L 147.06996 202.433571 
L 147.986586 198.586812 
L 148.903212 214.627518 
L 149.819838 240.82705 
L 150.736464 232.605494 
L 151.65309 213.964938 
L 152.569716 239.983387 
L 153.486342 237.357599 
L 154.402968 196.136343 
L 155.319594 231.087981 
L 156.23622 219.355769 
L 157.152846 231.711858 
L 158.069472 222.601602 
L 158.986098 225.979116 
L 160.81935 256.976785 
L 161.735976 242.537693 
L 162.652602 235.436927 
L 163.569228 207.097508 
L 164.485854 197.504461 
L 165.40248 238.408139 
L 166.319106 227.02092 
L 167.235732 242.854435 
L 168.152358 235.722164 
L 169.068984 222.773145 
L 169.985609 229.369929 
L 170.902235 253.103419 
L 171.818861 226.804711 
L 172.735487 237.817954 
L 173.652113 226.018398 
L 174.568739 221.102996 
L 175.485365 194.74885 
L 176.401991 241.21459 
L 177.318617 268.318929 
L 178.235243 227.470223 
L 179.151869 203.954151 
L 180.068495 233.793475 
L 180.985121 251.693952 
L 181.901747 242.9456 
L 182.818373 252.529798 
L 183.734999 236.170272 
L 184.651625 240.240905 
L 185.568251 238.046919 
L 186.484877 241.857725 
L 187.401503 192.313111 
L 188.318129 252.992231 
L 189.234755 214.328958 
L 190.151381 257.381205 
L 191.068007 247.501118 
L 191.984633 265.555662 
L 192.901259 253.44487 
L 193.817885 243.791291 
L 194.734511 255.17653 
L 195.651137 231.739406 
L 196.567763 243.525304 
L 197.484389 213.396825 
L 198.401015 253.999694 
L 199.317641 253.012532 
L 200.234267 249.950862 
L 201.150893 251.565721 
L 202.067519 252.167377 
L 202.984145 225.850256 
L 203.900771 241.494278 
L 204.817397 260.62156 
L 205.734023 241.325987 
L 206.650649 255.566448 
L 208.483901 267.867525 
L 209.400527 267.152631 
L 210.317153 257.37846 
L 211.233779 227.965153 
L 212.150405 202.273015 
L 213.067031 264.498681 
L 213.983656 207.515182 
L 214.900282 267.849968 
L 215.816908 246.904717 
L 216.733534 235.850914 
L 217.65016 257.87511 
L 218.566786 263.427859 
L 219.483412 209.472544 
L 220.400038 202.298042 
L 221.316664 233.673605 
L 222.23329 238.350047 
L 223.149916 242.109212 
L 224.983168 251.857254 
L 225.899794 209.696832 
L 226.81642 249.07732 
L 227.733046 259.231548 
L 228.649672 262.797323 
L 229.566298 253.101038 
L 230.482924 237.873564 
L 231.39955 263.246189 
L 232.316176 250.415849 
L 233.232802 201.388002 
L 234.149428 270.547327 
L 235.066054 208.572766 
L 235.98268 257.419869 
L 236.899306 236.563358 
L 237.815932 240.593924 
L 238.732558 255.64908 
L 239.649184 249.537339 
L 240.56581 258.744477 
L 241.482436 229.210302 
L 242.399062 239.727075 
L 243.315688 270.381229 
L 244.232314 253.173468 
L 245.14894 265.869064 
L 246.065566 254.559065 
L 246.982192 200.941866 
L 247.898818 211.439288 
L 248.815444 256.325128 
L 249.73207 271.607267 
L 250.648696 264.387511 
L 251.565322 240.991855 
L 252.481948 277.224355 
L 253.398574 240.188535 
L 254.3152 245.53047 
L 255.231826 221.405252 
L 256.148452 260.805724 
L 257.065078 260.566672 
L 257.981703 240.626535 
L 258.898329 261.048716 
L 259.814955 244.444908 
L 260.731581 203.396762 
L 261.648207 268.820628 
L 263.481459 247.395773 
L 264.398085 253.328151 
L 265.314711 261.733368 
L 266.231337 250.507279 
L 267.147963 221.238363 
L 268.064589 214.409862 
L 268.981215 266.805245 
L 269.897841 265.494308 
L 270.814467 260.062388 
L 271.731093 250.335785 
L 272.647719 254.880198 
L 273.564345 212.328089 
L 274.480971 260.597387 
L 275.397597 245.660522 
L 276.314223 277.557414 
L 277.230849 243.157378 
L 278.147475 244.980503 
L 279.064101 245.377547 
L 279.980727 250.129591 
L 280.897353 219.60184 
L 281.813979 262.238497 
L 282.730605 265.457624 
L 283.647231 257.733306 
L 284.563857 222.773928 
L 285.480483 244.318405 
L 286.397109 253.155412 
L 287.313735 270.591388 
L 288.230361 285.906749 
L 289.146987 255.036959 
L 290.063613 268.886576 
L 290.980239 267.214883 
L 291.896865 266.983516 
L 292.813491 226.402718 
L 293.730117 250.59606 
L 294.646743 193.241226 
L 295.563369 261.579221 
L 296.479995 250.920408 
L 298.313247 221.774711 
L 299.229873 236.341969 
L 301.063125 271.626159 
L 301.97975 227.348506 
L 302.896376 235.142396 
L 303.813002 264.314481 
L 304.729628 217.479684 
L 305.646254 249.510862 
L 306.56288 258.698423 
L 307.479506 212.385637 
L 308.396132 238.478036 
L 309.312758 271.583934 
L 310.229384 258.704963 
L 311.14601 268.126192 
L 312.062636 255.525414 
L 312.979262 245.230885 
L 313.895888 256.237165 
L 314.812514 250.833631 
L 315.72914 246.142816 
L 316.645766 206.883136 
L 317.562392 271.249651 
L 318.479018 261.087799 
L 319.395644 230.900109 
L 320.31227 235.403373 
L 321.228896 290.14057 
L 322.145522 262.11871 
L 323.062148 256.943504 
L 323.978774 239.646152 
L 324.8954 275.068123 
L 325.812026 259.248645 
L 326.728652 264.216965 
L 327.645278 209.519598 
L 328.561904 264.250557 
L 329.47853 256.102883 
L 330.395156 232.93185 
L 332.228408 280.061005 
L 333.145034 266.463771 
L 334.06166 257.442225 
L 334.978286 212.115649 
L 335.894912 234.969226 
L 336.811538 251.579 
L 337.728164 281.978259 
L 338.64479 261.529468 
L 339.561416 289.468989 
L 340.478042 267.374713 
L 341.394668 241.026288 
L 342.311294 252.044478 
L 343.22792 226.12959 
L 344.144546 260.784812 
L 345.061172 248.273601 
L 345.977797 274.019432 
L 346.894423 257.684565 
L 347.811049 280.514043 
L 348.727675 252.622715 
L 349.644301 274.666915 
L 350.560927 213.692726 
L 351.477553 274.531543 
L 352.394179 251.741669 
L 353.310805 218.992477 
L 354.227431 249.871002 
L 355.144057 250.17749 
L 356.060683 258.953008 
L 356.977309 233.380013 
L 357.893935 240.858942 
L 358.810561 227.310394 
L 359.727187 287.793958 
L 360.643813 249.445314 
L 361.560439 259.937636 
L 362.477065 262.979768 
L 363.393691 220.753436 
L 364.310317 274.481339 
L 365.226943 213.863753 
L 366.143569 265.72954 
L 367.060195 278.492826 
L 367.976821 251.315671 
L 368.893447 262.564721 
L 369.810073 254.849796 
L 370.726699 279.156071 
L 371.643325 216.710795 
L 372.559951 270.538012 
L 373.476577 267.88138 
L 374.393203 237.367951 
L 375.309829 271.05863 
L 376.226455 270.376829 
L 377.143081 264.701715 
L 378.059707 288.012448 
L 378.976333 260.175337 
L 379.892959 259.923052 
L 380.809585 284.988096 
L 381.726211 279.707533 
L 382.642837 269.648502 
L 383.559463 217.220352 
L 384.476089 263.453134 
L 385.392715 281.254232 
L 386.309341 247.814204 
L 387.225967 222.05108 
L 388.142593 271.031655 
L 389.059219 254.744379 
L 389.975844 241.944792 
L 390.89247 250.674916 
L 391.809096 252.621083 
L 392.725722 272.092993 
L 393.642348 266.801077 
L 394.558974 213.616037 
L 395.4756 226.256876 
L 396.392226 254.301933 
L 397.308852 265.697977 
L 398.225478 274.770211 
L 399.142104 267.300728 
L 400.05873 220.406532 
L 400.975356 254.659105 
L 401.891982 276.953284 
L 402.808608 271.703193 
L 403.725234 282.539134 
L 404.64186 255.926416 
L 405.558486 276.141939 
L 406.475112 222.395569 
L 407.391738 198.177538 
L 408.308364 267.176035 
L 409.22499 270.628292 
L 410.141616 282.668497 
L 411.058242 242.861064 
L 411.974868 242.912827 
L 412.891494 264.309453 
L 413.80812 280.325557 
L 414.724746 286.285295 
L 415.641372 237.421477 
L 416.557998 284.626314 
L 417.474624 272.566703 
L 418.39125 269.836698 
L 419.307876 288.723341 
L 420.224502 261.439103 
L 421.141128 212.768163 
L 422.057754 288.098924 
L 422.97438 254.57283 
L 423.891006 268.866822 
L 424.807632 264.029979 
L 425.724258 275.328285 
L 426.640884 213.847414 
L 427.55751 247.567309 
L 428.474136 259.796763 
L 429.390762 235.417025 
L 430.307388 254.884205 
L 431.224014 255.362483 
L 432.14064 215.933937 
L 433.057266 221.977676 
L 433.973891 257.102436 
L 434.890517 227.153515 
L 435.807143 264.371641 
L 436.723769 248.39406 
L 437.640395 282.679456 
L 438.557021 253.302974 
L 439.473647 285.033031 
L 440.390273 238.275518 
L 441.306899 267.628576 
L 442.223525 265.754333 
L 443.140151 215.466468 
L 444.056777 281.182049 
L 444.973403 251.449482 
L 445.890029 254.630008 
L 446.806655 272.850369 
L 447.723281 249.731835 
L 448.639907 235.740484 
L 449.556533 252.854549 
L 450.473159 253.316959 
L 451.389785 274.600091 
L 452.306411 255.837012 
L 453.223037 269.759539 
L 454.139663 262.298454 
L 455.056289 262.963066 
L 455.972915 276.919538 
L 456.889541 255.927293 
L 457.806167 282.620456 
L 458.722793 237.744223 
L 459.639419 252.152996 
L 460.556045 270.716368 
L 461.472671 261.811281 
L 462.389297 260.605784 
L 463.305923 230.564821 
L 464.222549 263.266115 
L 465.139175 260.660546 
L 466.055801 265.903942 
L 466.972427 231.85565 
L 467.889053 281.762929 
L 468.805679 257.911744 
L 469.722305 221.265051 
L 470.638931 264.905264 
L 471.555557 274.269121 
L 472.472183 262.647158 
L 473.388809 241.893018 
L 474.305435 256.513341 
L 475.222061 252.1473 
L 476.138687 254.307497 
L 477.055313 267.926561 
L 477.971939 277.73162 
L 478.888564 251.308893 
L 479.80519 260.488507 
L 480.721816 276.86539 
L 481.638442 221.328258 
L 482.555068 257.275491 
L 483.471694 276.23311 
L 484.38832 259.861734 
L 485.304946 289.570904 
L 486.221572 270.098639 
L 487.138198 276.919358 
L 488.054824 244.998346 
L 488.97145 266.581587 
L 489.888076 255.452052 
L 490.804702 276.285208 
L 491.721328 271.394126 
L 492.637954 238.43943 
L 493.55458 272.532901 
L 495.387832 256.603883 
L 496.304458 250.804723 
L 497.221084 262.064629 
L 499.054336 244.863626 
L 499.970962 257.756632 
L 500.887588 256.659664 
L 501.804214 246.589493 
L 502.72084 254.604401 
L 503.637466 239.973708 
L 504.554092 216.625462 
L 505.470718 265.445416 
L 506.387344 272.945129 
L 507.30397 251.764172 
L 508.220596 277.81335 
L 509.137222 272.010614 
L 510.053848 282.454381 
L 510.970474 282.926916 
L 511.8871 278.498724 
L 512.803726 232.253413 
L 513.720352 250.44498 
L 514.636978 264.685991 
L 515.553604 228.082727 
L 516.47023 243.513346 
L 517.386856 277.155315 
L 518.303482 222.179898 
L 519.220108 269.309571 
L 520.136734 215.406515 
L 521.05336 261.489501 
L 521.969986 251.770067 
L 522.886611 218.213666 
L 523.803237 232.415513 
L 524.719863 275.860289 
L 525.636489 255.251717 
L 526.553115 280.472257 
L 527.469741 281.022619 
L 528.386367 245.911113 
L 529.302993 248.781664 
L 530.219619 261.403995 
L 530.219619 261.403995 
" clip-path="url(#p0719dfaf05)" style="fill: none; stroke: #4c72b0; stroke-width: 2; stroke-linecap: round"/>
    <defs>
     <path id="m8107093802" d="M 0 2 
C 0.530406 2 1.03916 1.789267 1.414214 1.414214 
C 1.789267 1.03916 2 0.530406 2 0 
C 2 -0.530406 1.789267 -1.03916 1.414214 -1.414214 
C 1.03916 -1.789267 0.530406 -2 0 -2 
C -0.530406 -2 -1.03916 -1.789267 -1.414214 -1.414214 
C -1.789267 -1.03916 -2 -0.530406 -2 0 
C -2 0.530406 -1.789267 1.03916 -1.414214 1.414214 
C -1.03916 1.789267 -0.530406 2 0 2 
z
" style="stroke: #4c72b0"/>
    </defs>
    <g clip-path="url(#p0719dfaf05)">
     <use xlink:href="#m8107093802" x="72.823256" y="53.368776" style="fill: #4c72b0; stroke: #4c72b0"/>
     <use xlink:href="#m8107093802" x="87.489271" y="181.915177" style="fill: #4c72b0; stroke: #4c72b0"/>
     <use xlink:href="#m8107093802" x="102.155287" y="219.852695" style="fill: #4c72b0; stroke: #4c72b0"/>
     <use xlink:href="#m8107093802" x="116.821303" y="188.671504" style="fill: #4c72b0; stroke: #4c72b0"/>
     <use xlink:href="#m8107093802" x="131.487318" y="240.36298" style="fill: #4c72b0; stroke: #4c72b0"/>
     <use xlink:href="#m8107093802" x="146.153334" y="242.031284" style="fill: #4c72b0; stroke: #4c72b0"/>
     <use xlink:href="#m8107093802" x="160.81935" y="256.976785" style="fill: #4c72b0; stroke: #4c72b0"/>
     <use xlink:href="#m8107093802" x="175.485365" y="194.74885" style="fill: #4c72b0; stroke: #4c72b0"/>
     <use xlink:href="#m8107093802" x="190.151381" y="257.381205" style="fill: #4c72b0; stroke: #4c72b0"/>
     <use xlink:href="#m8107093802" x="204.817397" y="260.62156" style="fill: #4c72b0; stroke: #4c72b0"/>
     <use xlink:href="#m8107093802" x="219.483412" y="209.472544" style="fill: #4c72b0; stroke: #4c72b0"/>
     <use xlink:href="#m8107093802" x="234.149428" y="270.547327" style="fill: #4c72b0; stroke: #4c72b0"/>
     <use xlink:href="#m8107093802" x="248.815444" y="256.325128" style="fill: #4c72b0; stroke: #4c72b0"/>
     <use xlink:href="#m8107093802" x="263.481459" y="247.395773" style="fill: #4c72b0; stroke: #4c72b0"/>
     <use xlink:href="#m8107093802" x="278.147475" y="244.980503" style="fill: #4c72b0; stroke: #4c72b0"/>
     <use xlink:href="#m8107093802" x="292.813491" y="226.402718" style="fill: #4c72b0; stroke: #4c72b0"/>
     <use xlink:href="#m8107093802" x="307.479506" y="212.385637" style="fill: #4c72b0; stroke: #4c72b0"/>
     <use xlink:href="#m8107093802" x="322.145522" y="262.11871" style="fill: #4c72b0; stroke: #4c72b0"/>
     <use xlink:href="#m8107093802" x="336.811538" y="251.579" style="fill: #4c72b0; stroke: #4c72b0"/>
     <use xlink:href="#m8107093802" x="351.477553" y="274.531543" style="fill: #4c72b0; stroke: #4c72b0"/>
     <use xlink:href="#m8107093802" x="366.143569" y="265.72954" style="fill: #4c72b0; stroke: #4c72b0"/>
     <use xlink:href="#m8107093802" x="380.809585" y="284.988096" style="fill: #4c72b0; stroke: #4c72b0"/>
     <use xlink:href="#m8107093802" x="395.4756" y="226.256876" style="fill: #4c72b0; stroke: #4c72b0"/>
     <use xlink:href="#m8107093802" x="410.141616" y="282.668497" style="fill: #4c72b0; stroke: #4c72b0"/>
     <use xlink:href="#m8107093802" x="424.807632" y="264.029979" style="fill: #4c72b0; stroke: #4c72b0"/>
     <use xlink:href="#m8107093802" x="439.473647" y="285.033031" style="fill: #4c72b0; stroke: #4c72b0"/>
     <use xlink:href="#m8107093802" x="454.139663" y="262.298454" style="fill: #4c72b0; stroke: #4c72b0"/>
     <use xlink:href="#m8107093802" x="468.805679" y="257.911744" style="fill: #4c72b0; stroke: #4c72b0"/>
     <use xlink:href="#m8107093802" x="483.471694" y="276.23311" style="fill: #4c72b0; stroke: #4c72b0"/>
     <use xlink:href="#m8107093802" x="498.13771" y="253.770367" style="fill: #4c72b0; stroke: #4c72b0"/>
     <use xlink:href="#m8107093802" x="512.803726" y="232.253413" style="fill: #4c72b0; stroke: #4c72b0"/>
     <use xlink:href="#m8107093802" x="527.469741" y="281.022619" style="fill: #4c72b0; stroke: #4c72b0"/>
    </g>
   </g>
   <g id="line2d_13">
    <path d="M 49.953437 221.738718 
L 553.089437 221.738718 
" clip-path="url(#p0719dfaf05)" style="fill: none; stroke-dasharray: 5.55,2.4; stroke-dashoffset: 0; stroke: #808080; stroke-opacity: 0.7; stroke-width: 1.5"/>
   </g>
   <g id="patch_3">
    <path d="M 49.953437 301.979159 
L 49.953437 41.530187 
" style="fill: none; stroke: #cccccc; stroke-width: 1.25; stroke-linejoin: miter; stroke-linecap: square"/>
   </g>
   <g id="patch_4">
    <path d="M 553.089437 301.979159 
L 553.089437 41.530187 
" style="fill: none; stroke: #cccccc; stroke-width: 1.25; stroke-linejoin: miter; stroke-linecap: square"/>
   </g>
   <g id="patch_5">
    <path d="M 49.953438 301.979159 
L 553.089438 301.979159 
" style="fill: none; stroke: #cccccc; stroke-width: 1.25; stroke-linejoin: miter; stroke-linecap: square"/>
   </g>
   <g id="patch_6">
    <path d="M 49.953438 41.530187 
L 553.089438 41.530187 
" style="fill: none; stroke: #cccccc; stroke-width: 1.25; stroke-linejoin: miter; stroke-linecap: square"/>
   </g>
   <g id="patch_7">
    <path d="M 168.913485 21.014718 
Q 121.817015 36.872334 75.992045 52.301829 
" style="fill: none; stroke: #000000; stroke-width: 1.2; stroke-linecap: round"/>
    <path d="M 80.421131 52.920861 
L 75.992045 52.301829 
L 79.144722 49.12998 
" style="fill: none; stroke: #000000; stroke-width: 1.2; stroke-linecap: round"/>
   </g>
   <g id="text_14">
    <g id="patch_8">
     <path d="M 127.820814 19.878125 
L 263.320814 19.878125 
Q 266.320814 19.878125 266.320814 16.878125 
L 266.320814 7.2 
Q 266.320814 4.2 263.320814 4.2 
L 127.820814 4.2 
Q 124.820814 4.2 124.820814 7.2 
L 124.820814 16.878125 
Q 124.820814 19.878125 127.820814 19.878125 
z
" style="fill: #ffffff; stroke: #808080; stroke-linejoin: miter"/>
    </g>
    <!-- Best = 1.3492$\times$ at $\omega$=0.01 -->
    <g style="fill: #262626" transform="translate(127.820814 14.798437) scale(0.1 -0.1)">
     <defs>
      <path id="DejaVuSans-42" d="M 1259 2228 
L 1259 519 
L 2272 519 
Q 2781 519 3026 730 
Q 3272 941 3272 1375 
Q 3272 1813 3026 2020 
Q 2781 2228 2272 2228 
L 1259 2228 
z
M 1259 4147 
L 1259 2741 
L 2194 2741 
Q 2656 2741 2882 2914 
Q 3109 3088 3109 3444 
Q 3109 3797 2882 3972 
Q 2656 4147 2194 4147 
L 1259 4147 
z
M 628 4666 
L 2241 4666 
Q 2963 4666 3353 4366 
Q 3744 4066 3744 3513 
Q 3744 3084 3544 2831 
Q 3344 2578 2956 2516 
Q 3422 2416 3680 2098 
Q 3938 1781 3938 1306 
Q 3938 681 3513 340 
Q 3088 0 2303 0 
L 628 0 
L 628 4666 
z
" transform="scale(0.015625)"/>
      <path id="DejaVuSans-65" d="M 3597 1894 
L 3597 1613 
L 953 1613 
Q 991 1019 1311 708 
Q 1631 397 2203 397 
Q 2534 397 2845 478 
Q 3156 559 3463 722 
L 3463 178 
Q 3153 47 2828 -22 
Q 2503 -91 2169 -91 
Q 1331 -91 842 396 
Q 353 884 353 1716 
Q 353 2575 817 3079 
Q 1281 3584 2069 3584 
Q 2775 3584 3186 3129 
Q 3597 2675 3597 1894 
z
M 3022 2063 
Q 3016 2534 2758 2815 
Q 2500 3097 2075 3097 
Q 1594 3097 1305 2825 
Q 1016 2553 972 2059 
L 3022 2063 
z
" transform="scale(0.015625)"/>
      <path id="DejaVuSans-73" d="M 2834 3397 
L 2834 2853 
Q 2591 2978 2328 3040 
Q 2066 3103 1784 3103 
Q 1356 3103 1142 2972 
Q 928 2841 928 2578 
Q 928 2378 1081 2264 
Q 1234 2150 1697 2047 
L 1894 2003 
Q 2506 1872 2764 1633 
Q 3022 1394 3022 966 
Q 3022 478 2636 193 
Q 2250 -91 1575 -91 
Q 1294 -91 989 -36 
Q 684 19 347 128 
L 347 722 
Q 666 556 975 473 
Q 1284 391 1588 391 
Q 1994 391 2212 530 
Q 2431 669 2431 922 
Q 2431 1156 2273 1281 
Q 2116 1406 1581 1522 
L 1381 1569 
Q 847 1681 609 1914 
Q 372 2147 372 2553 
Q 372 3047 722 3315 
Q 1072 3584 1716 3584 
Q 2034 3584 2315 3537 
Q 2597 3491 2834 3397 
z
" transform="scale(0.015625)"/>
      <path id="DejaVuSans-74" d="M 1172 4494 
L 1172 3500 
L 2356 3500 
L 2356 3053 
L 1172 3053 
L 1172 1153 
Q 1172 725 1289 603 
Q 1406 481 1766 481 
L 2356 481 
L 2356 0 
L 1766 0 
Q 1100 0 847 248 
Q 594 497 594 1153 
L 594 3053 
L 172 3053 
L 172 3500 
L 594 3500 
L 594 4494 
L 1172 4494 
z
" transform="scale(0.015625)"/>
      <path id="DejaVuSans-20" transform="scale(0.015625)"/>
      <path id="DejaVuSans-3d" d="M 678 2906 
L 4684 2906 
L 4684 2381 
L 678 2381 
L 678 2906 
z
M 678 1631 
L 4684 1631 
L 4684 1100 
L 678 1100 
L 678 1631 
z
" transform="scale(0.015625)"/>
      <path id="DejaVuSans-d7" d="M 4488 3438 
L 3059 2003 
L 4488 575 
L 4116 197 
L 2681 1631 
L 1247 197 
L 878 575 
L 2303 2003 
L 878 3438 
L 1247 3816 
L 2681 2381 
L 4116 3816 
L 4488 3438 
z
" transform="scale(0.015625)"/>
      <path id="DejaVuSans-61" d="M 2194 1759 
Q 1497 1759 1228 1600 
Q 959 1441 959 1056 
Q 959 750 1161 570 
Q 1363 391 1709 391 
Q 2188 391 2477 730 
Q 2766 1069 2766 1631 
L 2766 1759 
L 2194 1759 
z
M 3341 1997 
L 3341 0 
L 2766 0 
L 2766 531 
Q 2569 213 2275 61 
Q 1981 -91 1556 -91 
Q 1019 -91 701 211 
Q 384 513 384 1019 
Q 384 1609 779 1909 
Q 1175 2209 1959 2209 
L 2766 2209 
L 2766 2266 
Q 2766 2663 2505 2880 
Q 2244 3097 1772 3097 
Q 1472 3097 1187 3025 
Q 903 2953 641 2809 
L 641 3341 
Q 956 3463 1253 3523 
Q 1550 3584 1831 3584 
Q 2591 3584 2966 3190 
Q 3341 2797 3341 1997 
z
" transform="scale(0.015625)"/>
     </defs>
     <use xlink:href="#DejaVuSans-42" transform="translate(0 0.78125)"/>
     <use xlink:href="#DejaVuSans-65" transform="translate(68.603516 0.78125)"/>
     <use xlink:href="#DejaVuSans-73" transform="translate(130.126953 0.78125)"/>
     <use xlink:href="#DejaVuSans-74" transform="translate(182.226562 0.78125)"/>
     <use xlink:href="#DejaVuSans-20" transform="translate(221.435547 0.78125)"/>
     <use xlink:href="#DejaVuSans-3d" transform="translate(253.222656 0.78125)"/>
     <use xlink:href="#DejaVuSans-20" transform="translate(337.011719 0.78125)"/>
     <use xlink:href="#DejaVuSans-31" transform="translate(368.798828 0.78125)"/>
     <use xlink:href="#DejaVuSans-2e" transform="translate(432.421875 0.78125)"/>
     <use xlink:href="#DejaVuSans-33" transform="translate(464.208984 0.78125)"/>
     <use xlink:href="#DejaVuSans-34" transform="translate(527.832031 0.78125)"/>
     <use xlink:href="#DejaVuSans-39" transform="translate(591.455078 0.78125)"/>
     <use xlink:href="#DejaVuSans-32" transform="translate(653.328125 0.78125)"/>
     <use xlink:href="#DejaVuSans-d7" transform="translate(716.951172 0.78125)"/>
     <use xlink:href="#DejaVuSans-20" transform="translate(800.740234 0.78125)"/>
     <use xlink:href="#DejaVuSans-61" transform="translate(832.527344 0.78125)"/>
     <use xlink:href="#DejaVuSans-74" transform="translate(893.806641 0.78125)"/>
     <use xlink:href="#DejaVuSans-20" transform="translate(933.015625 0.78125)"/>
     <use xlink:href="#DejaVuSans-Oblique-3c9" transform="translate(964.802734 0.78125)"/>
     <use xlink:href="#DejaVuSans-3d" transform="translate(1048.542969 0.78125)"/>
     <use xlink:href="#DejaVuSans-30" transform="translate(1132.332031 0.78125)"/>
     <use xlink:href="#DejaVuSans-2e" transform="translate(1195.955078 0.78125)"/>
     <use xlink:href="#DejaVuSans-30" transform="translate(1227.742188 0.78125)"/>
     <use xlink:href="#DejaVuSans-31" transform="translate(1291.365234 0.78125)"/>
    </g>
   </g>
   <g id="text_15">
    <!-- Symmetric $\omega$-Modulated Drive: Scenario A vs Scenario B -->
    <g style="fill: #262626" transform="translate(131.661437 35.530187) scale(0.12 -0.12)">
     <defs>
      <path id="DejaVuSans-53" d="M 3425 4513 
L 3425 3897 
Q 3066 4069 2747 4153 
Q 2428 4238 2131 4238 
Q 1616 4238 1336 4038 
Q 1056 3838 1056 3469 
Q 1056 3159 1242 3001 
Q 1428 2844 1947 2747 
L 2328 2669 
Q 3034 2534 3370 2195 
Q 3706 1856 3706 1288 
Q 3706 609 3251 259 
Q 2797 -91 1919 -91 
Q 1588 -91 1214 -16 
Q 841 59 441 206 
L 441 856 
Q 825 641 1194 531 
Q 1563 422 1919 422 
Q 2459 422 2753 634 
Q 3047 847 3047 1241 
Q 3047 1584 2836 1778 
Q 2625 1972 2144 2069 
L 1759 2144 
Q 1053 2284 737 2584 
Q 422 2884 422 3419 
Q 422 4038 858 4394 
Q 1294 4750 2059 4750 
Q 2388 4750 2728 4690 
Q 3069 4631 3425 4513 
z
" transform="scale(0.015625)"/>
      <path id="DejaVuSans-79" d="M 2059 -325 
Q 1816 -950 1584 -1140 
Q 1353 -1331 966 -1331 
L 506 -1331 
L 506 -850 
L 844 -850 
Q 1081 -850 1212 -737 
Q 1344 -625 1503 -206 
L 1606 56 
L 191 3500 
L 800 3500 
L 1894 763 
L 2988 3500 
L 3597 3500 
L 2059 -325 
z
" transform="scale(0.015625)"/>
      <path id="DejaVuSans-72" d="M 2631 2963 
Q 2534 3019 2420 3045 
Q 2306 3072 2169 3072 
Q 1681 3072 1420 2755 
Q 1159 2438 1159 1844 
L 1159 0 
L 581 0 
L 581 3500 
L 1159 3500 
L 1159 2956 
Q 1341 3275 1631 3429 
Q 1922 3584 2338 3584 
Q 2397 3584 2469 3576 
Q 2541 3569 2628 3553 
L 2631 2963 
z
" transform="scale(0.015625)"/>
      <path id="DejaVuSans-69" d="M 603 3500 
L 1178 3500 
L 1178 0 
L 603 0 
L 603 3500 
z
M 603 4863 
L 1178 4863 
L 1178 4134 
L 603 4134 
L 603 4863 
z
" transform="scale(0.015625)"/>
      <path id="DejaVuSans-2d" d="M 313 2009 
L 1997 2009 
L 1997 1497 
L 313 1497 
L 313 2009 
z
" transform="scale(0.015625)"/>
      <path id="DejaVuSans-4d" d="M 628 4666 
L 1569 4666 
L 2759 1491 
L 3956 4666 
L 4897 4666 
L 4897 0 
L 4281 0 
L 4281 4097 
L 3078 897 
L 2444 897 
L 1241 4097 
L 1241 0 
L 628 0 
L 628 4666 
z
" transform="scale(0.015625)"/>
      <path id="DejaVuSans-6c" d="M 603 4863 
L 1178 4863 
L 1178 0 
L 603 0 
L 603 4863 
z
" transform="scale(0.015625)"/>
      <path id="DejaVuSans-44" d="M 1259 4147 
L 1259 519 
L 2022 519 
Q 2988 519 3436 956 
Q 3884 1394 3884 2338 
Q 3884 3275 3436 3711 
Q 2988 4147 2022 4147 
L 1259 4147 
z
M 628 4666 
L 1925 4666 
Q 3281 4666 3915 4102 
Q 4550 3538 4550 2338 
Q 4550 1131 3912 565 
Q 3275 0 1925 0 
L 628 0 
L 628 4666 
z
" transform="scale(0.015625)"/>
      <path id="DejaVuSans-76" d="M 191 3500 
L 800 3500 
L 1894 563 
L 2988 3500 
L 3597 3500 
L 2284 0 
L 1503 0 
L 191 3500 
z
" transform="scale(0.015625)"/>
      <path id="DejaVuSans-3a" d="M 750 794 
L 1409 794 
L 1409 0 
L 750 0 
L 750 794 
z
M 750 3309 
L 1409 3309 
L 1409 2516 
L 750 2516 
L 750 3309 
z
" transform="scale(0.015625)"/>
      <path id="DejaVuSans-41" d="M 2188 4044 
L 1331 1722 
L 3047 1722 
L 2188 4044 
z
M 1831 4666 
L 2547 4666 
L 4325 0 
L 3669 0 
L 3244 1197 
L 1141 1197 
L 716 0 
L 50 0 
L 1831 4666 
z
" transform="scale(0.015625)"/>
     </defs>
     <use xlink:href="#DejaVuSans-53" transform="translate(0 0.015625)"/>
     <use xlink:href="#DejaVuSans-79" transform="translate(63.476562 0.015625)"/>
     <use xlink:href="#DejaVuSans-6d" transform="translate(122.65625 0.015625)"/>
     <use xlink:href="#DejaVuSans-6d" transform="translate(220.068359 0.015625)"/>
     <use xlink:href="#DejaVuSans-65" transform="translate(317.480469 0.015625)"/>
     <use xlink:href="#DejaVuSans-74" transform="translate(379.003906 0.015625)"/>
     <use xlink:href="#DejaVuSans-72" transform="translate(418.212891 0.015625)"/>
     <use xlink:href="#DejaVuSans-69" transform="translate(459.326172 0.015625)"/>
     <use xlink:href="#DejaVuSans-63" transform="translate(487.109375 0.015625)"/>
     <use xlink:href="#DejaVuSans-20" transform="translate(542.089844 0.015625)"/>
     <use xlink:href="#DejaVuSans-Oblique-3c9" transform="translate(573.876953 0.015625)"/>
     <use xlink:href="#DejaVuSans-2d" transform="translate(657.617188 0.015625)"/>
     <use xlink:href="#DejaVuSans-4d" transform="translate(693.701172 0.015625)"/>
     <use xlink:href="#DejaVuSans-6f" transform="translate(779.980469 0.015625)"/>
     <use xlink:href="#DejaVuSans-64" transform="translate(841.162109 0.015625)"/>
     <use xlink:href="#DejaVuSans-75" transform="translate(904.638672 0.015625)"/>
     <use xlink:href="#DejaVuSans-6c" transform="translate(968.017578 0.015625)"/>
     <use xlink:href="#DejaVuSans-61" transform="translate(995.800781 0.015625)"/>
     <use xlink:href="#DejaVuSans-74" transform="translate(1057.080078 0.015625)"/>
     <use xlink:href="#DejaVuSans-65" transform="translate(1096.289062 0.015625)"/>
     <use xlink:href="#DejaVuSans-64" transform="translate(1157.8125 0.015625)"/>
     <use xlink:href="#DejaVuSans-20" transform="translate(1221.289062 0.015625)"/>
     <use xlink:href="#DejaVuSans-44" transform="translate(1253.076172 0.015625)"/>
     <use xlink:href="#DejaVuSans-72" transform="translate(1330.078125 0.015625)"/>
     <use xlink:href="#DejaVuSans-69" transform="translate(1371.191406 0.015625)"/>
     <use xlink:href="#DejaVuSans-76" transform="translate(1398.974609 0.015625)"/>
     <use xlink:href="#DejaVuSans-65" transform="translate(1458.154297 0.015625)"/>
     <use xlink:href="#DejaVuSans-3a" transform="translate(1519.677734 0.015625)"/>
     <use xlink:href="#DejaVuSans-20" transform="translate(1553.369141 0.015625)"/>
     <use xlink:href="#DejaVuSans-53" transform="translate(1585.15625 0.015625)"/>
     <use xlink:href="#DejaVuSans-63" transform="translate(1648.632812 0.015625)"/>
     <use xlink:href="#DejaVuSans-65" transform="translate(1703.613281 0.015625)"/>
     <use xlink:href="#DejaVuSans-6e" transform="translate(1765.136719 0.015625)"/>
     <use xlink:href="#DejaVuSans-61" transform="translate(1828.515625 0.015625)"/>
     <use xlink:href="#DejaVuSans-72" transform="translate(1889.794922 0.015625)"/>
     <use xlink:href="#DejaVuSans-69" transform="translate(1930.908203 0.015625)"/>
     <use xlink:href="#DejaVuSans-6f" transform="translate(1958.691406 0.015625)"/>
     <use xlink:href="#DejaVuSans-20" transform="translate(2019.873047 0.015625)"/>
     <use xlink:href="#DejaVuSans-41" transform="translate(2051.660156 0.015625)"/>
     <use xlink:href="#DejaVuSans-20" transform="translate(2120.068359 0.015625)"/>
     <use xlink:href="#DejaVuSans-76" transform="translate(2151.855469 0.015625)"/>
     <use xlink:href="#DejaVuSans-73" transform="translate(2211.035156 0.015625)"/>
     <use xlink:href="#DejaVuSans-20" transform="translate(2263.134766 0.015625)"/>
     <use xlink:href="#DejaVuSans-53" transform="translate(2294.921875 0.015625)"/>
     <use xlink:href="#DejaVuSans-63" transform="translate(2358.398438 0.015625)"/>
     <use xlink:href="#DejaVuSans-65" transform="translate(2413.378906 0.015625)"/>
     <use xlink:href="#DejaVuSans-6e" transform="translate(2474.902344 0.015625)"/>
     <use xlink:href="#DejaVuSans-61" transform="translate(2538.28125 0.015625)"/>
     <use xlink:href="#DejaVuSans-72" transform="translate(2599.560547 0.015625)"/>
     <use xlink:href="#DejaVuSans-69" transform="translate(2640.673828 0.015625)"/>
     <use xlink:href="#DejaVuSans-6f" transform="translate(2668.457031 0.015625)"/>
     <use xlink:href="#DejaVuSans-20" transform="translate(2729.638672 0.015625)"/>
     <use xlink:href="#DejaVuSans-42" transform="translate(2761.425781 0.015625)"/>
    </g>
   </g>
   <g id="legend_1">
    <g id="patch_9">
     <path d="M 397.769437 83.744405 
L 545.389437 83.744405 
Q 547.589437 83.744405 547.589437 81.544405 
L 547.589437 49.230187 
Q 547.589437 47.030187 545.389437 47.030187 
L 397.769437 47.030187 
Q 395.569437 47.030187 395.569437 49.230187 
L 395.569437 81.544405 
Q 395.569437 83.744405 397.769437 83.744405 
z
" style="fill: #ffffff; opacity: 0.8; stroke: #cccccc; stroke-linejoin: miter"/>
    </g>
    <g id="line2d_14">
     <path d="M 399.969437 55.938468 
L 410.969437 55.938468 
L 421.969437 55.938468 
" style="fill: none; stroke: #4c72b0; stroke-width: 2; stroke-linecap: round"/>
     <g>
      <use xlink:href="#m8107093802" x="410.969437" y="55.938468" style="fill: #4c72b0; stroke: #4c72b0"/>
     </g>
    </g>
    <g id="text_16">
     <!-- $\mathcal{R}_{\mathrm{compound}} = \Delta\omega_A / \Delta\omega_B$ -->
     <g style="fill: #262626" transform="translate(430.769437 59.788468) scale(0.11 -0.11)">
      <defs>
       <path id="DejaVuSans-394" d="M 2188 4044 
L 906 525 
L 3472 525 
L 2188 4044 
z
M 50 0 
L 1831 4666 
L 2547 4666 
L 4325 0 
L 50 0 
z
" transform="scale(0.015625)"/>
       <path id="DejaVuSans-Oblique-41" d="M 2356 4666 
L 3072 4666 
L 3938 0 
L 3278 0 
L 3084 1197 
L 984 1197 
L 325 0 
L -341 0 
L 2356 4666 
z
M 2584 4044 
L 1275 1722 
L 2988 1722 
L 2584 4044 
z
" transform="scale(0.015625)"/>
       <path id="DejaVuSans-2f" d="M 1625 4666 
L 2156 4666 
L 531 -594 
L 0 -594 
L 1625 4666 
z
" transform="scale(0.015625)"/>
       <path id="DejaVuSans-Oblique-42" d="M 1081 4666 
L 2694 4666 
Q 3350 4666 3675 4422 
Q 4000 4178 4000 3688 
Q 4000 3238 3720 2911 
Q 3441 2584 2988 2516 
Q 3375 2428 3569 2181 
Q 3763 1934 3763 1522 
Q 3763 819 3242 409 
Q 2722 0 1819 0 
L 172 0 
L 1081 4666 
z
M 1234 2228 
L 903 519 
L 1919 519 
Q 2491 519 2800 781 
Q 3109 1044 3109 1522 
Q 3109 1891 2904 2059 
Q 2700 2228 2247 2228 
L 1234 2228 
z
M 1606 4147 
L 1331 2741 
L 2272 2741 
Q 2775 2741 3058 2959 
Q 3341 3178 3341 3566 
Q 3341 3869 3150 4008 
Q 2959 4147 2541 4147 
L 1606 4147 
z
" transform="scale(0.015625)"/>
      </defs>
      <use xlink:href="#STIXNonUnicode-Italic-e23e" transform="translate(0 0.09375)"/>
      <use xlink:href="#DejaVuSans-63" transform="translate(86.357025 -16.3125) scale(0.7)"/>
      <use xlink:href="#DejaVuSans-6f" transform="translate(124.843353 -16.3125) scale(0.7)"/>
      <use xlink:href="#DejaVuSans-6d" transform="translate(167.670502 -16.3125) scale(0.7)"/>
      <use xlink:href="#DejaVuSans-70" transform="translate(235.858978 -16.3125) scale(0.7)"/>
      <use xlink:href="#DejaVuSans-6f" transform="translate(280.292572 -16.3125) scale(0.7)"/>
      <use xlink:href="#DejaVuSans-75" transform="translate(323.11972 -16.3125) scale(0.7)"/>
      <use xlink:href="#DejaVuSans-6e" transform="translate(367.484955 -16.3125) scale(0.7)"/>
      <use xlink:href="#DejaVuSans-64" transform="translate(411.850189 -16.3125) scale(0.7)"/>
      <use xlink:href="#DejaVuSans-3d" transform="translate(478.50058 0.09375)"/>
      <use xlink:href="#DejaVuSans-394" transform="translate(581.772064 0.09375)"/>
      <use xlink:href="#DejaVuSans-Oblique-3c9" transform="translate(650.180267 0.09375)"/>
      <use xlink:href="#DejaVuSans-Oblique-41" transform="translate(733.920502 -16.3125) scale(0.7)"/>
      <use xlink:href="#DejaVuSans-2f" transform="translate(784.540619 0.09375)"/>
      <use xlink:href="#DejaVuSans-394" transform="translate(818.232025 0.09375)"/>
      <use xlink:href="#DejaVuSans-Oblique-3c9" transform="translate(886.640228 0.09375)"/>
      <use xlink:href="#DejaVuSans-Oblique-42" transform="translate(970.380463 -16.3125) scale(0.7)"/>
     </g>
    </g>
    <g id="line2d_15">
     <path d="M 399.969437 73.206749 
L 410.969437 73.206749 
L 421.969437 73.206749 
" style="fill: none; stroke-dasharray: 5.55,2.4; stroke-dashoffset: 0; stroke: #808080; stroke-opacity: 0.7; stroke-width: 1.5"/>
    </g>
    <g id="text_17">
     <!-- y = 1 -->
     <g style="fill: #262626" transform="translate(430.769437 77.056749) scale(0.11 -0.11)">
      <use xlink:href="#DejaVuSans-79"/>
      <use xlink:href="#DejaVuSans-20" transform="translate(59.179688 0)"/>
      <use xlink:href="#DejaVuSans-3d" transform="translate(90.966797 0)"/>
      <use xlink:href="#DejaVuSans-20" transform="translate(174.755859 0)"/>
      <use xlink:href="#DejaVuSans-31" transform="translate(206.542969 0)"/>
     </g>
    </g>
   </g>
  </g>
 </g>
 <defs>
  <clipPath id="p0719dfaf05">
   <rect x="49.953437" y="41.530187" width="503.136" height="260.448973"/>
  </clipPath>
 </defs>
</svg>
