<?xml version="1.0" encoding="utf-8" standalone="no"?>
<!DOCTYPE svg PUBLIC "-//W3C//DTD SVG 1.1//EN"
  "http://www.w3.org/Graphics/SVG/1.1/DTD/svg11.dtd">
<svg xmlns:xlink="http://www.w3.org/1999/xlink" width="563.240156pt" height="344.579687pt" viewBox="0 0 563.240156 344.579687" xmlns="http://www.w3.org/2000/svg" version="1.1">
 <metadata>
  <rdf:RDF xmlns:dc="http://purl.org/dc/elements/1.1/" xmlns:cc="http://creativecommons.org/ns#" xmlns:rdf="http://www.w3.org/1999/02/22-rdf-syntax-ns#">
   <cc:Work>
    <dc:type rdf:resource="http://purl.org/dc/dcmitype/StillImage"/>
    <dc:date>2026-07-11T00:18:55.021051</dc:date>
    <dc:format>image/svg+xml</dc:format>
    <dc:creator>
     <cc:Agent>
      <dc:title>Matplotlib v3.10.9, https://matplotlib.org/</dc:title>
     </cc:Agent>
    </dc:creator>
   </cc:Work>
  </rdf:RDF>
 </metadata>
 <defs>
  <style type="text/css">*{stroke-linejoin: round; stroke-linecap: butt}</style>
 </defs>
 <g id="figure_1">
  <g id="patch_1">
   <path d="M 0 344.579687 
L 563.240156 344.579687 
L 563.240156 0 
L 0 0 
z
" style="fill: #ffffff"/>
  </g>
  <g id="axes_1">
   <g id="patch_2">
    <path d="M 48.530156 301.62 
L 556.040156 301.62 
L 556.040156 22.32 
L 48.530156 22.32 
z
" style="fill: #ffffff"/>
   </g>
   <g id="matplotlib.axis_1">
    <g id="xtick_1">
     <g id="line2d_1">
      <path d="M 70.674198 301.62 
L 70.674198 22.32 
" clip-path="url(#p4a90329b66)" style="fill: none; stroke: #cccccc; stroke-linecap: round"/>
     </g>
     <g id="text_1">
      <!-- 0 -->
      <g style="fill: #262626" transform="translate(67.174823 319.478281) scale(0.11 -0.11)">
       <defs>
        <path id="DejaVuSans-30" d="M 2034 4250 
Q 1547 4250 1301 3770 
Q 1056 3291 1056 2328 
Q 1056 1369 1301 889 
Q 1547 409 2034 409 
Q 2525 409 2770 889 
Q 3016 1369 3016 2328 
Q 3016 3291 2770 3770 
Q 2525 4250 2034 4250 
z
M 2034 4750 
Q 2819 4750 3233 4129 
Q 3647 3509 3647 2328 
Q 3647 1150 3233 529 
Q 2819 -91 2034 -91 
Q 1250 -91 836 529 
Q 422 1150 422 2328 
Q 422 3509 836 4129 
Q 1250 4750 2034 4750 
z
" transform="scale(0.015625)"/>
       </defs>
       <use xlink:href="#DejaVuSans-30"/>
      </g>
     </g>
    </g>
    <g id="xtick_2">
     <g id="line2d_2">
      <path d="M 163.133662 301.62 
L 163.133662 22.32 
" clip-path="url(#p4a90329b66)" style="fill: none; stroke: #cccccc; stroke-linecap: round"/>
     </g>
     <g id="text_2">
      <!-- 1 -->
      <g style="fill: #262626" transform="translate(159.634287 319.478281) scale(0.11 -0.11)">
       <defs>
        <path id="DejaVuSans-31" d="M 794 531 
L 1825 531 
L 1825 4091 
L 703 3866 
L 703 4441 
L 1819 4666 
L 2450 4666 
L 2450 531 
L 3481 531 
L 3481 0 
L 794 0 
L 794 531 
z
" transform="scale(0.015625)"/>
       </defs>
       <use xlink:href="#DejaVuSans-31"/>
      </g>
     </g>
    </g>
    <g id="xtick_3">
     <g id="line2d_3">
      <path d="M 255.593127 301.62 
L 255.593127 22.32 
" clip-path="url(#p4a90329b66)" style="fill: none; stroke: #cccccc; stroke-linecap: round"/>
     </g>
     <g id="text_3">
      <!-- 2 -->
      <g style="fill: #262626" transform="translate(252.093752 319.478281) scale(0.11 -0.11)">
       <defs>
        <path id="DejaVuSans-32" d="M 1228 531 
L 3431 531 
L 3431 0 
L 469 0 
L 469 531 
Q 828 903 1448 1529 
Q 2069 2156 2228 2338 
Q 2531 2678 2651 2914 
Q 2772 3150 2772 3378 
Q 2772 3750 2511 3984 
Q 2250 4219 1831 4219 
Q 1534 4219 1204 4116 
Q 875 4013 500 3803 
L 500 4441 
Q 881 4594 1212 4672 
Q 1544 4750 1819 4750 
Q 2544 4750 2975 4387 
Q 3406 4025 3406 3419 
Q 3406 3131 3298 2873 
Q 3191 2616 2906 2266 
Q 2828 2175 2409 1742 
Q 1991 1309 1228 531 
z
" transform="scale(0.015625)"/>
       </defs>
       <use xlink:href="#DejaVuSans-32"/>
      </g>
     </g>
    </g>
    <g id="xtick_4">
     <g id="line2d_4">
      <path d="M 348.052591 301.62 
L 348.052591 22.32 
" clip-path="url(#p4a90329b66)" style="fill: none; stroke: #cccccc; stroke-linecap: round"/>
     </g>
     <g id="text_4">
      <!-- 3 -->
      <g style="fill: #262626" transform="translate(344.553216 319.478281) scale(0.11 -0.11)">
       <defs>
        <path id="DejaVuSans-33" d="M 2597 2516 
Q 3050 2419 3304 2112 
Q 3559 1806 3559 1356 
Q 3559 666 3084 287 
Q 2609 -91 1734 -91 
Q 1441 -91 1130 -33 
Q 819 25 488 141 
L 488 750 
Q 750 597 1062 519 
Q 1375 441 1716 441 
Q 2309 441 2620 675 
Q 2931 909 2931 1356 
Q 2931 1769 2642 2001 
Q 2353 2234 1838 2234 
L 1294 2234 
L 1294 2753 
L 1863 2753 
Q 2328 2753 2575 2939 
Q 2822 3125 2822 3475 
Q 2822 3834 2567 4026 
Q 2313 4219 1838 4219 
Q 1578 4219 1281 4162 
Q 984 4106 628 3988 
L 628 4550 
Q 988 4650 1302 4700 
Q 1616 4750 1894 4750 
Q 2613 4750 3031 4423 
Q 3450 4097 3450 3541 
Q 3450 3153 3228 2886 
Q 3006 2619 2597 2516 
z
" transform="scale(0.015625)"/>
       </defs>
       <use xlink:href="#DejaVuSans-33"/>
      </g>
     </g>
    </g>
    <g id="xtick_5">
     <g id="line2d_5">
      <path d="M 440.512056 301.62 
L 440.512056 22.32 
" clip-path="url(#p4a90329b66)" style="fill: none; stroke: #cccccc; stroke-linecap: round"/>
     </g>
     <g id="text_5">
      <!-- 4 -->
      <g style="fill: #262626" transform="translate(437.012681 319.478281) scale(0.11 -0.11)">
       <defs>
        <path id="DejaVuSans-34" d="M 2419 4116 
L 825 1625 
L 2419 1625 
L 2419 4116 
z
M 2253 4666 
L 3047 4666 
L 3047 1625 
L 3713 1625 
L 3713 1100 
L 3047 1100 
L 3047 0 
L 2419 0 
L 2419 1100 
L 313 1100 
L 313 1709 
L 2253 4666 
z
" transform="scale(0.015625)"/>
       </defs>
       <use xlink:href="#DejaVuSans-34"/>
      </g>
     </g>
    </g>
    <g id="xtick_6">
     <g id="line2d_6">
      <path d="M 532.97152 301.62 
L 532.97152 22.32 
" clip-path="url(#p4a90329b66)" style="fill: none; stroke: #cccccc; stroke-linecap: round"/>
     </g>
     <g id="text_6">
      <!-- 5 -->
      <g style="fill: #262626" transform="translate(529.472145 319.478281) scale(0.11 -0.11)">
       <defs>
        <path id="DejaVuSans-35" d="M 691 4666 
L 3169 4666 
L 3169 4134 
L 1269 4134 
L 1269 2991 
Q 1406 3038 1543 3061 
Q 1681 3084 1819 3084 
Q 2600 3084 3056 2656 
Q 3513 2228 3513 1497 
Q 3513 744 3044 326 
Q 2575 -91 1722 -91 
Q 1428 -91 1123 -41 
Q 819 9 494 109 
L 494 744 
Q 775 591 1075 516 
Q 1375 441 1709 441 
Q 2250 441 2565 725 
Q 2881 1009 2881 1497 
Q 2881 1984 2565 2268 
Q 2250 2553 1709 2553 
Q 1456 2553 1204 2497 
Q 953 2441 691 2322 
L 691 4666 
z
" transform="scale(0.015625)"/>
       </defs>
       <use xlink:href="#DejaVuSans-35"/>
      </g>
     </g>
    </g>
    <g id="text_7">
     <!-- $\omega$ -->
     <g style="fill: #262626" transform="translate(297.245156 334.884062) scale(0.12 -0.12)">
      <defs>
       <path id="DejaVuSans-Oblique-3c9" d="M 1369 -91 
Q 72 -91 434 1766 
Q 575 2500 1256 3500 
L 1875 3500 
Q 1231 2500 1088 1750 
Q 819 397 1519 397 
Q 2166 397 2478 2078 
L 3009 2078 
Q 2669 388 3316 397 
Q 4013 403 4275 1750 
Q 4419 2500 4169 3500 
L 4788 3500 
Q 5075 2500 4934 1766 
Q 4578 -94 3278 -91 
Q 2428 -88 2503 844 
Q 2194 -91 1369 -91 
z
" transform="scale(0.015625)"/>
      </defs>
      <use xlink:href="#DejaVuSans-Oblique-3c9" transform="translate(0 0.3125)"/>
     </g>
    </g>
   </g>
   <g id="matplotlib.axis_2">
    <g id="ytick_1">
     <g id="line2d_7">
      <path d="M 48.530156 263.533636 
L 556.040156 263.533636 
" clip-path="url(#p4a90329b66)" style="fill: none; stroke: #cccccc; stroke-linecap: round"/>
     </g>
     <g id="text_8">
      <!-- −4 -->
      <g style="fill: #262626" transform="translate(22.81375 267.712777) scale(0.11 -0.11)">
       <defs>
        <path id="DejaVuSans-2212" d="M 678 2272 
L 4684 2272 
L 4684 1741 
L 678 1741 
L 678 2272 
z
" transform="scale(0.015625)"/>
       </defs>
       <use xlink:href="#DejaVuSans-2212"/>
       <use xlink:href="#DejaVuSans-34" transform="translate(83.789062 0)"/>
      </g>
     </g>
    </g>
    <g id="ytick_2">
     <g id="line2d_8">
      <path d="M 48.530156 212.751818 
L 556.040156 212.751818 
" clip-path="url(#p4a90329b66)" style="fill: none; stroke: #cccccc; stroke-linecap: round"/>
     </g>
     <g id="text_9">
      <!-- −2 -->
      <g style="fill: #262626" transform="translate(22.81375 216.930959) scale(0.11 -0.11)">
       <use xlink:href="#DejaVuSans-2212"/>
       <use xlink:href="#DejaVuSans-32" transform="translate(83.789062 0)"/>
      </g>
     </g>
    </g>
    <g id="ytick_3">
     <g id="line2d_9">
      <path d="M 48.530156 161.97 
L 556.040156 161.97 
" clip-path="url(#p4a90329b66)" style="fill: none; stroke: #cccccc; stroke-linecap: round"/>
     </g>
     <g id="text_10">
      <!-- 0 -->
      <g style="fill: #262626" transform="translate(32.031406 166.149141) scale(0.11 -0.11)">
       <use xlink:href="#DejaVuSans-30"/>
      </g>
     </g>
    </g>
    <g id="ytick_4">
     <g id="line2d_10">
      <path d="M 48.530156 111.188182 
L 556.040156 111.188182 
" clip-path="url(#p4a90329b66)" style="fill: none; stroke: #cccccc; stroke-linecap: round"/>
     </g>
     <g id="text_11">
      <!-- 2 -->
      <g style="fill: #262626" transform="translate(32.031406 115.367322) scale(0.11 -0.11)">
       <use xlink:href="#DejaVuSans-32"/>
      </g>
     </g>
    </g>
    <g id="ytick_5">
     <g id="line2d_11">
      <path d="M 48.530156 60.406364 
L 556.040156 60.406364 
" clip-path="url(#p4a90329b66)" style="fill: none; stroke: #cccccc; stroke-linecap: round"/>
     </g>
     <g id="text_12">
      <!-- 4 -->
      <g style="fill: #262626" transform="translate(32.031406 64.585504) scale(0.11 -0.11)">
       <use xlink:href="#DejaVuSans-34"/>
      </g>
     </g>
    </g>
    <g id="text_13">
     <!-- Optimal parameter value -->
     <g style="fill: #262626" transform="translate(16.318125 237.58875) rotate(-90) scale(0.12 -0.12)">
      <defs>
       <path id="DejaVuSans-4f" d="M 2522 4238 
Q 1834 4238 1429 3725 
Q 1025 3213 1025 2328 
Q 1025 1447 1429 934 
Q 1834 422 2522 422 
Q 3209 422 3611 934 
Q 4013 1447 4013 2328 
Q 4013 3213 3611 3725 
Q 3209 4238 2522 4238 
z
M 2522 4750 
Q 3503 4750 4090 4092 
Q 4678 3434 4678 2328 
Q 4678 1225 4090 567 
Q 3503 -91 2522 -91 
Q 1538 -91 948 565 
Q 359 1222 359 2328 
Q 359 3434 948 4092 
Q 1538 4750 2522 4750 
z
" transform="scale(0.015625)"/>
       <path id="DejaVuSans-70" d="M 1159 525 
L 1159 -1331 
L 581 -1331 
L 581 3500 
L 1159 3500 
L 1159 2969 
Q 1341 3281 1617 3432 
Q 1894 3584 2278 3584 
Q 2916 3584 3314 3078 
Q 3713 2572 3713 1747 
Q 3713 922 3314 415 
Q 2916 -91 2278 -91 
Q 1894 -91 1617 61 
Q 1341 213 1159 525 
z
M 3116 1747 
Q 3116 2381 2855 2742 
Q 2594 3103 2138 3103 
Q 1681 3103 1420 2742 
Q 1159 2381 1159 1747 
Q 1159 1113 1420 752 
Q 1681 391 2138 391 
Q 2594 391 2855 752 
Q 3116 1113 3116 1747 
z
" transform="scale(0.015625)"/>
       <path id="DejaVuSans-74" d="M 1172 4494 
L 1172 3500 
L 2356 3500 
L 2356 3053 
L 1172 3053 
L 1172 1153 
Q 1172 725 1289 603 
Q 1406 481 1766 481 
L 2356 481 
L 2356 0 
L 1766 0 
Q 1100 0 847 248 
Q 594 497 594 1153 
L 594 3053 
L 172 3053 
L 172 3500 
L 594 3500 
L 594 4494 
L 1172 4494 
z
" transform="scale(0.015625)"/>
       <path id="DejaVuSans-69" d="M 603 3500 
L 1178 3500 
L 1178 0 
L 603 0 
L 603 3500 
z
M 603 4863 
L 1178 4863 
L 1178 4134 
L 603 4134 
L 603 4863 
z
" transform="scale(0.015625)"/>
       <path id="DejaVuSans-6d" d="M 3328 2828 
Q 3544 3216 3844 3400 
Q 4144 3584 4550 3584 
Q 5097 3584 5394 3201 
Q 5691 2819 5691 2113 
L 5691 0 
L 5113 0 
L 5113 2094 
Q 5113 2597 4934 2840 
Q 4756 3084 4391 3084 
Q 3944 3084 3684 2787 
Q 3425 2491 3425 1978 
L 3425 0 
L 2847 0 
L 2847 2094 
Q 2847 2600 2669 2842 
Q 2491 3084 2119 3084 
Q 1678 3084 1418 2786 
Q 1159 2488 1159 1978 
L 1159 0 
L 581 0 
L 581 3500 
L 1159 3500 
L 1159 2956 
Q 1356 3278 1631 3431 
Q 1906 3584 2284 3584 
Q 2666 3584 2933 3390 
Q 3200 3197 3328 2828 
z
" transform="scale(0.015625)"/>
       <path id="DejaVuSans-61" d="M 2194 1759 
Q 1497 1759 1228 1600 
Q 959 1441 959 1056 
Q 959 750 1161 570 
Q 1363 391 1709 391 
Q 2188 391 2477 730 
Q 2766 1069 2766 1631 
L 2766 1759 
L 2194 1759 
z
M 3341 1997 
L 3341 0 
L 2766 0 
L 2766 531 
Q 2569 213 2275 61 
Q 1981 -91 1556 -91 
Q 1019 -91 701 211 
Q 384 513 384 1019 
Q 384 1609 779 1909 
Q 1175 2209 1959 2209 
L 2766 2209 
L 2766 2266 
Q 2766 2663 2505 2880 
Q 2244 3097 1772 3097 
Q 1472 3097 1187 3025 
Q 903 2953 641 2809 
L 641 3341 
Q 956 3463 1253 3523 
Q 1550 3584 1831 3584 
Q 2591 3584 2966 3190 
Q 3341 2797 3341 1997 
z
" transform="scale(0.015625)"/>
       <path id="DejaVuSans-6c" d="M 603 4863 
L 1178 4863 
L 1178 0 
L 603 0 
L 603 4863 
z
" transform="scale(0.015625)"/>
       <path id="DejaVuSans-20" transform="scale(0.015625)"/>
       <path id="DejaVuSans-72" d="M 2631 2963 
Q 2534 3019 2420 3045 
Q 2306 3072 2169 3072 
Q 1681 3072 1420 2755 
Q 1159 2438 1159 1844 
L 1159 0 
L 581 0 
L 581 3500 
L 1159 3500 
L 1159 2956 
Q 1341 3275 1631 3429 
Q 1922 3584 2338 3584 
Q 2397 3584 2469 3576 
Q 2541 3569 2628 3553 
L 2631 2963 
z
" transform="scale(0.015625)"/>
       <path id="DejaVuSans-65" d="M 3597 1894 
L 3597 1613 
L 953 1613 
Q 991 1019 1311 708 
Q 1631 397 2203 397 
Q 2534 397 2845 478 
Q 3156 559 3463 722 
L 3463 178 
Q 3153 47 2828 -22 
Q 2503 -91 2169 -91 
Q 1331 -91 842 396 
Q 353 884 353 1716 
Q 353 2575 817 3079 
Q 1281 3584 2069 3584 
Q 2775 3584 3186 3129 
Q 3597 2675 3597 1894 
z
M 3022 2063 
Q 3016 2534 2758 2815 
Q 2500 3097 2075 3097 
Q 1594 3097 1305 2825 
Q 1016 2553 972 2059 
L 3022 2063 
z
" transform="scale(0.015625)"/>
       <path id="DejaVuSans-76" d="M 191 3500 
L 800 3500 
L 1894 563 
L 2988 3500 
L 3597 3500 
L 2284 0 
L 1503 0 
L 191 3500 
z
" transform="scale(0.015625)"/>
       <path id="DejaVuSans-75" d="M 544 1381 
L 544 3500 
L 1119 3500 
L 1119 1403 
Q 1119 906 1312 657 
Q 1506 409 1894 409 
Q 2359 409 2629 706 
Q 2900 1003 2900 1516 
L 2900 3500 
L 3475 3500 
L 3475 0 
L 2900 0 
L 2900 538 
Q 2691 219 2414 64 
Q 2138 -91 1772 -91 
Q 1169 -91 856 284 
Q 544 659 544 1381 
z
M 1991 3584 
L 1991 3584 
z
" transform="scale(0.015625)"/>
      </defs>
      <use xlink:href="#DejaVuSans-4f"/>
      <use xlink:href="#DejaVuSans-70" transform="translate(78.710938 0)"/>
      <use xlink:href="#DejaVuSans-74" transform="translate(142.1875 0)"/>
      <use xlink:href="#DejaVuSans-69" transform="translate(181.396484 0)"/>
      <use xlink:href="#DejaVuSans-6d" transform="translate(209.179688 0)"/>
      <use xlink:href="#DejaVuSans-61" transform="translate(306.591797 0)"/>
      <use xlink:href="#DejaVuSans-6c" transform="translate(367.871094 0)"/>
      <use xlink:href="#DejaVuSans-20" transform="translate(395.654297 0)"/>
      <use xlink:href="#DejaVuSans-70" transform="translate(427.441406 0)"/>
      <use xlink:href="#DejaVuSans-61" transform="translate(490.917969 0)"/>
      <use xlink:href="#DejaVuSans-72" transform="translate(552.197266 0)"/>
      <use xlink:href="#DejaVuSans-61" transform="translate(593.310547 0)"/>
      <use xlink:href="#DejaVuSans-6d" transform="translate(654.589844 0)"/>
      <use xlink:href="#DejaVuSans-65" transform="translate(752.001953 0)"/>
      <use xlink:href="#DejaVuSans-74" transform="translate(813.525391 0)"/>
      <use xlink:href="#DejaVuSans-65" transform="translate(852.734375 0)"/>
      <use xlink:href="#DejaVuSans-72" transform="translate(914.257812 0)"/>
      <use xlink:href="#DejaVuSans-20" transform="translate(955.371094 0)"/>
      <use xlink:href="#DejaVuSans-76" transform="translate(987.158203 0)"/>
      <use xlink:href="#DejaVuSans-61" transform="translate(1046.337891 0)"/>
      <use xlink:href="#DejaVuSans-6c" transform="translate(1107.617188 0)"/>
      <use xlink:href="#DejaVuSans-75" transform="translate(1135.400391 0)"/>
      <use xlink:href="#DejaVuSans-65" transform="translate(1198.779297 0)"/>
     </g>
    </g>
   </g>
   <g id="line2d_12">
    <path d="M 71.598793 35.015455 
L 72.523387 288.924545 
L 73.447982 288.924545 
L 74.372577 35.015455 
L 76.221766 35.015455 
L 77.14636 288.924545 
L 78.070955 288.92454 
L 78.99555 35.015455 
L 79.920144 35.015455 
L 80.844739 288.924545 
L 81.769334 288.924545 
L 82.693928 35.015455 
L 83.618523 39.609448 
L 84.543118 288.924533 
L 85.467712 35.015463 
L 86.392307 288.924529 
L 88.241496 288.924545 
L 89.166091 35.015455 
L 90.090685 35.015455 
L 91.01528 288.92404 
L 92.864469 288.924221 
L 93.789064 35.015467 
L 94.713659 288.924542 
L 95.638253 35.015455 
L 96.562848 288.924545 
L 97.487443 35.015455 
L 98.412037 288.924541 
L 100.261227 288.924533 
L 101.185821 35.015534 
L 102.110416 288.922512 
L 103.035011 35.015455 
L 108.582578 35.015455 
L 109.507173 288.9245 
L 110.431768 35.015524 
L 111.356362 288.924542 
L 113.205552 288.924536 
L 114.130146 35.015455 
L 115.054741 35.015462 
L 115.979336 288.924541 
L 116.90393 288.924467 
L 117.828525 35.015455 
L 118.753119 288.924544 
L 119.677714 288.924538 
L 120.602309 35.015463 
L 121.526903 288.924542 
L 122.451498 35.015464 
L 126.149877 35.015477 
L 127.074471 288.924543 
L 127.999066 288.924543 
L 128.923661 35.015455 
L 131.697444 35.015456 
L 132.622039 35.745189 
L 133.546634 288.924538 
L 134.471228 282.322875 
L 135.395823 288.924545 
L 136.320418 288.924524 
L 137.245012 35.015455 
L 141.867986 35.015471 
L 142.79258 288.924524 
L 150.189337 288.924542 
L 151.113932 35.015499 
L 152.038527 288.924544 
L 152.963121 35.01547 
L 153.887716 35.015458 
L 154.812311 288.924508 
L 156.6615 288.924544 
L 157.586094 35.166013 
L 158.510689 35.015456 
L 159.435284 288.9243 
L 163.133662 288.924543 
L 164.058257 35.015464 
L 164.982852 288.924544 
L 165.907446 35.015455 
L 168.68123 35.015457 
L 169.605825 288.924471 
L 170.53042 35.015475 
L 172.379609 35.015461 
L 173.304203 288.924537 
L 174.228798 286.923395 
L 175.153393 35.015465 
L 179.776366 35.015459 
L 180.700961 288.924457 
L 181.625555 35.015463 
L 183.474745 35.019328 
L 184.399339 288.924542 
L 185.323934 35.015491 
L 186.248528 288.924542 
L 188.097718 288.924544 
L 189.022312 35.015456 
L 189.946907 288.924544 
L 190.871502 35.015456 
L 195.494475 35.015473 
L 196.41907 288.924525 
L 197.343664 35.015467 
L 198.268259 288.924542 
L 199.192853 35.015456 
L 200.117448 288.924542 
L 201.042043 35.015458 
L 201.966637 288.924517 
L 202.891232 35.015483 
L 203.815827 35.015675 
L 204.740421 288.924542 
L 205.665016 35.015463 
L 206.589611 288.924543 
L 207.514205 35.015455 
L 209.363395 35.015463 
L 210.287989 288.924394 
L 211.212584 283.003788 
L 212.137178 288.92453 
L 214.910962 288.924539 
L 215.835557 35.015457 
L 219.533936 35.015456 
L 220.45853 288.924536 
L 221.383125 35.01546 
L 222.30772 35.015963 
L 223.232314 288.924539 
L 224.156909 35.015456 
L 226.006098 35.015591 
L 226.930693 288.92453 
L 227.855287 35.015457 
L 228.779882 35.015462 
L 229.704477 288.924516 
L 230.629071 35.015469 
L 231.553666 288.924465 
L 232.478261 288.924545 
L 233.402855 35.015495 
L 234.32745 288.924543 
L 235.252045 288.924404 
L 236.176639 35.01546 
L 237.101234 288.924532 
L 238.025829 35.015455 
L 239.875018 35.015504 
L 240.799612 288.924544 
L 243.573396 288.865543 
L 244.497991 35.015465 
L 245.422586 288.924544 
L 248.19637 288.924544 
L 249.120964 35.015455 
L 250.045559 35.015464 
L 250.970154 288.924529 
L 251.894748 35.015466 
L 252.819343 35.015482 
L 253.743937 288.92454 
L 257.442316 288.913466 
L 258.366911 35.015482 
L 259.291505 288.924535 
L 260.2161 35.015512 
L 261.140695 288.924496 
L 262.989884 288.924536 
L 263.914479 35.015461 
L 264.839073 288.924544 
L 265.763668 288.924531 
L 266.688262 35.015465 
L 267.612857 288.924537 
L 268.537452 35.015458 
L 273.160425 35.015642 
L 274.08502 288.924533 
L 275.009614 35.015459 
L 275.934209 288.924538 
L 276.858804 288.924534 
L 277.783398 35.015461 
L 278.707993 35.015459 
L 279.632587 288.92454 
L 281.481777 288.92454 
L 282.406371 35.015457 
L 283.330966 35.015463 
L 284.255561 288.924537 
L 285.180155 36.995251 
L 286.10475 35.015457 
L 287.029345 35.015514 
L 287.953939 288.924498 
L 292.576912 288.924543 
L 293.501507 35.015466 
L 295.350696 35.015455 
L 296.275291 288.924511 
L 297.199886 35.015683 
L 298.12448 288.924418 
L 299.049075 288.924539 
L 299.97367 35.015476 
L 300.898264 288.924543 
L 301.822859 35.015472 
L 302.747454 35.015487 
L 303.672048 288.924516 
L 304.596643 35.015477 
L 305.521238 288.922323 
L 306.445832 35.015457 
L 307.370427 35.015457 
L 308.295021 288.924541 
L 309.219616 36.09811 
L 310.144211 288.924539 
L 311.068805 35.015461 
L 311.9934 35.015474 
L 312.917995 288.924541 
L 313.842589 288.916032 
L 314.767184 35.015459 
L 315.691779 35.015571 
L 316.616373 288.924542 
L 317.540968 35.015456 
L 319.390157 35.015458 
L 320.314752 288.924544 
L 321.239346 35.017543 
L 324.937725 35.015462 
L 325.86232 288.924543 
L 326.786914 35.015478 
L 327.711509 288.924459 
L 328.636104 288.924501 
L 329.560698 35.015456 
L 330.485293 35.015472 
L 331.409888 35.29915 
L 332.334482 288.924545 
L 337.88205 288.92418 
L 338.806645 35.015459 
L 339.731239 35.015484 
L 340.655834 288.924543 
L 341.580429 288.924538 
L 342.505023 35.015479 
L 343.429618 35.015467 
L 344.354213 288.924504 
L 345.278807 288.924529 
L 346.203402 35.015462 
L 351.75097 35.015489 
L 352.675564 288.924538 
L 353.600159 35.015457 
L 354.524754 288.924543 
L 355.449348 35.015457 
L 356.373943 288.924537 
L 357.298538 288.906907 
L 358.223132 35.015461 
L 359.147727 288.924544 
L 360.072321 35.015455 
L 362.846105 35.015473 
L 363.7707 288.924518 
L 364.695295 35.015464 
L 365.619889 288.924536 
L 366.544484 35.284765 
L 367.469079 288.924514 
L 368.393673 288.924459 
L 369.318268 35.015456 
L 370.242863 288.924545 
L 371.167457 288.924534 
L 372.092052 35.015491 
L 374.865836 35.015478 
L 375.79043 288.9241 
L 376.715025 288.924543 
L 377.63962 35.015458 
L 378.564214 288.924539 
L 379.488809 35.015498 
L 380.413404 35.015462 
L 381.337998 288.924525 
L 382.262593 35.015455 
L 387.810161 35.015463 
L 388.734755 288.92439 
L 389.65935 35.01546 
L 390.583945 35.01546 
L 391.508539 288.924521 
L 392.433134 35.069905 
L 393.357729 35.015466 
L 394.282323 288.095332 
L 395.206918 288.924536 
L 396.131513 35.015456 
L 400.754486 35.015475 
L 401.67908 288.924541 
L 402.603675 35.015457 
L 404.452864 35.015457 
L 405.377459 288.924441 
L 407.226648 288.924542 
L 408.151243 35.015457 
L 410.000432 35.01546 
L 410.925027 288.924543 
L 411.849622 35.015461 
L 414.623405 35.01547 
L 415.548 288.924498 
L 416.472595 288.924542 
L 417.397189 35.015464 
L 418.321784 35.015459 
L 419.246379 288.924519 
L 420.170973 35.015485 
L 421.095568 35.015491 
L 422.020163 288.924545 
L 422.944757 288.924534 
L 423.869352 35.015455 
L 424.793947 35.015462 
L 425.718541 288.924489 
L 426.643136 288.924522 
L 427.56773 35.015455 
L 428.492325 288.92451 
L 430.341514 288.924248 
L 431.266109 286.768321 
L 432.190704 35.015463 
L 433.115298 288.924539 
L 434.039893 287.933289 
L 434.964488 288.924495 
L 437.738272 288.924529 
L 438.662866 35.015749 
L 441.43665 35.015485 
L 442.361245 288.924531 
L 443.285839 288.922544 
L 444.210434 35.015481 
L 446.059623 35.01546 
L 446.984218 288.924528 
L 447.908813 35.015484 
L 450.682597 35.015458 
L 451.607191 288.924538 
L 452.531786 35.019955 
L 453.456381 288.924051 
L 454.380975 35.015482 
L 456.230164 35.015461 
L 457.154759 288.924527 
L 458.079354 35.015463 
L 459.003948 288.92454 
L 460.853138 288.924534 
L 461.777732 35.015471 
L 462.702327 288.924542 
L 463.626922 35.015478 
L 464.551516 35.015466 
L 465.476111 288.924543 
L 466.400706 35.015458 
L 467.3253 288.923874 
L 468.249895 35.37592 
L 469.174489 288.911078 
L 470.099084 35.016056 
L 474.722057 35.01546 
L 475.646652 288.924536 
L 476.571247 35.016035 
L 477.495841 40.167884 
L 478.420436 288.908104 
L 479.345031 35.015461 
L 480.269625 288.924543 
L 482.118814 288.92446 
L 483.043409 35.015455 
L 483.968004 35.015456 
L 484.892598 288.924543 
L 485.817193 288.924543 
L 486.741788 35.017848 
L 487.666382 35.015455 
L 488.590977 288.924544 
L 490.440166 288.924522 
L 491.364761 35.015471 
L 492.289356 36.481259 
L 493.21395 288.924542 
L 494.138545 288.924509 
L 495.063139 35.015479 
L 495.987734 288.924415 
L 496.912329 288.924545 
L 497.836923 35.015543 
L 498.761518 288.924544 
L 499.686113 35.015458 
L 500.610707 288.924544 
L 501.535302 35.015466 
L 502.459897 35.015485 
L 503.384491 35.511229 
L 504.309086 35.015465 
L 506.158275 35.015468 
L 507.08287 285.971373 
L 508.007465 288.924544 
L 508.932059 35.015473 
L 509.856654 35.01546 
L 510.781248 288.924537 
L 511.705843 35.015459 
L 512.630438 288.924516 
L 513.555032 35.018348 
L 514.479627 288.924423 
L 515.404222 288.924543 
L 516.328816 35.015479 
L 517.253411 35.015455 
L 518.178006 288.924535 
L 519.1026 35.328667 
L 520.027195 288.924524 
L 521.876384 288.924542 
L 522.800979 35.015455 
L 523.725573 288.924539 
L 524.650168 288.924544 
L 525.574763 35.20814 
L 526.499357 288.924524 
L 527.423952 35.015459 
L 529.273141 35.015463 
L 530.197736 288.924537 
L 531.122331 35.015509 
L 532.97152 35.015457 
L 532.97152 35.015457 
" clip-path="url(#p4a90329b66)" style="fill: none; stroke: #4c72b0; stroke-width: 1.5; stroke-linecap: round"/>
    <defs>
     <path id="m6f45c77ae3" d="M 0 2 
C 0.530406 2 1.03916 1.789267 1.414214 1.414214 
C 1.789267 1.03916 2 0.530406 2 0 
C 2 -0.530406 1.789267 -1.03916 1.414214 -1.414214 
C 1.03916 -1.789267 0.530406 -2 0 -2 
C -0.530406 -2 -1.03916 -1.789267 -1.414214 -1.414214 
C -1.789267 -1.03916 -2 -0.530406 -2 0 
C -2 0.530406 -1.789267 1.03916 -1.414214 1.414214 
C -1.03916 1.789267 -0.530406 2 0 2 
z
" style="stroke: #4c72b0"/>
    </defs>
    <g clip-path="url(#p4a90329b66)">
     <use xlink:href="#m6f45c77ae3" x="71.598793" y="35.015455" style="fill: #4c72b0; stroke: #4c72b0"/>
     <use xlink:href="#m6f45c77ae3" x="86.392307" y="288.924529" style="fill: #4c72b0; stroke: #4c72b0"/>
     <use xlink:href="#m6f45c77ae3" x="101.185821" y="35.015534" style="fill: #4c72b0; stroke: #4c72b0"/>
     <use xlink:href="#m6f45c77ae3" x="115.979336" y="288.924541" style="fill: #4c72b0; stroke: #4c72b0"/>
     <use xlink:href="#m6f45c77ae3" x="130.77285" y="35.015464" style="fill: #4c72b0; stroke: #4c72b0"/>
     <use xlink:href="#m6f45c77ae3" x="145.566364" y="288.92454" style="fill: #4c72b0; stroke: #4c72b0"/>
     <use xlink:href="#m6f45c77ae3" x="160.359878" y="288.924544" style="fill: #4c72b0; stroke: #4c72b0"/>
     <use xlink:href="#m6f45c77ae3" x="175.153393" y="35.015465" style="fill: #4c72b0; stroke: #4c72b0"/>
     <use xlink:href="#m6f45c77ae3" x="189.946907" y="288.924544" style="fill: #4c72b0; stroke: #4c72b0"/>
     <use xlink:href="#m6f45c77ae3" x="204.740421" y="288.924542" style="fill: #4c72b0; stroke: #4c72b0"/>
     <use xlink:href="#m6f45c77ae3" x="219.533936" y="35.015456" style="fill: #4c72b0; stroke: #4c72b0"/>
     <use xlink:href="#m6f45c77ae3" x="234.32745" y="288.924543" style="fill: #4c72b0; stroke: #4c72b0"/>
     <use xlink:href="#m6f45c77ae3" x="249.120964" y="35.015455" style="fill: #4c72b0; stroke: #4c72b0"/>
     <use xlink:href="#m6f45c77ae3" x="263.914479" y="35.015461" style="fill: #4c72b0; stroke: #4c72b0"/>
     <use xlink:href="#m6f45c77ae3" x="278.707993" y="35.015459" style="fill: #4c72b0; stroke: #4c72b0"/>
     <use xlink:href="#m6f45c77ae3" x="293.501507" y="35.015466" style="fill: #4c72b0; stroke: #4c72b0"/>
     <use xlink:href="#m6f45c77ae3" x="308.295021" y="288.924541" style="fill: #4c72b0; stroke: #4c72b0"/>
     <use xlink:href="#m6f45c77ae3" x="323.088536" y="35.015458" style="fill: #4c72b0; stroke: #4c72b0"/>
     <use xlink:href="#m6f45c77ae3" x="337.88205" y="288.92418" style="fill: #4c72b0; stroke: #4c72b0"/>
     <use xlink:href="#m6f45c77ae3" x="352.675564" y="288.924538" style="fill: #4c72b0; stroke: #4c72b0"/>
     <use xlink:href="#m6f45c77ae3" x="367.469079" y="288.924514" style="fill: #4c72b0; stroke: #4c72b0"/>
     <use xlink:href="#m6f45c77ae3" x="382.262593" y="35.015455" style="fill: #4c72b0; stroke: #4c72b0"/>
     <use xlink:href="#m6f45c77ae3" x="397.056107" y="35.015455" style="fill: #4c72b0; stroke: #4c72b0"/>
     <use xlink:href="#m6f45c77ae3" x="411.849622" y="35.015461" style="fill: #4c72b0; stroke: #4c72b0"/>
     <use xlink:href="#m6f45c77ae3" x="426.643136" y="288.924522" style="fill: #4c72b0; stroke: #4c72b0"/>
     <use xlink:href="#m6f45c77ae3" x="441.43665" y="35.015485" style="fill: #4c72b0; stroke: #4c72b0"/>
     <use xlink:href="#m6f45c77ae3" x="456.230164" y="35.015461" style="fill: #4c72b0; stroke: #4c72b0"/>
     <use xlink:href="#m6f45c77ae3" x="471.023679" y="35.015456" style="fill: #4c72b0; stroke: #4c72b0"/>
     <use xlink:href="#m6f45c77ae3" x="485.817193" y="288.924543" style="fill: #4c72b0; stroke: #4c72b0"/>
     <use xlink:href="#m6f45c77ae3" x="500.610707" y="288.924544" style="fill: #4c72b0; stroke: #4c72b0"/>
     <use xlink:href="#m6f45c77ae3" x="515.404222" y="288.924543" style="fill: #4c72b0; stroke: #4c72b0"/>
     <use xlink:href="#m6f45c77ae3" x="530.197736" y="288.924537" style="fill: #4c72b0; stroke: #4c72b0"/>
    </g>
   </g>
   <g id="line2d_13">
    <path d="M 71.598793 161.969107 
L 77.14636 161.959125 
L 78.070955 248.767605 
L 78.99555 161.96266 
L 83.618523 161.970001 
L 84.543118 47.897656 
L 85.467712 248.764709 
L 86.392307 107.267958 
L 87.316902 161.968491 
L 90.090685 161.969898 
L 91.01528 39.116817 
L 91.939875 267.167952 
L 92.864469 75.17482 
L 93.789064 228.419161 
L 94.713659 202.598025 
L 95.638253 161.964567 
L 97.487443 161.969945 
L 98.412037 276.042353 
L 99.336632 61.270138 
L 100.261227 75.175271 
L 101.185821 233.800785 
L 102.110416 216.676721 
L 103.035011 193.720289 
L 103.959605 161.973275 
L 104.8842 161.970299 
L 105.808794 270.735863 
L 106.733389 161.969923 
L 107.657984 248.764807 
L 108.582578 87.017715 
L 109.507173 223.90598 
L 110.431768 115.302537 
L 111.356362 187.09786 
L 112.280957 276.038653 
L 113.205552 267.167942 
L 114.130146 161.970026 
L 115.054741 75.175114 
L 115.979336 238.961727 
L 116.90393 95.520613 
L 117.828525 107.261184 
L 118.753119 202.601491 
L 119.677714 181.56122 
L 120.602309 59.33649 
L 121.526903 256.799227 
L 123.376093 240.393109 
L 124.300687 92.412539 
L 125.225282 102.037348 
L 126.149877 47.897615 
L 127.074471 197.762868 
L 127.999066 147.524218 
L 128.923661 255.809334 
L 129.848255 248.765651 
L 130.77285 82.477265 
L 131.697444 233.796037 
L 132.622039 161.97 
L 133.546634 216.672031 
L 134.471228 161.97 
L 135.395823 193.720308 
L 136.320418 255.039431 
L 137.245012 75.179004 
L 138.169607 242.289617 
L 139.094202 235.541301 
L 140.018796 95.520421 
L 140.943391 103.052332 
L 141.867986 265.374624 
L 142.79258 202.596707 
L 143.717175 69.522244 
L 144.641769 75.175304 
L 145.566364 242.948077 
L 147.415553 230.602825 
L 149.264743 216.672022 
L 150.189337 208.637272 
L 151.113932 124.664091 
L 152.038527 136.842459 
L 152.963121 243.484998 
L 153.887716 85.907645 
L 154.812311 232.358037 
L 155.736905 97.546381 
L 156.6615 103.900055 
L 157.586094 161.97 
L 159.435284 248.76512 
L 160.359878 139.698581 
L 161.284473 238.955009 
L 162.209068 90.139247 
L 163.133662 265.789117 
L 164.058257 101.197202 
L 164.982852 216.675746 
L 165.907446 210.049177 
L 166.832041 121.344339 
L 167.756636 244.307371 
L 168.68123 239.731105 
L 169.605825 88.931606 
L 170.53042 230.102845 
L 171.455014 260.724885 
L 172.379609 219.531149 
L 173.304203 110.243188 
L 174.228798 161.970002 
L 175.153393 123.880271 
L 176.077987 132.602685 
L 177.002582 144.959621 
L 177.927177 161.97 
L 178.851771 161.970112 
L 179.776366 221.902592 
L 180.700961 216.672399 
L 181.625555 112.902326 
L 182.55015 119.105094 
L 183.474745 126.163486 
L 184.399339 134.797155 
L 185.323934 232.744405 
L 186.248528 64.68125 
L 187.173123 223.905855 
L 189.022312 214.100932 
L 189.946907 78.788589 
L 190.871502 202.595649 
L 191.796096 128.278986 
L 192.720691 187.098645 
L 193.645286 173.760761 
L 194.56988 98.316878 
L 195.494475 252.106947 
L 196.41907 107.267936 
L 198.268259 117.488211 
L 199.192853 238.358665 
L 200.117448 193.720355 
L 201.042043 138.770354 
L 201.966637 183.228579 
L 202.891232 100.853515 
L 203.815827 105.071626 
L 204.740421 78.383327 
L 206.589611 84.939829 
L 207.514205 125.284048 
L 208.4388 132.026353 
L 209.363395 183.33217 
L 210.287989 156.983556 
L 211.212584 161.97 
L 212.137178 107.26797 
L 213.061773 242.636516 
L 213.986368 116.258848 
L 214.910962 87.672235 
L 215.835557 127.039232 
L 216.760152 133.720737 
L 217.684746 181.561187 
L 218.609341 54.222315 
L 219.533936 105.29972 
L 220.45853 264.603665 
L 221.383125 239.96314 
L 222.30772 205.866553 
L 223.232314 123.064036 
L 224.156909 195.260946 
L 225.081503 188.618887 
L 226.930693 103.571044 
L 227.855287 243.231809 
L 228.779882 212.778492 
L 229.704477 86.43757 
L 230.629071 49.048198 
L 231.553666 124.623279 
L 232.478261 130.219697 
L 233.402855 98.722853 
L 234.32745 178.127722 
L 235.252045 80.454846 
L 236.176639 214.845183 
L 237.101234 112.902288 
L 238.025829 88.713396 
L 238.950423 232.357927 
L 239.875018 126.176994 
L 240.799612 192.265396 
L 241.724207 100.666684 
L 242.648802 220.039942 
L 243.573396 241.23358 
L 245.422586 235.842008 
L 246.34718 205.429151 
L 248.19637 196.342203 
L 249.120964 190.884725 
L 250.045559 221.460915 
L 250.970154 105.384193 
L 251.894748 108.934066 
L 252.819343 87.537136 
L 253.743937 70.642143 
L 254.668532 92.797994 
L 256.517721 225.623128 
L 257.442316 134.319929 
L 258.366911 259.522432 
L 259.291505 172.826674 
L 260.2161 236.917189 
L 261.140695 89.509814 
L 262.065289 206.452559 
L 263.914479 198.397453 
L 264.839073 130.219696 
L 265.763668 242.035762 
L 266.688262 142.378765 
L 267.612857 215.140654 
L 268.537452 70.974801 
L 269.462046 115.302698 
L 270.386641 118.842659 
L 271.311236 96.372891 
L 272.23583 260.724884 
L 273.160425 81.650084 
L 274.08502 83.865251 
L 275.009614 180.263041 
L 275.934209 168.441243 
L 276.858804 233.214978 
L 278.707993 228.428079 
L 279.632587 98.002098 
L 280.557182 65.510061 
L 281.481777 240.393104 
L 282.406371 105.878006 
L 283.330966 144.960042 
L 284.255561 111.608246 
L 285.180155 161.970001 
L 286.10475 94.735856 
L 287.029345 79.166385 
L 287.953939 242.744099 
L 288.878534 129.128719 
L 289.803129 219.3304 
L 290.727723 184.795788 
L 291.652318 177.701389 
L 292.576912 112.902345 
L 293.501507 261.35341 
L 294.426102 119.098571 
L 295.350696 161.970601 
L 296.275291 126.176581 
L 297.199886 130.217585 
L 298.12448 217.967245 
L 299.049075 140.246484 
L 299.97367 176.415944 
L 300.898264 246.908429 
L 301.822859 78.906302 
L 302.747454 203.689478 
L 303.672048 123.611169 
L 304.596643 84.658835 
L 305.521238 161.969999 
L 306.445832 135.836304 
L 307.370427 233.290688 
L 308.295021 112.51131 
L 309.219616 161.970001 
L 310.144211 118.236559 
L 311.068805 241.462729 
L 311.9934 124.669931 
L 312.917995 237.684821 
L 313.842589 161.969999 
L 314.767184 233.800653 
L 315.691779 231.812998 
L 316.616373 173.76074 
L 317.540968 269.208779 
L 318.465563 119.315366 
L 319.390157 121.898605 
L 320.314752 102.673052 
L 321.239346 219.007957 
L 322.163941 107.26799 
L 323.088536 214.264434 
L 324.01313 143.410806 
L 324.937725 151.59516 
L 325.86232 117.361732 
L 326.786914 203.587942 
L 327.711509 200.546428 
L 328.636104 73.545258 
L 329.560698 193.720298 
L 330.485293 52.917822 
L 331.409888 161.969999 
L 332.334482 210.680042 
L 333.259077 153.123827 
L 334.183671 47.897642 
L 335.108266 202.595657 
L 336.032861 236.917209 
L 336.957455 248.764688 
L 337.88205 107.267155 
L 338.806645 92.414464 
L 339.731239 229.672452 
L 340.655834 145.471401 
L 341.580429 264.806685 
L 342.505023 72.102164 
L 343.429618 102.037264 
L 344.354213 75.175068 
L 345.278807 106.193457 
L 346.203402 215.581554 
L 347.127996 79.876725 
L 348.977186 146.493605 
L 349.90178 84.711639 
L 350.826375 73.673618 
L 351.75097 103.168369 
L 352.675564 89.71371 
L 353.600159 194.564836 
L 354.524754 109.403939 
L 355.449348 187.097555 
L 356.373943 113.890822 
L 357.298538 98.511496 
L 358.223132 73.711986 
L 359.147727 87.672843 
L 360.072321 104.257274 
L 360.996916 232.967549 
L 361.921511 108.182556 
L 362.846105 213.532422 
L 363.7707 253.017234 
L 364.695295 226.069891 
L 365.619889 206.752255 
L 367.469079 122.219083 
L 368.393673 198.989221 
L 369.318268 68.300036 
L 370.242863 131.037812 
L 371.167457 111.372776 
L 372.092052 226.707888 
L 373.016647 44.298703 
L 373.941241 205.863174 
L 374.865836 88.571654 
L 375.79043 219.533214 
L 376.715025 217.637009 
L 377.63962 195.260958 
L 378.564214 94.97074 
L 379.488809 52.721415 
L 380.413404 139.30341 
L 381.337998 144.105765 
L 382.262593 150.735524 
L 383.187188 89.75516 
L 384.111782 218.544102 
L 385.036377 92.863656 
L 385.960972 252.723247 
L 386.885566 96.060287 
L 387.810161 187.849261 
L 388.734755 183.850218 
L 389.65935 178.979928 
L 390.583945 119.762517 
L 391.508539 68.762443 
L 392.433134 199.454752 
L 393.357729 229.9837 
L 394.282323 196.869179 
L 395.206918 97.108963 
L 396.131513 114.057995 
L 397.056107 183.07559 
L 397.980702 102.037184 
L 398.905297 153.123869 
L 399.829891 80.455121 
L 400.754486 262.078877 
L 401.67908 228.93115 
L 402.603675 227.387896 
L 403.52827 112.902187 
L 404.452864 137.577652 
L 405.377459 235.226951 
L 406.302054 177.274307 
L 407.226648 154.482346 
L 408.151243 81.650291 
L 409.075838 126.177154 
L 410.000432 195.117023 
L 410.925027 131.674634 
L 411.849622 134.79694 
L 412.774216 273.339267 
L 413.698811 78.947121 
L 414.623405 204.065249 
L 415.548 81.506931 
L 416.472595 199.510627 
L 417.397189 228.419178 
L 418.321784 129.530753 
L 419.246379 247.54238 
L 420.170973 114.528265 
L 421.095568 279.665949 
L 422.020163 143.122942 
L 422.944757 81.369809 
L 423.869352 122.825711 
L 424.793947 125.142919 
L 425.718541 266.451599 
L 426.643136 76.372045 
L 427.56773 190.884713 
L 428.492325 222.997053 
L 429.41692 70.550575 
L 430.341514 242.701939 
L 431.266109 161.97 
L 432.190704 123.533717 
L 433.115298 108.934073 
L 434.039893 161.97 
L 434.964488 98.861348 
L 435.889082 190.21918 
L 436.813677 187.097143 
L 437.738272 242.827357 
L 438.662866 231.142704 
L 439.587461 74.032985 
L 440.512056 199.718083 
L 441.43665 237.919019 
L 442.361245 236.66548 
L 443.285839 99.741681 
L 444.210434 89.817766 
L 445.135029 232.917216 
L 446.059623 82.179085 
L 446.984218 178.614717 
L 448.833407 124.89104 
L 449.758002 127.167726 
L 450.682597 88.260492 
L 451.607191 70.814824 
L 452.531786 208.291286 
L 453.456381 103.496316 
L 454.380975 218.956319 
L 455.30557 217.451577 
L 456.230164 95.963029 
L 457.154759 246.54941 
L 458.079354 235.947425 
L 459.003948 193.720318 
L 459.928543 90.449054 
L 460.853138 242.038249 
L 461.777732 65.471397 
L 462.702327 120.052395 
L 463.626922 216.672113 
L 464.551516 227.113146 
L 465.476111 197.762798 
L 466.400706 195.506446 
L 467.3253 210.331965 
L 468.249895 209.606428 
L 469.174489 161.97 
L 470.099084 84.032731 
L 471.023679 217.411078 
L 471.948273 227.567086 
L 472.872868 97.664332 
L 473.797463 197.144019 
L 474.722057 211.268202 
L 475.646652 101.648621 
L 476.571247 220.923935 
L 477.495841 161.969999 
L 478.420436 184.031076 
L 479.345031 228.002059 
L 480.269625 175.67258 
L 481.19422 98.477525 
L 482.118814 111.780767 
L 483.043409 129.637968 
L 483.968004 66.309949 
L 484.892598 220.164225 
L 485.817193 186.508206 
L 486.741788 161.969999 
L 487.666382 215.953732 
L 488.590977 79.310592 
L 489.515572 279.935821 
L 490.440166 100.548753 
L 492.289356 161.969999 
L 493.21395 135.058714 
L 494.138545 138.011292 
L 495.063139 78.213328 
L 495.987734 122.570309 
L 496.912329 124.475034 
L 497.836923 90.139212 
L 498.761518 241.599332 
L 499.686113 240.54368 
L 500.610707 54.43083 
L 501.535302 117.902628 
L 502.459897 138.581853 
L 503.384491 161.970001 
L 504.309086 123.161506 
L 505.233681 99.540222 
L 506.158275 90.972433 
L 507.08287 161.97 
L 508.007465 93.223451 
L 508.932059 246.813583 
L 509.856654 187.642496 
L 510.781248 227.251398 
L 511.705843 142.377096 
L 512.630438 242.847916 
L 513.555032 198.327298 
L 514.479627 196.342632 
L 515.404222 48.724449 
L 516.328816 268.019488 
L 517.253411 95.141133 
L 518.178006 136.842278 
L 519.1026 161.969999 
L 520.027195 277.261977 
L 520.95179 177.060316 
L 521.876384 197.762802 
L 522.800979 161.973932 
L 523.725573 254.237002 
L 525.574763 161.97 
L 526.499357 186.56148 
L 527.423952 202.595672 
L 528.348547 200.875973 
L 529.273141 241.095416 
L 530.197736 274.438084 
L 531.122331 77.031495 
L 532.046925 70.677664 
L 532.97152 191.011796 
L 532.97152 191.011796 
" clip-path="url(#p4a90329b66)" style="fill: none; stroke: #dd8452; stroke-width: 1.5; stroke-linecap: round"/>
    <defs>
     <path id="m292c29fd9c" d="M -2 2 
L 2 2 
L 2 -2 
L -2 -2 
z
" style="stroke: #dd8452; stroke-linejoin: miter"/>
    </defs>
    <g clip-path="url(#p4a90329b66)">
     <use xlink:href="#m292c29fd9c" x="71.598793" y="161.969107" style="fill: #dd8452; stroke: #dd8452; stroke-linejoin: miter"/>
     <use xlink:href="#m292c29fd9c" x="86.392307" y="107.267958" style="fill: #dd8452; stroke: #dd8452; stroke-linejoin: miter"/>
     <use xlink:href="#m292c29fd9c" x="101.185821" y="233.800785" style="fill: #dd8452; stroke: #dd8452; stroke-linejoin: miter"/>
     <use xlink:href="#m292c29fd9c" x="115.979336" y="238.961727" style="fill: #dd8452; stroke: #dd8452; stroke-linejoin: miter"/>
     <use xlink:href="#m292c29fd9c" x="130.77285" y="82.477265" style="fill: #dd8452; stroke: #dd8452; stroke-linejoin: miter"/>
     <use xlink:href="#m292c29fd9c" x="145.566364" y="242.948077" style="fill: #dd8452; stroke: #dd8452; stroke-linejoin: miter"/>
     <use xlink:href="#m292c29fd9c" x="160.359878" y="139.698581" style="fill: #dd8452; stroke: #dd8452; stroke-linejoin: miter"/>
     <use xlink:href="#m292c29fd9c" x="175.153393" y="123.880271" style="fill: #dd8452; stroke: #dd8452; stroke-linejoin: miter"/>
     <use xlink:href="#m292c29fd9c" x="189.946907" y="78.788589" style="fill: #dd8452; stroke: #dd8452; stroke-linejoin: miter"/>
     <use xlink:href="#m292c29fd9c" x="204.740421" y="78.383327" style="fill: #dd8452; stroke: #dd8452; stroke-linejoin: miter"/>
     <use xlink:href="#m292c29fd9c" x="219.533936" y="105.29972" style="fill: #dd8452; stroke: #dd8452; stroke-linejoin: miter"/>
     <use xlink:href="#m292c29fd9c" x="234.32745" y="178.127722" style="fill: #dd8452; stroke: #dd8452; stroke-linejoin: miter"/>
     <use xlink:href="#m292c29fd9c" x="249.120964" y="190.884725" style="fill: #dd8452; stroke: #dd8452; stroke-linejoin: miter"/>
     <use xlink:href="#m292c29fd9c" x="263.914479" y="198.397453" style="fill: #dd8452; stroke: #dd8452; stroke-linejoin: miter"/>
     <use xlink:href="#m292c29fd9c" x="278.707993" y="228.428079" style="fill: #dd8452; stroke: #dd8452; stroke-linejoin: miter"/>
     <use xlink:href="#m292c29fd9c" x="293.501507" y="261.35341" style="fill: #dd8452; stroke: #dd8452; stroke-linejoin: miter"/>
     <use xlink:href="#m292c29fd9c" x="308.295021" y="112.51131" style="fill: #dd8452; stroke: #dd8452; stroke-linejoin: miter"/>
     <use xlink:href="#m292c29fd9c" x="323.088536" y="214.264434" style="fill: #dd8452; stroke: #dd8452; stroke-linejoin: miter"/>
     <use xlink:href="#m292c29fd9c" x="337.88205" y="107.267155" style="fill: #dd8452; stroke: #dd8452; stroke-linejoin: miter"/>
     <use xlink:href="#m292c29fd9c" x="352.675564" y="89.71371" style="fill: #dd8452; stroke: #dd8452; stroke-linejoin: miter"/>
     <use xlink:href="#m292c29fd9c" x="367.469079" y="122.219083" style="fill: #dd8452; stroke: #dd8452; stroke-linejoin: miter"/>
     <use xlink:href="#m292c29fd9c" x="382.262593" y="150.735524" style="fill: #dd8452; stroke: #dd8452; stroke-linejoin: miter"/>
     <use xlink:href="#m292c29fd9c" x="397.056107" y="183.07559" style="fill: #dd8452; stroke: #dd8452; stroke-linejoin: miter"/>
     <use xlink:href="#m292c29fd9c" x="411.849622" y="134.79694" style="fill: #dd8452; stroke: #dd8452; stroke-linejoin: miter"/>
     <use xlink:href="#m292c29fd9c" x="426.643136" y="76.372045" style="fill: #dd8452; stroke: #dd8452; stroke-linejoin: miter"/>
     <use xlink:href="#m292c29fd9c" x="441.43665" y="237.919019" style="fill: #dd8452; stroke: #dd8452; stroke-linejoin: miter"/>
     <use xlink:href="#m292c29fd9c" x="456.230164" y="95.963029" style="fill: #dd8452; stroke: #dd8452; stroke-linejoin: miter"/>
     <use xlink:href="#m292c29fd9c" x="471.023679" y="217.411078" style="fill: #dd8452; stroke: #dd8452; stroke-linejoin: miter"/>
     <use xlink:href="#m292c29fd9c" x="485.817193" y="186.508206" style="fill: #dd8452; stroke: #dd8452; stroke-linejoin: miter"/>
     <use xlink:href="#m292c29fd9c" x="500.610707" y="54.43083" style="fill: #dd8452; stroke: #dd8452; stroke-linejoin: miter"/>
     <use xlink:href="#m292c29fd9c" x="515.404222" y="48.724449" style="fill: #dd8452; stroke: #dd8452; stroke-linejoin: miter"/>
     <use xlink:href="#m292c29fd9c" x="530.197736" y="274.438084" style="fill: #dd8452; stroke: #dd8452; stroke-linejoin: miter"/>
    </g>
   </g>
   <g id="line2d_14">
    <path d="M 71.598793 35.015455 
L 72.523387 288.924545 
L 73.447982 35.015455 
L 74.372577 288.924545 
L 76.221766 288.924545 
L 77.14636 35.015455 
L 78.070955 288.922558 
L 82.693928 288.924545 
L 83.618523 281.323974 
L 84.543118 288.924538 
L 85.467712 288.924538 
L 86.392307 35.015457 
L 87.316902 288.924545 
L 88.241496 35.015455 
L 89.166091 288.924545 
L 90.090685 288.924545 
L 91.01528 35.016274 
L 91.939875 288.924541 
L 92.864469 288.924528 
L 93.789064 35.015456 
L 94.713659 288.923784 
L 95.638253 288.924545 
L 96.562848 35.015455 
L 97.487443 288.924545 
L 98.412037 35.015473 
L 100.261227 35.015473 
L 101.185821 288.924536 
L 102.110416 288.924541 
L 103.035011 35.015455 
L 105.808794 35.017047 
L 106.733389 288.924545 
L 107.657984 35.015536 
L 108.582578 35.018541 
L 109.507173 288.924504 
L 111.356362 288.924484 
L 112.280957 35.01546 
L 113.205552 288.924527 
L 114.130146 35.015455 
L 115.054741 35.015587 
L 115.979336 288.920457 
L 116.90393 35.015507 
L 117.828525 35.018395 
L 118.753119 288.922674 
L 120.602309 288.924446 
L 121.526903 35.015457 
L 122.451498 288.924486 
L 123.376093 288.924533 
L 124.300687 35.015668 
L 127.074471 35.015477 
L 127.999066 288.924544 
L 128.923661 35.015456 
L 129.848255 288.924533 
L 130.77285 35.015457 
L 131.697444 35.015456 
L 132.622039 288.302263 
L 133.546634 288.924537 
L 134.471228 286.812624 
L 135.395823 288.924541 
L 136.320418 288.922671 
L 137.245012 35.015456 
L 138.169607 35.015457 
L 139.094202 288.924538 
L 140.018796 288.924542 
L 140.943391 35.015457 
L 141.867986 35.015477 
L 142.79258 288.924226 
L 143.717175 35.01569 
L 144.641769 288.924538 
L 145.566364 35.015458 
L 146.490959 35.015461 
L 147.415553 288.924529 
L 148.340148 35.015456 
L 149.264743 288.924542 
L 150.189337 35.015455 
L 151.113932 35.017177 
L 152.038527 288.924545 
L 152.963121 288.924461 
L 153.887716 35.015462 
L 154.812311 35.01549 
L 155.736905 288.924515 
L 156.6615 288.924527 
L 157.586094 287.180719 
L 158.510689 288.924543 
L 159.435284 288.924491 
L 160.359878 35.015512 
L 161.284473 35.01546 
L 162.209068 288.924477 
L 163.133662 35.015468 
L 168.68123 35.015465 
L 169.605825 288.924532 
L 170.53042 35.015477 
L 172.379609 35.015459 
L 173.304203 288.924543 
L 174.228798 288.81494 
L 175.153393 35.015457 
L 177.002582 35.015525 
L 177.927177 46.050763 
L 178.851771 288.924545 
L 179.776366 288.924525 
L 180.700961 35.015542 
L 181.625555 35.015457 
L 182.55015 288.924538 
L 183.474745 35.015455 
L 184.399339 35.015457 
L 185.323934 288.924544 
L 186.248528 35.01546 
L 187.173123 288.924526 
L 188.097718 35.015455 
L 189.022312 288.924542 
L 189.946907 288.924539 
L 190.871502 35.015456 
L 191.796096 288.924544 
L 192.720691 35.015457 
L 193.645286 288.924543 
L 195.494475 288.92452 
L 196.41907 35.015465 
L 197.343664 288.924534 
L 199.192853 288.924544 
L 200.117448 35.015468 
L 201.042043 288.924539 
L 201.966637 287.444259 
L 202.891232 288.924542 
L 204.740421 288.924349 
L 205.665016 35.015623 
L 206.589611 288.897133 
L 208.4388 288.924544 
L 209.363395 35.015457 
L 210.287989 35.01565 
L 211.212584 38.106217 
L 212.137178 288.924544 
L 213.061773 288.924538 
L 213.986368 35.015455 
L 214.910962 288.924193 
L 216.760152 288.924538 
L 217.684746 35.015458 
L 218.609341 35.015458 
L 219.533936 288.924538 
L 220.45853 35.015465 
L 221.383125 35.015461 
L 222.30772 288.923423 
L 223.232314 35.015462 
L 224.156909 288.924541 
L 225.081503 35.015458 
L 226.006098 288.924545 
L 226.930693 35.015465 
L 227.855287 35.016963 
L 228.779882 288.924535 
L 229.704477 35.015458 
L 230.629071 288.924537 
L 231.553666 35.029141 
L 232.478261 288.924542 
L 233.402855 288.924535 
L 234.32745 35.015456 
L 235.252045 288.924486 
L 236.176639 288.924542 
L 237.101234 35.015466 
L 238.025829 288.924524 
L 238.950423 288.924536 
L 239.875018 35.01547 
L 241.724207 35.015457 
L 242.648802 288.92454 
L 243.573396 288.923871 
L 244.497991 35.015501 
L 246.34718 35.015506 
L 247.271775 288.924544 
L 248.19637 288.92454 
L 249.120964 35.015457 
L 250.045559 35.015461 
L 250.970154 288.811236 
L 251.894748 35.015458 
L 252.819343 288.924541 
L 253.743937 288.924533 
L 254.668532 35.015464 
L 255.593127 35.099714 
L 257.442316 35.015565 
L 259.291505 35.015455 
L 260.2161 288.924522 
L 261.140695 35.015486 
L 262.065289 288.924529 
L 262.989884 35.015495 
L 263.914479 288.924541 
L 264.839073 35.015457 
L 266.688262 35.015457 
L 267.612857 288.924545 
L 268.537452 35.015457 
L 269.462046 288.924541 
L 270.386641 288.924417 
L 271.311236 35.015462 
L 272.23583 288.924531 
L 274.08502 288.924536 
L 275.009614 35.01546 
L 275.934209 288.924543 
L 276.858804 35.015463 
L 277.783398 288.924492 
L 278.707993 288.919869 
L 279.632587 35.015555 
L 280.557182 288.924541 
L 281.481777 35.01546 
L 282.406371 35.015472 
L 283.330966 288.924537 
L 284.255561 35.015483 
L 285.180155 48.986655 
L 286.10475 35.015461 
L 289.803129 35.015458 
L 290.727723 288.924545 
L 291.652318 35.015455 
L 292.576912 35.015456 
L 293.501507 288.924529 
L 294.426102 35.015566 
L 295.350696 288.924545 
L 296.275291 35.015602 
L 299.97367 35.015456 
L 300.898264 288.92454 
L 301.822859 35.015467 
L 302.747454 35.015467 
L 303.672048 288.924545 
L 304.596643 288.924435 
L 305.521238 288.170249 
L 306.445832 35.015461 
L 307.370427 288.924541 
L 308.295021 288.924534 
L 309.219616 47.63482 
L 310.144211 288.92454 
L 311.068805 35.015457 
L 311.9934 288.924514 
L 312.917995 35.015475 
L 313.842589 288.09188 
L 314.767184 288.924537 
L 315.691779 35.015715 
L 317.540968 35.01546 
L 318.465563 288.924515 
L 319.390157 288.770067 
L 320.314752 288.924538 
L 324.01313 288.924545 
L 324.937725 35.015455 
L 325.86232 288.880157 
L 326.786914 288.924537 
L 327.711509 35.015458 
L 328.636104 288.924498 
L 329.560698 288.924544 
L 330.485293 35.015524 
L 331.409888 36.624594 
L 332.334482 35.015455 
L 334.183671 35.015461 
L 335.108266 288.924542 
L 336.032861 288.924504 
L 336.957455 35.015456 
L 337.88205 35.015456 
L 338.806645 288.924529 
L 339.731239 35.015478 
L 341.580429 35.015467 
L 342.505023 288.924545 
L 343.429618 35.015534 
L 344.354213 288.924426 
L 346.203402 288.924538 
L 347.127996 35.015489 
L 350.826375 35.015463 
L 351.75097 288.923471 
L 353.600159 288.924541 
L 354.524754 35.015461 
L 355.449348 35.015458 
L 356.373943 288.924544 
L 357.298538 35.015639 
L 358.223132 35.015467 
L 359.147727 288.924543 
L 361.921511 288.924521 
L 362.846105 35.015504 
L 363.7707 288.924538 
L 364.695295 35.015464 
L 365.619889 35.01546 
L 366.544484 38.379764 
L 367.469079 35.015545 
L 368.393673 288.92454 
L 369.318268 35.015457 
L 370.242863 288.924543 
L 371.167457 288.924545 
L 372.092052 35.01546 
L 373.016647 288.924536 
L 373.941241 35.015718 
L 374.865836 288.924529 
L 375.79043 35.015955 
L 376.715025 288.924544 
L 377.63962 288.92454 
L 378.564214 35.015457 
L 379.488809 288.924437 
L 380.413404 35.015472 
L 381.337998 35.015455 
L 382.262593 288.924545 
L 383.187188 35.015455 
L 384.111782 288.924542 
L 385.036377 35.015455 
L 388.734755 35.015456 
L 389.65935 288.924539 
L 390.583945 288.923276 
L 391.508539 35.015494 
L 397.056107 35.015457 
L 397.980702 288.924475 
L 401.67908 288.924436 
L 402.603675 35.015481 
L 403.52827 35.015471 
L 404.452864 288.924545 
L 405.377459 35.015572 
L 406.302054 288.924542 
L 407.226648 288.924544 
L 408.151243 35.015518 
L 409.075838 288.924544 
L 411.849622 288.924499 
L 412.774216 35.015459 
L 413.698811 288.924485 
L 414.623405 35.015462 
L 415.548 288.924534 
L 418.321784 288.924538 
L 419.246379 35.015458 
L 420.170973 35.015484 
L 421.095568 288.923487 
L 422.020163 35.015474 
L 422.944757 288.924512 
L 423.869352 288.924534 
L 424.793947 35.015689 
L 425.718541 35.015502 
L 426.643136 288.924518 
L 427.56773 35.015455 
L 428.492325 288.924508 
L 429.41692 288.924541 
L 430.341514 35.015466 
L 431.266109 35.126153 
L 432.190704 288.924514 
L 433.115298 35.015461 
L 434.039893 273.837001 
L 434.964488 35.015503 
L 435.889082 288.924542 
L 436.813677 35.015457 
L 438.662866 35.01557 
L 439.587461 288.924514 
L 443.285839 288.924544 
L 444.210434 35.015471 
L 445.135029 288.876343 
L 446.059623 288.924538 
L 446.984218 35.015457 
L 449.758002 35.015456 
L 450.682597 288.924544 
L 451.607191 288.924545 
L 452.531786 35.015482 
L 453.456381 35.015471 
L 454.380975 288.924503 
L 455.30557 288.919983 
L 456.230164 35.015459 
L 457.154759 35.015461 
L 458.079354 288.924543 
L 459.003948 35.015457 
L 459.928543 35.015464 
L 460.853138 288.922909 
L 461.777732 288.654906 
L 462.702327 35.015457 
L 463.626922 35.015483 
L 464.551516 288.924528 
L 467.3253 288.923535 
L 468.249895 35.015456 
L 469.174489 288.914239 
L 470.099084 288.924515 
L 471.023679 35.015461 
L 471.948273 288.924543 
L 472.872868 288.924401 
L 473.797463 35.015455 
L 474.722057 288.924451 
L 476.571247 288.924543 
L 477.495841 288.809079 
L 478.420436 288.924512 
L 481.19422 288.924524 
L 482.118814 35.015463 
L 483.043409 288.924542 
L 483.968004 35.01546 
L 485.817193 35.015467 
L 486.741788 288.210013 
L 487.666382 35.015458 
L 489.515572 35.015463 
L 490.440166 288.924337 
L 491.364761 288.924537 
L 492.289356 37.599566 
L 493.21395 288.899077 
L 494.138545 35.015458 
L 495.063139 288.924528 
L 495.987734 35.015482 
L 496.912329 288.924545 
L 500.610707 288.924545 
L 501.535302 35.015463 
L 502.459897 35.015469 
L 503.384491 288.607914 
L 504.309086 35.015455 
L 505.233681 288.924516 
L 506.158275 35.015486 
L 508.007465 35.015473 
L 508.932059 288.924542 
L 509.856654 35.015456 
L 515.404222 35.015463 
L 516.328816 288.924439 
L 517.253411 288.924526 
L 518.178006 35.015482 
L 519.1026 288.857685 
L 520.95179 288.924543 
L 521.876384 35.015458 
L 522.800979 288.924545 
L 524.650168 288.924492 
L 525.574763 285.103821 
L 526.499357 288.924531 
L 527.423952 35.01546 
L 528.348547 288.924545 
L 529.273141 35.015505 
L 531.122331 35.015458 
L 532.046925 288.924526 
L 532.97152 35.020778 
L 532.97152 35.020778 
" clip-path="url(#p4a90329b66)" style="fill: none; stroke: #55a868; stroke-width: 1.5; stroke-linecap: round"/>
    <defs>
     <path id="m6b13ad8a75" d="M 0 -2 
L -2 2 
L 2 2 
z
" style="stroke: #55a868; stroke-linejoin: miter"/>
    </defs>
    <g clip-path="url(#p4a90329b66)">
     <use xlink:href="#m6b13ad8a75" x="71.598793" y="35.015455" style="fill: #55a868; stroke: #55a868; stroke-linejoin: miter"/>
     <use xlink:href="#m6b13ad8a75" x="86.392307" y="35.015457" style="fill: #55a868; stroke: #55a868; stroke-linejoin: miter"/>
     <use xlink:href="#m6b13ad8a75" x="101.185821" y="288.924536" style="fill: #55a868; stroke: #55a868; stroke-linejoin: miter"/>
     <use xlink:href="#m6b13ad8a75" x="115.979336" y="288.920457" style="fill: #55a868; stroke: #55a868; stroke-linejoin: miter"/>
     <use xlink:href="#m6b13ad8a75" x="130.77285" y="35.015457" style="fill: #55a868; stroke: #55a868; stroke-linejoin: miter"/>
     <use xlink:href="#m6b13ad8a75" x="145.566364" y="35.015458" style="fill: #55a868; stroke: #55a868; stroke-linejoin: miter"/>
     <use xlink:href="#m6b13ad8a75" x="160.359878" y="35.015512" style="fill: #55a868; stroke: #55a868; stroke-linejoin: miter"/>
     <use xlink:href="#m6b13ad8a75" x="175.153393" y="35.015457" style="fill: #55a868; stroke: #55a868; stroke-linejoin: miter"/>
     <use xlink:href="#m6b13ad8a75" x="189.946907" y="288.924539" style="fill: #55a868; stroke: #55a868; stroke-linejoin: miter"/>
     <use xlink:href="#m6b13ad8a75" x="204.740421" y="288.924349" style="fill: #55a868; stroke: #55a868; stroke-linejoin: miter"/>
     <use xlink:href="#m6b13ad8a75" x="219.533936" y="288.924538" style="fill: #55a868; stroke: #55a868; stroke-linejoin: miter"/>
     <use xlink:href="#m6b13ad8a75" x="234.32745" y="35.015456" style="fill: #55a868; stroke: #55a868; stroke-linejoin: miter"/>
     <use xlink:href="#m6b13ad8a75" x="249.120964" y="35.015457" style="fill: #55a868; stroke: #55a868; stroke-linejoin: miter"/>
     <use xlink:href="#m6b13ad8a75" x="263.914479" y="288.924541" style="fill: #55a868; stroke: #55a868; stroke-linejoin: miter"/>
     <use xlink:href="#m6b13ad8a75" x="278.707993" y="288.919869" style="fill: #55a868; stroke: #55a868; stroke-linejoin: miter"/>
     <use xlink:href="#m6b13ad8a75" x="293.501507" y="288.924529" style="fill: #55a868; stroke: #55a868; stroke-linejoin: miter"/>
     <use xlink:href="#m6b13ad8a75" x="308.295021" y="288.924534" style="fill: #55a868; stroke: #55a868; stroke-linejoin: miter"/>
     <use xlink:href="#m6b13ad8a75" x="323.088536" y="288.92454" style="fill: #55a868; stroke: #55a868; stroke-linejoin: miter"/>
     <use xlink:href="#m6b13ad8a75" x="337.88205" y="35.015456" style="fill: #55a868; stroke: #55a868; stroke-linejoin: miter"/>
     <use xlink:href="#m6b13ad8a75" x="352.675564" y="288.924535" style="fill: #55a868; stroke: #55a868; stroke-linejoin: miter"/>
     <use xlink:href="#m6b13ad8a75" x="367.469079" y="35.015545" style="fill: #55a868; stroke: #55a868; stroke-linejoin: miter"/>
     <use xlink:href="#m6b13ad8a75" x="382.262593" y="288.924545" style="fill: #55a868; stroke: #55a868; stroke-linejoin: miter"/>
     <use xlink:href="#m6b13ad8a75" x="397.056107" y="35.015457" style="fill: #55a868; stroke: #55a868; stroke-linejoin: miter"/>
     <use xlink:href="#m6b13ad8a75" x="411.849622" y="288.924499" style="fill: #55a868; stroke: #55a868; stroke-linejoin: miter"/>
     <use xlink:href="#m6b13ad8a75" x="426.643136" y="288.924518" style="fill: #55a868; stroke: #55a868; stroke-linejoin: miter"/>
     <use xlink:href="#m6b13ad8a75" x="441.43665" y="288.92453" style="fill: #55a868; stroke: #55a868; stroke-linejoin: miter"/>
     <use xlink:href="#m6b13ad8a75" x="456.230164" y="35.015459" style="fill: #55a868; stroke: #55a868; stroke-linejoin: miter"/>
     <use xlink:href="#m6b13ad8a75" x="471.023679" y="35.015461" style="fill: #55a868; stroke: #55a868; stroke-linejoin: miter"/>
     <use xlink:href="#m6b13ad8a75" x="485.817193" y="35.015467" style="fill: #55a868; stroke: #55a868; stroke-linejoin: miter"/>
     <use xlink:href="#m6b13ad8a75" x="500.610707" y="288.924545" style="fill: #55a868; stroke: #55a868; stroke-linejoin: miter"/>
     <use xlink:href="#m6b13ad8a75" x="515.404222" y="35.015463" style="fill: #55a868; stroke: #55a868; stroke-linejoin: miter"/>
     <use xlink:href="#m6b13ad8a75" x="530.197736" y="35.01547" style="fill: #55a868; stroke: #55a868; stroke-linejoin: miter"/>
    </g>
   </g>
   <g id="patch_3">
    <path d="M 48.530156 301.62 
L 48.530156 22.32 
" style="fill: none; stroke: #cccccc; stroke-width: 1.25; stroke-linejoin: miter; stroke-linecap: square"/>
   </g>
   <g id="patch_4">
    <path d="M 556.040156 301.62 
L 556.040156 22.32 
" style="fill: none; stroke: #cccccc; stroke-width: 1.25; stroke-linejoin: miter; stroke-linecap: square"/>
   </g>
   <g id="patch_5">
    <path d="M 48.530156 301.62 
L 556.040156 301.62 
" style="fill: none; stroke: #cccccc; stroke-width: 1.25; stroke-linejoin: miter; stroke-linecap: square"/>
   </g>
   <g id="patch_6">
    <path d="M 48.530156 22.32 
L 556.040156 22.32 
" style="fill: none; stroke: #cccccc; stroke-width: 1.25; stroke-linejoin: miter; stroke-linecap: square"/>
   </g>
   <g id="text_14">
    <!-- Scenario A: Optimal drive parameters vs $\omega$ -->
    <g style="fill: #262626" transform="translate(173.165156 16.32) scale(0.12 -0.12)">
     <defs>
      <path id="DejaVuSans-53" d="M 3425 4513 
L 3425 3897 
Q 3066 4069 2747 4153 
Q 2428 4238 2131 4238 
Q 1616 4238 1336 4038 
Q 1056 3838 1056 3469 
Q 1056 3159 1242 3001 
Q 1428 2844 1947 2747 
L 2328 2669 
Q 3034 2534 3370 2195 
Q 3706 1856 3706 1288 
Q 3706 609 3251 259 
Q 2797 -91 1919 -91 
Q 1588 -91 1214 -16 
Q 841 59 441 206 
L 441 856 
Q 825 641 1194 531 
Q 1563 422 1919 422 
Q 2459 422 2753 634 
Q 3047 847 3047 1241 
Q 3047 1584 2836 1778 
Q 2625 1972 2144 2069 
L 1759 2144 
Q 1053 2284 737 2584 
Q 422 2884 422 3419 
Q 422 4038 858 4394 
Q 1294 4750 2059 4750 
Q 2388 4750 2728 4690 
Q 3069 4631 3425 4513 
z
" transform="scale(0.015625)"/>
      <path id="DejaVuSans-63" d="M 3122 3366 
L 3122 2828 
Q 2878 2963 2633 3030 
Q 2388 3097 2138 3097 
Q 1578 3097 1268 2742 
Q 959 2388 959 1747 
Q 959 1106 1268 751 
Q 1578 397 2138 397 
Q 2388 397 2633 464 
Q 2878 531 3122 666 
L 3122 134 
Q 2881 22 2623 -34 
Q 2366 -91 2075 -91 
Q 1284 -91 818 406 
Q 353 903 353 1747 
Q 353 2603 823 3093 
Q 1294 3584 2113 3584 
Q 2378 3584 2631 3529 
Q 2884 3475 3122 3366 
z
" transform="scale(0.015625)"/>
      <path id="DejaVuSans-6e" d="M 3513 2113 
L 3513 0 
L 2938 0 
L 2938 2094 
Q 2938 2591 2744 2837 
Q 2550 3084 2163 3084 
Q 1697 3084 1428 2787 
Q 1159 2491 1159 1978 
L 1159 0 
L 581 0 
L 581 3500 
L 1159 3500 
L 1159 2956 
Q 1366 3272 1645 3428 
Q 1925 3584 2291 3584 
Q 2894 3584 3203 3211 
Q 3513 2838 3513 2113 
z
" transform="scale(0.015625)"/>
      <path id="DejaVuSans-6f" d="M 1959 3097 
Q 1497 3097 1228 2736 
Q 959 2375 959 1747 
Q 959 1119 1226 758 
Q 1494 397 1959 397 
Q 2419 397 2687 759 
Q 2956 1122 2956 1747 
Q 2956 2369 2687 2733 
Q 2419 3097 1959 3097 
z
M 1959 3584 
Q 2709 3584 3137 3096 
Q 3566 2609 3566 1747 
Q 3566 888 3137 398 
Q 2709 -91 1959 -91 
Q 1206 -91 779 398 
Q 353 888 353 1747 
Q 353 2609 779 3096 
Q 1206 3584 1959 3584 
z
" transform="scale(0.015625)"/>
      <path id="DejaVuSans-41" d="M 2188 4044 
L 1331 1722 
L 3047 1722 
L 2188 4044 
z
M 1831 4666 
L 2547 4666 
L 4325 0 
L 3669 0 
L 3244 1197 
L 1141 1197 
L 716 0 
L 50 0 
L 1831 4666 
z
" transform="scale(0.015625)"/>
      <path id="DejaVuSans-3a" d="M 750 794 
L 1409 794 
L 1409 0 
L 750 0 
L 750 794 
z
M 750 3309 
L 1409 3309 
L 1409 2516 
L 750 2516 
L 750 3309 
z
" transform="scale(0.015625)"/>
      <path id="DejaVuSans-64" d="M 2906 2969 
L 2906 4863 
L 3481 4863 
L 3481 0 
L 2906 0 
L 2906 525 
Q 2725 213 2448 61 
Q 2172 -91 1784 -91 
Q 1150 -91 751 415 
Q 353 922 353 1747 
Q 353 2572 751 3078 
Q 1150 3584 1784 3584 
Q 2172 3584 2448 3432 
Q 2725 3281 2906 2969 
z
M 947 1747 
Q 947 1113 1208 752 
Q 1469 391 1925 391 
Q 2381 391 2643 752 
Q 2906 1113 2906 1747 
Q 2906 2381 2643 2742 
Q 2381 3103 1925 3103 
Q 1469 3103 1208 2742 
Q 947 2381 947 1747 
z
" transform="scale(0.015625)"/>
      <path id="DejaVuSans-73" d="M 2834 3397 
L 2834 2853 
Q 2591 2978 2328 3040 
Q 2066 3103 1784 3103 
Q 1356 3103 1142 2972 
Q 928 2841 928 2578 
Q 928 2378 1081 2264 
Q 1234 2150 1697 2047 
L 1894 2003 
Q 2506 1872 2764 1633 
Q 3022 1394 3022 966 
Q 3022 478 2636 193 
Q 2250 -91 1575 -91 
Q 1294 -91 989 -36 
Q 684 19 347 128 
L 347 722 
Q 666 556 975 473 
Q 1284 391 1588 391 
Q 1994 391 2212 530 
Q 2431 669 2431 922 
Q 2431 1156 2273 1281 
Q 2116 1406 1581 1522 
L 1381 1569 
Q 847 1681 609 1914 
Q 372 2147 372 2553 
Q 372 3047 722 3315 
Q 1072 3584 1716 3584 
Q 2034 3584 2315 3537 
Q 2597 3491 2834 3397 
z
" transform="scale(0.015625)"/>
     </defs>
     <use xlink:href="#DejaVuSans-53" transform="translate(0 0.015625)"/>
     <use xlink:href="#DejaVuSans-63" transform="translate(63.476562 0.015625)"/>
     <use xlink:href="#DejaVuSans-65" transform="translate(118.457031 0.015625)"/>
     <use xlink:href="#DejaVuSans-6e" transform="translate(179.980469 0.015625)"/>
     <use xlink:href="#DejaVuSans-61" transform="translate(243.359375 0.015625)"/>
     <use xlink:href="#DejaVuSans-72" transform="translate(304.638672 0.015625)"/>
     <use xlink:href="#DejaVuSans-69" transform="translate(345.751953 0.015625)"/>
     <use xlink:href="#DejaVuSans-6f" transform="translate(373.535156 0.015625)"/>
     <use xlink:href="#DejaVuSans-20" transform="translate(434.716797 0.015625)"/>
     <use xlink:href="#DejaVuSans-41" transform="translate(466.503906 0.015625)"/>
     <use xlink:href="#DejaVuSans-3a" transform="translate(534.912109 0.015625)"/>
     <use xlink:href="#DejaVuSans-20" transform="translate(568.603516 0.015625)"/>
     <use xlink:href="#DejaVuSans-4f" transform="translate(600.390625 0.015625)"/>
     <use xlink:href="#DejaVuSans-70" transform="translate(679.101562 0.015625)"/>
     <use xlink:href="#DejaVuSans-74" transform="translate(742.578125 0.015625)"/>
     <use xlink:href="#DejaVuSans-69" transform="translate(781.787109 0.015625)"/>
     <use xlink:href="#DejaVuSans-6d" transform="translate(809.570312 0.015625)"/>
     <use xlink:href="#DejaVuSans-61" transform="translate(906.982422 0.015625)"/>
     <use xlink:href="#DejaVuSans-6c" transform="translate(968.261719 0.015625)"/>
     <use xlink:href="#DejaVuSans-20" transform="translate(996.044922 0.015625)"/>
     <use xlink:href="#DejaVuSans-64" transform="translate(1027.832031 0.015625)"/>
     <use xlink:href="#DejaVuSans-72" transform="translate(1091.308594 0.015625)"/>
     <use xlink:href="#DejaVuSans-69" transform="translate(1132.421875 0.015625)"/>
     <use xlink:href="#DejaVuSans-76" transform="translate(1160.205078 0.015625)"/>
     <use xlink:href="#DejaVuSans-65" transform="translate(1219.384766 0.015625)"/>
     <use xlink:href="#DejaVuSans-20" transform="translate(1280.908203 0.015625)"/>
     <use xlink:href="#DejaVuSans-70" transform="translate(1312.695312 0.015625)"/>
     <use xlink:href="#DejaVuSans-61" transform="translate(1376.171875 0.015625)"/>
     <use xlink:href="#DejaVuSans-72" transform="translate(1437.451172 0.015625)"/>
     <use xlink:href="#DejaVuSans-61" transform="translate(1478.564453 0.015625)"/>
     <use xlink:href="#DejaVuSans-6d" transform="translate(1539.84375 0.015625)"/>
     <use xlink:href="#DejaVuSans-65" transform="translate(1637.255859 0.015625)"/>
     <use xlink:href="#DejaVuSans-74" transform="translate(1698.779297 0.015625)"/>
     <use xlink:href="#DejaVuSans-65" transform="translate(1737.988281 0.015625)"/>
     <use xlink:href="#DejaVuSans-72" transform="translate(1799.511719 0.015625)"/>
     <use xlink:href="#DejaVuSans-73" transform="translate(1840.625 0.015625)"/>
     <use xlink:href="#DejaVuSans-20" transform="translate(1892.724609 0.015625)"/>
     <use xlink:href="#DejaVuSans-76" transform="translate(1924.511719 0.015625)"/>
     <use xlink:href="#DejaVuSans-73" transform="translate(1983.691406 0.015625)"/>
     <use xlink:href="#DejaVuSans-20" transform="translate(2035.791016 0.015625)"/>
     <use xlink:href="#DejaVuSans-Oblique-3c9" transform="translate(2067.578125 0.015625)"/>
    </g>
   </g>
   <g id="legend_1">
    <g id="patch_7">
     <path d="M 498.730156 192.275 
L 548.340156 192.275 
Q 550.540156 192.275 550.540156 190.075 
L 550.540156 133.865 
Q 550.540156 131.665 548.340156 131.665 
L 498.730156 131.665 
Q 496.530156 131.665 496.530156 133.865 
L 496.530156 190.075 
Q 496.530156 192.275 498.730156 192.275 
z
" style="fill: #ffffff; opacity: 0.8; stroke: #cccccc; stroke-linejoin: miter"/>
    </g>
    <g id="line2d_15">
     <path d="M 500.930156 142.225 
L 511.930156 142.225 
L 522.930156 142.225 
" style="fill: none; stroke: #4c72b0; stroke-width: 1.5; stroke-linecap: round"/>
     <g>
      <use xlink:href="#m6f45c77ae3" x="511.930156" y="142.225" style="fill: #4c72b0; stroke: #4c72b0"/>
     </g>
    </g>
    <g id="text_15">
     <!-- $a_x^*$ -->
     <g style="fill: #262626" transform="translate(531.730156 146.075) scale(0.11 -0.11)">
      <defs>
       <path id="DejaVuSans-Oblique-61" d="M 3438 1997 
L 3047 0 
L 2472 0 
L 2578 531 
Q 2325 219 2001 64 
Q 1678 -91 1281 -91 
Q 834 -91 548 182 
Q 263 456 263 884 
Q 263 1497 752 1853 
Q 1241 2209 2100 2209 
L 2900 2209 
L 2931 2363 
Q 2938 2388 2941 2417 
Q 2944 2447 2944 2509 
Q 2944 2788 2717 2942 
Q 2491 3097 2081 3097 
Q 1800 3097 1504 3025 
Q 1209 2953 897 2809 
L 997 3341 
Q 1322 3463 1633 3523 
Q 1944 3584 2234 3584 
Q 2853 3584 3176 3315 
Q 3500 3047 3500 2534 
Q 3500 2431 3484 2292 
Q 3469 2153 3438 1997 
z
M 2816 1759 
L 2241 1759 
Q 1534 1759 1195 1570 
Q 856 1381 856 984 
Q 856 709 1029 553 
Q 1203 397 1509 397 
Q 1978 397 2328 733 
Q 2678 1069 2791 1631 
L 2816 1759 
z
" transform="scale(0.015625)"/>
       <path id="DejaVuSans-2a" d="M 3009 3897 
L 1888 3291 
L 3009 2681 
L 2828 2375 
L 1778 3009 
L 1778 1831 
L 1422 1831 
L 1422 3009 
L 372 2375 
L 191 2681 
L 1313 3291 
L 191 3897 
L 372 4206 
L 1422 3572 
L 1422 4750 
L 1778 4750 
L 1778 3572 
L 2828 4206 
L 3009 3897 
z
" transform="scale(0.015625)"/>
       <path id="DejaVuSans-Oblique-78" d="M 3841 3500 
L 2234 1784 
L 3219 0 
L 2559 0 
L 1819 1388 
L 531 0 
L -166 0 
L 1556 1844 
L 641 3500 
L 1300 3500 
L 1972 2234 
L 3144 3500 
L 3841 3500 
z
" transform="scale(0.015625)"/>
      </defs>
      <use xlink:href="#DejaVuSans-Oblique-61" transform="translate(0 0.765625)"/>
      <use xlink:href="#DejaVuSans-2a" transform="translate(79.566888 39.046875) scale(0.7)"/>
      <use xlink:href="#DejaVuSans-Oblique-78" transform="translate(61.279297 -26.578125) scale(0.7)"/>
     </g>
    </g>
    <g id="line2d_16">
     <path d="M 500.930156 160.815 
L 511.930156 160.815 
L 522.930156 160.815 
" style="fill: none; stroke: #dd8452; stroke-width: 1.5; stroke-linecap: round"/>
     <g>
      <use xlink:href="#m292c29fd9c" x="511.930156" y="160.815" style="fill: #dd8452; stroke: #dd8452; stroke-linejoin: miter"/>
     </g>
    </g>
    <g id="text_16">
     <!-- $a_y^*$ -->
     <g style="fill: #262626" transform="translate(531.730156 164.665) scale(0.11 -0.11)">
      <defs>
       <path id="DejaVuSans-Oblique-79" d="M 1588 -325 
Q 1188 -997 936 -1164 
Q 684 -1331 294 -1331 
L -159 -1331 
L -63 -850 
L 269 -850 
Q 509 -850 678 -719 
Q 847 -588 1056 -206 
L 1234 128 
L 459 3500 
L 1069 3500 
L 1650 819 
L 3256 3500 
L 3859 3500 
L 1588 -325 
z
" transform="scale(0.015625)"/>
      </defs>
      <use xlink:href="#DejaVuSans-Oblique-61" transform="translate(0 0.765625)"/>
      <use xlink:href="#DejaVuSans-2a" transform="translate(79.566888 39.046875) scale(0.7)"/>
      <use xlink:href="#DejaVuSans-Oblique-79" transform="translate(61.279297 -26.578125) scale(0.7)"/>
     </g>
    </g>
    <g id="line2d_17">
     <path d="M 500.930156 180.945 
L 511.930156 180.945 
L 522.930156 180.945 
" style="fill: none; stroke: #55a868; stroke-width: 1.5; stroke-linecap: round"/>
     <g>
      <use xlink:href="#m6b13ad8a75" x="511.930156" y="180.945" style="fill: #55a868; stroke: #55a868; stroke-linejoin: miter"/>
     </g>
    </g>
    <g id="text_17">
     <!-- $a_z^*$ -->
     <g style="fill: #262626" transform="translate(531.730156 184.795) scale(0.11 -0.11)">
      <defs>
       <path id="DejaVuSans-Oblique-7a" d="M 744 3500 
L 3475 3500 
L 3372 2975 
L 738 459 
L 2913 459 
L 2822 0 
L -19 0 
L 84 525 
L 2719 3041 
L 653 3041 
L 744 3500 
z
" transform="scale(0.015625)"/>
      </defs>
      <use xlink:href="#DejaVuSans-Oblique-61" transform="translate(0 0.765625)"/>
      <use xlink:href="#DejaVuSans-2a" transform="translate(79.566888 39.046875) scale(0.7)"/>
      <use xlink:href="#DejaVuSans-Oblique-7a" transform="translate(61.279297 -26.578125) scale(0.7)"/>
     </g>
    </g>
   </g>
  </g>
 </g>
 <defs>
  <clipPath id="p4a90329b66">
   <rect x="48.530156" y="22.32" width="507.51" height="279.3"/>
  </clipPath>
 </defs>
</svg>
