<?xml version="1.0" encoding="utf-8" standalone="no"?>
<!DOCTYPE svg PUBLIC "-//W3C//DTD SVG 1.1//EN"
  "http://www.w3.org/Graphics/SVG/1.1/DTD/svg11.dtd">
<svg xmlns:xlink="http://www.w3.org/1999/xlink" width="563.240156pt" height="272.867688pt" viewBox="0 0 563.240156 272.867688" xmlns="http://www.w3.org/2000/svg" version="1.1">
 <metadata>
  <rdf:RDF xmlns:dc="http://purl.org/dc/elements/1.1/" xmlns:cc="http://creativecommons.org/ns#" xmlns:rdf="http://www.w3.org/1999/02/22-rdf-syntax-ns#">
   <cc:Work>
    <dc:type rdf:resource="http://purl.org/dc/dcmitype/StillImage"/>
    <dc:date>2026-07-11T00:18:57.064305</dc:date>
    <dc:format>image/svg+xml</dc:format>
    <dc:creator>
     <cc:Agent>
      <dc:title>Matplotlib v3.10.9, https://matplotlib.org/</dc:title>
     </cc:Agent>
    </dc:creator>
   </cc:Work>
  </rdf:RDF>
 </metadata>
 <defs>
  <style type="text/css">*{stroke-linejoin: round; stroke-linecap: butt}</style>
 </defs>
 <g id="figure_1">
  <g id="patch_1">
   <path d="M 0 272.867688 
L 563.240156 272.867688 
L 563.240156 0 
L 0 0 
z
" style="fill: #ffffff"/>
  </g>
  <g id="axes_1">
   <g id="patch_2">
    <path d="M 48.530156 229.908 
L 556.040156 229.908 
L 556.040156 24.12 
L 48.530156 24.12 
z
" style="fill: #ffffff"/>
   </g>
   <g id="matplotlib.axis_1">
    <g id="xtick_1">
     <g id="line2d_1">
      <path d="M 70.674198 229.908 
L 70.674198 24.12 
" clip-path="url(#pacaa56ae52)" style="fill: none; stroke: #cccccc; stroke-linecap: round"/>
     </g>
     <g id="text_1">
      <!-- 0 -->
      <g style="fill: #262626" transform="translate(67.174823 247.766281) scale(0.11 -0.11)">
       <defs>
        <path id="DejaVuSans-30" d="M 2034 4250 
Q 1547 4250 1301 3770 
Q 1056 3291 1056 2328 
Q 1056 1369 1301 889 
Q 1547 409 2034 409 
Q 2525 409 2770 889 
Q 3016 1369 3016 2328 
Q 3016 3291 2770 3770 
Q 2525 4250 2034 4250 
z
M 2034 4750 
Q 2819 4750 3233 4129 
Q 3647 3509 3647 2328 
Q 3647 1150 3233 529 
Q 2819 -91 2034 -91 
Q 1250 -91 836 529 
Q 422 1150 422 2328 
Q 422 3509 836 4129 
Q 1250 4750 2034 4750 
z
" transform="scale(0.015625)"/>
       </defs>
       <use xlink:href="#DejaVuSans-30"/>
      </g>
     </g>
    </g>
    <g id="xtick_2">
     <g id="line2d_2">
      <path d="M 163.133662 229.908 
L 163.133662 24.12 
" clip-path="url(#pacaa56ae52)" style="fill: none; stroke: #cccccc; stroke-linecap: round"/>
     </g>
     <g id="text_2">
      <!-- 1 -->
      <g style="fill: #262626" transform="translate(159.634287 247.766281) scale(0.11 -0.11)">
       <defs>
        <path id="DejaVuSans-31" d="M 794 531 
L 1825 531 
L 1825 4091 
L 703 3866 
L 703 4441 
L 1819 4666 
L 2450 4666 
L 2450 531 
L 3481 531 
L 3481 0 
L 794 0 
L 794 531 
z
" transform="scale(0.015625)"/>
       </defs>
       <use xlink:href="#DejaVuSans-31"/>
      </g>
     </g>
    </g>
    <g id="xtick_3">
     <g id="line2d_3">
      <path d="M 255.593127 229.908 
L 255.593127 24.12 
" clip-path="url(#pacaa56ae52)" style="fill: none; stroke: #cccccc; stroke-linecap: round"/>
     </g>
     <g id="text_3">
      <!-- 2 -->
      <g style="fill: #262626" transform="translate(252.093752 247.766281) scale(0.11 -0.11)">
       <defs>
        <path id="DejaVuSans-32" d="M 1228 531 
L 3431 531 
L 3431 0 
L 469 0 
L 469 531 
Q 828 903 1448 1529 
Q 2069 2156 2228 2338 
Q 2531 2678 2651 2914 
Q 2772 3150 2772 3378 
Q 2772 3750 2511 3984 
Q 2250 4219 1831 4219 
Q 1534 4219 1204 4116 
Q 875 4013 500 3803 
L 500 4441 
Q 881 4594 1212 4672 
Q 1544 4750 1819 4750 
Q 2544 4750 2975 4387 
Q 3406 4025 3406 3419 
Q 3406 3131 3298 2873 
Q 3191 2616 2906 2266 
Q 2828 2175 2409 1742 
Q 1991 1309 1228 531 
z
" transform="scale(0.015625)"/>
       </defs>
       <use xlink:href="#DejaVuSans-32"/>
      </g>
     </g>
    </g>
    <g id="xtick_4">
     <g id="line2d_4">
      <path d="M 348.052591 229.908 
L 348.052591 24.12 
" clip-path="url(#pacaa56ae52)" style="fill: none; stroke: #cccccc; stroke-linecap: round"/>
     </g>
     <g id="text_4">
      <!-- 3 -->
      <g style="fill: #262626" transform="translate(344.553216 247.766281) scale(0.11 -0.11)">
       <defs>
        <path id="DejaVuSans-33" d="M 2597 2516 
Q 3050 2419 3304 2112 
Q 3559 1806 3559 1356 
Q 3559 666 3084 287 
Q 2609 -91 1734 -91 
Q 1441 -91 1130 -33 
Q 819 25 488 141 
L 488 750 
Q 750 597 1062 519 
Q 1375 441 1716 441 
Q 2309 441 2620 675 
Q 2931 909 2931 1356 
Q 2931 1769 2642 2001 
Q 2353 2234 1838 2234 
L 1294 2234 
L 1294 2753 
L 1863 2753 
Q 2328 2753 2575 2939 
Q 2822 3125 2822 3475 
Q 2822 3834 2567 4026 
Q 2313 4219 1838 4219 
Q 1578 4219 1281 4162 
Q 984 4106 628 3988 
L 628 4550 
Q 988 4650 1302 4700 
Q 1616 4750 1894 4750 
Q 2613 4750 3031 4423 
Q 3450 4097 3450 3541 
Q 3450 3153 3228 2886 
Q 3006 2619 2597 2516 
z
" transform="scale(0.015625)"/>
       </defs>
       <use xlink:href="#DejaVuSans-33"/>
      </g>
     </g>
    </g>
    <g id="xtick_5">
     <g id="line2d_5">
      <path d="M 440.512056 229.908 
L 440.512056 24.12 
" clip-path="url(#pacaa56ae52)" style="fill: none; stroke: #cccccc; stroke-linecap: round"/>
     </g>
     <g id="text_5">
      <!-- 4 -->
      <g style="fill: #262626" transform="translate(437.012681 247.766281) scale(0.11 -0.11)">
       <defs>
        <path id="DejaVuSans-34" d="M 2419 4116 
L 825 1625 
L 2419 1625 
L 2419 4116 
z
M 2253 4666 
L 3047 4666 
L 3047 1625 
L 3713 1625 
L 3713 1100 
L 3047 1100 
L 3047 0 
L 2419 0 
L 2419 1100 
L 313 1100 
L 313 1709 
L 2253 4666 
z
" transform="scale(0.015625)"/>
       </defs>
       <use xlink:href="#DejaVuSans-34"/>
      </g>
     </g>
    </g>
    <g id="xtick_6">
     <g id="line2d_6">
      <path d="M 532.97152 229.908 
L 532.97152 24.12 
" clip-path="url(#pacaa56ae52)" style="fill: none; stroke: #cccccc; stroke-linecap: round"/>
     </g>
     <g id="text_6">
      <!-- 5 -->
      <g style="fill: #262626" transform="translate(529.472145 247.766281) scale(0.11 -0.11)">
       <defs>
        <path id="DejaVuSans-35" d="M 691 4666 
L 3169 4666 
L 3169 4134 
L 1269 4134 
L 1269 2991 
Q 1406 3038 1543 3061 
Q 1681 3084 1819 3084 
Q 2600 3084 3056 2656 
Q 3513 2228 3513 1497 
Q 3513 744 3044 326 
Q 2575 -91 1722 -91 
Q 1428 -91 1123 -41 
Q 819 9 494 109 
L 494 744 
Q 775 591 1075 516 
Q 1375 441 1709 441 
Q 2250 441 2565 725 
Q 2881 1009 2881 1497 
Q 2881 1984 2565 2268 
Q 2250 2553 1709 2553 
Q 1456 2553 1204 2497 
Q 953 2441 691 2322 
L 691 4666 
z
" transform="scale(0.015625)"/>
       </defs>
       <use xlink:href="#DejaVuSans-35"/>
      </g>
     </g>
    </g>
    <g id="text_7">
     <!-- $\omega$ -->
     <g style="fill: #262626" transform="translate(297.245156 263.172063) scale(0.12 -0.12)">
      <defs>
       <path id="DejaVuSans-Oblique-3c9" d="M 1369 -91 
Q 72 -91 434 1766 
Q 575 2500 1256 3500 
L 1875 3500 
Q 1231 2500 1088 1750 
Q 819 397 1519 397 
Q 2166 397 2478 2078 
L 3009 2078 
Q 2669 388 3316 397 
Q 4013 403 4275 1750 
Q 4419 2500 4169 3500 
L 4788 3500 
Q 5075 2500 4934 1766 
Q 4578 -94 3278 -91 
Q 2428 -88 2503 844 
Q 2194 -91 1369 -91 
z
" transform="scale(0.015625)"/>
      </defs>
      <use xlink:href="#DejaVuSans-Oblique-3c9" transform="translate(0 0.3125)"/>
     </g>
    </g>
   </g>
   <g id="matplotlib.axis_2">
    <g id="ytick_1">
     <g id="line2d_7">
      <path d="M 48.530156 201.846 
L 556.040156 201.846 
" clip-path="url(#pacaa56ae52)" style="fill: none; stroke: #cccccc; stroke-linecap: round"/>
     </g>
     <g id="text_8">
      <!-- −4 -->
      <g style="fill: #262626" transform="translate(22.81375 206.025141) scale(0.11 -0.11)">
       <defs>
        <path id="DejaVuSans-2212" d="M 678 2272 
L 4684 2272 
L 4684 1741 
L 678 1741 
L 678 2272 
z
" transform="scale(0.015625)"/>
       </defs>
       <use xlink:href="#DejaVuSans-2212"/>
       <use xlink:href="#DejaVuSans-34" transform="translate(83.789062 0)"/>
      </g>
     </g>
    </g>
    <g id="ytick_2">
     <g id="line2d_8">
      <path d="M 48.530156 164.43 
L 556.040156 164.43 
" clip-path="url(#pacaa56ae52)" style="fill: none; stroke: #cccccc; stroke-linecap: round"/>
     </g>
     <g id="text_9">
      <!-- −2 -->
      <g style="fill: #262626" transform="translate(22.81375 168.609141) scale(0.11 -0.11)">
       <use xlink:href="#DejaVuSans-2212"/>
       <use xlink:href="#DejaVuSans-32" transform="translate(83.789062 0)"/>
      </g>
     </g>
    </g>
    <g id="ytick_3">
     <g id="line2d_9">
      <path d="M 48.530156 127.014 
L 556.040156 127.014 
" clip-path="url(#pacaa56ae52)" style="fill: none; stroke: #cccccc; stroke-linecap: round"/>
     </g>
     <g id="text_10">
      <!-- 0 -->
      <g style="fill: #262626" transform="translate(32.031406 131.193141) scale(0.11 -0.11)">
       <use xlink:href="#DejaVuSans-30"/>
      </g>
     </g>
    </g>
    <g id="ytick_4">
     <g id="line2d_10">
      <path d="M 48.530156 89.598 
L 556.040156 89.598 
" clip-path="url(#pacaa56ae52)" style="fill: none; stroke: #cccccc; stroke-linecap: round"/>
     </g>
     <g id="text_11">
      <!-- 2 -->
      <g style="fill: #262626" transform="translate(32.031406 93.777141) scale(0.11 -0.11)">
       <use xlink:href="#DejaVuSans-32"/>
      </g>
     </g>
    </g>
    <g id="ytick_5">
     <g id="line2d_11">
      <path d="M 48.530156 52.182 
L 556.040156 52.182 
" clip-path="url(#pacaa56ae52)" style="fill: none; stroke: #cccccc; stroke-linecap: round"/>
     </g>
     <g id="text_12">
      <!-- 4 -->
      <g style="fill: #262626" transform="translate(32.031406 56.361141) scale(0.11 -0.11)">
       <use xlink:href="#DejaVuSans-34"/>
      </g>
     </g>
    </g>
    <g id="text_13">
     <!-- Optimal parameter value -->
     <g style="fill: #262626" transform="translate(16.318125 202.63275) rotate(-90) scale(0.12 -0.12)">
      <defs>
       <path id="DejaVuSans-4f" d="M 2522 4238 
Q 1834 4238 1429 3725 
Q 1025 3213 1025 2328 
Q 1025 1447 1429 934 
Q 1834 422 2522 422 
Q 3209 422 3611 934 
Q 4013 1447 4013 2328 
Q 4013 3213 3611 3725 
Q 3209 4238 2522 4238 
z
M 2522 4750 
Q 3503 4750 4090 4092 
Q 4678 3434 4678 2328 
Q 4678 1225 4090 567 
Q 3503 -91 2522 -91 
Q 1538 -91 948 565 
Q 359 1222 359 2328 
Q 359 3434 948 4092 
Q 1538 4750 2522 4750 
z
" transform="scale(0.015625)"/>
       <path id="DejaVuSans-70" d="M 1159 525 
L 1159 -1331 
L 581 -1331 
L 581 3500 
L 1159 3500 
L 1159 2969 
Q 1341 3281 1617 3432 
Q 1894 3584 2278 3584 
Q 2916 3584 3314 3078 
Q 3713 2572 3713 1747 
Q 3713 922 3314 415 
Q 2916 -91 2278 -91 
Q 1894 -91 1617 61 
Q 1341 213 1159 525 
z
M 3116 1747 
Q 3116 2381 2855 2742 
Q 2594 3103 2138 3103 
Q 1681 3103 1420 2742 
Q 1159 2381 1159 1747 
Q 1159 1113 1420 752 
Q 1681 391 2138 391 
Q 2594 391 2855 752 
Q 3116 1113 3116 1747 
z
" transform="scale(0.015625)"/>
       <path id="DejaVuSans-74" d="M 1172 4494 
L 1172 3500 
L 2356 3500 
L 2356 3053 
L 1172 3053 
L 1172 1153 
Q 1172 725 1289 603 
Q 1406 481 1766 481 
L 2356 481 
L 2356 0 
L 1766 0 
Q 1100 0 847 248 
Q 594 497 594 1153 
L 594 3053 
L 172 3053 
L 172 3500 
L 594 3500 
L 594 4494 
L 1172 4494 
z
" transform="scale(0.015625)"/>
       <path id="DejaVuSans-69" d="M 603 3500 
L 1178 3500 
L 1178 0 
L 603 0 
L 603 3500 
z
M 603 4863 
L 1178 4863 
L 1178 4134 
L 603 4134 
L 603 4863 
z
" transform="scale(0.015625)"/>
       <path id="DejaVuSans-6d" d="M 3328 2828 
Q 3544 3216 3844 3400 
Q 4144 3584 4550 3584 
Q 5097 3584 5394 3201 
Q 5691 2819 5691 2113 
L 5691 0 
L 5113 0 
L 5113 2094 
Q 5113 2597 4934 2840 
Q 4756 3084 4391 3084 
Q 3944 3084 3684 2787 
Q 3425 2491 3425 1978 
L 3425 0 
L 2847 0 
L 2847 2094 
Q 2847 2600 2669 2842 
Q 2491 3084 2119 3084 
Q 1678 3084 1418 2786 
Q 1159 2488 1159 1978 
L 1159 0 
L 581 0 
L 581 3500 
L 1159 3500 
L 1159 2956 
Q 1356 3278 1631 3431 
Q 1906 3584 2284 3584 
Q 2666 3584 2933 3390 
Q 3200 3197 3328 2828 
z
" transform="scale(0.015625)"/>
       <path id="DejaVuSans-61" d="M 2194 1759 
Q 1497 1759 1228 1600 
Q 959 1441 959 1056 
Q 959 750 1161 570 
Q 1363 391 1709 391 
Q 2188 391 2477 730 
Q 2766 1069 2766 1631 
L 2766 1759 
L 2194 1759 
z
M 3341 1997 
L 3341 0 
L 2766 0 
L 2766 531 
Q 2569 213 2275 61 
Q 1981 -91 1556 -91 
Q 1019 -91 701 211 
Q 384 513 384 1019 
Q 384 1609 779 1909 
Q 1175 2209 1959 2209 
L 2766 2209 
L 2766 2266 
Q 2766 2663 2505 2880 
Q 2244 3097 1772 3097 
Q 1472 3097 1187 3025 
Q 903 2953 641 2809 
L 641 3341 
Q 956 3463 1253 3523 
Q 1550 3584 1831 3584 
Q 2591 3584 2966 3190 
Q 3341 2797 3341 1997 
z
" transform="scale(0.015625)"/>
       <path id="DejaVuSans-6c" d="M 603 4863 
L 1178 4863 
L 1178 0 
L 603 0 
L 603 4863 
z
" transform="scale(0.015625)"/>
       <path id="DejaVuSans-20" transform="scale(0.015625)"/>
       <path id="DejaVuSans-72" d="M 2631 2963 
Q 2534 3019 2420 3045 
Q 2306 3072 2169 3072 
Q 1681 3072 1420 2755 
Q 1159 2438 1159 1844 
L 1159 0 
L 581 0 
L 581 3500 
L 1159 3500 
L 1159 2956 
Q 1341 3275 1631 3429 
Q 1922 3584 2338 3584 
Q 2397 3584 2469 3576 
Q 2541 3569 2628 3553 
L 2631 2963 
z
" transform="scale(0.015625)"/>
       <path id="DejaVuSans-65" d="M 3597 1894 
L 3597 1613 
L 953 1613 
Q 991 1019 1311 708 
Q 1631 397 2203 397 
Q 2534 397 2845 478 
Q 3156 559 3463 722 
L 3463 178 
Q 3153 47 2828 -22 
Q 2503 -91 2169 -91 
Q 1331 -91 842 396 
Q 353 884 353 1716 
Q 353 2575 817 3079 
Q 1281 3584 2069 3584 
Q 2775 3584 3186 3129 
Q 3597 2675 3597 1894 
z
M 3022 2063 
Q 3016 2534 2758 2815 
Q 2500 3097 2075 3097 
Q 1594 3097 1305 2825 
Q 1016 2553 972 2059 
L 3022 2063 
z
" transform="scale(0.015625)"/>
       <path id="DejaVuSans-76" d="M 191 3500 
L 800 3500 
L 1894 563 
L 2988 3500 
L 3597 3500 
L 2284 0 
L 1503 0 
L 191 3500 
z
" transform="scale(0.015625)"/>
       <path id="DejaVuSans-75" d="M 544 1381 
L 544 3500 
L 1119 3500 
L 1119 1403 
Q 1119 906 1312 657 
Q 1506 409 1894 409 
Q 2359 409 2629 706 
Q 2900 1003 2900 1516 
L 2900 3500 
L 3475 3500 
L 3475 0 
L 2900 0 
L 2900 538 
Q 2691 219 2414 64 
Q 2138 -91 1772 -91 
Q 1169 -91 856 284 
Q 544 659 544 1381 
z
M 1991 3584 
L 1991 3584 
z
" transform="scale(0.015625)"/>
      </defs>
      <use xlink:href="#DejaVuSans-4f"/>
      <use xlink:href="#DejaVuSans-70" transform="translate(78.710938 0)"/>
      <use xlink:href="#DejaVuSans-74" transform="translate(142.1875 0)"/>
      <use xlink:href="#DejaVuSans-69" transform="translate(181.396484 0)"/>
      <use xlink:href="#DejaVuSans-6d" transform="translate(209.179688 0)"/>
      <use xlink:href="#DejaVuSans-61" transform="translate(306.591797 0)"/>
      <use xlink:href="#DejaVuSans-6c" transform="translate(367.871094 0)"/>
      <use xlink:href="#DejaVuSans-20" transform="translate(395.654297 0)"/>
      <use xlink:href="#DejaVuSans-70" transform="translate(427.441406 0)"/>
      <use xlink:href="#DejaVuSans-61" transform="translate(490.917969 0)"/>
      <use xlink:href="#DejaVuSans-72" transform="translate(552.197266 0)"/>
      <use xlink:href="#DejaVuSans-61" transform="translate(593.310547 0)"/>
      <use xlink:href="#DejaVuSans-6d" transform="translate(654.589844 0)"/>
      <use xlink:href="#DejaVuSans-65" transform="translate(752.001953 0)"/>
      <use xlink:href="#DejaVuSans-74" transform="translate(813.525391 0)"/>
      <use xlink:href="#DejaVuSans-65" transform="translate(852.734375 0)"/>
      <use xlink:href="#DejaVuSans-72" transform="translate(914.257812 0)"/>
      <use xlink:href="#DejaVuSans-20" transform="translate(955.371094 0)"/>
      <use xlink:href="#DejaVuSans-76" transform="translate(987.158203 0)"/>
      <use xlink:href="#DejaVuSans-61" transform="translate(1046.337891 0)"/>
      <use xlink:href="#DejaVuSans-6c" transform="translate(1107.617188 0)"/>
      <use xlink:href="#DejaVuSans-75" transform="translate(1135.400391 0)"/>
      <use xlink:href="#DejaVuSans-65" transform="translate(1198.779297 0)"/>
     </g>
    </g>
   </g>
   <g id="patch_3">
    <path d="M 48.530156 220.554 
L 556.040156 220.554 
L 556.040156 201.846 
L 48.530156 201.846 
z
" clip-path="url(#pacaa56ae52)" style="fill: #ff0000; opacity: 0.08; stroke: #ff0000; stroke-linejoin: miter"/>
   </g>
   <g id="patch_4">
    <path d="M 48.530156 52.182 
L 556.040156 52.182 
L 556.040156 33.474 
L 48.530156 33.474 
z
" clip-path="url(#pacaa56ae52)" style="fill: #ff0000; opacity: 0.08; stroke: #ff0000; stroke-linejoin: miter"/>
   </g>
   <g id="line2d_12">
    <path d="M 71.598793 33.474 
L 72.523387 220.554 
L 73.447982 220.554 
L 74.372577 33.474 
L 76.221766 33.474 
L 77.14636 220.554 
L 78.070955 220.553996 
L 78.99555 33.474 
L 79.920144 33.474 
L 80.844739 220.554 
L 81.769334 220.554 
L 82.693928 33.474 
L 83.618523 36.858851 
L 84.543118 220.553991 
L 85.467712 33.474006 
L 86.392307 220.553988 
L 88.241496 220.554 
L 89.166091 33.474 
L 90.090685 33.474 
L 91.01528 220.553627 
L 92.864469 220.553761 
L 93.789064 33.474009 
L 94.713659 220.553998 
L 95.638253 33.474 
L 96.562848 220.554 
L 97.487443 33.474 
L 98.412037 220.553996 
L 100.261227 220.553991 
L 101.185821 33.474059 
L 102.110416 220.552502 
L 103.035011 33.474 
L 108.582578 33.474001 
L 109.507173 220.553966 
L 110.431768 33.474051 
L 111.356362 220.553998 
L 113.205552 220.553993 
L 114.130146 33.474 
L 115.054741 33.474006 
L 115.979336 220.553997 
L 116.90393 220.553942 
L 117.828525 33.474001 
L 118.753119 220.553999 
L 119.677714 220.553995 
L 120.602309 33.474006 
L 121.526903 220.553998 
L 122.451498 33.474007 
L 126.149877 33.474017 
L 127.074471 220.553998 
L 127.999066 220.553998 
L 128.923661 33.474001 
L 131.697444 33.474001 
L 132.622039 34.011668 
L 133.546634 220.553994 
L 134.471228 215.689895 
L 135.395823 220.554 
L 136.320418 220.553984 
L 137.245012 33.474 
L 141.867986 33.474012 
L 142.79258 220.553984 
L 150.189337 220.553997 
L 151.113932 33.474033 
L 152.038527 220.553999 
L 152.963121 33.474012 
L 153.887716 33.474003 
L 154.812311 220.553972 
L 156.6615 220.553999 
L 157.586094 33.584932 
L 158.510689 33.474001 
L 159.435284 220.553819 
L 163.133662 220.553998 
L 164.058257 33.474007 
L 164.982852 220.553999 
L 165.907446 33.474 
L 168.68123 33.474001 
L 169.605825 220.553945 
L 170.53042 33.474015 
L 172.379609 33.474005 
L 173.304203 220.553994 
L 174.228798 219.079554 
L 175.153393 33.474008 
L 179.776366 33.474003 
L 180.700961 220.553935 
L 181.625555 33.474006 
L 183.474745 33.476854 
L 184.399339 220.553997 
L 185.323934 33.474027 
L 186.248528 220.553997 
L 188.097718 220.553999 
L 189.022312 33.474001 
L 189.946907 220.553999 
L 190.871502 33.474001 
L 195.494475 33.474014 
L 196.41907 220.553985 
L 197.343664 33.474009 
L 198.268259 220.553998 
L 199.192853 33.474001 
L 200.117448 220.553998 
L 201.042043 33.474002 
L 201.966637 220.553979 
L 202.891232 33.474021 
L 203.815827 33.474162 
L 204.740421 220.553997 
L 205.665016 33.474006 
L 206.589611 220.553998 
L 207.514205 33.474001 
L 209.363395 33.474006 
L 210.287989 220.553888 
L 211.212584 216.191591 
L 212.137178 220.553989 
L 214.910962 220.553995 
L 215.835557 33.474002 
L 219.533936 33.474001 
L 220.45853 220.553993 
L 221.383125 33.474004 
L 222.30772 33.474374 
L 223.232314 220.553995 
L 224.156909 33.474001 
L 226.006098 33.474101 
L 226.930693 220.553989 
L 227.855287 33.474002 
L 228.779882 33.474005 
L 229.704477 220.553978 
L 230.629071 33.47401 
L 231.553666 220.553941 
L 232.478261 220.553999 
L 233.402855 33.47403 
L 234.32745 220.553998 
L 235.252045 220.553896 
L 236.176639 33.474004 
L 237.101234 220.55399 
L 238.025829 33.474 
L 239.875018 33.474037 
L 240.799612 220.553999 
L 243.573396 220.510527 
L 244.497991 33.474007 
L 245.422586 220.553999 
L 248.19637 220.553999 
L 249.120964 33.474001 
L 250.045559 33.474007 
L 250.970154 220.553988 
L 251.894748 33.474009 
L 252.819343 33.474021 
L 253.743937 220.553996 
L 257.442316 220.545836 
L 258.366911 33.47402 
L 259.291505 220.553993 
L 260.2161 33.474042 
L 261.140695 220.553964 
L 262.989884 220.553993 
L 263.914479 33.474005 
L 264.839073 220.553999 
L 265.763668 220.553989 
L 266.688262 33.474008 
L 267.612857 220.553993 
L 268.537452 33.474002 
L 273.160425 33.474138 
L 274.08502 220.553991 
L 275.009614 33.474003 
L 275.934209 220.553994 
L 276.858804 220.553992 
L 277.783398 33.474005 
L 278.707993 33.474003 
L 279.632587 220.553996 
L 281.481777 220.553996 
L 282.406371 33.474002 
L 283.330966 33.474006 
L 284.255561 220.553994 
L 285.180155 34.932713 
L 286.10475 33.474001 
L 287.029345 33.474044 
L 287.953939 220.553965 
L 292.576912 220.553999 
L 293.501507 33.474009 
L 295.350696 33.474 
L 296.275291 220.553975 
L 297.199886 33.474168 
L 298.12448 220.553906 
L 299.049075 220.553995 
L 299.97367 33.474016 
L 300.898264 220.553998 
L 301.822859 33.474013 
L 302.747454 33.474024 
L 303.672048 220.553978 
L 304.596643 33.474016 
L 305.521238 220.552363 
L 306.445832 33.474002 
L 307.370427 33.474002 
L 308.295021 220.553997 
L 309.219616 34.271699 
L 310.144211 220.553995 
L 311.068805 33.474005 
L 311.9934 33.474014 
L 312.917995 220.553996 
L 313.842589 220.547727 
L 314.767184 33.474003 
L 315.691779 33.474085 
L 316.616373 220.553997 
L 317.540968 33.474001 
L 319.390157 33.474002 
L 320.314752 220.553999 
L 321.239346 33.475539 
L 324.937725 33.474005 
L 325.86232 220.553998 
L 326.786914 33.474017 
L 327.711509 220.553936 
L 328.636104 220.553967 
L 329.560698 33.474001 
L 330.485293 33.474013 
L 331.409888 33.683026 
L 332.334482 220.554 
L 337.88205 220.553731 
L 338.806645 33.474003 
L 339.731239 33.474022 
L 340.655834 220.553998 
L 341.580429 220.553995 
L 342.505023 33.474018 
L 343.429618 33.474009 
L 344.354213 220.553969 
L 345.278807 220.553988 
L 346.203402 33.474005 
L 351.75097 33.474026 
L 352.675564 220.553995 
L 353.600159 33.474001 
L 354.524754 220.553998 
L 355.449348 33.474001 
L 356.373943 220.553994 
L 357.298538 220.541004 
L 358.223132 33.474005 
L 359.147727 220.553999 
L 360.072321 33.474001 
L 362.846105 33.474014 
L 363.7707 220.553979 
L 364.695295 33.474007 
L 365.619889 220.553993 
L 366.544484 33.672428 
L 367.469079 220.553977 
L 368.393673 220.553937 
L 369.318268 33.474001 
L 370.242863 220.554 
L 371.167457 220.553992 
L 372.092052 33.474027 
L 374.865836 33.474017 
L 375.79043 220.553672 
L 376.715025 220.553998 
L 377.63962 33.474002 
L 378.564214 220.553995 
L 379.488809 33.474032 
L 380.413404 33.474005 
L 381.337998 220.553985 
L 382.262593 33.474 
L 387.810161 33.474007 
L 388.734755 220.553885 
L 389.65935 33.474004 
L 390.583945 33.474004 
L 391.508539 220.553982 
L 392.433134 33.514119 
L 393.357729 33.474008 
L 394.282323 219.943036 
L 395.206918 220.553993 
L 396.131513 33.474001 
L 400.754486 33.474015 
L 401.67908 220.553996 
L 402.603675 33.474002 
L 404.452864 33.474002 
L 405.377459 220.553923 
L 407.226648 220.553998 
L 408.151243 33.474002 
L 410.000432 33.474004 
L 410.925027 220.553998 
L 411.849622 33.474005 
L 414.623405 33.474011 
L 415.548 220.553965 
L 416.472595 220.553997 
L 417.397189 33.474007 
L 418.321784 33.474003 
L 419.246379 220.553981 
L 420.170973 33.474022 
L 421.095568 33.474027 
L 422.020163 220.554 
L 422.944757 220.553992 
L 423.869352 33.474 
L 424.793947 33.474005 
L 425.718541 220.553958 
L 426.643136 220.553982 
L 427.56773 33.474 
L 428.492325 220.553974 
L 430.341514 220.553781 
L 431.266109 218.965296 
L 432.190704 33.474006 
L 433.115298 220.553996 
L 434.039893 219.823643 
L 434.964488 220.553963 
L 437.738272 220.553988 
L 438.662866 33.474217 
L 441.43665 33.474022 
L 442.361245 220.553989 
L 443.285839 220.552525 
L 444.210434 33.47402 
L 446.059623 33.474004 
L 446.984218 220.553987 
L 447.908813 33.474022 
L 450.682597 33.474003 
L 451.607191 220.553995 
L 452.531786 33.477316 
L 453.456381 220.553636 
L 454.380975 33.47402 
L 456.230164 33.474005 
L 457.154759 220.553986 
L 458.079354 33.474006 
L 459.003948 220.553996 
L 460.853138 220.553991 
L 461.777732 33.474012 
L 462.702327 220.553998 
L 463.626922 33.474017 
L 464.551516 33.474009 
L 465.476111 220.553998 
L 466.400706 33.474003 
L 467.3253 220.553505 
L 468.249895 33.739591 
L 469.174489 220.544078 
L 470.099084 33.474443 
L 474.722057 33.474004 
L 475.646652 220.553993 
L 476.571247 33.474428 
L 477.495841 37.270306 
L 478.420436 220.541886 
L 479.345031 33.474005 
L 480.269625 220.553998 
L 482.118814 220.553937 
L 483.043409 33.474001 
L 483.968004 33.474001 
L 484.892598 220.553998 
L 485.817193 220.553998 
L 486.741788 33.475764 
L 487.666382 33.474001 
L 488.590977 220.553999 
L 490.440166 220.553983 
L 491.364761 33.474012 
L 492.289356 34.554003 
L 493.21395 220.553997 
L 494.138545 220.553973 
L 495.063139 33.474018 
L 495.987734 220.553904 
L 496.912329 220.553999 
L 497.836923 33.474065 
L 498.761518 220.553999 
L 499.686113 33.474002 
L 500.610707 220.553999 
L 501.535302 33.474008 
L 502.459897 33.474022 
L 503.384491 33.839286 
L 504.309086 33.474008 
L 506.158275 33.47401 
L 507.08287 218.378105 
L 508.007465 220.553999 
L 508.932059 33.474013 
L 509.856654 33.474004 
L 510.781248 220.553994 
L 511.705843 33.474003 
L 512.630438 220.553978 
L 513.555032 33.476132 
L 514.479627 220.55391 
L 515.404222 220.553998 
L 516.328816 33.474018 
L 517.253411 33.474001 
L 518.178006 220.553992 
L 519.1026 33.704774 
L 520.027195 220.553984 
L 521.876384 220.553997 
L 522.800979 33.474 
L 523.725573 220.553995 
L 524.650168 220.553999 
L 525.574763 33.61597 
L 526.499357 220.553984 
L 527.423952 33.474003 
L 529.273141 33.474007 
L 530.197736 220.553994 
L 531.122331 33.47404 
L 532.97152 33.474002 
L 532.97152 33.474002 
" clip-path="url(#pacaa56ae52)" style="fill: none; stroke: #4c72b0; stroke-width: 1.8; stroke-linecap: round"/>
    <defs>
     <path id="m71f6043a06" d="M 0 2 
C 0.530406 2 1.03916 1.789267 1.414214 1.414214 
C 1.789267 1.03916 2 0.530406 2 0 
C 2 -0.530406 1.789267 -1.03916 1.414214 -1.414214 
C 1.03916 -1.789267 0.530406 -2 0 -2 
C -0.530406 -2 -1.03916 -1.789267 -1.414214 -1.414214 
C -1.789267 -1.03916 -2 -0.530406 -2 0 
C -2 0.530406 -1.789267 1.03916 -1.414214 1.414214 
C -1.03916 1.789267 -0.530406 2 0 2 
z
" style="stroke: #4c72b0"/>
    </defs>
    <g clip-path="url(#pacaa56ae52)">
     <use xlink:href="#m71f6043a06" x="71.598793" y="33.474" style="fill: #4c72b0; stroke: #4c72b0"/>
     <use xlink:href="#m71f6043a06" x="86.392307" y="220.553988" style="fill: #4c72b0; stroke: #4c72b0"/>
     <use xlink:href="#m71f6043a06" x="101.185821" y="33.474059" style="fill: #4c72b0; stroke: #4c72b0"/>
     <use xlink:href="#m71f6043a06" x="115.979336" y="220.553997" style="fill: #4c72b0; stroke: #4c72b0"/>
     <use xlink:href="#m71f6043a06" x="130.77285" y="33.474007" style="fill: #4c72b0; stroke: #4c72b0"/>
     <use xlink:href="#m71f6043a06" x="145.566364" y="220.553996" style="fill: #4c72b0; stroke: #4c72b0"/>
     <use xlink:href="#m71f6043a06" x="160.359878" y="220.553999" style="fill: #4c72b0; stroke: #4c72b0"/>
     <use xlink:href="#m71f6043a06" x="175.153393" y="33.474008" style="fill: #4c72b0; stroke: #4c72b0"/>
     <use xlink:href="#m71f6043a06" x="189.946907" y="220.553999" style="fill: #4c72b0; stroke: #4c72b0"/>
     <use xlink:href="#m71f6043a06" x="204.740421" y="220.553997" style="fill: #4c72b0; stroke: #4c72b0"/>
     <use xlink:href="#m71f6043a06" x="219.533936" y="33.474001" style="fill: #4c72b0; stroke: #4c72b0"/>
     <use xlink:href="#m71f6043a06" x="234.32745" y="220.553998" style="fill: #4c72b0; stroke: #4c72b0"/>
     <use xlink:href="#m71f6043a06" x="249.120964" y="33.474001" style="fill: #4c72b0; stroke: #4c72b0"/>
     <use xlink:href="#m71f6043a06" x="263.914479" y="33.474005" style="fill: #4c72b0; stroke: #4c72b0"/>
     <use xlink:href="#m71f6043a06" x="278.707993" y="33.474003" style="fill: #4c72b0; stroke: #4c72b0"/>
     <use xlink:href="#m71f6043a06" x="293.501507" y="33.474009" style="fill: #4c72b0; stroke: #4c72b0"/>
     <use xlink:href="#m71f6043a06" x="308.295021" y="220.553997" style="fill: #4c72b0; stroke: #4c72b0"/>
     <use xlink:href="#m71f6043a06" x="323.088536" y="33.474002" style="fill: #4c72b0; stroke: #4c72b0"/>
     <use xlink:href="#m71f6043a06" x="337.88205" y="220.553731" style="fill: #4c72b0; stroke: #4c72b0"/>
     <use xlink:href="#m71f6043a06" x="352.675564" y="220.553995" style="fill: #4c72b0; stroke: #4c72b0"/>
     <use xlink:href="#m71f6043a06" x="367.469079" y="220.553977" style="fill: #4c72b0; stroke: #4c72b0"/>
     <use xlink:href="#m71f6043a06" x="382.262593" y="33.474" style="fill: #4c72b0; stroke: #4c72b0"/>
     <use xlink:href="#m71f6043a06" x="397.056107" y="33.474001" style="fill: #4c72b0; stroke: #4c72b0"/>
     <use xlink:href="#m71f6043a06" x="411.849622" y="33.474005" style="fill: #4c72b0; stroke: #4c72b0"/>
     <use xlink:href="#m71f6043a06" x="426.643136" y="220.553982" style="fill: #4c72b0; stroke: #4c72b0"/>
     <use xlink:href="#m71f6043a06" x="441.43665" y="33.474022" style="fill: #4c72b0; stroke: #4c72b0"/>
     <use xlink:href="#m71f6043a06" x="456.230164" y="33.474005" style="fill: #4c72b0; stroke: #4c72b0"/>
     <use xlink:href="#m71f6043a06" x="471.023679" y="33.474001" style="fill: #4c72b0; stroke: #4c72b0"/>
     <use xlink:href="#m71f6043a06" x="485.817193" y="220.553998" style="fill: #4c72b0; stroke: #4c72b0"/>
     <use xlink:href="#m71f6043a06" x="500.610707" y="220.553999" style="fill: #4c72b0; stroke: #4c72b0"/>
     <use xlink:href="#m71f6043a06" x="515.404222" y="220.553998" style="fill: #4c72b0; stroke: #4c72b0"/>
     <use xlink:href="#m71f6043a06" x="530.197736" y="220.553994" style="fill: #4c72b0; stroke: #4c72b0"/>
    </g>
   </g>
   <g id="line2d_13">
    <path d="M 48.530156 220.554 
L 556.040156 220.554 
" clip-path="url(#pacaa56ae52)" style="fill: none; stroke-dasharray: 1,1.65; stroke-dashoffset: 0; stroke: #808080; stroke-opacity: 0.5"/>
   </g>
   <g id="line2d_14">
    <path d="M 48.530156 33.474 
L 556.040156 33.474 
" clip-path="url(#pacaa56ae52)" style="fill: none; stroke-dasharray: 1,1.65; stroke-dashoffset: 0; stroke: #808080; stroke-opacity: 0.5"/>
   </g>
   <g id="patch_5">
    <path d="M 48.530156 229.908 
L 48.530156 24.12 
" style="fill: none; stroke: #cccccc; stroke-width: 1.25; stroke-linejoin: miter; stroke-linecap: square"/>
   </g>
   <g id="patch_6">
    <path d="M 556.040156 229.908 
L 556.040156 24.12 
" style="fill: none; stroke: #cccccc; stroke-width: 1.25; stroke-linejoin: miter; stroke-linecap: square"/>
   </g>
   <g id="patch_7">
    <path d="M 48.530156 229.908 
L 556.040156 229.908 
" style="fill: none; stroke: #cccccc; stroke-width: 1.25; stroke-linejoin: miter; stroke-linecap: square"/>
   </g>
   <g id="patch_8">
    <path d="M 48.530156 24.12 
L 556.040156 24.12 
" style="fill: none; stroke: #cccccc; stroke-width: 1.25; stroke-linejoin: miter; stroke-linecap: square"/>
   </g>
   <g id="text_14">
    <!-- Scenario A: Optimal $a_x^*$ vs $\omega$  (491/500 bound-saturated) -->
    <g style="fill: #262626" transform="translate(131.885156 18.12) scale(0.12 -0.12)">
     <defs>
      <path id="DejaVuSans-53" d="M 3425 4513 
L 3425 3897 
Q 3066 4069 2747 4153 
Q 2428 4238 2131 4238 
Q 1616 4238 1336 4038 
Q 1056 3838 1056 3469 
Q 1056 3159 1242 3001 
Q 1428 2844 1947 2747 
L 2328 2669 
Q 3034 2534 3370 2195 
Q 3706 1856 3706 1288 
Q 3706 609 3251 259 
Q 2797 -91 1919 -91 
Q 1588 -91 1214 -16 
Q 841 59 441 206 
L 441 856 
Q 825 641 1194 531 
Q 1563 422 1919 422 
Q 2459 422 2753 634 
Q 3047 847 3047 1241 
Q 3047 1584 2836 1778 
Q 2625 1972 2144 2069 
L 1759 2144 
Q 1053 2284 737 2584 
Q 422 2884 422 3419 
Q 422 4038 858 4394 
Q 1294 4750 2059 4750 
Q 2388 4750 2728 4690 
Q 3069 4631 3425 4513 
z
" transform="scale(0.015625)"/>
      <path id="DejaVuSans-63" d="M 3122 3366 
L 3122 2828 
Q 2878 2963 2633 3030 
Q 2388 3097 2138 3097 
Q 1578 3097 1268 2742 
Q 959 2388 959 1747 
Q 959 1106 1268 751 
Q 1578 397 2138 397 
Q 2388 397 2633 464 
Q 2878 531 3122 666 
L 3122 134 
Q 2881 22 2623 -34 
Q 2366 -91 2075 -91 
Q 1284 -91 818 406 
Q 353 903 353 1747 
Q 353 2603 823 3093 
Q 1294 3584 2113 3584 
Q 2378 3584 2631 3529 
Q 2884 3475 3122 3366 
z
" transform="scale(0.015625)"/>
      <path id="DejaVuSans-6e" d="M 3513 2113 
L 3513 0 
L 2938 0 
L 2938 2094 
Q 2938 2591 2744 2837 
Q 2550 3084 2163 3084 
Q 1697 3084 1428 2787 
Q 1159 2491 1159 1978 
L 1159 0 
L 581 0 
L 581 3500 
L 1159 3500 
L 1159 2956 
Q 1366 3272 1645 3428 
Q 1925 3584 2291 3584 
Q 2894 3584 3203 3211 
Q 3513 2838 3513 2113 
z
" transform="scale(0.015625)"/>
      <path id="DejaVuSans-6f" d="M 1959 3097 
Q 1497 3097 1228 2736 
Q 959 2375 959 1747 
Q 959 1119 1226 758 
Q 1494 397 1959 397 
Q 2419 397 2687 759 
Q 2956 1122 2956 1747 
Q 2956 2369 2687 2733 
Q 2419 3097 1959 3097 
z
M 1959 3584 
Q 2709 3584 3137 3096 
Q 3566 2609 3566 1747 
Q 3566 888 3137 398 
Q 2709 -91 1959 -91 
Q 1206 -91 779 398 
Q 353 888 353 1747 
Q 353 2609 779 3096 
Q 1206 3584 1959 3584 
z
" transform="scale(0.015625)"/>
      <path id="DejaVuSans-41" d="M 2188 4044 
L 1331 1722 
L 3047 1722 
L 2188 4044 
z
M 1831 4666 
L 2547 4666 
L 4325 0 
L 3669 0 
L 3244 1197 
L 1141 1197 
L 716 0 
L 50 0 
L 1831 4666 
z
" transform="scale(0.015625)"/>
      <path id="DejaVuSans-3a" d="M 750 794 
L 1409 794 
L 1409 0 
L 750 0 
L 750 794 
z
M 750 3309 
L 1409 3309 
L 1409 2516 
L 750 2516 
L 750 3309 
z
" transform="scale(0.015625)"/>
      <path id="DejaVuSans-Oblique-61" d="M 3438 1997 
L 3047 0 
L 2472 0 
L 2578 531 
Q 2325 219 2001 64 
Q 1678 -91 1281 -91 
Q 834 -91 548 182 
Q 263 456 263 884 
Q 263 1497 752 1853 
Q 1241 2209 2100 2209 
L 2900 2209 
L 2931 2363 
Q 2938 2388 2941 2417 
Q 2944 2447 2944 2509 
Q 2944 2788 2717 2942 
Q 2491 3097 2081 3097 
Q 1800 3097 1504 3025 
Q 1209 2953 897 2809 
L 997 3341 
Q 1322 3463 1633 3523 
Q 1944 3584 2234 3584 
Q 2853 3584 3176 3315 
Q 3500 3047 3500 2534 
Q 3500 2431 3484 2292 
Q 3469 2153 3438 1997 
z
M 2816 1759 
L 2241 1759 
Q 1534 1759 1195 1570 
Q 856 1381 856 984 
Q 856 709 1029 553 
Q 1203 397 1509 397 
Q 1978 397 2328 733 
Q 2678 1069 2791 1631 
L 2816 1759 
z
" transform="scale(0.015625)"/>
      <path id="DejaVuSans-2a" d="M 3009 3897 
L 1888 3291 
L 3009 2681 
L 2828 2375 
L 1778 3009 
L 1778 1831 
L 1422 1831 
L 1422 3009 
L 372 2375 
L 191 2681 
L 1313 3291 
L 191 3897 
L 372 4206 
L 1422 3572 
L 1422 4750 
L 1778 4750 
L 1778 3572 
L 2828 4206 
L 3009 3897 
z
" transform="scale(0.015625)"/>
      <path id="DejaVuSans-Oblique-78" d="M 3841 3500 
L 2234 1784 
L 3219 0 
L 2559 0 
L 1819 1388 
L 531 0 
L -166 0 
L 1556 1844 
L 641 3500 
L 1300 3500 
L 1972 2234 
L 3144 3500 
L 3841 3500 
z
" transform="scale(0.015625)"/>
      <path id="DejaVuSans-73" d="M 2834 3397 
L 2834 2853 
Q 2591 2978 2328 3040 
Q 2066 3103 1784 3103 
Q 1356 3103 1142 2972 
Q 928 2841 928 2578 
Q 928 2378 1081 2264 
Q 1234 2150 1697 2047 
L 1894 2003 
Q 2506 1872 2764 1633 
Q 3022 1394 3022 966 
Q 3022 478 2636 193 
Q 2250 -91 1575 -91 
Q 1294 -91 989 -36 
Q 684 19 347 128 
L 347 722 
Q 666 556 975 473 
Q 1284 391 1588 391 
Q 1994 391 2212 530 
Q 2431 669 2431 922 
Q 2431 1156 2273 1281 
Q 2116 1406 1581 1522 
L 1381 1569 
Q 847 1681 609 1914 
Q 372 2147 372 2553 
Q 372 3047 722 3315 
Q 1072 3584 1716 3584 
Q 2034 3584 2315 3537 
Q 2597 3491 2834 3397 
z
" transform="scale(0.015625)"/>
      <path id="DejaVuSans-28" d="M 1984 4856 
Q 1566 4138 1362 3434 
Q 1159 2731 1159 2009 
Q 1159 1288 1364 580 
Q 1569 -128 1984 -844 
L 1484 -844 
Q 1016 -109 783 600 
Q 550 1309 550 2009 
Q 550 2706 781 3412 
Q 1013 4119 1484 4856 
L 1984 4856 
z
" transform="scale(0.015625)"/>
      <path id="DejaVuSans-39" d="M 703 97 
L 703 672 
Q 941 559 1184 500 
Q 1428 441 1663 441 
Q 2288 441 2617 861 
Q 2947 1281 2994 2138 
Q 2813 1869 2534 1725 
Q 2256 1581 1919 1581 
Q 1219 1581 811 2004 
Q 403 2428 403 3163 
Q 403 3881 828 4315 
Q 1253 4750 1959 4750 
Q 2769 4750 3195 4129 
Q 3622 3509 3622 2328 
Q 3622 1225 3098 567 
Q 2575 -91 1691 -91 
Q 1453 -91 1209 -44 
Q 966 3 703 97 
z
M 1959 2075 
Q 2384 2075 2632 2365 
Q 2881 2656 2881 3163 
Q 2881 3666 2632 3958 
Q 2384 4250 1959 4250 
Q 1534 4250 1286 3958 
Q 1038 3666 1038 3163 
Q 1038 2656 1286 2365 
Q 1534 2075 1959 2075 
z
" transform="scale(0.015625)"/>
      <path id="DejaVuSans-2f" d="M 1625 4666 
L 2156 4666 
L 531 -594 
L 0 -594 
L 1625 4666 
z
" transform="scale(0.015625)"/>
      <path id="DejaVuSans-62" d="M 3116 1747 
Q 3116 2381 2855 2742 
Q 2594 3103 2138 3103 
Q 1681 3103 1420 2742 
Q 1159 2381 1159 1747 
Q 1159 1113 1420 752 
Q 1681 391 2138 391 
Q 2594 391 2855 752 
Q 3116 1113 3116 1747 
z
M 1159 2969 
Q 1341 3281 1617 3432 
Q 1894 3584 2278 3584 
Q 2916 3584 3314 3078 
Q 3713 2572 3713 1747 
Q 3713 922 3314 415 
Q 2916 -91 2278 -91 
Q 1894 -91 1617 61 
Q 1341 213 1159 525 
L 1159 0 
L 581 0 
L 581 4863 
L 1159 4863 
L 1159 2969 
z
" transform="scale(0.015625)"/>
      <path id="DejaVuSans-64" d="M 2906 2969 
L 2906 4863 
L 3481 4863 
L 3481 0 
L 2906 0 
L 2906 525 
Q 2725 213 2448 61 
Q 2172 -91 1784 -91 
Q 1150 -91 751 415 
Q 353 922 353 1747 
Q 353 2572 751 3078 
Q 1150 3584 1784 3584 
Q 2172 3584 2448 3432 
Q 2725 3281 2906 2969 
z
M 947 1747 
Q 947 1113 1208 752 
Q 1469 391 1925 391 
Q 2381 391 2643 752 
Q 2906 1113 2906 1747 
Q 2906 2381 2643 2742 
Q 2381 3103 1925 3103 
Q 1469 3103 1208 2742 
Q 947 2381 947 1747 
z
" transform="scale(0.015625)"/>
      <path id="DejaVuSans-2d" d="M 313 2009 
L 1997 2009 
L 1997 1497 
L 313 1497 
L 313 2009 
z
" transform="scale(0.015625)"/>
      <path id="DejaVuSans-29" d="M 513 4856 
L 1013 4856 
Q 1481 4119 1714 3412 
Q 1947 2706 1947 2009 
Q 1947 1309 1714 600 
Q 1481 -109 1013 -844 
L 513 -844 
Q 928 -128 1133 580 
Q 1338 1288 1338 2009 
Q 1338 2731 1133 3434 
Q 928 4138 513 4856 
z
" transform="scale(0.015625)"/>
     </defs>
     <use xlink:href="#DejaVuSans-53" transform="translate(0 0.765625)"/>
     <use xlink:href="#DejaVuSans-63" transform="translate(63.476562 0.765625)"/>
     <use xlink:href="#DejaVuSans-65" transform="translate(118.457031 0.765625)"/>
     <use xlink:href="#DejaVuSans-6e" transform="translate(179.980469 0.765625)"/>
     <use xlink:href="#DejaVuSans-61" transform="translate(243.359375 0.765625)"/>
     <use xlink:href="#DejaVuSans-72" transform="translate(304.638672 0.765625)"/>
     <use xlink:href="#DejaVuSans-69" transform="translate(345.751953 0.765625)"/>
     <use xlink:href="#DejaVuSans-6f" transform="translate(373.535156 0.765625)"/>
     <use xlink:href="#DejaVuSans-20" transform="translate(434.716797 0.765625)"/>
     <use xlink:href="#DejaVuSans-41" transform="translate(466.503906 0.765625)"/>
     <use xlink:href="#DejaVuSans-3a" transform="translate(534.912109 0.765625)"/>
     <use xlink:href="#DejaVuSans-20" transform="translate(568.603516 0.765625)"/>
     <use xlink:href="#DejaVuSans-4f" transform="translate(600.390625 0.765625)"/>
     <use xlink:href="#DejaVuSans-70" transform="translate(679.101562 0.765625)"/>
     <use xlink:href="#DejaVuSans-74" transform="translate(742.578125 0.765625)"/>
     <use xlink:href="#DejaVuSans-69" transform="translate(781.787109 0.765625)"/>
     <use xlink:href="#DejaVuSans-6d" transform="translate(809.570312 0.765625)"/>
     <use xlink:href="#DejaVuSans-61" transform="translate(906.982422 0.765625)"/>
     <use xlink:href="#DejaVuSans-6c" transform="translate(968.261719 0.765625)"/>
     <use xlink:href="#DejaVuSans-20" transform="translate(996.044922 0.765625)"/>
     <use xlink:href="#DejaVuSans-Oblique-61" transform="translate(1027.832031 0.765625)"/>
     <use xlink:href="#DejaVuSans-2a" transform="translate(1107.398919 39.046875) scale(0.7)"/>
     <use xlink:href="#DejaVuSans-Oblique-78" transform="translate(1089.111328 -26.578125) scale(0.7)"/>
     <use xlink:href="#DejaVuSans-20" transform="translate(1158.77099 0.765625)"/>
     <use xlink:href="#DejaVuSans-76" transform="translate(1190.558099 0.765625)"/>
     <use xlink:href="#DejaVuSans-73" transform="translate(1249.737786 0.765625)"/>
     <use xlink:href="#DejaVuSans-20" transform="translate(1301.837396 0.765625)"/>
     <use xlink:href="#DejaVuSans-Oblique-3c9" transform="translate(1333.624505 0.765625)"/>
     <use xlink:href="#DejaVuSans-20" transform="translate(1417.36474 0.765625)"/>
     <use xlink:href="#DejaVuSans-20" transform="translate(1449.151849 0.765625)"/>
     <use xlink:href="#DejaVuSans-28" transform="translate(1480.938958 0.765625)"/>
     <use xlink:href="#DejaVuSans-34" transform="translate(1519.95263 0.765625)"/>
     <use xlink:href="#DejaVuSans-39" transform="translate(1583.575677 0.765625)"/>
     <use xlink:href="#DejaVuSans-31" transform="translate(1647.198724 0.765625)"/>
     <use xlink:href="#DejaVuSans-2f" transform="translate(1710.821771 0.765625)"/>
     <use xlink:href="#DejaVuSans-35" transform="translate(1744.513177 0.765625)"/>
     <use xlink:href="#DejaVuSans-30" transform="translate(1808.136224 0.765625)"/>
     <use xlink:href="#DejaVuSans-30" transform="translate(1871.759271 0.765625)"/>
     <use xlink:href="#DejaVuSans-20" transform="translate(1935.382318 0.765625)"/>
     <use xlink:href="#DejaVuSans-62" transform="translate(1967.169427 0.765625)"/>
     <use xlink:href="#DejaVuSans-6f" transform="translate(2030.64599 0.765625)"/>
     <use xlink:href="#DejaVuSans-75" transform="translate(2091.82763 0.765625)"/>
     <use xlink:href="#DejaVuSans-6e" transform="translate(2155.206536 0.765625)"/>
     <use xlink:href="#DejaVuSans-64" transform="translate(2218.585443 0.765625)"/>
     <use xlink:href="#DejaVuSans-2d" transform="translate(2282.062005 0.765625)"/>
     <use xlink:href="#DejaVuSans-73" transform="translate(2318.14599 0.765625)"/>
     <use xlink:href="#DejaVuSans-61" transform="translate(2370.245599 0.765625)"/>
     <use xlink:href="#DejaVuSans-74" transform="translate(2431.524896 0.765625)"/>
     <use xlink:href="#DejaVuSans-75" transform="translate(2470.73388 0.765625)"/>
     <use xlink:href="#DejaVuSans-72" transform="translate(2534.112786 0.765625)"/>
     <use xlink:href="#DejaVuSans-61" transform="translate(2575.226068 0.765625)"/>
     <use xlink:href="#DejaVuSans-74" transform="translate(2636.505365 0.765625)"/>
     <use xlink:href="#DejaVuSans-65" transform="translate(2675.714349 0.765625)"/>
     <use xlink:href="#DejaVuSans-64" transform="translate(2737.237786 0.765625)"/>
     <use xlink:href="#DejaVuSans-29" transform="translate(2800.714349 0.765625)"/>
    </g>
   </g>
   <g id="legend_1">
    <g id="patch_9">
     <path d="M 469.901719 149.179313 
L 549.740156 149.179313 
Q 551.540156 149.179313 551.540156 147.379313 
L 551.540156 106.648688 
Q 551.540156 104.848688 549.740156 104.848688 
L 469.901719 104.848688 
Q 468.101719 104.848688 468.101719 106.648688 
L 468.101719 147.379313 
Q 468.101719 149.179313 469.901719 149.179313 
z
" style="fill: #ffffff; opacity: 0.8; stroke: #cccccc; stroke-linejoin: miter"/>
    </g>
    <g id="line2d_15">
     <path d="M 471.701719 113.488688 
L 480.701719 113.488688 
L 489.701719 113.488688 
" style="fill: none; stroke: #4c72b0; stroke-width: 1.8; stroke-linecap: round"/>
     <g>
      <use xlink:href="#m71f6043a06" x="480.701719" y="113.488688" style="fill: #4c72b0; stroke: #4c72b0"/>
     </g>
    </g>
    <g id="text_15">
     <!-- $a_x^*$ -->
     <g style="fill: #262626" transform="translate(496.901719 116.638688) scale(0.09 -0.09)">
      <use xlink:href="#DejaVuSans-Oblique-61" transform="translate(0 0.765625)"/>
      <use xlink:href="#DejaVuSans-2a" transform="translate(79.566888 39.046875) scale(0.7)"/>
      <use xlink:href="#DejaVuSans-Oblique-78" transform="translate(61.279297 -26.578125) scale(0.7)"/>
     </g>
    </g>
    <g id="line2d_16">
     <path d="M 471.701719 127.347281 
L 480.701719 127.347281 
L 489.701719 127.347281 
" style="fill: none; stroke-dasharray: 1,1.65; stroke-dashoffset: 0; stroke: #808080; stroke-opacity: 0.5"/>
    </g>
    <g id="text_16">
     <!-- Bound = -5 -->
     <g style="fill: #262626" transform="translate(496.901719 130.497281) scale(0.09 -0.09)">
      <defs>
       <path id="DejaVuSans-42" d="M 1259 2228 
L 1259 519 
L 2272 519 
Q 2781 519 3026 730 
Q 3272 941 3272 1375 
Q 3272 1813 3026 2020 
Q 2781 2228 2272 2228 
L 1259 2228 
z
M 1259 4147 
L 1259 2741 
L 2194 2741 
Q 2656 2741 2882 2914 
Q 3109 3088 3109 3444 
Q 3109 3797 2882 3972 
Q 2656 4147 2194 4147 
L 1259 4147 
z
M 628 4666 
L 2241 4666 
Q 2963 4666 3353 4366 
Q 3744 4066 3744 3513 
Q 3744 3084 3544 2831 
Q 3344 2578 2956 2516 
Q 3422 2416 3680 2098 
Q 3938 1781 3938 1306 
Q 3938 681 3513 340 
Q 3088 0 2303 0 
L 628 0 
L 628 4666 
z
" transform="scale(0.015625)"/>
       <path id="DejaVuSans-3d" d="M 678 2906 
L 4684 2906 
L 4684 2381 
L 678 2381 
L 678 2906 
z
M 678 1631 
L 4684 1631 
L 4684 1100 
L 678 1100 
L 678 1631 
z
" transform="scale(0.015625)"/>
      </defs>
      <use xlink:href="#DejaVuSans-42"/>
      <use xlink:href="#DejaVuSans-6f" transform="translate(68.603516 0)"/>
      <use xlink:href="#DejaVuSans-75" transform="translate(129.785156 0)"/>
      <use xlink:href="#DejaVuSans-6e" transform="translate(193.164062 0)"/>
      <use xlink:href="#DejaVuSans-64" transform="translate(256.542969 0)"/>
      <use xlink:href="#DejaVuSans-20" transform="translate(320.019531 0)"/>
      <use xlink:href="#DejaVuSans-3d" transform="translate(351.806641 0)"/>
      <use xlink:href="#DejaVuSans-20" transform="translate(435.595703 0)"/>
      <use xlink:href="#DejaVuSans-2d" transform="translate(467.382812 0)"/>
      <use xlink:href="#DejaVuSans-35" transform="translate(503.466797 0)"/>
     </g>
    </g>
    <g id="line2d_17">
     <path d="M 471.701719 140.557594 
L 480.701719 140.557594 
L 489.701719 140.557594 
" style="fill: none; stroke-dasharray: 1,1.65; stroke-dashoffset: 0; stroke: #808080; stroke-opacity: 0.5"/>
    </g>
    <g id="text_17">
     <!-- Bound = 5 -->
     <g style="fill: #262626" transform="translate(496.901719 143.707594) scale(0.09 -0.09)">
      <use xlink:href="#DejaVuSans-42"/>
      <use xlink:href="#DejaVuSans-6f" transform="translate(68.603516 0)"/>
      <use xlink:href="#DejaVuSans-75" transform="translate(129.785156 0)"/>
      <use xlink:href="#DejaVuSans-6e" transform="translate(193.164062 0)"/>
      <use xlink:href="#DejaVuSans-64" transform="translate(256.542969 0)"/>
      <use xlink:href="#DejaVuSans-20" transform="translate(320.019531 0)"/>
      <use xlink:href="#DejaVuSans-3d" transform="translate(351.806641 0)"/>
      <use xlink:href="#DejaVuSans-20" transform="translate(435.595703 0)"/>
      <use xlink:href="#DejaVuSans-35" transform="translate(467.382812 0)"/>
     </g>
    </g>
   </g>
  </g>
 </g>
 <defs>
  <clipPath id="pacaa56ae52">
   <rect x="48.530156" y="24.12" width="507.51" height="205.788"/>
  </clipPath>
 </defs>
</svg>
