<?xml version="1.0" encoding="utf-8" standalone="no"?>
<!DOCTYPE svg PUBLIC "-//W3C//DTD SVG 1.1//EN"
  "http://www.w3.org/Graphics/SVG/1.1/DTD/svg11.dtd">
<svg xmlns:xlink="http://www.w3.org/1999/xlink" width="563.240156pt" height="272.723688pt" viewBox="0 0 563.240156 272.723688" xmlns="http://www.w3.org/2000/svg" version="1.1">
 <metadata>
  <rdf:RDF xmlns:dc="http://purl.org/dc/elements/1.1/" xmlns:cc="http://creativecommons.org/ns#" xmlns:rdf="http://www.w3.org/1999/02/22-rdf-syntax-ns#">
   <cc:Work>
    <dc:type rdf:resource="http://purl.org/dc/dcmitype/StillImage"/>
    <dc:date>2026-07-11T00:18:58.208694</dc:date>
    <dc:format>image/svg+xml</dc:format>
    <dc:creator>
     <cc:Agent>
      <dc:title>Matplotlib v3.10.9, https://matplotlib.org/</dc:title>
     </cc:Agent>
    </dc:creator>
   </cc:Work>
  </rdf:RDF>
 </metadata>
 <defs>
  <style type="text/css">*{stroke-linejoin: round; stroke-linecap: butt}</style>
 </defs>
 <g id="figure_1">
  <g id="patch_1">
   <path d="M 0 272.723688 
L 563.240156 272.723688 
L 563.240156 0 
L 0 0 
z
" style="fill: #ffffff"/>
  </g>
  <g id="axes_1">
   <g id="patch_2">
    <path d="M 48.530156 229.764 
L 556.040156 229.764 
L 556.040156 24.12 
L 48.530156 24.12 
z
" style="fill: #ffffff"/>
   </g>
   <g id="matplotlib.axis_1">
    <g id="xtick_1">
     <g id="line2d_1">
      <path d="M 70.674198 229.764 
L 70.674198 24.12 
" clip-path="url(#pa5819fc9da)" style="fill: none; stroke: #cccccc; stroke-linecap: round"/>
     </g>
     <g id="text_1">
      <!-- 0 -->
      <g style="fill: #262626" transform="translate(67.174823 247.622281) scale(0.11 -0.11)">
       <defs>
        <path id="DejaVuSans-30" d="M 2034 4250 
Q 1547 4250 1301 3770 
Q 1056 3291 1056 2328 
Q 1056 1369 1301 889 
Q 1547 409 2034 409 
Q 2525 409 2770 889 
Q 3016 1369 3016 2328 
Q 3016 3291 2770 3770 
Q 2525 4250 2034 4250 
z
M 2034 4750 
Q 2819 4750 3233 4129 
Q 3647 3509 3647 2328 
Q 3647 1150 3233 529 
Q 2819 -91 2034 -91 
Q 1250 -91 836 529 
Q 422 1150 422 2328 
Q 422 3509 836 4129 
Q 1250 4750 2034 4750 
z
" transform="scale(0.015625)"/>
       </defs>
       <use xlink:href="#DejaVuSans-30"/>
      </g>
     </g>
    </g>
    <g id="xtick_2">
     <g id="line2d_2">
      <path d="M 163.133662 229.764 
L 163.133662 24.12 
" clip-path="url(#pa5819fc9da)" style="fill: none; stroke: #cccccc; stroke-linecap: round"/>
     </g>
     <g id="text_2">
      <!-- 1 -->
      <g style="fill: #262626" transform="translate(159.634287 247.622281) scale(0.11 -0.11)">
       <defs>
        <path id="DejaVuSans-31" d="M 794 531 
L 1825 531 
L 1825 4091 
L 703 3866 
L 703 4441 
L 1819 4666 
L 2450 4666 
L 2450 531 
L 3481 531 
L 3481 0 
L 794 0 
L 794 531 
z
" transform="scale(0.015625)"/>
       </defs>
       <use xlink:href="#DejaVuSans-31"/>
      </g>
     </g>
    </g>
    <g id="xtick_3">
     <g id="line2d_3">
      <path d="M 255.593127 229.764 
L 255.593127 24.12 
" clip-path="url(#pa5819fc9da)" style="fill: none; stroke: #cccccc; stroke-linecap: round"/>
     </g>
     <g id="text_3">
      <!-- 2 -->
      <g style="fill: #262626" transform="translate(252.093752 247.622281) scale(0.11 -0.11)">
       <defs>
        <path id="DejaVuSans-32" d="M 1228 531 
L 3431 531 
L 3431 0 
L 469 0 
L 469 531 
Q 828 903 1448 1529 
Q 2069 2156 2228 2338 
Q 2531 2678 2651 2914 
Q 2772 3150 2772 3378 
Q 2772 3750 2511 3984 
Q 2250 4219 1831 4219 
Q 1534 4219 1204 4116 
Q 875 4013 500 3803 
L 500 4441 
Q 881 4594 1212 4672 
Q 1544 4750 1819 4750 
Q 2544 4750 2975 4387 
Q 3406 4025 3406 3419 
Q 3406 3131 3298 2873 
Q 3191 2616 2906 2266 
Q 2828 2175 2409 1742 
Q 1991 1309 1228 531 
z
" transform="scale(0.015625)"/>
       </defs>
       <use xlink:href="#DejaVuSans-32"/>
      </g>
     </g>
    </g>
    <g id="xtick_4">
     <g id="line2d_4">
      <path d="M 348.052591 229.764 
L 348.052591 24.12 
" clip-path="url(#pa5819fc9da)" style="fill: none; stroke: #cccccc; stroke-linecap: round"/>
     </g>
     <g id="text_4">
      <!-- 3 -->
      <g style="fill: #262626" transform="translate(344.553216 247.622281) scale(0.11 -0.11)">
       <defs>
        <path id="DejaVuSans-33" d="M 2597 2516 
Q 3050 2419 3304 2112 
Q 3559 1806 3559 1356 
Q 3559 666 3084 287 
Q 2609 -91 1734 -91 
Q 1441 -91 1130 -33 
Q 819 25 488 141 
L 488 750 
Q 750 597 1062 519 
Q 1375 441 1716 441 
Q 2309 441 2620 675 
Q 2931 909 2931 1356 
Q 2931 1769 2642 2001 
Q 2353 2234 1838 2234 
L 1294 2234 
L 1294 2753 
L 1863 2753 
Q 2328 2753 2575 2939 
Q 2822 3125 2822 3475 
Q 2822 3834 2567 4026 
Q 2313 4219 1838 4219 
Q 1578 4219 1281 4162 
Q 984 4106 628 3988 
L 628 4550 
Q 988 4650 1302 4700 
Q 1616 4750 1894 4750 
Q 2613 4750 3031 4423 
Q 3450 4097 3450 3541 
Q 3450 3153 3228 2886 
Q 3006 2619 2597 2516 
z
" transform="scale(0.015625)"/>
       </defs>
       <use xlink:href="#DejaVuSans-33"/>
      </g>
     </g>
    </g>
    <g id="xtick_5">
     <g id="line2d_5">
      <path d="M 440.512056 229.764 
L 440.512056 24.12 
" clip-path="url(#pa5819fc9da)" style="fill: none; stroke: #cccccc; stroke-linecap: round"/>
     </g>
     <g id="text_5">
      <!-- 4 -->
      <g style="fill: #262626" transform="translate(437.012681 247.622281) scale(0.11 -0.11)">
       <defs>
        <path id="DejaVuSans-34" d="M 2419 4116 
L 825 1625 
L 2419 1625 
L 2419 4116 
z
M 2253 4666 
L 3047 4666 
L 3047 1625 
L 3713 1625 
L 3713 1100 
L 3047 1100 
L 3047 0 
L 2419 0 
L 2419 1100 
L 313 1100 
L 313 1709 
L 2253 4666 
z
" transform="scale(0.015625)"/>
       </defs>
       <use xlink:href="#DejaVuSans-34"/>
      </g>
     </g>
    </g>
    <g id="xtick_6">
     <g id="line2d_6">
      <path d="M 532.97152 229.764 
L 532.97152 24.12 
" clip-path="url(#pa5819fc9da)" style="fill: none; stroke: #cccccc; stroke-linecap: round"/>
     </g>
     <g id="text_6">
      <!-- 5 -->
      <g style="fill: #262626" transform="translate(529.472145 247.622281) scale(0.11 -0.11)">
       <defs>
        <path id="DejaVuSans-35" d="M 691 4666 
L 3169 4666 
L 3169 4134 
L 1269 4134 
L 1269 2991 
Q 1406 3038 1543 3061 
Q 1681 3084 1819 3084 
Q 2600 3084 3056 2656 
Q 3513 2228 3513 1497 
Q 3513 744 3044 326 
Q 2575 -91 1722 -91 
Q 1428 -91 1123 -41 
Q 819 9 494 109 
L 494 744 
Q 775 591 1075 516 
Q 1375 441 1709 441 
Q 2250 441 2565 725 
Q 2881 1009 2881 1497 
Q 2881 1984 2565 2268 
Q 2250 2553 1709 2553 
Q 1456 2553 1204 2497 
Q 953 2441 691 2322 
L 691 4666 
z
" transform="scale(0.015625)"/>
       </defs>
       <use xlink:href="#DejaVuSans-35"/>
      </g>
     </g>
    </g>
    <g id="text_7">
     <!-- $\omega$ -->
     <g style="fill: #262626" transform="translate(297.245156 263.028063) scale(0.12 -0.12)">
      <defs>
       <path id="DejaVuSans-Oblique-3c9" d="M 1369 -91 
Q 72 -91 434 1766 
Q 575 2500 1256 3500 
L 1875 3500 
Q 1231 2500 1088 1750 
Q 819 397 1519 397 
Q 2166 397 2478 2078 
L 3009 2078 
Q 2669 388 3316 397 
Q 4013 403 4275 1750 
Q 4419 2500 4169 3500 
L 4788 3500 
Q 5075 2500 4934 1766 
Q 4578 -94 3278 -91 
Q 2428 -88 2503 844 
Q 2194 -91 1369 -91 
z
" transform="scale(0.015625)"/>
      </defs>
      <use xlink:href="#DejaVuSans-Oblique-3c9" transform="translate(0 0.3125)"/>
     </g>
    </g>
   </g>
   <g id="matplotlib.axis_2">
    <g id="ytick_1">
     <g id="line2d_7">
      <path d="M 48.530156 201.721636 
L 556.040156 201.721636 
" clip-path="url(#pa5819fc9da)" style="fill: none; stroke: #cccccc; stroke-linecap: round"/>
     </g>
     <g id="text_8">
      <!-- −4 -->
      <g style="fill: #262626" transform="translate(22.81375 205.900777) scale(0.11 -0.11)">
       <defs>
        <path id="DejaVuSans-2212" d="M 678 2272 
L 4684 2272 
L 4684 1741 
L 678 1741 
L 678 2272 
z
" transform="scale(0.015625)"/>
       </defs>
       <use xlink:href="#DejaVuSans-2212"/>
       <use xlink:href="#DejaVuSans-34" transform="translate(83.789062 0)"/>
      </g>
     </g>
    </g>
    <g id="ytick_2">
     <g id="line2d_8">
      <path d="M 48.530156 164.331818 
L 556.040156 164.331818 
" clip-path="url(#pa5819fc9da)" style="fill: none; stroke: #cccccc; stroke-linecap: round"/>
     </g>
     <g id="text_9">
      <!-- −2 -->
      <g style="fill: #262626" transform="translate(22.81375 168.510959) scale(0.11 -0.11)">
       <use xlink:href="#DejaVuSans-2212"/>
       <use xlink:href="#DejaVuSans-32" transform="translate(83.789062 0)"/>
      </g>
     </g>
    </g>
    <g id="ytick_3">
     <g id="line2d_9">
      <path d="M 48.530156 126.942 
L 556.040156 126.942 
" clip-path="url(#pa5819fc9da)" style="fill: none; stroke: #cccccc; stroke-linecap: round"/>
     </g>
     <g id="text_10">
      <!-- 0 -->
      <g style="fill: #262626" transform="translate(32.031406 131.121141) scale(0.11 -0.11)">
       <use xlink:href="#DejaVuSans-30"/>
      </g>
     </g>
    </g>
    <g id="ytick_4">
     <g id="line2d_10">
      <path d="M 48.530156 89.552182 
L 556.040156 89.552182 
" clip-path="url(#pa5819fc9da)" style="fill: none; stroke: #cccccc; stroke-linecap: round"/>
     </g>
     <g id="text_11">
      <!-- 2 -->
      <g style="fill: #262626" transform="translate(32.031406 93.731322) scale(0.11 -0.11)">
       <use xlink:href="#DejaVuSans-32"/>
      </g>
     </g>
    </g>
    <g id="ytick_5">
     <g id="line2d_11">
      <path d="M 48.530156 52.162364 
L 556.040156 52.162364 
" clip-path="url(#pa5819fc9da)" style="fill: none; stroke: #cccccc; stroke-linecap: round"/>
     </g>
     <g id="text_12">
      <!-- 4 -->
      <g style="fill: #262626" transform="translate(32.031406 56.341504) scale(0.11 -0.11)">
       <use xlink:href="#DejaVuSans-34"/>
      </g>
     </g>
    </g>
    <g id="text_13">
     <!-- Optimal parameter value -->
     <g style="fill: #262626" transform="translate(16.318125 202.56075) rotate(-90) scale(0.12 -0.12)">
      <defs>
       <path id="DejaVuSans-4f" d="M 2522 4238 
Q 1834 4238 1429 3725 
Q 1025 3213 1025 2328 
Q 1025 1447 1429 934 
Q 1834 422 2522 422 
Q 3209 422 3611 934 
Q 4013 1447 4013 2328 
Q 4013 3213 3611 3725 
Q 3209 4238 2522 4238 
z
M 2522 4750 
Q 3503 4750 4090 4092 
Q 4678 3434 4678 2328 
Q 4678 1225 4090 567 
Q 3503 -91 2522 -91 
Q 1538 -91 948 565 
Q 359 1222 359 2328 
Q 359 3434 948 4092 
Q 1538 4750 2522 4750 
z
" transform="scale(0.015625)"/>
       <path id="DejaVuSans-70" d="M 1159 525 
L 1159 -1331 
L 581 -1331 
L 581 3500 
L 1159 3500 
L 1159 2969 
Q 1341 3281 1617 3432 
Q 1894 3584 2278 3584 
Q 2916 3584 3314 3078 
Q 3713 2572 3713 1747 
Q 3713 922 3314 415 
Q 2916 -91 2278 -91 
Q 1894 -91 1617 61 
Q 1341 213 1159 525 
z
M 3116 1747 
Q 3116 2381 2855 2742 
Q 2594 3103 2138 3103 
Q 1681 3103 1420 2742 
Q 1159 2381 1159 1747 
Q 1159 1113 1420 752 
Q 1681 391 2138 391 
Q 2594 391 2855 752 
Q 3116 1113 3116 1747 
z
" transform="scale(0.015625)"/>
       <path id="DejaVuSans-74" d="M 1172 4494 
L 1172 3500 
L 2356 3500 
L 2356 3053 
L 1172 3053 
L 1172 1153 
Q 1172 725 1289 603 
Q 1406 481 1766 481 
L 2356 481 
L 2356 0 
L 1766 0 
Q 1100 0 847 248 
Q 594 497 594 1153 
L 594 3053 
L 172 3053 
L 172 3500 
L 594 3500 
L 594 4494 
L 1172 4494 
z
" transform="scale(0.015625)"/>
       <path id="DejaVuSans-69" d="M 603 3500 
L 1178 3500 
L 1178 0 
L 603 0 
L 603 3500 
z
M 603 4863 
L 1178 4863 
L 1178 4134 
L 603 4134 
L 603 4863 
z
" transform="scale(0.015625)"/>
       <path id="DejaVuSans-6d" d="M 3328 2828 
Q 3544 3216 3844 3400 
Q 4144 3584 4550 3584 
Q 5097 3584 5394 3201 
Q 5691 2819 5691 2113 
L 5691 0 
L 5113 0 
L 5113 2094 
Q 5113 2597 4934 2840 
Q 4756 3084 4391 3084 
Q 3944 3084 3684 2787 
Q 3425 2491 3425 1978 
L 3425 0 
L 2847 0 
L 2847 2094 
Q 2847 2600 2669 2842 
Q 2491 3084 2119 3084 
Q 1678 3084 1418 2786 
Q 1159 2488 1159 1978 
L 1159 0 
L 581 0 
L 581 3500 
L 1159 3500 
L 1159 2956 
Q 1356 3278 1631 3431 
Q 1906 3584 2284 3584 
Q 2666 3584 2933 3390 
Q 3200 3197 3328 2828 
z
" transform="scale(0.015625)"/>
       <path id="DejaVuSans-61" d="M 2194 1759 
Q 1497 1759 1228 1600 
Q 959 1441 959 1056 
Q 959 750 1161 570 
Q 1363 391 1709 391 
Q 2188 391 2477 730 
Q 2766 1069 2766 1631 
L 2766 1759 
L 2194 1759 
z
M 3341 1997 
L 3341 0 
L 2766 0 
L 2766 531 
Q 2569 213 2275 61 
Q 1981 -91 1556 -91 
Q 1019 -91 701 211 
Q 384 513 384 1019 
Q 384 1609 779 1909 
Q 1175 2209 1959 2209 
L 2766 2209 
L 2766 2266 
Q 2766 2663 2505 2880 
Q 2244 3097 1772 3097 
Q 1472 3097 1187 3025 
Q 903 2953 641 2809 
L 641 3341 
Q 956 3463 1253 3523 
Q 1550 3584 1831 3584 
Q 2591 3584 2966 3190 
Q 3341 2797 3341 1997 
z
" transform="scale(0.015625)"/>
       <path id="DejaVuSans-6c" d="M 603 4863 
L 1178 4863 
L 1178 0 
L 603 0 
L 603 4863 
z
" transform="scale(0.015625)"/>
       <path id="DejaVuSans-20" transform="scale(0.015625)"/>
       <path id="DejaVuSans-72" d="M 2631 2963 
Q 2534 3019 2420 3045 
Q 2306 3072 2169 3072 
Q 1681 3072 1420 2755 
Q 1159 2438 1159 1844 
L 1159 0 
L 581 0 
L 581 3500 
L 1159 3500 
L 1159 2956 
Q 1341 3275 1631 3429 
Q 1922 3584 2338 3584 
Q 2397 3584 2469 3576 
Q 2541 3569 2628 3553 
L 2631 2963 
z
" transform="scale(0.015625)"/>
       <path id="DejaVuSans-65" d="M 3597 1894 
L 3597 1613 
L 953 1613 
Q 991 1019 1311 708 
Q 1631 397 2203 397 
Q 2534 397 2845 478 
Q 3156 559 3463 722 
L 3463 178 
Q 3153 47 2828 -22 
Q 2503 -91 2169 -91 
Q 1331 -91 842 396 
Q 353 884 353 1716 
Q 353 2575 817 3079 
Q 1281 3584 2069 3584 
Q 2775 3584 3186 3129 
Q 3597 2675 3597 1894 
z
M 3022 2063 
Q 3016 2534 2758 2815 
Q 2500 3097 2075 3097 
Q 1594 3097 1305 2825 
Q 1016 2553 972 2059 
L 3022 2063 
z
" transform="scale(0.015625)"/>
       <path id="DejaVuSans-76" d="M 191 3500 
L 800 3500 
L 1894 563 
L 2988 3500 
L 3597 3500 
L 2284 0 
L 1503 0 
L 191 3500 
z
" transform="scale(0.015625)"/>
       <path id="DejaVuSans-75" d="M 544 1381 
L 544 3500 
L 1119 3500 
L 1119 1403 
Q 1119 906 1312 657 
Q 1506 409 1894 409 
Q 2359 409 2629 706 
Q 2900 1003 2900 1516 
L 2900 3500 
L 3475 3500 
L 3475 0 
L 2900 0 
L 2900 538 
Q 2691 219 2414 64 
Q 2138 -91 1772 -91 
Q 1169 -91 856 284 
Q 544 659 544 1381 
z
M 1991 3584 
L 1991 3584 
z
" transform="scale(0.015625)"/>
      </defs>
      <use xlink:href="#DejaVuSans-4f"/>
      <use xlink:href="#DejaVuSans-70" transform="translate(78.710938 0)"/>
      <use xlink:href="#DejaVuSans-74" transform="translate(142.1875 0)"/>
      <use xlink:href="#DejaVuSans-69" transform="translate(181.396484 0)"/>
      <use xlink:href="#DejaVuSans-6d" transform="translate(209.179688 0)"/>
      <use xlink:href="#DejaVuSans-61" transform="translate(306.591797 0)"/>
      <use xlink:href="#DejaVuSans-6c" transform="translate(367.871094 0)"/>
      <use xlink:href="#DejaVuSans-20" transform="translate(395.654297 0)"/>
      <use xlink:href="#DejaVuSans-70" transform="translate(427.441406 0)"/>
      <use xlink:href="#DejaVuSans-61" transform="translate(490.917969 0)"/>
      <use xlink:href="#DejaVuSans-72" transform="translate(552.197266 0)"/>
      <use xlink:href="#DejaVuSans-61" transform="translate(593.310547 0)"/>
      <use xlink:href="#DejaVuSans-6d" transform="translate(654.589844 0)"/>
      <use xlink:href="#DejaVuSans-65" transform="translate(752.001953 0)"/>
      <use xlink:href="#DejaVuSans-74" transform="translate(813.525391 0)"/>
      <use xlink:href="#DejaVuSans-65" transform="translate(852.734375 0)"/>
      <use xlink:href="#DejaVuSans-72" transform="translate(914.257812 0)"/>
      <use xlink:href="#DejaVuSans-20" transform="translate(955.371094 0)"/>
      <use xlink:href="#DejaVuSans-76" transform="translate(987.158203 0)"/>
      <use xlink:href="#DejaVuSans-61" transform="translate(1046.337891 0)"/>
      <use xlink:href="#DejaVuSans-6c" transform="translate(1107.617188 0)"/>
      <use xlink:href="#DejaVuSans-75" transform="translate(1135.400391 0)"/>
      <use xlink:href="#DejaVuSans-65" transform="translate(1198.779297 0)"/>
     </g>
    </g>
   </g>
   <g id="patch_3">
    <path d="M 48.530156 220.416545 
L 556.040156 220.416545 
L 556.040156 201.721636 
L 48.530156 201.721636 
z
" clip-path="url(#pa5819fc9da)" style="fill: #ff0000; opacity: 0.08; stroke: #ff0000; stroke-linejoin: miter"/>
   </g>
   <g id="patch_4">
    <path d="M 48.530156 52.162364 
L 556.040156 52.162364 
L 556.040156 33.467455 
L 48.530156 33.467455 
z
" clip-path="url(#pa5819fc9da)" style="fill: #ff0000; opacity: 0.08; stroke: #ff0000; stroke-linejoin: miter"/>
   </g>
   <g id="line2d_12">
    <path d="M 71.598793 33.49107 
L 72.523387 33.467455 
L 73.447982 220.416545 
L 74.372577 128.897306 
L 75.297171 126.67861 
L 76.221766 51.357736 
L 77.14636 187.038525 
L 78.070955 59.693179 
L 78.99555 220.416545 
L 79.920144 219.52932 
L 80.844739 33.467455 
L 82.693928 33.467455 
L 83.618523 51.118981 
L 84.543118 220.416545 
L 85.467712 220.416545 
L 86.392307 33.467455 
L 87.316902 220.416545 
L 88.241496 39.163899 
L 89.166091 56.416425 
L 90.090685 194.951093 
L 91.01528 55.865353 
L 91.939875 191.656701 
L 92.864469 218.782665 
L 93.789064 37.985923 
L 94.713659 203.287929 
L 95.638253 118.62609 
L 96.562848 196.286842 
L 97.487443 63.751438 
L 98.412037 47.578198 
L 99.336632 213.14859 
L 100.261227 126.244371 
L 101.185821 127.446653 
L 102.110416 202.473624 
L 103.035011 197.101 
L 103.959605 130.010712 
L 104.8842 127.710172 
L 105.808794 190.53682 
L 106.733389 136.077403 
L 107.657984 125.845259 
L 108.582578 71.751747 
L 109.507173 80.849191 
L 110.431768 126.470208 
L 111.356362 36.872338 
L 112.280957 197.889393 
L 113.205552 126.707696 
L 114.130146 153.85475 
L 115.054741 149.013636 
L 116.90393 127.472487 
L 117.828525 158.190752 
L 118.753119 162.407146 
L 119.677714 202.234747 
L 120.602309 63.072707 
L 121.526903 125.61948 
L 122.451498 153.105381 
L 123.376093 127.056218 
L 124.300687 112.843359 
L 125.225282 83.233253 
L 126.149877 127.47587 
L 127.074471 57.090213 
L 127.999066 53.809008 
L 128.923661 88.097403 
L 129.848255 194.014224 
L 130.77285 190.414481 
L 131.697444 46.660886 
L 132.622039 148.689883 
L 133.546634 82.117466 
L 134.471228 130.046789 
L 135.395823 79.654945 
L 136.320418 82.790228 
L 137.245012 154.816979 
L 138.169607 118.33113 
L 139.094202 138.444484 
L 140.018796 188.0929 
L 140.943391 152.048546 
L 141.867986 171.998687 
L 142.79258 201.818002 
L 143.717175 126.942 
L 144.641769 127.543428 
L 145.566364 86.398694 
L 146.490959 91.031843 
L 147.415553 147.769572 
L 148.340148 95.149499 
L 149.264743 126.607732 
L 150.189337 127.275305 
L 151.113932 77.234498 
L 152.038527 79.796565 
L 152.963121 121.758986 
L 153.887716 127.455899 
L 154.812311 127.580193 
L 155.736905 127.044545 
L 156.6615 160.20041 
L 157.586094 127.041526 
L 158.510689 126.84277 
L 159.435284 174.725119 
L 160.359878 126.814331 
L 161.284473 126.942 
L 162.209068 131.581594 
L 163.133662 204.015413 
L 164.058257 126.582992 
L 164.982852 126.959257 
L 165.907446 126.929339 
L 166.832041 116.816818 
L 167.756636 126.836155 
L 168.68123 156.980189 
L 169.605825 126.155858 
L 170.53042 113.322035 
L 171.455014 158.465812 
L 172.379609 134.746561 
L 173.304203 126.983404 
L 175.153393 126.813719 
L 176.077987 126.490425 
L 177.002582 205.878933 
L 177.927177 216.907181 
L 178.851771 127.057966 
L 179.776366 127.75174 
L 180.700961 127.880792 
L 181.625555 125.980075 
L 182.55015 127.126973 
L 183.474745 127.102404 
L 184.399339 172.843605 
L 185.323934 126.872426 
L 186.248528 127.116625 
L 187.173123 127.73427 
L 188.097718 126.833298 
L 189.022312 96.309623 
L 189.946907 127.16576 
L 191.796096 127.080193 
L 192.720691 74.067016 
L 193.645286 125.622004 
L 194.56988 170.392865 
L 195.494475 126.871962 
L 196.41907 127.063295 
L 197.343664 127.064409 
L 198.268259 110.914993 
L 199.192853 126.156753 
L 200.117448 127.068923 
L 201.042043 127.029501 
L 201.966637 149.798522 
L 202.891232 70.858967 
L 203.815827 126.634637 
L 204.740421 127.062426 
L 205.665016 126.22358 
L 206.589611 115.424536 
L 207.514205 149.091161 
L 208.4388 90.264882 
L 209.363395 126.825909 
L 210.287989 149.834887 
L 211.212584 89.250013 
L 212.137178 76.844877 
L 213.061773 126.71735 
L 213.986368 101.883449 
L 214.910962 172.786211 
L 215.835557 116.800847 
L 216.760152 128.128331 
L 217.684746 124.914025 
L 218.609341 163.151445 
L 219.533936 126.117606 
L 220.45853 154.195598 
L 221.383125 126.942001 
L 222.30772 127.602799 
L 223.232314 96.463777 
L 224.156909 127.595746 
L 225.081503 127.065473 
L 226.006098 128.793666 
L 226.930693 200.421072 
L 227.855287 175.139156 
L 228.779882 128.646832 
L 229.704477 150.129029 
L 230.629071 108.830938 
L 231.553666 127.461921 
L 232.478261 127.024071 
L 233.402855 127.072775 
L 234.32745 171.777956 
L 235.252045 174.735204 
L 237.101234 79.774162 
L 238.025829 73.362043 
L 238.950423 126.875849 
L 239.875018 161.742969 
L 240.799612 127.252559 
L 241.724207 37.663644 
L 242.648802 72.5089 
L 243.573396 126.417005 
L 244.497991 127.888462 
L 245.422586 127.421671 
L 246.34718 126.358371 
L 247.271775 127.509939 
L 248.19637 82.227475 
L 249.120964 127.490455 
L 250.045559 141.729653 
L 250.970154 159.938558 
L 251.894748 169.60065 
L 252.819343 126.44215 
L 253.743937 174.530404 
L 254.668532 99.152161 
L 255.593127 153.904418 
L 256.517721 160.215615 
L 257.442316 156.785046 
L 258.366911 127.154442 
L 259.291505 179.793588 
L 260.2161 156.002101 
L 261.140695 127.751549 
L 262.065289 163.012819 
L 262.989884 127.219313 
L 263.914479 144.488493 
L 264.839073 127.010342 
L 265.763668 162.106568 
L 266.688262 76.306891 
L 267.612857 127.048398 
L 268.537452 126.505129 
L 269.462046 127.035922 
L 270.386641 126.88072 
L 271.311236 127.012363 
L 272.23583 126.470705 
L 273.160425 119.232431 
L 274.08502 127.05587 
L 275.009614 127.035144 
L 275.934209 107.046175 
L 276.858804 126.900863 
L 277.783398 176.579996 
L 278.707993 127.321093 
L 279.632587 180.223756 
L 280.557182 73.389591 
L 282.406371 167.328327 
L 283.330966 150.757296 
L 284.255561 125.834286 
L 285.180155 126.902378 
L 286.10475 126.94013 
L 287.029345 136.00565 
L 287.953939 127.033379 
L 288.878534 127.298665 
L 289.803129 98.276952 
L 290.727723 176.172605 
L 292.576912 81.348533 
L 293.501507 126.847658 
L 294.426102 126.663638 
L 295.350696 126.902255 
L 296.275291 126.603758 
L 297.199886 127.374692 
L 298.12448 126.942001 
L 299.049075 110.833926 
L 299.97367 104.649295 
L 300.898264 126.521923 
L 301.822859 127.266889 
L 302.747454 126.977936 
L 303.672048 146.662267 
L 304.596643 155.053878 
L 305.521238 138.21103 
L 306.445832 129.761762 
L 307.370427 70.11682 
L 308.295021 96.494123 
L 309.219616 126.983817 
L 310.144211 127.09736 
L 311.068805 75.819894 
L 311.9934 126.630789 
L 312.917995 127.018285 
L 313.842589 126.627262 
L 314.767184 161.365537 
L 315.691779 88.567766 
L 316.616373 127.156875 
L 317.540968 126.916955 
L 318.465563 126.464973 
L 319.390157 116.564799 
L 320.314752 144.704713 
L 321.239346 126.942 
L 322.163941 53.393264 
L 323.088536 127.295265 
L 324.01313 126.956195 
L 324.937725 126.856146 
L 325.86232 127.316773 
L 326.786914 149.94601 
L 327.711509 178.440975 
L 328.636104 109.471357 
L 329.560698 126.576715 
L 330.485293 174.215249 
L 331.409888 126.161305 
L 332.334482 86.25888 
L 333.259077 126.895237 
L 334.183671 144.947553 
L 335.108266 127.00144 
L 336.032861 126.95854 
L 336.957455 126.196227 
L 337.88205 126.67496 
L 338.806645 75.435768 
L 339.731239 126.617644 
L 340.655834 167.802462 
L 342.505023 77.267706 
L 343.429618 125.803932 
L 344.354213 89.763203 
L 345.278807 126.942 
L 346.203402 148.564782 
L 347.127996 75.826258 
L 348.052591 214.038715 
L 348.977186 178.122351 
L 349.90178 126.952599 
L 350.826375 202.738148 
L 351.75097 127.017226 
L 352.675564 171.981998 
L 353.600159 174.147497 
L 354.524754 98.804417 
L 355.449348 128.74038 
L 356.373943 127.873014 
L 357.298538 147.46025 
L 358.223132 144.414938 
L 359.147727 129.771252 
L 360.072321 126.960853 
L 360.996916 127.196703 
L 361.921511 120.312237 
L 362.846105 180.276318 
L 363.7707 142.628677 
L 364.695295 126.936829 
L 365.619889 126.630179 
L 366.544484 126.842501 
L 367.469079 137.764154 
L 368.393673 127.072135 
L 369.318268 122.978601 
L 370.242863 112.170238 
L 371.167457 171.267027 
L 372.092052 167.181515 
L 373.016647 176.84887 
L 373.941241 126.642494 
L 374.865836 158.832076 
L 375.79043 98.078116 
L 377.63962 153.464925 
L 378.564214 98.361133 
L 379.488809 126.941999 
L 380.413404 102.470836 
L 381.337998 99.180287 
L 382.262593 124.862353 
L 383.187188 103.038586 
L 384.111782 96.389916 
L 385.036377 126.942 
L 385.960972 126.86611 
L 386.885566 78.540291 
L 387.810161 136.259596 
L 388.734755 126.942 
L 389.65935 154.144637 
L 390.583945 152.111547 
L 391.508539 77.684105 
L 392.433134 126.667745 
L 393.357729 127.165675 
L 394.282323 160.099979 
L 395.206918 126.947018 
L 396.131513 126.735614 
L 397.056107 149.825123 
L 397.980702 127.078104 
L 398.905297 127.01908 
L 399.829891 127.140796 
L 400.754486 91.418835 
L 401.67908 126.702355 
L 402.603675 126.74975 
L 403.52827 126.95633 
L 404.452864 142.146153 
L 405.377459 74.447956 
L 406.302054 126.942 
L 407.226648 161.88535 
L 408.151243 104.629746 
L 409.075838 194.444225 
L 410.000432 126.943175 
L 410.925027 126.684517 
L 411.849622 63.698732 
L 412.774216 126.941999 
L 413.698811 126.69821 
L 414.623405 126.755008 
L 415.548 67.668666 
L 416.472595 178.41425 
L 417.397189 96.051351 
L 418.321784 109.943057 
L 419.246379 167.374565 
L 420.170973 127.130889 
L 421.095568 143.757194 
L 422.020163 154.188061 
L 422.944757 126.060074 
L 423.869352 127.122523 
L 424.793947 91.757087 
L 425.718541 125.996082 
L 426.643136 94.383065 
L 427.56773 127.332239 
L 428.492325 127.544201 
L 429.41692 87.288192 
L 430.341514 126.934741 
L 431.266109 108.090921 
L 432.190704 126.871083 
L 433.115298 87.880957 
L 434.039893 126.925055 
L 434.964488 45.849888 
L 435.889082 126.942001 
L 436.813677 126.9509 
L 437.738272 126.705012 
L 438.662866 67.936757 
L 439.587461 160.821251 
L 440.512056 127.490682 
L 441.43665 127.002875 
L 442.361245 126.716896 
L 443.285839 126.938909 
L 444.210434 165.396614 
L 445.135029 136.395905 
L 446.059623 75.528049 
L 446.984218 126.952463 
L 447.908813 170.980333 
L 448.833407 103.939621 
L 449.758002 136.363185 
L 450.682597 126.920565 
L 452.531786 126.704058 
L 453.456381 80.658494 
L 454.380975 153.698536 
L 455.30557 127.041022 
L 456.230164 150.173836 
L 457.154759 148.34776 
L 458.079354 77.212106 
L 459.003948 127.190436 
L 459.928543 126.884906 
L 460.853138 107.384597 
L 461.777732 154.53159 
L 462.702327 105.021649 
L 463.626922 114.389355 
L 464.551516 126.978622 
L 465.476111 127.149654 
L 466.400706 119.240242 
L 467.3253 123.193711 
L 468.249895 76.327926 
L 469.174489 115.379041 
L 470.099084 94.934899 
L 471.023679 126.956208 
L 471.948273 144.966869 
L 472.872868 137.24615 
L 473.797463 59.951432 
L 474.722057 126.87333 
L 475.646652 71.961157 
L 476.571247 126.942001 
L 477.495841 126.942 
L 478.420436 126.796252 
L 479.345031 163.542327 
L 480.269625 126.881101 
L 481.19422 119.977978 
L 482.118814 106.81132 
L 483.043409 126.884125 
L 483.968004 100.139842 
L 484.892598 160.548921 
L 485.817193 126.816495 
L 486.741788 126.563808 
L 487.666382 172.112242 
L 488.590977 169.580101 
L 489.515572 126.871607 
L 490.440166 126.779509 
L 491.364761 127.137119 
L 492.289356 56.775503 
L 493.21395 77.018243 
L 494.138545 73.702744 
L 495.063139 126.931556 
L 495.987734 127.13388 
L 496.912329 162.947377 
L 497.836923 126.868687 
L 498.761518 202.42016 
L 499.686113 127.008268 
L 500.610707 104.822515 
L 501.535302 210.207156 
L 502.459897 149.745439 
L 503.384491 126.873598 
L 504.309086 108.07956 
L 505.233681 143.514619 
L 506.158275 126.984437 
L 507.08287 127.058633 
L 508.007465 126.923493 
L 508.932059 144.118206 
L 509.856654 122.34273 
L 510.781248 126.758043 
L 511.705843 157.671007 
L 512.630438 79.829547 
L 513.555032 172.400535 
L 514.479627 141.366823 
L 515.404222 146.692375 
L 516.328816 110.481876 
L 517.253411 126.799505 
L 518.178006 138.822117 
L 519.1026 174.824684 
L 520.027195 126.960443 
L 520.95179 121.417902 
L 521.876384 128.170048 
L 522.800979 127.011793 
L 523.725573 131.905809 
L 524.650168 126.960764 
L 525.574763 127.054951 
L 526.499357 126.884336 
L 527.423952 127.001364 
L 528.348547 94.316821 
L 529.273141 119.297306 
L 530.197736 126.942 
L 531.122331 162.713109 
L 532.046925 134.348422 
L 532.97152 171.658431 
L 532.97152 171.658431 
" clip-path="url(#pa5819fc9da)" style="fill: none; stroke: #dd8452; stroke-width: 1.8; stroke-linecap: round"/>
    <defs>
     <path id="m8a1722d00c" d="M -2 2 
L 2 2 
L 2 -2 
L -2 -2 
z
" style="stroke: #dd8452; stroke-linejoin: miter"/>
    </defs>
    <g clip-path="url(#pa5819fc9da)">
     <use xlink:href="#m8a1722d00c" x="71.598793" y="33.49107" style="fill: #dd8452; stroke: #dd8452; stroke-linejoin: miter"/>
     <use xlink:href="#m8a1722d00c" x="86.392307" y="33.467455" style="fill: #dd8452; stroke: #dd8452; stroke-linejoin: miter"/>
     <use xlink:href="#m8a1722d00c" x="101.185821" y="127.446653" style="fill: #dd8452; stroke: #dd8452; stroke-linejoin: miter"/>
     <use xlink:href="#m8a1722d00c" x="115.979336" y="138.627143" style="fill: #dd8452; stroke: #dd8452; stroke-linejoin: miter"/>
     <use xlink:href="#m8a1722d00c" x="130.77285" y="190.414481" style="fill: #dd8452; stroke: #dd8452; stroke-linejoin: miter"/>
     <use xlink:href="#m8a1722d00c" x="145.566364" y="86.398694" style="fill: #dd8452; stroke: #dd8452; stroke-linejoin: miter"/>
     <use xlink:href="#m8a1722d00c" x="160.359878" y="126.814331" style="fill: #dd8452; stroke: #dd8452; stroke-linejoin: miter"/>
     <use xlink:href="#m8a1722d00c" x="175.153393" y="126.813719" style="fill: #dd8452; stroke: #dd8452; stroke-linejoin: miter"/>
     <use xlink:href="#m8a1722d00c" x="189.946907" y="127.16576" style="fill: #dd8452; stroke: #dd8452; stroke-linejoin: miter"/>
     <use xlink:href="#m8a1722d00c" x="204.740421" y="127.062426" style="fill: #dd8452; stroke: #dd8452; stroke-linejoin: miter"/>
     <use xlink:href="#m8a1722d00c" x="219.533936" y="126.117606" style="fill: #dd8452; stroke: #dd8452; stroke-linejoin: miter"/>
     <use xlink:href="#m8a1722d00c" x="234.32745" y="171.777956" style="fill: #dd8452; stroke: #dd8452; stroke-linejoin: miter"/>
     <use xlink:href="#m8a1722d00c" x="249.120964" y="127.490455" style="fill: #dd8452; stroke: #dd8452; stroke-linejoin: miter"/>
     <use xlink:href="#m8a1722d00c" x="263.914479" y="144.488493" style="fill: #dd8452; stroke: #dd8452; stroke-linejoin: miter"/>
     <use xlink:href="#m8a1722d00c" x="278.707993" y="127.321093" style="fill: #dd8452; stroke: #dd8452; stroke-linejoin: miter"/>
     <use xlink:href="#m8a1722d00c" x="293.501507" y="126.847658" style="fill: #dd8452; stroke: #dd8452; stroke-linejoin: miter"/>
     <use xlink:href="#m8a1722d00c" x="308.295021" y="96.494123" style="fill: #dd8452; stroke: #dd8452; stroke-linejoin: miter"/>
     <use xlink:href="#m8a1722d00c" x="323.088536" y="127.295265" style="fill: #dd8452; stroke: #dd8452; stroke-linejoin: miter"/>
     <use xlink:href="#m8a1722d00c" x="337.88205" y="126.67496" style="fill: #dd8452; stroke: #dd8452; stroke-linejoin: miter"/>
     <use xlink:href="#m8a1722d00c" x="352.675564" y="171.981998" style="fill: #dd8452; stroke: #dd8452; stroke-linejoin: miter"/>
     <use xlink:href="#m8a1722d00c" x="367.469079" y="137.764154" style="fill: #dd8452; stroke: #dd8452; stroke-linejoin: miter"/>
     <use xlink:href="#m8a1722d00c" x="382.262593" y="124.862353" style="fill: #dd8452; stroke: #dd8452; stroke-linejoin: miter"/>
     <use xlink:href="#m8a1722d00c" x="397.056107" y="149.825123" style="fill: #dd8452; stroke: #dd8452; stroke-linejoin: miter"/>
     <use xlink:href="#m8a1722d00c" x="411.849622" y="63.698732" style="fill: #dd8452; stroke: #dd8452; stroke-linejoin: miter"/>
     <use xlink:href="#m8a1722d00c" x="426.643136" y="94.383065" style="fill: #dd8452; stroke: #dd8452; stroke-linejoin: miter"/>
     <use xlink:href="#m8a1722d00c" x="441.43665" y="127.002875" style="fill: #dd8452; stroke: #dd8452; stroke-linejoin: miter"/>
     <use xlink:href="#m8a1722d00c" x="456.230164" y="150.173836" style="fill: #dd8452; stroke: #dd8452; stroke-linejoin: miter"/>
     <use xlink:href="#m8a1722d00c" x="471.023679" y="126.956208" style="fill: #dd8452; stroke: #dd8452; stroke-linejoin: miter"/>
     <use xlink:href="#m8a1722d00c" x="485.817193" y="126.816495" style="fill: #dd8452; stroke: #dd8452; stroke-linejoin: miter"/>
     <use xlink:href="#m8a1722d00c" x="500.610707" y="104.822515" style="fill: #dd8452; stroke: #dd8452; stroke-linejoin: miter"/>
     <use xlink:href="#m8a1722d00c" x="515.404222" y="146.692375" style="fill: #dd8452; stroke: #dd8452; stroke-linejoin: miter"/>
     <use xlink:href="#m8a1722d00c" x="530.197736" y="126.942" style="fill: #dd8452; stroke: #dd8452; stroke-linejoin: miter"/>
    </g>
   </g>
   <g id="line2d_13">
    <path d="M 48.530156 220.416545 
L 556.040156 220.416545 
" clip-path="url(#pa5819fc9da)" style="fill: none; stroke-dasharray: 1,1.65; stroke-dashoffset: 0; stroke: #808080; stroke-opacity: 0.5"/>
   </g>
   <g id="line2d_14">
    <path d="M 48.530156 33.467455 
L 556.040156 33.467455 
" clip-path="url(#pa5819fc9da)" style="fill: none; stroke-dasharray: 1,1.65; stroke-dashoffset: 0; stroke: #808080; stroke-opacity: 0.5"/>
   </g>
   <g id="patch_5">
    <path d="M 48.530156 229.764 
L 48.530156 24.12 
" style="fill: none; stroke: #cccccc; stroke-width: 1.25; stroke-linejoin: miter; stroke-linecap: square"/>
   </g>
   <g id="patch_6">
    <path d="M 556.040156 229.764 
L 556.040156 24.12 
" style="fill: none; stroke: #cccccc; stroke-width: 1.25; stroke-linejoin: miter; stroke-linecap: square"/>
   </g>
   <g id="patch_7">
    <path d="M 48.530156 229.764 
L 556.040156 229.764 
" style="fill: none; stroke: #cccccc; stroke-width: 1.25; stroke-linejoin: miter; stroke-linecap: square"/>
   </g>
   <g id="patch_8">
    <path d="M 48.530156 24.12 
L 556.040156 24.12 
" style="fill: none; stroke: #cccccc; stroke-width: 1.25; stroke-linejoin: miter; stroke-linecap: square"/>
   </g>
   <g id="text_14">
    <!-- Scenario B: Optimal $a_y^*$ vs $\omega$  (12/500 bound-saturated) -->
    <g style="fill: #262626" transform="translate(135.665156 18.12) scale(0.12 -0.12)">
     <defs>
      <path id="DejaVuSans-53" d="M 3425 4513 
L 3425 3897 
Q 3066 4069 2747 4153 
Q 2428 4238 2131 4238 
Q 1616 4238 1336 4038 
Q 1056 3838 1056 3469 
Q 1056 3159 1242 3001 
Q 1428 2844 1947 2747 
L 2328 2669 
Q 3034 2534 3370 2195 
Q 3706 1856 3706 1288 
Q 3706 609 3251 259 
Q 2797 -91 1919 -91 
Q 1588 -91 1214 -16 
Q 841 59 441 206 
L 441 856 
Q 825 641 1194 531 
Q 1563 422 1919 422 
Q 2459 422 2753 634 
Q 3047 847 3047 1241 
Q 3047 1584 2836 1778 
Q 2625 1972 2144 2069 
L 1759 2144 
Q 1053 2284 737 2584 
Q 422 2884 422 3419 
Q 422 4038 858 4394 
Q 1294 4750 2059 4750 
Q 2388 4750 2728 4690 
Q 3069 4631 3425 4513 
z
" transform="scale(0.015625)"/>
      <path id="DejaVuSans-63" d="M 3122 3366 
L 3122 2828 
Q 2878 2963 2633 3030 
Q 2388 3097 2138 3097 
Q 1578 3097 1268 2742 
Q 959 2388 959 1747 
Q 959 1106 1268 751 
Q 1578 397 2138 397 
Q 2388 397 2633 464 
Q 2878 531 3122 666 
L 3122 134 
Q 2881 22 2623 -34 
Q 2366 -91 2075 -91 
Q 1284 -91 818 406 
Q 353 903 353 1747 
Q 353 2603 823 3093 
Q 1294 3584 2113 3584 
Q 2378 3584 2631 3529 
Q 2884 3475 3122 3366 
z
" transform="scale(0.015625)"/>
      <path id="DejaVuSans-6e" d="M 3513 2113 
L 3513 0 
L 2938 0 
L 2938 2094 
Q 2938 2591 2744 2837 
Q 2550 3084 2163 3084 
Q 1697 3084 1428 2787 
Q 1159 2491 1159 1978 
L 1159 0 
L 581 0 
L 581 3500 
L 1159 3500 
L 1159 2956 
Q 1366 3272 1645 3428 
Q 1925 3584 2291 3584 
Q 2894 3584 3203 3211 
Q 3513 2838 3513 2113 
z
" transform="scale(0.015625)"/>
      <path id="DejaVuSans-6f" d="M 1959 3097 
Q 1497 3097 1228 2736 
Q 959 2375 959 1747 
Q 959 1119 1226 758 
Q 1494 397 1959 397 
Q 2419 397 2687 759 
Q 2956 1122 2956 1747 
Q 2956 2369 2687 2733 
Q 2419 3097 1959 3097 
z
M 1959 3584 
Q 2709 3584 3137 3096 
Q 3566 2609 3566 1747 
Q 3566 888 3137 398 
Q 2709 -91 1959 -91 
Q 1206 -91 779 398 
Q 353 888 353 1747 
Q 353 2609 779 3096 
Q 1206 3584 1959 3584 
z
" transform="scale(0.015625)"/>
      <path id="DejaVuSans-42" d="M 1259 2228 
L 1259 519 
L 2272 519 
Q 2781 519 3026 730 
Q 3272 941 3272 1375 
Q 3272 1813 3026 2020 
Q 2781 2228 2272 2228 
L 1259 2228 
z
M 1259 4147 
L 1259 2741 
L 2194 2741 
Q 2656 2741 2882 2914 
Q 3109 3088 3109 3444 
Q 3109 3797 2882 3972 
Q 2656 4147 2194 4147 
L 1259 4147 
z
M 628 4666 
L 2241 4666 
Q 2963 4666 3353 4366 
Q 3744 4066 3744 3513 
Q 3744 3084 3544 2831 
Q 3344 2578 2956 2516 
Q 3422 2416 3680 2098 
Q 3938 1781 3938 1306 
Q 3938 681 3513 340 
Q 3088 0 2303 0 
L 628 0 
L 628 4666 
z
" transform="scale(0.015625)"/>
      <path id="DejaVuSans-3a" d="M 750 794 
L 1409 794 
L 1409 0 
L 750 0 
L 750 794 
z
M 750 3309 
L 1409 3309 
L 1409 2516 
L 750 2516 
L 750 3309 
z
" transform="scale(0.015625)"/>
      <path id="DejaVuSans-Oblique-61" d="M 3438 1997 
L 3047 0 
L 2472 0 
L 2578 531 
Q 2325 219 2001 64 
Q 1678 -91 1281 -91 
Q 834 -91 548 182 
Q 263 456 263 884 
Q 263 1497 752 1853 
Q 1241 2209 2100 2209 
L 2900 2209 
L 2931 2363 
Q 2938 2388 2941 2417 
Q 2944 2447 2944 2509 
Q 2944 2788 2717 2942 
Q 2491 3097 2081 3097 
Q 1800 3097 1504 3025 
Q 1209 2953 897 2809 
L 997 3341 
Q 1322 3463 1633 3523 
Q 1944 3584 2234 3584 
Q 2853 3584 3176 3315 
Q 3500 3047 3500 2534 
Q 3500 2431 3484 2292 
Q 3469 2153 3438 1997 
z
M 2816 1759 
L 2241 1759 
Q 1534 1759 1195 1570 
Q 856 1381 856 984 
Q 856 709 1029 553 
Q 1203 397 1509 397 
Q 1978 397 2328 733 
Q 2678 1069 2791 1631 
L 2816 1759 
z
" transform="scale(0.015625)"/>
      <path id="DejaVuSans-2a" d="M 3009 3897 
L 1888 3291 
L 3009 2681 
L 2828 2375 
L 1778 3009 
L 1778 1831 
L 1422 1831 
L 1422 3009 
L 372 2375 
L 191 2681 
L 1313 3291 
L 191 3897 
L 372 4206 
L 1422 3572 
L 1422 4750 
L 1778 4750 
L 1778 3572 
L 2828 4206 
L 3009 3897 
z
" transform="scale(0.015625)"/>
      <path id="DejaVuSans-Oblique-79" d="M 1588 -325 
Q 1188 -997 936 -1164 
Q 684 -1331 294 -1331 
L -159 -1331 
L -63 -850 
L 269 -850 
Q 509 -850 678 -719 
Q 847 -588 1056 -206 
L 1234 128 
L 459 3500 
L 1069 3500 
L 1650 819 
L 3256 3500 
L 3859 3500 
L 1588 -325 
z
" transform="scale(0.015625)"/>
      <path id="DejaVuSans-73" d="M 2834 3397 
L 2834 2853 
Q 2591 2978 2328 3040 
Q 2066 3103 1784 3103 
Q 1356 3103 1142 2972 
Q 928 2841 928 2578 
Q 928 2378 1081 2264 
Q 1234 2150 1697 2047 
L 1894 2003 
Q 2506 1872 2764 1633 
Q 3022 1394 3022 966 
Q 3022 478 2636 193 
Q 2250 -91 1575 -91 
Q 1294 -91 989 -36 
Q 684 19 347 128 
L 347 722 
Q 666 556 975 473 
Q 1284 391 1588 391 
Q 1994 391 2212 530 
Q 2431 669 2431 922 
Q 2431 1156 2273 1281 
Q 2116 1406 1581 1522 
L 1381 1569 
Q 847 1681 609 1914 
Q 372 2147 372 2553 
Q 372 3047 722 3315 
Q 1072 3584 1716 3584 
Q 2034 3584 2315 3537 
Q 2597 3491 2834 3397 
z
" transform="scale(0.015625)"/>
      <path id="DejaVuSans-28" d="M 1984 4856 
Q 1566 4138 1362 3434 
Q 1159 2731 1159 2009 
Q 1159 1288 1364 580 
Q 1569 -128 1984 -844 
L 1484 -844 
Q 1016 -109 783 600 
Q 550 1309 550 2009 
Q 550 2706 781 3412 
Q 1013 4119 1484 4856 
L 1984 4856 
z
" transform="scale(0.015625)"/>
      <path id="DejaVuSans-2f" d="M 1625 4666 
L 2156 4666 
L 531 -594 
L 0 -594 
L 1625 4666 
z
" transform="scale(0.015625)"/>
      <path id="DejaVuSans-62" d="M 3116 1747 
Q 3116 2381 2855 2742 
Q 2594 3103 2138 3103 
Q 1681 3103 1420 2742 
Q 1159 2381 1159 1747 
Q 1159 1113 1420 752 
Q 1681 391 2138 391 
Q 2594 391 2855 752 
Q 3116 1113 3116 1747 
z
M 1159 2969 
Q 1341 3281 1617 3432 
Q 1894 3584 2278 3584 
Q 2916 3584 3314 3078 
Q 3713 2572 3713 1747 
Q 3713 922 3314 415 
Q 2916 -91 2278 -91 
Q 1894 -91 1617 61 
Q 1341 213 1159 525 
L 1159 0 
L 581 0 
L 581 4863 
L 1159 4863 
L 1159 2969 
z
" transform="scale(0.015625)"/>
      <path id="DejaVuSans-64" d="M 2906 2969 
L 2906 4863 
L 3481 4863 
L 3481 0 
L 2906 0 
L 2906 525 
Q 2725 213 2448 61 
Q 2172 -91 1784 -91 
Q 1150 -91 751 415 
Q 353 922 353 1747 
Q 353 2572 751 3078 
Q 1150 3584 1784 3584 
Q 2172 3584 2448 3432 
Q 2725 3281 2906 2969 
z
M 947 1747 
Q 947 1113 1208 752 
Q 1469 391 1925 391 
Q 2381 391 2643 752 
Q 2906 1113 2906 1747 
Q 2906 2381 2643 2742 
Q 2381 3103 1925 3103 
Q 1469 3103 1208 2742 
Q 947 2381 947 1747 
z
" transform="scale(0.015625)"/>
      <path id="DejaVuSans-2d" d="M 313 2009 
L 1997 2009 
L 1997 1497 
L 313 1497 
L 313 2009 
z
" transform="scale(0.015625)"/>
      <path id="DejaVuSans-29" d="M 513 4856 
L 1013 4856 
Q 1481 4119 1714 3412 
Q 1947 2706 1947 2009 
Q 1947 1309 1714 600 
Q 1481 -109 1013 -844 
L 513 -844 
Q 928 -128 1133 580 
Q 1338 1288 1338 2009 
Q 1338 2731 1133 3434 
Q 928 4138 513 4856 
z
" transform="scale(0.015625)"/>
     </defs>
     <use xlink:href="#DejaVuSans-53" transform="translate(0 0.765625)"/>
     <use xlink:href="#DejaVuSans-63" transform="translate(63.476562 0.765625)"/>
     <use xlink:href="#DejaVuSans-65" transform="translate(118.457031 0.765625)"/>
     <use xlink:href="#DejaVuSans-6e" transform="translate(179.980469 0.765625)"/>
     <use xlink:href="#DejaVuSans-61" transform="translate(243.359375 0.765625)"/>
     <use xlink:href="#DejaVuSans-72" transform="translate(304.638672 0.765625)"/>
     <use xlink:href="#DejaVuSans-69" transform="translate(345.751953 0.765625)"/>
     <use xlink:href="#DejaVuSans-6f" transform="translate(373.535156 0.765625)"/>
     <use xlink:href="#DejaVuSans-20" transform="translate(434.716797 0.765625)"/>
     <use xlink:href="#DejaVuSans-42" transform="translate(466.503906 0.765625)"/>
     <use xlink:href="#DejaVuSans-3a" transform="translate(535.107422 0.765625)"/>
     <use xlink:href="#DejaVuSans-20" transform="translate(568.798828 0.765625)"/>
     <use xlink:href="#DejaVuSans-4f" transform="translate(600.585938 0.765625)"/>
     <use xlink:href="#DejaVuSans-70" transform="translate(679.296875 0.765625)"/>
     <use xlink:href="#DejaVuSans-74" transform="translate(742.773438 0.765625)"/>
     <use xlink:href="#DejaVuSans-69" transform="translate(781.982422 0.765625)"/>
     <use xlink:href="#DejaVuSans-6d" transform="translate(809.765625 0.765625)"/>
     <use xlink:href="#DejaVuSans-61" transform="translate(907.177734 0.765625)"/>
     <use xlink:href="#DejaVuSans-6c" transform="translate(968.457031 0.765625)"/>
     <use xlink:href="#DejaVuSans-20" transform="translate(996.240234 0.765625)"/>
     <use xlink:href="#DejaVuSans-Oblique-61" transform="translate(1028.027344 0.765625)"/>
     <use xlink:href="#DejaVuSans-2a" transform="translate(1107.594232 39.046875) scale(0.7)"/>
     <use xlink:href="#DejaVuSans-Oblique-79" transform="translate(1089.306641 -26.578125) scale(0.7)"/>
     <use xlink:href="#DejaVuSans-20" transform="translate(1158.966302 0.765625)"/>
     <use xlink:href="#DejaVuSans-76" transform="translate(1190.753411 0.765625)"/>
     <use xlink:href="#DejaVuSans-73" transform="translate(1249.933099 0.765625)"/>
     <use xlink:href="#DejaVuSans-20" transform="translate(1302.032708 0.765625)"/>
     <use xlink:href="#DejaVuSans-Oblique-3c9" transform="translate(1333.819818 0.765625)"/>
     <use xlink:href="#DejaVuSans-20" transform="translate(1417.560052 0.765625)"/>
     <use xlink:href="#DejaVuSans-20" transform="translate(1449.347161 0.765625)"/>
     <use xlink:href="#DejaVuSans-28" transform="translate(1481.134271 0.765625)"/>
     <use xlink:href="#DejaVuSans-31" transform="translate(1520.147943 0.765625)"/>
     <use xlink:href="#DejaVuSans-32" transform="translate(1583.77099 0.765625)"/>
     <use xlink:href="#DejaVuSans-2f" transform="translate(1647.394036 0.765625)"/>
     <use xlink:href="#DejaVuSans-35" transform="translate(1681.085443 0.765625)"/>
     <use xlink:href="#DejaVuSans-30" transform="translate(1744.70849 0.765625)"/>
     <use xlink:href="#DejaVuSans-30" transform="translate(1808.331536 0.765625)"/>
     <use xlink:href="#DejaVuSans-20" transform="translate(1871.954583 0.765625)"/>
     <use xlink:href="#DejaVuSans-62" transform="translate(1903.741693 0.765625)"/>
     <use xlink:href="#DejaVuSans-6f" transform="translate(1967.218255 0.765625)"/>
     <use xlink:href="#DejaVuSans-75" transform="translate(2028.399896 0.765625)"/>
     <use xlink:href="#DejaVuSans-6e" transform="translate(2091.778802 0.765625)"/>
     <use xlink:href="#DejaVuSans-64" transform="translate(2155.157708 0.765625)"/>
     <use xlink:href="#DejaVuSans-2d" transform="translate(2218.634271 0.765625)"/>
     <use xlink:href="#DejaVuSans-73" transform="translate(2254.718255 0.765625)"/>
     <use xlink:href="#DejaVuSans-61" transform="translate(2306.817865 0.765625)"/>
     <use xlink:href="#DejaVuSans-74" transform="translate(2368.097161 0.765625)"/>
     <use xlink:href="#DejaVuSans-75" transform="translate(2407.306146 0.765625)"/>
     <use xlink:href="#DejaVuSans-72" transform="translate(2470.685052 0.765625)"/>
     <use xlink:href="#DejaVuSans-61" transform="translate(2511.798333 0.765625)"/>
     <use xlink:href="#DejaVuSans-74" transform="translate(2573.07763 0.765625)"/>
     <use xlink:href="#DejaVuSans-65" transform="translate(2612.286615 0.765625)"/>
     <use xlink:href="#DejaVuSans-64" transform="translate(2673.810052 0.765625)"/>
     <use xlink:href="#DejaVuSans-29" transform="translate(2737.286615 0.765625)"/>
    </g>
   </g>
   <g id="legend_1">
    <g id="patch_9">
     <path d="M 262.365938 225.264 
L 342.204375 225.264 
Q 344.004375 225.264 344.004375 223.464 
L 344.004375 181.473375 
Q 344.004375 179.673375 342.204375 179.673375 
L 262.365938 179.673375 
Q 260.565938 179.673375 260.565938 181.473375 
L 260.565938 223.464 
Q 260.565938 225.264 262.365938 225.264 
z
" style="fill: #ffffff; opacity: 0.8; stroke: #cccccc; stroke-linejoin: miter"/>
    </g>
    <g id="line2d_15">
     <path d="M 264.165938 188.313375 
L 273.165938 188.313375 
L 282.165938 188.313375 
" style="fill: none; stroke: #dd8452; stroke-width: 1.8; stroke-linecap: round"/>
     <g>
      <use xlink:href="#m8a1722d00c" x="273.165938" y="188.313375" style="fill: #dd8452; stroke: #dd8452; stroke-linejoin: miter"/>
     </g>
    </g>
    <g id="text_15">
     <!-- $a_y^*$ -->
     <g style="fill: #262626" transform="translate(289.365938 191.463375) scale(0.09 -0.09)">
      <use xlink:href="#DejaVuSans-Oblique-61" transform="translate(0 0.765625)"/>
      <use xlink:href="#DejaVuSans-2a" transform="translate(79.566888 39.046875) scale(0.7)"/>
      <use xlink:href="#DejaVuSans-Oblique-79" transform="translate(61.279297 -26.578125) scale(0.7)"/>
     </g>
    </g>
    <g id="line2d_16">
     <path d="M 264.165938 203.431969 
L 273.165938 203.431969 
L 282.165938 203.431969 
" style="fill: none; stroke-dasharray: 1,1.65; stroke-dashoffset: 0; stroke: #808080; stroke-opacity: 0.5"/>
    </g>
    <g id="text_16">
     <!-- Bound = -5 -->
     <g style="fill: #262626" transform="translate(289.365938 206.581969) scale(0.09 -0.09)">
      <defs>
       <path id="DejaVuSans-3d" d="M 678 2906 
L 4684 2906 
L 4684 2381 
L 678 2381 
L 678 2906 
z
M 678 1631 
L 4684 1631 
L 4684 1100 
L 678 1100 
L 678 1631 
z
" transform="scale(0.015625)"/>
      </defs>
      <use xlink:href="#DejaVuSans-42"/>
      <use xlink:href="#DejaVuSans-6f" transform="translate(68.603516 0)"/>
      <use xlink:href="#DejaVuSans-75" transform="translate(129.785156 0)"/>
      <use xlink:href="#DejaVuSans-6e" transform="translate(193.164062 0)"/>
      <use xlink:href="#DejaVuSans-64" transform="translate(256.542969 0)"/>
      <use xlink:href="#DejaVuSans-20" transform="translate(320.019531 0)"/>
      <use xlink:href="#DejaVuSans-3d" transform="translate(351.806641 0)"/>
      <use xlink:href="#DejaVuSans-20" transform="translate(435.595703 0)"/>
      <use xlink:href="#DejaVuSans-2d" transform="translate(467.382812 0)"/>
      <use xlink:href="#DejaVuSans-35" transform="translate(503.466797 0)"/>
     </g>
    </g>
    <g id="line2d_17">
     <path d="M 264.165938 216.642281 
L 273.165938 216.642281 
L 282.165938 216.642281 
" style="fill: none; stroke-dasharray: 1,1.65; stroke-dashoffset: 0; stroke: #808080; stroke-opacity: 0.5"/>
    </g>
    <g id="text_17">
     <!-- Bound = 5 -->
     <g style="fill: #262626" transform="translate(289.365938 219.792281) scale(0.09 -0.09)">
      <use xlink:href="#DejaVuSans-42"/>
      <use xlink:href="#DejaVuSans-6f" transform="translate(68.603516 0)"/>
      <use xlink:href="#DejaVuSans-75" transform="translate(129.785156 0)"/>
      <use xlink:href="#DejaVuSans-6e" transform="translate(193.164062 0)"/>
      <use xlink:href="#DejaVuSans-64" transform="translate(256.542969 0)"/>
      <use xlink:href="#DejaVuSans-20" transform="translate(320.019531 0)"/>
      <use xlink:href="#DejaVuSans-3d" transform="translate(351.806641 0)"/>
      <use xlink:href="#DejaVuSans-20" transform="translate(435.595703 0)"/>
      <use xlink:href="#DejaVuSans-35" transform="translate(467.382812 0)"/>
     </g>
    </g>
   </g>
  </g>
 </g>
 <defs>
  <clipPath id="pa5819fc9da">
   <rect x="48.530156" y="24.12" width="507.51" height="205.644"/>
  </clipPath>
 </defs>
</svg>
